<svg id="Capa_1" data-name="Capa 1" xmlns="http://www.w3.org/2000/svg" viewBox="0 0 512 374.35"><defs><style>.cls-1{fill:#d80027}</style></defs><title>battery</title><path class="cls-1" d="M501.68 118.95h-46.24v-39.8a10.32 10.32 0 0 0-10.32-10.32h-39.45a10.32 10.32 0 0 0-10.32 10.32v39.79h-278.7V79.15a10.32 10.32 0 0 0-10.32-10.32H66.89a10.32 10.32 0 0 0-10.33 10.32v39.79H10.32A10.32 10.32 0 0 0 0 129.27v65.44A10.32 10.32 0 0 0 10.32 205h1.89v227.85a10.32 10.32 0 0 0 10.32 10.32h466.93a10.32 10.32 0 0 0 10.32-10.32V205h1.89A10.32 10.32 0 0 0 512 194.71v-65.44a10.32 10.32 0 0 0-10.32-10.32zM416 89.48h18.79v29.47H416zm-338.78 0H96v29.47H77.21zm-56.57 50.11h470.7v44.79H20.65zm458.48 282.93H32.87V205h446.26z" transform="translate(0 -68.83)"/><path class="cls-1" d="M89.25 288.61v9.18a10.32 10.32 0 1 0 20.65 0v-9.18h9.18a10.32 10.32 0 0 0 0-20.65h-9.18v-9.18a10.32 10.32 0 0 0-20.65 0V268h-9.18a10.32 10.32 0 1 0 0 20.65h9.18z" transform="translate(0 -68.83)"/><path class="cls-1" d="M99.58 334.49a56.21 56.21 0 1 0-56.21-56.21 56.28 56.28 0 0 0 56.21 56.21zm0-91.78A35.56 35.56 0 1 1 64 278.28a35.6 35.6 0 0 1 35.58-35.56zm335.98 45.9a10.32 10.32 0 1 0 0-20.65h-39a10.32 10.32 0 0 0 0 20.65z" transform="translate(0 -68.83)"/><path class="cls-1" d="M416.06 334.49a56.21 56.21 0 1 0-56.21-56.21 56.28 56.28 0 0 0 56.21 56.21zm0-91.78a35.56 35.56 0 1 1-35.56 35.56 35.6 35.6 0 0 1 35.56-35.55zm-194.24 72.84a10.32 10.32 0 0 0 11.45.73l34.26-19.86-23.17 87a10.32 10.32 0 1 0 20 5.31l29.58-111.11a10.32 10.32 0 0 0-15.15-11.59l-34.26 19.86L259 231.23a10.33 10.33 0 0 0-20-5.31l-21 78.78a10.33 10.33 0 0 0 3.82 10.85z" transform="translate(0 -68.83)"/></svg>