<svg id="Capa_1" data-name="Capa 1" xmlns="http://www.w3.org/2000/svg" viewBox="0 0 512 511.85"><defs><style>.cls-1{fill:#d80027}</style></defs><title>brake-disk</title><path class="cls-1" d="M506.33 227.67A233.57 233.57 0 0 0 296 45.58a45.28 45.28 0 0 0-2.41-11.15A44.28 44.28 0 0 0 256.2 4.94L213.87.5a76.94 76.94 0 0 0-62.69 22.21L22.64 151.26A76.94 76.94 0 0 0 .43 213.94l4.44 42.33a44.29 44.29 0 0 0 29.49 37.43 45.33 45.33 0 0 0 11.16 2.44A233.37 233.37 0 0 0 278 511.93c77.3 0 153-38.28 197.48-108.2a232 232 0 0 0 30.85-176.06zm-405 35.07l52.21-52.21a10.58 10.58 0 0 0 13.87-3.65 10.65 10.65 0 0 0 .48-10.68l33.63-33.63A10.64 10.64 0 0 0 217.34 149a10.47 10.47 0 0 0-.94-1.37l46.26-46.26a175.75 175.75 0 0 1 111.08 27.05C456.46 181 481 291.08 428.42 373.82a177.78 177.78 0 0 1-327.13-111.08zM26 254.05l-4.44-42.33a55.74 55.74 0 0 1 16.09-45.42L166.24 37.76a55.74 55.74 0 0 1 45.42-16.09L254 26.1a22.88 22.88 0 0 1 19.59 15.43 22.89 22.89 0 0 1-5.5 24.32L65.79 268.14a22.89 22.89 0 0 1-24.32 5.5A22.89 22.89 0 0 1 26 254.05zm431.51 138.26a212.26 212.26 0 0 1-390.91-99.5 44.78 44.78 0 0 0 12.79-8.25 199 199 0 0 0 92.2 161.89A197.7 197.7 0 0 0 278 477.58a200.81 200.81 0 0 0 43.67-4.83 197.77 197.77 0 0 0 124.72-87.52c58.86-92.64 31.4-215.9-61.23-274.78a199.82 199.82 0 0 0-100.72-31 44.74 44.74 0 0 0 8.29-12.83 212.27 212.27 0 0 1 164.78 325.69z" transform="translate(0 -.07)"/><path class="cls-1" d="M221.07 368.63a106.13 106.13 0 0 0 57.1 16.71 107.75 107.75 0 0 0 23.45-2.6 106.85 106.85 0 1 0-80.55-14.11zm-14.9-136.07a85.56 85.56 0 1 1 26.31 118.11 85.57 85.57 0 0 1-26.31-118.11zM409.86 335a10.48 10.48 0 0 0 3.48.59 10.66 10.66 0 1 0-3.48-.59zm-16.55-130.57a10.65 10.65 0 1 0-8.57-4.34 10.61 10.61 0 0 0 8.57 4.34zm26.15 63.09a10.79 10.79 0 0 0 1.62-.12 10.68 10.68 0 1 0-1.62.12zM250.79 407.66a10.64 10.64 0 0 0-4.47 20.81 11.26 11.26 0 0 0 2.25.24 10.64 10.64 0 0 0 2.22-21zm63.21-2.02a10.64 10.64 0 0 0 2.86 20.89 11.07 11.07 0 0 0 2.89-.39 10.65 10.65 0 0 0-5.75-20.5zm55-31.07a10.64 10.64 0 1 0 15.05.45 10.66 10.66 0 0 0-15.05-.45zM193.9 380a10.65 10.65 0 1 0 1.38 15 10.65 10.65 0 0 0-1.38-15zM336 159.59l.17.08a10.47 10.47 0 0 0 4.64 1.08 10.65 10.65 0 0 0 4.67-20.22h-.11a10.64 10.64 0 0 0-9.37 19.06zM142.5 323.41a10.64 10.64 0 1 0 13.92 5.75 10.64 10.64 0 0 0-13.92-5.75zm-7.26-47.1a8.66 8.66 0 0 0 1 0 10.69 10.69 0 1 0-1 0zm138.59-129.89h.35a10.45 10.45 0 1 0-.35 0z" transform="translate(0 -.07)"/><path class="cls-1" d="M239.13 340.2a72.68 72.68 0 0 0 39.1 11.44 73.78 73.78 0 0 0 16.06-1.78 73.16 73.16 0 0 0 23.34-133.16 73.16 73.16 0 0 0-78.49 123.5zm-4.54-89.58a51.88 51.88 0 1 1 16 71.61 51.89 51.89 0 0 1-16-71.61zm-155-33.74a27.51 27.51 0 1 0-19.46-8.06 27.33 27.33 0 0 0 19.46 8.06zM75.19 185a6.23 6.23 0 1 1-1.83 4.41 6.19 6.19 0 0 1 1.83-4.41zm114.11-77.82a27.52 27.52 0 1 0-19.46-8.06 27.33 27.33 0 0 0 19.46 8.06zm-4.41-31.92a6.23 6.23 0 1 1-1.83 4.41 6.19 6.19 0 0 1 1.83-4.41z" transform="translate(0 -.07)"/></svg>