<svg data-name="Capa 1" xmlns="http://www.w3.org/2000/svg" viewBox="0 0 475.08 511.64"><title>calendar</title><path d="M464.23 83.94a35.11 35.11 0 0 0-25.69-10.85H402V45.68a44 44 0 0 0-13.42-32.26A44 44 0 0 0 356.31 0h-18.27a44 44 0 0 0-32.26 13.42 44 44 0 0 0-13.42 32.26v27.41H182.72V45.68a44 44 0 0 0-13.42-32.26A44 44 0 0 0 137.04 0h-18.27a44 44 0 0 0-32.26 13.42 44 44 0 0 0-13.42 32.26v27.41H36.54a35.12 35.12 0 0 0-25.7 10.85 35.12 35.12 0 0 0-10.85 25.7v365.45a35.13 35.13 0 0 0 10.85 25.69 35.12 35.12 0 0 0 25.7 10.85h402a37.06 37.06 0 0 0 36.55-36.54V109.64a35.13 35.13 0 0 0-10.86-25.7zM328.91 45.69a8.78 8.78 0 0 1 9.13-9.14h18.27a8.79 8.79 0 0 1 9.14 9.14v82.22a8.79 8.79 0 0 1-9.14 9.13h-18.27a8.78 8.78 0 0 1-9.13-9.13zm-219.27 0a8.79 8.79 0 0 1 9.14-9.14h18.27a8.79 8.79 0 0 1 9.14 9.14v82.22a8.79 8.79 0 0 1-9.14 9.13h-18.28a8.79 8.79 0 0 1-9.14-9.13zm328.9 429.4h-402V182.73h402z"/></svg>