<svg id="Capa_1" data-name="Capa 1" xmlns="http://www.w3.org/2000/svg" viewBox="0 0 512 468.5"><defs><style>.cls-1{fill:#d80027}</style></defs><title>car-repair</title><path class="cls-1" d="M484.9 325.41l-41.13-18.64-36.2-57.84a57.5 57.5 0 0 0-49-27.1H204.69a58.31 58.31 0 0 0-46 22.82l-46.59 61.16L34 327.13a46.09 46.09 0 0 0-34 44.34v29.78c0 25.39 20.89 45.52 46.27 45.52h6.43a58.31 58.31 0 0 0 112.79 0h175.13a58.31 58.31 0 0 0 112.79 0h12.32c25.39 0 46.27-20.14 46.27-45.52v-34a46.33 46.33 0 0 0-27.1-41.84zM109.15 469.27A36.85 36.85 0 1 1 146 432.42a36.84 36.84 0 0 1-36.85 36.85zm287.81 0a36.85 36.85 0 1 1 36.85-36.85A36.84 36.84 0 0 1 397 469.27zm93.62-68c0 13.5-11.35 24.1-24.85 24.1h-10.82a58.27 58.27 0 0 0-115.79 0H167a58.27 58.27 0 0 0-115.79 0h-4.94c-13.5 0-24.85-10.5-24.85-24.1v-29.8a24.75 24.75 0 0 1 18.21-23.67l81.62-22.28a11.12 11.12 0 0 0 5.78-3.86l48.74-64.05a36.43 36.43 0 0 1 28.92-14.35h153.92a35.94 35.94 0 0 1 30.74 17.14l37.92 60.52a10 10 0 0 0 4.61 4.07L476 345a24.88 24.88 0 0 1 14.57 22.39zM438.31 86.55a10.69 10.69 0 0 0 11.57-9.75 9.53 9.53 0 0 0-.43-3.86A69.51 69.51 0 0 0 422.77 35c-12.31-8.64-27.42-13-43.77-13.25-31.28 0-56.66 15.85-68 43.7H197.62c-13.6-23.56-38.77-38-64.8-38-16.82 0-32.13 4.61-44.13 13.5-13 9.64-22 23.89-25.92 41.35A10.6 10.6 0 0 0 70.8 95a10.84 10.84 0 0 0 3.21.21l37.28-2.89a23.86 23.86 0 0 1 0 20.57l-37.6-3a10.69 10.69 0 0 0-11.57 9.75 9.53 9.53 0 0 0 .43 3.86 69.16 69.16 0 0 0 26.78 37.92 76 76 0 0 0 44 13.5c31.28 0 56.66-16.39 68-43.17h112.83c11.78 19.28 35 37.6 64.59 37.17 16.71 0 32-4.82 44.13-13.71 13-9.53 22.17-23.67 26.46-40.92a10.82 10.82 0 0 0-7.82-13.07 9.13 9.13 0 0 0-3.43-.32l-37.27 3.1a23.86 23.86 0 0 1 0-20.57zm-51.63 35.35a11 11 0 0 0 9.21 4.07l26.67-2c-8.68 15.1-24.21 23.56-44.13 23.56-23 .32-41.24-15.85-48.31-31.06a10.42 10.42 0 0 0-9.75-5.89h-126.5a10.48 10.48 0 0 0-10.28 7.39c-6.59 22.03-25.92 35.64-50.23 35.64-18.36 0-33.64-7.61-42.85-20.61l25.49 2a10.77 10.77 0 0 0 9.43-4.18l.21-.32a46.12 46.12 0 0 0-.32-55.81 10.85 10.85 0 0 0-9.32-4.1l-27.1 2.15c8.46-15.53 23.78-24.1 43.92-24.1 19.82 0 39.85 13.28 48.74 31.92A11 11 0 0 0 191.2 87h127.14a11 11 0 0 0 10.28-7.93c6.64-22.07 25.92-36 50.13-36 18.21.21 33.53 7.71 42.74 20.67L396 61.6a10.77 10.77 0 0 0-9.43 4.18l-.21.32a45.81 45.81 0 0 0 .32 55.8z" transform="translate(0 -21.75)"/></svg>