<svg id="Capa_1" data-name="Capa 1" xmlns="http://www.w3.org/2000/svg" viewBox="0 0 512 375.86"><defs><style>.cls-1{fill:#d80027}</style></defs><title>damage</title><path class="cls-1" d="M306 413.92a43.3 43.3 0 1 0-43.3-43.3 43.35 43.35 0 0 0 43.3 43.3zm0-65.66a22.36 22.36 0 1 1-22.36 22.36A22.38 22.38 0 0 1 306 348.26z" transform="translate(0 -68.07)"/><path class="cls-1" d="M512 244.95a10.47 10.47 0 0 0-10.47-10.47H394.82V203L424 180.74a33.34 33.34 0 0 1 20.09-6.74h57.44a10.47 10.47 0 0 0 0-20.95h-57.44a54.39 54.39 0 0 0-32.76 11.05l-93.33 71-1.75.31-36.54-87a115.56 115.56 0 0 0-52-57 10.47 10.47 0 0 0-9.86 18.48 94.55 94.55 0 0 1 42.56 46.67l34.71 82.6-100.33 17.8A54 54 0 0 0 159 280.7l-6.31 9.77a66.73 66.73 0 0 0 11.69 86.16l8.51 7.56a61.4 61.4 0 0 0 40.83 15.53h25a73.29 73.29 0 0 0 134.55 0h128.26a10.47 10.47 0 0 0 0-20.95H378.88a72.15 72.15 0 0 0-.28-18.5h122.93a10.47 10.47 0 0 0 0-20.95H372.31a73.28 73.28 0 0 0-132.55 0h-75.08a45.5 45.5 0 0 1-1.68-10.59h29.59a23.88 23.88 0 0 0 0-47.77h-3.88a32.72 32.72 0 0 1 9.77-3.4l124.81-22.15h178.24A10.47 10.47 0 0 0 512 244.95zm-206 73.3a52.36 52.36 0 1 1-52.36 52.36A52.42 52.42 0 0 1 306 318.25zm-72.85 60.51h-19.44a40.48 40.48 0 0 1-26.92-10.24l-8.51-7.52c-.26-.23-.5-.47-.75-.71h55.94a72.15 72.15 0 0 0-.28 18.5zm-37.7-73.92a2.94 2.94 0 0 1-2.94 2.94H167a46 46 0 0 1 3.21-5.88h22.33a2.94 2.94 0 0 1 2.95 2.94zm178.38-70.37h-20.44l20.49-15.59z" transform="translate(0 -68.07)"/><path class="cls-1" d="M470.11 274a10.47 10.47 0 1 0 0 20.95H498a10.47 10.47 0 1 0 0-20.95zm-306.04-31.46a44.23 44.23 0 1 0 43-77.3A64 64 0 1 0 83 143v.35a69.82 69.82 0 1 0 81 99.15zM102 259.45a48.87 48.87 0 0 1-12.2-96.19 100.09 100.09 0 0 1 12.2-1.55 48.75 48.75 0 0 1 37.71 17.78 10.47 10.47 0 0 0 16.15-13.33A69.6 69.6 0 0 0 104 140.82a43.06 43.06 0 1 1 79.67 24.77 10.47 10.47 0 0 0 6.93 15.78 23.27 23.27 0 1 1-22.81 37.12 10.47 10.47 0 0 0-18.43 3.91A48.76 48.76 0 0 1 102 259.45zM68.65 102.4a34.33 34.33 0 1 0-34.33 34.33 34.37 34.37 0 0 0 34.33-34.33zm-47.71 0a13.38 13.38 0 1 1 13.38 13.38 13.4 13.4 0 0 1-13.37-13.38z" transform="translate(0 -68.07)"/></svg>