<svg id="Capa_1" data-name="Capa 1" xmlns="http://www.w3.org/2000/svg" viewBox="0 0 495.69 512"><defs><style>.cls-1{fill:#d80027}</style></defs><title>feedback</title><path class="cls-1" d="M140 168.27c.14-4.91.59-19.83 11.16-23.82s21.24 6.79 23.29 9a7.17 7.17 0 1 1-10.45 9.78c-2.49-2.63-6.43-5.26-7.92-5.31.1.2-1.49 2.5-1.74 10.78-.79 26.73 19.65 34.2 20.52 34.5a7.26 7.26 0 0 1 4.59 4.87l.33 1.2a7.4 7.4 0 0 1 .24 1.31c5.91 70.48 61.66 93.28 87.73 93.28s81.82-22.8 87.73-93.28a7.15 7.15 0 0 1 .23-1.29l.33-1.2a7.16 7.16 0 0 1 4.65-4.91c.82-.29 21.26-7.75 20.47-34.49-.27-9.11-2.17-11-2.19-11-.89.16-4.94 2.86-7.48 5.55a7.17 7.17 0 0 1-10.49-9.81c2.06-2.19 12.83-12.93 23.29-9s11 18.92 11.16 23.82c.78 26.5-14.87 41.14-26 46.72-7.53 71.15-63.63 103.2-101.71 103.2S173.55 286.15 166 215c-11.14-5.59-26.79-20.22-26-46.73zm18.35-48C158.34 21.62 237.17 0 267.55 0s109.56 21.62 109.56 120.32a7.18 7.18 0 0 1-5.05 6.85l-11.16 3.45-10 11a7.15 7.15 0 0 1-5.32 2.36h-.68a7.17 7.17 0 0 1-5.37-3.3c-.44-.62-14.82-20.27-71.84-20.31-57.64 0-71.71 20.13-71.84 20.33a7.35 7.35 0 0 1-5.48 3.24 7.09 7.09 0 0 1-5.88-2.27l-10-11-11.16-3.45a7.19 7.19 0 0 1-4.99-6.9zm14.42-5.25l7.91 2.44a7.2 7.2 0 0 1 3.2 2l6.05 6.71c9.47-8.1 31.38-20.2 77.8-20.23s68.33 12.14 77.81 20.23l6-6.7a7.22 7.22 0 0 1 3.2-2l7.91-2.44c-3.15-98-94.21-100.73-95.15-100.73s-91.61 2.81-94.74 100.77zm16.43-17.38a7.17 7.17 0 0 1 4.31-9.17 217.08 217.08 0 0 1 31-8.45c-1.63-5.73-3.26-11.46-4.76-17.22a7.16 7.16 0 0 1 5.14-8.8 174.18 174.18 0 0 1 85.65 0 7.16 7.16 0 0 1 5.19 8.76c-1.5 5.75-3.14 11.48-4.76 17.22a217.08 217.08 0 0 1 31 8.45 7.17 7.17 0 0 1-2.43 13.91 7.24 7.24 0 0 1-2.43-.43 205.13 205.13 0 0 0-138.71 0 7.17 7.17 0 0 1-9.2-4.27zm49.48-20a219.7 219.7 0 0 1 58.1 0c1.08-3.78 2.17-7.56 3.2-11.35a159.51 159.51 0 0 0-64.5 0c1.02 3.83 2.11 7.6 3.19 11.39zm265.17 153.25v36.6a10.75 10.75 0 0 1-5.37 9.31L472.15 292v90c0 .2-.05.38-.06.57 8.68 1.25 15.29 4.13 19.94 8.8 8.56 8.61 8.49 20.68 8.43 31.33v49.7a39.05 39.05 0 0 1-78.1 0v-49.72c-.06-10.65-.12-22.73 8.43-31.33 4.64-4.67 11.26-7.54 19.94-8.8 0-.19-.06-.38-.06-.57v-11c-7.36-24.94-22.38-48-42.57-66.23L388.34 361v151H147.13V361l-20.49-58.3c-28.21 23.19-46.85 54.3-50.86 87.06.67.54 1.47 1 2.07 1.58 8.55 8.66 8.49 20.66 8.43 31.34v49.73a39.05 39.05 0 0 1-78.1 0v-49.72C8.11 412 8 400 16.6 391.35a29.79 29.79 0 0 1 13-7.32v-37.92a7.17 7.17 0 0 1 7.17-7.17h5.11v-69.06a5.37 5.37 0 1 1 10.75 0v69.06h5.12a7.17 7.17 0 0 1 7.17 7.17v24.58c8.37-31.43 28.6-60.44 56.76-82.29l-2.12-6a7.17 7.17 0 1 1 13.44-4.79l.72 2.07a187.65 187.65 0 0 1 31.3-16.45 7.17 7.17 0 0 1 9.51 4.33c12.6 37.12 48.84 61.11 92.33 61.11s79.74-24 92.34-61.11a7.17 7.17 0 0 1 9.51-4.33 167.8 167.8 0 0 1 32.47 17.87l1.23-3.48a7.17 7.17 0 0 1 13.59 4.74l-2.76 7.85A166.93 166.93 0 0 1 450.66 335v-43l-26.32-15.2a10.75 10.75 0 0 1-5.34-9.3v-36.6a10.75 10.75 0 0 1 21.5 0v30.39l21 12.09 21-12.09V230.9a10.75 10.75 0 0 1 21.5 0zM43.89 377h6.65v-23.73h-6.65zm25.86 105.46H55.16a7.17 7.17 0 1 1 0-14.33h16.77V456H55.16a7.17 7.17 0 0 1 0-14.33h16.78v-13.02H55.16a7.17 7.17 0 0 1 0-14.33h16.66c-.29-5.31-1.23-9.94-4.13-12.86-3.52-3.54-10.4-5.34-20.46-5.34s-16.95 1.79-20.46 5.34c-4.36 4.38-4.31 12.52-4.26 21.15v49.8a24.69 24.69 0 0 0 47.25 10.05zm99.52-105.58a4.57 4.57 0 1 0-4.57 4.57 4.57 4.57 0 0 0 4.58-4.57zm163.14 69.75a7.17 7.17 0 0 0-7.17-7.17h-115a7.17 7.17 0 1 0 0 14.33h115a7.17 7.17 0 0 0 7.17-7.16zm-64.69-65.17a4.57 4.57 0 1 0-4.57-4.57 4.57 4.57 0 0 0 4.58 4.56zm107.59-4.57a4.57 4.57 0 1 0-4.57 4.57 4.57 4.57 0 0 0 4.58-4.58zm20.94-81.74A154.67 154.67 0 0 0 370 279.43C353.39 318.29 313.76 343 266.89 343s-86.5-24.71-103.13-63.58a172.69 172.69 0 0 0-25.11 14.23l23.09 65.74h211.94zm85.61 106.32c-3.52-3.54-10.41-5.34-20.46-5.34s-16.95 1.79-20.46 5.34c-2.91 2.93-3.84 7.55-4.13 12.86h16.66a7.17 7.17 0 0 1 0 14.33h-16.79v13.04h16.79a7.17 7.17 0 0 1 0 14.33h-16.78v12.09h16.78a7.17 7.17 0 1 1 0 14.33h-14.6a24.69 24.69 0 0 0 47.25-10.05v-49.8c.06-8.6.11-16.76-4.25-21.14zM272.13 175.75v35.49h-16a7.17 7.17 0 0 0 0 14.33h23.13a7.17 7.17 0 0 0 7.17-7.17v-42.65a7.17 7.17 0 1 0-14.33 0z" transform="translate(-8.16)"/></svg>