<svg id="Capa_1" data-name="Capa 1" xmlns="http://www.w3.org/2000/svg" viewBox="0 0 512 511.99"><defs><style>.cls-1{fill:#d80027}</style></defs><title>gasoline-pump</title><path class="cls-1" d="M436 229l-76.5-76.5a10.79 10.79 0 0 0-5.79-3l-64-10.67a10.77 10.77 0 0 0-10.9 5l-21.33 35.67a10.65 10.65 0 0 0 1.6 13l106.71 106.71a10.66 10.66 0 0 0 15.08 0L436 244a10.66 10.66 0 0 0 0-15zm-89.17-59l36.46 36.46a27.07 27.07 0 0 1-29.13-6l-35.14-35.14zm26.46 106.62l-93.25-93.25 10-16.79 49 49a48.25 48.25 0 0 0 60 6.64l14.32 14.32zM40.78 132.61c-4-5.75-13.58-5.75-17.54 0C16.26 142.71 0 167.69 0 181.33a32 32 0 0 0 64 0c0-13.64-16.24-38.62-23.22-48.72zM32 192a10.68 10.68 0 0 1-10.67-10.65c.08-3.27 4.52-12.56 10.67-22.92 6.15 10.33 10.58 19.65 10.67 22.92A10.67 10.67 0 0 1 32 192z"/><path class="cls-1" d="M501 324.76l7.88-7.88a10.66 10.66 0 0 0 0-15.08l-35.12-35.12 12.5-12.5a42.73 42.73 0 0 0 0-60.33L419.44 127a40.85 40.85 0 0 0-6.56-49.23L395 59.86a40.77 40.77 0 0 0-44-9l-81.77 32.62-37.69-37.69a10.66 10.66 0 0 0-15.08 0l-.31.31C193.24 26.35 154.07 0 107.84 0 45.26 0 6.36 25.65 4.74 26.73A10.64 10.64 0 0 0 1.8 41.5L25.46 77a10.75 10.75 0 0 0 14.65 3c.27-.15 25.9-16 67.73-16 25.71 0 49.78 16.21 63.75 27.78a10.63 10.63 0 0 0 2.21 11.76l39.54 39.54v46.33a43 43 0 0 0 12.5 30.17l117.33 117.33a42.09 42.09 0 0 0 50 7.38l36.58 36.58a10.66 10.66 0 0 0 15.08 0l1.62-1.62A83.6 83.6 0 0 1 364.4 448h-55.06a10.66 10.66 0 0 0-10.67 10.67v42.67A10.66 10.66 0 0 0 309.34 512h55.06c81.39 0 147.6-66.21 147.6-147.6a77.62 77.62 0 0 0-11-39.64zM107.84 42.67c-33.27 0-57.48 8.69-70 14.5L26 39.29c13.92-6.81 42.69-18 81.87-18 39.44 0 74.37 24 93.17 39.91l-14.88 14.9c-17.57-14.79-46.07-33.43-78.32-33.43zm280.6 279.16a21.33 21.33 0 0 1-30.19 0L240.92 204.5a21.48 21.48 0 0 1-6.25-15.08v-50.75a10.66 10.66 0 0 0-3.12-7.54L196.42 96 224 68.42l35.12 35.12a10.57 10.57 0 0 0 11.5 2.35l88.23-35.27a19.5 19.5 0 0 1 21 4.31l17.92 17.94a19.47 19.47 0 0 1 0 27.58 10.66 10.66 0 0 0 0 15.08l73.37 73.37a21.36 21.36 0 0 1 0 30.17zm48.9 36.42l-27.57-27.57 48.91-48.92 27.58 27.58zM364.4 490.66H320v-21.33h44.4a105.07 105.07 0 0 0 104.93-104.94 31.91 31.91 0 0 0-.84-7.14l16.74-16.74a56.37 56.37 0 0 1 5.44 23.88A126.41 126.41 0 0 1 364.4 490.66z"/></svg>