<svg id="Capa_1" data-name="Capa 1" xmlns="http://www.w3.org/2000/svg" viewBox="0 0 512 442.41"><defs><style>.cls-1{fill:#d80027}</style></defs><title>hammer-and-wrench</title><path class="cls-1" d="M340.56 187.17l48.51 17.42a9.86 9.86 0 0 0 12.62-6L413.42 166a9.87 9.87 0 0 0-6-12.62L359 135.94a9.86 9.86 0 0 0-12.62 6l-11.78 32.6a9.87 9.87 0 0 0 6 12.62zm21-29.32l29.94 10.75-5.06 14.08-29.94-10.75z" transform="translate(0 -34.8)"/><circle class="cls-1" cx="120.69" cy="401.46" r="10.35"/><path class="cls-1" d="M337.14 272.28l2.75-2.75a140.09 140.09 0 0 1 45-30.22l64.68-27.2s17.56-7.57 21.49-9.8a75.12 75.12 0 0 0 15.93-12.54 85.79 85.79 0 0 0 3.65-117.31 9.87 9.87 0 0 0-16.64 3.1l-23.57 63.49-17.59-6.51 24.73-67.44a9.87 9.87 0 0 0-10.63-13.17 85.5 85.5 0 0 0-70 59.93l-40.75-15.07a9.87 9.87 0 0 0-13.13 7.46l-9.37 50.69a140.06 140.06 0 0 1-29.87 64l-86.63-86.63 6.16-6.16a9.87 9.87 0 0 0 0-14l-6.51-6.51c19.84-24.36 45.23-25.56 63.69-21.9a9.87 9.87 0 0 0 9.6-15.87 88.26 88.26 0 0 0-32.21-25.05A89.86 89.86 0 0 0 145.15 54l-5.39-5.39a9.87 9.87 0 0 0-14 0l-59.87 59.95a9.87 9.87 0 0 0-.07 13.89c3.42 3.49 1.8 11.16-3.46 16.42s-12.93 6.88-16.42 3.46a9.87 9.87 0 0 0-13.89.07L2.89 171.55a9.87 9.87 0 0 0 0 14l63.58 63.58a9.87 9.87 0 0 0 14 0l29.16-29.16a9.87 9.87 0 0 0 .1-13.85c-3.39-3.49-1.76-11.15 3.48-16.4s12.91-6.87 16.4-3.48a9.87 9.87 0 0 0 13.85-.1l5.45-5.45L236 267.74 92.88 410.83a37.38 37.38 0 0 0 52.86 52.86L288.82 320.6l153.72 153.71a9.87 9.87 0 0 0 14 0l34.36-34.36a9.87 9.87 0 0 0 0-14zm95.27-195.94l-18.13 49.36-18.81-7a65.76 65.76 0 0 1 36.94-42.36zM229.68 60.82q2.38 1.09 4.64 2.34c-20 2.53-37.63 12.24-51.49 28.55l-23.6-23.6a70 70 0 0 1 70.45-7.29zm-96.89 8.75l49.63 49.63-44.92 44.9-49.62-49.62zM73.45 228.16l-49.63-49.63L39 163.32l49.63 49.63zm25.77-52.44a39.08 39.08 0 0 0-8.12 11.76l-26.55-26.54a39.78 39.78 0 0 0 20.51-21.36l27.4 27.42a38.81 38.81 0 0 0-13.24 8.72zm63.61-9l20.4-20.4 87.1 87.09-20.41 20.41zm-31.05 283a17.64 17.64 0 0 1-24.95-24.95l181.93-181.92a159.81 159.81 0 0 0 44.34-84.32l7.24-39.16L452.77 161a9.87 9.87 0 0 0 12.68-5.82l20.3-54.69A66.1 66.1 0 0 1 473 175.82a56 56 0 0 1-11.7 9.33c-2.29 1.3-20.67 9.31-20.67 9.31l-63.42 26.67a159.73 159.73 0 0 0-51.26 34.45zm317.74 3.65L302.78 306.64l20.4-20.4L469.92 433z" transform="translate(0 -34.8)"/></svg>