<svg id="Capa_1" data-name="Capa 1" xmlns="http://www.w3.org/2000/svg" viewBox="0 0 393.95 512"><defs><style>.cls-1{fill:#d80027}</style></defs><title>jerrycan</title><path class="cls-1" d="M387 162.18a10.44 10.44 0 1 0-16.57-12.69l-49.5 64.63h-85.42L186 149.49a10.44 10.44 0 1 0-16.57 12.69l50.48 65.91V346l-50.47 65.9A10.44 10.44 0 1 0 186 424.59L235.51 360h85.42l49.5 64.63A10.44 10.44 0 1 0 387 411.9L336.52 346V228.09zm-71.35 176.91H240.8V235h74.85v104.1z" transform="translate(-59.02)"/><path class="cls-1" d="M411.5 0h-177a47.07 47.07 0 0 0-47 47v15.08h-15.32a68.8 68.8 0 0 0-11.38 1l-24-24 6.46-6.46a10.44 10.44 0 1 0-14.78-14.82L95.28 51 75.91 70.37 62.08 84.2A10.44 10.44 0 0 0 76.84 99l6.45-6.45 22.12 22.11a68.6 68.6 0 0 0-1.94 16.17v312.5A68.79 68.79 0 0 0 172.18 512h212.08A68.79 68.79 0 0 0 453 443.29V41.47A41.52 41.52 0 0 0 411.5 0zM208.32 47a26.18 26.18 0 0 1 26.15-26.15h89.84a86.07 86.07 0 0 0-13.42 14.42A66 66 0 0 1 258 62.07h-49.68V47zM98.05 77.75l24-24 16.91 16.91a69.21 69.21 0 0 0-24.7 23.25zM432.1 443.29a47.9 47.9 0 0 1-47.84 47.84H172.18a47.9 47.9 0 0 1-47.84-47.84v-312.5a47.9 47.9 0 0 1 47.84-47.84H258a86.9 86.9 0 0 0 69.75-35.29 66 66 0 0 1 52.94-26.78h30.81a20.63 20.63 0 0 1 20.6 20.6v401.81z" transform="translate(-59.02)"/></svg>