<svg id="Capa_1" data-name="Capa 1" xmlns="http://www.w3.org/2000/svg" viewBox="0 0 511.94 512"><defs><style>.cls-1{fill:#d80027}</style></defs><title>key</title><path class="cls-1" d="M472.32 39.71a135.59 135.59 0 0 0-191.75 0L228.7 91.59a77.58 77.58 0 0 0 0 109.59l.66.66-34.11 34.11a11.08 11.08 0 0 0-1.48 1.83l-17.87 27.74-27.76 17.88a11 11 0 0 0-3.31 3.31L127 314.46l-27.79 17.87a11 11 0 0 0-3.31 3.31L78 363.39l-27.72 17.88a11 11 0 0 0-3.28 3.3l-17.79 27.58-23.77 14.08A11 11 0 0 0 0 436.17l2.52 62.71a11 11 0 0 0 10.59 10.59L75.86 512h.44a11 11 0 0 0 7.81-3.23l226.09-226.1.66.66a77.58 77.58 0 0 0 109.59 0l51.87-51.87c52.87-52.87 52.87-138.88 0-191.75zM42.71 429.82a11.06 11.06 0 0 0 3.66-3.52l17.87-27.76L92 380.67a11 11 0 0 0 3.31-3.31l17.87-27.76 27.75-17.87a11 11 0 0 0 3.31-3.31l17.87-27.76 27.75-17.87a11 11 0 0 0 3.31-3.31l18.53-28.77 33.3-33.26 26 26L26.46 487.9l-2.24-.09-1.85-45.94zm29.2 59.91l-15.42-.62L286.56 259l8 8zM456.7 215.84l-51.87 51.87a55.46 55.46 0 0 1-78.35 0l-82.16-82.16a55.4 55.4 0 0 1 0-78.35l51.87-51.87a113.5 113.5 0 0 1 160.51 0l7.81-7.81-7.81 7.81a113.63 113.63 0 0 1 0 160.51z" transform="translate(-.03)"/><path class="cls-1" d="M435.83 78a83.32 83.32 0 0 0-91.69-18.57 11 11 0 0 0-3.56 17.92l93.34 94.74a11 11 0 0 0 18-3.36C465.41 137.62 459.1 102 435.83 78zm.49 65.06L369.65 75.4a61.1 61.1 0 0 1 50.33 18 60.06 60.06 0 0 1 16.34 49.67z" transform="translate(-.03)"/></svg>