<svg id="Capa_1" data-name="Capa 1" xmlns="http://www.w3.org/2000/svg" viewBox="0 0 512 361.06"><defs><style>.cls-1{fill:#d80027}</style></defs><title>motor</title><path class="cls-1" d="M458.52 182.87a10.19 10.19 0 0 0-10.19 10.19v60.46h-20.72v-51.07a10.19 10.19 0 0 0-10.19-10.19h-47.27l-8.81-29.35a10.19 10.19 0 0 0-9.76-7.26h-72v-25.79h45.32a10.19 10.19 0 0 0 10.19-10.19v-34a10.19 10.19 0 0 0-10.19-10.19h-146a10.19 10.19 0 0 0-10.19 10.19v34a10.19 10.19 0 0 0 10.19 10.19h45.32v25.78h-105a10.19 10.19 0 0 0-8.95 5.32l-17 31.3H53.46a10.19 10.19 0 0 0-10.19 10.19v51.07H20.38v-72.84a10.19 10.19 0 1 0-20.38 0v210.58a10.19 10.19 0 1 0 20.38 0v-72.84h22.9v53.93a10.19 10.19 0 0 0 10.19 10.19h84.83l38.79 50a10.19 10.19 0 0 0 8.05 3.95h232.28a10.19 10.19 0 0 0 10.19-10.19V318.42h20.71v60.46a10.19 10.19 0 0 0 10.19 10.19A53.54 53.54 0 0 0 512 335.58v-99.22a53.54 53.54 0 0 0-53.48-53.49zM20.38 298v-24.1h22.9V298zM189.13 95.85h125.62v13.64H189.13zm55.51 34h14.6v25.78h-14.6zm-181 82.77h7.24v149.54h-7.23zm87.69 153.47a10.19 10.19 0 0 0-8.05-3.95h-52V212.63h8.1a10.19 10.19 0 0 0 8.95-5.32l17-31.3H344l8.81 29.35a10.19 10.19 0 0 0 9.76 7.26h18.28v203.53H190.13zm255.89 50h-6V212.63h6zM427.61 298v-24.1h20.71V298zm64 37.54a33.17 33.17 0 0 1-22.92 31.5V204.85a33.16 33.16 0 0 1 22.92 31.5z" transform="translate(0 -75.47)"/></svg>