<svg id="Capa_1" data-name="Capa 1" xmlns="http://www.w3.org/2000/svg" viewBox="0 0 512 448"><defs><style>.cls-1{fill:#d80027}</style></defs><title>pic</title><path class="cls-1" d="M208.94 331.09l11.87 29.69a206.2 206.2 0 0 1-34.16 10.44l-6.53-31.31a177.19 177.19 0 0 0 28.82-8.82zm-95.22 38.35a140.15 140.15 0 0 0 36.69 5.37l.5-32a108.92 108.92 0 0 1-28.34-4.12zm252-55.85a100.86 100.86 0 0 1 26.72 9.41l14.7-28.44a133.06 133.06 0 0 0-35.26-12.32zm-66.75-26.25l9.57 30.5a131.89 131.89 0 0 1 28.75-5.75l-2.56-31.88a163.66 163.66 0 0 0-35.8 7.13zM247.6 311.4c-3.59 2.25-7.13 4.31-10.6 6.25l15.56 27.94c3.91-2.2 7.9-4.5 11.9-7q8.25-5.11 16.16-9.13L266.06 301c-6 3-12.19 6.5-18.5 10.41zM336 112a79.65 79.65 0 0 1-8.69 36.32L256 288s-71.87-140.84-72.16-141.43A80 80 0 1 1 336 112zm-32 0a48 48 0 1 0-48 48 48 48 0 0 0 48-48zm112 80h-75.06l-16.35 32h68.35l34.53 103.63-11 12.19a108.35 108.35 0 0 1 17.88 20.44l3.37-2L467.6 448H44.37l32.06-96.09c1.12.78 2 1.53 3.25 2.31l17-27.06a101.81 101.81 0 0 1-9.69-7L119.07 224h68.37c-6.78-13.25-12.13-23.72-16.34-32H96L0 480h512z" transform="translate(0 -32)"/></svg>