<svg id="Capa_1" data-name="Capa 1" xmlns="http://www.w3.org/2000/svg" viewBox="0 0 512 300.15"><defs><style>.cls-1{fill:#d80027}</style></defs><title>signaling</title><path class="cls-1" d="M400 241.3h2.91a10.39 10.39 0 1 0 0-20.79h-13.2l-4.42-9.67A32.11 32.11 0 0 0 363.4 193c-13.56-3.11-64.86-3.11-78.42 0a32.11 32.11 0 0 0-21.9 17.85l-4.42 9.67h-13.2a10.39 10.39 0 1 0 0 20.79h2.91l-7.44 7.44a25.75 25.75 0 0 0-7.25 21.72l2.88 20.33a27.54 27.54 0 0 0 7.23 15v8.52a10.39 10.39 0 0 0 10.39 10.39H284a10.39 10.39 0 0 0 10.38-10.1H354a10.39 10.39 0 0 0 10.38 10.1h29.83a10.39 10.39 0 0 0 10.39-10.39v-8.52a27.56 27.56 0 0 0 7.23-15l2.88-20.33a25.75 25.75 0 0 0-7.25-21.72zm-136 52.53a7 7 0 0 1-6.85-5.95l-1.2-8.48h17.51a10.39 10.39 0 1 0 0-20.79h-13l3.59-3.59h120.26l3.59 3.59h-12.83a10.39 10.39 0 1 0 0 20.79h17.36l-1.2 8.48a7 7 0 0 1-6.85 5.95H264zm25.62-80.57c10.66-2.44 58.47-2.44 69.13 0a11.19 11.19 0 0 1 7.64 6.23l6.74 14.75h-97.89l6.76-14.76a11.2 11.2 0 0 1 7.62-6.22z" transform="translate(0 -105.93)"/><path class="cls-1" d="M343.83 270.25h-39.29a10.39 10.39 0 1 0 0 20.79h39.29a10.39 10.39 0 0 0 0-20.79z" transform="translate(0 -105.93)"/><path class="cls-1" d="M450.42 105.93H147.64A51.69 51.69 0 0 0 96.86 148H35.44A35.48 35.48 0 0 0 0 183.43v27.84a35.48 35.48 0 0 0 35.44 35.44h49.8l-5.78 49.72a98.29 98.29 0 0 0 97.63 109.64h273.33A61.65 61.65 0 0 0 512 344.49v-177a61.65 61.65 0 0 0-61.58-61.56zm-415 120a14.67 14.67 0 0 1-14.65-14.65v-27.85a14.67 14.67 0 0 1 14.65-14.65h58.87l-6.64 57.15zm455.79 118.56a40.84 40.84 0 0 1-40.79 40.79H177.09a77.5 77.5 0 0 1-77-86.45l16.83-144.78a30.91 30.91 0 0 1 30.71-27.34h302.79a40.84 40.84 0 0 1 40.79 40.79z" transform="translate(0 -105.93)"/><path class="cls-1" d="M429.12 153.27H225.18a35.53 35.53 0 0 0-35.3 31.43l-15.62 134.39a35.54 35.54 0 0 0 35.3 39.64h219.56a35.57 35.57 0 0 0 35.53-35.53V188.81a35.57 35.57 0 0 0-35.53-35.54zm14.75 169.92a14.76 14.76 0 0 1-14.75 14.75H209.56a14.75 14.75 0 0 1-14.65-16.45l15.62-134.38a14.75 14.75 0 0 1 14.65-13h203.94a14.76 14.76 0 0 1 14.75 14.75v134.33zM149 220.74A27.72 27.72 0 1 0 121.25 193 27.75 27.75 0 0 0 149 220.74zm0-34.64a6.93 6.93 0 1 1-7 6.9 6.94 6.94 0 0 1 7-6.91zm-7.43 50.22A27.72 27.72 0 1 0 169.29 264a27.75 27.75 0 0 0-27.72-27.68zm0 34.64a6.93 6.93 0 1 1 6.93-6.96 6.94 6.94 0 0 1-6.93 7z" transform="translate(0 -105.93)"/></svg>