<svg id="Capa_1" data-name="Capa 1" xmlns="http://www.w3.org/2000/svg" viewBox="0 0 481.41 512"><defs><style>.cls-1{fill:#d80027}</style></defs><title>stopwatch</title><path class="cls-1" d="M269.94 324.17a30.37 30.37 0 0 0 22.24-12.45l79.9-110.46a8.54 8.54 0 0 0-11.92-11.92l-110.47 79.93a30.41 30.41 0 0 0 17.87 55c.79 0 1.58-.04 2.38-.1zm-15.67-31.35a13.32 13.32 0 0 1 5.44-9.75l67.39-48.75-48.73 67.38a13.33 13.33 0 0 1-24.09-8.87z" transform="translate(-15.3)"/><path class="cls-1" d="M461.09 166.95c-.09-.18-.09-.37-.18-.55s-.26-.26-.38-.43a232 232 0 0 0-30.42-41l18.33-18.32 12.07 12.07 36.2-36.21-36.2-36.2-36.21 36.16 12.07 12.07L418 112.87a231.72 231.72 0 0 0-41-30.43c-.16-.11-.26-.27-.43-.38s-.37-.09-.55-.19a228.78 228.78 0 0 0-87.66-29v-10.2h12.8a21.33 21.33 0 1 0 0-42.67h-76.8a21.33 21.33 0 1 0 0 42.67h12.8v9.86a234.71 234.71 0 0 0-27.51 4.57 8.53 8.53 0 0 0 3.81 16.63 217 217 0 0 1 23.72-4.07l9.16-.71c2.8-.21 5.38-.37 7.88-.49v16.87a8.53 8.53 0 1 0 17.07 0V68.52a211.67 211.67 0 0 1 89.23 24.28l-8.41 14.57a8.53 8.53 0 1 0 14.78 8.53l8.39-14.53a215 215 0 0 1 66.32 66.32l-14.53 8.39a8.54 8.54 0 0 0 8.55 14.78l14.57-8.41a211.79 211.79 0 0 1 24.31 90.62h-16.86a8.53 8.53 0 0 0 0 17.07h16.86a211.79 211.79 0 0 1-24.31 90.62l-14.57-8.41a8.53 8.53 0 1 0-8.53 14.78l14.53 8.39a215 215 0 0 1-66.32 66.32l-8.39-14.53a8.53 8.53 0 0 0-14.78 8.53l8.41 14.57a211.67 211.67 0 0 1-89.22 24.28v-16.82a8.53 8.53 0 1 0-17.07 0v16.86a215.34 215.34 0 0 1-40.76-5.27 8.53 8.53 0 1 0-3.81 16.63 230.58 230.58 0 0 0 51.7 5.91h1.59a228.91 228.91 0 0 0 112.8-30.49 7.23 7.23 0 0 0 .8-.33c.17-.1.26-.26.43-.38a232.08 232.08 0 0 0 83.4-83.29 8.08 8.08 0 0 0 .51-.67c.1-.18.09-.37.18-.55a229.51 229.51 0 0 0 0-229.31zm-.59-96.54l12.07 12.07-12.07 12.07-12.07-12.08zm-206.27-19V25.6h-29.86a4.27 4.27 0 1 1 0-8.53h76.8a4.27 4.27 0 1 1 0 8.53H271.3v25.78c-3-.12-5.8-.18-8.53-.18h-1.39c-1.4 0-2.8.09-4.2.12-.99.03-1.92.02-2.95.06zM186 119.47h-42.7a8.53 8.53 0 1 0 0 17.07H186a8.53 8.53 0 0 0 0-17.07zm0 59.73h-85.37a8.53 8.53 0 0 0 0 17.07H186a8.53 8.53 0 0 0 0-17.07zm0 59.73H58A8.53 8.53 0 0 0 58 256h128a8.53 8.53 0 0 0 0-17.07zm0 59.74H23.83a8.53 8.53 0 0 0 0 17.07H186a8.53 8.53 0 0 0 0-17.07zm0 59.73H75a8.53 8.53 0 1 0 0 17.07h111a8.53 8.53 0 1 0 0-17.07zm0 59.73h-59.77a8.53 8.53 0 0 0 0 17.07H186a8.53 8.53 0 1 0 0-17.07z" transform="translate(-15.3)"/></svg>