<svg id="Capa_1" data-name="Capa 1" xmlns="http://www.w3.org/2000/svg" viewBox="0 0 511.68 512"><defs><style>.cls-1{fill:#d80027}</style></defs><title>timing-belt</title><path class="cls-1" d="M109.11 325.33A77.72 77.72 0 1 0 186.83 403a77.81 77.81 0 0 0-77.72-77.67zm0 134.12a56.4 56.4 0 1 1 56.4-56.4 56.46 56.46 0 0 1-56.4 56.39z" transform="translate(-.16)"/><path class="cls-1" d="M109.11 375.21A27.84 27.84 0 1 0 137 403a27.87 27.87 0 0 0-27.89-27.79zm0 34.35a6.51 6.51 0 1 1 6.51-6.51 6.52 6.52 0 0 1-6.51 6.51zm62.66-282.16a39.86 39.86 0 1 0-39.86-39.86 39.9 39.9 0 0 0 39.86 39.86zm0-58.39a18.53 18.53 0 1 1-18.53 18.53A18.55 18.55 0 0 1 171.77 69z" transform="translate(-.16)"/><circle class="cls-1" cx="443.6" cy="223.95" r="16.24"/><path class="cls-1" d="M479.31 282a68 68 0 0 0 .7-115.6L215.65 11.78v.07A87.44 87.44 0 0 0 88.89 59.43c-.44 1.28-85.37 316.65-86 319.18a108.92 108.92 0 0 0 162.6 117.64c1.41-.86 313.45-214.05 313.82-214.25zM429 290.41L212.13 438.53A108.91 108.91 0 0 0 41.8 317.44L93 125.75a87.52 87.52 0 0 0 161.57-66.5l170 99.39A68.06 68.06 0 0 0 429 290.41zm14.75-19.7A46.75 46.75 0 1 1 490.51 224a46.81 46.81 0 0 1-46.75 46.71zm-272-249.38a66.22 66.22 0 1 1-66.22 66.22 66.29 66.29 0 0 1 66.24-66.22zM21.49 403a87.62 87.62 0 1 1 87.62 87.62A87.72 87.72 0 0 1 21.49 403z" transform="translate(-.16)"/></svg>