<svg id="Capa_1" data-name="Capa 1" xmlns="http://www.w3.org/2000/svg" viewBox="0 0 512 512"><defs><style>.cls-1{fill:#d80027}</style></defs><title>wheel-and-manometer</title><path class="cls-1" d="M249.37 227.93a34.7 34.7 0 1 0 34.7 34.7 34.74 34.74 0 0 0-34.7-34.7zm0 49.65a15 15 0 1 1 15-15 15 15 0 0 1-15 15.01z"/><path class="cls-1" d="M512 117.64a117.58 117.58 0 0 0-189.13-93.36 249.11 249.11 0 1 0 164.86 164.84A117 117 0 0 0 512 117.64zm-19.74 0a97.9 97.9 0 1 1-97.9-97.9 98 98 0 0 1 97.9 97.9zm-75.71 145c0 92.18-75 167.18-167.18 167.18s-167.18-75-167.18-167.18 75-167.18 167.18-167.18a168.66 168.66 0 0 1 29 2.5 117.48 117.48 0 0 0-1.52 14.19c-3.05-.55-6.12-1-9.19-1.4a153.36 153.36 0 0 0-87.8 15.58A154.32 154.32 0 0 0 127 170.85a151.67 151.67 0 0 0-30.58 91.78c0 84.35 68.63 153 153 153a151.35 151.35 0 0 0 69.52-16.67 154.33 154.33 0 0 0 52.88-44.53 151.67 151.67 0 0 0 30.58-91.78 154.06 154.06 0 0 0-2.49-27.48 117.45 117.45 0 0 0 14.09-1.54 168.71 168.71 0 0 1 2.55 29zm-37-28.27a134.05 134.05 0 0 1-3.47 69.51l-54-35.52a6.85 6.85 0 0 1 0-11.45l39.81-26.17a116.68 116.68 0 0 0 17.69 3.62zm-68.32 6a26.59 26.59 0 0 0 0 44.44l57.19 37.61a132.93 132.93 0 0 1-7.76 13.38l-61.13-30.72a26.59 26.59 0 0 0-38.49 22.22l-4 68.31q-3.85.22-7.74.22c-2.6 0-5.18-.08-7.74-.23l-4-68.29a26.59 26.59 0 0 0-38.49-22.22l-61.09 30.69a133.35 133.35 0 0 1-7.77-13.4l57.15-37.57a26.59 26.59 0 0 0 0-44.44l-57.19-37.6a133.11 133.11 0 0 1 7.77-13.38l61.13 30.72a26.59 26.59 0 0 0 38.49-22.22l4-68.31q3.85-.22 7.74-.22t7.74.23l4 68.3a26.58 26.58 0 0 0 38.49 22.21l21.31-10.7a118.08 118.08 0 0 0 18.77 12.33zm37.16 111.35A131.73 131.73 0 0 1 277 393l3.74-64.54a6.85 6.85 0 0 1 9.92-5.73zM221.7 393a133.28 133.28 0 0 1-71.31-41.24l57.65-29a6.85 6.85 0 0 1 9.92 5.73zM116.13 262.63a133.22 133.22 0 0 1 6.49-41.23l54 35.51a6.85 6.85 0 0 1 0 11.45l-54 35.48a132.75 132.75 0 0 1-6.49-41.21zm34.19-89.13a131.73 131.73 0 0 1 71.39-41.26L218 196.78a6.85 6.85 0 0 1-10 5.72zm140.38 29a6.86 6.86 0 0 1-9.92-5.72L277 132.29l.61.13a117.21 117.21 0 0 0 28.1 62.52zm-41.33 289.76c-126.62 0-229.63-103-229.63-229.63S122.75 33 249.37 33a230.1 230.1 0 0 1 56.64 7 117.69 117.69 0 0 0-22.7 38.75 188.29 188.29 0 0 0-33.95-3.09c-103.07 0-186.92 83.85-186.92 186.92s83.86 186.97 186.93 186.97 186.92-83.85 186.92-186.92a188.32 188.32 0 0 0-3.09-33.94A117.73 117.73 0 0 0 472 206a230 230 0 0 1 7 56.64c0 126.61-103 229.62-229.63 229.62z"/><path class="cls-1" d="M394.36 203.45a85.8 85.8 0 1 0-85.8-85.8 85.9 85.9 0 0 0 85.8 85.8zm0-19.91a66 66 0 0 1-65.15-56h4.89a9.87 9.87 0 1 0 0-19.74h-4.89A65.22 65.22 0 0 1 333 93.62l4.2 2.43A9.87 9.87 0 1 0 347.09 79l-4.18-2.41a66.45 66.45 0 0 1 10.35-10.35l2.42 4.19a9.87 9.87 0 0 0 17.1-9.87l-2.43-4.21a65.26 65.26 0 0 1 14.14-3.81v4.89a9.87 9.87 0 0 0 19.74 0v-4.9a65.27 65.27 0 0 1 14.15 3.81l-2.44 4.22A9.87 9.87 0 1 0 433 70.39l2.42-4.2a66.44 66.44 0 0 1 10.35 10.35L441.61 79a9.87 9.87 0 1 0 9.87 17.09l4.21-2.43a65.3 65.3 0 0 1 3.81 14.15h-4.9a9.87 9.87 0 1 0 0 19.74h4.9a66 66 0 0 1-65.14 55.99z"/><path class="cls-1" d="M383.22 92.55a9.87 9.87 0 1 0-14 14l18.11 18.11a9.87 9.87 0 1 0 14-14z"/></svg>