<svg viewBox="0 0 50 50" fill="none" xmlns="http://www.w3.org/2000/svg"><g clip-path="url(#a)"><path d="M.5 16.5v4H49v-4L25 4.25.5 16.5z" stroke="#C4C4C4" stroke-width="2"/><path d="M25 13.75a2.5 2.5 0 1 0 0-5 2.5 2.5 0 0 0 0 5zM.75 17.25h2" stroke="#C4C4C4" stroke-width="2"/><path d="M5 17.25h40" stroke="#C4C4C4"/><path d="M47 17.25h2" stroke="#C4C4C4" stroke-width="2"/><path d="M7.25 22.75h-3.5v18h3.5v-18z" fill="#C4C4C4"/><path d="M2.75 22.75h5.5M2.75 41h5.5" stroke="#C4C4C4" stroke-width="2"/><path d="M15 22.75h-3.5v18H15v-18z" fill="#C4C4C4"/><path d="M10.5 22.75H16M10.5 41H16" stroke="#C4C4C4" stroke-width="2"/><path d="M23 22.75h-3.5v18H23v-18z" fill="#C4C4C4"/><path d="M18.5 22.75H24M18.5 41H24" stroke="#C4C4C4" stroke-width="2"/><path d="M30.5 22.75H27v18h3.5v-18z" fill="#C4C4C4"/><path d="M26 22.75h5.5M26 41h5.5" stroke="#C4C4C4" stroke-width="2"/><path d="M38.5 22.75H35v18h3.5v-18z" fill="#C4C4C4"/><path d="M34 22.75h5.5M34 41h5.5" stroke="#C4C4C4" stroke-width="2"/><path d="M46.5 22.75H43v18h3.5v-18z" fill="#C4C4C4"/><path d="M42 22.75h5.5M42 41h5.5" stroke="#C4C4C4" stroke-width="2"/><path d="M1.5 43.75H49" stroke="#C4C4C4"/><path d="M0 46h50" stroke="#C4C4C4" stroke-width="2"/></g><defs><clipPath id="a"><path fill="#fff" d="M0 0h50v50H0z"/></clipPath></defs></svg>