<svg viewBox="0 0 40 40" fill="none" xmlns="http://www.w3.org/2000/svg"><g clip-path="url(#a)"><path d="M.4 13.2v3.2h38.8v-3.2L20 3.4.4 13.2z" stroke="#fff" stroke-width="2"/><path d="M20 11a2 2 0 1 0 0-4 2 2 0 0 0 0 4zM.6 13.8h1.6" stroke="#fff" stroke-width="2"/><path d="M4 13.8h32" stroke="#fff"/><path d="M37.6 13.8h1.6" stroke="#fff" stroke-width="2"/><path d="M5.8 18.2H3v14.4h2.8V18.2z" fill="#fff"/><path d="M2.2 18.2h4.4M2.2 32.8h4.4" stroke="#fff" stroke-width="2"/><path d="M12 18.2H9.2v14.4H12V18.2z" fill="#fff"/><path d="M8.4 18.2h4.4M8.4 32.8h4.4" stroke="#fff" stroke-width="2"/><path d="M18.4 18.2h-2.8v14.4h2.8V18.2z" fill="#fff"/><path d="M14.8 18.2h4.4m-4.4 14.6h4.4" stroke="#fff" stroke-width="2"/><path d="M24.4 18.2h-2.8v14.4h2.8V18.2z" fill="#fff"/><path d="M20.8 18.2h4.4m-4.4 14.6h4.4" stroke="#fff" stroke-width="2"/><path d="M30.8 18.2H28v14.4h2.8V18.2z" fill="#fff"/><path d="M27.2 18.2h4.4m-4.4 14.6h4.4" stroke="#fff" stroke-width="2"/><path d="M37.2 18.2h-2.8v14.4h2.8V18.2z" fill="#fff"/><path d="M33.6 18.2H38m-4.4 14.6H38" stroke="#fff" stroke-width="2"/><path d="M1.2 35h38" stroke="#fff"/><path d="M0 36.8h40" stroke="#fff" stroke-width="2"/></g><defs><clipPath id="a"><path fill="#fff" d="M0 0h40v40H0z"/></clipPath></defs></svg>