<svg viewBox="0 0 80 80" fill="none" xmlns="http://www.w3.org/2000/svg"><g clip-path="url(#a)"><path d="M.8 26.4v6.4h77.6v-6.4L40 6.8.8 26.4z" stroke="#fff" stroke-width="2"/><path d="M40 22a4 4 0 1 0 0-8 4 4 0 0 0 0 8zM1.2 27.6h3.2" stroke="#fff" stroke-width="2"/><path d="M8 27.6h64" stroke="#fff"/><path d="M75.2 27.6h3.2" stroke="#fff" stroke-width="2"/><path d="M11.6 36.4H6v28.8h5.6V36.4z" fill="#fff"/><path d="M4.4 36.4h8.8M4.4 65.6h8.8" stroke="#fff" stroke-width="2"/><path d="M24 36.4h-5.6v28.8H24V36.4z" fill="#fff"/><path d="M16.8 36.4h8.8m-8.8 29.2h8.8" stroke="#fff" stroke-width="2"/><path d="M36.8 36.4h-5.6v28.8h5.6V36.4z" fill="#fff"/><path d="M29.6 36.4h8.8m-8.8 29.2h8.8" stroke="#fff" stroke-width="2"/><path d="M48.8 36.4h-5.6v28.8h5.6V36.4z" fill="#fff"/><path d="M41.6 36.4h8.8m-8.8 29.2h8.8" stroke="#fff" stroke-width="2"/><path d="M61.6 36.4H56v28.8h5.6V36.4z" fill="#fff"/><path d="M54.4 36.4h8.8m-8.8 29.2h8.8" stroke="#fff" stroke-width="2"/><path d="M74.4 36.4h-5.6v28.8h5.6V36.4z" fill="#fff"/><path d="M67.2 36.4H76m-8.8 29.2H76" stroke="#fff" stroke-width="2"/><path d="M2.4 70h76" stroke="#fff"/><path d="M0 73.6h80" stroke="#fff" stroke-width="2"/></g><defs><clipPath id="a"><path fill="#fff" d="M0 0h80v80H0z"/></clipPath></defs></svg>