<svg viewBox="0 0 60 60" fill="none" xmlns="http://www.w3.org/2000/svg"><path d="M58.008 54.633L44.203 40.828a24.113 24.113 0 0 0 5.484-15.34c0-13.36-10.84-24.199-24.199-24.199-13.37 0-24.199 10.84-24.199 24.2 0 13.359 10.828 24.198 24.2 24.198a24.07 24.07 0 0 0 15.327-5.472l13.805 13.793a2.39 2.39 0 0 0 3.387 0 2.377 2.377 0 0 0 0-3.375zm-32.52-9.762c-10.699 0-19.394-8.695-19.394-19.383 0-10.687 8.695-19.394 19.394-19.394 10.688 0 19.395 8.707 19.395 19.394 0 10.688-8.707 19.383-19.395 19.383z" fill="#C4C4C4" fill-opacity=".65"/></svg>