<svg xmlns="http://www.w3.org/2000/svg" xmlns:xlink="http://www.w3.org/1999/xlink" height="879" viewBox="0 0 70 879" width="70"><svg height="62.8" viewBox="0 0 62 63" width="61.64" x="4" y="4"><title>features-icon6</title><path d="M.06 30.83a30.79 30.79 0 1 1 61.58-.08v.08a30.79 30.79 0 0 1-61.58 0z" fill="#0644d6"/><path d="M61.64 30.83a30.72 30.72 0 0 1-13 25.13 9.48 9.48 0 0 0-9.47-9.35H24.71a9.46 9.46 0 0 0-9.46 9.43v1.29a30.78 30.78 0 1 1 46.39-26.5zm-13.58 3.46L34.59 10.91v3.94l-2.27-3.94v16a2.6 2.6 0 1 1-.76 0v-16l-2.27 3.94v-3.93L15.84 34.3l7.32 10.14h17.57z" fill="#0829cc"/><path d="M25.64 44.57h13l7.32-10.14L34.8 15.04l-2.26-4v16a3.63 3.63 0 0 1-1.48 6.93h-.1a3.61 3.61 0 0 1-1.44-6.93v-16L16.06 34.42l7.31 10.15h2.27zm11.07 2.47H24.53a9.47 9.47 0 0 0-9.47 9.47v2.05a30.8 30.8 0 0 0 31.13 0v-2.1a9.44 9.44 0 0 0-9.42-9.42h-.06z" fill="#fff"/></svg><svg height="61.82" viewBox="0 0 62 62" width="61.82" x="4" y="71"><title>features-icon1</title><path d="M0 30.91a30.91 30.91 0 1 1 30.91 30.91A30.91 30.91 0 0 1 0 30.91z" fill="#0829cc"/><path d="M13 18.69A4.69 4.69 0 0 1 17.69 14H44a4.69 4.69 0 0 1 4.69 4.69V46.4A4.69 4.69 0 0 1 44 51.09H17.69A4.69 4.69 0 0 1 13 46.4V18.69z" fill="#003799"/><path d="M13 17.67A3.67 3.67 0 0 1 16.67 14h27a3.67 3.67 0 0 1 3.67 3.67V46a3.67 3.67 0 0 1-3.67 3.67h-27A3.67 3.67 0 0 1 13 46V17.67z" fill="#fff"/><path d="M48.17 20H13m6 7h10.38M19 32h10.38M19 37h24m-24 4h24m-10-8.07V26h8.87v6.93H33z" fill="none" stroke="#0644d6" stroke-miterlimit="50" stroke-width="2"/></svg><svg height="61.82" viewBox="0 0 62 62" width="61.82" x="4" y="137"><title>features-icon3</title><path d="M0 30.95a30.91 30.91 0 0 1 61.82-.08v.08a30.91 30.91 0 0 1-61.82 0z" fill="#0829cc"/><path d="M45.85 44.66a2.28 2.28 0 0 1-3.21 3.22l-8-8a12.87 12.87 0 1 1 3.4-3zm-27-15.68z" fill="#003799"/><path data-name="b" d="M45.85 44.66a2.28 2.28 0 0 1-3.21 3.22l-8-8a12.87 12.87 0 1 1 3.4-3zm-27-15.68z" fill="none" stroke="#003799" stroke-miterlimit="50"/><path d="M16 27.95a10.91 10.91 0 1 1 10.92 10.91A10.91 10.91 0 0 1 16 27.95z" fill="none" stroke="#fff" stroke-miterlimit="50" stroke-width="5"/><path d="M35 36.04l8.85 8.86" fill="none" stroke="#fff" stroke-linecap="round" stroke-miterlimit="50" stroke-width="6"/></svg><svg height="61.58" viewBox="0 0 62 62" width="61.58" x="4" y="203"><title>features-icon5</title><path d="M0 30.79a30.79 30.79 0 1 1 61.58 0 30.79 30.79 0 1 1-61.58 0z" fill="#0829cc"/><path d="M16 48.13V17h31.13v31.13H16z" fill="none" stroke="#fff" stroke-linejoin="round" stroke-width="4"/><path d="M16 38.92L25.88 31l6.76 7.37 6.56-3.82 8.06 6.82v5.37H16v-7.82z" fill="#fff"/><path data-name="c" d="M16 38.92L25.88 31l6.76 7.37 6.56-3.82 8.06 6.82v5.37H16v-7.82z" fill="none" stroke="#fff" stroke-linejoin="round" stroke-width="3"/><path d="M34 24.73a2.73 2.73 0 0 1 5.46 0 2.73 2.73 0 0 1-5.46 0z" fill="none" stroke="#fff" stroke-linejoin="round" stroke-width="3"/></svg><svg height="61.58" viewBox="0 0 62 62" width="61.58" x="4" y="269"><title>features-icon4</title><path d="M0 30.79a30.79 30.79 0 1 1 61.58 0 30.79 30.79 0 1 1-61.58 0z" fill="#0829cc"/><path d="M17 21h26.37v16.23H17V21zm14.62 14.11h8.82V24.78h-8.79zm-11.15-7.77h8.16v-1.52H20.5zm0 3.4h8.16v-1.51H20.5zm0 3.4h8.16v-1.51H20.5z" fill="#fff"/><path d="M34 33.3V26h5.75v7.3H34z" fill="#fff"/><path d="M51.78 16.51v25.67a1.5 1.5 0 0 1-1.49 1.51H11.51A1.5 1.5 0 0 1 10 42.2V16.51A1.52 1.52 0 0 1 11.51 15h38.77a1.51 1.51 0 0 1 1.5 1.51zm0 21h-6.33V19.82H16v17.73h-6v1.51h41.75zM39.71 48.43h-2.45L36.73 45h-3l.53 3.43H28l.52-3.43h-3L25 48.43h-2.49a1.52 1.52 0 0 0 0 3h17.26a1.52 1.52 0 0 0 0-3h-.06z" fill="#fff"/></svg><svg height="61.58" viewBox="0 0 62 62" width="61.58" x="4" y="335"><title>features-icon2</title><path d="M0 30.79a30.79 30.79 0 1 1 30.79 30.79A30.79 30.79 0 0 1 0 30.79z" fill="#0829cc"/><path d="M39.71 28.12a7.57 7.57 0 1 0-7.17-5.17l-11 6.14a6.64 6.64 0 1 0-.75 9.66l10.68 7.15A6.07 6.07 0 1 0 33 43.27l-10.31-6.91a6.55 6.55 0 0 0 .38-4.63l11-6.16a7.55 7.55 0 0 0 5.63 2.55z" fill="#003799"/><path data-name="b" d="M39.71 28.12a7.57 7.57 0 1 0-7.17-5.17l-11 6.14a6.64 6.64 0 1 0-.75 9.66l10.68 7.15A6.07 6.07 0 1 0 33 43.27l-10.31-6.91a6.55 6.55 0 0 0 .38-4.63l11-6.16a7.55 7.55 0 0 0 5.63 2.55z" fill="none" stroke="#003799" stroke-miterlimit="50"/><path d="M39.71 27.12a7.57 7.57 0 1 0-7.17-5.17l-11 6.14a6.64 6.64 0 1 0-.75 9.66l10.68 7.15A6.07 6.07 0 1 0 33 42.27l-10.31-6.91a6.55 6.55 0 0 0 .38-4.63l11-6.16a7.55 7.55 0 0 0 5.63 2.55z" fill="#fff"/></svg><svg height="58" viewBox="0 0 1 58" width="1" x="4" y="401"><title>scroll-icon</title><path d="M.5 57.5V.5" fill="none" stroke="#979797" stroke-linecap="square" stroke-miterlimit="50"/></svg><svg height="50" viewBox="0 0 50 50" width="50" x="4" y="463"><title>case-content-after</title><path d="M50.02 24.31a25.01 25.01 0 1 1-50 1.39v-1.39a25 25 0 0 1 50 0zm-3.54 0a21.45 21.45 0 1 0-42.9 0 21.45 21.45 0 1 0 42.87 0z" fill="#57a300"/><path d="M44.67 24.64A19.32 19.32 0 1 1 25.35 5.31a19.32 19.32 0 0 1 19.32 19.33z" fill="#57a300"/><path d="M22.21 35.99L12.02 20.23v-.19l9.55 4.27 15.74-11z" fill="#fff"/></svg><svg height="49.84" viewBox="0 0 50 50" width="49.84" x="4" y="517"><title>case-content-before</title><path d="M49.84 24.93a24.92 24.92 0 1 1-49.82-.02 24.92 24.92 0 1 1 49.84 0zm-3.53 0a21.39 21.39 0 0 0-42.77-.91v.92a21.39 21.39 0 0 0 42.77-.01z" fill="#bf3d27"/><path d="M6.02 25.29a19.26 19.26 0 1 1 19.26 19.27A19.27 19.27 0 0 1 6.02 25.29z" fill="#bf3d27"/><path d="M36.1 31.24l-5.86 5.86-5.68-5.68-5.68 5.68-5.86-5.86 5.68-5.68-5.68-5.68 5.86-5.86 5.68 5.68 5.68-5.68 5.86 5.86-5.69 5.68z" fill="#fff"/></svg><svg height="41" viewBox="0 0 42 41" width="41.08" x="4" y="571"><title>inst-scroll</title><path d="M40.5 20.5a20 20 0 1 1-20-20h.08a20 20 0 0 1 20 20h-.08zm-1.26 0a18.71 18.71 0 1 0-5.49 13.21 18.7 18.7 0 0 0 5.49-13.21z" fill="#fff" stroke="#0829cc" stroke-miterlimit="10"/><path d="M28.07 11.5a2.37 2.37 0 0 1 2.39 2.35v14a2.43 2.43 0 0 1-2.39 2.45h-14a2.48 2.48 0 0 1-2.48-2.38v-14a2.42 2.42 0 0 1 2.42-2.42h14.06zm-3.54 2.91v2a.82.82 0 0 0 .82.82h2.15a.84.84 0 0 0 .87-.81v-2a.84.84 0 0 0-.86-.82h-2.15a.82.82 0 0 0-.84.8zm2.17 5a5.45 5.45 0 0 1 .23 1.58 5.87 5.87 0 0 1-11.73 0 5.4 5.4 0 0 1 .24-1.63h-1.77v8a.81.81 0 0 0 .79.78h13.12a.8.8 0 0 0 .76-.78v-8h-1.65zm-5.63-2.24a3.67 3.67 0 1 0 3.79 3.67 3.73 3.73 0 0 0-3.79-3.65z" fill="#fff" stroke="#0829cc" stroke-miterlimit="10"/></svg><svg height="41.02" viewBox="0 0 41 42" width="41" x="4" y="616"><title>in-scroll</title><path d="M30.15 28.25v-7.39c0-3.83-2.08-5.61-4.77-5.61a4.2 4.2 0 0 0-3.75 2.08v-1.74h-4.09v12.66h4.09v-7.21a2.76 2.76 0 0 1 .16-1 2.3 2.3 0 0 1 2.15-1.52c1.48 0 2.12 1.14 2.12 2.82v6.91h4.09zm-16.39-19a2.1 2.1 0 0 0-2.22 2.19 2.1 2.1 0 0 0 2 2.19h.2a2.1 2.1 0 0 0 2.21-2v-.21a2.11 2.11 0 0 0-2-2.17h-.19zm-2.22 19.69V16.25h4.09v12.69h-4.09z" fill="#fff" stroke="#0829cc" stroke-miterlimit="10"/><path d="M40.46 19.25a20 20 0 1 1-39.92 0 20 20 0 0 1 39.92 0zm-1.26 0a18.71 18.71 0 1 0-5.49 13.21 18.7 18.7 0 0 0 5.49-13.21z" fill="#fff" stroke="#0829cc" stroke-miterlimit="10"/></svg><svg height="41" viewBox="0 0 41 41" width="41" x="4" y="662"><title>fb-scroll</title><path d="M22.18 16.99v-2.23c0-1 .25-1.5 1.82-1.5h1.94V9.5h-3.26c-4.05 0-5.34 1.8-5.34 5v2.49h-2.76v3.84h2.76v11.38h4.84V20.86h3.4l.49-3.87h-3.89z" fill="#fff" stroke="#0829cc" stroke-miterlimit="10"/><path d="M40.5 20.5a20 20 0 1 1-20-20h.08a20 20 0 0 1 19.92 20zm-1.26 0a18.71 18.71 0 1 0-5.49 13.21 18.7 18.7 0 0 0 5.49-13.21z" fill="#fff" stroke="#0829cc" stroke-miterlimit="10"/></svg><svg height="39.93" viewBox="0 0 40 40" width="39.93" x="4" y="707"><title>fb</title><path d="M21.61 16.53v-2.26c0-1 .25-1.5 1.82-1.5h1.94V9.01h-3.26c-4.05 0-5.34 1.8-5.34 5v2.53h-2.76v3.84h2.76v11.34h4.84V20.37h3.4l.45-3.84h-3.85z" fill="#fff"/><path d="M39.93 20.01a20 20 0 1 1-19.92-20 20 20 0 0 1 19.92 20zm-1.26 0A18.7 18.7 0 0 0 6.74 6.74a18.71 18.71 0 1 0 31.93 13.27z" fill="#fff"/></svg><svg height="39.93" viewBox="0 0 40 40" width="39.93" x="4" y="751"><title>in</title><path d="M29.62 29.01v-7.39c0-3.83-2.08-5.61-4.77-5.61a4.2 4.2 0 0 0-3.75 2.08v-1.74h-4.09v12.66h4.09V21.8a2.76 2.76 0 0 1 .16-1 2.3 2.3 0 0 1 2.15-1.52c1.48 0 2.12 1.14 2.12 2.82v6.91h4.09zm-16.39-19a2.1 2.1 0 0 0-2.22 2.19 2.1 2.1 0 0 0 2 2.19h.2a2.1 2.1 0 0 0 2.21-2v-.21a2.11 2.11 0 0 0-2.19-2.17zM11.01 29.7V17.01h4.09V29.7h-4.09z" fill="#fff"/><path d="M39.93 20.01a20 20 0 1 1-39.92 0 20 20 0 0 1 39.92 0zm-1.26 0A18.7 18.7 0 0 0 6.74 6.74a18.71 18.71 0 1 0 31.93 13.27z" fill="#fff"/></svg><svg height="39.93" viewBox="0 0 40 40" width="39.93" x="4" y="795"><title>inst</title><path d="M39.93 20.01a20 20 0 1 1-19.92-20 20 20 0 0 1 20 20zm-1.26 0A18.7 18.7 0 0 0 6.74 6.74a18.71 18.71 0 1 0 31.93 13.27z" fill="#fff"/><path d="M27.49 11.01a2.37 2.37 0 0 1 2.39 2.35v14a2.43 2.43 0 0 1-2.39 2.45h-14a2.48 2.48 0 0 1-2.48-2.38v-14a2.42 2.42 0 0 1 2.45-2.42h14zm-3.54 2.91v2a.82.82 0 0 0 .84.82h2.13a.84.84 0 0 0 .87-.82v-2a.84.84 0 0 0-.87-.82h-2.13a.82.82 0 0 0-.84.8zm2.17 5a5.45 5.45 0 0 1 .24 1.63 5.87 5.87 0 0 1-11.73 0 5.4 5.4 0 0 1 .24-1.63H13.1v8a.81.81 0 0 0 .79.78h13.12a.8.8 0 0 0 .76-.78v-8h-1.65zm-5.62-2.24a3.67 3.67 0 1 0 3.79 3.67 3.73 3.73 0 0 0-3.79-3.65z" fill="#fff"/></svg><svg height="36" viewBox="0 0 1 36" width="1" x="4" y="839"><title>prev-next-border</title><path d="M.5 35.5V.5" fill="none" stroke="#000" stroke-linecap="square" stroke-miterlimit="50"/></svg></svg>