<svg xmlns="http://www.w3.org/2000/svg" xmlns:xlink="http://www.w3.org/1999/xlink" height="881" viewBox="0 0 70 881" width="70"><svg height="64.99" viewBox="0 0 62 65" width="61.58" x="4" y="4"><title>features-icon6</title><circle cx="30.79" cy="30.81" r="30.79" fill="#0644d6"/><path d="M61.58 30.79a30.79 30.79 0 1 0-46.39 26.54v-1.29a9.47 9.47 0 0 1 9.47-9.47h14.45a9.47 9.47 0 0 1 9.47 9.35 30.74 30.74 0 0 0 13-25.13zM40.67 44.4H23.11l-7.33-10.14 13.46-23.38v3.91l2.27-3.94v16a2.59 2.59 0 1 0 .76 0v-16l2.26 3.94v-3.92l13.46 23.38z" fill="#0829cc"/><path data-name="Shape" d="M29.4 30.15a3.61 3.61 0 0 1 2.11-3.28v-16l-2.27 3.92v12.1a3.61 3.61 0 0 0 1.46 6.9h.14a3.59 3.59 0 0 0 1.08-.2 3.61 3.61 0 0 1-2.52-3.44zm8.99 14.24h2.27l7.33-10.15-13.46-23.37v3.94l11.19 19.43-7.33 10.15zm10.19 11.56a9.47 9.47 0 0 0-9.47-9.35h-2.27a9.47 9.47 0 0 1 9.47 9.47v1.35q1.16-.7 2.27-1.47z" fill="#003799"/><path data-name="Shape" d="M15.19 57.35v7.64h2.27v-6.41q-1.17-.57-2.27-1.23z" fill="#fff"/><g data-name="Group"><path data-name="Shape" d="M25.37 44.4h13l7.33-10.14-11.16-19.47-2.27-3.9v16a3.63 3.63 0 0 1-1.43 6.9h-.1a3.61 3.61 0 0 1-1.46-6.9v-16L15.84 34.25l7.31 10.15h2.27zm11.47 2.19H24.66a9.47 9.47 0 0 0-9.47 9.47v2c.76.44 1.51.85 2.27 1.22a30.81 30.81 0 0 0 28.86-1.17v-2.1a9.47 9.47 0 0 0-9.48-9.42z" fill="#fff"/></g></svg><svg height="61.82" viewBox="0 0 62 62" width="61.82" x="4" y="73"><title>features-icon1</title><circle cx="30.91" cy="30.91" r="30.91" fill="#0829cc"/><rect x="13.88" y="13.59" width="35.68" height="37.09" rx="4.69" ry="4.69" fill="#003799"/><rect data-name="Rectangle-path" x="13.77" y="13.53" width="34.29" height="35.64" rx="3.67" ry="3.67" fill="#fff"/><path d="M48.45 19.9H13.32" fill="none" stroke="#0644d6" stroke-width="2"/><path data-name="Shape" d="M19.01 26.51h10.38m-10.38 4.77h10.38m-10.38 4.81h24m-24 4.81h24" fill="none" stroke="#0644d6" stroke-width="2"/><path data-name="Rectangle-path" fill="none" stroke="#0644d6" stroke-width="2" d="M33.34 25.05h8.87v6.93h-8.87z"/></svg><svg height="61.82" viewBox="0 0 62 62" width="61.82" x="4" y="139"><title>features-icon3</title><circle cx="30.91" cy="30.91" r="30.91" fill="#0829cc"/><path d="M46.26 44.24l-7.86-7.85a12.87 12.87 0 1 0-3.39 3l8 8a2.28 2.28 0 0 0 3.22-3.22zM19.29 28.51a9 9 0 1 1 9 9 9 9 0 0 1-9-9z" fill="#003799" stroke="#003799"/><circle data-name="Oval" cx="27.55" cy="27.04" r="10.91" fill="none" stroke="#fff" stroke-width="5"/><path data-name="Shape" d="M35.05 35.51l8.85 8.86" fill="none" stroke="#fff" stroke-linecap="round" stroke-width="6"/></svg><svg height="61.58" viewBox="0 0 62 62" width="61.58" x="4" y="205"><title>features-icon5</title><circle cx="30.79" cy="30.79" r="30.79" fill="#0829cc"/><g fill="#003799" stroke="#003799"><path d="M47.67 15.57H16.55a1.51 1.51 0 0 0-1.51 1.51v31.13a1.51 1.51 0 0 0 1.51 1.56h31.13a1.51 1.51 0 0 0 1.51-1.51V17.08a1.51 1.51 0 0 0-1.52-1.51zm-1.51 3v20.36l-5.94-5a1.13 1.13 0 0 0-1.31-.16l-5.72 3.33-6.14-6.62a1.13 1.13 0 0 0-1.51-.2l-7.44 6.7V18.6h28.06zm-28.1 28.1v-6.9l8.66-6.28 5.29 6.54a1.13 1.13 0 0 0 1.45.26l5.86-3.42 6.8 5.76v4H18.05z"/><path data-name="Shape" d="M36.83 29.55a3.86 3.86 0 1 0-3.86-3.86 3.86 3.86 0 0 0 3.86 3.86zm0-5.46a1.6 1.6 0 1 1-1.6 1.6 1.6 1.6 0 0 1 1.6-1.6z"/></g><path fill="none" stroke="#fff" stroke-linejoin="round" stroke-width="4" d="M15.79 16.32h31.13v31.13H15.79z"/><path data-name="Shape" fill="#fff" stroke="#fff" stroke-linejoin="round" stroke-width="3" d="M15.53 39.12l9.88-7.92 6.76 7.38 6.56-3.83 8.06 6.83v5.37H15.53v-7.83z"/><circle data-name="Oval" cx="36.13" cy="24.92" r="2.73" fill="none" stroke="#fff" stroke-linejoin="round" stroke-width="3"/></svg><svg height="61.58" viewBox="0 0 62 62" width="61.58" x="4" y="271"><title>features-icon4</title><circle cx="30.79" cy="30.79" r="30.79" fill="#0829cc"/><g fill="#003799" stroke="#003799"><path d="M17.86 38.5h26.37V22.28H17.86V38.5zm14.65-12.44h8.79v10.33h-8.82zm-11.15 1h8.13v1.51h-8.16zm0 3.4h8.13v1.51h-8.16zm0 3.4h8.13v1.53h-8.16z"/><path d="M33.99 27.57h5.75v7.3h-5.75z"/><path data-name="Shape" d="M50.58 15.95H11.81a1.51 1.51 0 0 0-1.51 1.51v25.67a1.51 1.51 0 0 0 1.51 1.51h38.76a1.51 1.51 0 0 0 1.51-1.51V17.46a1.51 1.51 0 0 0-1.5-1.51zm1.47 24.06H10.33V38.5h6V20.76h29.38V38.5h6.33zm-12.22 9.58h-2.45l-.53-3.43h-3l.53 3.43h-6.27l.53-3.43h-3l-.56 3.43h-2.45a1.51 1.51 0 0 0 0 3H39.9a1.51 1.51 0 0 0 0-3h-.07z"/></g><path data-name="Shape" fill="none" d="M28.07 43.88h4.73-4.73zm-.76 4.96h6.25l-.53-3.44h-5.19l-.53 3.44z"/><g data-name="Group" fill="#fff"><path data-name="Shape" d="M17.1 37.75h26.37V21.52H17.1v16.23zM31.71 25.3h8.79v10.33h-8.79zM20.6 26.39h8.11v1.51h-8.14zm0 3.4h8.11v1.51h-8.14zm0 3.4h8.11v1.51h-8.14z"/><path data-name="Rectangle-path" d="M33.23 26.81h5.75v7.3h-5.75z"/><path data-name="Shape" d="M49.82 15.19H11.05a1.51 1.51 0 0 0-1.51 1.51v25.69a1.51 1.51 0 0 0 1.51 1.51h38.76a1.51 1.51 0 0 0 1.51-1.51V16.7a1.51 1.51 0 0 0-1.5-1.51zm1.47 24.06H9.58v-1.51h6V20.01h29.4v17.74h6.33zm-12.22 9.59h-2.45l-.53-3.45h-3l.53 3.43h-6.27l.53-3.43h-3l-.53 3.43h-2.47a1.51 1.51 0 0 0 0 3h17.26a1.51 1.51 0 1 0 0-3h-.07z"/></g><path data-name="Shape" fill="#0644d6" d="M15.56 20.01v17.73h1.51V21.52h26.38v16.22h1.51V20.01h-29.4z"/><path data-name="Rectangle-path" fill="#0644d6" d="M20.57 26.34h8.13v1.51h-8.13zm0 3.4h8.13v1.51h-8.13zm0 3.41h8.13v1.51h-8.13z"/><path data-name="Shape" d="M31.71 25.3v10.33h8.82V25.3h-8.82zm7.3 8.82h-5.74v-7.3h5.75v7.3zm5.95 3.62v.51h-1.51v-.51H17.07v.51h-1.51v-.51h-2.99v1.52h35.74v-1.52h-3.35z" fill="#0644d6"/><path data-name="Rectangle-path" fill="#0644d6" d="M49.82 37.74h1.47v1.51h-1.47zm-40.25 0h1.48v1.51H9.57zm38.74 0h1.51v1.51h-1.51zm-37.26 0h1.51v1.51h-1.51zm32.4 0h1.51v1h-1.51zm-27.89 0h1.51v1h-1.51z"/></svg><svg height="61.58" viewBox="0 0 62 62" width="61.58" x="4" y="337"><title>features-icon2</title><circle cx="30.79" cy="30.79" r="30.79" fill="#0829cc"/><path d="M39.83 27.28a7.56 7.56 0 1 0-7.17-5.17l-11 6.14a6.65 6.65 0 1 0-.76 9.66l10.66 7.15a6.09 6.09 0 1 0 1.51-2.62l-10.24-6.92a6.56 6.56 0 0 0 .38-4.63l11-6.15a7.56 7.56 0 0 0 5.62 2.54z" fill="#003799" stroke="#003799"/><path data-name="Shape" d="M39.06 26.52a7.56 7.56 0 1 0-7.17-5.17l-10.97 6.17a6.65 6.65 0 1 0-.76 9.66l10.67 7.12a6.09 6.09 0 1 0 1.51-2.62l-10.3-6.91a6.56 6.56 0 0 0 .38-4.63l11-6.15a7.56 7.56 0 0 0 5.64 2.53z" fill="#fff"/></svg><svg height="58" viewBox="0 0 1 58" width="1" x="4" y="403"><defs><linearGradient id="a" y1="419.58" x2="0" y2="418.58" gradientTransform="matrix(1 0 0 -57 .5 23916.5)" gradientUnits="userSpaceOnUse"><stop offset="0" stop-color="#fff" stop-opacity=".2"/><stop offset="1" stop-color="#fff" stop-opacity=".51"/></linearGradient></defs><title>scroll-icon</title><path d="M.5 57.5V.5" fill="none" stroke-linecap="square" stroke="url(#a)"/></svg><svg height="50" viewBox="0 0 50 50" width="50" x="4" y="465"><title>case-content-after</title><path d="M50.02 24.31a25.01 25.01 0 1 1-50 1.39v-1.39a25 25 0 0 1 50 0zm-3.54 0a21.45 21.45 0 1 0-42.9 0 21.45 21.45 0 1 0 42.87 0z" fill="#57a300"/><path d="M44.67 24.64A19.32 19.32 0 1 1 25.35 5.31a19.32 19.32 0 0 1 19.32 19.33z" fill="#57a300"/><path d="M22.21 35.99L12.02 20.23v-.19l9.55 4.27 15.74-11z" fill="#fff"/></svg><svg height="49.84" viewBox="0 0 50 50" width="49.84" x="4" y="519"><title>case-content-before</title><path d="M49.84 24.93a24.92 24.92 0 1 1-49.82-.02 24.92 24.92 0 1 1 49.84 0zm-3.53 0a21.39 21.39 0 0 0-42.77-.91v.92a21.39 21.39 0 0 0 42.77-.01z" fill="#bf3d27"/><path d="M6.02 25.29a19.26 19.26 0 1 1 19.26 19.27A19.27 19.27 0 0 1 6.02 25.29z" fill="#bf3d27"/><path d="M36.1 31.24l-5.86 5.86-5.68-5.68-5.68 5.68-5.86-5.86 5.68-5.68-5.68-5.68 5.86-5.86 5.68 5.68 5.68-5.68 5.86 5.86-5.69 5.68z" fill="#fff"/></svg><svg height="41" viewBox="0 0 42 41" width="41.08" x="4" y="573"><title>inst-scroll</title><path d="M40.5 20.5a20 20 0 1 1-20-20h.08a20 20 0 0 1 20 20h-.08zm-1.26 0a18.71 18.71 0 1 0-5.49 13.21 18.7 18.7 0 0 0 5.49-13.21z" fill="#fff" stroke="#0829cc" stroke-miterlimit="10"/><path d="M28.07 11.5a2.37 2.37 0 0 1 2.39 2.35v14a2.43 2.43 0 0 1-2.39 2.45h-14a2.48 2.48 0 0 1-2.48-2.38v-14a2.42 2.42 0 0 1 2.42-2.42h14.06zm-3.54 2.91v2a.82.82 0 0 0 .82.82h2.15a.84.84 0 0 0 .87-.81v-2a.84.84 0 0 0-.86-.82h-2.15a.82.82 0 0 0-.84.8zm2.17 5a5.45 5.45 0 0 1 .23 1.58 5.87 5.87 0 0 1-11.73 0 5.4 5.4 0 0 1 .24-1.63h-1.77v8a.81.81 0 0 0 .79.78h13.12a.8.8 0 0 0 .76-.78v-8h-1.65zm-5.63-2.24a3.67 3.67 0 1 0 3.79 3.67 3.73 3.73 0 0 0-3.79-3.65z" fill="#fff" stroke="#0829cc" stroke-miterlimit="10"/></svg><svg height="41.02" viewBox="0 0 41 42" width="41" x="4" y="618"><title>in-scroll</title><path d="M30.15 28.25v-7.39c0-3.83-2.08-5.61-4.77-5.61a4.2 4.2 0 0 0-3.75 2.08v-1.74h-4.09v12.66h4.09v-7.21a2.76 2.76 0 0 1 .16-1 2.3 2.3 0 0 1 2.15-1.52c1.48 0 2.12 1.14 2.12 2.82v6.91h4.09zm-16.39-19a2.1 2.1 0 0 0-2.22 2.19 2.1 2.1 0 0 0 2 2.19h.2a2.1 2.1 0 0 0 2.21-2v-.21a2.11 2.11 0 0 0-2-2.17h-.19zm-2.22 19.69V16.25h4.09v12.69h-4.09z" fill="#fff" stroke="#0829cc" stroke-miterlimit="10"/><path d="M40.46 19.25a20 20 0 1 1-39.92 0 20 20 0 0 1 39.92 0zm-1.26 0a18.71 18.71 0 1 0-5.49 13.21 18.7 18.7 0 0 0 5.49-13.21z" fill="#fff" stroke="#0829cc" stroke-miterlimit="10"/></svg><svg height="41" viewBox="0 0 41 41" width="41" x="4" y="664"><title>fb-scroll</title><path d="M22.18 16.99v-2.23c0-1 .25-1.5 1.82-1.5h1.94V9.5h-3.26c-4.05 0-5.34 1.8-5.34 5v2.49h-2.76v3.84h2.76v11.38h4.84V20.86h3.4l.49-3.87h-3.89z" fill="#fff" stroke="#0829cc" stroke-miterlimit="10"/><path d="M40.5 20.5a20 20 0 1 1-20-20h.08a20 20 0 0 1 19.92 20zm-1.26 0a18.71 18.71 0 1 0-5.49 13.21 18.7 18.7 0 0 0 5.49-13.21z" fill="#fff" stroke="#0829cc" stroke-miterlimit="10"/></svg><svg height="39.92" viewBox="0 0 40 40" width="39.92" x="4" y="709"><title>fb</title><g data-name="if facebook 313485" fill="#fff"><path d="M21.96 16.96V14.7c0-1 .25-1.5 1.83-1.5h1.93V9.44h-3.26c-4.05 0-5.34 1.8-5.34 5v2.52h-2.75v3.84h2.76v11.35h4.83V20.8h3.36l.45-3.84h-3.81z"/><path data-name="Shape" d="M19.96-.04a20 20 0 1 0 20 20 20 20 0 0 0-20-20zm13.23 33.23A18.71 18.71 0 0 1 6.73 6.73a18.71 18.71 0 0 1 26.46 26.46z"/></g></svg><svg height="39.92" viewBox="0 0 40 40" width="39.92" x="4" y="753"><title>in</title><g data-name="if linkedin 313475" fill="#fff"><path d="M29.96 29.48v-7.42c0-3.83-2.08-5.61-4.77-5.61a4.21 4.21 0 0 0-3.74 2.08v-1.74h-4.08v12.69h4.09v-7.24a2.74 2.74 0 0 1 .16-1 2.3 2.3 0 0 1 2.14-1.52c1.49 0 2.12 1.14 2.12 2.82v6.94h4.08z"/><path data-name="Shape" d="M13.04 10.4a2.11 2.11 0 0 0-2.22 2.19 2.1 2.1 0 0 0 2.14 2.19 2.11 2.11 0 0 0 2.22-2.19 2.11 2.11 0 0 0-2.14-2.19z"/><path d="M10.86 16.78h4.09v12.69h-4.09z"/><path data-name="Shape" d="M19.96-.04a20 20 0 1 0 20 20 20 20 0 0 0-20-20zm13.23 33.23A18.71 18.71 0 0 1 6.73 6.73a18.71 18.71 0 0 1 26.46 26.46z"/></g></svg><svg height="39.92" viewBox="0 0 40 40" width="39.92" x="4" y="797"><title>inst</title><g data-name="if instagram 313477" fill="#fff"><path d="M19.96-.04a20 20 0 1 0 20 20 20 20 0 0 0-20-20zm13.23 33.23A18.71 18.71 0 0 1 6.73 6.73a18.71 18.71 0 0 1 26.46 26.46z"/><path data-name="Shape" d="M13.06 10.52h14a2.37 2.37 0 0 1 2.39 2.39v14.05a2.43 2.43 0 0 1-2.39 2.46h-14a2.48 2.48 0 0 1-2.45-2.46v-14a2.42 2.42 0 0 1 2.45-2.39zm11.33 2.09a.82.82 0 0 0-.84.82v2a.81.81 0 0 0 .84.82h2.13a.84.84 0 0 0 .87-.82v-2a.85.85 0 0 0-.87-.82h-2.13zm3 5.85h-1.67a5.51 5.51 0 0 1 .24 1.62 5.87 5.87 0 0 1-11.73 0 5.49 5.49 0 0 1 .24-1.62h-1.78v8a.82.82 0 0 0 .79.78h13.15a.79.79 0 0 0 .76-.78v-8zm-7.3-2.25a3.68 3.68 0 1 0 3.79 3.67 3.73 3.73 0 0 0-3.79-3.67z"/></g></svg><svg height="36" viewBox="0 0 1 36" width="1" x="4" y="841"><title>prev-next-border</title><path d="M.5 35.5V.5" fill="none" stroke="#000" stroke-linecap="square" stroke-miterlimit="50"/></svg></svg>