<svg xmlns="http://www.w3.org/2000/svg" xmlns:xlink="http://www.w3.org/1999/xlink" height="1699" viewBox="0 0 88 1699" width="88"><svg height="30.15" viewBox="0 0 80 31" width="79.85" x="4" y="4"><title>logo-black-mobile</title><path d="M38.62.38h7.52L50.6 8.1 55.06.38h9.17l3.69 4.78L71.61.38h8.26l-7.81 10.1 7.81 10.1h-8.25l-3.69-4.78-3.69 4.78H56l7.81-10.1-4-5.23-2.51 4.27-5.28 9.14-1.15 1.92H43.4l3.44-6-6.34-11v17h-6.51s-6.55-8.07-8-9.87v9.87h-6.53v-4.71a10.48 10.48 0 1 1 0-10.79V.38h6.51c2.69 3.28 5.35 6.58 8 9.87V.38h4.63zm-24 10.1c0-5.22-8.31-5.22-8.31 0s8.31 5.22 8.31 0zM6.97 27.41a2.15 2.15 0 0 1-.38.39 2.21 2.21 0 0 1-.73.38 2.86 2.86 0 0 1-.86.12 2 2 0 0 1-.88-.2 1.47 1.47 0 0 1-.59-.53 1.44 1.44 0 0 1-.22-.78 1.17 1.17 0 0 1 .24-.74 1.47 1.47 0 0 1 .67-.46 2.93 2.93 0 0 1 1-.16h1.74v-.49a1.53 1.53 0 0 0-.17-.73 1.06 1.06 0 0 0-.48-.45 1.85 1.85 0 0 0-.82-.16 2.16 2.16 0 0 0-.87.18 3.46 3.46 0 0 0-.79.49l-.08.06-.23-.3.07-.06a4.13 4.13 0 0 1 .58-.39 2.93 2.93 0 0 1 .62-.26 2.5 2.5 0 0 1 .69-.09 2.19 2.19 0 0 1 1 .21 1.45 1.45 0 0 1 .63.6 1.9 1.9 0 0 1 .22.91v3.37h-.35v-.9zm14.53-.38a2.29 2.29 0 0 1-.32.41 2.25 2.25 0 0 1-.76.51 2.48 2.48 0 0 1-.95.18 2.45 2.45 0 0 1-1-.18 2.26 2.26 0 0 1-.76-.51 2.35 2.35 0 0 1-.5-.78 2.63 2.63 0 0 1-.18-1 2.68 2.68 0 0 1 .18-1 2.35 2.35 0 0 1 .56-.79 2.27 2.27 0 0 1 .76-.51 2.43 2.43 0 0 1 1-.18 2.47 2.47 0 0 1 .95.18 2.25 2.25 0 0 1 .76.51 2.28 2.28 0 0 1 .32.41v-1.1h.31v4.44a2.94 2.94 0 0 1-.17 1 2.22 2.22 0 0 1-.49.79 2.14 2.14 0 0 1-.77.5 2.63 2.63 0 0 1-1 .17 2.9 2.9 0 0 1-1.1-.21 3.07 3.07 0 0 1-.93-.65l-.07-.07.27-.27.07.07a2.62 2.62 0 0 0 .81.56 2.55 2.55 0 0 0 1 .21 2.13 2.13 0 0 0 1.09-.26 1.76 1.76 0 0 0 .71-.73 2.38 2.38 0 0 0 .26-1.13v-.57zM32 25.87a2.43 2.43 0 0 0 .15.79 2 2 0 0 0 .43.69 1.92 1.92 0 0 0 .66.45 2.18 2.18 0 0 0 .84.16 2.48 2.48 0 0 0 .95-.18 2 2 0 0 0 .72-.5l.07-.07.27.27-.06.07a2.41 2.41 0 0 1-.85.59 2.8 2.8 0 0 1-1.09.21 2.53 2.53 0 0 1-1-.19 2.32 2.32 0 0 1-.78-.53 2.42 2.42 0 0 1-.51-.81 2.9 2.9 0 0 1 0-2 2.42 2.42 0 0 1 .51-.81 2.33 2.33 0 0 1 .78-.53 2.51 2.51 0 0 1 1-.19 2.43 2.43 0 0 1 1 .19 2.17 2.17 0 0 1 .75.53 2.39 2.39 0 0 1 .48.81 3 3 0 0 1 .17 1v.05H32zm14.69-1.6a2 2 0 0 1 .62-.67 2.42 2.42 0 0 1 1.35-.39 2.24 2.24 0 0 1 1.08.24 1.65 1.65 0 0 1 .7.7 2.32 2.32 0 0 1 .24 1.09v3.07h-.37v-3.07a1.91 1.91 0 0 0-.2-.9 1.31 1.31 0 0 0-.56-.56 1.84 1.84 0 0 0-.89-.2 2.12 2.12 0 0 0-1 .25 1.71 1.71 0 0 0-.67.66 2.08 2.08 0 0 0-.29 1v2.76h-.39v-5.1h.38v1.12zm16.18-1.06a2.56 2.56 0 0 1 1 .18 2.42 2.42 0 0 1 .78.5l.07.06-.25.27-.07-.06a2.21 2.21 0 0 0-.67-.42 2.17 2.17 0 0 0-.86-.15 2.22 2.22 0 0 0-.85.16 2 2 0 0 0-.67.44 2 2 0 0 0-.44.68 2.39 2.39 0 0 0-.16.88 2.42 2.42 0 0 0 .16.89 2 2 0 0 0 .44.69 2 2 0 0 0 .67.45 2.33 2.33 0 0 0 1.74 0 1.92 1.92 0 0 0 .69-.5l.07-.08.25.27-.06.06a2.32 2.32 0 0 1-.81.59 2.66 2.66 0 0 1-2 0 2.33 2.33 0 0 1-.79-.53 2.44 2.44 0 0 1-.52-.81 2.88 2.88 0 0 1 0-2 2.43 2.43 0 0 1 .52-.81 2.34 2.34 0 0 1 .76-.57 2.55 2.55 0 0 1 1-.19zm13 5l-2.07-5h.42l1.85 4.54 1.8-4.54h.43l-2.35 5.75a2.32 2.32 0 0 1-.58.87 1.17 1.17 0 0 1-.78.31 1.83 1.83 0 0 1-.51-.07 1.4 1.4 0 0 1-.42-.2h-.07l.17-.33.11.03a1.15 1.15 0 0 0 .33.15 1.4 1.4 0 0 0 .39.05.89.89 0 0 0 .6-.24 1.83 1.83 0 0 0 .46-.66zm-68.9-1.55v-.84H5.23a2.69 2.69 0 0 0-.86.12 1.08 1.08 0 0 0-.51.33.82.82 0 0 0-.17.52 1.1 1.1 0 0 0 .16.59 1.08 1.08 0 0 0 .45.4 1.64 1.64 0 0 0 .71.15 2.5 2.5 0 0 0 .86-.13 1.72 1.72 0 0 0 .66-.41 2.21 2.21 0 0 0 .44-.73zm12.5 1.1a2.09 2.09 0 0 0 .81-.16 1.91 1.91 0 0 0 .64-.43 2 2 0 0 0 .42-.66 2.26 2.26 0 0 0 .15-.83 2.29 2.29 0 0 0-.14-.81 2 2 0 0 0-.42-.66 1.9 1.9 0 0 0-.64-.44 2.17 2.17 0 0 0-1.62 0 1.88 1.88 0 0 0-.64.44 2 2 0 0 0-.42.66 2.31 2.31 0 0 0-.15.84 2.28 2.28 0 0 0 .15.83 2 2 0 0 0 .42.66 1.9 1.9 0 0 0 .64.43 2.08 2.08 0 0 0 .81.13zm12.55-2.29h4.05a2.51 2.51 0 0 0-.2-.71 2 2 0 0 0-.41-.62 1.78 1.78 0 0 0-.61-.4 2.11 2.11 0 0 0-.79-.14 2.16 2.16 0 0 0-.8.14 1.94 1.94 0 0 0-.64.41 2 2 0 0 0-.44.62 2.32 2.32 0 0 0-.19.71z"/></svg><svg height="65" viewBox="0 0 62 65" width="61.58" x="4" y="39"><title>features-icon6-disabled</title><circle cx="30.79" cy="30.82" r="30.79" fill="#828282"/><path d="M61.58 30.8a30.79 30.79 0 1 0-46.39 26.54v-1.33a9.47 9.47 0 0 1 9.47-9.47h14.45a9.47 9.47 0 0 1 9.47 9.35 30.74 30.74 0 0 0 13-25.13zM40.67 44.41H23.11l-7.33-10.14 13.46-23.38v3.91l2.27-3.94v16a2.59 2.59 0 1 0 .76 0v-16l2.26 3.94v-3.92L48 34.26z"/><path d="M29.4 30.16a3.61 3.61 0 0 1 2.11-3.28v-16l-2.27 3.92v12.1a3.61 3.61 0 0 0 1.46 6.9h.14a3.59 3.59 0 0 0 1.08-.2 3.61 3.61 0 0 1-2.52-3.44zm8.99 14.24h2.27l7.33-10.15-13.46-23.37v3.94l11.19 19.43-7.33 10.15zm10.19 11.56a9.47 9.47 0 0 0-9.47-9.35h-2.27a9.47 9.47 0 0 1 9.47 9.47v1.35q1.16-.7 2.27-1.47z" stroke="#000"/><path d="M15.19 57.36v7.65h2.27v-6.42q-1.17-.58-2.27-1.23z" fill="#fff"/><path d="M25.37 44.41h13l7.33-10.14L34.54 14.8l-2.27-3.9v16a3.63 3.63 0 0 1-1.43 6.9h-.1a3.61 3.61 0 0 1-1.46-6.9v-16L15.84 34.26l7.31 10.15h2.22zm11.47 2.19H24.66a9.47 9.47 0 0 0-9.47 9.47v2c.76.44 1.51.85 2.27 1.22a30.81 30.81 0 0 0 28.86-1.17v-2.11a9.47 9.47 0 0 0-9.48-9.42z" fill="#828282"/></svg><svg height="64.99" viewBox="0 0 62 65" width="61.58" x="4" y="108"><defs><radialGradient id="a" cx="-267.18" cy="434.5" r=".91" gradientTransform="matrix(0 57.33 57.33 0 -24878.75 15333.99)" gradientUnits="userSpaceOnUse"><stop offset="0" stop-color="#0a6972"/><stop offset="1" stop-color="#16193f"/></radialGradient></defs><title>features-icon6</title><circle cx="30.79" cy="30.81" r="30.79" fill="#0644d6"/><path d="M61.74 31a30.79 30.79 0 1 0-46.39 26.54v-1.29a9.47 9.47 0 0 1 9.47-9.47h14.45a9.47 9.47 0 0 1 9.47 9.35 30.74 30.74 0 0 0 13-25.13zM40.83 44.61H23.27l-7.33-10.14L29.4 11.09V15l2.27-3.94v16a2.59 2.59 0 1 0 .76 0v-16L34.69 15v-3.92l13.46 23.38z" transform="translate(-.16 -.21)" fill="url(#a)"/><path data-name="Shape" d="M29.4 30.15a3.61 3.61 0 0 1 2.11-3.28v-16l-2.27 3.92v12.1a3.61 3.61 0 0 0 1.46 6.9h.14a3.59 3.59 0 0 0 1.08-.2 3.61 3.61 0 0 1-2.52-3.44zm8.99 14.24h2.27l7.33-10.15-13.46-23.37v3.94l11.19 19.43-7.33 10.15zm10.19 11.56a9.47 9.47 0 0 0-9.47-9.35h-2.27a9.47 9.47 0 0 1 9.47 9.47v1.35q1.16-.7 2.27-1.47z" fill="#082e3c"/><path data-name="Shape" d="M15.19 57.35v7.64h2.27v-6.41q-1.17-.57-2.27-1.23z" fill="#fff"/><g data-name="Group"><path data-name="Shape" d="M25.37 44.4h13l7.33-10.14-11.16-19.47-2.27-3.9v16a3.63 3.63 0 0 1-1.43 6.9h-.1a3.61 3.61 0 0 1-1.46-6.9v-16L15.84 34.25l7.31 10.15h2.27zm11.47 2.19H24.66a9.47 9.47 0 0 0-9.47 9.47v2c.76.44 1.51.85 2.27 1.22a30.81 30.81 0 0 0 28.86-1.17v-2.1a9.47 9.47 0 0 0-9.48-9.42z" fill="#fff"/></g></svg><svg height="61.82" viewBox="0 0 62 62" width="61.82" x="4" y="177"><title>features-icon5-disabled</title><circle cx="30.91" cy="30.91" r="30.91"/><path d="M46.26 44.24l-7.86-7.85a12.87 12.87 0 1 0-3.39 3l8 8a2.28 2.28 0 0 0 3.22-3.22zm-27-15.73a9 9 0 1 1 9 9 9 9 0 0 1-9-9z" stroke="#000"/><circle cx="27.55" cy="27.04" r="10.91" fill="none" stroke="#828282" stroke-width="5"/><path d="M35.05 35.51l8.85 8.86" fill="none" stroke="#828282" stroke-linecap="round" stroke-width="6"/></svg><svg height="61.82" viewBox="0 0 62 62" width="61.82" x="4" y="243"><title>features-icon3</title><circle cx="30.91" cy="30.91" r="30.91" fill="url(#a)"/><path d="M46.26 44.24l-7.86-7.85a12.87 12.87 0 1 0-3.39 3l8 8a2.28 2.28 0 0 0 3.22-3.22zM19.29 28.51a9 9 0 1 1 9 9 9 9 0 0 1-9-9z" fill="#082e3c"/><circle data-name="Oval" cx="27.55" cy="27.04" r="10.91" fill="none" stroke="#fff" stroke-width="5"/><path data-name="Shape" d="M35.05 35.51l8.85 8.86" fill="none" stroke="#fff" stroke-linecap="round" stroke-width="6"/></svg><svg height="61.82" viewBox="0 0 62 62" width="61.82" x="4" y="309"><title>features-icon1-disabled</title><circle cx="30.91" cy="30.91" r="30.91"/><rect x="13.88" y="13.59" width="35.68" height="37.09" rx="4.69" ry="4.69" stroke="#000"/><rect x="13.77" y="13.53" width="34.29" height="35.64" rx="3.67" ry="3.67" fill="#828282"/><path d="M48 19.9H13.76M19 26.51h10.39M19 31.28h10.39M19 36.09h24M19 40.9h24m-9.66-15.85h8.87v6.93h-8.87z" fill="none" stroke="#000" stroke-width="2"/></svg><svg height="61.82" viewBox="0 0 62 62" width="61.82" x="4" y="375"><title>features-icon1</title><circle cx="30.91" cy="30.91" r="30.91" fill="url(#a)"/><rect x="13.88" y="13.59" width="35.68" height="37.09" rx="4.69" ry="4.69" fill="#082e3c"/><rect data-name="Rectangle-path" x="13.77" y="13.53" width="34.29" height="35.64" rx="3.67" ry="3.67" fill="#fff"/><path d="M48.05 19.9H13.32" fill="none" stroke="#0e4e61" stroke-width="2"/><path data-name="Shape" d="M19.01 26.51h10.38m-10.38 4.77h10.38m-10.38 4.81h24m-24 4.81h24" fill="none" stroke="#0e4e61" stroke-width="2"/><path data-name="Rectangle-path" fill="none" stroke="#0e4e61" stroke-width="2" d="M33.34 25.05h8.87v6.93h-8.87z"/></svg><svg height="61.58" viewBox="0 0 62 62" width="61.58" x="4" y="441"><title>features-icon4</title><circle cx="30.79" cy="30.79" r="30.79" fill="url(#a)"/><path d="M17.86 38.5h26.37V22.28H17.86V38.5zm14.65-12.44h8.79v10.33h-8.82zm-11.15 1h8.13v1.51h-8.16zm0 3.4h8.13v1.51h-8.16zm0 3.4h8.13v1.53h-8.16z" fill="#003799" stroke="#003799"/><path fill="#003799" stroke="#003799" d="M33.99 27.57h5.75v7.3h-5.75z"/><path data-name="Shape" d="M50.58 15.95H11.81a1.51 1.51 0 0 0-1.51 1.51v25.67a1.51 1.51 0 0 0 1.51 1.51h38.76a1.51 1.51 0 0 0 1.51-1.51V17.46a1.51 1.51 0 0 0-1.5-1.51zm1.47 24.06H10.33V38.5h6V20.76h29.38V38.5h6.33z" fill="#082e3c"/><path data-name="Shape" d="M39.83 49.59h-2.45l-.53-3.43h-3l.53 3.43h-6.27l.53-3.43h-3l-.56 3.43h-2.45a1.51 1.51 0 0 0 0 3H39.9a1.51 1.51 0 0 0 0-3h-.07z" fill="#003799" stroke="#003799"/><path data-name="Shape" fill="none" d="M28.07 43.88h4.73-4.73zm-.76 4.96h6.25l-.53-3.44h-5.19l-.53 3.44z"/><g data-name="Group" fill="#fff"><path data-name="Shape" d="M17.1 37.75h26.37V21.52H17.1v16.23zM31.71 25.3h8.79v10.33h-8.79zM20.6 26.39h8.11v1.51h-8.14zm0 3.4h8.11v1.51h-8.14zm0 3.4h8.11v1.51h-8.14z"/><path data-name="Rectangle-path" d="M33.23 26.81h5.75v7.3h-5.75z"/><path data-name="Shape" d="M49.82 15.19H11.05a1.51 1.51 0 0 0-1.51 1.51v25.69a1.51 1.51 0 0 0 1.51 1.51h38.76a1.51 1.51 0 0 0 1.51-1.51V16.7a1.51 1.51 0 0 0-1.5-1.51zm1.47 24.06H9.58v-1.51h6V20.01h29.4v17.74h6.33zm-12.22 9.59h-2.45l-.53-3.45h-3l.53 3.43h-6.27l.53-3.43h-3l-.53 3.43h-2.47a1.51 1.51 0 0 0 0 3h17.26a1.51 1.51 0 1 0 0-3h-.07z"/></g><path data-name="Shape" fill="#0e4e61" d="M15.56 20.01v17.73h1.51V21.52h26.38v16.22h1.51V20.01h-29.4z"/><path data-name="Rectangle-path" fill="#0e4e61" d="M20.57 26.34h8.13v1.51h-8.13zm0 3.4h8.13v1.51h-8.13zm0 3.41h8.13v1.51h-8.13z"/><path data-name="Shape" d="M31.71 25.3v10.33h8.82V25.3h-8.82zm7.3 8.82h-5.74v-7.3h5.75v7.3zm5.95 3.62v.51h-1.51v-.51H17.07v.51h-1.51v-.51h-2.99v1.52h35.74v-1.52h-3.35z" fill="#0e4e61"/><path data-name="Rectangle-path" fill="#0e4e61" d="M49.82 37.74h1.47v1.51h-1.47zm-40.25 0h1.48v1.51H9.57zm38.74 0h1.51v1.51h-1.51zm-37.26 0h1.51v1.51h-1.51zm32.4 0h1.51v1h-1.51zm-27.89 0h1.51v1h-1.51z"/></svg><svg height="61.58" viewBox="0 0 62 62" width="61.58" x="4" y="507"><title>features-icon5</title><circle cx="30.79" cy="30.79" r="30.79" fill="url(#a)"/><g fill="#082e3c"><path d="M47.67 15.57H16.55a1.51 1.51 0 0 0-1.51 1.51v31.13a1.51 1.51 0 0 0 1.51 1.56h31.13a1.51 1.51 0 0 0 1.51-1.51V17.08a1.51 1.51 0 0 0-1.52-1.51zm-1.51 3v20.36l-5.94-5a1.13 1.13 0 0 0-1.31-.16l-5.72 3.33-6.14-6.62a1.13 1.13 0 0 0-1.51-.2l-7.44 6.7V18.6h28.06zm-28.1 28.1v-6.9l8.66-6.28 5.29 6.54a1.13 1.13 0 0 0 1.45.26l5.86-3.42 6.8 5.76v4H18.05z"/><path data-name="Shape" d="M36.83 29.55a3.86 3.86 0 1 0-3.86-3.86 3.86 3.86 0 0 0 3.86 3.86zm0-5.46a1.6 1.6 0 1 1-1.6 1.6 1.6 1.6 0 0 1 1.6-1.6z"/></g><path fill="none" stroke="#fff" stroke-linejoin="round" stroke-width="4" d="M15.79 16.32h31.13v31.13H15.79z"/><path data-name="Shape" fill="#fff" stroke="#fff" stroke-linejoin="round" stroke-width="3" d="M15.53 39.12l9.88-7.92 6.76 7.38 6.56-3.83 8.06 6.83v5.37H15.53v-7.83z"/><circle data-name="Oval" cx="36.13" cy="24.92" r="2.73" fill="none" stroke="#fff" stroke-linejoin="round" stroke-width="3"/></svg><svg height="61.58" viewBox="0 0 62 62" width="61.58" x="4" y="573"><title>features-icon2-disabled</title><circle cx="30.79" cy="30.79" r="30.79"/><path d="M17.86 38.5h26.37V22.28H17.86V38.5zm14.65-12.44h8.79v10.33h-8.82zm-11.15 1h8.13v1.51h-8.16zm0 3.4h8.13V32h-8.16zm0 3.4h8.13v1.53h-8.16z" fill="#003799" stroke="#003799"/><path fill="#003799" stroke="#003799" d="M33.99 27.57h5.75v7.3h-5.75z"/><path d="M50.58 15.95H11.81a1.51 1.51 0 0 0-1.51 1.51v25.67a1.51 1.51 0 0 0 1.51 1.51h38.76a1.51 1.51 0 0 0 1.51-1.51V17.46a1.51 1.51 0 0 0-1.5-1.51zM52.05 40H10.33v-1.5h6V20.76h29.38V38.5H52V40zm-12.22 9.59h-2.45l-.53-3.43h-3l.53 3.43h-6.27l.53-3.43h-3l-.56 3.43h-2.45a1.51 1.51 0 0 0 0 3H39.9a1.51 1.51 0 0 0 0-3h-.07z" stroke="#000"/><path fill="none" d="M28.07 43.88h4.73-4.73zm-.76 4.96h6.25l-.53-3.44h-5.19l-.53 3.44z"/><g fill="#828282"><path d="M17.1 37.75h26.37V21.52H17.1v16.23zM31.71 25.3h8.79v10.33h-8.79V25.3zM20.6 26.39h8.11v1.51h-8.14zm0 3.4h8.11v1.51h-8.14zm0 3.4h8.11v1.51h-8.14z"/><path d="M33.23 26.81h5.75v7.3h-5.75z"/><path d="M49.82 15.19H11.05a1.51 1.51 0 0 0-1.51 1.51v25.69a1.51 1.51 0 0 0 1.51 1.51h38.76a1.51 1.51 0 0 0 1.51-1.51V16.7a1.51 1.51 0 0 0-1.5-1.51zm1.47 24.06H9.58v-1.51h6V20H45v17.75h6.33zm-12.22 9.59h-2.45l-.53-3.45h-3l.53 3.43h-6.27l.53-3.43h-3l-.53 3.43h-2.47a1.51 1.51 0 0 0 0 3h17.26a1.51 1.51 0 1 0 0-3h-.07z"/></g><path d="M15.56 20.01v17.73h1.51V21.52h26.38v16.22h1.51V20.01h-29.4z"/><path d="M20.57 26.34h8.13v1.51h-8.13zm0 3.4h8.13v1.51h-8.13zm0 3.41h8.13v1.51h-8.13zm11.14-7.85v10.33h8.82V25.3h-8.82zM39 34.12h-5.73v-7.3H39v7.3zm5.96 3.62v.51h-1.51v-.51H17.07v.51h-1.51v-.51h-2.99v1.52h35.74v-1.52h-3.35z"/><path fill="#828282" d="M49.82 37.74h1.47v1.51h-1.47zm-40.25 0h1.48v1.51H9.57zm38.74 0h1.51v1.51h-1.51zm-37.26 0h1.51v1.51h-1.51zm32.4 0h1.51v1h-1.51zm-27.89 0h1.51v1h-1.51z"/></svg><svg height="61.58" viewBox="0 0 62 62" width="61.58" x="4" y="639"><title>features-icon2</title><circle cx="30.79" cy="30.79" r="30.79" fill="url(#a)"/><path d="M39.83 27.28a7.56 7.56 0 1 0-7.17-5.17l-11 6.14a6.65 6.65 0 1 0-.76 9.66l10.66 7.15a6.09 6.09 0 1 0 1.51-2.62l-10.24-6.92a6.56 6.56 0 0 0 .38-4.63l11-6.15a7.56 7.56 0 0 0 5.62 2.54z" fill="#082e3c"/><path data-name="Shape" d="M39.06 26.52a7.56 7.56 0 1 0-7.17-5.17l-10.97 6.17a6.65 6.65 0 1 0-.76 9.66l10.67 7.12a6.09 6.09 0 1 0 1.51-2.62l-10.3-6.91a6.56 6.56 0 0 0 .38-4.63l11-6.15a7.56 7.56 0 0 0 5.64 2.53z" fill="#fff"/></svg><svg height="61.58" viewBox="0 0 62 62" width="61.58" x="4" y="705"><title>features-icon3-disabled</title><circle cx="30.79" cy="30.79" r="30.79"/><g stroke="#000"><path d="M47.67 15.57H16.55A1.51 1.51 0 0 0 15 17.08v31.13a1.51 1.51 0 0 0 1.46 1.56h31.22a1.51 1.51 0 0 0 1.51-1.51V17.08a1.51 1.51 0 0 0-1.51-1.51zm-1.51 3v20.36l-5.94-5a1.13 1.13 0 0 0-1.31-.16l-5.72 3.33-6.14-6.62a1.13 1.13 0 0 0-1.51-.2L18.1 37V18.6h28.06zm-28.1 28.1v-6.9l8.66-6.28L32 40a1.13 1.13 0 0 0 1.45.26l5.86-3.42 6.8 5.76v4H18z"/><path d="M36.83 29.55A3.86 3.86 0 1 0 33 25.69a3.86 3.86 0 0 0 3.86 3.86zm0-5.46a1.6 1.6 0 1 1-1.6 1.6 1.6 1.6 0 0 1 1.6-1.6z"/></g><path fill="none" stroke="#828282" stroke-linejoin="round" stroke-width="4" d="M15.79 16.32h31.13v31.13H15.79z"/><path fill="#828282" stroke="#828282" stroke-linejoin="round" stroke-width="3" d="M15.53 39.12l9.88-7.92 6.76 7.38 6.56-3.83 8.06 6.83v5.37H15.53v-7.83z"/><circle cx="36.13" cy="24.92" r="2.73" fill="none" stroke="#828282" stroke-linejoin="round" stroke-width="3"/></svg><svg height="61.58" viewBox="0 0 62 62" width="61.58" x="4" y="771"><title>features-icon4-disabled</title><circle cx="30.79" cy="30.79" r="30.79"/><path d="M39.83 27.28a7.56 7.56 0 1 0-7.17-5.17l-11 6.14a6.65 6.65 0 1 0-.76 9.66l10.66 7.15a6.09 6.09 0 1 0 1.51-2.62l-10.24-6.92a6.56 6.56 0 0 0 .38-4.63l11-6.15a7.56 7.56 0 0 0 5.62 2.54z" stroke="#000"/><path d="M39.06 26.52a7.56 7.56 0 1 0-7.17-5.17l-11 6.17a6.65 6.65 0 1 0-.76 9.66l10.7 7.12a6.09 6.09 0 1 0 1.51-2.62L22 34.77a6.56 6.56 0 0 0 .38-4.63l11-6.15a7.56 7.56 0 0 0 5.68 2.53z" fill="#b7b7b7"/></svg><svg height="50" viewBox="0 0 50 50" width="50" x="4" y="837"><title>case-content-after</title><path d="M50.02 24.31a25.01 25.01 0 1 1-50 1.39v-1.39a25 25 0 0 1 50 0zm-3.54 0a21.45 21.45 0 1 0-42.9 0 21.45 21.45 0 1 0 42.87 0z" fill="#57a300"/><path d="M44.67 24.64A19.32 19.32 0 1 1 25.35 5.31a19.32 19.32 0 0 1 19.32 19.33z" fill="#57a300"/><path d="M22.21 35.99L12.02 20.23v-.19l9.55 4.27 15.74-11z" fill="#fff"/></svg><svg height="49.84" viewBox="0 0 50 50" width="49.84" x="4" y="891"><title>case-content-before</title><path d="M49.84 24.93a24.92 24.92 0 1 1-49.82-.02 24.92 24.92 0 1 1 49.84 0zm-3.53 0a21.39 21.39 0 0 0-42.77-.91v.92a21.39 21.39 0 0 0 42.77-.01z" fill="#bf3d27"/><path d="M6.02 25.29a19.26 19.26 0 1 1 19.26 19.27A19.27 19.27 0 0 1 6.02 25.29z" fill="#bf3d27"/><path d="M36.1 31.24l-5.86 5.86-5.68-5.68-5.68 5.68-5.86-5.86 5.68-5.68-5.68-5.68 5.86-5.86 5.68 5.68 5.68-5.68 5.86 5.86-5.69 5.68z" fill="#fff"/></svg><svg height="41.3" viewBox="0 0 42 42" width="41.3" x="4" y="945"><title>page-footer__contacts-mail</title><g data-name="if Rounded-07 2024667"><path d="M.65 20.65a20 20 0 1 0 20-20 20 20 0 0 0-20 20z" fill="none" stroke="#fff" stroke-width="1.3"/><rect x="10.65" y="13.15" width="20" height="15.11" rx="1.48" ry="1.48" fill="#fff"/><path data-name="Shape" d="M30.3 13.65l-6.82 7.32a3.92 3.92 0 0 1-5.67 0L11 13.65m13.52 6.22l5.6 8m-13.23-7.92l-5.8 7.89" fill="none" stroke="#213c4e" stroke-linejoin="round" stroke-width="2"/></g></svg><svg height="41.3" viewBox="0 0 42 42" width="41.3" x="4" y="991"><title>page-footer__contacts-tel</title><g data-name="if Rounded-15 2024660"><path d="M.65 20.65a20 20 0 1 0 20-20 20 20 0 0 0-20 20z" fill="none" stroke="#fff" stroke-width="1.3"/><path data-name="Shape" d="M21.86 24.92c.63-.06 1.84-1.2 2.5-1.25a2.5 2.5 0 0 1 1.74.5l1.67 1.25 1 .8a1.57 1.57 0 0 1 .27 2.26l-1.94 2.5a.7.7 0 0 1-.62.27c-8.44-.76-15.15-7.66-15.15-16.05a15.63 15.63 0 0 1 .63-4.38.41.41 0 0 1 .31-.28l3.69-.52a1.64 1.64 0 0 1 1.95 1.25l.24 1.24.41 2a2.34 2.34 0 0 1-.33 1.74c-.34.53-1.93 1-2.27 1.58a12.12 12.12 0 0 0 5.91 7.14v-.1z" fill="#fff"/></g></svg><svg height="41.02" viewBox="0 0 41 42" width="41" x="4" y="1037"><title>in-scroll</title><path d="M30.15 28.25v-7.39c0-3.83-2.08-5.61-4.77-5.61a4.2 4.2 0 0 0-3.75 2.08v-1.74h-4.09v12.66h4.09v-7.21a2.76 2.76 0 0 1 .16-1 2.3 2.3 0 0 1 2.15-1.52c1.48 0 2.12 1.14 2.12 2.82v6.91h4.09zm-16.39-19a2.1 2.1 0 0 0-2.22 2.19 2.1 2.1 0 0 0 2 2.19h.2a2.1 2.1 0 0 0 2.21-2v-.21a2.11 2.11 0 0 0-2-2.17h-.19zm-2.22 19.69V16.25h4.09v12.69h-4.09z" fill="#fff" stroke="#0829cc" stroke-miterlimit="10"/><path d="M40.46 19.25a20 20 0 1 1-39.92 0 20 20 0 0 1 39.92 0zm-1.26 0a18.71 18.71 0 1 0-5.49 13.21 18.7 18.7 0 0 0 5.49-13.21z" fill="#fff" stroke="#0829cc" stroke-miterlimit="10"/></svg><svg height="39.92" viewBox="0 0 40 40" width="39.92" x="4" y="1083"><title>fb-hover</title><g data-name="if facebook 313485"><path d="M19.96-.04a20 20 0 1 0 20 20 20 20 0 0 0-20-20z" fill="#fff"/><path d="M21.96 16.96V14.7c0-1 .25-1.5 1.83-1.5h1.93V9.44h-3.26c-4.05 0-5.34 1.8-5.34 5v2.52h-2.75v3.84h2.76v11.35h4.83V20.8h3.36l.45-3.84h-3.81z" fill="#0e4e61"/></g></svg><svg height="39.92" viewBox="0 0 40 40" width="39.92" x="4" y="1127"><title>in</title><g data-name="if linkedin 313475" fill="#fff"><path d="M29.96 29.48v-7.42c0-3.83-2.08-5.61-4.77-5.61a4.21 4.21 0 0 0-3.74 2.08v-1.74h-4.08v12.69h4.09v-7.24a2.74 2.74 0 0 1 .16-1 2.3 2.3 0 0 1 2.14-1.52c1.49 0 2.12 1.14 2.12 2.82v6.94h4.08z"/><path data-name="Shape" d="M13.04 10.4a2.11 2.11 0 0 0-2.22 2.19 2.1 2.1 0 0 0 2.14 2.19 2.11 2.11 0 0 0 2.22-2.19 2.11 2.11 0 0 0-2.14-2.19z"/><path d="M10.86 16.78h4.09v12.69h-4.09z"/><path data-name="Shape" d="M19.96-.04a20 20 0 1 0 20 20 20 20 0 0 0-20-20zm13.23 33.23A18.71 18.71 0 0 1 6.73 6.73a18.71 18.71 0 0 1 26.46 26.46z"/></g></svg><svg height="39.92" viewBox="0 0 40 40" width="39.92" x="4" y="1171"><title>inst-hover</title><path d="M19.96-.04a20 20 0 1 0 20 20 20 20 0 0 0-20-20z" fill="#fff"/><path data-name="Shape" d="M13.06 10.52h14a2.37 2.37 0 0 1 2.39 2.39v14.05a2.43 2.43 0 0 1-2.39 2.46h-14a2.48 2.48 0 0 1-2.45-2.46v-14a2.42 2.42 0 0 1 2.45-2.39zm11.33 2.09a.82.82 0 0 0-.84.82v2a.81.81 0 0 0 .84.82h2.13a.84.84 0 0 0 .87-.82v-2a.85.85 0 0 0-.87-.82h-2.13zm3 5.85h-1.67a5.51 5.51 0 0 1 .24 1.62 5.87 5.87 0 0 1-11.73 0 5.49 5.49 0 0 1 .24-1.62h-1.78v8a.82.82 0 0 0 .79.78h13.15a.79.79 0 0 0 .76-.78v-8zm-7.3-2.25a3.68 3.68 0 1 0 3.79 3.67 3.73 3.73 0 0 0-3.79-3.67z" fill="#0e4e61"/></svg><svg height="39.92" viewBox="0 0 40 40" width="39.92" x="4" y="1215"><title>fb-scroll</title><g data-name="if facebook 313485"><path d="M21.96 16.96V14.7c0-1 .25-1.5 1.83-1.5h1.93V9.44h-3.26c-4.05 0-5.34 1.8-5.34 5v2.52h-2.75v3.84h2.76v11.35h4.83V20.8h3.36l.45-3.84h-3.81z"/><path data-name="Shape" d="M19.96-.04a20 20 0 1 0 20 20 20 20 0 0 0-20-20zm13.23 33.23A18.71 18.71 0 0 1 6.73 6.73a18.71 18.71 0 0 1 26.46 26.46z"/></g></svg><svg height="39.92" viewBox="0 0 40 40" width="39.92" x="4" y="1259"><title>inst-scroll</title><path d="M19.96-.04a20 20 0 1 0 20 20 20 20 0 0 0-20-20zm13.23 33.23A18.71 18.71 0 0 1 6.73 6.73a18.71 18.71 0 0 1 26.46 26.46z"/><path data-name="Shape" d="M13.06 10.52h14a2.37 2.37 0 0 1 2.39 2.39v14.05a2.43 2.43 0 0 1-2.39 2.46h-14a2.48 2.48 0 0 1-2.45-2.46v-14a2.42 2.42 0 0 1 2.45-2.39zm11.33 2.09a.82.82 0 0 0-.84.82v2a.81.81 0 0 0 .84.82h2.13a.84.84 0 0 0 .87-.82v-2a.85.85 0 0 0-.87-.82h-2.13zm3 5.85h-1.67a5.51 5.51 0 0 1 .24 1.62 5.87 5.87 0 0 1-11.73 0 5.49 5.49 0 0 1 .24-1.62h-1.78v8a.82.82 0 0 0 .79.78h13.15a.79.79 0 0 0 .76-.78v-8zm-7.3-2.25a3.68 3.68 0 1 0 3.79 3.67 3.73 3.73 0 0 0-3.79-3.67z"/></svg><svg height="39.92" viewBox="0 0 40 40" width="39.92" x="4" y="1303"><title>inst</title><g data-name="if instagram 313477" fill="#fff"><path d="M19.96-.04a20 20 0 1 0 20 20 20 20 0 0 0-20-20zm13.23 33.23A18.71 18.71 0 0 1 6.73 6.73a18.71 18.71 0 0 1 26.46 26.46z"/><path data-name="Shape" d="M13.06 10.52h14a2.37 2.37 0 0 1 2.39 2.39v14.05a2.43 2.43 0 0 1-2.39 2.46h-14a2.48 2.48 0 0 1-2.45-2.46v-14a2.42 2.42 0 0 1 2.45-2.39zm11.33 2.09a.82.82 0 0 0-.84.82v2a.81.81 0 0 0 .84.82h2.13a.84.84 0 0 0 .87-.82v-2a.85.85 0 0 0-.87-.82h-2.13zm3 5.85h-1.67a5.51 5.51 0 0 1 .24 1.62 5.87 5.87 0 0 1-11.73 0 5.49 5.49 0 0 1 .24-1.62h-1.78v8a.82.82 0 0 0 .79.78h13.15a.79.79 0 0 0 .76-.78v-8zm-7.3-2.25a3.68 3.68 0 1 0 3.79 3.67 3.73 3.73 0 0 0-3.79-3.67z"/></g></svg><svg height="39.92" viewBox="0 0 40 40" width="39.92" x="4" y="1347"><title>fb</title><g data-name="if facebook 313485" fill="#fff"><path d="M21.96 16.96V14.7c0-1 .25-1.5 1.83-1.5h1.93V9.44h-3.26c-4.05 0-5.34 1.8-5.34 5v2.52h-2.75v3.84h2.76v11.35h4.83V20.8h3.36l.45-3.84h-3.81z"/><path data-name="Shape" d="M19.96-.04a20 20 0 1 0 20 20 20 20 0 0 0-20-20zm13.23 33.23A18.71 18.71 0 0 1 6.73 6.73a18.71 18.71 0 0 1 26.46 26.46z"/></g></svg><svg height="37.41" viewBox="0 0 38 38" width="37.41" x="4" y="1391"><title>fb-scroll-hover</title><g data-name="if facebook 313485"><path d="M32.23 32.23A18.71 18.71 0 0 1 5.77 5.77a18.71 18.71 0 0 1 26.46 26.46z" transform="translate(-.29 -.29)" fill="url(#a)"/><path data-name="Shape" d="M20.71 15.71v-2.26c0-1 .25-1.5 1.83-1.5h1.93V8.19h-3.26c-4.05 0-5.34 1.8-5.34 5v2.52h-2.75v3.84h2.76V30.9h4.83V19.55h3.36l.45-3.84h-3.81z" fill="#fff"/></g></svg><svg height="37.41" viewBox="0 0 38 38" width="37.41" x="4" y="1433"><title>inst-scroll-hover</title><g data-name="if instagram 313477"><path d="M32.23 32.23A18.71 18.71 0 0 1 5.77 5.77a18.71 18.71 0 0 1 26.46 26.46z" transform="translate(-.29 -.29)" fill="url(#a)"/><path data-name="Shape" d="M11.81 9.27h14a2.37 2.37 0 0 1 2.39 2.39v14.05a2.43 2.43 0 0 1-2.39 2.46h-14a2.48 2.48 0 0 1-2.45-2.46v-14a2.42 2.42 0 0 1 2.45-2.44zm11.33 2.09a.82.82 0 0 0-.84.82v2a.81.81 0 0 0 .84.82h2.13a.84.84 0 0 0 .87-.82v-2a.85.85 0 0 0-.87-.82h-2.13zm3 5.85h-1.67a5.51 5.51 0 0 1 .24 1.62 5.87 5.87 0 0 1-11.73 0 5.49 5.49 0 0 1 .24-1.62h-1.78v8a.82.82 0 0 0 .79.78h13.15a.79.79 0 0 0 .76-.78v-8zm-7.3-2.25a3.68 3.68 0 1 0 3.79 3.67 3.73 3.73 0 0 0-3.79-3.67z" fill="#fff"/></g></svg><svg height="36" viewBox="0 0 1 36" width="1" x="4" y="1475"><title>prev-next-border</title><path d="M.5 35.5V.5" fill="none" stroke="#000" stroke-linecap="square" stroke-miterlimit="50"/></svg><svg height="32" viewBox="0 0 32 32" width="32" x="4" y="1515"><title>if_Rounded-07_2024667</title><g fill="none" fill-rule="evenodd"><path d="M1 16c0 8.284 6.716 15 15 15 8.284 0 15-6.716 15-15 0-8.284-6.716-15-15-15C7.716 1 1 7.716 1 16z" stroke="#FFF" stroke-width="1.3"/><g transform="translate(8.5 10.375)"><rect fill="#FFF" width="15" height="11.334" rx="1.48"/><path d="M14.738.39L9.623 5.877a2.94 2.94 0 0 1-4.251 0L.262.394m10.14 4.646l4.2 5.98M4.678 5.1l-4.35 5.92" stroke="#272B44" stroke-width="2" stroke-linejoin="round"/></g></g></svg><svg height="32" viewBox="0 0 32 32" width="32" x="4" y="1551"><title>if_Rounded-15_2024660</title><g fill="none" fill-rule="evenodd"><path d="M1 16c0 8.284 6.716 15 15 15 8.284 0 15-6.716 15-15 0-8.284-6.716-15-15-15C7.716 1 1 7.716 1 16z" stroke="#FFF" stroke-width="1.3"/><path d="M16.905 19.206c.468-.042 1.383-.9 1.875-.937.466-.042.93.092 1.303.375l1.256.937.755.6a1.181 1.181 0 0 1 .201 1.697l-1.457 1.875a.525.525 0 0 1-.47.202c-6.327-.567-11.362-5.747-11.362-12.038 0-1.11.158-2.215.469-3.281a.31.31 0 0 1 .234-.211l2.77-.39a1.233 1.233 0 0 1 1.463.938l.183.933.305 1.528c.09.45.001.918-.249 1.304-.253.393-1.448.787-1.706 1.185a9.09 9.09 0 0 0 4.43 5.358v-.075z" fill="#FFF"/></g></svg><svg height="29.94" viewBox="0 0 30 30" width="29.94" x="4" y="1587"><title>inst-scroll-mobile</title><path d="M14.97-.03a15 15 0 1 0 15 15 15 15 0 0 0-15-15zm9.92 24.89A14.018 14.018 0 0 1 5.05 5.05a14.029 14.029 0 0 1 19.84 19.84z"/><path data-name="Shape" d="M9.79 7.89h10.53a1.78 1.78 0 0 1 1.79 1.79V20.2a1.82 1.82 0 0 1-1.79 1.84H9.79a1.86 1.86 0 0 1-1.82-1.84V9.68a1.82 1.82 0 0 1 1.82-1.79zm8.5 1.57a.61.61 0 0 0-.63.62v1.53a.61.61 0 0 0 .63.61h1.6a.63.63 0 0 0 .65-.61v-1.53a.64.64 0 0 0-.65-.62h-1.6zm2.25 4.38h-1.25a4.13 4.13 0 0 1 .18 1.22 4.4 4.4 0 0 1-8.8 0 4.12 4.12 0 0 1 .18-1.22H9.52v6a.61.61 0 0 0 .59.59h9.86a.59.59 0 0 0 .57-.59v-6zm-5.47-1.68a2.76 2.76 0 1 0 2.84 2.75 2.8 2.8 0 0 0-2.84-2.75z"/></svg><svg height="29.94" viewBox="0 0 30 30" width="29.94" x="4" y="1621"><title>fb-scroll-mobile</title><g data-name="if facebook 313485"><path d="M16.47 12.72v-1.7c0-.76.18-1.13 1.37-1.13h1.45V7.08h-2.44c-3 0-4 1.35-4 3.74v1.89h-2.08v2.88h2.07v8.52h3.63V15.6h2.5l.34-2.88h-2.84z"/><path data-name="Shape" d="M14.97-.03a15 15 0 1 0 15 15 15 15 0 0 0-15-15zm9.92 24.89A14.018 14.018 0 0 1 5.05 5.05a14.029 14.029 0 0 1 19.84 19.84z"/></g></svg><svg height="18" viewBox="0 0 25 18" width="25" x="4" y="1655"><title>page-header-button</title><path d="M1 1h23M1 9h23M1 17h23" fill="none" stroke="#fff" stroke-linecap="round" stroke-width="2"/></svg><svg height="18" viewBox="0 0 25 18" width="25" x="4" y="1677"><title>burger-scroll</title><path d="M1 1h23M1 9h23M1 17h23" fill="none" stroke="#000" stroke-linecap="round" stroke-miterlimit="50" stroke-width="2"/></svg></svg>