<svg xmlns="http://www.w3.org/2000/svg" viewBox="0 0 512 512" width="512" height="512"><g fill="#FFF"><path d="M85.333 170.667h341.333c47.053 0 85.333-38.281 85.333-85.333C512 38.281 473.719 0 426.667 0H332.8a8.53 8.53 0 0 0-8.533 8.533V128a8.53 8.53 0 0 0 8.533 8.533 8.53 8.53 0 0 0 8.533-8.533V17.067h85.333c37.641 0 68.267 30.626 68.267 68.267 0 37.641-30.626 68.267-68.267 68.267H85.333c-37.641 0-68.267-30.618-68.267-68.267 0-37.641 30.626-68.267 68.267-68.267h85.333V128c0 4.71 3.814 8.533 8.533 8.533s8.533-3.823 8.533-8.533V8.533A8.53 8.53 0 0 0 179.199 0H85.333C38.281 0 0 38.281 0 85.333c0 47.062 38.281 85.334 85.333 85.334zm25.592 102.4c-4.719 0-8.533 3.823-8.533 8.533s3.814 8.533 8.533 8.533h26.462c1.109 5.436 3.277 10.487 6.246 14.959l-18.748 18.748c-3.336 3.328-3.336 8.73 0 12.066a8.51 8.51 0 0 0 6.033 2.5 8.509 8.509 0 0 0 6.033-2.5l18.748-18.748c4.48 2.97 9.515 5.137 14.959 6.246v26.462c0 4.71 3.814 8.533 8.533 8.533s8.533-3.823 8.533-8.533v-26.462c5.436-1.109 10.487-3.277 14.959-6.246l18.748 18.748a8.526 8.526 0 0 0 6.033 2.5 8.509 8.509 0 0 0 6.033-2.5c3.337-3.336 3.337-8.738 0-12.066l-18.748-18.748c2.97-4.471 5.137-9.523 6.238-14.959h26.479c4.719 0 8.533-3.823 8.533-8.533s-3.823-8.533-8.533-8.533h-26.47c-1.101-5.436-3.277-10.479-6.246-14.95l18.748-18.765a8.534 8.534 0 0 0 0-12.075c-3.328-3.319-8.73-3.328-12.066.009l-18.739 18.756c-4.471-2.961-9.523-5.137-14.959-6.246l-.009-26.47a8.53 8.53 0 0 0-8.533-8.533 8.525 8.525 0 0 0-8.533 8.533l.009 26.47c-5.436 1.109-10.487 3.277-14.959 6.238l-18.765-18.748c-3.337-3.319-8.747-3.328-12.075.009s-3.328 8.738.009 12.066l18.756 18.739c-2.97 4.48-5.137 9.523-6.246 14.967h-26.463zM179.191 256c14.106 0 25.583 11.469 25.6 25.574 0 .017-.009.017-.009.026 0 .008.009.017.009.026-.017 14.097-11.477 25.557-25.574 25.574l-.026-.009c-.009 0-.017.009-.026.009-14.106-.017-25.574-11.494-25.574-25.6 0-14.114 11.486-25.6 25.6-25.6z"/><path d="M503.467 153.6a8.53 8.53 0 0 0-8.533 8.533v264.533c0 37.641-30.626 68.267-68.267 68.267H85.333c-37.641 0-68.267-30.626-68.267-68.267V162.133c0-4.71-3.814-8.533-8.533-8.533S0 157.423 0 162.133v264.533C0 473.719 38.281 512 85.333 512h341.333C473.719 512 512 473.719 512 426.667V162.133a8.53 8.53 0 0 0-8.533-8.533z"/><path d="M92.16 440.542C76.706 428.766 51.2 404.941 51.2 384c0-4.71-3.814-8.533-8.533-8.533s-8.533 3.823-8.533 8.533c0 38.255 52.762 73.873 54.997 75.366a8.55 8.55 0 0 0 4.736 1.434c.555 0 1.118-.051 1.672-.171a8.507 8.507 0 0 0 5.427-3.627c.316-.478 32.324-47.403 95.3-47.403 63.514 0 96.068 31.343 96.367 31.633 1.638 1.638 3.959 2.654 6.212 2.483a8.573 8.573 0 0 0 6.11-2.748c.998-1.075 24.815-26.214 59.281-14.737 55.791 18.594 102.349-9.131 112.734-29.884 2.108-4.215.393-9.335-3.823-11.452-4.215-2.099-9.335-.393-11.452 3.823-5.888 11.776-40.764 35.285-86.229 22.989v-37.103c19.447-3.968 34.133-21.197 34.133-41.805 0-1.109-.495-110.933-42.667-110.933S324.267 331.691 324.267 332.8c0 20.608 14.686 37.837 34.133 41.805v32.623c-28.493-4.966-49.98 8.474-59.938 16.606-13.201-10.189-47.181-31.3-102.195-31.3-57.071-.001-91.529 33.143-104.107 48.008zM341.333 332.8c0-42.513 11.418-93.867 25.6-93.867s25.6 51.354 25.6 93.867c0 14.114-11.486 25.6-25.6 25.6s-25.6-11.486-25.6-25.6z"/></g></svg>