<svg data-name="Layer 1" xmlns="http://www.w3.org/2000/svg" viewBox="0 0 30 23.17"><title>air-conditioning</title><g class="cls-2"><path class="cls-3" d="M19 2.42a9.17 9.17 0 0 0-6.84 15.27.517.517 0 1 0 .77-.69 8.13 8.13 0 1 1 1.34 1.2.516.516 0 0 0-.6.84A9.17 9.17 0 1 0 19 2.42z"/><path class="cls-3" d="M24.46 0H2.09A2.09 2.09 0 0 0 0 2.09v14.36a.51.51 0 0 0 1 0V2.09a1.06 1.06 0 0 1 1.09-1.06h22.37a.51.51 0 0 0 0-1zm3.45 0h-1.66a.51.51 0 0 0 0 1h1.67A1.06 1.06 0 0 1 29 2.09v19a1.06 1.06 0 0 1-1.06 1.06H2.09A1.06 1.06 0 0 1 1 21.09v-2.93a.51.51 0 0 0-1 0v2.93a2.09 2.09 0 0 0 2.09 2.09h25.82A2.09 2.09 0 0 0 30 21.09v-19A2.09 2.09 0 0 0 27.91 0z"/><path class="cls-3" d="M24.93 8.91a3.3 3.3 0 0 0-3.15-.25l-1.58.7a2.52 2.52 0 0 0-.61-.24V4.65a.51.51 0 0 0-.51-.51 3.32 3.32 0 0 0-3 4.66l.7 1.58a2.52 2.52 0 0 0-.24.61H12a.52.52 0 0 0-.52.51 3.31 3.31 0 0 0 4.66 3l1.58-.7a2.52 2.52 0 0 0 .61.24v4.47a.51.51 0 0 0 .51.51 3.32 3.32 0 0 0 3-4.66l-.7-1.58a2.53 2.53 0 0 0 .24-.61h4.47a.51.51 0 0 0 .51-.51 3.31 3.31 0 0 0-1.43-2.75zm-9.16 4.68a2.29 2.29 0 0 1-3.15-1.57h3.85a2.56 2.56 0 0 0 .44 1.07zm1.39-7.38a2.28 2.28 0 0 1 1.4-1v3.85a2.55 2.55 0 0 0-1.07.44L17 8.38a2.28 2.28 0 0 1 .16-2.18zm1.76 6.9a1.5 1.5 0 0 1-.81-.28 1.52 1.52 0 0 1-.65-1.24v-.06a1.5 1.5 0 0 1 .28-.81 1.52 1.52 0 0 1 1.26-.65h.07a1.5 1.5 0 0 1 .81.28 1.52 1.52 0 0 1 .62 1.24v.06a1.51 1.51 0 0 1-.28.81 1.52 1.52 0 0 1-1.24.64zm1.88 3.87a2.28 2.28 0 0 1-1.4 1V14.1a2.56 2.56 0 0 0 1.07-.44L21 14.8a2.28 2.28 0 0 1-.2 2.18zm.69-5.8a2.56 2.56 0 0 0-.44-1.07l1.15-.52a2.29 2.29 0 0 1 3.15 1.58zM8.18 3.4H2.82a.51.51 0 0 0 0 1h5.36a.51.51 0 0 0 0-1zm0 7.68H2.82a.51.51 0 0 0 0 1h5.36a.51.51 0 0 0 0-1zm0 5.11H2.82a.51.51 0 0 0 0 1h5.36a.51.51 0 0 0 0-1zm0-2.6H2.82a.51.51 0 0 0 0 1h5.36a.51.51 0 0 0 0-1zm0 5.16H2.82a.51.51 0 1 0 0 1h5.36a.51.51 0 1 0 0-1zm0-10.23h-.59a.51.51 0 0 0 0 1h.58a.51.51 0 0 0 0-1zm-2.3 0H2.82a.51.51 0 0 0 0 1h3.06a.51.51 0 0 0 0-1zm2.3-2.56H2.82a.51.51 0 1 0 0 1h5.36a.51.51 0 1 0 0-1z"/></g></svg>