<svg data-name="Layer 1" xmlns="http://www.w3.org/2000/svg" viewBox="0 0 40.56 50"><title>apple-big-logo</title><path class="cls-1" d="M22.86 3.78A11.13 11.13 0 0 1 30.19 0a11 11 0 0 1-2.59 8 9.24 9.24 0 0 1-7.39 3.54 10.54 10.54 0 0 1 2.65-7.76zm14.25 40c-2.09 3-4.24 6.09-7.64 6.14s-4.4-2-8.21-2-5 1.93-8.16 2-5.77-3.21-7.82-6.25C1 37.47-2.26 26.13 2.13 18.48a12.16 12.16 0 0 1 10.3-6.27c3.21-.07 6.25 2.17 8.23 2.17s5.62-2.69 9.48-2.28a11.62 11.62 0 0 1 9.14 4.9 11.33 11.33 0 0 0-5.39 9.53 11 11 0 0 0 6.69 10.11 28.19 28.19 0 0 1-3.47 7.15z"/></svg>