<svg data-name="Layer 1" xmlns="http://www.w3.org/2000/svg" viewBox="0 0 60 48.75"><title>apple-tv</title><path class="cls-1" d="M39 35.81l-2.38-5.06a3.75 3.75 0 0 0-3.39-2.15H6.13a3.75 3.75 0 0 0-3.39 2.15L.36 35.81A3.75 3.75 0 0 0 0 37.38v8.64a2.71 2.71 0 0 0 2.71 2.71h34a2.71 2.71 0 0 0 2.71-2.71v-8.64a3.75 3.75 0 0 0-.42-1.57zm-37.81.4l2.38-5.06a2.82 2.82 0 0 1 2.54-1.61h27.14a2.82 2.82 0 0 1 2.54 1.61l2.38 5.06a2.82 2.82 0 0 1 .26 1 1.43 1.43 0 0 1-.24.65 1.33 1.33 0 0 1-1.11.6H2.3a1.33 1.33 0 0 1-1.11-.6 1.43 1.43 0 0 1-.24-.65 2.82 2.82 0 0 1 .26-1zm37.23 9.84a1.77 1.77 0 0 1-1.77 1.77h-34a1.77 1.77 0 0 1-1.71-1.78v-7.76a2 2 0 0 0 1.36.63h34.77a2 2 0 0 0 1.36-.63zM60 2.82A2.81 2.81 0 0 0 57.19.01h-9.38A2.81 2.81 0 0 0 45 2.82v43.12a2.81 2.81 0 0 0 2.81 2.81h9.38A2.81 2.81 0 0 0 60 45.94zm-.94 43.12a1.88 1.88 0 0 1-1.87 1.88h-9.38a1.88 1.88 0 0 1-1.87-1.87V21.1h13.12zm0-25.31H45.94V2.82A1.88 1.88 0 0 1 47.82.94h9.38a1.88 1.88 0 0 1 1.88 1.88z"/><path class="cls-1" d="M55.78 15a2.34 2.34 0 1 0 2.35 2.38A2.34 2.34 0 0 0 55.78 15zm0 4.22a1.88 1.88 0 1 1 1.88-1.84 1.88 1.88 0 0 1-1.88 1.84zM49.22 15a2.34 2.34 0 1 0 2.34 2.38A2.34 2.34 0 0 0 49.22 15zm0 4.22a1.88 1.88 0 1 1 1.87-1.84 1.88 1.88 0 0 1-1.87 1.84zm1.64-16.84h3.28a.235.235 0 1 0 0-.47h-3.28a.235.235 0 1 0 0 .47zm4.45 30a2.35 2.35 0 0 0 2.34-2.34v-5.66a2.34 2.34 0 1 0-4.65 0V30a2.35 2.35 0 0 0 2.31 2.38zm-1.87-8a1.88 1.88 0 0 1 3.75 0V30a1.88 1.88 0 0 1-3.75 0zm-4.22 8a2.34 2.34 0 1 0-2.34-2.34 2.34 2.34 0 0 0 2.34 2.34zm0-4.22a1.88 1.88 0 1 1-1.87 1.88 1.88 1.88 0 0 1 1.87-1.91zm0-1.44a2.34 2.34 0 1 0-2.34-2.34 2.34 2.34 0 0 0 2.34 2.34zm0-4.22a1.88 1.88 0 1 1-1.88 1.88 1.88 1.88 0 0 1 1.88-1.88z"/></svg>