<svg data-name="Layer 1" xmlns="http://www.w3.org/2000/svg" viewBox="0 0 25.52 30"><title>avatar</title><g class="cls-2"><path class="cls-3" d="M12.65 16.16h.2a5.73 5.73 0 0 0 4.38-1.89c2.39-2.7 2-7.32 2-7.76-.16-3.31-1.72-4.9-3-5.63a6.91 6.91 0 0 0-3.4-.88h-.07a6.92 6.92 0 0 0-3.34.85c-1.3.74-2.9 2.32-3.05 5.66 0 .44-.44 5.06 2 7.76a5.71 5.71 0 0 0 4.28 1.89zm-4.67-9.5c.2-4.45 3.37-4.93 4.72-4.93h.06c1.68 0 4.53.72 4.72 4.93s.44 4.27-1.53 6.49a4.07 4.07 0 0 1-3.19 1.34 4.06 4.06 0 0 1-3.19-1.33C7.56 10.95 7.98 6.7 7.99 6.67z"/><path class="cls-3" d="M25.52 23.83v-.16c0-1.23-.12-4.11-2.81-5h-.06a17.93 17.93 0 0 1-5.16-2.35.848.848 0 1 0-1 1.37 19.35 19.35 0 0 0 5.67 2.59c1.45.52 1.61 2.06 1.65 3.48a1.25 1.25 0 0 0 0 .16 11.27 11.27 0 0 1-.05 1.86 22.86 22.86 0 0 1-11 2.55 23 23 0 0 1-11-2.55 10.67 10.67 0 0 1-.13-1.92v-.16c0-1.42.21-3 1.65-3.48a19.53 19.53 0 0 0 5.67-2.59.848.848 0 0 0-1-1.37 17.73 17.73 0 0 1-5.16 2.35h-.06c-2.7.93-2.78 3.8-2.81 5a1.25 1.25 0 0 1 0 .16 9.53 9.53 0 0 0 .32 2.81.8.8 0 0 0 .32.39c.19.12 4.65 3 12.13 3s11.94-2.85 12.13-3a.83.83 0 0 0 .32-.39 10 10 0 0 0 .38-2.75z"/></g></svg>