<svg data-name="Layer 1" xmlns="http://www.w3.org/2000/svg" viewBox="0 0 30 30"><title>bluetooth</title><path class="cls-1" d="M20.47 19.31l-5.15-4.39 5.13-4.23a.84.84 0 0 0 0-1.29L15 4.87a.84.84 0 0 0-1.38.64v8l-3.47-3a.653.653 0 1 0-.84 1l4 3.37-3.95 3.28a.65.65 0 1 0 .82 1l3.48-2.87v8.2a.83.83 0 0 0 .48.76.84.84 0 0 0 .36.08.83.83 0 0 0 .54-.2l5.42-4.54a.84.84 0 0 0 0-1.28zM15 6.48L19.21 10 15 13.55zm0 17v-7.17l4.27 3.64z"/><path class="cls-1" d="M25.61 4.39A15.005 15.005 0 1 0 4.39 25.61 15.005 15.005 0 1 0 25.61 4.39zM15 28.71A13.71 13.71 0 1 1 28.71 15 13.73 13.73 0 0 1 15 28.71z"/></svg>