<svg data-name="Layer 1" xmlns="http://www.w3.org/2000/svg" viewBox="0 0 47.5 50"><title>charging</title><path class="cls-1" d="M19.92 24.64a.83.83 0 0 0-.75-.48h-3.92l3.05-11.45a.83.83 0 0 0-1.44-.71L5.19 26.14a.83.83 0 0 0 .64 1.36h3.92L6.7 39a.83.83 0 0 0 1.45.74l11.66-14.21a.83.83 0 0 0 .11-.89zm-10.63 11l2.35-8.8a.83.83 0 0 0-.81-1H7.6L15.75 16l-2.35 8.8a.83.83 0 0 0 .8 1h3.23zM17.5 0h-10a.83.83 0 0 0-.83.83v3.34A.83.83 0 0 0 7.5 5h10a.83.83 0 0 0 .83-.83V.83A.83.83 0 0 0 17.5 0zm-.83 3.33H8.33V1.67h8.33v1.66z"/><path class="cls-1" d="M21.81 3.33H3.19A3.2 3.2 0 0 0 0 6.53v40.28A3.2 3.2 0 0 0 3.19 50h18.62A3.2 3.2 0 0 0 25 46.81V6.53a3.2 3.2 0 0 0-3.19-3.2zm1.53 43.47a1.53 1.53 0 0 1-1.53 1.53H3.19a1.53 1.53 0 0 1-1.53-1.53V6.53A1.53 1.53 0 0 1 3.19 5h18.62a1.53 1.53 0 0 1 1.53 1.53v40.28zM34.17 0a2.5 2.5 0 0 0-2.5 2.5v6.67a.83.83 0 0 0 .83.83h3.33a.83.83 0 0 0 .83-.83V2.5A2.5 2.5 0 0 0 34.17 0zM35 8.33h-1.67V2.5a.835.835 0 1 1 1.67 0v5.83zM42.5 0A2.5 2.5 0 0 0 40 2.5v6.67a.83.83 0 0 0 .83.83h3.33a.83.83 0 0 0 .83-.83V2.5A2.5 2.5 0 0 0 42.5 0zm.83 8.33h-1.66V2.5a.835.835 0 1 1 1.67 0v5.83z"/><path class="cls-1" d="M46.67 8.33H30a.83.83 0 0 0-.83.83v3.34a.83.83 0 0 0 .83.83h16.67a.83.83 0 0 0 .83-.83V9.17a.83.83 0 0 0-.83-.84zm-.83 3.33h-15V10h15z"/><path class="cls-1" d="M45 11.67H31.67a.83.83 0 0 0-.83.83V20a3.34 3.34 0 0 0 3.33 3.33h8.33A3.34 3.34 0 0 0 45.83 20v-7.5a.83.83 0 0 0-.83-.83zM44.17 20a1.67 1.67 0 0 1-1.67 1.67h-8.33A1.67 1.67 0 0 1 32.5 20v-6.67h11.67z"/><path class="cls-1" d="M40 21.67h-3.33a.83.83 0 0 0-.83.83v1.67a2.5 2.5 0 0 0 5 0V22.5a.83.83 0 0 0-.84-.83zm-.83 2.5a.835.835 0 0 1-1.67 0v-.83h1.67v.83z"/><path class="cls-1" d="M38.33 25a.83.83 0 0 0-.83.83v18.34a3.335 3.335 0 1 1-6.67 0V25.83a6.67 6.67 0 0 0-6.67-6.67.835.835 0 0 0 0 1.67 5 5 0 0 1 5 5v18.34a5 5 0 0 0 10 0V25.83a.83.83 0 0 0-.83-.83z"/></svg>