<svg data-name="Layer 1" xmlns="http://www.w3.org/2000/svg" viewBox="0 0 22 30"><title>008-cloud-computing</title><g class="cls-2"><path class="cls-3" d="M22 9a4 4 0 0 0-4-4h-1.52a5.5 5.5 0 0 0-11 0H4a4 4 0 1 0 0 8h5.5v-1H4a3 3 0 1 1 0-6h2.5v-.5a4.5 4.5 0 0 1 9 0V6H18a3 3 0 1 1 0 6h-5.5v1H18a4 4 0 0 0 4-4z"/><path class="cls-3" d="M20 28.5V20a1.5 1.5 0 0 0-1.5-1.5h-1v-1.09a1.5 1.5 0 1 0-1.91-1.91H11.5V9.2l1.15 1.15.71-.71L11 7.29 8.65 9.64l.71.71L10.5 9.2v6.29H6.41a1.5 1.5 0 1 0-1.91 1.92V19h-3A1.5 1.5 0 0 0 0 20.5v6A1.5 1.5 0 0 0 1.5 28h3v1H3v1h4v-1H5.5v-1h3a1.5 1.5 0 0 0 1.5-1.5v-6A1.5 1.5 0 0 0 8.5 19h-3v-1.59a1.5 1.5 0 0 0 .91-.91h9.18a1.5 1.5 0 0 0 .91.91v1.09h-3A1.5 1.5 0 0 0 12 20v8.5a1.5 1.5 0 0 0 1.5 1.5h5a1.5 1.5 0 0 0 1.5-1.5zm-11-2a.5.5 0 0 1-.5.5h-7a.5.5 0 0 1-.5-.5v-1h8zM8.5 20a.5.5 0 0 1 .5.5v4H1v-4a.5.5 0 0 1 .5-.5zM5 16.5a.5.5 0 1 1 .5-.5.5.5 0 0 1-.5.5zm12-1a.5.5 0 1 1-.5.5.5.5 0 0 1 .5-.5zM13 20a.5.5 0 0 1 .5-.5h5a.5.5 0 0 1 .5.5v6.5h-6zm0 8.5v-1h6v1a.5.5 0 0 1-.5.5h-5a.5.5 0 0 1-.5-.5z"/></g></svg>