<svg data-name="Layer 1" xmlns="http://www.w3.org/2000/svg" viewBox="0 0 50 50"><title>cooler</title><path class="cls-1" d="M47.5 0h-45A2.5 2.5 0 0 0 0 2.5v45A2.5 2.5 0 0 0 2.5 50h45a2.5 2.5 0 0 0 2.5-2.5v-45A2.5 2.5 0 0 0 47.5 0zm.83 47.5a.83.83 0 0 1-.83.83h-45a.83.83 0 0 1-.83-.83v-45a.83.83 0 0 1 .83-.83h45a.83.83 0 0 1 .83.83z"/><path class="cls-1" d="M5 7.5A2.5 2.5 0 1 0 2.5 5 2.5 2.5 0 0 0 5 7.5zm0-3.33a.83.83 0 1 1-.83.83.83.83 0 0 1 .83-.83zM45 2.5A2.5 2.5 0 1 0 47.5 5 2.5 2.5 0 0 0 45 2.5zm0 3.33a.83.83 0 1 1 .83-.83.83.83 0 0 1-.83.83zM5 42.5A2.5 2.5 0 1 0 7.5 45 2.5 2.5 0 0 0 5 42.5zm0 3.33a.83.83 0 1 1 .83-.83.83.83 0 0 1-.83.83zm40-3.33a2.5 2.5 0 1 0 2.5 2.5 2.5 2.5 0 0 0-2.5-2.5zm0 3.33a.83.83 0 1 1 .83-.83.83.83 0 0 1-.83.83zM25 2.5A22.5 22.5 0 1 0 47.5 25 22.5 22.5 0 0 0 25 2.5zm0 43.33A20.83 20.83 0 1 1 45.83 25 20.83 20.83 0 0 1 25 45.83z"/><path class="cls-1" d="M34.46 8.77A2.48 2.48 0 0 0 32.63 10l-4.53 8.18-.46-.18 2.56-9a2.5 2.5 0 0 0-2.41-3.19h-5.58A2.5 2.5 0 0 0 19.8 9l2.56 9-.47.19L17.37 10a2.5 2.5 0 0 0-4-.55l-3.9 3.97a2.5 2.5 0 0 0 .55 4l8.15 4.53c-.07.15-.13.31-.19.47L9 19.81a2.5 2.5 0 0 0-3.19 2.4v5.58A2.49 2.49 0 0 0 9 30.19l9-2.56c.06.16.12.31.19.47L10 32.63a2.5 2.5 0 0 0-.55 4l3.94 3.95a2.48 2.48 0 0 0 1.76.73h.36A2.48 2.48 0 0 0 17.37 40l4.53-8.15.47.19-2.55 9a2.5 2.5 0 0 0 2.4 3.19h5.58A2.5 2.5 0 0 0 30.2 41l-2.56-9 .47-.19L32.63 40a2.48 2.48 0 0 0 1.83 1.26h.35a2.48 2.48 0 0 0 1.76-.73l3.95-3.94a2.5 2.5 0 0 0-.55-4l-8.15-4.49c.07-.15.13-.31.19-.47l9 2.56a2.49 2.49 0 0 0 3.19-2.4v-5.58a2.5 2.5 0 0 0-3.2-2.4l-9 2.56c-.06-.16-.12-.31-.19-.47L40 17.37a2.5 2.5 0 0 0 .55-4l-3.97-3.9a2.47 2.47 0 0 0-2.12-.7zM25 30.83A5.83 5.83 0 1 1 30.83 25 5.83 5.83 0 0 1 25 30.83zM24 17.5l-2.59-8.94a.83.83 0 0 1 .8-1.06h5.58a.83.83 0 0 1 .8 1.06L26 17.5zm-13.58-2.2a.83.83 0 0 1 .24-.71l3.95-3.95a.82.82 0 0 1 .58-.24h.12a.83.83 0 0 1 .61.42L20.43 19 19 20.43l-8.13-4.51a.83.83 0 0 1-.45-.62zM17.5 26l-8.94 2.59a.83.83 0 0 1-1.06-.8v-5.58a.83.83 0 0 1 .83-.83.86.86 0 0 1 .23 0L17.5 24zm-1.58 13.17a.83.83 0 0 1-1.32.18l-3.95-3.95a.83.83 0 0 1 .18-1.32L19 29.57 20.43 31zM26 32.5l2.55 8.94a.83.83 0 0 1-.8 1.06h-5.54a.83.83 0 0 1-.8-1.06L24 32.5zm13.54 2.2a.83.83 0 0 1-.24.71l-3.9 3.94a.82.82 0 0 1-.71.24.83.83 0 0 1-.61-.42L29.57 31 31 29.57l8.13 4.51a.83.83 0 0 1 .45.62zM32.5 24l8.94-2.55a.83.83 0 0 1 1.06.8v5.58a.83.83 0 0 1-1.06.8L32.5 26zm7.08-8.66a.83.83 0 0 1-.42.61L31 20.43 29.57 19l4.51-8.13a.83.83 0 0 1 1.32-.18l3.95 3.95a.83.83 0 0 1 .23.66z"/></svg>