<svg data-name="Layer 1" xmlns="http://www.w3.org/2000/svg" viewBox="0 0 30 30"><title>fan</title><path class="cls-1" d="M27.66 2.93a.59.59 0 1 1-.59-.59.59.59 0 0 1 .59.59zm0 24.14a.59.59 0 1 1-.59-.59.59.59 0 0 1 .59.59zM15 3.87a.59.59 0 0 0 .59-.57.59.59 0 1 0-1.17 0 .59.59 0 0 0 .58.57zM3.52 2.93a.59.59 0 1 1-.59-.59.59.59 0 0 1 .59.59zm0 24.14a.59.59 0 1 1-.59-.59.59.59 0 0 1 .59.59z"/><path class="cls-1" d="M28.24 0H1.76A1.76 1.76 0 0 0 0 1.76v26.48A1.76 1.76 0 0 0 1.76 30h26.48A1.76 1.76 0 0 0 30 28.24V1.76A1.76 1.76 0 0 0 28.24 0zm.59 28.24a.59.59 0 0 1-.59.59H1.76a.59.59 0 0 1-.59-.59V1.76a.59.59 0 0 1 .59-.59h26.48a.59.59 0 0 1 .59.59z"/><path class="cls-1" d="M17.93 8a2.93 2.93 0 0 0-5.86 0c0 .85.24 1.05 1.42 4.52a2.91 2.91 0 0 0-1 1C9.1 12.34 8.82 12.07 8 12.07a2.93 2.93 0 0 0 0 5.86c.85 0 1.05-.24 4.52-1.42a2.91 2.91 0 0 0 1 1c-1.15 3.39-1.42 3.67-1.42 4.52a2.93 2.93 0 0 0 5.86 0c0-.85-.24-1.05-1.42-4.52a2.91 2.91 0 0 0 1-1c3.39 1.15 3.67 1.42 4.52 1.42a2.93 2.93 0 0 0 0-5.86c-.85 0-1.05.24-4.52 1.42a2.91 2.91 0 0 0-1-1C17.66 9.1 17.93 8.82 17.93 8zm-1.17 7A1.76 1.76 0 1 1 15 13.24 1.76 1.76 0 0 1 16.76 15zM8 16.76a1.76 1.76 0 1 1 0-3.52c.53 0 .53.11 4.13 1.35a2.92 2.92 0 0 0 0 .81C8.49 16.65 8.49 16.76 8 16.76zM16.76 22a1.76 1.76 0 1 1-3.52 0c0-.53.11-.53 1.35-4.13h.8c1.26 3.64 1.37 3.64 1.37 4.13zM22 13.24a1.76 1.76 0 1 1 0 3.52c-.53 0-.53-.11-4.13-1.35a2.92 2.92 0 0 0 0-.81c3.64-1.25 3.64-1.36 4.13-1.36zm-6.6-1.14h-.8c-1.25-3.61-1.36-3.61-1.36-4.1a1.76 1.76 0 1 1 3.52 0c0 .49-.11.5-1.36 4.1z"/><path class="cls-1" d="M17.46 2.94a.59.59 0 1 0-.25 1.15 11.13 11.13 0 1 1-4.42 0 .59.59 0 1 0-.25-1.15 12.31 12.31 0 1 0 4.91 0z"/></svg>