<svg data-name="Layer 1" xmlns="http://www.w3.org/2000/svg" viewBox="0 0 19.17 25"><title>location-pin</title><g class="cls-2"><path class="cls-3" d="M9.58 0A9.59 9.59 0 0 0 0 9.58c0 5.17 8.9 14.87 9.28 15.28a.42.42 0 0 0 .61 0c.38-.41 9.28-10.12 9.28-15.28A9.59 9.59 0 0 0 9.58 0zm0 24C8 22.23.83 14 .83 9.62a8.75 8.75 0 0 1 17.5 0c0 4.29-7.17 12.57-8.75 14.34z"/><path class="cls-3" d="M9.58 5.83a3.75 3.75 0 1 0 3.75 3.75 3.75 3.75 0 0 0-3.75-3.75zm0 6.67a2.92 2.92 0 1 1 2.92-2.92 2.92 2.92 0 0 1-2.92 2.92z"/></g></svg>