<svg data-name="Layer 1" xmlns="http://www.w3.org/2000/svg" viewBox="0 0 50 29.69"><title>macbook2</title><path class="cls-1" d="M45.31 26.56V2.34A2.35 2.35 0 0 0 43 0H7a2.35 2.35 0 0 0-2.31 2.34v24.22H0v1.56a1.57 1.57 0 0 0 1.56 1.56h46.88A1.57 1.57 0 0 0 50 28.12v-1.56zM5.47 2.34A1.56 1.56 0 0 1 7 .78h36a1.56 1.56 0 0 1 1.56 1.56v24.22H5.47zm43.75 25.78a.78.78 0 0 1-.78.78H1.56a.78.78 0 0 1-.78-.78v-.78h21.1a.78.78 0 0 0 .78.78h4.69a.78.78 0 0 0 .78-.78h21.09z"/><path class="cls-1" d="M42.58 1.56H7.42a1.17 1.17 0 0 0-1.17 1.17v21.88a1.17 1.17 0 0 0 1.17 1.17h35.16a1.17 1.17 0 0 0 1.17-1.17V2.73a1.17 1.17 0 0 0-1.17-1.17zm.78 23a.78.78 0 0 1-.78.78H7.42a.78.78 0 0 1-.78-.78V2.73a.78.78 0 0 1 .78-.78h35.16a.78.78 0 0 1 .78.78z"/></svg>