<svg data-name="Layer 1" xmlns="http://www.w3.org/2000/svg" viewBox="0 0 30 30"><title>mute</title><g class="cls-2"><path class="cls-3" d="M25.59 7.08a.61.61 0 0 0-.12.85A11.83 11.83 0 0 1 16 26.83.61.61 0 1 0 16 28 13 13 0 0 0 26.44 7.21a.61.61 0 0 0-.85-.13zM16 3.17A11.79 11.79 0 0 1 22.3 5a.61.61 0 1 0 .7-1 13 13 0 0 0-7-2 .61.61 0 1 0 0 1.22z"/><path class="cls-3" d="M29.82.18a.61.61 0 0 0-.86 0l-8 8a8.43 8.43 0 0 0-5-1.64.61.61 0 1 0 0 1.22A7.21 7.21 0 0 1 20.1 9l-2.27 2.3a4.11 4.11 0 0 0-1.83-.44.61.61 0 1 0 0 1.22 2.9 2.9 0 0 1 .93.15l-9.12 9.09-.94-.94a.61.61 0 0 0-.43-.18H1.22V9.79h5.22a.61.61 0 0 0 .43-.18L12.46 4v9.85a.61.61 0 0 0 1.22 0V2.56a.61.61 0 0 0-1-.43L6.19 8.57H.61a.61.61 0 0 0-.61.61v11.64a.61.61 0 0 0 .61.61h5.58l.76.76L.18 29a.61.61 0 0 0 .86.86L7.81 23l4.83 4.82a.61.61 0 0 0 1-.43v-7.51a.61.61 0 1 0-1.22 0V26l-3.74-3.81 9.3-9.3a2.91 2.91 0 0 1-2 5 .61.61 0 1 0 0 1.22A4.13 4.13 0 0 0 18.84 12L21 9.82a7.25 7.25 0 0 1-5 12.43.61.61 0 1 0 0 1.22A8.47 8.47 0 0 0 21.91 9l7.91-8a.61.61 0 0 0 0-.82z"/></g></svg>