<svg data-name="Layer 1" xmlns="http://www.w3.org/2000/svg" viewBox="0 0 22 22"><title>phone-call</title><g class="cls-2"><path class="cls-3" d="M22 18.11a1.69 1.69 0 0 0-.84-1.25l-5.43-3.12a1.7 1.7 0 0 0-2.05.27l-1.08 1.06a.78.78 0 0 1-1 .06 30.92 30.92 0 0 1-2.47-2.22 30.92 30.92 0 0 1-2.22-2.47.78.78 0 0 1 .06-1L8 8.33a1.7 1.7 0 0 0 .27-2.05L5.14.85A1.7 1.7 0 0 0 2.47.5L.86 2.11C-.27 3.23-.28 5.29.81 7.9a25.58 25.58 0 0 0 5.51 7.78 25.58 25.58 0 0 0 7.78 5.51 9.07 9.07 0 0 0 3.41.81 3.25 3.25 0 0 0 2.38-.86l1.61-1.61a1.69 1.69 0 0 0 .5-1.42zm-6.62-3.76l5.43 3.12a1 1 0 0 1 .3 1.44l-7.23-4.11.29-.29a1 1 0 0 1 1.2-.16zM3.8.72a1 1 0 0 1 .73.49l3.12 5.42a1 1 0 0 1-.16 1.19l-.27.27L3.09.91a1 1 0 0 1 .58-.2zm15.59 19.92c-.89.89-2.72.86-5-.1a24.86 24.86 0 0 1-7.55-5.36 24.86 24.86 0 0 1-5.38-7.56c-1-2.29-1-4.12-.1-5l1.2-1.2 4.14 7.2-.28.28a1.5 1.5 0 0 0-.11 2 31.61 31.61 0 0 0 2.27 2.52 31.62 31.62 0 0 0 2.52 2.27 1.5 1.5 0 0 0 2-.11l.25-.25 7.22 4.12z"/></g></svg>