<svg data-name="Layer 1" xmlns="http://www.w3.org/2000/svg" viewBox="0 0 30 30"><title>power-button</title><path class="cls-1" d="M15 30a15 15 0 1 1 15-15 15 15 0 0 1-15 15zm0-28.24A13.24 13.24 0 1 0 28.24 15 13.26 13.26 0 0 0 15 1.76z"/><path class="cls-1" d="M15 13.05a.88.88 0 0 1-.88-.88v-4.7a.88.88 0 1 1 1.76 0v4.71a.88.88 0 0 1-.88.87z"/><path class="cls-1" d="M15 23.41A8.41 8.41 0 0 1 9.05 9.05a.884.884 0 0 1 1.25 1.25 6.65 6.65 0 1 0 9.41 0 .88.88 0 0 1 1.24-1.24A8.41 8.41 0 0 1 15 23.41z"/></svg>