<svg data-name="Layer 1" xmlns="http://www.w3.org/2000/svg" viewBox="0 0 30 23.67"><title>television</title><g class="cls-2"><path class="cls-3" d="M23.09 17.52a.59.59 0 1 0 .17.41.59.59 0 0 0-.17-.41z"/><path class="cls-3" d="M28.24 0h-18.1a.59.59 0 1 0 0 1.17H22L20.94 6.6a.59.59 0 0 0 .8.65l2.47-1-1.9 2.71a.59.59 0 0 0 .09.78l2.4 2.1-3.2-.5a.59.59 0 0 0-.54.2l-1.67 2-.3-2.68a.59.59 0 0 0-.58-.52h-2.6l2.54-1.63a.59.59 0 0 0 .2-.78l-1.32-2.44 1.4.54a.59.59 0 0 0 .42-1.09l-2.89-1.1a.59.59 0 0 0-.72.83l1.82 3.3-3.77 2.43a.59.59 0 0 0 .32 1.08H18l.39 3.5a.59.59 0 0 0 .41.5h.17a.59.59 0 0 0 .45-.21l2.33-2.74 4.87.76a.59.59 0 0 0 .48-1l-3.53-3.08 2.77-4a.59.59 0 0 0-.71-.88L22.3 5.74l.9-4.57h5a.59.59 0 0 1 .59.59v15a.59.59 0 0 1-.59.59h-3a.59.59 0 1 0 0 1.17h3a1.76 1.76 0 0 0 1.8-1.76v-15A1.76 1.76 0 0 0 28.24 0zM7.81.18A.59.59 0 1 0 8 .59a.59.59 0 0 0-.19-.41z"/><path class="cls-3" d="M20.08 22.19l-2.71-1.76v-1.91h2.49a.59.59 0 0 0 0-1.17H1.76a.59.59 0 0 1-.59-.59v-15a.59.59 0 0 1 .59-.59h2.75a.59.59 0 0 0 0-1.17H1.76A1.76 1.76 0 0 0 0 1.76v15a1.76 1.76 0 0 0 1.76 1.76h10.87v1.91l-2.71 1.76a.81.81 0 0 0 .44 1.48h9.29a.81.81 0 0 0 .44-1.48zm-8.5.31l1.95-1.27a.59.59 0 0 0 .27-.49v-2.22h2.4v2.23a.59.59 0 0 0 .27.49l1.95 1.27z"/></g></svg>