<svg data-name="Layer 1" xmlns="http://www.w3.org/2000/svg" viewBox="0 0 30 30"><title>usb</title><path class="cls-1" d="M25.81 11.86L30 7.67 22.32 0l-4.18 4.19-.7-.7a.49.49 0 0 0-.7 0L4.88 15.35a1.48 1.48 0 0 0 0 2.09l1.4 1.4-1 1a1.48 1.48 0 0 0 0 2.09l.35.35L0 27.91 2.09 30l5.58-5.58.35.35a1.48 1.48 0 0 0 2.09 0l1-1 1.4 1.4a1.48 1.48 0 0 0 2.09 0l11.91-11.91a.49.49 0 0 0 0-.7zM22.32 1.4l6.28 6.27-3.49 3.49-6.27-6.28zM2.09 28.6l-.7-.7L6.28 23l.7.7zm7.33-4.53a.5.5 0 0 1-.7 0l-.35-.35-2.44-2.44a.49.49 0 0 1 0-.7l1-1L10.46 23zm4.54.35a.49.49 0 0 1-.7 0l-7.68-7.68a.49.49 0 0 1 0-.7l11.51-11.5 8.37 8.37z"/><path class="cls-1" d="M22 2.44l-2.12 2.1L22 6.63l2.09-2.09zm-.7 2.09l.7-.7.7.7-.7.7zM27.56 8l-2.1-2.07L23.37 8l2.09 2.09zm-2.09-.7l.7.7-.7.7-.7-.7zm-12.59 9.12v-2l1.3-1.3h.18a1 1 0 1 0-.93-.66l-1.53 1.59v3.35l-.73.74a1 1 0 1 0 .7.7l1.72-1.72H17l1.44-1.44.36.36 1.4-1.4-1.4-1.4-1.4 1.4.33.33-1.14 1.15h-2.02l4.27-4.27.86.86.88-3.3-3.3.88.86.86z"/></svg>