<svg data-name="Layer 1" xmlns="http://www.w3.org/2000/svg" viewBox="0 0 50 50"><title>water-bottle</title><g class="cls-2"><path class="cls-3" d="M37 21.28a1 1 0 1 0 0 1.38 1 1 0 0 0 0-1.38z"/><path class="cls-3" d="M49.14 6.38L43.61.86a2.93 2.93 0 0 0-4.14 0L37.7 2.63a2.92 2.92 0 0 0-.79 2.72l-8 1.41a8.75 8.75 0 0 0-4.69 2.44l-1.71 1.71a4.88 4.88 0 0 0-1.38 4.14 4.88 4.88 0 0 0-5.53 5.52 4.88 4.88 0 0 0-5.52 5.53 4.88 4.88 0 0 0-4.14 1.38L2 31.42a6.85 6.85 0 0 0 0 9.67L8.9 48a6.85 6.85 0 0 0 9.67 0l3.93-3.93a4.88 4.88 0 0 0 1.38-4.14 4.88 4.88 0 0 0 5.52-5.52 4.88 4.88 0 0 0 5.52-5.52 4.86 4.86 0 0 0 4.15-1.38l1.71-1.71a8.75 8.75 0 0 0 2.44-4.69l1.41-8a2.92 2.92 0 0 0 2.72-.79l1.77-1.77a2.93 2.93 0 0 0 .02-4.17zm-28 36.3l-3.93 3.93a4.89 4.89 0 0 1-6.91 0l-6.91-6.9a4.89 4.89 0 0 1 0-6.91l3.93-3.93a2.93 2.93 0 0 1 4.14 0l9.67 9.67a2.93 2.93 0 0 1-.01 4.14zm5.52-5.52a2.93 2.93 0 0 1-4.14 0l-9.67-9.67A2.931 2.931 0 0 1 17 23.35L26.65 33a2.93 2.93 0 0 1 0 4.16zm5.52-5.52a2.93 2.93 0 0 1-4.14 0L18.36 22a2.93 2.93 0 0 1 4.14-4.14l9.67 9.67a2.93 2.93 0 0 1 0 4.1zm9.13-10.88a6.8 6.8 0 0 1-1.9 3.65l-1.71 1.7a2.93 2.93 0 0 1-4.14 0l-9.67-9.67a2.93 2.93 0 0 1 0-4.14l1.71-1.71a6.8 6.8 0 0 1 3.64-1.9l8.81-1.56 4.81 4.81zm6.45-11.61L46 10.92a1 1 0 0 1-1.38 0l-5.54-5.53a1 1 0 0 1 0-1.38l1.77-1.77a1 1 0 0 1 1.38 0l5.52 5.52a1 1 0 0 1 .01 1.39zM49.36 37L45 28.46a1 1 0 0 0-1.74 0L38.91 37a5.86 5.86 0 1 0 10.44 0zm-5.22 6.57a3.91 3.91 0 0 1-3.48-5.68l3.48-6.82 3.48 6.82a3.91 3.91 0 0 1-3.48 5.67z"/><path class="cls-3" d="M34.24 18.51l-4.71-4.71a1 1 0 0 0-1.38 1.38l4.71 4.71a1 1 0 0 0 1.38-1.38z"/></g></svg>