<svg data-name="Layer 1" xmlns="http://www.w3.org/2000/svg" viewBox="0 0 30 30"><title>wifi</title><path class="cls-1" d="M3.37 30a3.37 3.37 0 1 1 3.37-3.37A3.38 3.38 0 0 1 3.37 30zm0-5A1.6 1.6 0 1 0 5 26.63 1.6 1.6 0 0 0 3.37 25zm25.74 2.51a.89.89 0 0 1-.89-.89A24.88 24.88 0 0 0 3.37 1.77a.89.89 0 1 1 0-1.77A26.66 26.66 0 0 1 30 26.63a.89.89 0 0 1-.89.88z"/><path class="cls-1" d="M23.52 27.51a.89.89 0 0 1-.89-.89A19.28 19.28 0 0 0 3.37 7.37a.89.89 0 0 1 0-1.78 21.06 21.06 0 0 1 21 21 .89.89 0 0 1-.85.92z"/><path class="cls-1" d="M17.93 27.51a.89.89 0 0 1-.89-.89A13.68 13.68 0 0 0 3.37 13a.89.89 0 0 1 0-1.78 15.46 15.46 0 0 1 15.45 15.41.89.89 0 0 1-.89.88z"/><path class="cls-1" d="M11.72 27.51a.89.89 0 0 1-.89-.89 7.46 7.46 0 0 0-7.46-7.46.89.89 0 0 1 0-1.78 9.24 9.24 0 0 1 9.23 9.23.89.89 0 0 1-.88.9z"/></svg>