<svg data-name="Layer 1" xmlns="http://www.w3.org/2000/svg" viewBox="0 0 30 29.99"><title>worldwide</title><g class="cls-2"><path class="cls-3" d="M15-.01a15 15 0 1 0 0 30 15 15 0 1 0 0-30zm12.87 9.5h-6.63a19.54 19.54 0 0 0-1.61-4h5.64a14 14 0 0 1 2.6 4zM15 1.16a17.4 17.4 0 0 1 2.87 3.34h-5.74A17.39 17.39 0 0 1 15 1.16zM10.94 4.5H5.76a13.94 13.94 0 0 1 7.89-3.43 18.66 18.66 0 0 0-2.71 3.43zm5.42-3.43a13.94 13.94 0 0 1 7.89 3.43h-5.19a18.65 18.65 0 0 0-2.71-3.44zm2.13 4.42a18.56 18.56 0 0 1 1.73 4H9.8a18.5 18.5 0 0 1 1.72-4zm-13.76 0h5.64a19.51 19.51 0 0 0-1.6 4H2.13a14 14 0 0 1 2.6-4zm-3 5h26.5a13.94 13.94 0 0 1 0 9H1.75a13.94 13.94 0 0 1 0-9zM15 28.83a17.38 17.38 0 0 1-2.86-3.34h5.73A17.39 17.39 0 0 1 15 28.83zm4.07-3.34h5.18a13.94 13.94 0 0 1-7.9 3.43 18.65 18.65 0 0 0 2.71-3.43zm-5.42 3.43a13.94 13.94 0 0 1-7.89-3.43h5.18a18.66 18.66 0 0 0 2.71 3.43zm-2.13-4.43a18.49 18.49 0 0 1-1.72-4h10.41a18.56 18.56 0 0 1-1.73 4zm-9.38-4h6.63a19.51 19.51 0 0 0 1.6 4H4.73a14 14 0 0 1-2.6-4zm23.14 4h-5.65a19.53 19.53 0 0 0 1.61-4h6.63a14 14 0 0 1-2.6 4z"/><path class="cls-3" d="M4 17.62a.5.5 0 0 0 .5.37.5.5 0 0 0 .5-.35l1-3.4 1 3.4a.5.5 0 0 0 .5.35.5.5 0 0 0 .5-.37l1.5-5.5-1-.26-1 3.81-1-3.33a.5.5 0 0 0-1 0l-1 3.33-1-3.81-1 .26zm9.5.37a.5.5 0 0 0 .48-.36l1-3.4 1 3.4a.5.5 0 0 0 .48.36.5.5 0 0 0 .48-.37l1.5-5.5-1-.26-1 3.81-1-3.33a.5.5 0 0 0-1 0l-1 3.33-1-3.81-1 .26 1.5 5.5a.5.5 0 0 0 .56.37zm9 0a.5.5 0 0 0 .48-.36l1-3.4 1 3.4a.5.5 0 0 0 .48.36.5.5 0 0 0 .48-.37l1.5-5.5-1-.26-1 3.81-1-3.33a.5.5 0 0 0-1 0l-1 3.33-1-3.81-1 .26 1.5 5.5a.5.5 0 0 0 .56.37z"/></g></svg>