<svg id="Layer_1" data-name="Layer 1" xmlns="http://www.w3.org/2000/svg" viewBox="0 0 501.74 512"><defs><style>.cls-1{fill:#fe841a}.cls-2{fill:#ffe368}.cls-3{fill:#ad4a38}.cls-4{fill:#f63e31}</style></defs><title>logo</title><path class="cls-1" d="M147.15 29.17l14.71 25.48h188.3l14.69-25.44a217.6 217.6 0 0 0-217.7-.04zM114 48.33A217.61 217.61 0 0 0 5.13 236.85h29.46l94.14-163zm-79.41 226.8H5.16A217.6 217.6 0 0 0 114 463.69l14.73-25.5zm315.55 182.23h-188.3l-14.69 25.45a217.6 217.6 0 0 0 217.71 0zm127.27-182.21l-94.14 163L398 463.67a217.6 217.6 0 0 0 108.87-188.52zM398 48.31l-14.73 25.5 94.12 163.06h29.42A217.6 217.6 0 0 0 398 48.31z" transform="translate(-5.13)"/><path class="cls-2" d="M350.16 54.65a222.63 222.63 0 0 0-188.31 0L256 217.73zM128.72 73.81a222 222 0 0 0-94.14 163h188.27zM34.59 275.13a222 222 0 0 0 94.12 163.05l94.14-163zm127.25 182.22a222.63 222.63 0 0 0 188.31 0L256 294.27zm315.57-182.2H289.15l94.13 163.06a222.05 222.05 0 0 0 94.13-163.06zm0-38.28a222 222 0 0 0-94.12-163.05l-94.14 163z" transform="translate(-5.13)"/><circle class="cls-3" cx="250.87" cy="140.02" r="8.44"/><circle class="cls-3" cx="68.31" cy="206.72" r="8.44"/><circle class="cls-3" cx="142.01" cy="205.6" r="8.44"/><circle class="cls-3" cx="154.95" cy="324.37" r="8.44"/><circle class="cls-3" cx="245.81" cy="363.54" r="8.44"/><circle class="cls-3" cx="345.05" cy="311.55" r="8.44"/><circle class="cls-3" cx="384.89" cy="388.86" r="8.44"/><circle class="cls-3" cx="384.89" cy="122.44" r="8.44"/><circle class="cls-4" cx="250.87" cy="88.32" r="20.57"/><circle class="cls-4" cx="105.66" cy="172.15" r="20.57"/><circle class="cls-4" cx="105.66" cy="339.84" r="20.57"/><circle class="cls-4" cx="250.87" cy="423.68" r="20.57"/><circle class="cls-4" cx="396.09" cy="339.84" r="20.57"/><circle class="cls-4" cx="396.09" cy="172.15" r="20.57"/></svg>