<svg id="Layer_1" data-name="Layer 1" xmlns="http://www.w3.org/2000/svg" viewBox="0 0 50 50"><defs><style>.cls-1{fill:url(#linear-gradient)}.cls-2{fill:#fff}</style><linearGradient id="linear-gradient" y1="23.75" x2="50" y2="23.75" gradientTransform="matrix(1 0 0 -1 0 48.75)" gradientUnits="userSpaceOnUse"><stop offset="0" stop-color="#00f38d"/><stop offset="1" stop-color="#009eff"/></linearGradient></defs><title>checklist</title><path class="cls-1" d="M50 25A25 25 0 1 1 25 0a25 25 0 0 1 25 25z"/><path class="cls-2" d="M22.63 23.72h6.45v2.93h-6.45zm0-7.3h6.45v2.93h-6.45zm-2.56 4.88l-2.81 3.19L16 23.27l-2 2.13 3.5 3.29 4.81-5.45zM16 30.57l-2 2.14L17.46 36l4.81-5.45-2.2-1.94-2.81 3.19zm4.07-16.64l-2.81 3.19L16 15.9 14 18l3.5 3.29 4.81-5.46zm15.15 10.21l-8.35 8.59a4.56 4.56 0 0 0-1.09 1.77v.07l-1.41 6.19 6.21-1.39h.07a4.56 4.56 0 0 0 1.78-1.1l8.35-8.59zm-4.85 12L29 34.75l6.27-6.45 1.39 1.38z"/><path class="cls-2" d="M11.68 36.75V12.89a1.22 1.22 0 0 1 1.22-1.22h17.4a1.22 1.22 0 0 1 1.22 1.22v11.93l2.43-2.5v-9.43a3.66 3.66 0 0 0-3.65-3.65H12.89a3.66 3.66 0 0 0-3.65 3.65v23.86a3.66 3.66 0 0 0 3.65 3.65h9.29l.56-2.4h-9.85a1.22 1.22 0 0 1-1.21-1.25z"/></svg>