<svg id="Layer_1" data-name="Layer 1" xmlns="http://www.w3.org/2000/svg" viewBox="0 0 53.23 53.63"><defs><style>.cls-1{fill:#0eabc7}.cls-2{fill:#ff1f6b}</style></defs><title>hospital</title><path class="cls-1" d="M23.79 20.67a.79.79 0 0 1 1.53.2l1.26 14.7 2.36-8.49a.79.79 0 0 1 1.53 0l1.31 5.69L34 23.39a.79.79 0 0 1 1.55.07l1.67 11.92L38 33a.79.79 0 0 1 .75-.55h17.71v-4.11a6.79 6.79 0 0 0-6.79-6.79H38.9V10.79A6.78 6.78 0 0 0 32.12 4h-4.54a6.79 6.79 0 0 0-6.79 6.79v10.77H10a6.79 6.79 0 0 0-6.78 6.79v4.15h16.33z" transform="translate(-3.24 -4)"/><path class="cls-2" d="M37.69 39.62a.79.79 0 0 1-1.53-.12l-1.58-11.28-2.05 8.62a.79.79 0 0 1-.77.61.79.79 0 0 1-.76-.61l-1.37-5.95-2.7 9.72a.79.79 0 0 1-.76.58h-.07a.79.79 0 0 1-.71-.72L24.06 25l-3.21 8.95a.79.79 0 0 1-.74.52H3.34a6.79 6.79 0 0 0 6.66 5.6h10.79v10.78a6.79 6.79 0 0 0 6.79 6.79h4.54a6.79 6.79 0 0 0 6.79-6.79V40.07h10.77a6.79 6.79 0 0 0 6.7-5.69H39.31z" transform="translate(-3.24 -4)"/></svg>