<svg xmlns="http://www.w3.org/2000/svg" viewBox="0 0 512 512"><path d="M414.897 203.034c0-87.755-71.142-158.897-158.897-158.897S97.103 115.279 97.103 203.034 168.245 361.931 256 361.931s158.897-71.141 158.897-158.897" fill="#f0c419"/><path d="M256 44.138c36.608 0 70.232 12.509 97.103 33.315V0H158.897v77.453C185.768 56.647 219.392 44.138 256 44.138m0 317.793c-36.608 0-70.232-12.509-97.103-33.315V512L256 414.897 353.103 512V328.616c-26.871 20.806-60.495 33.315-97.103 33.315" fill="#e64c3c"/><path fill="#ffe69f" d="M256 88.276l33.827 68.202 72.104 11.246-51.2 53.098 15.89 70.488L256 260.582l-70.621 30.728 15.89-70.488-51.2-53.098 72.104-11.246z"/></svg>