<svg data-name="Layer 1" xmlns="http://www.w3.org/2000/svg" viewBox="0 0 50 50"><title>cancel</title><path class="cls-1" d="M42.68 7.32A25.003 25.003 0 1 0 7.32 42.68 25.003 25.003 0 1 0 42.68 7.32zm-2 33.34A22.16 22.16 0 0 1 9.33 9.33a22.16 22.16 0 0 1 31.34 31.34z"/><path class="cls-1" d="M36 14a1.42 1.42 0 0 0-2 0l-9 9-9-9a1.42 1.42 0 0 0-2 2l9 9-9 9a1.43 1.43 0 0 0 1 2.43 1.39 1.39 0 0 0 1-.43l9-9 9 9a1.43 1.43 0 0 0 1 .42 1.37 1.37 0 0 0 1-.42 1.42 1.42 0 0 0 0-2l-9-9 9-9a1.42 1.42 0 0 0 0-2z"/></svg>