<svg data-name="Layer 1" xmlns="http://www.w3.org/2000/svg" viewBox="0 0 30 30"><title>clock</title><path d="M9.5 15.5h3.57a2 2 0 1 0 2.43-2.43V8a.5.5 0 0 0-1 0v5.07a2 2 0 0 0-1.43 1.43H9.5a.5.5 0 0 0 0 1zM15 14a1 1 0 1 1-1 1 1 1 0 0 1 1-1zm0-9a.5.5 0 0 0 .5-.5V4a.5.5 0 0 0-1 0v.5a.5.5 0 0 0 .5.5zm0 20a.5.5 0 0 0-.5.5v.5a.5.5 0 1 0 1 0v-.5a.5.5 0 0 0-.5-.5zm10.5-10.5a.5.5 0 0 0 0 1h.5a.5.5 0 0 0 0-1zM4 15.5h.5a.5.5 0 0 0 0-1H4a.5.5 0 0 0 0 1zM25.15 5.35a.5.5 0 0 0 .35-.15l.35-.35a.502.502 0 0 0-.71-.71l-.35.35a.5.5 0 0 0 .35.85zM4.57 24.72l-.35.35a.502.502 0 1 0 .71.71l.35-.35a.502.502 0 1 0-.71-.71zm20.5 1.06a.502.502 0 0 0 .71-.71l-.35-.35a.502.502 0 0 0-.71.71zM4.4 5.1a.5.5 0 1 0 .7-.7L4.75 4a.53.53 0 0 0-.75.75z"/><path d="M0 0v30h30V0zm29 29H1V1h28z"/></svg>