<svg data-name="Layer 1" xmlns="http://www.w3.org/2000/svg" viewBox="0 0 26.17 30"><title>computer</title><path class="cls-1" d="M9.52 19.15l-.2 2a.6.6 0 0 0 .14.45.52.52 0 0 0 .4.19h5.69a.52.52 0 0 0 .4-.19.6.6 0 0 0 .14-.45l-.2-2h7.09a2.08 2.08 0 0 0 2-2.14V2.14a2.08 2.08 0 0 0-2-2.14h-21a2.08 2.08 0 0 0-2 2.14V17a2.08 2.08 0 0 0 2 2.14zm5.43 1.5h-4.5l.15-1.5h4.2zm-13-19.5h21a1 1 0 0 1 .92 1v13.08H1.08V2.14A1 1 0 0 1 2 1.15zM1.08 17v-.62H23.9V17a1 1 0 0 1-.92 1h-21a1 1 0 0 1-.9-1zm21.88 8.68a.61.61 0 0 0 0-.57l-1.06-2.19a.54.54 0 0 0-.48-.31H3.54a.54.54 0 0 0-.48.31l-1.07 2.2a.61.61 0 0 0 0 .57.53.53 0 0 0 .46.28h20a.53.53 0 0 0 .51-.29zm-19.6-.88l.5-1h17.22l.5 1zM23.9 27h-.82a2.35 2.35 0 0 0-2.26 2.42.56.56 0 0 0 .54.58h4.31a.56.56 0 0 0 .54-.58A2.35 2.35 0 0 0 23.9 27zm-1.92 1.85a1.18 1.18 0 0 1 1.1-.7h.86a1.18 1.18 0 0 1 1.06.69z"/></svg>