<svg data-name="Layer 1" xmlns="http://www.w3.org/2000/svg" viewBox="0 0 29 30"><title>ink</title><g class="cls-2"><path class="cls-3" d="M21.8 11.9a.65.65 0 0 0 .19-.46V.64a.63.63 0 0 0-.63-.64H7.53a.61.61 0 0 0-.44.2L.18 7.38a.65.65 0 0 0-.18.46v21.52a.63.63 0 0 0 .64.64h13.84a.61.61 0 0 0 .51-.27l4.83-7.17a.65.65 0 0 0 .11-.37v-8.44zM1.26 28.72V8.47h12.6v20.25zM18.88 13a.65.65 0 0 0-.19.46V22l-3.6 5.35V7.85a.63.63 0 0 0-.62-.64H2.1l5.68-5.92h13v9.89zM11.6 25.12v1.28H9.14v-1.27zm-5.6.01v1.28H3.51v-1.28zm5-14.32H4a.63.63 0 0 0-.62.64v10.23a.63.63 0 0 0 .62.64h7a.63.63 0 0 0 .62-.64V11.45a.63.63 0 0 0-.62-.64zM4.66 21v-8.9h5.78V21zm21.16-1.81a.63.63 0 0 0-1 0c-.32.51-3.16 5-3.16 6.93a3.69 3.69 0 1 0 7.37 0c-.03-1.87-2.88-6.38-3.21-6.89zm-.5 9.47a2.5 2.5 0 0 1-2.45-2.54c0-1 1.34-3.55 2.44-5.39 1.11 1.84 2.46 4.41 2.46 5.39a2.5 2.5 0 0 1-2.45 2.58z"/></g></svg>