<svg data-name="Layer 1" xmlns="http://www.w3.org/2000/svg" viewBox="0 0 28 30"><title>office-material</title><g class="cls-2"><path class="cls-3" d="M27.53 9h-2.8V8L28 .73a.53.53 0 0 0 0-.48.46.46 0 0 0-.47-.25 3.68 3.68 0 0 0-3.21 2.24L21.91 7H18.2a2.71 2.71 0 0 0-2.26 2h-.54a.48.48 0 0 0-.47.5V15a1.45 1.45 0 0 0-1.4-1.5h-9a9.79 9.79 0 0 0 .14-2L4.2 2C4.11.14 3 0 1.87 0 1.22 0 0 .52 0 2.53L.47 12A6.73 6.73 0 0 0 1 14.82 1.63 1.63 0 0 0 1 15v.5A1.45 1.45 0 0 0 2.33 17h2a1.58 1.58 0 0 0-.09.5v.5a1.45 1.45 0 0 0 1.4 1.5h.93v6h-3.3a.48.48 0 0 0-.47.5v.07a2 2 0 0 0-1.39 2.1A1.93 1.93 0 0 0 3.11 30a1.88 1.88 0 0 0 2-1.49h5.69a1.88 1.88 0 0 0 2 1.49 1.93 1.93 0 0 0 1.7-1.82 2 2 0 0 0-1.39-2.1V26a.48.48 0 0 0-.47-.5H9.33v-6h.93a1.45 1.45 0 0 0 1.4-1.5v-.5a1.58 1.58 0 0 0-.09-.5h2a1.45 1.45 0 0 0 1.4-1.5v14a.48.48 0 0 0 .47.5h1.88a.48.48 0 0 0 .47-.5v-7h7.41v7a.48.48 0 0 0 .47.5h1.87a.48.48 0 0 0 .47-.5v-20a.48.48 0 0 0-.48-.5zM1.87 1c1.2 0 1.36.2 1.4 1l.47 9.5a8.6 8.6 0 0 1-.16 2H2.33a1.32 1.32 0 0 0-.76.24A7.7 7.7 0 0 1 1.4 12L.93 2.5c0-1.4.79-1.5.94-1.5zm9.51 25.5a2 2 0 0 0-.58 1H5.07a2 2 0 0 0-.58-1zM3.27 29a1 1 0 0 1 0-2 1 1 0 0 1 0 2zm10.27-1a.94.94 0 1 1-.93-1 1 1 0 0 1 .92 1zM8.4 25.5h-.93v-6h.93zm2.33-8v.5a.48.48 0 0 1-.47.5H5.6a.48.48 0 0 1-.47-.5v-.5a.48.48 0 0 1 .47-.5h4.67a.48.48 0 0 1 .46.5zm3.27-2a.48.48 0 0 1-.47.5H2.33a.48.48 0 0 1-.47-.5V15a.48.48 0 0 1 .47-.5h11.2a.48.48 0 0 1 .47.5zM25.16 2.71a2.91 2.91 0 0 1 1.57-1.54L24.16 7H23zM18.2 8h5.6v1h-6.86a1.77 1.77 0 0 1 1.26-1zm7 11.5h-7.45V12h7.45zm-7.45 2v-1h7.45v1zm9.32 7.5h-.93V11.5a.48.48 0 0 0-.47-.5h-8.39a.48.48 0 0 0-.47.5V29h-.95V10h11.2z"/></g></svg>