<svg data-name="Layer 1" xmlns="http://www.w3.org/2000/svg" viewBox="0 0 28 30"><title>pc</title><g class="cls-2"><path class="cls-3" d="M26.25 0H11.08a1.82 1.82 0 0 0-1.75 1.87v12.5a1.82 1.82 0 0 0 1.75 1.88h15.17A1.82 1.82 0 0 0 28 14.37V1.87A1.82 1.82 0 0 0 26.25 0zm.58 14.37a.61.61 0 0 1-.58.63H11.08a.61.61 0 0 1-.58-.62V1.87a.61.61 0 0 1 .58-.63h15.17a.61.61 0 0 1 .58.63zm-4.66 3.13h-7v1.25h7z"/><path class="cls-3" d="M17.5 15.62h-1.17v3.13h1.17zm3.5 0h-1.17v3.13H21zM6.42 0H1.75A1.82 1.82 0 0 0 0 1.87v15a1.82 1.82 0 0 0 1.75 1.88h4.67a1.82 1.82 0 0 0 1.75-1.87v-15A1.82 1.82 0 0 0 6.42 0zM7 16.87a.61.61 0 0 1-.58.63H1.75a.61.61 0 0 1-.58-.62v-15a.61.61 0 0 1 .58-.63h4.67a.61.61 0 0 1 .58.62z"/><path class="cls-3" d="M7.58 3.12h-7v1.25h7zm0 3.13h-7V7.5h7zm-2.91 2.5H3.5V10h1.17zm21 3.12H9.92v1.25h15.75zM23.92 2.5h-1.17v1.25h1.17a.61.61 0 0 1 .58.63v1.24h1.17V4.37a1.82 1.82 0 0 0-1.75-1.87zm1.75 4.37H24.5v1.25h1.17zm-8.75 14.38H1.75A1.82 1.82 0 0 0 0 23.12v5A1.82 1.82 0 0 0 1.75 30h15.17a1.82 1.82 0 0 0 1.75-1.87v-5a1.82 1.82 0 0 0-1.75-1.88zm.58 6.88a.61.61 0 0 1-.58.63H1.75a.61.61 0 0 1-.58-.62v-5a.61.61 0 0 1 .58-.62h15.17a.61.61 0 0 1 .58.63zm7-7.51a3.63 3.63 0 0 0-3.5 3.75v1.88A3.64 3.64 0 0 0 24.5 30a3.64 3.64 0 0 0 3.5-3.75v-1.88a3.63 3.63 0 0 0-3.5-3.75zm2.33 5.63a2.34 2.34 0 1 1-4.67 0v-1.88a2.34 2.34 0 1 1 4.67 0z"/><path class="cls-3" d="M25.08 21.25h-1.16v2.5h1.17zm-19.83 2.5H2.92V25h2.33zm0 2.5H2.92v1.25h2.33zm3.5-2.5H6.42V25h2.33zm0 2.5H6.42v1.25h2.33zm3.5-2.5H9.92V25h2.33zm0 2.5H9.92v1.25h2.33zm3.5-2.5h-2.33V25h2.33zm0 2.5h-2.33v1.25h2.33zm-4.67-6.87H5.83a1.21 1.21 0 0 1-1.17-1.25H3.5a2.42 2.42 0 0 0 2.33 2.5h5.25a1.21 1.21 0 0 1 1.17 1.25h1.17a2.42 2.42 0 0 0-2.34-2.5z"/></g></svg>