<svg data-name="Layer 1" xmlns="http://www.w3.org/2000/svg" viewBox="0 0 28 30"><title>phone</title><g class="cls-2"><path class="cls-3" d="M26.25 1.25H8.73A2.84 2.84 0 0 0 6.42 0h-3.5A3 3 0 0 0 0 3.12v23.76A3 3 0 0 0 2.92 30h3.5a2.84 2.84 0 0 0 2.32-1.25h17.51A1.82 1.82 0 0 0 28 26.88V3.12a1.82 1.82 0 0 0-1.75-1.87zM6.42 28.75h-3.5a1.82 1.82 0 0 1-1.75-1.87V3.12a1.82 1.82 0 0 1 1.75-1.87h3.5a1.82 1.82 0 0 1 1.75 1.87v23.76a1.82 1.82 0 0 1-1.75 1.87zm20.42-1.87a.61.61 0 0 1-.58.62h-17a3.34 3.34 0 0 0 .06-.62V3.12a3.34 3.34 0 0 0-.06-.62h17a.61.61 0 0 1 .58.62z"/><path class="cls-3" d="M24.5 3.75H11.67A1.21 1.21 0 0 0 10.5 5v2.5a1.21 1.21 0 0 0 1.17 1.25H21V7.5h-9.33V5H24.5v2.5h-2.33v1.25h2.33a1.21 1.21 0 0 0 1.17-1.25V5a1.21 1.21 0 0 0-1.17-1.25zm-11.08 7.5a1.88 1.88 0 1 0 1.75 1.88 1.82 1.82 0 0 0-1.75-1.88zm0 2.5a.63.63 0 1 1 .58-.63.61.61 0 0 1-.58.63zm4.66-2.5a1.88 1.88 0 1 0 1.75 1.88 1.82 1.82 0 0 0-1.75-1.88zm0 2.5a.63.63 0 1 1 .58-.63.61.61 0 0 1-.58.63zm4.67-2.5a1.88 1.88 0 1 0 1.75 1.88 1.82 1.82 0 0 0-1.75-1.88zm0 2.5a.63.63 0 1 1 .58-.63.61.61 0 0 1-.58.63zm-9.33 2.5a1.88 1.88 0 1 0 1.75 1.88 1.82 1.82 0 0 0-1.75-1.88zm0 2.5a.63.63 0 1 1 .58-.63.61.61 0 0 1-.58.63zm4.66-2.5a1.88 1.88 0 1 0 1.75 1.88 1.82 1.82 0 0 0-1.75-1.88zm0 2.5a.63.63 0 1 1 .58-.63.61.61 0 0 1-.58.63zm4.67-2.5a1.88 1.88 0 1 0 1.75 1.88 1.82 1.82 0 0 0-1.75-1.88zm0 2.5a.63.63 0 1 1 .58-.63.61.61 0 0 1-.58.63zm-9.33 2.5a1.88 1.88 0 1 0 1.75 1.88 1.82 1.82 0 0 0-1.75-1.88zm0 2.5a.63.63 0 1 1 .58-.62.61.61 0 0 1-.58.62zm4.66-2.5a1.88 1.88 0 1 0 1.75 1.88 1.82 1.82 0 0 0-1.75-1.88zm0 2.5a.63.63 0 1 1 .58-.62.61.61 0 0 1-.58.62zm4.67-2.5a1.88 1.88 0 1 0 1.75 1.88 1.82 1.82 0 0 0-1.75-1.88zm0 2.5a.63.63 0 1 1 .58-.62.61.61 0 0 1-.58.62zM3.5 3.75h2.33V5H3.5zM2.33 25H3.5v1.25H2.33zm3.5 0H7v1.25H5.83z"/></g></svg>