<svg data-name="Layer 1" xmlns="http://www.w3.org/2000/svg" viewBox="0 0 29.96 30"><title>phone-call</title><g class="cls-2"><path class="cls-3" d="M23.69 18.58a3 3 0 0 0-2.14-1 3.05 3.05 0 0 0-2.17 1l-2 2-.49-.25c-.23-.11-.44-.22-.63-.34a21.75 21.75 0 0 1-5.21-4.75 12.83 12.83 0 0 1-1.71-2.7c.52-.47 1-1 1.47-1.44l.53-.54a2.9 2.9 0 0 0 0-4.38L9.62 4.45l-.59-.6c-.38-.39-.78-.8-1.19-1.18a3 3 0 0 0-2.12-.93 3.1 3.1 0 0 0-2.15.93L1.4 4.85A4.63 4.63 0 0 0-.02 7.79a11.1 11.1 0 0 0 .81 4.7 27.26 27.26 0 0 0 4.89 8.08 29.8 29.8 0 0 0 9.92 7.77A15.46 15.46 0 0 0 21.18 30h.4a4.77 4.77 0 0 0 3.65-1.57 14.4 14.4 0 0 1 1.11-1.15c.27-.26.55-.53.82-.82a3.16 3.16 0 0 0 1-2.19 3 3 0 0 0-1-2.17zm2.29 6.67c-.25.27-.5.51-.77.77a16.64 16.64 0 0 0-1.23 1.27 3.05 3.05 0 0 1-2.38 1h-.29a13.73 13.73 0 0 1-4.94-1.48 28.13 28.13 0 0 1-9.39-7.32 25.71 25.71 0 0 1-4.53-7.59 9 9 0 0 1-.71-4 2.91 2.91 0 0 1 .87-1.88l2.16-2.13a1.44 1.44 0 0 1 1-.45 1.35 1.35 0 0 1 .92.44c.39.36.75.73 1.14 1.13l.6.61 1.73 1.73a1.21 1.21 0 0 1 0 2l-.54.54c-.53.54-1 1.05-1.59 1.54a1.29 1.29 0 0 0-.33 1.44v.06a13.88 13.88 0 0 0 2 3.34 23.24 23.24 0 0 0 5.62 5.12 8.64 8.64 0 0 0 .78.42c.23.11.44.22.63.34h.08a1.37 1.37 0 0 0 .63.16 1.35 1.35 0 0 0 1-.44l2.17-2.17a1.43 1.43 0 0 1 1-.47 1.29 1.29 0 0 1 .91.46l3.46 3.58a1.25 1.25 0 0 1 0 1.98zM16.19 7.14a8.15 8.15 0 0 1 6.64 6.64.85.85 0 0 0 .84.71h.15a.86.86 0 0 0 .7-1 9.85 9.85 0 0 0-8-8 .86.86 0 0 0-1 .7.85.85 0 0 0 .67.95zm13.79 6.09A16.22 16.22 0 0 0 16.72 0a.852.852 0 1 0-.28 1.68 14.49 14.49 0 0 1 11.82 11.83.85.85 0 0 0 .84.71h.15a.84.84 0 0 0 .73-.99z"/></g></svg>