<svg data-name="Layer 1" xmlns="http://www.w3.org/2000/svg" viewBox="0 0 26.93 30"><title>print-button</title><path class="cls-1" d="M22.77 6.21h-.59V.72a.71.71 0 0 0-.69-.72H5.43a.71.71 0 0 0-.69.72v5.49h-.59a4.24 4.24 0 0 0-4.19 4.3v8.88a4.24 4.24 0 0 0 4.16 4.3h.59v5.59a.71.71 0 0 0 .69.72h16.09a.71.71 0 0 0 .69-.72v-5.59h.59a4.24 4.24 0 0 0 4.19-4.3v-8.88a4.24 4.24 0 0 0-4.19-4.3zM6.13 1.43h14.66v4.78H6.13zm14.66 27.14H6.13v-8.84h14.66zm4.74-9.17a2.82 2.82 0 0 1-2.77 2.87h-.59v-2.54h1.5a.72.72 0 0 0 0-1.43H3.45a.72.72 0 0 0 0 1.43h1.29v2.53h-.59a2.82 2.82 0 0 1-2.77-2.87v-8.88a2.82 2.82 0 0 1 2.77-2.86h18.62a2.82 2.82 0 0 1 2.77 2.87v8.88z"/><path class="cls-1" d="M21.49 10.5a1 1 0 1 0 .95 1 1 1 0 0 0-.95-1zM7.74 22.2h11.44a.72.72 0 0 0 0-1.43H7.74a.72.72 0 0 0 0 1.43zm0 2.66h11.44a.72.72 0 0 0 0-1.43H7.74a.72.72 0 0 0 0 1.43z"/></svg>