<svg data-name="Layer 1" xmlns="http://www.w3.org/2000/svg" viewBox="0 0 42.08 47.04"><title>android</title><path d="M34.14 14H7.94v19.1a3.6 3.6 0 0 0 3.32 3.63v7.43a2.885 2.885 0 0 0 5.77 0v-7.42h8.06v7.42a2.89 2.89 0 0 0 5.77 0v-7.44a3.6 3.6 0 0 0 3.32-3.63V14.34a3.52 3.52 0 0 1-.04-.34zM2.89 15.68a2.89 2.89 0 0 1 2.89 2.88v12.38a2.89 2.89 0 0 1-2.89 2.89A2.89 2.89 0 0 1 0 30.94V18.56a2.88 2.88 0 0 1 2.89-2.88zm36.31 0a2.88 2.88 0 0 1 2.89 2.88v12.38a2.88 2.88 0 0 1-2.89 2.89 2.88 2.88 0 0 1-2.88-2.89V18.56a2.88 2.88 0 0 1 2.88-2.88zM8 12h26a10.47 10.47 0 0 0-3.19-7.27L33.26.5a.31.31 0 0 0-.06-.5.3.3 0 0 0-.41.11l-2.37 4.15A16.11 16.11 0 0 0 21 .86a16.39 16.39 0 0 0-9.37 3.4L9.3.15a.305.305 0 0 0-.53.3l2.44 4.23A10.48 10.48 0 0 0 8 12zm17.32-5.2a1.5 1.5 0 0 1 3 0 1.5 1.5 0 0 1-3 0zm-11.14 0a1.5 1.5 0 0 1 3 0 1.5 1.5 0 0 1-3 0z" fill="#a4c639"/></svg>