<svg data-name="Layer 1" xmlns="http://www.w3.org/2000/svg" viewBox="0 0 49.95 24.01"><title>nav-button</title><g data-name="editor list view hambuger menu glyph" fill="#fff"><path d="M1.14 0A1.06 1.06 0 0 0 0 1v2a1.07 1.07 0 0 0 1.14 1h47.67a1.06 1.06 0 0 0 1.14-1V1a1.07 1.07 0 0 0-1.14-1H1.14zm0 10A1.06 1.06 0 0 0 0 11v2a1.07 1.07 0 0 0 1.14 1h47.67a1.06 1.06 0 0 0 1.14-1v-2a1.07 1.07 0 0 0-1.14-1H1.14zm0 10A1.06 1.06 0 0 0 0 21v2a1.07 1.07 0 0 0 1.14 1h47.67a1.06 1.06 0 0 0 1.14-1v-2a1.07 1.07 0 0 0-1.14-1H1.14z"/><path data-name="path-1" d="M1.14 0A1.06 1.06 0 0 0 0 1v2a1.07 1.07 0 0 0 1.14 1h47.67a1.06 1.06 0 0 0 1.14-1V1a1.07 1.07 0 0 0-1.14-1H1.14zm0 10A1.06 1.06 0 0 0 0 11v2a1.07 1.07 0 0 0 1.14 1h47.67a1.06 1.06 0 0 0 1.14-1v-2a1.07 1.07 0 0 0-1.14-1H1.14zm0 10A1.06 1.06 0 0 0 0 21v2a1.07 1.07 0 0 0 1.14 1h47.67a1.06 1.06 0 0 0 1.14-1v-2a1.07 1.07 0 0 0-1.14-1H1.14z"/></g></svg>