<svg data-name="Layer 1" xmlns="http://www.w3.org/2000/svg" viewBox="0 0 28 35.08"><title>html-academy-hover</title><path d="M14.14.5H14L.5 1.91V26.5l13.5 8 13.5-8V1.91zm11.59 25L14 32.5l-11.73-7V15.43L14 22.35v1.25l-8-4.74v1.22l8 4.81v1.29l-8-4.76v1.22l8 4.81 8.12-4.83V17.4l3.62-2.15V25.5zm0-11.56l-3.21 1.88-1.52.87-7-4.19v1.22l6 3.57-.13.08-.86.5-5-3v1.22l3.94 2.33L17 19l-3-1.7v1.22l2 1.14-2 1.19L2.34 14 14 7zm0-1.22L13.93 5.8 2.26 12.71V3.5L14 2.27 25.73 3.5v9.22z" fill="#243344" stroke="#243344" stroke-miterlimit="10"/></svg>