<svg data-name="Layer 2" xmlns="http://www.w3.org/2000/svg" viewBox="0 0 146.3 40.37"><title>logo-footer-hover</title><path d="M71.87 18.66a1.29 1.29 0 0 1 1.26-1.29h7.18c5.09 0 8.44 2.7 8.44 7.15v.06c0 4.86-4.06 7.37-8.85 7.37h-5.48v6.82a1.275 1.275 0 1 1-2.55 0V18.66zm8.11 11c3.73 0 6.18-2 6.18-5v-.04c0-3.22-2.41-4.89-6.05-4.89h-5.7v9.92H80zM93.6 18.5a1.27 1.27 0 1 1 2.54 0v20.28a1.27 1.27 0 1 1-2.54 0V18.5zm9.14.03a1.28 1.28 0 0 1 1.26-1.25h.35a1.56 1.56 0 0 1 1.29.74l13.68 17.45v-17a1.24 1.24 0 1 1 2.48 0v20.35a1.14 1.14 0 0 1-1.15 1.18h-.13a1.73 1.73 0 0 1-1.32-.77l-14-17.87v17.46a1.24 1.24 0 1 1-2.48 0V18.53zm25.43-.03a1.27 1.27 0 1 1 2.54 0v12.33l12.85-13.17a1.45 1.45 0 0 1 1-.45 1.27 1.27 0 0 1 1.22 1.26 1.25 1.25 0 0 1-.42.9l-8 7.92 8.56 10.56a1.41 1.41 0 0 1 .35.94 1.31 1.31 0 0 1-1.27 1.28 1.22 1.22 0 0 1-1-.58L135.59 29l-4.86 4.86v4.9a1.27 1.27 0 1 1-2.54 0V18.5zM98.5 9.87a3.62 3.62 0 0 1-3.62-3.62 3.62 3.62 0 0 1-3.62 3.62 3.62 3.62 0 0 1 3.62 3.62 3.62 3.62 0 0 1 3.62-3.62zm-55.41 9.44h.73a2.49 2.49 0 0 0-2.14-1.22 2 2 0 0 1-1.88-1.35 12 12 0 0 0-2.09.82.7.7 0 0 0 .19 0 1.95 1.95 0 0 1 2 2.28 9 9 0 0 1 3.19-.53z" fill="#d22856"/><path d="M60.46 28L55.29 6.65C54.93 4.3 52.69 0 46.69 0a1.5 1.5 0 1 0 0 3c4.86 0 5.58 3.73 5.64 4.14l4.77 19.7H55a12 12 0 0 0-5.31-8.52 2.5 2.5 0 0 0-1.53 2.3 2 2 0 0 1 0 .26A9 9 0 1 1 35 24.36a2 2 0 0 1-1.85-2 .74.74 0 0 0-.15-.47 12 12 0 0 0-1.79 5h-1.86a12 12 0 0 0-23.85 0H3.42L8.19 7.14C8.25 6.73 9 3 13.83 3a1.5 1.5 0 1 0 0-3c-6 0-8.24 4.3-8.6 6.65L.05 28a1.42 1.42 0 0 0 1.43 1.83h4a11.93 11.93 0 0 0 .39 1.83.73.73 0 0 0 .13-.34 2 2 0 0 1 2-2 2 2 0 0 1 .48.06 8.33 8.33 0 0 1-.07-1 9 9 0 1 1 9 9 9 9 0 0 1-5.41-1.8 2 2 0 0 1-1.3.49.75.75 0 0 0-.75.75 2 2 0 0 1-.18.81 12 12 0 0 0 19.54-7.79h1.81a12 12 0 0 0 23.85 0h4A1.42 1.42 0 0 0 60.46 28z" fill="#d22856"/><path d="M50.69 16.12a4.5 4.5 0 0 1-4.5-4.5 4.5 4.5 0 0 1-4.5 4.5 4.5 4.5 0 0 1 4.5 4.5 4.5 4.5 0 0 1 4.5-4.5zM37.9 19.63a2.75 2.75 0 0 1-2.75-2.75 2.75 2.75 0 0 1-2.75 2.75 2.75 2.75 0 0 1 2.75 2.75 2.75 2.75 0 0 1 2.75-2.75zM10.73 34.07A2.75 2.75 0 0 1 8 31.32a2.75 2.75 0 0 1-2.75 2.75A2.75 2.75 0 0 1 8 36.82a2.75 2.75 0 0 1 2.73-2.75z" fill="#d22856"/></svg>