<svg data-name="Layer 1" xmlns="http://www.w3.org/2000/svg" viewBox="0 0 74.4 22.86"><title>logo-header-mobile</title><path d="M0 1.45A1.29 1.29 0 0 1 1.26.16h7.18c5.09 0 8.44 2.7 8.44 7.15v.06c0 4.86-4.06 7.37-8.85 7.37H2.55v6.83a1.27 1.27 0 1 1-2.54 0V1.45zm8.11 11c3.73 0 6.18-2 6.18-5 0-3.22-2.41-4.89-6.05-4.89h-5.7v9.92h5.59zM21.73 1.29a1.27 1.27 0 1 1 2.54 0v20.28a1.27 1.27 0 1 1-2.54 0V1.29zm9.14.03A1.28 1.28 0 0 1 32.13.07h.35a1.56 1.56 0 0 1 1.29.74l13.68 17.45v-17a1.24 1.24 0 0 1 2.48 0v20.35a1.14 1.14 0 0 1-1.1 1.18h-.18a1.73 1.73 0 0 1-1.32-.77l-14-17.87v17.46a1.24 1.24 0 0 1-2.48 0V1.32zm25.43-.03a1.27 1.27 0 1 1 2.54 0v12.33L71.69.45a1.45 1.45 0 0 1 1-.45 1.27 1.27 0 0 1 1.22 1.26 1.25 1.25 0 0 1-.42.9l-8 7.92 8.56 10.56a1.41 1.41 0 0 1 .35.94 1.31 1.31 0 0 1-1.27 1.28 1.22 1.22 0 0 1-1-.58l-8.42-10.49-4.86 4.86v4.89a1.27 1.27 0 1 1-2.54 0V1.29z" fill="#fff"/></svg>