<svg id="Слой_3" data-name="Слой 3" xmlns="http://www.w3.org/2000/svg" viewBox="0 0 58.86 58.86"><defs><style>.cls-1{fill:none;stroke:#0b0b0b;stroke-linecap:round;stroke-linejoin:round;stroke-width:2px}</style></defs><title>account-edit</title><path class="cls-1" d="M67.51 40.19a149.75 149.75 0 0 1-20.26 19.88c-9.61 7.78-24.56 16.8-24.56 16.8s9.12-15.07 17-24.76a145.8 145.8 0 0 1 19.68-20.05c3.3-2.79 17.64-14 19.88-11.75s-9.25 17-11.74 19.88z" transform="translate(-21.69 -19.01)"/><path class="cls-1" d="M68.4 25s-2.23-8.38-10.89-1.14-10.87 15.45-10.87 15.45l-.78 2.4-5.26-.26" transform="translate(-21.69 -19.01)"/><path class="cls-1" d="M48.59 4.9l5.36 5.36M14.63 49.07L9.8 44.24m-3.95 5.93l2.85 2.84"/></svg>