<svg data-name="Слой 2" xmlns="http://www.w3.org/2000/svg" viewBox="0 0 88.31 60.55"><title>booking-list</title><path d="M0 37.9c.9-.06 1.76-.06 2.59-.19a7.52 7.52 0 0 0 6.11-6 7.55 7.55 0 0 0-3.7-8 7.3 7.3 0 0 0-3.64-1H0V5.14A5 5 0 0 1 5.16 0h78a5.05 5.05 0 0 1 5.16 5.16v17.55h-1.25a7.63 7.63 0 0 0-2.92.57 7.57 7.57 0 0 0 1.36 14.41 9.58 9.58 0 0 0 1.44.15h1.35v17.61a5 5 0 0 1-4.08 5 5.17 5.17 0 0 1-1 .1H5.12A5 5 0 0 1 0 55.43V38.18zm85.78-17.48V5.08a2.5 2.5 0 0 0-2.56-2.55H26.51c-.13.77-.56 1.24-1.19 1.25a1.74 1.74 0 0 1-.8-.22 1.28 1.28 0 0 1-.58-1H5.1a2.5 2.5 0 0 0-2.58 2.53v15.33a10.05 10.05 0 0 1 8.82 9.4 9.48 9.48 0 0 1-1.71 6 10.23 10.23 0 0 1-7.11 4.33v15.31A2.5 2.5 0 0 0 5.13 58h18.81c.15-.79.58-1.25 1.22-1.25A1.75 1.75 0 0 1 26 57a1.25 1.25 0 0 1 .56 1h56.67a2.5 2.5 0 0 0 2.56-2.55V40.11a10.08 10.08 0 0 1-8.84-9.89 10.09 10.09 0 0 1 8.83-9.8z"/><circle cx="25.23" cy="7.57" r="1.26" transform="rotate(-.33 26.023 7.02)"/><circle cx="25.23" cy="12.62" r="1.26" transform="rotate(-89.93 25.233 12.612)"/><circle cx="25.23" cy="17.66" r="1.26" transform="rotate(-89.8 25.23 17.662)"/><circle cx="25.23" cy="22.71" r="1.26" transform="rotate(-89.4 25.335 22.702)"/><circle cx="25.23" cy="27.75" r="1.26" transform="rotate(-89.78 25.232 27.755)"/><circle cx="25.23" cy="32.8" r="1.26" transform="rotate(-89.66 25.232 32.803)"/><circle cx="25.23" cy="37.85" r="1.26" transform="rotate(-.09 25.435 38.217)"/><circle cx="25.23" cy="42.89" r="1.26" transform="rotate(-.23 24.826 42.399)"/><circle cx="25.23" cy="47.94" r="1.26" transform="rotate(-.07 24.525 49.126)"/><circle cx="25.23" cy="52.98" r="1.26" transform="rotate(-89.55 25.232 52.985)"/></svg>