<svg data-name="Слой 3" xmlns="http://www.w3.org/2000/svg" viewBox="0 0 72.95 72.85"><title>event-cart-dice</title><path d="M72.95 45.39a11.92 11.92 0 0 0-1.25-4.54 23.66 23.66 0 0 0-6.59-8 48.87 48.87 0 0 0-8.71-5.59 38.89 38.89 0 0 0-5.74-2.43 22.85 22.85 0 0 0-4.87-1.17.69.69 0 0 1-.62-.69 43.27 43.27 0 0 0-.55-5.83 58 58 0 0 0-1.21-6.22c-.56-2.26-1.28-4.47-1.94-6.7a2.23 2.23 0 0 0-.68-1.31A15.36 15.36 0 0 0 32.41.06a32.85 32.85 0 0 0-9.62.81 51.62 51.62 0 0 0-10 3.45 33.47 33.47 0 0 0-6.55 4 22 22 0 0 0-4.05 4.13 18.07 18.07 0 0 0-2 3.94 2.2 2.2 0 0 0-.01 1.57 8.65 8.65 0 0 1 .4 1c.29 1 .76 2.52 1.16 3.44a73.89 73.89 0 0 0 7.58 14.1 41.89 41.89 0 0 0 7.23 7.9 28.1 28.1 0 0 0 9.18 5.26.75.75 0 0 1 .58.82c0 .62-.16 1.2-.16 1.81a46.72 46.72 0 0 0 .26 5.19 27.61 27.61 0 0 0 1.6 6.8 20.86 20.86 0 0 0 4.78 7.78 1.69 1.69 0 0 0 .65.36 6 6 0 0 0 1.9.41h4.22a14.33 14.33 0 0 0 1.52-.1l.9-.17a30.81 30.81 0 0 0 7.81-2.4 38.56 38.56 0 0 0 9.86-6.63 55.05 55.05 0 0 0 6.67-7.23 80.17 80.17 0 0 0 5.66-8.37 4.44 4.44 0 0 0 .97-2.54zm-46.09.87c-.06.37-.12.51-.57.35a24.69 24.69 0 0 1-7.07-4 34.71 34.71 0 0 1-5.91-6 56.19 56.19 0 0 1-3.91-5.67 61.21 61.21 0 0 1-3.47-6.83c-.83-1.9-1.51-3.86-2.34-5.76a3.13 3.13 0 0 1 .47-3.14 19.8 19.8 0 0 1 7.12-6.55 41.12 41.12 0 0 1 9.15-4 43.56 43.56 0 0 1 6.46-1.38 23.28 23.28 0 0 1 4.76-.24 13.82 13.82 0 0 1 6.5 1.81 1.33 1.33 0 0 1 .65.75 68 68 0 0 1 2.55 9.74 47.72 47.72 0 0 1 .85 6.53c0 .48.38 1.11 0 1.38s-.95.06-1.44.1a13.76 13.76 0 0 0-5.27 1.42c-.6.31-.72 1-1 1.51a27.76 27.76 0 0 0-1.9 3.65 1.85 1.85 0 0 1-1.84 1.24 13.72 13.72 0 0 0-7.42 3.11 13 13 0 0 0-2.93 3.25 2.17 2.17 0 0 0-.44 2.06 1.47 1.47 0 0 0 1.33 1 1.66 1.66 0 0 0 1.54-1 10.66 10.66 0 0 1 7-5.09c.21 0 .4-.3.69-.06-.73 1.87-1.45 3.75-2 5.69a47.72 47.72 0 0 0-1.56 6.13zm42.31.34a67.21 67.21 0 0 1-4.12 6.25c-1.07 1.42-2.18 2.83-3.37 4.17s-2.66 2.81-4.06 4.14a35.62 35.62 0 0 1-7.19 5.23 28.51 28.51 0 0 1-7.1 2.8 25.61 25.61 0 0 1-6.16.65 7.3 7.3 0 0 1-1.89-.18 2.09 2.09 0 0 1-1.13-.73 21 21 0 0 1-3.08-5.27 24.49 24.49 0 0 1-1.47-5.12 19.13 19.13 0 0 1-.34-4.52 42.58 42.58 0 0 1 2-12.72 75.53 75.53 0 0 1 5.2-12.34c.25-.49.53-1 .8-1.44s.85-.52 1.31-.64a15.67 15.67 0 0 1 6.34-.25 29.1 29.1 0 0 1 6.85 1.91 45 45 0 0 1 6.35 3.24 38.82 38.82 0 0 1 4.68 3.23c2.77 2.31 5.27 4.83 6.54 8.32a10 10 0 0 1 .48 1.78c.14.61-.37 1.03-.64 1.5z"/><path d="M60.71 52.03c-3.73-1.54-6.66-4.15-9.67-6.66a10.29 10.29 0 0 1 4.54-.78c2.49.29 3.4 2.14 4.23 4.08a9.88 9.88 0 0 1 .9 3.36zm-13.39-8.64c-3.67-1.44-7.35-2.73-10.71-4.89a7.47 7.47 0 0 1 2.49-.84 9 9 0 0 1 4.27-.2 4.15 4.15 0 0 1 2.3 1.77 14.52 14.52 0 0 1 1.65 3.73 1.39 1.39 0 0 1 0 .43zM20.89 22.66a7.45 7.45 0 0 1-1.1 3.82 3.38 3.38 0 0 1-2.46 1.43 14.76 14.76 0 0 1-4.08-.16c-.62 0-.53-.34-.26-.76a21.93 21.93 0 0 1 6.56-6.49c1-.65 1-.65 1.16.59a12.18 12.18 0 0 1 .18 1.57zm16.53-3.24c-1.4 1.24-2.63 2.65-4.46 3.31a3.48 3.48 0 0 1-3.28-.49 9.13 9.13 0 0 1-3.15-3.83c-.2-.43 0-.47.32-.47 1.66 0 3.32-.11 5 0a16.13 16.13 0 0 1 5.57 1.48zm17.21 35.92c-.72-.22-1.45-.4-2.18-.57a44.82 44.82 0 0 1-6.57-2.11A21 21 0 0 1 40 48.47c-1.05-1-2-2-3-3a1.51 1.51 0 0 0-1.51-.49 1.64 1.64 0 0 0-1.2 1.3 22.42 22.42 0 0 0-.57 5.7 18.33 18.33 0 0 0 .26 4.1 11 11 0 0 0 2.31 5.13 8.66 8.66 0 0 0 8.82 2.7 15.6 15.6 0 0 0 4.62-1.81 26.26 26.26 0 0 0 5.59-4.17 1.53 1.53 0 0 0-.69-2.59zm-6.46 4.1a13 13 0 0 1-5.23 1.72 5.78 5.78 0 0 1-4.87-2.77 10.65 10.65 0 0 1-1.28-4.16 18.5 18.5 0 0 1 .06-4.57 24.62 24.62 0 0 0 14.13 7.88 12.67 12.67 0 0 1-2.81 1.9z"/></svg>