<svg id="Слой_1" data-name="Слой 1" xmlns="http://www.w3.org/2000/svg" viewBox="0 0 82.32 85.62"><defs><style>.cls-1{fill:none;stroke:#000;stroke-miterlimit:10;stroke-width:2px}</style></defs><title>logo</title><path class="cls-1" d="M9.8-8.23A40.43 40.43 0 0 1 .09-9.36a1.83 1.83 0 0 1-1.55-2.38 10.55 10.55 0 0 0-5-10.73 10.47 10.47 0 0 0-11.7.56c-1.38 1-2.12 1-3.26-.32a41.46 41.46 0 0 1-8.77-15.6A1.85 1.85 0 0 1-29-40.4c4-2 6.2-5.17 6.2-9.62s-2.2-7.65-6.2-9.63a1.86 1.86 0 0 1-1.14-2.61 41.32 41.32 0 0 1 8.83-15.64c1.05-1.18 1.84-1.25 3.12-.3a10.47 10.47 0 0 0 12 .49 10.56 10.56 0 0 0 4.73-10.65 1.82 1.82 0 0 1 1.53-2.33 41.77 41.77 0 0 1 19.54 0 1.79 1.79 0 0 1 1.52 2.28 10.56 10.56 0 0 0 11.11 12.32 10.15 10.15 0 0 0 5.44-2 4.5 4.5 0 0 1 1-.66 1.73 1.73 0 0 1 2 .48A41.52 41.52 0 0 1 49.9-62a1.8 1.8 0 0 1-1.12 2.3c-4.09 2-6.32 5.26-6.29 9.83a9.88 9.88 0 0 0 5.65 9.16c2.15 1.11 2 1.92 1.46 3.63a41.14 41.14 0 0 1-5.78 11.38c-.9 1.23-1.87 2.4-2.86 3.56s-1.83 1.23-3.06.31a10.43 10.43 0 0 0-13.26.43 10.26 10.26 0 0 0-3.52 9.73 1.82 1.82 0 0 1-1.55 2.31A40.31 40.31 0 0 1 9.8-8.23zm0-24.14A7.89 7.89 0 0 0 2-24.5a7.9 7.9 0 0 0 7.82 7.87 7.9 7.9 0 0 0 7.92-7.84 7.89 7.89 0 0 0-7.89-7.89zm0-35.33a7.89 7.89 0 0 0 7.9-7.9 7.9 7.9 0 0 0-7.87-7.83A7.9 7.9 0 0 0 2-75.55a7.89 7.89 0 0 0 7.86 7.85zm13.8 5.52a7.88 7.88 0 0 0 7.82 8A7.9 7.9 0 0 0 39.33-62a7.88 7.88 0 0 0-7.74-7.87 7.85 7.85 0 0 0-7.99 7.69zm-35.45 32a7.84 7.84 0 0 0 7.9-7.77 7.87 7.87 0 0 0-7.79-8A7.89 7.89 0 0 0-19.67-38a7.86 7.86 0 0 0 7.82 7.86zm7.9-32a7.84 7.84 0 0 0-7.83-7.83 7.88 7.88 0 0 0-7.9 7.85 7.9 7.9 0 0 0 7.88 7.88 7.88 7.88 0 0 0 7.85-7.81zm35.41 32A7.88 7.88 0 0 0 39.33-38a7.91 7.91 0 0 0-7.91-7.86A7.87 7.87 0 0 0 23.61-38a7.84 7.84 0 0 0 7.85 7.86zM9.83-42a8 8 0 0 0 8-8.09 8 8 0 0 0-8.05-8 8 8 0 0 0-8 8A8 8 0 0 0 9.83-42z" transform="translate(31.32 92.85)"/></svg>