<svg id="Layer_1" data-name="Layer 1" xmlns="http://www.w3.org/2000/svg" viewBox="0 0 24 23.99"><defs><style>.cls-1{fill:#c6c5ca}</style></defs><title>clock</title><path class="cls-1" d="M23 7.33A11.76 11.76 0 0 0 16.65 1 11.8 11.8 0 0 0 12 0a11.67 11.67 0 0 0-4.68 1A11.8 11.8 0 0 0 .94 7.33a12 12 0 0 0 0 9.33A11.82 11.82 0 0 0 7.32 23 11.67 11.67 0 0 0 12 24a11.8 11.8 0 0 0 4.67-1A11.78 11.78 0 0 0 23 16.66a11.84 11.84 0 0 0 0-9.33zm-1.92 10a10.53 10.53 0 0 1-3.86 3.84A10.34 10.34 0 0 1 12 22.55a10.16 10.16 0 0 1-4.09-.84 10.73 10.73 0 0 1-3.36-2.24 10.66 10.66 0 0 1-2.24-3.37 10.33 10.33 0 0 1-.85-4.1 10.32 10.32 0 0 1 1.4-5.27 10.53 10.53 0 0 1 3.85-3.86A10.26 10.26 0 0 1 12 1.45a10.34 10.34 0 0 1 5.29 1.42 10.56 10.56 0 0 1 3.86 3.84A10.26 10.26 0 0 1 22.54 12a10.35 10.35 0 0 1-1.41 5.29z" transform="translate(0 -.01)"/><path class="cls-1" d="M12.74 11.88v-6.8a.76.76 0 0 0-.74-.73.74.74 0 0 0-.72.73V12a.6.6 0 0 1 0 .11.69.69 0 0 0 .2.59l3.92 3.92a.75.75 0 0 0 1 0 .71.71 0 0 0 0-1z" transform="translate(0 -.01)"/></svg>