<svg id="Layer_1" data-name="Layer 1" xmlns="http://www.w3.org/2000/svg" viewBox="0 0 16.88 24"><defs><style>.cls-1{fill:#c6c5ca}</style></defs><title>placeholder</title><path class="cls-1" d="M12 0a8.44 8.44 0 0 0-7.18 12.87l6.7 10.79a.7.7 0 0 0 .6.33.7.7 0 0 0 .6-.34l6.53-10.9A8.44 8.44 0 0 0 12 0zm6 12l-5.93 9.91L6 12.13A7 7 0 1 1 18 12z" transform="translate(-3.56)"/><path class="cls-1" d="M12 4.22a4.22 4.22 0 1 0 4.22 4.22A4.22 4.22 0 0 0 12 4.22zm0 7a2.82 2.82 0 1 1 2.82-2.82A2.82 2.82 0 0 1 12 11.26z" transform="translate(-3.56)"/></svg>