<svg id="Layer_1" data-name="Layer 1" xmlns="http://www.w3.org/2000/svg" viewBox="0 0 32 30.12"><defs><style>.cls-1{fill:none}.cls-2{clip-path:url(#clip-path)}.cls-3{fill:#16bb2d}</style><clipPath id="clip-path" transform="translate(0 -.94)"><path class="cls-1" d="M0 0h32v32H0z"/></clipPath></defs><title>shopping-cart-of-horizontal-lines-design</title><g class="cls-2"><path class="cls-3" d="M31.8 6.67a1 1 0 0 0-.8-.42H11.12a1 1 0 0 0 0 2.05h18.45l-.74 2.31H13.38a1 1 0 0 0 0 2.05h14.79l-.85 2.65H14.57a1 1 0 0 0 0 2.05h12.09l-.71 2.22H12.37L6.79 3.51a1 1 0 0 0-.59-.62L1.4 1a1 1 0 1 0-.75 1.92L5 4.63 10.33 20a.85.85 0 0 0-.53.51l-1.54 4.27a.86.86 0 0 0 .81 1.15h.79a3.08 3.08 0 1 0 4.58 0h6.72a3.08 3.08 0 1 0 4.58 0h1a.86.86 0 1 0 0-1.71H10.29l1-2.65a1 1 0 0 0 .4.08H26.7a1 1 0 0 0 1-.71L32 7.59a1 1 0 0 0-.2-.92zM12.15 29.35A1.37 1.37 0 1 1 13.52 28a1.37 1.37 0 0 1-1.37 1.35zm11.29 0A1.37 1.37 0 1 1 24.81 28a1.37 1.37 0 0 1-1.37 1.35z" transform="translate(0 -.94)"/></g></svg>