<svg id="Layer_1" data-name="Layer 1" xmlns="http://www.w3.org/2000/svg" viewBox="0 0 24 24"><defs><style>.cls-1{fill:none}.cls-2{clip-path:url(#clip-path)}.cls-3{fill:#c6c5ca}</style><clipPath id="clip-path"><path class="cls-1" d="M0 0h24v24H0z"/></clipPath></defs><title>telephone</title><g class="cls-2"><path class="cls-3" d="M23.38 17.7l-3-3a2.11 2.11 0 0 0-3 0l-1.36 1.36a1.6 1.6 0 0 1-2.26 0l-5.84-5.87a1.6 1.6 0 0 1 0-2.26l1.36-1.36a2.11 2.11 0 0 0 0-3l-3-3a2.11 2.11 0 0 0-3 0L2.23 1.69a7.62 7.62 0 0 0 0 10.76l9.31 9.32a7.6 7.6 0 0 0 10.76 0l1.09-1.08a2.11 2.11 0 0 0-.01-2.99zM4.3 1.61a.7.7 0 0 1 1 0l3 3a.7.7 0 0 1 0 1l-.5.5-4-4zm8.23 19.16l-9.31-9.31a6.18 6.18 0 0 1-.39-8.34l4 4a3 3 0 0 0 .13 4.11l5.88 5.88a3 3 0 0 0 4.11.13l4 4a6.17 6.17 0 0 1-8.42-.46zm9.85-1.09l-.5.5-4-4 .5-.5a.7.7 0 0 1 1 0l3 3a.7.7 0 0 1 .01 1.01z"/></g></svg>