<svg id="Layer_1" data-name="Layer 1" xmlns="http://www.w3.org/2000/svg" viewBox="0 0 24 24"><defs><style>.cls-1{fill:#c6c5ca}</style></defs><title>user</title><path class="cls-1" d="M12 16.5c3.72 0 6.75-3.7 6.75-8.25S15.72 0 12 0a6.17 6.17 0 0 0-4.83 2.48 9.23 9.23 0 0 0-1.92 5.77c0 4.55 3.03 8.25 6.75 8.25zm0-15c2.89 0 5.25 3 5.25 6.75S14.89 15 12 15s-5.25-3-5.25-6.75S9.1 1.5 12 1.5zM17.25 15a.75.75 0 0 0 0 1.5 5.26 5.26 0 0 1 5.25 5.25.75.75 0 0 1-.75.75H2.25a.75.75 0 0 1-.75-.75 5.26 5.26 0 0 1 5.25-5.25.75.75 0 0 0 0-1.5A6.76 6.76 0 0 0 0 21.75 2.25 2.25 0 0 0 2.25 24h19.5A2.25 2.25 0 0 0 24 21.75 6.76 6.76 0 0 0 17.25 15z"/></svg>