<svg xmlns="http://www.w3.org/2000/svg" xmlns:xlink="http://www.w3.org/1999/xlink" height="791" viewBox="0 0 40 791" width="40"><svg height="32" viewBox="0 0 32 32" width="32" x="4" y="4"><title>inst</title><path d="M20.67 16.6a4.83 4.83 0 0 1-9.66 0 4.58 4.58 0 0 1 .2-1.34L10 15v6.8a.42.42 0 0 0 .49.49h10.68a.42.42 0 0 0 .49-.49V15l-1.19.26a4.57 4.57 0 0 1 .2 1.34z" fill="#fff"/><path d="M13 16a3.12 3.12 0 0 1 6.24 0A3.12 3.12 0 0 1 13 16z" fill="#fff"/><path d="M32 16A16 16 0 1 1 16 0a16 16 0 0 1 16 16zm-8.23-5.83a1.9 1.9 0 0 0-1.86-1.94H10.17a1.9 1.9 0 0 0-1.94 1.86v11.74a1.9 1.9 0 0 0 1.94 1.94h11.66a1.9 1.9 0 0 0 1.94-1.86V10.17z" fill="#fff"/><path d="M21.43 10h-1.94a.5.5 0 0 0-.49.49v1.94a.49.49 0 0 0 .49.49h1.94a.5.5 0 0 0 .49-.49v-1.94a.5.5 0 0 0-.49-.49z" fill="#fff"/></svg><svg height="32" viewBox="0 0 32 32" width="32" x="4" y="40"><title>page-footer__about-tw</title><path d="M32 16A16 16 0 1 1 16 0a16 16 0 0 1 16 16zm-8.08-5.17c-1 .37-1.19.32-.67-.24a3.55 3.55 0 0 0 .83-1.33.77.77 0 0 0-.39.14 7 7 0 0 1-1.08.42l-.67.18-.6-.41a5 5 0 0 0-1-.54 4.22 4.22 0 0 0-2.15 0 3.56 3.56 0 0 0-2.4 3.58v.6l-.61-.07a9.93 9.93 0 0 1-5.85-2.88l-.81-.73-.21.6a3.58 3.58 0 0 0 .76 3.67c.49.53.38.6-.47.29A1.62 1.62 0 0 0 8 14a4.45 4.45 0 0 0 .44 1.67 4 4 0 0 0 1.68 1.59l.6.28h-.71c-.69 0-.71 0-.64.27a3.75 3.75 0 0 0 2.3 2l.76.26-.66.39a6.76 6.76 0 0 1-3.29.92 4.39 4.39 0 0 0-1 .1 9.36 9.36 0 0 0 2.37 1.1 10.39 10.39 0 0 0 8.06-.92A10.75 10.75 0 0 0 22 16.87a12.83 12.83 0 0 0 .84-3.73c0-.57 0-.64.72-1.33a7.26 7.26 0 0 0 .86-1c.12-.24.11-.24-.52 0z" fill="#454545"/></svg><svg height="32" viewBox="0 0 32 32" width="32" x="4" y="76"><title>page-footer__about-sk</title><path d="M14.72 14.44c-2.27-.56-1-2.54.81-2.51s2.69 2 3.5 1.85 1.5-1.34.23-2.45A5.74 5.74 0 0 0 14.62 10a3.67 3.67 0 0 0-3.47 3.41C11 15.6 13.46 16.69 15.43 17c1.39.2 3.28.89 2.14 2.21s-3 .46-3.53.13-1.1-1.52-2.08-1.45-1.45 1.37-.25 2.51 2.23 1.59 4.73 1.46 4.73-2.39 3.86-4.5S17 15 14.72 14.44z" fill="#454545"/><path d="M32 16A16 16 0 1 1 16 0a16 16 0 0 1 16 16zm-7.46 3.79a4.7 4.7 0 0 0-.81-2.67 7.9 7.9 0 0 0-9-8.89 4.62 4.62 0 0 0-2.56-.77 4.7 4.7 0 0 0-4.68 4.72 4.73 4.73 0 0 0 .75 2.58 7.88 7.88 0 0 0 9.18 9 4.7 4.7 0 0 0 7.12-3.97z" fill="#454545"/></svg><svg height="32" viewBox="0 0 32 32" width="32" x="4" y="112"><title>fb</title><path d="M32 16A16 16 0 1 1 16 0a16 16 0 0 1 16 16zm-12.21-2.8h-2.54v-1.4c0-.73.07-1.12 1.12-1.12h1.4v-2.8h-2.24c-2.69 0-3.64 1.36-3.64 3.64v1.68h-1.67V16h1.67v8.12h3.36V16h2.24z" fill="#fff"/></svg><svg height="32" viewBox="0 0 32 32" width="32" x="4" y="148"><title>page-footer__about-inst</title><path d="M20.67 16.6a4.83 4.83 0 0 1-9.66 0 4.57 4.57 0 0 1 .2-1.34L10 15v6.8a.42.42 0 0 0 .49.49h10.68a.42.42 0 0 0 .49-.49V15l-1.19.26a4.58 4.58 0 0 1 .2 1.34z" fill="#454545"/><path d="M13 16a3.12 3.12 0 0 1 6.24 0A3.12 3.12 0 0 1 13 16z" fill="#454545"/><path d="M32 16A16 16 0 1 1 16 0a16 16 0 0 1 16 16zm-8.23-5.83a1.9 1.9 0 0 0-1.86-1.94H10.17a1.9 1.9 0 0 0-1.94 1.86v11.74a1.9 1.9 0 0 0 1.94 1.94h11.66a1.9 1.9 0 0 0 1.94-1.86V10.17z" fill="#454545"/><path d="M21.43 10h-1.94a.5.5 0 0 0-.49.49v1.94a.49.49 0 0 0 .49.49h1.94a.5.5 0 0 0 .49-.49v-1.94a.5.5 0 0 0-.49-.49z" fill="#454545"/></svg><svg height="32" viewBox="0 0 32 32" width="32" x="4" y="184"><title>page-footer__about-fb</title><path d="M32 16A16 16 0 1 1 16 0a16 16 0 0 1 16 16zm-12.21-2.8h-2.54v-1.4c0-.73.07-1.12 1.12-1.12h1.4v-2.8h-2.24c-2.69 0-3.64 1.36-3.64 3.64v1.68h-1.67V16h1.67v8.12h3.36V16h2.24z" fill="#454545"/></svg><svg height="32" viewBox="0 0 32 32" width="32" x="4" y="220"><title>sk</title><path d="M14.72 14.44c-2.27-.56-1-2.54.81-2.51s2.69 1.95 3.5 1.85 1.5-1.34.23-2.45A5.74 5.74 0 0 0 14.62 10a3.67 3.67 0 0 0-3.47 3.41C11 15.6 13.46 16.69 15.43 17c1.39.2 3.28.89 2.14 2.21s-3 .46-3.53.13-1.1-1.52-2.08-1.45-1.45 1.37-.25 2.51 2.23 1.59 4.73 1.46 4.73-2.39 3.86-4.5S17 15 14.72 14.44z" fill="#fff"/><path d="M32 16A16 16 0 1 1 16 0a16 16 0 0 1 16 16zm-7.46 3.79a4.7 4.7 0 0 0-.81-2.67 7.9 7.9 0 0 0-9-8.89 4.62 4.62 0 0 0-2.56-.77 4.7 4.7 0 0 0-4.68 4.72 4.73 4.73 0 0 0 .75 2.58 7.88 7.88 0 0 0 9.18 9 4.7 4.7 0 0 0 7.15-4z" fill="#fff"/></svg><svg height="32" viewBox="0 0 32 32" width="32" x="4" y="256"><title>tw</title><path d="M32 16A16 16 0 1 1 16 0a16 16 0 0 1 16 16zm-8.08-5.17c-1 .37-1.19.32-.67-.24a3.55 3.55 0 0 0 .83-1.33.77.77 0 0 0-.39.14 7 7 0 0 1-1.08.42l-.67.18-.6-.41a5 5 0 0 0-1-.54 4.22 4.22 0 0 0-2.15.05 3.56 3.56 0 0 0-2.4 3.58v.6l-.61-.07a9.93 9.93 0 0 1-5.85-2.88l-.81-.78-.21.6a3.58 3.58 0 0 0 .76 3.67c.49.53.38.6-.47.29A1.61 1.61 0 0 0 8 14a4.45 4.45 0 0 0 .44 1.67 4 4 0 0 0 1.68 1.59l.6.28h-.71c-.69 0-.71 0-.64.27a3.75 3.75 0 0 0 2.3 2l.76.26-.66.39a6.76 6.76 0 0 1-3.29.92 4.4 4.4 0 0 0-1 .1 9.35 9.35 0 0 0 2.37 1.1 10.39 10.39 0 0 0 8.06-.92A10.75 10.75 0 0 0 22 16.87a12.83 12.83 0 0 0 .84-3.73c0-.57 0-.64.72-1.33a7.26 7.26 0 0 0 .86-.95c.12-.24.11-.24-.52 0z" fill="#fff"/></svg><svg height="24.02" viewBox="0 0 29 25" width="28.49" x="4" y="292"><title>calendarOut</title><path d="M17.75 2.37h2.63a2.13 2.13 0 0 1 2.13 2.13v5.66l5.6 5.09-5.6 5.39v-3.08H9.38m-2-15.19h6.8" fill="none" stroke="#bf0112" stroke-linecap="round" stroke-linejoin="round" stroke-width=".75"/><path d="M19.51 23.64h-17a2.13 2.13 0 0 1-2.13-2.12v-17a2.13 2.13 0 0 1 2.13-2.15h2.06" fill="none" stroke="#bf0112" stroke-linecap="round" stroke-linejoin="round" stroke-width=".75"/><path d="M5.38 1.37a1 1 0 0 1 1-1h.75a1 1 0 0 1 1 1v3.79a1 1 0 0 1-1 1h-.75a1 1 0 0 1-1-1V1.37zm9 0a1 1 0 0 1 1-1h.75a1 1 0 0 1 1 1v3.79a1 1 0 0 1-1 1h-.75a1 1 0 0 1-1-1V1.37z" fill="none" stroke="#bf0112" stroke-linecap="round" stroke-linejoin="round" stroke-width=".75"/><path d="M.38 8.37h21.27" fill="none" stroke="#bf0112" stroke-linejoin="round" stroke-width=".75"/></svg><svg height="27.37" viewBox="0 0 24 28" width="23.73" x="4" y="321"><title>direction</title><path d="M14.37 13.37a3 3 0 1 1 3 3 3 3 0 0 1-3-3z" fill="none" stroke="#bf0112" stroke-linecap="round" stroke-linejoin="round" stroke-width=".75"/><path d="M23.37 12.87a6.49 6.49 0 1 0-11.49 4.12l5 7.9 5-7.9a6.5 6.5 0 0 0 1.49-4.12zm-18-6.74A2.77 2.77 0 1 1 8.14 8.9a2.76 2.76 0 0 1-2.77-2.77z" fill="none" stroke="#bf0112" stroke-linecap="round" stroke-linejoin="round" stroke-width=".75"/><path d="M14.37 7.07a6 6 0 1 0-10.67 3l4.67 7.42 2.52-4" fill="none" stroke="#bf0112" stroke-linecap="round" stroke-linejoin="round" stroke-width=".75"/><path d="M8.27 19.37c-4.39 0-7.9 1.71-7.9 3.82S3.92 27 8.27 27h8.72" fill="none" stroke="#bf0112" stroke-linecap="round" stroke-linejoin="round" stroke-width=".75" stroke-dasharray="2"/></svg><svg height="18.91" viewBox="0 0 28 19" width="27.05" x="4" y="353"><title>cost</title><path d="M26.62 6.66V.37h-6.08a.67.67 0 0 1-.59.36.66.66 0 0 1-.58-.36h-19v6.29a2.8 2.8 0 0 1 0 5.58v6.29h19a.67.67 0 0 1 .59-.36.66.66 0 0 1 .59.36h6.12v-6.29a2.79 2.79 0 1 1 0-5.58z" fill="none" stroke="#bf0112" stroke-linecap="round" stroke-linejoin="round" stroke-width=".75"/><path d="M19.37.37v17.46" fill="none" stroke="#bf0112" stroke-linecap="round" stroke-linejoin="round" stroke-width=".75" stroke-dasharray="2"/><path d="M6.37 6.37h9.26m-9.26 3h9.26m-9.26 4h9.26" fill="none" stroke="#bf0112" stroke-linecap="round" stroke-linejoin="round" stroke-width=".75"/></svg><svg height="27" viewBox="0 0 27 27" width="27" x="4" y="376"><title>form-tour-avia</title><path d="M27 11.81v2.53a.85.85 0 0 1-.84.85h-9.89l-.63 5.69L18.25 23a.83.83 0 0 1 .31.66v.84a.85.85 0 0 1-.84.84h-2.59A1.81 1.81 0 0 1 13.5 27a1.8 1.8 0 0 1-1.63-1.69H9.28a.85.85 0 0 1-.84-.84v-.84a.83.83 0 0 1 .31-.63l2.61-2.09-.63-5.69H.84a.85.85 0 0 1-.84-.88v-2.11a.84.84 0 0 1 .51-.77l9.35-4L9.71 6c0-.35-.23-3.29 1.29-4.94A3.31 3.31 0 0 1 13.5 0 3.31 3.31 0 0 1 16 1.06c1.52 1.65 1.32 4.59 1.29 4.94l-.14 1.3 9.32 3.7a.85.85 0 0 1 .53.78zm-26.16.85h9.61L10 8.28l-9.12 4v.43zm9.7.84H.84v.84h9.8zm1.22 11l-.29-2.6-2.19 1.73v.84h2.48zm3.77-2.6l-.29 2.6h2.48v-.87zm.92-16c0-.22.2-2.89-1.07-4.27A2.45 2.45 0 0 0 13.5.84a2.45 2.45 0 0 0-1.88.79C10.34 3 10.53 5.7 10.55 5.92l2.1 18.95c0 .46.27 1.29.85 1.29s.8-.82.84-1.25zm9.71 7.6h-9.7l-.1.84h9.8v-.84zm0-1.69l-9.11-3.64-.5 4.49h9.61v-.85z" fill="#bf0112"/></svg><svg height="26.53" viewBox="0 0 20 27" width="19.9" x="4" y="407"><title>form-tour-mark</title><path d="M19.9 10a11.15 11.15 0 0 1-2.19 6.22l-7.09 10a.8.8 0 0 1-.67.35.84.84 0 0 1-.68-.35l-7.09-10A11.75 11.75 0 0 1 0 9.95a9.95 9.95 0 0 1 19.9 0zm-.83 0A9.12 9.12 0 0 0 .83 10c0 2.4 1.44 4.75 2.45 6.22l6.67 9.11 6.66-9.11c.91-1.34 2.45-3.82 2.45-6.22z" fill="#bf0112"/><path d="M14.29 9.14A4.15 4.15 0 1 1 10.14 5a4.15 4.15 0 0 1 4.15 4.14zm-.83 0a3.31 3.31 0 1 0-6.62 0 3.31 3.31 0 0 0 6.62 0z" fill="#bf0112"/><path d="M15.61 9.8A5.81 5.81 0 1 1 9.8 4a5.81 5.81 0 0 1 5.81 5.8zm-.83 0a5 5 0 0 0-10 0 5 5 0 0 0 10 0z" fill="#bf0112"/></svg><svg height="26.35" viewBox="0 0 18 27" width="17.15" x="4" y="438"><title>header-order</title><path d="M12 17a5.4 5.4 0 0 1 5.14 5.13V26a.38.38 0 0 1-.37.32.39.39 0 0 1-.37-.32v-3.86a4.67 4.67 0 0 0-4.72-4.39v3.55a.38.38 0 0 1-.59.3l-1-.69-1.33 1.22v3.8a.38.38 0 1 1-.75 0H8v-3.76l-1.32-1.22-1 .69a.38.38 0 0 1-.59-.3v-3.55a4.61 4.61 0 0 0-4.34 4.35V26A.38.38 0 1 1 0 26v-3.86a5.32 5.32 0 0 1 4.57-5 6.08 6.08 0 0 1-2.21-3.92 1.18 1.18 0 0 1-.52.13H1.4a1.16 1.16 0 0 1-1.1-.88.37.37 0 0 1-.07-.2V6.69A6.72 6.72 0 0 1 7 0h2.69a6.72 6.72 0 0 1 6.71 6.69v6.12a2.06 2.06 0 0 1-2 2h-.66A6.68 6.68 0 0 1 12 17zm3.68-8a.42.42 0 0 0-.42-.42h-.43a.42.42 0 0 0-.42.42v3.09a.41.41 0 0 0 .42.42h.44a.42.42 0 0 0 .42-.42V9zm-2-2.29a3.65 3.65 0 0 0-3.64-3.64H6.72a3.65 3.65 0 0 0-3.64 3.66v1.79C6.8 9.13 9.36 8 10.8 5.08a.39.39 0 0 1 .27-.2.4.4 0 0 1 .33.1l2.29 2.29v-.54zM3 12a5.49 5.49 0 0 0 2.4 4.77l.35.23a5.41 5.41 0 0 0 2.54.73h.1a4.8 4.8 0 0 0 2.33-.73l.28-.13a6.17 6.17 0 0 0 1.87-2H9.55a.38.38 0 0 1-.32-.37.39.39 0 0 1 .32-.38h3.69a5.5 5.5 0 0 0 .41-2.12V8.34l-2.44-2.48A6.75 6.75 0 0 1 4.9 9.43a12.58 12.58 0 0 1-1.84-.16zm11.4 2.11a1.3 1.3 0 0 0 1.22-.93 1.28 1.28 0 0 1-.34.07h-.44a1.08 1.08 0 0 1-.53-.14 5.83 5.83 0 0 1-.24 1h.33zM1 7.95a1 1 0 0 1 .4-.09h.46a1 1 0 0 1 .42.09V6.73a4.4 4.4 0 0 1 4.39-4.39H10a4.4 4.4 0 0 1 4.45 4.35v1.25a1 1 0 0 1 .42-.09h.44a1 1 0 0 1 .42.09V6.69a6 6 0 0 0-6-5.94H7a6 6 0 0 0-6 5.94zm1.28 4.18V9a.42.42 0 0 0-.42-.42H1.4A.41.41 0 0 0 1 9v3.09a.42.42 0 0 0 .42.42h.45a.41.41 0 0 0 .42-.42zm3.59 8.44L8 19v-.55a6.07 6.07 0 0 1-2.13-.57v2.69zm3.59-.11l-1.09-.78-1.08.78 1.08 1zm1.41-2.67a5.7 5.7 0 0 1-2.13.66V19l2.13 1.54v-2.75z" fill="#bf0112"/></svg><svg height="26.12" viewBox="0 0 17 27" width="16.49" x="4" y="469"><title>tel</title><path d="M15.66.83a2.79 2.79 0 0 1 .83 2V23.3a2.82 2.82 0 0 1-2.82 2.82H2.82A2.83 2.83 0 0 1 0 23.31V2.82a2.79 2.79 0 0 1 .83-2 2.8 2.8 0 0 1 2-.83h10.84a2.79 2.79 0 0 1 1.99.84zM.73 21.23h15V4h-15v17.23zm0-18.45v.45h15v-.41A2.07 2.07 0 0 0 13.66.75H2.82A2.07 2.07 0 0 0 .74 2.78zm14.4 22a2.06 2.06 0 0 0 .61-1.46V22h-15v1.3a2.07 2.07 0 0 0 2.07 2.07h10.86a2.07 2.07 0 0 0 1.47-.6z" fill="#bf0112"/></svg><svg height="26.02" viewBox="0 0 22 27" width="21.04" x="4" y="500"><title>passangers</title><path d="M5.37 10.37c0 2.42 1.88 6.84 4.95 6.84s4.95-4.37 4.95-6.84m-2.09 9c0 1.09-1.3 2-2.91 2s-2.9-.91-2.9-2" fill="none" stroke="#bf0112" stroke-miterlimit="50" stroke-width=".75"/><path d="M5.51 10.56C2.89 5.37 4.93.37 10.16.37c1.81 0 3.49 1 3.49 2.87a3.9 3.9 0 0 1-2.64 3.57c-1.64.42-6.17-.96-5.5 3.75z" fill="none" stroke="#bf0112" stroke-linejoin="round" stroke-width=".75"/><path d="M7.37 16.37v3.39m6-3.39v3.39" fill="none" stroke="#bf0112" stroke-linecap="round" stroke-miterlimit="50" stroke-width=".75"/><path d="M13.37 5.71c1.41.57 2.52 2.34 2.52 5.41 1.66-1.75 2.73-8.53-1.75-8.75" fill="none" stroke="#bf0112" stroke-miterlimit="50" stroke-width=".75"/><path d="M7.5 19.37l-3.48.91a4.37 4.37 0 0 0-3.17 3.53L.37 25.6m13-6.23l3.64.94a4.4 4.4 0 0 1 3.17 3.54l.48 1.79" fill="none" stroke="#bf0112" stroke-linecap="round" stroke-miterlimit="50" stroke-width=".75"/></svg><svg height="24.86" viewBox="0 0 25 25" width="24.39" x="4" y="531"><title>calendarTo</title><path d="M17.37 3.37H20a2.12 2.12 0 0 1 2.12 2.12v5.63M7.37 3.37h6.78m5.22 21.11H2.49a2.12 2.12 0 0 1-2.12-2.11V5.49a2.12 2.12 0 0 1 2.12-2.12h2.05" fill="none" stroke="#bf0112" stroke-linecap="round" stroke-linejoin="round" stroke-width=".75"/><path d="M2.37 24.3H19.3a2.11 2.11 0 0 0 2.12-2.11v-2.82m-16.05-18a1 1 0 0 1 1-1h.74a1 1 0 0 1 1 1v3.76a1 1 0 0 1-1 1h-.74a1 1 0 0 1-1-1V1.37zm9 0a1 1 0 0 1 1-1h.74a1 1 0 0 1 1 1v3.76a1 1 0 0 1-1 1h-.74a1 1 0 0 1-1-1V1.37z" fill="none" stroke="#bf0112" stroke-linecap="round" stroke-linejoin="round" stroke-width=".75"/><path d="M.37 8.37h21.17" fill="none" stroke="#bf0112" stroke-linejoin="round" stroke-width=".75"/><path d="M10.94 11.37l-5.57 5.07 5.57 5.36v-3.06h13.07" fill="none" stroke="#bf0112" stroke-linecap="round" stroke-linejoin="round" stroke-width=".75"/></svg><svg height="24.8" viewBox="0 0 17 25" width="16.45" x="4" y="560"><title>contacts-tel</title><path d="M.38 5.38a5.13 5.13 0 0 1 1.69-3.85c.32-.3.66-.57 1-.86a1.1 1.1 0 0 1 1.56.07 3.71 3.71 0 0 1 .42.46 9.74 9.74 0 0 1 1.33 2.38 1.59 1.59 0 0 1-.39 1.8c-.32.29-.67.58-1 .84a1.26 1.26 0 0 0-.5 1.39 4.39 4.39 0 0 0 .77 1.6 14 14 0 0 0 2.12 2.43 4.28 4.28 0 0 0 1.38.9 1.28 1.28 0 0 0 1.45-.31c.32-.31.64-.62 1-.9a1.58 1.58 0 0 1 1.85-.17 6.75 6.75 0 0 1 1.49 1.1 5.37 5.37 0 0 1 1 1.08 1.1 1.1 0 0 1-.09 1.5c-.41.39-.84.77-1.29 1.12a5 5 0 0 1-3.48.94 7.25 7.25 0 0 1-3.15-1.1 15.44 15.44 0 0 1-3.48-3 19.65 19.65 0 0 1-2.21-2.94 9.85 9.85 0 0 1-1.26-3C.5 6.38.45 5.92.38 5.38zm13.84 11s3.13 2.57 1.28 4.21c-2.53 2.23-6-1.82-7.61.14-1.37 1.58.49 3.7.49 3.7" fill="none" stroke="#bf0112" stroke-linecap="round" stroke-linejoin="round" stroke-width=".75"/></svg><svg height="24.8" viewBox="0 0 17 25" width="16.45" x="4" y="589"><title>page-footer-about-tel</title><path d="M.38 5.38a5.13 5.13 0 0 1 1.69-3.85c.32-.3.66-.57 1-.86a1.1 1.1 0 0 1 1.56.07 3.71 3.71 0 0 1 .42.46 9.74 9.74 0 0 1 1.33 2.38 1.59 1.59 0 0 1-.39 1.8c-.32.29-.67.58-1 .84a1.26 1.26 0 0 0-.5 1.39 4.39 4.39 0 0 0 .77 1.6 14 14 0 0 0 2.12 2.43 4.28 4.28 0 0 0 1.38.9 1.28 1.28 0 0 0 1.45-.31c.32-.31.64-.62 1-.9a1.58 1.58 0 0 1 1.85-.17 6.75 6.75 0 0 1 1.49 1.1 5.37 5.37 0 0 1 1 1.08 1.1 1.1 0 0 1-.09 1.5c-.41.39-.84.77-1.29 1.12a5 5 0 0 1-3.48.94 7.25 7.25 0 0 1-3.15-1.1 15.44 15.44 0 0 1-3.48-3 19.65 19.65 0 0 1-2.21-2.94 9.85 9.85 0 0 1-1.26-3C.5 6.38.45 5.92.38 5.38zm13.84 11s3.13 2.57 1.28 4.21c-2.53 2.23-6-1.82-7.61.14-1.37 1.58.49 3.7.49 3.7" fill="none" stroke="#fff" stroke-linecap="round" stroke-linejoin="round" stroke-width=".75"/></svg><svg height="24.49" viewBox="0 0 25 25" width="24.49" x="4" y="618"><title>form-tour-earth</title><path d="M24.49 12.24A12.245 12.245 0 0 1 0 12.25a12.245 12.245 0 1 1 24.49-.01zm-14.4-9.35a1.42 1.42 0 0 0-.3.2 2.22 2.22 0 0 1-.27.19.38.38 0 0 0-.2.2l.1.12a1 1 0 0 1 .28.7 1.34 1.34 0 0 1-.4.9 1 1 0 0 1-.3.2v.04a1.07 1.07 0 0 0-.19.39 2.13 2.13 0 0 1 .1.52 5.61 5.61 0 0 1 .8.43h1.03c.11 0 .22 0 .38.07a1.3 1.3 0 0 1 .46.26.39.39 0 0 0 .17.1.29.29 0 0 0 .17-.08 1.14 1.14 0 0 1 .4-.2A2.22 2.22 0 0 1 13 7a1.52 1.52 0 0 0 .43 0 1.32 1.32 0 0 1 .5-.16h.15a1.36 1.36 0 0 1 .35.09.34.34 0 0 0 .14 0 2.88 2.88 0 0 0 .54-.35 1.45 1.45 0 0 1 .41-.25l.17-.09.18-.14a1.86 1.86 0 0 1 .55-.33 1.58 1.58 0 0 1 1.06-.08 1.55 1.55 0 0 1 .78.62l.12.15.13.14a.51.51 0 0 0 .15.15.4.4 0 0 0 .24 0 1.37 1.37 0 0 1 .52 0h.12a1.75 1.75 0 0 1 .36.07l.24.1a1.67 1.67 0 0 1 .65.64 2.17 2.17 0 0 1 .33.89v.14a3.4 3.4 0 0 1 .07.74v.4a1.84 1.84 0 0 1 0 .69 1.46 1.46 0 0 1-.29.56.7.7 0 0 0-.15.26v.08a.61.61 0 0 0 0 .4 2.38 2.38 0 0 1 0 .49.63.63 0 0 1 .41-.21.53.53 0 0 1 .44.26.64.64 0 0 1 .09.46h.1v-.1a1 1 0 0 1 .13-.62.82.82 0 0 1 .56-.38.4.4 0 0 0 .16-.07.56.56 0 0 0 .11-.18A1.22 1.22 0 0 1 23 11a1.24 1.24 0 0 1 .36-.24.23.23 0 0 0 .11-.07v-.11a.82.82 0 0 1 .07-.34 11.47 11.47 0 0 0-6.27-8.32.94.94 0 0 1-.54.07.73.73 0 0 1-.62-.55q-.34-.13-.7-.23a.53.53 0 0 1-.24.11 1.25 1.25 0 0 1-.83-.09 1.1 1.1 0 0 1-.45-.35 12.82 12.82 0 0 0-3 0 1 1 0 0 1 .2.72 1.32 1.32 0 0 1-.39.81l-.07.07a1.74 1.74 0 0 1-.55.44zM1.8 16.74a1.73 1.73 0 0 1 1 .41l.1.09a7.83 7.83 0 0 1 .68.55 5.4 5.4 0 0 0 1.43 1 1.26 1.26 0 0 0 .54-1 4 4 0 0 1 .24-.65 1.07 1.07 0 0 1 1-.57.9.9 0 0 1 .68.41.86.86 0 0 0 .15.17 2.31 2.31 0 0 0 .42.2 2.26 2.26 0 0 1 .61.32 2.1 2.1 0 0 1 .45.44 1.14 1.14 0 0 0 .31.31l.19.14a.59.59 0 0 0 .43.18c.08 0 .12 0 .22-.37a2.53 2.53 0 0 1 .28-.61 2.1 2.1 0 0 0 .15-.3 1.11 1.11 0 0 1 .68-.74 1 1 0 0 1 .29 0 1.24 1.24 0 0 1 1 .93 2.81 2.81 0 0 0 .28.52 4 4 0 0 1 .27.42 1.24 1.24 0 0 0 .3.41.92.92 0 0 0 .59.2 3.43 3.43 0 0 0 .78-.13 5.53 5.53 0 0 1 .76-.07h.38a1.77 1.77 0 0 0 .76-.18l.23-.19c.49-.24.63-.34.59-.47s-.11-.24-.5-.37a.56.56 0 0 0-.36.1 1.51 1.51 0 0 1-.66.19h-.23a2 2 0 0 1-1.06-.71l-.15-.16a1.75 1.75 0 0 1-.32-.51.61.61 0 0 0-.23-.31.52.52 0 0 0-.4 0 1.36 1.36 0 0 1-1 0 1.22 1.22 0 0 1-.55-.7.46.46 0 0 0-.2-.31 1.21 1.21 0 0 0-1 .17l-.19.09a1.18 1.18 0 0 0-.42.35 1.85 1.85 0 0 1-.76.55 3.86 3.86 0 0 1-1.29.28 1.2 1.2 0 0 1-1.22-.74 1.28 1.28 0 0 1 0-1.27.78.78 0 0 1 .66-.33 1.86 1.86 0 0 1 .34 0 .92.92 0 0 0 .36 0 3.42 3.42 0 0 0 .7-.29l.42-.19a2 2 0 0 1 .56-.16h.13-.18l-.35-.1h-.13a2.64 2.64 0 0 0-.52.08 1 1 0 0 1-1-.11.58.58 0 0 1-.14-.49.84.84 0 0 1 .83-.65h.19a.51.51 0 0 0-.32-.33 1 1 0 0 0-.24.07 1.41 1.41 0 0 1-.72.12 2.26 2.26 0 0 1-1.11-.52 3.58 3.58 0 0 0-.43-.29 4.05 4.05 0 0 1-.51-.35 1.85 1.85 0 0 0-.67-.38 2.82 2.82 0 0 0-1.23 0h-.43a1 1 0 0 0-.57.15.66.66 0 0 0-.22.45 1.92 1.92 0 0 1-.34.76 2.62 2.62 0 0 1-.53.46 1.48 1.48 0 0 0-.36.3 3.26 3.26 0 0 0-.37.54 11.46 11.46 0 0 0 .86 3.25h.07zm21.92-4.5v-.84a.29.29 0 0 0-.13.08.56.56 0 0 0-.11.19 1.36 1.36 0 0 1-.27.41 1 1 0 0 1-.49.25.73.73 0 0 0-.12 0 .3.3 0 0 0 0 .2v.3a1 1 0 0 1-1 .63.62.62 0 0 1-.61-.37 1 1 0 0 1-.29.21h-.26a.44.44 0 0 1-.31-.13 1.24 1.24 0 0 1-.13-.83 2.91 2.91 0 0 0 0-.44 1.48 1.48 0 0 1 0-.8V11a1.73 1.73 0 0 1 .28-.53.6.6 0 0 0 .16-.27 1 1 0 0 0 0-.43v-.45a3.23 3.23 0 0 0-.06-.61v-.14a1.58 1.58 0 0 0-.23-.57.94.94 0 0 0-.37-.39h-.47a.8.8 0 0 0-.26 0 1.2 1.2 0 0 1-.76-.07 1.31 1.31 0 0 1-.38-.35L17.82 7l-.18-.23a.49.49 0 0 0-.14-.17.63.63 0 0 0-.26-.16.79.79 0 0 0-.56.07 1.17 1.17 0 0 0-.31.2 2.1 2.1 0 0 1-.51.33.74.74 0 0 0-.23.14 2.52 2.52 0 0 1-1.06.53 1.1 1.1 0 0 1-.44-.1L14 7.54h-.1a.81.81 0 0 1-.25.09 2 2 0 0 1-.65 0 1.26 1.26 0 0 0-.44 0 .43.43 0 0 0-.18.09 1 1 0 0 1-.59.22 1 1 0 0 1-.65-.27l-.19-.12H9.84a.67.67 0 0 1-.46-.06l-.11-.08a2.8 2.8 0 0 0-.34-.21 2.18 2.18 0 0 0-.52-.2l-.31-.07v-.78a.77.77 0 0 1 0-.61 1.86 1.86 0 0 1 .35-.64l.14-.1.1-.08a.62.62 0 0 0 .2-.44.77.77 0 0 0-.11-.15.85.85 0 0 1-.2-.83 1 1 0 0 1 .52-.65l.19-.14a2.47 2.47 0 0 1 .42-.29 1 1 0 0 0 .35-.22l.07-.09a.57.57 0 0 0 .21-.36.48.48 0 0 0-.16-.35l-.12-.2A11.46 11.46 0 0 0 .77 12.24v.07a2.08 2.08 0 0 1 .36-.31 1.84 1.84 0 0 0 .37-.31 1.41 1.41 0 0 0 .19-.47 1.37 1.37 0 0 1 .53-.89 1.71 1.71 0 0 1 .93-.28h.39a3.52 3.52 0 0 1 1.55 0 2.66 2.66 0 0 1 .92.5l.43.3a3.76 3.76 0 0 1 .51.34 1.66 1.66 0 0 0 .76.38.82.82 0 0 0 .29-.07 1.32 1.32 0 0 1 .51-.12.88.88 0 0 1 .42.11 1.16 1.16 0 0 1 .71 1.13.67.67 0 0 1-.1.31A1 1 0 0 1 10 13l.26.07a.93.93 0 0 1 .88.77.82.82 0 0 1-.87.8 1.57 1.57 0 0 0-.36.09l-.41.17a3.92 3.92 0 0 1-.86.35 1.73 1.73 0 0 1-.68 0 .76.76 0 0 0-.21 0c-.11.11-.12.22 0 .54a.45.45 0 0 0 .51.26 3.17 3.17 0 0 0 1-.23 1.07 1.07 0 0 0 .44-.34 2 2 0 0 1 .68-.54l.18-.08a2.5 2.5 0 0 1 1-.31 1.47 1.47 0 0 1 .61.14 1.2 1.2 0 0 1 .58.71.62.62 0 0 0 .2.32.61.61 0 0 0 .41 0 1.32 1.32 0 0 1 1 0 1.34 1.34 0 0 1 .53.64.81.81 0 0 0 .19.31l.15.17a1.31 1.31 0 0 0 .68.49.61.61 0 0 0 .37-.11A1.46 1.46 0 0 1 17 17a1 1 0 0 1 .3 0 1.35 1.35 0 0 1 1 .92 1.26 1.26 0 0 1-1 1.34l-.22.1a2.45 2.45 0 0 1-1 .26 5.39 5.39 0 0 0-1 .18 4.67 4.67 0 0 1-1 .15 1.73 1.73 0 0 1-1.56-1c-.07-.11-.12-.22-.2-.33a3.06 3.06 0 0 1-.38-.62 1.39 1.39 0 0 0-.3-.5.45.45 0 0 0-.22.32 1.75 1.75 0 0 1-.22.43 1.77 1.77 0 0 0-.18.42 1.09 1.09 0 0 1-.85.89 1.27 1.27 0 0 1-1-.33L9 19.15a2.15 2.15 0 0 1-.48-.47 1.07 1.07 0 0 0-.3-.3 1.43 1.43 0 0 0-.44-.23 2.91 2.91 0 0 1-.56-.28 1.15 1.15 0 0 1-.33-.33l-.11-.11a.28.28 0 0 0-.29.19 2.45 2.45 0 0 0-.18.48c-.18.61-.46 1.55-1.32 1.49a4.26 4.26 0 0 1-1.89-1.22l-.59-.5-.14-.09-.27-.16a11.48 11.48 0 0 0 21.62-5.38z" fill="#bf0112"/><path d="M18.32 11.58c.49.72-.16 1.35-.6 1.76l-.17.17a2.86 2.86 0 0 1-1.63.82l-.38.11a2.49 2.49 0 0 1-.78.17A.71.71 0 0 1 14 14a1 1 0 0 1 .61-1 2.19 2.19 0 0 0 .25-.2 2.75 2.75 0 0 1 .62-.41 2.19 2.19 0 0 0 .46-.39 1.18 1.18 0 0 0 .2-.31 1.06 1.06 0 0 1 .68-.68 1.3 1.3 0 0 1 1.5.52zm-.63.42a.52.52 0 0 0-.45-.24.56.56 0 0 0-.21 0 .36.36 0 0 0-.2.27 1.68 1.68 0 0 1-.37.54 2.71 2.71 0 0 1-.62.42 2 2 0 0 0-.46.31 3.19 3.19 0 0 1-.33.25.73.73 0 0 0-.28.26 2 2 0 0 0 .54-.14 4.45 4.45 0 0 1 .45-.13A2.13 2.13 0 0 0 17 13l.18-.17c.49-.46.6-.64.5-.79zm-4.86 8.56a1.34 1.34 0 0 1 0 1.77 1.41 1.41 0 0 1-1 .51.83.83 0 0 1-.58-.23.91.91 0 0 1-.17-1v-.53a.9.9 0 0 1 .52-1 .84.84 0 0 1 .27 0 1.23 1.23 0 0 1 .92.56zm-.6.47a.43.43 0 0 0-.34-.26 1.3 1.3 0 0 0 0 .28 3 3 0 0 1 0 .42 1.66 1.66 0 0 1-.07.35.84.84 0 0 0 0 .23.71.71 0 0 0 .42-.26.59.59 0 0 0 0-.79z" fill="#bf0112"/></svg><svg height="23.77" viewBox="0 0 16 24" width="15.61" x="4" y="647"><title>mark</title><path d="M4.37 7.31a3.92 3.92 0 1 1 3.72 3.72 3.92 3.92 0 0 1-3.72-3.72z" fill="none" stroke="#bf0112" stroke-linecap="round" stroke-linejoin="round" stroke-width=".75"/><path d="M15.16 7.28a6.9 6.9 0 1 0-12.23 4.38l5.33 8.44 5.34-8.44a6.9 6.9 0 0 0 1.56-4.38zM.37 23.4h14.86" fill="none" stroke="#bf0112" stroke-linecap="round" stroke-linejoin="round" stroke-width=".75"/></svg><svg height="23.77" viewBox="0 0 16 24" width="15.61" x="4" y="675"><title>page-footer-about-mark</title><path d="M4.37 7.31a3.92 3.92 0 1 1 3.72 3.72 3.92 3.92 0 0 1-3.72-3.72z" fill="none" stroke="#fff" stroke-linecap="round" stroke-linejoin="round" stroke-width=".75"/><path d="M15.16 7.28a6.9 6.9 0 1 0-12.23 4.38l5.33 8.44 5.34-8.44a6.9 6.9 0 0 0 1.56-4.38zM.37 23.4h14.86" fill="none" stroke="#fff" stroke-linecap="round" stroke-linejoin="round" stroke-width=".75"/></svg><svg height="20.78" viewBox="0 0 21 21" width="20.78" x="4" y="703"><title>watches</title><path d="M.79 14.36A10.39 10.39 0 1 1 14.36 20 10.39 10.39 0 0 1 .79 14.36zm9.6-13.6A9.62 9.62 0 1 0 20 10.34 9.62 9.62 0 0 0 10.39.76z" fill="#bf0112"/><path d="M14.69 10.17h-4.32A.39.39 0 0 1 10 9.8V2.32a.38.38 0 0 1 .38-.32.37.37 0 0 1 .37.32v7.1h4a.38.38 0 0 1 0 .75zm-11.24.58H2.32a.38.38 0 0 1 0-.75h1.13a.38.38 0 0 1 0 .75zm15.06 0h-1.13a.38.38 0 1 1 0-.75h1.13a.38.38 0 0 1 0 .75zm-8.14 8.13a.39.39 0 0 1-.37-.37v-1.13a.38.38 0 1 1 .75 0v1.13a.38.38 0 0 1-.38.37z" fill="#bf0112"/></svg><svg height="14.16" viewBox="0 0 21 15" width="20.74" x="4" y="728"><title>page-footer-about-mail</title><path d="M.38 13.6V.37h20V13.6h-20zm10-5.45L.38.37m20 0l-10 7.78m3 1.22l6.89 4.41m-19.89 0l6.89-4.41" fill="none" stroke="#fff" stroke-linecap="round" stroke-linejoin="round" stroke-width=".75"/></svg><svg height="14.16" viewBox="0 0 21 15" width="20.74" x="4" y="747"><title>mail</title><path d="M.38 13.6V.37h20V13.6h-20zm10-5.45L.38.37m20 0l-10 7.78m3 1.22l6.89 4.41m-19.89 0l6.89-4.41" fill="none" stroke="#bf0112" stroke-linecap="round" stroke-linejoin="round" stroke-width=".75"/></svg><svg height="20.5" viewBox="0 0 21 21" width="20.5" x="4" y="766"><title>header-search</title><path d="M.35 7.42a7.06 7.06 0 1 1 14.12-.06 7.06 7.06 0 0 1-14.12.06z" fill="none" stroke="#bf0112" stroke-miterlimit="50" stroke-width=".7"/><path d="M12.94 12.95L20 20.01" fill="none" stroke="#bf0112" stroke-linecap="square" stroke-miterlimit="50" stroke-width=".7"/></svg></svg>