<svg xmlns="http://www.w3.org/2000/svg" xmlns:xlink="http://www.w3.org/1999/xlink" height="556" viewBox="0 0 40 556" width="40"><svg height="32" viewBox="0 0 32 32" width="32" x="4" y="4"><title>sk</title><path d="M14.72 14.44c-2.27-.56-1-2.54.81-2.51s2.69 1.95 3.5 1.85 1.5-1.34.23-2.45A5.74 5.74 0 0 0 14.62 10a3.67 3.67 0 0 0-3.47 3.41C11 15.6 13.46 16.69 15.43 17c1.39.2 3.28.89 2.14 2.21s-3 .46-3.53.13-1.1-1.52-2.08-1.45-1.45 1.37-.25 2.51 2.23 1.59 4.73 1.46 4.73-2.39 3.86-4.5S17 15 14.72 14.44z" fill="#fff"/><path d="M32 16A16 16 0 1 1 16 0a16 16 0 0 1 16 16zm-7.46 3.79a4.7 4.7 0 0 0-.81-2.67 7.9 7.9 0 0 0-9-8.89 4.62 4.62 0 0 0-2.56-.77 4.7 4.7 0 0 0-4.68 4.72 4.73 4.73 0 0 0 .75 2.58 7.88 7.88 0 0 0 9.18 9 4.7 4.7 0 0 0 7.15-4z" fill="#fff"/></svg><svg height="32" viewBox="0 0 32 32" width="32" x="4" y="40"><title>page-footer__about-inst</title><path d="M20.67 16.6a4.83 4.83 0 0 1-9.66 0 4.57 4.57 0 0 1 .2-1.34L10 15v6.8a.42.42 0 0 0 .49.49h10.68a.42.42 0 0 0 .49-.49V15l-1.19.26a4.58 4.58 0 0 1 .2 1.34z" fill="#454545"/><path d="M13 16a3.12 3.12 0 0 1 6.24 0A3.12 3.12 0 0 1 13 16z" fill="#454545"/><path d="M32 16A16 16 0 1 1 16 0a16 16 0 0 1 16 16zm-8.23-5.83a1.9 1.9 0 0 0-1.86-1.94H10.17a1.9 1.9 0 0 0-1.94 1.86v11.74a1.9 1.9 0 0 0 1.94 1.94h11.66a1.9 1.9 0 0 0 1.94-1.86V10.17z" fill="#454545"/><path d="M21.43 10h-1.94a.5.5 0 0 0-.49.49v1.94a.49.49 0 0 0 .49.49h1.94a.5.5 0 0 0 .49-.49v-1.94a.5.5 0 0 0-.49-.49z" fill="#454545"/></svg><svg height="32" viewBox="0 0 32 32" width="32" x="4" y="76"><title>tw</title><path d="M32 16A16 16 0 1 1 16 0a16 16 0 0 1 16 16zm-8.08-5.17c-1 .37-1.19.32-.67-.24a3.55 3.55 0 0 0 .83-1.33.77.77 0 0 0-.39.14 7 7 0 0 1-1.08.42l-.67.18-.6-.41a5 5 0 0 0-1-.54 4.22 4.22 0 0 0-2.15.05 3.56 3.56 0 0 0-2.4 3.58v.6l-.61-.07a9.93 9.93 0 0 1-5.85-2.88l-.81-.78-.21.6a3.58 3.58 0 0 0 .76 3.67c.49.53.38.6-.47.29A1.61 1.61 0 0 0 8 14a4.45 4.45 0 0 0 .44 1.67 4 4 0 0 0 1.68 1.59l.6.28h-.71c-.69 0-.71 0-.64.27a3.75 3.75 0 0 0 2.3 2l.76.26-.66.39a6.76 6.76 0 0 1-3.29.92 4.4 4.4 0 0 0-1 .1 9.35 9.35 0 0 0 2.37 1.1 10.39 10.39 0 0 0 8.06-.92A10.75 10.75 0 0 0 22 16.87a12.83 12.83 0 0 0 .84-3.73c0-.57 0-.64.72-1.33a7.26 7.26 0 0 0 .86-.95c.12-.24.11-.24-.52 0z" fill="#fff"/></svg><svg height="32" viewBox="0 0 32 32" width="32" x="4" y="112"><title>inst</title><path d="M20.67 16.6a4.83 4.83 0 0 1-9.66 0 4.58 4.58 0 0 1 .2-1.34L10 15v6.8a.42.42 0 0 0 .49.49h10.68a.42.42 0 0 0 .49-.49V15l-1.19.26a4.57 4.57 0 0 1 .2 1.34z" fill="#fff"/><path d="M13 16a3.12 3.12 0 0 1 6.24 0A3.12 3.12 0 0 1 13 16z" fill="#fff"/><path d="M32 16A16 16 0 1 1 16 0a16 16 0 0 1 16 16zm-8.23-5.83a1.9 1.9 0 0 0-1.86-1.94H10.17a1.9 1.9 0 0 0-1.94 1.86v11.74a1.9 1.9 0 0 0 1.94 1.94h11.66a1.9 1.9 0 0 0 1.94-1.86V10.17z" fill="#fff"/><path d="M21.43 10h-1.94a.5.5 0 0 0-.49.49v1.94a.49.49 0 0 0 .49.49h1.94a.5.5 0 0 0 .49-.49v-1.94a.5.5 0 0 0-.49-.49z" fill="#fff"/></svg><svg height="32" viewBox="0 0 32 32" width="32" x="4" y="148"><title>page-footer__about-fb</title><path d="M32 16A16 16 0 1 1 16 0a16 16 0 0 1 16 16zm-12.21-2.8h-2.54v-1.4c0-.73.07-1.12 1.12-1.12h1.4v-2.8h-2.24c-2.69 0-3.64 1.36-3.64 3.64v1.68h-1.67V16h1.67v8.12h3.36V16h2.24z" fill="#454545"/></svg><svg height="32" viewBox="0 0 32 32" width="32" x="4" y="184"><title>fb</title><path d="M32 16A16 16 0 1 1 16 0a16 16 0 0 1 16 16zm-12.21-2.8h-2.54v-1.4c0-.73.07-1.12 1.12-1.12h1.4v-2.8h-2.24c-2.69 0-3.64 1.36-3.64 3.64v1.68h-1.67V16h1.67v8.12h3.36V16h2.24z" fill="#fff"/></svg><svg height="32" viewBox="0 0 32 32" width="32" x="4" y="220"><title>page-footer__about-tw</title><path d="M32 16A16 16 0 1 1 16 0a16 16 0 0 1 16 16zm-8.08-5.17c-1 .37-1.19.32-.67-.24a3.55 3.55 0 0 0 .83-1.33.77.77 0 0 0-.39.14 7 7 0 0 1-1.08.42l-.67.18-.6-.41a5 5 0 0 0-1-.54 4.22 4.22 0 0 0-2.15 0 3.56 3.56 0 0 0-2.4 3.58v.6l-.61-.07a9.93 9.93 0 0 1-5.85-2.88l-.81-.73-.21.6a3.58 3.58 0 0 0 .76 3.67c.49.53.38.6-.47.29A1.62 1.62 0 0 0 8 14a4.45 4.45 0 0 0 .44 1.67 4 4 0 0 0 1.68 1.59l.6.28h-.71c-.69 0-.71 0-.64.27a3.75 3.75 0 0 0 2.3 2l.76.26-.66.39a6.76 6.76 0 0 1-3.29.92 4.39 4.39 0 0 0-1 .1 9.36 9.36 0 0 0 2.37 1.1 10.39 10.39 0 0 0 8.06-.92A10.75 10.75 0 0 0 22 16.87a12.83 12.83 0 0 0 .84-3.73c0-.57 0-.64.72-1.33a7.26 7.26 0 0 0 .86-1c.12-.24.11-.24-.52 0z" fill="#454545"/></svg><svg height="32" viewBox="0 0 32 32" width="32" x="4" y="256"><title>page-footer__about-sk</title><path d="M14.72 14.44c-2.27-.56-1-2.54.81-2.51s2.69 2 3.5 1.85 1.5-1.34.23-2.45A5.74 5.74 0 0 0 14.62 10a3.67 3.67 0 0 0-3.47 3.41C11 15.6 13.46 16.69 15.43 17c1.39.2 3.28.89 2.14 2.21s-3 .46-3.53.13-1.1-1.52-2.08-1.45-1.45 1.37-.25 2.51 2.23 1.59 4.73 1.46 4.73-2.39 3.86-4.5S17 15 14.72 14.44z" fill="#454545"/><path d="M32 16A16 16 0 1 1 16 0a16 16 0 0 1 16 16zm-7.46 3.79a4.7 4.7 0 0 0-.81-2.67 7.9 7.9 0 0 0-9-8.89 4.62 4.62 0 0 0-2.56-.77 4.7 4.7 0 0 0-4.68 4.72 4.73 4.73 0 0 0 .75 2.58 7.88 7.88 0 0 0 9.18 9 4.7 4.7 0 0 0 7.12-3.97z" fill="#454545"/></svg><svg height="26.35" viewBox="0 0 18 27" width="17.15" x="4" y="292"><title>header-order</title><path d="M12 17a5.4 5.4 0 0 1 5.14 5.13V26a.38.38 0 0 1-.37.32.39.39 0 0 1-.37-.32v-3.86a4.67 4.67 0 0 0-4.72-4.39v3.55a.38.38 0 0 1-.59.3l-1-.69-1.33 1.22v3.8a.38.38 0 1 1-.75 0H8v-3.76l-1.32-1.22-1 .69a.38.38 0 0 1-.59-.3v-3.55a4.61 4.61 0 0 0-4.34 4.35V26A.38.38 0 1 1 0 26v-3.86a5.32 5.32 0 0 1 4.57-5 6.08 6.08 0 0 1-2.21-3.92 1.18 1.18 0 0 1-.52.13H1.4a1.16 1.16 0 0 1-1.1-.88.37.37 0 0 1-.07-.2V6.69A6.72 6.72 0 0 1 7 0h2.69a6.72 6.72 0 0 1 6.71 6.69v6.12a2.06 2.06 0 0 1-2 2h-.66A6.68 6.68 0 0 1 12 17zm3.68-8a.42.42 0 0 0-.42-.42h-.43a.42.42 0 0 0-.42.42v3.09a.41.41 0 0 0 .42.42h.44a.42.42 0 0 0 .42-.42V9zm-2-2.29a3.65 3.65 0 0 0-3.64-3.64H6.72a3.65 3.65 0 0 0-3.64 3.66v1.79C6.8 9.13 9.36 8 10.8 5.08a.39.39 0 0 1 .27-.2.4.4 0 0 1 .33.1l2.29 2.29v-.54zM3 12a5.49 5.49 0 0 0 2.4 4.77l.35.23a5.41 5.41 0 0 0 2.54.73h.1a4.8 4.8 0 0 0 2.33-.73l.28-.13a6.17 6.17 0 0 0 1.87-2H9.55a.38.38 0 0 1-.32-.37.39.39 0 0 1 .32-.38h3.69a5.5 5.5 0 0 0 .41-2.12V8.34l-2.44-2.48A6.75 6.75 0 0 1 4.9 9.43a12.58 12.58 0 0 1-1.84-.16zm11.4 2.11a1.3 1.3 0 0 0 1.22-.93 1.28 1.28 0 0 1-.34.07h-.44a1.08 1.08 0 0 1-.53-.14 5.83 5.83 0 0 1-.24 1h.33zM1 7.95a1 1 0 0 1 .4-.09h.46a1 1 0 0 1 .42.09V6.73a4.4 4.4 0 0 1 4.39-4.39H10a4.4 4.4 0 0 1 4.45 4.35v1.25a1 1 0 0 1 .42-.09h.44a1 1 0 0 1 .42.09V6.69a6 6 0 0 0-6-5.94H7a6 6 0 0 0-6 5.94zm1.28 4.18V9a.42.42 0 0 0-.42-.42H1.4A.41.41 0 0 0 1 9v3.09a.42.42 0 0 0 .42.42h.45a.41.41 0 0 0 .42-.42zm3.59 8.44L8 19v-.55a6.07 6.07 0 0 1-2.13-.57v2.69zm3.59-.11l-1.09-.78-1.08.78 1.08 1zm1.41-2.67a5.7 5.7 0 0 1-2.13.66V19l2.13 1.54v-2.75z" fill="#bf0112"/></svg><svg height="26.12" viewBox="0 0 17 27" width="16.49" x="4" y="323"><title>tel</title><path d="M15.66.83a2.79 2.79 0 0 1 .83 2V23.3a2.82 2.82 0 0 1-2.82 2.82H2.82A2.83 2.83 0 0 1 0 23.31V2.82a2.79 2.79 0 0 1 .83-2 2.8 2.8 0 0 1 2-.83h10.84a2.79 2.79 0 0 1 1.99.84zM.73 21.23h15V4h-15v17.23zm0-18.45v.45h15v-.41A2.07 2.07 0 0 0 13.66.75H2.82A2.07 2.07 0 0 0 .74 2.78zm14.4 22a2.06 2.06 0 0 0 .61-1.46V22h-15v1.3a2.07 2.07 0 0 0 2.07 2.07h10.86a2.07 2.07 0 0 0 1.47-.6z" fill="#bf0112"/></svg><svg height="24.8" viewBox="0 0 17 25" width="16.45" x="4" y="354"><title>page-footer-about-tel</title><path d="M.38 5.38a5.13 5.13 0 0 1 1.69-3.85c.32-.3.66-.57 1-.86a1.1 1.1 0 0 1 1.56.07 3.71 3.71 0 0 1 .42.46 9.74 9.74 0 0 1 1.33 2.38 1.59 1.59 0 0 1-.39 1.8c-.32.29-.67.58-1 .84a1.26 1.26 0 0 0-.5 1.39 4.39 4.39 0 0 0 .77 1.6 14 14 0 0 0 2.12 2.43 4.28 4.28 0 0 0 1.38.9 1.28 1.28 0 0 0 1.45-.31c.32-.31.64-.62 1-.9a1.58 1.58 0 0 1 1.85-.17 6.75 6.75 0 0 1 1.49 1.1 5.37 5.37 0 0 1 1 1.08 1.1 1.1 0 0 1-.09 1.5c-.41.39-.84.77-1.29 1.12a5 5 0 0 1-3.48.94 7.25 7.25 0 0 1-3.15-1.1 15.44 15.44 0 0 1-3.48-3 19.65 19.65 0 0 1-2.21-2.94 9.85 9.85 0 0 1-1.26-3C.5 6.38.45 5.92.38 5.38zm13.84 11s3.13 2.57 1.28 4.21c-2.53 2.23-6-1.82-7.61.14-1.37 1.58.49 3.7.49 3.7" fill="none" stroke="#fff" stroke-linecap="round" stroke-linejoin="round" stroke-width=".75"/></svg><svg height="24.8" viewBox="0 0 17 25" width="16.45" x="4" y="383"><title>contacts-tel</title><path d="M.38 5.38a5.13 5.13 0 0 1 1.69-3.85c.32-.3.66-.57 1-.86a1.1 1.1 0 0 1 1.56.07 3.71 3.71 0 0 1 .42.46 9.74 9.74 0 0 1 1.33 2.38 1.59 1.59 0 0 1-.39 1.8c-.32.29-.67.58-1 .84a1.26 1.26 0 0 0-.5 1.39 4.39 4.39 0 0 0 .77 1.6 14 14 0 0 0 2.12 2.43 4.28 4.28 0 0 0 1.38.9 1.28 1.28 0 0 0 1.45-.31c.32-.31.64-.62 1-.9a1.58 1.58 0 0 1 1.85-.17 6.75 6.75 0 0 1 1.49 1.1 5.37 5.37 0 0 1 1 1.08 1.1 1.1 0 0 1-.09 1.5c-.41.39-.84.77-1.29 1.12a5 5 0 0 1-3.48.94 7.25 7.25 0 0 1-3.15-1.1 15.44 15.44 0 0 1-3.48-3 19.65 19.65 0 0 1-2.21-2.94 9.85 9.85 0 0 1-1.26-3C.5 6.38.45 5.92.38 5.38zm13.84 11s3.13 2.57 1.28 4.21c-2.53 2.23-6-1.82-7.61.14-1.37 1.58.49 3.7.49 3.7" fill="none" stroke="#bf0112" stroke-linecap="round" stroke-linejoin="round" stroke-width=".75"/></svg><svg height="23.77" viewBox="0 0 16 24" width="15.61" x="4" y="412"><title>page-footer-about-mark</title><path d="M4.37 7.31a3.92 3.92 0 1 1 3.72 3.72 3.92 3.92 0 0 1-3.72-3.72z" fill="none" stroke="#fff" stroke-linecap="round" stroke-linejoin="round" stroke-width=".75"/><path d="M15.16 7.28a6.9 6.9 0 1 0-12.23 4.38l5.33 8.44 5.34-8.44a6.9 6.9 0 0 0 1.56-4.38zM.37 23.4h14.86" fill="none" stroke="#fff" stroke-linecap="round" stroke-linejoin="round" stroke-width=".75"/></svg><svg height="23.77" viewBox="0 0 16 24" width="15.61" x="4" y="440"><title>mark</title><path d="M4.37 7.31a3.92 3.92 0 1 1 3.72 3.72 3.92 3.92 0 0 1-3.72-3.72z" fill="none" stroke="#bf0112" stroke-linecap="round" stroke-linejoin="round" stroke-width=".75"/><path d="M15.16 7.28a6.9 6.9 0 1 0-12.23 4.38l5.33 8.44 5.34-8.44a6.9 6.9 0 0 0 1.56-4.38zM.37 23.4h14.86" fill="none" stroke="#bf0112" stroke-linecap="round" stroke-linejoin="round" stroke-width=".75"/></svg><svg height="20.78" viewBox="0 0 21 21" width="20.78" x="4" y="468"><title>watches</title><path d="M.79 14.36A10.39 10.39 0 1 1 14.36 20 10.39 10.39 0 0 1 .79 14.36zm9.6-13.6A9.62 9.62 0 1 0 20 10.34 9.62 9.62 0 0 0 10.39.76z" fill="#bf0112"/><path d="M14.69 10.17h-4.32A.39.39 0 0 1 10 9.8V2.32a.38.38 0 0 1 .38-.32.37.37 0 0 1 .37.32v7.1h4a.38.38 0 0 1 0 .75zm-11.24.58H2.32a.38.38 0 0 1 0-.75h1.13a.38.38 0 0 1 0 .75zm15.06 0h-1.13a.38.38 0 1 1 0-.75h1.13a.38.38 0 0 1 0 .75zm-8.14 8.13a.39.39 0 0 1-.37-.37v-1.13a.38.38 0 1 1 .75 0v1.13a.38.38 0 0 1-.38.37z" fill="#bf0112"/></svg><svg height="14.16" viewBox="0 0 21 15" width="20.74" x="4" y="493"><title>page-footer-about-mail</title><path d="M.38 13.6V.37h20V13.6h-20zm10-5.45L.38.37m20 0l-10 7.78m3 1.22l6.89 4.41m-19.89 0l6.89-4.41" fill="none" stroke="#fff" stroke-linecap="round" stroke-linejoin="round" stroke-width=".75"/></svg><svg height="14.16" viewBox="0 0 21 15" width="20.74" x="4" y="512"><title>mail</title><path d="M.38 13.6V.37h20V13.6h-20zm10-5.45L.38.37m20 0l-10 7.78m3 1.22l6.89 4.41m-19.89 0l6.89-4.41" fill="none" stroke="#bf0112" stroke-linecap="round" stroke-linejoin="round" stroke-width=".75"/></svg><svg height="20.5" viewBox="0 0 21 21" width="20.5" x="4" y="531"><title>header-search</title><path d="M.35 7.42a7.06 7.06 0 1 1 14.12-.06 7.06 7.06 0 0 1-14.12.06z" fill="none" stroke="#bf0112" stroke-miterlimit="50" stroke-width=".7"/><path d="M12.94 12.95L20 20.01" fill="none" stroke="#bf0112" stroke-linecap="square" stroke-miterlimit="50" stroke-width=".7"/></svg></svg>