<svg id="Layer_1" data-name="Layer 1" xmlns="http://www.w3.org/2000/svg" viewBox="0 0 60 53.32"><defs><style>.cls-1{fill:#59dbff}.cls-2{fill:#dbf6ff}.cls-3{fill:#fae0eb}.cls-4{fill:#ff55a3}</style></defs><title>bathroom</title><path class="cls-1" d="M25 43.95A27.16 27.16 0 0 0 33.13 37a1 1 0 0 0-.75-1.56H3.4v3.27a1.16 1.16 0 0 0 .32.8 8.82 8.82 0 0 0 3.07 2.08A2.82 2.82 0 0 1 8.4 45a31.56 31.56 0 0 0-1.72 10.43h22.11v-2.24a3.23 3.23 0 0 0-1-2.34 12.65 12.65 0 0 1-3.39-5.56 1.16 1.16 0 0 1 .6-1.34z" transform="translate(0 -3.28)"/><path class="cls-2" d="M14.78 32H29.3a1.68 1.68 0 0 1 1.7 1.71v1.75H13.1v-1.75A1.68 1.68 0 0 1 14.78 32z" transform="translate(0 -3.28)"/><path class="cls-1" d="M5.62 35.46H3.4V14h7.47v16.2a5.26 5.26 0 0 1-5.25 5.26z" transform="translate(0 -3.28)"/><path class="cls-2" d="M3.4 14h7.47v-1.41A3.92 3.92 0 0 0 7 8.66H4.46A1.05 1.05 0 0 0 3.4 9.72zm53.36 8.8H36.18a2.07 2.07 0 0 1-2.07-2.07V6.52a2.07 2.07 0 0 1 2.07-2.07h20.58a2.07 2.07 0 0 1 2.06 2.07v14.21a2.07 2.07 0 0 1-2.06 2.07z" transform="translate(0 -3.28)"/><path class="cls-3" d="M56.2 30.69H36.74v-2.92a1.2 1.2 0 0 1 1.2-1.2H55a1.2 1.2 0 0 1 1.2 1.2z" transform="translate(0 -3.28)"/><path class="cls-4" d="M36.74 30.69A8.44 8.44 0 0 0 40 37.41a8 8 0 0 0 3.6 1.6h5.69a8 8 0 0 0 3.6-1.6 8.44 8.44 0 0 0 3.29-6.72z" transform="translate(0 -3.28)"/><path class="cls-3" d="M47.22 48.34a1.14 1.14 0 0 1-1.5 0 3.71 3.71 0 0 1-1.28-2.8V39h4.06v6.52a3.71 3.71 0 0 1-1.28 2.82z" transform="translate(0 -3.28)"/><path class="cls-2" d="M28.38 51.62H6.86a21 21 0 0 0-.18 3.81h22.11v-2.24a3.25 3.25 0 0 0-.41-1.57z" transform="translate(0 -3.28)"/><path d="M35.1 54.26H30v-1.4a4.43 4.43 0 0 0-.54-1.8v-.05a4.34 4.34 0 0 0-.77-1 11.41 11.41 0 0 1-3.07-5A28.54 28.54 0 0 0 34 37.75a2.13 2.13 0 0 0-1.66-3.47h-.23v-.58a2.85 2.85 0 0 0-2.85-2.85H14.78a2.85 2.85 0 0 0-2.85 2.85v.58h-1.35A6.4 6.4 0 0 0 12 30.2V12.59a5.1 5.1 0 0 0-5-5.1H4.46a2.23 2.23 0 0 0-2.23 2.23v29a2.32 2.32 0 0 0 .64 1.61 10 10 0 0 0 3.49 2.37 1.64 1.64 0 0 1 .92 2 35.08 35.08 0 0 0-1.79 9.59H1.17a1.17 1.17 0 0 0 0 2.34H35.1a1.17 1.17 0 1 0 0-2.34zM14.28 33.71a.51.51 0 0 1 .5-.5H29.3a.51.51 0 0 1 .5.5v.58H14.28zm-9.7-18.53h5.13v15a4.09 4.09 0 0 1-4.09 4.09h-1zm0-5.35H7a2.76 2.76 0 0 1 2.75 2.75v.25H4.58zm3.25 44.43q0-.7.08-1.46h7a1.17 1.17 0 1 0 0-2.34H8.23a40.66 40.66 0 0 1 1.28-5.07 4 4 0 0 0-2.29-4.86 7.66 7.66 0 0 1-2.65-1.79v-2.1h27.37a25.86 25.86 0 0 1-7.5 6.28 2.34 2.34 0 0 0-1.15 2.72 13.64 13.64 0 0 0 2.54 4.82h-1.51a1.17 1.17 0 0 0 0 2.34h3.26v1.35zM56.76 3.28H36.18a3.24 3.24 0 0 0-3.24 3.24v14.21A3.24 3.24 0 0 0 36.18 24h8.44v1.4h-6.68a2.38 2.38 0 0 0-2.37 2.37v2.92a9.66 9.66 0 0 0 3.75 7.65 9.17 9.17 0 0 0 4 1.8v5.39A4.88 4.88 0 0 0 45 49.22a2.33 2.33 0 0 0 3 0 4.88 4.88 0 0 0 1.68-3.69v-5.39a9.17 9.17 0 0 0 4-1.8 9.66 9.66 0 0 0 3.75-7.65v-2.92A2.38 2.38 0 0 0 55 25.4h-8V24h9.8a3.24 3.24 0 0 0 3.2-3.27V6.52a3.24 3.24 0 0 0-3.24-3.24zm-9.43 42.25a2.53 2.53 0 0 1-.86 1.9 2.53 2.53 0 0 1-.86-1.9v-5.34h1.71zm4.88-9.06a6.84 6.84 0 0 1-3 1.36h-5.5a6.84 6.84 0 0 1-3-1.36A7.27 7.27 0 0 1 38 31.86h16.93a7.27 7.27 0 0 1-2.73 4.62zm2.79-8.7v1.75H37.92v-1.75H55zm2.63-7a.89.89 0 0 1-.89.89H47v-3.57a1.18 1.18 0 0 1 2.35 0V20a1.17 1.17 0 1 0 2.34 0v-1.9a3.52 3.52 0 0 0-7 0v3.54h-8.51a.89.89 0 0 1-.89-.89V6.52a.89.89 0 0 1 .89-.89h20.58a.89.89 0 0 1 .89.89z" transform="translate(0 -3.28)"/><path d="M47.21 7.75a1.17 1.17 0 0 0-1.65.14l-6.14 7.29a1.17 1.17 0 1 0 1.79 1.51l6.14-7.29a1.17 1.17 0 0 0-.14-1.65zm-27.58 42.7a1.17 1.17 0 1 0 0 2.34 1.17 1.17 0 0 0 0-2.34z" transform="translate(0 -3.28)"/></svg>