<svg id="Layer_1" data-name="Layer 1" xmlns="http://www.w3.org/2000/svg" viewBox="0 0 66.03 80"><defs><style>.cls-1{fill:#eaeaea}.cls-2{fill:#602f75}.cls-3{fill:#00e7ff}.cls-4{fill:#ffe600}.cls-5{fill:#fff}.cls-6{fill:#ea3457}</style></defs><title>building</title><path class="cls-1" d="M14.7 1.27h38.1v73.65H14.7z" transform="translate(-7.08)"/><path class="cls-2" d="M52.8 76.19H14.7a1.27 1.27 0 0 1-1.27-1.27V1.27A1.27 1.27 0 0 1 14.7 0h38.1a1.27 1.27 0 0 1 1.27 1.27v73.65a1.27 1.27 0 0 1-1.27 1.27zM16 73.65h35.53V2.54H16z" transform="translate(-7.08)"/><path class="cls-3" d="M19.78 6.35h6.35v14h-6.35z" transform="translate(-7.08)"/><path class="cls-2" d="M26.13 21.59h-6.35a1.27 1.27 0 0 1-1.27-1.27v-14a1.27 1.27 0 0 1 1.27-1.27h6.35a1.27 1.27 0 0 1 1.27 1.3v14a1.27 1.27 0 0 1-1.27 1.24zM21.05 19h3.81V7.62h-3.81z" transform="translate(-7.08)"/><path class="cls-3" d="M42.64 6.35H49v14h-6.36z" transform="translate(-7.08)"/><path class="cls-2" d="M49 21.59h-6.36a1.27 1.27 0 0 1-1.27-1.27v-14a1.27 1.27 0 0 1 1.27-1.27H49a1.27 1.27 0 0 1 1.27 1.27v14A1.27 1.27 0 0 1 49 21.59zM43.91 19h3.81V7.62h-3.81z" transform="translate(-7.08)"/><path class="cls-4" d="M31.21 6.35h6.35v14h-6.35z" transform="translate(-7.08)"/><path class="cls-2" d="M37.56 21.59h-6.35a1.27 1.27 0 0 1-1.27-1.27v-14a1.27 1.27 0 0 1 1.27-1.27h6.35a1.27 1.27 0 0 1 1.27 1.27v14a1.27 1.27 0 0 1-1.27 1.27zM32.48 19h3.81V7.62h-3.81z" transform="translate(-7.08)"/><path class="cls-4" d="M19.78 26.67h6.35v14h-6.35z" transform="translate(-7.08)"/><path class="cls-2" d="M26.13 41.9h-6.35a1.27 1.27 0 0 1-1.27-1.27v-14a1.27 1.27 0 0 1 1.27-1.27h6.35a1.27 1.27 0 0 1 1.27 1.27v14a1.27 1.27 0 0 1-1.27 1.27zm-5.08-2.54h3.81V27.94h-3.81z" transform="translate(-7.08)"/><path class="cls-3" d="M19.78 47h6.35v14h-6.35z" transform="translate(-7.08)"/><path class="cls-2" d="M26.13 62.22h-6.35A1.27 1.27 0 0 1 18.51 61V47a1.27 1.27 0 0 1 1.27-1.27h6.35A1.27 1.27 0 0 1 27.4 47v14a1.27 1.27 0 0 1-1.27 1.22zm-5.08-2.54h3.81V48.25h-3.81z" transform="translate(-7.08)"/><path class="cls-5" d="M42.64 47H49v14h-6.36z" transform="translate(-7.08)"/><path class="cls-2" d="M49 62.22h-6.36A1.27 1.27 0 0 1 41.37 61V47a1.27 1.27 0 0 1 1.27-1.27H49A1.27 1.27 0 0 1 50.26 47v14A1.27 1.27 0 0 1 49 62.22zm-5.08-2.54h3.81V48.25h-3.82z" transform="translate(-7.08)"/><path class="cls-5" d="M32.48 29.21h34.29v45.71H32.48z" transform="translate(-7.08)"/><path class="cls-2" d="M66.77 76.19H32.48a1.27 1.27 0 0 1-1.27-1.27V29.21a1.27 1.27 0 0 1 1.27-1.27h34.29A1.27 1.27 0 0 1 68 29.21v45.71a1.27 1.27 0 0 1-1.23 1.27zm-33-2.54H65.5V30.48H33.75z" transform="translate(-7.08)"/><path class="cls-6" d="M8.35 72.38h63.5v6.35H8.35z" transform="translate(-7.08)"/><path class="cls-2" d="M71.84 80H8.35a1.27 1.27 0 0 1-1.27-1.27v-6.35a1.27 1.27 0 0 1 1.27-1.27h63.49a1.27 1.27 0 0 1 1.27 1.27v6.35A1.27 1.27 0 0 1 71.84 80zM9.62 77.46h61v-3.81h-61z" transform="translate(-7.08)"/><path class="cls-6" d="M46.45 64.76h6.35v7.62h-6.35z" transform="translate(-7.08)"/><path class="cls-2" d="M52.8 73.65h-6.35a1.27 1.27 0 0 1-1.27-1.27v-7.62a1.27 1.27 0 0 1 1.27-1.27h6.35a1.27 1.27 0 0 1 1.27 1.27v7.62a1.27 1.27 0 0 1-1.27 1.27zm-5.08-2.54h3.81V66h-3.81z" transform="translate(-7.08)"/><path class="cls-3" d="M47.72 33h3.81v11.44h-3.81z" transform="translate(-7.08)"/><path class="cls-2" d="M51.53 45.71h-3.81a1.27 1.27 0 0 1-1.27-1.27V33a1.27 1.27 0 0 1 1.27-1.27h3.81A1.27 1.27 0 0 1 52.8 33v11.44a1.27 1.27 0 0 1-1.27 1.27zM49 43.17h1.27v-8.88H49z" transform="translate(-7.08)"/><path class="cls-4" d="M56.61 33h3.81v11.44h-3.81z" transform="translate(-7.08)"/><path class="cls-2" d="M60.42 45.71h-3.81a1.27 1.27 0 0 1-1.27-1.27V33a1.27 1.27 0 0 1 1.27-1.27h3.81A1.27 1.27 0 0 1 61.69 33v11.44a1.27 1.27 0 0 1-1.27 1.27zm-2.54-2.54h1.27v-8.88h-1.27z" transform="translate(-7.08)"/><path class="cls-3" d="M38.83 33h3.81v11.44h-3.81z" transform="translate(-7.08)"/><path class="cls-2" d="M42.64 45.71h-3.81a1.27 1.27 0 0 1-1.27-1.27V33a1.27 1.27 0 0 1 1.27-1.27h3.81A1.27 1.27 0 0 1 43.91 33v11.44a1.27 1.27 0 0 1-1.27 1.27zm-2.54-2.54h1.27v-8.88H40.1z" transform="translate(-7.08)"/><path class="cls-4" d="M47.72 49.52h3.81V61h-3.81z" transform="translate(-7.08)"/><path class="cls-2" d="M51.53 62.22h-3.81A1.27 1.27 0 0 1 46.45 61V49.52a1.27 1.27 0 0 1 1.27-1.27h3.81a1.27 1.27 0 0 1 1.27 1.27V61a1.27 1.27 0 0 1-1.27 1.22zM49 59.68h1.27v-8.89H49z" transform="translate(-7.08)"/><path class="cls-3" d="M56.61 49.52h3.81V61h-3.81z" transform="translate(-7.08)"/><path class="cls-2" d="M60.42 62.22h-3.81A1.27 1.27 0 0 1 55.34 61V49.52a1.27 1.27 0 0 1 1.27-1.27h3.81a1.27 1.27 0 0 1 1.27 1.27V61a1.27 1.27 0 0 1-1.27 1.22zm-2.54-2.54h1.27v-8.89h-1.27z" transform="translate(-7.08)"/><path class="cls-3" d="M38.83 49.52h3.81V61h-3.81z" transform="translate(-7.08)"/><path class="cls-2" d="M42.64 62.22h-3.81A1.27 1.27 0 0 1 37.56 61V49.52a1.27 1.27 0 0 1 1.27-1.27h3.81a1.27 1.27 0 0 1 1.27 1.27V61a1.27 1.27 0 0 1-1.27 1.22zm-2.54-2.54h1.27v-8.89H40.1z" transform="translate(-7.08)"/></svg>