<svg id="Layer_1" data-name="Layer 1" xmlns="http://www.w3.org/2000/svg" viewBox="0 0 79.45 80"><defs><style>.cls-1{fill:none}.cls-2{clip-path:url(#clip-path)}.cls-3{fill:#ffe600}.cls-4{fill:#00e7ff}.cls-5{fill:#602f75}.cls-6{fill:#ea3457}.cls-7{fill:#fff}</style><clipPath id="clip-path" transform="translate(-.23)"><path class="cls-1" d="M0 0h80v80H0z"/></clipPath></defs><title>crane</title><g class="cls-2"><path class="cls-3" d="M73.79 47.74a24.52 24.52 0 1 1-24.52-24.52 24.52 24.52 0 0 1 24.52 24.52z" transform="translate(-.23)"/><path class="cls-4" d="M9.27 21.93H1.52a6.07 6.07 0 0 0 6.38 6.46h1.37z" transform="translate(-.23)"/><path class="cls-5" d="M9.27 29.67H7.9a7.37 7.37 0 0 1-7.67-7.74 1.29 1.29 0 0 1 1.29-1.29h7.75a1.29 1.29 0 0 1 1.29 1.29v6.45a1.29 1.29 0 0 1-1.29 1.29zm-6.33-6.45a4.71 4.71 0 0 0 5 3.87H8v-3.87z" transform="translate(-.23)"/><path class="cls-6" d="M32.8 1.3H23l-2.08 12.9h14.22z" transform="translate(-.23)"/><path class="cls-5" d="M35.14 15.48H20.89A1.29 1.29 0 0 1 19.62 14L21.7 1.09A1.29 1.29 0 0 1 23 0h9.8a1.29 1.29 0 0 1 1.27 1.06L36.41 14a1.29 1.29 0 0 1-1.27 1.52zM22.41 12.9H33.6L31.72 2.59h-7.65z" transform="translate(-.23)"/><path class="cls-5" d="M35.07 80H20.88a1.29 1.29 0 0 1-1.29-1.29V14.19a1.29 1.29 0 0 1 1.29-1.29h14.19a1.29 1.29 0 0 1 1.29 1.29v64.52A1.29 1.29 0 0 1 35.07 80zm-12.9-2.58h11.61V15.48H22.17z" transform="translate(-.23)"/><path class="cls-4" d="M8 16.77h5.16v16.78H8z" transform="translate(-.23)"/><path class="cls-5" d="M13.14 34.84H8a1.29 1.29 0 0 1-1.29-1.29V16.77A1.29 1.29 0 0 1 8 15.48h5.16a1.29 1.29 0 0 1 1.29 1.29v16.78a1.29 1.29 0 0 1-1.31 1.29zm-3.87-2.58h2.58v-14.2H9.27zM45.4 80H10.56a1.29 1.29 0 0 1 0-2.58H45.4a1.29 1.29 0 0 1 0 2.58zm32.99-47.74H35.07A1.29 1.29 0 0 1 33.78 31V19.35a1.29 1.29 0 0 1 1.29-1.29h36.37a1.29 1.29 0 0 1 1.11.63L79.5 30.3a1.29 1.29 0 0 1-1.11 2zm-42-2.58h39.72l-5.4-9H36.36z" transform="translate(-.23)"/><path class="cls-5" d="M63.46 47.74a1.29 1.29 0 0 1-1.29-1.29V32.26a1.29 1.29 0 0 1 2.58 0v14.19a1.29 1.29 0 0 1-1.29 1.29z" transform="translate(-.23)"/><path class="cls-4" d="M60.83 51.61c0-3.87 1.12-6.75 2.51-6.75s2.51 2.88 2.51 6.75z" transform="translate(-.23)"/><path class="cls-5" d="M65.84 52.9h-5a1.29 1.29 0 0 1-1.29-1.29c0-4 1.17-8 3.8-8s3.8 4 3.8 8a1.29 1.29 0 0 1-1.31 1.29zm-3.68-2.58h2.35c-.18-2.47-.83-3.78-1.17-4.12-.34.35-1 1.65-1.18 4.12z" transform="translate(-.23)"/><path class="cls-5" d="M63.37 69a5.77 5.77 0 0 1-5.84-5.81 1.29 1.29 0 1 1 2.58 0 3.21 3.21 0 0 0 3.26 3.23 3.33 3.33 0 0 0 3.34-3.31 3.24 3.24 0 0 0-3.25-3.31 1.29 1.29 0 0 1-1.29-1.29V52.9a1.29 1.29 0 0 1 2.58 0v4.5a5.8 5.8 0 0 1 4.54 5.75A5.91 5.91 0 0 1 63.37 69z" transform="translate(-.23)"/><path class="cls-7" d="M21.36 15.26l13.12 13.12z" transform="translate(-.23)"/><path class="cls-5" d="M34.49 29.67a1.28 1.28 0 0 1-.91-.38L20.45 16.17a1.29 1.29 0 0 1 1.82-1.82L35.4 27.47a1.29 1.29 0 0 1-.91 2.2z" transform="translate(-.23)"/><path class="cls-7" d="M34.06 15.26l-12.7 13.32z" transform="translate(-.23)"/><path class="cls-5" d="M21.36 29.87a1.29 1.29 0 0 1-.93-2.18l12.69-13.32A1.29 1.29 0 1 1 35 16.15L22.29 29.47a1.29 1.29 0 0 1-.93.4z" transform="translate(-.23)"/><path class="cls-7" d="M41.25 20.2L51 30.81z" transform="translate(-.23)"/><path class="cls-5" d="M51 32.1a1.29 1.29 0 0 1-1-.42l-9.7-10.61a1.29 1.29 0 1 1 1.9-1.74l9.73 10.61a1.29 1.29 0 0 1-1 2.16z" transform="translate(-.23)"/><path class="cls-7" d="M50.58 20.2l-10.4 10.4z" transform="translate(-.23)"/><path class="cls-5" d="M40.18 31.89a1.29 1.29 0 0 1-.91-2.2l10.4-10.41a1.29 1.29 0 0 1 1.82 1.83l-10.4 10.4a1.29 1.29 0 0 1-.91.38z" transform="translate(-.23)"/><path class="cls-7" d="M56.31 20.2l9.54 10.41z" transform="translate(-.23)"/><path class="cls-5" d="M65.85 31.9a1.29 1.29 0 0 1-1-.42l-9.5-10.41a1.29 1.29 0 1 1 1.9-1.74l9.55 10.4a1.29 1.29 0 0 1-1 2.16z" transform="translate(-.23)"/><path class="cls-7" d="M65.85 20L55 30.81z" transform="translate(-.23)"/><path class="cls-5" d="M55 32.1a1.29 1.29 0 0 1-.91-2.2l10.84-10.83a1.29 1.29 0 1 1 1.82 1.82L55.94 31.72a1.28 1.28 0 0 1-.94.38z" transform="translate(-.23)"/><path class="cls-7" d="M75.55 26.49l-4.11 4.11z" transform="translate(-.23)"/><path class="cls-5" d="M71.44 31.89a1.29 1.29 0 0 1-.91-2.2l4.11-4.11a1.29 1.29 0 0 1 1.82 1.82l-4.11 4.11a1.29 1.29 0 0 1-.91.38z" transform="translate(-.23)"/><path class="cls-7" d="M21.36 30.31l13.13 13.14z" transform="translate(-.23)"/><path class="cls-5" d="M34.49 44.74a1.29 1.29 0 0 1-.91-.38L20.45 31.22a1.29 1.29 0 0 1 1.82-1.82l13.14 13.13a1.29 1.29 0 0 1-.91 2.2z" transform="translate(-.23)"/><path class="cls-7" d="M34.59 30.4L21.36 43.63z" transform="translate(-.23)"/><path class="cls-5" d="M21.36 44.92a1.29 1.29 0 0 1-.91-2.2l13.22-13.23a1.29 1.29 0 0 1 1.82 1.82L22.27 44.54a1.29 1.29 0 0 1-.91.38z" transform="translate(-.23)"/><path class="cls-7" d="M21.36 45.37l13.32 13.31z" transform="translate(-.23)"/><path class="cls-5" d="M34.68 60a1.29 1.29 0 0 1-.91-.38L20.45 46.28a1.29 1.29 0 0 1 1.82-1.82l13.32 13.31a1.29 1.29 0 0 1-.91 2.2z" transform="translate(-.23)"/><path class="cls-7" d="M34.49 45.55L21.36 58.68z" transform="translate(-.23)"/><path class="cls-5" d="M21.36 60a1.29 1.29 0 0 1-.91-2.2l13.13-13.16a1.29 1.29 0 0 1 1.83 1.82L22.27 59.59a1.29 1.29 0 0 1-.91.41z" transform="translate(-.23)"/><path class="cls-7" d="M21.36 61.58l13.13 13.13z" transform="translate(-.23)"/><path class="cls-5" d="M34.49 76a1.29 1.29 0 0 1-.91-.38L20.45 62.49a1.29 1.29 0 1 1 1.82-1.82L35.41 73.8a1.29 1.29 0 0 1-.91 2.2z" transform="translate(-.23)"/><path class="cls-7" d="M34.49 61.76L21.36 74.89z" transform="translate(-.23)"/><path class="cls-5" d="M21.36 76.18a1.29 1.29 0 0 1-.91-2.2l13.13-13.13a1.29 1.29 0 1 1 1.83 1.83L22.27 75.81a1.29 1.29 0 0 1-.91.37zm-1.77-55.54h-5.16a1.29 1.29 0 1 1 0-2.58h5.16a1.29 1.29 0 1 1 0 2.58zm0 11.62h-5.16a1.29 1.29 0 1 1 0-2.58h5.16a1.29 1.29 0 1 1 0 2.58z" transform="translate(-.23)"/></g></svg>