<svg id="Layer_1" data-name="Layer 1" xmlns="http://www.w3.org/2000/svg" viewBox="0 0 52.89 60"><defs><style>.cls-1{fill:none}.cls-2{clip-path:url(#clip-path)}.cls-3{fill:#c2b59b}.cls-4{fill:#e8e4dc}.cls-5{fill:#ffd153}</style><clipPath id="clip-path" transform="translate(-3.52)"><path class="cls-1" d="M0 0h60v60H0z"/></clipPath></defs><title>door</title><g class="cls-2"><path class="cls-3" d="M45.45 4.09a2.92 2.92 0 0 0-2.92-2.92H17.39a2.92 2.92 0 0 0-2.92 2.92V53h31zM32.38 7.42a.89.89 0 0 1 .89-.88h4.6a3 3 0 0 1 3 3v14.3a.88.88 0 0 1-.88.88h-6.73a.89.89 0 0 1-.89-.88zm-4.83 39a.89.89 0 0 1-.88.88h-4.6a3 3 0 0 1-3-3V30a.88.88 0 0 1 .88-.88h6.76a.89.89 0 0 1 .88.88zm0-22.59a.88.88 0 0 1-.88.88H19.9a.88.88 0 0 1-.88-.88V9.58a3 3 0 0 1 3-3h4.6a.89.89 0 0 1 .88.88zM40.9 43.41a3.9 3.9 0 0 1-3.9 3.9h-4.62V34.87a.43.43 0 0 1 .77-.25 7.75 7.75 0 0 0 6.29 3.22h1.46zm-1.29-9.14a3 3 0 1 1 3-3 3 3 0 0 1-2.99 3z" transform="translate(-3.52)"/><path class="cls-4" d="M26.66 6.53h-4.6a3 3 0 0 0-3 3v14.31a.88.88 0 0 0 .88.88h6.76a.88.88 0 0 0 .88-.88V7.42a.89.89 0 0 0-.92-.89zm6.6 18.2H40a.88.88 0 0 0 .88-.88V9.58a3 3 0 0 0-3-3h-4.6a.89.89 0 0 0-.89.88v16.38a.89.89 0 0 0 .87.89zm-6.6 4.39H19.9a.88.88 0 0 0-.9.88v14.27a3 3 0 0 0 3 3h4.6a.89.89 0 0 0 .88-.88V30a.88.88 0 0 0-.82-.88z" transform="translate(-3.52)"/><path class="cls-5" d="M42.6 31.29a3 3 0 1 1-3-3 3 3 0 0 1 3 3z" transform="translate(-3.52)"/><path class="cls-4" d="M33.15 34.63a.43.43 0 0 0-.77.25v12.43H37a3.9 3.9 0 0 0 3.9-3.9v-5.56h-1.46a7.75 7.75 0 0 1-6.29-3.22z" transform="translate(-3.52)"/><path class="cls-5" d="M46.67 53H13.25a3 3 0 0 0-3 3v2.86h39.39V56a3 3 0 0 0-2.97-3z" transform="translate(-3.52)"/><path d="M19.9 25.9h6.76a2.06 2.06 0 0 0 2.06-2.06V7.42a2.06 2.06 0 0 0-2.06-2.06h-4.6a4.22 4.22 0 0 0-4.22 4.22v14.26a2.06 2.06 0 0 0 2.06 2.06zm.29-16.32a1.87 1.87 0 0 1 1.87-1.87h4.31v15.85h-6.18zm8.53 36.85V30a2.06 2.06 0 0 0-2.06-2H19.9a2.06 2.06 0 0 0-2.05 2v14.27a4.22 4.22 0 0 0 4.22 4.22h4.6a2.06 2.06 0 0 0 2.05-2.06zm-2.34-.29h-4.32a1.87 1.87 0 0 1-1.87-1.87v-14h6.18zm6.88-20.24H40a2.06 2.06 0 0 0 2.06-2.06V9.58a4.22 4.22 0 0 0-4.22-4.22h-4.6a2.06 2.06 0 0 0-2.06 2.06v16.42a2.06 2.06 0 0 0 2.08 2.06zm.29-18.19h4.31a1.87 1.87 0 0 1 1.87 1.87v14h-6.18z" transform="translate(-3.52)"/><path d="M55.23 57.66h-4.42V56a4.15 4.15 0 0 0-4.14-4.14h-.05V4.09A4.1 4.1 0 0 0 42.53 0H17.39a4.1 4.1 0 0 0-4.09 4.09v47.74h-.05A4.15 4.15 0 0 0 9.11 56v1.69H4.69a1.17 1.17 0 0 0 0 2.34h50.54a1.17 1.17 0 0 0 0-2.34zm-43.78 0V56a1.8 1.8 0 0 1 1.8-1.8h5.34a1.17 1.17 0 1 0 0-2.34h-2.94V4.09a1.75 1.75 0 0 1 1.75-1.75h25.13a1.75 1.75 0 0 1 1.75 1.75v47.74H28a1.17 1.17 0 0 0 0 2.34h18.7a1.8 1.8 0 0 1 1.8 1.8v1.69z" transform="translate(-3.52)"/><path d="M35.47 31.29a4.15 4.15 0 1 0 4.15-4.15 4.15 4.15 0 0 0-4.15 4.15zm6 0a1.81 1.81 0 1 1-1.81-1.81 1.81 1.81 0 0 1 1.76 1.81z" transform="translate(-3.52)"/><path d="M32.38 48.49H37a5.08 5.08 0 0 0 5.08-5.08v-5.56a1.17 1.17 0 0 0-1.17-1.17h-1.47a6.59 6.59 0 0 1-5.34-2.74 1.6 1.6 0 0 0-2.89.93v12.44a1.17 1.17 0 0 0 1.17 1.18zm1.17-11.69a9 9 0 0 0 5.89 2.2h.29v4.39A2.74 2.74 0 0 1 37 46.14h-3.45zM23.28 51.83a1.17 1.17 0 0 0 0 2.34 1.17 1.17 0 0 0 0-2.34z" transform="translate(-3.52)"/></g></svg>