<svg id="Layer_1" data-name="Layer 1" xmlns="http://www.w3.org/2000/svg" viewBox="0 0 57.26 60"><defs><style>.cls-1{fill:#59dbff}.cls-2{fill:#dbf6ff}.cls-3{fill:#57f7ac}.cls-4{fill:#ff55a3}.cls-5{fill:#fae0eb}</style></defs><title>outlet</title><path class="cls-1" d="M5.28 34a5.3 5.3 0 0 0 5.3 5.3h7.71a5.3 5.3 0 0 0 5.3-5.3v-8.41H5.28z" transform="translate(-1.41)"/><path class="cls-2" d="M24.21 21.18H4.66a2.08 2.08 0 0 0-2.08 2.08v2.23a.1.1 0 0 0 .1.1H26.2a.1.1 0 0 0 .1-.1v-2.22a2.08 2.08 0 0 0-2.09-2.09z" transform="translate(-1.41)"/><path class="cls-3" d="M11.81 41.72a1.59 1.59 0 0 0 1.59 1.59h2.08a1.59 1.59 0 0 0 1.59-1.59V39.3h-5.26z" transform="translate(-1.41)"/><path class="cls-1" d="M11.81 11.36a1.87 1.87 0 0 0-3.74 0v9.82h3.74zm9 0a1.87 1.87 0 0 0-3.74 0v9.82h3.74z" transform="translate(-1.41)"/><path class="cls-4" d="M54 1.17H35.78a3.53 3.53 0 0 0-3.52 3.53v16.88a3.53 3.53 0 0 0 3.53 3.53H54a3.53 3.53 0 0 0 3.53-3.53V4.7A3.53 3.53 0 0 0 54 1.17zm-9.13 19.09A7.12 7.12 0 1 1 52 13.14a7.12 7.12 0 0 1-7.13 7.12z" transform="translate(-1.41)"/><path class="cls-5" d="M52 13.14A7.12 7.12 0 1 1 44.87 6 7.12 7.12 0 0 1 52 13.14z" transform="translate(-1.41)"/><path d="M54 0H35.78a4.7 4.7 0 0 0-4.7 4.7v16.88a4.7 4.7 0 0 0 4.7 4.7H54a4.7 4.7 0 0 0 4.7-4.7V4.7A4.7 4.7 0 0 0 54 0zm2.36 21.58A2.36 2.36 0 0 1 54 23.94H35.78a2.36 2.36 0 0 1-2.36-2.36V4.7a2.36 2.36 0 0 1 2.36-2.36H54a2.36 2.36 0 0 1 2.32 2.36z" transform="translate(-1.41)"/><path d="M44.87 4.85a8.29 8.29 0 1 0 8.29 8.29 8.3 8.3 0 0 0-8.29-8.29zm0 14.23a5.94 5.94 0 1 1 5.94-5.94 6 6 0 0 1-5.94 5.95z" transform="translate(-1.41)"/><path d="M42.15 10.77A1.17 1.17 0 0 0 41 11.94v2.41a1.17 1.17 0 0 0 2.34 0v-2.41a1.17 1.17 0 0 0-1.19-1.17zm5.45 0a1.17 1.17 0 0 0-1.17 1.17v2.41a1.17 1.17 0 0 0 2.34 0v-2.41a1.17 1.17 0 0 0-1.17-1.17zm2.48 46.89H35.83a3.38 3.38 0 0 1-3.38-3.38v-9.49a5 5 0 1 0-10 0v9.46a3.41 3.41 0 0 1-6.81 0v-9.77a2.76 2.76 0 0 0 2.63-2.76v-1.25h.06A6.48 6.48 0 0 0 24.77 34v-7.24h1.43a1.27 1.27 0 0 0 1.27-1.27v-2.22A3.26 3.26 0 0 0 24.21 20H22v-8.64a3 3 0 0 0-6.08 0V20H13v-8.64a3 3 0 0 0-6.08 0V20H4.66a3.26 3.26 0 0 0-3.26 3.26v2.23a1.27 1.27 0 0 0 1.27 1.27h1.44V34a6.48 6.48 0 0 0 6.47 6.47h.06v1.25a2.76 2.76 0 0 0 2.63 2.76v9.77a5.75 5.75 0 0 0 11.5 0v-9.46a2.67 2.67 0 0 1 5.35 0v9.49A5.73 5.73 0 0 0 35.83 60h14.25a1.17 1.17 0 1 0 0-2.34zm-31.84-46.3a.7.7 0 0 1 1.4 0V20h-1.4zm-9 0a.7.7 0 0 1 1.4 0V20h-1.4zM6.45 34v-7.24h6.28a1.17 1.17 0 0 0 0-2.34h-9v-1.15a.91.91 0 0 1 .91-.91h19.57a.91.91 0 0 1 .91.91v1.15h-3a1.17 1.17 0 0 0 0 2.34h.32V34a4.13 4.13 0 0 1-4.13 4.13h-7.73A4.13 4.13 0 0 1 6.45 34zM13 41.72v-1.25h2.91v1.25a.42.42 0 0 1-.42.42H13.4a.42.42 0 0 1-.4-.42z" transform="translate(-1.41)"/><path d="M17.42 26.76a1.17 1.17 0 1 0-1.17-1.17 1.17 1.17 0 0 0 1.17 1.17z" transform="translate(-1.41)"/></svg>