<svg id="Layer_1" data-name="Layer 1" xmlns="http://www.w3.org/2000/svg" viewBox="0 0 70 66.5"><defs><style>.cls-1{fill:none}.cls-2{clip-path:url(#clip-path)}.cls-3{fill:#602f75}.cls-4{fill:#ea3457}.cls-5{fill:#fff}.cls-6{fill:#ffe600}.cls-7{fill:#00e7ff}</style><clipPath id="clip-path" transform="translate(0 -1.81)"><path class="cls-1" d="M0 0h70v70H0z"/></clipPath></defs><title>toolbox</title><g class="cls-2"><path class="cls-3" d="M54.83 21.64h-38.5a1.17 1.17 0 0 1-1.17-1.17v-4.63a9.07 9.07 0 0 1 9-9.36h22.17c5.15 0 9.67 4.37 9.67 9.36v4.64a1.17 1.17 0 0 1-1.17 1.16zM17.5 19.31h36.17v-3.47a7.37 7.37 0 0 0-7.34-7H24.12a6.76 6.76 0 0 0-6.62 7z" transform="translate(0 -1.81)"/><path class="cls-4" d="M26.83 3h16.34v9.33H26.83z" transform="translate(0 -1.81)"/><path class="cls-3" d="M43.17 13.48H26.83a1.17 1.17 0 0 1-1.17-1.17V3a1.17 1.17 0 0 1 1.17-1.17h16.34A1.17 1.17 0 0 1 44.33 3v9.33a1.17 1.17 0 0 1-1.16 1.15zM28 11.14h14v-7H28z" transform="translate(0 -1.81)"/><path class="cls-5" d="M1.17 19.31h67.66v17.5H1.17z" transform="translate(0 -1.81)"/><path class="cls-3" d="M68.83 38H1.17A1.17 1.17 0 0 1 0 36.81v-17.5a1.17 1.17 0 0 1 1.17-1.17h67.66A1.17 1.17 0 0 1 70 19.31v17.5A1.17 1.17 0 0 1 68.83 38zm-66.5-2.36h65.34V20.48H2.33z" transform="translate(0 -1.81)"/><path class="cls-6" d="M1.17 36.81v25.63a4.71 4.71 0 0 0 4.71 4.71h58.24a4.71 4.71 0 0 0 4.71-4.71V36.81z" transform="translate(0 -1.81)"/><path class="cls-3" d="M64.12 68.31H5.88A5.88 5.88 0 0 1 0 62.44V36.81a1.17 1.17 0 0 1 1.17-1.17h67.66A1.17 1.17 0 0 1 70 36.81v25.63a5.88 5.88 0 0 1-5.88 5.87zM2.33 38v24.44A3.55 3.55 0 0 0 5.88 66h58.24a3.55 3.55 0 0 0 3.54-3.54V38z" transform="translate(0 -1.81)"/><path class="cls-4" d="M51.33 29.81h8.17v14h-8.17z" transform="translate(0 -1.81)"/><path class="cls-3" d="M59.5 45h-8.17a1.17 1.17 0 0 1-1.17-1.17v-14a1.17 1.17 0 0 1 1.17-1.17h8.17a1.17 1.17 0 0 1 1.17 1.17v14A1.17 1.17 0 0 1 59.5 45zm-7-2.33h5.83V31H52.5z" transform="translate(0 -1.81)"/><path class="cls-4" d="M10.5 29.81h8.17v14H10.5z" transform="translate(0 -1.81)"/><path class="cls-3" d="M18.67 45H10.5a1.17 1.17 0 0 1-1.17-1.17v-14a1.17 1.17 0 0 1 1.17-1.17h8.17a1.17 1.17 0 0 1 1.17 1.17v14A1.17 1.17 0 0 1 18.67 45zm-7-2.33h5.83V31h-5.83z" transform="translate(0 -1.81)"/><path class="cls-4" d="M39.67 53.14h-10.5a1.17 1.17 0 1 1 0-2.33h10.5a1.17 1.17 0 1 1 0 2.33zm0 8.17h-10.5a1.17 1.17 0 1 1 0-2.33h10.5a1.17 1.17 0 1 1 0 2.33z" transform="translate(0 -1.81)"/><path class="cls-3" d="M59.5 41.48h-7a1.17 1.17 0 0 1 0-2.33h7a1.17 1.17 0 1 1 0 2.33zm-42 0h-7a1.17 1.17 0 1 1 0-2.33h7a1.17 1.17 0 1 1 0 2.33z" transform="translate(0 -1.81)"/><path class="cls-6" d="M39.67 8.81H35a1.17 1.17 0 0 1 0-2.33h4.67a1.17 1.17 0 0 1 0 2.33z" transform="translate(0 -1.81)"/><path class="cls-7" d="M51.33 50.81h10.5v10.5h-10.5z" transform="translate(0 -1.81)"/><path class="cls-7" d="M61.83 62.48h-10.5a1.17 1.17 0 0 1-1.17-1.17v-10.5a1.17 1.17 0 0 1 1.17-1.17h10.5A1.17 1.17 0 0 1 63 50.81v10.5a1.17 1.17 0 0 1-1.17 1.17zm-9.33-2.34h8.17V52H52.5z" transform="translate(0 -1.81)"/></g></svg>