<svg id="Layer_1" data-name="Layer 1" xmlns="http://www.w3.org/2000/svg" viewBox="0 0 30 30"><defs><style>.cls-1{fill:#7d3daf}.cls-2{fill:#fff}</style></defs><title>viber</title><path class="cls-1" d="M30 0H0v30h30z"/><path class="cls-2" d="M24.49 9.67a6.85 6.85 0 0 0-4.63-4.47 25.69 25.69 0 0 0-9.67 0 6.85 6.85 0 0 0-4.67 4.45 18.93 18.93 0 0 0 0 8.15 6.91 6.91 0 0 0 4.37 4.38v2.16a.87.87 0 0 0 1.5.6l2.19-2.28h1.43a25.78 25.78 0 0 0 4.84-.46 6.85 6.85 0 0 0 4.62-4.45 18.93 18.93 0 0 0 .02-8.08zm-1.73 7.76a5.18 5.18 0 0 1-3.26 3.13 24 24 0 0 1-5.14.42.12.12 0 0 0-.09 0l-1.6 1.64L11 24.4a.2.2 0 0 1-.34-.14v-3.58a.12.12 0 0 0-.1-.12 5.18 5.18 0 0 1-3.26-3.13 17.18 17.18 0 0 1 0-7.37 5.18 5.18 0 0 1 3.26-3.13 23.93 23.93 0 0 1 9 0 5.18 5.18 0 0 1 3.26 3.13 17.16 17.16 0 0 1-.07 7.37z"/><path class="cls-2" d="M17.84 19.09c-.2-.06-.39-.1-.57-.18a12.92 12.92 0 0 1-4.87-3.25 12.64 12.64 0 0 1-1.86-2.85c-.24-.49-.44-1-.65-1.49a1.29 1.29 0 0 1 .38-1.32 3 3 0 0 1 1-.75.64.64 0 0 1 .81.19 10.38 10.38 0 0 1 1.25 1.74.83.83 0 0 1-.23 1.12c-.09.06-.18.14-.27.21a.88.88 0 0 0-.2.21.58.58 0 0 0 0 .51 4.64 4.64 0 0 0 2.61 2.89 1.33 1.33 0 0 0 .67.16c.41 0 .54-.5.83-.73a.78.78 0 0 1 .94 0c.3.19.59.4.88.6a10.11 10.11 0 0 1 .83.63.66.66 0 0 1 .2.82 2.76 2.76 0 0 1-1.19 1.31 2.87 2.87 0 0 1-.51.16c-.25-.07.11-.07-.05.02zM15 8.65a4.88 4.88 0 0 1 4.8 4c.07.4.1.82.13 1.23a.29.29 0 0 1-.27.34c-.19 0-.28-.16-.29-.33 0-.34 0-.69-.09-1a4.29 4.29 0 0 0-3.46-3.59c-.27 0-.54-.06-.81-.09s-.4 0-.43-.24a.29.29 0 0 1 .29-.33H15c2.41.08 0 .01 0 .01z"/><path class="cls-2" d="M18.66 13.39a1.11 1.11 0 0 1 0 .17.27.27 0 0 1-.51 0 .73.73 0 0 1 0-.23 2.91 2.91 0 0 0-.37-1.46 2.72 2.72 0 0 0-1.14-1.07 3.28 3.28 0 0 0-.91-.28l-.41-.06a.26.26 0 0 1-.25-.29.26.26 0 0 1 .29-.26 3.78 3.78 0 0 1 1.57.41 3.19 3.19 0 0 1 1.73 2.48v.56c0 .16-.01-.13 0 .03z"/><path class="cls-2" d="M17.16 13.33a.3.3 0 0 1-.33-.29 3 3 0 0 0-.06-.38 1.08 1.08 0 0 0-.4-.63 1 1 0 0 0-.32-.16c-.15 0-.3 0-.45-.07a.27.27 0 0 1-.22-.32.29.29 0 0 1 .3-.23 1.65 1.65 0 0 1 1.69 1.65.77.77 0 0 1 0 .23.24.24 0 0 1-.21.2c-.16.01.09 0 0 0z"/></svg>