<svg id="Layer_1" data-name="Layer 1" xmlns="http://www.w3.org/2000/svg" viewBox="0 0 512 512"><defs><style>.cls-1{fill:#006838}.cls-2{fill:#ff7956}.cls-3{fill:#ed1c24}</style></defs><title>24-hours</title><g id="surface1"><path class="cls-1" d="M503.47 460.8h-25.6V298.67a8.53 8.53 0 0 0-15.52-4.89L342.88 464.45a8.53 8.53 0 0 0 7 13.42H460.8v25.6a8.53 8.53 0 0 0 17.07 0v-25.6h25.6a8.53 8.53 0 0 0 0-17.07zM460.8 325.74V460.8h-94.55z"/><path class="cls-1" d="M349.87 494.93h-101l93.93-110.6a8.47 8.47 0 0 0 .6-.8A59.35 59.35 0 0 0 330 303a68.27 68.27 0 0 0-108.1 55.45 8.53 8.53 0 0 0 17.07 0A51.2 51.2 0 0 1 320 316.81a42.13 42.13 0 0 1 9.39 56.88L223.9 497.95a8.53 8.53 0 0 0 6.5 14.05h119.47a8.53 8.53 0 0 0 0-17.07z"/><path class="cls-2" d="M230.59 452.43a8.53 8.53 0 0 0-8.2-8.85 213.08 213.08 0 0 1-205-204.65H51.2a8.53 8.53 0 1 0 0-17.07H17.37a212.82 212.82 0 0 1 204.5-204.48v25.29a8.53 8.53 0 0 0 17.07 0V17.38a213 213 0 0 1 204.38 200.53L410 184.63a8.53 8.53 0 0 0-12 12.07l47.63 47.63a8.42 8.42 0 0 0 3.36 2.45 9.15 9.15 0 0 0 1 .25 8.73 8.73 0 0 0 1.81.44h.48a8.19 8.19 0 0 0 1.91-.38 7.17 7.17 0 0 0 1-.2 8.41 8.41 0 0 0 3.08-1.93l48.33-48.26a8.53 8.53 0 0 0-12.07-12.07l-34.11 34.08C454.33 96.4 353.47.3 231 .12c-.21 0-.39-.12-.61-.12s-.39.11-.61.12C103 .29.29 103 .12 229.79c0 .21-.12.39-.12.61s.11.39.12.61C.33 354.65 98.19 456 221.75 460.64h.32a8.53 8.53 0 0 0 8.52-8.21z"/><path class="cls-3" d="M345 115.75a8.54 8.54 0 0 0-12.07 0l-91.7 91.69a26.72 26.72 0 0 0-21.77 0L176.09 164A8.53 8.53 0 0 0 164 176.09l43.33 43.33a25.55 25.55 0 1 0 46.07 0l91.6-91.6a8.54 8.54 0 0 0 0-12.07zM236.43 236.43a8.73 8.73 0 0 1-12.07 0 8.53 8.53 0 1 1 12.07 0z"/></g></svg>