<svg id="Layer_1" data-name="Layer 1" xmlns="http://www.w3.org/2000/svg" viewBox="0 0 30 30"><defs><style>.cls-1{fill:#b7b7b7}</style></defs><title>approval</title><path class="cls-1" d="M10.8.17A.59.59 0 1 0 10 1a.59.59 0 0 0 1-.41.59.59 0 0 0-.2-.42z"/><path class="cls-1" d="M30 10.93a.58.58 0 0 0-.24-.45l-2.92-2.11V1.76A1.76 1.76 0 0 0 25.08 0H12.69a.59.59 0 0 0 0 1.17h12.39a.59.59 0 0 1 .59.59v11.5l-7.16 5.84-1.79-1.3a2.92 2.92 0 0 0-3.43 0l-1.79 1.3-7.16-5.84V1.76a.59.59 0 0 1 .59-.59h3.19a.59.59 0 1 0 0-1.17h-3.2a1.76 1.76 0 0 0-1.76 1.76v6.61L.24 10.48A.58.58 0 0 0 0 11v16.07A2.93 2.93 0 0 0 2.93 30h24.14A2.93 2.93 0 0 0 30 27.07V10.93zm-3.16-1.12L28.45 11l-1.62 1.32zm-23.67 0v2.49L1.55 11zm-2 2.38l9.33 7.62-9.33 6.76zm25.9 16.64H2.93a1.76 1.76 0 0 1-1.56-1L14 18.75a1.75 1.75 0 0 1 2.06 0l10 7.26h-5.85a.59.59 0 0 0 0 1.17h7.47l.95.68a1.76 1.76 0 0 1-1.56.97zm1.76-2.26l-9.33-6.75 9.33-7.62z"/><path class="cls-1" d="M17.89 7a.59.59 0 0 0-.83 0l-2.88 2.87-1.24-1.25a.59.59 0 0 0-.83.83l1.66 1.66a.59.59 0 0 0 .83 0l3.29-3.29a.59.59 0 0 0 0-.82z"/><path class="cls-1" d="M15 3.16a5.89 5.89 0 1 0 5.89 5.89A5.89 5.89 0 0 0 15 3.16zm0 10.6a4.72 4.72 0 1 1 4.72-4.72A4.72 4.72 0 0 1 15 13.77zm3 12.43a.59.59 0 1 0 .17.41.59.59 0 0 0-.17-.41z"/></svg>