<svg id="Layer_1" data-name="Layer 1" xmlns="http://www.w3.org/2000/svg" viewBox="0 0 24 21.2"><defs><style>.cls-1{fill:none}.cls-2{clip-path:url(#clip-path)}.cls-3{fill:#46ee1c}</style><clipPath id="clip-path" transform="translate(0 -1.4)"><path class="cls-1" d="M0 0h24v24H0z"/></clipPath></defs><title>check-mark</title><g class="cls-2"><path class="cls-3" d="M23 1.56c-1.08-.58-2.29.54-3 1.21-1.62 1.58-3 3.42-4.54 5.08-1.71 1.83-3.29 3.67-5 5.46a15 15 0 0 0-2.75 3.33 54.69 54.69 0 0 0-4.46-4.33C2 11.39 0 10.73 0 12.93c.08 2.87 2.62 6 4.5 7.91a4.76 4.76 0 0 0 3 1.75c1.46.08 3-1.67 3.83-2.62 1.54-1.67 2.79-3.54 4.21-5.25 1.83-2.25 3.71-4.46 5.5-6.75 1.16-1.41 4.7-4.91 1.96-6.41zM1.83 12.77a.32.32 0 0 0-.17 0 2 2 0 0 1-.46-.17q.2-.08.63.17z" transform="translate(0 -1.4)"/></g></svg>