<svg data-name="Layer 1" xmlns="http://www.w3.org/2000/svg" viewBox="0 0 24 21.2"><title>check-mark</title><g class="cls-2"><path class="cls-3" d="M23 .16c-1.08-.58-2.29.54-3 1.21-1.62 1.58-3 3.42-4.54 5.08-1.71 1.83-3.29 3.67-5 5.46a15 15 0 0 0-2.75 3.33 54.69 54.69 0 0 0-4.46-4.33C2 9.99 0 9.33 0 11.53c.08 2.87 2.62 6 4.5 7.91a4.76 4.76 0 0 0 3 1.75c1.46.08 3-1.67 3.83-2.62 1.54-1.67 2.79-3.54 4.21-5.25 1.83-2.25 3.71-4.46 5.5-6.75C22.2 5.16 25.74 1.66 23 .16zM1.83 11.37a.32.32 0 0 0-.17 0 2 2 0 0 1-.46-.17q.2-.08.63.17z"/></g></svg>