<svg id="Layer_1" data-name="Layer 1" xmlns="http://www.w3.org/2000/svg" viewBox="0 0 32 24.53"><defs><style>.cls-1{fill:#fff}</style></defs><title>condom1</title><path class="cls-1" d="M27.2 17.07a.53.53 0 0 0 .53-.53 5.13 5.13 0 0 0-2.43-4.74.53.53 0 1 0-.48 1 4.11 4.11 0 0 1 1.84 3.79.53.53 0 0 0 .54.48zm-.9 1.09a.53.53 0 0 0-.67.34 3.09 3.09 0 0 1-1.8 1.8.53.53 0 1 0 .34 1 4.17 4.17 0 0 0 2.47-2.47.53.53 0 0 0-.34-.68zM14.83 8a4.83 4.83 0 0 0-3.09 1.11 4.86 4.86 0 0 0-6.57.35 5 5 0 0 0 0 7l6.57 6.67 6.57-6.67a5 5 0 0 0 0-7A4.84 4.84 0 0 0 14.83 8zm2.71 7.74l-5.8 5.9-5.81-5.9a4 4 0 0 1 0-5.53 3.79 3.79 0 0 1 5.42 0l.38.39.38-.39a3.79 3.79 0 0 1 5.42 0 4 4 0 0 1 .01 5.53z" transform="translate(0 -3.73)"/><path class="cls-1" d="M9.07 12.53a.8.8 0 1 0-.8.8.8.8 0 0 0 .8-.8zm-1.07 0a.27.27 0 1 1 .27.27.27.27 0 0 1-.27-.27zm7.73-.8a.8.8 0 1 0 .8.8.8.8 0 0 0-.8-.8zm0 1.07a.27.27 0 1 1 .27-.27.27.27 0 0 1-.27.27zM8 15.07a2.54 2.54 0 0 0 2.53 2.53h2.4a2.54 2.54 0 0 0 2.53-2.53v-.67H8zm6.35.4a1.47 1.47 0 0 1-1.41 1.07h-2.4a1.47 1.47 0 0 1-1.42-1.07z" transform="translate(0 -3.73)"/><path class="cls-1" d="M23.47 6V3.73H21L20.27 5l-.77-1.22h-2.73L16 5l-.77-1.22h-2.72L11.73 5 11 3.73H8.24L7.47 5l-.78-1.27H4L3.2 5l-.77-1.27H0v24.54h2.43l.77-1.22.8 1.22h2.69l.77-1.22.77 1.22H11l.77-1.22.77 1.22h2.72l.74-1.22.77 1.22h2.72l.77-1.22.74 1.22h2.43V26a10.12 10.12 0 0 0 0-20zm0 3.25a6.93 6.93 0 0 1 0 13.49zM22.4 27.2h-.77l-1.36-2.14-1.36 2.14h-1.55L16 25.06l-1.36 2.14h-1.55l-1.36-2.14-1.36 2.14H8.83l-1.36-2.14-1.36 2.14H4.56L3.2 25.06 1.84 27.2h-.77V4.8h.77L3.2 6.94 4.56 4.8h1.55l1.36 2.14L8.83 4.8h1.55l1.36 2.14 1.35-2.14h1.55L16 6.94l1.36-2.14h1.55l1.36 2.14 1.36-2.14h.77zm1.07-2.28v-1.09a8 8 0 0 0 0-15.66V7.08a9.06 9.06 0 0 1 0 17.84z" transform="translate(0 -3.73)"/></svg>