<svg data-name="Capa 1" xmlns="http://www.w3.org/2000/svg" viewBox="0 0 511.87 486.25"><title>contact</title><path d="M490.11 0H132.57a21.79 21.79 0 0 0-21.76 21.76v98.62L94.46 95.86a25.28 25.28 0 0 0-34.14-7.67L26.69 108.4a49.35 49.35 0 0 0-22.55 29.25C-8.13 182.33 1 259.31 114 372.31c89.86 89.76 156.85 113.94 203 113.94a119.22 119.22 0 0 0 31.66-4.13 49.44 49.44 0 0 0 29.25-22.52l20.2-33.67a25.29 25.29 0 0 0-7.68-34.09l-80.56-53.65a25.42 25.42 0 0 0-34 5.52l-23.45 30.15a8.17 8.17 0 0 1-10.44 2.21l-4.46-2.46c-14.69-8-33-18-69.88-54.89-4-4-7.61-7.73-11-11.31h333.47a21.74 21.74 0 0 0 21.76-21.66v-264A21.79 21.79 0 0 0 490.11 0zM229.32 388.55l4.34 2.38a25.14 25.14 0 0 0 32.21-6.64l23.45-30.1a8.29 8.29 0 0 1 11.09-1.8L381 406.04a8.24 8.24 0 0 1 2.5 11.09l-20.2 33.67a32.43 32.43 0 0 1-19.12 14.85c-40.38 11.09-110.98 1.71-218.12-105.46s-116.5-177.73-105.43-218a32.43 32.43 0 0 1 14.84-19.12l33.67-20.21a8.25 8.25 0 0 1 11.09 2.5l53.72 80.55a8.29 8.29 0 0 1-1.8 11.09L102 220.43a25.13 25.13 0 0 0-6.64 32.21l2.39 4.33c8.53 15.65 19.14 35.12 57.81 73.78s58.12 49.27 73.76 57.8zm265.49-102.83a4.66 4.66 0 0 1-4.69 4.61H141.2a215.2 215.2 0 0 1-28.48-41.51l-2.46-4.48a8.14 8.14 0 0 1 2.2-10.43l30.16-23.46a25.41 25.41 0 0 0 5.52-34l-20.27-30.46V21.76a4.64 4.64 0 0 1 4.69-4.69h357.55a4.64 4.64 0 0 1 4.69 4.69v264z"/><path d="M460.73 39.51L318.11 147.67a11.51 11.51 0 0 1-13.53 0L162 39.51a8.54 8.54 0 1 0-10.32 13.6l142.59 108.16a28.72 28.72 0 0 0 34.13 0L471 53.12a8.533 8.533 0 0 0-10.31-13.6zM238.52 161.98l-87.42 93.61a8.53 8.53 0 1 0 12.49 11.6L251 173.58a8.53 8.53 0 0 0-12.48-11.6zm146.21 0a8.533 8.533 0 0 0-12.48 11.64l87.38 93.57a8.533 8.533 0 1 0 12.48-11.64z"/></svg>