<svg data-name="Layer 1" xmlns="http://www.w3.org/2000/svg" viewBox="0 0 30 30"><title>contact1</title><path class="cls-1" d="M9.45 20.68a.59.59 0 1 0 .17.41.59.59 0 0 0-.17-.41z"/><path class="cls-1" d="M29 21.33l-4.24-4.24a3.35 3.35 0 0 0-4.73 0l-1.48 1.48-.59.59L10.83 12l2.07-2.05a3.35 3.35 0 0 0 0-4.73L8.67 1a3.35 3.35 0 0 0-4.74 0L2.82 2.1a9.63 9.63 0 0 0 0 13.61l4.12 4.12a.59.59 0 1 0 .82-.83l-4.12-4.12a8.46 8.46 0 0 1-.72-11.13L7.37 8.2a.59.59 0 1 0 .83-.83l-4.5-4.5 1.06-1.06a2.18 2.18 0 0 1 3.08 0L12.07 6a2.18 2.18 0 0 1 0 3.08L9.59 11.6a.59.59 0 0 0 0 .83l8 8a.59.59 0 0 0 .83 0l.59-.59 7.26 7.26a8.45 8.45 0 0 1-11.13-.73l-4.17-4.17a.59.59 0 0 0-.83.83l4.17 4.17a9.62 9.62 0 0 0 13.61 0L29 26.06a3.35 3.35 0 0 0 0-4.73zm-.83 3.91l-1.05 1.06-7.31-7.3 1.06-1.06a2.18 2.18 0 0 1 3.08 0l4.24 4.24a2.18 2.18 0 0 1 0 3.08z"/><path class="cls-1" d="M9.62 8.79a.59.59 0 1 0 .17.41.59.59 0 0 0-.17-.41zM24.7 4.23a2.031 2.031 0 0 0-4.06.14.59.59 0 0 0 1.17 0 .86.86 0 1 1 1 .84 1 1 0 0 0-.78 1v1.02a.59.59 0 0 0 1.17 0v-.91a2 2 0 0 0 1.5-2.09zm-1.61 4.68a.59.59 0 1 0 .17.41.59.59 0 0 0-.17-.41z"/><path class="cls-1" d="M27.07 0h-8.79a2.93 2.93 0 0 0-2.93 2.93v6.68a2.93 2.93 0 0 0 2.93 2.93h2.22l1.72 2.23a.59.59 0 0 0 .46.23.59.59 0 0 0 .47-.23l1.7-2.23h2.22A2.93 2.93 0 0 0 30 9.61V2.93A2.93 2.93 0 0 0 27.07 0zm1.76 9.61a1.76 1.76 0 0 1-1.76 1.76h-2.51a.59.59 0 0 0-.47.23l-1.41 1.85-1.42-1.86a.59.59 0 0 0-.46-.23h-2.52a1.76 1.76 0 0 1-1.76-1.76V2.93a1.76 1.76 0 0 1 1.76-1.76h8.79a1.76 1.76 0 0 1 1.76 1.76z"/></svg>