<svg data-name="Layer 1" xmlns="http://www.w3.org/2000/svg" viewBox="0 0 30.89 32"><title>courier</title><path class="cls-1" d="M30.89 28.94l-.28-5.15a4.92 4.92 0 0 0-3.28-4.34l-6.35-2.25a.81.81 0 0 0-.84.19l-.2.2-1.38-.69v-1.21a6.49 6.49 0 0 0 2.69-3.95v-.64h.34a1.22 1.22 0 0 0 1.21-1.21v-1.5a1.21 1.21 0 0 0 0-.21.45.45 0 0 0 0-.12 3.59 3.59 0 0 0-.19-1.16V5.28A5.29 5.29 0 0 0 17.4 0h-3.9a5.29 5.29 0 0 0-5.28 5.28V6.9a3.59 3.59 0 0 0-.19 1.16.46.46 0 0 0 0 .12 1.21 1.21 0 0 0 0 .21v1.49a1.22 1.22 0 0 0 1.21 1.22h.34v.79a6.54 6.54 0 0 0 2.65 3.79v1.21l-1.38.69-.2-.2a.81.81 0 0 0-.84-.19l-6.25 2.26A4.93 4.93 0 0 0 .28 23.8l-.27 5.13a1.43 1.43 0 0 0 1.44 1.53h6.16v.83a.71.71 0 0 0 .71.71h14.26a.71.71 0 0 0 .71-.71v-.83h6.16a1.43 1.43 0 0 0 1.43-1.52zM21.97 9.88a.3.3 0 0 1-.3.3h-.34V8.52h.64zm-8.47-9h3.9a4.38 4.38 0 0 1 4.37 4.37v.19l-.1-.09a3.59 3.59 0 0 0-2-.87h-8.39a3.59 3.59 0 0 0-2 .87l-.1.09v-.16A4.38 4.38 0 0 1 13.5.91zm-3.92 9.27h-.34a.3.3 0 0 1-.3-.3V8.52h.64zm-.6-2.58a2.69 2.69 0 0 1 .74-1.43h.05L9.93 6a2.71 2.71 0 0 1 1.28-.57h8.49a2.71 2.71 0 0 1 1.27.57l.07.06h.05a2.69 2.69 0 0 1 .74 1.43zm1.54 3.7V8.52h9.93v2.74a5.38 5.38 0 0 1-3.54 4.18h-.06a4.25 4.25 0 0 1-2.76 0 5.39 5.39 0 0 1-3.58-4.13zm2.23 6.42a.78.78 0 0 0 .5-.69v-.8a4.2 4.2 0 0 0 .56.19 6.51 6.51 0 0 0 1.61.26 6.52 6.52 0 0 0 1.59-.26h.06a4.2 4.2 0 0 0 .57-.19v.8a.78.78 0 0 0 .51.74l1.07.54-.18.14-.19.13-.18.12-.19.11-.19.1-.2.1-.2.09-.21.08-.21.07-.22.06-.21.05h-2.8l-.22-.05-.22-.06-.35.04-.22-.08-.22-.09-.44-.22-.21-.13-.21-.13-.41-.3zm17.1 11.66a.51.51 0 0 1-.38.16H25.7v-5.36a.46.46 0 0 0-.91 0v5.39h-1.5V22a.71.71 0 0 0-.71-.71H8.32a.71.71 0 0 0-.71.71v3a.46.46 0 0 0 .91 0v-2.82h4.65v4a.46.46 0 0 0 .68.4l1.6-.91 1.64.87a.46.46 0 0 0 .67-.4v-4h4.65v8.91H8.52v-2.82a.46.46 0 0 0-.91 0v1.32h-1.5v-5.4a.46.46 0 0 0-.91 0v5.39H1.45a.51.51 0 0 1-.38-.16.52.52 0 0 1-.15-.38l.28-5.14a4 4 0 0 1 2.67-3.54l6.29-2.22.39.39a6.87 6.87 0 0 0 4.9 2h.57a6.86 6.86 0 0 0 4.33-2l.39-.39 6.29 2.22a4 4 0 0 1 2.67 3.53l.28 5.15a.52.52 0 0 1-.14.38zm-13-7.2v3.2l-1.19-.63a.46.46 0 0 0-.44 0l-1.1.61v-3.15z"/></svg>