<svg data-name="Capa 1" xmlns="http://www.w3.org/2000/svg" viewBox="0 0 60 44"><title>credit-card1</title><path d="M55.78 0H4.22A4.22 4.22 0 0 0 0 4.22v35.56A4.22 4.22 0 0 0 4.22 44h51.56A4.22 4.22 0 0 0 60 39.78V4.22A4.22 4.22 0 0 0 55.78 0zM58 39.78A2.22 2.22 0 0 1 55.78 42H4.22A2.22 2.22 0 0 1 2 39.78V4.22A2.22 2.22 0 0 1 4.22 2h51.56A2.22 2.22 0 0 1 58 4.22z"/><path d="M16 29H7a1 1 0 0 0 0 2h9a1 1 0 0 0 0-2zm13 0h-9a1 1 0 0 0 0 2h9a1 1 0 0 0 0-2zM8 34H7a1 1 0 0 0 0 2h1a1 1 0 0 0 0-2zm6 0h-2a1 1 0 0 0 0 2h2a1 1 0 0 0 0-2zm5 0h-1a1 1 0 0 0 0 2h1a1 1 0 0 0 0-2zm6 0h-2a1 1 0 1 0 0 2h2a1 1 0 0 0 0-2zm3.29.29a1 1 0 1 0 1.42 0 1 1 0 0 0-1.42 0zM48 25a7 7 0 0 0-3.5.95 7 7 0 1 0 0 12.11A7 7 0 1 0 48 25zm-2 7a5 5 0 0 1-1.5 3.56 5 5 0 0 1 0-7.12A5 5 0 0 1 46 32zm-10 0a5 5 0 0 1 5-5 5 5 0 0 1 1.79.35 7 7 0 0 0 0 9.31A5 5 0 0 1 41 37a5 5 0 0 1-5-5zm12 5a5 5 0 0 1-1.79-.35 7 7 0 0 0 0-9.31A5 5 0 0 1 48 27a5 5 0 0 1 0 10zM8.26 22h13.48A2.26 2.26 0 0 0 24 19.75v-9.49A2.26 2.26 0 0 0 21.75 8H8.26A2.26 2.26 0 0 0 6 10.25v9.49A2.26 2.26 0 0 0 8.26 22zM12 16H8v-2h4zm-4 3.75V18h4v1.75a2.16 2.16 0 0 0 0 .25H8.26a.25.25 0 0 1-.26-.25zM22 16h-4v-1.75a.25.25 0 0 1 .25-.25H22zm-.25 4H18a2.16 2.16 0 0 0 0-.25V18h4v1.75a.25.25 0 0 1-.25.25zm0-10a.25.25 0 0 1 .25.25v1.49a.25.25 0 0 1-.25.26h-3.49A2.26 2.26 0 0 0 16 14.25v5.49a.25.25 0 0 1-.26.26h-1.48a.25.25 0 0 1-.26-.25v-9.49a.25.25 0 0 1 .26-.26zM8.26 10H12a2.16 2.16 0 0 0 0 .25V12H8v-1.75a.25.25 0 0 1 .26-.25z"/></svg>