<svg id="Layer_1" data-name="Layer 1" xmlns="http://www.w3.org/2000/svg" viewBox="0 0 37 24"><defs><style>.cls-1{fill:none}.cls-2{clip-path:url(#clip-path)}.cls-3{fill:#ffa3c7}.cls-4{clip-path:url(#clip-path-2)}</style><clipPath id="clip-path"><path class="cls-1" d="M0 0h24v24H0z"/></clipPath><clipPath id="clip-path-2"><path class="cls-1" d="M13 0h24v24H13z"/></clipPath></defs><title>femmask</title><g class="cls-2"><path class="cls-3" d="M14.48 19A9.52 9.52 0 1 1 24 9.52 9.53 9.53 0 0 1 14.48 19zm0-15.48a6 6 0 1 0 6 6 6 6 0 0 0-6-5.96z"/><path class="cls-3" d="M0 21.48L2.52 24l7.74-7.74-2.52-2.52z"/><path class="cls-3" d="M0 16.26L7.74 24l2.52-2.52-7.74-7.74z"/></g><g class="cls-4"><path class="cls-3" d="M22.32 24a9.32 9.32 0 1 1 9.32-9.32A9.33 9.33 0 0 1 22.32 24zm0-15.16a5.83 5.83 0 1 0 5.84 5.83 5.84 5.84 0 0 0-5.84-5.83zM37 9.32h-3.49V3.49h-5.83V0H37z"/><path class="cls-3" d="M26.45 8.09l2.46 2.46L36.49 3 34 .51z"/></g></svg>