<svg data-name="Capa 1" xmlns="http://www.w3.org/2000/svg" viewBox="0 0 324.76 441.73"><title>full-items-inside-a-shopping-bag</title><path d="M283.8 32.59L255.69 50.8l-2.56 14.53 28.11-18.2 2.56-14.54zm-5.26 29.79l-28.09 18.2-2.96 16.72 28.11-18.21 2.94-16.71zM288.8 4.26L264.66 0l-6.27 35.54 28.1-18.2 2.31-13.08zm-80.04 151.68a15.18 15.18 0 0 0 0 30.35c.39 0 .76-.09 1.14-.11 3.66 27-24.63 51.63-51.43 53.08-30.18 1.63-42.7-27.6-45.2-53.4a15.24 15.24 0 1 0-13.22-3.21c2.22 35.49 22.44 74.76 64.05 69.13 34.83-4.72 66-38.29 57.52-72.66a15 15 0 0 0 2.33-8 15.18 15.18 0 0 0-15.19-15.18z"/><path d="M323.92 426.77c-11.16-43.92-44.18-194.69-.59-290.6 0-.09.05-.19.09-.29a9.64 9.64 0 0 0 .53-1.71c0-.15.08-.29.11-.43a10.32 10.32 0 0 0 .12-2.21c0-.13 0-.27-.06-.4a9.36 9.36 0 0 0-.36-1.76c-.06-.21-.14-.41-.21-.61a9.8 9.8 0 0 0-.71-1.49c-.06-.12-.1-.26-.18-.39s-.11-.12-.15-.19-.13-.24-.21-.35l-31.35-42.13A9.59 9.59 0 0 0 286.6 81a31.53 31.53 0 0 1-1.83 27.52l10.36 13.93h-43.72l18.68-12.1 2.83-16-28.1 18.21-1.75 9.88H213.6l14.39-22.7 3.28-5.32-22.2-14.13-53.42-33.87-16.09 25.36 15.61 50.67h-8.07L114.4 16.29l-85.68 26.4 11.57 37.59h-9a9.72 9.72 0 0 0-8.66 5.29L1.04 127.71c-.1.19-.13.38-.22.57a7.29 7.29 0 0 0-.31.72 8.8 8.8 0 0 0-.36 1.41c0 .22-.09.44-.12.67a9.93 9.93 0 0 0 0 1.89v.25a10.14 10.14 0 0 0 .49 2.08 1.54 1.54 0 0 1 0 .17c46 125.29 13.63 255.43 2.6 292.33-.63 2.12-1.81 6.08 1.17 10a9.73 9.73 0 0 0 7.76 3.86h.13a8.88 8.88 0 0 0 6-2.21h291.33a9.11 9.11 0 0 0 5.57 1.73 9.73 9.73 0 0 0 7.68-3.76c2.92-3.7 2.02-7.23 1.16-10.65zM37.26 99.73h9l7 22.69H25.61zM25.51 420.07c12.85-48.63 35.14-163.79-2.2-278.18h276.66c-34.77 93.84-10.33 224.64 2.28 278.18z"/></svg>