<svg id="Layer_1" data-name="Layer 1" xmlns="http://www.w3.org/2000/svg" viewBox="-1 -1 26 24"><defs><style>.cls-1{fill:none}.cls-2{clip-path:url(#clip-path)}.cls-3{fill:#f38181}</style><clipPath id="clip-path" transform="translate(0 -.96)"><path class="cls-1" d="M0 0h24v24H0z"/></clipPath></defs><title>heart-cart</title><g class="cls-2"><path class="cls-3" d="M11.93 4.86A6.28 6.28 0 0 1 17.68 1c3.47 0 6 3 6.28 6.5a6.47 6.47 0 0 1-.2 2.46 10.86 10.86 0 0 1-3.31 5.52L11.93 23l-8.38-7.6A10.86 10.86 0 0 1 .24 9.92 6.47 6.47 0 0 1 0 7.46C.35 3.93 2.85 1 6.32 1a6.08 6.08 0 0 1 5.61 3.86z" transform="translate(0 -.96)"/></g></svg>