<svg id="Layer_1" data-name="Layer 1" xmlns="http://www.w3.org/2000/svg" xmlns:xlink="http://www.w3.org/1999/xlink" viewBox="0 0 29 12.61"><defs><style>.cls-1,.cls-2,.cls-3,.cls-4{stroke:#ffa3c7}.cls-1{fill:url(#linear-gradient)}.cls-2{fill:url(#linear-gradient-2)}.cls-3{fill:url(#linear-gradient-3)}.cls-4{fill:url(#linear-gradient-4)}</style><linearGradient id="linear-gradient" x1="14.87" y1="-8.25" x2="15.13" y2="22.11" gradientTransform="matrix(1 0 0 -1 0 14.75)" gradientUnits="userSpaceOnUse"><stop offset="0" stop-color="#0170ca"/><stop offset=".98" stop-color="#ec449a"/></linearGradient><linearGradient id="linear-gradient-2" x1="20.43" y1="-140.67" x2="21.41" y2="67.3" xlink:href="#linear-gradient"/><linearGradient id="linear-gradient-3" x1="8.2" y1="-139.37" x2="9.17" y2="66.74" xlink:href="#linear-gradient"/><linearGradient id="linear-gradient-4" x1="13.17" y1="-460" x2="15.72" y2="197.31" xlink:href="#linear-gradient"/></defs><title>layer13</title><path class="cls-1" d="M8.88 9.22a4.43 4.43 0 0 1-1.72-.33 3 3 0 0 1-1.52-1.21 2.61 2.61 0 0 1-.37-1.81.2.2 0 0 1 .06-.11.23.23 0 0 1 .12-.06c5.34-.63 7 1.61 7 1.71a.19.19 0 0 1 0 .24 4.7 4.7 0 0 1-1.57 1.15 5.11 5.11 0 0 1-2 .42zM5.69 6.07a2.27 2.27 0 0 0 .39 1.46 2.61 2.61 0 0 0 1.26 1 4.37 4.37 0 0 0 2.53.2A4.09 4.09 0 0 0 12 7.48c-.39-.41-2.1-1.86-6.31-1.41zm15.44 3.16a5.1 5.1 0 0 1-2-.44 4.69 4.69 0 0 1-1.6-1.17.19.19 0 0 1 0-.24c.06-.1 1.68-2.34 7-1.71a.23.23 0 0 1 .12.06.2.2 0 0 1 .06.11 2.61 2.61 0 0 1-.37 1.81 3 3 0 0 1-1.52 1.21 4.43 4.43 0 0 1-1.75.36zM18 7.5a4.08 4.08 0 0 0 2.16 1.23 4.36 4.36 0 0 0 2.53-.2 2.61 2.61 0 0 0 1.27-1 2.27 2.27 0 0 0 .39-1.47C20.1 5.62 18.39 7.07 18 7.5z" transform="translate(-.5 -.5)"/><path class="cls-2" d="M21.12 9.22a5.1 5.1 0 0 1-2-.44 4.69 4.69 0 0 1-1.6-1.17.19.19 0 0 1 0-.24c.06-.1 1.68-2.34 7-1.71a.23.23 0 0 1 .12.06.2.2 0 0 1 .06.11 2.61 2.61 0 0 1-.37 1.81 3 3 0 0 1-1.52 1.21 4.43 4.43 0 0 1-1.69.37zM18 7.5a4.08 4.08 0 0 0 2.16 1.23 4.36 4.36 0 0 0 2.53-.2 2.61 2.61 0 0 0 1.27-1 2.27 2.27 0 0 0 .39-1.47C20.1 5.62 18.39 7.07 18 7.5z" transform="translate(-.5 -.5)"/><path class="cls-3" d="M8.88 9.22a4.43 4.43 0 0 1-1.72-.33 3 3 0 0 1-1.52-1.21 2.61 2.61 0 0 1-.37-1.81.2.2 0 0 1 .06-.11.23.23 0 0 1 .12-.06c5.34-.63 7 1.61 7 1.71a.19.19 0 0 1 0 .24 4.7 4.7 0 0 1-1.57 1.15 5.11 5.11 0 0 1-2 .42zM5.69 6.07a2.27 2.27 0 0 0 .39 1.46 2.61 2.61 0 0 0 1.26 1 4.37 4.37 0 0 0 2.53.2A4.09 4.09 0 0 0 12 7.48c-.39-.41-2.1-1.86-6.31-1.41z" transform="translate(-.5 -.5)"/><path class="cls-4" d="M7.48 12.61a5.24 5.24 0 0 1-.73 0A4.81 4.81 0 0 1 3.16 10a17.91 17.91 0 0 1-1.87-4.47c-.79-3.12.3-4.4.34-4.46A.21.21 0 0 1 1.71 1h.2a.21.21 0 0 1 .09.1c.58.9 2.18 1.36 4.73 1.42h1a13.49 13.49 0 0 1 3.59.66 13.7 13.7 0 0 0 3.68.68 10.37 10.37 0 0 0 3.13-.54 17.69 17.69 0 0 1 5.15-.8C25.83 2.46 27.42 2 28 1.1l.1-.1h.2l.08.06c0 .05 1.13 1.34.34 4.46a17.93 17.93 0 0 1-1.92 4.43 4.84 4.84 0 0 1-3.59 2.61c-3.47.44-7.4-2.74-8.21-3.47-.78.68-4.24 3.52-7.52 3.52zm-5.66-11a5.59 5.59 0 0 0-.11 3.87 17.57 17.57 0 0 0 1.85 4.26 4.34 4.34 0 0 0 3.26 2.43c3.62.49 8-3.45 8-3.5a.24.24 0 0 1 .31 0s4.42 4 8 3.5a4.41 4.41 0 0 0 3.26-2.4 17.55 17.55 0 0 0 1.85-4.32 5.53 5.53 0 0 0-.11-3.87c-.79.85-2.39 1.29-4.9 1.35a17.28 17.28 0 0 0-5 .79 10.91 10.91 0 0 1-3.23.53 14.06 14.06 0 0 1-3.79-.7 12.94 12.94 0 0 0-3.47-.65h-1c-2.53-.03-4.13-.47-4.92-1.33zm7 7.65a4.43 4.43 0 0 1-1.72-.33 3 3 0 0 1-1.47-1.26 2.61 2.61 0 0 1-.36-1.81.2.2 0 0 1 .06-.11.23.23 0 0 1 .12-.06c5.34-.63 7 1.61 7 1.71a.19.19 0 0 1 0 .24 4.7 4.7 0 0 1-1.57 1.16 5.11 5.11 0 0 1-2 .42zM5.69 6.07a2.27 2.27 0 0 0 .39 1.46 2.61 2.61 0 0 0 1.26 1 4.37 4.37 0 0 0 2.53.2A4.09 4.09 0 0 0 12 7.48c-.39-.41-2.1-1.86-6.31-1.41zm15.44 3.16a5.1 5.1 0 0 1-2-.44 4.69 4.69 0 0 1-1.6-1.17.19.19 0 0 1 0-.24c.06-.1 1.68-2.34 7-1.71a.23.23 0 0 1 .12.06.2.2 0 0 1 .06.11 2.61 2.61 0 0 1-.37 1.81 3 3 0 0 1-1.52 1.21 4.43 4.43 0 0 1-1.75.36zM18 7.5a4.08 4.08 0 0 0 2.16 1.23 4.36 4.36 0 0 0 2.53-.2 2.61 2.61 0 0 0 1.27-1 2.27 2.27 0 0 0 .39-1.47C20.1 5.62 18.39 7.07 18 7.5z" transform="translate(-.5 -.5)"/><path class="cls-2" d="M21.12 9.22a5.1 5.1 0 0 1-2-.44 4.69 4.69 0 0 1-1.6-1.17.19.19 0 0 1 0-.24c.06-.1 1.68-2.34 7-1.71a.23.23 0 0 1 .12.06.2.2 0 0 1 .06.11 2.61 2.61 0 0 1-.37 1.81 3 3 0 0 1-1.52 1.21 4.43 4.43 0 0 1-1.69.37zM18 7.5a4.08 4.08 0 0 0 2.16 1.23 4.36 4.36 0 0 0 2.53-.2 2.61 2.61 0 0 0 1.27-1 2.27 2.27 0 0 0 .39-1.47C20.1 5.62 18.39 7.07 18 7.5z" transform="translate(-.5 -.5)"/><path class="cls-3" d="M8.88 9.22a4.43 4.43 0 0 1-1.72-.33 3 3 0 0 1-1.52-1.21 2.61 2.61 0 0 1-.37-1.81.2.2 0 0 1 .06-.11.23.23 0 0 1 .12-.06c5.34-.63 7 1.61 7 1.71a.19.19 0 0 1 0 .24 4.7 4.7 0 0 1-1.57 1.15 5.11 5.11 0 0 1-2 .42zM5.69 6.07a2.27 2.27 0 0 0 .39 1.46 2.61 2.61 0 0 0 1.26 1 4.37 4.37 0 0 0 2.53.2A4.09 4.09 0 0 0 12 7.48c-.39-.41-2.1-1.86-6.31-1.41z" transform="translate(-.5 -.5)"/></svg>