<svg id="Layer_1" data-name="Layer 1" xmlns="http://www.w3.org/2000/svg" xmlns:xlink="http://www.w3.org/1999/xlink" viewBox="0 0 26.13 16.86"><defs><style>.cls-1,.cls-2,.cls-3,.cls-4,.cls-5{stroke:#ffa3c7;stroke-width:1.13px}.cls-1{fill:url(#linear-gradient)}.cls-2{fill:url(#linear-gradient-2)}.cls-3{fill:url(#linear-gradient-3)}.cls-4{fill:url(#linear-gradient-4)}.cls-5{fill:url(#linear-gradient-5)}</style><linearGradient id="linear-gradient" x1="6.17" y1=".89" x2="6.94" y2="18.61" gradientTransform="matrix(1 0 0 -1 0 18.75)" gradientUnits="userSpaceOnUse"><stop offset="0" stop-color="#0170ca"/><stop offset=".98" stop-color="#ec449a"/></linearGradient><linearGradient id="linear-gradient-2" x1="8.48" y1="-321.68" x2="19.22" y2="37.02" xlink:href="#linear-gradient"/><linearGradient id="linear-gradient-3" x1="-30.55" y1="-262.41" x2="7.82" y2="30.04" xlink:href="#linear-gradient"/><linearGradient id="linear-gradient-4" x1="-40.89" y1="-140.67" x2="8.83" y2="19.96" xlink:href="#linear-gradient"/><linearGradient id="linear-gradient-5" x1="16.38" y1="-71.93" x2="17.25" y2="13.77" xlink:href="#linear-gradient"/></defs><title>layer5</title><path class="cls-1" d="M6.55 16.73C3.49 16.73 1 13.2 1 8.86S3.49 1 6.55 1c2.3 0 4.35 2 5.18 5a10.78 10.78 0 0 1 .38 2.84 10 10 0 0 1-1.16 4.86 5.22 5.22 0 0 1-4.4 3.03zm0-15.37c-2.84 0-5.16 3.37-5.16 7.5s2.31 7.51 5.16 7.51a4.78 4.78 0 0 0 4-2.81 9.83 9.83 0 0 0 1.14-4.69 10.45 10.45 0 0 0-.36-2.76c-.76-2.85-2.68-4.75-4.78-4.75z" transform="translate(-.43 -.43)"/><path class="cls-2" d="M11.09 13.75a.42.42 0 0 1-.18 0 .38.38 0 0 1-.13-.11.34.34 0 0 1-.06-.16.33.33 0 0 1 0-.17 9.89 9.89 0 0 0 1-4.39 10.5 10.5 0 0 0-.32-2.62.32.32 0 0 1 0-.14.33.33 0 0 1 .04-.16.37.37 0 0 1 .11-.1.4.4 0 0 1 .14-.05L21 4.15a4.57 4.57 0 0 1 1.64 0 4.42 4.42 0 0 1 1.52.56 4 4 0 0 1 1.17 1.05 3.66 3.66 0 0 1 .64 1.38 3.54 3.54 0 0 1-.97 3.17 4.28 4.28 0 0 1-2.41 1.32l-11.42 2.12zM21.8 4.41a4.18 4.18 0 0 0-.76.07L11.77 6.2a10.5 10.5 0 0 1 .34 2.66 10.21 10.21 0 0 1-1 4.53l11.47-2.14a3.88 3.88 0 0 0 2.18-1.2 3.19 3.19 0 0 0 .79-2.89 3.45 3.45 0 0 0-1.33-2 4 4 0 0 0-2.42-.75z" transform="translate(-.43 -.43)"/><path class="cls-3" d="M4.91 14.89h-.14a5.75 5.75 0 0 1-1.3-4 5.71 5.71 0 0 1 1.3-4h.29a4.41 4.41 0 0 1 1 2 7.38 7.38 0 0 1 .26 1.95 6.67 6.67 0 0 1-.74 3.18 3.25 3.25 0 0 1-.57.77.2.2 0 0 1-.1.1zm0-7.57a5.72 5.72 0 0 0-1 3.55 5.73 5.73 0 0 0 1 3.55 3.29 3.29 0 0 0 .36-.5 6.34 6.34 0 0 0 .7-3A7 7 0 0 0 5.71 9a4.46 4.46 0 0 0-.81-1.69z" transform="translate(-.43 -.43)"/><path class="cls-4" d="M5.08 13.26a.21.21 0 0 1-.12 0 .18.18 0 0 1-.07-.1 7.6 7.6 0 0 1 0-4.47.17.17 0 0 1 0-.06h.28l.05.05a.17.17 0 0 1 0 .07.16.16 0 0 1 0 .07 7.32 7.32 0 0 0 0 4.31.16.16 0 0 1 0 .07.17.17 0 0 1 0 .07l-.05.05H5.1z" transform="translate(-.43 -.43)"/><path class="cls-5" d="M12 12.62a.21.21 0 0 1-.12-.05.18.18 0 0 1-.06-.11.17.17 0 0 1 0-.12.2.2 0 0 1 .11-.07l10.36-2h.2a.16.16 0 0 1 0 .2.2.2 0 0 1-.12.08L12 12.62z" transform="translate(-.43 -.43)"/></svg>