<svg data-name="Layer 1" xmlns="http://www.w3.org/2000/svg" viewBox="0 0 11.88 26.74"><title>layer2</title><path class="cls-1" d="M9.63 7.73h-.24a13.72 13.72 0 0 1-4.15-.84l-.4-.16a9 9 0 0 1-2.73-1.39 2.07 2.07 0 0 1-.79-1.6 2.38 2.38 0 0 1 .25-1.17 3.12 3.12 0 0 1 .86-1 4.36 4.36 0 0 1 1.32-.7 5.38 5.38 0 0 1 1.61-.3c2.43 0 3.47 2.27 4 3.36a7.71 7.71 0 0 0 1.07 1.64c.65.78 1.21 1.46.67 1.89a2.52 2.52 0 0 1-1.47.27zM5.36.97a4.24 4.24 0 0 0-2.5.85 2.34 2.34 0 0 0-1 1.91 1.73 1.73 0 0 0 .71 1.35 8.7 8.7 0 0 0 2.51 1.29l.4.16a13.17 13.17 0 0 0 3.92.79 2.52 2.52 0 0 0 1.31-.18c.26-.21-.25-.82-.72-1.41a8 8 0 0 1-1.15-1.67C8.11 2.57 7.16.97 5.36.97z"/><path class="cls-2" d="M3.21 4.86h-.12L3 4.81a1.3 1.3 0 0 1-.5-1.07 1.71 1.71 0 0 1 .19-.86 2.24 2.24 0 0 1 .61-.74 3.13 3.13 0 0 1 .95-.57 3.87 3.87 0 0 1 1.14-.2.32.32 0 0 1 .18.11.17.17 0 0 1 0 .28.32.32 0 0 1-.19.06 3.16 3.16 0 0 0-.94.17 2.54 2.54 0 0 0-.78.43 1.81 1.81 0 0 0-.5.62 1.39 1.39 0 0 0-.14.71 1 1 0 0 0 .4.82h.06a.15.15 0 0 1 0 .15l-.06.06h-.1z"/><path class="cls-3" d="M9.39 25.42H2.32a.33.33 0 0 1-.19-.05.19.19 0 0 1-.09-.13v-20a.17.17 0 0 1 .05-.11.28.28 0 0 1 .13-.07.37.37 0 0 1 .16 0 .3.3 0 0 1 .19.02A14.3 14.3 0 0 0 9.4 7.32a.32.32 0 0 1 .18.06.18.18 0 0 1 .08.14v17.71a.19.19 0 0 1-.09.13.33.33 0 0 1-.18.06zm-6.82-.4h6.5V7.71a15.85 15.85 0 0 1-6.5-2z"/><path class="cls-4" d="M10.36 26.17h-9a.91.91 0 0 1-.54-.16.47.47 0 0 1 0-.8.91.91 0 0 1 .54-.16h9a.91.91 0 0 1 .54.16.47.47 0 0 1 0 .8.91.91 0 0 1-.54.16zm-9-.72a.26.26 0 0 0-.15 0 .13.13 0 0 0 0 .23.26.26 0 0 0 .15 0h9a.26.26 0 0 0 .15 0 .13.13 0 0 0 0-.23.26.26 0 0 0-.15 0z"/><path class="cls-5" d="M2.05 8.91h-.09a.69.69 0 0 1-.21-.06.53.53 0 0 1-.18-.1.34.34 0 0 1-.1-.31.42.42 0 0 1 .22-.27.63.63 0 0 1 .19-.07.72.72 0 0 1 .22 0 .69.69 0 0 1 .21.06.53.53 0 0 1 .16.11.34.34 0 0 1 .1.3.42.42 0 0 1-.22.27.68.68 0 0 1-.3.07z"/><path class="cls-6" d="M2.05 10.97h-.09a.69.69 0 0 1-.21-.06.53.53 0 0 1-.18-.1.34.34 0 0 1-.1-.31.42.42 0 0 1 .22-.27.64.64 0 0 1 .2-.07.73.73 0 0 1 .22 0 .69.69 0 0 1 .21.06.53.53 0 0 1 .16.11.34.34 0 0 1 .09.24.42.42 0 0 1-.22.27.68.68 0 0 1-.3.13z"/><path class="cls-7" d="M2.05 13.03h-.09a.69.69 0 0 1-.21-.06.53.53 0 0 1-.18-.11.34.34 0 0 1-.1-.31.42.42 0 0 1 .22-.27.65.65 0 0 1 .2-.07.74.74 0 0 1 .22 0 .69.69 0 0 1 .2.05.53.53 0 0 1 .16.11.34.34 0 0 1 .1.31.42.42 0 0 1-.22.27.68.68 0 0 1-.3.08z"/><path class="cls-8" d="M2.05 15.09h-.09a.69.69 0 0 1-.21-.06.53.53 0 0 1-.18-.11.34.34 0 0 1-.1-.31.42.42 0 0 1 .22-.27.65.65 0 0 1 .2-.07.75.75 0 0 1 .22 0 .69.69 0 0 1 .21.06.53.53 0 0 1 .16.11.34.34 0 0 1 .1.31.42.42 0 0 1-.22.27.68.68 0 0 1-.31.07z"/><path class="cls-9" d="M2.05 17.14h-.09a.69.69 0 0 1-.21-.06.53.53 0 0 1-.18-.1.34.34 0 0 1-.1-.31.42.42 0 0 1 .22-.27.66.66 0 0 1 .2-.07.74.74 0 0 1 .22 0 .69.69 0 0 1 .21.06.53.53 0 0 1 .16.11.34.34 0 0 1 .1.31.42.42 0 0 1-.22.27.68.68 0 0 1-.31.06z"/><path class="cls-10" d="M2.05 19.2h-.09a.69.69 0 0 1-.21-.06.53.53 0 0 1-.18-.1.34.34 0 0 1-.1-.31.42.42 0 0 1 .22-.27.66.66 0 0 1 .2-.07.76.76 0 0 1 .22 0 .69.69 0 0 1 .21.06.53.53 0 0 1 .16.11.34.34 0 0 1 .1.31.42.42 0 0 1-.22.27.68.68 0 0 1-.31.06z"/><path class="cls-11" d="M2.05 21.26h-.09a.69.69 0 0 1-.21-.06.53.53 0 0 1-.18-.1.34.34 0 0 1-.1-.31.42.42 0 0 1 .22-.27.65.65 0 0 1 .2-.07.74.74 0 0 1 .22 0 .69.69 0 0 1 .21.06.53.53 0 0 1 .16.11.34.34 0 0 1 .1.31.42.42 0 0 1-.22.27.68.68 0 0 1-.31.06z"/><path class="cls-12" d="M9.68 8.91h-.11a.69.69 0 0 1-.21-.06.53.53 0 0 1-.16-.11.34.34 0 0 1-.1-.31.42.42 0 0 1 .22-.27.65.65 0 0 1 .2-.07.74.74 0 0 1 .22 0 .69.69 0 0 1 .21.06.53.53 0 0 1 .16.11.34.34 0 0 1 .09.31.43.43 0 0 1-.23.27.67.67 0 0 1-.29.07z"/><path class="cls-13" d="M9.68 10.97h-.11a.69.69 0 0 1-.21-.06.53.53 0 0 1-.16-.11.34.34 0 0 1-.1-.31.42.42 0 0 1 .22-.27.65.65 0 0 1 .2-.07.74.74 0 0 1 .22 0 .69.69 0 0 1 .2.05.53.53 0 0 1 .16.11.34.34 0 0 1 .09.31.43.43 0 0 1-.23.27.67.67 0 0 1-.28.08z"/><path class="cls-14" d="M9.68 13.03h-.11a.69.69 0 0 1-.21-.06.53.53 0 0 1-.16-.11.34.34 0 0 1-.1-.31.42.42 0 0 1 .22-.27.65.65 0 0 1 .2-.07.74.74 0 0 1 .22 0 .69.69 0 0 1 .2.05.53.53 0 0 1 .16.11.34.34 0 0 1 .09.31.43.43 0 0 1-.23.27.67.67 0 0 1-.28.08z"/><path class="cls-15" d="M9.68 15.09h-.11a.69.69 0 0 1-.21-.06.53.53 0 0 1-.16-.11.34.34 0 0 1-.1-.31.42.42 0 0 1 .22-.27.71.71 0 0 1 .41-.08.69.69 0 0 1 .21.06.53.53 0 0 1 .16.11.34.34 0 0 1 .09.31.43.43 0 0 1-.23.27.67.67 0 0 1-.28.08z"/><path class="cls-16" d="M9.68 17.14h-.11a.69.69 0 0 1-.21-.06.53.53 0 0 1-.16-.11.34.34 0 0 1-.1-.31.42.42 0 0 1 .22-.27.65.65 0 0 1 .2-.07.74.74 0 0 1 .22 0 .69.69 0 0 1 .2.05.53.53 0 0 1 .16.11.38.38 0 0 1 .09.15.31.31 0 0 1 0 .16.36.36 0 0 1-.08.15.51.51 0 0 1-.15.12.68.68 0 0 1-.28.08z"/><path class="cls-17" d="M9.68 19.2h-.11a.69.69 0 0 1-.21-.06.53.53 0 0 1-.16-.11.34.34 0 0 1-.1-.31.42.42 0 0 1 .22-.27.66.66 0 0 1 .2-.07.74.74 0 0 1 .22 0 .69.69 0 0 1 .2.05.53.53 0 0 1 .16.11.38.38 0 0 1 .09.15.31.31 0 0 1 0 .16.36.36 0 0 1-.08.15.51.51 0 0 1-.15.12.68.68 0 0 1-.28.08z"/><path class="cls-18" d="M9.68 21.26h-.11a.69.69 0 0 1-.21-.06.53.53 0 0 1-.16-.11.34.34 0 0 1-.1-.31.42.42 0 0 1 .22-.27.65.65 0 0 1 .2-.07.74.74 0 0 1 .22 0 .69.69 0 0 1 .21.06.53.53 0 0 1 .16.11.37.37 0 0 1 .09.15.31.31 0 0 1 0 .16.37.37 0 0 1-.08.15.51.51 0 0 1-.15.12.68.68 0 0 1-.29.07z"/><path class="cls-19" d="M5.86 8.91h-.08a.69.69 0 0 1-.21-.05.53.53 0 0 1-.16-.11.34.34 0 0 1-.1-.31.42.42 0 0 1 .26-.28.63.63 0 0 1 .19-.07.72.72 0 0 1 .22 0 .69.69 0 0 1 .21.06.53.53 0 0 1 .16.11.34.34 0 0 1 .1.31.42.42 0 0 1-.22.27.69.69 0 0 1-.37.07z"/><path class="cls-20" d="M5.86 10.97h-.08a.69.69 0 0 1-.21-.05.53.53 0 0 1-.16-.11.34.34 0 0 1-.11-.31.41.41 0 0 1 .27-.28.64.64 0 0 1 .19-.07.73.73 0 0 1 .22 0 .69.69 0 0 1 .21.06.53.53 0 0 1 .16.11.34.34 0 0 1 .1.31.42.42 0 0 1-.22.27.69.69 0 0 1-.37.07z"/><path class="cls-21" d="M5.86 13.03h-.08a.69.69 0 0 1-.21-.05.53.53 0 0 1-.16-.11.34.34 0 0 1-.1-.31.42.42 0 0 1 .26-.28.65.65 0 0 1 .2-.07.74.74 0 0 1 .22 0 .69.69 0 0 1 .2.05.53.53 0 0 1 .16.11.34.34 0 0 1 .1.31.42.42 0 0 1-.22.27.69.69 0 0 1-.37.08z"/><path class="cls-22" d="M5.86 15.09h-.08a.69.69 0 0 1-.21-.06.53.53 0 0 1-.16-.11.36.36 0 0 1-.11-.23.34.34 0 0 1 .08-.23.53.53 0 0 1 .24-.16.74.74 0 0 1 .32 0 .69.69 0 0 1 .21.06.53.53 0 0 1 .16.11.34.34 0 0 1 .1.31.42.42 0 0 1-.22.27.7.7 0 0 1-.33.04z"/><path class="cls-23" d="M5.86 17.14h-.08a.69.69 0 0 1-.21-.05.53.53 0 0 1-.16-.11.34.34 0 0 1-.1-.31.42.42 0 0 1 .26-.28.65.65 0 0 1 .2-.07.74.74 0 0 1 .22 0 .69.69 0 0 1 .2.05.53.53 0 0 1 .16.11.34.34 0 0 1 .1.31.42.42 0 0 1-.22.27.69.69 0 0 1-.37.08z"/><path class="cls-24" d="M5.86 19.2h-.08a.69.69 0 0 1-.21-.05.53.53 0 0 1-.16-.11.34.34 0 0 1-.1-.31.42.42 0 0 1 .26-.28.66.66 0 0 1 .2-.07.74.74 0 0 1 .22 0 .69.69 0 0 1 .2.05.53.53 0 0 1 .16.11.34.34 0 0 1 .1.31.42.42 0 0 1-.22.27.69.69 0 0 1-.37.08z"/><path class="cls-25" d="M5.86 21.26h-.08a.69.69 0 0 1-.21-.05.53.53 0 0 1-.16-.11.34.34 0 0 1-.1-.31.42.42 0 0 1 .26-.28.62.62 0 0 1 .19-.08.73.73 0 0 1 .22 0 .69.69 0 0 1 .21.06.53.53 0 0 1 .16.11.34.34 0 0 1 .1.31.42.42 0 0 1-.22.27.67.67 0 0 1-.37.08z"/></svg>