<svg data-name="Layer 1" xmlns="http://www.w3.org/2000/svg" viewBox="0 0 26.1 24.3"><title>layer9</title><path class="cls-1" d="M13.05 19.72a8.62 8.62 0 0 1-5.55-2.36 7.11 7.11 0 0 1 0-10.4 8.62 8.62 0 0 1 5.55-2.36 8.65 8.65 0 0 1 5.7 2.29 7.11 7.11 0 0 1 0 10.55 8.65 8.65 0 0 1-5.7 2.29zm0-14.69a8.15 8.15 0 0 0-5.37 2.15 6.7 6.7 0 0 0 0 9.94 8.15 8.15 0 0 0 5.37 2.16 8.15 8.15 0 0 0 5.37-2.16 6.7 6.7 0 0 0 0-9.94 8.15 8.15 0 0 0-5.37-2.15z"/><path class="cls-2" d="M8.62 16.5h-.2a5.91 5.91 0 0 1-1.78-3.08 5.58 5.58 0 0 1 .37-3.47 6.2 6.2 0 0 1 2.41-2.78 7.07 7.07 0 0 1 3.63-1.06 6.94 6.94 0 0 1 2.5.45 6.47 6.47 0 0 1 2.11 1.31.21.21 0 0 1 .05.15.21.21 0 0 1-.07.15.26.26 0 0 1-.16.06.26.26 0 0 1-.17-.05 6 6 0 0 0-1.95-1.21 6.43 6.43 0 0 0-2.31-.47 6.55 6.55 0 0 0-3.37 1 5.75 5.75 0 0 0-2.18 2.54 5.17 5.17 0 0 0-.34 3.22 5.49 5.49 0 0 0 1.66 2.85.22.22 0 0 1 .06.11.21.21 0 0 1 0 .13.23.23 0 0 1-.09.1.26.26 0 0 1-.13 0z"/><path class="cls-3" d="M23.41 21.98H2.5a.23.23 0 0 1-.06-.07.21.21 0 0 1 0-.09V2.5a.21.21 0 0 1 .06-.12.26.26 0 0 1 .17-.07h20.74a.25.25 0 0 1 .17.07.21.21 0 0 1 .07.16v19.23a.21.21 0 0 1-.07.15.26.26 0 0 1-.17.06zM2.94 21.5h20.23V2.76H2.94z"/><path class="cls-4" d="M25.37 23.8H.74a.26.26 0 0 1-.17-.07.21.21 0 0 1-.07-.15V.72A.21.21 0 0 1 .57.56.25.25 0 0 1 .74.5h24.63a.25.25 0 0 1 .17.07.21.21 0 0 1 .07.16v22.85a.21.21 0 0 1-.07.15.26.26 0 0 1-.17.07zM.98 23.36h24.14V.94H.98z"/></svg>