<svg id="Layer_1" data-name="Layer 1" xmlns="http://www.w3.org/2000/svg" xmlns:xlink="http://www.w3.org/1999/xlink" viewBox="0 0 23.39 23.08"><defs><style>.cls-1,.cls-2,.cls-3,.cls-4{stroke:#ffa3c7;stroke-width:1.13px}.cls-1{fill:url(#linear-gradient)}.cls-2{fill:url(#linear-gradient-2)}.cls-3{fill:url(#linear-gradient-3)}.cls-4{fill:url(#linear-gradient-4)}</style><linearGradient id="linear-gradient" x1="12.24" y1="-.81" x2="12.02" y2="24.96" gradientTransform="matrix(1 0 0 -1 0 24.75)" gradientUnits="userSpaceOnUse"><stop offset="0" stop-color="#0170ca"/><stop offset=".98" stop-color="#ec449a"/></linearGradient><linearGradient id="linear-gradient-2" x1="16.35" y1="-83.36" x2="16.09" y2="14.04" xlink:href="#linear-gradient"/><linearGradient id="linear-gradient-3" x1="8.34" y1="-83.36" x2="8.09" y2="14.04" xlink:href="#linear-gradient"/><linearGradient id="linear-gradient-4" x1="12.2" y1="-19.53" x2="12.12" y2="11.44" xlink:href="#linear-gradient"/></defs><title>layer3</title><path class="cls-1" d="M21.31 22.95h-8.88v-.06a.16.16 0 0 1 0-.07c.06-1.14.05-2.34 0-3.3a15 15 0 0 1 0-1.76 4.5 4.5 0 0 1 .42-1.13c.26-.53.46-1 .2-1.38a1.66 1.66 0 0 0-.41-.46c-.25-.21-.41-.34-.5-1.21-.11.87-.27 1-.5 1.21a1.65 1.65 0 0 0-.41.46c-.26.43-.06.85.2 1.38a4.5 4.5 0 0 1 .42 1.13 15 15 0 0 1 0 1.76v3.3a.16.16 0 0 1 0 .07v.06H2.93a.2.2 0 0 1-.11 0 .17.17 0 0 1-.07-.09A31.54 31.54 0 0 1 1 13a11.09 11.09 0 0 1 1.29-5.52A27.78 27.78 0 0 0 4.4 1.14.17.17 0 0 1 4.47 1a.2.2 0 0 1 .12 0h15.08a.2.2 0 0 1 .12 0 .17.17 0 0 1 .07.1A27.79 27.79 0 0 0 22 7.48 11.09 11.09 0 0 1 23.25 13a31.54 31.54 0 0 1-1.75 9.83.17.17 0 0 1-.07.1.2.2 0 0 1-.12.02zm-8.57-.34h8.43A31.1 31.1 0 0 0 22.86 13a10.84 10.84 0 0 0-1.25-5.39 28 28 0 0 1-2.11-6.27H4.74a28 28 0 0 1-2.1 6.26A10.85 10.85 0 0 0 1.38 13a31.1 31.1 0 0 0 1.69 9.6h8.43v-4.84a4.18 4.18 0 0 0-.38-1c-.28-.57-.53-1.11-.18-1.68a2 2 0 0 1 .5-.56c.37-.3.5-.43.58-6.57A.17.17 0 0 1 12 7.8a.2.2 0 0 1 .25 0 .17.17 0 0 1 .06.1c.06 6.14.21 6.27.58 6.57a2 2 0 0 1 .5.56c.35.57.09 1.11-.18 1.68a4.19 4.19 0 0 0-.39 1 15.74 15.74 0 0 0 0 1.7c-.04.97-.03 2.09-.08 3.19z" transform="translate(-.43 -.43)"/><path class="cls-2" d="M17.12 16.69a7.11 7.11 0 0 1-4-1.42h-.05a.16.16 0 0 1 0-.06.16.16 0 0 1 0-.07.16.16 0 0 1 0-.06h.26A6.35 6.35 0 0 0 19 16.11a.2.2 0 0 1 .12 0 .17.17 0 0 1 .07.1.16.16 0 0 1 0 .12.19.19 0 0 1-.1.08 9.9 9.9 0 0 1-1.97.28z" transform="translate(-.43 -.43)"/><path class="cls-3" d="M7.13 16.69a9.9 9.9 0 0 1-2-.24h-.14a.17.17 0 0 1 0-.07.16.16 0 0 1 0-.08.17.17 0 0 1 0-.07h.22A6.36 6.36 0 0 0 10.92 15a.2.2 0 0 1 .14 0 .19.19 0 0 1 .12.07.16.16 0 0 1 0 .13.17.17 0 0 1-.08.11 7.06 7.06 0 0 1-3.97 1.38z" transform="translate(-.43 -.43)"/><path class="cls-4" d="M12.12 15.21a2.33 2.33 0 0 1-.93-.23.18.18 0 0 1-.07-.1.16.16 0 0 1 0-.12.18.18 0 0 1 .09-.08.21.21 0 0 1 .13 0 1.49 1.49 0 0 0 1.54 0 .21.21 0 0 1 .13 0 .18.18 0 0 1 .09.08.16.16 0 0 1 0 .12.18.18 0 0 1-.1.12 2.33 2.33 0 0 1-.88.21z" transform="translate(-.43 -.43)"/><path class="cls-1" d="M21.31 22.95h-8.88v-.06a.16.16 0 0 1 0-.07c.06-1.14.05-2.34 0-3.3a15 15 0 0 1 0-1.76 4.5 4.5 0 0 1 .42-1.13c.26-.53.46-1 .2-1.38a1.66 1.66 0 0 0-.41-.46c-.25-.21-.41-.34-.5-1.21-.11.87-.27 1-.5 1.21a1.65 1.65 0 0 0-.41.46c-.26.43-.06.85.2 1.38a4.5 4.5 0 0 1 .42 1.13 15 15 0 0 1 0 1.76v3.3a.16.16 0 0 1 0 .07v.06H2.93a.2.2 0 0 1-.11 0 .17.17 0 0 1-.07-.09A31.54 31.54 0 0 1 1 13a11.09 11.09 0 0 1 1.29-5.52A27.78 27.78 0 0 0 4.4 1.14.17.17 0 0 1 4.47 1a.2.2 0 0 1 .12 0h15.08a.2.2 0 0 1 .12 0 .17.17 0 0 1 .07.1A27.79 27.79 0 0 0 22 7.48 11.09 11.09 0 0 1 23.25 13a31.54 31.54 0 0 1-1.75 9.83.17.17 0 0 1-.07.1.2.2 0 0 1-.12.02zm-8.57-.34h8.43A31.1 31.1 0 0 0 22.86 13a10.84 10.84 0 0 0-1.25-5.39 28 28 0 0 1-2.11-6.27H4.74a28 28 0 0 1-2.1 6.26A10.85 10.85 0 0 0 1.38 13a31.1 31.1 0 0 0 1.69 9.6h8.43v-4.84a4.18 4.18 0 0 0-.38-1c-.28-.57-.53-1.11-.18-1.68a2 2 0 0 1 .5-.56c.37-.3.5-.43.58-6.57A.17.17 0 0 1 12 7.8a.2.2 0 0 1 .25 0 .17.17 0 0 1 .06.1c.06 6.14.21 6.27.58 6.57a2 2 0 0 1 .5.56c.35.57.09 1.11-.18 1.68a4.19 4.19 0 0 0-.39 1 15.74 15.74 0 0 0 0 1.7c-.04.97-.03 2.09-.08 3.19z" transform="translate(-.43 -.43)"/><path class="cls-2" d="M17.12 16.69a7.11 7.11 0 0 1-4-1.42h-.05a.16.16 0 0 1 0-.06.16.16 0 0 1 0-.07.16.16 0 0 1 0-.06h.26A6.35 6.35 0 0 0 19 16.11a.2.2 0 0 1 .12 0 .17.17 0 0 1 .07.1.16.16 0 0 1 0 .12.19.19 0 0 1-.1.08 9.9 9.9 0 0 1-1.97.28z" transform="translate(-.43 -.43)"/><path class="cls-3" d="M7.13 16.69a9.9 9.9 0 0 1-2-.24h-.14a.17.17 0 0 1 0-.07.16.16 0 0 1 0-.08.17.17 0 0 1 0-.07h.22A6.36 6.36 0 0 0 10.92 15a.2.2 0 0 1 .14 0 .19.19 0 0 1 .12.07.16.16 0 0 1 0 .13.17.17 0 0 1-.08.11 7.06 7.06 0 0 1-3.97 1.38z" transform="translate(-.43 -.43)"/><path class="cls-4" d="M12.12 15.21a2.37 2.37 0 0 1-.93-.23.18.18 0 0 1-.07-.1.16.16 0 0 1 0-.12.18.18 0 0 1 .09-.08.21.21 0 0 1 .13 0 1.57 1.57 0 0 0 1.54 0 .21.21 0 0 1 .13 0 .18.18 0 0 1 .09.08.16.16 0 0 1 0 .12.18.18 0 0 1-.1.12 2.37 2.37 0 0 1-.88.21z" transform="translate(-.43 -.43)"/></svg>