<svg data-name="Layer 1" xmlns="http://www.w3.org/2000/svg" viewBox="0 0 14.67 26.74"><title>layer1</title><path class="cls-1" d="M7.34 17.89a7.24 7.24 0 0 1-1.43-.14 7 7 0 0 1-3.84-2.18 5.92 5.92 0 0 1-1.5-3.91C.57 8.45 3.5.57 7.34.57s6.77 7.88 6.77 11.09a5.93 5.93 0 0 1-1.54 3.91 7 7 0 0 1-3.83 2.19 7.25 7.25 0 0 1-1.4.13zm0-16.92C4 .97 1.01 8.23 1.01 11.66a5.54 5.54 0 0 0 1.4 3.65 6.5 6.5 0 0 0 3.59 2 6.9 6.9 0 0 0 2.67 0 6.5 6.5 0 0 0 3.59-2 5.54 5.54 0 0 0 1.4-3.65C13.66 8.23 10.67.97 7.34.97z"/><path class="cls-2" d="M2.05 11.87a.23.23 0 0 1-.15-.06.2.2 0 0 1-.07-.14c0-3.38 3-10 5.5-10a.23.23 0 0 1 .13.07.19.19 0 0 1 0 .26.23.23 0 0 1-.13.07c-2.08 0-5.06 6.18-5.06 9.55a.2.2 0 0 1-.07.14.23.23 0 0 1-.15.11z"/><path class="cls-3" d="M1.41 23.37h-.15a1 1 0 0 1-.25-.32.94.94 0 0 1-.1-.39c0-1.16 2.53-1.86 5-2h.17a.2.2 0 0 1 .05.07.19.19 0 0 1 0 .08v.93a.19.19 0 0 1-.06.14.23.23 0 0 1-.31 0 .19.19 0 0 1-.06-.14v-.72c-2.75.23-4.39 1-4.39 1.61a.61.61 0 0 0 .23.42.2.2 0 0 1 .06.1.19.19 0 0 1 0 .12.21.21 0 0 1-.08.09.24.24 0 0 1-.11.01z"/><path class="cls-4" d="M13.26 23.37a.24.24 0 0 1-.12 0 .21.21 0 0 1-.08-.09.19.19 0 0 1 0-.11.2.2 0 0 1 .05-.1.62.62 0 0 0 .23-.43c0-.63-1.64-1.38-4.39-1.61v.71a.19.19 0 0 1-.06.14.23.23 0 0 1-.31 0 .19.19 0 0 1-.06-.14v-.97a.19.19 0 0 1 0-.08.2.2 0 0 1 .05-.07h.17c2.5.17 5 .86 5 2a1 1 0 0 1-.35.7l-.07.05z"/><path class="cls-5" d="M8.72 21.91a.23.23 0 0 1-.15-.06.2.2 0 0 1-.07-.14v-3.9a7.45 7.45 0 0 1-2.35 0v3.9a.19.19 0 0 1-.06.14.23.23 0 0 1-.31 0 .19.19 0 0 1-.06-.14v-4.14a.19.19 0 0 1 0-.09.21.21 0 0 1 .06-.07h.19a6.92 6.92 0 0 0 2.67 0h.19a.21.21 0 0 1 .06.07.19.19 0 0 1 0 .09v4.14a.2.2 0 0 1-.06.14.23.23 0 0 1-.11.06z"/><path class="cls-6" d="M7.34 24.7c-2.77 0-5.21-.54-6.07-1.37a.19.19 0 0 1 0-.14.2.2 0 0 1 .07-.13.23.23 0 0 1 .14-.06.24.24 0 0 1 .15 0c.75.71 3.14 1.22 5.76 1.22s5-.54 5.76-1.24a.23.23 0 0 1 .31 0 .19.19 0 0 1 0 .28c-.89.86-3.35 1.44-6.12 1.44z"/><path class="cls-7" d="M7.34 26.17c-3.37 0-6.45-1.16-6.45-2.44v-1.16a.19.19 0 0 1 .06-.14.23.23 0 0 1 .31 0 .19.19 0 0 1 .06.14.61.61 0 0 0 .23.42c.77.73 3.16 1.24 5.78 1.24s5-.54 5.76-1.24a.62.62 0 0 0 .23-.43.19.19 0 0 1 .06-.14.23.23 0 0 1 .31 0 .19.19 0 0 1 .06.14v1.14c.01 1.31-3.05 2.47-6.41 2.47zm-6-2.79v.35c0 .82 2.52 2 6 2s6-1.22 6-2v-.35c-.93.78-3.31 1.31-6 1.31s-5.06-.53-6-1.31z"/><path class="cls-8" d="M9.32 22.45a.88.88 0 0 1-.31-.05.83.83 0 0 1-.27-.16.75.75 0 0 1-.17-.25.69.69 0 0 1-.06-.28.19.19 0 0 1 .06-.14.23.23 0 0 1 .31 0 .19.19 0 0 1 .06.14.32.32 0 0 0 0 .13.34.34 0 0 0 .08.11.38.38 0 0 0 .12.07h.14a.23.23 0 0 1 .16.06.19.19 0 0 1 0 .28.23.23 0 0 1-.12.09z"/><path class="cls-9" d="M5.35 22.45a.23.23 0 0 1-.13-.07.19.19 0 0 1 0-.26.23.23 0 0 1 .13-.07h.14a.38.38 0 0 0 .08-.1.34.34 0 0 0 .08-.11.32.32 0 0 0 0-.13.2.2 0 0 1 .16-.14.24.24 0 0 1 .29 0 .2.2 0 0 1 .08.12.69.69 0 0 1-.06.28.75.75 0 0 1-.18.24.83.83 0 0 1-.27.16.88.88 0 0 1-.32.08z"/></svg>