<svg data-name="Layer 1" xmlns="http://www.w3.org/2000/svg" viewBox="0 0 18.58 29.84"><title>layer15</title><path class="cls-1" d="M5.1 10.09h-.41a5.43 5.43 0 0 1-.6-.09h-.17l-.23-.06a6.12 6.12 0 0 1-.94-.32l-.18-.08-.28-.14-.64-.31h-.07a3 3 0 0 1-.71-.5l-.12-.12a1.68 1.68 0 0 1-.46-1.24 2.14 2.14 0 0 1 .67-1.61 2.57 2.57 0 0 1 1.71-.71c1.46 0 2.06 1.64 2.35 2.45a5.56 5.56 0 0 0 .64 1.07c.39.58.72 1.08.37 1.43a1.26 1.26 0 0 1-.43.2 1.32 1.32 0 0 1-.5.03zM2.67 5.38a2 2 0 0 0-1.38.56 1.71 1.71 0 0 0-.5 1.27 1.23 1.23 0 0 0 .34.89l.09.09a3 3 0 0 0 .67.46h.07l1 .48a5.76 5.76 0 0 0 .87.29h.35a5 5 0 0 0 .56.09h.25c.43 0 .62-.06.67-.1a2.54 2.54 0 0 0-.37-.76 5.85 5.85 0 0 1-.67-1.19c-.46-1.04-.98-2.08-1.95-2.08z"/><path class="cls-2" d="M1.44 8.11l-.15-.02v-.06a1.1 1.1 0 0 1-.29-.8 1.57 1.57 0 0 1 .47-1.17 1.88 1.88 0 0 1 1.24-.53h.21a.24.24 0 0 1 .07.08.21.21 0 0 1 0 .2.24.24 0 0 1-.07.08h-.25a1.35 1.35 0 0 0-.89.38 1.13 1.13 0 0 0-.34.84.67.67 0 0 0 .19.5.23.23 0 0 1 .06.07.21.21 0 0 1 0 .18.23.23 0 0 1-.06.07l-.09.06z"/><path class="cls-3" d="M1.77 9.1a.27.27 0 0 1-.13 0 3.34 3.34 0 0 1-.76-.53.22.22 0 0 1 0-.16.23.23 0 0 1 .08-.14.27.27 0 0 1 .16-.06.27.27 0 0 1 .17 0l.17.14a4.21 4.21 0 0 0 .47.31.23.23 0 0 1 .11.14.22.22 0 0 1 0 .17.24.24 0 0 1-.08.08z"/><path class="cls-4" d="M3.75 9.92h-.07a6.11 6.11 0 0 1-.94-.32.24.24 0 0 1-.13-.14.22.22 0 0 1 0-.18.25.25 0 0 1 .15-.12.28.28 0 0 1 .2 0 7.7 7.7 0 0 0 .87.29.25.25 0 0 1 .15.11.22.22 0 0 1 0 .17.23.23 0 0 1-.1.13.27.27 0 0 1-.13.06z"/><path class="cls-5" d="M17.05 6.68h-.17a5.84 5.84 0 0 1-.73-.07h-.47a8 8 0 0 1-1.57-.49l-.22-.1-.23-.12c-.34-.16-.67-.31-1-.48l-.33-.19a3 3 0 0 1-.55-.42l-.16-.13a2 2 0 0 1-.56-1.44 2.55 2.55 0 0 1 .23-1.16 2.73 2.73 0 0 1 .62-.91 3 3 0 0 1 1-.63A3.25 3.25 0 0 1 14 .29c1.78 0 2.52 2 2.87 3a7 7 0 0 0 .78 1.38c.48.7.88 1.32.47 1.73a1.57 1.57 0 0 1-1.07.28zm-3-5.93a2.62 2.62 0 0 0-1.76.73 2.19 2.19 0 0 0-.67 1.64 1.63 1.63 0 0 0 .41 1.17l.11.11a2.64 2.64 0 0 0 .48.37l.32.2c.28.16.6.31.92.46l.23.11.19.08a7.53 7.53 0 0 0 1.48.47h.43a5.23 5.23 0 0 0 .67.07 1.45 1.45 0 0 0 .88-.15c.15-.15-.23-.72-.53-1.17a7.35 7.35 0 0 1-.86-1.47C15.91 2.13 15.29.75 14 .75z"/><path class="cls-6" d="M12.46 4.16h-.11l-.06-.08a1.33 1.33 0 0 1-.37-1 1.91 1.91 0 0 1 .58-1.43 2.28 2.28 0 0 1 1.52-.64.26.26 0 0 1 .15.08.22.22 0 0 1 0 .3.26.26 0 0 1-.15.08 1.76 1.76 0 0 0-1.16.51 1.47 1.47 0 0 0-.43 1.11.89.89 0 0 0 .25.66.22.22 0 0 1 .06.12.22.22 0 0 1 0 .13.24.24 0 0 1-.09.1.27.27 0 0 1-.19.06z"/><path class="cls-7" d="M12.49 5.19a.26.26 0 0 1-.13-.06 3.07 3.07 0 0 1-.56-.42.22.22 0 0 1 0-.16.23.23 0 0 1 .08-.14.27.27 0 0 1 .16-.06.27.27 0 0 1 .17 0 4.48 4.48 0 0 0 .48.37.24.24 0 0 1 .13.12.21.21 0 0 1 0 .16.23.23 0 0 1-.11.13.27.27 0 0 1-.22.06z"/><path class="cls-8" d="M15.71 6.52h-.06a8 8 0 0 1-1.57-.49.24.24 0 0 1-.13-.13.21.21 0 0 1 0-.18.25.25 0 0 1 .14-.12.27.27 0 0 1 .19 0 9.51 9.51 0 0 0 1.47.46h.09l.07.06a.22.22 0 0 1 0 .08.21.21 0 0 1 0 .09.21.21 0 0 1 0 .08l-.06.07h-.19z"/><path class="cls-9" d="M8.9 29.55a8.68 8.68 0 0 1-5.67-2.1 7.28 7.28 0 0 1-2.53-5.1V8.29a.21.21 0 0 1 0-.13.25.25 0 0 1 .12-.08.28.28 0 0 1 .15 0 .26.26 0 0 1 .13.07l.09.09.1.05a3.22 3.22 0 0 0 .58.39h.07a8.25 8.25 0 0 0 .81.39l.17.07a5.69 5.69 0 0 0 .87.29h.35a5 5 0 0 0 .56.09h.25a.27.27 0 0 1 .17.07.23.23 0 0 1 .07.16v12.23a2.79 2.79 0 0 0 .93 2.06 3.39 3.39 0 0 0 4.5 0 2.79 2.79 0 0 0 .93-2.06V4.42a.22.22 0 0 1 0-.13.25.25 0 0 1 .12-.08.28.28 0 0 1 .15 0 .26.26 0 0 1 .13.07l.11.11a2.64 2.64 0 0 0 .48.37l.1.07.22.13a9 9 0 0 0 1.15.56l.2.09a7.53 7.53 0 0 0 1.48.47h.43a5.23 5.23 0 0 0 .67.07.26.26 0 0 1 .17.07.22.22 0 0 1 .07.16v15.6a7.27 7.27 0 0 1-2.31 5.31 8.7 8.7 0 0 1-5.82 2.26zM1.2 8.8v13.49a6.84 6.84 0 0 0 2.37 4.8 8.14 8.14 0 0 0 10.79-.13 6.82 6.82 0 0 0 2.26-5V6.66a2.74 2.74 0 0 1-.49-.06h-.47a8 8 0 0 1-1.57-.49l-.22-.1a9.26 9.26 0 0 1-1.2-.72l-.2-.12-.18-.09-.23-.15v17a3.12 3.12 0 0 1-.25 1.36 3.37 3.37 0 0 1-.8 1.09 3.73 3.73 0 0 1-1.2.73 4 4 0 0 1-2.82 0 3.73 3.73 0 0 1-1.2-.73 3.37 3.37 0 0 1-.8-1.09A3.12 3.12 0 0 1 4.71 22V10.09a5.38 5.38 0 0 1-.6-.09h-.15l-.27-.06a6 6 0 0 1-.93-.31l-.18-.08a7.61 7.61 0 0 1-.9-.44h-.07a3.45 3.45 0 0 1-.41-.31z"/><path class="cls-10" d="M9 28.29a.26.26 0 0 1-.14-.08.22.22 0 0 1 0-.29.26.26 0 0 1 .14-.08 6.86 6.86 0 0 0 4.59-1.77 5.74 5.74 0 0 0 1.9-4.21.21.21 0 0 1 0-.1.23.23 0 0 1 .05-.09l.09-.06h.22l.09.06a.22.22 0 0 1 .05.09.21.21 0 0 1 0 .1 6.18 6.18 0 0 1-2.05 4.53A7.39 7.39 0 0 1 9 28.29z"/><path class="cls-11" d="M.96 22.54a.27.27 0 0 1-.17-.05.23.23 0 0 1-.09-.14v-.78a.22.22 0 0 1 .07-.16.27.27 0 0 1 .36 0 .22.22 0 0 1 .07.16v.72a.22.22 0 0 1-.07.16.27.27 0 0 1-.17.07z"/><path class="cls-12" d="M2.09 18.97a.27.27 0 0 1-.17-.07.22.22 0 0 1-.07-.16v-7.62a.23.23 0 0 1 .09-.14.27.27 0 0 1 .33 0 .23.23 0 0 1 .09.14v7.62a.22.22 0 0 1-.08.16.27.27 0 0 1-.19.07z"/><path class="cls-13" d="M2.09 20.24a.27.27 0 0 1-.17-.07.22.22 0 0 1-.07-.16v-.67a.23.23 0 0 1 .09-.14.27.27 0 0 1 .33 0 .23.23 0 0 1 .09.14v.67a.22.22 0 0 1-.08.16.27.27 0 0 1-.19.07z"/></svg>