<svg id="Layer_1" data-name="Layer 1" xmlns="http://www.w3.org/2000/svg" xmlns:xlink="http://www.w3.org/1999/xlink" viewBox="0 0 26.1 24.3"><defs><style>.cls-1,.cls-2,.cls-3,.cls-4{stroke:#ffa3c7}.cls-1{fill:url(#linear-gradient)}.cls-2{fill:url(#linear-gradient-2)}.cls-3{fill:url(#linear-gradient-3)}.cls-4{fill:url(#linear-gradient-4)}</style><linearGradient id="linear-gradient" x1="13.51" y1="-3.99" x2="13.8" y2="29.2" gradientTransform="matrix(1 0 0 -1 0 26.75)" gradientUnits="userSpaceOnUse"><stop offset="0" stop-color="#0170ca"/><stop offset=".98" stop-color="#ec449a"/></linearGradient><linearGradient id="linear-gradient-2" x1="8.1" y1="-504.65" x2="13.21" y2="83.12" xlink:href="#linear-gradient"/><linearGradient id="linear-gradient-3" x1="13.38" y1="-3.99" x2="13.67" y2="29.2" xlink:href="#linear-gradient"/><linearGradient id="linear-gradient-4" x1="13.4" y1="-3.99" x2="13.68" y2="29.2" xlink:href="#linear-gradient"/></defs><title>layer9</title><path class="cls-1" d="M13.55 20.22A8.62 8.62 0 0 1 8 17.86a7.11 7.11 0 0 1 0-10.4 8.62 8.62 0 0 1 5.55-2.36 8.65 8.65 0 0 1 5.7 2.29 7.11 7.11 0 0 1 0 10.55 8.65 8.65 0 0 1-5.7 2.29zm0-14.69a8.15 8.15 0 0 0-5.37 2.15 6.7 6.7 0 0 0 0 9.94 8.15 8.15 0 0 0 5.37 2.16 8.15 8.15 0 0 0 5.37-2.16 6.7 6.7 0 0 0 0-9.94 8.15 8.15 0 0 0-5.37-2.15z" transform="translate(-.5 -.5)"/><path class="cls-2" d="M9.12 17h-.2a5.91 5.91 0 0 1-1.78-3.08 5.58 5.58 0 0 1 .37-3.47 6.2 6.2 0 0 1 2.41-2.78 7.07 7.07 0 0 1 3.63-1.06 6.94 6.94 0 0 1 2.5.45 6.47 6.47 0 0 1 2.11 1.31.21.21 0 0 1 .05.15.21.21 0 0 1-.07.15.26.26 0 0 1-.16.06.26.26 0 0 1-.17-.05 6 6 0 0 0-1.95-1.21A6.43 6.43 0 0 0 13.55 7a6.55 6.55 0 0 0-3.37 1A5.75 5.75 0 0 0 8 10.54a5.17 5.17 0 0 0-.34 3.22 5.49 5.49 0 0 0 1.66 2.85.22.22 0 0 1 .06.11.21.21 0 0 1 0 .13.23.23 0 0 1-.09.1.26.26 0 0 1-.13 0z" transform="translate(-.5 -.5)"/><path class="cls-3" d="M23.91 22.48H3a.23.23 0 0 1-.06-.07.21.21 0 0 1 0-.09V3A.21.21 0 0 1 3 2.88a.26.26 0 0 1 .17-.07h20.74a.25.25 0 0 1 .17.07.21.21 0 0 1 .07.16v19.23a.21.21 0 0 1-.07.15.26.26 0 0 1-.17.06zM3.44 22h20.23V3.26H3.44z" transform="translate(-.5 -.5)"/><path class="cls-4" d="M25.87 24.3H1.24a.26.26 0 0 1-.17-.07.21.21 0 0 1-.07-.15V1.22a.21.21 0 0 1 .07-.16.25.25 0 0 1 .17-.06h24.63a.25.25 0 0 1 .17.07.21.21 0 0 1 .07.16v22.85a.21.21 0 0 1-.07.15.26.26 0 0 1-.17.07zm-24.39-.44h24.14V1.44H1.48z" transform="translate(-.5 -.5)"/></svg>