<svg data-name="Layer 1" xmlns="http://www.w3.org/2000/svg" viewBox="0 0 15.89 27.49"><title>layer4</title><path class="cls-1" d="M13.61 7.94h-.2a6.45 6.45 0 0 1-.81-.08h-.21l-.29-.05a8.9 8.9 0 0 1-2-.64h-.06l-.35-.23c-.32-.15-.63-.29-.91-.46h-.06l-.24-.15-.15-.09h-.05l-.1-.08L8 5.94l-.12-.1-.15-.13-.12-.12a2.24 2.24 0 0 1-.67-1.56 2.88 2.88 0 0 1 1-2.15A3.45 3.45 0 0 1 10.2.94c1.74 0 2.56 1.66 3.16 3.29a7.9 7.9 0 0 0 .88 1.53c.52.77 1 1.44.53 1.86a1.69 1.69 0 0 1-1.16.32zm-3.41-6.6a3 3 0 0 0-2 .82 2.5 2.5 0 0 0-.78 1.86 1.86 1.86 0 0 0 .52 1.32l.11.1.1.09.14.11.13.1h.05l.08.06h.05l.12.14.22.11H9c.32.18.62.32.93.46l.4.19a8.64 8.64 0 0 0 1.89.63h.46a6 6 0 0 0 .76.08 1.65 1.65 0 0 0 1-.16c.21-.2-.2-.8-.59-1.38a8.16 8.16 0 0 1-.91-1.48c-.55-1.53-1.3-3.05-2.74-3.05z"/><path class="cls-1" d="M8.48 5.14h-.09l-.08-.05a1.41 1.41 0 0 1-.4-1 2.07 2.07 0 0 1 .63-1.56 2.48 2.48 0 0 1 1.65-.69.23.23 0 0 1 .16.06.19.19 0 0 1 0 .28.23.23 0 0 1-.16.06 2 2 0 0 0-1.34.58 1.69 1.69 0 0 0-.5 1.22 1 1 0 0 0 .29.77.2.2 0 0 1 0 .1.19.19 0 0 1 0 .11.21.21 0 0 1-.08.08.24.24 0 0 1-.12 0zm.32 1.31h-.11a5 5 0 0 1-.75-.51.19.19 0 0 1 0-.27.23.23 0 0 1 .14-.07.24.24 0 0 1 .15 0 6.42 6.42 0 0 0 .71.48.21.21 0 0 1 .08.1.19.19 0 0 1 0 .12.2.2 0 0 1-.08.1.24.24 0 0 1-.13 0zm3.36 1.33h-.08a8.87 8.87 0 0 1-2-.64.21.21 0 0 1-.11-.12.18.18 0 0 1 0-.15.21.21 0 0 1 .13-.1.24.24 0 0 1 .17 0 11.13 11.13 0 0 0 1.9.59.22.22 0 0 1 .12.08.19.19 0 0 1 0 .13.2.2 0 0 1-.06.12.23.23 0 0 1-.14.06zm-.44 18.76H4.54a.64.64 0 0 1-.43-.16.52.52 0 0 1 0-.78.64.64 0 0 1 .43-.16h7.18a.64.64 0 0 1 .43.16.52.52 0 0 1 0 .78.64.64 0 0 1-.43.16zm-7.18-.7a.18.18 0 0 0-.12 0 .14.14 0 0 0 0 .22.18.18 0 0 0 .12 0h7.18a.18.18 0 0 0 .12 0 .14.14 0 0 0 0-.22.18.18 0 0 0-.12 0z"/><path class="cls-1" d="M11.5 25.24H5.3a4.66 4.66 0 0 1-1.68-.3 4.35 4.35 0 0 1-1.42-.88 3.93 3.93 0 0 1-1.18-2 3.71 3.71 0 0 1 .23-2.29 4.11 4.11 0 0 1 1.57-1.83 4.68 4.68 0 0 1 2.38-.73 4.76 4.76 0 0 1 1.74.3.42.42 0 0 0 .19 0 .41.41 0 0 0 .18-.06.42.42 0 0 0 .15-.15.38.38 0 0 0 .05-.19V5.48a.19.19 0 0 1 0-.11.22.22 0 0 1 .1-.07.24.24 0 0 1 .13 0 .23.23 0 0 1 .2.05l.11.1.1.09a2.58 2.58 0 0 0 .45.33 2.85 2.85 0 0 0 .33.2h.06a10.57 10.57 0 0 0 1.31.65h.05a8.46 8.46 0 0 0 1.88.62h.46a6 6 0 0 0 .76.08.23.23 0 0 1 .15.06.19.19 0 0 1 .06.14v15.64a1.89 1.89 0 0 1-.62 1.39 2.26 2.26 0 0 1-1.54.59zM5.3 17.6h-.09a4.22 4.22 0 0 0-2.15.66 3.7 3.7 0 0 0-1.4 1.62 3.34 3.34 0 0 0-.2 2.06 3.54 3.54 0 0 0 1.06 1.83 3.9 3.9 0 0 0 1.27.79 4.18 4.18 0 0 0 1.51.28h6.2a1.8 1.8 0 0 0 1.21-.47 1.5 1.5 0 0 0 .5-1.11V7.94a3.64 3.64 0 0 1-.59-.07h-.21l-.29-.05a8.9 8.9 0 0 1-2-.64h-.06a10.4 10.4 0 0 1-1.3-.64h-.05a3.56 3.56 0 0 1-.39-.24 2.78 2.78 0 0 1-.38-.36v11.2a.76.76 0 0 1-.11.38.84.84 0 0 1-.29.29.87.87 0 0 1-.38.12.89.89 0 0 1-.4-.05 4.18 4.18 0 0 0-1.51-.28z"/><path class="cls-1" d="M2.12 21.42a.23.23 0 0 1-.18-.06.2.2 0 0 1 0-.14 2.89 2.89 0 0 1 .26-1.19 3.12 3.12 0 0 1 .74-1 3.45 3.45 0 0 1 1.11-.68 3.69 3.69 0 0 1 1.31-.24.23.23 0 0 1 .16.06.19.19 0 0 1 0 .28.23.23 0 0 1-.16.06 3.11 3.11 0 0 0-2.08.81 2.6 2.6 0 0 0-.85 1.91.19.19 0 0 1 0 .08.21.21 0 0 1-.06.07h-.08z"/></svg>