<svg id="Layer_1" data-name="Layer 1" xmlns="http://www.w3.org/2000/svg" xmlns:xlink="http://www.w3.org/1999/xlink" viewBox="0 0 22.04 30.28"><defs><style>.cls-1,.cls-10,.cls-2,.cls-3,.cls-4,.cls-5,.cls-6,.cls-7,.cls-8,.cls-9{stroke:#ffa3c7;stroke-width:1.01px}.cls-1{fill:url(#linear-gradient)}.cls-2{fill:url(#linear-gradient-2)}.cls-3{fill:url(#linear-gradient-3)}.cls-4{fill:url(#linear-gradient-4)}.cls-5{fill:url(#linear-gradient-5)}.cls-6{fill:url(#linear-gradient-6)}.cls-7{fill:url(#linear-gradient-7)}.cls-8{fill:url(#linear-gradient-8)}.cls-9{fill:url(#linear-gradient-9)}.cls-10{fill:url(#linear-gradient-10)}</style><linearGradient id="linear-gradient" x1="17.33" y1="43.04" x2="18.9" y2="9.26" gradientTransform="translate(-.5 -14.5)" gradientUnits="userSpaceOnUse"><stop offset="0" stop-color="#0170ca"/><stop offset=".98" stop-color="#ec449a"/></linearGradient><linearGradient id="linear-gradient-2" x1="-42.48" y1="571.91" x2="16.99" y2="-119.34" xlink:href="#linear-gradient"/><linearGradient id="linear-gradient-3" x1="-13.41" y1="584.03" x2="18.06" y2="-109.58" xlink:href="#linear-gradient"/><linearGradient id="linear-gradient-4" x1="6.48" y1="152.74" x2="12.85" y2="13.53" xlink:href="#linear-gradient"/><linearGradient id="linear-gradient-5" x1="5.83" y1="234.89" x2="17.2" y2="-7.31" xlink:href="#linear-gradient"/><linearGradient id="linear-gradient-6" x1="-.94" y1="235.43" x2="10.51" y2="-7.45" xlink:href="#linear-gradient"/><linearGradient id="linear-gradient-7" x1="-23.45" y1="298.15" x2="12.11" y2="-48.9" xlink:href="#linear-gradient"/><linearGradient id="linear-gradient-8" x1="-9.9" y1="297.62" x2="25.36" y2="-48.75" xlink:href="#linear-gradient"/><linearGradient id="linear-gradient-9" x1="7.96" y1="62.13" x2="8.25" y2="36.73" xlink:href="#linear-gradient"/><linearGradient id="linear-gradient-10" x1="14.7" y1="62.41" x2="14.98" y2="36.66" xlink:href="#linear-gradient"/></defs><title>layer11</title><path class="cls-1" d="M16.23 13.36a.28.28 0 0 1-.13 0 .25.25 0 0 1-.09-.1.22.22 0 0 1 0-.13.23.23 0 0 1 0-.12c.62-.7 3.78-4.33 4.79-7a7.41 7.41 0 0 0-.26-4.88 8.94 8.94 0 0 0-4 3.31 24.46 24.46 0 0 0-2.09 7.34.22.22 0 0 1 0 .09l-.07.07h-.19a.27.27 0 0 1-.17-.09.22.22 0 0 1-.05-.17 26.57 26.57 0 0 1 2.05-7.5c.74-1.32 2.22-2.52 4.48-3.68h.22l.09.06a.23.23 0 0 1 0 .09c.77 2.24.89 4 .35 5.44-1 2.75-4.23 6.44-4.86 7.15l-.07.07z" transform="translate(-.01 .01)"/><path class="cls-2" d="M5.89 13.36h-.11l-.09-.06C5 12.59 1.87 8.9.83 6.18A8.11 8.11 0 0 1 1.19.71a.22.22 0 0 1 0-.1.25.25 0 0 1 .14-.11h.17c2.34 1.16 3.82 2.36 4.56 3.7a25.73 25.73 0 0 1 2 7.5.22.22 0 0 1-.05.17.27.27 0 0 1-.17.09H7.7l-.07-.07a.22.22 0 0 1 0-.09 25.2 25.2 0 0 0-2-7.36 8.91 8.91 0 0 0-4-3.31A7.25 7.25 0 0 0 1.36 6c1 2.68 4.15 6.3 4.79 7a.23.23 0 0 1 .05.12.22.22 0 0 1 0 .13.25.25 0 0 1-.09.1.28.28 0 0 1-.13 0z" transform="translate(-.01 .01)"/><path class="cls-3" d="M17.15 23.6h-.08a.26.26 0 0 1-.15-.12.22.22 0 0 1 0-.18c1.64-4.88.82-9-2.19-11a6.77 6.77 0 0 0-7.34 0c-3 2-3.83 6.07-2.2 11a.22.22 0 0 1 0 .2.24.24 0 0 1-.07.08h-.31a.25.25 0 0 1-.08-.08.23.23 0 0 1 0-.09C3 18.33 3.92 14 7.12 11.94a7.32 7.32 0 0 1 7.93 0c3.2 2.1 4.1 6.39 2.38 11.47a.24.24 0 0 1-.09.11.28.28 0 0 1-.19.08z" transform="translate(-.01 .01)"/><path class="cls-4" d="M11.85 28.67h-1.62a.67.67 0 0 1-.24 0 .63.63 0 0 1-.2-.12.57.57 0 0 1-.13-.18.53.53 0 0 1 0-.22v-1.49a.53.53 0 0 1 0-.22.57.57 0 0 1 .13-.18.63.63 0 0 1 .2-.12.67.67 0 0 1 .24 0h1.62a.65.65 0 0 1 .44.17.55.55 0 0 1 .18.4v1.39a.55.55 0 0 1-.18.4.65.65 0 0 1-.44.17zm-1.61-2.1a.11.11 0 0 0-.08 0 .1.1 0 0 0 0 .07v1.46a.1.1 0 0 0 0 .07.11.11 0 0 0 .08 0h1.61a.11.11 0 0 0 .08 0 .1.1 0 0 0 0-.07v-1.44a.1.1 0 0 0 0-.07.11.11 0 0 0-.08 0z" transform="translate(-.01 .01)"/><path class="cls-5" d="M16.16 29.76a.74.74 0 0 1-.23 0l-3.8-1.26H12v-.07a.22.22 0 0 1 0-.18.23.23 0 0 1 .05-.08l.08-.06h.2l3.8 1.25h.11a.22.22 0 0 0 .1-.06 4.6 4.6 0 0 1 0-3.43.22.22 0 0 0-.15 0l-3.87 1a.28.28 0 0 1-.2 0 .24.24 0 0 1-.13-.14.22.22 0 0 1 0-.18.25.25 0 0 1 .15-.12l3.81-1.16a.74.74 0 0 1 .36 0 .71.71 0 0 1 .32.16.48.48 0 0 1 .15.22.44.44 0 0 1 0 .26 4.25 4.25 0 0 0 0 3.17.42.42 0 0 1 0 .26.45.45 0 0 1-.14.22.77.77 0 0 1-.48.2z" transform="translate(-.01 .01)"/><path class="cls-6" d="M5.93 29.76a.77.77 0 0 1-.51-.19.45.45 0 0 1-.14-.22.42.42 0 0 1 0-.26 4.26 4.26 0 0 0 0-3.17.44.44 0 0 1 0-.26.48.48 0 0 1 .15-.22.71.71 0 0 1 .32-.16.74.74 0 0 1 .36 0l3.83 1.22a.25.25 0 0 1 .15.12.22.22 0 0 1 0 .18.24.24 0 0 1-.13.14.28.28 0 0 1-.2 0L6 25.78a.22.22 0 0 0-.15 0 4.65 4.65 0 0 1 0 3.45H6L9.81 28H10l.08.06a.23.23 0 0 1 .05.08.22.22 0 0 1 0 .09.22.22 0 0 1 0 .09l-.06.07H10l-3.8 1.25a.75.75 0 0 1-.27.12z" transform="translate(-.01 .01)"/><path class="cls-7" d="M5.75 10.5a.28.28 0 0 1-.14 0 .24.24 0 0 1-.1-.1l-2.74-6a.22.22 0 0 1 0-.16.25.25 0 0 1 .12-.11.28.28 0 0 1 .17 0 .26.26 0 0 1 .15.09l2.74 6a.22.22 0 0 1 0 .11.23.23 0 0 1 0 .11.25.25 0 0 1-.09.08h-.12z" transform="translate(-.01 .01)"/><path class="cls-8" d="M16.33 10.5h-.1a.25.25 0 0 1-.14-.13.22.22 0 0 1 0-.18l2.74-6a.26.26 0 0 1 .14-.1.28.28 0 0 1 .18 0 .25.25 0 0 1 .13.11.22.22 0 0 1 0 .16l-2.74 6a.24.24 0 0 1 0 .14.27.27 0 0 1-.21 0z" transform="translate(-.01 .01)"/><path class="cls-9" d="M8.5 27.64H6.88a.27.27 0 0 1-.16-.08.22.22 0 0 1 0-.31.27.27 0 0 1 .16-.08H8.5a.27.27 0 0 1 .16.08.22.22 0 0 1 0 .31.27.27 0 0 1-.16.08z" transform="translate(-.01 .01)"/><path class="cls-10" d="M13.6 27.64h-.2a.24.24 0 0 1-.07-.08.22.22 0 0 1 0-.2.24.24 0 0 1 .07-.08h2a.24.24 0 0 1 .07.08.22.22 0 0 1 0 .2.24.24 0 0 1-.07.08h-1.8z" transform="translate(-.01 .01)"/></svg>