<svg id="Layer_1" data-name="Layer 1" xmlns="http://www.w3.org/2000/svg" xmlns:xlink="http://www.w3.org/1999/xlink" viewBox="0 0 14.67 26.74"><defs><style>.cls-1,.cls-2,.cls-3,.cls-4,.cls-5,.cls-6,.cls-7,.cls-8,.cls-9{stroke:#ffa3c7;stroke-width:1.13px}.cls-1{fill:url(#linear-gradient)}.cls-2{fill:url(#linear-gradient-2)}.cls-3{fill:url(#linear-gradient-3)}.cls-4{fill:url(#linear-gradient-4)}.cls-5{fill:url(#linear-gradient-5)}.cls-6{fill:url(#linear-gradient-6)}.cls-7{fill:url(#linear-gradient-7)}.cls-8{fill:url(#linear-gradient-8)}.cls-9{fill:url(#linear-gradient-9)}</style><linearGradient id="linear-gradient" x1="7.77" y1=".67" x2="7.77" y2="28.48" gradientTransform="matrix(1 0 0 -1 0 28.75)" gradientUnits="userSpaceOnUse"><stop offset="0" stop-color="#0170ca"/><stop offset=".98" stop-color="#ec449a"/></linearGradient><linearGradient id="linear-gradient-2" x1="5.11" y1="-486.5" x2="5.11" y2="40.43" xlink:href="#linear-gradient"/><linearGradient id="linear-gradient-3" x1="3.97" y1="-133.37" x2="3.97" y2="11.55" xlink:href="#linear-gradient"/><linearGradient id="linear-gradient-4" x1="11.57" y1="-133.66" x2="11.57" y2="11.56" xlink:href="#linear-gradient"/><linearGradient id="linear-gradient-5" x1="7.76" y1=".67" x2="7.76" y2="28.48" xlink:href="#linear-gradient"/><linearGradient id="linear-gradient-6" x1="7.78" y1=".67" x2="7.78" y2="28.47" xlink:href="#linear-gradient"/><linearGradient id="linear-gradient-7" x1="7.76" y1=".67" x2="7.76" y2="28.48" xlink:href="#linear-gradient"/><linearGradient id="linear-gradient-8" x1="9.45" y1="-40.7" x2="9.45" y2="8.09" xlink:href="#linear-gradient"/><linearGradient id="linear-gradient-9" x1="6.1" y1="-39.2" x2="6.1" y2="8.02" xlink:href="#linear-gradient"/></defs><title>layer1</title><path class="cls-1" d="M7.77 18.32a7.24 7.24 0 0 1-1.43-.14A7 7 0 0 1 2.5 16 5.92 5.92 0 0 1 1 12.09C1 8.88 3.93 1 7.77 1s6.77 7.88 6.77 11.09A5.93 5.93 0 0 1 13 16a7 7 0 0 1-3.83 2.19 7.25 7.25 0 0 1-1.4.13zm0-16.92c-3.34 0-6.33 7.26-6.33 10.69a5.54 5.54 0 0 0 1.4 3.65 6.5 6.5 0 0 0 3.59 2 6.9 6.9 0 0 0 2.67 0 6.5 6.5 0 0 0 3.59-2 5.54 5.54 0 0 0 1.4-3.65c0-3.43-2.99-10.69-6.32-10.69z" transform="translate(-.43 -.43)"/><path class="cls-2" d="M2.48 12.3a.23.23 0 0 1-.15-.06.2.2 0 0 1-.07-.14c0-3.38 3-10 5.5-10a.23.23 0 0 1 .13.07.19.19 0 0 1 0 .26.23.23 0 0 1-.13.07c-2.08 0-5.06 6.18-5.06 9.55a.2.2 0 0 1-.07.14.23.23 0 0 1-.15.11z" transform="translate(-.43 -.43)"/><path class="cls-3" d="M1.84 23.8h-.15a1 1 0 0 1-.25-.32.94.94 0 0 1-.1-.39c0-1.16 2.53-1.86 5-2h.17a.2.2 0 0 1 .05.07.19.19 0 0 1 0 .08v.93a.19.19 0 0 1-.06.14.23.23 0 0 1-.31 0 .19.19 0 0 1-.06-.14v-.72c-2.75.23-4.39 1-4.39 1.61a.61.61 0 0 0 .23.42.2.2 0 0 1 .06.1.19.19 0 0 1 0 .12.21.21 0 0 1-.08.09.24.24 0 0 1-.11.01z" transform="translate(-.43 -.43)"/><path class="cls-4" d="M13.69 23.8a.24.24 0 0 1-.12 0 .21.21 0 0 1-.08-.09.19.19 0 0 1 0-.11.2.2 0 0 1 .05-.1.62.62 0 0 0 .23-.43c0-.63-1.64-1.38-4.39-1.61v.71a.19.19 0 0 1-.06.14.23.23 0 0 1-.31 0 .19.19 0 0 1-.06-.14v-.97a.19.19 0 0 1 0-.08.2.2 0 0 1 .05-.07h.17c2.5.17 5 .86 5 2a1 1 0 0 1-.35.7l-.07.05z" transform="translate(-.43 -.43)"/><path class="cls-5" d="M9.15 22.34a.23.23 0 0 1-.15-.06.2.2 0 0 1-.07-.14v-3.9a7.45 7.45 0 0 1-2.35 0v3.9a.19.19 0 0 1-.06.14.23.23 0 0 1-.31 0 .19.19 0 0 1-.06-.14V18a.19.19 0 0 1 0-.09.21.21 0 0 1 .06-.07h.19a6.92 6.92 0 0 0 2.67 0h.19a.21.21 0 0 1 .06.07.19.19 0 0 1 0 .09v4.14a.2.2 0 0 1-.06.14.23.23 0 0 1-.11.06z" transform="translate(-.43 -.43)"/><path class="cls-6" d="M7.77 25.13c-2.77 0-5.21-.54-6.07-1.37a.19.19 0 0 1 0-.14.2.2 0 0 1 .07-.13.23.23 0 0 1 .14-.06.24.24 0 0 1 .15 0c.75.71 3.14 1.22 5.76 1.22s5-.54 5.76-1.24a.23.23 0 0 1 .31 0 .19.19 0 0 1 0 .28c-.89.86-3.35 1.44-6.12 1.44z" transform="translate(-.43 -.43)"/><path class="cls-7" d="M7.77 26.6c-3.37 0-6.45-1.16-6.45-2.44V23a.19.19 0 0 1 .06-.14.23.23 0 0 1 .31 0 .19.19 0 0 1 .06.14.61.61 0 0 0 .23.42c.77.73 3.16 1.24 5.78 1.24s5-.54 5.76-1.24a.62.62 0 0 0 .23-.43.19.19 0 0 1 .06-.14.23.23 0 0 1 .31 0 .19.19 0 0 1 .06.14v1.14c.01 1.31-3.05 2.47-6.41 2.47zm-6-2.79v.35c0 .82 2.52 2 6 2s6-1.22 6-2v-.35c-.93.78-3.31 1.31-6 1.31s-5.06-.53-6-1.31z" transform="translate(-.43 -.43)"/><path class="cls-8" d="M9.75 22.88a.88.88 0 0 1-.31-.05.83.83 0 0 1-.27-.16.75.75 0 0 1-.17-.25.69.69 0 0 1-.06-.28A.19.19 0 0 1 9 22a.23.23 0 0 1 .31 0 .19.19 0 0 1 .06.14.32.32 0 0 0 0 .13.34.34 0 0 0 .08.11.38.38 0 0 0 .12.07h.14a.23.23 0 0 1 .16.06.19.19 0 0 1 0 .28.23.23 0 0 1-.12.09z" transform="translate(-.43 -.43)"/><path class="cls-9" d="M5.78 22.88a.23.23 0 0 1-.13-.07.19.19 0 0 1 0-.26.23.23 0 0 1 .13-.07h.14a.38.38 0 0 0 .08-.1.34.34 0 0 0 .08-.11.32.32 0 0 0 0-.13.2.2 0 0 1 .16-.14.24.24 0 0 1 .29 0 .2.2 0 0 1 .08.12.69.69 0 0 1-.06.28.75.75 0 0 1-.18.24.83.83 0 0 1-.27.16.88.88 0 0 1-.32.08z" transform="translate(-.43 -.43)"/></svg>