<svg id="Layer_1" data-name="Layer 1" xmlns="http://www.w3.org/2000/svg" xmlns:xlink="http://www.w3.org/1999/xlink" viewBox="0 0 16.58 28.43"><defs><style>.cls-1,.cls-10,.cls-11,.cls-12,.cls-13,.cls-14,.cls-15,.cls-16,.cls-17,.cls-2,.cls-3,.cls-4,.cls-5,.cls-6,.cls-7,.cls-8,.cls-9{stroke:#ffa3c7}.cls-1{fill:url(#linear-gradient)}.cls-2{fill:url(#linear-gradient-2)}.cls-3{fill:url(#linear-gradient-3)}.cls-4{fill:url(#linear-gradient-4)}.cls-5{fill:url(#linear-gradient-5)}.cls-6{fill:url(#linear-gradient-6)}.cls-7{fill:url(#linear-gradient-7)}.cls-8{fill:url(#linear-gradient-8)}.cls-9{fill:url(#linear-gradient-9)}.cls-10{fill:url(#linear-gradient-10)}.cls-11{fill:url(#linear-gradient-11)}.cls-12{fill:url(#linear-gradient-12)}.cls-13{fill:url(#linear-gradient-13)}.cls-14{fill:url(#linear-gradient-14)}.cls-15{fill:url(#linear-gradient-15)}.cls-16{fill:url(#linear-gradient-16)}.cls-17{fill:url(#linear-gradient-17)}</style><linearGradient id="linear-gradient" x1="8.88" y1="-.19" x2="8.6" y2="32.03" gradientTransform="matrix(1 0 0 -1 0 30.75)" gradientUnits="userSpaceOnUse"><stop offset="0" stop-color="#0170ca"/><stop offset=".98" stop-color="#ec449a"/></linearGradient><linearGradient id="linear-gradient-2" x1="22.87" y1="-1071.38" x2="7.74" y2="111.09" xlink:href="#linear-gradient"/><linearGradient id="linear-gradient-3" x1="9.53" y1="-144.34" x2="8.75" y2="17.43" xlink:href="#linear-gradient"/><linearGradient id="linear-gradient-4" x1="8.82" y1="6.21" x2="8.81" y2="30.39" xlink:href="#linear-gradient"/><linearGradient id="linear-gradient-5" x1="11.04" y1="-46.26" x2="8.66" y2="35.36" xlink:href="#linear-gradient"/><linearGradient id="linear-gradient-6" x1="10.9" y1="-44.59" x2="8.62" y2="35.2" xlink:href="#linear-gradient"/><linearGradient id="linear-gradient-7" x1="12.25" y1="-46.31" x2="9.86" y2="35.36" xlink:href="#linear-gradient"/><linearGradient id="linear-gradient-8" x1="9.74" y1="-46.26" x2="7.35" y2="35.36" xlink:href="#linear-gradient"/><linearGradient id="linear-gradient-9" x1="13.51" y1="-46.26" x2="11.12" y2="35.36" xlink:href="#linear-gradient"/><linearGradient id="linear-gradient-10" x1="8.48" y1="-46.32" x2="6.1" y2="35.37" xlink:href="#linear-gradient"/><linearGradient id="linear-gradient-11" x1="14.76" y1="-46.26" x2="12.38" y2="35.36" xlink:href="#linear-gradient"/><linearGradient id="linear-gradient-12" x1="7.27" y1="-46.27" x2="4.88" y2="35.37" xlink:href="#linear-gradient"/><linearGradient id="linear-gradient-13" x1="16.02" y1="-46.27" x2="13.64" y2="35.37" xlink:href="#linear-gradient"/><linearGradient id="linear-gradient-14" x1="6.02" y1="-46.27" x2="3.64" y2="35.37" xlink:href="#linear-gradient"/><linearGradient id="linear-gradient-15" x1="17.28" y1="-46.29" x2="14.89" y2="35.37" xlink:href="#linear-gradient"/><linearGradient id="linear-gradient-16" x1="4.78" y1="-46.26" x2="2.4" y2="35.36" xlink:href="#linear-gradient"/><linearGradient id="linear-gradient-17" x1="8.85" y1="-59.21" x2="8.72" y2="33.71" xlink:href="#linear-gradient"/></defs><title>layer14</title><path class="cls-1" d="M8.85 28.43h-.06c-1.68 0-3.72-.24-4.47-.92a.81.81 0 0 1-.3-.57v-5.08a.2.2 0 0 1 0-.1.22.22 0 0 1 .07-.08h.2a16.83 16.83 0 0 0 4.46.64h.07a16.83 16.83 0 0 0 4.45-.64h.21a.22.22 0 0 1 .07.08.2.2 0 0 1 0 .1v5a.81.81 0 0 1-.3.57c-.68.76-2.72 1-4.4 1zm0-.43c2 0 3.61-.32 4.13-.8a.42.42 0 0 0 .11-.13.39.39 0 0 0 0-.16v-4.76a16.72 16.72 0 0 1-4.32.57 17 17 0 0 1-4.29-.57v4.76a.39.39 0 0 0 0 .16.42.42 0 0 0 .11.13c.5.48 2.18.8 4.13.8z" transform="translate(-.5 -.5)"/><path class="cls-2" d="M13.38 22.08h-.09l-.1-.08a.21.21 0 0 1 0-.08.19.19 0 0 1 0-.08c1-6.64 3-19.29 3-19.61v-.8H1.5v.8c0 .33 2 13 3 19.61a.19.19 0 0 1 0 .08.21.21 0 0 1 0 .08l-.07.06h-.24L4.1 22H4a.19.19 0 0 1 0-.08c-.11-.79-3-19.24-3-19.64a7.77 7.77 0 0 1 0-1.07.2.2 0 0 1 0-.08l.06-.07h15.29a.25.25 0 0 1 .16.06.21.21 0 0 1 .07.15v.99c0 .41-2.85 18.85-3 19.64a.21.21 0 0 1-.07.12.25.25 0 0 1-.13.06z" transform="translate(-.5 -.5)"/><path class="cls-3" d="M9 27.35h-.19a14.64 14.64 0 0 1-2.61-.22h-.09L6 27a.2.2 0 0 1 0-.08.2.2 0 0 1 0-.09l.38-2.21a.21.21 0 0 1 .08-.13.25.25 0 0 1 .15-.05H11a.25.25 0 0 1 .15.05.21.21 0 0 1 .08.13l.37 2.21a.2.2 0 0 1 0 .08.21.21 0 0 1 0 .08l-.07.06h-.09a15.21 15.21 0 0 1-2.44.3zm-.18-.43a13.36 13.36 0 0 0 2.31-.18l-.31-1.81h-4l-.31 1.81a13.22 13.22 0 0 0 2.3.17z" transform="translate(-.5 -.5)"/><path class="cls-4" d="M16.36 2.46H1.27a.24.24 0 0 1-.14-.07.2.2 0 0 1 0-.28.24.24 0 0 1 .14-.11h15.08a.25.25 0 0 1 .14.07.2.2 0 0 1 0 .28.25.25 0 0 1-.14.07z" transform="translate(-.5 -.5)"/><path class="cls-5" d="M8.84 2.46a.25.25 0 0 1-.16-.06.21.21 0 0 1-.07-.15v-1a.21.21 0 0 1 .07-.15.25.25 0 0 1 .33 0 .21.21 0 0 1 .07.15v1A.21.21 0 0 1 9 2.4a.25.25 0 0 1-.16.06z" transform="translate(-.5 -.5)"/><path class="cls-6" d="M8.8 2.46a.25.25 0 0 1-.17-.06.21.21 0 0 1-.07-.15v-1a.21.21 0 0 1 .08-.13.26.26 0 0 1 .31 0 .21.21 0 0 1 .05.1v1a.21.21 0 0 1 0 .17.25.25 0 0 1-.2.07z" transform="translate(-.5 -.5)"/><path class="cls-7" d="M10.08 2.46h-.17a.22.22 0 0 1-.06-.07.2.2 0 0 1 0-.09v-1a.21.21 0 0 1 .07-.15.25.25 0 0 1 .33 0 .21.21 0 0 1 .07.15v1a.21.21 0 0 1-.06.15.25.25 0 0 1-.18.01z" transform="translate(-.5 -.5)"/><path class="cls-8" d="M7.55 2.46h-.18a.22.22 0 0 1-.06-.07.2.2 0 0 1 0-.09v-1a.21.21 0 0 1 .07-.15.25.25 0 0 1 .33 0 .21.21 0 0 1 .07.15v1a.21.21 0 0 1-.06.15.25.25 0 0 1-.17.01z" transform="translate(-.5 -.5)"/><path class="cls-9" d="M11.32 2.46h-.18a.22.22 0 0 1-.05-.07.2.2 0 0 1 0-.09v-1a.21.21 0 0 1 .07-.15.25.25 0 0 1 .33 0 .21.21 0 0 1 .07.15v1a.21.21 0 0 1-.06.15.25.25 0 0 1-.18.01z" transform="translate(-.5 -.5)"/><path class="cls-10" d="M6.31 2.46h-.19a.22.22 0 0 1-.06-.07.2.2 0 0 1 0-.09v-1a.21.21 0 0 1 .07-.15.25.25 0 0 1 .33 0 .21.21 0 0 1 .07.15v1a.21.21 0 0 1-.06.15.25.25 0 0 1-.16.01z" transform="translate(-.5 -.5)"/><path class="cls-11" d="M12.57 2.46a.25.25 0 0 1-.17-.06.21.21 0 0 1-.07-.15v-1a.21.21 0 0 1 .07-.15.25.25 0 0 1 .33 0 .21.21 0 0 1 .07.15v1a.21.21 0 0 1-.07.15.25.25 0 0 1-.16.06z" transform="translate(-.5 -.5)"/><path class="cls-12" d="M5.07 2.46a.25.25 0 0 1-.17-.06.21.21 0 0 1-.07-.15v-1a.21.21 0 0 1 .07-.15.25.25 0 0 1 .33 0 .21.21 0 0 1 .07.15v1a.21.21 0 0 1-.07.15.25.25 0 0 1-.16.06z" transform="translate(-.5 -.5)"/><path class="cls-13" d="M13.81 2.46a.25.25 0 0 1-.16-.07.21.21 0 0 1-.07-.15v-1a.21.21 0 0 1 .07-.15.25.25 0 0 1 .33 0 .21.21 0 0 1 .07.15v1a.2.2 0 0 1 0 .08.22.22 0 0 1-.05.08h-.08z" transform="translate(-.5 -.5)"/><path class="cls-14" d="M3.82 2.46a.25.25 0 0 1-.16-.06.21.21 0 0 1-.07-.15v-1a.21.21 0 0 1 .07-.15.25.25 0 0 1 .33 0 .21.21 0 0 1 .07.15v1A.21.21 0 0 1 4 2.4a.25.25 0 0 1-.18.06z" transform="translate(-.5 -.5)"/><path class="cls-15" d="M15.06 2.46a.25.25 0 0 1-.15-.07.21.21 0 0 1-.06-.15v-1a.21.21 0 0 1 .07-.15.25.25 0 0 1 .33 0 .21.21 0 0 1 .07.15v1a.2.2 0 0 1 0 .09.22.22 0 0 1-.06.07h-.08z" transform="translate(-.5 -.5)"/><path class="cls-16" d="M2.58 2.46a.25.25 0 0 1-.16-.06.21.21 0 0 1-.07-.15v-1a.21.21 0 0 1 .07-.15.25.25 0 0 1 .33 0 .21.21 0 0 1 .07.15v1a.21.21 0 0 1-.07.15.25.25 0 0 1-.17.06z" transform="translate(-.5 -.5)"/><path class="cls-17" d="M8.84 5.09a15.77 15.77 0 0 1-5.65-1.25.22.22 0 0 1-.1-.12.2.2 0 0 1 0-.15.23.23 0 0 1 .11-.11.26.26 0 0 1 .16 0c4.32 1.63 6.63 1.64 10.71 0a.26.26 0 0 1 .17 0 .23.23 0 0 1 .12.11.2.2 0 0 1 0 .15.22.22 0 0 1-.1.12 14.42 14.42 0 0 1-5.42 1.25z" transform="translate(-.5 -.5)"/></svg>