<svg id="Layer_1" data-name="Layer 1" xmlns="http://www.w3.org/2000/svg" xmlns:xlink="http://www.w3.org/1999/xlink" viewBox="0 0 23.4 30.77"><defs><style>.cls-1,.cls-10,.cls-11,.cls-12,.cls-13,.cls-2,.cls-3,.cls-4,.cls-5,.cls-6,.cls-7,.cls-8,.cls-9{stroke:#ffa3c7;stroke-width:1.19px}.cls-1{fill:url(#linear-gradient)}.cls-2{fill:url(#linear-gradient-2)}.cls-3{fill:url(#linear-gradient-3)}.cls-4{fill:url(#linear-gradient-4)}.cls-5{fill:url(#linear-gradient-5)}.cls-6{fill:url(#linear-gradient-6)}.cls-7{fill:url(#linear-gradient-7)}.cls-8{fill:url(#linear-gradient-8)}.cls-9{fill:url(#linear-gradient-9)}.cls-10{fill:url(#linear-gradient-10)}.cls-11{fill:url(#linear-gradient-11)}.cls-12{fill:url(#linear-gradient-12)}.cls-13{fill:url(#linear-gradient-13)}</style><linearGradient id="linear-gradient" x1="17.32" y1="-2.92" x2="18.87" y2="30.35" gradientTransform="matrix(1 0 0 -1 0 32.75)" gradientUnits="userSpaceOnUse"><stop offset="0" stop-color="#0170ca"/><stop offset=".98" stop-color="#ec449a"/></linearGradient><linearGradient id="linear-gradient-2" x1="17.38" y1="-58.62" x2="17.8" y2="5.62" xlink:href="#linear-gradient"/><linearGradient id="linear-gradient-3" x1="12.51" y1="-114.34" x2="17.81" y2="12.27" xlink:href="#linear-gradient"/><linearGradient id="linear-gradient-4" x1="12.45" y1="-118.15" x2="17.75" y2="8.65" xlink:href="#linear-gradient"/><linearGradient id="linear-gradient-5" x1="14.2" y1="-12.18" x2="15.74" y2="21.01" xlink:href="#linear-gradient"/><linearGradient id="linear-gradient-6" x1="14.19" y1="-14.55" x2="15.74" y2="18.74" xlink:href="#linear-gradient"/><linearGradient id="linear-gradient-7" x1="14.26" y1="-16.76" x2="15.77" y2="16.45" xlink:href="#linear-gradient"/><linearGradient id="linear-gradient-8" x1="18.31" y1="-12.18" x2="19.85" y2="21.03" xlink:href="#linear-gradient"/><linearGradient id="linear-gradient-9" x1="18.29" y1="-14.55" x2="19.84" y2="18.74" xlink:href="#linear-gradient"/><linearGradient id="linear-gradient-10" x1="18.3" y1="-16.79" x2="19.85" y2="16.45" xlink:href="#linear-gradient"/><linearGradient id="linear-gradient-11" x1="-71.06" y1="-739.96" x2="4.25" y2="6.56" xlink:href="#linear-gradient"/><linearGradient id="linear-gradient-12" x1="-35.18" y1="-298.53" x2="5.29" y2="5.46" xlink:href="#linear-gradient"/><linearGradient id="linear-gradient-13" x1="-40.69" y1="-847.64" x2="10.92" y2="20.79" xlink:href="#linear-gradient"/></defs><title>layer6</title><path class="cls-1" d="M17.8 30.58c-2.18 0-4.37-.31-5.11-.92a.76.76 0 0 1-.21-.23.69.69 0 0 1-.09-.29.68.68 0 0 1 0-.3.73.73 0 0 1 .16-.26c.87-1.07 1-6.95.26-16.12a3.26 3.26 0 0 1 .2-1.44 3.5 3.5 0 0 1 .82-1.24A3.81 3.81 0 0 1 15.14 9a4.1 4.1 0 0 1 1.53-.29h2.26a4.1 4.1 0 0 1 1.53.29 3.81 3.81 0 0 1 1.27.83 3.5 3.5 0 0 1 .81 1.17 3.27 3.27 0 0 1 .21 1.43c-.67 9.18-.61 15.05.26 16.12a.73.73 0 0 1 .16.26.68.68 0 0 1 0 .3.69.69 0 0 1-.09.29.76.76 0 0 1-.21.23c-.7.65-2.87.95-5.07.95zM16.66 9.17a3.55 3.55 0 0 0-1.33.25 3.3 3.3 0 0 0-1.1.72 3 3 0 0 0-.71 1.07 2.8 2.8 0 0 0-.18 1.24c.51 6.66.87 14.92-.35 16.43-.15.18-.14.31 0 .46 1.25 1 8.29 1 9.54 0 .18-.15.19-.27 0-.46-1.22-1.51-.86-9.77-.35-16.43a2.8 2.8 0 0 0-.18-1.24 3 3 0 0 0-.71-1.07 3.3 3.3 0 0 0-1.1-.72 3.55 3.55 0 0 0-1.32-.25z" transform="translate(-.41 -.41)"/><path class="cls-2" d="M17.8 27.51a22.41 22.41 0 0 1-3.07-.18c-1.1-.16-1.59-.4-1.59-.77a.22.22 0 0 1 .07-.16.27.27 0 0 1 .36 0 .22.22 0 0 1 .07.16c.16.22 1.68.51 4.16.51s4-.3 4.16-.52a.21.21 0 0 1 0-.09.22.22 0 0 1 .05-.07h.17a.27.27 0 0 1 .18.07.23.23 0 0 1 .07.17c.03.76-2.89.88-4.63.88z" transform="translate(-.41 -.41)"/><path class="cls-3" d="M19 21.2h-2.38a.28.28 0 0 1-.13 0 .25.25 0 0 1-.09-.08.22.22 0 0 1 0-.23L17.57 19a.26.26 0 0 1 .09-.08h.24a.26.26 0 0 1 .1.08l1.17 1.89a.22.22 0 0 1 0 .23.25.25 0 0 1-.09.08.27.27 0 0 1-.13 0zm-1.93-.46h1.49l-.75-1.19z" transform="translate(-.41 -.41)"/><path class="cls-4" d="M17.8 24.86a.27.27 0 0 1-.13 0 .24.24 0 0 1-.09-.09l-1.18-1.91a.22.22 0 0 1 0-.23.25.25 0 0 1 .09-.08.27.27 0 0 1 .13 0H19a.27.27 0 0 1 .13 0 .25.25 0 0 1 .09.08.22.22 0 0 1 0 .23L18 24.74a.24.24 0 0 1-.09.09.27.27 0 0 1-.11.03zM17.05 23l.75 1.19.75-1.19z" transform="translate(-.41 -.41)"/><path class="cls-5" d="M15.75 11.92a.38.38 0 0 1-.24-.09.33.33 0 0 1-.1-.2.3.3 0 0 1 .1-.22.31.31 0 0 1 .11-.07.37.37 0 0 1 .2 0 .35.35 0 0 1 .17.08.29.29 0 0 1 .09.22.27.27 0 0 1 0 .12.29.29 0 0 1-.07.1l-.11.07h-.13z" transform="translate(-.41 -.41)"/><path class="cls-6" d="M15.41 13.9a.3.3 0 0 1 .1-.22.36.36 0 0 1 .24-.09.35.35 0 0 1 .24.09.29.29 0 0 1 0 .44.36.36 0 0 1-.48 0 .3.3 0 0 1-.1-.22z" transform="translate(-.41 -.41)"/><path class="cls-7" d="M15.75 16.49a.39.39 0 0 1-.24-.09.37.37 0 0 1-.07-.1.32.32 0 0 1 0-.12.3.3 0 0 1 .1-.22.3.3 0 0 1 .11-.07.39.39 0 0 1 .2 0A.37.37 0 0 1 16 16a.29.29 0 0 1 .09.22.22.22 0 0 1 0 .12.36.36 0 0 1-.07.1.37.37 0 0 1-.14.07.4.4 0 0 1-.13-.02z" transform="translate(-.41 -.41)"/><path class="cls-8" d="M19.86 11.92a.35.35 0 0 1-.24-.09.3.3 0 0 1-.1-.22.27.27 0 0 1 0-.12.29.29 0 0 1 .08-.1.34.34 0 0 1 .17-.09.36.36 0 0 1 .19 0 .31.31 0 0 1 .11.07.29.29 0 0 1 .08.1.27.27 0 0 1 0 .12.3.3 0 0 1-.1.22.3.3 0 0 1-.11.06z" transform="translate(-.41 -.41)"/><path class="cls-9" d="M19.51 13.9a.3.3 0 0 1 .1-.22.36.36 0 0 1 .48 0 .29.29 0 0 1 0 .44.36.36 0 0 1-.48 0 .29.29 0 0 1-.1-.22z" transform="translate(-.41 -.41)"/><path class="cls-10" d="M19.86 16.49a.35.35 0 0 1-.24-.09.3.3 0 0 1-.1-.22.27.27 0 0 1 0-.12.29.29 0 0 1 .08-.1.34.34 0 0 1 .17-.09.36.36 0 0 1 .19 0 .3.3 0 0 1 .11.07.29.29 0 0 1 .08.1.27.27 0 0 1 0 .12.28.28 0 0 1 0 .12.3.3 0 0 1-.08.1l-.11.07z" transform="translate(-.41 -.41)"/><path class="cls-11" d="M4.52 30.56c-2 0-3.52-3.08-3.52-7s1.54-7 3.52-7S8 19.71 8 23.6s-1.51 6.96-3.48 6.96zm0-13.47c-1.63 0-3 3-3 6.5s1.38 6.5 3 6.5 3-3 3-6.5-1.37-6.49-3-6.49z" transform="translate(-.41 -.41)"/><path class="cls-12" d="M4.52 29.12a.27.27 0 0 1-.15-.06.23.23 0 0 1-.08-.14.22.22 0 0 1 0-.15.25.25 0 0 1 .13-.1C4.8 28.57 6 26.82 6 23.6a.23.23 0 0 1 .09-.14.27.27 0 0 1 .33 0 .23.23 0 0 1 .09.14c0 3.27-1.22 5.33-1.88 5.51z" transform="translate(-.41 -.41)"/><path class="cls-13" d="M4.52 17.1a.27.27 0 0 1-.18-.1.22.22 0 0 1-.07-.16V7.5A5.82 5.82 0 0 1 4.73 5a6.27 6.27 0 0 1 1.48-2.08A7 7 0 0 1 8.47 1.5a7.49 7.49 0 0 1 5.38 0 7 7 0 0 1 2.26 1.42A6.27 6.27 0 0 1 17.59 5a5.83 5.83 0 0 1 .46 2.47v1.45a.22.22 0 0 1-.07.16.27.27 0 0 1-.36 0 .22.22 0 0 1-.07-.16V7.5a5.61 5.61 0 0 0-1.87-4.14 6.83 6.83 0 0 0-9 0A5.61 5.61 0 0 0 4.75 7.5v9.36a.22.22 0 0 1-.07.16.27.27 0 0 1-.16.08z" transform="translate(-.41 -.41)"/></svg>