<svg data-name="Layer 1" xmlns="http://www.w3.org/2000/svg" viewBox="0 0 23.4 30.77"><title>layer6</title><path class="cls-1" d="M17.39 30.17c-2.18 0-4.37-.31-5.11-.92a.76.76 0 0 1-.21-.23.69.69 0 0 1-.09-.29.68.68 0 0 1 0-.3.73.73 0 0 1 .16-.26c.87-1.07 1-6.95.26-16.12a3.26 3.26 0 0 1 .2-1.44 3.5 3.5 0 0 1 .82-1.24 3.81 3.81 0 0 1 1.31-.78 4.1 4.1 0 0 1 1.53-.29h2.26a4.1 4.1 0 0 1 1.53.29 3.81 3.81 0 0 1 1.27.83 3.5 3.5 0 0 1 .81 1.17 3.27 3.27 0 0 1 .21 1.43c-.67 9.18-.61 15.05.26 16.12a.73.73 0 0 1 .16.26.68.68 0 0 1 0 .3.69.69 0 0 1-.09.29.76.76 0 0 1-.21.23c-.7.65-2.87.95-5.07.95zM16.25 8.76a3.55 3.55 0 0 0-1.33.25 3.3 3.3 0 0 0-1.1.72 3 3 0 0 0-.71 1.07 2.8 2.8 0 0 0-.18 1.24c.51 6.66.87 14.92-.35 16.43-.15.18-.14.31 0 .46 1.25 1 8.29 1 9.54 0 .18-.15.19-.27 0-.46-1.22-1.51-.86-9.77-.35-16.43a2.8 2.8 0 0 0-.18-1.24 3 3 0 0 0-.71-1.07 3.3 3.3 0 0 0-1.1-.72 3.55 3.55 0 0 0-1.32-.25z"/><path class="cls-2" d="M17.39 27.1a22.41 22.41 0 0 1-3.07-.18c-1.1-.16-1.59-.4-1.59-.77a.22.22 0 0 1 .07-.16.27.27 0 0 1 .36 0 .22.22 0 0 1 .07.16c.16.22 1.68.51 4.16.51s4-.3 4.16-.52a.21.21 0 0 1 0-.09.22.22 0 0 1 .05-.07h.17a.27.27 0 0 1 .18.07.23.23 0 0 1 .07.17c.03.76-2.89.88-4.63.88z"/><path class="cls-3" d="M18.59 20.79h-2.38a.28.28 0 0 1-.13 0 .25.25 0 0 1-.09-.08.22.22 0 0 1 0-.23l1.17-1.89a.26.26 0 0 1 .09-.08h.24a.26.26 0 0 1 .1.08l1.17 1.89a.22.22 0 0 1 0 .23.25.25 0 0 1-.09.08.27.27 0 0 1-.13 0zm-1.93-.46h1.49l-.75-1.19z"/><path class="cls-4" d="M17.39 24.45a.27.27 0 0 1-.13 0 .24.24 0 0 1-.09-.09l-1.18-1.91a.22.22 0 0 1 0-.23.25.25 0 0 1 .09-.08.27.27 0 0 1 .13 0h2.38a.27.27 0 0 1 .13 0 .25.25 0 0 1 .09.08.22.22 0 0 1 0 .23l-1.22 1.88a.24.24 0 0 1-.09.09.27.27 0 0 1-.11.03zm-.75-1.86l.75 1.19.75-1.19z"/><path class="cls-5" d="M15.34 11.51a.38.38 0 0 1-.24-.09.33.33 0 0 1-.1-.2.3.3 0 0 1 .1-.22.31.31 0 0 1 .11-.07.37.37 0 0 1 .2 0 .35.35 0 0 1 .17.08.29.29 0 0 1 .09.22.27.27 0 0 1 0 .12.29.29 0 0 1-.07.1l-.11.07h-.13z"/><path class="cls-6" d="M15 13.49a.3.3 0 0 1 .1-.22.36.36 0 0 1 .24-.09.35.35 0 0 1 .24.09.29.29 0 0 1 0 .44.36.36 0 0 1-.48 0 .3.3 0 0 1-.1-.22z"/><path class="cls-7" d="M15.34 16.08a.39.39 0 0 1-.24-.09.37.37 0 0 1-.07-.1.32.32 0 0 1 0-.12.3.3 0 0 1 .1-.22.3.3 0 0 1 .11-.07.39.39 0 0 1 .2 0 .37.37 0 0 1 .15.11.29.29 0 0 1 .09.22.22.22 0 0 1 0 .12.36.36 0 0 1-.07.1.37.37 0 0 1-.14.07.4.4 0 0 1-.13-.02z"/><path class="cls-8" d="M19.45 11.51a.35.35 0 0 1-.24-.09.3.3 0 0 1-.1-.22.27.27 0 0 1 0-.12.29.29 0 0 1 .08-.1.34.34 0 0 1 .17-.09.36.36 0 0 1 .19 0 .31.31 0 0 1 .11.07.29.29 0 0 1 .08.1.27.27 0 0 1 0 .12.3.3 0 0 1-.1.22.3.3 0 0 1-.11.06z"/><path class="cls-9" d="M19.1 13.49a.3.3 0 0 1 .1-.22.36.36 0 0 1 .48 0 .29.29 0 0 1 0 .44.36.36 0 0 1-.48 0 .29.29 0 0 1-.1-.22z"/><path class="cls-10" d="M19.45 16.08a.35.35 0 0 1-.24-.09.3.3 0 0 1-.1-.22.27.27 0 0 1 0-.12.29.29 0 0 1 .08-.1.34.34 0 0 1 .17-.09.36.36 0 0 1 .19 0 .3.3 0 0 1 .11.07.29.29 0 0 1 .08.1.27.27 0 0 1 0 .12.28.28 0 0 1 0 .12.3.3 0 0 1-.08.1l-.11.07z"/><path class="cls-11" d="M4.11 30.15c-2 0-3.52-3.08-3.52-7s1.54-7 3.52-7 3.48 3.15 3.48 7.04-1.51 6.96-3.48 6.96zm0-13.47c-1.63 0-3 3-3 6.5s1.38 6.5 3 6.5 3-3 3-6.5-1.37-6.49-3-6.49z"/><path class="cls-12" d="M4.11 28.71a.27.27 0 0 1-.15-.06.23.23 0 0 1-.08-.14.22.22 0 0 1 0-.15.25.25 0 0 1 .13-.1c.38-.1 1.58-1.85 1.58-5.07a.23.23 0 0 1 .09-.14.27.27 0 0 1 .33 0 .23.23 0 0 1 .09.14c0 3.27-1.22 5.33-1.88 5.51z"/><path class="cls-13" d="M4.11 16.69a.27.27 0 0 1-.18-.1.22.22 0 0 1-.07-.16V7.09a5.82 5.82 0 0 1 .46-2.5A6.27 6.27 0 0 1 5.8 2.51a7 7 0 0 1 2.26-1.42 7.49 7.49 0 0 1 5.38 0 7 7 0 0 1 2.26 1.42 6.27 6.27 0 0 1 1.48 2.08 5.83 5.83 0 0 1 .46 2.47v1.45a.22.22 0 0 1-.07.16.27.27 0 0 1-.36 0 .22.22 0 0 1-.07-.16V7.09a5.61 5.61 0 0 0-1.87-4.14 6.83 6.83 0 0 0-9 0 5.61 5.61 0 0 0-1.93 4.14v9.36a.22.22 0 0 1-.07.16.27.27 0 0 1-.16.08z"/></svg>