<svg data-name="Layer 1" xmlns="http://www.w3.org/2000/svg" viewBox="0 0 26.13 16.86"><title>layer5</title><path class="cls-1" d="M6.12 16.3C3.06 16.3.57 12.77.57 8.43S3.06.57 6.12.57c2.3 0 4.35 2 5.18 5a10.78 10.78 0 0 1 .38 2.84 10 10 0 0 1-1.16 4.86 5.22 5.22 0 0 1-4.4 3.03zm0-15.37C3.28.93.96 4.3.96 8.43s2.31 7.51 5.16 7.51a4.78 4.78 0 0 0 4-2.81 9.83 9.83 0 0 0 1.14-4.69 10.45 10.45 0 0 0-.36-2.76C10.14 2.83 8.22.93 6.12.93z"/><path class="cls-2" d="M10.66 13.32a.42.42 0 0 1-.18 0 .38.38 0 0 1-.13-.11.34.34 0 0 1-.06-.16.33.33 0 0 1 0-.17 9.89 9.89 0 0 0 1-4.39 10.5 10.5 0 0 0-.32-2.62.32.32 0 0 1 0-.14.33.33 0 0 1 .04-.16.37.37 0 0 1 .11-.1.4.4 0 0 1 .14-.05l9.31-1.7a4.57 4.57 0 0 1 1.64 0 4.42 4.42 0 0 1 1.52.56 4 4 0 0 1 1.17 1.05 3.66 3.66 0 0 1 .64 1.38 3.54 3.54 0 0 1-.97 3.17 4.28 4.28 0 0 1-2.41 1.32l-11.42 2.12zm10.71-9.34a4.18 4.18 0 0 0-.76.07l-9.27 1.72a10.5 10.5 0 0 1 .34 2.66 10.21 10.21 0 0 1-1 4.53l11.47-2.14a3.88 3.88 0 0 0 2.18-1.2 3.19 3.19 0 0 0 .79-2.89 3.45 3.45 0 0 0-1.33-2 4 4 0 0 0-2.42-.75z"/><path class="cls-3" d="M4.48 14.46h-.14a5.75 5.75 0 0 1-1.3-4 5.71 5.71 0 0 1 1.3-4h.29a4.41 4.41 0 0 1 1 2 7.38 7.38 0 0 1 .26 1.95 6.67 6.67 0 0 1-.74 3.18 3.25 3.25 0 0 1-.57.77.2.2 0 0 1-.1.1zm0-7.57a5.72 5.72 0 0 0-1 3.55 5.73 5.73 0 0 0 1 3.55 3.29 3.29 0 0 0 .36-.5 6.34 6.34 0 0 0 .7-3 7 7 0 0 0-.26-1.92 4.46 4.46 0 0 0-.81-1.69z"/><path class="cls-4" d="M4.65 12.83a.21.21 0 0 1-.12 0 .18.18 0 0 1-.07-.1 7.6 7.6 0 0 1 0-4.47.17.17 0 0 1 0-.06h.28l.05.05a.17.17 0 0 1 0 .07.16.16 0 0 1 0 .07 7.32 7.32 0 0 0 0 4.31.16.16 0 0 1 0 .07.17.17 0 0 1 0 .07l-.05.05h-.07z"/><path class="cls-5" d="M11.57 12.19a.21.21 0 0 1-.12-.05.18.18 0 0 1-.06-.11.17.17 0 0 1 0-.12.2.2 0 0 1 .11-.07l10.36-2h.2a.16.16 0 0 1 0 .2.2.2 0 0 1-.12.08l-10.37 2.07z"/></svg>