<svg id="Layer_1" data-name="Layer 1" xmlns="http://www.w3.org/2000/svg" xmlns:xlink="http://www.w3.org/1999/xlink" viewBox="0 0 12.57 30.26"><defs><style>.cls-1,.cls-2,.cls-3,.cls-4,.cls-5{stroke:#ffa3c7}.cls-1{fill:url(#linear-gradient)}.cls-2{fill:url(#linear-gradient-2)}.cls-3{fill:url(#linear-gradient-3)}.cls-4{fill:url(#linear-gradient-4)}.cls-5{fill:url(#linear-gradient-5)}</style><linearGradient id="linear-gradient" x1="7.67" y1="-.59" x2="7.41" y2="33.78" gradientTransform="matrix(1 0 0 -1 0 32.75)" gradientUnits="userSpaceOnUse"><stop offset="0" stop-color="#0170ca"/><stop offset=".98" stop-color="#ec449a"/></linearGradient><linearGradient id="linear-gradient-2" x1="8.33" y1="-142.21" x2="7.31" y2="39.27" xlink:href="#linear-gradient"/><linearGradient id="linear-gradient-3" x1="5.93" y1="-148.66" x2="5.2" y2="42.82" xlink:href="#linear-gradient"/><linearGradient id="linear-gradient-4" x1="15.39" y1="-146.67" x2="4.97" y2="42.65" xlink:href="#linear-gradient"/><linearGradient id="linear-gradient-5" x1="15.53" y1="-441.58" x2="6.97" y2="45.59" xlink:href="#linear-gradient"/></defs><title>layer12</title><path class="cls-1" d="M7.41 30.26a24.44 24.44 0 0 1-4.65-.49.29.29 0 0 1-.14-.09.2.2 0 0 1 0-.14V10.86a3.37 3.37 0 0 1 .61-1.93 4.58 4.58 0 0 1 1.66-1.47.34.34 0 0 1 .16 0h5a.34.34 0 0 1 .16 0 4.59 4.59 0 0 1 1.7 1.44 3.38 3.38 0 0 1 .63 1.91v18.73a.2.2 0 0 1-.06.15.31.31 0 0 1-.17.08 28.73 28.73 0 0 1-4.9.49zm-4.29-.89a22.55 22.55 0 0 0 8.85 0V10.8a3 3 0 0 0-.54-1.66A4 4 0 0 0 10 7.88H5.11a4 4 0 0 0-1.47 1.28 3 3 0 0 0-.52 1.68z" transform="translate(-.5 -.5)"/><path class="cls-2" d="M9.81 7.2H4.94a.34.34 0 0 1-.2-.07.21.21 0 0 1-.08-.13V4.19A.21.21 0 0 1 4.74 4a.34.34 0 0 1 .2 0h4.87A.34.34 0 0 1 10 4a.21.21 0 0 1 .08.16V7a.21.21 0 0 1-.09.16.34.34 0 0 1-.18.04zm-4.58-.46h4.32V4.41H5.23z" transform="translate(-.5 -.5)"/><path class="cls-3" d="M9.2 4.41a.34.34 0 0 1-.2-.06.21.21 0 0 1-.09-.16V1.85A35.6 35.6 0 0 0 5 1.46a27.17 27.17 0 0 0-3.57.39h-.27l-.09-.06a.22.22 0 0 1-.07-.1.19.19 0 0 1 0-.1.21.21 0 0 1 0-.09l.08-.07h.11A27.33 27.33 0 0 1 4.93 1a33.48 33.48 0 0 1 4.32.44.31.31 0 0 1 .17.08.2.2 0 0 1 .06.15v2.52a.21.21 0 0 1-.09.16.34.34 0 0 1-.19.06z" transform="translate(-.5 -.5)"/><path class="cls-4" d="M5.67 4.41a.34.34 0 0 1-.21-.07.21.21 0 0 1-.09-.16V1.26a.19.19 0 0 1 0-.09.23.23 0 0 1 .06-.07h.4a.23.23 0 0 1 .06.07.19.19 0 0 1 0 .09v2.93a.21.21 0 0 1-.08.16.33.33 0 0 1-.14.06z" transform="translate(-.5 -.5)"/><path class="cls-5" d="M9.59 24h-4.1a.34.34 0 0 1-.2-.07.21.21 0 0 1-.09-.16v-8.26a.21.21 0 0 1 .09-.16.34.34 0 0 1 .2-.07h4.09a.34.34 0 0 1 .21.07.21.21 0 0 1 .09.16v8.23a.21.21 0 0 1-.09.16.34.34 0 0 1-.2.1zm-3.81-.46H9.3v-7.8H5.78z" transform="translate(-.5 -.5)"/></svg>