<svg data-name="Layer 1" xmlns="http://www.w3.org/2000/svg" viewBox="0 0 29.13 26.31"><title>layer10</title><path class="cls-1" d="M6.96 25.75h-.12a7.12 7.12 0 0 1-4.51-2.05 5.89 5.89 0 0 1 .16-8.56 7.17 7.17 0 0 1 4.58-1.92 7.25 7.25 0 0 1 3.55 1 6.43 6.43 0 0 1 2.47 2.53h1.83a1.42 1.42 0 0 1 .95.38 1.19 1.19 0 0 1 .38.88v3.27a1.15 1.15 0 0 1-.11.47 1.25 1.25 0 0 1-.3.4 1.38 1.38 0 0 1-.44.26 1.47 1.47 0 0 1-.52.09h-1.83a6.48 6.48 0 0 1-2.52 2.41 7.27 7.27 0 0 1-3.57.84zm0-12.18a6.65 6.65 0 0 0-4.39 1.67 5.76 5.76 0 0 0-1.81 3 5.4 5.4 0 0 0 .25 3.33 6 6 0 0 0 2.3 2.67 6.84 6.84 0 0 0 3.54 1.05h.12a6.79 6.79 0 0 0 3.33-.86 6 6 0 0 0 2.34-2.32.21.21 0 0 1 .08-.08.24.24 0 0 1 .12 0h2a1 1 0 0 0 .35-.06.92.92 0 0 0 .3-.18.84.84 0 0 0 .2-.27.77.77 0 0 0 .07-.32l.06-3.27a.77.77 0 0 0-.06-.32.83.83 0 0 0-.19-.27.92.92 0 0 0-.29-.19 1 1 0 0 0-.35-.07h-2a.24.24 0 0 1-.12 0 .21.21 0 0 1-.08-.09 6 6 0 0 0-2.31-2.42 6.78 6.78 0 0 0-3.37-1zm0 9.93h-.08a4.72 4.72 0 0 1-2.44-.74 4.14 4.14 0 0 1-1.57-1.81 3.73 3.73 0 0 1-.21-2.38 4 4 0 0 1 1.25-2 4.43 4.43 0 0 1 1.44-.86 4.74 4.74 0 0 1 1.69-.28 4.64 4.64 0 0 1 3.1 1.24 3.82 3.82 0 0 1-.07 5.7 4.64 4.64 0 0 1-3.1 1.2zm0-7.7a4.13 4.13 0 0 0-2.75 1 3.58 3.58 0 0 0-1.12 1.85 3.36 3.36 0 0 0 .19 2.1 3.72 3.72 0 0 0 1.43 1.66 4.25 4.25 0 0 0 2.19.66 4.21 4.21 0 0 0 1.53-.25 3.93 3.93 0 0 0 1.3-.78 3.58 3.58 0 0 0 1.12-1.85 3.36 3.36 0 0 0-.19-2.11 3.72 3.72 0 0 0-1.43-1.66 4.25 4.25 0 0 0-2.2-.66z"/><path class="cls-2" d="M14.06 20.18a.66.66 0 0 1-.43-.18.55.55 0 0 1-.17-.4.57.57 0 0 1 .2-.39.68.68 0 0 1 .44-.16.66.66 0 0 1 .45.17.54.54 0 0 1 0 .82.66.66 0 0 1-.45.17zm0-.75a.19.19 0 0 0-.13 0 .16.16 0 0 0 0 .24.19.19 0 0 0 .13 0 .23.23 0 0 0 .13 0v-.06a.23.23 0 0 0 0-.13.17.17 0 0 0 0-.06h-.13z"/><path class="cls-3" d="M21.73 10.92h-.08a4.72 4.72 0 0 1-2.44-.73 4.13 4.13 0 0 1-1.59-1.84 3.73 3.73 0 0 1-.2-2.34 4 4 0 0 1 1.25-2 4.4 4.4 0 0 1 1.45-.86 4.73 4.73 0 0 1 4.13.42 4.13 4.13 0 0 1 1.58 1.84 3.73 3.73 0 0 1 .2 2.33 4 4 0 0 1-1.24 2 4.59 4.59 0 0 1-3.06 1.18zm-.07-.41a4.2 4.2 0 0 0 1.53-.25 3.93 3.93 0 0 0 1.3-.78 3.52 3.52 0 0 0 1.18-2.18 3.38 3.38 0 0 0-.61-2.38 3.94 3.94 0 0 0-2.12-1.49 4.32 4.32 0 0 0-2.67.08 3.88 3.88 0 0 0-2 1.61 3.36 3.36 0 0 0-.45 2.45 3.57 3.57 0 0 0 1.34 2.12 4.19 4.19 0 0 0 2.5.82z"/><path class="cls-4" d="M23.36 15.38l-3.57-.05a1.47 1.47 0 0 1-.52-.1 1.37 1.37 0 0 1-.44-.28 1.23 1.23 0 0 1-.26-.38 1.15 1.15 0 0 1-.09-.48v-1.68a6.71 6.71 0 0 1-2.37-2 6 6 0 0 1-1.16-2.72 5.79 5.79 0 0 1 .31-2.91 6.25 6.25 0 0 1 1.71-2.46A7.07 7.07 0 0 1 20.51.67a7.42 7.42 0 0 1 4 .42 6.71 6.71 0 0 1 3 2.36 5.89 5.89 0 0 1 0 6.76 6.64 6.64 0 0 1-2.76 2.27v1.68a1.15 1.15 0 0 1-.11.47 1.24 1.24 0 0 1-.3.4 1.38 1.38 0 0 1-.44.26 1.47 1.47 0 0 1-.54.09zM21.72.98a6.72 6.72 0 0 0-4.48 1.69 5.62 5.62 0 0 0-1.9 4.08 5.45 5.45 0 0 0 .9 3.12 6.19 6.19 0 0 0 2.58 2.2.22.22 0 0 1 .09.08.19.19 0 0 1 0 .11v1.81a.79.79 0 0 0 .25.59 1 1 0 0 0 .63.26l3.57.05a1 1 0 0 0 .35-.06.91.91 0 0 0 .3-.18.84.84 0 0 0 .2-.27.77.77 0 0 0 .08-.32v-1.81a.2.2 0 0 1 0-.11.22.22 0 0 1 .09-.07 6.19 6.19 0 0 0 3-2.71 5.42 5.42 0 0 0 .52-3.83 5.81 5.81 0 0 0-2.19-3.3 6.79 6.79 0 0 0-4-1.34zm0 9.92h-.08a4.72 4.72 0 0 1-2.44-.73 4.13 4.13 0 0 1-1.59-1.84 3.73 3.73 0 0 1-.2-2.34 4 4 0 0 1 1.25-2 4.4 4.4 0 0 1 1.45-.86 4.73 4.73 0 0 1 4.14.44 4.13 4.13 0 0 1 1.58 1.8 3.73 3.73 0 0 1 .2 2.33 4 4 0 0 1-1.24 2 4.59 4.59 0 0 1-3.06 1.17zm-.07-.41h.07a4.18 4.18 0 0 0 2.79-1.05 3.49 3.49 0 0 0 1.18-2.53 3.41 3.41 0 0 0-.64-2 3.9 3.9 0 0 0-1.76-1.34A4.31 4.31 0 0 0 21 3.34a4.11 4.11 0 0 0-2 1 3.55 3.55 0 0 0-1.11 1.84 3.34 3.34 0 0 0 .19 2.1 3.7 3.7 0 0 0 1.43 1.65 4.23 4.23 0 0 0 2.15.56z"/><path class="cls-5" d="M21.57 14.29a.66.66 0 0 1-.45-.17.54.54 0 0 1 0-.82.67.67 0 0 1 .89 0 .54.54 0 0 1 0 .82.66.66 0 0 1-.44.17zm0-.41a.19.19 0 0 0 .13 0 .15.15 0 0 0 0-.23.19.19 0 0 0-.13-.08h-.06v.05a.15.15 0 0 0 0 .06.16.16 0 0 0 .05.11.19.19 0 0 0 .12.05z"/><path class="cls-6" d="M19.28 19.84h-.1l-3.28-.09a.23.23 0 0 1-.14-.07.19.19 0 0 1 0-.27.23.23 0 0 1 .14-.07l3.3.09a2.2 2.2 0 0 0 .79-.12 2.06 2.06 0 0 0 .67-.39 1.81 1.81 0 0 0 .64-1.35v-2.45a.19.19 0 0 1 0-.08v-.07h.43v.07a.19.19 0 0 1 0 .08v2.45a2.18 2.18 0 0 1-.74 1.58 2.6 2.6 0 0 1-1.74.65z"/></svg>