<svg id="Layer_1" data-name="Layer 1" xmlns="http://www.w3.org/2000/svg" xmlns:xlink="http://www.w3.org/1999/xlink" viewBox="0 0 11.88 26.74"><defs><style>.cls-1,.cls-10,.cls-11,.cls-12,.cls-13,.cls-14,.cls-15,.cls-16,.cls-17,.cls-18,.cls-19,.cls-2,.cls-20,.cls-21,.cls-22,.cls-23,.cls-24,.cls-25,.cls-3,.cls-4,.cls-5,.cls-6,.cls-7,.cls-8,.cls-9{stroke:#ffd7e7;stroke-width:1.13px}.cls-1{fill:url(#linear-gradient)}.cls-2{fill:url(#linear-gradient-2)}.cls-3{fill:url(#linear-gradient-3)}.cls-4{fill:url(#linear-gradient-4)}.cls-5{fill:url(#linear-gradient-5)}.cls-6{fill:url(#linear-gradient-6)}.cls-7{fill:url(#linear-gradient-7)}.cls-8{fill:url(#linear-gradient-8)}.cls-9{fill:url(#linear-gradient-9)}.cls-10{fill:url(#linear-gradient-10)}.cls-11{fill:url(#linear-gradient-11)}.cls-12{fill:url(#linear-gradient-12)}.cls-13{fill:url(#linear-gradient-13)}.cls-14{fill:url(#linear-gradient-14)}.cls-15{fill:url(#linear-gradient-15)}.cls-16{fill:url(#linear-gradient-16)}.cls-17{fill:url(#linear-gradient-17)}.cls-18{fill:url(#linear-gradient-18)}.cls-19{fill:url(#linear-gradient-19)}.cls-20{fill:url(#linear-gradient-20)}.cls-21{fill:url(#linear-gradient-21)}.cls-22{fill:url(#linear-gradient-22)}.cls-23{fill:url(#linear-gradient-23)}.cls-24{fill:url(#linear-gradient-24)}.cls-25{fill:url(#linear-gradient-25)}</style><linearGradient id="linear-gradient" x1="6.75" y1=".67" x2="6.75" y2="28.48" gradientTransform="matrix(1 0 0 -1 0 28.75)" gradientUnits="userSpaceOnUse"><stop offset="0" stop-color="#0170ca"/><stop offset=".98" stop-color="#ec449a"/></linearGradient><linearGradient id="linear-gradient-2" x1="4.51" y1="-147.01" x2="4.51" y2="31.59" xlink:href="#linear-gradient"/><linearGradient id="linear-gradient-3" x1="6.29" y1="-1007.09" x2="6.29" y2="51.05" xlink:href="#linear-gradient"/><linearGradient id="linear-gradient-4" x1="6.27" y1="-53.59" x2="6.27" y2="4.8" xlink:href="#linear-gradient"/><linearGradient id="linear-gradient-5" x1="2.47" y1="-22.17" x2="2.47" y2="21.39" xlink:href="#linear-gradient"/><linearGradient id="linear-gradient-6" x1="2.47" y1="-24.02" x2="2.47" y2="19.32" xlink:href="#linear-gradient"/><linearGradient id="linear-gradient-7" x1="2.47" y1="-25.93" x2="2.47" y2="17.25" xlink:href="#linear-gradient"/><linearGradient id="linear-gradient-8" x1="2.47" y1="-28.11" x2="2.47" y2="15.2" xlink:href="#linear-gradient"/><linearGradient id="linear-gradient-9" x1="2.47" y1="-30.17" x2="2.47" y2="13.15" xlink:href="#linear-gradient"/><linearGradient id="linear-gradient-10" x1="2.47" y1="-32.23" x2="2.47" y2="11.09" xlink:href="#linear-gradient"/><linearGradient id="linear-gradient-11" x1="2.47" y1="-34.29" x2="2.47" y2="9.03" xlink:href="#linear-gradient"/><linearGradient id="linear-gradient-12" x1="10.11" y1="-21.94" x2="10.11" y2="21.38" xlink:href="#linear-gradient"/><linearGradient id="linear-gradient-13" x1="10.11" y1="-23.87" x2="10.11" y2="19.31" xlink:href="#linear-gradient"/><linearGradient id="linear-gradient-14" x1="10.11" y1="-25.93" x2="10.11" y2="17.25" xlink:href="#linear-gradient"/><linearGradient id="linear-gradient-15" x1="10.11" y1="-28.09" x2="10.11" y2="15.2" xlink:href="#linear-gradient"/><linearGradient id="linear-gradient-16" x1="10.11" y1="-30.04" x2="10.11" y2="13.14" xlink:href="#linear-gradient"/><linearGradient id="linear-gradient-17" x1="10.11" y1="-32.1" x2="10.11" y2="11.08" xlink:href="#linear-gradient"/><linearGradient id="linear-gradient-18" x1="10.11" y1="-34.29" x2="10.11" y2="9.03" xlink:href="#linear-gradient"/><linearGradient id="linear-gradient-19" x1="6.29" y1="-22.17" x2="6.29" y2="21.39" xlink:href="#linear-gradient"/><linearGradient id="linear-gradient-20" x1="6.29" y1="-24" x2="6.29" y2="19.32" xlink:href="#linear-gradient"/><linearGradient id="linear-gradient-21" x1="6.29" y1="-25.93" x2="6.29" y2="17.25" xlink:href="#linear-gradient"/><linearGradient id="linear-gradient-22" x1="6.29" y1="-27.81" x2="6.29" y2="15.19" xlink:href="#linear-gradient"/><linearGradient id="linear-gradient-23" x1="6.29" y1="-30.04" x2="6.29" y2="13.14" xlink:href="#linear-gradient"/><linearGradient id="linear-gradient-24" x1="6.29" y1="-32.1" x2="6.29" y2="11.08" xlink:href="#linear-gradient"/><linearGradient id="linear-gradient-25" x1="6.29" y1="-35.22" x2="6.29" y2="9.07" xlink:href="#linear-gradient"/></defs><title>layer2</title><path class="cls-1" d="M10.06 8.16h-.24a13.72 13.72 0 0 1-4.15-.84l-.4-.16a9 9 0 0 1-2.73-1.39 2.07 2.07 0 0 1-.79-1.6A2.38 2.38 0 0 1 2 3a3.12 3.12 0 0 1 .86-1 4.36 4.36 0 0 1 1.32-.7A5.38 5.38 0 0 1 5.79 1c2.43 0 3.47 2.27 4 3.36A7.71 7.71 0 0 0 10.86 6c.65.78 1.21 1.46.67 1.89a2.52 2.52 0 0 1-1.47.27zM5.79 1.4a4.24 4.24 0 0 0-2.5.85 2.34 2.34 0 0 0-1 1.91A1.73 1.73 0 0 0 3 5.51 8.7 8.7 0 0 0 5.51 6.8l.4.16a13.17 13.17 0 0 0 3.92.79 2.52 2.52 0 0 0 1.31-.18c.26-.21-.25-.82-.72-1.41a8 8 0 0 1-1.15-1.67C8.54 3 7.59 1.4 5.79 1.4z" transform="translate(-.43 -.43)"/><path class="cls-2" d="M3.64 5.29h-.12l-.09-.05a1.3 1.3 0 0 1-.5-1.07 1.71 1.71 0 0 1 .19-.86 2.24 2.24 0 0 1 .61-.74A3.13 3.13 0 0 1 4.68 2a3.87 3.87 0 0 1 1.14-.2.32.32 0 0 1 .18.11.17.17 0 0 1 0 .28.32.32 0 0 1-.19.06 3.16 3.16 0 0 0-.94.17 2.54 2.54 0 0 0-.78.43 1.81 1.81 0 0 0-.5.62 1.39 1.39 0 0 0-.14.71 1 1 0 0 0 .4.82h.06a.15.15 0 0 1 0 .15l-.06.06h-.1z" transform="translate(-.43 -.43)"/><path class="cls-3" d="M9.82 25.85H2.75a.33.33 0 0 1-.19-.05.19.19 0 0 1-.09-.13v-20a.17.17 0 0 1 .05-.11.28.28 0 0 1 .13-.07.37.37 0 0 1 .16 0 .3.3 0 0 1 .19.02 14.3 14.3 0 0 0 6.83 2.24.32.32 0 0 1 .18.06.18.18 0 0 1 .08.14v17.71a.19.19 0 0 1-.09.13.33.33 0 0 1-.18.06zM3 25.45h6.5V8.14a15.85 15.85 0 0 1-6.5-2z" transform="translate(-.43 -.43)"/><path class="cls-4" d="M10.79 26.6h-9a.91.91 0 0 1-.54-.16.47.47 0 0 1 0-.8.91.91 0 0 1 .54-.16h9a.91.91 0 0 1 .54.16.47.47 0 0 1 0 .8.91.91 0 0 1-.54.16zm-9-.72a.26.26 0 0 0-.15 0 .13.13 0 0 0 0 .23.26.26 0 0 0 .15 0h9a.26.26 0 0 0 .15 0 .13.13 0 0 0 0-.23.26.26 0 0 0-.15 0z" transform="translate(-.43 -.43)"/><path class="cls-5" d="M2.48 9.34h-.09a.69.69 0 0 1-.21-.06.53.53 0 0 1-.18-.1.34.34 0 0 1-.1-.31.42.42 0 0 1 .22-.27.63.63 0 0 1 .19-.07.72.72 0 0 1 .22 0 .69.69 0 0 1 .21.06.53.53 0 0 1 .16.11.34.34 0 0 1 .1.3.42.42 0 0 1-.22.27.68.68 0 0 1-.3.07z" transform="translate(-.43 -.43)"/><path class="cls-6" d="M2.48 11.4h-.09a.69.69 0 0 1-.21-.06.53.53 0 0 1-.18-.1.34.34 0 0 1-.1-.31.42.42 0 0 1 .22-.27.64.64 0 0 1 .2-.07.73.73 0 0 1 .22 0 .69.69 0 0 1 .21.06.53.53 0 0 1 .16.11A.34.34 0 0 1 3 11a.42.42 0 0 1-.22.27.68.68 0 0 1-.3.13z" transform="translate(-.43 -.43)"/><path class="cls-7" d="M2.48 13.46h-.09a.69.69 0 0 1-.21-.06.53.53 0 0 1-.18-.11.34.34 0 0 1-.1-.31.42.42 0 0 1 .22-.27.65.65 0 0 1 .2-.07.74.74 0 0 1 .22 0 .69.69 0 0 1 .2.05.53.53 0 0 1 .16.11.34.34 0 0 1 .1.31.42.42 0 0 1-.22.27.68.68 0 0 1-.3.08z" transform="translate(-.43 -.43)"/><path class="cls-8" d="M2.48 15.52h-.09a.69.69 0 0 1-.21-.06.53.53 0 0 1-.18-.11.34.34 0 0 1-.1-.31.42.42 0 0 1 .22-.27.65.65 0 0 1 .2-.07.75.75 0 0 1 .22 0 .69.69 0 0 1 .21.06.53.53 0 0 1 .16.11.34.34 0 0 1 .1.31.42.42 0 0 1-.22.27.68.68 0 0 1-.31.07z" transform="translate(-.43 -.43)"/><path class="cls-9" d="M2.48 17.57h-.09a.69.69 0 0 1-.21-.06.53.53 0 0 1-.18-.1.34.34 0 0 1-.1-.31.42.42 0 0 1 .22-.27.66.66 0 0 1 .2-.07.74.74 0 0 1 .22 0 .69.69 0 0 1 .21.06.53.53 0 0 1 .16.11.34.34 0 0 1 .1.31.42.42 0 0 1-.22.27.68.68 0 0 1-.31.06z" transform="translate(-.43 -.43)"/><path class="cls-10" d="M2.48 19.63h-.09a.69.69 0 0 1-.21-.06.53.53 0 0 1-.18-.1.34.34 0 0 1-.1-.31.42.42 0 0 1 .22-.27.66.66 0 0 1 .2-.07.76.76 0 0 1 .22 0 .69.69 0 0 1 .21.06.53.53 0 0 1 .16.11.34.34 0 0 1 .1.31.42.42 0 0 1-.22.27.68.68 0 0 1-.31.06z" transform="translate(-.43 -.43)"/><path class="cls-11" d="M2.48 21.69h-.09a.69.69 0 0 1-.21-.06.53.53 0 0 1-.18-.1.34.34 0 0 1-.1-.31.42.42 0 0 1 .22-.27.65.65 0 0 1 .2-.07.74.74 0 0 1 .22 0 .69.69 0 0 1 .21.06.53.53 0 0 1 .16.11.34.34 0 0 1 .1.31.42.42 0 0 1-.22.27.68.68 0 0 1-.31.06z" transform="translate(-.43 -.43)"/><path class="cls-12" d="M10.11 9.34H10a.69.69 0 0 1-.21-.06.53.53 0 0 1-.16-.11.34.34 0 0 1-.1-.31.42.42 0 0 1 .22-.27.65.65 0 0 1 .2-.07.74.74 0 0 1 .22 0 .69.69 0 0 1 .21.06.53.53 0 0 1 .16.11.34.34 0 0 1 .09.31.43.43 0 0 1-.23.27.67.67 0 0 1-.29.07z" transform="translate(-.43 -.43)"/><path class="cls-13" d="M10.11 11.4H10a.69.69 0 0 1-.21-.06.53.53 0 0 1-.16-.11.34.34 0 0 1-.1-.31.42.42 0 0 1 .22-.27.65.65 0 0 1 .2-.07.74.74 0 0 1 .22 0 .69.69 0 0 1 .2.05.53.53 0 0 1 .16.11.34.34 0 0 1 .09.31.43.43 0 0 1-.23.27.67.67 0 0 1-.28.08z" transform="translate(-.43 -.43)"/><path class="cls-14" d="M10.11 13.46H10a.69.69 0 0 1-.21-.06.53.53 0 0 1-.16-.11.34.34 0 0 1-.1-.31.42.42 0 0 1 .22-.27.65.65 0 0 1 .2-.07.74.74 0 0 1 .22 0 .69.69 0 0 1 .2.05.53.53 0 0 1 .16.11.34.34 0 0 1 .09.31.43.43 0 0 1-.23.27.67.67 0 0 1-.28.08z" transform="translate(-.43 -.43)"/><path class="cls-15" d="M10.11 15.52H10a.69.69 0 0 1-.21-.06.53.53 0 0 1-.16-.11.34.34 0 0 1-.1-.31.42.42 0 0 1 .22-.27.71.71 0 0 1 .41-.08.69.69 0 0 1 .21.06.53.53 0 0 1 .16.11.34.34 0 0 1 .09.31.43.43 0 0 1-.23.27.67.67 0 0 1-.28.08z" transform="translate(-.43 -.43)"/><path class="cls-16" d="M10.11 17.57H10a.69.69 0 0 1-.21-.06.53.53 0 0 1-.16-.11.34.34 0 0 1-.1-.31.42.42 0 0 1 .22-.27.65.65 0 0 1 .2-.07.74.74 0 0 1 .22 0 .69.69 0 0 1 .2.05.53.53 0 0 1 .16.11.38.38 0 0 1 .09.15.31.31 0 0 1 0 .16.36.36 0 0 1-.08.15.51.51 0 0 1-.15.12.68.68 0 0 1-.28.08z" transform="translate(-.43 -.43)"/><path class="cls-17" d="M10.11 19.63H10a.69.69 0 0 1-.21-.06.53.53 0 0 1-.16-.11.34.34 0 0 1-.1-.31.42.42 0 0 1 .22-.27.66.66 0 0 1 .2-.07.74.74 0 0 1 .22 0 .69.69 0 0 1 .2.05.53.53 0 0 1 .16.11.38.38 0 0 1 .09.15.31.31 0 0 1 0 .16.36.36 0 0 1-.08.15.51.51 0 0 1-.15.12.68.68 0 0 1-.28.08z" transform="translate(-.43 -.43)"/><path class="cls-18" d="M10.11 21.69H10a.69.69 0 0 1-.21-.06.53.53 0 0 1-.16-.11.34.34 0 0 1-.1-.31.42.42 0 0 1 .22-.27.65.65 0 0 1 .2-.07.74.74 0 0 1 .22 0 .69.69 0 0 1 .21.06.53.53 0 0 1 .16.11.37.37 0 0 1 .09.15.31.31 0 0 1 0 .16.37.37 0 0 1-.08.15.51.51 0 0 1-.15.12.68.68 0 0 1-.29.07z" transform="translate(-.43 -.43)"/><path class="cls-19" d="M6.29 9.34h-.08A.69.69 0 0 1 6 9.29a.53.53 0 0 1-.16-.11.34.34 0 0 1-.1-.31.42.42 0 0 1 .26-.28.63.63 0 0 1 .19-.07.72.72 0 0 1 .22 0 .69.69 0 0 1 .21.06.53.53 0 0 1 .16.11.34.34 0 0 1 .1.31.42.42 0 0 1-.22.27.69.69 0 0 1-.37.07z" transform="translate(-.43 -.43)"/><path class="cls-20" d="M6.29 11.4h-.08a.69.69 0 0 1-.21-.05.53.53 0 0 1-.16-.11.34.34 0 0 1-.11-.31.41.41 0 0 1 .27-.28.64.64 0 0 1 .19-.07.73.73 0 0 1 .22 0 .69.69 0 0 1 .21.06.53.53 0 0 1 .16.11.34.34 0 0 1 .1.31.42.42 0 0 1-.22.27.69.69 0 0 1-.37.07z" transform="translate(-.43 -.43)"/><path class="cls-21" d="M6.29 13.46h-.08a.69.69 0 0 1-.21-.05.53.53 0 0 1-.16-.11.34.34 0 0 1-.1-.31.42.42 0 0 1 .26-.28.65.65 0 0 1 .2-.07.74.74 0 0 1 .22 0 .69.69 0 0 1 .2.05.53.53 0 0 1 .16.11.34.34 0 0 1 .1.31.42.42 0 0 1-.22.27.69.69 0 0 1-.37.08z" transform="translate(-.43 -.43)"/><path class="cls-22" d="M6.29 15.52h-.08a.69.69 0 0 1-.21-.06.53.53 0 0 1-.16-.11.36.36 0 0 1-.11-.23.34.34 0 0 1 .08-.23.53.53 0 0 1 .24-.16.74.74 0 0 1 .32 0 .69.69 0 0 1 .21.06.53.53 0 0 1 .16.11.34.34 0 0 1 .1.31.42.42 0 0 1-.22.27.7.7 0 0 1-.33.04z" transform="translate(-.43 -.43)"/><path class="cls-23" d="M6.29 17.57h-.08a.69.69 0 0 1-.21-.05.53.53 0 0 1-.16-.11.34.34 0 0 1-.1-.31.42.42 0 0 1 .26-.28.65.65 0 0 1 .2-.07.74.74 0 0 1 .22 0 .69.69 0 0 1 .2.05.53.53 0 0 1 .16.11.34.34 0 0 1 .1.31.42.42 0 0 1-.22.27.69.69 0 0 1-.37.08z" transform="translate(-.43 -.43)"/><path class="cls-24" d="M6.29 19.63h-.08a.69.69 0 0 1-.21-.05.53.53 0 0 1-.16-.11.34.34 0 0 1-.1-.31.42.42 0 0 1 .26-.28.66.66 0 0 1 .2-.07.74.74 0 0 1 .22 0 .69.69 0 0 1 .2.05.53.53 0 0 1 .16.11.34.34 0 0 1 .1.31.42.42 0 0 1-.22.27.69.69 0 0 1-.37.08z" transform="translate(-.43 -.43)"/><path class="cls-25" d="M6.29 21.69h-.08a.69.69 0 0 1-.21-.05.53.53 0 0 1-.16-.11.34.34 0 0 1-.1-.31.42.42 0 0 1 .26-.28.62.62 0 0 1 .19-.08.73.73 0 0 1 .22 0 .69.69 0 0 1 .21.06.53.53 0 0 1 .16.11.34.34 0 0 1 .1.31.42.42 0 0 1-.22.27.67.67 0 0 1-.37.08z" transform="translate(-.43 -.43)"/></svg>