<svg id="Layer_1" data-name="Layer 1" xmlns="http://www.w3.org/2000/svg" viewBox="0 0 8.82 26.5"><defs><style>.cls-1{fill:none;stroke:#ffa3c7;stroke-width:.9px}</style></defs><title>layer7</title><path class="cls-1" d="M8.58 19.94H1.35a.52.52 0 0 1-.23-.05.2.2 0 0 1-.12-.12V3.42a2 2 0 0 1 1.11-1.68 5.85 5.85 0 0 1 5.69 0 2 2 0 0 1 1.12 1.68v16.35a.2.2 0 0 1-.12.13.52.52 0 0 1-.22.04zm-6.88-.4h6.52V3.42A1.61 1.61 0 0 0 7.31 2a4.75 4.75 0 0 0-4.7 0 1.62 1.62 0 0 0-.91 1.4z" transform="translate(-.55 -.55)"/><path class="cls-1" d="M8.58 24.38H1.34a.51.51 0 0 1-.24-.06.18.18 0 0 1-.1-.14v-4.41a.18.18 0 0 1 .1-.14.51.51 0 0 1 .24-.06h7.24a.51.51 0 0 1 .24.06.17.17 0 0 1 .1.14v4.44a.21.21 0 0 1-.12.12.53.53 0 0 1-.23 0zM1.7 24h6.51v-4H1.7z" transform="translate(-.55 -.55)"/><path class="cls-1" d="M5 26.6a5.8 5.8 0 0 1-2.85-.74A2 2 0 0 1 1 24.18a.18.18 0 0 1 .1-.18.51.51 0 0 1 .25 0h7.23a.5.5 0 0 1 .24.06.17.17 0 0 1 .1.14 2 2 0 0 1-1.12 1.67 5.79 5.79 0 0 1-2.8.73zm-3.28-2.22a1.78 1.78 0 0 0 1 1.27 4.83 4.83 0 0 0 4.47 0 1.78 1.78 0 0 0 1-1.27zM3 18.91h-.26a.22.22 0 0 1-.07-.07.13.13 0 0 1 0-.08v-14a.17.17 0 0 1 .1-.14.55.55 0 0 1 .49 0 .17.17 0 0 1 .1.14v14a.13.13 0 0 1 0 .08.22.22 0 0 1-.07.07h-.26zm2 2.53a1.35 1.35 0 0 1-.66-.16.4.4 0 0 1 0-.76 1.35 1.35 0 0 1 .66-.15 1.35 1.35 0 0 1 .66.16.4.4 0 0 1 0 .76 1.35 1.35 0 0 1-.66.15zm0-.69a.32.32 0 0 0-.15 0 .1.1 0 0 0 0 .18A.32.32 0 0 0 5 21a.32.32 0 0 0 .15 0 .1.1 0 0 0 0-.18.32.32 0 0 0-.15 0zm0 2.46a1.85 1.85 0 0 1-.91-.21.56.56 0 0 1 0-1 1.85 1.85 0 0 1 .91-.33 1.85 1.85 0 0 1 .87.25.56.56 0 0 1 0 1 1.85 1.85 0 0 1-.87.29zm0-1.14a.87.87 0 0 0-.4.12.27.27 0 0 0 0 .49.86.86 0 0 0 .4.12.86.86 0 0 0 .4-.12.27.27 0 0 0 0-.49.87.87 0 0 0-.4-.12z" transform="translate(-.55 -.55)"/></svg>