<svg data-name="Layer 1" xmlns="http://www.w3.org/2000/svg" viewBox="0 0 16.58 28.43"><title>layer14</title><path class="cls-1" d="M8.35 27.93h-.06c-1.68 0-3.72-.24-4.47-.92a.81.81 0 0 1-.3-.57v-5.08a.2.2 0 0 1 0-.1.22.22 0 0 1 .07-.08h.2a16.83 16.83 0 0 0 4.46.64h.07a16.83 16.83 0 0 0 4.45-.64h.21a.22.22 0 0 1 .07.08.2.2 0 0 1 0 .1v5a.81.81 0 0 1-.3.57c-.68.76-2.72 1-4.4 1zm0-.43c2 0 3.61-.32 4.13-.8a.42.42 0 0 0 .11-.13.39.39 0 0 0 0-.16v-4.76a16.72 16.72 0 0 1-4.32.57 17 17 0 0 1-4.29-.57v4.76a.39.39 0 0 0 0 .16.42.42 0 0 0 .11.13c.5.48 2.18.8 4.13.8z"/><path class="cls-2" d="M12.88 21.58h-.09l-.1-.08a.21.21 0 0 1 0-.08.19.19 0 0 1 0-.08c1-6.64 3-19.29 3-19.61v-.8H1v.8c0 .33 2 13 3 19.61a.19.19 0 0 1 0 .08.21.21 0 0 1 0 .08l-.07.06h-.24l-.09-.06h-.1a.19.19 0 0 1 0-.08c-.11-.79-3-19.24-3-19.64A7.77 7.77 0 0 1 .5.71a.2.2 0 0 1 0-.08L.56.56h15.29a.25.25 0 0 1 .16.06.21.21 0 0 1 .07.15v.99c0 .41-2.85 18.85-3 19.64a.21.21 0 0 1-.07.12.25.25 0 0 1-.13.06z"/><path class="cls-3" d="M8.5 26.85h-.19a14.64 14.64 0 0 1-2.61-.22h-.09l-.11-.13a.2.2 0 0 1 0-.08.2.2 0 0 1 0-.09l.38-2.21a.21.21 0 0 1 .08-.13.25.25 0 0 1 .15-.05h4.39a.25.25 0 0 1 .15.05.21.21 0 0 1 .08.13l.37 2.21a.2.2 0 0 1 0 .08.21.21 0 0 1 0 .08l-.07.06h-.09a15.21 15.21 0 0 1-2.44.3zm-.18-.43a13.36 13.36 0 0 0 2.31-.18l-.31-1.81h-4l-.31 1.81a13.22 13.22 0 0 0 2.3.17z"/><path class="cls-4" d="M15.86 1.96H.77a.24.24 0 0 1-.14-.07.2.2 0 0 1 0-.28.24.24 0 0 1 .14-.11h15.08a.25.25 0 0 1 .14.07.2.2 0 0 1 0 .28.25.25 0 0 1-.14.07z"/><path class="cls-5" d="M8.34 1.96a.25.25 0 0 1-.16-.06.21.21 0 0 1-.07-.15v-1A.21.21 0 0 1 8.18.6a.25.25 0 0 1 .33 0 .21.21 0 0 1 .07.15v1a.21.21 0 0 1-.08.15.25.25 0 0 1-.16.06z"/><path class="cls-6" d="M8.3 1.96a.25.25 0 0 1-.17-.06.21.21 0 0 1-.07-.15v-1a.21.21 0 0 1 .08-.13.26.26 0 0 1 .31 0 .21.21 0 0 1 .05.1v1a.21.21 0 0 1 0 .17.25.25 0 0 1-.2.07z"/><path class="cls-7" d="M9.58 1.96h-.17a.22.22 0 0 1-.06-.07.2.2 0 0 1 0-.09v-1a.21.21 0 0 1 .07-.15.25.25 0 0 1 .33 0 .21.21 0 0 1 .07.15v1a.21.21 0 0 1-.06.15.25.25 0 0 1-.18.01z"/><path class="cls-8" d="M7.05 1.96h-.18a.22.22 0 0 1-.06-.07.2.2 0 0 1 0-.09v-1a.21.21 0 0 1 .07-.15.25.25 0 0 1 .33 0 .21.21 0 0 1 .07.15v1a.21.21 0 0 1-.06.15.25.25 0 0 1-.17.01z"/><path class="cls-9" d="M10.82 1.96h-.18a.22.22 0 0 1-.05-.07.2.2 0 0 1 0-.09v-1a.21.21 0 0 1 .07-.15.25.25 0 0 1 .33 0 .21.21 0 0 1 .07.15v1a.21.21 0 0 1-.06.15.25.25 0 0 1-.18.01z"/><path class="cls-10" d="M5.81 1.96h-.19a.22.22 0 0 1-.06-.07.2.2 0 0 1 0-.09v-1a.21.21 0 0 1 .07-.15.25.25 0 0 1 .33 0 .21.21 0 0 1 .07.15v1a.21.21 0 0 1-.06.15.25.25 0 0 1-.16.01z"/><path class="cls-11" d="M12.07 1.96a.25.25 0 0 1-.17-.06.21.21 0 0 1-.07-.15v-1A.21.21 0 0 1 11.9.6a.25.25 0 0 1 .33 0 .21.21 0 0 1 .07.15v1a.21.21 0 0 1-.07.15.25.25 0 0 1-.16.06z"/><path class="cls-12" d="M4.57 1.96a.25.25 0 0 1-.17-.06.21.21 0 0 1-.07-.15v-1A.21.21 0 0 1 4.4.6a.25.25 0 0 1 .33 0 .21.21 0 0 1 .07.15v1a.21.21 0 0 1-.07.15.25.25 0 0 1-.16.06z"/><path class="cls-13" d="M13.31 1.96a.25.25 0 0 1-.16-.07.21.21 0 0 1-.07-.15v-1a.21.21 0 0 1 .07-.15.25.25 0 0 1 .33 0 .21.21 0 0 1 .07.15v1a.2.2 0 0 1 0 .08.22.22 0 0 1-.05.08h-.08z"/><path class="cls-14" d="M3.32 1.96a.25.25 0 0 1-.16-.06.21.21 0 0 1-.07-.15v-1A.21.21 0 0 1 3.16.6a.25.25 0 0 1 .33 0 .21.21 0 0 1 .07.15v1a.21.21 0 0 1-.06.15.25.25 0 0 1-.18.06z"/><path class="cls-15" d="M14.56 1.96a.25.25 0 0 1-.15-.07.21.21 0 0 1-.06-.15v-1a.21.21 0 0 1 .07-.15.25.25 0 0 1 .33 0 .21.21 0 0 1 .07.15v1a.2.2 0 0 1 0 .09.22.22 0 0 1-.06.07h-.08z"/><path class="cls-16" d="M2.08 1.96a.25.25 0 0 1-.16-.06.21.21 0 0 1-.07-.15v-1A.21.21 0 0 1 1.92.6a.25.25 0 0 1 .33 0 .21.21 0 0 1 .07.15v1a.21.21 0 0 1-.07.15.25.25 0 0 1-.17.06z"/><path class="cls-17" d="M8.34 4.59a15.77 15.77 0 0 1-5.65-1.25.22.22 0 0 1-.1-.12.2.2 0 0 1 0-.15.23.23 0 0 1 .11-.11.26.26 0 0 1 .16 0c4.32 1.63 6.63 1.64 10.71 0a.26.26 0 0 1 .17 0 .23.23 0 0 1 .12.11.2.2 0 0 1 0 .15.22.22 0 0 1-.1.12 14.42 14.42 0 0 1-5.42 1.25z"/></svg>