<svg data-name="Layer 1" xmlns="http://www.w3.org/2000/svg" viewBox="0 0 12.57 30.26"><title>layer12</title><path class="cls-1" d="M6.91 29.76a24.44 24.44 0 0 1-4.65-.49.29.29 0 0 1-.14-.09.2.2 0 0 1 0-.14V10.36a3.37 3.37 0 0 1 .61-1.93 4.58 4.58 0 0 1 1.66-1.47.34.34 0 0 1 .16 0h5a.34.34 0 0 1 .16 0 4.59 4.59 0 0 1 1.7 1.44 3.38 3.38 0 0 1 .63 1.91v18.73a.2.2 0 0 1-.06.15.31.31 0 0 1-.17.08 28.73 28.73 0 0 1-4.9.49zm-4.29-.89a22.55 22.55 0 0 0 8.85 0V10.3a3 3 0 0 0-.54-1.66A4 4 0 0 0 9.5 7.38H4.61a4 4 0 0 0-1.47 1.28 3 3 0 0 0-.52 1.68z"/><path class="cls-2" d="M9.31 6.7H4.44a.34.34 0 0 1-.2-.07.21.21 0 0 1-.08-.13V3.69a.21.21 0 0 1 .08-.19.34.34 0 0 1 .2 0h4.87a.34.34 0 0 1 .19 0 .21.21 0 0 1 .08.16V6.5a.21.21 0 0 1-.09.16.34.34 0 0 1-.18.04zm-4.58-.46h4.32V3.91H4.73z"/><path class="cls-3" d="M8.7 3.91a.34.34 0 0 1-.2-.06.21.21 0 0 1-.09-.16V1.35A35.6 35.6 0 0 0 4.5.96a27.17 27.17 0 0 0-3.57.39H.66l-.09-.06a.22.22 0 0 1-.07-.1.19.19 0 0 1 0-.1.21.21 0 0 1 0-.09L.58.93h.11A27.33 27.33 0 0 1 4.43.5a33.48 33.48 0 0 1 4.32.44.31.31 0 0 1 .17.08.2.2 0 0 1 .06.15v2.52a.21.21 0 0 1-.09.16.34.34 0 0 1-.19.06z"/><path class="cls-4" d="M5.17 3.91a.34.34 0 0 1-.21-.07.21.21 0 0 1-.09-.16V.76a.19.19 0 0 1 0-.09.23.23 0 0 1 .06-.07h.4a.23.23 0 0 1 .06.07.19.19 0 0 1 0 .09v2.93a.21.21 0 0 1-.08.16.33.33 0 0 1-.14.06z"/><path class="cls-5" d="M9.09 23.5h-4.1a.34.34 0 0 1-.2-.07.21.21 0 0 1-.09-.16v-8.26a.21.21 0 0 1 .09-.16.34.34 0 0 1 .2-.07h4.09a.34.34 0 0 1 .21.07.21.21 0 0 1 .09.16v8.23a.21.21 0 0 1-.09.16.34.34 0 0 1-.2.1zm-3.81-.46H8.8v-7.8H5.28z"/></svg>