<svg id="Layer_1" data-name="Layer 1" xmlns="http://www.w3.org/2000/svg" xmlns:xlink="http://www.w3.org/1999/xlink" viewBox="0 0 18.58 29.84"><defs><style>.cls-1,.cls-10,.cls-11,.cls-12,.cls-13,.cls-2,.cls-3,.cls-4,.cls-5,.cls-6,.cls-7,.cls-8,.cls-9{stroke:#ffa3c7;stroke-width:.58px}.cls-1{fill:url(#linear-gradient)}.cls-2{fill:url(#linear-gradient-2)}.cls-3{fill:url(#linear-gradient-3)}.cls-4{fill:url(#linear-gradient-4)}.cls-5{fill:url(#linear-gradient-5)}.cls-6{fill:url(#linear-gradient-6)}.cls-7{fill:url(#linear-gradient-7)}.cls-8{fill:url(#linear-gradient-8)}.cls-9{fill:url(#linear-gradient-9)}.cls-10{fill:url(#linear-gradient-10)}.cls-11{fill:url(#linear-gradient-11)}.cls-12{fill:url(#linear-gradient-12)}.cls-13{fill:url(#linear-gradient-13)}</style><linearGradient id="linear-gradient" x1="4.35" y1="1.11" x2="3.79" y2="31.75" gradientTransform="matrix(1 0 0 -1 0 32.75)" gradientUnits="userSpaceOnUse"><stop offset="0" stop-color="#0170ca"/><stop offset=".98" stop-color="#ec449a"/></linearGradient><linearGradient id="linear-gradient-2" x1="5.98" y1="-102.8" x2="2.65" y2="26.32" xlink:href="#linear-gradient"/><linearGradient id="linear-gradient-3" x1="2.85" y1="-22.36" x2="2.12" y2="23.79" xlink:href="#linear-gradient"/><linearGradient id="linear-gradient-4" x1="4.43" y1="-15.64" x2="4.02" y2="22.83" xlink:href="#linear-gradient"/><linearGradient id="linear-gradient-5" x1="20.99" y1="-288.42" x2="15.33" y2="31.26" xlink:href="#linear-gradient"/><linearGradient id="linear-gradient-6" x1="17.91" y1="-124.53" x2="13.74" y2="30.74" xlink:href="#linear-gradient"/><linearGradient id="linear-gradient-7" x1="13.67" y1="-14.81" x2="12.98" y2="27.63" xlink:href="#linear-gradient"/><linearGradient id="linear-gradient-8" x1="16.09" y1="-20.46" x2="15.67" y2="26.38" xlink:href="#linear-gradient"/><linearGradient id="linear-gradient-9" x1="48.48" y1="-1241.12" x2="9.37" y2="25.86" xlink:href="#linear-gradient"/><linearGradient id="linear-gradient-10" x1="19.3" y1="-325.03" x2="13.06" y2="9.92" xlink:href="#linear-gradient"/><linearGradient id="linear-gradient-11" x1="4.6" y1="-50.4" x2="1.64" y2="10.61" xlink:href="#linear-gradient"/><linearGradient id="linear-gradient-12" x1="118.64" y1="-344.81" x2="1.81" y2="20.2" xlink:href="#linear-gradient"/><linearGradient id="linear-gradient-13" x1="5.14" y1="-41.61" x2="2.78" y2="12.8" xlink:href="#linear-gradient"/></defs><title>layer15</title><path class="cls-1" d="M5.81 10.8H5.4a5.43 5.43 0 0 1-.6-.09h-.17l-.23-.06a6.12 6.12 0 0 1-.94-.32l-.18-.08-.28-.14-.64-.31h-.07a3 3 0 0 1-.71-.5l-.12-.12A1.68 1.68 0 0 1 1 7.94a2.14 2.14 0 0 1 .67-1.61 2.57 2.57 0 0 1 1.71-.71c1.46 0 2.06 1.64 2.35 2.45a5.56 5.56 0 0 0 .64 1.07c.39.58.72 1.08.37 1.43a1.26 1.26 0 0 1-.43.2 1.32 1.32 0 0 1-.5.03zM3.38 6.09A2 2 0 0 0 2 6.65a1.71 1.71 0 0 0-.5 1.27 1.23 1.23 0 0 0 .34.89l.09.09a3 3 0 0 0 .67.46h.07l1 .48a5.76 5.76 0 0 0 .87.29h.35a5 5 0 0 0 .56.09h.25c.43 0 .62-.06.67-.1A2.54 2.54 0 0 0 6 9.36a5.85 5.85 0 0 1-.67-1.19c-.46-1.04-.98-2.08-1.95-2.08z" transform="translate(-.71 -.71)"/><path class="cls-2" d="M2.15 8.82L2 8.8v-.06a1.1 1.1 0 0 1-.29-.8 1.57 1.57 0 0 1 .47-1.17 1.88 1.88 0 0 1 1.24-.53h.21a.24.24 0 0 1 .07.08.21.21 0 0 1 0 .2.24.24 0 0 1-.07.08h-.25a1.35 1.35 0 0 0-.89.38 1.13 1.13 0 0 0-.34.84.67.67 0 0 0 .19.5.23.23 0 0 1 .06.07.21.21 0 0 1 0 .18.23.23 0 0 1-.06.07l-.09.06z" transform="translate(-.71 -.71)"/><path class="cls-3" d="M2.48 9.81a.27.27 0 0 1-.13 0 3.34 3.34 0 0 1-.76-.53.22.22 0 0 1 0-.16.23.23 0 0 1 .08-.14.27.27 0 0 1 .16-.06.27.27 0 0 1 .17 0l.17.14a4.21 4.21 0 0 0 .47.31.23.23 0 0 1 .11.14.22.22 0 0 1 0 .17.24.24 0 0 1-.08.08z" transform="translate(-.71 -.71)"/><path class="cls-4" d="M4.46 10.63h-.07a6.11 6.11 0 0 1-.94-.32.24.24 0 0 1-.13-.14.22.22 0 0 1 0-.18.25.25 0 0 1 .15-.12.28.28 0 0 1 .2 0 7.7 7.7 0 0 0 .87.29.25.25 0 0 1 .15.11.22.22 0 0 1 0 .17.23.23 0 0 1-.1.13.27.27 0 0 1-.13.06z" transform="translate(-.71 -.71)"/><path class="cls-5" d="M17.76 7.39h-.17a5.84 5.84 0 0 1-.73-.07h-.47a8 8 0 0 1-1.57-.49l-.22-.1-.23-.12c-.34-.16-.67-.31-1-.48l-.33-.19a3 3 0 0 1-.55-.42l-.16-.13a2 2 0 0 1-.56-1.44A2.55 2.55 0 0 1 12 2.79a2.73 2.73 0 0 1 .62-.91 3 3 0 0 1 1-.63A3.25 3.25 0 0 1 14.71 1c1.78 0 2.52 2 2.87 3a7 7 0 0 0 .78 1.38c.48.7.88 1.32.47 1.73a1.57 1.57 0 0 1-1.07.28zm-3-5.93a2.62 2.62 0 0 0-1.76.73 2.19 2.19 0 0 0-.67 1.64A1.63 1.63 0 0 0 12.74 5l.11.11a2.64 2.64 0 0 0 .48.37l.32.2c.28.16.6.31.92.46l.23.11.19.08a7.53 7.53 0 0 0 1.48.47h.43a5.23 5.23 0 0 0 .67.07 1.45 1.45 0 0 0 .88-.15c.15-.15-.23-.72-.53-1.17a7.35 7.35 0 0 1-.86-1.47c-.44-1.24-1.06-2.62-2.35-2.62z" transform="translate(-.71 -.71)"/><path class="cls-6" d="M13.17 4.87h-.11L13 4.79a1.33 1.33 0 0 1-.37-1 1.91 1.91 0 0 1 .58-1.43 2.28 2.28 0 0 1 1.52-.64.26.26 0 0 1 .15.08.22.22 0 0 1 0 .3.26.26 0 0 1-.15.08 1.76 1.76 0 0 0-1.16.51 1.47 1.47 0 0 0-.43 1.11.89.89 0 0 0 .25.66.22.22 0 0 1 .06.12.22.22 0 0 1 0 .13.24.24 0 0 1-.09.1.27.27 0 0 1-.19.06z" transform="translate(-.71 -.71)"/><path class="cls-7" d="M13.2 5.9a.26.26 0 0 1-.13-.06 3.07 3.07 0 0 1-.56-.42.22.22 0 0 1 0-.16.23.23 0 0 1 .08-.14.27.27 0 0 1 .16-.06.27.27 0 0 1 .17 0 4.48 4.48 0 0 0 .48.37.24.24 0 0 1 .13.12.21.21 0 0 1 0 .16.23.23 0 0 1-.11.13.27.27 0 0 1-.22.06z" transform="translate(-.71 -.71)"/><path class="cls-8" d="M16.42 7.23h-.06a8 8 0 0 1-1.57-.49.24.24 0 0 1-.13-.13.21.21 0 0 1 0-.18.25.25 0 0 1 .14-.12.27.27 0 0 1 .19 0 9.51 9.51 0 0 0 1.47.46h.09l.07.06a.22.22 0 0 1 0 .08.21.21 0 0 1 0 .09.21.21 0 0 1 0 .08l-.06.07h-.19z" transform="translate(-.71 -.71)"/><path class="cls-9" d="M9.61 30.26a8.68 8.68 0 0 1-5.67-2.1 7.28 7.28 0 0 1-2.53-5.1V9a.21.21 0 0 1 0-.13.25.25 0 0 1 .12-.08.28.28 0 0 1 .15 0 .26.26 0 0 1 .13.07l.09.09L2 9a3.22 3.22 0 0 0 .58.39h.07a8.25 8.25 0 0 0 .81.39l.17.07a5.69 5.69 0 0 0 .87.29h.35a5 5 0 0 0 .56.09h.25a.27.27 0 0 1 .17.07.23.23 0 0 1 .07.16v12.23a2.79 2.79 0 0 0 .93 2.06 3.39 3.39 0 0 0 4.5 0 2.79 2.79 0 0 0 .93-2.06V5.13a.22.22 0 0 1 0-.13.25.25 0 0 1 .12-.08.28.28 0 0 1 .15 0 .26.26 0 0 1 .13.07l.11.11a2.64 2.64 0 0 0 .48.37l.1.07.22.13a9 9 0 0 0 1.15.56l.2.09a7.53 7.53 0 0 0 1.48.47h.43a5.23 5.23 0 0 0 .67.07.26.26 0 0 1 .17.07.22.22 0 0 1 .07.16v15.6A7.27 7.27 0 0 1 15.43 28a8.7 8.7 0 0 1-5.82 2.26zM1.91 9.51V23a6.84 6.84 0 0 0 2.37 4.8 8.14 8.14 0 0 0 10.79-.13 6.82 6.82 0 0 0 2.26-5V7.37a2.74 2.74 0 0 1-.49-.06h-.47a8 8 0 0 1-1.57-.49l-.22-.1a9.26 9.26 0 0 1-1.2-.72l-.2-.12-.18-.09-.23-.15v17a3.12 3.12 0 0 1-.25 1.36 3.37 3.37 0 0 1-.8 1.09 3.73 3.73 0 0 1-1.2.73 4 4 0 0 1-2.82 0 3.73 3.73 0 0 1-1.2-.73A3.37 3.37 0 0 1 5.7 24a3.12 3.12 0 0 1-.28-1.29V10.8a5.38 5.38 0 0 1-.6-.09h-.15l-.27-.06a6 6 0 0 1-.93-.31l-.18-.08a7.61 7.61 0 0 1-.9-.44h-.07a3.45 3.45 0 0 1-.41-.31z" transform="translate(-.71 -.71)"/><path class="cls-10" d="M9.71 29a.26.26 0 0 1-.14-.08.22.22 0 0 1 0-.29.26.26 0 0 1 .14-.08 6.86 6.86 0 0 0 4.59-1.77 5.74 5.74 0 0 0 1.9-4.21.21.21 0 0 1 0-.1.23.23 0 0 1 .05-.09l.09-.06h.22l.09.06a.22.22 0 0 1 .05.09.21.21 0 0 1 0 .1 6.18 6.18 0 0 1-2.05 4.53A7.39 7.39 0 0 1 9.71 29z" transform="translate(-.71 -.71)"/><path class="cls-11" d="M1.67 23.25a.27.27 0 0 1-.17-.05.23.23 0 0 1-.09-.14v-.78a.22.22 0 0 1 .07-.16.27.27 0 0 1 .36 0 .22.22 0 0 1 .07.16V23a.22.22 0 0 1-.07.16.27.27 0 0 1-.17.07z" transform="translate(-.71 -.71)"/><path class="cls-12" d="M2.8 19.68a.27.27 0 0 1-.17-.07.22.22 0 0 1-.07-.16v-7.62a.23.23 0 0 1 .09-.14.27.27 0 0 1 .33 0 .23.23 0 0 1 .09.14v7.62a.22.22 0 0 1-.08.16.27.27 0 0 1-.19.07z" transform="translate(-.71 -.71)"/><path class="cls-13" d="M2.8 20.95a.27.27 0 0 1-.17-.07.22.22 0 0 1-.07-.16v-.67a.23.23 0 0 1 .09-.14.27.27 0 0 1 .33 0 .23.23 0 0 1 .09.14v.67a.22.22 0 0 1-.08.16.27.27 0 0 1-.19.07z" transform="translate(-.71 -.71)"/></svg>