<svg data-name="Layer 1" xmlns="http://www.w3.org/2000/svg" viewBox="0 0 29.48 24.69"><title>layer8</title><path class="cls-1" d="M24.49 23.95a2 2 0 0 1-.39 0 14.23 14.23 0 0 1-4.18-1.55 2.12 2.12 0 0 1-.68-.66 1.95 1.95 0 0 1-.26-1.7 2 2 0 0 1 .47-.78 8.44 8.44 0 0 0 2.29-5.83v-.54a8.63 8.63 0 0 0-.78-3.15 1.49 1.49 0 0 0-.39-.51 1.66 1.66 0 0 0-.59-.32 1.7 1.7 0 0 0-.65-.07 1.67 1.67 0 0 0-.59.2 8.42 8.42 0 0 1-7.84 0 1.66 1.66 0 0 0-.65-.19 1.69 1.69 0 0 0-.68.09 1.66 1.66 0 0 0-.59.32 1.49 1.49 0 0 0-.39.51 8.6 8.6 0 0 0-.85 3.13v.54A8.44 8.44 0 0 0 10 19.29a2 2 0 0 1 .47.78 1.89 1.89 0 0 1 .06.89 1.91 1.91 0 0 1-.35.81 2.12 2.12 0 0 1-.69.6 14.18 14.18 0 0 1-4.19 1.54 2.23 2.23 0 0 1-1.15-.17 2 2 0 0 1-.91-.73 12.73 12.73 0 0 1-2.5-7.59C.74 5.34 8.01.74 14.74.74a14.45 14.45 0 0 1 5.23.95 13.47 13.47 0 0 1 4.41 2.75 14.61 14.61 0 0 1 4.36 11 12.74 12.74 0 0 1-2.53 7.61 2 2 0 0 1-.74.64 2.27 2.27 0 0 1-.98.26zm-5-15.48a2.19 2.19 0 0 1 .64.1 2.11 2.11 0 0 1 .75.41 1.89 1.89 0 0 1 .49.66 9 9 0 0 1 .8 3.26v.54a8.83 8.83 0 0 1-2.43 6.1 1.62 1.62 0 0 0-.38.63 1.53 1.53 0 0 0 .22 1.37 1.7 1.7 0 0 0 .55.49 13.72 13.72 0 0 0 4 1.5 1.76 1.76 0 0 0 .95-.11 1.58 1.58 0 0 0 .71-.58 12.37 12.37 0 0 0 2.46-7.38 14.2 14.2 0 0 0-4.18-10.72 13 13 0 0 0-4.26-2.66 14 14 0 0 0-5.07-.94 14 14 0 0 0-5 .91 13 13 0 0 0-4.31 2.69 14.25 14.25 0 0 0-4.25 10.69 12.36 12.36 0 0 0 2.43 7.39 1.58 1.58 0 0 0 .71.58 1.76 1.76 0 0 0 .95.11 13.72 13.72 0 0 0 4.05-1.49 1.69 1.69 0 0 0 .54-.49 1.64 1.64 0 0 0 .22-1.37 1.62 1.62 0 0 0-.38-.64 8.82 8.82 0 0 1-2.35-6.11v-.54a9 9 0 0 1 .81-3.25 1.89 1.89 0 0 1 .49-.66 2.11 2.11 0 0 1 .75-.41 2.18 2.18 0 0 1 .84-.09 2.13 2.13 0 0 1 .8.24 7.95 7.95 0 0 0 7.39 0 2.14 2.14 0 0 1 1.01-.23z"/><path class="cls-2" d="M14.74 19.89a2.14 2.14 0 0 1-1.13-.28 1.88 1.88 0 0 1-.77-.81 1.68 1.68 0 0 1-.1-1.06 1.77 1.77 0 0 1 .53-.95 2.05 2.05 0 0 1 1-.52 2.17 2.17 0 0 1 1.16.09 2 2 0 0 1 .91.67 1.73 1.73 0 0 1-.21 2.29 2 2 0 0 1-1.39.57zm0-3.22a1.67 1.67 0 0 0-.88.21 1.47 1.47 0 0 0-.6.62 1.31 1.31 0 0 0-.12.83 1.38 1.38 0 0 0 .41.74 1.6 1.6 0 0 0 .8.41 1.69 1.69 0 0 0 .91-.07 1.53 1.53 0 0 0 .71-.52 1.34 1.34 0 0 0 .26-.8 1.28 1.28 0 0 0-.1-.54 1.38 1.38 0 0 0-.32-.46 1.53 1.53 0 0 0-.49-.32 1.64 1.64 0 0 0-.58-.12z"/><path class="cls-3" d="M14.74 22.88c-2.7 0-5-3.24-5-3.38a.19.19 0 0 1 0-.15.2.2 0 0 1 .1-.13.24.24 0 0 1 .16 0 .22.22 0 0 1 .14.09s2.23 3.22 4.69 3.22 4.66-3.15 4.69-3.18a.2.2 0 0 1 .05-.07h.27l.07.06a.19.19 0 0 1 0 .08.19.19 0 0 1 0 .09.2.2 0 0 1 0 .08c-.17.06-2.48 3.29-5.17 3.29z"/></svg>