<svg id="Layer_1" data-name="Layer 1" xmlns="http://www.w3.org/2000/svg" xmlns:xlink="http://www.w3.org/1999/xlink" viewBox="0 0 29.13 26.31"><defs><style>.cls-1,.cls-2,.cls-3,.cls-4,.cls-5,.cls-6{stroke:#ffa3c7;stroke-width:1.13px}.cls-1{fill:url(#linear-gradient)}.cls-2{fill:url(#linear-gradient-2)}.cls-3{fill:url(#linear-gradient-3)}.cls-4{fill:url(#linear-gradient-4)}.cls-5{fill:url(#linear-gradient-5)}.cls-6{fill:url(#linear-gradient-6)}</style><linearGradient id="linear-gradient" x1="8.93" y1="-1.19" x2="8.67" y2="29.65" gradientTransform="matrix(1 0 0 -1 0 28.75)" gradientUnits="userSpaceOnUse"><stop offset="0" stop-color="#0170ca"/><stop offset=".98" stop-color="#ec449a"/></linearGradient><linearGradient id="linear-gradient-2" x1="15.03" y1="-52.19" x2="14.49" y2="13.16" xlink:href="#linear-gradient"/><linearGradient id="linear-gradient-3" x1="25.84" y1="-405.84" x2="21.89" y2="52.77" xlink:href="#linear-gradient"/><linearGradient id="linear-gradient-4" x1="30.09" y1="-760.94" x2="21.59" y2="77.61" xlink:href="#linear-gradient"/><linearGradient id="linear-gradient-5" x1="22.56" y1="-46.34" x2="22" y2="19.07" xlink:href="#linear-gradient"/><linearGradient id="linear-gradient-6" x1="21.14" y1="-247.37" x2="19.04" y2="29.85" xlink:href="#linear-gradient"/></defs><title>layer10</title><path class="cls-1" d="M7.39 26.18h-.12a7.12 7.12 0 0 1-4.51-2.05 5.89 5.89 0 0 1 .16-8.56 7.17 7.17 0 0 1 4.58-1.92 7.25 7.25 0 0 1 3.55 1 6.43 6.43 0 0 1 2.47 2.53h1.83a1.42 1.42 0 0 1 .95.38 1.19 1.19 0 0 1 .38.88v3.27a1.15 1.15 0 0 1-.11.47 1.25 1.25 0 0 1-.3.4 1.38 1.38 0 0 1-.44.26 1.47 1.47 0 0 1-.52.09h-1.83a6.48 6.48 0 0 1-2.52 2.41 7.27 7.27 0 0 1-3.57.84zm0-12.18A6.65 6.65 0 0 0 3 15.67a5.76 5.76 0 0 0-1.81 3A5.4 5.4 0 0 0 1.44 22a6 6 0 0 0 2.3 2.67 6.84 6.84 0 0 0 3.54 1.05h.12a6.79 6.79 0 0 0 3.33-.86 6 6 0 0 0 2.34-2.32.21.21 0 0 1 .08-.08.24.24 0 0 1 .12 0h2a1 1 0 0 0 .35-.06.92.92 0 0 0 .3-.18.84.84 0 0 0 .2-.27.77.77 0 0 0 .07-.32l.06-3.27a.77.77 0 0 0-.06-.32.83.83 0 0 0-.19-.27.92.92 0 0 0-.29-.19 1 1 0 0 0-.35-.07h-2a.24.24 0 0 1-.12 0 .21.21 0 0 1-.08-.09A6 6 0 0 0 10.85 15a6.78 6.78 0 0 0-3.37-1zm0 9.93h-.08a4.72 4.72 0 0 1-2.44-.74 4.14 4.14 0 0 1-1.57-1.81A3.73 3.73 0 0 1 3.09 19a4 4 0 0 1 1.25-2 4.43 4.43 0 0 1 1.44-.86 4.74 4.74 0 0 1 1.69-.28 4.64 4.64 0 0 1 3.1 1.24 3.82 3.82 0 0 1-.07 5.7A4.64 4.64 0 0 1 7.4 24zm0-7.7a4.13 4.13 0 0 0-2.75 1 3.58 3.58 0 0 0-1.12 1.85 3.36 3.36 0 0 0 .19 2.1 3.72 3.72 0 0 0 1.43 1.66 4.25 4.25 0 0 0 2.19.66 4.21 4.21 0 0 0 1.53-.25 3.93 3.93 0 0 0 1.3-.78 3.58 3.58 0 0 0 1.12-1.85 3.36 3.36 0 0 0-.19-2.11 3.72 3.72 0 0 0-1.43-1.66 4.25 4.25 0 0 0-2.2-.66z" transform="translate(-.43 -.43)"/><path class="cls-2" d="M14.49 20.61a.66.66 0 0 1-.43-.18.55.55 0 0 1-.17-.4.57.57 0 0 1 .2-.39.68.68 0 0 1 .44-.16.66.66 0 0 1 .45.17.54.54 0 0 1 0 .82.66.66 0 0 1-.45.17zm0-.75a.19.19 0 0 0-.13 0 .16.16 0 0 0 0 .24.19.19 0 0 0 .13 0 .23.23 0 0 0 .13 0v-.06a.23.23 0 0 0 0-.13.17.17 0 0 0 0-.06h-.13z" transform="translate(-.43 -.43)"/><path class="cls-3" d="M22.16 11.35h-.08a4.72 4.72 0 0 1-2.44-.73 4.13 4.13 0 0 1-1.59-1.84 3.73 3.73 0 0 1-.2-2.34 4 4 0 0 1 1.25-2 4.4 4.4 0 0 1 1.45-.86 4.73 4.73 0 0 1 4.13.42 4.13 4.13 0 0 1 1.58 1.84 3.73 3.73 0 0 1 .2 2.33 4 4 0 0 1-1.24 2 4.59 4.59 0 0 1-3.06 1.18zm-.07-.41a4.2 4.2 0 0 0 1.53-.25 3.93 3.93 0 0 0 1.3-.78 3.52 3.52 0 0 0 1.18-2.18 3.38 3.38 0 0 0-.61-2.38 3.94 3.94 0 0 0-2.12-1.49 4.32 4.32 0 0 0-2.67.08 3.88 3.88 0 0 0-2 1.61A3.36 3.36 0 0 0 18.25 8a3.57 3.57 0 0 0 1.34 2.12 4.19 4.19 0 0 0 2.5.82z" transform="translate(-.43 -.43)"/><path class="cls-4" d="M23.79 15.81l-3.57-.05a1.47 1.47 0 0 1-.52-.1 1.37 1.37 0 0 1-.44-.28A1.23 1.23 0 0 1 19 15a1.15 1.15 0 0 1-.09-.48v-1.68a6.71 6.71 0 0 1-2.37-2 6 6 0 0 1-1.16-2.72 5.79 5.79 0 0 1 .31-2.91 6.25 6.25 0 0 1 1.71-2.46 7.07 7.07 0 0 1 3.54-1.65 7.42 7.42 0 0 1 4 .42 6.71 6.71 0 0 1 3 2.36 5.89 5.89 0 0 1 0 6.76 6.64 6.64 0 0 1-2.76 2.27v1.68a1.15 1.15 0 0 1-.11.47 1.24 1.24 0 0 1-.3.4 1.38 1.38 0 0 1-.44.26 1.47 1.47 0 0 1-.54.09zm-1.64-14.4a6.72 6.72 0 0 0-4.48 1.69 5.62 5.62 0 0 0-1.9 4.08 5.45 5.45 0 0 0 .9 3.12 6.19 6.19 0 0 0 2.58 2.2.22.22 0 0 1 .09.08.19.19 0 0 1 0 .11v1.81a.79.79 0 0 0 .25.59 1 1 0 0 0 .63.26l3.57.05a1 1 0 0 0 .35-.06.91.91 0 0 0 .3-.18.84.84 0 0 0 .2-.27.77.77 0 0 0 .08-.32v-1.81a.2.2 0 0 1 0-.11.22.22 0 0 1 .09-.07 6.19 6.19 0 0 0 3-2.71 5.42 5.42 0 0 0 .52-3.83 5.81 5.81 0 0 0-2.19-3.3 6.79 6.79 0 0 0-4-1.34zm0 9.92h-.08a4.72 4.72 0 0 1-2.44-.73 4.13 4.13 0 0 1-1.59-1.84 3.73 3.73 0 0 1-.2-2.34 4 4 0 0 1 1.25-2 4.4 4.4 0 0 1 1.45-.86 4.73 4.73 0 0 1 4.14.44 4.13 4.13 0 0 1 1.58 1.8 3.73 3.73 0 0 1 .2 2.33 4 4 0 0 1-1.24 2 4.59 4.59 0 0 1-3.06 1.17zm-.07-.41h.07a4.18 4.18 0 0 0 2.79-1.05 3.49 3.49 0 0 0 1.18-2.53 3.41 3.41 0 0 0-.64-2A3.9 3.9 0 0 0 23.72 4a4.31 4.31 0 0 0-2.29-.23 4.11 4.11 0 0 0-2 1 3.55 3.55 0 0 0-1.11 1.84 3.34 3.34 0 0 0 .19 2.1 3.7 3.7 0 0 0 1.43 1.65 4.23 4.23 0 0 0 2.15.56z" transform="translate(-.43 -.43)"/><path class="cls-5" d="M22 14.72a.66.66 0 0 1-.45-.17.54.54 0 0 1 0-.82.67.67 0 0 1 .89 0 .54.54 0 0 1 0 .82.66.66 0 0 1-.44.17zm0-.41a.19.19 0 0 0 .13 0 .15.15 0 0 0 0-.23A.19.19 0 0 0 22 14h-.06v.05a.15.15 0 0 0 0 .06.16.16 0 0 0 .05.11.19.19 0 0 0 .12.05z" transform="translate(-.43 -.43)"/><path class="cls-6" d="M19.71 20.27h-.1l-3.28-.09a.23.23 0 0 1-.14-.07.19.19 0 0 1 0-.27.23.23 0 0 1 .14-.07l3.3.09a2.2 2.2 0 0 0 .79-.12 2.06 2.06 0 0 0 .67-.39 1.81 1.81 0 0 0 .64-1.35v-2.45a.19.19 0 0 1 0-.08v-.07h.43v.07a.19.19 0 0 1 0 .08V18a2.18 2.18 0 0 1-.74 1.58 2.6 2.6 0 0 1-1.74.65z" transform="translate(-.43 -.43)"/></svg>