<svg data-name="Capa 1" xmlns="http://www.w3.org/2000/svg" viewBox="0 0 450 512"><title>like1</title><path d="M438.51 317A45 45 0 0 0 405 242h-87.34c8.65-26.25 12.34-61.08 12.34-76v-15a60.07 60.07 0 0 0-60-60h-15a15 15 0 0 0-14.55 11.36l-8.17 32.69c-11.45 45.78-47.8 96.29-85.42 105.47A45.06 45.06 0 0 0 105 212H15a15 15 0 0 0-15 15v270a15 15 0 0 0 15 15h90a45 45 0 0 0 40.62-25.65l51.54 17.18a164.64 164.64 0 0 0 52.18 8.47H375a45 45 0 0 0 41.84-61.58A45 45 0 0 0 438.51 377a44.91 44.91 0 0 0 0-60zM120 467a15 15 0 0 1-15 15H30V242h75a15 15 0 0 1 15 15zm255-135h30a15 15 0 0 1 0 30h-30a15 15 0 0 0 0 30h30a15 15 0 0 1 0 30h-30a15 15 0 0 0 0 30 15 15 0 0 1 0 30H249.34a134.71 134.71 0 0 1-42.7-6.93L150 456.19V270.58c23.53-4.47 46.56-19.37 67.35-43.76 20.3-23.82 36.76-55.4 44-84.49l5.36-21.33H270a30 30 0 0 1 30 30v15c0 20.14-6.3 58.77-14.36 76H255a15 15 0 0 0 0 30h150a15 15 0 0 1 0 30h-30a15 15 0 0 0 0 30z"/><circle cx="75" cy="437" r="15"/><path d="M285 0a15 15 0 0 0-15 15v31a15 15 0 1 0 30 0V15a15 15 0 0 0-15-15zm-63.64 66.15l-21.21-21.21a15 15 0 0 0-21.21 21.21l21.21 21.21a15 15 0 0 0 21.21-21.21zm169.71-21.21a15 15 0 0 0-21.21 0l-21.22 21.21a15 15 0 0 0 21.21 21.21l21.21-21.21a15 15 0 0 0 .01-21.21z"/></svg>