<svg data-name="Layer 1" xmlns="http://www.w3.org/2000/svg" viewBox="0 0 25.55 30"><title>man</title><path class="cls-1" d="M18.28 17.33h-2.51v-1.4a6 6 0 0 0 3-5.14V6.12a4 4 0 0 0 .49-1.91V.59a.59.59 0 0 0-.61-.59h-8.41a4.1 4.1 0 0 0-4.09 4.09v1.19a2.9 2.9 0 0 0 .62 1.83v3.68a6 6 0 0 0 3 5.14v1.39H7.26A7.63 7.63 0 0 0 0 24.93v4.48a.59.59 0 0 0 .59.59h24.37a.59.59 0 0 0 .59-.59v-4.47a7.63 7.63 0 0 0-7.27-7.61zm-11-12V4.09a2.92 2.92 0 0 1 2.92-2.92h7.82v1.17h-4.4a.59.59 0 0 0 0 1.17h4.44v.7A2.82 2.82 0 0 1 15.24 7H9.07a1.75 1.75 0 0 1-1.75-1.72zm.64 5.51V8a2.9 2.9 0 0 0 1.1.22h6.18a4 4 0 0 0 2.33-.75v3.34a4.805 4.805 0 1 1-9.61 0zm6.68 5.68v.89a1.875 1.875 0 1 1-3.75 0v-.89a6 6 0 0 0 3.75 0zm-4.7 2a3 3 0 0 0 5.66 0h1.61l-4.4 7.59-4.4-7.62zm14.47 10.31h-2.11V26a.59.59 0 0 0-1.17 0v2.81H4.45v-4.66a.59.59 0 0 0-1.17 0v4.68H1.17v-3.89a6.45 6.45 0 0 1 5.86-6.42l5.23 9.06a.59.59 0 0 0 1 0l5.23-9.06a6.45 6.45 0 0 1 5.86 6.42z"/><path class="cls-1" d="M11.2 10.23a.59.59 0 1 0 .17.41.59.59 0 0 0-.17-.41zm3.98 0a.59.59 0 1 0 .17.41.59.59 0 0 0-.17-.41zm-3.41-7.71a.59.59 0 1 0 .17.41.59.59 0 0 0-.17-.41zm1.9 10.03a.59.59 0 0 0-.83 0 .2.2 0 0 1-.29 0 .59.59 0 0 0-.83.83 1.38 1.38 0 0 0 1.95 0 .59.59 0 0 0 0-.83zm8.42 10.84a.59.59 0 1 0 .17.41.59.59 0 0 0-.17-.41z"/></svg>