<svg data-name="Capa 1" xmlns="http://www.w3.org/2000/svg" viewBox="0 0 512 440"><title>moving-truck</title><path d="M328 0H216a8 8 0 0 0 0 16h112a8 8 0 0 0 0-16z"/><path d="M288 0a8 8 0 0 0-8 8v40a8 8 0 1 0 16 0V8a8 8 0 0 0-8-8z"/><path d="M288 40h-32a8 8 0 0 0 0 16h32a8 8 0 0 0 0-16z"/><path d="M256 0a8 8 0 0 0-8 8v40a8 8 0 1 0 16 0V8a8 8 0 0 0-8-8zm-40 160h-96a8 8 0 0 0 0 16h96a8 8 0 0 0 0-16zm112-16a8 8 0 0 0-8 8v136a8 8 0 1 0 16 0V152a8 8 0 0 0-8-8zm176 200h-23.83a8 8 0 0 0 0 16H504a8 8 0 0 0 0-16z"/><path d="M504 344a8 8 0 0 0-8 8v32a8 8 0 1 0 16 0v-32a8 8 0 0 0-8-8zM80 376l-56 .17a8 8 0 0 0 0 16l56-.17a8 8 0 0 0 0-16zm416-72h-8a8 8 0 0 0 0 16h8a8 8 0 0 0 0-16z"/><path d="M496 248a8 8 0 0 0-8 8v96a8 8 0 1 0 16 0v-96a8 8 0 0 0-8-8zm-48-104H328a8 8 0 0 0 0 16h120a8 8 0 0 0 0-16z"/><path d="M503.26 252.65l-48-104a8 8 0 1 0-14.53 6.7l48 104A8 8 0 0 0 496 264a8 8 0 0 0 7.26-11.35zM24 344a8 8 0 0 0-8 8v32.5a8 8 0 0 0 16 0V352a8 8 0 0 0-8-8zM8 240a8 8 0 0 0-8 8v104a8 8 0 0 0 16 0V248a8 8 0 0 0-8-8z"/><path d="M328 240H8a8 8 0 0 0 0 16h320a8 8 0 0 0 0-16zM48 344H8a8 8 0 0 0 0 16h40a8 8 0 0 0 0-16zm80-16a56 56 0 1 0 56 56 56.07 56.07 0 0 0-56-56zm0 96a40 40 0 1 1 40-40 40 40 0 0 1-40 40z"/><path d="M128 360a24 24 0 1 0 24 24 24 24 0 0 0-24-24zm0 32a8 8 0 1 1 8-8 8 8 0 0 1-8 8zm264-32a24 24 0 1 0 24 24 24 24 0 0 0-24-24zm0 32a8 8 0 1 1 8-8 8 8 0 0 1-8 8z"/><path d="M392 328a56 56 0 1 0 56 56 56.07 56.07 0 0 0-56-56zm0 96a40 40 0 1 1 40-40 40 40 0 0 1-40 40z"/><path d="M344.2 376H176a8 8 0 0 0 0 16h168.2a8 8 0 0 0 0-16zm159.8 0h-64a8 8 0 0 0 0 16h64a8 8 0 0 0 0-16zm-8-128h-96a8 8 0 0 0 0 16h96a8 8 0 0 0 0-16z"/><path d="M400 248a24 24 0 0 1-24-24 8 8 0 0 0-16 0 40 40 0 0 0 40 40 8 8 0 0 0 0-16z"/><path d="M368 144a8 8 0 0 0-8 8v72a8 8 0 1 0 16 0v-72a8 8 0 0 0-8-8zM328 0a8 8 0 0 0-8 8v240a8 8 0 1 0 16 0V8a8 8 0 0 0-8-8zM216 0a8 8 0 0 0-8 8v240a8 8 0 0 0 16 0V8a8 8 0 0 0-8-8zm-96 64a8 8 0 0 0-8 8v176a8 8 0 0 0 16 0V72a8 8 0 0 0-8-8zm48 96a8 8 0 0 0-8 8v24a8 8 0 0 0 16 0v-24a8 8 0 0 0-8-8z"/><path d="M216 64h-96a8 8 0 0 0 0 16h96a8 8 0 0 0 0-16z"/><path d="M168 64a8 8 0 0 0-8 8v16a8 8 0 0 0 16 0V72a8 8 0 0 0-8-8zM24 120a8 8 0 0 0-8 8v120a8 8 0 0 0 16 0V128a8 8 0 0 0-8-8z"/><path d="M120 120H24a8 8 0 0 0 0 16h96a8 8 0 0 0 0-16z"/><path d="M56 120a8 8 0 0 0-8 8v24a8 8 0 0 0 16 0v-24a8 8 0 0 0-8-8z"/><path d="M88 144H56a8 8 0 0 0 0 16h32a8 8 0 0 0 0-16z"/><path d="M88 120a8 8 0 0 0-8 8v24a8 8 0 0 0 16 0v-24a8 8 0 0 0-8-8z"/></svg>