<svg data-name="Layer 1" xmlns="http://www.w3.org/2000/svg" viewBox="0 0 42 42.01"><title>navigation-icon</title><path class="cls-1" d="M10.13 41.01H10a9.76 9.76 0 0 1-6.44-3.26 10.1 10.1 0 0 1 .23-13.61 9.74 9.74 0 0 1 6.54-3 9.58 9.58 0 0 1 5.07 1.54 9.8 9.8 0 0 1 3.52 4h2.62a1.93 1.93 0 0 1 1.35.6 2 2 0 0 1 .54 1.4l-.07 5.19a2 2 0 0 1-.59 1.38 1.94 1.94 0 0 1-.64.42 1.91 1.91 0 0 1-.74.14h-2.62a9.78 9.78 0 0 1-3.6 3.83 9.56 9.56 0 0 1-5.04 1.37zm0-19.3a9 9 0 0 0-6.34 2.6 9.37 9.37 0 0 0-2.58 4.7 9.48 9.48 0 0 0 .43 5.39 9.3 9.3 0 0 0 3.29 4.24A9.07 9.07 0 0 0 10 40.33h.16a8.94 8.94 0 0 0 4.73-1.32 9.15 9.15 0 0 0 3.34-3.69.32.32 0 0 1 .11-.13.31.31 0 0 1 .17 0h2.83a1.28 1.28 0 0 0 .5-.09 1.3 1.3 0 0 0 .43-.28 1.37 1.37 0 0 0 .4-.94l.09-5.19a1.38 1.38 0 0 0-.36-1 1.3 1.3 0 0 0-.42-.3 1.28 1.28 0 0 0-.5-.11h-2.82a.32.32 0 0 1-.17 0 .33.33 0 0 1-.11-.14 9.17 9.17 0 0 0-3.29-3.88 9 9 0 0 0-4.82-1.49zm0 15.77H10a6.27 6.27 0 0 1-3.46-1.17 6.43 6.43 0 0 1-2.26-2.93A6.55 6.55 0 0 1 4 29.67a6.48 6.48 0 0 1 1.77-3.26 6.24 6.24 0 0 1 2.06-1.4 6.16 6.16 0 0 1 2.42-.45 6.28 6.28 0 0 1 4.43 2 6.53 6.53 0 0 1-.1 9.06 6.26 6.26 0 0 1-4.43 1.85zm0-12.23a5.56 5.56 0 0 0-3.93 1.63 5.83 5.83 0 0 0-1.6 2.93 5.89 5.89 0 0 0 .27 3.34 5.78 5.78 0 0 0 2 2.63 5.64 5.64 0 0 0 3.13 1 5.46 5.46 0 0 0 2.18-.4A5.54 5.54 0 0 0 14 35.15a5.82 5.82 0 0 0 1.6-2.94 5.89 5.89 0 0 0-.27-3.35 5.78 5.78 0 0 0-2-2.64 5.64 5.64 0 0 0-3.14-1z"/><path class="cls-2" d="M20.27 32.17a.9.9 0 0 1-.61-.29.93.93 0 0 1-.24-.64.94.94 0 0 1 .29-.61.91.91 0 0 1 .62-.25.89.89 0 0 1 .64.27.93.93 0 0 1 0 1.3.89.89 0 0 1-.64.27zm0-1.19a.26.26 0 0 0-.19.08.27.27 0 0 0 0 .38.26.26 0 0 0 .19.08.31.31 0 0 0 .19-.08.27.27 0 0 0 .06-.09.31.31 0 0 0 0-.31h-.25z"/><path class="cls-3" d="M31.23 17.45h-.11a6.26 6.26 0 0 1-3.48-1.16 6.42 6.42 0 0 1-2.26-2.93 6.54 6.54 0 0 1-.29-3.71 6.47 6.47 0 0 1 1.78-3.26 6.19 6.19 0 0 1 2.06-1.38 6.1 6.1 0 0 1 2.43-.44 6.26 6.26 0 0 1 3.47 1.16 6.42 6.42 0 0 1 2.26 2.92 6.54 6.54 0 0 1 .29 3.71 6.47 6.47 0 0 1-1.77 3.25 6.19 6.19 0 0 1-4.38 1.84zm-.09-.65a5.46 5.46 0 0 0 2.18-.4 5.53 5.53 0 0 0 1.85-1.23A5.84 5.84 0 0 0 36 7.91a5.68 5.68 0 0 0-3-2.36 5.58 5.58 0 0 0-3.82.13 5.7 5.7 0 0 0-2.87 2.56 5.85 5.85 0 0 0-.62 3.83 5.79 5.79 0 0 0 1.91 3.36 5.61 5.61 0 0 0 3.53 1.38z"/><path class="cls-4" d="M33.55 24.54l-5.11-.09a1.91 1.91 0 0 1-.74-.16 1.94 1.94 0 0 1-.62-.44 2 2 0 0 1-.54-1.41v-2.67a9.89 9.89 0 0 1-3.39-3.1 10.11 10.11 0 0 1 1.29-12.85 9.64 9.64 0 0 1 10.7-2 9.81 9.81 0 0 1 4.33 3.75A10 10 0 0 1 41 11.15a10 10 0 0 1-1.5 5.17 9.8 9.8 0 0 1-3.94 3.61v2.67a2 2 0 0 1-.56 1.41 1.94 1.94 0 0 1-.64.42 1.91 1.91 0 0 1-.81.11zM31.22 1.66a9.07 9.07 0 0 0-6.41 2.68 9.51 9.51 0 0 0-1.43 11.44 9.17 9.17 0 0 0 3.69 3.5.22.22 0 0 1 .13.29v2.87a1.34 1.34 0 0 0 .35.93 1.29 1.29 0 0 0 .9.42l5.11.09a1.25 1.25 0 0 0 .93-.38 1.32 1.32 0 0 0 .29-.43 1.34 1.34 0 0 0 .11-.51v-2.87a.33.33 0 0 1 0-.17.32.32 0 0 1 .13-.12 9.25 9.25 0 0 0 4.3-4.3 9.47 9.47 0 0 0 .84-6.09A9.36 9.36 0 0 0 37 3.79a9.08 9.08 0 0 0-5.66-2.13zm0 15.76h-.11a6.26 6.26 0 0 1-3.48-1.16 6.42 6.42 0 0 1-2.26-2.93 6.54 6.54 0 0 1-.29-3.71 6.47 6.47 0 0 1 1.78-3.26 6.19 6.19 0 0 1 2.06-1.35 6.11 6.11 0 0 1 2.43-.44 6.26 6.26 0 0 1 3.47 1.16 6.42 6.42 0 0 1 2.26 2.92 6.54 6.54 0 0 1 .29 3.71 6.47 6.47 0 0 1-1.77 3.25 6.2 6.2 0 0 1-4.37 1.85zm-.09-.65h.09a5.64 5.64 0 0 0 4-1.67A5.82 5.82 0 0 0 36 7.87a5.69 5.69 0 0 0-2.54-2.16 5.6 5.6 0 0 0-6.19 1.16 5.79 5.79 0 0 0-1.59 2.92 5.85 5.85 0 0 0 .27 3.33 5.75 5.75 0 0 0 2 2.62 5.6 5.6 0 0 0 3.17 1z"/><path class="cls-5" d="M31 22.81a.89.89 0 0 1-.64-.27.93.93 0 0 1 0-1.3.89.89 0 0 1 1.26 0 .93.93 0 0 1 0 1.3.89.89 0 0 1-.62.27zm0-.65a.27.27 0 0 0 .18-.45.26.26 0 0 0-.18-.08h-.1l-.08.06a.18.18 0 0 0-.06.19.27.27 0 0 0 .07.18.26.26 0 0 0 .17.08z"/><path class="cls-6" d="M27.73 31.62h-.14l-4.68-.15a.32.32 0 0 1-.19-.11.33.33 0 0 1 0-.43.32.32 0 0 1 .19-.11l4.71.14a2.85 2.85 0 0 0 1.12-.19 2.89 2.89 0 0 0 1-.62 3 3 0 0 0 .87-2.14l.07-3.89a.2.2 0 0 1 .07-.22.31.31 0 0 1 .11-.07h.24l.1.07a.32.32 0 0 1 .09.23l-.07 3.88a3.63 3.63 0 0 1-1 2.51 3.51 3.51 0 0 1-2.49 1z"/></svg>