<svg data-name="Capa 1" xmlns="http://www.w3.org/2000/svg" viewBox="0 0 360 512"><title>placeholder</title><path d="M180 0C80.75 0 0 80.75 0 180a179.62 179.62 0 0 0 26.87 94.65l142.88 230.26A15 15 0 0 0 182.5 512h.12a15 15 0 0 0 12.75-7.29l139.24-232.49A179.79 179.79 0 0 0 360 180C360 80.75 279.25 0 180 0zm128.87 256.82l-126.6 211.37-129.9-209.34A149.82 149.82 0 0 1 29.8 180C29.8 97.29 97.29 29.8 180 29.8S330.1 97.29 330.1 180a149.87 149.87 0 0 1-21.23 76.82z"/><path d="M180 90a90 90 0 1 0 90 90 90.1 90.1 0 0 0-90-90zm0 150.2a60.2 60.2 0 1 1 60.1-60.2 60.25 60.25 0 0 1-60.1 60.2z"/></svg>