<svg data-name="Layer 1" xmlns="http://www.w3.org/2000/svg" viewBox="0 0 30 30"><title>resume</title><path class="cls-1" d="M24.26 8.72a.59.59 0 0 0 .59-.59V1.76A1.76 1.76 0 0 0 23.09 0H1.76A1.76 1.76 0 0 0 0 1.76v26.48A1.76 1.76 0 0 0 1.76 30h21.33a1.76 1.76 0 0 0 1.76-1.76v-4.31a.59.59 0 1 0-1.17 0v4.32a.59.59 0 0 1-.59.59H1.76a.59.59 0 0 1-.59-.59V1.76a.59.59 0 0 1 .59-.59h21.33a.59.59 0 0 1 .59.59v6.37a.59.59 0 0 0 .58.59z"/><path class="cls-1" d="M12.42 3.16a5.39 5.39 0 0 0-3.7 9.31l.06.06a5.38 5.38 0 0 0 7.27 0l.06-.06a5.39 5.39 0 0 0-3.7-9.31zm0 9.61a4.2 4.2 0 0 1-2.55-.86 2.93 2.93 0 0 1 5.1 0 4.2 4.2 0 0 1-2.55.86zm-.94-4.45v-.38a.94.94 0 0 1 1.88 0v.38a.94.94 0 1 1-1.87 0zm4.33 2.74a4.07 4.07 0 0 0-1.73-1.45 2.1 2.1 0 0 0 .44-1.29v-.38a2.11 2.11 0 1 0-4.22 0v.38a2.1 2.1 0 0 0 .44 1.29A4.07 4.07 0 0 0 9 11.06a4.22 4.22 0 1 1 6.79 0zm-.22 14.6h-3.17a.59.59 0 1 0 0 1.17h3.16a.59.59 0 1 0 0-1.17zm0-3.28H7.27a.59.59 0 0 0 0 1.17h8.32a.59.59 0 0 0 0-1.17zm0-3.28H7.27a.59.59 0 1 0 0 1.17h8.32a.59.59 0 1 0 0-1.17zM5.18 16a.59.59 0 1 0 .17.41.59.59 0 0 0-.17-.41zm0 3.27a.59.59 0 1 0 .17.41.59.59 0 0 0-.17-.41zm0 3.28a.59.59 0 1 0 .17.41.59.59 0 0 0-.17-.41zm10.41-6.73H7.27a.59.59 0 0 0 0 1.17h8.32a.59.59 0 0 0 0-1.17zm13.18-8.18a2.46 2.46 0 0 0-3.36.9L18 21.31a.59.59 0 0 0-.07.23l-.52 4.65a.59.59 0 0 0 .93.54l3.77-2.77a.59.59 0 0 0 .16-.18L29.67 11a2.46 2.46 0 0 0-.9-3.36zM18.75 25l.25-2.44 1.7 1zm2.82-2.31l-2.23-1.29 5.92-10.25 2.23 1.29zm7.08-12.26l-.58 1-2.23-1.29.58-1a1.29 1.29 0 0 1 2.23 1.29z"/></svg>