<svg data-name="Capa 1" xmlns="http://www.w3.org/2000/svg" viewBox="0 0 463.75 510.13"><title>ruble-currency-sign</title><path d="M11.6 429h81.16v69.57a11.18 11.18 0 0 0 11.6 11.59h60.45a11.44 11.44 0 0 0 8.15-3.27 10.93 10.93 0 0 0 3.44-8.32V429h183a11.16 11.16 0 0 0 11.6-11.59V371a11.18 11.18 0 0 0-11.6-11.59h-183v-42.76h123.22q72.46 0 118.29-44.2t45.83-114.12q0-69.91-45.83-114.12T299.62 0H104.35a11.16 11.16 0 0 0-11.6 11.59v227.9H11.6a11 11 0 0 0-8.33 3.44 11.46 11.46 0 0 0-3.26 8.15v54a11.16 11.16 0 0 0 11.6 11.59h81.16v42.73H11.6A11.18 11.18 0 0 0 0 371v46.38A11.16 11.16 0 0 0 11.6 429zM176.44 77.18h115.94q38.4 0 62 22.46t23.55 58.69q0 36.23-23.55 58.69t-62 22.47H176.44z"/></svg>