<svg id="Layer_1" data-name="Layer 1" xmlns="http://www.w3.org/2000/svg" viewBox="0 0 426.67 315.73"><defs><style>.cls-1{fill:#f05228}</style></defs><title>shopping-cart</title><path class="cls-1" d="M197.92 309.22a31 31 0 1 0 31 31 31 31 0 0 0-31-31zm126.44 0a31 31 0 1 0 31 31 31 31 0 0 0-31-31z" transform="translate(0 -55.47)"/><path class="cls-1" d="M349.68 115.75H172.55l7.07 23.27h163.04l7.02-23.27zm-21.1 69.74l7.04-23.23H186.68l7.06 23.23h134.84z"/><path class="cls-1" d="M155.2 58.24l10.26 34.29h214.98l-35.05 116.08H176.98L113.78 0H0v34.03h88.27l63.34 208.86h219.04l56.02-184.65H155.2z"/></svg>