<svg id="Layer_1" data-name="Layer 1" xmlns="http://www.w3.org/2000/svg" viewBox="0 0 15 14.34"><defs><style>.cls-1{fill:none}.cls-2{clip-path:url(#clip-path)}.cls-3{fill:#ed8a19}</style><clipPath id="clip-path" transform="translate(0 -.33)"><path class="cls-1" d="M0 0h15v15H0z"/></clipPath></defs><title>star</title><g class="cls-2"><path class="cls-3" d="M8.22.78l1.7 3.43a.81.81 0 0 0 .61.44l3.78.55a.81.81 0 0 1 .45 1.38L12 9.24a.81.81 0 0 0-.23.71l.65 3.77a.81.81 0 0 1-1.17.85L7.88 12.8a.81.81 0 0 0-.75 0l-3.39 1.78a.81.81 0 0 1-1.17-.85L3.21 10A.81.81 0 0 0 3 9.24L.24 6.58A.81.81 0 0 1 .69 5.2l3.78-.55a.81.81 0 0 0 .61-.44L6.78.78a.81.81 0 0 1 1.44 0z" transform="translate(0 -.33)"/></g></svg>