<svg id="Layer_1" data-name="Layer 1" xmlns="http://www.w3.org/2000/svg" viewBox="0 0 80 80"><defs><style>.cls-1{fill:#d5fe38}</style></defs><title>target</title><path class="cls-1" d="M78.67 38.67H76A36 36 0 0 0 41.33 4V1.33a1.33 1.33 0 1 0-2.67 0V4A36 36 0 0 0 4 38.67H1.33a1.33 1.33 0 1 0 0 2.67H4A36 36 0 0 0 38.67 76v2.7a1.33 1.33 0 0 0 2.67 0V76A36 36 0 0 0 76 41.33h2.7a1.33 1.33 0 0 0 0-2.67zM41.33 73.3v-2.63a1.33 1.33 0 1 0-2.67 0v2.63a33.37 33.37 0 0 1-32-32h2.67a1.33 1.33 0 1 0 0-2.67H6.7a33.37 33.37 0 0 1 32-32v2.7a1.33 1.33 0 1 0 2.67 0V6.7a33.37 33.37 0 0 1 32 32h-2.7a1.33 1.33 0 1 0 0 2.67h2.63A33.37 33.37 0 0 1 41.33 73.3z"/><path class="cls-1" d="M56 38.67h-6.77a9.34 9.34 0 0 0-7.89-7.89V24a1.33 1.33 0 0 0-2.67 0v6.77a9.34 9.34 0 0 0-7.89 7.89H24a1.33 1.33 0 0 0 0 2.67h6.77a9.34 9.34 0 0 0 7.89 7.89V56a1.33 1.33 0 0 0 2.67 0v-6.77a9.34 9.34 0 0 0 7.89-7.89H56a1.33 1.33 0 1 0 0-2.67z"/></svg>