<svg data-name="Layer 1" xmlns="http://www.w3.org/2000/svg" viewBox="0 0 15 14.4"><title>thumbs-up-hand-symbol</title><g class="cls-2"><path class="cls-3" d="M14.48 8A2.06 2.06 0 0 0 15 6.6a1.82 1.82 0 0 0-1.8-1.8h-2.6q0-.13.07-.22a1.58 1.58 0 0 1 .1-.21l.09-.17q.17-.32.26-.52a3.83 3.83 0 0 0 .18-.56 2.92 2.92 0 0 0 .09-.71v-.37a4 4 0 0 0 0-.42 2.36 2.36 0 0 0-.11-.47A2.18 2.18 0 0 0 11 .7a1.31 1.31 0 0 0-.38-.38 2.05 2.05 0 0 0-.55-.22A2.8 2.8 0 0 0 9.3 0a.58.58 0 0 0-.42.18 1.63 1.63 0 0 0-.32.47 2.79 2.79 0 0 0-.18.49q-.05.21-.12.57t-.13.57A3 3 0 0 1 8 2.7a1.44 1.44 0 0 1-.29.45 13.86 13.86 0 0 0-.98 1.15q-.46.6-.95 1.13t-.71.55a.61.61 0 0 0-.4.19.57.57 0 0 0-.17.41v6a.56.56 0 0 0 .18.42.62.62 0 0 0 .42.18 6.85 6.85 0 0 1 1.48.41l1.13.37q.41.13 1.14.27a7 7 0 0 0 1.35.15h1.21a2.33 2.33 0 0 0 1.85-.68 2.25 2.25 0 0 0 .46-1.7 1.82 1.82 0 0 0 .51-.88 1.93 1.93 0 0 0 0-1.1 2 2 0 0 0 .39-1.32 2.23 2.23 0 0 0-.14-.7zM3.3 6H.6a.58.58 0 0 0-.42.18.58.58 0 0 0-.18.42v6a.58.58 0 0 0 .18.42.58.58 0 0 0 .42.18h2.7a.61.61 0 0 0 .6-.6v-6a.61.61 0 0 0-.6-.6zm-1.08 5.83a.58.58 0 0 1-.42.17.6.6 0 0 1-.43-1 .59.59 0 0 1 .85 0 .59.59 0 0 1 0 .85z"/></g></svg>