<svg id="Layer_1" data-name="Layer 1" xmlns="http://www.w3.org/2000/svg" viewBox="0 0 15 14.4"><defs><style>.cls-1{fill:none}.cls-2{clip-path:url(#clip-path)}.cls-3{fill:#ffa3c7}</style><clipPath id="clip-path" transform="translate(0 -.3)"><path class="cls-1" d="M0 0h15v15H0z"/></clipPath></defs><title>thumbs-up-hand-symbol (1)</title><g class="cls-2"><path class="cls-3" d="M14.48 6.7A2.06 2.06 0 0 1 15 8.1a1.82 1.82 0 0 1-1.8 1.8h-2.6q0 .13.07.23a1.58 1.58 0 0 0 .1.21l.09.17q.17.32.26.52a3.83 3.83 0 0 1 .18.56 2.92 2.92 0 0 1 .09.71v.37a4 4 0 0 1 0 .42 2.36 2.36 0 0 1-.11.47A2.19 2.19 0 0 1 11 14a1.31 1.31 0 0 1-.38.38 2.05 2.05 0 0 1-.56.24 2.8 2.8 0 0 1-.77.1.58.58 0 0 1-.42-.18 1.63 1.63 0 0 1-.32-.47 2.79 2.79 0 0 1-.18-.49q-.05-.21-.12-.57t-.13-.57A3 3 0 0 0 8 12a1.44 1.44 0 0 0-.29-.45 13.86 13.86 0 0 1-.95-1.12q-.46-.6-.95-1.13t-.71-.55a.61.61 0 0 1-.4-.19.57.57 0 0 1-.17-.41v-6a.56.56 0 0 1 .18-.42.62.62 0 0 1 .39-.23 6.85 6.85 0 0 0 1.48-.41L7.71.72Q8.12.59 8.85.45A7 7 0 0 1 10.2.3h1.21a2.33 2.33 0 0 1 1.85.7 2.25 2.25 0 0 1 .46 1.7 1.82 1.82 0 0 1 .51.88 1.93 1.93 0 0 1 0 1.1A2 2 0 0 1 14.62 6a2.23 2.23 0 0 1-.14.7zM3.3 8.7H.6a.58.58 0 0 1-.42-.18A.58.58 0 0 1 0 8.1v-6a.58.58 0 0 1 .18-.42.58.58 0 0 1 .42-.18h2.7a.61.61 0 0 1 .6.6v6a.61.61 0 0 1-.6.6zM2.22 2.87a.58.58 0 0 0-.42-.17.6.6 0 0 0-.43 1 .59.59 0 0 0 .85 0 .59.59 0 0 0 0-.85z" transform="translate(0 -.3)"/></g></svg>