<svg data-name="Layer 1" xmlns="http://www.w3.org/2000/svg" viewBox="0 0 15 14.4"><title>thumbs-up-hand-symbol (1)</title><g class="cls-2"><path class="cls-3" d="M14.48 6.4A2.06 2.06 0 0 1 15 7.8a1.82 1.82 0 0 1-1.8 1.8h-2.6q0 .13.07.23a1.58 1.58 0 0 0 .1.21l.09.17q.17.32.26.52a3.83 3.83 0 0 1 .18.56 2.92 2.92 0 0 1 .09.71v.37a4 4 0 0 1 0 .42 2.36 2.36 0 0 1-.11.47 2.19 2.19 0 0 1-.28.44 1.31 1.31 0 0 1-.38.38 2.05 2.05 0 0 1-.56.24 2.8 2.8 0 0 1-.77.1.58.58 0 0 1-.42-.18 1.63 1.63 0 0 1-.32-.47 2.79 2.79 0 0 1-.18-.49q-.05-.21-.12-.57t-.13-.57A3 3 0 0 0 8 11.7a1.44 1.44 0 0 0-.29-.45 13.86 13.86 0 0 1-.95-1.12Q6.3 9.53 5.81 9t-.71-.55a.61.61 0 0 1-.4-.19.57.57 0 0 1-.17-.41v-6a.56.56 0 0 1 .18-.42.62.62 0 0 1 .39-.23A6.85 6.85 0 0 0 6.58.79L7.71.42Q8.12.29 8.85.15A7 7 0 0 1 10.2 0h1.21a2.33 2.33 0 0 1 1.85.7 2.25 2.25 0 0 1 .46 1.7 1.82 1.82 0 0 1 .51.88 1.93 1.93 0 0 1 0 1.1 2 2 0 0 1 .39 1.32 2.23 2.23 0 0 1-.14.7zM3.3 8.4H.6a.58.58 0 0 1-.42-.18A.58.58 0 0 1 0 7.8v-6a.58.58 0 0 1 .18-.42.58.58 0 0 1 .42-.18h2.7a.61.61 0 0 1 .6.6v6a.61.61 0 0 1-.6.6zM2.22 2.57a.58.58 0 0 0-.42-.17.6.6 0 0 0-.43 1 .59.59 0 0 0 .85 0 .59.59 0 0 0 0-.85z"/></g></svg>