<svg id="Layer_1" data-name="Layer 1" xmlns="http://www.w3.org/2000/svg" viewBox="0 0 49.84 50"><defs><style>.cls-1{fill:none}.cls-2{clip-path:url(#clip-path)}.cls-3{fill:#d5fe38}</style><clipPath id="clip-path" transform="translate(-.08)"><path class="cls-1" d="M0 0h50v50H0z"/></clipPath></defs><title>vibrator</title><g class="cls-2"><path class="cls-3" d="M47.76 2.13a7.39 7.39 0 0 0-9.24-.92 1 1 0 0 1-.74.28A8.4 8.4 0 0 0 31.87 4a8.7 8.7 0 0 0-2.31 4.25 1.57 1.57 0 0 1-1.29 1.29A8.77 8.77 0 0 0 24 11.83a7.68 7.68 0 0 0-2.13 3.51 1.59 1.59 0 0 1-1 1 8.19 8.19 0 0 0-3.51 2.13A8.7 8.7 0 0 0 15 22.74 1.57 1.57 0 0 1 13.75 24a8.77 8.77 0 0 0-4.25 2.34A8.34 8.34 0 0 0 7 31.89 1.53 1.53 0 0 1 6.55 33l-1.3 1.29-4.52 4.53 1.34 1.34-2 2L7.93 50l2-2 1.25 1.25 4.53-4.53 1.25-1.34a1.7 1.7 0 0 1 1.04-.5 8.34 8.34 0 0 0 5.54-2.5 8 8 0 0 0 2.31-4.25 1.57 1.57 0 0 1 1.29-1.29 8.77 8.77 0 0 0 4.25-2.31A7.68 7.68 0 0 0 33.53 29a1.59 1.59 0 0 1 1-1 8.19 8.19 0 0 0 3.51-2.13 8.7 8.7 0 0 0 2.31-4.25 1.57 1.57 0 0 1 1.29-1.29 8.52 8.52 0 0 0 6.75-8.22 1.23 1.23 0 0 1 .28-.74 7.29 7.29 0 0 0-.91-9.24zM7.93 47.41l-5.26-5.26.65-.65 5.27 5.27zm3.23-.74l-7.85-7.85 1.94-1.94 7.85 7.85zm36.32-36.5a3.27 3.27 0 0 0-.55 1.76A6.58 6.58 0 0 1 45 16.55a6.9 6.9 0 0 1-3.42 1.85 3.47 3.47 0 0 0-2.68 2.68 6.9 6.9 0 0 1-1.9 3.41 7.67 7.67 0 0 1-2.77 1.66A3.6 3.6 0 0 0 32 28.47a6.57 6.57 0 0 1-1.66 2.77 6.9 6.9 0 0 1-3.42 1.85 3.47 3.47 0 0 0-2.68 2.68 6.9 6.9 0 0 1-1.85 3.42A6.75 6.75 0 0 1 18 41.13a3.15 3.15 0 0 0-2.31 1l-1.29 1.31-3.93-3.93-3.92-3.93 1.29-1.2a4.36 4.36 0 0 0 1-2.31 6.51 6.51 0 0 1 1.94-4.34 6.9 6.9 0 0 1 3.42-1.85 3.47 3.47 0 0 0 2.7-2.68 6.9 6.9 0 0 1 1.85-3.42 8.53 8.53 0 0 1 2.77-1.66 3.6 3.6 0 0 0 2.31-2.31A6 6 0 0 1 25.49 13a7.32 7.32 0 0 1 3.42-1.85 3.47 3.47 0 0 0 2.68-2.68 6.9 6.9 0 0 1 1.85-3.42 7 7 0 0 1 4.62-1.94 3 3 0 0 0 1.76-.55 5.6 5.6 0 0 1 6.93.74 5.47 5.47 0 0 1 .73 6.87zm-36.22 9.61a.84.84 0 0 0 .65.28.72.72 0 0 0 .65-.28l7.39-7.39a.91.91 0 0 0-1.29-1.29l-7.39 7.39a.89.89 0 0 0-.01 1.29zM11 15.44a.72.72 0 0 0 .65-.28l3.7-3.7A.91.91 0 0 0 14 10.17l-3.7 3.7a.89.89 0 0 0 0 1.29.84.84 0 0 0 .7.28zm33.9 7.67a.89.89 0 0 0-1.29 0l-7.4 7.39a.89.89 0 0 0 0 1.29.84.84 0 0 0 .65.28.72.72 0 0 0 .65-.28l7.39-7.39a.89.89 0 0 0 0-1.29zm-.37 4.62l-3.7 3.7a.89.89 0 0 0 0 1.29.84.84 0 0 0 .65.28.72.72 0 0 0 .65-.28l3.7-3.7a.91.91 0 1 0-1.29-1.29z" transform="translate(-.08)"/><path class="cls-3" d="M38.06 6a.89.89 0 0 0-.55 1.2.89.89 0 0 0 1.2.55 3.3 3.3 0 0 1 3.51.74.84.84 0 0 0 .65.28 1.1 1.1 0 0 0 .74-.37.89.89 0 0 0 0-1.29A5.31 5.31 0 0 0 38.06 6zm-3.51 2.88L30 13.5a.89.89 0 0 0 0 1.29.84.84 0 0 0 .65.28.7.7 0 0 0 .65-.37l4.53-4.53a.91.91 0 1 0-1.29-1.29z" transform="translate(-.08)"/></g></svg>