<svg xmlns="http://www.w3.org/2000/svg" xmlns:xlink="http://www.w3.org/1999/xlink" height="26" viewBox="0 0 25 26" width="25"><svg height="18" viewBox="0 0 17 18" width="17" x="4" y="4"><title>user-block__search</title><path d="M16.5 15.32l-4-3.63a1.75 1.75 0 0 0-1.22-.56 7 7 0 0 0 1.52-4.38A6.57 6.57 0 0 0 6.37 0 6.57 6.57 0 0 0 0 6.75a6.57 6.57 0 0 0 6.37 6.75 6.15 6.15 0 0 0 4.13-1.62 2 2 0 0 0 .53 1.29l3.47 4.27a1.41 1.41 0 0 0 2.13.13 1.61 1.61 0 0 0-.13-2.25zM6.4 11.25a4.38 4.38 0 0 1-4.25-4.5 4.38 4.38 0 0 1 4.25-4.5 4.38 4.38 0 0 1 4.25 4.5 4.38 4.38 0 0 1-4.28 4.5z" fill="indigo"/></svg></svg>