<svg id="Capa_1" data-name="Capa 1" xmlns="http://www.w3.org/2000/svg" viewBox="0 0 512 500.01"><defs><style>.cls-1{fill:#c882ff}</style></defs><title>cabbage</title><path class="cls-1" d="M511.87 153.31c-2.09-23.65-27.8-33.9-51-32.56-2.06-1-4.15-1.49-4.38-4.15a70.41 70.41 0 0 0-39.57-57.33c-21.71-10.4-29.33-3-32.15-11.17a65.1 65.1 0 0 0-36.65-38.81 7.5 7.5 0 0 0-5.74 13.86A50.1 50.1 0 0 1 370.57 53a21.07 21.07 0 0 0 18.79 14.45 54.73 54.73 0 0 1 21.06 5.35 55.36 55.36 0 0 1 31.1 45.08 18.81 18.81 0 0 0 1.91 6.8c-12.29 5.19-21.75 15.28-27.88 28.5a207.94 207.94 0 0 0-91.76-60.77 72.14 72.14 0 0 0-39.57-54.11A50.45 50.45 0 0 1 312 20.79a7.5 7.5 0 1 0-3.47-14.59 65.34 65.34 0 0 0-39 26.79 71.94 71.94 0 0 0-68 19.34 7.8 7.8 0 0 1-8.51 2 77.78 77.78 0 0 0-97 32.31 5.2 5.2 0 0 1-4.71 2.56 89.67 89.67 0 0 0-13 .42c-65.24 6.9-101.19 82.6-62.15 137.8A16.69 16.69 0 0 1 18 244a62.82 62.82 0 0 0 10.17 67.2C9.42 324.87 2.45 342.62 9.5 358.77c8.21 18.8 33.35 29.76 57.26 24.94 6.2-1.25 11.62 9 19.94 25.83 17.4 35.23 45.13 91.4 135.69 91.39a262.81 262.81 0 0 0 36.7-2.75c8 3.06 24 7.82 45.5 7.82 52.9 0 100.77-28.5 138.25-65.51 20.16-19.92 34.68-45.33 43.1-75.49a7.5 7.5 0 1 0-14.45-4c-7.7 27.64-20.88 50.82-39.18 68.88-38.43 37.94-80.37 59-121.3 61a119.7 119.7 0 0 1-44-5.78c-.24-.56-.52-1.22-.83-1.94 6.63-21.52 30.76-82.67 93.26-93.17a7.56 7.56 0 0 0 1.61-.42C494.2 340.98 466.9 249.74 469.49 212.82 475 236 483.22 280.9 478 327.11a7.5 7.5 0 1 0 14.9 1.7c6.53-57.39-6.3-111.39-11.47-130 19.02-8.81 32.02-27.65 30.44-45.5zM31.65 250.15a32 32 0 0 0-3.24-31.4c-34.23-48.38 1.13-117 62.35-114.55A20.17 20.17 0 0 0 109 94.26a62.76 62.76 0 0 1 78.23-26.08 22.71 22.71 0 0 0 25-5.31c30.24-30.57 83.14-18 95.25 24.93C172.54 55.56 44.29 162.18 51.05 300.43a54.48 54.48 0 0 0-9.59 3.1 47.85 47.85 0 0 1-9.81-53.38zm36.42 118.42a21.58 21.58 0 0 0-4.27.44c-19 3.82-35.85-5.45-40.55-16.24-7.79-17.84 19.19-38.42 38.52-38.53 14.93 0 29.21 10.29 38 21.53l.44.58a7.51 7.51 0 0 0 5.62 3.24c33.06 2.52 52.63 33.6 59.77 65.9.17.78.48 2.24.6 3a7.5 7.5 0 0 0 6.93 6.31c35.08 2.25 61.86 37.76 77 69.45C93.86 502.52 112.08 368.57 68.07 368.57zm282.11 7.92c-26.62 6.06-49.8 21-68.11 43.9a334.78 334.78 0 0 0 1.2-51.39 7.41 7.41 0 0 0-.06-.92 296.49 296.49 0 0 0-6.43-46.81l-.06-.27a144 144 0 0 1 10.67-43.46c13.33-32.38 36-57.24 67.47-73.9a7.5 7.5 0 1 0-7-13.25c-43.38 23-64.49 57.3-74.57 82a169.76 169.76 0 0 0-5.73 16.45c-.26-.75-.53-1.5-.8-2.25l-.1-.28a277.13 277.13 0 0 0-24.61-51c2.36-10.53 13.07-50.17 45.4-77.21a7.5 7.5 0 0 0-9.62-11.51c-27.5 23-40.82 53.48-46.8 72.13-30.69-42.78-63.3-63.09-64.76-64a7.5 7.5 0 1 0-7.85 12.78c.23.14 15.54 9.68 34.66 29.25-28.53-3-50.56 4.24-51.71 4.63a7.5 7.5 0 0 0 4.79 14.21c.3-.1 30-9.77 63.2-.54 5.07 6.25 10.18 13.12 15.17 20.64a259.11 259.11 0 0 1 18.84 33.68c-50.63-23.36-117.7 2.68-120.94 4a7.5 7.5 0 0 0 5.53 13.94c.82-.32 81.19-31.46 125.11 5.86A274.93 274.93 0 0 1 267 355.12c-15.55-8.05-43.35-19.06-75.25-16.2a7.5 7.5 0 1 0 1.34 14.94c35.22-3.16 65.79 13.45 75.3 19.28a334.73 334.73 0 0 1-6 78.85c-2.14 4.4-4 8.6-5.5 12.47-13.52-24-39.21-58.53-77-64-8.63-36.89-31.41-70.78-69.51-75.46C99.4 311.77 83.43 300.84 66 299.41 57.16 113.12 293.71 24 409.95 169.91c-.11.5-.21 1-.29 1.41-19.17 13.77-29.17 35.57-29 63.27a133.08 133.08 0 0 0 4.8 33.41c-37.78 28.51-36.85 87.95-35.28 108.49zm119.76-189.34c-46.3 14.59 40.81 125.9-105 184.8-1.15-21.5-.17-73.42 33.29-94.55a7.51 7.51 0 0 0 3.06-8.86c-.21-.6-20.92-60.45 19.31-86.55 3.71-2.41 3-5.14 4.6-11.47l.14-.46c6.21-23.25 21.37-37.05 46-34 41.77 5.25 26.27 42.37-1.4 51.09z" transform="translate(0 -6)"/></svg>