<svg id="Capa_1" data-name="Capa 1" xmlns="http://www.w3.org/2000/svg" viewBox="0 0 512 490.77"><defs><style>.cls-1{fill:#d80027}</style></defs><title>cake</title><path class="cls-1" d="M187.07 308.7a10.1 10.1 0 0 0-.57-1.87 9.87 9.87 0 0 0-.92-1.73 10.21 10.21 0 0 0-1.25-1.52 10 10 0 0 0-10.89-2.16 9.87 9.87 0 0 0-1.73.92 9.72 9.72 0 0 0-2.76 2.76 9.87 9.87 0 0 0-.92 1.73 10.1 10.1 0 0 0-.57 1.87 9.85 9.85 0 0 0-.2 2 10 10 0 0 0 .2 2 10.58 10.58 0 0 0 .57 1.87 10.15 10.15 0 0 0 .92 1.72 9.57 9.57 0 0 0 1.24 1.52 10.21 10.21 0 0 0 1.52 1.25 9.87 9.87 0 0 0 1.73.92 10.1 10.1 0 0 0 1.87.57 9.84 9.84 0 0 0 1.95.19 10.08 10.08 0 0 0 7.07-2.93 10 10 0 0 0 2.17-3.24 10.58 10.58 0 0 0 .57-1.87 10 10 0 0 0 .19-2 9.84 9.84 0 0 0-.19-2z" transform="translate(0 -10.61)"/><path class="cls-1" d="M502 481.39h-20.71v-150.8a30 30 0 0 0-29.93-29.93h-17.08V202a30 30 0 0 0-29.93-29.93h-30.7V143a40.57 40.57 0 0 0 26.41-57.31l-27.44-55.6a10 10 0 0 0-17.93 0l-27.44 55.6A40.57 40.57 0 0 0 353.64 143v29H266v-43a40.57 40.57 0 0 0 26.41-57.31L265 16.19a10 10 0 0 0-17.93 0l-27.44 55.6a40.57 40.57 0 0 0 26.37 57.3v43h-87.64v-29a40.63 40.63 0 0 0 26.41-57.34l-27.44-55.6a10 10 0 0 0-17.93 0l-27.44 55.6a40.63 40.63 0 0 0 26.41 57.34v29h-30.7A30 30 0 0 0 77.72 202v98.64H60.65a30 30 0 0 0-29.93 29.93v150.8H10a10 10 0 0 0 0 20h492a10 10 0 0 0 0-20zM349.08 118.28a20.59 20.59 0 0 1-3.91-23.69l18.48-37.43 18.48 37.43a20.61 20.61 0 0 1-33 23.69zm-107.64-14a20.59 20.59 0 0 1-3.91-23.69L256 43.21l18.48 37.43a20.61 20.61 0 0 1-33 23.69zm-107.64 14a20.59 20.59 0 0 1-3.91-23.69l18.48-37.43 18.48 37.43a20.61 20.61 0 0 1-33 23.69zm-26.13 73.8h296.67a9.94 9.94 0 0 1 9.93 9.93v31.4a48.38 48.38 0 0 1-14.76 2c-14.91 0-21.72-4.54-30.34-10.28-9.59-6.39-20.46-13.64-41.43-13.64s-31.84 7.25-41.43 13.64c-8.62 5.74-15.42 10.28-30.33 10.28s-21.72-4.54-30.33-10.28c-9.59-6.39-20.46-13.64-41.43-13.64s-31.84 7.25-41.43 13.64c-8.62 5.74-15.42 10.28-30.33 10.28a48.41 48.41 0 0 1-14.75-2V202a10 10 0 0 1 9.95-9.92zm353.62 289.31H50.71v-96.11c8.5 1.56 13.92 5.17 20.33 9.45 9.59 6.39 20.46 13.64 41.43 13.64s31.84-7.25 41.43-13.64c8.62-5.74 15.42-10.28 30.33-10.28s21.72 4.54 30.33 10.28c9.59 6.39 20.46 13.64 41.43 13.64s31.84-7.25 41.43-13.64c8.62-5.74 15.42-10.28 30.33-10.28s21.72 4.54 30.34 10.28c9.59 6.39 20.46 13.64 41.43 13.64s31.84-7.25 41.43-13.64c6.42-4.28 11.83-7.88 20.34-9.45zm0-116.34c-14.68 1.87-23.49 7.74-31.43 13-8.62 5.74-15.42 10.28-30.34 10.28s-21.72-4.54-30.34-10.28c-9.59-6.39-20.46-13.64-41.43-13.64s-31.84 7.25-41.43 13.64c-8.62 5.74-15.42 10.28-30.33 10.28s-21.72-4.54-30.33-10.28c-9.59-6.39-20.46-13.64-41.43-13.64s-31.84 7.25-41.43 13.64c-8.62 5.74-15.42 10.28-30.33 10.28s-21.72-4.54-30.33-10.28c-7.93-5.29-16.75-11.16-31.43-13v-34.46a10 10 0 0 1 9.93-9.93h76.75a10 10 0 0 0 0-20H97.72V254a73.17 73.17 0 0 0 14.75 1.41c21 0 31.84-7.25 41.43-13.64 8.62-5.74 15.42-10.28 30.33-10.28s21.72 4.54 30.33 10.28c9.59 6.39 20.46 13.64 41.43 13.64s31.84-7.25 41.43-13.64c8.62-5.74 15.42-10.28 30.33-10.28s21.72 4.54 30.34 10.28c9.59 6.39 20.46 13.64 41.43 13.64a73.22 73.22 0 0 0 14.76-1.41v46.63H217.13a10 10 0 1 0 0 20h234.22a10 10 0 0 1 9.93 9.93V365z" transform="translate(0 -10.61)"/><path class="cls-1" d="M97.53 456.54a10.1 10.1 0 0 0-.57-1.87 9.86 9.86 0 0 0-2.17-3.25 10 10 0 0 0-14.14 0 10 10 0 0 0-2.16 3.25 10.1 10.1 0 0 0-.57 1.87 10.15 10.15 0 0 0 0 3.91 10.1 10.1 0 0 0 .57 1.87 10 10 0 0 0 2.16 3.25 10.08 10.08 0 0 0 7.08 2.93 9.93 9.93 0 0 0 1.95-.2 10.1 10.1 0 0 0 5.11-2.73 9.86 9.86 0 0 0 2.21-3.25 10.1 10.1 0 0 0 .57-1.87 9.66 9.66 0 0 0 0-3.91zM205 426.64a10.1 10.1 0 0 0-.57-1.87 10.63 10.63 0 0 0-.92-1.73 10.75 10.75 0 0 0-1.25-1.52 9.57 9.57 0 0 0-1.52-1.24 10.15 10.15 0 0 0-1.72-.92 10.58 10.58 0 0 0-1.87-.57 9.9 9.9 0 0 0-3.91 0 10.1 10.1 0 0 0-1.87.57 9.87 9.87 0 0 0-1.73.92 9.57 9.57 0 0 0-1.52 1.24 10 10 0 0 0-1.24 1.52 10.63 10.63 0 0 0-.92 1.73 10.1 10.1 0 0 0-.57 1.87 9.66 9.66 0 0 0 0 3.91 10.1 10.1 0 0 0 .57 1.87 10.63 10.63 0 0 0 .92 1.73 10 10 0 0 0 1.24 1.52 10.15 10.15 0 0 0 1.52 1.24 9.87 9.87 0 0 0 1.73.92 10.1 10.1 0 0 0 1.87.57 9.85 9.85 0 0 0 1.95.2 10 10 0 0 0 2-.2 10.58 10.58 0 0 0 1.87-.57 10.14 10.14 0 0 0 3.24-2.16 10.75 10.75 0 0 0 1.25-1.52 10.63 10.63 0 0 0 .92-1.73 10.1 10.1 0 0 0 .57-1.87 10.15 10.15 0 0 0 0-3.91zm115.62 29.9a10.1 10.1 0 0 0-.57-1.87 10 10 0 0 0-2.16-3.25 10.15 10.15 0 0 0-1.52-1.24 9.87 9.87 0 0 0-1.73-.92 10.1 10.1 0 0 0-1.87-.57 9.9 9.9 0 0 0-3.91 0 10.58 10.58 0 0 0-1.87.57 10.14 10.14 0 0 0-3.24 2.16 11.35 11.35 0 0 0-1.25 1.52 10.63 10.63 0 0 0-.92 1.73 10.1 10.1 0 0 0-.57 1.87 10.15 10.15 0 0 0 0 3.91 10.1 10.1 0 0 0 .57 1.87 10.63 10.63 0 0 0 .92 1.73 10.75 10.75 0 0 0 1.25 1.52 9.57 9.57 0 0 0 1.52 1.24 10.15 10.15 0 0 0 1.72.92 10.58 10.58 0 0 0 1.87.57 9.95 9.95 0 0 0 10.27-4.3 10.63 10.63 0 0 0 .92-1.73 10.1 10.1 0 0 0 .57-1.87 9.65 9.65 0 0 0 0-3.91zm113.46-23.92a10.1 10.1 0 0 0-.57-1.87 10.24 10.24 0 0 0-.92-1.73 10 10 0 0 0-15.39-1.52 10.68 10.68 0 0 0-1.2 1.5 10.24 10.24 0 0 0-.92 1.73 10.1 10.1 0 0 0-.57 1.87 9.84 9.84 0 0 0-.19 2 9.94 9.94 0 0 0 .19 2 10 10 0 0 0 1.49 3.59 10.77 10.77 0 0 0 1.24 1.53 11.28 11.28 0 0 0 1.52 1.24 10.63 10.63 0 0 0 1.73.92 10.1 10.1 0 0 0 1.87.57 9.94 9.94 0 0 0 2 .19 10 10 0 0 0 9.23-6.17 10.34 10.34 0 0 0 .57-1.87 10 10 0 0 0 .2-2 9.84 9.84 0 0 0-.28-1.98zm-99.5-163.46a10.58 10.58 0 0 0-.57-1.87 10 10 0 0 0-2.17-3.24 9.63 9.63 0 0 0-1.52-1.25 10.15 10.15 0 0 0-1.72-.92 10.58 10.58 0 0 0-1.87-.57 9.9 9.9 0 0 0-3.91 0 10.1 10.1 0 0 0-1.87.57 9.87 9.87 0 0 0-1.73.92 9.93 9.93 0 0 0-2.76 2.77 10.15 10.15 0 0 0-.92 1.72 10.58 10.58 0 0 0-.57 1.87 10 10 0 0 0-.2 2 9.85 9.85 0 0 0 .2 2 10.1 10.1 0 0 0 .57 1.87 10.24 10.24 0 0 0 .92 1.73 9.72 9.72 0 0 0 2.76 2.76 9.87 9.87 0 0 0 1.73.92 10.1 10.1 0 0 0 1.87.57 9.85 9.85 0 0 0 2 .2 10 10 0 0 0 2-.2 10.58 10.58 0 0 0 1.87-.57 10.14 10.14 0 0 0 1.72-.92 9.57 9.57 0 0 0 1.52-1.24 9.86 9.86 0 0 0 2.17-3.25 10.1 10.1 0 0 0 .57-1.87 9.84 9.84 0 0 0 .19-2 10 10 0 0 0-.28-2zM204 255.54a10.1 10.1 0 0 0-.57-1.87 10.63 10.63 0 0 0-.92-1.73 9.72 9.72 0 0 0-2.76-2.76 10.63 10.63 0 0 0-1.73-.92 10.1 10.1 0 0 0-1.87-.57 9.9 9.9 0 0 0-3.91 0 10.1 10.1 0 0 0-1.87.57 9.93 9.93 0 0 0-5.41 5.41 10.1 10.1 0 0 0-.57 1.87 10.15 10.15 0 0 0 0 3.91 10.1 10.1 0 0 0 .57 1.87 10.63 10.63 0 0 0 .92 1.73 9.72 9.72 0 0 0 2.76 2.76 10.64 10.64 0 0 0 1.73.92 10.1 10.1 0 0 0 1.87.57 10 10 0 0 0 2 .2 9.85 9.85 0 0 0 1.95-.2 10.1 10.1 0 0 0 1.87-.57 10 10 0 0 0 3.25-2.16 11.28 11.28 0 0 0 1.24-1.52 10.63 10.63 0 0 0 .92-1.73 10.1 10.1 0 0 0 .57-1.87 10.15 10.15 0 0 0 0-3.91z" transform="translate(0 -10.61)"/></svg>