<svg id="Capa_1" data-name="Capa 1" xmlns="http://www.w3.org/2000/svg" viewBox="0 0 512 418.13"><defs><style>.cls-1{fill:#d80027}</style></defs><title>cheese</title><path class="cls-1" d="M437.09 53.83l-4.39-4.39a8.53 8.53 0 0 0-9.39-1.81l-145.44 62.29a8.53 8.53 0 0 0-5.12 8.81 45.29 45.29 0 0 1 .32 5A42.67 42.67 0 0 1 197.59 151a8.53 8.53 0 0 0-9.92-2.38L5.24 226.8h-.06a8.41 8.41 0 0 0-2.56 1.71 8.15 8.15 0 0 0-.57.75A8.11 8.11 0 0 0 .86 231a7.58 7.58 0 0 0-.35 1.08 8.22 8.22 0 0 0-.4 2c0 .19-.11.35-.11.54v221.91a8.53 8.53 0 0 0 8.53 8.53h51.2a8.53 8.53 0 0 0 8.53-8.53 42.67 42.67 0 0 1 85.33 0 8.53 8.53 0 0 0 8.53 8.53h341.35a8.53 8.53 0 0 0 8.53-8.53V234.67a254.06 254.06 0 0 0-74.91-180.84zM188.88 166.65a59.73 59.73 0 0 0 101.26-42.92v-.47l134.57-57.67.32.31a237 237 0 0 1 69.75 160.24H50.11zM494.93 448H170.06a59.73 59.73 0 0 0-118.25 0H17.07V243.2h477.86z" transform="translate(0 -46.94)"/><path class="cls-1" d="M76.8 268.8a34.13 34.13 0 1 0 34.13 34.13A34.13 34.13 0 0 0 76.8 268.8zm0 51.2a17.07 17.07 0 1 1 17.07-17.07A17.07 17.07 0 0 1 76.8 320zm264.53 42.66a34.13 34.13 0 1 0 34.13 34.13 34.13 34.13 0 0 0-34.13-34.13zm0 51.2a17.07 17.07 0 1 1 17.07-17.06 17.07 17.07 0 0 1-17.07 17.06zm85.34-145.06a42.67 42.67 0 1 0 42.67 42.67 42.67 42.67 0 0 0-42.67-42.67zm0 68.27a25.6 25.6 0 1 1 25.6-25.6 25.6 25.6 0 0 1-25.6 25.59zm-204.8-42.67a42.67 42.67 0 1 0 42.67 42.67 42.67 42.67 0 0 0-42.67-42.67zm0 68.27a25.6 25.6 0 1 1 25.6-25.6 25.6 25.6 0 0 1-25.6 25.59z" transform="translate(0 -46.94)"/></svg>