<svg id="Layer_1" data-name="Layer 1" xmlns="http://www.w3.org/2000/svg" viewBox="0 0 512 511.71"><defs><style>.cls-1{fill:#d80027}</style></defs><title>cherries</title><path class="cls-1" d="M187.73 452.12c-5.12 0-8.53 3.41-8.53 8.53s3.41 8.53 8.53 8.53 8.53-3.41 8.53-8.53-3.41-8.53-8.53-8.53zm170.67-102.4c-5.12 0-8.53 3.41-8.53 8.53s3.41 8.53 8.53 8.53 8.53-3.41 8.53-8.53-3.41-8.53-8.53-8.53zm-145.07 25.6a32.51 32.51 0 0 0 14.51-3.41c13.65-6 21.33-17.92 20.48-31.57a10 10 0 0 0-9.39-7.68 9.28 9.28 0 0 0-7.68 9.39c.85 9.39-6 13.65-10.24 15.36a18.57 18.57 0 0 1-19.63-4.27c-3.41-4.27-8.53-4.27-11.95-.85-4.27 3.41-4.27 8.53-.85 11.95 5.98 7.67 15.37 11.08 24.75 11.08zM95.57 341.19a32.51 32.51 0 0 0 14.51-3.41c13.65-6 21.33-17.92 20.48-31.57a10 10 0 0 0-9.39-7.68 9.28 9.28 0 0 0-7.68 9.39c.85 9.39-6 13.65-10.24 15.36A18.57 18.57 0 0 1 83.63 319c-3.41-4.27-8.53-4.27-11.95-.85-4.27 3.41-4.27 8.53-.85 11.95 5.97 7.67 15.36 11.09 24.74 11.09zM419 289.13a10 10 0 0 0-9.39-7.68 9.28 9.28 0 0 0-7.68 9.39 16 16 0 0 1-10.24 17.07 18.57 18.57 0 0 1-19.63-4.27c-3.41-4.27-8.53-4.27-11.95-.85-4.27 3.41-4.27 8.53-.85 11.95 6 7.68 15.36 11.09 24.75 11.09a32.51 32.51 0 0 0 14.51-3.41c13.64-5.13 21.32-18.78 20.48-33.29z" transform="translate(0 -.14)"/><path class="cls-1" d="M409.6 247.32a101.65 101.65 0 0 0-57.67 17.91c-86.23-45.47-126-100-129.77-176.42a138 138 0 0 0 38.1 5.76c17.07 0 33.28-4.27 47.79-10.24 21.33-11.95 35.84-31.57 41-58 0-4.27-.85-7.68-4.27-9.39-29-17.07-58.88-21.33-86.19-9.39-21.06 8.56-37 25.24-46.38 47.3-16.66-27.48-38.89-46.09-62.88-52.44-22.19-6-46.08 0-67.41 16.21A9 9 0 0 0 78.51 28c15.36 35 40.11 58.88 69.12 67.41a65.2 65.2 0 0 0 19.47 3.39c-41.15 34.85-74.21 85.31-80.63 175.37C37.64 281.88 0 324.42 0 375.32c0 56.32 46.08 102.4 102.4 102.4a91.85 91.85 0 0 0 37.11-7.61 102.42 102.42 0 0 0 82.36 41.74c56.32 0 102.4-46.08 102.4-102.4 0-1.14 0-2.28-.06-3.41a102.52 102.52 0 0 0 85.4 46.08c56.32 0 102.4-46.08 102.4-102.4s-46.09-102.4-102.41-102.4zM264.53 22c19.63-8.53 42.67-6.83 64.85 6-5.11 17.93-15.38 31.59-30.71 40.12-20.48 11.09-46.93 11.95-75.09 3.41 6.82-23.04 21.33-40.96 40.95-49.53zM97.28 28c16.21-10.24 31.57-13.65 47.79-9.39 21.33 5.12 42.67 25.6 57.17 54.61-16.21 8.53-33.28 11.09-49.49 6-22.19-5.98-41.82-24.75-55.47-51.22zm89 77.25c-39.82 72.39-52.49 132.32-37.54 178.75a102.41 102.41 0 0 0-45.14-11.08c6.3-85.48 37.04-132.87 82.65-167.66zm-83.88 355.4a85.58 85.58 0 0 1-85.33-85.33c0-41.18 29.56-75.78 68.51-83.65-.16 5-.25 10.13-.25 15.38s3.41 8.53 8.53 8.53 8.53-3.41 8.53-8.53q0-8.76.29-17.06A85.92 85.92 0 0 1 169 321.56a103.38 103.38 0 0 0-45.6 59.84l-.08.27a79.056 79.056 0 0 0-.78 2.91q-.35 1.41-.67 2.83c-.13.6-.27 1.21-.39 1.82l-.21 1.11q-.19 1-.36 2c-.06.33-.11.65-.16 1q-.2 1.24-.37 2.48c0 .16 0 .32-.07.48q-.2 1.52-.35 3.06c0 .2 0 .39-.05.59q-.11 1.22-.2 2.45c0 .31 0 .61-.06.92q-.07 1.11-.11 2.23v.89c0 1-.05 2-.05 3.06v2.68a96.58 96.58 0 0 0 9 39.15q1 2.16 2 4.27a81.91 81.91 0 0 1-28.09 5.05zm119.47 34.13a85.4 85.4 0 0 1-70.32-37.16 4.83 4.83 0 0 0-1.36-2.95c-8.76-12.74-13.05-27.7-13.59-42.81v-2.75a85.55 85.55 0 0 1 46.23-75.43 100.61 100.61 0 0 0 28 16h2.56c3.41 0 6.83-2.56 6.83-5.12a8.54 8.54 0 0 0-5.22-11.05c-.68 0-6.46-1.93-14.06-6.77a85.33 85.33 0 1 1 20.89 168.05zm0-187.73a101.46 101.46 0 0 0-36.62 6.81 89.8 89.8 0 0 1-19.71-31.56c-15.49-43.36-1.46-104.28 40.79-177.67 8.27 73 50.23 127.87 131.5 172.21a102.1 102.1 0 0 0-30.64 72.87c0 1.14 0 2.28.06 3.41a102.53 102.53 0 0 0-85.38-46.07zm187.73 128a85.22 85.22 0 0 1-55.69-149.82q12.76 6.36 26.68 12.44c.85.85 2.56.85 3.41.85 3.41 0 6.83-1.71 7.68-5.12 1.71-4.27 0-9.39-4.27-11.09q-9-4-17.5-8a84.54 84.54 0 0 1 39.68-9.87 85.33 85.33 0 1 1 0 170.67z" transform="translate(0 -.14)"/><path class="cls-1" d="M469.33 341.19c-5.12 0-8.53 3.41-8.53 8.53a51.35 51.35 0 0 1-51.2 51.2c-5.12 0-8.53 3.41-8.53 8.53s3.41 8.53 8.53 8.53a68.47 68.47 0 0 0 68.27-68.27c0-5.11-3.42-8.52-8.54-8.52zm-196.26 68.26a51.35 51.35 0 0 1-51.2 51.2c-5.12 0-8.53 3.41-8.53 8.53s3.41 8.53 8.53 8.53a68.47 68.47 0 0 0 68.27-68.27c0-5.12-3.41-8.53-8.53-8.53s-8.54 3.42-8.54 8.54zM102.4 426.52a51.35 51.35 0 0 1-51.2-51.2c0-5.12-3.41-8.53-8.53-8.53s-8.53 3.41-8.53 8.53a68.47 68.47 0 0 0 68.27 68.27c5.12 0 8.53-3.41 8.53-8.53s-3.42-8.54-8.54-8.54z" transform="translate(0 -.14)"/></svg>