<svg id="Layer_1" data-name="Layer 1" xmlns="http://www.w3.org/2000/svg" viewBox="0 0 512 421.57"><defs><style>.cls-1{fill:#d80027}</style></defs><title>children</title><path class="cls-1" d="M461.38 67.22a8.11 8.11 0 1 0-8.9 13.55c22 14.48 36.27 35.17 41.28 59.5a115.06 115.06 0 0 0-12.6-8.32c-24-13.6-49.16-15.73-72.83-6.15-33.22 13.44-49.64 6.06-59.1-.66a60.83 60.83 0 0 1-7.85-6.71 8.11 8.11 0 0 0-11.47 11.46c1.44 1.44 2.87 2.76 4.31 4-8.54 11.88-28.51 17.12-40.3 18.8-4.48-8.78-13.1-29.13-6.14-44.8 15.22-34.29 62.3-46.46 97.94-46.46a126 126 0 0 1 49 9.87 8.11 8.11 0 0 0 6.36-14.92 142.39 142.39 0 0 0-55.37-11.16C321 45.21 285 74.2 273 101.32c-10.82 24.35 3.35 53.25 8.15 61.84l-.66 6.79a29.48 29.48 0 0 0-5.49 57.22 77.74 77.74 0 0 0 31.61 69.51l1.72 1.25a70.72 70.72 0 0 0-41 64.07v96.69a8.11 8.11 0 0 0 8.11 8.11h208.83a8.11 8.11 0 0 0 8.11-8.11V362a70.26 70.26 0 0 0-11.67-38.88 8.11 8.11 0 1 0-13.52 8.94 54.11 54.11 0 0 1 9 29.94v43.7h-24.28v-30.37a8.11 8.11 0 1 0-16.21 0v75.25H324v-75.25a8.11 8.11 0 1 0-16.21 0v30.37h-24.26V362a54.48 54.48 0 0 1 30.89-49 66.23 66.23 0 0 0 7.13 20.78 8.11 8.11 0 0 0 14.23-7.78 49.68 49.68 0 0 1-4.45-11.3l12.84 9.3a60.53 60.53 0 0 0 71.36 0l12.85-9.33a50.22 50.22 0 0 1-48.52 37.52 49.59 49.59 0 0 1-31.24-10.92 8.11 8.11 0 0 0-10.11 12.67 66.34 66.34 0 0 0 106.79-41 54.48 54.48 0 0 1 6.93 4 8.11 8.11 0 1 0 9.08-13.43 70.53 70.53 0 0 0-9.89-5.57l1.71-1.24a77.73 77.73 0 0 0 31.61-69.51 29.48 29.48 0 0 0-5.51-57.19l-.91-9.4a8.11 8.11 0 1 0-16.14 1.56l6.38 66a61.46 61.46 0 0 1-25 55.42L406 310.88a44.36 44.36 0 0 1-52.3 0l-37.6-27.32a61.47 61.47 0 0 1-25-55.42l5.75-59.52c12.41-1.87 38.24-7.81 50.74-25.56 18.25 9.27 40.21 8.52 66.79-2.24 19-7.7 38.66-6 58.32 5a100.09 100.09 0 0 1 24.95 19.89 8.11 8.11 0 0 0 14.35-5.22c0-38.71-18-71.83-50.62-93.27zM276.6 210a13.27 13.27 0 0 1 2.22-22.94zm175.32 211.9h24.25v28.67h-24.25zm-144.13 0v28.67h-24.26V421.9zM488.7 199.18a13.24 13.24 0 0 1-5.61 10.82l-2.21-22.93a13.28 13.28 0 0 1 7.82 12.11z" transform="translate(0 -45.21)"/><path class="cls-1" d="M339.07 206.75a8.11 8.11 0 0 0-8.11 8.11v11a8.11 8.11 0 1 0 16.21 0v-11a8.11 8.11 0 0 0-8.1-8.11zm102.99-24.19a30.32 30.32 0 0 0-42.88 0A8.11 8.11 0 0 0 410.65 194a14.1 14.1 0 0 1 19.95 0 8.11 8.11 0 0 0 11.47-11.46zm-81.55 0a30.32 30.32 0 0 0-42.88 0A8.1 8.1 0 1 0 329.09 194a14.11 14.11 0 0 1 20 0 8.11 8.11 0 0 0 11.47-11.46zm60.11 24.19a8.11 8.11 0 0 0-8.11 8.11v11a8.11 8.11 0 1 0 16.21 0v-11a8.11 8.11 0 0 0-8.1-8.11zm-17.23 62.61a8.11 8.11 0 0 0-11.46 0 17.1 17.1 0 0 1-24.16 0 8.11 8.11 0 1 0-11.46 11.46 33.33 33.33 0 0 0 47.09 0 8.1 8.1 0 0 0-.01-11.46zm-16.68-61.69a8.11 8.11 0 0 0-8.11 8.11v19.38H373a8.11 8.11 0 0 0 0 16.21h13.74a8.11 8.11 0 0 0 8.11-8.11v-27.48a8.11 8.11 0 0 0-8.14-8.11zm-200.26 24.97a29.1 29.1 0 0 0-41.16 0 8.1 8.1 0 1 0 11.46 11.46 12.89 12.89 0 0 1 18.23 0 8.11 8.11 0 0 0 11.46-11.46zm-77.09 0a29.1 29.1 0 0 0-41.16 0 8.1 8.1 0 0 0 11.46 11.46 12.89 12.89 0 0 1 18.23 0 8.11 8.11 0 0 0 11.46-11.46zm40.53 53.18a8.11 8.11 0 0 0-11.46 0 15.72 15.72 0 0 1-22.21 0 8.1 8.1 0 0 0-11.46 11.46 31.92 31.92 0 0 0 45.14 0 8.11 8.11 0 0 0-.01-11.46zm-17.08-35.36h-11a8.11 8.11 0 1 0 0 16.21h11a8.11 8.11 0 1 0 0-16.21z" transform="translate(0 -45.21)"/><path class="cls-1" d="M254.64 216.18a28.33 28.33 0 0 0-15.13-25L250 176.71a23 23 0 0 0-16.18-36.5 8.11 8.11 0 0 0-1.72 16.12 6.84 6.84 0 0 1 4.8 10.83l-17.56 24.08A6.84 6.84 0 0 1 207.6 190l-12.39-27.93a26.56 26.56 0 0 0 6.54-9l8.25.93a8.26 8.26 0 0 0 .87 0 8.11 8.11 0 0 0 .85-16.17l-8.25-.88a26.42 26.42 0 0 0-28.65-20.89l-12.37-27.89a23 23 0 0 0-39.7-4.23L105.2 108a23 23 0 0 0 16.19 36.49l30.36 3.24a26.25 26.25 0 0 0 2 6c-20.58 20.18-55.46 39.93-108.68 28a86.34 86.34 0 0 1 48.69-53.62 8.11 8.11 0 0 0-6.32-14.93 102.56 102.56 0 0 0-60.63 74.7 28.31 28.31 0 0 0-6.39 55.47 81.76 81.76 0 0 0 33.47 70.89l6.4 4.65a67.3 67.3 0 0 0-39.81 61.35v17.58a8.11 8.11 0 0 0 16.21 0v-17.55a51.06 51.06 0 0 1 28.42-45.71 63.16 63.16 0 0 0 120.38 13.63 8.11 8.11 0 0 0-14.93-6.32 46.94 46.94 0 0 1-88.92-7.45l9.18 6.67a61.9 61.9 0 0 0 73 0l14.46-10.51a51 51 0 0 1 39.66 49.67v70.3h-22v-57.7a8.11 8.11 0 0 0-16.21 0v57.7H75v-57.7a8.11 8.11 0 0 0-16.21 0v57.7h-22V427.5a8.11 8.11 0 0 0-16.21 0v31.19a8.11 8.11 0 0 0 8.11 8.11H226a8.11 8.11 0 0 0 8.11-8.11v-78.42a67.3 67.3 0 0 0-39.81-61.35l6.4-4.65a81.76 81.76 0 0 0 33.47-70.9 28.25 28.25 0 0 0 20.47-27.19zM22.18 226.62a12.1 12.1 0 0 1 2.43-22zm155.43-94.47a10.21 10.21 0 1 1-10.21 10.21 10.22 10.22 0 0 1 10.21-10.21zm-24.14-.52l-30.37-3.23a6.84 6.84 0 0 1-4.8-10.83l17.56-24.09a6.84 6.84 0 0 1 11.78 1.26L160 122.67a26.54 26.54 0 0 0-6.53 8.97zm37.73 169.53L154.27 328a45.73 45.73 0 0 1-53.9 0l-36.92-26.84a65.51 65.51 0 0 1-26.55-60.07l4.75-43c0-.16 0-.31.06-.47a159.46 159.46 0 0 0 34.85 4.06c30.55 0 54.31-10 72.16-22.62a87 87 0 0 0 23.64 20.08 8.11 8.11 0 1 0 8.09-14.05 71.28 71.28 0 0 1-19.1-16.21q1.83-1.67 3.55-3.35a26.26 26.26 0 0 0 12.71 3.26 26.7 26.7 0 0 0 2.79-.15l12.38 27.92a22.82 22.82 0 0 0 18.63 13.57 23.93 23.93 0 0 0 2.53.13h.42l3.41 30.82a65.52 65.52 0 0 1-26.57 60.08zm41.26-74.54L230 204.67a12.1 12.1 0 0 1 2.43 21.95z" transform="translate(0 -45.21)"/></svg>