<svg id="Capa_1" data-name="Capa 1" xmlns="http://www.w3.org/2000/svg" viewBox="0 0 512 511.77"><defs><style>.cls-1{fill:#d80027}</style></defs><title>confetti</title><path class="cls-1" d="M1.94 481.08a21.65 21.65 0 0 0-1.94 9 21.89 21.89 0 0 0 22 21.82 21.63 21.63 0 0 0 8.44-1.7l264.19-110.8-173.37-182.53zm113.53-175.4a24.64 24.64 0 0 1-27.34 24.6l19.33-42.8a24.84 24.84 0 0 1 8.01 18.2zM57.74 429.4A24.77 24.77 0 0 1 33 454.15h-.78L51 412.48a24.83 24.83 0 0 1 6.74 16.92zM165 435.86a24.71 24.71 0 0 1 40.67-17.06zm9-139.47a41.22 41.22 0 0 0 11.53 61.49l8.26-14.27a24.74 24.74 0 0 1-8.26-35.08l33.21 35a24.75 24.75 0 0 1-12.57 3.44v16.5a41.25 41.25 0 0 0 24.11-7.79l35.91 37.8L222 412a41.22 41.22 0 0 0-73.19 30.69L24.07 495a5.56 5.56 0 0 1-2.24.41 5.33 5.33 0 0 1-4.83-7.54l8.13-18a41.23 41.23 0 0 0 33-73.16l23-50.95A41.21 41.21 0 0 0 114.46 272l11.72-26zm143.2-98.49l37.46 66.92 37.46-66.92 75.95.68-38.55-66.12 38.55-66.11-75.94.65L354.67.12 317.2 67l-75.95-.68 38.55 66.12-38.55 66.11zM270.12 83.11l56.71.51 27.84-49.74 27.84 49.74 56.71-.51-28.79 49.36 28.79 49.36-56.71-.51-27.84 49.74-27.84-49.74-56.71.5 28.79-49.36z" transform="translate(0 -.12)"/><path class="cls-1" d="M336.45 164.74l18.22 32.56 18.22-32.56 37.45.34-19-32.6 19-32.6-37.45.34-18.22-32.57-18.22 32.56-37.45-.33 19 32.6-19 32.6zm-8.59-48.11l18.21.16 8.59-15.37 8.59 15.37 18.21-.16-9.25 15.84 9.25 15.84-18.21-.16-8.59 15.37-8.59-15.37-18.21.16 9.25-15.84zM173.21 223.2v-4.87A135.08 135.08 0 0 0 88.3 92.93l-2.76-1.11-6.12 15.32 2.75 1.1a118.58 118.58 0 0 1 74.54 110.1v4.87zm185.88 149.47a87.29 87.29 0 0 0-62.16-25.75h-8.25v16.5h8.25a70.93 70.93 0 0 1 50.49 20.91l2.83 2.83a70.94 70.94 0 0 1 20.92 50.49h16.5a87.29 87.29 0 0 0-25.74-62.15zm-225.4-266L165 89.38l31.27 17.29-6-36.53 24.79-25.41-34.31-5.25L165 5.83l-15.8 33.65-34.31 5.25 24.79 25.41zm26.67-52.21l4.59-9.8 4.6 9.79 11.28 1.72-8.2 8.4 1.83 11.22-9.46-5.25-9.51 5.26 1.83-11.22-8.2-8.4zM512 308.67l-34.31-5.25-15.8-33.65-15.8 33.65-34.31 5.25 24.79 25.41-6 36.53 31.27-17.29 31.27 17.29-6-36.53zm-40.59 31.07l-9.52-5.26-9.51 5.27 1.83-11.22-8.2-8.4 11.28-1.72 4.59-9.8 4.6 9.79 11.28 1.72-8.2 8.4zM183.87 217.37L195.54 229l6.24-6.24a70.9 70.9 0 0 0 20.92-50.46 71.74 71.74 0 0 0-28.55-57.13l-7.74-5.8-9.9 13.2 7.73 5.8a55.17 55.17 0 0 1 22 43.93 54.55 54.55 0 0 1-16.08 38.82zm213.54 86.4a77.94 77.94 0 0 0-110.23 0l-4.33 4.33 11.66 11.66 4.33-4.33a61.45 61.45 0 0 1 86.9 0l4.33 4.33 11.66-11.66z" transform="translate(0 -.12)"/><path class="cls-1" d="M41.24 49.88h16.5v24.74h-16.5z"/><path class="cls-1" transform="rotate(-45 23.107 73.169)" d="M15 60.86h16.5V85.6H15z"/><path class="cls-1" d="M0 91.12h24.74v16.5H0z"/><path class="cls-1" transform="rotate(-45 23.1 125.661)" d="M10.87 117.47h24.74v16.5H10.87z"/><path class="cls-1" d="M41.24 124.11h16.5v24.74h-16.5z"/><path class="cls-1" transform="rotate(-45 75.593 125.668)" d="M67.49 113.35h16.5v24.74h-16.5z"/><path class="cls-1" transform="rotate(-45 75.597 73.217)" d="M63.36 65.02H88.1v16.5H63.36z"/><path class="cls-1" transform="rotate(-45 353.04 436.106)" d="M344.93 423.8h16.5v24.74h-16.5z"/><path class="cls-1" d="M329.92 454.03h24.74v16.5h-24.74z"/><path class="cls-1" transform="rotate(-45 353.02 488.564)" d="M340.79 480.38h24.74v16.5h-24.74z"/><path class="cls-1" d="M371.16 487.02h16.5v24.74h-16.5z"/><path class="cls-1" transform="rotate(-45 405.503 488.595)" d="M397.39 476.28h16.5v24.74h-16.5z"/><path class="cls-1" d="M404.16 454.03h24.74v16.5h-24.74z"/><path class="cls-1" transform="rotate(-45 405.517 436.12)" d="M393.29 427.93h24.74v16.5h-24.74z"/></svg>