<svg id="Layer_1" data-name="Layer 1" xmlns="http://www.w3.org/2000/svg" viewBox="0 0 512 474.85"><defs><style>.cls-1{fill:#bfbfbf}</style></defs><title>email</title><path class="cls-1" d="M508.2 215.27l-65.38-43.34V27.06a8.48 8.48 0 0 0-8.48-8.48H77.64a8.48 8.48 0 0 0-8.48 8.48v144.88L3.79 215.27A8.47 8.47 0 0 0 0 222.34v262.6a8.48 8.48 0 0 0 8.48 8.48h495a8.48 8.48 0 0 0 8.48-8.48v-262.6a8.47 8.47 0 0 0-3.8-7.07zm-439 29.66l-26.6-14.11h26.6zM17 236.44l195 103.44L17 469.14zM256 331l219.38 145.46H36.61L256 331zm44 8.84l195-103.4v232.71L300 339.88zm142.8-109.06h26.61l-26.61 14.11zm32.56-17h-32.53v-21.5zM425.87 35.54v218.4l-141.93 75.28-23.26-15.42a8.48 8.48 0 0 0-9.37 0l-23.26 15.42-141.93-75.29V35.54h339.75zM69.16 213.86H36.62l32.54-21.57z" transform="translate(0 -18.58)"/><path class="cls-1" d="M256 241.59h67.56a8.48 8.48 0 1 0 0-17H256a59.15 59.15 0 0 1-59.08-59.08V163a59.08 59.08 0 0 1 118.16 0v6.26a12.79 12.79 0 0 1-25.58 0v-11.85a36.69 36.69 0 1 0-12.5 27.53 29.74 29.74 0 0 0 55-15.64V163a76 76 0 0 0-152 0v2.5a76.13 76.13 0 0 0 76 76zm-3.13-64.5a19.67 19.67 0 1 1 19.67-19.67 19.69 19.69 0 0 1-19.67 19.66z" transform="translate(0 -18.58)"/></svg>