<svg id="Capa_1" data-name="Capa 1" xmlns="http://www.w3.org/2000/svg" viewBox="0 0 345.11 512"><defs><style>.cls-1{fill:#d80027}</style></defs><title>employee</title><path class="cls-1" d="M421.05 414.84a7.5 7.5 0 0 0-7.5 7.5v70.51a4.15 4.15 0 0 1-4.14 4.14H369.1V349.3a7.5 7.5 0 0 0-15 0V497h-81.19l23.54-25.9a13.45 13.45 0 0 0 3.24-10.79v-.23l-22.45-132.46 6-9.09c3.34 2.37 5.91 4.66 10.74 4.66a13.13 13.13 0 0 0 11.76-7.27l23.65-47.4 53.88 20.86c1.95.84 30.25 13.58 30.25 47.24v50.73a7.5 7.5 0 0 0 15 0v-50.74c0-44.34-38-60.46-39.58-61.13l-.14-.06-89.64-34.72v-21a70.27 70.27 0 0 0 26.6-46.23 32.47 32.47 0 0 0 19.07-7.78 31.84 31.84 0 0 0 3.32-44.93V93a93 93 0 1 0-185.9 0v28.51a30.11 30.11 0 0 0-7.73 20.07 31.78 31.78 0 0 0 11.06 24.13 32.45 32.45 0 0 0 19.06 7.77 69.53 69.53 0 0 0 28.12 47.34v19.88l-89.57 34.72-.14.06c-1.62.67-39.58 16.78-39.58 61.13v156.24A19.16 19.16 0 0 0 102.59 512H174a7.5 7.5 0 1 0 0-15h-16.09V349.3a7.5 7.5 0 0 0-15 0V497h-40.32a4.15 4.15 0 0 1-4.14-4.14V336.61c0-33.77 28.49-46.49 30.24-47.23l53.83-20.87 23.65 47.4a13.13 13.13 0 0 0 11.76 7.27c4.8 0 7.35-2.25 10.74-4.66l6 9.09-22.38 132.47v.23a13.45 13.45 0 0 0 3.24 10.79L239 497h-30a7.5 7.5 0 0 0 0 15h200.41a19.16 19.16 0 0 0 19.14-19.14v-70.52a7.5 7.5 0 0 0-7.5-7.5zM315.38 263.07l-22 44.19-26.52-18.83L294 254.81zM271 309.83l-5.72 8.61h-18.7l-5.72-8.61 15.14-10.7zm-43.3-66.71v-14a76.1 76.1 0 0 0 28.36 5.38 70.41 70.41 0 0 0 28.05-5.85v14.57L256 278zm113.18-101.58a16.8 16.8 0 0 1-5.88 12.75 17.47 17.47 0 0 1-8.66 4V124.8a17 17 0 0 1 14.54 16.74zM184 158.28a17 17 0 0 1-14.5-16.74c0-8 6.65-14.54 14.5-16.36zm.4-48.38a37.08 37.08 0 0 0-7.17 1.61V93a78 78 0 1 1 155.9 0v18a33.34 33.34 0 0 0-6.76-1.31c0-7.24.06-5.84-23.61-31.29a13.34 13.34 0 0 0-17-2.08c-26.13 17.07-58 25.64-87.42 23.53a13.34 13.34 0 0 0-13.93 10.05zm14.6 54.28v-49.25c32.38 1.9 66.32-7.72 93.74-25.28 10.86 11.66 16.74 17.77 18.63 20.1v54.44a55.38 55.38 0 0 1-55.28 55.28c-34.18-.01-57.09-26.54-57.09-55.29zm19.62 143.07l-22-44.19 21.29-8.25 27.24 33.63zm8.6 154.44l21.71-128.26H263l21.72 128.27L256 493.32z" transform="translate(-83.45)"/></svg>