<svg id="Capa_1" data-name="Capa 1" xmlns="http://www.w3.org/2000/svg" viewBox="0 0 512 512"><defs><style>.cls-1{fill:#d80027}</style></defs><title>enterprise</title><path class="cls-1" d="M179.2 170.67h17.07v17.07H179.2zm0 34.13h17.07v17.07H179.2zm0 34.13h17.07V256H179.2zm0 34.14h17.07v17.07H179.2zm34.13-102.4h17.07v17.07h-17.07zm0 34.13h17.07v17.07h-17.07zm0 34.13h17.07V256h-17.07zm0 34.14h17.07v17.07h-17.07zm34.14-102.4h17.07v17.07h-17.07zm0 34.13h17.07v17.07h-17.07zm0 34.13h17.07V256h-17.07zm0 34.14h17.07v17.07h-17.07zm34.13-102.4h17.07v17.07H281.6zm-68.27-34.14h17.07v17.07h-17.07zm34.14 0h17.07v17.07h-17.07zm34.13 0h17.07v17.07H281.6zm0 68.27h17.07v17.07H281.6zm0 34.13h17.07V256H281.6zm0 34.14h17.07v17.07H281.6zm34.13-102.4h17.07v17.07h-17.07zm0 34.13h17.07v17.07h-17.07zm0 34.13h17.07V256h-17.07zm0 34.14h17.07v17.07h-17.07z"/><path class="cls-1" d="M503.48 128h-128V8.53A8.53 8.53 0 0 0 366.94 0H145.07a8.53 8.53 0 0 0-8.53 8.52V128H8.53A8.53 8.53 0 0 0 0 136.52v307.2a8.53 8.53 0 0 0 8.52 8.53h17.85a51.21 51.21 0 0 0-.77 8.53v42.67a8.53 8.53 0 0 0 8.52 8.55h443.75a8.53 8.53 0 0 0 8.53-8.52V460.8a51 51 0 0 0-.77-8.53h17.84a8.53 8.53 0 0 0 8.53-8.52V136.53a8.53 8.53 0 0 0-8.52-8.53zM366.93 366.93a17.07 17.07 0 1 1-17.07-17.07 17.07 17.07 0 0 1 17.07 17.07zm-204.8-17.07a17.07 17.07 0 1 1-17.07 17.07 17.07 17.07 0 0 1 17.07-17.06zm-51.2 145.07H42.67V460.8a34.13 34.13 0 0 1 68.27 0zm-51.2-102.4A17.07 17.07 0 1 1 76.8 409.6a17.07 17.07 0 0 1-17.07-17.07zm52.49 31.39a51.44 51.44 0 0 0-10.73-7.92 34.13 34.13 0 1 0-49.38 0 51.53 51.53 0 0 0-19.58 19.2H17.07V145.07h119.46v199.52a33.67 33.67 0 0 0 .91 45.78 51.34 51.34 0 0 0-25.21 33.55zm84 71H128V435.2a34.13 34.13 0 0 1 68.27 0zm102.4 0h-85.29V435.2a42.67 42.67 0 1 1 85.33 0zM230.4 349.87a25.6 25.6 0 1 1 25.6 25.6 25.6 25.6 0 0 1-25.6-25.6zm77.57 56a60.11 60.11 0 0 0-24.48-23.64 42.67 42.67 0 1 0-55 0A60.11 60.11 0 0 0 204 405.86a51.54 51.54 0 0 0-17.21-15.49A33.89 33.89 0 0 0 153.6 334V17.07h204.8V334a34 34 0 0 0-33.22 56.36 51.54 51.54 0 0 0-17.18 15.5zm76 54.94v34.13h-68.24V435.2a34.13 34.13 0 0 1 68.27 0zm85.33 34.13h-68.23V460.8a34.13 34.13 0 0 1 68.27 0zm-51.2-102.4a17.07 17.07 0 1 1 17.1 17.06 17.07 17.07 0 0 1-17.07-17.07zm76.8 42.67h-15.43A51.53 51.53 0 0 0 459.89 416a34.13 34.13 0 1 0-49.38 0 51.41 51.41 0 0 0-10.73 7.95 51.34 51.34 0 0 0-25.22-33.55 33.67 33.67 0 0 0 .91-45.78V145.07h119.46V435.2z"/><path class="cls-1" d="M401.07 196.27h17.07V332.8h-17.07zm51.2 0h17.07V332.8h-17.07zm-409.6 0h17.07V332.8H42.67zm51.2 0h17.07V332.8H93.87zM307.21 34.13H204.8a8.53 8.53 0 0 0-8.53 8.52v68.27a8.53 8.53 0 0 0 8.52 8.53H307.2a8.53 8.53 0 0 0 8.53-8.52V42.67a8.53 8.53 0 0 0-8.52-8.54zm-8.54 68.27h-85.34V51.2h85.33z"/></svg>