<svg id="Layer_1" data-name="Layer 1" xmlns="http://www.w3.org/2000/svg" viewBox="0 0 489.06 512"><defs><style>.cls-1{fill:#d80027}</style></defs><title>general</title><path class="cls-1" d="M460.22 407.69l-1.81-.51c-26.47-7.11-35.44-13.94-47.22-18.42-7.78-3-14.53-5.78-20.31-8.44l-35.48-35.1-.19-26c2.09-2.8 4.13-5.67 6.13-8.61 25.66-12.61 29.19-32.36 24.09-48.7a155.87 155.87 0 0 0 8.13-48.7 175.8 175.8 0 0 0-5.06-42.47l2.72-2a10.69 10.69 0 0 0 3.91-11.16c14.16-13.59 21.69-29.19 21.69-45.67 0-13.46-4.69-27.77-13.53-41.37-8.34-12.81-20.41-25.07-34.91-35.46C336.81 12.45 296.9 0 256 0s-80.8 12.45-112.37 35.05C129.11 45.45 117 57.7 108.71 70.52c-8.84 13.6-13.52 27.91-13.52 41.37 0 17 8 33.07 23 47a10.66 10.66 0 0 0 4.17 9.87l1.34 1a175.77 175.77 0 0 0-5.3 43.48 155.86 155.86 0 0 0 8.11 48.7c-5.11 16.34-1.59 36.08 24.11 48.66 2 2.94 4 5.81 6.11 8.61l-.19 27.44-32.83 32.47c-6.38 3-13.94 6.23-23 9.67-11.71 4.44-20.66 11.27-47.13 18.38l-1.81.51a58.51 58.51 0 0 0-40.3 55.53V512h489.06v-48.78a58.52 58.52 0 0 0-40.31-55.53zM356.56 288.81c-6.53 4.22-19.56 9.7-44.34 12-1.38.13-2.78.19-4.19.19-18.75 0-35.38-10.48-40.06-20.19-1.73-3.61-2.7-8.3 3.25-15.73a19.18 19.18 0 0 1 2.46-2.63 21.85 21.85 0 0 1 3.72 1.87c3.22 1.9 6.88 4.61 10.75 7.49 11.72 8.67 26.28 19.48 44.66 19.48a46.91 46.91 0 0 0 22.44-5.81 44 44 0 0 0 10.5-7.66c-.44 1.99-1.94 6.34-9.19 10.99zm-57.94 69.66a216.61 216.61 0 0 1-27.4 18.72c-7.83 4.44-12.89 6.44-15.23 7.16-2.33-.72-7.39-2.72-15.22-7.16a214.94 214.94 0 0 1-27.41-18.72c-9.55-7.63-17.52-15.34-23.08-22.28-5.88-7.34-7.36-11.81-7.44-13a18.12 18.12 0 0 1 .33-3c4.56.75 9.44 1.38 14.66 1.84 2 .19 4.06.28 6.11.28 20 0 40.17-8.69 52-21.72 11.89 13 32.07 21.72 52 21.72 2.06 0 4.09-.09 6.13-.28 5.22-.47 10.09-1.09 14.66-1.84a17.67 17.67 0 0 1 .31 3c-.06 1.14-1.53 5.61-7.41 13-5.48 6.94-13.48 14.65-23.01 22.28zm19.88 11.22l-23.41 41.41-17.53-13.1a232.41 232.41 0 0 0 40.94-28.31zm-83.13 28.84l-16.92 12.62-22.2-39.15a230.76 230.76 0 0 0 39.11 26.53zm-107-259.67c-6.88-7.52-11.84-16.55-11.84-27 0-19.52 14.77-41.76 39.52-59.48 27.58-19.75 64-31.07 100-31.07s72.38 11.32 99.94 31.07c24.75 17.72 39.53 40 39.53 59.48 0 10.1-4.66 18.9-11.22 26.28-14.3-17.71-46.37-41.62-115.69-44.22a32 32 0 1 0-23.78-.06c-71.06 2.34-102.75 27.02-116.47 45zm18.75 10.66a66.49 66.49 0 0 1 10.81-10.08C172.72 128.3 201.74 115 256 115s83.82 13.34 99 24.53a70.18 70.18 0 0 1 11 10zm205.69 21.33l-14.22 10.67H175l-14.2-10.67zM246.13 64.19a10.67 10.67 0 1 1 10.67 10.66 10.68 10.68 0 0 1-10.67-10.66zm-106.36 149a158.32 158.32 0 0 1 2.69-29.45l22.61 17a10.68 10.68 0 0 0 6.41 2.13h170.64a10.68 10.68 0 0 0 6.41-2.13l21.19-15.89a158.27 158.27 0 0 1 2.5 28.38 127.72 127.72 0 0 1-2.56 25c-3.78-3-7.59-4.7-10.84-4.7h-.28C342 234 334 251.22 334 251.22a24.36 24.36 0 0 1 7.16-1.1c11.41 0 18.41 8.8 4 16.58a25.48 25.48 0 0 1-12.31 3.24c-21.91 0-40.66-29-59.72-29-5.63 0-11.31 2.55-17.1 9.15-5.78-6.6-11.45-9.15-17.09-9.15-19.08 0-37.81 29-59.72 29a25.48 25.48 0 0 1-12.31-3.24c-14.42-7.78-7.45-16.58 4-16.58a24.51 24.51 0 0 1 7.16 1.1s-8-17.19-24.55-17.7h-.28c-3.25 0-7.06 1.73-10.83 4.71a126.69 126.69 0 0 1-2.64-25.03zm15.64 75.61c-7.25-4.66-8.72-9-9.17-11a44.05 44.05 0 0 0 10.5 7.66 46.86 46.86 0 0 0 22.44 5.81c18.38 0 33-10.81 44.66-19.48 3.88-2.88 7.53-5.59 10.73-7.49a23 23 0 0 1 3.73-1.87 17.85 17.85 0 0 1 2.45 2.63c6 7.44 5 12.13 3.25 15.73-4.66 9.7-21.31 20.19-40.06 20.19-1.41 0-2.81-.06-4.16-.19C175 298.52 162 293 155.41 288.81zM32.8 490.66v-27.44a37.16 37.16 0 0 1 25.33-35.16l1.19-.34a206.39 206.39 0 0 0 39.81-14.88c3.42-1.66 6.39-3.06 9.27-4.16 5.8-2.22 12.14-4.75 18.55-7.56l22.41 17.2-4.19 17.25a10.72 10.72 0 0 0 4.78 11.61l70.66 43.47H32.8zm134.92-57.58l4-16.47a10.68 10.68 0 0 0-3.88-11L145 388.08l23-22.7 59.09 104.22zm89.06 45.7l-27.73-48.94 27.75-20.69 27.69 20.66zm88.65-113.41l23 22.7-22.88 17.55a10.68 10.68 0 0 0-3.88 11l4 16.47-59.17 36.47zm133.76 125.29H292.93l70.53-43.49a10.69 10.69 0 0 0 4.75-11.59L364 418.33l21.91-16.83c6.09 2.69 12.13 5.08 17.69 7.19 2.84 1.09 5.81 2.5 9.22 4.16a207.61 207.61 0 0 0 39.81 14.88l1.22.34a37.17 37.17 0 0 1 25.31 35.16z" transform="translate(-11.47)"/><path class="cls-1" d="M256.8 424.2a10.66 10.66 0 1 0 10.67 10.67 10.68 10.68 0 0 0-10.67-10.67z" transform="translate(-11.47)"/></svg>