<svg id="Capa_1" data-name="Capa 1" xmlns="http://www.w3.org/2000/svg" viewBox="0 0 423.8 512"><defs><style>.cls-1{fill:#d80027}</style></defs><title>holiday</title><path class="cls-1" d="M379.28 256.09a8.53 8.53 0 0 0-16.26-.19l-75.83 230.15a8.53 8.53 0 0 0 4.81 10.52 196 196 0 0 0 152.45 0 8.53 8.53 0 0 0 4.83-10.33zM305.9 483.77l64.89-196.95 59.84 196.88a179.07 179.07 0 0 1-124.73.07zM295.12 306a54.5 54.5 0 0 0-7.39 77.32 8.53 8.53 0 1 0 13.07-11 37.44 37.44 0 0 1 5.08-53.12 54.5 54.5 0 0 0 7.21-77.53c47.6-9.77 84-59.86 84-120C397 54.61 351.76 0 296.1 0c-37.21 0-71.52 25-89 64.16-2.31-.19-4.64-.3-7-.3-55.67 0-101 54.61-101 121.74 0 65.5 43.12 119.07 96.93 121.63l7.93 9.3a37.44 37.44 0 0 1-4.88 53.36 54.5 54.5 0 0 0-7.39 77.32l29.13 34.73A8.53 8.53 0 1 0 234 471l-29.13-34.73a37.44 37.44 0 0 1 5.08-53.12 54.49 54.49 0 0 0 7.22-77.52c31.13-6.39 57.45-30 71.93-62.43 1 .08 2 .14 3 .19l7.93 9.3a37.44 37.44 0 0 1-4.91 53.31zm1-289c46.26 0 83.89 47 83.89 104.68s-37.65 104.73-83.91 104.73h-.84a143.84 143.84 0 0 0 5.84-40.79c0-57-32.7-105-76.68-118.17 15.11-30.91 42.42-50.39 71.68-50.39zm-96 273.22c-46.26 0-83.9-47-83.9-104.68s37.64-104.68 83.9-104.68 83.9 47 83.9 104.68-37.62 104.74-83.88 104.74z" transform="translate(-44.1)"/><path class="cls-1" d="M365.28 382.22a8.53 8.53 0 1 0-3.51 10.59 8.62 8.62 0 0 0 3.51-10.59c-.22-.52.21.52 0 0zm13.82 47.46a8.53 8.53 0 1 0 3.57-10.61 8.6 8.6 0 0 0-3.57 10.61zm-27.47 36.69a8.52 8.52 0 0 0-16.09 1c-2.07 7.42 6.52 13.68 13 9.36a8.61 8.61 0 0 0 3.14-10.36c-.26-.51.17.52-.05 0zM58.66 38.29A8.53 8.53 0 1 0 46.6 50.35l10.8 10.8a8.53 8.53 0 1 0 12.07-12.06zm375.21 47.54a8.5 8.5 0 0 0 6-2.5l10.8-10.8a8.53 8.53 0 0 0-12.06-12.06l-10.8 10.8a8.53 8.53 0 0 0 6 14.56zm-111.28 90.29a8.53 8.53 0 0 0 11.68-3l7.79-13.12a8.53 8.53 0 0 0-14.68-8.69l-7.78 13.15a8.53 8.53 0 0 0 2.99 11.66zM144.35 389.61l-10.8 10.8a8.53 8.53 0 0 0 12.06 12.06l10.8-10.8a8.53 8.53 0 1 0-12.06-12.06zM57.43 260.42A8.53 8.53 0 0 0 48.9 269v15.28a8.53 8.53 0 1 0 17.06 0V269a8.53 8.53 0 0 0-8.53-8.58zm401.94-36.17h-15.28a8.53 8.53 0 1 0 0 17.06h15.28a8.53 8.53 0 0 0 0-17.06zm-268.8-118.8H175.3a8.53 8.53 0 0 0 0 17.06h15.28a8.53 8.53 0 1 0 0-17.06z" transform="translate(-44.1)"/></svg>