<svg id="Capa_1" data-name="Capa 1" xmlns="http://www.w3.org/2000/svg" viewBox="0 0 512 512"><defs><style>.cls-1{fill:#d80027}</style></defs><title>lake</title><path class="cls-1" d="M300.43 119.88A40.85 40.85 0 1 0 259.58 79a40.9 40.9 0 0 0 40.85 40.88zm0-65.36A24.51 24.51 0 1 1 275.92 79a24.54 24.54 0 0 1 24.51-24.49z"/><path class="cls-1" d="M437 75A256 256 0 1 0 75 437 256 256 0 1 0 437 75zM256 495.66C123.85 495.66 16.34 388.15 16.34 256S123.85 16.34 256 16.34 495.66 123.85 495.66 256 388.15 495.66 256 495.66z"/><circle class="cls-1" cx="196.59" cy="244.77" r="8.17"/><circle class="cls-1" cx="168.45" cy="211.12" r="8.17"/><path class="cls-1" d="M314.16 201.64a8.17 8.17 0 0 0 11.16-3l33.46-58 80.07 138.46A8.17 8.17 0 1 0 453 271l-87.15-150.7a8.17 8.17 0 0 0-14.15 0l-40.53 70.21a8.17 8.17 0 0 0 2.99 11.13zM425.9 340.43a8.17 8.17 0 0 0-8.17-8.17H192.32a8.17 8.17 0 0 0 0 16.34h225.41a8.17 8.17 0 0 0 8.17-8.17zm-258.09 0a8.17 8.17 0 0 0-8.17-8.17H94.28a8.17 8.17 0 1 0 0 16.34h65.36a8.17 8.17 0 0 0 8.17-8.17zm-51.63 40.85h191.73a8.17 8.17 0 0 0 0-16.34H116.18a8.17 8.17 0 0 0 0 16.34zm114.26 16.34a8.17 8.17 0 0 0 0 16.34h129.64a8.17 8.17 0 0 0 0-16.34z"/><path class="cls-1" d="M471.28 302.71a8.17 8.17 0 0 0-6.43-3.14H47.15a8.17 8.17 0 0 0-7.93 10.14 224.06 224.06 0 0 0 86.37 127.45 8.17 8.17 0 1 0 9.57-13.25 207.9 207.9 0 0 1-77.28-108h396.25A206.61 206.61 0 0 1 256 463a204.24 204.24 0 0 1-94-22.64 8.17 8.17 0 1 0-7.45 14.54A222.9 222.9 0 0 0 394.58 431a224.82 224.82 0 0 0 78.2-121.29 8.17 8.17 0 0 0-1.5-7zM62 282.14a8.17 8.17 0 0 0 11.16-3l69.6-120.44 20.84 15.42a8.17 8.17 0 0 0 9.72 0l23.28-17.22 23.28 17.22a8.17 8.17 0 0 0 9.72 0l20.79-15.38 69.53 120.42a8.17 8.17 0 0 0 14.14-8.16L203.68 45.15a8.17 8.17 0 0 0-14.15 0L59 271a8.17 8.17 0 0 0 3 11.14zM196.6 65.57l45.56 78.92-17.43 12.89-23.28-17.22a8.17 8.17 0 0 0-9.72 0l-23.28 17.22L151 144.46z"/></svg>