<svg id="Capa_1" data-name="Capa 1" xmlns="http://www.w3.org/2000/svg" viewBox="0 0 511.99 474.18"><defs><style>.cls-1{fill:#d80027}</style></defs><title>lemon</title><path class="cls-1" d="M476.1 278.68h-12.77c17.87-59.58 13.56-119.3-12.12-166.56a44.88 44.88 0 0 0-61.59-65C302.73-6.56 177.23 18 88.16 107.09s-113.63 214.58-60 301.46a44.88 44.88 0 0 0 65 61.59c28.06 15.25 60.54 23 94.78 23 26 0 53.08-4.57 80-13.55a197.29 197.29 0 0 0 46.58 5.6C423.41 485.14 512 396.56 512 287.67v-9h-35.9zM206.87 382.62a143 143 0 0 1-35.69-86h121.68zm98.67-73.29v121.51a142.87 142.87 0 0 1-85.88-35.63zm18 0l85.88 85.88a142.87 142.87 0 0 1-85.88 35.63zm98.67 73.29l-86-86h121.65a143 143 0 0 1-35.68 86zM96.33 451.26l-6-3.58-8.5 8.5a26.93 26.93 0 1 1-38.08-38.09l7.36-7.39-4.11-6.13C-6 326 17.13 203.52 100.87 119.78S307.06 12.88 385.66 65.9l6.14 4.1 7.38-7.38a26.93 26.93 0 0 1 38.09 38.09l-8.5 8.5 3.58 6c26.92 45.12 31.27 104.38 12.19 163.44H117v9c0 4.49.21 8.92.5 13.34.07 1.1.16 2.2.25 3.3.35 4.21.8 8.39 1.42 12.53 0 .19 0 .38.07.57.66 4.34 1.5 8.62 2.44 12.86.22 1 .46 2 .7 3 .92 3.84 1.91 7.65 3.05 11.4.13.41.22.83.36 1.26 1.24 4 2.64 7.94 4.12 11.83a225.805 225.805 0 0 0 5.35 12.71c.39.85.75 1.71 1.16 2.56 1.68 3.49 3.48 6.9 5.36 10.27q1.17 2.1 2.4 4.16c1.37 2.34 2.81 4.64 4.27 6.92 1 1.56 2 3.12 3.06 4.66q2.73 4 5.65 7.82c1.11 1.47 2.26 2.91 3.41 4.34 1.55 1.93 3.14 3.81 4.76 5.67 1.32 1.52 2.64 3 4 4.51q3.31 3.59 6.8 7 1.71 1.67 3.46 3.29 3.59 3.38 7.36 6.57c.59.49 1.15 1 1.74 1.51 3.32 2.75 6.75 5.35 10.25 7.88l1.61 1.15a196.71 196.71 0 0 0 36.91 20.67c-51.4 11.63-101.7 5.35-141.13-18.17zm218.19 15.92a179 179 0 0 1-44.35-5.75q-7-1.79-13.76-4.1l-.82-.29q-6.53-2.26-12.82-5c-.39-.17-.75-.36-1.13-.53A179 179 0 0 1 212.3 435c-2.63-1.83-5.26-3.64-7.78-5.6-1.45-1.12-2.83-2.33-4.25-3.5-2.72-2.25-5.4-4.54-8-6.95-1.23-1.14-2.42-2.32-3.62-3.49-2.67-2.63-5.26-5.33-7.76-8.12-1-1.11-2-2.22-3-3.35-2.68-3.14-5.24-6.4-7.7-9.72-.66-.89-1.36-1.75-2-2.66a180 180 0 0 1-16.08-27.4c-.59-1.26-1.1-2.56-1.67-3.83-1.55-3.49-3-7-4.35-10.63-.66-1.78-1.25-3.57-1.85-5.38q-1.63-4.86-3-9.85c-.52-1.93-1-3.86-1.49-5.81-.82-3.49-1.5-7-2.11-10.6-.3-1.75-.66-3.48-.91-5.25-.75-5.33-1.33-10.72-1.6-16.18h18.19c4.7 84.91 75.06 152.59 161.11 152.59s156.42-67.69 161.11-152.59h18.19c-4.59 94.79-83.22 170.5-179.21 170.5z" transform="translate(0 -18.92)"/><path class="cls-1" d="M268.39 111.15c1.36-.21 2.73-.38 4-.54h1.25c1.16 0 2.32.12 3.38.22l1.61.25a18.61 18.61 0 0 0 2.59.24 36.23 36.23 0 0 0 4.87.33c12.45 0 22.76-6.75 26.91-18.26 2.69-7.46 1.85-16.69-2.2-24.08a24.22 24.22 0 0 0-15.87-12.45 93.39 93.39 0 0 0-35.72-1.55A27.43 27.43 0 0 0 241 66.59 28.59 28.59 0 0 0 235.89 88c2.6 15.08 17.11 25.44 32.5 23.15zM255.54 77.1a9.63 9.63 0 0 1 6.32-4 76.36 76.36 0 0 1 29.07 1.31 6.73 6.73 0 0 1 4.07 3.52 12.32 12.32 0 0 1 1.06 9.37c-2.76 7.63-10.92 6.65-14.3 5.89v.2h-.23c-1.13-.19-2.32-.36-2.77-.4-1.63-.14-3.25-.28-4.73-.3h-1.26l-2.18.12c-1.63.18-3.23.38-4.86.63a10.27 10.27 0 0 1-10.19-16.34z" transform="translate(0 -18.92)"/></svg>