<svg id="Capa_1" data-name="Capa 1" xmlns="http://www.w3.org/2000/svg" viewBox="0 0 512 476.04"><defs><style>.cls-1{fill:#d80027}</style></defs><title>like</title><path class="cls-1" d="M511.15 159.93C503.68 77.67 445.46 18 372.59 18c-48.54 0-93 26.12-118 68-24.79-42.43-67.41-68-115.18-68C66.55 18 8.32 77.66.86 159.92c-.59 3.63-3 22.76 4.35 53.94 10.61 45 35.13 85.89 70.89 118.29L254.47 494 435.9 332.16c35.75-32.41 60.27-73.31 70.89-118.3 7.37-31.17 4.94-50.3 4.36-53.93zm-23.53 49.42c-9.69 41.08-32.15 78.51-64.89 108.17l-168.14 150-165.26-150c-32.8-29.72-55.25-67.13-64.95-108.22-7-29.51-4.11-46.18-4.1-46.29l.15-1C26.83 90 76.86 37.67 139.41 37.67c46.15 0 86.78 28.36 106.06 74l9.07 21.5 9.07-21.5c19-44.94 61.75-74 109-74C435.14 37.68 485.18 90 491.71 163c.02.16 2.88 16.84-4.09 46.35z" transform="translate(0 -17.98)"/><path class="cls-1" d="M157.54 77.83a98.58 98.58 0 0 0-98.47 98.47 9.85 9.85 0 0 0 19.69 0 78.87 78.87 0 0 1 78.77-78.77 9.85 9.85 0 1 0 0-19.69z" transform="translate(0 -17.98)"/></svg>