<svg id="Capa_1" data-name="Capa 1" xmlns="http://www.w3.org/2000/svg" viewBox="0 0 512 511.99"><defs><style>.cls-1{fill:#fee500}</style></defs><title>mountain</title><path class="cls-1" d="M502 492H278.1l11.9-34h78.86a10 10 0 0 0 10-10 57.64 57.64 0 0 0-56.13-57.54 65.57 65.57 0 0 0-5.84-9.26l13.55-38.68a31.3 31.3 0 0 0 41.05-2.67l12-12a11.16 11.16 0 0 1 15.72-.06L411.66 340a31.19 31.19 0 0 0 41.12 2.35l3-2.39 36.74 104.91a10 10 0 1 0 18.88-6.61l-85.12-243.13a34.26 34.26 0 0 0-32.7-23.2 34.26 34.26 0 0 0-32.7 23.2l-16.2 46.25-65.15-148.61a25.69 25.69 0 0 0-47.06 0l-12.62 28.8a10 10 0 1 0 18.32 8l12.63-28.8a5.69 5.69 0 0 1 10.43 0L317.83 230l-11.4 11.4a12.73 12.73 0 0 1-18.19-.19L282.3 235a32.73 32.73 0 0 0-50.36 3.77l-7.54 10.69a12.73 12.73 0 0 1-19.4 1.66l-14-14L201.6 213a10 10 0 1 0-18.32-8l-28.75 65.58-26.75-69.25a27.11 27.11 0 0 0-50.57 0l-36.06 93.36c-.11.25-.21.5-.29.75L.67 399.49a10 10 0 1 0 18.66 7.21l35.05-90.76 10.17 9.36a26.29 26.29 0 0 0 37.45-1.9l4.05-4.57a6.23 6.23 0 0 1 4.71-2.12 6.22 6.22 0 0 1 4.71 2.12l11.95 13.51L57.47 492H10a10 10 0 1 0 0 20h492a10 10 0 0 0 0-20zM379.74 201.74a14.65 14.65 0 0 1 27.65 0l41.44 118.32-8.4 6.6a11.16 11.16 0 0 1-14.71-.84l-12.44-12.31a31.2 31.2 0 0 0-43.94.16l-12 12a11.19 11.19 0 0 1-15.61.16l-4.07-3.93zm-268.94 95a26.31 26.31 0 0 0-19.68 8.85l-4.05 4.57a6.29 6.29 0 0 1-9 .46l-16-14.7 33.74-87.36a7.11 7.11 0 0 1 13.26 0l34 88-6.84 15.6-5.82-6.58a26.3 26.3 0 0 0-19.6-8.87zM256.91 492H79.3l103.1-235.2 8.44 8.44a32.65 32.65 0 0 0 23.16 9.58q1.4 0 2.81-.12a32.66 32.66 0 0 0 23.92-13.7l7.54-10.69a12.73 12.73 0 0 1 19.59-1.47l5.94 6.16a32.48 32.48 0 0 0 23.28 10.08h.36a32.47 32.47 0 0 0 23.13-9.59l5.88-5.88 8.55 19.46-34 97a66.23 66.23 0 0 0-96.17 24.37A57.64 57.64 0 0 0 148.7 448a10 10 0 0 0 10 10h20.43a10 10 0 1 0 0-20h-9.08a37.65 37.65 0 0 1 36.23-27.56 38.87 38.87 0 0 1 3.9.2 10 10 0 0 0 10.34-6.37 46.37 46.37 0 0 1 86.53 0 10 10 0 0 0 10.34 6.37c1.32-.13 2.63-.2 3.89-.2A37.65 37.65 0 0 1 357.52 438H250a10 10 0 0 0 0 20h18.81zM140.09 28.16a54.3 54.3 0 0 0-95.18 0A47.36 47.36 0 0 0 0 75.36a10 10 0 0 0 10 10h165a10 10 0 0 0 10-10 47.36 47.36 0 0 0-44.91-47.2zM21.91 65.36A27.4 27.4 0 0 1 47.36 48.1c.91 0 1.87 0 2.85.15a10 10 0 0 0 10.33-6.37 34.28 34.28 0 0 1 63.92 0 10 10 0 0 0 10.33 6.37c1-.1 1.94-.15 2.85-.15a27.4 27.4 0 0 1 25.46 17.26zM451 54a60.6 60.6 0 0 0-45.94 20.86A44 44 0 0 0 343 115a10 10 0 0 0 10 10h149a10 10 0 0 0 10-10 61.07 61.07 0 0 0-61-61zm-85.82 51A24 24 0 0 1 387 91a23.76 23.76 0 0 1 14.61 5 10 10 0 0 0 14.58-2.63A41 41 0 0 1 490.76 105z"/><path class="cls-1" d="M218.74 157.26a10 10 0 1 0 2.93 7.07 10.08 10.08 0 0 0-2.93-7.07zm1.33 283.67A10 10 0 1 0 223 448a10.07 10.07 0 0 0-2.93-7.07z"/></svg>