<svg id="Capa_1" data-name="Capa 1" xmlns="http://www.w3.org/2000/svg" viewBox="0 0 375.48 512"><defs><style>.cls-1{fill:#d80027}</style></defs><title>onion</title><path class="cls-1" d="M443.74 347A140 140 0 0 0 388 235.52l-56.9-42.67a60 60 0 0 1-23.89-47.79v-8.53h-17.07v-7.93a74.84 74.84 0 0 1 22.06-53.27 69.87 69.87 0 0 0 20.6-49.73v-8.53h-8.53a69.87 69.87 0 0 0-49.73 20.6A118.81 118.81 0 0 0 261 54.05a121.68 121.68 0 0 0-23.53-33.45A69.87 69.87 0 0 0 187.74 0h-8.54v8.53a69.87 69.87 0 0 0 20.6 49.73 74.84 74.84 0 0 1 22.07 53.27v25H204.8v8.53a60 60 0 0 1-23.89 47.79L124 235.52a139.3 139.3 0 0 0 81.07 250.74 42.25 42.25 0 0 0-8.8 25.74h17.07a25.55 25.55 0 0 1 18.27-24.4 25.23 25.23 0 0 0-1.2 7.33V512h17.07v-17.07a8.53 8.53 0 0 1 17.07 0V512h17.05v-17.07a25.23 25.23 0 0 0-1.2-7.33 25.55 25.55 0 0 1 18.27 24.4h17.07a42.25 42.25 0 0 0-8.86-25.73A139.47 139.47 0 0 0 443.74 347zM286.6 49.73a53 53 0 0 1 28.32-14.79 53 53 0 0 1-14.79 28.32 91.78 91.78 0 0 0-27.07 65.34v-22.06c0-2.9-.12-5.79-.32-8.68-.07-.93-.2-1.85-.28-2.77-.19-2-.38-3.92-.67-5.87-.16-1.1-.38-2.19-.56-3.29-.31-1.76-.61-3.51-1-5.26-.26-1.19-.56-2.36-.85-3.55-.26-1-.46-2.06-.74-3.08a103.77 103.77 0 0 1 17.96-24.31zm-74.73-3.53a52.91 52.91 0 0 1-14.79-28.32 53 53 0 0 1 28.32 14.79 104.78 104.78 0 0 1 30.6 73.87v30h-17.06v-25a91.77 91.77 0 0 0-27.07-65.34zM85.34 347a122.88 122.88 0 0 1 48.92-97.85l56.88-42.67a77.19 77.19 0 0 0 30.24-52.91h.07a114.14 114.14 0 0 1-33.28 72.83l-39.38 39.38A128.95 128.95 0 0 0 163.49 461a122.41 122.41 0 0 1-78.15-114zm55.21-41.4a112.07 112.07 0 0 1 20.31-27.75l39.38-39.38A131.16 131.16 0 0 0 238.62 154a229.14 229.14 0 0 1-34.57 112.64L187.9 292.5A164.75 164.75 0 0 0 166 412.6a91.3 91.3 0 0 0 22.54 44 112 112 0 0 1-47.99-150.97zm100.77 162.28a74.74 74.74 0 0 1-58.64-58.64 147.76 147.76 0 0 1 19.63-107.66l16.15-25.84a246.1 246.1 0 0 0 36.16-105.09h2.72a246.12 246.12 0 0 0 36.12 105.08l16.15 25.84a147.76 147.76 0 0 1 19.63 107.66 74.74 74.74 0 0 1-87.92 58.65zM346 412.6a164.75 164.75 0 0 0-21.9-120.06l-16.15-25.84a229.14 229.14 0 0 1-33.31-96h1a131.12 131.12 0 0 0 36.1 67.83l39.38 39.38a112 112 0 0 1-27.67 178.76A91.29 91.29 0 0 0 346 412.6zm2.52 48.4a128.94 128.94 0 0 0 14.69-195.14l-39.38-39.38a114.14 114.14 0 0 1-33.28-72.83h.07a77.19 77.19 0 0 0 30.23 52.91l56.88 42.67A122.21 122.21 0 0 1 348.52 461z" transform="translate(-68.26)"/></svg>