<svg id="Capa_1" data-name="Capa 1" xmlns="http://www.w3.org/2000/svg" viewBox="0 0 494.93 512"><defs><style>.cls-1{fill:#fee500}</style></defs><title>online-shop</title><path class="cls-1" d="M341 318a15.64 15.64 0 0 1 11.29 5.08l85.23 92.33 12.48-11.6-57.69-62.47h.2V110.93a42.72 42.72 0 0 0-42.67-42.67h-34.11v17.07h34.13a25.6 25.6 0 0 1 25.6 25.6v8.53h-59.73v17.07h59.73v186.53l-10.68-11.6a32.57 32.57 0 0 0-23.45-10.54 31.62 31.62 0 0 0-6.78.44l6.56-26.23 6.89-27.66h10.4V230.4h-17.07a8.53 8.53 0 0 0-8.28 6.47l-6.91 27.67H196.27a8.53 8.53 0 0 0-8.28 10.6l17.07 68.27a8.53 8.53 0 0 0 8.28 6.47H312a32.71 32.71 0 0 0 4 5.75l6.69 7.53a8.54 8.54 0 0 1-7 3.79H204.8V384h110.93a25.6 25.6 0 0 0 18.47-8l31.72 35.69a86.81 86.81 0 0 0 8.21 65.57 25.52 25.52 0 0 1-24.26 17.66H179.2a25.6 25.6 0 0 1-25.6-25.6v-8.52h196.27v-17.07H153.6V204.8h-17.07v264.53A42.72 42.72 0 0 0 179.2 512h170.67a42.67 42.67 0 0 0 35.41-18.87 89.81 89.81 0 0 0 9.12 8.77l9.74 8.12 10.92-13.12-9.73-8.12a70.14 70.14 0 0 1-21.77-76.49 8.53 8.53 0 0 0-1.71-8.36l-53-59.65a15.83 15.83 0 0 1 .63-21.67A16.72 16.72 0 0 1 341 318zm-129.5-19.32l-4.3-17.08h24.2l2.13 17.07zm8.5 34.12l-4.27-17.07h19.93l2.13 17.07zm54.07 0H255l-2.13-17.07h23.33zm4.27-34.13h-27.6l-2.14-17.07h31.86zm29.45 34.13h-16.52l2.13-17.07h19.77a32.83 32.83 0 0 0-5.39 17.07zm9.82-34.13h-22.08l2.13-17.07h24.2z" transform="translate(-8.53)"/><circle class="cls-1" cx="213.33" cy="409.6" r="17.07"/><circle class="cls-1" cx="298.67" cy="409.6" r="17.07"/><path class="cls-1" d="M264.53 0H42.67A34.13 34.13 0 0 0 8.53 34.13V153.6a34.13 34.13 0 0 0 34.13 34.13h221.87a34.13 34.13 0 0 0 34.13-34.13V34.13A34.13 34.13 0 0 0 264.53 0zm17.07 153.6a17.07 17.07 0 0 1-17.07 17.07H42.67A17.07 17.07 0 0 1 25.6 153.6V34.13a17.07 17.07 0 0 1 17.07-17.06h221.86a17.07 17.07 0 0 1 17.07 17.06z" transform="translate(-8.53)"/><path class="cls-1" d="M34.13 42.67h153.6v17.07H34.13z"/><path class="cls-1" d="M252 97.41a25.6 25.6 0 0 0-26 0 25.26 25.26 0 0 0-12.73-3.54 25.6 25.6 0 1 0 0 51.2 25.26 25.26 0 0 0 12.73-3.52 25.6 25.6 0 1 0 26-44.13zM213.33 128a8.53 8.53 0 1 1 8.53-8.53 8.53 8.53 0 0 1-8.53 8.53zm25.6 0a8.3 8.3 0 0 1-1.51-.21 23.71 23.71 0 0 0 0-16.63 8.8 8.8 0 0 1 1.51-.22 8.53 8.53 0 0 1 0 17.07z" transform="translate(-8.53)"/><path class="cls-1" d="M34.13 93.87H51.2v17.07H34.13zm34.14 0h17.07v17.07H68.27zm34.13 0h17.07v17.07H102.4zm34.13 0h17.07v17.07h-17.07zM34.13 128H153.6v17.07H34.13z"/><path class="cls-1" d="M487.58 329.39l-71.68-79.14-12.65 11.45L475 340.92A42.53 42.53 0 0 1 486.4 370v142h17.07V370a59.4 59.4 0 0 0-15.89-40.61zM285.4 214.77L273.07 223v-18.2H256V223l-12.33-8.22L234.2 229l25.6 17a8.53 8.53 0 0 0 9.47 0l25.6-17z" transform="translate(-8.53)"/></svg>