<svg data-name="Capa 1" xmlns="http://www.w3.org/2000/svg" viewBox="0 0 512 505.14"><title>pizza</title><path d="M244.94 180.37q-3.06-17.5-5.09-35.16c-2.37-20.76-3.2-41.62-3.82-62.49-.25-8.54-2.18-15.38-.14-23.86 1.84-7.63 4.68-15.33 3.94-23-.85-8.75-1.76-20.32-8.94-26.4-8.06-6.83-18.75-4-27.95-1.61-36.69 9.46-72 24.82-103.11 46.45q-12 7.91-23.28 16.77c-7.09 5.56-16.71 11.7-18.42 21.26-1.86 10.5 6.8 19.44 12.32 27.24 5.13 7.27 10.5 18.74 20.39 20 5.12.66 9.81-1.3 14.17-4.14 15.77 15.45 32.95 29.44 50 43.49 18.15 15 36.79 29.43 55.48 43.75 7.3 5.59 15.95 12.33 25.79 10 8.85-2.14 13.49-11.07 13.95-19.57.53-10.74-3.45-22.22-5.29-32.73zm-12.13-7.65c-4.16 1.46-12.85 5-13.54.16-.62-4.38 2-8 .12-12.49a3.49 3.49 0 0 0-3.22-2.45c-3.86 0-10 1.4-11.82-3.27-1.62-4.09 1.51-9 4.36-11.6 5.22-4.82 12.84-6.54 19.72-5.19q1.71 17.47 4.38 34.84zM95.15 128.57c-5.31 1.78-7.89-2.82-10.71-6.53-3.11-4.1-6.25-8.18-9.32-12.31-2.49-3.35-7.47-8.43-7.52-12.91-.08-7.62 11.9-14.8 17.05-18.93 7.36-5.91 15-11.47 22.85-16.71a394.7 394.7 0 0 1 50.44-28.7q9.71-3.86 19.68-7.06 13.44-4.29 27.24-7.23c4.16-.89 8.74-2.26 13-2 4.95.34 6.76 3.94 7.94 8.32 2 7.58 4.21 17.59 1.46 25.21-3.07 8.5-13 11-20.57 14a413.3 413.3 0 0 0-100 56.93c-3.54 2.92-7.2 6.49-11.54 7.92zm141.51 91.3c-6.4 7.31-18.92-5.09-24.08-9-17.07-12.85-33.91-26-50.85-39-17.3-13.3-34.21-27.18-52-39.88 2.75-2.18 5.36-4.46 7.85-6.33q13.52-10.16 27.87-19.15A390.37 390.37 0 0 1 206 75.45c6.38-2.59 13.36-4.71 19.41-8.24a643.66 643.66 0 0 0 2.45 64.81c-10.71-2.61-22.7 1.26-28.51 11.32-2.94 5.08-3.94 12-.24 17 3.26 4.39 9.07 5.61 14.35 4.93.08 5.48-3.58 11.4 2.13 15.77 4.73 3.63 12.69 1.53 18.39-.73.61 3.69 1.24 7.38 1.92 11.06 1.48 7.86 6.87 21.55.76 28.53z"/><path d="M188.87 119.66c-4-12.28-18.29-21.32-29.9-12.52-7.33 5.56-13.25 17.07-11.59 26.5 1.79 11.52 13.64 19.21 25.11 16.55 13.45-3.12 20.58-17.77 16.38-30.53zm-9 15.9c-5.51 9.18-19.46 9.92-24.6-.1-3-5.84-.94-13.44 3.36-19.1a14.43 14.43 0 0 1 8-4.8c12.1-2.1 18.55 15.15 13.23 24.01zm259.97-47.28C414.1 60.47 383.83 36.65 350 19.57q-12.64-6.79-25.8-12.54C316 3.4 306-2.16 296.79.87c-10.11 3.32-13.87 15.19-18.13 23.75-4 8-11.52 18.14-8 27.44 1.85 4.82 5.8 8 10.36 10.51-6.12 21.21-10.29 43-14.6 64.6-4.6 23.1-8.46 46.34-12.2 69.59-1.46 9.08-3.29 19.88 3.47 27.43 6.08 6.78 16.15 6.63 23.84 3 9.71-4.59 17.94-13.54 26.31-20.14q14-11 28.54-21.16 18-12.51 36.82-23.73a283 283 0 0 1 32.48-17.15c9.75-4.21 19.87-6.25 28.77-12.21 7-4.66 15.32-10.4 17.17-19.16 2.24-10.32-5.33-18.39-11.78-25.36zm-131 104.47c-3.26-3-10.47-9-6.56-11.85 3.56-2.63 8-2 11.05-5.82a3.5 3.5 0 0 0 .63-4c-1.79-3.42-6-8.12-2.72-12 2.83-3.36 8.61-2.92 12.28-1.66 6.71 2.31 11.85 8.2 13.92 14.9q-14.54 9.85-28.56 20.43zm33.5-23.62c-2.78-10.66-11.88-19.38-23.48-19.73-5.87-.17-12.43 2.22-15.06 7.84-2.32 5-.64 10.65 2.46 15-4.79 2.66-11.73 2.26-12.87 9.35-.95 5.89 4.67 11.9 9.37 15.84q-4.44 3.43-8.82 6.93c-6.26 5-15.76 16.25-24.79 14.19-9.47-2.16-4.49-19.07-3.52-25.46 3.22-21.12 6.82-42.19 10.25-63.28 3.5-21.54 7.7-43 10.46-64.66 3.22 1.39 6.47 2.6 9.3 3.91q15.36 7.05 30.1 15.41a390.25 390.25 0 0 1 56.08 38.58c5.31 4.39 10.49 9.53 16.46 13.18a643.59 643.59 0 0 0-55.9 32.9zM436 116.36c-5.7 5.4-13.49 12-21.5 13.24-8.94 1.33-15.89-6.22-22.12-11.45a413.34 413.34 0 0 0-97.55-61c-4.11-1.83-9-3.33-12.37-6.46-4.08-3.83-1.26-8.28.67-12.53 2.13-4.69 4.24-9.38 6.42-14 1.76-3.78 3.88-10.58 7.79-12.74 6.67-3.69 18.68 3.46 24.76 6 8.69 3.67 17.21 7.76 25.55 12.19a394.45 394.45 0 0 1 49.19 30.8q8 6.71 15.55 14 10.16 9.8 19.28 20.56c2.75 3.24 6.13 6.63 7.9 10.55 2.01 4.42-.29 7.72-3.57 10.84z"/><path d="M331.59 96.64c-8.37-3.82-21.31-3.57-28.83 2.36-9.29 7-10.44 21.12-2.66 30 9.13 10.36 25.41 9.69 34.65-.06 8.9-9.37 10.1-26.25-3.16-32.3zm-15.11 31.88c-10.69-.5-18-12.42-11.58-21.7 3.72-5.41 11.38-7.2 18.41-6.1a14.43 14.43 0 0 1 8 4.72c7.61 9.71-4.52 23.56-14.83 23.08zm194.77 92.95q-.68-14.33-2.53-28.57c-1.16-8.93-1.52-20.34-8.87-26.69-8-7-20.16-4.07-29.7-3.32-8.87.7-21.48-.54-27.62 7.31-3.18 4.06-3.89 9.1-3.68 14.3-21.33 5.67-42.14 13.29-62.9 20.74-22.17 7.95-44.09 16.6-65.95 25.36-8.54 3.42-18.74 7.41-21.73 17.1-2.68 8.7 2.63 17.25 9.7 22 8.93 6 20.84 8.41 30.81 12.19q16.61 6.31 32.83 13.57 23.7 10.65 46.46 23.25c13.4 7.41 30.26 13 41 24.24 8.54 8.91 20.11 18.84 33.8 14.12 10-3.44 13-14.09 15.66-23.21 10.61-36.4 15.47-74.62 12.72-112.39zm-169.69 53.87c.87-4.32 2.3-13.59 6.78-11.72 4.09 1.7 5.83 5.81 10.68 6.48a3.5 3.5 0 0 0 3.75-1.52c2-3.3 3.89-9.29 8.85-8.49 4.34.7 6.94 5.88 7.74 9.67a22.89 22.89 0 0 1-5.61 19.61q-15.89-7.46-32.19-14.03zM438.87 302c-1 6.81-2.77 13.89-2.83 20.89a643.37 643.37 0 0 0-57-31c7.71-7.87 10.51-20.16 4.82-30.29-2.87-5.12-8.3-9.51-14.47-8.88-5.44.56-9.45 4.93-11.57 9.82-4.75-2.73-8-8.9-14.64-6.22-5.54 2.22-7.8 10.13-8.76 16.18q-5.23-2-10.48-4c-7.53-2.78-22-5.14-24.93-14-3-9.23 14-13.66 20-16.12 19.77-8.11 39.68-15.87 59.53-23.79 20.27-8.08 40.84-15.54 60.82-24.32.47 3.48 1.1 6.88 1.43 10q1.83 16.81 2.24 33.74a390.39 390.39 0 0 1-4.16 67.98zm61.48-19.43q-1.63 10.32-4 20.52-3.17 13.75-7.7 27.11c-1.36 4-2.52 8.67-5 12.21-2.82 4.08-6.84 3.8-11.21 2.58-7.57-2.11-17.27-5.37-22.42-11.62-5.74-7-2.84-16.82-1.57-24.86a413.33 413.33 0 0 0 2.12-115.05c-.55-4.47-1.79-9.46-.83-13.94 1.18-5.47 6.45-5.35 11.08-5.87 5.11-.59 10.23-1.19 15.35-1.73 4.15-.43 11.06-2.12 14.94.12 6.59 3.82 6.65 17.79 7.57 24.33 1.33 9.35 2.2 18.75 2.7 28.18a394.48 394.48 0 0 1-1.03 58.02z"/><path d="M435.65 245.34c-1-9.15-7.91-20.11-16.86-23.5-10.82-4.34-23.48 1.92-27.05 13.14-4.18 13.16 4.77 26.77 17.89 29.68 12.61 2.79 27.66-4.84 26.02-19.32zm-7.65 4.28c-4.4 11.52-22.52 8.26-27.42-.83-5.07-9.42 1.4-21.79 12.64-21.1 6.55.4 12 6.05 14.71 12.64a14.43 14.43 0 0 1 .07 9.29zm-213.54-9.6c-8.84-6.11-20.71-8.73-30.62-12.67q-16.51-6.56-32.62-14.08-22.92-10.7-44.93-23.3c-11-6.27-26-12.09-34.2-22-4.21-5.1-7.82-8.91-14-11.93-7.9-3.86-18.23-9.15-27.17-6.22-10 3.29-13.22 13.89-16 23C3.74 208.97-1.68 247.11.46 284.92q.46 14.34 2.09 28.65c1 9 1.21 20.36 8.46 26.83 7.94 7.08 20.09 4.38 29.64 3.78 8.88-.56 21.47.88 27.73-6.88 3.24-4 4-9 3.9-14.24 21.42-5.34 42.34-12.64 63.21-19.76 22.29-7.6 44.34-15.92 66.33-24.34 8.59-3.29 18.85-7.12 22-16.76 2.81-8.71-2.37-17.35-9.36-22.18zM64.55 198.87a413.28 413.28 0 0 0-3.9 115c.48 4.48 1.64 9.48.61 13.95-1.26 5.45-6.53 5.24-11.17 5.7-5.12.51-10.24 1-15.37 1.49-4.16.37-11.1 2-14.94-.35-6.53-3.92-6.37-17.89-7.2-24.44-1.18-9.36-1.91-18.79-2.27-28.22a394.55 394.55 0 0 1 2-58q1.79-10.29 4.29-20.43 3.39-13.7 8.12-27c1.42-4 2.66-8.63 5.16-12.13 2.88-4 6.9-3.69 11.25-2.4 7.53 2.23 17.19 5.63 22.23 12 5.64 7.01 2.64 16.81 1.19 24.83zM171 233.68c-.93 4.31-2.51 13.55-7 11.62-4.06-1.76-5.74-5.9-10.58-6.64a3.5 3.5 0 0 0-3.77 1.46c-2.06 3.27-4 9.23-9 8.35-4.33-.76-6.84-6-7.59-9.79-1.37-7 1.15-14.36 5.91-19.52q15.8 7.69 32.03 14.52zm21.93 37.24C173 278.72 153 286.17 133 293.78c-20.39 7.77-41.07 14.9-61.19 23.37-.42-3.48-1-6.9-1.28-10q-1.53-16.84-1.71-33.77a390.16 390.16 0 0 1 5.26-67.86c1.14-6.79 3-13.85 3.15-20.85a643.53 643.53 0 0 0 56.5 31.9c-7.83 7.75-10.82 20-5.29 30.21 2.79 5.16 8.15 9.64 14.34 9.1 5.45-.47 9.53-4.79 11.72-9.64 4.71 2.8 7.84 9 14.54 6.45 5.57-2.13 8-10 9-16q5.19 2.12 10.42 4.16c7.48 2.9 22 5.48 24.71 14.34 2.83 9.2-14.25 13.38-20.27 15.73z"/><path d="M102.75 243.3c-12.58-3-27.74 4.41-26.33 18.92.89 9.16 7.6 20.23 16.5 23.76 10.75 4.51 23.51-1.55 27.25-12.72 4.39-13.1-4.36-26.85-17.42-29.96zm-4.14 36.91c-6.55-.5-11.94-6.24-14.51-12.87a14.44 14.44 0 0 1 .08-9.29c4.58-11.45 22.65-7.91 27.4 1.26 4.92 9.5-1.75 21.77-12.97 20.9zm142.18-.2c-6.22-6.64-16.29-6.28-23.9-2.48-9.62 4.8-17.64 13.92-25.87 20.7q-13.71 11.34-28.02 21.78-24.11 17.56-49.75 32.71c-14.35 8.52-31.72 11.65-45.37 21.24-7.19 5.05-16.81 11.55-18.56 20.8-2 10.38 5.79 18.28 12.39 25.11 26.29 27.24 57.11 50.4 91.29 66.76q12.78 6.52 26.07 12c8.33 3.43 18.42 8.76 27.58 5.53 10-3.54 13.53-15.48 17.61-24.14 3.79-8 11.13-18.38 7.35-27.61-2-4.77-6-7.9-10.59-10.29 5.66-21.34 9.35-43.18 13.19-64.9 4.09-23.19 7.45-46.52 10.68-69.84 1.24-9.13 2.83-19.98-4.1-27.37zm-50.44 32.56c3.32 2.89 10.66 8.73 6.82 11.7-3.51 2.71-7.93 2.18-10.92 6.06a3.5 3.5 0 0 0-.54 4c1.87 3.38 6.13 8 3 11.9-2.76 3.42-8.54 3.11-12.24 1.92a22.9 22.9 0 0 1-14.27-14.58q14.36-10.12 28.15-21zm29.13 154c-2 4.73-4 9.47-6.11 14.19-1.68 3.82-3.64 10.66-7.51 12.91-6.59 3.83-18.75-3.05-24.88-5.49-8.77-3.48-17.38-7.39-25.81-11.63a394.43 394.43 0 0 1-49.85-29.72q-8.15-6.54-15.85-13.63-10.37-9.58-19.72-20.13c-2.82-3.18-6.27-6.49-8.13-10.37-2.14-4.47.1-7.82 3.32-11 5.59-5.52 13.23-12.34 21.21-13.7 8.91-1.52 16 5.88 22.37 11a413.29 413.29 0 0 0 98.85 58.9c4.15 1.74 9.1 3.14 12.51 6.19 4.17 3.72 1.44 8.23-.39 12.48zm14.07-155.29c-2.76 21.19-5.9 42.33-8.87 63.49-3 21.61-6.77 43.17-9.05 64.88-3.25-1.32-6.52-2.46-9.38-3.7q-15.5-6.75-30.41-14.79a390.29 390.29 0 0 1-56.9-37.35c-5.4-4.27-10.69-9.3-16.74-12.82a643.5 643.5 0 0 0 55.17-34.11c3 10.6 12.29 19.12 23.91 19.21 5.87 0 12.38-2.49 14.89-8.17 2.21-5 .4-10.66-2.79-14.92 4.73-2.77 11.68-2.51 12.67-9.63.82-5.91-4.93-11.8-9.71-15.63q4.36-3.53 8.67-7.12c6.15-5.15 15.4-16.59 24.48-14.72 9.51 2 4.9 19 4.07 25.42z"/><path d="M200.51 376.15c-9.35-10.16-25.62-9.13-34.64.81-8.69 9.57-9.52 26.43 3.87 32.19 8.45 3.64 21.38 3.1 28.77-3 9.13-7.23 9.98-21.34 2-30zm-4.31 22.25c-3.6 5.49-11.22 7.45-18.27 6.5a14.43 14.43 0 0 1-8.1-4.55c-7.82-9.54 4-23.65 14.32-23.39 10.7.26 18.23 12.02 12.05 21.44zm243.74-12.36c-5.13-7.27-10.5-18.74-20.39-20-5.12-.66-9.81 1.3-14.17 4.14-15.77-15.45-32.95-29.44-50-43.49-18.15-15-36.79-29.43-55.48-43.75-7.3-5.59-15.95-12.33-25.8-10-8.85 2.14-13.49 11.07-13.95 19.57-.57 10.73 3.41 22.21 5.25 32.72q3.06 17.5 5.1 35.16c2.28 20 3.79 40.08 4.09 60.21.14 9.09 1.49 20.12-.5 29-1.61 7.19-4.33 12.17-3.56 20.1.85 8.75 1.76 20.32 8.93 26.4 8.06 6.83 18.75 4 27.95 1.61 36.69-9.46 72-24.82 103.11-46.45q12-7.91 23.28-16.77c7.09-5.56 16.71-11.7 18.42-21.26 1.9-10.44-6.76-19.37-12.28-27.19zm-165.48-71.76c-1.45-7.89-6.83-21.58-.73-28.55 6.4-7.31 18.92 5.09 24.08 9 17.07 12.86 33.91 26 50.85 39 17.3 13.3 34.21 27.18 52 39.88-2.75 2.18-5.36 4.46-7.85 6.33q-13.52 10.16-27.87 19.15a390.35 390.35 0 0 1-60.56 31.07c-6.38 2.59-13.36 4.71-19.41 8.24a643.66 643.66 0 0 0-2.48-64.83c10.71 2.61 22.7-1.26 28.51-11.32 2.94-5.08 3.94-12 .24-17-3.26-4.39-9.07-5.61-14.35-4.93-.08-5.48 3.58-11.4-2.12-15.77-4.73-3.62-12.69-1.53-18.39.73a669.5 669.5 0 0 0-1.92-11zm3.12 18.63c4.16-1.46 12.85-5 13.54-.16.63 4.38-2 8-.12 12.49a3.5 3.5 0 0 0 3.22 2.45c3.86 0 10-1.4 11.82 3.27 1.62 4.09-1.51 9-4.36 11.6-5.22 4.82-12.84 6.55-19.72 5.19q-1.71-17.48-4.38-34.85zm148.17 94.8c-7.36 5.91-15 11.47-22.85 16.71a394.77 394.77 0 0 1-50.44 28.7q-9.71 3.86-19.68 7.06-13.44 4.29-27.24 7.23c-4.16.89-8.74 2.26-13 2-4.95-.34-6.76-3.94-7.94-8.33-2-7.58-4.21-17.59-1.46-25.21 3.07-8.5 13-11 20.58-14a413.28 413.28 0 0 0 100-56.93c3.56-2.76 7.22-6.37 11.56-7.83 5.31-1.78 7.89 2.82 10.71 6.53 3.11 4.1 6.25 8.18 9.33 12.31 2.49 3.35 7.48 8.43 7.52 12.91.05 7.53-11.94 14.71-17.09 18.85z"/><path d="M363 371.98c-1.79-11.52-13.64-19.21-25.11-16.55-13.45 3.12-20.58 17.77-16.38 30.53 4 12.28 18.29 21.32 29.9 12.52 7.35-5.56 13.26-17.07 11.59-26.5zm-11.25 17.27a14.43 14.43 0 0 1-8 4.8c-12.15 2.1-18.6-15.15-13.29-24 5.51-9.17 19.45-9.92 24.6.1 3.07 5.85 1.01 13.42-3.29 19.11z"/></svg>