<svg id="Layer_1" data-name="Layer 1" xmlns="http://www.w3.org/2000/svg" viewBox="0 0 512 512"><defs><style>.cls-1{fill:#d80027}</style></defs><title>postnie</title><path class="cls-1" d="M490 191.73c-7-9.06-13.63-17.61-13.63-25 0-5.51 3.5-13.15 7.21-21.25 10.68-23.32 26.83-58.56-15.84-101.22s-77.9-26.53-101.22-15.84c-8.09 3.71-15.74 7.21-21.24 7.21-7.39 0-16-6.62-25-13.63-16.53-12.78-39.14-30.27-71.35-17.61-31 12.17-39.37 38-47.5 63-6.48 19.89-13.17 40.45-31.05 58.33-18.53 18.53-38.18 17.53-60.93 16.38-23.68-1.2-50.52-2.56-74.56 21.48-17.33 17.33-25.45 38.25-24.83 64 .54 22.1 7.3 45.93 14.46 71.15 3.45 12.17 7 24.75 10.11 37.8 13 54.86 12.82 100.5 12.45 113.68l-44 44a10.45 10.45 0 1 0 14.78 14.78l44-44c13.2-.37 58.83-.5 113.68 12.45 13 3.08 25.63 6.65 37.8 10.11 25.22 7.16 49 13.92 71.15 14.46h2.73c24.47 0 44.52-8.15 61.23-24.86 24-24 22.67-50.87 21.48-74.55-1.15-22.75-2.15-42.4 16.38-60.93 17.88-17.88 38.44-24.58 58.33-31 25-8.14 50.81-16.55 63-47.5 12.63-32.31-4.86-54.92-17.64-71.44zm-1.84 63.7c-8.56 21.78-25.94 27.44-50 35.27-21.16 6.9-45.16 14.73-66.63 36.15-25.09 25.09-23.7 52.54-22.48 76.77 1.12 22.13 2.09 41.25-15.38 58.72-29.27 29.27-65.08 19.11-114.63 5-12.39-3.52-25.2-7.16-38.71-10.34a496.2 496.2 0 0 0-97.63-13l91.3-91.27 141-.6a10.45 10.45 0 0 0 0-20.9l-120 .51 88.84-88.84 93-.4a10.45 10.45 0 0 0 0-20.9l-71.94.31 74.83-74.83a10.45 10.45 0 1 0-14.78-14.78L290.18 207l.3-71.75a10.45 10.45 0 0 0-10.4-10.49 10.45 10.45 0 0 0-10.45 10.4l-.44 92.84-88.84 88.84.51-119.76a10.45 10.45 0 0 0-10.4-10.49A10.45 10.45 0 0 0 160 197l-.6 140.84-91.46 91.45a496.17 496.17 0 0 0-13-97.63c-3.19-13.5-6.82-26.32-10.34-38.71-14.07-49.55-24.23-85.35 5-114.63 17.47-17.47 36.59-16.5 58.72-15.38 24.22 1.23 51.67 2.61 76.77-22.48C206.58 119.05 214.4 95 221.3 73.84c7.84-24.06 13.49-41.44 35.27-50 21.16-8.32 34.95 2.34 50.91 14.69 11.44 8.85 23.26 18 37.8 18 10.07 0 19.72-4.42 29.95-9.11C397.52 37.21 420.58 26.65 453 59s21.83 55.45 11.61 77.74c-4.68 10.23-9.11 19.88-9.11 29.95 0 14.54 9.15 26.36 18 37.8 12.32 15.99 22.98 29.77 14.66 50.94z"/><path class="cls-1" d="M99.2 326.9c-2.52-10.69-5.4-20.82-8.18-30.61-7.49-26.39-14-49.18-8.93-67.59a10.45 10.45 0 1 0-20.16-5.51c-6.57 24 1 50.63 9 78.81 2.72 9.57 5.53 19.46 7.94 29.7a10.45 10.45 0 1 0 20.34-4.8zm-4.85-133.65a10.51 10.51 0 1 0-.06 15l.24-.24a10.45 10.45 0 0 0-.18-14.76z"/></svg>