<svg id="Capa_1" data-name="Capa 1" xmlns="http://www.w3.org/2000/svg" viewBox="0 0 461.13 512.01"><defs><style>.cls-1{fill:#d80027}</style></defs><title>snowflake</title><path class="cls-1" d="M486.18 313.13a10.63 10.63 0 0 0-13-7.45l-73.7 20.09-52.89-30.22 82.68-29.92a10.61 10.61 0 0 0 0-20l-82.57-29.5 52.65-30.26L473 205.81a10.88 10.88 0 0 0 2.78.37 10.61 10.61 0 0 0 2.76-20.86l-53.25-14.38 48.72-28a10.61 10.61 0 0 0-10.57-18.4l-48.72 28L429.1 99.3a10.62 10.62 0 0 0-20.5-5.53l-19.88 73.73-53.32 30.65 15.6-87.36a10.61 10.61 0 0 0-17.32-9.94l-67 56.92v-61l54-54a10.61 10.61 0 1 0-15-15l-39 39V10.61a10.61 10.61 0 0 0-21.22 0v56.2l-39-39a10.61 10.61 0 0 0-15 15l54 54v61.33l-67.68-57a10.61 10.61 0 0 0-17.28 10l15.89 87.07-53.25-30.43L103 94.12a10.61 10.61 0 0 0-20.51 5.58L97 152.91 48.21 125a10.61 10.61 0 1 0-10.53 18.42l48.78 27.88-53.2 14.53A10.61 10.61 0 0 0 36 206.68a10.73 10.73 0 0 0 2.8-.38l73.69-20.09 52.89 30.22-82.62 29.92a10.61 10.61 0 0 0 0 20l82.57 29.5-52.65 30.26L39 306.17a10.62 10.62 0 0 0-5.53 20.5l53.23 14.38L38 369.06a10.61 10.61 0 1 0 10.57 18.4l48.73-28-14.42 53.25a10.62 10.62 0 0 0 7.48 13 10.85 10.85 0 0 0 2.77.36 10.61 10.61 0 0 0 10.24-7.84l19.92-73.73 53.33-30.65-15.56 87.35a10.61 10.61 0 0 0 17.31 10l67-56.93v60.93l-54 54a10.61 10.61 0 1 0 15 15l39-39v56.2a10.61 10.61 0 1 0 21.22 0v-56.2l39 39a10.61 10.61 0 0 0 15-15l-54-54v-61.35l67.68 57a10.6 10.6 0 0 0 17.26-10l-15.87-87.06 53.26 30.43L409 417.87a10.61 10.61 0 1 0 20.48-5.58L415 359.08 463.78 387a10.48 10.48 0 0 0 5.25 1.4 10.61 10.61 0 0 0 5.27-19.82l-48.79-27.87 53.22-14.51a10.61 10.61 0 0 0 7.45-13.07zm-91.91-57.42l-71.88 26L277.34 256l45.12-25.92zM324.89 136.1l-13.5 75.83-44.78 25.73v-52.07zm-138.28.3l58.78 49.5v51.83l-45-25.71zm-68.89 119.89l71.87-26L234.66 256l-45.12 25.92zm69.39 119.61l13.51-75.83 44.77-25.73v52.06zm138.29-.3l-58.79-49.49v-51.83l45 25.71z" transform="translate(-25.43)"/></svg>