<svg id="Capa_1" data-name="Capa 1" xmlns="http://www.w3.org/2000/svg" viewBox="0 0 512 507.37"><defs><style>.cls-1{fill:#e7f5d8}</style></defs><title>sort-button-1</title><path class="cls-1" d="M128.2 139.44a3.18 3.18 0 0 0 3.17-3.17V5.47a3.16 3.16 0 0 0-3.17-3.15H3.22A3.18 3.18 0 0 0 0 5.47v130.8a3.2 3.2 0 0 0 3.22 3.17zm190.28 0a3.18 3.18 0 0 0 3.17-3.17V5.47a3.16 3.16 0 0 0-3.17-3.15h-125a3.15 3.15 0 0 0-3.2 3.15v130.8a3.19 3.19 0 0 0 3.22 3.17zm190.32 233.1h-125a3.15 3.15 0 0 0-3.17 3.2v130.77a3.12 3.12 0 0 0 3.17 3.17h125a3.22 3.22 0 0 0 3.22-3.17V375.74a3.25 3.25 0 0 0-3.22-3.2zm-189.05-48.66a3.22 3.22 0 0 0 3.25-3.18V189.93a3.19 3.19 0 0 0-3.22-3.2h-125a3.19 3.19 0 0 0-3.2 3.2V320.7a3.2 3.2 0 0 0 3.22 3.17zm1.3 48.66H196a3.22 3.22 0 0 0-3.22 3.2v130.77a3.17 3.17 0 0 0 3.22 3.17h125a3.17 3.17 0 0 0 3.13-3.17V375.74a3.2 3.2 0 0 0-3.08-3.2zm-190.35 0H5.65a3.14 3.14 0 0 0-3.13 3.2v130.77a3.11 3.11 0 0 0 3.13 3.17h125a3.18 3.18 0 0 0 3.17-3.17V375.74a3.21 3.21 0 0 0-3.12-3.2zm376.88-48.66a3.21 3.21 0 0 0 3.17-3.17V189.93a3.18 3.18 0 0 0-3.17-3.2h-125a3.16 3.16 0 0 0-3.13 3.2V320.7a3.17 3.17 0 0 0 3.13 3.17zm-1.32-184.44a3.19 3.19 0 0 0 3.22-3.17V5.47a3.15 3.15 0 0 0-3.22-3.15h-125a3.2 3.2 0 0 0-3.22 3.15v130.8a3.2 3.2 0 0 0 3.22 3.17zM129.43 323.88a3.15 3.15 0 0 0 3.17-3.17V189.93a3.14 3.14 0 0 0-3.17-3.2H4.47a3.14 3.14 0 0 0-3.17 3.2V320.7a3.15 3.15 0 0 0 3.17 3.17z" transform="translate(0 -2.32)"/></svg>