<svg id="Capa_1" data-name="Capa 1" xmlns="http://www.w3.org/2000/svg" viewBox="0 0 512 492.7"><defs><style>.cls-1{fill:#e7f5d8}</style></defs><title>sort-button-3</title><path class="cls-1" d="M495.46 9.65H16.55A16.57 16.57 0 0 0 0 26.2v73.54a16.57 16.57 0 0 0 16.55 16.55h478.9A16.57 16.57 0 0 0 512 99.74V26.2a16.56 16.56 0 0 0-16.54-16.55zm0 193.04H16.55A16.57 16.57 0 0 0 0 219.23v73.54a16.57 16.57 0 0 0 16.55 16.55h478.9A16.57 16.57 0 0 0 512 292.77v-73.54a16.56 16.56 0 0 0-16.54-16.54zm0 193.03H16.55A16.57 16.57 0 0 0 0 412.27v73.54a16.57 16.57 0 0 0 16.55 16.55h478.9A16.57 16.57 0 0 0 512 485.81v-73.54a16.55 16.55 0 0 0-16.54-16.55z" transform="translate(0 -9.65)"/></svg>