<svg data-name="Capa 1" xmlns="http://www.w3.org/2000/svg" viewBox="0 0 475.08 453.1"><title>star-stroke</title><path d="M475.08 175.58q0-10.56-16-13.13l-143.31-20.84L251.53 11.7Q246.11.01 237.54.01t-14 11.7l-64.23 129.9L16 162.45q-16 2.56-16 13.13 0 6 7.14 13.71l103.92 101.07-24.55 142.75a46.37 46.37 0 0 0-.57 5.71 16.83 16.83 0 0 0 3 10.14q3 4.15 9 4.14 5.14 0 11.42-3.42l128.19-67.39 128.19 67.38a23.1 23.1 0 0 0 11.42 3.43q11.72 0 11.71-14.27a43.24 43.24 0 0 0-.29-5.72L364 290.36 467.66 189.3q7.42-7.44 7.42-13.72zM324.62 277.51l20.55 120.2-107.63-56.82-107.93 56.82 20.84-120.2-87.36-84.8 120.49-17.7 54-109.06 54 109.06L412 192.71z"/></svg>