<svg id="Capa_1" data-name="Capa 1" xmlns="http://www.w3.org/2000/svg" viewBox="0 0 512 487.45"><defs><style>.cls-1{fill:#d80027}</style></defs><title>stethoscope</title><path class="cls-1" d="M511.38 285.42a59.73 59.73 0 0 0-50.59-50.59v-15.51c0-42.8-32.54-77.65-72.53-77.65-38.84 0-71.36 33.79-72.53 75.33h.49l-.49.09v168.15c0 53.76-40.19 97.42-89.6 97.42s-89.6-43.72-89.6-97.42v-14.56c12.37 0 25.6-9 25.6-34.13v-21.47c54.77-14 93.87-61 93.87-114.34v-17.79h-17.07l-.36-111.06a42.71 42.71 0 0 0-35.11-41.77 25.46 25.46 0 1 0-.58 17.4 25.6 25.6 0 0 1 18.59 24.42l.38 111H204.8v18a67.86 67.86 0 0 1-49.12 63.67 77.59 77.59 0 0 1-46.93 0 67.82 67.82 0 0 1-49-63.67v-18H34.13V72a25.6 25.6 0 0 1 18.95-24.59 25.72 25.72 0 1 0-.53-17.33A42.67 42.67 0 0 0 17.07 72v110.95H0v17.75c0 53.38 39.12 100.42 93.87 114.39v21.46c0 25.16 13.23 34.13 25.6 34.13v14.57c0 63.15 47.85 114.48 106.67 114.48s106.66-51.4 106.66-114.49V217.49c.85-32.38 25.75-58.73 55.47-58.73 30.58 0 55.47 27.17 55.47 60.59v15.49a59.73 59.73 0 1 0 67.65 50.59zm-332.18-239a8.53 8.53 0 1 1 8.53-8.53 8.53 8.53 0 0 1-8.53 8.53zM76.8 29.35a8.53 8.53 0 1 1-8.53 8.53 8.53 8.53 0 0 1 8.53-8.53zM17.07 200.7v-.7h25.6v1a84.79 84.79 0 0 0 60.91 79.9 95 95 0 0 0 57.33 0 84.8 84.8 0 0 0 61-79.9v-1h17.07v.68c0 47.47-36.59 89.24-87 99.34a121.72 121.72 0 0 1-36 1.77 111.46 111.46 0 0 1-11.87-1.79c-50.45-10.06-87.04-51.83-87.04-99.3zm102.4 152.92c-7.68 0-8.53-11.95-8.53-17.07v-18.11c.68.09 1.38.12 2.07.19.85.09 1.71.16 2.56.24 4 .36 8.11.6 12.21.61h.43c4.1 0 8.16-.25 12.17-.61.85-.08 1.76-.15 2.64-.24.67-.08 1.37-.1 2-.19v18.11c0 5.12-.85 17.07-8.53 17.07zm332.8-17.07a42.67 42.67 0 1 1 42.67-42.67 42.67 42.67 0 0 1-42.68 42.66z" transform="translate(0 -12.28)"/><path class="cls-1" d="M452.26 268.28a25.6 25.6 0 1 0 25.6 25.6 25.6 25.6 0 0 0-25.6-25.6zm0 34.13a8.53 8.53 0 1 1 8.53-8.53 8.53 8.53 0 0 1-8.53 8.53z" transform="translate(0 -12.28)"/></svg>