<svg id="Capa_1" data-name="Capa 1" xmlns="http://www.w3.org/2000/svg" viewBox="0 0 512 511.99"><defs><style>.cls-1{fill:#d80027}</style></defs><title>study</title><path class="cls-1" d="M482 273.59V226a15 15 0 0 0-15-15c-31 0-59.88 2.62-87.17 8a135.43 135.43 0 0 0-56.31-32.61A104.81 104.81 0 0 0 361 106C361 47.56 313.9 0 256 0S151 47.56 151 106a104.81 104.81 0 0 0 37.49 80.35A135.45 135.45 0 0 0 132.17 219c-27.29-5.38-56.17-8-87.17-8a15 15 0 0 0-15 15v47.58A45.07 45.07 0 0 0 0 316v30a45.07 45.07 0 0 0 30 42.42V436a15 15 0 0 0 15 15c78.43 0 142.83 18.58 202.68 58.48a15 15 0 0 0 16.64 0C324.17 469.59 388.57 451 467 451a15 15 0 0 0 15-15v-47.58A45.07 45.07 0 0 0 512 346v-30a45.07 45.07 0 0 0-30-42.41zM181 106c0-41.91 33.65-76 75-76s75 34.09 75 76a75 75 0 0 1-150 0zM45 361a15 15 0 0 1-15-15v-30a15 15 0 0 1 30 0v30a15 15 0 0 1-15 15zm196 109.09C186.55 439 128.11 423.21 60 421.22v-32.8A45.07 45.07 0 0 0 90 346v-30a45.07 45.07 0 0 0-30-42.42v-32.36c70.48 2 127.13 18.62 181 52.92zm15-201.95A356.49 356.49 0 0 0 168.73 228 105.22 105.22 0 0 1 226 211h60a105.22 105.22 0 0 1 57.27 17A356.47 356.47 0 0 0 256 268.14zm196 153.08c-68.11 2-126.55 17.73-181 48.87V294.15c53.87-34.3 110.52-50.91 181-52.93v32.37A45.07 45.07 0 0 0 422 316v30a45.07 45.07 0 0 0 30 42.42zM482 346a15 15 0 0 1-30 0v-30a15 15 0 0 1 30 0z" transform="translate(0 -.01)"/></svg>