<svg id="Capa_1" data-name="Capa 1" xmlns="http://www.w3.org/2000/svg" viewBox="0 0 512 512"><defs><style>.cls-1{fill:#bfbfbf}</style></defs><title>user</title><path class="cls-1" d="M256 352c79.41 0 144-79 144-176S335.39 0 256 0c-39.15 0-75.74 18.78-103 52.88-26.45 33-41 76.78-41 123.14C112 273 176.59 352 256 352zm0-320c61.74 0 112 64.59 112 144s-50.26 144-112 144-112-64.59-112-144S194.24 32 256 32zm112 288a16 16 0 0 0 0 32 112.14 112.14 0 0 1 112 112 16 16 0 0 1-16 16H48a16 16 0 0 1-16-16 112.14 112.14 0 0 1 112-112 16 16 0 0 0 0-32C64.59 320 0 384.59 0 464a48.06 48.06 0 0 0 48 48h416a48.06 48.06 0 0 0 48-48c0-79.39-64.59-144-144-144z" id="User"/></svg>