<svg id="Layer_1" data-name="Layer 1" xmlns="http://www.w3.org/2000/svg" viewBox="0 0 512 469.3"><defs><style>.cls-1{fill:#d80027}</style></defs><title>wedding-rings</title><path class="cls-1" d="M371.77 176.36l30.47-30.47-21.71-25.26h-52.3l-21.71 25.26L337 176.36a157.52 157.52 0 0 0-81 33.51 157.52 157.52 0 0 0-81-33.51l30.47-30.47-21.71-25.26h-52.3l-21.71 25.26 30.47 30.47C61.47 185 0 252 0 333c0 86.91 70.71 157.63 157.63 157.63A157.55 157.55 0 0 0 256 456.18a157.55 157.55 0 0 0 98.38 34.47C441.29 490.65 512 419.94 512 333c0-81-61.47-148-140.23-156.64zm-44.53-31.25l8-9.27h38.34l8 9.27-27.14 27.14zm-196.75 0l8-9.27h38.34l8 9.27-27.14 27.14zm27.14 330.33C79.1 475.44 15.21 411.55 15.21 333S79.1 190.61 157.63 190.61A142.43 142.43 0 0 1 277.48 410l-.57-.58c-.83-.85-1.66-1.7-2.46-2.57-.36-.39-.7-.78-1.05-1.17-.66-.74-1.32-1.48-2-2.23l-1.09-1.31q-.93-1.13-1.82-2.28c-.34-.43-.67-.86-1-1.3q-1-1.3-1.92-2.64l-.59-.82a124.07 124.07 0 0 0-.07-124.17l.06-.1-2.58-4.07a124.4 124.4 0 0 0-17.39-21.7q-3.3-3.27-6.84-6.3l-6.23-5.33-.16.22a124 124 0 1 0 .16 198.65l.29.35c.54.66 1.09 1.31 1.64 2 .42.5.84 1 1.27 1.5.59.68 1.18 1.34 1.78 2 .41.46.81.92 1.23 1.37.66.72 1.33 1.42 2 2.12.37.39.73.79 1.11 1.17.82.84 1.65 1.67 2.48 2.49l.68.68a142.36 142.36 0 0 1-86.78 29.46zM289.08 246a108.79 108.79 0 1 1 0 174 157.63 157.63 0 0 0 0-174zM256 379.49a108.83 108.83 0 0 1 0-92.93 108.83 108.83 0 0 1 0 92.93zM222.92 246a157.63 157.63 0 0 0 0 174 108.79 108.79 0 1 1 0-174zm131.45 229.4a142.43 142.43 0 0 1-119.85-219.32l.57.59c.83.85 1.66 1.7 2.46 2.57.35.38.7.78 1.05 1.17q1 1.11 2 2.24l1.08 1.3q.93 1.13 1.84 2.29l1 1.29c.65.87 1.29 1.75 1.92 2.64l.59.83a124.07 124.07 0 0 0 .07 124.17l-.06.1 2.58 4.07a124.47 124.47 0 0 0 24.24 28l6.23 5.33.16-.22a124 124 0 1 0-.16-198.64l-.29-.35c-.54-.66-1.09-1.31-1.64-2s-.84-1-1.27-1.51c-.58-.67-1.17-1.33-1.76-2-.42-.46-.83-.93-1.25-1.39-.64-.7-1.3-1.39-2-2.07-.39-.41-.76-.82-1.15-1.22-.78-.8-1.58-1.59-2.37-2.38l-.78-.78a142.36 142.36 0 0 1 86.79-29.49c78.53 0 142.42 63.89 142.42 142.42s-63.89 142.4-142.41 142.4z" transform="translate(0 -21.35)"/><path class="cls-1" d="M248.4 0h15.21v47.34H248.4z"/><path class="cls-1" transform="rotate(-65.18 301.939 49.155)" d="M294.98 52.22h47.34v15.21h-47.34z"/><path class="cls-1" transform="rotate(-24.82 144.843 49.144)" d="M185.74 36.16h15.21V83.5h-15.21z"/></svg>