<svg id="Capa_1" data-name="Capa 1" xmlns="http://www.w3.org/2000/svg" viewBox="0 0 512 499.01"><defs><style>.cls-1{fill:#a3a3a3}</style></defs><title>weight-balance</title><g id="Layer_5" data-name="Layer 5"><path class="cls-1" d="M209 346.49c3.2-5.18 3.29-11.65.23-17.75l-88.66-177.38c-3.24-6.48-8.64-10.2-14.83-10.2s-11.59 3.72-14.83 10.2L2.23 328.74c-3.05 6.1-3 12.57.23 17.75s8.95 8.15 15.77 8.15h175c6.84-.01 12.59-2.98 15.77-8.15zM105.74 174c1.75 0 2.85 2.55 2.85 2.55l62.85 125.69c4.48 8.49-1.13 6.11-3.7 5.5-17.17-4.08-38.66-6.51-62-6.51-23 0-44.3 2.37-61.35 6.36-2.81.66-9.34 3.15-4.33-5.38l62.76-125.51s1.29-2.7 2.92-2.7zm404.03 95.71L421.08 92.34c-3.24-6.48-8.64-10.2-14.83-10.2s-11.59 3.72-14.83 10.2l-88.68 177.37c-3.05 6.1-3 12.57.23 17.75s8.95 8.15 15.77 8.15h175c6.82 0 12.57-3 15.77-8.15s3.31-11.64.26-17.75zM406.26 116.53c2.37 0 4.24 3.8 4.24 3.8l60.65 121.3c5.15 9.12-1.86 7.32-5.31 6.55-16.75-3.74-37.32-6-59.58-6-22.85 0-43.93 2.33-60.91 6.26-3 .69-9.2 1.51-3.12-8.57l59.63-119.27s1.94-4.07 4.4-4.07zm-384-2.09a15.92 15.92 0 0 0 2.57-.21l467.45-76.3a15.83 15.83 0 1 0-5.1-31.24l-189.8 31C292.51 38.9 291.72 34 291 32a36.93 36.93 0 0 0-72 11.69c0 2.59 1 6.59-3.23 7.34L19.73 83a15.83 15.83 0 0 0 2.53 31.45z" transform="translate(0 -6.49)"/><path class="cls-1" d="M271.83 407.26v-290a15.83 15.83 0 0 0-31.65 0v290c0 6-5.31 6.55-7.94 6.72-89.14 6-162.05 44.31-185.34 75.85-4.06 5.5-9.57 15.68 12 15.68h394.2c21.58 0 16.54-9.16 13.13-14.1-21.93-31.76-95.55-71.21-186-77.4-2.76-.19-8.4-.01-8.4-6.75z" transform="translate(0 -6.49)"/></g></svg>