<svg id="Capa_1" data-name="Capa 1" xmlns="http://www.w3.org/2000/svg" viewBox="0 0 511.83 512"><defs><style>.cls-1{fill:#d80027}</style></defs><title>woman</title><path class="cls-1" d="M497.77 459.22a101.65 101.65 0 0 0 13.88-51.46 10 10 0 0 0-10-10h-.11l-52 .56V193.9a192.33 192.33 0 0 0-8.38-56.26 195.1 195.1 0 0 0-48.57-80.68A193 193 0 0 0 139.39 39a196.31 196.31 0 0 0-69.18 98.42 192.18 192.18 0 0 0-8.45 56.5v61c0 74 42.5 141.11 107.83 173.63H75.24C33.8 428.49.08 461.47.08 502a10 10 0 0 0 10 10h491.83a10 10 0 0 0 10-10 72.13 72.13 0 0 0-14.14-42.78zM255.65 20a172.62 172.62 0 0 1 122.79 51.1 175.19 175.19 0 0 1 42.39 68.62l-.08.15c-.23.43-.48.86-.72 1.29-.41.74-.82 1.48-1.25 2.21a83.74 83.74 0 0 1-18.1 21.14l-1.4 1.15c-.57.45-1.15.9-1.73 1.33a83.34 83.34 0 0 1-13.78 8.42 82.26 82.26 0 0 1-118-74.12 10 10 0 0 0-10-10h-.1a10 10 0 0 0-10 10 82.43 82.43 0 0 1-27.29 61.2 10 10 0 0 0 13.38 14.88 102.35 102.35 0 0 0 24-32.1 102.31 102.31 0 0 0 112.51 56.3v53.29a110.88 110.88 0 0 1-2.27 22.06c-.68 3.33-1.51 6.62-2.48 9.86q-.29 1-.6 1.92a113.62 113.62 0 0 1-51 63.56 111.88 111.88 0 0 1-112.53 0 113.19 113.19 0 0 1-56.32-97.4v-53.32a10 10 0 0 0 4-19.61 81.94 81.94 0 0 1-10.62-2.93 82.77 82.77 0 0 1-45.91-39.51C114 69 181.28 20 255.65 20zm51.3 357v51.43H204.36v-51.38a131.75 131.75 0 0 0 102.59 0zM81.77 254.85v-61a173.27 173.27 0 0 1 2.29-28.13 103 103 0 0 0 39 29.51v59.57a133.23 133.23 0 0 0 61.29 111.64v46.85c-61.91-27.94-102.58-89.93-102.58-158.44zM21.06 492c4.84-24.73 27.3-43.49 54.18-43.49h234.85l.18.38c.21.46.43.92.65 1.38.31.66.62 1.32.95 2A106.58 106.58 0 0 0 341.7 488l1.33 1 1.74 1.3 1.38 1 .91.65h-326zm446.4 0l.22-.16c.74-.53 1.47-1.05 2.17-1.58l.23-.18c.74-.55 1.46-1.1 2.15-1.64 1.34-1.06 2.58-2.07 3.79-3.11q1.23-1.06 2.43-2.16l.81-.77c.52-.49 1-1 1.55-1.48l.89-.89c.47-.47.94-.94 1.4-1.42l.9-1c.38-.4.76-.8 1.13-1.2a52.3 52.3 0 0 1 5.79 15.59h-23.45zm9.76-37.71A82.47 82.47 0 0 1 463 470.15c-1 .85-2 1.68-3.09 2.53a102 102 0 0 1-20.2 12.39c-.45.21-.92.4-1.38.6-29.14 12.74-62.49 4.58-86.4-15.2a91.26 91.26 0 0 1-14-14.38c-3.37-4.35-10.94-13.39-10.94-19.18v-70.4c.45-.29.88-.59 1.33-.88l1.67-1.11c.65-.44 1.28-.89 1.92-1.34l1.59-1.13c.64-.47 1.27-.95 1.91-1.43s1-.76 1.52-1.15 1.28-1 1.91-1.53l1.41-1.15c.66-.55 1.3-1.11 1.95-1.67l1.29-1.11c.69-.61 1.37-1.24 2-1.87l1.09-1c.81-.77 1.6-1.55 2.39-2.33l.64-.63q1.51-1.52 3-3.09a135.32 135.32 0 0 0 14-18c.44-.68.89-1.36 1.32-2 .32-.51.63-1 .95-1.55a135.87 135.87 0 0 0 11-22.79q.4-1.08.78-2.17.32-.9.63-1.81a131.89 131.89 0 0 0 6-27.19c.07-.6.14-1.2.2-1.8.28-2.84.47-5.7.57-8.55q.07-2.15.07-4.31v-59.5c.17-1.18 15.29-8.45 17.42-10A113.41 113.41 0 0 0 421.91 172l.71-.75c.93-1 1.85-2 2.74-3l.26-.31c.56-.65 1.11-1.3 1.65-2a173.07 173.07 0 0 1 2.26 27.92v214.57a10 10 0 0 0 10 10h.11l51.38-.55a81.6 81.6 0 0 1-13.8 36.4z" transform="translate(-.08)"/><path class="cls-1" d="M194.87 189.39a10.08 10.08 0 0 0-.57-1.87 10 10 0 0 0-.92-1.73 10.22 10.22 0 0 0-1.25-1.52 9.6 9.6 0 0 0-1.52-1.24 10.23 10.23 0 0 0-1.72-.92 10.43 10.43 0 0 0-1.87-.57 9.91 9.91 0 0 0-3.91 0 10.18 10.18 0 0 0-1.87.57 10.67 10.67 0 0 0-1.73.92 9.7 9.7 0 0 0-2.76 2.76 9.88 9.88 0 0 0-.92 1.73 10.11 10.11 0 0 0-.57 1.87 9.86 9.86 0 0 0-.2 2 10 10 0 0 0 .2 2 10.59 10.59 0 0 0 .57 1.87 10.16 10.16 0 0 0 .92 1.72 9.47 9.47 0 0 0 1.24 1.52 9.88 9.88 0 0 0 3.25 2.17 10.13 10.13 0 0 0 1.87.57 9.86 9.86 0 0 0 2 .19 10 10 0 0 0 2-.19 10.35 10.35 0 0 0 1.87-.57 10 10 0 0 0 5.41-5.41 10.59 10.59 0 0 0 .57-1.87 10 10 0 0 0 .19-2 9.85 9.85 0 0 0-.28-2z" transform="translate(-.08)"/></svg>