<svg id="Слой_1" data-name="Слой 1" xmlns="http://www.w3.org/2000/svg" viewBox="0 0 98.4 99.8"><defs><style>.cls-1,.cls-2{fill:none;stroke:#000;stroke-miterlimit:10;stroke-width:2px}.cls-1{stroke-linecap:round}</style></defs><title>nav-icons__jobs</title><g id="Слой_2" data-name="Слой 2"><path class="cls-1" d="M26.4 43H4a3 3 0 0 1-3-3V20a3 3 0 0 1 3-3h84a3 3 0 0 1 3 3v20a3 3 0 0 1-3 3H65.4"/><path class="cls-2" d="M30 8h32v9H30zm33 0H29a3 3 0 0 1-3-3V4a3 3 0 0 1 3-3h34a3 3 0 0 1 3 3v1a3 3 0 0 1-3 3zm-7 40H36a3 3 0 0 1-3-3v-3a3 3 0 0 1 3-3h20a3 3 0 0 1 3 3v3a3 3 0 0 1-3 3z"/><path class="cls-1" d="M47 88H11a3 3 0 0 1-3-3V43m78 0v10.7"/></g><g id="Слой_3" data-name="Слой 3"><circle class="cls-2" cx="64.93" cy="67.02" r="16" transform="rotate(-45 64.924 67.028)"/><path class="cls-2" d="M93.3 98.2L81.2 86.1a1.93 1.93 0 0 1-.07-2.73l.07-.07.7-.7a1.93 1.93 0 0 1 2.73-.07l.07.07 12.1 12.1a1.93 1.93 0 0 1 .07 2.73l-.07.07-.7.7a1.93 1.93 0 0 1-2.73.07z"/><path class="cls-2" transform="rotate(-45 79.418 80.824)" d="M77.92 77.82h3v6h-3z"/></g></svg>