<svg data-name="Layer 1" xmlns="http://www.w3.org/2000/svg" viewBox="0 0 30.22 19.5"><g class="cls-2"><path class="cls-3" d="M27.7 3h-2V1.5A1.5 1.5 0 0 0 24.19 0h-3.54a1.5 1.5 0 0 0-1.51 1.5V3h-8.06V1.5A1.5 1.5 0 0 0 9.57 0H6a1.5 1.5 0 0 0-1.51 1.5V3h-2A2.52 2.52 0 0 0 0 5.5V17a2.52 2.52 0 0 0 2.52 2.5H27.7a2.52 2.52 0 0 0 2.52-2.5V5.5A2.52 2.52 0 0 0 27.7 3zm-7.55-1.5a.5.5 0 0 1 .5-.5h3.53a.5.5 0 0 1 .5.5V3h-4.53V1.5zm-14.61 0a.5.5 0 0 1 .5-.5h3.53a.5.5 0 0 1 .5.5V3H5.54V1.5zM29.21 17a1.51 1.51 0 0 1-1.52 1.5H2.52A1.51 1.51 0 0 1 1 17V5.5A1.51 1.51 0 0 1 2.52 4H27.7a1.51 1.51 0 0 1 1.52 1.5V17z"/><path class="cls-3" d="M11.08 10.5H4.53v1h6.55zm12.09 0v-3h-1v3h-3v1h3v3h1v-3h3v-1z"/></g></svg>