<svg data-name="Layer 1" xmlns="http://www.w3.org/2000/svg" viewBox="0 0 30 29.27"><g class="cls-2"><path class="cls-3" d="M20.73 15.37a.86.86 0 0 0-.09.29.703.703 0 1 0 1.4.12 1.43 1.43 0 0 1 0-.32v-.32a7.71 7.71 0 0 0-.38-2.5 7.27 7.27 0 0 0-5-4.58 7.73 7.73 0 0 0-1.84-.23 4.94 4.94 0 0 0-.64 0l-.61.09a.68.68 0 0 0 .23 1.34 2.87 2.87 0 0 1 .5-.06h.53A5.77 5.77 0 0 1 19 10.97a5.88 5.88 0 0 1 1.72 4.08v.32z"/><path class="cls-3" d="M24.58 16.01a.703.703 0 0 0 1.4.12v-1a13.06 13.06 0 0 0-.15-1.87 11.18 11.18 0 0 0-10.09-9.23h-1.9c-.36 0-.64.06-1 .12a.68.68 0 0 0 .23 1.34l.58-.09h1.11a10 10 0 0 1 2.83.41 9.69 9.69 0 0 1 4.11 2.45 10 10 0 0 1 2.3 3.23 9.85 9.85 0 0 1 .7 3.62v.29a2.38 2.38 0 0 0-.12.61z"/><path class="cls-3" d="M25.57 4.47A15.14 15.14 0 0 0 14.81 0c-.44 0-.87 0-1.31.06a10.11 10.11 0 0 0-1.31.18.66.66 0 0 0-.55.79.66.66 0 0 0 .79.55l.57-.09a4.35 4.35 0 0 1 .61-.06c.41 0 .79-.06 1.2-.06a13.74 13.74 0 0 1 13.76 13.77v1.19a.703.703 0 0 0 1.4.12c0-.44.06-.87.06-1.28a15.1 15.1 0 0 0-4.46-10.7zm3.35 17.66l-5.16-2.77c-1.72-.93-1.78-.32-3.59 1.6-.44.47-1.25 1.69-2.22 1.46-2-.5-5.77-3.44-7-4.78-.58-.64-3.09-3.7-3.12-4.69-.05-1.52 3.28-2.31 2.17-5.16L7.73 2.64c-2.16-5-8.2 3-7.73 6.67 1.28 9.13 17.29 23.88 26.21 19 2.01-1.1 4.69-4.98 2.71-6.18z"/></g></svg>