<svg data-name="Layer 1" xmlns="http://www.w3.org/2000/svg" viewBox="0 0 30.28 22.37"><g class="cls-2"><path class="cls-3" d="M29.77 0H14.11a.52.52 0 0 0-.3.1L.21 9.76a.51.51 0 0 0-.21.43v11.68a.51.51 0 0 0 .51.51h29.26a.51.51 0 0 0 .51-.51V.51a.51.51 0 0 0-.51-.51zm-.51 21.36H1V10.43l13.28-9.41h15z"/><path class="cls-3" d="M27.72 2.04H14.88a.52.52 0 0 0-.31.1L4.31 9.77a.51.51 0 0 0-.18.57.51.51 0 0 0 .49.35h23.1a.51.51 0 0 0 .51-.51V2.55a.51.51 0 0 0-.51-.51zm-.51 7.63h-21l8.9-6.61H27.2zm-.01 4.06h-3.59a.51.51 0 0 0-.51.51v3.05a.51.51 0 0 0 1 0v-2.54h3.1a.51.51 0 1 0 0-1z"/></g></svg>