<svg data-name="Layer 1" xmlns="http://www.w3.org/2000/svg" viewBox="0 0 30 30"><g class="cls-2"><path class="cls-3" d="M7.11 18.26a1 1 0 0 0-1.42 0l-1.52 1.52a1 1 0 0 0 0 1.41l4.64 4.64a1 1 0 0 0 1.41 0l1.52-1.52a1 1 0 0 0 0-1.42zm2.41 6.86l-4.64-4.64 1.52-1.52L11 23.6z"/><path class="cls-3" d="M19.79 14.4a4 4 0 0 0 2.27-2.25 3 3 0 0 1 1.72-1.72 4 4 0 0 0 2.27-2.25 3 3 0 0 1 1.79-1.82l1.09-.4a1.14 1.14 0 0 0 .71-1L30 1.24a1.13 1.13 0 0 0-.33-.9 1.15 1.15 0 0 0-.9-.33L25 .35a1.12 1.12 0 0 0-1 .73l-.39 1A3 3 0 0 1 22 3.83h-.09a4 4 0 0 0-2.26 2.3 3 3 0 0 1-1.72 1.72 4 4 0 0 0-2.29 2.29v.05A3 3 0 0 1 14 11.96l-.19.08a22 22 0 0 0-2.3-1.51 3.06 3.06 0 0 0-3 0 21.35 21.35 0 0 0-8.05 8 3.06 3.06 0 0 0 0 3 21.36 21.36 0 0 0 8 8 3.06 3.06 0 0 0 3 0 21.35 21.35 0 0 0 8-8 3.06 3.06 0 0 0 0-3A22 22 0 0 0 18 16.22l.08-.19a3 3 0 0 1 1.71-1.63zm-1.13 6.66A20.36 20.36 0 0 1 11 28.73a2.06 2.06 0 0 1-2 0 20.35 20.35 0 0 1-7.73-7.67 2.06 2.06 0 0 1 0-2 20.36 20.36 0 0 1 7.68-7.68 2.06 2.06 0 0 1 2 0 20.35 20.35 0 0 1 7.68 7.68 2.06 2.06 0 0 1 .03 2zm-1.35-5.71a21.07 21.07 0 0 0-2.66-2.66 4 4 0 0 0 1.88-2.11v-.06a3 3 0 0 1 1.71-1.71 4 4 0 0 0 2.3-2.32 3 3 0 0 1 1.69-1.7h.09a4 4 0 0 0 2.26-2.29l.39-1a.12.12 0 0 1 .11-.08l3.13-.29-9.21 9.2a.502.502 0 1 0 .71.71l9.27-9.27-.29 3.14a.13.13 0 0 1-.08.11l-1.09.41a4 4 0 0 0-2.26 2.25v.05a3 3 0 0 1-1.71 1.71 4 4 0 0 0-2.27 2.25 3 3 0 0 1-1.73 1.72 4 4 0 0 0-2.24 1.94z"/><path class="cls-3" d="M15 17.01a.5.5 0 0 0 0 .71 3.05 3.05 0 0 1 1 2.36 5.18 5.18 0 0 1-1.88 3.13.5.5 0 1 0 .61.79A6.11 6.11 0 0 0 17 20.15a4 4 0 0 0-1.33-3.13.5.5 0 0 0-.67-.01z"/></g></svg>