<svg data-name="Layer 1" xmlns="http://www.w3.org/2000/svg" viewBox="0 0 30 21.85"><path class="cls-1" d="M29.35 6.49h-2.2a.65.65 0 0 0-.45.18l-.47.45a23.41 23.41 0 0 0-3.46-5.52A4.33 4.33 0 0 0 19.4 0h-8.8a4.33 4.33 0 0 0-3.37 1.6 22.87 22.87 0 0 0-3.47 5.51l-.46-.44a.65.65 0 0 0-.45-.18H.65a.65.65 0 0 0-.65.65v1.5a.65.65 0 0 0 .61.65l2.26.14a14.42 14.42 0 0 0-.61 4.58 5.86 5.86 0 0 0 1 3.79v3.51a.54.54 0 0 0 .54.54h2.5a.54.54 0 0 0 .54-.54v-2.17h16.3v2.18a.54.54 0 0 0 .54.54h2.5a.54.54 0 0 0 .54-.54v-3.51a5.86 5.86 0 0 0 1-3.79 14.42 14.42 0 0 0-.61-4.58l2.26-.14a.65.65 0 0 0 .61-.65v-1.5a.65.65 0 0 0-.63-.66zM9.09 3.12a1.94 1.94 0 0 1 1.51-.71h8.8a1.94 1.94 0 0 1 1.51.71 22.64 22.64 0 0 1 2.58 3.81H6.5a22.79 22.79 0 0 1 2.59-3.81zM7.24 16.47C6 16.47 5 16.07 5 15.08s.37-1.79 1.61-1.79 2.9.8 2.9 1.79-1.03 1.39-2.27 1.39zm10.13-.21h-4.73a1.29 1.29 0 0 1-1.3-1.33.36.36 0 0 1 .36-.36h6.6a.36.36 0 0 1 .36.36 1.29 1.29 0 0 1-1.3 1.34zm5.4.21c-1.25 0-2.26-.41-2.26-1.39s1.65-1.79 2.9-1.79 1.61.8 1.61 1.79-1.02 1.39-2.26 1.39z"/></svg>