<svg data-name="Layer 1" xmlns="http://www.w3.org/2000/svg" viewBox="0 0 30 28.01"><g class="cls-2"><path class="cls-3" d="M29.5 0a.52.52 0 0 0-.5.49v.09a1.86 1.86 0 0 1-1.56 1.75l-.76.13a39.63 39.63 0 0 1-6.49.54H9.81a39.64 39.64 0 0 1-6.49-.54l-.76-.13A1.86 1.86 0 0 1 1 .59v-.1a.5.5 0 1 0-1 0V.6L.5 25a.5.5 0 0 0 .34.46L5.31 27l2 1a.5.5 0 0 0 .22 0h15a.5.5 0 0 0 .22 0l2-1 4.47-1.49a.5.5 0 0 0 .28-.51L30 .62V.5a.5.5 0 0 0-.5-.5zm-18 27H7.62l-1.89-.95h-.07l-4.17-1.41L1 2.72a2.86 2.86 0 0 0 1.34.61l.76.13A40.65 40.65 0 0 0 9.81 4h1.69zm6 0h-5V4h5zm11-2.36L24.34 26h-.07l-1.89 1H18.5V4h1.69a40.64 40.64 0 0 0 6.66-.55l.76-.13a2.86 2.86 0 0 0 1.39-.6z"/><path class="cls-3" d="M6.16 15.53l-3-1a.5.5 0 0 0-.66.47v8a.5.5 0 0 0 .34.47l3 1H6a.5.5 0 0 0 .5-.5V16a.5.5 0 0 0-.34-.47zm-.66 7.78l-2-.67v-.94l2 .67zm0-2l-2-.67v-.94l2 .67zm0-2l-2-.67v-.94l2 .67zm0-2l-2-.67v-.94l2 .67zm21.79-2.71a.5.5 0 0 0-.45-.07l-3 1a.5.5 0 0 0-.34.47v8a.5.5 0 0 0 .5.5h.16l3-1a.5.5 0 0 0 .34-.5v-8a.5.5 0 0 0-.21-.4zm-.79 8l-2 .67v-.95l2-.67zm0-2l-2 .67v-.95l2-.67zm0-2l-2 .67v-.95l2-.67zm0-2l-2 .67v-.95l2-.67z"/></g></svg>