<svg data-name="Layer 1" xmlns="http://www.w3.org/2000/svg" viewBox="0 0 30 29.51"><path class="cls-1" d="M27.07 20.92a2 2 0 0 0-1.83-1.25h-4.09v-.78l3.15-3.14h1.83a2 2 0 1 0 0-1h-2a.49.49 0 0 0-.35.14l-2.6 2.6v-1.55l5.76-5.76a.49.49 0 0 0 .14-.35v-6a2 2 0 1 0-1 0v5.8l-.49.49-1.49-1.48V6.39h-1v2.46a.49.49 0 0 0 .14.35l1.62 1.62-2.75 2.75-1-1v-1.75h-1v2a.49.49 0 0 0 .14.35l1.13 1.13-1.13 1.13a.49.49 0 0 0-.14.35v3.93h-2v-8.2L21 8.75a.49.49 0 0 0 .14-.35v-3a2 2 0 1 0-1 0v2.75l-2.81 2.81a.49.49 0 0 0-.14.35v8.36h-2V3.86a2 2 0 1 0-1 0v10.19l-1.48-1.48V8.85h-1v3.9a.49.49 0 0 0 .14.35l2.31 2.31v4.22h-2v-2.42a.49.49 0 0 0-.14-.35l-4.44-4.57 2.6-2.6a.49.49 0 0 0 .14-.35V5.83a2 2 0 1 0-1 0v3.31L6.89 11.6l-1-1V8.75a2 2 0 1 0-1 0v2a.49.49 0 0 0 .14.35l6.25 6.25v2.26h-2v-1.42a.49.49 0 0 0-.14-.35L2.46 11.1V3.86a2 2 0 1 0-1 0v7.45a.49.49 0 0 0 .14.35l2.6 2.6h-.27a.49.49 0 0 0-.35.14l-.58.63a1.94 1.94 0 0 0-1-.28 2 2 0 1 0 2 2 1.94 1.94 0 0 0-.28-1l.48-.48h1.01l3.15 3.15v1.27H4.27a2 2 0 0 0-1.83 1.25l-2.3 5.9A2 2 0 0 0 2 29.5h25.53a2 2 0 0 0 1.83-2.68zm1-6.66a1 1 0 1 1-1 1 1 1 0 0 1 .93-1zm-2.5-12.3a1 1 0 1 1 1 1 1 1 0 0 1-1-1zm-5.9 1.48a1 1 0 1 1 1 1 1 1 0 0 1-1-1zm-10.82.49a1 1 0 1 1 1 1 1 1 0 0 1-1-1zm-4.43 3a1 1 0 1 1 1 1 1 1 0 0 1-.99-1.05zM1 1.96a1 1 0 1 1 1 1 1 1 0 0 1-1-1zm1 15.79a1 1 0 1 1 1-1 1 1 0 0 1-1 1zm16.23 3h2v1h-2zm-1 0v1h-2v-1zM13.77 1.96a1 1 0 1 1 1 1 1 1 0 0 1-1-1zM12.3 20.65h2v1h-2zm-3 0h2v1h-2zm0 3.93v-2h2v2h1v-2h2v2h1v-2h2v2h1v-2h2v2h1v-2h2.1l1.15 3.44H5.11l1.15-3.44h2.1v2zm19 3.51a1 1 0 0 1-.81.43H2a1 1 0 0 1-.92-1.34l2.3-5.9a1 1 0 0 1 .92-.63h4.06v1H5.9a.49.49 0 0 0-.47.34L4 26.4a.49.49 0 0 0 .47.65h20.61a.49.49 0 0 0 .47-.65l-1.48-4.43a.49.49 0 0 0-.47-.34h-2.45v-1h4.09a1 1 0 0 1 .92.63l2.3 5.9a1 1 0 0 1-.12.93z"/><path class="cls-1" d="M12.79 5.9h-1v2h1zM24.1 4.42h-1v1h1z"/></svg>