<svg data-name="Layer 1" xmlns="http://www.w3.org/2000/svg" viewBox="0 0 30 17.7"><path class="cls-1" d="M20.16 0a9.83 9.83 0 0 0-8 4.19A7.87 7.87 0 0 0 0 10.85a7.9 7.9 0 0 0 3.94 6.82.49.49 0 0 0 .25.07h7.37a.49.49 0 0 0 .25-.07 7.87 7.87 0 0 0 1.31-.95 10 10 0 0 0 1 .91.49.49 0 0 0 .3.1H25.9a.49.49 0 0 0 .3-.1 9.84 9.84 0 0 0-6-17.6zm-8.74 16.72H8.36v-1.48a.5.5 0 1 0-1 0v1.48H4.32a6.86 6.86 0 0 1-1.43-1.15l1.2-1.2a.495.495 0 0 0-.7-.7l-1.13 1.18a6.89 6.89 0 0 1-1.26-4h1.46a.5.5 0 0 0 0-1H1.05A6.87 6.87 0 0 1 2.9 6.06l1 1a.495.495 0 0 0 .7-.7l-.94-.94a6.85 6.85 0 0 1 3.72-1.47v1.46a.5.5 0 1 0 1 0V3.95a6.82 6.82 0 0 1 3.23 1.07 9.83 9.83 0 0 0 .87 10.93 6.9 6.9 0 0 1-1.06.77zm15.35-1l-1.39-1.37a.495.495 0 1 0-.7.7l1.38 1.38-.34.29h-5.06v-1.48a.5.5 0 0 0-1 0v1.48H14.6l-.34-.29 1.38-1.38a.495.495 0 0 0-.7-.7l-1.38 1.38-.06-.08a8.78 8.78 0 0 1-2.14-5.3h2a.5.5 0 1 0 0-1h-2a8.82 8.82 0 0 1 2.24-5.41l1.38 1.38a.495.495 0 0 0 .7-.7l-1.41-1.38A8.82 8.82 0 0 1 19.68 1v2a.5.5 0 0 0 1 0V1a8.82 8.82 0 0 1 5.41 2.24l-1.38 1.38a.495.495 0 0 0 .7.7l1.38-1.38A8.82 8.82 0 0 1 29 9.34h-2a.5.5 0 1 0 0 1h2a8.78 8.78 0 0 1-2.24 5.4z"/><path class="cls-1" d="M22.92 6.85a.49.49 0 0 0-.51-.12 18.24 18.24 0 0 0-4 1.85 2 2 0 0 0 0 2.78 2 2 0 0 0 2.78 0 18.24 18.24 0 0 0 1.85-4 .49.49 0 0 0-.12-.51zm-2.43 3.83a1 1 0 0 1-1.39 0 1 1 0 0 1 0-1.39 12.8 12.8 0 0 1 2.64-1.25 12.79 12.79 0 0 1-1.26 2.62zM8.84 9.56a12.88 12.88 0 0 0-3-1.39.49.49 0 0 0-.63.63 12.88 12.88 0 0 0 1.39 3 1.577 1.577 0 1 0 2.23-2.23zm-.7 1.53a.59.59 0 0 1-.83 0 8.05 8.05 0 0 1-.77-1.61 8.05 8.05 0 0 1 1.61.77.59.59 0 0 1 0 .83z"/></svg>