<svg data-name="Layer 1" xmlns="http://www.w3.org/2000/svg" viewBox="0 0 19.92 30"><g class="cls-2"><path class="cls-3" d="M19.88 17.37c0-.23-.43-5.55-2.8-8.59s-6.87-3.91-7.06-3.95H7.53V.54A.54.54 0 0 0 7 0H3.23a1.61 1.61 0 1 0 0 3.21h.54v1.61H2.15A2.15 2.15 0 0 0 0 7v20.85A2.15 2.15 0 0 0 2.15 30h15.62a2.15 2.15 0 0 0 2.11-2.14V17.37zM3.23 2.14a.53.53 0 0 1-.54-.54.54.54 0 0 1 .54-.54h3.23v3.76H4.88V2.68a.54.54 0 0 0-.54-.54zm15.65 25.72a1.08 1.08 0 0 1-1.08 1.07H2.15a1.08 1.08 0 0 1-1.08-1.07V7a1.08 1.08 0 0 1 1.08-1.11h7.73c.46.09 4.32.94 6.36 3.54s2.55 7.66 2.58 8z"/><path class="cls-3" d="M8.61 16.07a5.36 5.36 0 1 0 5.38 5.36 5.38 5.38 0 0 0-5.38-5.36zm0 9.64a4.29 4.29 0 1 1 4.27-4.28 4.3 4.3 0 0 1-4.27 4.28z"/><path class="cls-3" d="M9.02 17.87a.54.54 0 0 0-.83 0c-.37.45-2.31 2.78-2.31 4.13a2.69 2.69 0 0 0 5.38 0c.04-1.35-1.86-3.68-2.24-4.13zm-.41 5.7A1.61 1.61 0 0 1 7 22a7.73 7.73 0 0 1 1.62-2.89A7.73 7.73 0 0 1 10.23 22a1.61 1.61 0 0 1-1.62 1.57zM16.46 13L8.88 7.6a.54.54 0 0 0-.56 0 .54.54 0 0 0-.29.48v3.21a.54.54 0 0 0 .23.44L15.88 17a.54.54 0 0 0 .85-.44v-3.17a.53.53 0 0 0-.27-.39zm-.85 2.61L9.15 11V9.08l6.46 4.59z"/></g></svg>