<svg data-name="Layer 1" xmlns="http://www.w3.org/2000/svg" viewBox="0 0 30 29.92"><g class="cls-2"><path class="cls-3" d="M17.68 26.28a1.13 1.13 0 0 0 1.58.87L24 25.03a.5.5 0 0 0 .27-.62l-2.4-7.13a2.42 2.42 0 0 0-2.7-1.6l-.75.13a2.39 2.39 0 0 0-1.95 2.72zm1.18 0a.13.13 0 0 1-.12 0 .13.13 0 0 1-.07-.1L17.5 18.4a1.41 1.41 0 0 1 0-.5l.85.67a2.61 2.61 0 0 1 .87 1.24l1.83 5.44zm-.22-9.42l.75-.13h.24a1.41 1.41 0 0 1 1.33 1l2.26 6.7-1.22.42-1.8-5.36a3.6 3.6 0 0 0-1.2-1.7l-.92-.73a1.4 1.4 0 0 1 .56-.25z"/><path class="cls-3" d="M1.28 4.69l7.46 2.2a.78.78 0 0 1 .26.15l2.63 2.19.42.35 3.44 17.88a3 3 0 0 0 4.21 2.2l4.8-2.12a1.67 1.67 0 0 0 1.91.47L29 26.94a1.67 1.67 0 0 0 .91-2.17l-4.64-11.21.34-.4a1.77 1.77 0 0 0-.18-2.49L20.16 6.1a1.77 1.77 0 0 0-2.5.18l-.85 1-1.92-1.6-3.55-2.9a1.76 1.76 0 0 0-.62-.32L2.64.08a1.77 1.77 0 0 0-2.2 1.19L.08 2.49a1.77 1.77 0 0 0 1.2 2.2zm16 3.61l1.14-1.36a.77.77 0 0 1 1.09-.08l5.27 4.57a.77.77 0 0 1 .08 1.08l-.54.63a.5.5 0 0 0-.09.52L29 25.18a.67.67 0 0 1-.36.87l-2.53 1a.67.67 0 0 1-.87-.36.5.5 0 0 0-.66-.27l-5.19 2.3a2 2 0 0 1-2.82-1.48L13 9.22a.5.5 0 0 0-.14-.28l-.16-.13 1.92-2.07 1.93 1.61a.5.5 0 0 0 .7-.06zM1 2.77l.4-1.21a.77.77 0 0 1 1-.52l8.08 2.38a.77.77 0 0 1 .27.14l3.14 2.55-1.91 2-2.32-1.85A1.76 1.76 0 0 0 9 5.94L1.56 3.73A.77.77 0 0 1 1 2.77z"/><path class="cls-3" d="M3.5 17.19a3.42 3.42 0 0 0 3.5-3.5c0-1.59-1.94-4.47-2.74-5.4a1 1 0 0 0-1.51 0c-.81.93-2.75 3.8-2.75 5.4a3.42 3.42 0 0 0 3.5 3.5zm0-8.25c.88 1 2.5 3.59 2.5 4.75a2.42 2.42 0 0 1-2.5 2.5 2.42 2.42 0 0 1-2.5-2.5c0-1.16 1.62-3.75 2.5-4.75zm10.83.39a.5.5 0 0 0-.33.61l.25 1a.5.5 0 0 0 .48.38h.12a.5.5 0 0 0 .36-.61l-.25-1a.5.5 0 0 0-.61-.36zm.43 3.22l.71 3a.5.5 0 0 0 .53.39h.12a.5.5 0 0 0 .37-.6l-.71-3a.513.513 0 0 0-1 .23z"/></g></svg>