<svg data-name="Layer 1" xmlns="http://www.w3.org/2000/svg" viewBox="0 0 30 30"><path class="cls-1" d="M27 0H3a3 3 0 0 0-3 3v24a3 3 0 0 0 3 3h24a3 3 0 0 0 3-3V3a3 3 0 0 0-3-3zm1.8 27a1.81 1.81 0 0 1-1.8 1.8H3A1.81 1.81 0 0 1 1.2 27V3A1.81 1.81 0 0 1 3 1.2h24A1.81 1.81 0 0 1 28.8 3v24z"/><path class="cls-1" d="M25.2 21.48v-13a3.6 3.6 0 1 0-3.6 0v4.12h-4.8V8.52a3.6 3.6 0 1 0-3.6 0v4.08H8.4V8.52a3.6 3.6 0 1 0-3.6 0v7.08a.6.6 0 0 0 .6.6h7.8v5.28a3.6 3.6 0 1 0 3.6 0V16.2h4.8v5.28a3.6 3.6 0 1 0 3.6 0zM21 5.4a2.4 2.4 0 1 1 2.4 2.4A2.4 2.4 0 0 1 21 5.4zm-8.4 0A2.4 2.4 0 1 1 15 7.8a2.4 2.4 0 0 1-2.4-2.4zm-8.4 0a2.4 2.4 0 1 1 2.4 2.4 2.4 2.4 0 0 1-2.4-2.4zm13.2 19.2a2.4 2.4 0 1 1-2.4-2.4 2.4 2.4 0 0 1 2.4 2.4zM16.2 15a.6.6 0 0 0-.6.6v5.45a3.56 3.56 0 0 0-1.2 0V15.6a.6.6 0 0 0-.6-.6H6V8.95a3.56 3.56 0 0 0 1.2 0v4.25a.6.6 0 0 0 .6.6h6a.6.6 0 0 0 .6-.6V8.95a3.56 3.56 0 0 0 1.2 0v4.25a.6.6 0 0 0 .6.6h6a.6.6 0 0 0 .6-.6V8.95a3.56 3.56 0 0 0 1.2 0v12.1a3.56 3.56 0 0 0-1.2 0V15.6a.6.6 0 0 0-.6-.6zm7.2 12a2.4 2.4 0 1 1 2.4-2.4 2.4 2.4 0 0 1-2.4 2.4z"/></svg>