<svg data-name="Layer 1" xmlns="http://www.w3.org/2000/svg" viewBox="0 0 35 34.75"><path class="cls-1" d="M33.09 22.76a6.53 6.53 0 0 0-6.63-1.6l-5-5 5.87-5.87 3.74-2.09a.59.59 0 0 0 .24-.25L33 4.63a.59.59 0 0 0-.11-.69l-2.07-2.06a.59.59 0 0 0-.69-.11l-3.36 1.64a.59.59 0 0 0-.25.24l-2.09 3.74-5.87 5.87-4.72-4.71a6.53 6.53 0 0 0-8.6-8.1.59.59 0 0 0-.2 1L8.82 5.2 6.3 7.72 2.52 3.94a.59.59 0 0 0-1 .2 6.53 6.53 0 0 0 8.09 8.6l4.72 4.72-.68.68L12 16.46a.59.59 0 0 0-1 .23L10.23 19l-6.06 3.68a.59.59 0 0 0-.14.12L.9 26.42a3.85 3.85 0 0 0 .19 5.15l2.1 2.1a3.84 3.84 0 0 0 5.15.21l3.7-3.2a.59.59 0 0 0 .12-.14l3.6-6 2.31-.77a.59.59 0 0 0 .23-1l-1.68-1.69.68-.68 5 5a6.53 6.53 0 0 0 8.6 8.09.59.59 0 0 0 .2-1l-3.78-3.78 2.52-2.52 3.78 3.78a.59.59 0 0 0 1-.2 6.53 6.53 0 0 0-1.53-7.01zM10.22 11.64a.59.59 0 0 0-.64-.13 5.34 5.34 0 0 1-7.19-6l3.49 3.47a.59.59 0 0 0 .84 0l3.36-3.36a.59.59 0 0 0 0-.84L6.59 1.29a5.34 5.34 0 0 1 6 7.19.59.59 0 0 0 .13.64l5 5-2.52 2.5zm6.56 11.24l-1.61.54a.59.59 0 0 0-.32.26l-3.66 6.1-3.63 3.17A2.64 2.64 0 0 1 4 32.88l-2.1-2.1a2.64 2.64 0 0 1-.13-3.53l3.07-3.55L11 19.88a.59.59 0 0 0 .26-.32l.54-1.61 1.42 1.42 2.1 2.1zm-1-2.68l-1.26-1.22L25.33 8.17a.59.59 0 0 0 .1-.13l2-3.65 2.81-1.41 1.53 1.5-1.4 2.81-3.65 2-.13.1zm17.93 8.18l-3.49-3.5a.59.59 0 0 0-.84 0L26 28.29a.59.59 0 0 0 0 .84l3.49 3.49a5.34 5.34 0 0 1-6-7.19.59.59 0 0 0-.13-.64l-5.23-5.23 2.52-2.52 5.23 5.23a.59.59 0 0 0 .64.13 5.34 5.34 0 0 1 7.19 6z"/></svg>