<svg data-name="Layer 1" xmlns="http://www.w3.org/2000/svg" viewBox="0 0 30 18.24"><path class="cls-1" d="M7.72 13.76a1.38 1.38 0 1 0 1.38 1.36 1.38 1.38 0 0 0-1.38-1.36zm0 1.87a.5.5 0 1 1 .5-.5.5.5 0 0 1-.5.5zm14.76-1.87a1.38 1.38 0 1 0 1.37 1.36 1.38 1.38 0 0 0-1.37-1.36zm0 1.87a.5.5 0 1 1 .52-.51.5.5 0 0 1-.52.51zm-.56-8.33l-1.3-2.1a2.19 2.19 0 0 0-1.69-.89h-5.14a3.13 3.13 0 0 0-2.58 1.13l-1.47 2c-.45.62-.23 1.39.8 1.39H21c1.12 0 1.34-.85.92-1.53zm-6.54.65h-4.91l1.46-2a2.27 2.27 0 0 1 1.87-.77h1.59zm.88 0V5.19h2.66a1.31 1.31 0 0 1 1 .52 16.45 16.45 0 0 1 1.33 2.2 47.29 47.29 0 0 1-4.99.04zM8.66.4a.441.441 0 1 0-.88.07v.52a4.33 4.33 0 0 0-4.56.29.44.44 0 0 0 .51.71 3.45 3.45 0 0 1 3.56-.27L7 1.85a.44.44 0 0 0 .28.83l1.2-.41a.44.44 0 0 0 .3-.45z"/><path class="cls-1" d="M28.67 7.33h-4.53l-2.23-3.59a2.69 2.69 0 0 0-2.07-1.1h-.74a.44.44 0 0 0 0 .88 2.2 2.2 0 0 1 2.09.73L23.51 8a.44.44 0 0 0 .37.21h4.78a.45.45 0 0 1 .45.45v.46h-.89A1.19 1.19 0 0 0 27 10.26v.5a1.19 1.19 0 0 0 1.19 1.19h.89v.93a1.78 1.78 0 0 1-1.77 1.77h-1.77a3.09 3.09 0 0 0-6.12 0h-5.18a.44.44 0 1 0 0 .88h5.17a3.09 3.09 0 0 0 6.14 0h1.8A2.66 2.66 0 0 0 30 12.87V8.66a1.33 1.33 0 0 0-1.33-1.33zm-6.19 10a2.21 2.21 0 1 1 2.21-2.21 2.21 2.21 0 0 1-2.21 2.24zm6.64-6.29h-.89a.31.31 0 0 1-.31-.31v-.5a.31.31 0 0 1 .31-.31h.89zm-12.07-8.4H13.2A4 4 0 0 0 10 4.05L8 6.71 4.45 4.12a3.93 3.93 0 0 0-3.83-.36 1.172 1.172 0 1 0 1.1 2.07 1.56 1.56 0 0 1 1.28.2l-.46 1.82A2.68 2.68 0 0 0 0 10.34v4a1.19 1.19 0 0 0 1.19 1.19h3.43a3.09 3.09 0 0 0 6.14 0h1.4a.44.44 0 1 0 0-.88h-1.38a3.09 3.09 0 0 0-6.11 0H1.19a.31.31 0 0 1-.31-.31v-.06h1.19a.44.44 0 0 0 0-.88H.88v-.39h.89A1.19 1.19 0 0 0 3 11.83v-.5a1.19 1.19 0 0 0-1.23-1.21H.89c.16-1.19 1.66-1.4 1.77-1.41l5.21-.53c.21 0 .25-.15.59-.62l2.21-3a3.05 3.05 0 0 1 2.52-1h3.86a.44.44 0 1 0 0-.88zm-9.33 10.3a2.21 2.21 0 1 1-2.21 2.18 2.21 2.21 0 0 1 2.21-2.18zm-6-1.92a.31.31 0 0 1 .31.31v.5a.31.31 0 0 1-.31.31H.88v-1.12zm1.72-3.26l.3-1.19 1.42 1zm3-.31L3.61 5.37a2.4 2.4 0 0 0-2.3-.32.29.29 0 0 1-.22 0A.29.29 0 0 1 1 4.53a3 3 0 0 1 3 .37l3.46 2.47z"/></svg>