<svg data-name="Layer 1" xmlns="http://www.w3.org/2000/svg" viewBox="0 0 30.31 21.82"><g class="cls-2"><path class="cls-3" d="M14.46 0H7.58A7.55 7.55 0 0 0 0 7.5v6.82a7.55 7.55 0 0 0 7.58 7.5h6.89a.69.69 0 0 0 .69-.68V.68a.69.69 0 0 0-.7-.68zm-.69 20.45H7.58a6.17 6.17 0 0 1-6.2-6.14V7.5a6.17 6.17 0 0 1 6.2-6.14h6.2zM28.24 1.36h-9a2.045 2.045 0 1 0 0 4.09h9a2.045 2.045 0 1 0 0-4.09zm0 2.73h-9a.68.68 0 0 1-.69-.68.69.69 0 0 1 .69-.68h9a.68.68 0 0 1 .69.68.69.69 0 0 1-.69.68zm0 12.27h-9a2.045 2.045 0 1 0 0 4.09h9a2.045 2.045 0 1 0 0-4.09zm0 2.73h-9a.68.68 0 0 1-.69-.68.69.69 0 0 1 .69-.68h9a.68.68 0 0 1 .69.68.69.69 0 0 1-.69.68zm0-10.18h-9a2.045 2.045 0 1 0 0 4.09h9a2.045 2.045 0 1 0 0-4.09zm0 2.73h-9a.68.68 0 0 1-.64-.73.69.69 0 0 1 .69-.68h9a.68.68 0 0 1 .69.68.69.69 0 0 1-.74.68z"/></g></svg>