<svg data-name="Layer 1" xmlns="http://www.w3.org/2000/svg" viewBox="0 0 35 35"><path class="cls-1" d="M17.5 0A17.5 17.5 0 1 0 35 17.5 17.54 17.54 0 0 0 17.5 0zm0 32.95A15.45 15.45 0 1 1 32.95 17.5 15.47 15.47 0 0 1 17.5 32.95z"/><path class="cls-1" d="M17.5 4.17A13.33 13.33 0 1 0 30.83 17.5 13.35 13.35 0 0 0 17.5 4.17zm0 24.61A11.28 11.28 0 1 1 28.78 17.5 11.29 11.29 0 0 1 17.5 28.78z"/><path class="cls-1" d="M20.58 9.3h-6.16v6.15h-2.05v2.05h2.05v2.05h-2.05v2.05h2.05v4.1h2.05v-4.1h5.13v-2.05h-5.13V17.5h4.1a4.1 4.1 0 0 0 0-8.2zm0 6.15h-4.1v-4.1h4.1a2.05 2.05 0 1 1 0 4.1z"/></svg>