<svg data-name="Layer 1" xmlns="http://www.w3.org/2000/svg" viewBox="0 0 13.64 15"><path d="M.32 12.61h2.41v2a.33.33 0 0 0 .34.34h1.78a.34.34 0 0 0 .24-.1.32.32 0 0 0 .1-.24v-2h5.38a.33.33 0 0 0 .34-.34v-1.36a.33.33 0 0 0-.34-.34H5.19V9.31h3.62A4.8 4.8 0 0 0 12.32 8a4.45 4.45 0 0 0 1.35-3.36 4.46 4.46 0 0 0-1.35-3.34A4.8 4.8 0 0 0 8.81 0H3.07a.33.33 0 0 0-.34.34V7H.32a.32.32 0 0 0-.25.1.34.34 0 0 0-.1.24V9a.33.33 0 0 0 .35.31h2.41v1.26H.32a.33.33 0 0 0-.34.34v1.36a.33.33 0 0 0 .34.34zM5.19 2.27H8.6a2.53 2.53 0 0 1 1.82.66 2.28 2.28 0 0 1 .69 1.73 2.28 2.28 0 0 1-.69 1.73A2.53 2.53 0 0 1 8.6 7H5.19z"/></svg>