<svg data-name="Layer 1" xmlns="http://www.w3.org/2000/svg" viewBox="0 0 45 32.44"><path class="cls-1" d="M37.88 23.46a3 3 0 1 0 3 3 3 3 0 0 0-3-3zm0 4.47a1.5 1.5 0 1 1 1.5-1.5 1.5 1.5 0 0 1-1.5 1.5z"/><path class="cls-1" d="M44.83 20.65a9 9 0 0 0-8.27-3.16c-.3-1.94-2.12-4.5-3.89-6.6V4.66a.74.74 0 0 0-.93-.71l-1.2.33a3.52 3.52 0 0 0-1.63 1l-.63-2.9a.74.74 0 0 0-.72-.58h-1.29V.72a.74.74 0 1 0-1.47 0v3.7a.74.74 0 1 0 1.47 0V3.26H27l.91 4.17a3 3 0 0 0-.76 1.48L25 11.24a.74.74 0 0 0 1.09 1l1.28-1.41a3 3 0 0 0 .34.53 21.87 21.87 0 0 1 2.73 4.36 6 6 0 0 1 .56 4.51c-.64 1.7-2.51 3-5 3.51-2.66.53-5.3 0-6.56-1.39a2.39 2.39 0 0 1-.76-1.82c.08-1.11 1.06-2.44 2.93-4l.15-.17a2.72 2.72 0 0 0-2.24-4.28H8.93a3.88 3.88 0 0 0-3.87 3.64 23.84 23.84 0 0 0-2.41 2.9 12.45 12.45 0 0 0-2.66 7 .74.74 0 0 0 .74.74h2.52v.16a6 6 0 0 0 11.82 1.52h17a6 6 0 1 0 10.84-4.81l1.81-1.51a.74.74 0 0 0 .11-1zm-29.56-7.06h4.27a1.25 1.25 0 0 1 1.18 1.67h-5.45zm-6.35 0h4.88v1.67H6.64a2.41 2.41 0 0 1 2.29-1.67zm.33 17.38a4.54 4.54 0 0 1-4.54-4.54v-.16h1.58v.16a3 3 0 1 0 5.94 0v-.16h1.57v.16a4.54 4.54 0 0 1-4.54 4.54zm-1.5-4.54a1.53 1.53 0 0 1 0-.16h3a1.502 1.502 0 1 1-3 .16zm6.33-1.63H3.28a9.61 9.61 0 0 1 1.47-2.73c1.78-2.28 4.37-3.32 7.72-3.08 1.48.1 2.41.5 2.77 1.16.46.87.07 2.43-1.15 4.65zm14.75 1.68H15.27a6.06 6.06 0 0 0 0-.67c1.14-2 2.27-4.49 1.3-6.31-.61-1.14-1.94-1.8-4-1.94-4.85-.34-7.58 1.82-9 3.7a11.09 11.09 0 0 0-1.81 3.58h-.24c.42-3.59 3.72-7.19 4.58-8.07h13.15a6.1 6.1 0 0 0-2 3.69 3.83 3.83 0 0 0 1.15 2.92c1.62 1.75 4.73 2.47 7.92 1.84a10.43 10.43 0 0 0 2.82-1 9 9 0 0 0-.28 2.23zm2.1-20.76l.27-.07v3.6c-.76-.82-1.4-1.47-1.76-1.82a2.07 2.07 0 0 1 1.49-1.71zm-2.08 4.74a1.51 1.51 0 0 1-.32-1.14 1.53 1.53 0 0 1 .18-.55c2.14 2.15 6.19 6.69 6.4 9.07a9 9 0 0 0-2.4 1.19c.05-1.93-.79-4.71-3.86-8.59zm9 20.53a4.54 4.54 0 1 1 4.54-4.54 4.54 4.54 0 0 1-4.51 4.52zm4.07-9a6 6 0 0 0-10.08 4.41h-1.53A7.57 7.57 0 0 1 43.19 21z"/></svg>