<svg data-name="Layer 1" xmlns="http://www.w3.org/2000/svg" viewBox="0 0 30 28.41"><g class="cls-2"><path class="cls-3" d="M29.16 24.86a4.69 4.69 0 0 0-3.31-1.66c-3.52-.44-4.2-2-4.27-2.22l1.91-1.91a2.62 2.62 0 0 0 0-3.71l-4.82-4.82a1.573 1.573 0 0 0-2.21-2.24l-.74.74-3.34-3.33a.52.52 0 0 0-.74 0l-.37.37L9.42 4.2a.52.52 0 0 0-.74 0l-.38.4-3-3a.52.52 0 0 0-.74 0l-.37.37L2.38.15a.52.52 0 0 0-.74 0L.15 1.63a.52.52 0 0 0 0 .74L2 4.2l-.37.37a.52.52 0 0 0 0 .74l3 3-.37.37a.52.52 0 0 0 0 .74l1.85 1.85-.37.37a.52.52 0 0 0 0 .74L9 15.71l-.74.74a1.57 1.57 0 0 0 0 2.22 1.56 1.56 0 0 0 1.11.46 1.56 1.56 0 0 0 1.11-.46l.37-.37 4.82 4.82a2.6 2.6 0 0 0 1.85.76 2.61 2.61 0 0 0 1.85-.77l1.39-1.39c.45.75 1.69 2.08 4.92 2.48a3.7 3.7 0 0 1 2.59 1.28 3.45 3.45 0 0 1 .62 2.32.52.52 0 0 0 .44.59h.07a.52.52 0 0 0 .52-.45 4.47 4.47 0 0 0-.76-3.08zM1.27 2L2 1.26l1.49 1.48-.12.12-.62.62zm1.48 3l.37-.37L4.6 3.11l.4-.37 2.56 2.6-2.22 2.22zm2.59 4.04L7.19 7.2l1.48-1.49.33-.37 1.48 1.48-3.7 3.7zm1.48 3L12 6.82l3 3-5.21 5.15zm3 5.93a.53.53 0 0 1-.37.15.52.52 0 0 1-.45-.19.52.52 0 0 1 0-.73l1.11-1.11 5.97-5.89 1.12-1.16a.523.523 0 0 1 .74.74zm8.89 4.44a1.57 1.57 0 0 1-1.11.46 1.56 1.56 0 0 1-1.11-.46l-4.82-4.82 6.3-6.3 4.82 4.82a1.57 1.57 0 0 1 0 2.22z"/></g></svg>