<svg data-name="Layer 1" xmlns="http://www.w3.org/2000/svg" viewBox="0 0 30.28 28.97"><g class="cls-2"><path class="cls-3" d="M28.19 12.93h-3.13v-1a1.56 1.56 0 0 0 1.57-1.55 1.53 1.53 0 0 0-.4-1 1.53 1.53 0 0 0 0-2.07 1.53 1.53 0 0 0 0-2.07 1.53 1.53 0 0 0 .4-1 1.56 1.56 0 0 0-1.57-1.66h-.52v-.77A1.82 1.82 0 0 0 22.71 0h-.51a1.82 1.82 0 0 0-1.83 1.81v.77h-.52a1.56 1.56 0 0 0-1.57 1.55 1.53 1.53 0 0 0 .4 1 1.53 1.53 0 0 0 0 2.07 1.53 1.53 0 0 0 0 2.07 1.53 1.53 0 0 0-.4 1 1.56 1.56 0 0 0 1.57 1.55v1h-5.23V8.79a.52.52 0 0 0-.52-.52h-2.61V4.14a3.12 3.12 0 0 0-3.13-3.1H3.13A3.12 3.12 0 0 0 0 4.13v21.72a3.12 3.12 0 0 0 3.13 3.11h5.23a3.12 3.12 0 0 0 3.13-3.11v-3.1h2.61a.52.52 0 0 0 .52-.52V18.1h13.57a2.08 2.08 0 0 0 2.09-2.07v-1a2.08 2.08 0 0 0-2.09-2.1zM10.44 7.02L7.92 9.48a.51.51 0 0 0 0 .73.53.53 0 0 0 .74 0l1.78-1.73v1.64l-2.52 2.5a.51.51 0 0 0 0 .73.53.53 0 0 0 .74 0l1.78-1.77v1.64l-2.52 2.5a.51.51 0 0 0 0 .73.53.53 0 0 0 .74 0l1.78-1.77v1.64l-2.52 2.5a.51.51 0 0 0 0 .73.53.53 0 0 0 .74 0l1.78-1.77v1.7l-2.52 2.5a.51.51 0 0 0 0 .73.53.53 0 0 0 .74 0l1.78-1.77v1.64l-2.52 2.5a.51.51 0 0 0 0 .73.53.53 0 0 0 .74 0l1.78-1.77v1.85a2.08 2.08 0 0 1-2.09 2.07H3.13A2.08 2.08 0 0 1 1 25.85V24l1.78 1.77a.53.53 0 0 0 .74 0 .51.51 0 0 0 0-.73L1 22.54V20.9l1.78 1.77a.53.53 0 0 0 .74 0 .51.51 0 0 0 0-.73L1 19.48V17.8l1.78 1.77a.53.53 0 0 0 .74 0 .51.51 0 0 0 0-.73L1 16.33v-1.64l1.83 1.79a.53.53 0 0 0 .74 0 .51.51 0 0 0 0-.73L1 13.23v-1.64l1.78 1.77a.53.53 0 0 0 .74 0 .51.51 0 0 0 0-.73L1 10.13V8.48l1.78 1.77a.53.53 0 0 0 .74 0 .51.51 0 0 0 0-.73L1 7.02V5.38l1.83 1.77a.53.53 0 0 0 .74 0 .51.51 0 0 0 0-.73L1.05 3.93a2.08 2.08 0 0 1 2.08-1.86h5.23a2.08 2.08 0 0 1 2.08 1.87L7.92 6.42a.51.51 0 0 0 0 .73.53.53 0 0 0 .74 0l1.78-1.77v1.64zm3.13 6.46v8.28h-2.08V9.31h2.09zm7.84-11.67a.78.78 0 0 1 .79-.78h.51a.78.78 0 0 1 .79.78v.77h-2.09v-.77zm-1.57 1.81h5.21a.52.52 0 0 1 .53.52.52.52 0 0 1-.53.52h-5.21a.52.52 0 0 1-.53-.52.52.52 0 0 1 .53-.52zm0 2.07h5.21a.52.52 0 0 1 .53.52.52.52 0 0 1-.53.52h-5.21a.52.52 0 0 1-.53-.52.52.52 0 0 1 .53-.52zm0 2.07h5.21a.52.52 0 0 1 .53.52.52.52 0 0 1-.53.52h-5.21a.52.52 0 0 1-.53-.52.52.52 0 0 1 .53-.52zm-.53 2.59a.52.52 0 0 1 .53-.52h5.21a.52.52 0 0 1 .53.52.52.52 0 0 1-.53.52h-5.21a.52.52 0 0 1-.52-.53zM24 11.89v1h-3.12v-1zm5.22 4.14a1 1 0 0 1-1 1h-13.6v-3.1h13.57a1 1 0 0 1 1 1v1z"/></g></svg>