<svg data-name="Layer 1" xmlns="http://www.w3.org/2000/svg" viewBox="0 0 40 31.33"><path class="cls-1" d="M35.33 7.34h-4V5a5 5 0 0 0-5-5H13.66a5 5 0 0 0-5 5v2.33h-4A4.67 4.67 0 0 0 0 12v14.67a4.67 4.67 0 0 0 4.67 4.67h30.66A4.67 4.67 0 0 0 40 26.67V12a4.67 4.67 0 0 0-4.67-4.66zM6.67 30h-2a3.34 3.34 0 0 1-3.34-3.33V12a3.34 3.34 0 0 1 3.34-3.33h2zm2.67 0H8V8.67h1.33zm20 0H10.67V8.67h18.66V30zM14 7.34v-2a1.34 1.34 0 0 1 1.34-1.33h10a1.34 1.34 0 0 1 1.34 1.33v2zm16 0h-2v-2a2.67 2.67 0 0 0-2.67-2.67h-10a2.67 2.67 0 0 0-2.67 2.67v2H10V5a3.67 3.67 0 0 1 3.66-3.67h12.68A3.67 3.67 0 0 1 30 5v2.33zm2 22.67h-1.33V8.67H32zm6.67-3.34A3.34 3.34 0 0 1 35.34 30h-2V8.67h2A3.34 3.34 0 0 1 38.67 12z"/><path class="cls-1" d="M27.15 22.07l-4.66-4.66.13-.13a.67.67 0 0 0 .2-.48 6.55 6.55 0 0 1 .52-2.66 17.39 17.39 0 0 1 2.3-2.8.67.67 0 0 0-.46-1.14 6.41 6.41 0 0 0-2.73.64A19.62 19.62 0 0 0 19 13.67l-3.88 3.88a.67.67 0 0 0 0 .94l.13.13-1.15 1.15-.1-.1a.67.67 0 0 0-1 0l-1.49 1.49a.67.67 0 0 0 0 .94l2.69 2.69a.67.67 0 0 0 .94 0l1.49-1.49a.67.67 0 0 0 0-.94l-.13-.13 1.15-1.15.13.13a.67.67 0 0 0 .94 0l1-1 4.66 4.66a1.93 1.93 0 1 0 2.73-2.73zm-7.86-3.34l-1 1-.15-.06a.67.67 0 0 0-.94 0l-2.09 2a.67.67 0 0 0 0 .94l.13.13-.55.55-1.74-1.74.55-.55.13.13a.67.67 0 0 0 .94 0l2.09-2.09a.67.67 0 0 0 0-.94l-.13-.13 3.41-3.41A18 18 0 0 1 23 12.04l.26-.12a10.3 10.3 0 0 0-1.14 1.59 7.51 7.51 0 0 0-.67 3l-.41.41zm6.92 5.13a.6.6 0 0 1-.85 0l-4.66-4.65.85-.85 4.66 4.66a.59.59 0 0 1 0 .84z"/></svg>