<svg data-name="Layer 1" xmlns="http://www.w3.org/2000/svg" viewBox="0 0 28 30"><path class="cls-1" d="M19 11a.49.49 0 0 0-.39-.49 21.38 21.38 0 0 0-9.22 0A.49.49 0 0 0 9 11v13.51a.49.49 0 0 0 .39.49 21.38 21.38 0 0 0 9.22 0 .49.49 0 0 0 .39-.49V11zm-1.18.37l-1.66 4.13h-4.32l-1.65-4.13a20.42 20.42 0 0 1 7.62 0zM16 16.5V21h-4v-4.5zm-6-2.9l1 2.5V18h-1zm0 5.4h1v2.35l-1 1.5zm.33 5.16L11.77 22h4.46l1.44 2.16a20.43 20.43 0 0 1-7.34 0zM18 22.85l-1-1.5V19h1zM18 18h-1v-1.9l1-2.5z"/><path class="cls-1" d="M27.85 16.65L21.21 10l1.65-1.65-.71-.71L21 8.79V5.62A5.62 5.62 0 0 0 15.38 0h-2.76A5.62 5.62 0 0 0 7 5.62v3.17L5.85 7.65l-.71.71L6.79 10 .15 16.65a.5.5 0 0 0 0 .71l1.5 1.5a.5.5 0 0 0 .71 0L7 14.21v4.09l-5.35 5.35a.5.5 0 0 0 0 .71l1.5 1.5a.5.5 0 0 0 .71 0L7 22.71v3.43A3.86 3.86 0 0 0 10.86 30h6.28A3.86 3.86 0 0 0 21 26.14v-3.43l2.65 2.65a.5.5 0 0 0 .71 0l1.5-1.5a.5.5 0 0 0 0-.71L21 18.29v-4.08l4.65 4.65a.5.5 0 0 0 .71 0l1.5-1.5a.5.5 0 0 0-.01-.71zM7 21.29l-3.5 3.5-.79-.79L7 19.71zm0-8.5l-5 5-.79-.79L7 11.21zM19.67 3.9a3.51 3.51 0 0 1-2.57-2.57 4.62 4.62 0 0 1 2.57 2.57zM9.35 2.35a4.61 4.61 0 0 1 1.56-1A3.34 3.34 0 0 1 10 3a3.42 3.42 0 0 1-1.7.95 4.61 4.61 0 0 1 1.05-1.6zM8 5.62A4.72 4.72 0 0 1 8 5a4.49 4.49 0 0 0 1.44-.41L8 7.75zm12 20.52A2.86 2.86 0 0 1 17.14 29h-6.28A2.86 2.86 0 0 1 8 26.14v-16l3.45-7.4A4.33 4.33 0 0 0 12 1a4.65 4.65 0 0 1 .65 0h2.76A4.65 4.65 0 0 1 16 1a4.46 4.46 0 0 0 .55 1.66L20 10.11zm0-18.42l-1.47-3.18a4.45 4.45 0 0 0 1.42.46 4.66 4.66 0 0 1 .05.66zm4.79 15.78l-.79.79-3-3v-1.58zM26 17.79l-5-5v-1.58L26.79 17z"/></svg>