<svg data-name="Layer 1" xmlns="http://www.w3.org/2000/svg" viewBox="0 0 35 35"><path class="cls-1" d="M17.5 0A17.5 17.5 0 1 0 35 17.5 17.52 17.52 0 0 0 17.5 0zm0 33.79A16.29 16.29 0 1 1 33.79 17.5 16.31 16.31 0 0 1 17.5 33.79z"/><path class="cls-1" d="M17.5 6A11.47 11.47 0 1 0 29 17.5 11.48 11.48 0 0 0 17.5 6zm0 21.72A10.26 10.26 0 1 1 27.76 17.5 10.27 10.27 0 0 1 17.5 27.76z"/><path class="cls-1" d="M17.5 13.88a3.62 3.62 0 1 0 3.62 3.62 3.62 3.62 0 0 0-3.62-3.62zm0 6a2.41 2.41 0 1 1 2.41-2.41 2.42 2.42 0 0 1-2.41 2.44zM13.66 12a1.21 1.21 0 1 0 0 1.71 1.21 1.21 0 0 0 0-1.71zm-2.8 6.71a1.21 1.21 0 1 0-1.2-1.21 1.21 1.21 0 0 0 1.2 1.21zm6.64-6.64a1.21 1.21 0 1 0-1.21-1.21 1.21 1.21 0 0 0 1.21 1.21zM23 12a1.21 1.21 0 0 0-1.71 1.71A1.21 1.21 0 0 0 23 12zm-9.34 9.34a1.21 1.21 0 1 0 0 1.71 1.21 1.21 0 0 0 0-1.71zm10.48-2.63a1.21 1.21 0 1 0-1.21-1.21 1.21 1.21 0 0 0 1.21 1.21zM23 21.34A1.21 1.21 0 1 0 23 23a1.2 1.2 0 0 0 0-1.66zm-5.5 4a1.21 1.21 0 1 0-1.21-1.21 1.21 1.21 0 0 0 1.21 1.21z"/></svg>