<svg xmlns="http://www.w3.org/2000/svg" viewBox="0 0 58 58"><path fill="#f05565" d="M46 4v4h-7V4H15v4H8V4H0v11h54V4z"/><path fill="#efebde" d="M8 15H0v43h54V15H15z"/><path d="M37 22H8v29h38V22h-9zm-9 2h7v7h-7v-7zm7 16h-7v-7h7v7zm-16-7h7v7h-7v-7zm0-9h7v7h-7v-7zm-9 0h7v7h-7v-7zm0 9h7v7h-7v-7zm7 16h-7v-7h7v7zm9 0h-7v-7h7v7zm9 0h-7v-7h7v7zm9 0h-7v-7h7v7zm0-9h-7v-7h7v7zm-7-9v-7h7v7h-7z" fill="#d5d0bb"/><path fill="#36495e" d="M8 0h7v8H8zm31 0h7v8h-7z"/><path fill="#7f6e5d" d="M19 33h7v7h-7z"/><circle cx="46" cy="45" r="12" fill="#71c386"/><path d="M52 44h-5v-5a1 1 0 0 0-2 0v5h-5a1 1 0 0 0 0 2h5v5a1 1 0 0 0 2 0v-5h5a1 1 0 0 0 0-2z" fill="#fff"/></svg>