<svg xmlns="http://www.w3.org/2000/svg" viewBox="0 0 496 496"><path d="M295.996 312l90.12 15.024c32.496 5.416 58.344 30.192 65.136 62.432L471.996 488h-448l20.744-98.552c6.784-32.232 32.64-57.016 65.136-62.432L199.996 312h96z" fill="#ececec"/><g fill="#b6c1ce"><path d="M343.996 320l-32 96-64-56 48-48z"/><path d="M431.996 488h40l-20.744-98.552c-6.784-32.232-32.64-57.016-65.128-62.432L295.996 312h-8l100.328 53.504a48.01 48.01 0 0 1 24.344 32.296l19.328 90.2zm-280-168l32 96 64-56-48-48z"/></g><path fill="#f9e0a6" d="M295.996 280v32l-48 48-48-48v-32z"/><path fill="#fb5968" d="M202.284 400l29.712 32-16 56h64l-16-56 29.712-32-45.712-40z"/><circle cx="247.996" cy="152" r="144" fill="#92e0c0"/><path d="M247.996 8c-4.048 0-8.032.28-12 .608 73.896 6.112 132 67.912 132 143.392s-58.104 137.28-132 143.392c3.968.328 7.952.608 12 .608 79.528 0 144-64.472 144-144s-64.472-144-144-144z" fill="#48c397"/><circle cx="247.996" cy="232" r="16" fill="#ececec"/><path d="M459.076 387.808c-7.52-35.72-35.648-62.672-71.648-68.672l-83.432-13.912v-12.048c56.152-22.36 96-77.152 96-141.176 0-83.816-68.184-152-152-152s-152 68.184-152 152c0 64.024 39.848 118.816 96 141.176v12.048l-83.44 13.912c-36 6-64.12 32.952-71.648 68.672L14.14 496h467.72l-22.784-108.192zm-15.656 3.296L462.14 480h-46.984l-7.208-64.88-15.896 1.768L399.06 480H286.028l-13.248-46.376 18.696-24.944 24.304 21.264 33.64-100.928 35.376 5.896c29.464 4.912 52.472 26.96 58.624 56.192zm-207.128-31.496l-48.512 42.448-25.232-75.704 34.704-5.784 39.04 39.04zm62.448-39.04l34.704 5.784-25.232 75.704-48.512-42.448 39.04-39.04zm-51.104 50.384l.36.36.36-.36 31.048 27.168-24.2 32.256L269.388 480h-42.792l14.184-49.624-24.2-32.256 31.056-27.168zM111.996 152c0-74.992 61.008-136 136-136s136 61.008 136 136-61.008 136-136 136-136-61.008-136-136zm136 152c13.864 0 27.232-2.024 40-5.52v10.208l-40 40-40-40V298.48c12.768 3.496 26.136 5.52 40 5.52zM52.572 391.104c6.16-29.224 29.168-51.28 58.624-56.184l35.376-5.896 33.64 100.928 24.304-21.264 18.696 24.944L209.964 480H96.932l7.016-63.12-15.896-1.768L80.836 480H33.852l18.72-88.896z"/><path d="M243.996 64c15.44 0 28 12.56 28 28v5.088c0 7.48-2.912 14.504-8.2 19.808l-23.8 23.792V184h16v-36.688l19.12-19.112c8.312-8.32 12.88-19.368 12.88-31.12V92c0-24.256-19.736-44-44-44s-44 19.744-44 44v4h16v-4c0-15.44 12.56-28 28-28zm28 168c0-13.232-10.768-24-24-24s-24 10.768-24 24 10.768 24 24 24 24-10.768 24-24zm-32 0c0-4.416 3.592-8 8-8 4.408 0 8 3.584 8 8s-3.592 8-8 8-8-3.584-8-8z"/></svg>