<svg xmlns="http://www.w3.org/2000/svg" viewBox="0 0 58 58"><circle cx="29" cy="29" r="29" fill="#ecf0f1"/><path d="M29 4c13.785 0 25 11.215 25 25S42.785 54 29 54 4 42.785 4 29 15.215 4 29 4m0-4C12.984 0 0 12.984 0 29s12.984 29 29 29 29-12.984 29-29S45.016 0 29 0z" fill="#545e73"/><path d="M29 5.879a1 1 0 0 0-1 1v1a1 1 0 1 0 2 0v-1a1 1 0 0 0-1-1zm0 43a1 1 0 0 0-1 1v1a1 1 0 1 0 2 0v-1a1 1 0 0 0-1-1zm22-21h-1a1 1 0 1 0 0 2h1a1 1 0 1 0 0-2zm-43 0H7a1 1 0 1 0 0 2h1a1 1 0 1 0 0-2zm35.849-15.264l-.707.707a.999.999 0 1 0 1.414 1.414l.707-.707a.999.999 0 1 0-1.414-1.414zM13.444 43.021l-.707.707a.999.999 0 1 0 1.414 1.414l.707-.707a.999.999 0 1 0-1.414-1.414zm31.112 0a.999.999 0 1 0-1.414 1.414l.707.707a.997.997 0 0 0 1.414 0 .999.999 0 0 0 0-1.414l-.707-.707zM14.151 12.615a.999.999 0 1 0-1.414 1.414l.707.707a.997.997 0 0 0 1.414 0 .999.999 0 0 0 0-1.414l-.707-.707z" fill="#8697cb"/><path d="M26 29.879h-8a1 1 0 1 1 0-2h8a1 1 0 1 1 0 2zm3-3a1 1 0 0 1-1-1v-11a1 1 0 1 1 2 0v11a1 1 0 0 1-1 1z" fill="#545e73"/><path d="M29 32.879c-2.206 0-4-1.794-4-4s1.794-4 4-4 4 1.794 4 4-1.794 4-4 4zm0-6c-1.103 0-2 .897-2 2s.897 2 2 2 2-.897 2-2-.897-2-2-2z" fill="#545e73"/><circle cx="44.39" cy="46" r="12" fill="#71c386"/><path d="M50.39 45h-5v-5a1 1 0 0 0-2 0v5h-5a1 1 0 0 0 0 2h5v5a1 1 0 0 0 2 0v-5h5a1 1 0 0 0 0-2z" fill="#fff"/></svg>