<svg viewBox="0 0 60 60" fill="none" xmlns="http://www.w3.org/2000/svg"><path d="M52.852 0l-2.075 7.84-3.199 2.707v44.18A5.266 5.266 0 0 1 42.305 60c-4.852 0-8.79-3.938-8.79-8.79l-5.273.388-19.336 1.37V8.79c0-4.852 3.938-8.79 8.79-8.79h35.156z" fill="#E0F4FF"/><path d="M52.852 0l-2.075 7.84-3.199 2.707v44.18A5.266 5.266 0 0 1 42.305 60c-4.852 0-8.79-3.938-8.79-8.79l-5.273.388V0h24.61z" fill="#BBDCFF"/><path d="M58.125 5.273v5.274H47.578V5.273A5.266 5.266 0 0 1 52.852 0C54.539 0 56.05.808 57 2.039a5.159 5.159 0 0 1 1.125 3.234z" fill="#9ABADB"/><path d="M37.031 15.82H19.453l3.516-7.03h10.547l3.515 7.03z" fill="#E0F4FF"/><path d="M37.031 15.82h-8.789V8.79h5.274l3.515 7.03z" fill="#BBDCFF"/><path d="M29.473 41.895l-1.23 1.23-7.032 7.066-4.746-4.78 2.46-2.462 2.286 2.25 5.8-5.765 2.462 2.46z" fill="#7C8388"/><path d="M19.453 23.086h3.516v5.273h-3.516v-5.273z" fill="#575F64"/><path d="M33.516 23.086h3.515v5.273h-3.515v-5.273z" fill="#32393F"/><path d="M29.473 31.348l-1.23 1.23-7.032 7.067-4.746-4.782 2.46-2.46 2.286 2.25 5.8-5.766 2.462 2.46z" fill="#7C8388"/><path d="M30 42.422h10.547v3.516H30v-3.516zm0-10.547h10.547v3.516H30v-3.516zm-1.758 8.789l1.23 1.23-1.23 1.231v-2.46zm0-10.547l1.23 1.23-1.23 1.231v-2.46z" fill="#575F64"/><path d="M34.606 7.031H21.879l-5.274 10.547H39.88L34.606 7.031zM22.3 14.063l1.758-3.516h8.367l1.758 3.515H22.3z" fill="#ED3E3C"/><path d="M39.879 17.578H28.242v-3.515h5.942l-1.758-3.516h-4.184V7.03h6.364l5.273 10.547z" fill="#D62F2D"/><path d="M15.938 14.063v10.78h24.609v-10.78h-24.61z" fill="#FF5E5B"/><path d="M28.242 14.063h12.305v10.78H28.242v-10.78z" fill="#ED3E3C"/><path d="M42.305 60h-31.64c-4.852 0-8.79-3.938-8.79-8.79v-1.757h35.156v5.274A5.266 5.266 0 0 0 42.305 60z" fill="#BBDCFF"/><path d="M42.305 60H28.242V49.453h8.79v5.274A5.266 5.266 0 0 0 42.304 60z" fill="#9ABADB"/></svg>