<svg id="Layer_1" data-name="Layer 1" xmlns="http://www.w3.org/2000/svg" viewBox="0 0 120.5 73.51"><defs><style>.cls-1{fill:none}.cls-2{fill:#f6f938}.cls-3{clip-path:url(#clip-path)}</style><clipPath id="clip-path"><path class="cls-1" d="M0 1h80v80H0z"/></clipPath></defs><title>logo</title><path class="cls-2" d="M120.5 0h-80L0 72h80z"/><g class="cls-3"><path d="M50 58.54H30V61h20z"/><path d="M80 43.38v-.12L76.22 27a.7.7 0 0 0 0-.07l-1.93-5.78a3.74 3.74 0 0 0-3.36-2.55l-1.65-4.94a3.73 3.73 0 0 0-3.54-2.55h-11.3A5.07 5.07 0 0 0 50 8.49H5a5.09 5.09 0 0 0-5 5.08v30a1.31 1.31 0 0 0 .1.51v13.2A3.74 3.74 0 0 0 3.83 61h3.75v-2.46H3.83a1.27 1.27 0 0 1-1.26-1.26v-12.4h50v8.65H55v-8.74h22.5v2.51h-1.25a3.74 3.74 0 0 0-3.73 3.7v1.25A3.74 3.74 0 0 0 76.25 56h1.25v1.26a1.25 1.25 0 0 1-1.25 1.25h-3.74V61h3.75A3.75 3.75 0 0 0 80 57.28V43.54a1.34 1.34 0 0 0 0-.16zM52.44 42.2H2.67V13.57a2.41 2.41 0 0 1 2.41-2.41H50a2.41 2.41 0 0 1 2.41 2.41zm18.27-21.13a1.25 1.25 0 0 1 1.19.85l1.38 4.14H55.12v-5zm-13.19-7.51v1.26H60v-1.26h2.5v1.26H65v-1.26h.7a1.26 1.26 0 0 1 1.2.86l1.38 4.15H55.12v-5h2.41zM60 42.29h-4.88v-8.75h3.66A1.27 1.27 0 0 1 60 34.8zm2.47 0V34.8a3.74 3.74 0 0 0-3.73-3.73h-3.62v-2.51H74l3.17 13.73zm15 11.25h-1.22A1.26 1.26 0 0 1 75 52.28V51a1.27 1.27 0 0 1 1.26-1.26h1.24z"/><path d="M63.77 47.29h-5v2.5h5zM49.86 24.14a1.28 1.28 0 0 0-1.08-.6h-6.21v-2.45h6.22a1.27 1.27 0 0 0 1.15-1.83c-1.33-2.75-5-5.72-8.64-5.72a8.76 8.76 0 0 0-7.18 3.75H21a8.76 8.76 0 0 0-7.18-3.75c-3.63 0-7.31 3-8.64 5.71a1.28 1.28 0 0 0 1.15 1.83h6.22v2.45H6.33a1.27 1.27 0 0 0-1.15 1.83c1.33 2.75 5 5.71 8.64 5.71A8.76 8.76 0 0 0 21 27.34h13.12a8.76 8.76 0 0 0 7.18 3.75c3.63 0 7.31-3 8.64-5.71a1.27 1.27 0 0 0-.08-1.24zm-36 4.4a7.64 7.64 0 0 1-5-2.45h5a1.28 1.28 0 0 0 1.27-1.27v-5a1.28 1.28 0 0 0-1.27-1.27h-5a7.64 7.64 0 0 1 5-2.45 6.22 6.22 0 0 1 0 12.44zm19.07-3.75h-10.7a8.64 8.64 0 0 0 0-4.94h10.66a8.64 8.64 0 0 0 0 4.94zm8.4 3.75a6.22 6.22 0 1 1 0-12.43 7.64 7.64 0 0 1 5 2.45h-5A1.28 1.28 0 0 0 40 19.82v5a1.28 1.28 0 0 0 1.27 1.27h5a7.64 7.64 0 0 1-4.98 2.44zM18.82 59.77a3.75 3.75 0 0 0 0 7.49 3.75 3.75 0 0 0 0-7.49zm0 5a1.25 1.25 0 0 1 0-2.5 1.25 1.25 0 0 1 0 2.5z"/><path d="M67.85 71c.18-.16.36-.31.53-.49a10 10 0 0 0-7.1-17h-.06a10 10 0 0 0-7 17.1c.14.14.3.27.44.4H25.39c.18-.16.36-.32.53-.49a10 10 0 0 0-7.11-17h-.06A10 10 0 0 0 12.25 71H.09v2.47H80V71zm-49 0a7.49 7.49 0 0 1 0-15 7.49 7.49 0 0 1 0 15zm42.45 0a7.49 7.49 0 0 1 0-15 7.49 7.49 0 0 1 0 15z"/><path d="M61.25 59.77a3.75 3.75 0 0 0 0 7.49 3.75 3.75 0 0 0 0-7.49zm0 5a1.25 1.25 0 0 1 0-2.5 1.25 1.25 0 0 1 0 2.5zM34.46 52.3l-2.13-3.2a1.23 1.23 0 0 0-1-.55H20.07V51h10.57l2.13 3.2a1.23 1.23 0 0 0 1 .55h13.77V52.3zm-1.91-20.02h-10a1.28 1.28 0 0 0-1.27 1.27V36a3.78 3.78 0 0 0 3.77 3.77h5A3.78 3.78 0 0 0 33.83 36v-2.5a1.28 1.28 0 0 0-1.28-1.22zM31.28 36a1.22 1.22 0 0 1-1.22 1.22h-5A1.22 1.22 0 0 1 23.84 36v-1.17h7.44zm-21.2-1.23h-2.5v2.55h2.5zm6.24 0h-2.5v2.55h2.5zm24.97 0H38.8v2.55h2.5zm6.25 0H45v2.55h2.5zM17.57 48.55h-2.5V51h2.5zm-5 0h-2.5V51h2.5zm59.94-17.48H70v2.47h2.5zm-5 0H65v2.47h2.5z"/></g></svg>