<svg viewBox="0 0 60 60" fill="none" xmlns="http://www.w3.org/2000/svg"><path d="M7.148 32.788v-6.304l-3.515 1.758v6.001l4.03 4.031 2.486-2.486-3-3z" fill="#BBDCFF"/><path d="M14.18 28.242H3.633V17.578H14.18v10.664z" fill="#575F64"/><path d="M35.273 12.305v6.152H27.82c-1.652-.563-3.2-.879-4.851-.879-1.688 0-3.234.316-4.887.879h-7.418v-6.152C10.664 5.52 16.184 0 22.97 0s12.304 5.52 12.304 12.305z" fill="#FF5E5B"/><path d="M27.82 18.457c-1.652-.563-3.2-.879-4.851-.879V0c6.785 0 12.304 5.52 12.304 12.305v6.152H27.82z" fill="#ED3E3C"/><path d="M28.242 26.484a5.266 5.266 0 0 1-5.273 5.274 5.266 5.266 0 0 1-5.274-5.274h3.516a1.74 1.74 0 0 0 1.758 1.758 1.74 1.74 0 0 0 1.758-1.758h3.515z" fill="#000"/><path d="M52.969 15.938h3.515v17.578H52.97V15.938z" fill="#E0F4FF"/><path d="M57.96 3.633h-6.468l-2.039 14.062H60L57.96 3.633z" fill="#E0F4FF"/><path d="M38.79 45.82v8.403L35.272 60H10.664l-3.516-6.41v-7.313l3.516-6.504a14.317 14.317 0 0 1 5.274-.984h5.273v7.031h3.516v-7.03H30c1.793 0 3.586.315 5.273.983l3.516 6.047z" fill="#FF5E5B"/><path d="M22.969 31.758v-3.516a1.74 1.74 0 0 0 1.758-1.758h3.515a5.266 5.266 0 0 1-5.273 5.274z" fill="#000"/><path d="M38.79 45.82v8.403L35.272 60H22.97V45.82h1.758v-7.03H30c1.793 0 3.586.315 5.273.983l3.516 6.047z" fill="#ED3E3C"/><path d="M35.273 20.215v6.27c0 4.78-2.777 9.105-7.03 11.109v11.742H17.694V37.594a12.295 12.295 0 0 1-7.03-11.11v-6.27h7.417c1.406.493 3.094.88 4.887.88 1.793 0 3.48-.387 4.922-.88h7.382z" fill="#FDE4E4"/><path d="M35.273 20.215v6.27c0 4.78-2.777 9.105-7.03 11.109v11.742h-5.274V21.094c1.793 0 3.48-.387 4.922-.88h7.382z" fill="#FCCED3"/><path d="M8.027 40.934a4.875 4.875 0 0 0-.879.597C2.79 44.379 0 49.336 0 54.609V60h10.664V39.774c-.914.246-1.793.668-2.637 1.16z" fill="#ED3E3C"/><path d="M38.79 41.531a4.878 4.878 0 0 0-.88-.597c-.843-.492-1.722-.914-2.637-1.16V60H45.82v-5.39c0-5.274-2.672-10.231-7.03-13.079z" fill="#D62F2D"/><path d="M22.969 14.063c-3.516 0-8.333 1.441-12.305 4.394v1.758c4.043 3.059 8.473 4.394 12.305 4.394 3.832 0 8.226-1.335 12.304-4.394v-1.758c-3.902-2.918-8.789-4.395-12.304-4.395z" fill="#7C8388"/><path d="M35.273 18.457v1.758c-4.078 3.059-8.472 4.394-12.304 4.394V14.062c3.515 0 8.402 1.477 12.304 4.395z" fill="#575F64"/><path d="M60 17.695h-5.273V3.633h3.234L60 17.695z" fill="#BBDCFF"/><path d="M54.727 15.938h1.757v17.578h-1.757V15.938z" fill="#BBDCFF"/><path d="M49.453 31.758v17.578H60V31.758H49.453z" fill="#FF5E5B"/><path d="M54.727 31.758H60v17.578h-5.273V31.758z" fill="#ED3E3C"/></svg>