<svg viewBox="0 0 100 100" fill="none" xmlns="http://www.w3.org/2000/svg"><path d="M85.443 50.031c-8.039 0-14.556 6.517-14.556 14.556 0 8.039 6.517 14.556 14.556 14.556 8.039 0 14.556-6.517 14.556-14.556 0-8.039-6.517-14.556-14.556-14.556zm0 23.497a8.941 8.941 0 1 1 0-17.883 8.941 8.941 0 0 1 0 17.883z" fill="#444D56"/><path d="M85.443 75.058c-5.54 0-10.13-4.328-10.453-9.853l3.056-.178c.228 3.909 3.477 6.97 7.397 6.97 4.086 0 7.41-3.324 7.41-7.41s-3.324-7.41-7.41-7.41a7.41 7.41 0 0 0-6.513 3.872l-2.69-1.463a10.469 10.469 0 0 1 9.202-5.47c5.774 0 10.472 4.697 10.472 10.471s-4.697 10.471-10.471 10.471z" fill="#1D2C30"/><path d="M14.556 50.031C6.517 50.031 0 56.548 0 64.587c0 8.039 6.517 14.556 14.556 14.556 8.039 0 14.556-6.517 14.556-14.556 0-8.039-6.517-14.556-14.556-14.556zm0 23.497a8.941 8.941 0 1 1 0-17.883 8.941 8.941 0 0 1 0 17.883z" fill="#444D56"/><path d="M14.556 75.059c-5.774 0-10.472-4.698-10.472-10.472 0-5.774 4.697-10.472 10.472-10.472 5.774 0 10.472 4.697 10.472 10.472 0 5.774-4.698 10.472-10.472 10.472zm0-17.883c-4.086 0-7.41 3.325-7.41 7.411 0 4.086 3.324 7.41 7.41 7.41s7.41-3.324 7.41-7.41-3.324-7.41-7.41-7.41z" fill="#1D2C30"/><path d="M14.555 66.118a1.53 1.53 0 0 1-1.406-2.133l7.67-17.928a1.53 1.53 0 1 1 2.814 1.204l-7.67 17.928c-.248.581-.814.93-1.408.93zm47.722-.16l24.22-1.086c1.497-.067 1.852-2.123.465-2.688L63.13 52.459l-10.35-3.451-8.877 17.448 18.375-.498z" fill="#1D2C30"/><path d="M62.209 29.55L34.413 51.764l-1.465-6.8-2.268-10.52L33 31.498a10.416 10.416 0 0 1 9.209-3.92l7.194.71 12.806 1.263z" fill="#F2171C"/><path d="M23.878 38.236l4.925-14.596c.54-1.608-.95-3.176-2.578-2.694C7.681 26.43.482 47.222.026 48.597l-.018.054-.007.018m41.02-11.453c3.433 6.447-4.167 7.578-8.073 7.747l-2.268-10.52L33 31.498a10.416 10.416 0 0 1 9.209-3.92l7.194.71c-2.466-.244-12.92.406-8.382 8.928z" fill="#AF0900"/><path d="M34.413 51.762l16.555 6.746h.001l24.745-12.309 5.184-11.015a5.992 5.992 0 0 1 4.47-3.364l12.407-1.997a2.645 2.645 0 0 0-.42-5.256h-17.56l-17.587 4.984h-.004l-26.577 7.53-1.214 14.681z" fill="#515F84"/><path d="M47.107 33.828l4.55 3.468a6.594 6.594 0 0 0 7.526.326l20.613-13.055" fill="#444D56"/><path d="M43.319 34.902l17.113 11.225 15.283.072-24.747 12.309H38.392L35.627 37.08l7.692-2.18z" fill="#3B4A6B"/><path d="M35.687 74.069c-1.612 0-2.759-1.58-2.243-3.109a19.92 19.92 0 0 0 1.04-6.373c0-.171 0-.345-.006-.514a18.974 18.974 0 0 0-2.35-8.72c-4.175-7.576-13.3-11.872-22.364-9.374L0 48.67c3.492-10.358 17.978-17.613 28.572-14.92 4.686 1.193 9.38 4.833 11.89 7.024 1.102.963 1.684 2.375 1.636 3.838-.005.162-.008.324-.008.487 0 8.039 6.516 14.555 14.555 14.555h.023a4.001 4.001 0 0 1 3.507 2.068 53.74 53.74 0 0 1 3.325 7.245c.42 1.13.74 2.112.975 2.905a1.712 1.712 0 0 1-1.643 2.197H35.687z" fill="#F2171C"/><path d="M35.687 74.069c-1.612 0-2.758-1.58-2.243-3.108a19.92 19.92 0 0 0 1.04-6.374c0-.171 0-.345-.006-.514a18.977 18.977 0 0 0-1.714-7.46c3.66 5.872 18.64 15.931 30.736 12.354.42 1.13.74 2.112.975 2.905a1.712 1.712 0 0 1-1.643 2.197H35.687z" fill="#AF0900"/><path d="M47.065 71.047h-3.98a1.53 1.53 0 0 1-1.38-.87l-3.368-7.04a1.53 1.53 0 0 1 1.381-2.191h7.04a1.53 1.53 0 1 1 0 3.06h-4.611l1.903 3.98h3.014a1.53 1.53 0 0 1 0 3.061z" fill="#1D2C30"/></svg>