<svg id="Layer_1" data-name="Layer 1" xmlns="http://www.w3.org/2000/svg" viewBox="0 0 70 70"><defs><style>.cls-1{fill:#f6f938}.cls-2{fill:#eebf00}.cls-3{fill:#f03800}.cls-4{fill:#3e5959}.cls-5{fill:#9facba}.cls-6{fill:#ff641a}.cls-7{fill:#677681}.cls-8{fill:#ff9100}.cls-9{fill:#575f64}</style></defs><title>motorbike</title><path class="cls-1" d="M70 35A35 35 0 1 1 35 0a35 35 0 0 1 35 35z"/><path class="cls-2" d="M53.18 19.33l-2.77 2.77-4.1-4.1-6.72-1.59-2.22 2.22 4.15 4.15L31.33 33 19.82 21.47l-5.6 5.6 2.22 2.22L14.69 31l5.3 5.3-7.79 5.93L14.3 50l20 20h.7a35 35 0 0 0 35-33.87z"/><path class="cls-3" d="M27.79 35.44l3.53-.3a4.75 4.75 0 0 1 .35-.5l.56-.6-.23-.79a6.5 6.5 0 0 1-.28-1.9 7 7 0 0 1 1.81-4.7l2.14-2.36H21.75a4.38 4.38 0 0 1-1.55-2l-.38-.83h-8v1.41c0 3.42 1.48 9.89 7.06 9.89h.55a10.94 10.94 0 0 1 8.32 2.69z"/><path class="cls-4" d="M51.59 52.54a8.48 8.48 0 1 1 8.48-8.48 8.48 8.48 0 0 1-8.48 8.48zm0-14.13a5.65 5.65 0 1 0 5.65 5.65 5.66 5.66 0 0 0-5.65-5.64z"/><path class="cls-5" d="M50.22 44.43l-3.12-11.5 2.73-.72L53 43.71z"/><path class="cls-4" d="M20.32 52.54a8.48 8.48 0 1 1 7.24-12.88l-2.41 1.47a5.65 5.65 0 1 0 .71 4l2.77.55a8.49 8.49 0 0 1-8.31 6.86z"/><path class="cls-5" d="M51.59 46.89a2.83 2.83 0 1 1 2.83-2.83 2.83 2.83 0 0 1-2.83 2.83z"/><path class="cls-6" d="M46.72 25.45a9.78 9.78 0 0 0-7.94-4 10 10 0 0 0-7.35 3.28 9.82 9.82 0 0 0-2.54 6.61 9.72 9.72 0 0 0 .4 2.74l.82 2.6 1.67-2.18a8.45 8.45 0 0 1 2.15-2 18.9 18.9 0 0 1 2-1.19 33.19 33.19 0 0 1 5.76-2.06 16.55 16.55 0 0 0 4.66-1.84l1.21-.82z"/><path class="cls-7" d="M22.67 44.07h-.93a1.4 1.4 0 0 1-1.41-1.41H17.5a4.23 4.23 0 0 0 2.66 3.93l2.51-1.35z"/><path class="cls-5" d="M33.92 40l-.31-1h-8l-3.64 5.09-1.78 2.51a4.16 4.16 0 0 0 1.58.31h10l2.67-4.79a15.14 15.14 0 0 0-.52-2.12z"/><path class="cls-3" d="M47.6 26.64l-1.22.82a16.54 16.54 0 0 1-4.66 1.84A33.22 33.22 0 0 0 36 31.35v-9.46a9.53 9.53 0 0 1 2.83-.42 9.78 9.78 0 0 1 7.94 4z"/><path class="cls-8" d="M57.15 28.53v4.24h-1.42A23.46 23.46 0 0 0 47.65 34c-5.37 1.84-7.46 5.9-7.46 11.53v1.41h-8.47v-2.87c0-3.79-1.64-6.24-3.93-8.62a14.45 14.45 0 0 1 4.55-5.28A21.65 21.65 0 0 1 36 28.22a42.89 42.89 0 0 1 5-1.67c2.54-.71 4.92-1.1 4.92-3.67 0-3-.88-4.07-1.41-4.24l-1.07-2 1.07-.79h.17a12.75 12.75 0 0 1 12.47 12.68z"/><path class="cls-6" d="M57.15 28.53v4.24h-1.42A23.46 23.46 0 0 0 47.65 34c-5.37 1.84-7.46 5.9-7.46 11.53v1.41H36V28.22a42.89 42.89 0 0 1 5-1.67c2.54-.71 4.92-1.1 4.92-3.67 0-3-.88-4.07-1.41-4.24l-1.07-2 1.07-.79h.17a12.75 12.75 0 0 1 12.47 12.68z"/><path class="cls-9" d="M37.37 15.82h7.06v2.83h-7.06z"/></svg>