<svg viewBox="0 0 180 60" fill="none" xmlns="http://www.w3.org/2000/svg"><path d="M.2 38.8v-9.92h30v9.92H.2zM53.39 2h9.6v56H51.95V13.68l-10.56 2.96-2.72-9.44L53.39 2zm42.938 57.12c-6.987 0-12.48-2.64-16.48-7.92-3.947-5.333-5.92-12.4-5.92-21.2 0-8.8 1.974-15.84 5.92-21.12 4-5.333 9.493-8 16.48-8 7.04 0 12.533 2.667 16.48 8 3.947 5.28 5.92 12.32 5.92 21.12s-1.973 15.867-5.92 21.2c-3.947 5.28-9.44 7.92-16.48 7.92zm-8.48-15.44c1.92 3.093 4.747 4.64 8.48 4.64 3.733 0 6.56-1.573 8.48-4.72 1.973-3.147 2.96-7.68 2.96-13.6 0-5.973-.987-10.533-2.96-13.68-1.92-3.147-4.747-4.72-8.48-4.72-3.733 0-6.56 1.573-8.48 4.72-1.92 3.147-2.88 7.707-2.88 13.68s.96 10.533 2.88 13.68zm61.228-20.16c-2.56 2.507-5.76 3.76-9.6 3.76s-7.066-1.28-9.68-3.84c-2.56-2.56-3.84-5.68-3.84-9.36 0-3.68 1.28-6.8 3.84-9.36 2.614-2.56 5.84-3.84 9.68-3.84s7.04 1.28 9.6 3.84c2.56 2.507 3.84 5.627 3.84 9.36 0 3.733-1.28 6.88-3.84 9.44zm-17.44 26l36.48-40.56 4.88 2.72-36.56 40.64-4.8-2.8zm4.16-31.76c.96.96 2.16 1.44 3.6 1.44s2.64-.48 3.6-1.44c.96-1.013 1.44-2.24 1.44-3.68s-.48-2.64-1.44-3.6-2.16-1.44-3.6-1.44-2.64.48-3.6 1.44c-.906.96-1.36 2.16-1.36 3.6s.454 2.667 1.36 3.68zm40.32 37.36c-2.56 2.56-5.76 3.84-9.6 3.84s-7.04-1.28-9.6-3.84c-2.56-2.56-3.84-5.68-3.84-9.36 0-3.68 1.28-6.8 3.84-9.36 2.56-2.56 5.76-3.84 9.6-3.84s7.04 1.28 9.6 3.84c2.56 2.56 3.84 5.68 3.84 9.36 0 3.68-1.28 6.8-3.84 9.36zm-13.2-5.68c.96.96 2.16 1.44 3.6 1.44s2.614-.507 3.52-1.52c.96-1.013 1.44-2.213 1.44-3.6 0-1.44-.48-2.64-1.44-3.6-.906-1.013-2.08-1.52-3.52-1.52s-2.64.507-3.6 1.52c-.906.96-1.36 2.16-1.36 3.6s.454 2.667 1.36 3.68z" fill="#CDAA1D" filter="url(#a)"/><defs><filter id="a" x=".2" y=".88" width="179.756" height="62.24" filterUnits="userSpaceOnUse" color-interpolation-filters="sRGB"><feFlood flood-opacity="0" result="BackgroundImageFix"/><feBlend in="SourceGraphic" in2="BackgroundImageFix" result="shape"/><feColorMatrix in="SourceAlpha" values="0 0 0 0 0 0 0 0 0 0 0 0 0 0 0 0 0 0 127 0" result="hardAlpha"/><feOffset dy="4"/><feGaussianBlur stdDeviation="2"/><feComposite in2="hardAlpha" operator="arithmetic" k2="-1" k3="1"/><feColorMatrix values="0 0 0 0 0 0 0 0 0 0 0 0 0 0 0 0 0 0 0.25 0"/><feBlend in2="shape" result="effect1_innerShadow"/></filter></defs></svg>