<svg viewBox="0 0 155 190" fill="none" xmlns="http://www.w3.org/2000/svg"><path d="M154.5 0h-80L0 189.5h80L154.5 0z" fill="#FFDF00"/><g filter="url(#a)" fill="#CDAA1D"><path d="M75 92.79c4.012 0 13.443-4.828 13.443-16.395 0-1.614-.04-3.173-.172-4.645-.219-2.898-.812-5.467-2.29-7.436C84.085 61.636 80.768 60 75 60s-9.084 1.635-10.98 4.313c-1.479 1.969-2.073 4.538-2.29 7.437-.134 1.473-.173 3.031-.173 4.645 0 11.567 9.431 16.394 13.442 16.394zm4.388-26.784c-.391.99-.588 1.484-.98 2.474-2.528-.715-4.288-.715-6.816 0l-.98-2.474c3.163-.957 5.614-.957 8.776 0zm-15.83 7.88c.155.34.813 1.642 1.831 1.764 1.17.14 3.114-4.146 9.611-4.157 6.498.01 8.441 4.297 9.612 4.157 1.018-.123 1.676-1.425 1.831-1.764.031.83.043 1.67.043 2.509 0 5.654-2.496 9.157-4.591 11.1-2.639 2.449-5.569 3.338-6.894 3.338-1.326 0-4.256-.889-6.895-3.338-2.095-1.943-4.591-5.446-4.591-11.1 0-.838.011-1.678.043-2.508z"/><path d="M99.956 109.603c-.686-4.267-2.099-9.764-4.933-11.717-1.935-1.335-8.687-4.942-11.57-6.482l-.05-.026a.942.942 0 0 0-1.025.09c-1.51 1.185-3.165 1.984-4.917 2.375a.942.942 0 0 0-.676.585L75 99.132l-1.785-4.704a.941.941 0 0 0-.676-.585c-1.752-.39-3.406-1.19-4.917-2.375a.943.943 0 0 0-1.026-.09c-2.849 1.522-9.683 5.203-11.61 6.502-3.263 2.198-4.689 10.151-4.942 11.724a.945.945 0 0 0 .042.464c.07.195 1.148 2.99 6.544 5.237a2.68 2.68 0 0 1 1.192-.857 2.67 2.67 0 0 1-1.403-1.149 2.672 2.672 0 0 1-.048-2.637 7.89 7.89 0 0 1 6.918-4.111 7.853 7.853 0 0 1 6.56 3.5h10.296a7.9 7.9 0 0 1 .971-1.182 7.84 7.84 0 0 1 5.575-2.319h.003a7.9 7.9 0 0 1 6.924 4.091c.45.819.435 1.828-.041 2.636-.32.541-.821.946-1.4 1.153.475.168.896.47 1.209.868 5.382-2.245 6.46-5.035 6.529-5.23a.948.948 0 0 0 .041-.465z"/><path d="M91.293 116.605h-.001l-4.961.006c-.088-.208-.257-.788-.258-2.172-.003-1.384.164-1.965.252-2.174l4.96-.007a.336.336 0 0 0 .293-.497 5.566 5.566 0 0 0-8.813-1.249 5.546 5.546 0 0 0-1.228 1.867h-13.08a5.573 5.573 0 0 0-5.168-3.501 5.564 5.564 0 0 0-4.875 2.9.336.336 0 0 0 .294.495l4.961-.008c.089.209.257.789.259 2.173.002 1.384-.165 1.965-.253 2.174l-4.96.007a.335.335 0 0 0-.292.497A5.565 5.565 0 0 0 63.298 120h.008a5.523 5.523 0 0 0 3.93-1.635 5.542 5.542 0 0 0 1.227-1.867h13.08a5.57 5.57 0 0 0 5.16 3.501h.009a5.564 5.564 0 0 0 4.874-2.899.336.336 0 0 0-.293-.495z"/></g><defs><filter id="a" x="45" y="60" width="60" height="64" filterUnits="userSpaceOnUse" color-interpolation-filters="sRGB"><feFlood flood-opacity="0" result="BackgroundImageFix"/><feBlend in="SourceGraphic" in2="BackgroundImageFix" result="shape"/><feColorMatrix in="SourceAlpha" values="0 0 0 0 0 0 0 0 0 0 0 0 0 0 0 0 0 0 127 0" result="hardAlpha"/><feOffset dy="4"/><feGaussianBlur stdDeviation="2"/><feComposite in2="hardAlpha" operator="arithmetic" k2="-1" k3="1"/><feColorMatrix values="0 0 0 0 0 0 0 0 0 0 0 0 0 0 0 0 0 0 0.25 0"/><feBlend in2="shape" result="effect1_innerShadow"/></filter></defs></svg>