<svg viewBox="0 0 240 27" fill="none" xmlns="http://www.w3.org/2000/svg"><path d="M18.966 23.361c-2.05 2.03-4.543 3.045-7.482 3.045s-5.433-1.015-7.482-3.045C1.972 21.311.957 18.808.957 15.85s1.015-5.452 3.045-7.482c2.05-2.05 4.543-3.074 7.482-3.074s5.433 1.025 7.482 3.074c2.05 2.03 3.074 4.524 3.074 7.482s-1.025 5.462-3.074 7.511zM6.815 20.635c1.257 1.237 2.813 1.856 4.669 1.856 1.856 0 3.412-.619 4.669-1.856 1.257-1.257 1.885-2.852 1.885-4.785 0-1.933-.628-3.528-1.885-4.785-1.257-1.257-2.813-1.885-4.669-1.885-1.856 0-3.412.628-4.669 1.885-1.257 1.257-1.885 2.852-1.885 4.785 0 1.933.628 3.528 1.885 4.785zM36.685 5.7h3.973V26h-3.973v-8.41h-7.54V26h-4.002V5.7h4.002v8.062h7.54V5.7zM43.153 26v-3.712c1.199.174 2.098-.068 2.697-.725.6-.657.899-1.943.899-3.857V5.7h13.804V26H56.58V9.528h-5.858v8.062c0 1.76-.213 3.238-.638 4.437-.425 1.199-1.015 2.088-1.77 2.668a5.93 5.93 0 0 1-2.377 1.16c-.831.193-1.76.242-2.784.145zm34.504 0l-1.218-3.654h-8.091L67.13 26h-4.321l7.105-20.3h4.959L82.007 26h-4.35zm-8.033-7.395h5.568l-2.784-8.294-2.784 8.294zM87.922 3.844V.596h8.41v3.248h-8.41zM96.012 26V13.617L87.313 26h-3.044V5.7h4.002v12.412L96.97 5.7h3.045V26h-4.002zm19.6-20.3h3.973V26h-3.973v-8.41h-7.54V26h-4.002V5.7h4.002v8.062h7.54V5.7zm26.333 9.802c1.934 1.025 2.9 2.63 2.9 4.814 0 1.817-.686 3.287-2.059 4.408-1.372 1.121-3.141 1.682-5.307 1.682-3.77 0-6.293-1.595-7.569-4.785l3.451-1.943c.619 1.972 1.992 2.958 4.118 2.958 1.102 0 1.943-.232 2.523-.696.58-.464.87-1.092.87-1.885 0-.793-.29-1.421-.87-1.885-.56-.464-1.372-.696-2.436-.696h-2.523v-3.567h1.914c1.006 0 1.789-.213 2.349-.638.561-.445.841-1.044.841-1.798s-.241-1.344-.725-1.769c-.483-.445-1.198-.667-2.146-.667-1.74 0-2.958.85-3.654 2.552l-3.393-1.972c1.373-2.88 3.722-4.321 7.047-4.321 2.011 0 3.654.541 4.93 1.624 1.276 1.083 1.914 2.513 1.914 4.292 0 1.817-.725 3.248-2.175 4.292zM160.782 26l-1.218-3.654h-8.091L150.255 26h-4.321l7.105-20.3h4.959l7.134 20.3h-4.35zm-8.033-7.395h5.568l-2.784-8.294-2.784 8.294zM181.946 5.7V26h-4.002v-7.047h-2.291L170.984 26h-4.495l4.959-7.482a6.548 6.548 0 0 1-3.161-2.378c-.812-1.121-1.218-2.359-1.218-3.712 0-1.856.657-3.441 1.972-4.756 1.315-1.315 2.91-1.972 4.785-1.972h8.12zm-8.12 9.744h4.118V9.441h-4.118c-.754 0-1.402.29-1.943.87-.541.58-.812 1.286-.812 2.117s.271 1.547.812 2.146c.541.58 1.189.87 1.943.87zm24.448.029c1.778 1.025 2.668 2.571 2.668 4.64 0 1.72-.609 3.132-1.827 4.234-1.218 1.102-2.717 1.653-4.495 1.653h-8.613V5.7h8.004c1.74 0 3.199.541 4.379 1.624 1.198 1.063 1.798 2.426 1.798 4.089 0 1.682-.638 3.035-1.914 4.06zm-4.263-6.032h-4.002v4.466h4.002c.618 0 1.131-.213 1.537-.638.425-.425.638-.957.638-1.595s-.203-1.17-.609-1.595c-.406-.425-.928-.638-1.566-.638zm.609 12.818c.676 0 1.237-.222 1.682-.667.444-.464.667-1.044.667-1.74 0-.677-.223-1.237-.667-1.682-.445-.464-1.006-.696-1.682-.696h-4.611v4.785h4.611zM219.718 26h-4.611l-7.25-9.512V26h-4.002V5.7h4.002v8.961l6.96-8.961h4.611l-7.511 9.86L219.718 26zm15.829 0l-1.218-3.654h-8.091L225.02 26h-4.321l7.105-20.3h4.959l7.134 20.3h-4.35zm-8.033-7.395h5.568l-2.784-8.294-2.784 8.294z" fill="#CDAA1D" filter="url(#a)"/><defs><filter id="a" x=".957" y=".596" width="238.94" height="29.81" filterUnits="userSpaceOnUse" color-interpolation-filters="sRGB"><feFlood flood-opacity="0" result="BackgroundImageFix"/><feBlend in="SourceGraphic" in2="BackgroundImageFix" result="shape"/><feColorMatrix in="SourceAlpha" values="0 0 0 0 0 0 0 0 0 0 0 0 0 0 0 0 0 0 127 0" result="hardAlpha"/><feOffset dy="4"/><feGaussianBlur stdDeviation="2"/><feComposite in2="hardAlpha" operator="arithmetic" k2="-1" k3="1"/><feColorMatrix values="0 0 0 0 0 0 0 0 0 0 0 0 0 0 0 0 0 0 0.25 0"/><feBlend in2="shape" result="effect1_innerShadow"/></filter></defs></svg>