<svg id="Layer_1" data-name="Layer 1" xmlns="http://www.w3.org/2000/svg" viewBox="0 0 142.5 100"><defs><style>.cls-1{fill:#ffdf00}.cls-2{fill:#cdaa1d}</style></defs><title>select-bg</title><path class="cls-1" d="M142.5 0H52.3L0 100h90.2z"/><path class="cls-2" d="M67 55.79c4 0 13.44-4.83 13.44-16.39 0-1.61 0-3.17-.17-4.64A13.9 13.9 0 0 0 78 27.31C76.08 24.64 72.77 23 67 23s-9.08 1.63-11 4.31a13.9 13.9 0 0 0-2.29 7.44c-.13 1.47-.17 3-.17 4.64C53.56 51 63 55.79 67 55.79zM71.39 29l-1 2.47a11.11 11.11 0 0 0-6.82 0l-1-2.47a13.77 13.77 0 0 1 8.82 0zm-15.83 7.89c.15.34.81 1.64 1.83 1.76 1.17.14 3.11-4.15 9.61-4.16s8.44 4.3 9.61 4.16c1-.12 1.68-1.42 1.83-1.76v2.51a14.62 14.62 0 0 1-4.59 11.1A11.74 11.74 0 0 1 67 53.83a11.74 11.74 0 0 1-6.89-3.34 14.62 14.62 0 0 1-4.59-11.1c-.01-.83.01-1.67.04-2.5z"/><path class="cls-2" d="M92 72.6c-.69-4.27-2.1-9.76-4.93-11.72-1.94-1.33-8.69-4.94-11.57-6.48a.94.94 0 0 0-1 .09 12.25 12.25 0 0 1-4.92 2.38.94.94 0 0 0-.68.59L67 62.13l-1.78-4.7a.94.94 0 0 0-.68-.59 12.25 12.25 0 0 1-4.92-2.37.94.94 0 0 0-1-.09c-2.85 1.52-9.68 5.2-11.61 6.5C43.72 63.08 42.3 71 42 72.6a1 1 0 0 0 0 .46c.07.2 1.15 3 6.54 5.24a2.68 2.68 0 0 1 1.19-.86 2.66 2.66 0 0 1-1.45-3.79 7.89 7.89 0 0 1 13.48-.61h10.3a7.9 7.9 0 0 1 6.55-3.5 7.9 7.9 0 0 1 6.92 4.09 2.66 2.66 0 0 1-1.44 3.79 2.68 2.68 0 0 1 1.21.87c5.38-2.25 6.46-5 6.53-5.23a1 1 0 0 0 .17-.46z"/><path class="cls-2" d="M83.29 79.6h-5a6 6 0 0 1-.26-2.17 6 6 0 0 1 .25-2.17h5a.34.34 0 0 0 .29-.5 5.56 5.56 0 0 0-10 .62H60.46a5.56 5.56 0 0 0-10-.6.33.33 0 0 0 .29.5h5a6 6 0 0 1 .26 2.17 6 6 0 0 1-.25 2.17h-5a.33.33 0 0 0-.29.5A5.56 5.56 0 0 0 55.3 83a5.56 5.56 0 0 0 5.16-3.5h13.08A5.57 5.57 0 0 0 78.7 83a5.57 5.57 0 0 0 4.87-2.9.33.33 0 0 0-.29-.5z"/></svg>