<svg viewBox="0 0 60 60" fill="none" xmlns="http://www.w3.org/2000/svg"><path d="M30 1.875c-16.488 0-30 13.395-30 29.883C0 42.62 6.023 52.64 15.515 57.914l.387.211h28.196l.387-.211C53.977 52.641 60 42.621 60 31.758 60 15.27 46.488 1.875 30 1.875z" fill="#7C8388"/><path d="M60 31.758c0 10.863-6.023 20.883-15.515 26.156l-.387.211H30V1.875c16.488 0 30 13.395 30 29.883z" fill="#575F64"/><path d="M52.852 30v3.516H45.82v-1.758c0-8.72-7.101-15.82-15.82-15.82-8.719 0-15.82 7.1-15.82 15.82v1.758H7.148V30h3.587c.386-4.008 2.003-7.63 4.464-10.582l-2.601-2.566 2.496-2.497 2.566 2.602a19.001 19.001 0 0 1 10.582-4.36v-3.69h3.516v3.69a19.003 19.003 0 0 1 10.582 4.36l2.566-2.602 2.496 2.497-2.601 2.566c2.46 2.953 4.078 6.574 4.464 10.582h3.587z" fill="#F7DC4D"/><path d="M28.242 51.094H14.18V40.547h14.062v10.547z" fill="#E0F4FF"/><path d="M45.82 51.094H31.758V40.547H45.82v10.547z" fill="#BBDCFF"/><path d="M52.852 30v3.516H45.82v-1.758c0-8.72-7.101-15.82-15.82-15.82V8.905h1.758v3.692a19.003 19.003 0 0 1 10.582 4.359l2.566-2.602 2.496 2.497-2.601 2.566c2.46 2.953 4.078 6.574 4.464 10.582h3.587z" fill="#EDA637"/><path d="M35.098 30.422L30 10.664l-5.098 19.758a5.832 5.832 0 0 0-.175 1.336A5.266 5.266 0 0 0 30 37.03a5.266 5.266 0 0 0 5.273-5.273c0-.457-.07-.914-.175-1.336z" fill="#FF5E5B"/><path d="M35.273 31.758A5.266 5.266 0 0 1 30 37.03V10.664l5.098 19.758c.105.422.175.879.175 1.336z" fill="#ED3E3C"/></svg>