<svg viewBox="0 0 60 60" fill="none" xmlns="http://www.w3.org/2000/svg"><g clip-path="url(#a)"><path d="M23.884 43.575L43.57 23.89a12.295 12.295 0 0 0 12.828-2.884c3.679-3.68 4.648-9.322 2.41-13.996l-.272-.571-5.867 5.866h-4.972V7.333l5.867-5.866-.572-.274C48.317-1.044 42.675-.075 38.996 3.605a12.295 12.295 0 0 0-2.885 12.827L16.427 36.117a12.295 12.295 0 0 0-12.828 2.884c-4.797 4.797-4.797 12.603 0 17.401 4.798 4.798 12.604 4.798 17.402 0a12.295 12.295 0 0 0 2.883-12.827zM8.571 51.43a5.266 5.266 0 0 1 0-7.458 5.267 5.267 0 0 1 7.458 0 5.267 5.267 0 0 1 0 7.458 5.266 5.266 0 0 1-7.458 0z" fill="#BBDCFF"/><path d="M21 56.401c-4.798 4.799-12.604 4.799-17.4 0l4.97-4.971a5.266 5.266 0 0 0 7.458 0 5.267 5.267 0 0 0 0-7.458l31.668-31.667h4.971l5.867-5.867.273.572c2.238 4.674 1.268 10.316-2.41 13.995a12.296 12.296 0 0 1-12.828 2.884L23.883 43.574A12.295 12.295 0 0 1 21 56.402z" fill="#9ABADB"/><path d="M10.922 13.409l2.486-2.486 21.645 21.645-2.486 2.486-21.645-21.645z" fill="#E0F4FF"/><path d="M4.697.123L.123 4.697l9.333 12.664 7.905-7.905L4.697.123z" fill="#E0F4FF"/><path d="M32.568 35.054L10.923 13.41l1.243-1.243L33.81 33.811l-1.243 1.243z" fill="#BBDCFF"/><path d="M2.41 2.41l10.998 11-3.952 3.95L.123 4.697 2.41 2.41z" fill="#BBDCFF"/><path d="M40.026 32.568l-3.73-3.729-7.457 7.458 3.729 3.729a5.266 5.266 0 0 0 7.458 0 5.265 5.265 0 0 0 0-7.458z" fill="#7C8388"/><path d="M40.026 40.026a5.266 5.266 0 0 1-7.458 0l-3.73-3.73 3.73-3.728 7.458 7.458z" fill="#575F64"/><path d="M57.427 57.427c-3.43 3.43-9 3.43-12.43 0L31.325 43.754l4.972-4.971 3.728 1.243-1.242-3.729 4.971-4.972 13.673 13.673c3.43 3.43 3.43 8.998 0 12.429z" fill="#FF5E5B"/><path d="M57.427 57.427c-3.43 3.43-9 3.43-12.43 0L31.325 43.755l4.972-4.972 3.728 1.243 17.402 17.401z" fill="#ED3E3C"/><path d="M36.296 38.783l2.486-2.486 12.43 12.43-2.486 2.485-12.43-12.43z" fill="#ED3E3C"/><path d="M36.296 38.783l1.243-1.243 12.43 12.43-1.243 1.242-12.43-12.43z" fill="#D62F2D"/></g><defs><clipPath id="a"><path fill="#fff" d="M0 0h60v60H0z"/></clipPath></defs></svg>