<svg id="Capa_1" data-name="Capa 1" xmlns="http://www.w3.org/2000/svg" viewBox="0 0 512 359.31"><defs><style>.cls-1{fill:#4a4b4a}</style></defs><title>email</title><path class="cls-1" d="M475 120.89l-2.5-1.4c-6.37-3.57-18.5-6.16-28.83-6.16-36.93 0-56.86 29.18-56.86 56.64 0 20 11.8 33.41 29.35 33.41a35.71 35.71 0 0 0 27.62-12.53c3.57 8 11.09 12.53 21.32 12.53 27.64 0 46.94-23.75 46.94-57.77 0-40.13-30.36-69.26-72.19-69.26-50.41 0-88.43 38.7-88.43 90 0 49.32 37.45 75.13 74.45 75.13 17.35 0 29.39-2.38 42.94-8.48l3.31-1.49-6.59-21.25-4.36 2.29c-8 4.22-19.56 6.75-30.79 6.75-33.08 0-53.62-21.07-53.62-55 0-43.35 30.49-66 60.61-66s49.79 18.84 49.79 48c0 23.2-10.45 34-17.51 34h-.11c-1.19 0-1.48-.4-1.62-.57-.63-.78-1.91-3.72-.12-14.3zm-35.16 36c-1.79 11.56-9.46 20.21-15.11 20.21-1.77 0-7.17 0-7.17-9.88 0-15.4 10.1-27.92 22.51-27.92a23.09 23.09 0 0 1 2.36.12z" transform="translate(0 -76.35)"/><path class="cls-1" d="M433.9 389.58a15 15 0 0 1-1.69 6.68l-108.59-108.6L364.23 247q-3.48-2.61-6.73-5.53a93.83 93.83 0 0 1-14.5-16.59L237 330.79a6.86 6.86 0 0 1-9.48 0L59 162.22h266.72a122.42 122.42 0 0 1 4.89-30.72H46.08A46.13 46.13 0 0 0 0 177.58v212a46.13 46.13 0 0 0 46.08 46.08h372.46a46.13 46.13 0 0 0 46.08-46.08V262a120.36 120.36 0 0 1-30.72 5v122.58zm-401.5 6.67a15.07 15.07 0 0 1-1.68-6.68V177.41L141 287.66zm34.75 8.68l95.56-95.56 43.14 43.14a37.41 37.41 0 0 0 52.92 0l43.14-43.14 95.55 95.56z" transform="translate(0 -76.35)"/></svg>