<svg id="Layer_1" data-name="Layer 1" xmlns="http://www.w3.org/2000/svg" viewBox="0 0 473.47 512"><defs><style>.cls-1{fill:#c2c0bd}</style></defs><title>metro</title><path class="cls-1" d="M358.66 0H153.34C79.41 0 19.27 60.14 19.27 134.07V512h31.67V134.07a102.52 102.52 0 0 1 102.4-102.4h205.32a102.52 102.52 0 0 1 102.4 102.4V512h31.67V134.07C492.73 60.14 432.59 0 358.66 0z" transform="translate(-19.27)"/><path class="cls-1" d="M409.19 392.59L385.62 88.76H126.38l-23.57 303.83h37.08L59.68 479.4V512h392.64v-32.6l-80.21-86.81h37.08zm-52.88-272.16l8.82 113.67H146.87l8.82-113.67zM144.42 265.77h223.16l7.42 95.15H137zm-42.48 214.56l25.9-28h256.32l25.9 28zm253-59.7H157.11l25.9-28H329z" transform="translate(-19.27)"/><path class="cls-1" d="M147.16 297.51h42.27v31.67h-42.27zm136.88 0h42.27v31.67h-42.27z"/></svg>