<svg id="Capa_1" data-name="Capa 1" xmlns="http://www.w3.org/2000/svg" viewBox="0 0 512 494.62"><defs><style>.cls-1{fill:#4a4b4a}</style></defs><title>person</title><path class="cls-1" d="M323.56 379.73c-5.84-8.35-10.12-22-1.1-75.4 15.42-15.28 28.18-29.43 31.14-32.75l.8-.89 2.57-14.1C379 209.06 447.36 36 284.32 11.16 99.87-16.91 101.57 201.91 168.4 267.56l.57 3.13.81.89c3 3.32 15.72 17.48 31.15 32.76 7.66 45.39 5.71 62.09 1.21 71.34C132.4 389.83 18 424.27 0 503.31h512C482.7 431 389.15 396 323.56 379.73zM204.65 296q-2.14-2.12-4.23-4.26c-8.55-8.68-16.69-17.36-23.47-24.94l-8.52-46.61c-.45-2.69-.83-5.29-1.25-7.92.32-44.49 6.49-99.15 34.91-99.78l64.37 49.07v-16l36 16-6.55-29.87 15.28 5.31 5.46-17-13.09-33.11 57.77 60.67q.55 31.68-6.37 72.58l-8.53 46.66c-6.78 7.58-14.92 16.27-23.47 24.94q-2.1 2.14-4.23 4.26c-1.43 1.43-2.88 2.85-4.33 4.27-21.46 21-43.62 39.81-52.71 39.81s-31.25-18.79-52.69-39.81c-1.47-1.42-2.91-2.83-4.35-4.27zm57 165.36c-42.54 0-77.16-19.62-77.16-43.73 0-7.81 3.88-15.56 11.2-22.42l1-.92a59.5 59.5 0 0 1 5.93-4.57l1.28-1.29c3.06-3.86 6.17-7.77 8.23-14.7 3-10.17 3.79-26.93-1-59.51 18.93 17.83 39.49 34.41 50.55 34.41s31.62-16.57 50.55-34.41c-5.38 36.27-3.79 52.93.18 62.87 2 5.08 4.69 8.42 7.35 11.76l1 .89a55.13 55.13 0 0 1 6.06 4.69l.86.8c7.32 6.85 11.2 14.61 11.2 22.42-.04 24.09-34.65 43.71-77.19 43.71z" transform="translate(0 -8.69)"/></svg>