<svg data-name="Layer 1" xmlns="http://www.w3.org/2000/svg" viewBox="0 0 404.43 473"><title>remove</title><path d="M283.39 214.42l5.66-86.42h21V38h-98.43V0H98.39v38H0v90h21l20 305h140.53a129.37 129.37 0 0 0 222.91-89.43c-.01-68.57-53.58-124.81-121.05-129.15zM128.39 30h53.23v8h-53.23zM30.01 68h250v30h-250zm39 335l-18-275h208l-5.77 88c-61 10.39-107.64 63.64-107.64 127.59A128.63 128.63 0 0 0 160.05 403h-91zm206 40a99.43 99.43 0 1 1 99.43-99.43A99.54 99.54 0 0 1 275.01 443z"/><path d="M307.96 289.39L275 322.36l-32.96-32.97-21.22 21.22 32.97 32.96-32.97 32.96 21.22 21.22L275 364.78l32.96 32.97 21.22-21.22-32.97-32.96 32.97-32.96-21.22-21.22z"/></svg>