<svg id="Capa_1" data-name="Capa 1" xmlns="http://www.w3.org/2000/svg" viewBox="0 0 512 469.69"><defs><style>.cls-1{fill:#fff}</style></defs><title>shopping-cart</title><path class="cls-1" d="M404.05 383.28h-205.5l-12.7-50.8h268.56L512 102.12H128.26L108 21.16H0v30.15h84.47l83.29 333.17a53.81 53.81 0 1 0 59.61 29h128.38a53.78 53.78 0 1 0 48.3-30.16zm-268.25-251h337.57l-42.51 170H178.31zm43.27 328.41a23.62 23.62 0 1 1 23.63-23.62 23.65 23.65 0 0 1-23.63 23.62zm225 0a23.62 23.62 0 1 1 23.63-23.62 23.65 23.65 0 0 1-23.65 23.62z" transform="translate(0 -21.16)"/></svg>