<svg id="Capa_1" data-name="Capa 1" xmlns="http://www.w3.org/2000/svg" viewBox="0 0 494.03 511.99"><defs><style>.cls-1{fill:#4a4b4a}</style></defs><title>user-tel</title><path class="cls-1" d="M475.64 235.25H417.8a27.33 27.33 0 0 0-27.31 27.36v3A27.34 27.34 0 0 0 417.82 293h57.82A27.41 27.41 0 0 0 503 265.58v-3a27.31 27.31 0 0 0-27.36-27.33z" transform="translate(-8.99)"/><path class="cls-1" d="M475.67 167h-12V34.59A34.69 34.69 0 0 0 429 0H200.76a34.69 34.69 0 0 0-34.59 34.59v95c-46 26-93.53 53.22-93.63 53.28C46.76 193.47 9 227.7 9 308.54a195.1 195.1 0 0 0 1.14 20.32c.21 1.89.45 3.7.7 5.52q1 7.09 2.49 13.55c.36 1.53.64 3.13 1 4.6A133.32 133.32 0 0 0 19 366.59c.88 2.2 1.83 4.2 2.78 6.26s2.05 4.3 3.16 6.3c1.28 2.4 2.56 4.72 4 6.92.34.51.7 1 1 1.5 33.29 50.32 94.71 50.55 94.71 50.55h41.55v39.3A34.69 34.69 0 0 0 200.76 512H429a34.69 34.69 0 0 0 34.6-34.57v-47.95h12.01a27.33 27.33 0 0 0 27.39-27.4v-3a27.36 27.36 0 0 0-27.38-27.31h-57.83a27.3 27.3 0 0 0-27.31 27.34v3a27.36 27.36 0 0 0 27.34 27.35h21.73V448H190.23V199.65c12.52-7.94 24.12-15.59 30.73-20.71 33.5-25.91 65.3-46.55 69.61-65.26 5.6-24.28-13-44.74-45.37-27.94C235 91 214.11 102.63 190.23 116V54.82h249.31V167h-21.71a27.37 27.37 0 0 0-27.39 27.38v3a27.34 27.34 0 0 0 27.35 27.34h57.86A27.33 27.33 0 0 0 503 197.34v-3A27.31 27.31 0 0 0 475.67 167zM314.86 460.16a17.3 17.3 0 1 1-17.27 17.3 17.29 17.29 0 0 1 17.27-17.3zm36.55-426.85h-73a4.18 4.18 0 1 1 0-8.37h73a4.18 4.18 0 0 1 0 8.37z" transform="translate(-8.99)"/><path class="cls-1" d="M475.64 303.52H417.8a27.38 27.38 0 0 0-27.35 27.37v3a27.34 27.34 0 0 0 27.35 27.35h57.83A27.37 27.37 0 0 0 503 333.89v-3a27.35 27.35 0 0 0-27.36-27.37z" transform="translate(-8.99)"/></svg>