<svg id="Слой_2" data-name="Слой 2" xmlns="http://www.w3.org/2000/svg" viewBox="0 0 93.8 91.1"><defs><style>.cls-1,.cls-2{fill:none;stroke:#000;stroke-linecap:round;stroke-width:2px}.cls-1{stroke-linejoin:round}.cls-2{stroke-miterlimit:10}</style></defs><title>apply</title><path class="cls-1" d="M45.8 75.4H1"/><path class="cls-2" d="M1 75.3a22.39 22.39 0 0 1 11-8c13.5-5 14.2-10.8 12.1-15.4-1.6-1.4-4.9-7-5.6-10.9-3.9.1-8.7-12-1.7-12.8C14.6 13.3 16.3 1 35 1"/><path class="cls-1" d="M24.1 75.4h21.2"/><path class="cls-2" d="M45.5 58.5a8 8 0 0 1 .3-6.6c1.6-1.4 4.9-7 5.6-10.9 3.9.1 8.7-12 1.7-12.8C55.3 13.3 53.6 1 34.9 1"/><circle class="cls-2" cx="70.4" cy="67.7" r="22.4"/><path d="M84.3 61.1L70.5 74.9a1 1 0 0 1-1.4 0 1 1 0 0 1 0-1.4l13.8-13.8a1 1 0 0 1 1.4 0 1 1 0 0 1 0 1.4z"/><path d="M61.8 64.8l8.7 8.7a1 1 0 0 1 0 1.4 1 1 0 0 1-1.4 0l-8.7-8.7a1 1 0 0 1 0-1.4 1.2 1.2 0 0 1 1.4 0z"/></svg>