<svg id="Layer_1" data-name="Layer 1" xmlns="http://www.w3.org/2000/svg" viewBox="0 0 63.7 78.86"><defs><style>.cls-1{opacity:.25}.cls-2{fill:none;stroke:#000;stroke-linecap:round;stroke-linejoin:round;stroke-width:1.5px}</style></defs><title>beauty</title><g id="Слой_3" data-name="Слой 3"><path class="cls-2" d="M32.3 25.3s-21.4.3-21.4 22.5c0 21.4 15 30.3 21.2 30.3m.4-52.8s21.4.3 21.4 22.5c0 21.4-15 30.3-21.2 30.3" transform="translate(-.05 .01)"/><path class="cls-2" d="M27.6 48.1s-3.4-8-11.2-2.3c1.7 3.4 4.3 7.8 11.2 2.3zm9.7 0s3.4-8 11.2-2.3c-1.8 3.4-4.3 7.8-11.2 2.3z" transform="translate(-.05 .01)"/><circle class="cls-2" cx="22.55" cy="46.71" r="1.5"/><circle class="cls-2" cx="42.25" cy="46.71" r="1.5"/><path class="cls-2" d="M36.5 25.3S35 7.7 18.6 13.4C5.2 18.1 2.4 27.9 1.5 30.7s-2.8 15.8 8.7 18.8" transform="translate(-.05 .01)"/><path class="cls-2" d="M54.8 48.2s9.7-5 8-22.9S43.5 5.2 43.5 5.2s-9.6-1-15.3 7" transform="translate(-.05 .01)"/><path class="cls-2" d="M8.6 18s-1-10.6 11-15.5a21.62 21.62 0 0 1 20.8 2M24 38.2s7.8 1 6.4 10.1-11.7 5.9-13.3 4.9a7.83 7.83 0 0 1-3.8-8.4c.9-5.1 4.1-7.5 10.7-6.6zm16.8 0s-7.8 1-6.4 10.1 11.7 5.9 13.3 4.9a7.83 7.83 0 0 0 3.8-8.4c-.9-5.1-4.1-7.5-10.7-6.6zm-2.7 22.7c0 1.8-2.5 1.8-5.6 1.8s-5.6 0-5.6-1.8 2.5-4.9 5.6-4.9 5.6 3 5.6 4.9zm2.1 7c0-2.1-3.4-2.1-7.7-2.1s-7.7 0-7.7 2.1 3.4 5.6 7.7 5.6 7.7-3.5 7.7-5.6z" transform="translate(-.05 .01)"/><path class="cls-2" d="M30.55 60.11h.4m3 0h.4"/><path class="cls-2" d="M29.4 68.5a8.33 8.33 0 0 0 6 0" transform="translate(-.05 .01)"/></g></svg>