<svg id="Слой_2" data-name="Слой 2" xmlns="http://www.w3.org/2000/svg" viewBox="0 0 96.8 52.2"><defs><style>.cls-1{fill:none;stroke:#000;stroke-linecap:round;stroke-linejoin:round}</style></defs><title>booking-upcoming-item</title><path class="cls-1" d="M23.9.5C11 .5 9.9 9 11.4 19.2c-4.8.5-1.5 8.8 1.2 8.8.5 2.7 2.7 6.6 3.9 7.5 1.4 3.2.9 7.2-8.3 10.6a16.48 16.48 0 0 0-7.6 5.5l46.8.1" transform="translate(-.1)"/><path class="cls-1" d="M24 .5C36.9.5 38 9 36.5 19.2c4.9.5 1.6 8.8-1.1 8.8-.5 2.7-2.7 6.6-3.9 7.5-1.4 3.2-.9 7.2 8.3 10.6a16.48 16.48 0 0 1 7.6 5.5M72.9.5C60 .5 58.9 9 60.4 19.2c-4.9.5-1.6 8.8 1.1 8.8.5 2.7 2.7 6.6 3.9 7.5 1.4 3.2.9 7.2-8.3 10.6a16.48 16.48 0 0 0-7.6 5.5l46.8.1" transform="translate(-.1)"/><path class="cls-1" d="M73 .5C85.9.5 87 9 85.5 19.2c4.9.5 1.6 8.8-1.1 8.8-.5 2.7-2.7 6.6-3.9 7.5-1.4 3.2-.9 7.2 8.3 10.6a16.48 16.48 0 0 1 7.6 5.5" transform="translate(-.1)"/></svg>