<svg id="Слой_2" data-name="Слой 2" xmlns="http://www.w3.org/2000/svg" viewBox="0 0 97.7 97.7"><defs><style>.cls-1{fill:none;stroke:#000;stroke-miterlimit:10;stroke-width:2px}</style></defs><title>comfort</title><path class="cls-1" d="M85.4 96.7l-73.2-.1A11.12 11.12 0 0 1 1 85.4l.1-73.2A11.18 11.18 0 0 1 12.3 1l73.2.1a11.2 11.2 0 0 1 11.2 11.3l-.1 73.2a11.1 11.1 0 0 1-11.2 11.1z"/><circle class="cls-1" cx="48.9" cy="20.6" r="9"/><circle class="cls-1" cx="77.3" cy="41.2" r="9"/><circle class="cls-1" cx="66.4" cy="74.7" r="9"/><circle class="cls-1" cx="31.3" cy="74.7" r="9"/><path class="cls-1" d="M29.5 41.3a7.46 7.46 0 0 1-.4 2.6 9 9 0 1 1 .4-2.6z"/><circle class="cls-1" cx="48.9" cy="50.7" r="14.5"/><path class="cls-1" d="M48.9 29.6v6.6m19.7 7.6l-6.2 1.8m-1.1 21.7l-3.6-5.2m-21.2 5.2l3.6-5.1m-4.9-16.5l-5.5-1.6"/></svg>