<svg id="Слой_2" data-name="Слой 2" xmlns="http://www.w3.org/2000/svg" viewBox="0 0 51.23 58.72"><defs><style>.cls-1{fill:none;stroke:#000;stroke-miterlimit:10;stroke-width:2px}</style></defs><title>googlePlay</title><path class="cls-1" d="M49.9 29c.3.1.3.5 0 .7l-24.2 14-24.2 14c-.3.1-.6 0-.6-.3v-56a.37.37 0 0 1 .6-.3l24.2 14z" transform="translate(.1 -.02)"/><path class="cls-1" d="M36.8 37.2L1.6 57.6c-.3.1-.6 0-.6-.3V1.6c0-.3.4-.5.6-.3l35.2 35.2c.3.3.2.6 0 .7z" transform="translate(.1 -.02)"/><path class="cls-1" d="M36.8 21.4L1.6 1.1a.37.37 0 0 0-.6.3V57c0 .3.4.5.6.3L36.9 22a.38.38 0 0 0-.1-.6z" transform="translate(.1 -.02)"/></svg>