<svg data-name="Слой 3" xmlns="http://www.w3.org/2000/svg" viewBox="0 0 91.4 57.97"><title>google</title><path d="M.1 28.5c0-.2.1-.3.1-.5a28.47 28.47 0 0 1 6.7-17.6 28.82 28.82 0 0 1 13.6-9.1A34.85 34.85 0 0 1 26.1.1c1.5-.1 3-.1 4.5-.1a27.07 27.07 0 0 1 14.3 4.7c1.2.8 2.3 1.7 3.4 2.6.1.1.2.1.3.2-2.6 2.6-5.2 5-7.8 7.6a5.5 5.5 0 0 0-.9-.7 16.28 16.28 0 0 0-7.8-3.5 19.1 19.1 0 0 0-4.1-.2 17.76 17.76 0 0 0-10.7 4.5 18 18 0 0 0-5.7 9.5 18.81 18.81 0 0 0-.5 3.3 18.15 18.15 0 0 0 2.1 9.7 17.81 17.81 0 0 0 12.3 9.4 16.19 16.19 0 0 0 4.9.3 16.07 16.07 0 0 0 7.4-2 15.33 15.33 0 0 0 7.7-9.7c.1-.3.1-.6.2-.9H29.6c-.4 0-.4 0-.4-.4v-9.1c0-.4 0-.4.4-.4h26.7c.3 0 .4.1.4.4a35.17 35.17 0 0 1 .4 5.6 28.94 28.94 0 0 1-4.8 15.6 24.74 24.74 0 0 1-11.4 9.3 24.13 24.13 0 0 1-6.5 1.8 20.68 20.68 0 0 1-3.5.3 14.05 14.05 0 0 1-2.9 0 28.76 28.76 0 0 1-10.5-2.4 29.71 29.71 0 0 1-10.3-7.6A28.07 28.07 0 0 1 .8 35a25.68 25.68 0 0 1-.6-4 6.6 6.6 0 0 0-.1-1.4c0-.1 0-.1-.1-.2a2.22 2.22 0 0 0 .1-.9zm91.3 4.1h-8.2c-.4 0-.4 0-.4.4v7.8c0 .4 0 .4-.4.4h-7.8c-.4 0-.4 0-.4-.4V33c0-.4 0-.4-.4-.4H66c-.4 0-.4 0-.4-.4v-7.7c0-.3.1-.4.4-.3h7.8c.4 0 .4 0 .4-.4V16c0-.3.1-.3.3-.3h7.9c.3 0 .3.1.3.3v7.9c0 .3 0 .4.3.4h8.3c.1 2.6.1 5.4.1 8.3z"/></svg>