<svg id="Слой_3" data-name="Слой 3" xmlns="http://www.w3.org/2000/svg" viewBox="0 0 91.2 89.6"><defs><style>.cls-1,.cls-2{fill:none;stroke:#000;stroke-width:2px}.cls-1{stroke-linecap:round;stroke-linejoin:round}.cls-2{stroke-miterlimit:10}</style></defs><title>interview</title><path class="cls-1" d="M18 57.1v27.3a4.23 4.23 0 0 0 4.2 4.2 4.23 4.23 0 0 0 4.2-4.2V36.6s3.3 8.8 8.4 11.5l8.4 4.9a4.19 4.19 0 0 0 5.8-1.6 4.19 4.19 0 0 0-1.6-5.8L39 40.7"/><path class="cls-1" d="M1 42.9v-8.5a11 11 0 0 1 11-11h11.4c6.1 0 8.3 5.6 11.2 11.4 2.4 4.8 4.5 6 4.5 6M18 57.1v27.3a4.23 4.23 0 0 1-4.2 4.2 4.23 4.23 0 0 1-4.2-4.2V51.1"/><path class="cls-1" d="M9.5 36.6v20.3a4 4 0 0 1-4.2 3.9 4.11 4.11 0 0 1-4.2-3.9V36.6"/><circle class="cls-2" cx="17" cy="9.8" r="8.8"/><path class="cls-1" d="M45.7 44.4l6.4-3.7m21.1 16.4v27.3a4.23 4.23 0 0 1-4.2 4.2 4.31 4.31 0 0 1-4.3-4.2V36.6s-3.3 8.8-8.4 11.5L47.9 53"/><path class="cls-1" d="M90.2 42.9v-8.5a11 11 0 0 0-11-11H67.8c-6.1 0-8.3 5.6-11.2 11.4-2.4 4.8-4.5 6-4.5 6m21.1 16.3v27.3a4.25 4.25 0 0 0 4.3 4.2 4.23 4.23 0 0 0 4.2-4.2V51.1"/><path class="cls-1" d="M81.7 36.6v20.3a4.07 4.07 0 0 0 4.3 3.9 4.11 4.11 0 0 0 4.2-3.9V36.6"/><circle class="cls-2" cx="74.2" cy="9.8" r="8.8"/></svg>