<svg id="Слой_2" data-name="Слой 2" xmlns="http://www.w3.org/2000/svg" viewBox="0 0 100 99.16"><defs><style>.cls-1{fill:none;stroke:#000;stroke-linecap:round;stroke-linejoin:round;stroke-width:2px}</style></defs><title>maintenance</title><path class="cls-1" d="M99 73.23v6.7a3 3 0 0 1-3 3h-3.2L95 85.2a3 3 0 0 1 0 4.27l-4.69 4.73a3 3 0 0 1-4.26 0l-2.26-2.26v3.2a3 3 0 0 1-3 3h-6.7a3 3 0 0 1-3-3v-3.2L68.8 94.2a3 3 0 0 1-4.27 0l-4.73-4.73a3 3 0 0 1 0-4.27l2.26-2.26h-3.2a3 3 0 0 1-3-3v-6.7a3 3 0 0 1 3-3h3.2L59.8 68a3 3 0 0 1 0-4.26L64.53 59a3 3 0 0 1 4.27 0l2.26 2.26V58a3 3 0 0 1 3-3h6.7a3 3 0 0 1 3 3v3.2L86 59a3 3 0 0 1 4.26 0L95 63.69A3 3 0 0 1 95 68l-2.26 2.26H96a3 3 0 0 1 3 2.97z"/><circle class="cls-1" cx="77.42" cy="76.58" r="9.64"/><ellipse class="cls-1" cx="41.5" cy="19" rx="40.5" ry="18"/><path class="cls-1" d="M82 38c0 9.94-18.13 18-40.5 18S1 47.94 1 38m46 37.83q-2.7.16-5.51.17C19.13 76 1 67.94 1 58"/><path class="cls-1" d="M1 19v57c0 9.94 18.13 18 40.5 18a87.49 87.49 0 0 0 13.27-1M82 19v29"/></svg>