<svg id="Слой_3" data-name="Слой 3" xmlns="http://www.w3.org/2000/svg" viewBox="0 0 82.4 100.9"><defs><style>.cls-1,.cls-2{fill:none;stroke:#000;stroke-width:2px}.cls-1{stroke-linecap:round;stroke-linejoin:round}.cls-2{stroke-miterlimit:10}</style></defs><title>paid</title><path class="cls-1" d="M57.5 54v31.9a14 14 0 0 1-14 14H15a14 14 0 0 1-14-14V17.4a14 14 0 0 1 14-14h24.3"/><path class="cls-1" d="M47.2 52.5v32.7H11.3V16.5h18.9"/><circle class="cls-2" cx="29.3" cy="93" r="2.5"/><circle class="cls-2" cx="56.8" cy="25.6" r="24.6"/><path class="cls-1" d="M62.6 18.4v-.5a5.7 5.7 0 0 0-5.7-5.7 5.7 5.7 0 0 0-5.7 5.7v1.9a5.7 5.7 0 0 0 5.7 5.7m0-19.3v6m-5.8 20.5v.5a5.7 5.7 0 0 0 5.7 5.7 5.7 5.7 0 0 0 5.7-5.7v-1.9a5.7 5.7 0 0 0-5.7-5.7m0 19.3V39"/></svg>