<svg id="Layer_1" data-name="Layer 1" xmlns="http://www.w3.org/2000/svg" viewBox="0 0 74.68 103.5"><defs><style>.cls-1{fill:none;stroke:#000;stroke-linecap:round;stroke-linejoin:round;stroke-width:2px}</style></defs><title>pains</title><g id="Слой_3" data-name="Слой 3"><path class="cls-1" d="M46.4 63s-6 18-5 30c.8 6.4-3 8-6 8-6 0-6.9-5.5-7-8-.2-6.1 0-15 3-23 0 0-3.5 1.6-6-5-2.3-5.9-11.2-26.5 2.6-38 4.2-3.5 11.6-5.5 16.7-5.5A27.36 27.36 0 0 1 67 33.1a36.53 36.53 0 0 1 6.6 16.4s1.1 6.3-4.8 6.4c-3.6.1-4.9-6.9-4.9-6.9s-2.1-11.1-9.4-12.8c2 3.3 6.4 8 7.1 23.3s5 31.8 5 31.8 2.6 7.3-1.1 9.9-8.8.5-8.8.5-3.5-1.5-5.5-16.1S48.3 64 48.3 64z"/><path class="cls-1" d="M32.9 59.4c-.7-1.1-7.3-13.9-1.8-20.9 1.3 1.8 5.1 7.4 1.8 20.9z"/><circle class="cls-1" cx="30.5" cy="10.4" r="9.4"/><path class="cls-1" d="M1 75.8l12.4-4.9-1.4 4.9 13-3.9M9.5 86.3l6.6-4.5 1.3 3 4.9-5.3"/></g></svg>