<svg id="Слой_3" data-name="Слой 3" xmlns="http://www.w3.org/2000/svg" viewBox="0 0 70.5 98.9"><defs><style>.cls-1,.cls-2{fill:none;stroke:#000;stroke-miterlimit:10;stroke-width:2px}.cls-2{stroke-linecap:round}</style></defs><title>personal</title><path class="cls-1" d="M44.7 9.6h20a4.8 4.8 0 0 1 4.8 4.8v78.7a4.8 4.8 0 0 1-4.8 4.8H5.8A4.74 4.74 0 0 1 1 93.1V14.5a4.8 4.8 0 0 1 4.8-4.8h20"/><path class="cls-1" d="M26 1h18.5v18.5H26z"/><circle class="cls-1" cx="35.3" cy="42.1" r="9"/><path class="cls-2" d="M21.4 64.4c0-8.4 6.2-13.3 13.8-13.3S49.1 56 49.1 64.4M21.4 74.7h27.7m-27.7 6.9h25M21.1 19.5h28.3"/><circle class="cls-1" cx="35.3" cy="8.4" r="3"/></svg>