<svg id="Layer_1" data-name="Layer 1" xmlns="http://www.w3.org/2000/svg" viewBox="0 0 38 96"><defs><style>.cls-1{opacity:.25}.cls-2,.cls-3{fill:none;stroke:#000;stroke-linecap:round;stroke-linejoin:round;stroke-width:2px}.cls-3{stroke-dasharray:5.24 5.24}</style></defs><title>posture</title><g id="Слой_3" data-name="Слой 3"><path class="cls-2" d="M37 95s-8.3-14.8-3-30c7-20-4-34-4-34s-5.6-4.7 1-14a10 10 0 0 0-8-16S11 1 11 11c0 5-3 7-3 7l2 2v6s0 3 4 2 5 7 5 7l-3 3-4 5L1 53s0 6.2 5 7a130.44 130.44 0 0 0 3 13c1 3 0 8 0 8a53.84 53.84 0 0 0-1 8v6zM23 1v2.5"/><path class="cls-3" d="M23 8.7v81.2"/><path class="cls-2" d="M23 92.5V95"/></g></svg>