<svg id="Layer_1" data-name="Layer 1" xmlns="http://www.w3.org/2000/svg" viewBox="0 0 59.8 98.7"><defs><style>.cls-1{fill:none;stroke:#000;stroke-linecap:round;stroke-linejoin:round;stroke-width:2px}</style></defs><title>professional</title><g id="Слой_1" data-name="Слой 1"><path class="cls-1" d="M1 79.2V1h40.3l17.5 17.5v60.7H36.4"/><path class="cls-1" d="M58.1 18.5H41.4V2.1m-31 26.5h32.1M10.4 40.8h41.8M33.9 53h18.3M33.9 64.9h18.3m-23.6 9.2l2.7 23.6-11.9-6.3-12 6.3 2.7-23.6m17.7-23v5l3.5 3.5-3.5 3.5v5h-4.9l-3.6 3.5-3.5-3.5h-5v-5l-3.5-3.5 3.5-3.5v-5h5l3.5-3.5 3.5 3.5h5z"/></g></svg>