<svg id="Слой_3" data-name="Слой 3" xmlns="http://www.w3.org/2000/svg" viewBox="0 0 99.6 99.6"><defs><style>.cls-1,.cls-2{fill:none;stroke:#000;stroke-width:2px}.cls-1{stroke-miterlimit:10}.cls-2{stroke-linecap:round;stroke-linejoin:round}</style></defs><title>quality</title><circle class="cls-1" cx="49.8" cy="49.8" r="48.8"/><path class="cls-2" d="M21.3 47.5s10.6-10.9 18.3-18.6c6.9-6.8 5.9-14.6 5.9-14.6s3.5-1.9 5.9 0c2.6 1.9 2.8 6.1 2.8 6.1A16.45 16.45 0 0 1 50 33c-3.2 3.8.6 5.4 3 5.4h16.8c.6 0 7.3 1.4 3.1 8.3 3.7 2.2 5.6 6.3.3 9.8 4.8 2.8 4.2 7.9-.6 10.2 1.5 2.9 2.1 7.3-3.3 8.7s-18.7 1.4-23.7 1A77.2 77.2 0 0 1 29 72.8a23.4 23.4 0 0 0-7.7-1.3"/></svg>