<svg id="Layer_1" data-name="Layer 1" xmlns="http://www.w3.org/2000/svg" viewBox="0 0 93.9 75.9"><defs><style>.cls-1,.cls-2,.cls-3{fill:none;stroke:#000;stroke-width:2px}.cls-1,.cls-3{stroke-miterlimit:10}.cls-2,.cls-3{stroke-linecap:round}.cls-2{stroke-linejoin:round}</style></defs><title>services</title><g id="Слой_1" data-name="Слой 1"><circle class="cls-1" cx="34.5" cy="8.5" r="7.5"/><circle class="cls-1" cx="85.4" cy="59.4" r="7.5"/><path class="cls-2" d="M45.1 51.3v1.5m-.1 0H23.9l-2-27.1s-.2-6.5 6.6-6.5h11.3s4.5.1 7 2.9l7.9 8.7a6.75 6.75 0 0 1 1.8 3.3c.6 2.8 2.2 10.9 2.2 10.9a3.09 3.09 0 0 1-2.5 3.7 3.34 3.34 0 0 1-4-2.7L50 35.4l-5-4v11.5"/><path class="cls-3" d="M21.9 26l4.8 17.5a6.23 6.23 0 0 0 3.6 3.4c2 .6 12.6 4 12.6 4s4.5 1.4 5.6-2.1c1-3.2-2.2-4.6-2.9-5s-11.9-4-11.9-4L31 29.7"/><path class="cls-2" d="M18 55.4h38.6v19.5H1v-2.5a17 17 0 0 1 17-17zm40.9 14h30a3 3 0 0 1 3 3 2.48 2.48 0 0 1-2.5 2.5H58.9zm0-13.7l10.1-1a7 7 0 0 1 7 7 5.55 5.55 0 0 1-5.5 5.5H58.9z"/></g></svg>