<svg width="50" height="58" viewBox="0 0 50 58" fill="none" xmlns="http://www.w3.org/2000/svg"><path d="M27.578 3.783C29.378 1.667 32.413.1 34.908 0c.328 2.931-.838 5.86-2.588 7.986-1.748 2.108-4.59 3.762-7.394 3.541-.373-2.879 1.037-5.866 2.652-7.744zm14.254 40.01c-2.087 3.048-4.235 6.091-7.641 6.144-3.33.06-4.403-1.986-8.213-1.986-3.813 0-5.009 1.933-8.16 2.046-3.276.119-5.763-3.283-7.861-6.331-4.277-6.203-7.544-17.54-3.15-25.186 2.177-3.807 6.073-6.213 10.302-6.271 3.21-.067 6.252 2.173 8.225 2.173 1.96 0 5.66-2.688 9.53-2.286 1.623.063 6.187.652 9.119 4.946-.236.15-5.448 3.192-5.392 9.527.077 7.567 6.623 10.086 6.69 10.109-.067.175-1.055 3.594-3.449 7.115z" fill="#049ED3" filter="url(#a)"/><defs><filter id="a" x="-4" y="0" width="58" height="58" filterUnits="userSpaceOnUse" color-interpolation-filters="sRGB"><feFlood flood-opacity="0" result="BackgroundImageFix"/><feColorMatrix in="SourceAlpha" values="0 0 0 0 0 0 0 0 0 0 0 0 0 0 0 0 0 0 127 0"/><feOffset dy="4"/><feGaussianBlur stdDeviation="2"/><feColorMatrix values="0 0 0 0 0 0 0 0 0 0 0 0 0 0 0 0 0 0 0.25 0"/><feBlend in2="BackgroundImageFix" result="effect1_dropShadow"/><feBlend in="SourceGraphic" in2="effect1_dropShadow" result="shape"/></filter></defs></svg>