<svg data-name="Слой 3" xmlns="http://www.w3.org/2000/svg" viewBox="0 0 58 58"><title>appStore</title><path d="M58 29A29 29 0 1 1 29.2 0 29 29 0 0 1 58 29zM29 3.2a25.85 25.85 0 0 0-.1 51.7 24.89 24.89 0 0 0 19.6-9.1 24.56 24.56 0 0 0 6.2-16.7A25.67 25.67 0 0 0 29 3.2z"/><path d="M36.5 33.6H22a3 3 0 0 0 .4-.8c1.1-1.7 2.2-3.5 3.2-5.3a.55.55 0 0 1 .5-.3h6.2a.46.46 0 0 1 .5.3 37.91 37.91 0 0 0 2 3.4c.5.8.9 1.6 1.4 2.4a.27.27 0 0 1 .3.3zM22.7 22.7c1.2.8 2.3 1.5 3.5 2.3-2.6 4.4-5.3 8.7-7.9 13.1-1.1-.8-2.2-1.5-3.3-2.3 2.6-4.4 5.1-8.7 7.7-13.1zm15.9 7c-.8.5-1.7 1-2.5 1.4l-.3-.3a94.47 94.47 0 0 1-6.1-11.3c-.8-1.7-1.6-3.4-2.3-5.2a6.53 6.53 0 0 1-.5-2c0-.2-.1-.5.2-.7a.88.88 0 0 1 .7.1 4.89 4.89 0 0 1 1.3 1.2 47.88 47.88 0 0 1 3.4 5.3c1.8 3 3.4 6.1 5 9.2a16.27 16.27 0 0 0 1.1 2.3zm-.3-2.4h7.2v6.3c-.1.1-.1 0-.2 0h-3.6c-.2 0-.3 0-.4-.2-1-2-1.9-4-2.9-5.9-.1-.1-.1-.1-.1-.2zm-25.7 0h6.3c0 .1 0 .2-.1.2-1.2 2-2.3 3.9-3.5 5.9a.46.46 0 0 1-.5.3h-2.3c.1-2.2.1-4.3.1-6.4zm28.5 7.5a10.92 10.92 0 0 1 1.3 1.7 41.06 41.06 0 0 1 2.4 3.9 1.67 1.67 0 0 1-.8 2.4 2.93 2.93 0 0 1-1 .3 1.43 1.43 0 0 1-1.2-.6 12.29 12.29 0 0 1-1.4-2.5c-.5-1.2-.9-2.4-1.3-3.7-.1-.2 0-.3.2-.4.6-.4 1.2-.7 1.8-1.1zM28.4 21.2c-.7 1.1-1.3 2.2-2 3.2-1.2-.8-2.3-1.5-3.4-2.3.7-1.1 1.3-2.1 2-3.2 1.2.8 2.3 1.6 3.4 2.3zm12.3 12.9c-.7.4-1.4.9-2.1 1.3-.7-1.2-1.5-2.5-2.2-3.7a20.13 20.13 0 0 1 2.5-1.4c.5 1.2 1.2 2.5 1.8 3.8zm-26.1 2.5c1.1.8 2.2 1.5 3.2 2.2-.2.2-4.3 3.6-4.6 3.8.5-2 1-4 1.4-6zm14-15.8c-1.1-.7-2.2-1.4-3.3-2.2a1.61 1.61 0 0 1 2.5-.8c1.4.8 1.5 1.6.8 3z"/></svg>