<svg id="Layer_1" data-name="Layer 1" xmlns="http://www.w3.org/2000/svg" viewBox="0 0 73.1 99.41"><defs><style>.cls-1{opacity:.25}.cls-2{fill:none;stroke:#000;stroke-linecap:round;stroke-linejoin:round;stroke-width:2px}</style></defs><title>backPain</title><g id="Слой_4" data-name="Слой 4"><circle class="cls-2" cx="64.3" cy="17.1" r="7.8"/><path class="cls-2" d="M53.4 43.5s-5.7 16.2-5.9 17.1-1 3.1.8 4.1a2.8 2.8 0 0 0 4-.9c.4-.8 7.3-14.6 7.8-15.7a10.26 10.26 0 0 0 .4-7c-.9-3.6-2.1-7.6-3.7-13.1s-2.3-10.3-8-9.9C43.9 18.3 18 34.6 18 34.6a7.93 7.93 0 0 0-4.1 6.1c-.5 4.4-1.8 24.5-1.8 24.5l-9 26.9s-1 4.1 2.4 5.2 5.1-2.3 5.1-2.3 8.5-22.8 9.5-25.3 1.1-3.9 1.7-9S23 49.5 23 49.5l11 18.7S32.9 91.6 32.9 93s-.1 5.2 3.7 5.4c3.3.2 4.3-2 4.6-4.8s1.6-24 1.6-24a15.19 15.19 0 0 0-1.8-7.5C39 58.7 31.1 44 31.1 44L49 33.5zM29.3 1L31 11.3l-4.4-.3L30 21M11.9 2.4l8.3 11-6.9 1.4 10.1 9.8M1 14.2l8.8 5.4-5.1 3.8 9.9 3.5"/></g></svg>