<svg id="Слой_2" data-name="Слой 2" xmlns="http://www.w3.org/2000/svg" viewBox="0 0 98.18 74.29"><defs><style>.cls-1{fill:none;stroke:#000;stroke-miterlimit:10;stroke-width:2px}</style></defs><title>comfort</title><path class="cls-1" d="M49 1H25.6C19 1 9.2 5.6 9.2 14.4a86.64 86.64 0 0 0 .4 10s-9.3 3-8.6 9.2 6.4 9.1 6.4 9.1 3.4 12 7.2 16.4c0 0 1 1.9 5.1 2S49 61 49 61" transform="translate(.04)"/><path class="cls-1" d="M49 34.9s-14.7 0-27.1 5c0 0-2.4-15.4-12.3-15.5m5.6 35.2l-3.7 7.8s-1.6 3.2 0 4.6a4.21 4.21 0 0 0 2 1.2 3.77 3.77 0 0 0 4.4-2.3 106.65 106.65 0 0 1 5.2-9.8M49 1h23.4c6.7 0 16.5 4.6 16.5 13.4a86.64 86.64 0 0 1-.4 10s9.3 3 8.6 9.2-6.4 9.1-6.4 9.1-3.4 12-7.3 16.4c0 0-1 1.9-5.1 2S49 61 49 61" transform="translate(.04)"/><path class="cls-1" d="M49 34.9s14.7 0 27.1 5c0 0 2.4-15.4 12.3-15.5m-5.5 35.2l3.7 7.8s1.6 3.2 0 4.6a4.21 4.21 0 0 1-2 1.2 3.77 3.77 0 0 1-4.4-2.3 106.65 106.65 0 0 0-5.2-9.8" transform="translate(.04)"/></svg>