<svg data-name="Слой 3" xmlns="http://www.w3.org/2000/svg" viewBox="0 0 86.5 81.29"><title>instagram</title><path d="M86.5 81.29H68.3c-.4 0-.4 0-.4-.4v-29.5a16.45 16.45 0 0 0-1.2-6.6 8 8 0 0 0-3.5-4.2 8.5 8.5 0 0 0-3.4-1.1 9.9 9.9 0 0 0-4.8.5 10.17 10.17 0 0 0-5.4 4.6 9 9 0 0 0-1.3 4.3c0 .8-.1 1.6-.1 2.4v29.5c0 .4 0 .4-.4.4H30.1c-.4 0-.4 0-.4-.4v-54c0-.3 0-.3.3-.3h17.8c.4 0 .4 0 .4.4v7.4h.1c.1-.1.2-.2.2-.3a21.91 21.91 0 0 1 4.6-5 16.91 16.91 0 0 1 7.4-3.2 25.41 25.41 0 0 1 13.1 1.1 18 18 0 0 1 10.1 9.6 24.59 24.59 0 0 1 2.1 7 30.72 30.72 0 0 1 .5 5.3.37.37 0 0 0 .1.3c.1 10.6.1 21.4.1 32.2zM0 8.99c0-.3.1-.5.1-.8a8.58 8.58 0 0 1 5-7A10.36 10.36 0 0 1 8.9.09a12.69 12.69 0 0 1 6.1.7 8.75 8.75 0 0 1 5.7 7 9 9 0 0 1-1.6 7.1 9.59 9.59 0 0 1-5.3 3.5 12.25 12.25 0 0 1-7.8-.3 9.06 9.06 0 0 1-5.8-6.9 3.4 3.4 0 0 1-.1-1 .37.37 0 0 1-.1-.3zm1.1 72.3v-54.5c0-.3 0-.3.3-.3h17.9c.3 0 .3 0 .3.3v54.2c0 .3 0 .3-.3.3H1.1z"/></svg>