<svg id="Layer_1" data-name="Layer 1" xmlns="http://www.w3.org/2000/svg" viewBox="0 0 96.2 96.2"><defs><style>.cls-1{opacity:.25}.cls-2{fill:none;stroke:#000;stroke-linecap:round;stroke-linejoin:round;stroke-width:2px}</style></defs><title>neuralgic</title><g id="Слой_4" data-name="Слой 4"><path class="cls-2" d="M69.6 6.6S52 21.7 47.2 29.1s-5.8 11.8-6.1 14.6 0 14.6 4 19.5 5.2 2.8 7.6 6.4a20.44 20.44 0 0 1 3.3 4.1 11 11 0 0 0 8 5.6A62 62 0 0 1 77.9 84"/><path class="cls-2" d="M56.8 18.3s-6 14.3 4.6 21.8 7.9 5 12.5 8.3c3.5 2.5 7.3 6 10.4 1"/><path class="cls-2" d="M93.6 58s-4-1.5-7.1-.9-4.1-4-5.9-4.7a19.36 19.36 0 0 1-3.3-1.7M41 44.3s6.4-4.1 11.1 0 2.9 2.9 7.4 3.6 6.4 7.4 6.8 9.4C67.1 61.1 65 65.9 77 68M66.3 54.3s1.3-.4 4.5 3 10.6 3.2 10.6 3.2"/><path class="cls-2" d="M63.4 50.8a5 5 0 0 1-1.7 4.5c-2 1.7-3.3 1.6-4.8 4.1m6.4-17.9s-9.3-3-13.1 6-4.4 6.5-4.4 6.5m13.3-38.3S6.8 5.5 14.4 52.1c1.5 1.8 3.6 3.4 9 3.9M12.1 66.9c.3-.3 2.5-2 2.9-14.2M3.4 60.6s10.1-4.7 10.9-8.4m26.1-9.7s-9.8-9.9-17.4-6.1"/><path class="cls-2" d="M29.3 35.9s-5.9 1.2-5.3 8.5 1.3 5.6 1.3 5.6M24 46.1l-3.6 2.6M34.1 38s-4.8 2.1-3.3 5.3c2.2 4.8 1.5 5.8.8 5.8m12.2 12.2S34.4 73.2 39.4 76M38 71s-12.8 4.8-17.7 13.8m29.2-17.9c.2.3 2 15.4-14.6 17.1"/><path class="cls-2" d="M51.2 69s-6.4.6-6 7.8c.5 8.3 1.5 12.9-1.4 13.8m23.3-28a13.54 13.54 0 0 1-2.9 6.4"/><circle class="cls-2" cx="48.1" cy="48.1" r="47.1"/></g></svg>