<svg id="Слой_2" data-name="Слой 2" xmlns="http://www.w3.org/2000/svg" viewBox="0 0 99.77 99.77"><defs><style>.cls-1{fill:none;stroke:#000;stroke-linecap:round;stroke-linejoin:round;stroke-width:2px}</style></defs><title>setup</title><path class="cls-1" d="M98.84 42.53V57.7A6.83 6.83 0 0 1 92 64.53h-7.23l5.12 5.12a6.86 6.86 0 0 1 0 9.67L79.16 90a6.83 6.83 0 0 1-9.66 0l-5.13-5.13v7.25A6.83 6.83 0 0 1 57.54 99H42.37a6.83 6.83 0 0 1-6.83-6.84v-7.24L30.42 90a6.84 6.84 0 0 1-9.67 0L10 79.32a6.84 6.84 0 0 1 0-9.67l5.12-5.12H7.9a6.83 6.83 0 0 1-6.83-6.83V42.53A6.83 6.83 0 0 1 7.9 35.7h7.26L10 30.57a6.83 6.83 0 0 1 0-9.66l10.75-10.73a6.84 6.84 0 0 1 9.67 0l5.12 5.12V8.06a6.83 6.83 0 0 1 6.83-6.83h15.17a6.83 6.83 0 0 1 6.83 6.83v7.25l5.13-5.13a6.83 6.83 0 0 1 9.66 0l10.73 10.73a6.84 6.84 0 0 1 0 9.66l-5.13 5.13H92a6.83 6.83 0 0 1 6.84 6.83z" transform="translate(-.07 -.23)"/><circle class="cls-1" cx="49.88" cy="49.89" r="21.84"/></svg>