<svg id="Layer_1" data-name="Layer 1" xmlns="http://www.w3.org/2000/svg" viewBox="0 0 79.33 98.1"><defs><style>.cls-1{opacity:.25}.cls-2{fill:none;stroke:#000;stroke-linecap:round;stroke-linejoin:round;stroke-width:2px}</style></defs><title>stress</title><g id="Слой_4" data-name="Слой 4"><path class="cls-2" d="M39.1 9.6S57.5 6 68.9 17c9 8.8 10.7 20 8.7 26.8s-4.7 9.7-6.5 13.9-6.8 14.4-2.9 24.9S72.1 93 72.1 93M13.6 26.1s-2.8 3.1-2.8 11.2c0 11.3-6.1 14.9-8 16.7-1.5 1.4-2.7 2.8-.8 4.3s5 1.7 5.4 2.5-.7 4-.9 4.6-1.7 3.1 3.3 3.6a3.68 3.68 0 0 0-2.5 2.4c-.3 2.1 1.5 1.7 2.7 3.2.4.5.9 1.5 0 4-.5 1.4-1.2 6.6 4.8 7.5s13.1-.4 16.3 6c1.8 3.5 2.4 5 2.4 5" transform="translate(-.02)"/><path class="cls-2" d="M25.58 1l2.9 12 4.9-3.2.8 18.6M5.08 7.1l11.6 13.4 2.6-7.5 6.9 13.1"/></g></svg>