<svg data-name="Слой 3" xmlns="http://www.w3.org/2000/svg" viewBox="0 0 79.6 64.9"><title>twitter</title><path d="M54.8 0h.5a.9.9 0 0 1 .5.1c.8.1 1.5.1 2.3.2a16 16 0 0 1 8.6 4.5 1 1 0 0 0 1 .3 36.05 36.05 0 0 0 9.6-3.7.31.31 0 0 0 .2-.1 16.72 16.72 0 0 1-7.1 9 32.16 32.16 0 0 0 9.2-2.5v.1c0 .1-.1.1-.1.2a31.21 31.21 0 0 1-7.8 8 .52.52 0 0 0-.2.4 44.6 44.6 0 0 1-.3 7.3c-.2 1.5-.4 2.9-.7 4.4a45.77 45.77 0 0 1-4.6 12.5 45.48 45.48 0 0 1-12 14.5 44 44 0 0 1-24 9.5c-1.2.1-2.4.1-3.6.2h-2.4l-4.1-.3a26.73 26.73 0 0 1-4.8-.8 46.69 46.69 0 0 1-13-5c-.7-.4-1.3-.8-2-1.2a33 33 0 0 0 24.1-6.8 16 16 0 0 1-9.4-3.3 17.11 17.11 0 0 1-5.9-8.1 15 15 0 0 0 7.3-.3 16.6 16.6 0 0 1-9.4-5.8 15.78 15.78 0 0 1-3.6-10.5 17.39 17.39 0 0 0 7.4 2 16.76 16.76 0 0 1-6.8-9.9A15.14 15.14 0 0 1 5.3 3a47 47 0 0 0 15.1 12.2 46.89 46.89 0 0 0 18.7 5V20a21.83 21.83 0 0 1-.4-4.4 17.73 17.73 0 0 1 .5-3.2 16.15 16.15 0 0 1 4.8-8A16 16 0 0 1 54.4.1c.1-.1.2-.1.4-.1z"/></svg>