<svg id="Capa_1" data-name="Capa 1" xmlns="http://www.w3.org/2000/svg" viewBox="0 0 512 506.77"><defs><style>.cls-1{fill:#fff}</style></defs><title>basket</title><path class="cls-1" d="M489.46 161.13H377.92L303.17 8.66a10.17 10.17 0 0 0-14.24-4.75 10.17 10.17 0 0 0-4.75 14.24l70 143.57h-197l70-143.57c2.37-5.34.59-11.87-4.75-14.24s-11.87-.59-14.24 4.75l-74.7 153.06H22.54A22.53 22.53 0 0 0 0 184.27V240a22.53 22.53 0 0 0 22.54 22.54h26.1v195.23c0 32 19.58 51.62 51.62 51.62h311.48c32 0 51.62-19.58 51.62-51.62V262h26.1A22.53 22.53 0 0 0 512 239.44v-55.77a22.53 22.53 0 0 0-22.54-22.54zM442 457.77Q442 488 411.74 488H99.67q-30.26 0-30.26-30.26V263.17A1.28 1.28 0 0 1 70.6 262h369.61c1.19 0 1.78.59 1.78 1.19zM490 240a1.28 1.28 0 0 1-1.19 1.19H22.54a1.28 1.28 0 0 1-1.18-1.19v-55.73a1.28 1.28 0 0 1 1.19-1.19h100.26l-11.87 24.32c-2.37 5.34-.59 11.87 4.75 14.24 1.78.59 3 1.19 4.75 1.19a10.57 10.57 0 0 0 9.49-5.93l16.61-33.82h218.33l16.61 33.82a10.57 10.57 0 0 0 9.49 5.93c1.78 0 3-.59 4.75-1.19a10.17 10.17 0 0 0 4.75-14.24l-11.87-24.32h100.26a1.28 1.28 0 0 1 1.19 1.19V240z" transform="translate(0 -2.62)"/><path class="cls-1" d="M127.56 286.31A10.63 10.63 0 0 0 116.88 297v127c0 6.53 4.75 11.27 10.68 11.27a10.63 10.63 0 0 0 10.68-10.68V297a10.63 10.63 0 0 0-10.68-10.69zm64.07 0A10.63 10.63 0 0 0 181 297v127c.59 6.53 5.34 11.27 10.68 11.27a10.63 10.63 0 0 0 10.68-10.68V297a10.63 10.63 0 0 0-10.73-10.69zm64.67 0A10.63 10.63 0 0 0 245.62 297v127c0 6.53 4.75 11.27 10.68 11.27a10.63 10.63 0 0 0 10.7-10.73V297a10.63 10.63 0 0 0-10.7-10.69zm64.07 0A10.63 10.63 0 0 0 309.69 297v127c0 6.53 4.75 11.27 10.68 11.27A10.63 10.63 0 0 0 331 424.54V297a10.63 10.63 0 0 0-10.63-10.69zm64.07 0A10.63 10.63 0 0 0 373.77 297v127c.59 6.53 5.34 11.27 10.68 11.27a10.63 10.63 0 0 0 10.68-10.68V297a10.63 10.63 0 0 0-10.69-10.69z" transform="translate(0 -2.62)"/></svg>