<svg id="Capa_1" data-name="Capa 1" xmlns="http://www.w3.org/2000/svg" viewBox="0 0 512 512"><defs><style>.cls-1{fill:#ff2476}</style></defs><title>clock</title><path class="cls-1" d="M256.31 42.52C93.73 42.52-11.5 219 73 364.38c82.56 138.71 283.61 139.44 366.61 0 20.73-35.66 30.06-72.89 30.06-108.49.01-116.62-94.96-213.37-213.36-213.37zm175.12 305.8l-18-10.39a7.51 7.51 0 1 0-7.51 13l18 10.37a199.68 199.68 0 0 1-62.19 62.1l-10.37-17.9a7.51 7.51 0 1 0-13 7.51l10.35 17.92a196.76 196.76 0 0 1-84.88 22.75V433a7.51 7.51 0 1 0-15 0v20.7a196.76 196.76 0 0 1-84.88-22.75L174.27 413a7.51 7.51 0 0 0-13-7.51l-10.34 17.91a199.71 199.71 0 0 1-62.19-62.1l18-10.37a7.51 7.51 0 1 0-7.51-13l-18 10.39a196.76 196.76 0 0 1-22.9-84.92h20.88a7.51 7.51 0 1 0 0-15h-20.9a196.77 196.77 0 0 1 22.72-85l18.15 10.48a7.51 7.51 0 1 0 7.51-13l-18.14-10.52a199.7 199.7 0 0 1 62.2-62.29l10.51 18.2a7.51 7.51 0 1 0 13-7.51l-10.52-18.22A196.77 196.77 0 0 1 248.8 57.7v21.1a7.51 7.51 0 0 0 15 0V57.69a196.76 196.76 0 0 1 85.06 22.84l-10.5 18.23a7.51 7.51 0 1 0 13 7.51l10.51-18.2a199.7 199.7 0 0 1 62.2 62.29l-18.15 10.48a7.51 7.51 0 1 0 7.51 13l18.15-10.48a196.78 196.78 0 0 1 22.72 85h-20.9a7.51 7.51 0 1 0 0 15h20.9a196.77 196.77 0 0 1-22.87 84.96z"/><path class="cls-1" d="M368.15 250.58l-23.44-23.44a7.51 7.51 0 0 0-10.62 10.62l10.72 10.72h-52.7v-9.06a19.55 19.55 0 0 0-19.52-19.52h-8.76v-90.25l10.72 10.72a7.51 7.51 0 0 0 10.62-10.62l-23.44-23.44a7.51 7.51 0 0 0-10.62 0l-23.44 23.44a7.51 7.51 0 0 0 10.62 10.62l10.52-10.52v90H240a19.55 19.55 0 0 0-19.52 19.52V272A19.55 19.55 0 0 0 240 291.48h32.54A19.55 19.55 0 0 0 292.11 272v-8.5h52.5L334.09 274a7.51 7.51 0 0 0 10.62 10.62l23.44-23.44a7.51 7.51 0 0 0 0-10.62zM277.09 272a4.57 4.57 0 0 1-4.51 4.51H240a4.57 4.57 0 0 1-4.51-4.51v-32.58a4.57 4.57 0 0 1 4.51-4.51h32.54a4.57 4.57 0 0 1 4.51 4.51zM512 237.64C503.1 110.56 401.19 8.89 274.36 0a7.51 7.51 0 0 0-1 15C392.5 23.33 488.66 119.5 497 238.69a7.51 7.51 0 0 0 7.48 7h.53a7.51 7.51 0 0 0 6.99-8.05z"/><path class="cls-1" d="M505 265.72a7.51 7.51 0 0 0-8 7C488.2 398.46 382.48 497 256.31 497 123.26 497 15 388.74 15 255.69 15 129.52 113.54 23.8 239.31 15a7.51 7.51 0 1 0-1-15C104.85 9.35 0 120.8 0 255.69 0 397 115 512 256.31 512 391.16 512 502.65 407.19 512 273.73a7.51 7.51 0 0 0-7-8.01z"/></svg>