<svg id="Capa_1" data-name="Capa 1" xmlns="http://www.w3.org/2000/svg" viewBox="0 0 512 511.48"><defs><style>.cls-1{fill:#ff2476}</style></defs><title>credit-card</title><path class="cls-1" d="M508.43 183.93l-57.2-148.72a54.56 54.56 0 0 0-70.54-31.28l-1.22.49L93.62 122.91a54.3 54.3 0 0 0-30.17 69.49l7.86 21h-18A53.34 53.34 0 0 0 0 266.65v191.81a53.34 53.34 0 0 0 53.28 53.28h362.3a53.34 53.34 0 0 0 53.28-53.28V266.65a52.37 52.37 0 0 0-.77-8.63l9.9-4a54.76 54.76 0 0 0 30.44-70.09zM53.28 230.42h362.3a36.18 36.18 0 0 1 36 34.1H17.26a36.18 36.18 0 0 1 36.02-34.1zM139 179.07l57-28.5 11.71 29.3-57 28.49zm312.81 279.39a36.27 36.27 0 0 1-36.23 36.23H53.28A36.27 36.27 0 0 1 17 458.46V349.77h434.81zm0-125.74H17v-51.15h434.81zm19.79-94.45l-8.91 3.61a53.31 53.31 0 0 0-47.11-28.5h-236.8l43.52-21.76a8.53 8.53 0 0 0 4.11-10.79l-18.08-45.18a8.53 8.53 0 0 0-11.08-4.75q-.33.13-.65.29l-72.28 36.16a8.53 8.53 0 0 0-4.1 10.79l14.1 35.24H89.51l-10.09-26.93a37.32 37.32 0 0 1 20.73-47.74L386 20.22a37.46 37.46 0 0 1 48.95 20.25q.19.45.36.9l57.2 148.72a37.64 37.64 0 0 1-20.91 48.18z" transform="translate(0 -.26)"/><path class="cls-1" d="M306.65 470.72a51.15 51.15 0 0 0 51.39 0 51.15 51.15 0 1 0 0-88.45 51.15 51.15 0 1 0-51.39 88.45zm65.64-76.25a34.1 34.1 0 1 1 0 64 50.94 50.94 0 0 0 .01-64zM358 404.18a33.48 33.48 0 0 1 0 44.64 33.48 33.48 0 0 1 0-44.64zm-25.57-11.78a33.74 33.74 0 0 1 11.32 2.08 50.94 50.94 0 0 0 0 64 34 34 0 1 1-11.32-66.12z" transform="translate(0 -.26)"/><path class="cls-1" transform="rotate(-23.97 403.032 165.752)" d="M359.22 157.38h89v17.05h-89z"/><path class="cls-1" transform="rotate(-24.78 366.952 138.66)" d="M302.92 130.27H432.3v17.04H302.92z"/></svg>