<svg id="Layer_1" data-name="Layer 1" xmlns="http://www.w3.org/2000/svg" viewBox="0 0 512 393.09"><defs><style>.cls-1{fill:#ff2476}</style></defs><title>delivery-truck</title><path class="cls-1" d="M509.47 300.92l-75.73-86.46a10.2 10.2 0 0 0-7.67-3.48H360.2V149.8a10.2 10.2 0 0 0-10.2-10.2H203.46A103 103 0 1 0 19.1 222.15v151.69h-8.9a10.2 10.2 0 0 0 0 20.4h8.9v11.92a10.2 10.2 0 0 0 10.2 10.2h20.1a46.38 46.38 0 0 0 90.5 0h239.25a46.38 46.38 0 0 0 90.49 0h32.16a10.2 10.2 0 0 0 10.2-10.2v-98.52a10.2 10.2 0 0 0-2.53-6.72zM206 160h133.8v170.61H39.5v-87.1a103 103 0 0 0 166.53-81q-.03-1.28-.03-2.51zm-185.6 2.47a82.61 82.61 0 1 1 82.6 82.61 82.71 82.71 0 0 1-82.6-82.61zm74.25 269.68a26 26 0 1 1 26-26 26 26 0 0 1-26 26zM339.8 396H139.89a46.38 46.38 0 0 0-90.5 0H39.5v-45h300.3v45zm95.8-148.42l44.3 50.57h-44.3zm-11.21 184.57a26 26 0 1 1 26-26 26 26 0 0 1-26 26zM491.6 396h-22a46.38 46.38 0 0 0-90.49 0H360.2V231.38h55v76.93a10.2 10.2 0 0 0 10.2 10.2h66.2V396z" transform="translate(0 -59.45)"/><path class="cls-1" d="M315.15 299.14h-85.67a10.2 10.2 0 1 0 0 20.4h85.67a10.2 10.2 0 0 0 0-20.4zm-117.28 0h-6.12a10.2 10.2 0 1 0 0 20.4h6.12a10.2 10.2 0 0 0 0-20.4zm-65.21-121.45l-19.45-19.45v-57a10.2 10.2 0 1 0-20.4 0v61.2a10.2 10.2 0 0 0 3 7.21l22.44 22.44a10.2 10.2 0 0 0 14.42-14.42z" transform="translate(0 -59.45)"/></svg>