<svg id="Capa_1" data-name="Capa 1" xmlns="http://www.w3.org/2000/svg" viewBox="0 0 512 512"><defs><style>.cls-1{fill:#fff}</style></defs><title>discount</title><path class="cls-1" d="M329.8 259.55c-14.36 0-22.93 8.45-22.93 22.62v44.57c0 14.16 8.57 22.62 22.93 22.62s23.2-8.67 23.2-22.62v-44.57c0-13.95-8.86-22.62-23.2-22.62zm8.14 67.19c0 4.87-1.3 7.51-8.14 7.51-6 0-7.83-1.76-7.83-7.51v-44.57c0-5.76 1.83-7.52 7.83-7.52 6.84 0 8.14 2.64 8.14 7.52z"/><path class="cls-1" d="M329.8 232.24c-16.8 0-30.14 4.26-39.43 12.26l45.24-92.66a21.16 21.16 0 0 0 2.05-9.34c0-14.47-13.48-24.19-26.07-24.19-8.94 0-16.43 4.55-20 12.09L239.25 238a65 65 0 0 0 1.12-12.32V181.1c0-31.73-19.91-49.92-54.63-49.92s-54.63 18.2-54.63 49.92v44.57c0 31.73 19.91 49.92 54.63 49.92 18.9 0 33.42-5.39 42.72-15.43l-47 96.46c-4.7 9.39-1.79 19.28 4.53 25.84 12.19 12.66 33 8.62 39.16-4.45l50.35-103.14a69.15 69.15 0 0 0-.37 7.28v44.57c0 31.73 19.91 49.92 54.63 49.92s54.63-18.2 54.63-49.92v-44.55c.04-31.73-19.87-49.93-54.59-49.93zm-104.54-6.57c0 12.19-3.63 21.25-10.79 26.92-6.62 5.24-16.29 7.9-28.74 7.9-26.6 0-39.53-11.39-39.53-34.82V181.1c0-23.43 12.93-34.82 39.53-34.82 12.45 0 22.12 2.66 28.74 7.9 7.16 5.67 10.79 14.72 10.79 26.92v44.57zm-13.67 145.78l-.06.12c-.79 1.68-3.9 3.49-7.28 3.49-6.8 0-11.8-6.57-9.22-11.74l110.22-226.4c1.1-2.33 3.23-3.51 6.35-3.51 4.58 0 11 3.46 11 9.08a6.22 6.22 0 0 1-.49 2.65zm157.74-44.71c0 12.19-3.63 21.25-10.79 26.92-6.62 5.24-16.29 7.9-28.74 7.9-26.6 0-39.53-11.39-39.53-34.82v-44.57c0-23.43 12.93-34.82 39.53-34.82 12.45 0 22.12 2.66 28.74 7.9 7.16 5.67 10.79 14.72 10.79 26.92z"/><path class="cls-1" d="M185.73 158.49c-14.36 0-22.93 8.46-22.93 22.62v44.57c0 14.16 8.57 22.62 22.93 22.62S209 239.62 209 225.67V181.1c0-13.95-8.93-22.61-23.27-22.61zm8.14 67.19c0 4.87-1.3 7.51-8.14 7.51-6 0-7.83-1.76-7.83-7.51V181.1c0-5.76 1.83-7.51 7.83-7.51 6.84 0 8.14 2.64 8.14 7.51z"/><path class="cls-1" d="M469.37 240.79l-.16-.07a36.86 36.86 0 0 1-21.57-26.28 193.38 193.38 0 0 0-5.45-20.44 37.18 37.18 0 0 1 5.47-33.76 14.7 14.7 0 0 0-13.51-23.4 37.21 37.21 0 0 1-32-12.12 195.49 195.49 0 0 0-14.81-14.81 37.17 37.17 0 0 1-12.13-32 14.7 14.7 0 0 0-23.4-13.56A37.18 37.18 0 0 1 318 69.81a193.17 193.17 0 0 0-20.48-5.46 36.91 36.91 0 0 1-26.28-21.59 14.7 14.7 0 0 0-27 0A36.88 36.88 0 0 1 218 64.36a193.62 193.62 0 0 0-20.48 5.46 37.17 37.17 0 0 1-33.76-5.47 14.69 14.69 0 0 0-23.42 13.34v.23a37.16 37.16 0 0 1-12.13 32 195.74 195.74 0 0 0-14.81 14.81 37.16 37.16 0 0 1-32 12.13 14.68 14.68 0 0 0-13.56 23.4A37.18 37.18 0 0 1 73.35 194a193.53 193.53 0 0 0-5.46 20.48 36.86 36.86 0 0 1-21.57 26.28h-.08a14.68 14.68 0 0 0 .1 27h.06A36.87 36.87 0 0 1 67.89 294a193.21 193.21 0 0 0 5.46 20.48 37.18 37.18 0 0 1-5.47 33.76 14.68 14.68 0 0 0 13.51 23.4 37.21 37.21 0 0 1 32 12.12 195.82 195.82 0 0 0 14.81 14.81 37.19 37.19 0 0 1 12.12 32v.14c-1.49 12.66 13 21.17 23.42 13.39a37.19 37.19 0 0 1 33.76-5.47 193.24 193.24 0 0 0 20.5 5.48 36.87 36.87 0 0 1 26.23 21.46l.06.13a14.7 14.7 0 0 0 27 0l.06-.14a36.87 36.87 0 0 1 26.22-21.45 193.59 193.59 0 0 0 20.43-5.46 37.18 37.18 0 0 1 33.76 5.47 14.7 14.7 0 0 0 23.4-13.51 37.22 37.22 0 0 1 12.12-32 195.29 195.29 0 0 0 14.81-14.81 37.19 37.19 0 0 1 32-12.13 14.7 14.7 0 0 0 13.56-23.39 37.19 37.19 0 0 1-5.47-33.76 193.34 193.34 0 0 0 5.46-20.52c2.27-10.89 9.47-20.83 21.56-26.27a14.71 14.71 0 0 0 .14-27zm-36.52 50.16a178.08 178.08 0 0 1-5 18.87 52.32 52.32 0 0 0 7.15 46.75 52.3 52.3 0 0 0-44.12 17.13 180.55 180.55 0 0 1-13.67 13.67 52.36 52.36 0 0 0-17.13 44.12 52.32 52.32 0 0 0-46.75-7.18 177.84 177.84 0 0 1-18.87 5 52 52 0 0 0-36.71 29.58 52 52 0 0 0-36.71-29.58 177.87 177.87 0 0 1-18.87-5 52.32 52.32 0 0 0-46.75 7.18 52.29 52.29 0 0 0-17.13-44.12 180.89 180.89 0 0 1-13.67-13.67 52.35 52.35 0 0 0-44.12-17.13 52.32 52.32 0 0 0 7.18-46.75 178.25 178.25 0 0 1-5-18.87 52 52 0 0 0-29.58-36.71 52 52 0 0 0 29.58-36.71 177.9 177.9 0 0 1 5-18.87 52.31 52.31 0 0 0-7.18-46.75 52.32 52.32 0 0 0 44.12-17.13 180.45 180.45 0 0 1 13.66-13.66A52.27 52.27 0 0 0 155.43 77a52.32 52.32 0 0 0 46.75 7.18 178.26 178.26 0 0 1 18.87-5 52 52 0 0 0 36.71-29.58 52 52 0 0 0 36.71 29.58 178.33 178.33 0 0 1 18.87 5A52.32 52.32 0 0 0 360.1 77a52.29 52.29 0 0 0 17.13 44.12 180.56 180.56 0 0 1 13.67 13.67A52.34 52.34 0 0 0 435 151.9a52.31 52.31 0 0 0-7.19 46.75 178 178 0 0 1 5 18.87 52 52 0 0 0 29.58 36.71 52 52 0 0 0-29.53 36.72z"/><path class="cls-1" d="M511.4 233.67a51.62 51.62 0 0 0-27.23-27.22 232 232 0 0 0-6.42-24.05c27.1-36.59-2.47-87.93-47.84-82.75a233.89 233.89 0 0 0-17.56-17.56c5.23-45.3-46.12-75-82.75-47.84a231 231 0 0 0-24-6.43A51.63 51.63 0 0 0 278.33.6a7.55 7.55 0 0 0-5.89 13.91 36.64 36.64 0 0 1 19.29 19.4v.08a14.55 14.55 0 0 0 10.34 8.55A215.67 215.67 0 0 1 325 48.63a14.87 14.87 0 0 0 13.51-2.14c26.07-19.47 62.69 1.74 58.87 34a14.9 14.9 0 0 0 4.88 12.81 218.49 218.49 0 0 1 16.5 16.5 14.84 14.84 0 0 0 12.75 4.89c32.3-3.82 53.52 32.78 34 58.87a14.87 14.87 0 0 0-2.13 13.44 215.57 215.57 0 0 1 6.09 22.84 14.57 14.57 0 0 0 8.46 10.31h.1a36.59 36.59 0 0 1 19.46 19.32 7.55 7.55 0 1 0 13.91-5.89zm-4.01 31.23a7.55 7.55 0 0 0-9.9 4 36.6 36.6 0 0 1-19.39 19.3h-.09a14.55 14.55 0 0 0-8.55 10.34 216 216 0 0 1-6.09 22.85 14.87 14.87 0 0 0 2.14 13.51c19.45 26-1.71 62.7-34 58.87a14.91 14.91 0 0 0-12.8 4.88 218.14 218.14 0 0 1-16.5 16.5 14.86 14.86 0 0 0-4.89 12.75c3.83 32.38-32.84 53.48-58.86 34a14.87 14.87 0 0 0-13.46-2.06 215.47 215.47 0 0 1-22.85 6.09 14.55 14.55 0 0 0-10.35 8.55l-.06.14c-12.89 29.72-55 29.67-67.87 0l-.06-.13a14.55 14.55 0 0 0-10.34-8.55 215.81 215.81 0 0 1-22.85-6.09 14.88 14.88 0 0 0-13.5 2.14c-26.11 19.5-62.68-1.83-58.88-33.89v-.27a14.73 14.73 0 0 0-4.9-12.63 218.56 218.56 0 0 1-16.5-16.51 14.87 14.87 0 0 0-12.75-4.89C51.7 397.62 30.58 361 50 334.93a14.87 14.87 0 0 0 2.14-13.51 215.39 215.39 0 0 1-6.09-22.85 14.52 14.52 0 0 0-8.49-10.32l-.15-.06c-29.69-12.82-29.86-55 0-67.93l.16-.07a14.57 14.57 0 0 0 8.44-10.3A215.43 215.43 0 0 1 52.16 187 14.87 14.87 0 0 0 50 173.54c-19.46-26.06 1.72-62.67 34-58.87a14.89 14.89 0 0 0 12.82-4.88 218.22 218.22 0 0 1 16.5-16.5 14.84 14.84 0 0 0 4.9-12.6v-.27c-3.76-32.26 32.86-53.36 58.88-33.93a14.87 14.87 0 0 0 13.51 2.14 215.69 215.69 0 0 1 22.85-6.09A14.55 14.55 0 0 0 223.78 34a36.62 36.62 0 0 1 19.32-19.49A7.55 7.55 0 1 0 237.2.6 51.63 51.63 0 0 0 210 27.83a232.1 232.1 0 0 0-24.05 6.42C149.3 7.12 98 36.8 103.19 82.09a233.47 233.47 0 0 0-17.56 17.56c-45.31-5.2-75 46.13-47.83 82.75a230.86 230.86 0 0 0-6.43 24c-41.85 18.15-41.79 77.45 0 95.58a231.62 231.62 0 0 0 6.42 24c-25.75 34.77-.36 83.11 41.62 83.1a55 55 0 0 0 6.22-.36 234.49 234.49 0 0 0 17.56 17.57c-5.22 45.29 46.13 75 82.75 47.83a231.23 231.23 0 0 0 24 6.43c18.16 41.84 77.44 41.78 95.57 0a231.89 231.89 0 0 0 24-6.42c36.57 27.08 87.94-2.45 82.75-47.84a233.34 233.34 0 0 0 17.56-17.56c45.3 5.23 75-46.13 47.83-82.75a231.18 231.18 0 0 0 6.43-24 51.62 51.62 0 0 0 27.32-27.18 7.55 7.55 0 0 0-4.01-9.9z"/></svg>