<svg id="Capa_1" data-name="Capa 1" xmlns="http://www.w3.org/2000/svg" viewBox="0 0 450.36 512"><defs><style>.cls-1{fill:#fff}</style></defs><title>factory</title><path class="cls-1" d="M472.23 496.09h-34.8V277.37a7.84 7.84 0 0 0-8-8h-13.86l-21.87-136.2c-1-4-4-6-7-6H342c-4 0-7 3-7 6l-21.87 136.2h-27.8v-58.6c0-3-2-5-4-7-3-1-6-1-8 1l-86.43 64.65v-58.65c0-3-2-5-4-7-3-1-6-1-8 1l-86.42 64.65H76.55a7.84 7.84 0 0 0-8 8v218.67H38.77a8 8 0 1 0 0 15.91h434.46a7.84 7.84 0 0 0 8-8c-1.04-3.93-5.02-7.91-9-7.91zM348 142.17h31.81l20.88 127.25h-72.61zm-77.55 83.51v43.74h-58.69zm-98.42 0v43.74h-58.69zm10.94 270.42h-49.75v-95.45h49.71zm64.62 0h-49.75v-95.45h49.71zm174 0H263.46V393.69a7.84 7.84 0 0 0-8-8H125.27a7.84 7.84 0 0 0-8 8v103.4H82.52V284.33h339v211.76zm-27.9-460.31v-3a32.81 32.81 0 1 0-65.62 0v3c-6 6-11.93 14.91-11.93 23.86 0 9.94 6 17.9 14.91 23.86 0 8 3 14.91 8 20.88 3 3 7 3 10.94 1 3-3 3-7 1-10.94-3-3-4-7-4-11.93v-2a9 9 0 0 0-4-8c-7-4-11.93-8.95-11.93-12.92 0-5 5-9.94 11.93-13.92 3-2 5-5 4-8.95a10.81 10.81 0 0 1-1-5 17.9 17.9 0 1 1 35.79 0 10.81 10.81 0 0 1-1 5c-1 4 1 7 4 8.95 8 4 11.93 8.95 11.93 13.92s-4 9.94-11.93 12.92a6.76 6.76 0 0 0-4 8v2c0 5-2 9.94-6 12.92a7.8 7.8 0 0 0 0 10.94c1 2 3 2 5 2a7.59 7.59 0 0 0 5-2 32.36 32.36 0 0 0 9.94-22.87c9.94-6 14.91-14.91 14.91-23.86-.03-9.94-6-17.89-15.94-23.86z" transform="translate(-30.82)"/><path class="cls-1" d="M184.92 322.11h-49.71a8 8 0 1 0 0 15.91h49.71a8 8 0 0 0 0-15.91zm83.51 0h-49.71a8 8 0 0 0 0 15.91h49.71a7.84 7.84 0 0 0 8-8c-1.04-3.93-4.03-7.91-8-7.91zm82.51-.99h-49.71a7.84 7.84 0 0 0-8 8c1 5 4 8 8 8h49.71a8 8 0 1 0 0-15.91zm16.9 64.62h-69.59a7.84 7.84 0 0 0-8 8v51.7a7.84 7.84 0 0 0 8 8h69.59a7.84 7.84 0 0 0 8-8v-51.7c-1.04-4.02-4.02-8-8-8zm-8 51.7h-54.63v-36.79h54.68z" transform="translate(-30.82)"/></svg>