<svg id="Layer_1" data-name="Layer 1" xmlns="http://www.w3.org/2000/svg" viewBox="0 0 512 435.03"><defs><style>.cls-1{fill:#bf404b}</style></defs><title>free-delivery</title><path class="cls-1" d="M476.16 286.94l-13.26-53a8 8 0 0 0 6.35-7.84v-8.55a33.71 33.71 0 0 0-33.67-33.67h-60.4v-17.67a16.59 16.59 0 0 0-16.57-16.57H246.32l68.24-27.3a8 8 0 0 0-6-14.89l-55.83 22.35c17-10.92 33.87-22.95 40.28-31.35a37.34 37.34 0 1 0-59.37-45.28c-9.12 12-21.16 45.57-28.95 69.26-7.79-23.68-19.83-57.3-28.95-69.26a37.34 37.34 0 1 0-59.37 45.28c6.41 8.41 23.26 20.43 40.28 31.35l-55.87-22.35a8 8 0 0 0-6 14.89l68.24 27.3H50.77a16.59 16.59 0 0 0-16.57 16.57v145.37a8 8 0 0 0 16 0V166.21a.53.53 0 0 1 .53-.53h307.88a.53.53 0 0 1 .53.53v145.37a8 8 0 1 0 16 0v-9.09h94.66a26.23 26.23 0 0 1 24.91 18.17h-24.93a8 8 0 0 0-8 8v17.1a25.15 25.15 0 0 0 25.12 25.12h9.1v35.27h-21a50.76 50.76 0 0 0-96 0h-3.86v-60.37a8 8 0 0 0-16 0v60.39H192.82a50.76 50.76 0 0 0-96 0H50.77a.53.53 0 0 1-.53-.53V388H85a8 8 0 0 0 0-16H8a8 8 0 1 0 0 16h26.21v17.64a16.59 16.59 0 0 0 16.57 16.57h43.3v.53a50.77 50.77 0 1 0 101.54 0v-.53h180.64v.53a50.77 50.77 0 0 0 101.54 0v-.53H504a8 8 0 0 0 8-8v-85.53a42.28 42.28 0 0 0-35.84-41.74zM172.9 121.06c-31.62-19.65-41-28.69-43.78-32.33A21.3 21.3 0 0 1 163 62.89c7.76 10.17 19.9 44.39 27.92 69.05-5.42-3.18-11.64-6.94-18.02-10.88zm45.57 10.88c8-24.66 20.16-58.88 27.92-69.05a21.3 21.3 0 0 1 33.88 25.83c-2.78 3.64-12.16 12.68-43.78 32.33-6.39 3.95-12.61 7.71-18.02 10.89zm156.71 67.93h60.39a17.66 17.66 0 0 1 17.64 17.64v.49h-78zm0 86.58v-52.37h71.23l13.09 52.38zm-230.35 171a34.74 34.74 0 1 1 34.74-34.74 34.78 34.78 0 0 1-34.73 34.77zm282.19 0a34.74 34.74 0 1 1 34.74-34.74A34.78 34.78 0 0 1 427 457.48zM496 354.86h-9.09a9.1 9.1 0 0 1-9.09-9.09v-9.09H496v18.17z" transform="translate(0 -38.49)"/><path class="cls-1" d="M144.84 406.17a16.57 16.57 0 1 0 16.57 16.57 16.59 16.59 0 0 0-16.57-16.57zm282.16 0a16.57 16.57 0 1 0 16.57 16.57A16.59 16.59 0 0 0 427 406.17zM333 372H213.24a8 8 0 0 0 0 16H333a8 8 0 0 0 0-16zm-205.27-34.24H25.12a8 8 0 1 0 0 16h102.61a8 8 0 0 0 0-16zm0-119.76h-34.2a8 8 0 0 0-8 8v68.41a8 8 0 0 0 16 0v-26.13h17.64a8 8 0 0 0 0-16h-17.63v-18.2h26.19a8 8 0 0 0 0-16zm63.09 54a29.38 29.38 0 0 0-16.06-54h-21.37a8 8 0 0 0-8 8v68.41a8 8 0 0 0 16 0v-17.58h13.35l14.72 22.08a8 8 0 1 0 13.35-8.91zm-16.06-11.2H161.4v-26.72h13.36a13.36 13.36 0 0 1 0 26.72zM256 286.46h-26.19v-18.2h17.63a8 8 0 0 0 0-16h-17.63v-18.2H256a8 8 0 0 0 0-16h-34.21a8 8 0 0 0-8 8v68.41a8 8 0 0 0 8 8H256a8 8 0 1 0 0-16zm59.86 0h-26.19v-18.17h9.09a8 8 0 1 0 0-16h-9.09v-18.21h26.19a8 8 0 1 0 0-16h-34.2a8 8 0 0 0-8 8v68.41a8 8 0 0 0 8 8h34.21a8 8 0 1 0 0-16z" transform="translate(0 -38.49)"/></svg>