<svg id="Capa_1" data-name="Capa 1" xmlns="http://www.w3.org/2000/svg" viewBox="0 0 512 512"><defs><style>.cls-1{fill:#fff}</style></defs><title>like</title><path class="cls-1" d="M469.33 0H42.67A42.72 42.72 0 0 0 0 42.67v307.2a42.72 42.72 0 0 0 42.67 42.67h104.92l102 116.55a8.54 8.54 0 0 0 12.85 0l102-116.56h104.89A42.72 42.72 0 0 0 512 349.87V42.67A42.72 42.72 0 0 0 469.33 0zm25.6 349.87a25.63 25.63 0 0 1-25.6 25.6h-90l2.55-2.91A8.54 8.54 0 0 0 369 361.31l-113 129.2-113-129.2a8.54 8.54 0 0 0-12.85 11.24l2.55 2.91h-90a25.63 25.63 0 0 1-25.6-25.6V42.67a25.63 25.63 0 0 1 25.6-25.6h426.63a25.63 25.63 0 0 1 25.6 25.6v307.2z"/><path class="cls-1" d="M153.6 179.2h-17.07a25.63 25.63 0 0 0-25.6 25.6v85.33a25.63 25.63 0 0 0 25.6 25.6h17.07a25.63 25.63 0 0 0 25.6-25.6V204.8a25.63 25.63 0 0 0-25.6-25.6zm8.53 110.93a8.54 8.54 0 0 1-8.53 8.53h-17.07a8.54 8.54 0 0 1-8.53-8.53V204.8a8.54 8.54 0 0 1 8.53-8.53h17.07a8.54 8.54 0 0 1 8.53 8.53v85.33zm204.54-128h-26.44a20.94 20.94 0 0 1-18.12-11.88 32.54 32.54 0 0 1 4.15-22c1.47-3.5 2.91-7 4-10.48 1.27-4 12-39.94-1-57.46a22.6 22.6 0 0 0-18.94-9.13H310a23.93 23.93 0 0 0-22 15.21c-12.08 30.25-44.52 86.81-80.18 109.79a25.19 25.19 0 0 0-11.55 21.28v97.29a17 17 0 0 0 6.61 13.46 74.25 74.25 0 0 0 45.06 16h81.24a34.15 34.15 0 0 0 29-15.72A294.64 294.64 0 0 0 400.62 202a34.34 34.34 0 0 0-34-39.91zm17.1 37.18a277.15 277.15 0 0 1-40 100 17.17 17.17 0 0 1-14.59 7.84h-81.25a58.31 58.31 0 0 1-34.6-12.42v-97.25a8.19 8.19 0 0 1 3.73-6.94c43.91-28.3 77.52-94.63 86.78-117.81a7 7 0 0 1 6.31-4.47h.15a5.63 5.63 0 0 1 5.23 2.23c5.6 7.54 2.38 29.63-1.55 42.19-.94 3-2.21 6-3.46 9a46.75 46.75 0 0 0-4.64 33.85 37.89 37.89 0 0 0 34.35 23.66h26.44a17.07 17.07 0 0 1 13.21 6.07 17.35 17.35 0 0 1 3.89 14.05z"/></svg>