<svg id="Layer_1" data-name="Layer 1" xmlns="http://www.w3.org/2000/svg" viewBox="0 0 512 467.73"><defs><style>.cls-1{fill:#bf404b}</style></defs><title>moscow</title><path class="cls-1" d="M503.55 473H8.45a8.45 8.45 0 0 0 0 16.9h495.1a8.45 8.45 0 0 0 0-16.9zM85.62 328.56a8.45 8.45 0 0 0-8.44 8.44v15.77a8.45 8.45 0 1 0 16.9 0V337a8.45 8.45 0 0 0-8.46-8.44zm69.29-100.27a8.45 8.45 0 0 0-8.45 8.45v15.77a8.45 8.45 0 1 0 16.9 0v-15.77a8.45 8.45 0 0 0-8.45-8.45zm0 50.71a8.45 8.45 0 0 0-8.45 8.45v15.77a8.45 8.45 0 1 0 16.9 0v-15.78a8.45 8.45 0 0 0-8.45-8.44zm69.28 49.56a8.45 8.45 0 0 0-8.45 8.45v15.77a8.45 8.45 0 0 0 16.9 0V337a8.45 8.45 0 0 0-8.45-8.44zm116.6-163.35a25.35 25.35 0 1 0 25.35 25.35 25.38 25.38 0 0 0-25.35-25.35zm0 33.8a8.45 8.45 0 1 1 8.45-8.45 8.46 8.46 0 0 1-8.45 8.44z" transform="translate(0 -22.13)"/><path class="cls-1" d="M503.55 304.9a8.45 8.45 0 0 0 8.45-8.45v-18a8.45 8.45 0 1 0-16.9 0V288h-6v-9.58a8.45 8.45 0 1 0-16.9 0V288h-6v-9.58a8.45 8.45 0 1 0-16.9 0V288h-6v-9.58a8.45 8.45 0 1 0-16.9 0V288h-6v-9.58a8.45 8.45 0 1 0-16.9 0V288h-6.39v-60.15a8.45 8.45 0 0 0-8.45-8.45h-3.36v-67.17a8.45 8.45 0 0 0-8.45-8.45h-.56v-34.34a8.45 8.45 0 0 0-8.45-8.45h-1l-18.25-46.24V33.83a8.45 8.45 0 0 0-16.9 0v20.92L313.46 101h-1a8.45 8.45 0 0 0-8.45 8.45v34.34h-.56a8.45 8.45 0 0 0-8.45 8.45v67.16h-3.2a8.45 8.45 0 0 0-8.45 8.45v166.7H271v-81.64a34.87 34.87 0 0 0 6.76-20.4c0-29.12-16.87-40.13-30.42-49-5.39-3.52-10.52-6.88-14.64-11.14v-14.78a8.45 8.45 0 0 0-16.9 0v14.79a59.49 59.49 0 0 1-9 7.38v-33.43a8.45 8.45 0 0 0-8.45-8.45h-.09l-5.65-41.14a8.45 8.45 0 0 0-8.37-7.3h-2.44l-13.27-58a25.33 25.33 0 0 0-5.11-45.3V30.58a8.45 8.45 0 0 0-16.9 0v15.54a25.29 25.29 0 0 0-16.65 27.38 65 65 0 1 0-17.54 119.66l-.65 4.72h-.08a8.45 8.45 0 0 0-8.45 8.45v33.44a59.55 59.55 0 0 1-9-7.38v-14.8a8.45 8.45 0 1 0-16.9 0v14.79c-4.12 4.25-9.25 7.61-14.64 11.14-13.56 8.85-30.42 19.87-30.42 49a34.88 34.88 0 0 0 6.76 20.4v128H8.45a8.45 8.45 0 0 0 0 16.9h495.1a8.45 8.45 0 1 0 0-16.9H408.2V403a8.45 8.45 0 0 0-8.45-8.45h-2.82V304.9h106.62zM340.14 79.39l8.52 21.6h-17zm-19.24 38.5h38.48v25.89h-10.79v-5.07a8.45 8.45 0 1 0-16.9 0v5.07H320.9v-25.89zm-9 42.79h56.51v58.72h-56.53zm-11.65 75.62H380v26.92h-7.1v-5.07a8.45 8.45 0 1 0-16.9 0v5.07h-7.89v-5.07a8.45 8.45 0 1 0-16.9 0v5.07h-7.89v-5.07a8.45 8.45 0 1 0-16.9 0v5.07h-6.2v-26.93zm0 43.82H380v81.11h-79.8zm0 98H380v16.42h-79.8zm-39.45-85.61a17.31 17.31 0 0 1-2 7.89h-10.9a77.78 77.78 0 0 0 .4-7.89c0-13.92-1.42-23.23-3.49-30.3 9.58 6.79 15.99 13.94 15.99 30.3zm-36.61-36c4 7.59 7.21 15.32 7.21 36a60.33 60.33 0 0 1-.51 7.89h-13.4a60.33 60.33 0 0 1-.51-7.89c.02-20.66 3.24-28.39 7.21-35.98zm-43.05-58.66h-52.46l1-7.32h50.45zm-4.33-31.54l1 7.32H132l1-7.32zm-21.9-104.75a8.45 8.45 0 1 1-8.45 8.44 8.46 8.46 0 0 1 8.45-8.44zm0 46.36l9.5 41.51h-19zM97.33 178a48.16 48.16 0 1 1 41-73.38l-10.26 44.83h-2.44a8.45 8.45 0 0 0-8.37 7.3l-2.47 18A47.76 47.76 0 0 1 97.33 178zm-11.71 69.65a121.91 121.91 0 0 0 13.85 10c3.74 2.44 7.19 4.7 10.21 7.12-16-2.65-26.31-7.35-32.2-10.92a88.53 88.53 0 0 0 8.14-6.2zM49 292.51c0-1 0-1.91.07-2.82a191.64 191.64 0 0 0 19 10.7H51a17.32 17.32 0 0 1-2-7.88zm66.47 148.36h-59.7V317.29h59.71zm5.05-141c-31.49-5-56.72-20.45-66.43-27.13a36.41 36.41 0 0 1 8.4-8.64 67.62 67.62 0 0 0 12.21 7.58c12.79 6.3 28.48 10.17 46.67 11.53a46.83 46.83 0 0 1 .86 9.34 17.12 17.12 0 0 1-1.7 7.28zm56.91 141h-45.05v-87.53h45.06zm0-128v23.54h-45.05v-23.5a34.87 34.87 0 0 0 6.76-20.4c0-21.28-9-32.89-19.15-41.05v-36.68h69.85v36.68c-10.14 8.16-19.15 19.77-19.15 41.05a34.88 34.88 0 0 0 6.75 20.4zm10.14-20.4c0-16.36 6.41-23.51 16-30.3-2.07 7.07-3.49 16.38-3.49 30.3a78.06 78.06 0 0 0 .4 7.89h-10.92a17.31 17.31 0 0 1-1.98-7.85zM207.76 403v37.87h-13.42V317.29H254v77.25h-37.79a8.45 8.45 0 0 0-8.45 8.46zM329 440.86H224.65v-29.41H329zm62.33 0h-45.47v-29.41h45.44z" transform="translate(0 -22.13)"/><path class="cls-1" d="M434.54 329.68H425a8.45 8.45 0 0 0 0 16.9h9.51a8.45 8.45 0 0 0 0-16.9zm39.19 22.54h-9.51a8.45 8.45 0 0 0 0 16.9h9.51a8.45 8.45 0 0 0 0-16.9zm-31.05 39.43h-9.51a8.45 8.45 0 1 0 0 16.9h9.51a8.45 8.45 0 0 0 0-16.9z" transform="translate(0 -22.13)"/></svg>