<svg id="Layer_1" data-name="Layer 1" xmlns="http://www.w3.org/2000/svg" viewBox="0 0 510.17 512"><defs><style>.cls-1{fill:#fff}</style></defs><title>rocket</title><path class="cls-1" d="M509.11 10.39A9.68 9.68 0 0 0 500.7 2a264.36 264.36 0 0 0-219.38 75.4l-64.49 64.49-93.09 12a9.68 9.68 0 0 0-5.61 2.75l-89.75 89.77a9.68 9.68 0 0 0 5.08 16.36l67.86 12.57 13.33 13.33L86.27 304A9.68 9.68 0 0 0 84 319.39l107.69 107.66a9.68 9.68 0 0 0 15.31-2.23l15.37-28.39 13.33 13.33 12.57 67.86a9.68 9.68 0 0 0 16.36 5.08l89.81-89.7a9.68 9.68 0 0 0 2.75-5.6l12-93.09 64.49-64.49a265.85 265.85 0 0 0 63.06-101 265.86 265.86 0 0 0 12.37-118.43zM102.8 255.93l-47.73-8.84 74.41-74.42 64.94-8.38zm93.4 148.27l-89.31-89.31 22-11.94 79.2 79.2zm142.21-22.6L264 456l-8.84-47.72 91.63-91.63zM420 216.08L244.72 391.36l-125-125L295 91.09a246.38 246.38 0 0 1 90.69-57.4 115.8 115.8 0 0 0 91.71 91.71 246.44 246.44 0 0 1-57.4 90.68zm63.23-109.28a96.53 96.53 0 0 1-78.94-78.94 246.91 246.91 0 0 1 86.43-7.49 246.88 246.88 0 0 1-7.49 86.43z" transform="translate(-.91)"/><path class="cls-1" d="M285.57 142.5a58.71 58.71 0 0 0 83 83 58.71 58.71 0 0 0-83-83zm69.34 69.34a39.33 39.33 0 1 1 0-55.65 39.4 39.4 0 0 1 0 55.65zM126.92 386a9.68 9.68 0 0 0-13.69 0l-83 83a9.68 9.68 0 0 0 13.69 13.68l83-83a9.68 9.68 0 0 0 0-13.68zm12.77 26.46l-37.41 37.41A9.68 9.68 0 0 0 116 463.55l37.41-37.41a9.68 9.68 0 1 0-13.69-13.68zM89.19 467a9.68 9.68 0 1 0 8.93 6 9.77 9.77 0 0 0-8.93-6zm8.93 5.94c.25.58-.23-.58 0 0zm-36.3 17.39l-5.15 5.15a9.68 9.68 0 0 0 13.68 13.69L75.5 504a9.68 9.68 0 0 0-13.68-13.69zm-6.98-85.17a9.68 9.68 0 0 0-13.69 0l-37.4 37.4a9.68 9.68 0 0 0 13.69 13.68l37.41-37.41a9.68 9.68 0 0 0-.01-13.67zm15.44-3.72a9.67 9.67 0 1 0-10.42-4c-.08-.12-.14-.2 0 0s.11.15 0 0a9.79 9.79 0 0 0 10.42 4zm25.03-23.06l5.15-5.15a9.68 9.68 0 1 0-13.69-13.68l-5.15 5.15a9.68 9.68 0 0 0 13.69 13.68z" transform="translate(-.91)"/></svg>