<svg id="Capa_1" data-name="Capa 1" xmlns="http://www.w3.org/2000/svg" viewBox="0 0 461.64 512"><defs><style>.cls-1{fill:#fff}</style></defs><title>tel</title><path class="cls-1" d="M444.85 167.87a42 42 0 0 0 42-42V42a42 42 0 0 0-42-42c-63.6 0-121.37 25.52-171.68 75.83a250.76 250.76 0 0 0-46.84 64.78 25 25 0 0 0-16.5-6.31h-8.39a33.57 33.57 0 0 0-32.62 25.94 42 42 0 0 0-31 24.42H33.57a8.39 8.39 0 0 0-8.39 8.34v159.52a8.39 8.39 0 0 0 8.39 8.39h67.15a8.39 8.39 0 0 0 8.39-8.39V319h28.74a42 42 0 0 0 38.41 25.18h37.35a8.32 8.32 0 0 0 2.46-.5 251.75 251.75 0 0 0 57.08 88.29C326.3 485.07 384.07 512 444.85 512a42 42 0 0 0 42-42v-83.9a42 42 0 0 0-42-42h-.05l-63.18.39a36.84 36.84 0 0 1-13.19-1.68A25.12 25.12 0 0 0 386.1 319v-8.39a25 25 0 0 0-6.55-16.79A25 25 0 0 0 386.1 277v-8.39a25 25 0 0 0-6.55-16.79A25 25 0 0 0 386.1 235v-8.39a25 25 0 0 0-6.55-16.79A25 25 0 0 0 386.1 193v-8.39a25 25 0 0 0-7-17.32l65.67.53zm8.39-149.65A25.23 25.23 0 0 1 470 42v83.9a25.23 25.23 0 0 1-16.79 23.75zM92.33 344.13H42V201.44h50.33zm42-42h-25.22V201.44h25.19zm319 60.19A25.23 25.23 0 0 1 470 386.1V470a25.23 25.23 0 0 1-16.79 23.75zM436.46 361v134a186.64 186.64 0 0 1-41.85-6.78l-.12-127zm-260.2-33.62a25.18 25.18 0 0 1-25.18-25.18V201.44a25.18 25.18 0 0 1 16.79-23.64v40.42a33.52 33.52 0 0 0 31.64 33.38 251.89 251.89 0 0 0 11 75.73zM201.44 235a16.79 16.79 0 0 1-16.79-16.79v-50.34a16.79 16.79 0 0 1 16.79-16.79h8.39a8.39 8.39 0 0 1 8.39 8.39v58.75A16.79 16.79 0 0 1 201.44 235zm167.87 84a8.39 8.39 0 0 1-8.39 8.39h-15.49a7.91 7.91 0 0 0-1.41 0h-29.27a12.59 12.59 0 0 1 0-25.18h46.16a8.39 8.39 0 0 1 8.39 8.39zm0-42a8.39 8.39 0 0 1-8.39 8.39h-46.17a12.59 12.59 0 0 1 0-25.18h46.16a8.39 8.39 0 0 1 8.39 8.39zm0-42a8.39 8.39 0 0 1-8.39 8.39h-46.17a12.59 12.59 0 0 1 0-25.18h46.16a8.39 8.39 0 0 1 8.39 8.39zm0-42a8.39 8.39 0 0 1-8.39 8.39h-46.17a12.59 12.59 0 0 1 0-25.18h46.16a8.39 8.39 0 0 1 8.39 8.39zm16.79-42.4l-10.76-.08a52.48 52.48 0 0 0-29.2 9h-31.39a29.34 29.34 0 0 0-20.5 50.36 29.23 29.23 0 0 0-.63 41.34l.63.63a29.23 29.23 0 0 0-.63 41.34l.63.63a29.34 29.34 0 0 0 20.5 50.36h25.71a52.75 52.75 0 0 0 37.24 17.15l.1 121.51a265.51 265.51 0 0 1-92.8-62.78 235.67 235.67 0 0 1-68.69-171.91A33.5 33.5 0 0 0 235 218.23v-56.55a233.59 233.59 0 0 1 50-74 238.29 238.29 0 0 1 101.1-62.5zm50.36.41l-33.57-.27V21a207.43 207.43 0 0 1 33.57-4z" transform="translate(-25.18)"/></svg>