<svg id="Capa_1" data-name="Capa 1" xmlns="http://www.w3.org/2000/svg" viewBox="0 0 512 511.96"><defs><style>.cls-1{fill:#bf404b}</style></defs><title>time</title><path class="cls-1" d="M256 0C114.84 0 0 114.85 0 256s114.84 256 256 256 256-114.86 256-256S397.16 0 256 0zm0 488.83C127.57 488.85 23.15 384.39 23.15 256S127.57 23.13 256 23.13 488.83 127.59 488.83 256 384.39 488.85 256 488.85z" transform="translate(0 -.02)"/><path class="cls-1" d="M177.05 87.54l-9.47-18.78L157.23 74l9.52 18.84c3.37-1.9 6.84-3.63 10.3-5.3zM69 259.86c0-3.92.36-7.74.57-11.6H43v23.21h26.54c-.23-3.86-.54-7.68-.54-11.61zM272.27 68.74V42.16h-23.21v26.58c3.86-.23 7.68-.57 11.61-.57s7.76.34 11.6.57zM457.4 172.19l-5.25-10.34-21 10.66c1.79 3.42 3.52 6.88 5.06 10.46zm-95.21-74.75c3.31 2.05 6.54 4.18 9.66 6.43l11.63-18.06-9.75-6.29zm-284 49.35l19.09 13.15c2-3.31 4.07-6.6 6.29-9.77l-18.76-13zm261.38 287.69l14.18 28.1 10.36-5.25L350 429.46c-3.38 1.81-6.9 3.42-10.43 5.02zm72.55-57.26l24.47 16.88 6.58-9.54L419 367.93c-2.12 3.17-4.54 6.23-6.88 9.29zm39.73-128.96c.25 3.88.59 7.7.59 11.6s-.38 7.76-.59 11.61h26.56v-23.21zM249.08 451v26.59h23.21V451c-3.84.27-7.68.61-11.58.61s-7.77-.38-11.63-.61zm-111.2-5.46l9.77 6.31 16.92-26.25c-3.36-2-6.71-3.9-9.9-6zM64 359.2l5.27 10.32 25.93-13.17c-2-3.35-3.84-6.73-5.57-10.19z" transform="translate(0 -.02)"/><path class="cls-1" d="M268.85 88.89h-16.33v177.34L155.95 372.2l2.57 2.34 94.1-103.26h124.45v-22.87H268.85V88.89z"/></svg>