<svg id="Capa_1" data-name="Capa 1" xmlns="http://www.w3.org/2000/svg" viewBox="0 0 444.16 512"><defs><style>.cls-1{fill:#fff}</style></defs><title>wallet</title><path class="cls-1" d="M461.44 88.18L305.14 3.54c-14.83-8-35.22-1.85-43.25 13l-91.44 169.9H59.25a25.05 25.05 0 0 0-25.33 25.33v274.9A25.05 25.05 0 0 0 59.25 512h355.24a25.05 25.05 0 0 0 25.33-25.33v-64.25h10.5a9.76 9.76 0 0 0 9.88-9.88V339a9.76 9.76 0 0 0-9.88-9.88h-10.5v-72.28a25.78 25.78 0 0 0-19.77-24.71l54.37-100.7a32.39 32.39 0 0 0-12.98-43.25zM350.24 50.5l-97.61 181h-27.8l104.4-192.13zm-70.43-24.72c3.09-5.56 10.5-8 16.06-4.94l15.45 8.65-108.73 202h-34zM53.07 211.13c0-1.85 2.47-4.94 5.56-4.94h100.7l-13.59 24.71H58.63a17.1 17.1 0 0 0-5.56.62v-20.39zm366.36 275.54a5.54 5.54 0 0 1-5.56 5.56H58.63a5.54 5.54 0 0 1-5.56-5.56V256.84a5.54 5.54 0 0 1 5.56-5.56h354.63a5.54 5.54 0 0 1 5.56 5.56v72.28h-37.69a29.66 29.66 0 0 0-29.65 29.65v34a29.66 29.66 0 0 0 29.65 29.65h38.3v64.25zM439.2 348.9h.62v53.75h-58.69a9.76 9.76 0 0 1-9.88-9.88v-34a9.76 9.76 0 0 1 9.88-9.88zm17.3-227.35l-59.31 110H274.87l92.67-171.17 84 45.72c6.2 2.47 8.05 9.9 4.96 15.44z" transform="translate(-33.92)"/><path class="cls-1" d="M418.82 112.28l-4.94-2.47c-12.36-6.8-29-1.85-35.83 10.5L371.86 132c-3.09 6.18-4.32 13.59-1.85 20.39a24.88 24.88 0 0 0 13 15.45l4.94 2.47a28.12 28.12 0 0 0 12.36 3.09 27.79 27.79 0 0 0 23.48-13.59l6.18-11.74c6.14-12.93 1.2-29-11.15-35.79zM412 138.84l-6.18 11.74a7 7 0 0 1-9.27 2.47l-4.92-3.05a9.08 9.08 0 0 1-3.09-3.71c-.62-1.85-.62-3.71.62-4.94l6.18-11.74c1.24-1.85 3.71-3.71 6.18-3.71a5.57 5.57 0 0 1 3.09.62l4.94 2.47a9.61 9.61 0 0 1 2.45 9.85z" transform="translate(-33.92)"/></svg>