<svg xmlns="http://www.w3.org/2000/svg" xmlns:xlink="http://www.w3.org/1999/xlink" height="1076" viewBox="0 0 195 1076" width="195"><svg height="96.43" viewBox="0 0 187 97" width="186.64" x="4" y="4"><title>logo</title><g data-name="Layer 2"><path d="M186.64 0H0l80.49 90.47a16.82 16.82 0 0 0 25.67 0z" fill="#81b3d3"/><path fill="#23a9e1" d="M43.24.72l49.53 58.35 49.32-58L43.24.72z"/><path d="M122 17.33l-15.19.08c6-6.93 8.7-6.19 15.19-.08zm-41.15 5.36h26.68c-2-1.23-6.71-7.06-9.31-4.89-.21.18-7.5-8.85-12.3-4.5-4.18 3.8-6.12-.5-10.86 2.51-5.4 3.57 3.12 5.67 5.78 6.88z" fill="#fff"/><path d="M93.1 0H42.18v22.48L92.76 84l.34-.42 50.75-60.39V0H93.1zM54.9 1.79h5.46V19l-5.46-6.5V1.79zm-.78 9.77l-5-5.9V1.79h5v9.77zm19.3-2.71l-5.74-7.06h5.74v7.06zm-6.64 3.83l-5.6-10.89h5.6v10.89zm-5.63-9.24l5.52 10.74A58.16 58.16 0 0 0 61.15 19V3.44zm6.42-.55l5.61 6.9c-1.12.65-2.16 1.3-3.1 1.93s-1.72 1.2-2.51 1.78V2.89zm6.64-.2L79 6.91a48.56 48.56 0 0 0-4.8 2.3V2.69zm5.57 3.89l-5.41-4.79h6v4.59zM98.9 1.79h5l-5 2.44V1.79zm-5.79 0h4.44l-4.44 2.06V1.79zm-.94 2l-4.24-2h4.24v2zm-5.49.53l-5.1-2.53h5.09v2.49zm-5.57-1.88l4.72 2.31a38.68 38.68 0 0 0-4.72 1.35V2.44zm6.35 0L90.92 4a32 32 0 0 0-3.46.39v-2zm10.42.06v1.94a33.15 33.15 0 0 0-3.36-.39zm6.47-.06v3.7a40 40 0 0 0-4.78-1.37zm.78-.64h5.94l-5.43 4.82-.51-.19V1.79zm13.55 0h5.6l-5.6 10.88V1.79zm-6.64 0h5.74l-5.74 7v-7zm-.78.89v6.52a50.83 50.83 0 0 0-4.81-2.27zm6.64.2v10.5c-.71-.51-1.46-1-2.26-1.56-1-.68-2.16-1.37-3.38-2.06zm6.42.55v15.24a63.2 63.2 0 0 0-5.48-4.6zm.78 16V1.79h5.46V13.2l-5.39 6.31zm6.25-17.65h5v4.67l-5 5.82V1.79zm-83 0v2.94l-2.46-2.94h2.47zM61.25 20l.14.13a56.8 56.8 0 0 1 9.21-7.65C75.79 9 83.84 4.9 92.76 5s17.06 4.19 22.35 7.67a60.16 60.16 0 0 1 9.45 7.62l-3.87 4.54c-6.91.95-11.86 6.08-18.6 5-3.4-.56-3.5-2.51-4.47-4.46-.75-1.49-1.94-1.3-3.49-1.91s-2.29-1.83-5.13-1.15c-2.53.59-2.81 4.52-6 4.29-1.69-.12-1.81-2.5-4.24-5.54-6.3-7.57-12.16-6.52-16.25.48l30.25 35.94zm75.86-14.46V1.79h3.2z" fill="#491213"/><path fill="#23a9e1" d="M88.75 70.92l4.02-6.5 4 6.5-4 6.51-4.02-6.51z"/><path d="M65.46 32.27a2.81 2.81 0 0 1 .81 2.12c-.06.58-.94 1.55-.27 1.85l2.24-2.83c-.6-.15-5.37-5.85-5.44-6.47l-3.16 1.73c.16.66 1.29 0 1.85 0a2.92 2.92 0 0 1 2 1.15c-1.73 1.45-5.93 5-6.37 5.09-.23 0-1.09-.6-1.1-.06a4.88 4.88 0 0 0 1 1.21l2.23 2.65c.62-.28-.11-.73.21-1.24s4.9-4.27 6-5.24zm-5.27-6.98c.44-.1.62.43 1-.06l-2.49-2.92c-.37-.44-.84-.92-.71 0 .09.69-6.11 5.69-6.49 5.84s-.76-.42-1.11.1l2.19 2.61c.25.29.48.61.75.88s.21-.67.22-.58a1.66 1.66 0 0 1 .86-1.23 60.6 60.6 0 0 1 5.78-4.64zm-8.77-.92a3.22 3.22 0 0 1-4.21-2c-.54-1.83.61-3.76 2.07-4.8s3.59-1 4.37.84a3.61 3.61 0 0 1-.09 2.5c-.16.51-.6 1 .06 1.29l2.58-3.29c-1.05-.63-1.52-1.68-2.3-2.6A5.87 5.87 0 0 0 50.42 14c-2.87-.41-5.57 2.56-5.79 5.24a5.76 5.76 0 0 0 1.25 4c.75 1 1.87 1.62 2.43 2.75a22.52 22.52 0 0 0 3.29-1.26 1.55 1.55 0 0 0-.17-.37zm39.3 36.41c-1.15-.77-4-4.69-4.57-5.34l-.33-.44a2.21 2.21 0 0 0-.25.19c-.17.14.13.57-.05.86-.79 1.24-5.76 5-6 5.16-.56.38-1.16-.16-1.49.32a45.43 45.43 0 0 0 3 3.58c.48.08.15-.82.21-1A31.55 31.55 0 0 1 84.79 61c.34-.28.69.43.89.72a1.76 1.76 0 0 1 .3 1.57c-.12.37-.72.92-.25 1.17l2.61-3c.25-.29-.57 0-.47-.09a.91.91 0 0 1-1.06 0 5 5 0 0 1-1-1.17 4.61 4.61 0 0 1 1.53-1.2c.86-.21 1.58 1.52 1.71 2.13a3.45 3.45 0 0 1-.05 1.73c-.12.39-.49.7 0 .93l2.13-2.92a.71.71 0 0 1-.4-.1c-.14-.08.13.08-.01.01zM80.5 56.65a5.48 5.48 0 1 0-7.79-1.07 5.42 5.42 0 0 0 7.79 1.07c1.15-.98-.1.07 0 0zm-.5-4.76a7.45 7.45 0 0 1-3.73 3.67c-1.82.71-3.1-.83-2.36-2.55a7.45 7.45 0 0 1 3.74-3.67c1.85-.74 3.07.85 2.36 2.55-.36.89.09-.17-.01 0zM74.05 42c.47.06.93.55 1.27 0l-2.23-2.64c-.59.27 0 .55-.19 1s-2.56.78-3.18.89a15.82 15.82 0 0 1 1.16-2.84c.54-.44.88.43 1.28-.14l-2.74-3.25c-.31-.37-.56-1-1-.68a8.41 8.41 0 0 1-.09 1.73c-.09.24-.94 3.64-1.93 4.47a21.51 21.51 0 0 1-2.7 2.1c-.54.19-.83-.6-1.22 0l2.49 3a4.3 4.3 0 0 0 .77.89c.52.09.06-.89.11-1.09.15-.43 2.5-2.72 3.5-2.86a19.37 19.37 0 0 1 4.7-.58z" fill="#fff"/><path d="M67.79 22.87c-4-.17-2.35-4 .39-4.81s8.09 1.72 9.84 3.4c-2.78.85-6.39.73-9.45.87-.23-3.12-1-2-.79.54zm9.5 12.55c-8.62-.07-2.79-13.32.14-12.52 3.37 1.07 3 12.62-.14 12.52zm6.11-4.33c-.84 2.5-2.36 3-2.19-.07.19-3.5 2.48-2.66 4.93-4 2-1.12 3.14-5.21 6.64-2.77 1.56 1.09 3.35.18 3.85 1.83 0-.08-4.54 10.31-2 10.31-5 0-2.77-5.92-.87-9.9-1.85.88-4.84 6.69-2.38 7.64-1.28 1.69-5.19 3.94-7.23 2.3-1.55-1.25-.69-3.33-.71-5.34zm4.1 9.61c-3.49 1-8.12-1.21-2.51-2.34 3.48-.7 7.19.78 2.51 2.34zm4.37-.14c-.74-1.66.56-3.64 2.68-2.2 1.85 1.25-.85 3.11-2.68 2.2zm-2.94 4.66c-2.41-.75-10.54-.56-5.22-2.76 1.64-.68 10.15.1 5.22 2.76zm10.43 3.32c-1.44-1.23-2.89-1.29-4.23 0-1.79-3.29-8.32-2.19-11.37-2.65 1.64 4 14.87 4.78 15.6 2.65zM97.46 51c-3.15-.15-6.67-.56-9.65.08 1.86.47 6.4 1.79 2.17 2.92 1.51 2.17 4 2 5.58.13A15.33 15.33 0 0 1 94 53c1.67-.3 3.23-1.27 3.44-2.07zm3.6-3.92c-5.29-3.11-4-5.43.35-7.59 2.25-1.13 7.32-5.21 9.45-3.85l-9.8 11.44z" fill="#dc6243"/><path d="M97.29 39.81c-4.48-4.6 6.69-4.18 8.49-5.8 1.31.44 10.77-8.28 13.07-7.74-1.66 1.94-5.22 8.14-7.78 8.14-2 0-4-.29-5.47 1.11-2.22 2-5.91 3.09-8.31 4.29z" fill="#f49774"/><path d="M98.76 34.18c-2.45 1.32-4.77-3.91-.54-3.4 2.81.34 5.66-.24 8.35.23a8.66 8.66 0 0 1-7.81 3.17z" fill="#f4b1a4"/><path d="M111.39 52.47a5 5 0 0 1 .21 2c-.11.87-1 2.92-2.17 2.34a18.23 18.23 0 0 1-3.19-2.55c.8-.94 1.51-1.75 2.85-1.29.37.12.69 0 .3-.26s-3.11-2-3.26-1.8.53.87.22 1.47a7 7 0 0 1-.93 1.22c-.72-.61-1.92-1.25-1.06-2.26a3.69 3.69 0 0 1 2.1-1.34c.57-.11 1.84.39 2-.22l-3.26-1.56c.18.8-3.35 4.52-4.13 5.46a3.14 3.14 0 0 0-.66.8c0 .43.62.1.66.08.49-.18 6.82 5.11 7 5.47a2 2 0 0 0 0 .73.83.83 0 0 0 .25.18c.39-.47 4.52-6 5.37-6.22-.79-1.21-1.59-2.43-2.37-3.65-.63.26-.06.93.07 1.4zm-6.16 6.7c-2.08-1.34-5.6 1.28-6.12 1.53a1 1 0 0 1-1.25-1.5 2.77 2.77 0 0 1 2.31-1.29 4.66 4.66 0 0 0 1.46 0c.13-.2.23-.22 0-.34l-2.53-1.71c-.18 1.05-1.38 1.73-2.08 2.44a4.7 4.7 0 0 0-1.52 3.16 3 3 0 0 0 1.68 2.66 3.31 3.31 0 0 0 3.32-.51 19.18 19.18 0 0 1 1.92-1.17c1-.47 2.3-.06 2 1.27A3.6 3.6 0 0 1 102 66a3.29 3.29 0 0 1-1.9 0c-.43-.14-1-.73-1.23-.11l3.48 2.54a2.33 2.33 0 0 1 1.09-1.56 11.68 11.68 0 0 0 2-2.13c1.15-1.74 1.56-4.12-.21-5.57zm0 0c.92.6-.59-.49 0 0zm29.23-37.32zm7.46-2.21c-.73.73-8.42-2.34-9-2.76-.29-.12-.3-1.32-.71-.83L131 17.51 129.76 19c-.26.31-.54.46 0 .72.84-.42 5.42 7.35 5 8.46-.72.38-6.92-5.06-7.08-5.42-.05-.15.27-1-.21-.94a4.24 4.24 0 0 0-.89 1.07l-.92 1.11c.33.48.52 0 1 0a13.19 13.19 0 0 1 2.24 1.66c-.72 0-2.68.13-2.93.11-.9.11-.42-.66-1-.93l-2.28 2.76-1.33 1.61c-.05.07 0 0 0 .11.33.27.1.17.57 0s6.56 4.93 6.78 5.19c.38.45-.15 1 .41 1.22l1.8-2.18c.09-.11.14-.1 0-.2-.43-.35-.48.21-1 .15s-4.39-3.37-5.89-4.61l8.2-.3a1.85 1.85 0 0 1 1.07 1.22c-.08.38-.46.56.05.79.48-.58 1-1.15 1.46-1.73l.23-.28a.74.74 0 0 0 .21-.26l.17-.21c.42-.48 1.8-2 1.63-2.15-.46-.4-.68.47-1.3-.05a12.9 12.9 0 0 1-1.44-2.16c-.26-.45.61-.9 1-1.12.78-.48 3.25-1.18 3.48.35a1.26 1.26 0 0 0-.08.7s.2.24.27.16l3.3-4a1.47 1.47 0 0 0-.36-.21zm-7.37 2.16l-.08.05.08-.05a5.71 5.71 0 0 0-1 .76L132 19.87l3.52 1.48a3.73 3.73 0 0 0-.97.45zM124.8 33a5.48 5.48 0 1 0 .59 7.6 5.38 5.38 0 0 0-.59-7.6zm-.28 6.61c-1.23 1.29-3.36.1-4.5-.73s-3.11-2.57-1.86-4.1c1.06-1.29 3.12-.23 4.19.48s3.41 2.6 2.28 4.22c.04-.05.1-.11-.11.15z" fill="#fff"/><path d="M124.8 33c1.17 1-.25-.21 0 0zm-.31 6.65l.08-.11zm-6.28 2.49c.11.09.27.22-.06-.06-2.83-2.13-6.19-1.5-8.4 1.16l-3 3.57c.35.51.76-.12 1.27.18s6.24 5.1 6.34 5.37c.16.46-.25.55.14.88a41.39 41.39 0 0 0 4.97-6.24 4.34 4.34 0 0 0-1.26-4.86zm-1.32 6.75a4.79 4.79 0 0 1-.66.65c-.31.29-6.44-4.68-6.19-4.94a4.35 4.35 0 0 1 3.58-1.3c2.18.56 5.2 3.26 3.27 5.59z" fill="#fff"/></g></svg><svg height="83.99" viewBox="0 0 102 84" width="101.67" x="4" y="105"><title>logo-tablet</title><g data-name="Layer 2"><path fill="#23a9e1" d="M1.06.7l49.52 58.35L99.91 1.06 1.06.7z"/><path d="M79.84 17.32l-15.19.08c6-6.93 8.7-6.19 15.19-.08zm-41.18 5.35h26.68c-2-1.23-6.71-7.06-9.31-4.89-.21.18-7.5-8.85-12.3-4.5-4.18 3.8-6.12-.5-10.86 2.51-5.4 3.57 3.12 5.67 5.78 6.88z" fill="#fff"/><path d="M50.92 0H0v22.46L50.58 84l.34-.42 50.75-60.39V0H50.92zm0 57.05l-.34.41L3.71 1.78h94.42z" fill="#491213"/><path d="M50.58 57.46l.34-.41L78.5 24.76c-6.91.95-11.86 6.08-18.6 5-3.4-.56-3.5-2.51-4.47-4.46-.75-1.49-1.94-1.3-3.49-1.91s-2.28-1.74-5.16-1.06c-2.53.59-2.81 4.52-6 4.29-1.69-.12-1.81-2.5-4.24-5.54-6.3-7.57-12.16-6.52-16.25.48z" fill="#491213"/><path fill="#23a9e1" d="M46.56 70.9l4.02-6.5 4.01 6.5-4.01 6.51-4.02-6.51z"/><path d="M23.28 32.25a2.81 2.81 0 0 1 .81 2.12c-.06.58-.94 1.55-.27 1.85l2.24-2.83c-.6-.15-5.37-5.85-5.44-6.47l-3.16 1.73c.16.66 1.29 0 1.85 0a2.92 2.92 0 0 1 2 1.15c-1.73 1.45-5.93 5-6.37 5.09-.23 0-1.09-.6-1.1-.06a4.9 4.9 0 0 0 1 1.21L17 38.73c.62-.28-.11-.73.21-1.24s4.9-4.27 6-5.24zM18 25.27c.44-.1.62.43 1-.06l-2.48-2.91c-.37-.44-.84-.92-.71 0 .09.64-6.11 5.7-6.49 5.83s-.76-.42-1.11.1l2.19 2.61c.25.29.48.61.75.88s.21-.67.22-.58a1.66 1.66 0 0 1 .86-1.23A60.5 60.5 0 0 1 18 25.27zm-8.76-.92a3.22 3.22 0 0 1-4.21-2c-.54-1.83.61-3.76 2.07-4.8s3.59-1 4.37.84a3.61 3.61 0 0 1-.09 2.5c-.16.51-.6 1 .06 1.29L14 18.85c-1.06-.63-1.52-1.68-2.3-2.6A5.86 5.86 0 0 0 8.23 14c-2.87-.41-5.57 2.56-5.79 5.24a5.75 5.75 0 0 0 1.25 4c.75 1 1.87 1.62 2.43 2.75a22.52 22.52 0 0 0 3.29-1.26 1.55 1.55 0 0 0-.17-.37zm39.3 36.41c-1.15-.77-4-4.69-4.57-5.34l-.34-.42a2.3 2.3 0 0 0-.25.19c-.17.15.13.57-.05.86-.79 1.24-5.76 5-6 5.16-.56.38-1.16-.16-1.49.32a45 45 0 0 0 3 3.58c.48.08.15-.81.21-1a31.55 31.55 0 0 1 3.55-3.21c.34-.28.69.43.89.72a1.76 1.76 0 0 1 .3 1.57c-.12.37-.72.92-.25 1.17l2.61-3c.25-.29-.57 0-.47-.09a.91.91 0 0 1-1.06 0 5 5 0 0 1-1-1.17 4.63 4.63 0 0 1 1.53-1.1c.86-.21 1.58 1.52 1.71 2.13a3.45 3.45 0 0 1-.08 1.75c-.12.39-.49.7 0 .93l2.13-2.92a.7.7 0 0 1-.4-.1c-.1-.11.16.04.03-.03zm-10.23-4.13a5.48 5.48 0 1 0-7.79-1.07 5.42 5.42 0 0 0 7.79 1.07c1.16-.97-.1.07 0 0zm-.46-4.75a7.45 7.45 0 0 1-3.73 3.67c-1.82.71-3.1-.83-2.36-2.55a7.45 7.45 0 0 1 3.74-3.67c1.85-.74 3.07.85 2.36 2.55-.39.89.06-.17-.01 0zM31.87 42c.47.06.93.55 1.27 0l-2.23-2.64c-.59.27 0 .55-.19 1s-2.56.78-3.18.89a15.9 15.9 0 0 1 1.16-2.84c.54-.44.88.43 1.28-.14l-2.74-3.25c-.31-.37-.56-1-1-.68a8.41 8.41 0 0 1-.09 1.73c-.09.24-.94 3.64-1.93 4.47a21.51 21.51 0 0 1-2.7 2.1c-.54.19-.83-.6-1.22 0l2.49 3a4.3 4.3 0 0 0 .77.89c.52.09.06-.89.11-1.09.15-.43 2.5-2.72 3.5-2.86a19.37 19.37 0 0 1 4.7-.58z" fill="#fff"/><path d="M25.61 22.86c-4-.17-2.35-4 .39-4.81s8.09 1.72 9.84 3.4c-2.78.85-6.39.73-9.45.87-.23-3.12-1-2-.79.54zm1.01 4.85c-2-1.58-1.4-5.27 1.76-4.15 4 2.08-.86 3.24-1.76 4.15zm8.49 7.7c-8.62-.07-2.79-13.32.14-12.52 3.37 1.07 3 12.62-.14 12.52zm6.11-4.33c-.84 2.5-2.36 3-2.19-.07.19-3.5 2.48-2.66 4.93-4 2-1.12 3.14-5.21 6.64-2.77 1.56 1.09 3.35.18 3.85 1.83 0-.08-4.54 10.31-2 10.31-5 0-2.77-5.92-.87-9.9-1.85.88-4.84 6.69-2.38 7.64-1.28 1.69-5.19 3.94-7.23 2.3-1.55-1.25-.69-3.33-.71-5.34zm4.1 9.6c-3.49 1-8.12-1.21-2.51-2.34 3.48-.7 7.19.78 2.51 2.34zm4.37-.14c-.74-1.66.56-3.64 2.68-2.2 1.85 1.25-.85 3.11-2.68 2.2zm-2.94 4.67c-2.41-.75-10.54-.56-5.22-2.76 1.64-.68 10.15.1 5.22 2.76zm3.25-.36c0-1-.51-2.68 1.35-1.95 2.2.89-1.35 2.66-1.35 1.95zm7.18 3.67c-1.44-1.23-2.89-1.29-4.23 0-1.79-3.29-8.32-2.19-11.37-2.65 1.64 4 14.86 4.78 15.59 2.65zm-1.9 2.43c-3.15-.15-6.67-.56-9.65.08 1.86.47 6.4 1.79 2.17 2.92 1.52 2.17 4 2 5.58.13A15.44 15.44 0 0 1 51.83 53c1.67-.3 3.23-1.27 3.44-2.07zm3.59-3.88c-5.29-3.11-4-5.43.35-7.59 2.25-1.13 7.32-5.21 9.45-3.85l-9.8 11.44z" fill="#dc6243"/><path d="M55.11 39.79c-4.48-4.6 6.69-4.18 8.49-5.8 1.31.44 10.77-8.28 13.07-7.74-1.66 1.94-5.22 8.14-7.77 8.14-2 0-4-.29-5.47 1.11-2.22 2-5.91 3.09-8.31 4.29z" fill="#f49774"/><path d="M56.57 34.17c-2.45 1.32-4.77-3.91-.54-3.4 2.81.34 5.66-.24 8.35.23a8.66 8.66 0 0 1-7.81 3.17z" fill="#f4b1a4"/><path d="M69.21 52.45a5 5 0 0 1 .21 2c-.11.87-1 2.92-2.17 2.34a18.23 18.23 0 0 1-3.19-2.55c.8-.94 1.51-1.75 2.85-1.29.37.12.69 0 .3-.26s-3.11-2-3.26-1.8.53.87.22 1.47a7 7 0 0 1-.93 1.22c-.72-.61-1.92-1.25-1.06-2.26a3.69 3.69 0 0 1 2.1-1.32c.57-.11 1.84.39 2-.22L63 48.2c.18.8-3.35 4.52-4.13 5.46a3.14 3.14 0 0 0-.66.8c0 .43.62.1.66.08.49-.18 6.82 5.11 7 5.47a2 2 0 0 0 0 .73.85.85 0 0 0 .25.18c.39-.47 4.52-6 5.37-6.22-.79-1.21-1.59-2.43-2.37-3.65-.62.27-.04.95.09 1.4zM63 59.15c-2.08-1.34-5.6 1.28-6.12 1.53a1 1 0 0 1-1.25-1.5A2.77 2.77 0 0 1 58 57.89a4.69 4.69 0 0 0 1.46 0c.13-.2.23-.22 0-.35l-2.57-1.73c-.18 1.06-1.38 1.73-2.08 2.44a4.7 4.7 0 0 0-1.52 3.16A3 3 0 0 0 55 64.1a3.31 3.31 0 0 0 3.32-.51 19.18 19.18 0 0 1 1.92-1.17c1-.47 2.3-.06 2 1.27A3.6 3.6 0 0 1 59.79 66a3.29 3.29 0 0 1-1.87-.09c-.43-.14-1-.73-1.23-.11l3.48 2.54a2.33 2.33 0 0 1 1.09-1.56 11.68 11.68 0 0 0 2-2.13c1.15-1.65 1.53-4.05-.26-5.5zm0 0c.92.6-.59-.49 0 0zm29.28-37.31zm7.46-2.21c-.73.73-8.42-2.34-9-2.76-.29-.12-.3-1.32-.71-.83l-1.22 1.46-1.23 1.5c-.26.31-.54.46 0 .72.84-.42 5.42 7.35 5 8.46-.72.38-6.92-5.06-7.08-5.42-.05-.15.27-1-.21-.94a4.24 4.24 0 0 0-.89 1.07L83.48 24c.33.48.52 0 1 0a13.15 13.15 0 0 1 2.24 1.66c-.72 0-2.68.13-2.93.11-.9.11-.42-.66-1-.93l-2.28 2.76-1.33 1.61c-.05.07 0 0 0 .11.33.27.1.17.57 0s6.56 4.93 6.78 5.19c.38.45-.15 1 .41 1.22l1.8-2.18c.09-.11.14-.1 0-.2-.43-.35-.48.21-1 .15s-4.39-3.37-5.89-4.61l8.2-.3a1.85 1.85 0 0 1 1.07 1.22c-.08.38-.46.56.05.79.48-.58 1-1.15 1.46-1.73l.23-.28a.74.74 0 0 0 .21-.26l.17-.21c.42-.48 1.8-2 1.63-2.15-.46-.4-.68.47-1.3-.05a12.9 12.9 0 0 1-1.44-2.16c-.26-.45.61-.9 1-1.12.78-.48 3.25-1.18 3.48.35a1.26 1.26 0 0 0-.08.7s.2.24.27.16l3.3-4a1.47 1.47 0 0 0-.36-.22zm-7.37 2.16l-.08.05.08-.05a5.71 5.71 0 0 0-1 .76l-1.56-2.69 3.52 1.48a3.73 3.73 0 0 0-.97.44zM82.62 33a5.48 5.48 0 1 0 .59 7.6 5.38 5.38 0 0 0-.59-7.6zm-.28 6.61c-1.23 1.29-3.36.1-4.51-.73s-3.11-2.57-1.86-4.1c1.06-1.29 3.12-.23 4.19.48s3.41 2.6 2.28 4.22c.05-.07.1-.13-.1.13z" fill="#fff"/><path d="M82.62 33c1.17 1-.25-.21 0 0zm-.31 6.64l.08-.11zM76 42.12c.11.09.27.22-.06-.06-2.83-2.13-6.19-1.5-8.4 1.16l-3 3.57c.35.51.76-.12 1.27.18s6.24 5.1 6.34 5.37c.16.46-.25.55.14.88a41.39 41.39 0 0 0 5-6.22A4.34 4.34 0 0 0 76 42.12zm-1.32 6.75a4.79 4.79 0 0 1-.66.65c-.31.29-6.44-4.68-6.19-4.94a4.35 4.35 0 0 1 3.58-1.3c2.21.56 5.23 3.26 3.3 5.59z" fill="#fff"/></g></svg><svg height="83.98" viewBox="0 0 102 84" width="101.67" x="4" y="193"><title>logo-mobile</title><g data-name="Layer 2"><g data-name="Layer 2"><path fill="#23a9e1" d="M0 0l50.58 59.05L101.67 0H0z"/><path d="M50.92 0H0v22.46L50.58 84l.34-.42 50.75-60.39V0H50.92zm0 57.05l-.34.41L3.71 1.78h94.42z" fill="#491213"/><path d="M50.58 57.46l.34-.41L78.5 24.76c-6.91.95-11.86 6.08-18.6 5-3.4-.56-3.5-2.51-4.47-4.45-.75-1.49-1.94-1.3-3.49-1.91s-2.28-1.74-5.16-1.06c-2.53.59-2.81 4.52-6 4.29-1.69-.12-1.81-2.5-4.24-5.54-6.3-7.57-12.16-6.52-16.25.47z" fill="#491213"/><path d="M23.28 32.25a2.81 2.81 0 0 1 .81 2.12c-.06.58-.94 1.55-.27 1.85l2.24-2.83c-.6-.15-5.37-5.85-5.44-6.47l-3.16 1.73c.16.66 1.3 0 1.85 0a2.92 2.92 0 0 1 2 1.15c-1.73 1.45-5.93 5-6.37 5.09-.23 0-1.09-.6-1.1-.05a4.85 4.85 0 0 0 1 1.21L17 38.73c.62-.28-.11-.73.2-1.24s4.9-4.27 6-5.24zM18 25.27c.44-.09.62.43 1-.06l-2.45-2.92c-.37-.44-.84-.92-.71 0 .06.65-6.14 5.71-6.52 5.84s-.76-.42-1.11.1l2.19 2.61c.25.29.48.61.75.88s.21-.67.22-.59a1.65 1.65 0 0 1 .85-1.23A60.44 60.44 0 0 1 18 25.27zm-8.76-.92a3.22 3.22 0 0 1-4.21-2c-.54-1.83.61-3.76 2.07-4.8s3.59-1 4.37.84a3.61 3.61 0 0 1-.09 2.5c-.16.51-.6 1 .06 1.29L14 18.85c-1.06-.63-1.52-1.68-2.3-2.6A5.87 5.87 0 0 0 8.23 14c-2.87-.41-5.57 2.56-5.79 5.24a5.76 5.76 0 0 0 1.25 4c.75 1 1.87 1.62 2.44 2.75a22.46 22.46 0 0 0 3.29-1.26 1.56 1.56 0 0 0-.17-.37zm39.3 36.41c-1.15-.77-4-4.69-4.57-5.34l-.34-.42a2.22 2.22 0 0 0-.25.19c-.17.15.13.57-.05.87-.79 1.24-5.76 5-6 5.16-.55.38-1.16-.16-1.49.31a44.43 44.43 0 0 0 3 3.58c.48.08.15-.81.21-1a31.56 31.56 0 0 1 3.55-3.21c.34-.28.69.43.89.72a1.76 1.76 0 0 1 .3 1.57c-.12.37-.72.92-.25 1.17l2.61-3c.25-.29-.57 0-.47-.09a.92.92 0 0 1-1.06 0 5 5 0 0 1-1-1.17 4.64 4.64 0 0 1 1.53-1.1c.86-.21 1.58 1.52 1.71 2.13a3.45 3.45 0 0 1-.08 1.75c-.12.39-.49.7 0 .93l2.13-2.92a.68.68 0 0 1-.4-.09c-.1-.12.16.03.03-.04zm-10.23-4.13a5.48 5.48 0 1 0-7.79-1.07 5.42 5.42 0 0 0 7.79 1.07c1.16-.98-.1.07 0 0zm-.46-4.75a7.44 7.44 0 0 1-3.73 3.67c-1.82.71-3.1-.83-2.36-2.55a7.46 7.46 0 0 1 3.74-3.67c1.85-.73 3.07.85 2.36 2.55-.39.89.06-.17-.01 0zM31.87 42c.48.06.93.55 1.27 0l-2.23-2.64c-.6.27 0 .55-.19 1s-2.56.78-3.18.89a16 16 0 0 1 1.16-2.83c.54-.44.88.43 1.28-.14l-2.74-3.25c-.31-.37-.56-1-1-.68a8.39 8.39 0 0 1-.09 1.73c-.09.24-.94 3.64-1.93 4.47a21.44 21.44 0 0 1-2.7 2.1c-.54.19-.82-.6-1.22 0l2.49 3a4.29 4.29 0 0 0 .77.89c.52.1.06-.89.11-1.09.15-.43 2.5-2.72 3.5-2.86a19.26 19.26 0 0 1 4.7-.59zm37.34 10.45a5 5 0 0 1 .21 2c-.11.87-1 2.92-2.17 2.34a18.4 18.4 0 0 1-3.19-2.55c.8-.94 1.51-1.75 2.85-1.29.37.12.69 0 .3-.26s-3.11-2-3.26-1.8.53.87.22 1.47a7 7 0 0 1-.93 1.22c-.72-.61-1.92-1.25-1.06-2.26a3.68 3.68 0 0 1 2.1-1.32c.56-.11 1.84.39 2-.22L63 48.2c.18.8-3.35 4.52-4.13 5.46a3.17 3.17 0 0 0-.66.8c0 .43.62.1.66.08.49-.18 6.82 5.11 7 5.47a2 2 0 0 0 0 .73.86.86 0 0 0 .25.19c.39-.47 4.52-6 5.37-6.22-.79-1.21-1.59-2.43-2.37-3.65-.62.26-.05.94.09 1.39zM63 59.15c-2.08-1.34-5.6 1.28-6.12 1.53a1 1 0 0 1-1.25-1.5A2.77 2.77 0 0 1 58 57.89a4.68 4.68 0 0 0 1.46 0c.13-.2.23-.22 0-.35l-2.57-1.73c-.18 1.06-1.39 1.73-2.08 2.44a4.71 4.71 0 0 0-1.52 3.16A3 3 0 0 0 55 64.09a3.31 3.31 0 0 0 3.32-.51 19 19 0 0 1 1.92-1.17c1-.47 2.31-.06 2 1.27A3.59 3.59 0 0 1 59.79 66a3.29 3.29 0 0 1-1.87-.09c-.43-.14-1-.73-1.23-.11l3.48 2.54a2.33 2.33 0 0 1 1.09-1.56 11.7 11.7 0 0 0 2-2.13c1.15-1.65 1.53-4.05-.26-5.5zm0 0c.93.6-.59-.49 0 0zm29.28-37.31zm7.45-2.21c-.73.73-8.42-2.34-9-2.76-.29-.12-.3-1.32-.71-.83l-1.21 1.46-1.23 1.5c-.26.31-.54.46 0 .72.84-.42 5.42 7.35 5 8.46-.73.38-6.91-5.06-7.08-5.42-.05-.15.27-1-.21-.95a4.23 4.23 0 0 0-.89 1.07L83.48 24c.33.48.52 0 1 0a13.22 13.22 0 0 1 2.24 1.66c-.73 0-2.69.13-2.93.11-.9.11-.42-.66-1-.93l-2.28 2.76-1.33 1.61c-.05.07 0 0 .05.11.33.27.1.17.57 0s6.56 4.93 6.78 5.19c.38.45-.15 1 .41 1.22l1.8-2.18c.09-.11.14-.1 0-.2-.43-.35-.48.21-1 .15s-4.4-3.37-5.9-4.61l8.2-.3a1.84 1.84 0 0 1 1.07 1.22c-.08.38-.46.56.06.79.48-.58 1-1.15 1.46-1.73l.23-.28a.74.74 0 0 0 .21-.26l.17-.21c.43-.49 1.8-2 1.63-2.15-.46-.4-.68.47-1.3-.05a12.84 12.84 0 0 1-1.44-2.16c-.26-.45.61-.9 1-1.12.78-.48 3.25-1.18 3.48.35a1.27 1.27 0 0 0-.08.7s.21.24.27.16l3.3-4a1.38 1.38 0 0 0-.42-.22zm-7.37 2.16l-.08.05.08-.05a5.72 5.72 0 0 0-1 .76l-1.56-2.69 3.52 1.48a3.72 3.72 0 0 0-.96.44zM82.62 33a5.48 5.48 0 1 0 .59 7.6 5.38 5.38 0 0 0-.59-7.6zm-.28 6.61c-1.23 1.29-3.36.1-4.51-.73s-3.11-2.57-1.86-4.1c1.06-1.29 3.12-.23 4.19.48s3.41 2.6 2.28 4.22a1.23 1.23 0 1 1-.11.13z" fill="#fff"/><path d="M82.62 33c1.17 1-.25-.21 0 0zm-.31 6.64l.08-.11zM76 42.12c.11.09.27.22-.06-.06-2.84-2.13-6.19-1.5-8.4 1.16l-3 3.57c.35.51.76-.12 1.27.18s6.24 5.1 6.34 5.36c.16.46-.25.55.14.88a41.37 41.37 0 0 0 5-6.21A4.34 4.34 0 0 0 76 42.12zm-1.32 6.75a4.63 4.63 0 0 1-.66.65c-.31.29-6.44-4.68-6.19-4.94a4.35 4.35 0 0 1 3.58-1.3c2.21.56 5.23 3.26 3.3 5.59z" fill="#fff"/></g><path d="M50.58 57.48l.34-.41L78.5 24.78c-6.91.95-11.86 6.08-18.6 5-3.4-.56-3.5-2.51-4.47-4.46-.75-1.49-1.94-1.3-3.49-1.91s-2.28-1.74-5.16-1.06c-2.53.59-2.81 4.52-6 4.29-1.69-.12-1.81-2.5-4.24-5.54-6.3-7.57-12.16-6.52-16.25.48z" fill="#491213"/><path fill="#23a9e1" d="M46.56 70.92l4.02-6.5 4 6.5-4 6.51-4.02-6.51z"/><path d="M23.28 32.27a2.81 2.81 0 0 1 .81 2.12c-.06.58-.94 1.55-.27 1.85l2.24-2.83c-.6-.15-5.37-5.85-5.44-6.47l-3.16 1.73c.16.66 1.29 0 1.85 0a2.92 2.92 0 0 1 2 1.15c-1.73 1.45-5.93 5-6.37 5.09-.23 0-1.09-.6-1.1-.06a4.9 4.9 0 0 0 1 1.21L17 38.75c.62-.28-.11-.73.21-1.24s4.9-4.27 6-5.24zM18 25.29c.44-.1.62.43 1-.06l-2.45-2.92c-.37-.44-.84-.92-.71 0C15.9 23 9.7 28 9.32 28.15s-.76-.42-1.11.1l2.19 2.61c.25.29.48.61.75.88s.21-.67.22-.58a1.66 1.66 0 0 1 .86-1.23A60.5 60.5 0 0 1 18 25.29zm-8.76-.92a3.22 3.22 0 0 1-4.21-2c-.54-1.83.61-3.76 2.07-4.8s3.59-1 4.37.84a3.61 3.61 0 0 1-.09 2.5c-.16.51-.6 1 .06 1.29L14 18.87c-1.06-.63-1.52-1.68-2.3-2.6A5.86 5.86 0 0 0 8.23 14c-2.87-.41-5.57 2.56-5.79 5.24a5.75 5.75 0 0 0 1.25 4c.75 1 1.87 1.62 2.43 2.75a22.52 22.52 0 0 0 3.29-1.26 1.55 1.55 0 0 0-.17-.37zm39.3 36.41c-1.15-.77-4-4.69-4.57-5.34l-.34-.44a2.3 2.3 0 0 0-.25.19c-.17.15.13.57-.05.86-.79 1.24-5.76 5-6 5.16-.56.38-1.16-.16-1.49.32a45 45 0 0 0 3 3.58c.48.08.15-.81.21-1a31.55 31.55 0 0 1 3.55-3.21c.34-.28.69.43.89.72a1.76 1.76 0 0 1 .3 1.57c-.12.37-.72.92-.25 1.17l2.61-3c.25-.29-.57 0-.47-.09a.91.91 0 0 1-1.06 0 5 5 0 0 1-1-1.17 4.63 4.63 0 0 1 1.53-1.1c.86-.21 1.58 1.52 1.71 2.13a3.45 3.45 0 0 1-.08 1.75c-.12.39-.49.7 0 .93l2.13-2.92a.7.7 0 0 1-.4-.1c-.1-.1.16.06.03-.01zm-10.23-4.13a5.48 5.48 0 1 0-7.79-1.07 5.42 5.42 0 0 0 7.79 1.07c1.16-.98-.1.07 0 0zm-.46-4.75a7.45 7.45 0 0 1-3.73 3.67c-1.82.71-3.1-.83-2.36-2.55a7.45 7.45 0 0 1 3.74-3.67c1.85-.74 3.07.85 2.36 2.55-.4.88.06-.18-.01-.01zM31.87 42c.47.06.93.55 1.27 0l-2.23-2.64c-.59.27 0 .55-.19 1s-2.56.78-3.18.89a15.9 15.9 0 0 1 1.16-2.84c.54-.44.88.43 1.28-.14l-2.74-3.25c-.31-.37-.56-1-1-.68a8.41 8.41 0 0 1-.09 1.73c-.09.24-.94 3.64-1.93 4.47a21.51 21.51 0 0 1-2.7 2.1c-.54.19-.83-.6-1.22 0l2.49 3a4.3 4.3 0 0 0 .77.89c.52.09.06-.89.11-1.09.15-.43 2.5-2.72 3.5-2.86a19.37 19.37 0 0 1 4.7-.58z" fill="#fff"/><path d="M25.61 22.87c-4-.17-2.35-4 .39-4.81s8.09 1.72 9.84 3.4c-2.78.85-6.39.73-9.45.87-.23-3.12-1-2-.79.54zm1.01 4.85c-2-1.58-1.4-5.27 1.76-4.15 4 2.08-.86 3.24-1.76 4.15zm8.49 7.7c-8.62-.07-2.79-13.32.14-12.52 3.37 1.07 3 12.62-.14 12.52zm6.11-4.33c-.84 2.5-2.36 3-2.19-.07.19-3.5 2.48-2.66 4.93-4 2-1.12 3.14-5.21 6.64-2.77 1.56 1.09 3.35.18 3.85 1.83 0-.08-4.54 10.31-2 10.31-5 0-2.77-5.92-.87-9.9-1.85.88-4.84 6.69-2.38 7.64-1.28 1.69-5.19 3.94-7.23 2.3-1.55-1.25-.69-3.33-.71-5.34zm4.1 9.61c-3.49 1-8.12-1.21-2.51-2.34 3.48-.7 7.19.78 2.51 2.34zm4.37-.14c-.74-1.66.56-3.64 2.68-2.2 1.85 1.25-.85 3.11-2.68 2.2zm-2.95 4.66c-2.41-.75-10.54-.56-5.22-2.76 1.64-.68 10.15.1 5.22 2.76zm3.26-.35c0-1-.51-2.68 1.35-1.95 2.2.88-1.35 2.66-1.35 1.95zm7.18 3.67c-1.44-1.23-2.89-1.29-4.23 0-1.79-3.29-8.32-2.19-11.37-2.65 1.64 4 14.86 4.78 15.59 2.65zM55.28 51c-3.15-.15-6.67-.56-9.65.08 1.86.43 6.37 1.76 2.17 2.92 1.52 2.17 4 2 5.58.13A15.44 15.44 0 0 1 51.83 53c1.67-.3 3.23-1.27 3.44-2.07zm3.59-3.92c-5.29-3.11-4-5.43.35-7.59 2.25-1.13 7.32-5.21 9.45-3.85l-9.8 11.44z" fill="#dc6243"/><path d="M55.11 39.81c-4.48-4.6 6.69-4.18 8.49-5.8 1.31.44 10.77-8.28 13.07-7.74-1.66 1.94-5.22 8.14-7.77 8.14-2 0-4-.29-5.47 1.11-2.22 2-5.91 3.09-8.31 4.29z" fill="#f49774"/><path d="M56.57 34.18c-2.45 1.32-4.77-3.91-.54-3.4 2.81.34 5.66-.24 8.35.23a8.66 8.66 0 0 1-7.81 3.17z" fill="#f4b1a4"/><path d="M69.21 52.47a5 5 0 0 1 .21 2c-.11.87-1 2.92-2.17 2.34a18.23 18.23 0 0 1-3.19-2.55c.8-.94 1.51-1.75 2.85-1.29.37.12.69 0 .3-.26s-3.11-2-3.26-1.8.53.87.22 1.47a7 7 0 0 1-.93 1.22c-.72-.61-1.92-1.25-1.06-2.26a3.69 3.69 0 0 1 2.1-1.34c.57-.11 1.84.39 2-.22L63 48.21c.18.8-3.35 4.52-4.13 5.46a3.14 3.14 0 0 0-.66.8c0 .43.62.1.66.08.49-.18 6.82 5.11 7 5.47a2 2 0 0 0 0 .73.85.85 0 0 0 .25.18c.39-.47 4.52-6 5.37-6.22-.79-1.21-1.59-2.43-2.37-3.65-.62.27-.04.94.09 1.41zM63 59.17c-2.08-1.34-5.6 1.28-6.12 1.53a1 1 0 0 1-1.25-1.5A2.77 2.77 0 0 1 58 57.91a4.69 4.69 0 0 0 1.46 0c.13-.2.23-.22 0-.35l-2.57-1.73c-.18 1.06-1.38 1.73-2.08 2.44a4.7 4.7 0 0 0-1.52 3.16A3 3 0 0 0 55 64.11a3.31 3.31 0 0 0 3.32-.51 19.18 19.18 0 0 1 1.92-1.17c1-.47 2.3-.06 2 1.27a3.6 3.6 0 0 1-2.45 2.3 3.29 3.29 0 0 1-1.87 0c-.43-.14-1-.73-1.23-.11l3.48 2.54a2.33 2.33 0 0 1 1.09-1.56 11.68 11.68 0 0 0 2-2.13c1.15-1.74 1.53-4.12-.26-5.57zm0 0c.92.6-.59-.49 0 0zm29.28-37.32zm7.46-2.21c-.73.73-8.42-2.34-9-2.76-.29-.12-.3-1.32-.71-.83l-1.22 1.46L87.58 19c-.26.31-.54.46 0 .72.84-.42 5.42 7.35 5 8.46-.72.38-6.92-5.06-7.08-5.42-.05-.15.27-1-.21-.94a4.24 4.24 0 0 0-.89 1.07L83.48 24c.33.48.52 0 1 0a13.15 13.15 0 0 1 2.24 1.66c-.72 0-2.68.13-2.93.11-.9.11-.42-.66-1-.93l-2.28 2.76-1.33 1.61c-.05.07 0 0 0 .11.33.27.1.17.57 0s6.56 4.93 6.78 5.19c.38.45-.15 1 .41 1.22l1.8-2.18c.09-.11.14-.1 0-.2-.43-.35-.48.21-1 .15s-4.39-3.37-5.89-4.61l8.2-.3a1.85 1.85 0 0 1 1.07 1.22c-.08.38-.46.56.05.79.48-.58 1-1.15 1.46-1.73l.23-.28a.74.74 0 0 0 .21-.26l.17-.21c.42-.48 1.8-2 1.63-2.15-.46-.4-.68.47-1.3-.05a12.9 12.9 0 0 1-1.44-2.16c-.26-.45.61-.9 1-1.12.78-.48 3.25-1.18 3.48.35a1.26 1.26 0 0 0-.08.7s.2.24.27.16l3.3-4a1.47 1.47 0 0 0-.36-.21zm-7.38 2.16l-.08.05.08-.05a5.71 5.71 0 0 0-1 .76l-1.56-2.69 3.52 1.48a3.73 3.73 0 0 0-.96.45zM82.62 33a5.48 5.48 0 1 0 .59 7.6 5.38 5.38 0 0 0-.59-7.6zm-.28 6.61c-1.23 1.29-3.36.1-4.51-.73s-3.11-2.57-1.86-4.1c1.06-1.29 3.12-.23 4.19.48s3.41 2.6 2.28 4.22c.05-.05.1-.11-.11.15z" fill="#fff"/><path d="M82.62 33c1.17 1-.25-.21 0 0zm-.31 6.65l.08-.11zM76 42.14c.11.09.27.22-.06-.06-2.83-2.13-6.19-1.5-8.4 1.16l-3 3.57c.35.51.76-.12 1.27.18s6.24 5.1 6.34 5.37c.16.46-.25.55.14.88a41.39 41.39 0 0 0 5-6.24A4.34 4.34 0 0 0 76 42.14zm-1.32 6.75a4.79 4.79 0 0 1-.66.65c-.31.29-6.44-4.68-6.19-4.94a4.35 4.35 0 0 1 3.58-1.3c2.21.56 5.23 3.26 3.3 5.59z" fill="#fff"/></g></svg><svg height="68.96" viewBox="0 0 77 69" width="76.17" x="4" y="281"><title>eat</title><path d="M71.91 46H4.25A4.26 4.26 0 0 0 0 50.29v3.45A4.27 4.27 0 0 0 4.25 58h1v1a10 10 0 0 0 9.88 10H61a10 10 0 0 0 10-10v-1h1a4.26 4.26 0 0 0 4.25-4.25v-3.46A4.26 4.26 0 0 0 71.91 46zM68 59a6.93 6.93 0 0 1-7 7H15.13a6.93 6.93 0 0 1-6.92-7v-1H68v1zm5.21-5.29a1.27 1.27 0 0 1-1.3 1.29H4.25A1.27 1.27 0 0 1 3 53.75v-3.46A1.27 1.27 0 0 1 4.25 49h67.66a1.27 1.27 0 0 1 1.25 1.25v3.45zM16.16 37.86l5.48 4 5.47-4 5.48 4 5.48-4 5.48 4 5.48-4 5.48 4 5.47-4 5.49 4 6.37-4.65-1.77-2.42-4.6 3.35-5.49-4-5.47 4-5.48-4-5.48 4-5.48-4-5.48 4-5.48-4-5.47 4-5.48-4-5.47 4-4.6-3.35-1.77 2.42 6.37 4.65 5.47-4zm54.73-6.77c0-.61.05-2.62 0-3C70.24 12.48 55.8 0 38.08 0S5.92 12.48 5.24 28.09v3h65.65zM38.08 3c16 0 29.15 11.15 29.84 25.09H8.24C8.93 14.15 22.05 3 38.08 3z" fill="#82b4d3"/><circle cx="38.08" cy="15.04" r="2" fill="#82b4d3"/><circle cx="30.08" cy="10.08" r="2" fill="#82b4d3"/><circle cx="46.08" cy="10.08" r="2" fill="#82b4d3"/></svg><svg height="75.08" viewBox="0 0 63 76" width="63" x="4" y="354"><title>present</title><path d="M60.17 22.23H35.76c13.6-6.82 14.69-11.11 14.19-13.52-1.14-3.92-5.6-6.94-9.85-5.34-5.48 2.06-7 10.26-8.51 16.19-1.89-6-3.73-13.65-8-17.52A7.19 7.19 0 0 0 17.9 0c-4 .35-9.65 5.32-7.34 10.85 2.22 5.31 9.54 8.67 14.35 11.35H2.83A2.84 2.84 0 0 0 0 25.06v11.19a2.84 2.84 0 0 0 2.84 2.83h.27v36h57v-36h.1A2.84 2.84 0 0 0 63 36.25V25.06a2.85 2.85 0 0 0-2.83-2.83zM41.77 5.87c2.07-.31 4.91 1.28 5.18 3.17.39 2.72-3.35 5.19-5 6.34-2.48 1.72-4.85 2.61-7.18 4 .86-3.63 2.5-12.84 7-13.51zm-22.54 9.85C17 14.25 12.79 11.34 12.89 8c.11-3.51 5.65-6.45 8.68-3.8 3.8 3.33 5.62 11 7 16.36a68.29 68.29 0 0 1-9.34-4.84zm5.88 56.43H6V39.08h19.11v33.07zm0-36.06H3V25.23h22.11v10.85zm10 36.06h-7.06V25.23h7.06v46.92zm22 0H38.05V39.08h19.08v33.07zM60 36.08H38.05V25.23H60v10.85z" fill="#82b4d3"/></svg><svg height="72.35" viewBox="0 0 75 73" width="74.7" x="4" y="434"><title>home</title><path d="M29.5 65.34h16V41.41h-16v23.93zm13.06-2.94H32.44V44.34h10.13v18.07z" fill="#82b4d3"/><path d="M72.62 39.44l2.08-2.08-9.91-9.91v-27H51v13.18L37.35 0 0 37.36l2.08 2.08 7.83-7.83v37.8H6v2.94h63.85v-2.94h-5.06v-37.8zm-18.71-36h7.94v21.1l-7.94-7.94V3.41zm7.94 66h-49V28.67l24.5-24.5 24.5 24.5v40.74z" fill="#82b4d3"/><path d="M29.75 27.21a7.75 7.75 0 1 0 7.75-7.75 7.75 7.75 0 0 0-7.75 7.75zm7.75-5a5 5 0 1 1-5 5 5 5 0 0 1 5-4.97zm-20.59 19.2h3v3.94h-3zm5.94 0h3v3.94h-3zm-5.94 6h3v3.94h-3zm5.94 0h3v3.94h-3zm26-6h3v3.94h-3zm5.93 0h3v3.94h-3zm-5.93 6h3v3.94h-3zm5.93 0h3v3.94h-3z" fill="#82b4d3"/></svg><svg height="35" viewBox="0 0 40 35" width="40" x="4" y="511"><title>eat-mobile</title><path d="M37.77 23.37H2.24a2.2 2.2 0 0 0-2.23 2.16v1.75a2.2 2.2 0 0 0 2.23 2.16h.5v.53a5.14 5.14 0 0 0 5.18 5.05h24.14a5.14 5.14 0 0 0 5.21-5v-.58h.5A2.2 2.2 0 0 0 40 27.28v-1.75a2.2 2.2 0 0 0-2.23-2.16zm-2.08 6.6a3.58 3.58 0 0 1-3.63 3.51H7.92a3.58 3.58 0 0 1-3.63-3.51v-.53h31.4v.53zm2.74-2.68a.66.66 0 0 1-.66.64H2.24a.66.66 0 0 1-.66-.64v-1.76a.66.66 0 0 1 .66-.64h35.53a.66.66 0 0 1 .66.64v1.75zM8.49 19.21l2.87 2.03 2.88-2.03 2.88 2.03 2.87-2.03 2.88 2.03 2.88-2.03 2.87 2.03 2.88-2.03 2.88 2.03 3.35-2.35-.93-1.23-2.42 1.7-2.88-2.03-2.88 2.03-2.87-2.03-2.88 2.03-2.88-2.03-2.87 2.03-2.88-2.03-2.88 2.03-2.87-2.03-2.88 2.03-2.41-1.7-.93 1.23 3.34 2.35 2.88-2.03zm28.74-3.43v-1.52C36.92 6.33 29.31.02 20 .02S3.11 6.33 2.76 14.26v1.52h34.47zM20 1.52c8.42 0 15.31 5.66 15.67 12.74H4.33C4.69 7.18 11.58 1.52 20 1.52z" fill="#82b4d3"/><ellipse cx="20" cy="7.63" rx="1.05" ry="1.02" fill="#82b4d3"/><ellipse cx="15.8" cy="5.12" rx="1.05" ry="1.02" fill="#82b4d3"/><ellipse cx="24.2" cy="5.12" rx="1.05" ry="1.02" fill="#82b4d3"/></svg><svg height="37" viewBox="0 0 39 37" width="39" x="4" y="550"><title>home-mobile</title><path d="M15.4 33.42h8.35V21.18H15.4v12.24zm6.82-1.5h-5.28v-9.24h5.29v9.24z" fill="#82b4d3"/><path d="M37.91 20.17l1.08-1.06-5.17-5.07V.24h-7.21v6.73l-7.11-7L0 19.11l1.08 1.06 4.09-4V35.5H3.15V37h33.32v-1.5h-2.65V16.17zM28.15 1.75h4.14v10.79l-4.14-4.06V1.75zm4.14 33.75H6.71V14.67L19.5 2.14l12.79 12.53V35.5z" fill="#82b4d3"/><path d="M15.53 13.92a4 4 0 1 0 4-4 4 4 0 0 0-4 4zm4-2.54a2.54 2.54 0 1 1-2.59 2.54 2.57 2.57 0 0 1 2.64-2.59zm-10.7 9.8h1.57v2.01H8.83zm3.1 0h1.57v2.01h-1.57zm-3.1 3.07h1.57v2.01H8.83zm3.1 0h1.57v2.01h-1.57zm13.57-3.07h1.57v2.01H25.5zm3.1 0h1.57v2.01H28.6zm-3.1 3.07h1.57v2.01H25.5zm3.1 0h1.57v2.01H28.6z" fill="#82b4d3"/></svg><svg height="38" viewBox="0 0 32 38" width="32" x="4" y="591"><title>present-mobile</title><path d="M30.56 11.25h-12.4c6.91-3.45 7.46-5.63 7.21-6.84a4 4 0 0 0-5-2.7c-2.79 1-3.57 5.19-4.32 8.19-1-3-1.89-6.91-4.07-8.87a3.66 3.66 0 0 0-2.88-1c-2 .18-4.9 2.69-3.73 5.49s4.84 4.39 7.29 5.74H1.44A1.44 1.44 0 0 0 0 12.69v5.66a1.44 1.44 0 0 0 1.44 1.43h.14V38H30.5V19.78h.05a1.44 1.44 0 0 0 1.44-1.43v-5.66a1.44 1.44 0 0 0-1.43-1.44zm-9.35-8.28a2.48 2.48 0 0 1 2.63 1.6c.2 1.38-1.7 2.63-2.54 3.21-1.26.87-2.46 1.32-3.65 2 .45-1.81 1.28-6.47 3.56-6.81zm-11.45 5c-1.1-.75-3.26-2.23-3.26-3.9S9.37.78 10.91 2.13c1.93 1.69 2.86 5.55 3.56 8.28a34.73 34.73 0 0 1-4.7-2.45zm3 28.56H3.07V19.78h9.69v16.74zm0-18.25H1.5v-5.51h11.26v5.49zm5.08 18.25h-3.59V12.77h3.59v23.74zm11.18 0h-9.69V19.78h9.69v16.74zm1.48-18.27H19.33v-5.49H30.5v5.49z" fill="#82b4d3"/></svg><svg height="34.09" viewBox="0 0 27 35" width="26.95" x="4" y="633"><title>html-academy</title><path d="M13.62 0h-.15L0 1.41v24.66l13.47 8 13.43-8V1.41zM25 12.13l-11.5-6.8v-.1h-.09l-.09-.06v.16l-11.4 6.79v-9l11.55-1.19L25 3.15v9zM13.41 6.79l11.51 6.71-4.48 2.64-7.09-4.22v1.42l5.9 3.51-.86.51-5-3v1.41l3.83 2.27-.78.52-3-1.79v1.43l1.85 1.09-1.8 1.08L2 13.62zM1.92 15.13l11.41 6.79v1l-7.92-4.69v1.42l8 4.79v1.08l-8-4.74v1.42l8 4.82 8.14-4.87V17L25 15v10l-11.53 6.85L1.92 25v-9.87z"/></svg><svg height="34.09" viewBox="0 0 27 35" width="26.95" x="4" y="672"><title>html-academy-hover</title><path d="M13.62 0h-.15L0 1.41v24.66l13.47 8 13.43-8V1.41zM25 12.13l-11.5-6.8v-.1h-.09l-.09-.06v.16l-11.4 6.79v-9l11.55-1.19L25 3.15v9zM13.41 6.79l11.51 6.71-4.48 2.64-7.09-4.22v1.42l5.9 3.51-.86.51-5-3v1.41l3.83 2.27-.78.52-3-1.79v1.43l1.85 1.09-1.8 1.08L2 13.62zM1.92 15.13l11.41 6.79v1l-7.92-4.69v1.42l8 4.79v1.08l-8-4.74v1.42l8 4.82 8.14-4.87V17L25 15v10l-11.53 6.85L1.92 25v-9.87z" fill="#82b4d3"/></svg><svg height="20" viewBox="0 0 32 20" width="32" x="4" y="711"><title>subtitles-mobile</title><path d="M29 0H3a3 3 0 0 0-3 3v14a3 3 0 0 0 3 3h26a3 3 0 0 0 3-3V3a3 3 0 0 0-3-3zM14.4 15.85a8.58 8.58 0 0 1-1.68.16 6 6 0 0 1-2-.32 4.21 4.21 0 0 1-1.65-1 5.13 5.13 0 0 1-1.13-1.87 8.12 8.12 0 0 1-.42-2.79 7.56 7.56 0 0 1 .47-2.85 5.2 5.2 0 0 1 1.22-1.85 4.53 4.53 0 0 1 1.68-1 5.86 5.86 0 0 1 1.85-.31 9 9 0 0 1 1.68.13 6.07 6.07 0 0 1 1.13.31l-.45 1.92a3.31 3.31 0 0 0-.9-.26 8.27 8.27 0 0 0-1.26-.08 2.76 2.76 0 0 0-2.21 1 4.59 4.59 0 0 0-.84 3 6.27 6.27 0 0 0 .2 1.63 3.51 3.51 0 0 0 .6 1.26 2.78 2.78 0 0 0 1 .81 3.19 3.19 0 0 0 1.4.29 4.55 4.55 0 0 0 1.26-.15 3.71 3.71 0 0 0 .89-.38l.46 1.84a3.48 3.48 0 0 1-1.3.52zm8.7 0a8.59 8.59 0 0 1-1.68.16 6 6 0 0 1-2-.32 4.21 4.21 0 0 1-1.65-1 5.13 5.13 0 0 1-1.13-1.87 8.12 8.12 0 0 1-.42-2.79 7.56 7.56 0 0 1 .5-2.88 5.2 5.2 0 0 1 1.22-1.85 4.53 4.53 0 0 1 1.68-1 5.86 5.86 0 0 1 1.85-.31 9 9 0 0 1 1.68.13 6 6 0 0 1 1.13.31l-.45 1.92a3.29 3.29 0 0 0-.9-.26 8.28 8.28 0 0 0-1.26-.08 2.76 2.76 0 0 0-2.21 1 4.59 4.59 0 0 0-.84 3 6.28 6.28 0 0 0 .2 1.63 3.51 3.51 0 0 0 .6 1.26 2.77 2.77 0 0 0 1 .81 3.19 3.19 0 0 0 1.4.29 4.55 4.55 0 0 0 1.26-.15 3.71 3.71 0 0 0 .89-.38l.46 1.84a3.48 3.48 0 0 1-1.33.55z" fill="#5d6871"/></svg><svg height="20" viewBox="0 0 32 20" width="32" x="4" y="735"><title>subtitles</title><path d="M29 0H3a3 3 0 0 0-3 3v14a3 3 0 0 0 3 3h26a3 3 0 0 0 3-3V3a3 3 0 0 0-3-3zM14.4 15.85a8.58 8.58 0 0 1-1.63.15 6 6 0 0 1-2-.32 4.21 4.21 0 0 1-1.65-1 5.13 5.13 0 0 1-1.13-1.87 8.12 8.12 0 0 1-.42-2.79 7.56 7.56 0 0 1 .47-2.85 5.2 5.2 0 0 1 1.22-1.85 4.53 4.53 0 0 1 1.68-1A5.86 5.86 0 0 1 12.77 4a9 9 0 0 1 1.68.13 6.07 6.07 0 0 1 1.13.31l-.45 1.92a3.31 3.31 0 0 0-.9-.26 8.27 8.27 0 0 0-1.26-.08 2.76 2.76 0 0 0-2.21 1 4.59 4.59 0 0 0-.84 3 6.27 6.27 0 0 0 .2 1.63 3.51 3.51 0 0 0 .6 1.26 2.78 2.78 0 0 0 1 .81 3.19 3.19 0 0 0 1.4.29 4.55 4.55 0 0 0 1.26-.15 3.71 3.71 0 0 0 .89-.38l.46 1.84a3.48 3.48 0 0 1-1.32.54zm8.7 0a8.59 8.59 0 0 1-1.68.16 6 6 0 0 1-2-.32 4.21 4.21 0 0 1-1.65-1 5.13 5.13 0 0 1-1.13-1.87 8.12 8.12 0 0 1-.42-2.79 7.56 7.56 0 0 1 .47-2.85 5.2 5.2 0 0 1 1.22-1.85 4.53 4.53 0 0 1 1.68-1 5.86 5.86 0 0 1 1.85-.31 9 9 0 0 1 1.68.13 6 6 0 0 1 1.13.31l-.45 1.92a3.29 3.29 0 0 0-.9-.26 8.28 8.28 0 0 0-1.26-.08 2.76 2.76 0 0 0-2.21 1 4.59 4.59 0 0 0-.84 3 6.28 6.28 0 0 0 .2 1.63 3.51 3.51 0 0 0 .6 1.26 2.77 2.77 0 0 0 1 .81 3.19 3.19 0 0 0 1.4.29 4.55 4.55 0 0 0 1.26-.15 3.71 3.71 0 0 0 .89-.38l.46 1.84a3.48 3.48 0 0 1-1.3.52z" fill="#fff"/></svg><svg height="16.25" viewBox="0 0 24 17" width="23.05" x="4" y="759"><title>confirm</title><path d="M22.8 1.3L21.75.25a.85.85 0 0 0-1.2 0L8.69 12.1 2.5 5.91a.85.85 0 0 0-1.2 0L.25 6.96a.85.85 0 0 0 0 1.2L8.09 16a.87.87 0 0 0 1.22 0l13.5-13.5a.85.85 0 0 0-.01-1.2z" fill="#231f20"/></svg><svg height="21.98" viewBox="0 0 23 22" width="22.93" x="4" y="780"><title>mobile-button</title><path fill="#83b4d4" d="M0 0h22.93v3.96H0zm0 9.01h22.93v3.96H0zm0 9.01h22.93v3.96H0z"/></svg><svg height="22.2" viewBox="0 0 23 23" width="22.2" x="4" y="806"><title>button-mobile-close</title><path fill="#fff" d="M22.2 2.8L19.4 0l-8.3 8.3L2.8 0 0 2.8l8.3 8.3L0 19.4l2.8 2.8 8.3-8.3 8.3 8.3 2.8-2.8-8.3-8.3 8.3-8.3z"/></svg><svg height="20" viewBox="0 0 22 20" width="22" x="4" y="833"><title>like-tablet</title><path d="M12.38 3.65l-.63 2.93L11.22 9h8.68v2.06L17 18H8V8l4.37-4.37M13.2 0L6.6 6.6A1.68 1.68 0 0 0 6 8v10a2 2 0 0 0 2 2h9a2 2 0 0 0 1.8-1.2l3-7.1a1.69 1.69 0 0 0 .1-.7V9h.1a2 2 0 0 0-2-2h-6.3l1-4.6v-.3a2.1 2.1 0 0 0-.4-1.1l-1.1-1zM4 8H0v12h4V8zm18 1z" fill="#aaa"/></svg><svg height="20" viewBox="0 0 22 20" width="22" x="4" y="857"><title>like</title><path d="M12.38 3.65l-.63 2.93L11.22 9h8.68v2.06L17 18H8V8l4.37-4.37M13.2 0L6.6 6.6A1.68 1.68 0 0 0 6 8v10a2 2 0 0 0 2 2h9a2 2 0 0 0 1.8-1.2l3-7.1a1.69 1.69 0 0 0 .1-.7V9h.1a2 2 0 0 0-2-2h-6.3l1-4.6v-.3a2.1 2.1 0 0 0-.4-1.1l-1.1-1zM4 8H0v12h4V8zm18 1z" fill="#fff"/></svg><svg height="20" viewBox="0 0 20 20" width="20" x="4" y="881"><title>zoom</title><path fill="#fff" d="M0 0v6h3V3h3V0H0zm3 14H0v6h6v-3H3v-3zM17 0h-3v3h3v3h3V0h-3zm0 17h-3v3h6v-6h-3v3z"/></svg><svg height="20" viewBox="0 0 20 20" width="20" x="4" y="905"><title>zoom-mobile</title><path fill="#5d6871" d="M0 0v6h3V3h3V0H0zm3 14H0v6h6v-3H3v-3zM17 0h-3v3h3v3h3V0h-3zm0 17h-3v3h6v-6h-3v3z"/></svg><svg height="20" viewBox="0 0 16 20" width="16" x="4" y="929"><title>replay-mobile</title><path d="M8 4V0L3 5l5 5V6a6 6 0 1 1-6 6H0a8 8 0 1 0 8-8z" fill="#5d6871"/></svg><svg height="20" viewBox="0 0 16 20" width="16" x="4" y="953"><title>replay</title><path d="M8 4V0L3 5l5 5V6a6 6 0 1 1-6 6H0a8 8 0 1 0 8-8z" fill="#f4f3f3"/></svg><svg height="14.02" viewBox="0 0 20 15" width="19.98" x="4" y="977"><title>yt</title><path d="M17.14 0H2.83A2.84 2.84 0 0 0 0 2.83v8.35A2.84 2.84 0 0 0 2.83 14h14.31A2.84 2.84 0 0 0 20 11.18V2.83A2.84 2.84 0 0 0 17.14 0zM7 10.39V3.62L13.8 7z" fill="#fff"/></svg><svg height="18.94" viewBox="0 0 9 19" width="8.67" x="4" y="996"><title>fb</title><path d="M6.28 3.36h2.4V0H5.79C2.65.18 1.54 2.39 1.94 6.11H0v3.52h2v9.31h3.8V9.63h2.85V6.11H5.79c-.02-1.04-.04-2.4.49-2.75z" fill="#fff"/></svg><svg height="18" viewBox="0 0 18 18" width="18" x="4" y="1019"><title>tel</title><path d="M3.6 7.8a15.57 15.57 0 0 0 6.6 6.6l2.2-2.2a.8.8 0 0 1 1-.2 10.45 10.45 0 0 0 3.6.6 1 1 0 0 1 1 1V17a1 1 0 0 1-1 1A17 17 0 0 1 0 1a.94.94 0 0 1 1-1h3.5a.94.94 0 0 1 1 1 11.33 11.33 0 0 0 .6 3.6 1.23 1.23 0 0 1-.2 1L3.6 7.8z" fill="#010101"/></svg><svg height="14.66" viewBox="0 0 18 15" width="17.5" x="4" y="1041"><title>tw</title><path d="M11.28.15A3.29 3.29 0 0 1 15 1.3c.66-.22 1.34-.47 2-.69a2.26 2.26 0 0 1-.88 1.73 1.64 1.64 0 0 0 1.34-.48 2.9 2.9 0 0 1-1.61 2c-.24 6.59-3.27 11-10.38 10.82H5c-.42 0-4.29-.45-5-1.84a6.57 6.57 0 0 0 4.84-1.15c-1-.29-2.76-.46-3.07-2.88A2.14 2.14 0 0 0 3 8.9C1.76 8.07.38 7.37.46 5.22a2 2 0 0 0 1.38.46C1.12 5.44-.19 2.4.92.84c1.87 1.81 3.85 3.52 7.37 3.69C8.51 2.29 9.46.79 11.28.15z" fill="#fff"/></svg><svg height="12" viewBox="0 0 16 12" width="16" x="4" y="1060"><title>mail</title><path d="M8 8a2.32 2.32 0 0 1-1-.34L0 4v7a1 1 0 0 0 1 1h14a1 1 0 0 0 1-1V4L9 7.66A2.32 2.32 0 0 1 8 8zm7-8H1a1 1 0 0 0-1 1v.76L8 6l8-4.21V1a1 1 0 0 0-1-1z"/></svg></svg>