<svg id="Layer_1" data-name="Layer 1" xmlns="http://www.w3.org/2000/svg" viewBox="0 0 512 491.13"><defs><style>.cls-1{fill:#006df0}</style></defs><title>like</title><path class="cls-1" d="M83.58 167.26H16.72A16.74 16.74 0 0 0 0 184v300.85a16.72 16.72 0 0 0 16.72 16.71h66.86a16.72 16.72 0 0 0 16.72-16.71V184a16.74 16.74 0 0 0-16.72-16.74zm386.69 0c-2.69-.46-128.74 0-128.74 0l17.61-48c12.15-33.17 4.28-83.83-29.42-101.83-11-5.86-26.31-8.81-38.67-5.7a27.89 27.89 0 0 0-17 12.77c-4.27 7.23-3.83 15.68-5.35 23.7-3.86 20.34-13.47 39.68-28.35 54.2-26 25.31-106.57 98.33-106.57 98.33v267.41h278.54c37.59 0 62.23-42 43.69-74.75 22.1-14.15 29.66-44 16.72-66.86 22.1-14.15 29.66-44 16.72-66.86 38.12-24.43 25.37-84.88-19.18-92.41z" transform="translate(0 -10.43)"/></svg>