<svg data-name="Layer 1" xmlns="http://www.w3.org/2000/svg" viewBox="0 0 49.84 49.84"><title>case-content-before</title><path d="M49.84 24.93a24.92 24.92 0 1 1-49.82-.02 24.92 24.92 0 1 1 49.84 0zm-3.53 0a21.39 21.39 0 0 0-42.77-.91v.92a21.39 21.39 0 0 0 42.77-.01z" fill="#bf3d27"/><path d="M6.02 25.29a19.26 19.26 0 1 1 19.26 19.27A19.27 19.27 0 0 1 6.02 25.29z" fill="#bf3d27"/><path d="M36.1 31.24l-5.86 5.86-5.68-5.68-5.68 5.68-5.86-5.86 5.68-5.68-5.68-5.68 5.86-5.86 5.68 5.68 5.68-5.68 5.86 5.86-5.69 5.68z" fill="#fff"/></svg>