<svg width="40" height="40" viewBox="0 0 40 40" xmlns="http://www.w3.org/2000/svg"><title>black fb</title><path d="M22.004 16.994v-2.255c0-1.017.246-1.503 1.826-1.503h1.932V9.478h-3.257c-4.053 0-5.344 1.8-5.344 4.99v2.526h-2.756v3.841h2.756v11.357h4.843V20.835h3.359l.45-3.841h-3.809z"/><path d="M20 .042C8.977.042.042 8.977.042 20 .042 31.023 8.977 39.958 20 39.958c11.023 0 19.958-8.935 19.958-19.958C39.958 8.977 31.023.042 20 .042zm13.227 33.185A18.583 18.583 0 0 1 20 38.706a18.583 18.583 0 0 1-13.227-5.48A18.583 18.583 0 0 1 1.294 20c0-4.996 1.946-9.694 5.48-13.227A18.583 18.583 0 0 1 20 1.294c4.996 0 9.694 1.946 13.227 5.48A18.583 18.583 0 0 1 38.706 20c0 4.996-1.946 9.694-5.48 13.227z"/></svg>