<svg data-name="Layer 1" xmlns="http://www.w3.org/2000/svg" viewBox="0 0 61.82 61.82"><title>features-icon3</title><path d="M0 30.95a30.91 30.91 0 0 1 61.82-.08v.08a30.91 30.91 0 0 1-61.82 0z" fill="#0829cc"/><path d="M45.85 44.66a2.28 2.28 0 0 1-3.21 3.22l-8-8a12.87 12.87 0 1 1 3.4-3zm-27-15.68z" fill="#003799"/><path data-name="b" d="M45.85 44.66a2.28 2.28 0 0 1-3.21 3.22l-8-8a12.87 12.87 0 1 1 3.4-3zm-27-15.68z" fill="none" stroke="#003799" stroke-miterlimit="50"/><path d="M16 27.95a10.91 10.91 0 1 1 10.92 10.91A10.91 10.91 0 0 1 16 27.95z" fill="none" stroke="#fff" stroke-miterlimit="50" stroke-width="5"/><path d="M35 36.04l8.85 8.86" fill="none" stroke="#fff" stroke-linecap="round" stroke-miterlimit="50" stroke-width="6"/></svg>