<svg data-name="Layer 1" xmlns="http://www.w3.org/2000/svg" viewBox="0 0 61.58 64.99"><defs><radialGradient id="a" cx="-267.18" cy="434.5" r=".91" gradientTransform="matrix(0 57.33 57.33 0 -24878.75 15333.99)" gradientUnits="userSpaceOnUse"><stop offset="0" stop-color="#0a6972"/><stop offset="1" stop-color="#16193f"/></radialGradient></defs><title>features-icon6</title><circle cx="30.79" cy="30.81" r="30.79" fill="#0644d6"/><path d="M61.74 31a30.79 30.79 0 1 0-46.39 26.54v-1.29a9.47 9.47 0 0 1 9.47-9.47h14.45a9.47 9.47 0 0 1 9.47 9.35 30.74 30.74 0 0 0 13-25.13zM40.83 44.61H23.27l-7.33-10.14L29.4 11.09V15l2.27-3.94v16a2.59 2.59 0 1 0 .76 0v-16L34.69 15v-3.92l13.46 23.38z" transform="translate(-.16 -.21)" fill="url(#a)"/><path data-name="Shape" d="M29.4 30.15a3.61 3.61 0 0 1 2.11-3.28v-16l-2.27 3.92v12.1a3.61 3.61 0 0 0 1.46 6.9h.14a3.59 3.59 0 0 0 1.08-.2 3.61 3.61 0 0 1-2.52-3.44zm8.99 14.24h2.27l7.33-10.15-13.46-23.37v3.94l11.19 19.43-7.33 10.15zm10.19 11.56a9.47 9.47 0 0 0-9.47-9.35h-2.27a9.47 9.47 0 0 1 9.47 9.47v1.35q1.16-.7 2.27-1.47z" fill="#082e3c"/><path data-name="Shape" d="M15.19 57.35v7.64h2.27v-6.41q-1.17-.57-2.27-1.23z" fill="#fff"/><g data-name="Group"><path data-name="Shape" d="M25.37 44.4h13l7.33-10.14-11.16-19.47-2.27-3.9v16a3.63 3.63 0 0 1-1.43 6.9h-.1a3.61 3.61 0 0 1-1.46-6.9v-16L15.84 34.25l7.31 10.15h2.27zm11.47 2.19H24.66a9.47 9.47 0 0 0-9.47 9.47v2c.76.44 1.51.85 2.27 1.22a30.81 30.81 0 0 0 28.86-1.17v-2.1a9.47 9.47 0 0 0-9.48-9.42z" fill="#fff"/></g></svg>