<svg data-name="Layer 1" xmlns="http://www.w3.org/2000/svg" viewBox="0 0 61.58 61.58"><title>features-icon2</title><path d="M0 30.79a30.79 30.79 0 1 1 30.79 30.79A30.79 30.79 0 0 1 0 30.79z" fill="#0829cc"/><path d="M39.71 28.12a7.57 7.57 0 1 0-7.17-5.17l-11 6.14a6.64 6.64 0 1 0-.75 9.66l10.68 7.15A6.07 6.07 0 1 0 33 43.27l-10.31-6.91a6.55 6.55 0 0 0 .38-4.63l11-6.16a7.55 7.55 0 0 0 5.63 2.55z" fill="#003799"/><path data-name="b" d="M39.71 28.12a7.57 7.57 0 1 0-7.17-5.17l-11 6.14a6.64 6.64 0 1 0-.75 9.66l10.68 7.15A6.07 6.07 0 1 0 33 43.27l-10.31-6.91a6.55 6.55 0 0 0 .38-4.63l11-6.16a7.55 7.55 0 0 0 5.63 2.55z" fill="none" stroke="#003799" stroke-miterlimit="50"/><path d="M39.71 27.12a7.57 7.57 0 1 0-7.17-5.17l-11 6.14a6.64 6.64 0 1 0-.75 9.66l10.68 7.15A6.07 6.07 0 1 0 33 42.27l-10.31-6.91a6.55 6.55 0 0 0 .38-4.63l11-6.16a7.55 7.55 0 0 0 5.63 2.55z" fill="#fff"/></svg>