<svg data-name="Layer 1" xmlns="http://www.w3.org/2000/svg" viewBox="0 0 61.82 61.82"><title>features-icon1</title><path d="M0 30.91a30.91 30.91 0 1 1 30.91 30.91A30.91 30.91 0 0 1 0 30.91z" fill="#0829cc"/><path d="M13 18.69A4.69 4.69 0 0 1 17.69 14H44a4.69 4.69 0 0 1 4.69 4.69V46.4A4.69 4.69 0 0 1 44 51.09H17.69A4.69 4.69 0 0 1 13 46.4V18.69z" fill="#003799"/><path d="M13 17.67A3.67 3.67 0 0 1 16.67 14h27a3.67 3.67 0 0 1 3.67 3.67V46a3.67 3.67 0 0 1-3.67 3.67h-27A3.67 3.67 0 0 1 13 46V17.67z" fill="#fff"/><path d="M48.17 20H13m6 7h10.38M19 32h10.38M19 37h24m-24 4h24m-10-8.07V26h8.87v6.93H33z" fill="none" stroke="#0644d6" stroke-miterlimit="50" stroke-width="2"/></svg>