<svg data-name="Layer 1" xmlns="http://www.w3.org/2000/svg" viewBox="0 0 61.58 61.58"><title>features-icon4</title><path d="M0 30.79a30.79 30.79 0 1 1 61.58 0 30.79 30.79 0 1 1-61.58 0z" fill="#0829cc"/><path d="M17 21h26.37v16.23H17V21zm14.62 14.11h8.82V24.78h-8.79zm-11.15-7.77h8.16v-1.52H20.5zm0 3.4h8.16v-1.51H20.5zm0 3.4h8.16v-1.51H20.5z" fill="#fff"/><path d="M34 33.3V26h5.75v7.3H34z" fill="#fff"/><path d="M51.78 16.51v25.67a1.5 1.5 0 0 1-1.49 1.51H11.51A1.5 1.5 0 0 1 10 42.2V16.51A1.52 1.52 0 0 1 11.51 15h38.77a1.51 1.51 0 0 1 1.5 1.51zm0 21h-6.33V19.82H16v17.73h-6v1.51h41.75zM39.71 48.43h-2.45L36.73 45h-3l.53 3.43H28l.52-3.43h-3L25 48.43h-2.49a1.52 1.52 0 0 0 0 3h17.26a1.52 1.52 0 0 0 0-3h-.06z" fill="#fff"/></svg>