<svg data-name="Layer 1" xmlns="http://www.w3.org/2000/svg" viewBox="0 0 61.58 61.58"><defs><radialGradient id="a" cx="-269.04" cy="421.81" r=".91" gradientTransform="matrix(61.58 0 0 -61.58 16597.98 25990.78)" gradientUnits="userSpaceOnUse"><stop offset="0" stop-color="#0a6972"/><stop offset="1" stop-color="#16193f"/></radialGradient></defs><title>features-icon2</title><circle cx="30.79" cy="30.79" r="30.79" fill="url(#a)"/><path d="M39.83 27.28a7.56 7.56 0 1 0-7.17-5.17l-11 6.14a6.65 6.65 0 1 0-.76 9.66l10.66 7.15a6.09 6.09 0 1 0 1.51-2.62l-10.24-6.92a6.56 6.56 0 0 0 .38-4.63l11-6.15a7.56 7.56 0 0 0 5.62 2.54z" fill="#082e3c"/><path data-name="Shape" d="M39.06 26.52a7.56 7.56 0 1 0-7.17-5.17l-10.97 6.17a6.65 6.65 0 1 0-.76 9.66l10.67 7.12a6.09 6.09 0 1 0 1.51-2.62l-10.3-6.91a6.56 6.56 0 0 0 .38-4.63l11-6.15a7.56 7.56 0 0 0 5.64 2.53z" fill="#fff"/></svg>