<svg data-name="Layer 1" xmlns="http://www.w3.org/2000/svg" viewBox="0 0 61.64 62.8"><title>features-icon6</title><path d="M.06 30.83a30.79 30.79 0 1 1 61.58-.08v.08a30.79 30.79 0 0 1-61.58 0z" fill="#0644d6"/><path d="M61.64 30.83a30.72 30.72 0 0 1-13 25.13 9.48 9.48 0 0 0-9.47-9.35H24.71a9.46 9.46 0 0 0-9.46 9.43v1.29a30.78 30.78 0 1 1 46.39-26.5zm-13.58 3.46L34.59 10.91v3.94l-2.27-3.94v16a2.6 2.6 0 1 1-.76 0v-16l-2.27 3.94v-3.93L15.84 34.3l7.32 10.14h17.57z" fill="#0829cc"/><path d="M25.64 44.57h13l7.32-10.14L34.8 15.04l-2.26-4v16a3.63 3.63 0 0 1-1.48 6.93h-.1a3.61 3.61 0 0 1-1.44-6.93v-16L16.06 34.42l7.31 10.15h2.27zm11.07 2.47H24.53a9.47 9.47 0 0 0-9.47 9.47v2.05a30.8 30.8 0 0 0 31.13 0v-2.1a9.44 9.44 0 0 0-9.42-9.42h-.06z" fill="#fff"/></svg>