<svg data-name="Layer 1" xmlns="http://www.w3.org/2000/svg" viewBox="0 0 61.58 61.58"><title>features-icon5</title><path d="M0 30.79a30.79 30.79 0 1 1 61.58 0 30.79 30.79 0 1 1-61.58 0z" fill="#0829cc"/><path d="M16 48.13V17h31.13v31.13H16z" fill="none" stroke="#fff" stroke-linejoin="round" stroke-width="4"/><path d="M16 38.92L25.88 31l6.76 7.37 6.56-3.82 8.06 6.82v5.37H16v-7.82z" fill="#fff"/><path data-name="c" d="M16 38.92L25.88 31l6.76 7.37 6.56-3.82 8.06 6.82v5.37H16v-7.82z" fill="none" stroke="#fff" stroke-linejoin="round" stroke-width="3"/><path d="M34 24.73a2.73 2.73 0 0 1 5.46 0 2.73 2.73 0 0 1-5.46 0z" fill="none" stroke="#fff" stroke-linejoin="round" stroke-width="3"/></svg>