<svg data-name="Layer 1" xmlns="http://www.w3.org/2000/svg" viewBox="0 0 61.58 61.58"><title>features-icon2-disabled</title><circle cx="30.79" cy="30.79" r="30.79"/><path d="M17.86 38.5h26.37V22.28H17.86V38.5zm14.65-12.44h8.79v10.33h-8.82zm-11.15 1h8.13v1.51h-8.16zm0 3.4h8.13V32h-8.16zm0 3.4h8.13v1.53h-8.16z" fill="#003799" stroke="#003799"/><path fill="#003799" stroke="#003799" d="M33.99 27.57h5.75v7.3h-5.75z"/><path d="M50.58 15.95H11.81a1.51 1.51 0 0 0-1.51 1.51v25.67a1.51 1.51 0 0 0 1.51 1.51h38.76a1.51 1.51 0 0 0 1.51-1.51V17.46a1.51 1.51 0 0 0-1.5-1.51zM52.05 40H10.33v-1.5h6V20.76h29.38V38.5H52V40zm-12.22 9.59h-2.45l-.53-3.43h-3l.53 3.43h-6.27l.53-3.43h-3l-.56 3.43h-2.45a1.51 1.51 0 0 0 0 3H39.9a1.51 1.51 0 0 0 0-3h-.07z" stroke="#000"/><path fill="none" d="M28.07 43.88h4.73-4.73zm-.76 4.96h6.25l-.53-3.44h-5.19l-.53 3.44z"/><g fill="#828282"><path d="M17.1 37.75h26.37V21.52H17.1v16.23zM31.71 25.3h8.79v10.33h-8.79V25.3zM20.6 26.39h8.11v1.51h-8.14zm0 3.4h8.11v1.51h-8.14zm0 3.4h8.11v1.51h-8.14z"/><path d="M33.23 26.81h5.75v7.3h-5.75z"/><path d="M49.82 15.19H11.05a1.51 1.51 0 0 0-1.51 1.51v25.69a1.51 1.51 0 0 0 1.51 1.51h38.76a1.51 1.51 0 0 0 1.51-1.51V16.7a1.51 1.51 0 0 0-1.5-1.51zm1.47 24.06H9.58v-1.51h6V20H45v17.75h6.33zm-12.22 9.59h-2.45l-.53-3.45h-3l.53 3.43h-6.27l.53-3.43h-3l-.53 3.43h-2.47a1.51 1.51 0 0 0 0 3h17.26a1.51 1.51 0 1 0 0-3h-.07z"/></g><path d="M15.56 20.01v17.73h1.51V21.52h26.38v16.22h1.51V20.01h-29.4z"/><path d="M20.57 26.34h8.13v1.51h-8.13zm0 3.4h8.13v1.51h-8.13zm0 3.41h8.13v1.51h-8.13zm11.14-7.85v10.33h8.82V25.3h-8.82zM39 34.12h-5.73v-7.3H39v7.3zm5.96 3.62v.51h-1.51v-.51H17.07v.51h-1.51v-.51h-2.99v1.52h35.74v-1.52h-3.35z"/><path fill="#828282" d="M49.82 37.74h1.47v1.51h-1.47zm-40.25 0h1.48v1.51H9.57zm38.74 0h1.51v1.51h-1.51zm-37.26 0h1.51v1.51h-1.51zm32.4 0h1.51v1h-1.51zm-27.89 0h1.51v1h-1.51z"/></svg>