<svg data-name="Layer 1" xmlns="http://www.w3.org/2000/svg" viewBox="0 0 61.58 61.58"><defs><radialGradient id="a" cx="-269.04" cy="421.81" r=".91" gradientTransform="matrix(61.58 0 0 -61.58 16597.98 25990.78)" gradientUnits="userSpaceOnUse"><stop offset="0" stop-color="#0a6972"/><stop offset="1" stop-color="#16193f"/></radialGradient></defs><title>features-icon5</title><circle cx="30.79" cy="30.79" r="30.79" fill="url(#a)"/><g fill="#082e3c"><path d="M47.67 15.57H16.55a1.51 1.51 0 0 0-1.51 1.51v31.13a1.51 1.51 0 0 0 1.51 1.56h31.13a1.51 1.51 0 0 0 1.51-1.51V17.08a1.51 1.51 0 0 0-1.52-1.51zm-1.51 3v20.36l-5.94-5a1.13 1.13 0 0 0-1.31-.16l-5.72 3.33-6.14-6.62a1.13 1.13 0 0 0-1.51-.2l-7.44 6.7V18.6h28.06zm-28.1 28.1v-6.9l8.66-6.28 5.29 6.54a1.13 1.13 0 0 0 1.45.26l5.86-3.42 6.8 5.76v4H18.05z"/><path data-name="Shape" d="M36.83 29.55a3.86 3.86 0 1 0-3.86-3.86 3.86 3.86 0 0 0 3.86 3.86zm0-5.46a1.6 1.6 0 1 1-1.6 1.6 1.6 1.6 0 0 1 1.6-1.6z"/></g><path fill="none" stroke="#fff" stroke-linejoin="round" stroke-width="4" d="M15.79 16.32h31.13v31.13H15.79z"/><path data-name="Shape" fill="#fff" stroke="#fff" stroke-linejoin="round" stroke-width="3" d="M15.53 39.12l9.88-7.92 6.76 7.38 6.56-3.83 8.06 6.83v5.37H15.53v-7.83z"/><circle data-name="Oval" cx="36.13" cy="24.92" r="2.73" fill="none" stroke="#fff" stroke-linejoin="round" stroke-width="3"/></svg>