<svg data-name="Layer 1" xmlns="http://www.w3.org/2000/svg" viewBox="0 0 41 41.02"><title>in-scroll</title><path d="M30.15 28.25v-7.39c0-3.83-2.08-5.61-4.77-5.61a4.2 4.2 0 0 0-3.75 2.08v-1.74h-4.09v12.66h4.09v-7.21a2.76 2.76 0 0 1 .16-1 2.3 2.3 0 0 1 2.15-1.52c1.48 0 2.12 1.14 2.12 2.82v6.91h4.09zm-16.39-19a2.1 2.1 0 0 0-2.22 2.19 2.1 2.1 0 0 0 2 2.19h.2a2.1 2.1 0 0 0 2.21-2v-.21a2.11 2.11 0 0 0-2-2.17h-.19zm-2.22 19.69V16.25h4.09v12.69h-4.09z" fill="#fff" stroke="#0829cc" stroke-miterlimit="10"/><path d="M40.46 19.25a20 20 0 1 1-39.92 0 20 20 0 0 1 39.92 0zm-1.26 0a18.71 18.71 0 1 0-5.49 13.21 18.7 18.7 0 0 0 5.49-13.21z" fill="#fff" stroke="#0829cc" stroke-miterlimit="10"/></svg>