<svg data-name="Layer 1" xmlns="http://www.w3.org/2000/svg" viewBox="0 0 39.93 39.93"><title>in</title><path d="M29.62 29.01v-7.39c0-3.83-2.08-5.61-4.77-5.61a4.2 4.2 0 0 0-3.75 2.08v-1.74h-4.09v12.66h4.09V21.8a2.76 2.76 0 0 1 .16-1 2.3 2.3 0 0 1 2.15-1.52c1.48 0 2.12 1.14 2.12 2.82v6.91h4.09zm-16.39-19a2.1 2.1 0 0 0-2.22 2.19 2.1 2.1 0 0 0 2 2.19h.2a2.1 2.1 0 0 0 2.21-2v-.21a2.11 2.11 0 0 0-2.19-2.17zM11.01 29.7V17.01h4.09V29.7h-4.09z" fill="#fff"/><path d="M39.93 20.01a20 20 0 1 1-39.92 0 20 20 0 0 1 39.92 0zm-1.26 0A18.7 18.7 0 0 0 6.74 6.74a18.71 18.71 0 1 0 31.93 13.27z" fill="#fff"/></svg>