<svg data-name="Layer 1" xmlns="http://www.w3.org/2000/svg" viewBox="0 0 39.92 39.92"><title>in</title><g data-name="if linkedin 313475" fill="#fff"><path d="M29.96 29.48v-7.42c0-3.83-2.08-5.61-4.77-5.61a4.21 4.21 0 0 0-3.74 2.08v-1.74h-4.08v12.69h4.09v-7.24a2.74 2.74 0 0 1 .16-1 2.3 2.3 0 0 1 2.14-1.52c1.49 0 2.12 1.14 2.12 2.82v6.94h4.08z"/><path data-name="Shape" d="M13.04 10.4a2.11 2.11 0 0 0-2.22 2.19 2.1 2.1 0 0 0 2.14 2.19 2.11 2.11 0 0 0 2.22-2.19 2.11 2.11 0 0 0-2.14-2.19z"/><path d="M10.86 16.78h4.09v12.69h-4.09z"/><path data-name="Shape" d="M19.96-.04a20 20 0 1 0 20 20 20 20 0 0 0-20-20zm13.23 33.23A18.71 18.71 0 0 1 6.73 6.73a18.71 18.71 0 0 1 26.46 26.46z"/></g></svg>