<svg data-name="Layer 1" xmlns="http://www.w3.org/2000/svg" viewBox="0 0 39.92 39.92"><title>inst</title><g data-name="if instagram 313477" fill="#fff"><path d="M19.96-.04a20 20 0 1 0 20 20 20 20 0 0 0-20-20zm13.23 33.23A18.71 18.71 0 0 1 6.73 6.73a18.71 18.71 0 0 1 26.46 26.46z"/><path data-name="Shape" d="M13.06 10.52h14a2.37 2.37 0 0 1 2.39 2.39v14.05a2.43 2.43 0 0 1-2.39 2.46h-14a2.48 2.48 0 0 1-2.45-2.46v-14a2.42 2.42 0 0 1 2.45-2.39zm11.33 2.09a.82.82 0 0 0-.84.82v2a.81.81 0 0 0 .84.82h2.13a.84.84 0 0 0 .87-.82v-2a.85.85 0 0 0-.87-.82h-2.13zm3 5.85h-1.67a5.51 5.51 0 0 1 .24 1.62 5.87 5.87 0 0 1-11.73 0 5.49 5.49 0 0 1 .24-1.62h-1.78v8a.82.82 0 0 0 .79.78h13.15a.79.79 0 0 0 .76-.78v-8zm-7.3-2.25a3.68 3.68 0 1 0 3.79 3.67 3.73 3.73 0 0 0-3.79-3.67z"/></g></svg>