<svg data-name="Layer 1" xmlns="http://www.w3.org/2000/svg" viewBox="0 0 39.93 39.93"><title>inst</title><path d="M39.93 20.01a20 20 0 1 1-19.92-20 20 20 0 0 1 20 20zm-1.26 0A18.7 18.7 0 0 0 6.74 6.74a18.71 18.71 0 1 0 31.93 13.27z" fill="#fff"/><path d="M27.49 11.01a2.37 2.37 0 0 1 2.39 2.35v14a2.43 2.43 0 0 1-2.39 2.45h-14a2.48 2.48 0 0 1-2.48-2.38v-14a2.42 2.42 0 0 1 2.45-2.42h14zm-3.54 2.91v2a.82.82 0 0 0 .84.82h2.13a.84.84 0 0 0 .87-.82v-2a.84.84 0 0 0-.87-.82h-2.13a.82.82 0 0 0-.84.8zm2.17 5a5.45 5.45 0 0 1 .24 1.63 5.87 5.87 0 0 1-11.73 0 5.4 5.4 0 0 1 .24-1.63H13.1v8a.81.81 0 0 0 .79.78h13.12a.8.8 0 0 0 .76-.78v-8h-1.65zm-5.62-2.24a3.67 3.67 0 1 0 3.79 3.67 3.73 3.73 0 0 0-3.79-3.65z" fill="#fff"/></svg>