<svg data-name="Layer 1" xmlns="http://www.w3.org/2000/svg" viewBox="0 0 29.94 29.94"><title>inst-scroll-mobile</title><path d="M14.97-.03a15 15 0 1 0 15 15 15 15 0 0 0-15-15zm9.92 24.89A14.018 14.018 0 0 1 5.05 5.05a14.029 14.029 0 0 1 19.84 19.84z"/><path data-name="Shape" d="M9.79 7.89h10.53a1.78 1.78 0 0 1 1.79 1.79V20.2a1.82 1.82 0 0 1-1.79 1.84H9.79a1.86 1.86 0 0 1-1.82-1.84V9.68a1.82 1.82 0 0 1 1.82-1.79zm8.5 1.57a.61.61 0 0 0-.63.62v1.53a.61.61 0 0 0 .63.61h1.6a.63.63 0 0 0 .65-.61v-1.53a.64.64 0 0 0-.65-.62h-1.6zm2.25 4.38h-1.25a4.13 4.13 0 0 1 .18 1.22 4.4 4.4 0 0 1-8.8 0 4.12 4.12 0 0 1 .18-1.22H9.52v6a.61.61 0 0 0 .59.59h9.86a.59.59 0 0 0 .57-.59v-6zm-5.47-1.68a2.76 2.76 0 1 0 2.84 2.75 2.8 2.8 0 0 0-2.84-2.75z"/></svg>