<svg data-name="Layer 1" xmlns="http://www.w3.org/2000/svg" viewBox="0 0 41.08 41"><title>inst-scroll</title><path d="M40.5 20.5a20 20 0 1 1-20-20h.08a20 20 0 0 1 20 20h-.08zm-1.26 0a18.71 18.71 0 1 0-5.49 13.21 18.7 18.7 0 0 0 5.49-13.21z" fill="#fff" stroke="#0829cc" stroke-miterlimit="10"/><path d="M28.07 11.5a2.37 2.37 0 0 1 2.39 2.35v14a2.43 2.43 0 0 1-2.39 2.45h-14a2.48 2.48 0 0 1-2.48-2.38v-14a2.42 2.42 0 0 1 2.42-2.42h14.06zm-3.54 2.91v2a.82.82 0 0 0 .82.82h2.15a.84.84 0 0 0 .87-.81v-2a.84.84 0 0 0-.86-.82h-2.15a.82.82 0 0 0-.84.8zm2.17 5a5.45 5.45 0 0 1 .23 1.58 5.87 5.87 0 0 1-11.73 0 5.4 5.4 0 0 1 .24-1.63h-1.77v8a.81.81 0 0 0 .79.78h13.12a.8.8 0 0 0 .76-.78v-8h-1.65zm-5.63-2.24a3.67 3.67 0 1 0 3.79 3.67 3.73 3.73 0 0 0-3.79-3.65z" fill="#fff" stroke="#0829cc" stroke-miterlimit="10"/></svg>