<svg width="40" height="40" viewBox="0 0 40 40" xmlns="http://www.w3.org/2000/svg"><title>blue full insta</title><g fill="none" fill-rule="evenodd"><path d="M20 .042C8.977.042.042 8.977.042 20 .042 31.023 8.977 39.958 20 39.958c11.023 0 19.958-8.935 19.958-19.958C39.958 8.977 31.023.042 20 .042z" fill="#0829CC" fill-rule="nonzero"/><path d="M13.1 10.564h14.03a2.37 2.37 0 0 1 2.39 2.386v14.03c0 1.332-1.058 2.456-2.39 2.456H13.1c-1.333 0-2.453-1.124-2.453-2.456V12.95c0-1.333 1.12-2.386 2.452-2.386zm11.327 2.087a.817.817 0 0 0-.836.823v2.034c0 .467.368.818.836.818h2.133c.468 0 .872-.35.872-.818v-2.034c0-.468-.404-.823-.872-.823h-2.133zm3.005 5.846h-1.674a5.51 5.51 0 0 1 .241 1.626c0 3.14-2.627 5.687-5.867 5.687s-5.867-2.55-5.867-5.689c0-.563.085-1.123.242-1.624h-1.772v7.985c0 .413.376.783.79.783h13.143c.413 0 .764-.37.764-.783v-7.985zm-7.3-2.246c-2.093 0-3.79 1.644-3.79 3.673 0 2.028 1.697 3.673 3.79 3.673 2.094 0 3.791-1.645 3.791-3.673 0-2.029-1.697-3.673-3.79-3.673z" fill="#FFF"/></g></svg>