<svg width="32" height="32" viewBox="0 0 32 32" xmlns="http://www.w3.org/2000/svg"><title>if_Rounded-15_2024660</title><g fill="none" fill-rule="evenodd"><path d="M1 16c0 8.284 6.716 15 15 15 8.284 0 15-6.716 15-15 0-8.284-6.716-15-15-15C7.716 1 1 7.716 1 16z" stroke="#FFF" stroke-width="1.3"/><path d="M16.905 19.206c.468-.042 1.383-.9 1.875-.937.466-.042.93.092 1.303.375l1.256.937.755.6a1.181 1.181 0 0 1 .201 1.697l-1.457 1.875a.525.525 0 0 1-.47.202c-6.327-.567-11.362-5.747-11.362-12.038 0-1.11.158-2.215.469-3.281a.31.31 0 0 1 .234-.211l2.77-.39a1.233 1.233 0 0 1 1.463.938l.183.933.305 1.528c.09.45.001.918-.249 1.304-.253.393-1.448.787-1.706 1.185a9.09 9.09 0 0 0 4.43 5.358v-.075z" fill="#FFF"/></g></svg>