<svg data-name="Layer 1" xmlns="http://www.w3.org/2000/svg" viewBox="0 0 41.3 41.3"><title>page-footer__contacts-tel</title><g data-name="if Rounded-15 2024660"><path d="M.65 20.65a20 20 0 1 0 20-20 20 20 0 0 0-20 20z" fill="none" stroke="#fff" stroke-width="1.3"/><path data-name="Shape" d="M21.86 24.92c.63-.06 1.84-1.2 2.5-1.25a2.5 2.5 0 0 1 1.74.5l1.67 1.25 1 .8a1.57 1.57 0 0 1 .27 2.26l-1.94 2.5a.7.7 0 0 1-.62.27c-8.44-.76-15.15-7.66-15.15-16.05a15.63 15.63 0 0 1 .63-4.38.41.41 0 0 1 .31-.28l3.69-.52a1.64 1.64 0 0 1 1.95 1.25l.24 1.24.41 2a2.34 2.34 0 0 1-.33 1.74c-.34.53-1.93 1-2.27 1.58a12.12 12.12 0 0 0 5.91 7.14v-.1z" fill="#fff"/></g></svg>