<svg id="Layer_1" data-name="Layer 1" xmlns="http://www.w3.org/2000/svg" viewBox="0 0 32 32"><defs><style>.cls-1{fill:none}.cls-2{clip-path:url(#clip-path)}.cls-3{fill:#006838}.cls-4{fill:#ff7956}.cls-5{fill:#ed1c24}</style><clipPath id="clip-path"><path class="cls-1" d="M0 0h32v32H0z"/></clipPath></defs><title>24-hours</title><g class="cls-2"><path class="cls-3" d="M31.47 28.8h-1.6V18.67a.53.53 0 0 0-1-.31L21.43 29a.53.53 0 0 0 .44.84h6.93v1.6a.53.53 0 0 0 1.07 0v-1.6h1.6a.53.53 0 0 0 0-1.07zm-2.67-8.44v8.44h-5.91z"/><path class="cls-3" d="M21.87 30.93h-6.32L21.42 24a3.71 3.71 0 0 0-.84-5 4.27 4.27 0 0 0-6.76 3.47.53.53 0 0 0 1.07 0A3.2 3.2 0 0 1 20 19.8a2.63 2.63 0 0 1 .59 3.55L14 31.12a.53.53 0 0 0 .41.88h7.47a.53.53 0 0 0 0-1.07z"/><path class="cls-4" d="M14.41 28.28a.53.53 0 0 0-.51-.55 13.32 13.32 0 0 1-12.81-12.8H3.2a.53.53 0 1 0 0-1.07H1.09A13.3 13.3 0 0 1 13.87 1.09v1.58a.53.53 0 0 0 1.07 0V1.09a13.31 13.31 0 0 1 12.77 12.53l-2.08-2.08a.53.53 0 0 0-.75.75l3 3a.53.53 0 0 0 .21.15h.36a.53.53 0 0 0 .19-.12l3-3a.53.53 0 0 0-.75-.75l-2.13 2.13A14.38 14.38 0 0 0 14.44 0h-.08A14.37 14.37 0 0 0 0 14.36a14.39 14.39 0 0 0 13.86 14.43.53.53 0 0 0 .55-.51z"/><path class="cls-5" d="M21.56 7.23a.53.53 0 0 0-.75 0L15.08 13a1.67 1.67 0 0 0-1.36 0L11 10.25a.53.53 0 0 0-.75.75L13 13.71a1.6 1.6 0 1 0 2.88 0L21.56 8a.53.53 0 0 0 0-.77zm-6.79 7.54a.55.55 0 0 1-.75 0 .53.53 0 1 1 .75 0z"/></g></svg>