<svg id="Layer_1" data-name="Layer 1" xmlns="http://www.w3.org/2000/svg" viewBox="0 0 80 80"><defs><style>.cls-1{fill:none}.cls-2{clip-path:url(#clip-path)}.cls-3{fill:#613394}.cls-4{fill:#4b1b7a}.cls-5{fill:#fff}.cls-6{fill:#e9edf5}.cls-7{fill:#ffbec3}.cls-8{fill:#ffcdd2}.cls-9{fill:#ff0068}.cls-10{fill:#e50e70}</style><clipPath id="clip-path"><path class="cls-1" d="M0 0h80v80H0z"/></clipPath></defs><title>bra</title><g class="cls-2"><path class="cls-3" d="M40.38 0A40 40 0 1 0 80 40.37 40 40 0 0 0 40.38 0z"/><path class="cls-4" d="M80 40.38a40.29 40.29 0 0 0-.37-5.82l-13-13-10.7 30.5-35.64-35.64-5.77 38.4L39.7 80A40 40 0 0 0 80 40.38z"/><path class="cls-5" d="M20.67 58.89l-2.58-1.3a11.67 11.67 0 0 1-5.18-15.66l2.81-5.58 23.42 11.79-2.81 5.58a11.67 11.67 0 0 1-15.66 5.17z"/><path class="cls-6" d="M59 59.25L61.59 58a11.67 11.67 0 0 0 5.47-15.56l-2.7-5.63-23.65 11.34 2.7 5.63A11.67 11.67 0 0 0 59 59.25z"/><path class="cls-7" d="M60.15 16.79l-.21 22.13-19.23 9.23 2.08 4.33 23.64-11.35.18-19.59z"/><path class="cls-8" d="M20.29 16.42L13.74 21l-.18 19.59L37 52.42l2.16-4.29-19.07-9.58z"/><path class="cls-9" d="M34.59 48.67a2.75 2.75 0 0 1 5.34-.9 2.75 2.75 0 0 1 5.32 1c0 4-5.39 6-5.39 6s-5.31-2.19-5.27-6.1z"/><path class="cls-10" d="M39.87 54.82s5.35-2.06 5.39-6a2.75 2.75 0 0 0-5.32-1z"/></g></svg>