<svg id="Layer_1" data-name="Layer 1" xmlns="http://www.w3.org/2000/svg" viewBox="0 0 40 39.99"><defs><style>.cls-1{fill:none}.cls-2{clip-path:url(#clip-path)}.cls-3{fill:#af8066}.cls-4{fill:#7f8c8d}.cls-5{fill:#7f5b53}.cls-6{fill:#cbb292}.cls-7{fill:#fdd7ad}.cls-8{fill:#ff5364}.cls-9{fill:#fb7b76}</style><clipPath id="clip-path"><path class="cls-1" d="M0 0h40v40H0z"/></clipPath></defs><title>donation</title><g class="cls-2"><path class="cls-3" d="M11 12.87l-6.88 3L0 19.31l4.14 1.8v12L20 40l15.86-6.9V21L40 19.25l-4.14-3.45v.06l-6.78-2.94"/><path class="cls-4" d="M35.86 15.86L20 22.74 4.14 15.86l6.88-3c2 2.71 5.83 5.32 9.06 7.13 3.21-1.8 7-4.39 9-7.08z"/><path class="cls-3" d="M35.86 33v.06L20 40V22.76l4.09 3.41L35.86 21z"/><path class="cls-5" d="M20 22.76V40L4.14 33.1v-12l11.72 5.1z"/><path class="cls-6" d="M20 22.76l-4.14 3.44-11.72-5.09L0 19.31l4.14-3.45z"/><path class="cls-7" d="M40 19.25L35.86 21l-11.72 5.1L20 22.74l15.81-6.88v-.06z"/><path class="cls-8" d="M29.88 11.71a8.85 8.85 0 0 1-.8 1.2c-2 2.69-5.81 5.28-9 7.08-3.22-1.81-7-4.42-9.06-7.13a9.42 9.42 0 0 1-.76-1.15c-2.45-4.14-2.45-8.28 0-10.36a6.62 6.62 0 0 1 9.81 2.08 6.62 6.62 0 0 1 9.81-2.08c2.46 2.08 2.46 6.22 0 10.36z"/><path class="cls-9" d="M13.79 4.83a.69.69 0 0 1-.69-.69v-.69a.69.69 0 1 1 1.38 0v.69a.69.69 0 0 1-.69.69zm0 3.44a.69.69 0 0 1-.69-.69v-.69a.69.69 0 1 1 1.38 0v.69a.69.69 0 0 1-.69.69zM12.41 6.2h-.69a.69.69 0 1 1 0-1.38h.69a.69.69 0 1 1 0 1.38zm3.45 0h-.69a.69.69 0 1 1 0-1.38h.69a.69.69 0 1 1 0 1.38z"/></g></svg>