<svg id="Layer_1" data-name="Layer 1" xmlns="http://www.w3.org/2000/svg" viewBox="0 0 285 278.25"><defs><style>.cls-1{fill:none}.cls-2{clip-path:url(#clip-path)}.cls-3{opacity:.12}.cls-4{fill:#d8143a}.cls-5{fill:#5a2479}.cls-6{fill:#ff3f62}.cls-7{fill:#8034ad}</style><clipPath id="clip-path" transform="translate(0 -3.37)"><path class="cls-1" d="M0 0h285v285H0z"/></clipPath></defs><title>genders</title><g class="cls-2"><g class="cls-3"><path class="cls-4" d="M180.16 120.81a89.78 89.78 0 0 0-25.67-62.9 63.9 63.9 0 0 0-25.85 11.65 63.92 63.92 0 1 1-25.85-11.65 90.51 90.51 0 0 1 25.85-18.5A90.07 90.07 0 1 0 77.12 210v16.8h-16a13 13 0 0 0 0 25.91h16v16a13 13 0 0 0 25.91 0v-16h16a13 13 0 0 0 0-25.91H103V210a89.34 89.34 0 0 0 25.61-7.75 90.33 90.33 0 0 0 51.52-81.39z" transform="translate(0 -3.37)"/><path class="cls-5" d="M284.85 14.49c0-.23-.06-.46-.1-.69s-.1-.43-.16-.65-.09-.39-.15-.58-.15-.42-.22-.64-.13-.38-.2-.56-.18-.39-.27-.59-.17-.38-.27-.56-.22-.38-.34-.57-.2-.35-.31-.52-.31-.43-.47-.64-.18-.25-.28-.38c-.27-.33-.56-.65-.86-1s-.63-.6-1-.87l-.31-.24c-.22-.17-.45-.34-.68-.5l-.47-.29c-.21-.12-.41-.25-.62-.36l-.5-.24c-.22-.1-.43-.21-.65-.3l-.49-.18c-.24-.09-.47-.18-.71-.25l-.47-.12c-.25-.07-.51-.14-.76-.19l-.5-.08c-.25 0-.5-.08-.75-.11s-.51 0-.76 0h-41.4a13 13 0 1 0 0 25.91h9.63L221.26 48.8a90 90 0 0 0-118.47 134.91 63.92 63.92 0 0 0 25.85-11.65 63.92 63.92 0 1 1 25.85 11.65 90.52 90.52 0 0 1-25.85 18.5 90 90 0 0 0 110.88-135l19.57-19.61v9.63a13 13 0 0 0 25.91 0V16.34c0-.43 0-.86-.06-1.28-.02-.2-.06-.39-.09-.57z" transform="translate(0 -3.37)"/><path class="cls-6" d="M90.08 56.64a64.18 64.18 0 0 1 12.71 1.27 90.52 90.52 0 0 1 25.85-18.5A90.06 90.06 0 0 0 0 120.67h25.92a64.24 64.24 0 0 1 64.16-64.03zm38.56 12.92a64.11 64.11 0 0 1 25.6 51.11h25.91a89.77 89.77 0 0 0-25.66-62.75 63.91 63.91 0 0 0-25.85 11.64z" transform="translate(0 -3.37)"/><path class="cls-7" d="M259.09 47.61v9.63a13 13 0 0 0 25.91 0v-40.9c0-.43 0-.86-.06-1.28 0-.19-.05-.38-.08-.57s-.06-.46-.1-.69-.1-.43-.16-.65-.09-.39-.15-.58-.15-.42-.22-.64-.13-.38-.2-.56-.18-.39-.27-.59-.17-.38-.27-.56-.22-.38-.34-.57-.2-.35-.31-.52-.31-.43-.47-.64-.18-.25-.28-.38c-.27-.33-.56-.65-.86-1s-.63-.6-1-.87l-.34-.25c-.22-.17-.45-.34-.68-.5l-.47-.29c-.21-.12-.41-.25-.62-.36l-.5-.24c-.22-.1-.43-.21-.65-.3l-.49-.18c-.24-.09-.47-.18-.71-.25l-.47-.12c-.25-.07-.51-.14-.76-.19l-.5-.08c-.25 0-.5-.08-.75-.11s-.51 0-.76 0h-41.4a13 13 0 1 0 0 25.91h9.63l-19.5 19.52a90.09 90.09 0 0 0-144.13 72H103a64.17 64.17 0 0 1 128.34 0h25.91a89.61 89.61 0 0 0-17.76-53.64z" transform="translate(0 -3.37)"/></g></g></svg>