<svg id="Layer_1" data-name="Layer 1" xmlns="http://www.w3.org/2000/svg" viewBox="0 0 15 13.03"><defs><style>.cls-1{fill:none}.cls-2{clip-path:url(#clip-path)}.cls-3{fill:#ff004e}</style><clipPath id="clip-path" transform="translate(0 -.57)"><path class="cls-1" d="M0 0h15v14.17H0z"/></clipPath></defs><title>heart-active</title><g class="cls-2"><path class="cls-3" d="M7.45 2.87a3.93 3.93 0 0 1 3.6-2.3A4 4 0 0 1 15 4.4a3.61 3.61 0 0 1-.13 1.45 6.36 6.36 0 0 1-2.07 3.26L7.45 13.6 2.22 9.11A6.36 6.36 0 0 1 .15 5.85 3.61 3.61 0 0 1 0 4.4 4 4 0 0 1 3.95.57a3.8 3.8 0 0 1 3.5 2.3z" transform="translate(0 -.57)"/></g></svg>