<svg id="Layer_1" data-name="Layer 1" xmlns="http://www.w3.org/2000/svg" viewBox="0 0 15 13.35"><defs><style>.cls-1{fill:none}.cls-2{clip-path:url(#clip-path)}.cls-3{fill:#ff004e}</style><clipPath id="clip-path" transform="translate(0 -.82)"><path class="cls-1" d="M0 0h15v15H0z"/></clipPath></defs><title>heart-no-active</title><g class="cls-2"><path class="cls-3" d="M7.5 14.17a.88.88 0 0 1-.58-.22l-1.71-1.47A31.73 31.73 0 0 1 1.49 9 5.58 5.58 0 0 1 0 5.33a4.69 4.69 0 0 1 1.19-3.2 4 4 0 0 1 3-1.31 3.77 3.77 0 0 1 2.36.81 4.82 4.82 0 0 1 1 1 4.82 4.82 0 0 1 1-1 3.77 3.77 0 0 1 2.26-.81 4 4 0 0 1 3 1.31A4.69 4.69 0 0 1 15 5.33 5.58 5.58 0 0 1 13.51 9a31.72 31.72 0 0 1-3.72 3.5l-1.71 1.45a.88.88 0 0 1-.58.22zM4.19 1.7a3.16 3.16 0 0 0-2.35 1 3.81 3.81 0 0 0-1 2.61 4.7 4.7 0 0 0 1.32 3.11 31.22 31.22 0 0 0 3.62 3.39l1.72 1.48 1.72-1.48a31.22 31.22 0 0 0 3.62-3.39 4.7 4.7 0 0 0 1.29-3.09 3.81 3.81 0 0 0-1-2.61 3.16 3.16 0 0 0-2.35-1A2.91 2.91 0 0 0 9 2.33 4.26 4.26 0 0 0 8 3.5a.55.55 0 0 1-1 0 4.26 4.26 0 0 0-1-1.17 2.91 2.91 0 0 0-1.81-.63z" transform="translate(0 -.82)"/></g></svg>