<svg id="Layer_1" data-name="Layer 1" xmlns="http://www.w3.org/2000/svg" viewBox="0 0 57.65 41.84"><defs><style>.cls-1{fill:none;stroke:#ffa3c7;stroke-linecap:round;stroke-linejoin:round;stroke-width:3px}</style></defs><title>hearts</title><path class="cls-1" d="M56.26 25.45c3-12.78-12.66-15.67-15.18-5.06-1.1-4.71-4.68-7-8.16-6.83-1.26 4.36-4.42 7.13-7.62 10.15C26.53 28.92 35 37.53 41.73 41 46.8 37.18 55 30.66 56.26 25.45z" transform="translate(-.5 -.66)"/><path class="cls-1" d="M25.17 23.81c3.63-3.23 7-6.87 7.69-10C35.87 1 20.21-1.88 17.69 8.74 15.17-2-.63.93 2.38 13.71c1.23 5.21 10.88 11.81 15.95 15.63 1.99-1.51 4.48-3.43 6.84-5.53z" transform="translate(-.5 -.66)"/></svg>