<svg id="Layer_1" data-name="Layer 1" xmlns="http://www.w3.org/2000/svg" viewBox="0 0 85.1 61.97"><defs><style>.cls-1,.cls-2{fill:none;stroke-linecap:round;stroke-linejoin:round;stroke-width:5.1px}.cls-1{stroke:#8034ad}.cls-2{stroke:#ff004e}</style></defs><title>hearts-navigation</title><path class="cls-1" d="M82.44 37.11c4.41-18.71-18.53-22.94-22.22-7.4-1.62-6.89-6.86-10.29-12-10-1.84 6.39-6.48 10.44-11.15 14.85 1.8 7.62 14.2 20.23 24 25.31 7.42-5.59 19.48-15.14 21.28-22.76z" transform="translate(-.45 -.45)"/><path class="cls-2" d="M36.92 34.71C42.23 30 47.09 24.65 48.18 20 52.59 1.33 29.65-2.9 26 12.63 22.28-3.09-.85 1.2 3.56 19.91 5.35 27.53 19.48 37.2 26.9 42.79c2.92-2.2 6.57-5.01 10.02-8.08z" transform="translate(-.45 -.45)"/></svg>