<svg id="Layer_1" data-name="Layer 1" xmlns="http://www.w3.org/2000/svg" viewBox="0 0 53.44 60"><defs><style>.cls-1{fill:none}.cls-2{clip-path:url(#clip-path)}.cls-3{fill:#c9c7c7}</style><clipPath id="clip-path" transform="translate(-3.28)"><path class="cls-1" d="M0 0h60v60H0z"/></clipPath></defs><title>manager</title><g class="cls-2"><path class="cls-3" d="M45.82 48.75a1.17 1.17 0 1 1-1.17-1.17 1.17 1.17 0 0 1 1.17 1.17zM37 21.8a1.17 1.17 0 1 1-1.17-1.17A1.17 1.17 0 0 1 37 21.8zm-11.69 0a1.17 1.17 0 1 1-1.17-1.17 1.17 1.17 0 0 1 1.17 1.17zm-8.79 26.95a1.17 1.17 0 1 1-1.17-1.17 1.17 1.17 0 0 1 1.17 1.17z" transform="translate(-3.28)"/><path class="cls-3" d="M12.45 37.61a5.87 5.87 0 0 0-4.27 4L3.33 58.5A1.17 1.17 0 0 0 4.45 60h51.1a1.17 1.17 0 0 0 1.13-1.5l-4.86-16.87a5.88 5.88 0 0 0-4.27-4l-12.11-2.87a14.08 14.08 0 0 0 8.62-13v-7.7a14.06 14.06 0 0 0-28.12 0v7.74a14.08 14.08 0 0 0 8.62 13zm12-.42l3.76 4.29-4.71 3.16-2.74-6.58zm5.55-1.3l2.94.69L30 39.94l-2.94-3.36zm9.24 2.17l-2.74 6.58-4.74-3.16 3.76-4.29zM28.52 49.92h2.85l1.8 7.73h-6.5zm2.94-2.34h-3l-.77-2.94L30 43.13l2.41 1.61zm-21-5.28A3.52 3.52 0 0 1 13 39.89l5.47-1.29 3.44 8.25a1.17 1.17 0 0 0 1.73.52l2-1.37.72 2.75-2.14 8.89H14.17l1.07-4.09A1.17 1.17 0 1 0 13 53l-1.23 4.68H6zm39.15 0L54 57.66h-5.75L47 53a1.17 1.17 0 1 0-2.27.59l1.07 4.09H35.58l-2.06-8.85.91-2.73 2 1.3a1.17 1.17 0 0 0 1.73-.52l3.44-8.25 5.4 1.26a3.53 3.53 0 0 1 2.57 2.41zM30 2.34a11.71 11.71 0 0 1 11.72 11.72H38.2a3.52 3.52 0 0 1-3.52-3.52 1.17 1.17 0 0 0-2-.83 14.74 14.74 0 0 1-10.48 4.35h-3.92A11.73 11.73 0 0 1 30 2.34zM18.28 21.8v-5.39h3.92a17 17 0 0 0 10.58-3.64 5.86 5.86 0 0 0 5.43 3.64h3.52v5.39a11.72 11.72 0 0 1-23.44 0z" transform="translate(-3.28)"/><path class="cls-3" d="M33.52 27.66a1.17 1.17 0 0 0-1.17-1.17h-4.69a1.17 1.17 0 0 0 0 2.34h4.69a1.17 1.17 0 0 0 1.17-1.17z" transform="translate(-3.28)"/></g></svg>