<svg id="Layer_1" data-name="Layer 1" xmlns="http://www.w3.org/2000/svg" viewBox="0 0 80 72.31"><defs><style>.cls-1{fill:#53433f}.cls-2{fill:#ec407a}.cls-3{fill:#d81b60}</style></defs><title>mask</title><path class="cls-1" d="M12.36 30.82A12.07 12.07 0 0 1 4.62 19.6a2.31 2.31 0 1 0-4.62 0v49.69a6.92 6.92 0 0 0 13.85 0V33a2.31 2.31 0 0 0-1.49-2.18z" transform="translate(0 -3.91)"/><path class="cls-2" d="M25.69 3.91H2.31A2.31 2.31 0 0 0 0 6.21V19.6a16.63 16.63 0 0 0 16.62 16.61h10.3L38.62 45a2.3 2.3 0 0 0 1.38.46L41.54 27 40 12.08a16.62 16.62 0 0 0-14.31-8.17zm7.38 20.77a2.31 2.31 0 0 1-2.3 2.32H16.62a7.39 7.39 0 0 1-7.39-7.4v-4.16a2.31 2.31 0 0 1 2.31-2.31h14.15a7.39 7.39 0 0 1 7.38 7.38z" transform="translate(0 -3.91)"/><path class="cls-3" d="M77.69 3.91H54.31A16.62 16.62 0 0 0 40 12.08v33.36a2.3 2.3 0 0 0 1.38-.44l11.69-8.77h10.31A16.63 16.63 0 0 0 80 19.6V6.21a2.31 2.31 0 0 0-2.31-2.3zM70.77 19.6a7.39 7.39 0 0 1-7.39 7.4H49.23a2.31 2.31 0 0 1-2.31-2.31v-4.17a7.39 7.39 0 0 1 7.38-7.38h14.16a2.31 2.31 0 0 1 2.31 2.31z" transform="translate(0 -3.91)"/></svg>