<svg id="Layer_1" data-name="Layer 1" xmlns="http://www.w3.org/2000/svg" viewBox="0 0 50 30"><defs><style>.cls-1{fill:none}.cls-2{clip-path:url(#clip-path)}.cls-3{fill:#ffb600}.cls-4{fill:#f7981d}.cls-5{fill:#ff8500}.cls-6{fill:#ff5050}.cls-7{fill:#e52836}.cls-8{fill:#cb2026}.cls-9{fill:#fff}.cls-10{fill:#dce5e5}</style><clipPath id="clip-path" transform="translate(0 -10)"><path class="cls-1" d="M0 0h50v50H0z"/></clipPath></defs><title>mastercard-content</title><g class="cls-2"><path class="cls-3" d="M50 25a15 15 0 1 1-15.08-15A15 15 0 0 1 50 25z" transform="translate(0 -10)"/><path class="cls-4" d="M35 10a15 15 0 1 1-15 15" transform="translate(0 -10)"/><path class="cls-5" d="M35 10a15 15 0 1 1 0 30" transform="translate(0 -10)"/><path class="cls-6" d="M14.84 10A15 15 0 0 0 15 40a15.17 15.17 0 0 0 10.08-3.89 14.26 14.26 0 0 0 1.51-1.59h-3.1A18.28 18.28 0 0 1 22.38 33h5.32a10.16 10.16 0 0 0 .87-1.59h-7.06a9.46 9.46 0 0 1-.63-1.59h8.25a15.76 15.76 0 0 0 .79-4.76 20.49 20.49 0 0 0-.32-3.17h-9.2a11.59 11.59 0 0 1 .4-1.59H29a9.45 9.45 0 0 0-.63-1.59h-7a15.72 15.72 0 0 1 .87-1.59h5.32a7.54 7.54 0 0 0-1.19-1.59h-2.88A13.52 13.52 0 0 1 25 14a14.65 14.65 0 0 0-10.08-3.89c0-.11 0-.11-.08-.11z" transform="translate(0 -10)"/><path class="cls-7" d="M0 25a15 15 0 0 0 15 15 15.17 15.17 0 0 0 10.08-3.89 14.26 14.26 0 0 0 1.51-1.59h-3.1A18.28 18.28 0 0 1 22.38 33h5.32a10.17 10.17 0 0 0 .87-1.59h-7.06a9.46 9.46 0 0 1-.63-1.59h8.25a15.76 15.76 0 0 0 .79-4.76 20.49 20.49 0 0 0-.32-3.17h-9.2a11.59 11.59 0 0 1 .4-1.59H29a9.45 9.45 0 0 0-.63-1.59h-7a15.72 15.72 0 0 1 .87-1.59h5.32a7.54 7.54 0 0 0-1.19-1.59h-2.88A13.52 13.52 0 0 1 25 14a14.65 14.65 0 0 0-10.08-3.89h-.08" transform="translate(0 -10)"/><path class="cls-8" d="M15 40a15.17 15.17 0 0 0 10.08-3.89 14.26 14.26 0 0 0 1.51-1.59h-3.1A18.3 18.3 0 0 1 22.38 33h5.32a10.17 10.17 0 0 0 .87-1.59h-7.06a9.47 9.47 0 0 1-.63-1.59h8.25a15.76 15.76 0 0 0 .79-4.76 20.49 20.49 0 0 0-.32-3.17h-9.2a11.58 11.58 0 0 1 .4-1.59H29a9.45 9.45 0 0 0-.63-1.59h-7a15.74 15.74 0 0 1 .87-1.59h5.32a7.55 7.55 0 0 0-1.19-1.59h-2.88A13.53 13.53 0 0 1 25 14a14.65 14.65 0 0 0-10.08-3.89h-.08" transform="translate(0 -10)"/><path class="cls-9" d="M20.32 28.81l.24-1.35a3.43 3.43 0 0 1-.4.08c-.56 0-.63-.32-.56-.48l.48-2.78H21l.24-1.51h-.84l.16-1H19s-1 5.24-1 5.87A1.19 1.19 0 0 0 19.28 29a2.44 2.44 0 0 0 1.04-.19z" transform="translate(0 -10)"/><path class="cls-9" d="M20.87 26.27A2.52 2.52 0 0 0 23.65 29a4.12 4.12 0 0 0 1.67-.24l.32-1.51a4.76 4.76 0 0 1-1.67.4c-1.75 0-1.43-1.27-1.43-1.27h3.25A10.29 10.29 0 0 0 26 25a2.15 2.15 0 0 0-2.3-2.3c-1.64-.16-2.83 1.59-2.83 3.57zM23.65 24c.87 0 .71 1 .71 1.11h-1.74c0-.11.16-1.11 1.03-1.11zm10.08 4.81l.27-1.75a3.9 3.9 0 0 1-1.35.4c-1.11 0-1.59-.87-1.59-1.83 0-1.9 1-2.94 2.06-2.94a2.65 2.65 0 0 1 1.43.48l.24-1.67a5.58 5.58 0 0 0-1.83-.4c-1.83 0-3.65 1.59-3.65 4.6 0 2 1 3.33 2.86 3.33a7.12 7.12 0 0 0 1.56-.22zm-22.14-6.27a5.62 5.62 0 0 0-1.9.32l-.24 1.35a4.69 4.69 0 0 1 1.75-.32c.56 0 1 .08 1 .56 0 .32-.08.4-.08.4h-.71c-1.35 0-2.86.56-2.86 2.38 0 1.43 1 1.75 1.51 1.75a2.38 2.38 0 0 0 1.67-.71l-.08.64h1.43l.64-4.37a1.88 1.88 0 0 0-2.13-2zm.32 3.57c0 .24-.16 1.51-1.11 1.51a.62.62 0 0 1-.63-.63c0-.4.24-1 1.43-1a1.25 1.25 0 0 0 .3.12zM15.24 29a2 2 0 0 0 2.38-2.06c0-2-1.9-1.59-1.9-2.38 0-.4.32-.56.87-.56.24 0 1.11.08 1.11.08l.24-1.43a6 6 0 0 0-1.51-.16c-1.19 0-2.38.48-2.38 2.06 0 1.83 2 1.67 2 2.38 0 .48-.56.56-1 .56a5.19 5.19 0 0 1-1.43-.24l-.24 1.43c.11.13.51.32 1.86.32zm31.66-7.73l-.32 2.14a2.2 2.2 0 0 0-1.51-.79c-1.43 0-2.7 1.75-2.7 3.81 0 1.27.63 2.62 2 2.62a2.12 2.12 0 0 0 1.51-.63l-.08.56h1.59l1.19-7.62zm-.71 4.21c0 .87-.4 2-1.27 2-.56 0-.87-.48-.87-1.27 0-1.27.56-2.06 1.27-2.06.55-.02.87.37.87 1.33zM2.94 28.89l1-5.71.06 5.71h1.16l2.06-5.71-.87 5.71H8l1.27-7.62h-2.6L5.08 26 5 21.27H2.7l-1.27 7.62zm24.6 0c.48-2.62.56-4.76 1.67-4.37a6.23 6.23 0 0 1 .56-1.83h-.32c-.71 0-1.27 1-1.27 1l.16-.87h-1.52l-1 6.19h1.75zm9.84-6.35a5.62 5.62 0 0 0-1.9.32l-.24 1.35a4.69 4.69 0 0 1 1.76-.32c.56 0 1 .08 1 .56 0 .32-.08.4-.08.4h-.71c-1.35 0-2.86.56-2.86 2.38 0 1.43 1 1.75 1.51 1.75a2.38 2.38 0 0 0 1.67-.71l-.08.64h1.43l.63-4.37a1.85 1.85 0 0 0-2.13-2zm.4 3.57c0 .24-.16 1.51-1.11 1.51A.62.62 0 0 1 36 27c0-.4.24-1 1.43-1 .27.11.27.11.35.11zm3.09 2.78c.48-2.62.56-4.76 1.67-4.37a6.23 6.23 0 0 1 .56-1.83h-.32c-.71 0-1.27 1-1.27 1l.16-.87h-1.51l-1 6.19h1.75z" transform="translate(0 -10)"/><path class="cls-10" d="M17.86 27.7a1.19 1.19 0 0 0 1.27 1.3 3 3 0 0 0 1.19-.24l.24-1.35a3.44 3.44 0 0 1-.4.08c-.56 0-.63-.32-.56-.48l.48-2.78H21l.24-1.51h-.84l.16-1m1.11 4.55c0 2.22.71 2.78 2 2.78a4.12 4.12 0 0 0 1.67-.24l.32-1.51a4.76 4.76 0 0 1-1.67.4c-1.75 0-1.43-1.27-1.43-1.27h3.25A10.29 10.29 0 0 0 26 25a2.15 2.15 0 0 0-2.3-2.3c-1.64-.16-2.03 1.59-2.03 3.57zm2-2.3c.87 0 1 1 1 1.11h-2.05c0-.08.16-1.08 1.03-1.08zm10.06 4.84l.27-1.75a3.9 3.9 0 0 1-1.35.4c-1.11 0-1.59-.87-1.59-1.83 0-1.9 1-2.94 2.06-2.94a2.65 2.65 0 0 1 1.43.48l.24-1.67a5.58 5.58 0 0 0-1.83-.4c-1.83 0-2.86 1.59-2.86 4.6 0 2 .16 3.33 2.06 3.33a7.12 7.12 0 0 0 1.57-.22zM9.44 24.29a4.69 4.69 0 0 1 1.75-.29c.56 0 1 .08 1 .56 0 .32-.08.4-.08.4h-.71c-1.35 0-2.86.56-2.86 2.38 0 1.43 1 1.75 1.51 1.75a2.38 2.38 0 0 0 1.67-.71l-.08.64h1.43l.64-4.37c0-1.83-1.59-1.9-2.22-1.9zm3.25 1.83a2.6 2.6 0 0 1-1.9 1.51.62.62 0 0 1-.63-.64c0-.4.24-1 1.43-1a6.49 6.49 0 0 0 1.11.12zm.8 2.69a6.72 6.72 0 0 0 1.83.16 2 2 0 0 0 2.38-2.07c0-2-1.9-1.59-1.9-2.38 0-.4.32-.56.87-.56.24 0 1.11.08 1.11.08l.22-1.42a6 6 0 0 0-1.51-.16c-1.19 0-1.59.48-1.59 2.06 0 1.83 1.19 1.67 1.19 2.38 0 .48-.56.56-1 .56m31.5-4.05a2.2 2.2 0 0 0-1.51-.79c-1.43 0-1.9 1.75-1.9 3.81C43.17 27.7 43 29 44.36 29a2.12 2.12 0 0 0 1.51-.63l-.08.56h1.59l1.19-7.62zm-.08 2.06c0 .87-.71 2-1.59 2-.56 0-.87-.48-.87-1.27 0-1.27.56-2.06 1.27-2.06a1.21 1.21 0 0 1 1.19 1.34zM2.94 28.89l1-5.71.06 5.71h1.16l2.06-5.71-.87 5.71H8l1.27-7.62h-2L5.08 26 5 21.27h-.87l-2.7 7.62zm22.93 0h1.67c.48-2.62.56-4.76 1.67-4.37a6.23 6.23 0 0 1 .56-1.83h-.32c-.71 0-1.27 1-1.27 1l.16-.87m6.9 1.47A4.69 4.69 0 0 1 37 24c.56 0 1 .08 1 .56 0 .32-.08.4-.08.4h-.71c-1.35 0-2.86.56-2.86 2.38 0 1.43 1 1.75 1.51 1.75a2.38 2.38 0 0 0 1.67-.71l-.08.64h1.43l.63-4.37c0-1.83-1.59-1.9-2.22-1.9zm3.25 1.83a2.6 2.6 0 0 1-1.9 1.51A.62.62 0 0 1 36 27c0-.4.24-1 1.43-1a7 7 0 0 0 1.06.11zm.72 2.77h1.67c.48-2.62.56-4.76 1.67-4.37a6.23 6.23 0 0 1 .56-1.83h-.32c-.71 0-1.27 1-1.27 1l.16-.87" transform="translate(0 -10)"/></g></svg>