<svg id="Layer_1" data-name="Layer 1" xmlns="http://www.w3.org/2000/svg" viewBox="0 0 64 37.99"><defs><style>.cls-1{fill:#ffadad}.cls-2{fill:#c3060e}</style></defs><title>mastercard</title><path class="cls-1" d="M64 32a19 19 0 0 0-19-19 18.81 18.81 0 0 0-12 4.23A19.31 19.31 0 0 1 38.4 26h-1.55a19.56 19.56 0 0 0-5-7.85 19.56 19.56 0 0 0-5 7.85h-1.46a20.24 20.24 0 0 1 5.37-8.77A18.53 18.53 0 0 0 18.89 13a19 19 0 1 0 12 33.75A20.24 20.24 0 0 1 25.5 38H27a19.56 19.56 0 0 0 5 7.85A18.51 18.51 0 0 0 37 38h1.5a20.24 20.24 0 0 1-5.37 8.77A18.93 18.93 0 0 0 64 32z" transform="translate(0 -13.01)"/><path class="cls-2" d="M50.06 36.44l1.34-7h1.65l.21.72a2.41 2.41 0 0 1 1.86-.72l-.52 1.86c-.52 0-1.34-.1-2 2l-.6 3.14zm-25.29-8.78h1.86l-.41 1.86h1L26.94 31H26l-.52 2.79c-.1.52 0 1 1 .83l-.21 1.55a2.3 2.3 0 0 1-1.45.31 1.65 1.65 0 0 1-1.55-2.17zM33 33.34c.21-1.14.72-3.92-2.58-3.92-3.1 0-3.51 3.1-3.51 3.51a3 3 0 0 0 3.2 3.51 8.53 8.53 0 0 0 2.48-.31l.31-1.45a10.14 10.14 0 0 1-2.17.21c-.72 0-2 0-1.75-1.55zm-10.08-2.27l.41-1.45a5.79 5.79 0 0 0-1.86-.31c-.31 0-2.58 0-2.89 1.65-.31 1.34.21 1.86.62 2.06.72.31 1.14.62 1.55.83a.54.54 0 0 1-.21 1 7.76 7.76 0 0 1-2.48-.21l-.31 1.45a9.26 9.26 0 0 0 2.27.21c.52 0 2.79.1 3.1-2a1.67 1.67 0 0 0-.62-1.75 8.53 8.53 0 0 0-1.34-.72c-.41-.21-.72-.83 0-1 .31.17 1.24.17 1.76.24zm-12.39 5.37L12.18 28H9l-2.29 5.13L6.3 28h-3l-1.65 8.44h1.86l1.24-6.09.52 6.09H7l2.68-6-1.14 6zm2.17-6.81l-.31 1.55c.52 0 1.75-.21 2.37-.21s1.45-.1 1.14.93c-.52 0-3.92-.52-4.44 2.48a1.91 1.91 0 0 0 2 2.17 2.3 2.3 0 0 0 1.54-.42l.21.41h1.75l.72-3.82c.21-.93.52-3.2-2.68-3.2a5.91 5.91 0 0 0-2.3.11zm30.86.3a2.3 2.3 0 0 0-1.45-.31 2.55 2.55 0 0 0-2.27 2.27c-.31 2.06 1 3 3 2.37l.52 1.74a4.7 4.7 0 0 1-2.27.41c-2 0-4.13-1.75-3.2-5.37a4.57 4.57 0 0 1 4.34-3.51 3.17 3.17 0 0 1 2.57 1.17zm16.21.31c-.41-.31-.62-.83-1.45-.83-1 0-2.68-.21-3.61 3-.62 2.17.62 4 2 4a3.89 3.89 0 0 0 1.65-.52l.21.52h2.06l1.65-8.88h-2z" transform="translate(0 -13.01)"/><path class="cls-2" d="M44.9 29.63l-.31 1.55c.52 0 1.75-.21 2.37-.21s1.34-.1 1.14.93c-.52 0-3.92-.52-4.44 2.48a1.91 1.91 0 0 0 2 2.17 2.31 2.31 0 0 0 1.55-.41l.21.41h1.75l.72-3.82c.21-.93.52-3.2-2.68-3.2a5.89 5.89 0 0 0-2.31.1z" transform="translate(0 -13.01)"/><path class="cls-1" d="M29 32h2.37c.1-.72-.1-1.24-.83-1.24A1.46 1.46 0 0 0 29 32zm-13.41 1.34a2.5 2.5 0 0 0-1.65.21c-.62.41-.83 1.14-.1 1.34a1.4 1.4 0 0 0 1.65-.83zm43.56-.2a2.44 2.44 0 0 0-.1-1.75c-.62-.83-2-.21-2.37 1.34-.31 1 .31 1.75.93 1.75s1.13-.48 1.54-1.34zm-11.25.2a2.5 2.5 0 0 0-1.65.21c-.62.41-.83 1.14-.1 1.34a1.35 1.35 0 0 0 1.65-.83z" transform="translate(0 -13.01)"/><path class="cls-2" d="M33 36.44l1.34-6.92H36l.21.72a2.41 2.41 0 0 1 1.86-.72l-.52 1.86c-.41 0-1.34-.1-2 2L35 36.54h-2" transform="translate(0 -13.01)"/><path class="cls-1" d="M19 13A19 19 0 0 0 1 26h24.6a20.24 20.24 0 0 1 5.4-8.76A19.88 19.88 0 0 0 19 13zm13 5.27a18.88 18.88 0 0 0-5 7.85h10a19.56 19.56 0 0 0-5-7.85zM45 13a18.81 18.81 0 0 0-12 4.23A20.24 20.24 0 0 1 38.4 26H63a18.75 18.75 0 0 0-18-13z" transform="translate(0 -13.01)"/></svg>