<svg id="Layer_1" data-name="Layer 1" xmlns="http://www.w3.org/2000/svg" viewBox="0 0 46 32"><defs><style>.cls-1{fill:none}.cls-2{clip-path:url(#clip-path)}.cls-3{fill:#ff004e}.cls-4{clip-path:url(#clip-path-2)}.cls-5{fill:#8034ad}</style><clipPath id="clip-path"><path class="cls-1" d="M0 0h32v32H0z"/></clipPath><clipPath id="clip-path-2"><path class="cls-1" d="M14 0h32v32H14z"/></clipPath></defs><title>navigation-maskfem</title><g class="cls-2"><path class="cls-3" d="M19.3 25.39A12.7 12.7 0 1 1 32 12.7a12.71 12.71 0 0 1-12.7 12.69zm0-20.65a7.95 7.95 0 1 0 7.95 7.95 8 8 0 0 0-7.95-7.94z"/><path class="cls-3" d="M0 28.64L3.36 32l10.32-10.32-3.36-3.36z"/><path class="cls-3" d="M0 21.68L10.32 32l3.36-3.36L3.36 18.32z"/></g><g class="cls-4"><path class="cls-5" d="M26.43 32a12.43 12.43 0 1 1 12.43-12.43A12.44 12.44 0 0 1 26.43 32zm0-20.21a7.78 7.78 0 1 0 7.78 7.78 7.79 7.79 0 0 0-7.78-7.78zm19.57.64h-4.65V4.65h-7.78V0H46z"/><path class="cls-5" d="M31.93 10.79l3.29 3.29L45.32 4 42 .68z"/></g></svg>