<svg id="Layer_1" data-name="Layer 1" xmlns="http://www.w3.org/2000/svg" xmlns:xlink="http://www.w3.org/1999/xlink" viewBox="0 0 42 42"><defs><style>.cls-1,.cls-2,.cls-3,.cls-4,.cls-5,.cls-6{stroke:#8034ad;stroke-width:2px}.cls-1{fill:url(#linear-gradient)}.cls-2{fill:url(#linear-gradient-2)}.cls-3{fill:url(#linear-gradient-3)}.cls-4{fill:url(#linear-gradient-4)}.cls-5{fill:url(#linear-gradient-5)}.cls-6{fill:url(#linear-gradient-6)}</style><linearGradient id="linear-gradient" x1="12.37" y1="-4.23" x2="11.9" y2="44.76" gradientTransform="matrix(1 0 0 -1 0 42.75)" gradientUnits="userSpaceOnUse"><stop offset="0" stop-color="#0170ca"/><stop offset=".98" stop-color="#ec449a"/></linearGradient><linearGradient id="linear-gradient-2" x1="21.22" y1="-85.29" x2="20.26" y2="18.58" xlink:href="#linear-gradient"/><linearGradient id="linear-gradient-3" x1="37.73" y1="-647.05" x2="30.76" y2="81.49" xlink:href="#linear-gradient"/><linearGradient id="linear-gradient-4" x1="45.23" y1="-1211.14" x2="30.22" y2="120.96" xlink:href="#linear-gradient"/><linearGradient id="linear-gradient-5" x1="31.97" y1="-75.91" x2="30.98" y2="27.96" xlink:href="#linear-gradient"/><linearGradient id="linear-gradient-6" x1="30.43" y1="-395.31" x2="26.73" y2="45.09" xlink:href="#linear-gradient"/></defs><title>navigation-icon</title><path class="cls-1" d="M10.13 41H10a9.76 9.76 0 0 1-6.44-3.26 10.1 10.1 0 0 1 .23-13.61 9.74 9.74 0 0 1 6.54-3 9.58 9.58 0 0 1 5.07 1.54 9.8 9.8 0 0 1 3.52 4h2.62a1.93 1.93 0 0 1 1.35.6 2 2 0 0 1 .54 1.4l-.07 5.19a2 2 0 0 1-.16.75 2 2 0 0 1-.43.63 1.94 1.94 0 0 1-.64.42 1.91 1.91 0 0 1-.74.14h-2.62a9.78 9.78 0 0 1-3.6 3.83A9.56 9.56 0 0 1 10.13 41zm0-19.3a9 9 0 0 0-6.34 2.6A9.37 9.37 0 0 0 1.21 29a9.48 9.48 0 0 0 .43 5.39 9.3 9.3 0 0 0 3.29 4.24A9.07 9.07 0 0 0 10 40.32h.16A8.94 8.94 0 0 0 14.89 39a9.15 9.15 0 0 0 3.34-3.69.32.32 0 0 1 .11-.13.31.31 0 0 1 .17-.05l2.83.05a1.28 1.28 0 0 0 .5-.09 1.3 1.3 0 0 0 .43-.28 1.33 1.33 0 0 0 .29-.43 1.34 1.34 0 0 0 .11-.51l.09-5.19a1.34 1.34 0 0 0-.09-.51 1.33 1.33 0 0 0-.27-.44 1.3 1.3 0 0 0-.42-.3 1.28 1.28 0 0 0-.5-.11l-2.82-.05a.32.32 0 0 1-.17-.05.33.33 0 0 1-.11-.14 9.17 9.17 0 0 0-3.29-3.88 9 9 0 0 0-4.82-1.49zm0 15.77H10a6.27 6.27 0 0 1-3.46-1.17 6.43 6.43 0 0 1-2.26-2.93A6.55 6.55 0 0 1 4 29.66a6.48 6.48 0 0 1 1.77-3.26A6.24 6.24 0 0 1 7.83 25a6.16 6.16 0 0 1 2.42-.45 6.28 6.28 0 0 1 4.43 2 6.53 6.53 0 0 1-.1 9.06 6.26 6.26 0 0 1-4.43 1.85zm0-12.23a5.56 5.56 0 0 0-3.93 1.63 5.83 5.83 0 0 0-1.6 2.93 5.89 5.89 0 0 0 .27 3.34 5.78 5.78 0 0 0 2 2.63 5.64 5.64 0 0 0 3.13 1 5.46 5.46 0 0 0 2.18-.4 5.54 5.54 0 0 0 1.85-1.23 5.82 5.82 0 0 0 1.6-2.94 5.89 5.89 0 0 0-.27-3.35 5.78 5.78 0 0 0-2-2.64 5.64 5.64 0 0 0-3.14-1z"/><path class="cls-2" d="M20.27 32.16a.9.9 0 0 1-.61-.29.93.93 0 0 1-.24-.64.94.94 0 0 1 .29-.61.91.91 0 0 1 .62-.25.89.89 0 0 1 .64.27.93.93 0 0 1 0 1.3.89.89 0 0 1-.64.27zm0-1.19a.26.26 0 0 0-.19.08.27.27 0 0 0 0 .38.26.26 0 0 0 .19.08.31.31 0 0 0 .19-.08.27.27 0 0 0 .06-.09.31.31 0 0 0 0-.31l-.14-.03h-.11z"/><path class="cls-3" d="M31.23 17.44h-.11a6.26 6.26 0 0 1-3.48-1.16 6.42 6.42 0 0 1-2.26-2.93 6.54 6.54 0 0 1-.29-3.71 6.47 6.47 0 0 1 1.78-3.26A6.19 6.19 0 0 1 28.93 5a6.1 6.1 0 0 1 2.43-.44 6.26 6.26 0 0 1 3.47 1.16 6.42 6.42 0 0 1 2.26 2.92 6.54 6.54 0 0 1 .29 3.71 6.47 6.47 0 0 1-1.77 3.25 6.19 6.19 0 0 1-4.38 1.84zm-.09-.65a5.46 5.46 0 0 0 2.18-.4 5.53 5.53 0 0 0 1.85-1.23A5.84 5.84 0 0 0 36 7.9a5.68 5.68 0 0 0-3-2.36 5.58 5.58 0 0 0-3.82.13 5.7 5.7 0 0 0-2.87 2.56 5.85 5.85 0 0 0-.62 3.83 5.79 5.79 0 0 0 1.91 3.36 5.61 5.61 0 0 0 3.53 1.38z"/><path class="cls-4" d="M33.55 24.53l-5.11-.09a1.91 1.91 0 0 1-.74-.16 1.94 1.94 0 0 1-.62-.44 2 2 0 0 1-.41-.65 2 2 0 0 1-.13-.76v-2.67a9.89 9.89 0 0 1-3.39-3.1 10.11 10.11 0 0 1 1.29-12.85 9.64 9.64 0 0 1 10.7-2 9.81 9.81 0 0 1 4.33 3.75A10 10 0 0 1 41 11.14a10 10 0 0 1-1.5 5.17 9.8 9.8 0 0 1-3.94 3.61v2.67a2 2 0 0 1-.16.75 2 2 0 0 1-.43.63 1.94 1.94 0 0 1-.64.42 1.91 1.91 0 0 1-.78.14zM31.22 1.65a9.07 9.07 0 0 0-6.41 2.68 9.51 9.51 0 0 0-1.43 11.44 9.17 9.17 0 0 0 3.69 3.5.33.33 0 0 1 .13.12.33.33 0 0 1 0 .17l-.05 2.87a1.34 1.34 0 0 0 .35.93 1.29 1.29 0 0 0 .9.42l5.11.09a1.27 1.27 0 0 0 .5-.09 1.28 1.28 0 0 0 .43-.29 1.32 1.32 0 0 0 .29-.43 1.34 1.34 0 0 0 .11-.51l.05-2.87a.33.33 0 0 1 .05-.17.32.32 0 0 1 .13-.12 9.25 9.25 0 0 0 4.3-4.3A9.47 9.47 0 0 0 40.16 9 9.36 9.36 0 0 0 37 3.78a9.08 9.08 0 0 0-5.66-2.13zm0 15.76h-.11a6.26 6.26 0 0 1-3.48-1.16 6.42 6.42 0 0 1-2.26-2.93 6.54 6.54 0 0 1-.29-3.71 6.47 6.47 0 0 1 1.78-3.26A6.19 6.19 0 0 1 28.92 5a6.11 6.11 0 0 1 2.43-.44 6.26 6.26 0 0 1 3.47 1.16 6.42 6.42 0 0 1 2.26 2.92 6.54 6.54 0 0 1 .29 3.71 6.47 6.47 0 0 1-1.77 3.25 6.2 6.2 0 0 1-4.37 1.85zm-.09-.65h.09a5.64 5.64 0 0 0 4-1.67A5.82 5.82 0 0 0 36 7.86a5.69 5.69 0 0 0-2.54-2.16 5.6 5.6 0 0 0-6.19 1.16 5.79 5.79 0 0 0-1.59 2.92 5.85 5.85 0 0 0 .27 3.33 5.75 5.75 0 0 0 2 2.62 5.6 5.6 0 0 0 3.17 1.03z"/><path class="cls-5" d="M31 22.8a.89.89 0 0 1-.64-.27.93.93 0 0 1 0-1.3.89.89 0 0 1 1.28 0 .93.93 0 0 1 0 1.3.89.89 0 0 1-.64.27zm0-.65a.26.26 0 0 0 .18-.08.26.26 0 0 0 0-.37.26.26 0 0 0-.18-.08h-.1a.22.22 0 0 0-.08.06.26.26 0 0 0-.06.09.26.26 0 0 0 0 .1.27.27 0 0 0 .07.18.26.26 0 0 0 .17.08z"/><path class="cls-6" d="M27.73 31.61h-.14l-4.68-.15a.32.32 0 0 1-.19-.11.33.33 0 0 1 0-.43.32.32 0 0 1 .19-.11l4.71.14a2.85 2.85 0 0 0 1.12-.19 2.89 2.89 0 0 0 1-.62 3 3 0 0 0 .87-2.14l.07-3.89a.32.32 0 0 1 0-.12.32.32 0 0 1 .07-.1.31.31 0 0 1 .11-.07h.24a.32.32 0 0 1 .1.07.32.32 0 0 1 .09.23l-.07 3.89a3.63 3.63 0 0 1-1.05 2.51 3.51 3.51 0 0 1-2.49 1z"/></svg>