<svg id="Layer_1" data-name="Layer 1" xmlns="http://www.w3.org/2000/svg" viewBox="0 0 80 80"><defs><style>.cls-1{fill:#00dbff}.cls-2{fill:#0fabef}.cls-3{fill:#fff}.cls-4{fill:#e9edf5}.cls-5{fill:#613394}.cls-6{fill:#4b1b7a}.cls-7{fill:#2c0652}</style></defs><title>padlock</title><path class="cls-1" d="M80 40A40 40 0 1 1 40 0a40 40 0 0 1 40 40z"/><path class="cls-2" d="M79.84 43.53L49 12.7l-18.4 3.24-3.37 46.88 17 17a40 40 0 0 0 35.61-36.29z"/><path class="cls-3" d="M53.46 44.52h-5.94V22.69a7.52 7.52 0 0 0-15 0v21.83h-5.98V22.69a13.46 13.46 0 0 1 26.91 0z"/><path class="cls-4" d="M40 9.23v5.94a7.53 7.53 0 0 1 7.52 7.52v21.83h5.94V22.69A13.47 13.47 0 0 0 40 9.23z"/><path class="cls-5" d="M16.53 43.78A12.11 12.11 0 0 1 40 39.6a12.11 12.11 0 0 1 23.48 4.18C63.49 61.35 40 70.62 40 70.62S16.53 61 16.53 43.78z"/><path class="cls-6" d="M40 70.62s23.48-9.27 23.48-26.85A12.11 12.11 0 0 0 40 39.6v31z"/><path class="cls-6" d="M44.27 48.18a4.27 4.27 0 1 0-6.77 3.46v7.27h5v-7.27a4.26 4.26 0 0 0 1.77-3.46z"/><path class="cls-7" d="M40 43.91v15h2.5v-7.27a4.27 4.27 0 0 0-2.5-7.73z"/></svg>