<svg id="Layer_1" data-name="Layer 1" xmlns="http://www.w3.org/2000/svg" viewBox="0 0 40 39.61"><defs><style>.cls-1{fill:none}.cls-2{clip-path:url(#clip-path)}.cls-3{fill:#ff004e}</style><clipPath id="clip-path" transform="translate(0 -.19)"><path class="cls-1" d="M0 0h40v40H0z"/></clipPath></defs><title>pay-content</title><g class="cls-2"><path class="cls-3" d="M33.45 28.42l-2.24-2.28a.66.66 0 0 0-.86-.07l-9.75 7.18-3.45-1.62 3-.34a.66.66 0 0 0 .58-.66v-2.85a.66.66 0 0 0-.66-.66h-3.3l-5.56-.57a.66.66 0 0 0-.33.05l-3.75 1.63H0v1.32h7.27a.66.66 0 0 0 .26-.05l3.76-1.64 5.42.55h2.77V30l-2.44.3-3.55-.3a.66.66 0 0 0-.35 1.25l7.32 3.37a.66.66 0 0 0 .66-.07l9.6-7 1.28 1.3-11 9.64h-3L7.49 34.57a.66.66 0 0 0-.23 0H0v1.32h7.15l10.52 3.92a.66.66 0 0 0 .23 0h3.35a.66.66 0 0 0 .44-.16l11.73-10.27a.66.66 0 0 0 .03-.96zm1.76-11.71l-3.48-3.62a.66.66 0 0 0-.42-.2l-7.13-.66h-2.72l.13-2 2.58-.52 3.6.81a.67.67 0 0 0 .22 0l3.5-.42-.16-1.32-3.39.36-3.63-.81a.54.54 0 0 0-.27 0L20.83 9a.66.66 0 0 0-.53.61l-.21 3.21a.66.66 0 0 0 .66.66h3.37l6.82.62 3.51 3.68a.66.66 0 0 0 .48.2h4.67v-1.27zM34.06 3a.59.59 0 0 0-.25-.12L22.59.21a.66.66 0 0 0-.59.12l-7.21 5.28.78 1.07 7-5.1 10.8 2.54 5.83 4.53.8-1.06z" transform="translate(0 -.19)"/><path class="cls-3" d="M23.34 4.24a.66.66 0 0 0-.54 0l-4 2 .59 1.17 3.7-1.84 3 1.23.49-1.23zm-6.82 7.31l-1.16-.17c-.53-.08-.84-.28-.84-.61s.46-.66 1.08-.63h.48c.62 0 1.08.33 1.08.63v.18h1.32v-.18a2.19 2.19 0 0 0-2.4-2h-.48a2.19 2.19 0 0 0-2.4 2 2.11 2.11 0 0 0 2 1.89l1.14.17c.53.08.84.32.84.61s-.46.63-1.08.63h-.5c-.62 0-1.08-.33-1.08-.63v-.18H13.2v.18a2.21 2.21 0 0 0 2.4 1.95h.48a2.22 2.22 0 0 0 2.42-1.91 2.11 2.11 0 0 0-1.98-1.93z" transform="translate(0 -.19)"/><path class="cls-3" d="M21.07 12.78a5.28 5.28 0 1 1-.44-2.9l1.19-.55a6.58 6.58 0 1 0 .57 3.67z" transform="translate(0 -.19)"/><path class="cls-3" d="M16.5 8.13h-1.32v1.32h1.32z" transform="translate(0 -.19)"/></g></svg>