<svg id="Layer_1" data-name="Layer 1" xmlns="http://www.w3.org/2000/svg" viewBox="0 0 64 17.81"><defs><style>.cls-1{fill:none}.cls-2{clip-path:url(#clip-path)}.cls-3{fill:#32a6ce}.cls-4{fill:#1a80ad}.cls-5{fill:#21789e}.cls-6{fill:#1a5b80}.cls-7{fill:#06435e}.cls-8{fill:#2273aa}</style><clipPath id="clip-path" transform="translate(0 -23.1)"><path class="cls-1" d="M0 0h64v64H0z"/></clipPath></defs><title>paypal</title><g class="cls-2"><path class="cls-3" d="M50 26.24a17.59 17.59 0 0 0-3.88.63l-.31 2.41a13.72 13.72 0 0 1 3.19-.74c1.26 0 2 .21 1.78 1.36-3.77 0-6.28.73-6.81 3.25-.73 4.19 3.88 4.29 5.66 2.41l-.21 1.15h3.35l1.47-6.81c.54-2.82-1.97-3.77-4.24-3.66zm.21 7c-.21.84-.94 1.15-1.78 1.26s-1.36-.42-.94-1.26c.42-.63 1.36-.63 2.09-.63h.84c-.14-.09-.25.33-.25.65z" transform="translate(0 -23.1)"/><path class="cls-4" d="M45.77 29.28a13.72 13.72 0 0 1 3.23-.74c1.26 0 2 .21 1.78 1.36-3.77 0-6.28.73-6.81 3.25-.73 4.19 3.88 4.29 5.66 2.41l-.21 1.15h3.35l1.47-6.81c.63-2.83-2-3.56-4.29-3.56zm4.4 4c-.21.84-.94 1.15-1.78 1.26s-1.36-.42-.94-1.26c.42-.63 1.36-.63 2.09-.63h.84c-.1-.13-.21.29-.21.61z" transform="translate(0 -23.1)"/><path class="cls-3" d="M57.09 23.1l-2.73 13.61h3.35l2.83-13.61z" transform="translate(0 -23.1)"/><path class="cls-4" d="M59.5 23.1l-5.14 13.61h3.35l2.83-13.61h-1z" transform="translate(0 -23.1)"/><path class="cls-3" d="M41.48 23.1H35.3l-2.72 13.61h3.67l.94-4.19h2.61a5 5 0 0 0 5.13-4.09c.53-3.03-1.67-5.33-3.45-5.33zm-.1 4.71a2.14 2.14 0 0 1-2.1 1.57H37.6l.73-3.14h1.78a1.19 1.19 0 0 1 1.26 1.57z" transform="translate(0 -23.1)"/><path class="cls-4" d="M41.48 23.1h-4.19l-4.82 13.61h3.67l.94-4.19h2.62a5 5 0 0 0 5.13-4.09c.63-3.03-1.57-5.33-3.35-5.33zm-.1 4.71a2.14 2.14 0 0 1-2.09 1.57H37.6l.73-3.14h1.78a1.19 1.19 0 0 1 1.27 1.57z" transform="translate(0 -23.1)"/><path class="cls-5" d="M17.28 26.24a15.57 15.57 0 0 0-3.77.63l-.31 2.41a12.53 12.53 0 0 1 3.25-.73c1.26 0 2 .21 1.78 1.36-3.67 0-6.18.73-6.7 3.25-.73 4.19 3.77 4.29 5.55 2.41l-.21 1.15h3.35l1.47-6.81c.52-2.83-2.1-3.78-4.41-3.67zm.31 7c-.21.84-.94 1.15-1.78 1.26s-1.36-.42-.84-1.26c.42-.63 1.36-.63 2-.63h.84c-.11-.09-.21.33-.21.65z" transform="translate(0 -23.1)"/><path class="cls-6" d="M13.3 29.28a12.53 12.53 0 0 1 3.25-.73c1.26 0 2 .21 1.78 1.36-3.67 0-6.18.73-6.7 3.25-.73 4.19 3.77 4.29 5.55 2.41l-.31 1.15h3.35l1.47-6.81c.63-2.83-2-3.56-4.29-3.56zm4.29 4c-.21.84-.94 1.15-1.78 1.26s-1.36-.42-.84-1.26c.42-.63 1.36-.63 2-.63h.84c-.11-.13-.21.29-.21.61z" transform="translate(0 -23.1)"/><path class="cls-5" d="M23 26.24h3.4l.52 5.87 3.35-5.87h3.46l-8 14.66H22l2.41-4.4z" transform="translate(0 -23.1)"/><path class="cls-6" d="M26.4 26.45l.52 5.76 3.35-6h3.46l-8 14.66H22l2.41-4.29" transform="translate(0 -23.1)"/><path class="cls-5" d="M9 23.1H2.72L0 36.71h3.67l.94-4.19h2.62a5 5 0 0 0 5.13-4.09C13 25.4 10.79 23.1 9 23.1zm-.1 4.71a2.14 2.14 0 0 1-2.09 1.57H5.13l.73-3.14h1.79a1.19 1.19 0 0 1 1.25 1.57z" transform="translate(0 -23.1)"/><path class="cls-6" d="M9 23.1H6.18L0 36.71h3.67l.94-4.19h2.62a5 5 0 0 0 5.13-4.09C13 25.4 10.79 23.1 9 23.1zm-.1 4.71a2.14 2.14 0 0 1-2.09 1.57H5.13l.73-3.14h1.79a1.19 1.19 0 0 1 1.25 1.57z" transform="translate(0 -23.1)"/><path class="cls-7" d="M16.65 29.91c-2.83.21-4.71 1-5.13 3.14-.73 4.19 3.77 4.29 5.55 2.41l-.21 1.26h3.35l.52-2.51zm.94 3.35c-.21.84-.94 1.15-1.78 1.26s-1.36-.42-.84-1.26c.42-.63 1.36-.63 2-.63h.84c-.11-.11-.21.31-.21.63zM27.13 32l-.21.31 2.2 2.09 4.61-8.17h-3.46zM3.67 36.71l.94-4.19-4.3 4.19z" transform="translate(0 -23.1)"/><path class="cls-8" d="M36.14 36.71l.94-4.4v.1l-4.29 4.29zm13.09-6.8c-2.83.21-4.71 1-5.13 3.14-.73 4.19 3.88 4.29 5.66 2.41l-.31 1.26h3.35l.52-2.51zm.94 3.35c-.21.84-.94 1.15-1.78 1.26s-1.36-.42-.94-1.26c.42-.63 1.36-.63 2.09-.63h.84c-.1-.11-.21.31-.21.63zm6.6-2.73l-2.41 6.18h3.35l.94-4.19z" transform="translate(0 -23.1)"/><path class="cls-3" d="M61.28 25.3v-1.47h-.52v-.21h1.36v.21h-.52v1.47zm1.04 0v-1.68h.31l.42 1.15a.37.37 0 0 0 .1.21c0-.1 0-.1.1-.31l.42-1.15H64v1.68h-.21v-1.48l-.52 1.47H63l-.52-1.47v1.47h-.1z" transform="translate(0 -23.1)"/></g></svg>