<svg id="Layer_1" data-name="Layer 1" xmlns="http://www.w3.org/2000/svg" viewBox="0 0 80 80"><defs><style>.cls-1{fill:#f9eed7}.cls-2{fill:#4bc999}.cls-3{fill:#ffd15c}.cls-4{fill:#ff525d}.cls-5{fill:#797b89}</style></defs><title>sales</title><path class="cls-1" d="M40 80A40 40 0 1 0 0 40a40 40 0 0 0 40 40z"/><path class="cls-2" d="M38 55.92a22.29 22.29 0 0 1-14.1 20.73A40.05 40.05 0 0 1 0 40.16a22.28 22.28 0 0 1 38 15.76z"/><path class="cls-3" d="M41.79 21.22l2.92-6.56-6.21-3.59-1.5-7-7.14.74L24.51 0l-5.34 4.79L12 4.05l-1.5 7-6.18 3.61 2.91 6.56-2.91 6.56 6.21 3.59 1.5 7 7.14-.74 5.34 4.79 5.34-4.79 7.14.74 1.5-7 6.21-3.59z"/><path class="cls-4" d="M80 40a40 40 0 0 1-27.38 38l-3.35-2.28-7.71 1.16-3.89-6.78-7.45-2.3-.59-7.8-5.71-5.3 2.85-7.26-2.85-7.26 5.71-5.3.59-7.77 7.45-2.3 3.89-6.75 7.71 1.16 6.44-4.38 6.44 4.38 7.71-1.16 3.89 6.75L77.47 26A39.91 39.91 0 0 1 80 40z"/><path class="cls-1" d="M43.79 44.84v-5c0-3.48 2.29-4.75 5.28-4.75s5.28 1.27 5.28 4.75v5c0 3.48-2.32 4.75-5.28 4.75s-5.28-1.26-5.28-4.75zm7-5a1.54 1.54 0 0 0-1.76-1.69 1.52 1.52 0 0 0-1.72 1.69v5a1.52 1.52 0 0 0 1.72 1.69 1.54 1.54 0 0 0 1.76-1.69zm14.43-4.33a1.52 1.52 0 0 1-.14.67L52.73 61.55a1.76 1.76 0 0 1-1.58.88 2 2 0 0 1-2-1.86 1.58 1.58 0 0 1 .18-.67L61.7 34.53a1.55 1.55 0 0 1 1.48-.88 2 2 0 0 1 2.07 1.87zm-5.28 20.66v-5c0-3.48 2.29-4.75 5.28-4.75s5.28 1.27 5.28 4.75v5c0 3.48-2.32 4.75-5.28 4.75s-5.28-1.27-5.28-4.75zm7-5a1.54 1.54 0 0 0-1.76-1.69 1.52 1.52 0 0 0-1.72 1.69v5a1.52 1.52 0 0 0 1.72 1.69A1.54 1.54 0 0 0 67 56.17z"/><path class="cls-5" d="M15.34 40.24c-1.81 0-3.22 1-3.22 2.69 0 5.25.62 12.79.62 18 0 1.37 1.19 1.94 2.6 1.94 1.06 0 2.56-.57 2.56-1.94 0-5.25.62-12.79.62-18 0-1.72-1.46-2.69-3.18-2.69zm0 25.71a3.36 3.36 0 0 0-3.32 2.68 40.1 40.1 0 0 0 4.58 3.85 3.48 3.48 0 0 0 2.09-3.13 3.42 3.42 0 0 0-3.3-3.4z"/><path class="cls-2" d="M16 22.45c0-1.26-3.3-1-3.3-3.47 0-1.56 1.36-2.15 2.66-2.15.55 0 2.07.1 2.07.92 0 .28-.19.85-.64.85s-.57-.4-1.43-.4-1 .3-1 .62c0 1 3.3.84 3.3 3.46A2.3 2.3 0 0 1 15 24.6c-1.36 0-2.51-.67-2.51-1.35 0-.35.31-.87.71-.87s.8.77 1.77.77c.46-.01 1.03-.15 1.03-.7zm2.38 1.38a.53.53 0 0 1 0-.11l1.93-6.34c.11-.36.58-.54 1.06-.54s.95.18 1.06.54l1.94 6.34a.54.54 0 0 1 0 .11c0 .38-.59.67-1 .67-.26 0-.47-.08-.53-.3l-.35-1.3h-2.18L20 24.19c-.06.22-.27.3-.53.3-.47 0-1.09-.28-1.09-.66zm3.78-2.18l-.76-2.79-.76 2.79zm4.09 2.84c-.35 0-.71-.17-.71-.5v-6.61c0-.34.41-.49.81-.49s.81.15.81.49v5.7h2.37c.31 0 .47.35.47.71s-.16.71-.47.71zm6.56-4.43h1.56c.31 0 .49.3.49.63s-.15.61-.49.61h-1.56v1.77h2.79c.31 0 .49.33.49.72s-.15.7-.49.7h-3.7c-.35 0-.71-.17-.71-.5v-6.6c0-.33.35-.5.71-.5h3.7c.34 0 .49.36.49.7s-.18.72-.49.72h-2.79z"/></svg>