<svg id="Layer_1" data-name="Layer 1" xmlns="http://www.w3.org/2000/svg" viewBox="0 0 80 80"><defs><style>.cls-1{fill:#ffd400}.cls-2{fill:#fdba12}.cls-3{fill:#ff0068}.cls-4{fill:#e50e70}.cls-5{fill:#fff}.cls-6{fill:#e9edf5}.cls-7{fill:#613394}.cls-8{fill:#4b1b7a}</style></defs><title>shopping-bag</title><path class="cls-1" d="M80 40A40 40 0 1 1 40 0a40 40 0 0 1 40 40z"/><path class="cls-2" d="M79.94 42.26l-20.8-20.79-.54 2.8-11.37-11.38H35.5L20.86 67l12.48 12.45a40 40 0 0 0 46.6-37.19z"/><path class="cls-3" d="M20.86 21.47h38.28V67H20.86z"/><path class="cls-4" d="M40 21.47h19.14V67H40z"/><path class="cls-5" d="M49.2 28h-4.37v-9.42a4.83 4.83 0 0 0-9.65 0V28H30.8v-9.42a9.2 9.2 0 0 1 18.4 0z"/><path class="cls-6" d="M40 9.37v4.37a4.83 4.83 0 0 1 4.83 4.83V28h4.37v-9.42A9.21 9.21 0 0 0 40 9.37z"/><path class="cls-7" d="M29.95 43.61A5.18 5.18 0 0 1 40 41.83a5.19 5.19 0 0 1 10.05 1.79C50.05 51.14 40 55.11 40 55.11S29.95 51 29.95 43.61z"/><path class="cls-8" d="M40 55.11s10.05-4 10.05-11.49A5.19 5.19 0 0 0 40 41.82z"/></svg>