<svg id="Layer_1" data-name="Layer 1" xmlns="http://www.w3.org/2000/svg" viewBox="0 0 64 20.03"><defs><style>.cls-1{fill:none}.cls-2{clip-path:url(#clip-path)}.cls-3{fill:#ffadad}.cls-4{fill:#d5fe38}</style><clipPath id="clip-path" transform="translate(0 -21.99)"><path class="cls-1" d="M0 0h64v64H0z"/></clipPath></defs><title>visa</title><g class="cls-2"><path class="cls-3" d="M26.16 22l-3.21 20h5.13l3.21-20zm15.49 8.14c-1.79-.89-2.89-1.48-2.89-2.39s.93-1.67 3-1.67a8.93 8.93 0 0 1 3.82.74L46 27l.7-4.18a13 13 0 0 0-4.61-.82c-5.07 0-8.64 2.64-8.66 6.41 0 2.78 2.56 4.33 4.5 5.25s2.66 1.57 2.66 2.41c0 1.3-1.61 1.89-3.08 1.89a10.44 10.44 0 0 1-4.82-1l-.69-.32-.71 4.36A16 16 0 0 0 37 42c5.39 0 8.89-2.6 8.94-6.61.06-2.19-1.33-3.88-4.29-5.26zM59.86 22h-4a2.54 2.54 0 0 0-2.68 1.61L45.58 42H51l1.48-4h6l.77 4H64zm-5.92 12C54 34 56 27.53 56 27.53L57.58 34zM18.66 22l-5 13.58-.55-2.68A14.92 14.92 0 0 0 6 24.77L10.59 42H16l8.07-20h-5.41z" transform="translate(0 -21.99)"/><path class="cls-4" d="M11.39 24.56A3.35 3.35 0 0 0 8 22H0v.36C6.21 23.89 11.43 28.61 13.12 33z" transform="translate(0 -21.99)"/></g></svg>