<svg id="Layer_1" data-name="Layer 1" xmlns="http://www.w3.org/2000/svg" viewBox="0 0 64 20.02"><defs><style>.cls-1{fill:none}.cls-2{clip-path:url(#clip-path)}.cls-3{fill:#0170ca}</style><clipPath id="clip-path" transform="translate(0 .01)"><path class="cls-1" d="M0-21.99h64v64H0z"/></clipPath></defs><title>visa-content</title><g class="cls-2"><path class="cls-3" d="M26.16 0L23 20h5.13l3.16-20zm15.49 8.15c-1.79-.89-2.89-1.48-2.89-2.39s.93-1.67 3-1.67a8.93 8.93 0 0 1 3.82.74L46 5l.7-4.17A13 13 0 0 0 42.09 0C37 0 33.45 2.65 33.43 6.42c0 2.78 2.56 4.33 4.5 5.25s2.66 1.57 2.66 2.41c0 1.3-1.61 1.89-3.08 1.89a10.44 10.44 0 0 1-4.82-1l-.69-.32-.71 4.35A16 16 0 0 0 37 20c5.39 0 8.89-2.6 8.94-6.61.06-2.19-1.33-3.88-4.29-5.26zM59.86 0h-4a2.54 2.54 0 0 0-2.68 1.61L45.58 20H51l1.48-4h6l.77 4H64zm-5.92 12C54 12 56 5.54 56 5.54L57.58 12zM18.66 0l-5 13.58-.55-2.68A14.92 14.92 0 0 0 6 2.78L10.59 20H16l8.07-20z" transform="translate(0 .01)"/><path class="cls-3" d="M11.39 2.57A3.35 3.35 0 0 0 8 0H0v.37C6.21 1.9 11.43 6.62 13.12 11z" transform="translate(0 .01)"/></g></svg>