<svg id="Layer_1" data-name="Layer 1" xmlns="http://www.w3.org/2000/svg" viewBox="0 0 40 40"><defs><style>.cls-1{fill:#59595a}</style></defs><title>calculator</title><path class="cls-1" d="M14.48 9.66H11V6.21a.69.69 0 1 0-1.38 0v3.45H6.21a.69.69 0 0 0 0 1.38h3.45v3.45a.69.69 0 0 0 1.38 0V11h3.45a.69.69 0 1 0 0-1.38zm19.31 0h-8.27a.69.69 0 1 0 0 1.38h8.28a.69.69 0 1 0 0-1.38z"/><path class="cls-1" d="M20.69 0H0v40h40V0zM1.38 1.38h17.93v17.93H1.38zm0 37.24V20.69h17.93v17.93zm37.24 0H20.69V20.69h17.93zM20.69 19.31V1.38h17.93v17.93z"/><path class="cls-1" d="M25.52 32.41h8.28a.69.69 0 1 0 0-1.38h-8.28a.69.69 0 1 0 0 1.38zm0-4.13h8.28a.69.69 0 1 0 0-1.38h-8.28a.69.69 0 0 0 0 1.38zm-11.24-2.56a.69.69 0 0 0-1 0l-3 3-3-3a.69.69 0 1 0-1 1l3 3-3 3a.69.69 0 1 0 1 1l3-3 3 3a.69.69 0 1 0 1-1l-3-3 3-3a.69.69 0 0 0 0-1z"/></svg>