<svg id="Layer_1" data-name="Layer 1" xmlns="http://www.w3.org/2000/svg" viewBox="0 0 24 24"><defs><style>.cls-1{fill:none}.cls-2{clip-path:url(#clip-path)}.cls-3{fill:silver}</style><clipPath id="clip-path"><path class="cls-1" d="M0 0h24v24H0z"/></clipPath></defs><title>call</title><g class="cls-2"><path class="cls-3" d="M23.37 18.51l-4.86-3.24a1.42 1.42 0 0 0-1.9.31L15.2 17.4a.6.6 0 0 1-.78.16l-.27-.15a16.27 16.27 0 0 1-4.24-3.33 16.33 16.33 0 0 1-3.32-4.23l-.15-.27a.61.61 0 0 1 .16-.78l1.82-1.41a1.42 1.42 0 0 0 .31-1.9L5.48.63A1.41 1.41 0 0 0 3.58.2l-2 1.22a2.87 2.87 0 0 0-1.33 1.7c-.73 2.67-.18 7.26 6.59 14C12.23 22.55 16.24 24 19 24a7.09 7.09 0 0 0 1.88-.25 2.86 2.86 0 0 0 1.7-1.31l1.22-2a1.41 1.41 0 0 0-.43-1.93zM23.11 20l-1.22 2a2.07 2.07 0 0 1-1.22.95c-2.46.68-6.76.12-13.26-6.39S.34 5.79 1 3.33a2.07 2.07 0 0 1 1-1.22L4 .89a.61.61 0 0 1 .83.19l1.75 2.64 1.48 2.21a.62.62 0 0 1-.13.82L6.1 8.17A1.4 1.4 0 0 0 5.73 10l.14.26a17 17 0 0 0 3.47 4.42 17 17 0 0 0 4.42 3.47l.26.14a1.4 1.4 0 0 0 1.8-.37l1.41-1.82a.62.62 0 0 1 .82-.13l4.86 3.24a.61.61 0 0 1 .2.79zM13.6 4a6.81 6.81 0 0 1 6.8 6.8.4.4 0 0 0 .8 0 7.61 7.61 0 0 0-7.6-7.6.4.4 0 0 0 0 .8z"/><path class="cls-3" d="M13.6 6.4a4.4 4.4 0 0 1 4.4 4.4.4.4 0 0 0 .8 0 5.21 5.21 0 0 0-5.2-5.2.4.4 0 0 0 0 .8z"/><path class="cls-3" d="M13.6 8.8a2 2 0 0 1 2 2 .4.4 0 0 0 .8 0A2.8 2.8 0 0 0 13.6 8a.4.4 0 0 0 0 .8z"/></g></svg>