<svg id="Layer_1" data-name="Layer 1" xmlns="http://www.w3.org/2000/svg" viewBox="0 0 23.2 24"><defs><style>.cls-1{fill:silver}</style></defs><title>confetti</title><path class="cls-1" d="M20.8 20.4h-.4V20a.4.4 0 1 0-.8 0v.4h-.4a.4.4 0 1 0 0 .8h.4v.4a.4.4 0 1 0 .8 0v-.4h.4a.4.4 0 1 0 0-.8zM19.32 2.28a.4.4 0 0 0 .57 0l.52-.52.52.52a.4.4 0 0 0 .57-.57L21 1.2l.52-.52a.4.4 0 0 0-.57-.57l-.55.52-.52-.51a.4.4 0 0 0-.57.57l.52.52-.52.52a.4.4 0 0 0 .01.55zM16.4 6.4a.4.4 0 1 0 .4-.4.4.4 0 0 0-.4.4zM13.2 4a.4.4 0 1 0-.4-.4.4.4 0 0 0 .4.4zm7.2 5.6a.4.4 0 1 0 .4-.4.4.4 0 0 0-.4.4zm-3.6 1.6a.4.4 0 1 0 .4-.4.4.4 0 0 0-.4.4zm6.4-8a.4.4 0 1 0 .4.4.4.4 0 0 0-.4-.4z" transform="translate(-.4)"/><path class="cls-1" d="M22.4 6.4c-4.17 0-7.56 4-8.21 4.82l-1.56-1.55a5.26 5.26 0 0 0 2.14-2.34.4.4 0 0 0-.77-.26 4.81 4.81 0 0 1-2 2l-1.37-1.4c.75-.88 1-3.31 1-4.87a.4.4 0 0 0-.8 0 9.42 9.42 0 0 1-.72 4.32l-1.4-1.4a.4.4 0 0 0-.71.12l-4.13 9.63-3.44 8A.4.4 0 0 0 .8 24a.4.4 0 0 0 .2 0l5.59-2.41 2.36-1L12.53 19l2.36-1 3.65-1.57a.4.4 0 0 0 .12-.65l-1.84-1.84c.26-.43 1.78-1.08 4.36-1.08a.4.4 0 0 0 0-.8c-2.08 0-4.19.45-4.93 1.31l-1.52-1.52c.39-.49 3.72-4.59 7.64-4.59a.4.4 0 1 0 0-.8zm-9.93 11.72l-6.2-6.2.73-1.57 7.09 7.09zm-3.61 1.56l-4.14-4.14 1.22-2.82 5.75 5.75zm-2.37 1l-2.8-2.8.68-1.58 3.7 3.7zm-3.14-2L5.7 21l-4.13 1.83zm11.49-1.6L7.3 9.56 8.53 6.7l1.19 1.18 2 2 4.39 4.39 1.58 1.58z" transform="translate(-.4)"/><path class="cls-1" d="M15.2 6a.4.4 0 0 0 .4-.39 3.21 3.21 0 0 1 1.81-2.46.4.4 0 0 0-.41-.69 4 4 0 0 0-2.2 3.14.4.4 0 0 0 .4.4zM.8 2.4A1.2 1.2 0 0 1 2 3.6a.4.4 0 0 0 .8 0A1.2 1.2 0 0 1 4 2.4a.4.4 0 1 0 0-.8A1.2 1.2 0 0 1 2.8.4a.4.4 0 0 0-.8 0A1.2 1.2 0 0 1 .8 1.6a.4.4 0 1 0 0 .8zm1.6-.8a2 2 0 0 0 .4.4 2 2 0 0 0-.4.4A2 2 0 0 0 2 2a2 2 0 0 0 .4-.4z" transform="translate(-.4)"/></svg>