<svg id="Layer_1" data-name="Layer 1" xmlns="http://www.w3.org/2000/svg" viewBox="0 0 21.29 24"><defs><style>.cls-1{fill:#c9c9c9}</style></defs><title>delete</title><path class="cls-1" d="M19.78 6.77H4.22a.62.62 0 0 0-.46.15.52.52 0 0 0-.15.46L5.2 21.32a3 3 0 0 0 3 2.68H16a3 3 0 0 0 3.08-2.77L20.4 7.32a.52.52 0 0 0-.15-.4.62.62 0 0 0-.47-.15zm-1.94 14.4a1.78 1.78 0 0 1-1.84 1.6H8.25a1.75 1.75 0 0 1-1.82-1.57L4.89 8h14.22zM22 2.77h-6.31v-1A1.72 1.72 0 0 0 14 0h-4a1.72 1.72 0 0 0-1.69 1.69v1.09H2A.62.62 0 0 0 2 4h20a.62.62 0 1 0 0-1.23zm-7.57-1v1H9.54v-1a.49.49 0 0 1 .46-.54h4a.49.49 0 0 1 .53.46.48.48 0 0 1-.07.09z" transform="translate(-1.35)"/></svg>