<svg id="Layer_1" data-name="Layer 1" xmlns="http://www.w3.org/2000/svg" viewBox="0 0 15.73 16"><defs><style>.cls-1{fill:#8b00ff}</style></defs><title>like</title><path class="cls-1" d="M8.83 0c-.74 0-.49 1.58-.49 1.58S6.76 5.93 5.25 7.09a3.33 3.33 0 0 0-.65 1l-.08.21a2 2 0 0 1-.78.8l1.51 6.57a35.75 35.75 0 0 0 4.68.26 9.94 9.94 0 0 0 2.72-.09c2.69-.57 2-2.44 2-2.44a1.84 1.84 0 0 0 .64-2.4 1.65 1.65 0 0 0 0-2.47 1.51 1.51 0 0 0-.2-1.91c-1.12-1-4.16-.34-4.16-.34l-.68.14s-1.05.49 0-2.7S9.56 0 8.83 0zM4.16 15.22L3 9.79a.75.75 0 0 0-.7-.57H.14v6.56H3.7a.45.45 0 0 0 .46-.56z" transform="translate(-.13)"/></svg>