<svg id="Layer_1" data-name="Layer 1" xmlns="http://www.w3.org/2000/svg" viewBox="0 0 20.79 24"><defs><style>.cls-1{fill:none}.cls-2{clip-path:url(#clip-path)}.cls-3{fill:silver}</style><clipPath id="clip-path" transform="translate(-1.62)"><path class="cls-1" d="M0 0h24v24H0z"/></clipPath></defs><title>male</title><g class="cls-2"><path class="cls-3" d="M15.61 16.8h-1.2v-1.27a6 6 0 0 0 2.68-4c.82-.24 1.31-1.45 1.31-2.36a1.44 1.44 0 0 0-1-1.51 3.59 3.59 0 0 0-3.19-6 5.2 5.2 0 0 0-8 6.62A1.52 1.52 0 0 0 5.6 9.6c0 .94.53 2.21 1.41 2.38a6 6 0 0 0 2.59 3.54v1.28H8.41a6.79 6.79 0 0 0-6.8 6.8.4.4 0 0 0 .39.4h20a.4.4 0 0 0 .4-.4 6.8 6.8 0 0 0-6.79-6.8zm-5.2.67V16h.11l.47.17.18.06a6.18 6.18 0 0 0 .65.15h.37a6.12 6.12 0 0 0 .65-.15l.18-.06.48-.17h.11v1.51l-1 1.33h-1.2zm6.8-7v-2c.27.1.4.34.4.74a2.4 2.4 0 0 1-.41 1.29zM10.41.82a4.4 4.4 0 0 1 3.35 1.55.4.4 0 0 0 .39.13 2.8 2.8 0 0 1 2.76 4.57v-.06l-.18-.27-.06-.08-.29-.35-.07-.08-.31-.32-.11-.1-.43-.39a14 14 0 0 0-1.21-.93.4.4 0 0 0-.46 0l-2.2 1.65a5.2 5.2 0 0 1-3.1 1.06h-.33l-.21.05-.21.09A1.58 1.58 0 0 0 7 8 4.4 4.4 0 0 1 10.41.82zm-4 8.79a.7.7 0 0 1 .34-.71l.06.1v1.97a2.4 2.4 0 0 1-.4-1.36zm1.31 1.91a5 5 0 0 1-.11-1.05V8.8a.76.76 0 0 1 0-.22.78.78 0 0 1 .1-.2.8.8 0 0 1 .16-.16.81.81 0 0 1 .2-.1A.79.79 0 0 1 8.4 8h.09a6 6 0 0 0 3.6-1.24L14 5.31c.21.15.55.41.9.71l.3.26a3.84 3.84 0 0 1 1.17 1.56.71.71 0 0 1 0 .17v2.45a4.62 4.62 0 0 1 0 .69A5.21 5.21 0 0 1 13.8 15a5.09 5.09 0 0 1-1.74.63H12a5.2 5.2 0 0 1-4.23-4.08zm-3.55 7.84a6 6 0 0 1 4.24-1.76h1.2a.4.4 0 0 0 .08.24l1.09 1.46-.71 3.9H2.43a6 6 0 0 1 1.74-3.84zm6.72 3.84l.65-3.6h.93l.65 3.6zm3.05 0l-.71-3.9 1-1.38.06-.08a.4.4 0 0 0 .08-.24h1.2a6 6 0 0 1 6 5.6z" transform="translate(-1.62)"/></g></svg>