<svg id="Layer_1" data-name="Layer 1" xmlns="http://www.w3.org/2000/svg" viewBox="0 0 24 23.54"><defs><style>.cls-1{fill:silver}</style></defs><title>placeholder</title><path class="cls-1" d="M12.14 10.43a2.75 2.75 0 1 0-2.75-2.75 2.75 2.75 0 0 0 2.75 2.75zm0-4.71a2 2 0 1 1-2 2 2 2 0 0 1 2-2z" transform="translate(0 -.23)"/><path class="cls-1" d="M19.7 14.75h-2.81l1.2-1.75a8.57 8.57 0 0 0-.7-10.59 7.52 7.52 0 0 0-10.64 0A8.57 8.57 0 0 0 6 13l1.2 1.74H4.3l-4.3 9h24zm-13-2.2A7.74 7.74 0 0 1 7.3 3a6.74 6.74 0 0 1 9.53 0 7.75 7.75 0 0 1 .62 9.57l-5.38 7.77-3.87-5.59zm-1.88 3h3l4.28 6.18 4.28-6.18h2.86L22.76 23H1.24z" transform="translate(0 -.23)"/></svg>