<svg id="Layer_1" data-name="Layer 1" xmlns="http://www.w3.org/2000/svg" viewBox="0 0 9.09 10"><defs><style>.cls-1{fill:#fff}</style></defs><title>ruble-currency-sign</title><path class="cls-1" d="M.68 8.41h1.59v1.36a.22.22 0 0 0 .23.23h1.19a.22.22 0 0 0 .16-.06.21.21 0 0 0 .07-.16V8.41H7.5a.22.22 0 0 0 .23-.23v-.91A.22.22 0 0 0 7.5 7H3.91v-.79h2.42a3.2 3.2 0 0 0 2.32-.87 3 3 0 0 0 .9-2.24 3 3 0 0 0-.9-2.23A3.2 3.2 0 0 0 6.33 0H2.5a.22.22 0 0 0-.23.23v4.46H.68a.22.22 0 0 0-.16.07.22.22 0 0 0-.06.16V6a.22.22 0 0 0 .23.23h1.58V7H.68a.22.22 0 0 0-.23.23v.91a.22.22 0 0 0 .23.23zm3.23-6.9h2.28A1.69 1.69 0 0 1 7.4 2a1.52 1.52 0 0 1 .46 1.1 1.52 1.52 0 0 1-.46 1.15 1.69 1.69 0 0 1-1.21.44H3.91z" transform="translate(-.45)"/></svg>