<svg data-name="Capa 1" xmlns="http://www.w3.org/2000/svg" viewBox="0 0 446.84 420.56"><title>shopping-cart-of-horizontal-lines-design</title><path d="M444.09 79.96a14.34 14.34 0 0 0-11.58-5.89H155.32a14.34 14.34 0 1 0 0 28.67h257.54L402.52 135H186.78a14.34 14.34 0 0 0 0 28.67h206.55l-11.87 37H203.51a14.34 14.34 0 0 0 0 28.68h168.76l-10 31.06H172.69L94.79 35.92a14.35 14.35 0 0 0-8.3-8.65L19.59.99A14.343 14.343 0 0 0 9.1 27.69l60.76 23.87 74.38 214.4a11.88 11.88 0 0 0-7.33 7.19l-21.5 59.71a11.95 11.95 0 0 0 11.24 16h11a43 43 0 1 0 63.94 0h93.81a43 43 0 1 0 63.93 0h13.43a11.95 11.95 0 0 0 0-23.89H143.65l13.32-37a14.2 14.2 0 0 0 5.52 1.15h210.28a14.33 14.33 0 0 0 13.65-10l59.74-186.39a14.33 14.33 0 0 0-2.07-12.77zM169.66 396.67a19.12 19.12 0 1 1 19.12-19.12 19.13 19.13 0 0 1-19.12 19.12zm157.71 0a19.12 19.12 0 1 1 19.12-19.12 19.14 19.14 0 0 1-19.12 19.12z"/></svg>