<svg id="Layer_1" data-name="Layer 1" xmlns="http://www.w3.org/2000/svg" viewBox="0 0 120 120"><defs><style>.cls-1{fill:none}.cls-2{clip-path:url(#clip-path)}.cls-3{fill:#eeeff1}</style><clipPath id="clip-path"><path class="cls-1" d="M0 0h120v120H0z"/></clipPath></defs><title>warning</title><g class="cls-2"><path class="cls-3" d="M101.74 0H18.26A18.28 18.28 0 0 0 0 18.26v57.39a18.28 18.28 0 0 0 18.26 18.26h56.31l25.32 25.32a2.63 2.63 0 0 0 1.85.76 2.68 2.68 0 0 0 1-.2 2.61 2.61 0 0 0 1.61-2.41V93.73A18.3 18.3 0 0 0 120 75.65V18.26A18.28 18.28 0 0 0 101.74 0zm13 75.65a13.06 13.06 0 0 1-13 13 2.61 2.61 0 0 0-2.61 2.61v19.79L77.5 89.46a2.63 2.63 0 0 0-1.85-.76H18.26a13.06 13.06 0 0 1-13-13V18.26a13.06 13.06 0 0 1 13-13h83.48a13.06 13.06 0 0 1 13 13z"/><path class="cls-3" d="M60 62.61a7.83 7.83 0 1 0 7.83 7.83A7.84 7.84 0 0 0 60 62.61zM60 73a2.61 2.61 0 1 1 2.61-2.61A2.61 2.61 0 0 1 60 73zm8.34-54.85a7.85 7.85 0 0 0-5.73-2.49h-5.22a7.84 7.84 0 0 0-7.81 8.42l2.21 25.71a8.21 8.21 0 0 0 16.37 0L70.41 24a7.84 7.84 0 0 0-2.07-5.85zm-3.12 5.48L63 49.41a3 3 0 0 1-6 0L54.8 23.7a2.57 2.57 0 0 1 .69-2 2.6 2.6 0 0 1 1.91-.83h5.22a2.6 2.6 0 0 1 1.91.83 2.56 2.56 0 0 1 .69 1.92z"/></g></svg>