<svg xmlns="http://www.w3.org/2000/svg" viewBox="0 0 511.999 511.999"><path d="M315.994 0H45.019C20.119 0 .023 20.097.023 44.996v90.992c0 24.897 20.096 44.996 44.996 44.996h15.999v44.996c0 13.499 16.2 20.097 25.497 10.498l55.795-55.494h182.687c19.795 0 35.996-16.2 35.996-35.997V44.996C360.99 20.097 340.894 0 315.994 0z" fill="#fd3c65"/><path d="M360.99 44.996v99.991c0 19.797-16.2 35.997-35.996 35.997H181.006V0h134.988c24.9 0 44.996 20.097 44.996 44.996z" fill="#fd003a"/><path d="M466.981 120.989H196.005c-5.398 0-10.202.899-14.999 2.699-17.4 5.999-29.997 22.798-29.997 42.297v89.992c0 19.497 12.597 36.296 29.997 42.295 4.797 1.8 9.601 2.701 14.999 2.701H369.69l55.795 55.494c9.297 9.599 25.497 3.001 25.497-10.498v-44.996h15.999c24.9 0 44.996-20.099 44.996-44.996v-89.992c0-24.899-20.097-44.996-44.996-44.996z" fill="#fedb41"/><path d="M511.977 165.985v89.992c0 24.897-20.096 44.996-44.996 44.996h-15.999v44.996c0 13.499-16.2 20.097-25.497 10.498l-55.795-55.494H196.005c-5.398 0-10.202-.901-14.999-2.701V123.688c4.797-1.8 9.601-2.699 14.999-2.699h270.976c24.899 0 44.996 20.097 44.996 44.996z" fill="#fcbf29"/><path d="M315.994 270.976H45.019c-24.9 0-44.996 20.097-44.996 44.996v86.191c0 27.599 22.198 49.797 49.793 49.797h11.202v44.996c0 13.499 16.2 20.097 25.497 10.498l55.795-55.494h173.685c24.9 0 44.996-20.099 44.996-44.996v-90.992c-.001-24.899-20.097-44.996-44.997-44.996z" fill="#32d736"/><path d="M270.998 345.969c0 8.398-6.598 14.999-14.999 14.999H106.013c-8.4 0-14.999-6.6-14.999-14.999 0-8.4 6.598-14.999 14.999-14.999H256c8.4 0 14.998 6.599 14.998 14.999z" fill="#787780"/><path d="M360.99 315.972v90.992c0 24.897-20.096 44.996-44.996 44.996H181.006V270.976h134.988c24.9 0 44.996 20.097 44.996 44.996z" fill="#10bb67"/><path d="M270.998 345.969c0 8.398-6.598 14.999-14.999 14.999h-74.993V330.97H256c8.4 0 14.998 6.599 14.998 14.999z" fill="#57555c"/><path d="M270.998 74.993c0 8.398-6.598 14.999-14.999 14.999H106.013c-8.4 0-14.999-6.6-14.999-14.999 0-8.4 6.598-14.999 14.999-14.999H256c8.4.001 14.998 6.599 14.998 14.999z" fill="#787780"/><path d="M405.986 210.981H256c-8.29 0-14.999-6.708-14.999-14.999 0-8.29 6.708-14.999 14.999-14.999h149.987c8.29 0 14.999 6.708 14.999 14.999-.001 8.291-6.71 14.999-15 14.999zM256 89.992h-74.993V59.995H256c8.4 0 14.999 6.598 14.999 14.999-.001 8.398-6.599 14.998-14.999 14.998z" fill="#57555c"/></svg>