<svg id="Capa_1" data-name="Capa 1" xmlns="http://www.w3.org/2000/svg" viewBox="0 0 316.93 512"><defs><style>.cls-1{fill:#fb403f}.cls-2{fill:#c21c1c}.cls-3{fill:#ff6464}.cls-4{fill:#fa9e3e}.cls-5{fill:#696970}.cls-6{fill:#ffb56b}.cls-7{fill:#ef9245}.cls-8{fill:#19303f}.cls-9{fill:#f0eeee}.cls-10{fill:#d9d4d4}</style></defs><title>logo</title><path class="cls-1" d="M308.93 355.94H203.07a83 83 0 0 0-82.86 82.86v65.7a7.5 7.5 0 0 0 7.5 7.5h256.58a7.5 7.5 0 0 0 7.5-7.5v-65.69a83 83 0 0 0-82.86-82.87z" transform="translate(-97.53)"/><path class="cls-2" d="M308.93 355.94h-26.5a83 83 0 0 1 82.86 82.86v65.7a7.5 7.5 0 0 1-7.5 7.5h26.5a7.5 7.5 0 0 0 7.5-7.5v-65.69a83 83 0 0 0-82.86-82.87z" transform="translate(-97.53)"/><path class="cls-3" d="M318.38 352.68L293 336.47a7.5 7.5 0 0 0-11 3.6l-19.24 49.54a7.5 7.5 0 0 0 2.6 8.79l40.56 29.34a7.5 7.5 0 0 0 11.88-5.6l4-62.67a7.49 7.49 0 0 0-3.42-6.79zM230 340.08a7.5 7.5 0 0 0-11-3.6l-25.33 16.21a7.5 7.5 0 0 0-3.44 6.8l4 62.67a7.5 7.5 0 0 0 11.88 5.6l40.56-29.34a7.5 7.5 0 0 0 2.6-8.79z" transform="translate(-97.53)"/><path class="cls-4" d="M200.57 267.73v95.35l-28.34 29.25h-27.52l-28.34-29.25v-95.35h84.2z"/><path class="cls-5" d="M14.47 159h288v96h-288z"/><path class="cls-4" d="M125.84 224h49.37v56.6h-49.37a28.31 28.31 0 1 1 0-56.61zm260.32 0h-49.37v56.6h49.37a28.31 28.31 0 0 0 0-56.61z" transform="translate(-97.53)"/><path class="cls-6" d="M256 342.79a112.11 112.11 0 0 1-112.11-112.11v-113.4h224.22v113.39A112.11 112.11 0 0 1 256 342.79z" transform="translate(-97.53)"/><path class="cls-7" d="M344.78 117.28v125.06A100.45 100.45 0 0 1 250 342.63q3 .16 6 .16a112.11 112.11 0 0 0 112.11-112.11v-113.4z" transform="translate(-97.53)"/><path class="cls-8" d="M310.32 233a7.5 7.5 0 0 1-7.5-7.5v-2a7.5 7.5 0 0 1 15 0v2a7.5 7.5 0 0 1-7.5 7.5zm-108.64 0a7.5 7.5 0 0 1-7.5-7.5v-2a7.5 7.5 0 0 1 15 0v2a7.5 7.5 0 0 1-7.5 7.5zM256 288.48a41.17 41.17 0 0 1-33.83-17.74 7.5 7.5 0 1 1 12.33-8.54 26.13 26.13 0 0 0 43 0 7.5 7.5 0 0 1 12.33 8.54A41.16 41.16 0 0 1 256 288.48z" transform="translate(-97.53)"/><path class="cls-9" d="M353.39 512l-7.9-72.21V361a7.5 7.5 0 0 0-15 0v71h-149v-71a7.5 7.5 0 0 0-15 0v78.79L158.62 512zm53.94-354.62l-33-151.48A7.5 7.5 0 0 0 367 0H145a7.5 7.5 0 0 0-7.33 5.9l-33 151.47a7.5 7.5 0 0 0 6.57 9.06l144 14.69a7.46 7.46 0 0 0 1.52 0l144-14.69a7.5 7.5 0 0 0 6.57-9.06z" transform="translate(-97.53)"/><path class="cls-10" d="M407.33 157.38l-33-151.48A7.5 7.5 0 0 0 367 0h-23.86a8 8 0 0 1 2 3.82l35.3 162.05a8 8 0 0 1 .13 2.62l20.15-2.06a7.5 7.5 0 0 0 6.57-9.06z" transform="translate(-97.53)"/><path class="cls-1" d="M256 134.1l-143.08-14.6-3.43 15.77 145.7 14.87a7.91 7.91 0 0 0 .81 0h.81l145.7-14.87-3.43-15.77z" transform="translate(-97.53)"/></svg>