<svg id="Capa_1" data-name="Capa 1" xmlns="http://www.w3.org/2000/svg" viewBox="0 0 512 490.62"><defs><style>.cls-1{fill:#c982ff}</style></defs><title>support</title><path class="cls-1" d="M329.21 350.82v-8.92a92.9 92.9 0 0 0 7.27-6.59A132.47 132.47 0 0 0 370 261.48a65.12 65.12 0 0 0 42.06-25c14.05-19.87 15.31-48.45 3.59-84.31a9.69 9.69 0 0 0-3.88-5l-5.33-3.59A131.4 131.4 0 0 0 375 55.07c-26-29.36-66-44.19-119-44.38-52.91 0-93 15-119.09 44a131.4 131.4 0 0 0-31.4 88.47l-5.33 3.59a9.69 9.69 0 0 0-3.88 5c-11.73 36-10.47 64.44 3.59 84.31a65.31 65.31 0 0 0 42.06 25.29 132.56 132.56 0 0 0 33.63 73.94 94.53 94.53 0 0 0 7.27 6.59v8.92C145.68 358-2.49 392.78 0 491.62a9.69 9.69 0 0 0 9.69 9.69h492.59a9.69 9.69 0 0 0 9.69-9.69c2.52-98.84-145.65-133.62-182.76-140.8zM136.08 239.77a42.06 42.06 0 0 1-20.54-15l.48.1c-9.69-14.15-10.56-35.56-1.94-63.86l7.07-4.75a9.69 9.69 0 0 0 4.26-9 114.54 114.54 0 0 1 26.36-79.75c21.9-24.81 57.08-37.21 104.17-37.4s82.27 12.6 104.56 37.4a114.54 114.54 0 0 1 26.36 79.75 9.69 9.69 0 0 0 4.26 9l7.08 4.74c8.62 28.2 8 49.71-1.94 63.86a42.26 42.26 0 0 1-20.64 15 64.53 64.53 0 0 0 15.8-48.45 45.35 45.35 0 0 0-15.6-27.13c-4.17-96.9-72.1-107.76-101.36-107.76A122.15 122.15 0 0 0 256 57.88a122 122 0 0 0-18.51-1.36c-29.07 0-96.9 10.66-101.36 107.76a45.35 45.35 0 0 0-15.8 27 64.44 64.44 0 0 0 15.75 48.49zm220.45-79.46a199.63 199.63 0 0 1-115.8-29.07 9.69 9.69 0 0 0-12.6 1.26c-19.38 20.83-54.75 25.68-71.8 26.75 5.23-68.51 46.71-83.43 81.59-83.43a93.67 93.67 0 0 1 16.57 1.36 9.67 9.67 0 0 0 3.88 0 94.13 94.13 0 0 1 16.57-1.36c34.59 0 76.26 15.31 81.11 84.4zm-196.81 81.3l.39.1a9.69 9.69 0 0 0-2.42-6.49C144.42 220 138.31 206.14 140 194.71a25.68 25.68 0 0 1 8.82-16.38c12.79 0 58.14-2.42 87.21-27.52a218.51 218.51 0 0 0 107.56 29.07 127.78 127.78 0 0 0 20-1.07 25.58 25.58 0 0 1 8.72 15.89c1.65 11.24-4.46 25.29-17.73 40.51a9.69 9.69 0 0 0-2.42 6.49v5L295.68 277a27.91 27.91 0 1 0 8.72 20.25q.07-1.31 0-2.62l44.48-23.84a106.6 106.6 0 0 1-26 51.16 86.34 86.34 0 0 1-64.25 24h-4.85A86.53 86.53 0 0 1 189.67 322c-30.67-30.49-29.94-79.91-29.94-80.39zM285 297.23a8.62 8.62 0 1 1-8.62-8.62 8.62 8.62 0 0 1 8.62 8.62zm-38.74 184.12H19.7c7.66-72.77 126-103.2 163-111.05v17.35c0 22 26.75 38.76 63.57 41.57zm-44.19-93.7v-33.44a117.16 117.16 0 0 0 51.46 10.85h4.85a117.16 117.16 0 0 0 51.46-10.85v33.43c0 9.21-21 22.48-53.88 22.48s-53.89-13.27-53.89-22.48zm63.57 94v-52.53c36.82-2.52 63.57-19.38 63.57-41.57v-17c37.31 7.75 155 38.18 163 111.05H265.64z" transform="translate(0 -10.69)"/></svg>