<svg id="Layer_1" data-name="Layer 1" xmlns="http://www.w3.org/2000/svg" viewBox="0 0 57.93 60"><defs><style>.cls-1{fill:none}.cls-2{clip-path:url(#clip-path)}.cls-3{fill:#ffd153}.cls-4{fill:#c2b59b}.cls-5{fill:#59dbff}.cls-6{fill:#fae0eb}.cls-7{fill:#ff55a3}</style><clipPath id="clip-path" transform="translate(-1.05)"><path class="cls-1" d="M0 0h60v60H0z"/></clipPath></defs><title>brick-wall</title><g class="cls-2"><path class="cls-3" d="M20 10.13A1.87 1.87 0 0 0 18.09 12v7.1H34v-9zm23.62 4.23A64.85 64.85 0 0 1 48.74 19a1.53 1.53 0 0 0 1.09-1.46v-5.88a1.53 1.53 0 0 0-1.53-1.53H34v9h5.62c.37-1.5.76-2.82 1.09-3.86a1.86 1.86 0 0 1 2.91-.91z" transform="translate(-1.05)"/><path class="cls-4" d="M26 19.12v9h12.1a53 53 0 0 1 1.48-9z" transform="translate(-1.05)"/><path class="cls-3" d="M18.09 28.08v9H32.4a1.56 1.56 0 0 0 1.6-1.6v-7.4z" transform="translate(-1.05)"/><path class="cls-4" d="M26 28.08v-9H12A1.87 1.87 0 0 0 10.16 21v7.09H26z" transform="translate(-1.05)"/><path class="cls-3" d="M4.09 28.08a1.87 1.87 0 0 0-1.87 1.87v5.54A1.56 1.56 0 0 0 3.78 37h14.31v-9h-14z" transform="translate(-1.05)"/><path class="cls-4" d="M41.9 10.13V3A1.87 1.87 0 0 0 40 1.17H27.9A1.87 1.87 0 0 0 26 3v7.09zm14.24 0a1.62 1.62 0 0 0 1.63-1.63V3a1.87 1.87 0 0 0-1.87-1.83H43.76A1.87 1.87 0 0 0 41.9 3v7.09z" transform="translate(-1.05)"/><path class="cls-5" d="M57.82 35.81c0-6.14-4.73-12.35-9.07-16.78a64.72 64.72 0 0 0-5.13-4.67 1.85 1.85 0 0 0-2.94.88c-.33 1-.71 2.36-1.09 3.86a53 53 0 0 0-1.48 9c-.32 4.6.15 9.35 2.44 12.88a3.52 3.52 0 0 0 4 1.46l10.76-3.24a3.52 3.52 0 0 0 2.51-3.39z" transform="translate(-1.05)"/><path class="cls-6" d="M53.87 44.81a.68.68 0 0 0-.85-.46l-3.89 1.16a.68.68 0 0 0-.46.85l1.2 4 5.19-1.55z" transform="translate(-1.05)"/><path class="cls-7" d="M55.07 48.83l-5.19 1.55 1.9 6.51A2.71 2.71 0 0 0 57 55.34z" transform="translate(-1.05)"/><path d="M48.72 32.91a1.17 1.17 0 1 0-1.17 1.17 1.17 1.17 0 0 0 1.17-1.17z" transform="translate(-1.05)"/><path d="M56.2 48.51l-1.2-4a1.86 1.86 0 0 0-2.31-1.25l-.78.23-.56-1.86 4.28-1.28A4.72 4.72 0 0 0 59 35.81c0-4.11-1.94-8.63-5.72-13.42-.9-1.14-1.84-2.22-2.79-3.23a2.7 2.7 0 0 0 .51-1.59v-5.91a2.65 2.65 0 0 0 0-.35h5.16a2.8 2.8 0 0 0 2.8-2.8V3a3 3 0 0 0-3-3h-12.2a3 3 0 0 0-1.86.64A3 3 0 0 0 40 0H27.89a3 3 0 0 0-3 3v6H20a3 3 0 0 0-3 3v5.94h-5a3 3 0 0 0-3 3v5.92H4.09a3 3 0 0 0-3 3v5.54a2.73 2.73 0 0 0 2.73 2.73H32.4a2.73 2.73 0 0 0 2.73-2.73v-6.15h1.73c-.19 5.14.71 9.29 2.7 12.35a4.73 4.73 0 0 0 4 2.14 4.6 4.6 0 0 0 1.32-.19l4.28-1.28.56 1.86-.86.26a1.86 1.86 0 0 0-1.25 2.31l1.2 4 1.9 6.51A3.88 3.88 0 0 0 58.09 55zm-7.54-36.85v5.63c-1.55-1.51-3-2.8-4.25-3.8h-.05a3 3 0 0 0-4.8 1.43v.16c-.26.84-.54 1.79-.82 2.84h-3.61v-6.61H48.3a.35.35 0 0 1 .36.35zM37.08 26.31v.52H27.2v-6.54h10.9a54.74 54.74 0 0 0-1.02 6.02zm6.68-24H55.9a.7.7 0 0 1 .69.69v5.51a.45.45 0 0 1-.45.45H43.07V3a.7.7 0 0 1 .69-.66zM27.2 3a.7.7 0 0 1 .69-.69H40a.7.7 0 0 1 .69.69v6H27.2zm-7.93 9a.7.7 0 0 1 .69-.69h12.83v6.62H19.27zm-7.93 9a.7.7 0 0 1 .69-.69h12.83v6.62H11.33zM3.4 35.48v-5.54a.7.7 0 0 1 .69-.69h12.83v6.62H3.78a.39.39 0 0 1-.38-.39zm29.39 0a.39.39 0 0 1-.39.39H19.27v-6.62h13.52zm11.37 5.82a2.33 2.33 0 0 1-2.64-1c-1.86-2.86-2.62-7-2.26-12.16v-.84q0-.26.05-.52v-.44a54.2 54.2 0 0 1 1.28-7c.31-1.23.65-2.47 1-3.67v-.22a.68.68 0 0 1 .41-.34h.69a63.91 63.91 0 0 1 5 4.54 48.78 48.78 0 0 1 3.48 3.93c3.45 4.38 5.2 8.41 5.21 12a2.33 2.33 0 0 1-1.38 2.5l-4.28 1.28-.72-2.29a1.17 1.17 0 0 0-2.25.67l.69 2.26zm8.73 4.32l.73 2.38-2.95.88-.72-2.43zm1.92 12a1.54 1.54 0 0 1-1.91-1l-1.57-5.39 2.95-.88 1.57 5.38a1.54 1.54 0 0 1-1.04 1.86z" transform="translate(-1.05)"/></g></svg>