<svg id="Layer_1" data-name="Layer 1" xmlns="http://www.w3.org/2000/svg" viewBox="0 0 60 60"><defs><style>.cls-1{fill:#50dd8e}.cls-2{fill:#ff7474}.cls-3{fill:#ecf4f7}.cls-4{fill:#80d6fa}.cls-5{fill:#51565f}</style></defs><title>building1</title><path class="cls-1" d="M43.22 37.12c3.05 0 4.07 8.14 4.07 12.2a4.07 4.07 0 1 1-8.14 0c0-4.07 1.02-12.2 4.07-12.2z"/><path class="cls-2" d="M29.09 20.44A11.69 11.69 0 0 1 27 18.1a6.48 6.48 0 0 1-.81-1.42 10.62 10.62 0 0 1-1.22-5 9.4 9.4 0 0 1 .41-2.95 11.18 11.18 0 0 1 22 2.95 10.33 10.33 0 0 1-1.22 5 11 11 0 0 1-5.08 5 11.56 11.56 0 0 1-5 1.12 9.4 9.4 0 0 1-2.95-.41c-.2-.1-.41-.1-.61-.2.02.08-1.2-.12-3.43-1.75zm2.64-8.85a2.89 2.89 0 0 0 2.34 1.12 3 3 0 0 0 3.05-3.05 3.05 3.05 0 1 0-6.1 0 2.68 2.68 0 0 0 .71 1.93z"/><path class="cls-3" d="M8.64 49.32v6.1h18.31V18.1a11.69 11.69 0 0 0 2.14 2.34 10.43 10.43 0 0 0 3.46 1.93c.2.1.41.1.61.2l-.1.41v36.61H2.54V12.81h8.14V8.75h14.24l.41.1a9.4 9.4 0 0 0-.41 2.95 10.33 10.33 0 0 0 1.22 5l-.2.1H8.64v32.42zM59.49 30v5.08h-5.08l-1-1V31h-2v-2h-3.1l-1-1v-3.08h-3.07l-3.15-3.15v-.1a11.24 11.24 0 0 0 5-5l.2.1z"/><path class="cls-4" d="M6.61 55.42h20.34V16.78H6.61z"/><path class="cls-5" d="M59.49 60H.51a.51.51 0 1 1 0-1H2V12.71a.48.48 0 0 1 .51-.51h7.63V8.64a.48.48 0 0 1 .51-.51h10.2a.51.51 0 0 1 0 1h-9.66v3.56a.48.48 0 0 1-.51.51H3.05V59h29.49V35.08a.51.51 0 1 1 1 0V59h9.15v-5.1a4.7 4.7 0 0 1-4.07-4.58c0-3.56.81-12.71 4.58-12.71s4.58 9.15 4.58 12.71a4.7 4.7 0 0 1-4.07 4.58V59h15.78a.51.51 0 1 1 0 1zM43.22 37.63c-2.34 0-3.56 6.92-3.56 11.69a3.56 3.56 0 1 0 7.12 0c0-4.78-1.22-11.69-3.56-11.69zm-16.27 18.3a.48.48 0 0 1-.51-.51v-5.59h-5.08v5.59a.51.51 0 0 1-1 0v-5.59h-5.11v5.59a.51.51 0 0 1-1 0v-5.59h-5.1v5.59a.51.51 0 0 1-1 0v-5.59H6.61a.51.51 0 1 1 0-1h1.53v-7.14H6.61a.51.51 0 1 1 0-1h1.53v-7.13H6.61a.51.51 0 1 1 0-1h1.53v-7.14H6.61a.51.51 0 0 1 0-1h1.53v-7.13H6.61a.51.51 0 1 1 0-1h15.76a.51.51 0 0 1 0 1h-1v7.12h3.56a.51.51 0 0 1 0 1h-3.57v7.12h5.08V32a.51.51 0 1 1 1 0v.51H28a.51.51 0 1 1 0 1h-.51v7.12H29a.51.51 0 1 1 0 1h-1.54v7.12H29a.51.51 0 0 1 0 1h-1.54v5.59a.48.48 0 0 1-.51.59zm-5.59-7.12h5.08v-7.12h-5.08zm-6.1 0h5.08v-7.12h-5.09zm-6.1 0h5.08v-7.12H9.15zm12.2-8.14h5.08v-7.11h-5.08zm-6.1 0h5.08v-7.11h-5.09zm-6.1 0h5.08v-7.11H9.15zm6.1-8.14h5.08v-7.11h-5.09zm-6.1 0h5.08v-7.11H9.15zm6.1-8.14h5.08v-7.1h-5.09zm-6.1 0h5.08v-7.1H9.15zm50.33 11.2h-5.08c-.1 0-.31-.1-.41-.1l-1-1c-.1-.1-.1-.2-.1-.41v-2.55h-1.54a.48.48 0 0 1-.51-.51v-1.53h-2.54c-.1 0-.31-.1-.41-.1l-1-1c-.1-.1-.1-.2-.1-.41v-2.56h-2.56c-.1 0-.31-.1-.41-.1l-.41-.41a.5.5 0 0 1 .71-.71l.2.2h2.85a.48.48 0 0 1 .51.51v2.85l.71.71h2.85a.48.48 0 0 1 .51.51v1.52h1.53a.48.48 0 0 1 .51.51v2.85l.71.71h4.37V30.2L48.51 19.83a.5.5 0 1 1 .71-.71L59.8 29.69c.1.1.1.2.1.41v5.08c.1.21-.1.41-.41.41zM32 31.53c-2.24 0-3.56-2.85-3.56-7.63 0-1.22 0-2.24.1-3.25a11.86 11.86 0 0 1-4.17-8.95 11.69 11.69 0 1 1 23.39 0A11.76 11.76 0 0 1 36.1 23.39a11.07 11.07 0 0 1-3.66-.61h-.1l-2.75-1.53c0 .81-.1 1.73-.1 2.64 0 4 1 6.61 2.54 6.61 2.54 0 2.54-4.58 2.54-4.58a.51.51 0 0 1 1 0c.02.22.02 5.61-3.57 5.61zm.71-9.66a12.79 12.79 0 0 0 3.36.51 10.68 10.68 0 1 0-10.65-10.69 11.11 11.11 0 0 0 3.25 7.73A18.77 18.77 0 0 1 31 11.59a.1.1 0 0 0-.1-.1 3.71 3.71 0 0 1-.41-2.75 3.18 3.18 0 0 1 1.63-2.14 3.26 3.26 0 0 1 2.75-.31A3.18 3.18 0 0 1 37 7.93a3.54 3.54 0 0 1-1.32 4.88.52.52 0 0 1-.51-.92 2.51 2.51 0 0 0 .92-3.46 2.6 2.6 0 0 0-1.53-1.22 2.23 2.23 0 0 0-1.93.31 2.6 2.6 0 0 0-1.22 1.53 2.54 2.54 0 0 0 .1 1.73 3.94 3.94 0 0 1 2.24-1.53c.31-.1.51.1.61.41s-.1.51-.41.61c-.1 0-3.76 1-4.47 10zm-11.9-8.64h-6.1a.51.51 0 1 1 0-1h6.1a.51.51 0 0 1 0 1z"/></svg>