<svg id="Layer_1" data-name="Layer 1" xmlns="http://www.w3.org/2000/svg" viewBox="0 0 79.98 80"><defs><style>.cls-1{fill:none}.cls-2{clip-path:url(#clip-path)}.cls-3{fill:#333}.cls-4{fill:#f9ba48}</style><clipPath id="clip-path" transform="translate(-.01)"><path class="cls-1" d="M0 0h80v80H0z"/></clipPath></defs><title>cash</title><g class="cls-2"><path class="cls-3" d="M61.58 43.48l-1.83-1.83a2.36 2.36 0 0 0 0-3.34 2.42 2.42 0 0 0-3.34 0l-1.81-1.82 1.29-1.29a2.36 2.36 0 0 0 0-3.34 2.42 2.42 0 0 0-3.34 0l-1.29 1.29-1.83-1.83L52 28.75a2.36 2.36 0 0 0-3.34-3.34L46.1 28l-1.83-1.83 1.29-1.29a2.36 2.36 0 0 0-3.34-3.34l-1.29 1.29L39.11 21l1.29-1.29a4.94 4.94 0 0 1 8.37 2.68A4.94 4.94 0 0 1 55 28.66a4.94 4.94 0 0 1 3.87 6.45 4.94 4.94 0 0 1 2.69 8.37zM41.69 58.44L38 62.13 29 66 15.93 77.75l1.73 1.92L22 75.72c.52.26 1 .54 1.57.77l1.06-2.35-.56-.28 6.29-5.66 9.07-3.88 4-4z" transform="translate(-.01)"/><path class="cls-4" d="M33.24 13.64L13.67 33.21l4.5 4.5 4.42-4.28a2.72 2.72 0 0 1 4.19 3.43L23 42.54l23.8 23.8 19.57-19.57zm11.48 31a6.64 6.64 0 1 1 0-9.39 6.64 6.64 0 0 1 0 9.44z" transform="translate(-.01)"/><path class="cls-3" d="M40 47.92a7.94 7.94 0 1 1 5.61-2.32A7.88 7.88 0 0 1 40 47.92zm0-13.28a5.35 5.35 0 1 0 3.78 1.57A5.32 5.32 0 0 0 40 34.64zM20.88 45.73L23 47.16l5.92-8.88a5.3 5.3 0 0 0-8.16-6.69L13 39.35l-2.56 12.91-4.08 4.08c-.11-.23-.23-.45-.34-.67l-2.34 1.08c.24.51.5 1 .76 1.51L.39 62.31l1.83 1.83 10.6-10.6 2.58-12.91 7.21-7.21a2.72 2.72 0 0 1 4.19 3.43zM5.28 26l-2.39-1a40 40 0 0 0-1.68 5.16l2.5.63A37.57 37.57 0 0 1 5.28 26zm5.03-8.77l-2-1.57a39.64 39.64 0 0 0-3 4.52l2.24 1.28a37.61 37.61 0 0 1 2.76-4.23zM.52 46.39a39.65 39.65 0 0 0 1.22 5.29l2.47-.75A37.22 37.22 0 0 1 3.07 46zM2.59 40a38.11 38.11 0 0 1 .23-4.14l-2.57-.29A40.4 40.4 0 0 0 0 40v1l2.58-.06c.02-.33.01-.64.01-.94zM73.3 17.78a40.59 40.59 0 0 0-3.3-4.3l-1.93 1.71a37.82 37.82 0 0 1 3.1 4zm-55.81-7.69L15.94 8a40.63 40.63 0 0 0-4.1 3.55l1.82 1.83a38 38 0 0 1 3.83-3.29zm59.92 28.18l2.59-.11a40.22 40.22 0 0 0-.61-5.39l-2.54.46a37.9 37.9 0 0 1 .56 5.04zM78 27.51a40.17 40.17 0 0 0-2-5l-2.32 1.13a37.55 37.55 0 0 1 1.91 4.7zM26.32 5.14l-.94-2.4a40 40 0 0 0-4.9 2.32l1.26 2.25a37 37 0 0 1 4.58-2.17zm14.92-2.56a37.72 37.72 0 0 1 5.05.5l.43-2.54a40.35 40.35 0 0 0-5.4-.54zM59 72.27l1.31 2.22a40.35 40.35 0 0 0 4.48-3.06l-1.6-2A38.06 38.06 0 0 1 59 72.27zm1.38-63.69a37.47 37.47 0 0 1 4.06 3l1.69-2a40.47 40.47 0 0 0-4.34-3.26zm-9.16-4.32A37.41 37.41 0 0 1 56 6.11l1.1-2.33A39.64 39.64 0 0 0 52 1.8zm21.71 53.58l2.27 1.23a40 40 0 0 0 2.26-4.93L75 53.22a37 37 0 0 1-2.07 4.62zm3.58-9.48l2.52.57a39.9 39.9 0 0 0 .85-5.36l-2.57-.23a37.27 37.27 0 0 1-.8 5.02zM66.93 66l1.86 1.8a40 40 0 0 0 3.5-4.15l-2.08-1.53A37.91 37.91 0 0 1 66.93 66zM49.64 76.17l.66 2.5a39.63 39.63 0 0 0 5.14-1.75l-1-2.38a37.22 37.22 0 0 1-4.8 1.63zm-20.79 2.25a40.61 40.61 0 0 0 5.3 1.15l.37-2.57a37.39 37.39 0 0 1-5-1.08zm1.7-77.31l.61 2.51a37.67 37.67 0 0 1 5-.86L35.9.19a40.35 40.35 0 0 0-5.35.92zM40 77.42h-.44V80H40a40.5 40.5 0 0 0 5-.3l-.32-2.56a38.19 38.19 0 0 1-4.68.28z" transform="translate(-.01)"/></g></svg>