<svg id="Layer_1" data-name="Layer 1" xmlns="http://www.w3.org/2000/svg" viewBox="0 0 40.88 60"><defs><style>.cls-1{fill:#c2b59b}.cls-2{fill:#e8e4dc}.cls-3{fill:#ff55a3}.cls-4{fill:#ffd153}.cls-5{fill:#57f7ac}.cls-6{fill:#59dbff}.cls-7{fill:#71b4ff}</style></defs><title>color-palette</title><path class="cls-1" d="M47.49 17.16l-5.74-2.8L40.44 22l-2.18 12.67-2.18 12.66-.17 1 4.5-9.24 5-10.25L49 21.49a3.24 3.24 0 0 0-1.51-4.33z" transform="translate(-9.61)"/><path class="cls-2" d="M38.26 34.67L40.44 22l1.31-7.65.53-3.06A2 2 0 0 0 40.66 9L33 7.71v40a11.13 11.13 0 0 1-8.11 10.72 9.92 9.92 0 0 0 10.66-8.2l.32-1.89.17-1z" transform="translate(-9.61)"/><path class="cls-3" d="M33 30V6.07a4.9 4.9 0 0 0-4.9-4.9H15.68a4.9 4.9 0 0 0-4.9 4.9V30z" transform="translate(-9.61)"/><path class="cls-4" d="M10.78 15.59H33V30H10.78z" transform="translate(-9.61)"/><path class="cls-5" d="M10.78 30H33v14.41H10.78z" transform="translate(-9.61)"/><path class="cls-6" d="M33 47.7v-3.29H10.78v3.29a11.13 11.13 0 1 0 22.22 0zm-11.13.73a3.19 3.19 0 1 1-3.19 3.19 3.19 3.19 0 0 1 3.23-3.19z" transform="translate(-9.61)"/><path class="cls-7" d="M25.11 51.62a3.19 3.19 0 1 1-3.19-3.19 3.19 3.19 0 0 1 3.19 3.19z" transform="translate(-9.61)"/><path d="M21.91 47.25a4.37 4.37 0 1 0 4.37 4.37 4.37 4.37 0 0 0-4.37-4.37zm0 6.39a2 2 0 1 1 2-2 2 2 0 0 1-2 2zm-2.63-36.88a1.17 1.17 0 1 0-1.18-1.17 1.17 1.17 0 0 0 1.18 1.17z" transform="translate(-9.61)"/><path d="M50.25 18.64A4.38 4.38 0 0 0 48 16.11l-5-2.41.38-2.19a3.15 3.15 0 0 0-2.57-3.64l-6.6-1.15v-.65A6.08 6.08 0 0 0 28.14 0H15.68a6.08 6.08 0 0 0-6.07 6.07V47.7A12.31 12.31 0 0 0 25 59.6h.79a11.09 11.09 0 0 0 10.92-9.21l.3-1.72L50 22a4.38 4.38 0 0 0 .25-3.36zM12 31.17h19.87v12.07H12zm3.68-28.83h12.46a3.74 3.74 0 0 1 3.73 3.73v8.34H24a1.17 1.17 0 0 0 0 2.34h7.9v12.08H12V16.76h2.64a1.17 1.17 0 1 0 0-2.34H12V6.07a3.74 3.74 0 0 1 3.68-3.73zM12 47.7v-2.11h19.87v2.28A10 10 0 0 1 12 47.7zm20.09 7v-.97L33 53V9.1l6.25 1.07a.81.81 0 0 1 .66.93l-.52 3.05L37.53 32l-3.1 18A8.71 8.71 0 0 1 32 54.68zM47.93 21l-9.47 19.43 1.06-6.16 3.12-18.17L47 18.22a2.07 2.07 0 0 1 1 2.76z" transform="translate(-9.61)"/></svg>