<svg id="Layer_1" data-name="Layer 1" xmlns="http://www.w3.org/2000/svg" viewBox="0 0 60 60"><defs><style>.cls-1{fill:#aab1ba}.cls-2{fill:#ffd0a1}.cls-3{fill:#ecf4f7}.cls-4{fill:#80d6fa}.cls-5{fill:#51565f}</style></defs><title>contract</title><path class="cls-1" d="M16.78 12.71v38.65H4.58a4.08 4.08 0 0 0 4.07-4.07V12.71a4.07 4.07 0 0 1 8.14 0z"/><path class="cls-2" d="M47.29 23.9v11.18h-7.12V29H36.1v6.1H29V23.9l9.15-9.15z"/><path class="cls-3" d="M47.29 23.9l-9.15-9.15L29 23.9v11.18h7.1V29h4.07v6.1h7.12zm12.2-11.19v30.51h-.1a2.89 2.89 0 0 0-.81-1.12l-2-2a2.72 2.72 0 0 0-4.07 0l-2 2-10.34 10.27-1 1v6.1H16.78V12.71a4.08 4.08 0 0 0-4.07-4.07h42.71a4.08 4.08 0 0 1 4.07 4.07z"/><path class="cls-3" d="M59.29 43.22a2.63 2.63 0 0 1-.81 2.95l-2 2-3.05-3.05-3.09-3.02 2-2a2.72 2.72 0 0 1 4.07 0l2 2a1.7 1.7 0 0 1 .88 1.12zm-13 15.25l-1 1h-6.1v-6.1l1-1 3.05 3.05z"/><path class="cls-4" d="M56.54 48.2L46.27 58.47l-3.05-3.05 10.27-10.27zm-3.05-3.05L43.22 55.42l-3.05-3.05L50.44 42.1z"/><path class="cls-1" d="M43.22.51v8.13H12.71a4.08 4.08 0 0 0-4.07 4.07v34.58a4.07 4.07 0 0 1-8.14 0V.51z"/><path class="cls-5" d="M45.25 60h-6.1a.48.48 0 0 1-.51-.51v-6.1c0-.1.1-.31.1-.41l13.33-13.32a3.25 3.25 0 0 1 2.34-1 3.75 3.75 0 0 1 2.44 1l2 2a3.32 3.32 0 0 1 0 4.78L45.56 59.8c0 .1-.2.2-.31.2zm-5.59-1h5.39l.51-.51-5.39-5.39-.51.51zm4.27-3.56l2.34 2.34 9.56-9.56-2.34-2.34zm-3.05-3.05l2.34 2.34 9.56-9.56-2.34-2.34zM51.15 42.1l5.39 5.39 1.63-1.63a2.23 2.23 0 0 0 0-3.36l-2-2a2.49 2.49 0 0 0-1.63-.81 2.12 2.12 0 0 0-1.63.81zM35.08 60h-18.3a.48.48 0 0 1-.51-.51v-7.63h-5.59a.51.51 0 1 1 0-1h5.59V12.71a3.56 3.56 0 1 0-7.12 0v34.58a4.58 4.58 0 1 1-9.15 0V.51A.48.48 0 0 1 .51 0h42.71a.48.48 0 0 1 .51.51v4.07a.51.51 0 0 1-1 0V1H1v46.29a3.6 3.6 0 0 0 3.56 3.56 3.6 3.6 0 0 0 3.56-3.56V12.71a4.58 4.58 0 0 1 9.15 0V59h17.8a.51.51 0 1 1 0 1zm4.07-12.2H24.92a.51.51 0 1 1 0-1h14.23a.51.51 0 1 1 0 1zm6.1-6.1h-6.1a.51.51 0 0 1 0-1h6.1a.51.51 0 0 1 0 1zm-10.17 0H24.92a.51.51 0 1 1 0-1h10.16a.51.51 0 0 1 0 1zm24.41-4.07a.48.48 0 0 1-.51-.51V12.71a3.6 3.6 0 0 0-3.56-3.56H19.83a.51.51 0 0 1 0-1h35.59A4.56 4.56 0 0 1 60 12.71v24.41a.48.48 0 0 1-.51.51zm-12.2-2h-7.12a.48.48 0 0 1-.51-.51v-5.63h-3.05v5.59a.48.48 0 0 1-.51.51H29a.48.48 0 0 1-.51-.51v-10l-1.12 1.12a.5.5 0 0 1-.71-.71l11.17-11.15a.49.49 0 0 1 .71 0l9.15 9.15 2 2a.5.5 0 0 1-.71.71l-1.08-1.08v10a.64.64 0 0 1-.61.47zm-6.61-1h6.1V24.1l-8.64-8.64-8.65 8.64v10.48h6.1V29a.48.48 0 0 1 .51-.51h4.07a.48.48 0 0 1 .51.51v5.59z"/></svg>