<svg id="Layer_1" data-name="Layer 1" xmlns="http://www.w3.org/2000/svg" viewBox="0 0 60 60"><defs><style>.cls-1{fill:none}.cls-2{clip-path:url(#clip-path)}.cls-3{fill:#80d6fa}.cls-4{fill:#aab1ba}.cls-5{fill:#ff7474}.cls-6{fill:#ffd0a1}.cls-7{fill:#ecf4f7}.cls-8{fill:#51565f}</style><clipPath id="clip-path"><path class="cls-1" d="M0 0h60v60H0z"/></clipPath></defs><title>engineer</title><g class="cls-2"><path class="cls-3" d="M59.49 10.68v48.81s-.71-3.76-8.14-4.78a24.56 24.56 0 0 0-4.07-.31s0 5.08-6.1 5.08-6.1-5.08-6.1-5.08a24.55 24.55 0 0 0-4.07.31c-7.42 1-8.14 4.78-8.14 4.78H5.59a5.08 5.08 0 0 1 0-10.17 5 5 0 0 1 5.08 5.08V6.61h44.75a4.08 4.08 0 0 1 4.07 4.07zM27.05 29v4.07H29v3.03a2 2 0 0 0 2 2s0 5.08 2 8.14c1.22 1.93 3.05 5.08 8.14 5.08s6.92-3.15 8.14-5.08c2-3.05 2-8.14 2-8.14a2 2 0 0 0 2-2v-3.05h2V29h-.71c-1.32-4.07-4-7.73-11.49-8.85v-1.34h-3.93v1.32A13.54 13.54 0 0 0 27.66 29z"/><path class="cls-4" d="M51.35 54.71v4.78H41.19c6.1 0 6.1-5.08 6.1-5.08a24.56 24.56 0 0 1 4.06.3zm-10.16 4.78H31v-4.78a24.54 24.54 0 0 1 4.07-.31s.01 5.09 6.12 5.09z"/><path class="cls-5" d="M59.49 59.49h-8.13v-4.78c7.42 1.02 8.13 4.78 8.13 4.78zM31 54.71v4.78h-8.12s.71-3.76 8.12-4.78z"/><path class="cls-6" d="M53.39 33.05v3.05a2 2 0 0 1-2 2s0 5.08-2 8.14c-1.22 1.93-3.05 5.08-8.14 5.08s-6.92-3.15-8.14-5.08c-2-3.05-2-8.14-2-8.14a2 2 0 0 1-2-2v-3.05z"/><path class="cls-7" d="M10.68 6.61v47.8a5 5 0 0 0-5.08-5.08 5 5 0 0 0-5.09 5.08V5.59A5 5 0 0 1 5.59.51a5 5 0 0 1 5.08 5.08z"/><path class="cls-5" d="M27.66 29a13.54 13.54 0 0 1 11.49-8.85v-1.34h4.07v1.32c7.53 1.22 10.17 4.78 11.49 8.85h.71v4.07H27.05V29z"/><path class="cls-8" d="M59.49 60a.68.68 0 0 1-.51-.41c0-.1-.81-3.25-7.12-4.27v4.17a.51.51 0 0 1-1 0v-4.37a27.08 27.08 0 0 0-3.05-.2c-.2 1.42-1.22 5.08-6.61 5.08s-6.41-3.66-6.61-5.08a27.05 27.05 0 0 0-3.05.2v4.37a.51.51 0 1 1-1 0v-4.27c-6.31 1.12-7.12 4.27-7.12 4.37a.52.52 0 1 1-1-.2c0-.2 1.22-5.49 12.71-5.49a.48.48 0 0 1 .51.51c0 .2.1 4.58 5.59 4.58s5.59-4.37 5.59-4.58a.48.48 0 0 1 .51-.51 25.84 25.84 0 0 1 4.17.31c7.63 1.12 8.54 5 8.54 5.19s-.1.51-.51.61zm-40.68 0H5.59A5.64 5.64 0 0 1 0 54.41V5.59A5.64 5.64 0 0 1 5.59 0a5.64 5.64 0 0 1 5.59 5.59v48.82a.51.51 0 0 1-1 0A4.58 4.58 0 1 0 5.59 59h13.22a.51.51 0 0 1 0 1zM5.59 1A4.56 4.56 0 0 0 1 5.59v45.56a5.54 5.54 0 0 1 4.58-2.34 5.54 5.54 0 0 1 4.58 2.34V5.59A4.56 4.56 0 0 0 5.59 1zm11.19 54.93h-.2c-.1 0-.1-.1-.2-.1l-2-2a.5.5 0 1 1 .71-.71l1.12 1.12V12.71a.48.48 0 0 1 .51-.51H54.1L53 11.08a.5.5 0 0 1 .71-.71l2 2a.36.36 0 0 1 .1.2V13c0 .1-.1.1-.1.2l-2 2a.5.5 0 0 1-.71-.71l1.12-1.12H17.19v41l1.12-1.12A.5.5 0 1 1 19 54l-2 2a.36.36 0 0 1-.2.1c.08-.17.08-.17-.02-.17zm42.71-2a.48.48 0 0 1-.51-.51V10.68a3.6 3.6 0 0 0-3.56-3.56H14.75a.51.51 0 0 1 0-1h40.67A4.56 4.56 0 0 1 60 10.68v42.71a.48.48 0 0 1-.51.51zm-18.31-2c-5.08 0-7-2.95-8.34-5l-.2-.31c-1.73-2.64-2-6.61-2.14-7.93a2.54 2.54 0 0 1-2-2.54v-2.59h-1.45a.48.48 0 0 1-.51-.51v-3.86c0-.1-.1-.1-.1-.2a.48.48 0 0 1 .51-.51h.41a14.28 14.28 0 0 1 11.29-8.85v-.81a.48.48 0 0 1 .51-.51h4.07a.48.48 0 0 1 .51.51v.81c7.72 1.32 10.16 5.37 11.38 8.84h.31a.48.48 0 0 1 .51.51v4.07a.48.48 0 0 1-.51.51H53.9v2.54a2.72 2.72 0 0 1-2 2.54c-.1 1.32-.31 5.29-2.14 7.93l-.2.31c-1.36 2.04-3.29 4.98-8.37 4.98zM29.49 33.56v2.54A1.56 1.56 0 0 0 31 37.63a.48.48 0 0 1 .51.51s0 5 1.93 7.83l.2.31c1.22 1.93 2.95 4.47 7.53 4.47s6.2-2.64 7.53-4.47l.2-.31c1.93-2.85 1.93-7.83 1.93-7.83a.48.48 0 0 1 .51-.51 1.56 1.56 0 0 0 1.53-1.53v-2.54zm23.9-1h1.53v-3.07h-4.58a.51.51 0 0 1 0-1H54c-1.22-3.25-3.46-6.51-10.27-7.83v3.24a.51.51 0 1 1-1 0v-4.58h-3.07v4.58a.51.51 0 1 1-1 0v-3.26a13.19 13.19 0 0 0-10.27 7.83H32a.51.51 0 0 1 0 1h-4.44v3.05zM42.2 47.8h-2a.51.51 0 0 1 0-1h2a.51.51 0 1 1 0 1zm2-3.05a7.57 7.57 0 0 1-3.05-.92 7.57 7.57 0 0 1-3.05.92.51.51 0 0 1 0-1 7.73 7.73 0 0 0 2.9-.94.31.31 0 0 1 .41 0 7.22 7.22 0 0 0 2.85.92.51.51 0 0 1 0 1zm1-6.1a.48.48 0 0 1-.51-.51v-.51h-.51a.51.51 0 0 1 0-1h2a.51.51 0 0 1 0 1h-.51v.51a.48.48 0 0 1-.42.5zm-8.14 0a.48.48 0 0 1-.51-.51v-.51h-.45a.51.51 0 1 1 0-1h2a.51.51 0 0 1 0 1h-.51v.51a.48.48 0 0 1-.47.5z"/></g></svg>