<svg id="Layer_1" data-name="Layer 1" xmlns="http://www.w3.org/2000/svg" viewBox="0 0 47.55 60"><defs><style>.cls-1{fill:#d74947}.cls-2{fill:#e4edfb}.cls-3{fill:#3e313d}.cls-4{fill:#fcbe57}.cls-5{fill:#70a5f3}.cls-6{fill:#ce3636}.cls-7{fill:#332533}.cls-8{fill:#d7e1f2}.cls-9{fill:#4a81d1}.cls-10{fill:#f9ae41}.cls-11{fill:#fff}</style></defs><title>fee</title><path d="M50.54 52.31H9.44a2.35 2.35 0 1 1 0-4.7h41.1a2.35 2.35 0 0 1 0 4.7z" transform="translate(-6.21)"/><path class="cls-1" d="M50.54 47.61H9.44l1.92-10.05a3.52 3.52 0 0 1 3.46-2.86h30.34a3.52 3.52 0 0 1 3.46 2.86z" transform="translate(-6.21)"/><path class="cls-2" d="M45.25 34.7H14.72L17.07 23H42.9z" transform="translate(-6.21)"/><path class="cls-3" d="M15.9 59.12h-3.53a1.76 1.76 0 0 1-1.76-1.76v-5h7v5a1.76 1.76 0 0 1-1.71 1.76zm28.18 0h3.52a1.76 1.76 0 0 0 1.76-1.76v-5h-7v5a1.76 1.76 0 0 0 1.72 1.76z" transform="translate(-6.21)"/><path class="cls-4" d="M39.38 10.27A9.39 9.39 0 1 1 30 .88a9.39 9.39 0 0 1 9.38 9.39zM19 43.5h-1.69a2.35 2.35 0 1 1 0-4.7H19a2.35 2.35 0 1 1 0 4.7zm22 0h1.64a2.35 2.35 0 0 0 0-4.7H41a2.35 2.35 0 1 0 0 4.7z" transform="translate(-6.21)"/><path d="M9.44 52.31h41.1a2.35 2.35 0 0 0 0-4.7H9.44a2.35 2.35 0 1 0 0 4.7z" transform="translate(-6.21)"/><path class="cls-5" d="M9.44 52.31h41.1a2.35 2.35 0 0 0 0-4.7H9.44a2.35 2.35 0 1 0 0 4.7zM9 32.35a2.35 2.35 0 0 0 2.35 2.35h3.4l.94-4.7h-4.37A2.35 2.35 0 0 0 9 32.35zm42 0a2.35 2.35 0 0 1-2.35 2.35h-3.4l-.94-4.7h4.34A2.35 2.35 0 0 1 51 32.35z" transform="translate(-6.21)"/><path class="cls-6" d="M9.44 47.61h41.1l-.45-2.35H9.89z" transform="translate(-6.21)"/><path class="cls-7" d="M10.61 52.31h7v2.35h-7zm31.71 0h7v2.35h-7z" transform="translate(-6.21)"/><path class="cls-8" d="M15.19 32.35l-.47 2.35h30.53l-.47-2.35z" transform="translate(-6.21)"/><path class="cls-9" d="M50.54 50H9.44a2.34 2.34 0 0 1-2-1.17 2.35 2.35 0 0 0 2 3.52h41.1a2.35 2.35 0 0 0 2-3.52 2.34 2.34 0 0 1-2 1.17zM13.27 30l-.47 2.35h-1.48a2.34 2.34 0 0 1-2-1.17 2.35 2.35 0 0 0 2 3.52h3.4l.94-4.7zm33.44 0l.47 2.35h1.48a2.34 2.34 0 0 0 2-1.17 2.35 2.35 0 0 1-2 3.52h-3.4l-.95-4.7z" transform="translate(-6.21)"/><path class="cls-10" d="M30 17.32a9.39 9.39 0 0 1-9.33-8.22 9.39 9.39 0 1 0 18.64 0A9.39 9.39 0 0 1 30 17.32z" transform="translate(-6.21)"/><path d="M51.28 46.82l-1.8-9.43a4.39 4.39 0 0 0-.81-1.82 3.23 3.23 0 0 0 0-6.46H45l-1.41-7H16.35l-1.41 7h-3.62a3.23 3.23 0 0 0 0 6.46 4.39 4.39 0 0 0-.81 1.82l-1.8 9.43a3.23 3.23 0 0 0 .75 6.37h.29v4.17A2.64 2.64 0 0 0 12.38 60h3.52a2.64 2.64 0 0 0 2.64-2.64v-4.17h22.9v4.17A2.64 2.64 0 0 0 44.08 60h3.52a2.64 2.64 0 0 0 2.64-2.64v-4.17h.29a3.23 3.23 0 0 0 .75-6.37zm-2.62-15.94a1.47 1.47 0 0 1 0 2.94H46l-.59-2.94zm-30.86-7h24.38l2 10H15.8zm-7.95 8.47a1.47 1.47 0 0 1 1.47-1.47h3.27L14 33.82h-2.68a1.47 1.47 0 0 1-1.47-1.47zm2.37 5.38a2.65 2.65 0 0 1 2.6-2.15h30.34a2.64 2.64 0 0 1 2.59 2.15l1.72 9h-39zm4.55 19.63a.88.88 0 0 1-.88.88h-3.51a.88.88 0 0 1-.88-.88v-4.17h5.28zm31.7 0a.88.88 0 0 1-.88.88h-3.51a.88.88 0 0 1-.88-.88v-4.17h5.28zm2.05-5.93H9.44a1.47 1.47 0 0 1 0-2.94h41.1a1.47 1.47 0 0 1 0 2.94zM29.81 11.15h.35a1 1 0 1 1 0 2h-3.05v1.76H29V17h1.76v-2.17a2.76 2.76 0 0 0-.65-5.44h-.35a1 1 0 1 1 0-2h3.05V5.64h-2V3.58H29v2.16a2.76 2.76 0 0 0 .76 5.41z" transform="translate(-6.21)"/><path d="M30 20.55a10.27 10.27 0 1 0-10.29-10.28A10.29 10.29 0 0 0 30 20.55zm0-18.79a8.51 8.51 0 1 1-8.51 8.51A8.52 8.52 0 0 1 30 1.76zM19 37.93h-1.69a3.23 3.23 0 0 0 0 6.46H19a3.23 3.23 0 1 0 0-6.46zm0 4.7h-1.69a1.47 1.47 0 0 1 0-2.94H19a1.47 1.47 0 1 1 0 2.94zm23.67-4.7H41a3.23 3.23 0 1 0 0 6.46h1.64a3.23 3.23 0 0 0 0-6.46zm0 4.7H41a1.47 1.47 0 1 1 0-2.94h1.64a1.47 1.47 0 0 1 0 2.94zM11.79 9.39h1.76v1.76h-1.76zm3.52 0h1.76v1.76h-1.76zm31.12 0h1.76v1.76h-1.76zm-3.53 0h1.76v1.76H42.9z" transform="translate(-6.21)"/><path class="cls-11" d="M35.27 39.1h-7v-1.76h7zm-8.81 0h-1.75v-1.76h1.76zm13.98-11.62h-5.87v-1.77h5.87zm-7.63 0H31v-1.77h1.76z" transform="translate(-6.21)"/></svg>