<svg id="Layer_1" data-name="Layer 1" xmlns="http://www.w3.org/2000/svg" viewBox="0 0 80 80"><defs><style>.cls-1{fill:none}.cls-2{clip-path:url(#clip-path)}.cls-3{fill:#f9ba48}.cls-4{fill:#333}</style><clipPath id="clip-path"><path class="cls-1" d="M0 0h80v80H0z"/></clipPath></defs><title>finances</title><g class="cls-2"><path class="cls-3" d="M1.29 6.45v34.84h33.55V29.68H52.9V6.45zm8.39 29.68a1.94 1.94 0 1 1 1.94-1.94 1.94 1.94 0 0 1-1.94 1.94zm9-9a1.94 1.94 0 1 1 1.94-1.94 1.94 1.94 0 0 1-1.91 1.91zM29 32.26a1.94 1.94 0 1 1 2-1.94 1.94 1.94 0 0 1-2 1.94zm15.51-16.78a1.94 1.94 0 1 1 1.94-1.94 1.94 1.94 0 0 1-1.94 1.94z"/><path class="cls-4" d="M74.84 33.55H38.71V49h36.13zm-2.58 12.9h-31V36.13h31zM49 51.61H38.71v10.33H49zm-2.58 7.74h-5.13v-5.16h5.16zM49 64.52H38.71v10.32H49zm-2.58 7.74h-5.13V67.1h5.16zm5.19-10.32h10.33V51.61H51.61zm2.58-7.74h5.16v5.16h-5.16z"/><path class="cls-4" d="M33.55 28.39v12.9H0v6.45h7.46L1.32 78.46l2.53.54 6.24-31.22h15.72v31h2.58v-31h5.16V80H80V28.39zm-31 16.77v-1.29h31v1.29zm74.87 32.26H36.13V31h41.29z"/><path class="cls-4" d="M51.61 74.84h10.33V64.52H51.61zm2.58-7.74h5.16v5.16h-5.16zm10.33-5.16h10.32V51.61H64.52zm2.58-7.74h5.16v5.16H67.1zm-2.58 20.64h10.32V64.52H64.52zm2.58-7.74h5.16v5.16H67.1zM54.19 0H0v6.45h54.19zm-2.58 3.87h-49V2.58h49zm-7.09 12.9a3.23 3.23 0 1 0-3-2L30.11 27.3a3.15 3.15 0 0 0-1.11-.2 3.2 3.2 0 0 0-2.23.9l-4.88-2.93a3.22 3.22 0 1 0-6.21 1.26l-4.83 4.87a3.25 3.25 0 1 0 1.83 1.8l4.86-4.86a3.17 3.17 0 0 0 3.4-.67l4.88 2.93A3.22 3.22 0 1 0 32 29.06l11.44-12.49a3.15 3.15 0 0 0 1.08.2zm0-3.87a.65.65 0 1 1-.65.65.65.65 0 0 1 .65-.65zM9.68 34.84a.65.65 0 1 1 .65-.65.65.65 0 0 1-.65.65zm9-9a.65.65 0 1 1 .65-.65.65.65 0 0 1-.62.62zM29 31a.65.65 0 1 1 .65-.65.65.65 0 0 1-.65.65z"/></g></svg>