<svg id="Layer_1" data-name="Layer 1" xmlns="http://www.w3.org/2000/svg" viewBox="0 0 80 80"><defs><style>.cls-1{fill:#333}.cls-2{fill:#f9ba48}</style></defs><title>growth</title><path class="cls-1" d="M78.71 28.39a11.62 11.62 0 0 0-11.58 10.94l-2.61 2V21.94h-2.59V35l-5.2-3.46a11.62 11.62 0 0 0-11.58-10.9h-1.28v1.29a11.62 11.62 0 0 0 11.19 11.6l6.87 4.58v8.34H51.61V80h23.23V46.45H64.51v-1.93l4.33-3.25A11.62 11.62 0 0 0 80 29.68v-1.29h-1.29zm-32.15-5.06a9.05 9.05 0 0 1 7.53 7.52 9.05 9.05 0 0 1-7.53-7.52zm15.37 30.86v2.58h-2.58v-2.58zm0 5.16v2.58h-2.58v-2.58zm0 5.16v2.59h-2.58v-2.58zm0 5.16v2.58h-2.58v-2.57zm0 5.16v2.58h-2.58v-2.57zm2.58 0h2.58v2.58h-2.58zm0-2.58v-2.57h2.58v2.58zm0-5.16v-2.57h2.58v2.58zm0-5.16v-2.58h2.58v2.58zm0-5.16v-2.58h2.58v2.58zm0-5.16V49h2.58v2.58zm-2.58 0h-2.58V49h2.58zM54.19 49h2.58v2.58h-2.58zm0 5.16h2.58v2.58h-2.58zm0 5.16h2.58v2.58h-2.58zm0 5.16h2.58v2.62h-2.58zm0 5.16h2.58v2.58h-2.58zm0 5.16h2.58v2.58h-2.58zm18.06 2.58h-2.57v-2.54h2.58zm0-5.16h-2.57v-2.54h2.58zm0-5.16h-2.57v-2.54h2.58zm0-5.16h-2.57v-2.55h2.58zm0-5.16h-2.57v-2.55h2.58zm0-5.16h-2.57V49h2.58zm-2.47-13a9.05 9.05 0 0 1 7.52-7.52 9.05 9.05 0 0 1-7.52 7.54z"/><path class="cls-2" d="M63.23 23.23a11.61 11.61 0 1 1 11.61-11.62 11.63 11.63 0 0 1-11.61 11.62z"/><path class="cls-1" d="M64.51 15.48h-2.58a1.29 1.29 0 0 1-1.29-1.29h-2.58a3.88 3.88 0 0 0 3.87 3.87v1.29h2.58v-1.29a3.87 3.87 0 0 0 0-7.74h-2.58a1.29 1.29 0 1 1 0-2.58h2.58A1.29 1.29 0 0 1 65.8 9h2.58a3.88 3.88 0 0 0-3.87-3.87V3.87h-2.58v1.29a3.87 3.87 0 1 0 0 7.74h2.58a1.29 1.29 0 0 1 0 2.58zm-38.7 46.45V80H49V56.77H25.81zm2.58 2.58H31v2.59h-2.61zm5.16 2.58v-2.57h2.58v2.58zm2.58 2.58v2.58h-2.58v-2.57zm0 5.16v2.58h-2.58v-2.57zm2.58 0h2.58v2.58h-2.58zm0-2.58v-2.57h2.58v2.58zm0-5.16v-2.57h2.58v2.58zm0-5.16v-2.58h2.58v2.58zm-2.58 0h-2.58v-2.58h2.58zm-7.74 7.74H31v2.58h-2.61zm0 5.16H31v2.58h-2.61zm18.06 2.58h-2.58v-2.57h2.58zm0-5.16h-2.58v-2.57h2.58zm0-5.16h-2.58v-2.57h2.58zm0-5.16h-2.58v-2.58h2.58zm-18.06-2.58H31v2.58h-2.61zM0 72.26V80h23.23V67.1H0zm2.58 2.58h2.58v2.58H2.58zm10.32 0h2.58v2.58H12.9zm-2.58 2.58H7.74v-2.58h2.58zm2.58-5.16v-2.58h2.58v2.58zm-2.58 0H7.74v-2.58h2.58zm10.32 5.16h-2.58v-2.58h2.58zm0-5.16h-2.58v-2.58h2.58zM2.58 69.68h2.58v2.58H2.58zM19.73 36.6l10.71 6.69L39 13.84l2.4 4.8 2.31-1.15-4.45-8.9L30.39 13l1.15 2.31 5.1-2.55-7.72 26.53L19 33.08.22 61.22l2.15 1.43z"/></svg>