<svg id="Layer_1" data-name="Layer 1" xmlns="http://www.w3.org/2000/svg" viewBox="0 0 60 60"><defs><style>.cls-1{fill:#f2edda}.cls-2{fill:#50dd8e}.cls-3{fill:#aab1ba}.cls-4{fill:#ff7474}.cls-5{fill:#ffe079}.cls-6{fill:#51565f}</style></defs><title>house</title><path class="cls-1" d="M55.42 30v6.41l-.1.1a12.94 12.94 0 0 0-9.05-3.56 13.21 13.21 0 0 0-12.91 10.27l-.31-.1v4.07H4.58V29.9L25.93 8.54 30 4.47l4.07 4.07z"/><path class="cls-2" d="M33.05 47.29H.51v12.2h36.61v-3.66a13.82 13.82 0 0 1-4.07-8.54z"/><path class="cls-3" d="M10.68 43.22h8.14v-8.14h-8.14zM30 16.78a3.05 3.05 0 1 1-3.05 3.05A3 3 0 0 1 30 16.78z"/><path class="cls-4" d="M59.49 8.64v25.43L55.42 30 34.07 8.64zm-33.56 0L4.58 30 .51 34.07V8.64h12.2V4.58h-2V.51h8.14v4.07h-2v4.06z"/><path class="cls-5" d="M55.32 36.61a13.06 13.06 0 0 1 4.17 9.66 13.24 13.24 0 0 1-26.44 1v-1a13.8 13.8 0 0 1 .31-2.95 13.27 13.27 0 0 1 22-6.71z"/><path class="cls-3" d="M33 43.22l.31.1a13.81 13.81 0 0 0-.31 2.95v1h-8.09V35.08H33z"/><path class="cls-6" d="M46.27 60A13.73 13.73 0 1 1 60 46.27 13.8 13.8 0 0 1 46.27 60zm0-26.44A12.71 12.71 0 1 0 59 46.27a12.72 12.72 0 0 0-12.73-12.71zM35.08 60h-12.2a.51.51 0 0 1 0-1h12.2a.51.51 0 0 1 0 1zm-16.27 0a.48.48 0 0 1-.51-.51v-12.2a.51.51 0 1 1 1 0v12.2a.48.48 0 0 1-.49.51zm-4.07 0H.51a.51.51 0 1 1 0-1h14.24a.51.51 0 1 1 0 1zm16.47-4.07h-8.33a.51.51 0 0 1 0-1h8.34a.51.51 0 1 1 0 1zm-16.47 0H.51a.51.51 0 1 1 0-1h14.24a.51.51 0 1 1 0 1zm31.53-2a.48.48 0 0 1-.51-.51v-.51a3.53 3.53 0 0 1-3.05-3.56.51.51 0 0 1 1 0 2.54 2.54 0 1 0 2.54-2.54 3.58 3.58 0 0 1-.51-7.12v-.51a.51.51 0 1 1 1 0v.51a3.53 3.53 0 0 1 3.05 3.56.51.51 0 0 1-1 0 2.54 2.54 0 1 0-2.54 2.54 3.58 3.58 0 0 1 .51 7.12v.51a.48.48 0 0 1-.49.48zm-16.78-2h-6.61a.51.51 0 0 1 0-1h6.61a.51.51 0 1 1 0 1zm-14.75 0H.51a.51.51 0 0 1 0-1h14.24a.51.51 0 1 1 0 1zM29 47.8h-6.1a.51.51 0 0 1 0-1H29a.51.51 0 1 1 0 1zm-14.24 0H.51a.51.51 0 1 1 0-1h14.24a.51.51 0 1 1 0 1zm10.17-4.07a.48.48 0 0 1-.51-.51v-8.14a.48.48 0 0 1 .51-.51h8.14a.51.51 0 0 1 0 1h-7.65v7.63a.48.48 0 0 1-.5.53zm-6.1 0a.48.48 0 0 1-.51-.51v-1.53h-7.13v1.53a.51.51 0 0 1-1 0v-8.14a.48.48 0 0 1 .51-.51h8.14a.48.48 0 0 1 .51.51v8.14a.48.48 0 0 1-.54.51zm-7.63-3.05h7.12v-5.09h-7.13zm-6.62 3.05a.48.48 0 0 1-.51-.51v-8.14a.48.48 0 0 1 .51-.51.48.48 0 0 1 .51.51v8.14a.48.48 0 0 1-.51.51zM.51 34.58h-.2a.56.56 0 0 1-.31-.51V8.64c0-.1.1-.31.1-.41s.2-.1.41-.1H12.2V5.08h-1.52a.48.48 0 0 1-.51-.51V.51a.48.48 0 0 1 .51-.51h8.14a.48.48 0 0 1 .51.51v4.07a.48.48 0 0 1-.51.51h-1.53v3.05h2.54a.51.51 0 0 1 0 1h-3.05a.48.48 0 0 1-.51-.51V4.58a.48.48 0 0 1 .51-.51h1.53V1h-7.12v3.07h1.53a.48.48 0 0 1 .51.51v4.06a.48.48 0 0 1-.51.51H1v23.7L29.59 4.27a.61.61 0 0 1 .41-.1c.2 0 .31 0 .41.1L59 32.85V9.15H40.17a.51.51 0 0 1 0-1h19.32a.48.48 0 0 1 .51.51v25.41a.56.56 0 0 1-.31.51.45.45 0 0 1-.51-.1L30.1 5.39 1 34.47a4.41 4.41 0 0 0-.49.11zM30 23.39a3.56 3.56 0 1 1 3.56-3.56A3.6 3.6 0 0 1 30 23.39zm0-6.1a2.54 2.54 0 1 0 2.54 2.54A2.52 2.52 0 0 0 30 17.29z"/></svg>