<svg id="Layer_1" data-name="Layer 1" xmlns="http://www.w3.org/2000/svg" viewBox="0 0 80 80"><defs><style>.cls-1{fill:#333}.cls-2{fill:#f9ba48}</style></defs><title>insurance</title><path class="cls-1" d="M40 0A40 40 0 0 0 0 40v.89h2.6a11.6 11.6 0 0 1 23.2.39h2.58a11.63 11.63 0 0 1 10.33-11.53v11.54h2.58V29.75a11.63 11.63 0 0 1 10.32 11.54h2.58a11.61 11.61 0 0 1 23.21-.39H80v-.89A40 40 0 0 0 40 0zM14.19 27.1A14.12 14.12 0 0 0 3.44 32a37.5 37.5 0 0 1 33-29.25 35.11 35.11 0 0 0-8 13.63 67.7 67.7 0 0 0-2.58 16.87 14.18 14.18 0 0 0-11.67-6.15zm25.81 0A14.18 14.18 0 0 0 28.47 33a64.91 64.91 0 0 1 2.43-15.86A32 32 0 0 1 40 3a32 32 0 0 1 9.09 14.22A64.91 64.91 0 0 1 51.53 33 14.18 14.18 0 0 0 40 27.1zm25.81 0a14.18 14.18 0 0 0-11.68 6.15 67.7 67.7 0 0 0-2.58-16.87 35.12 35.12 0 0 0-8-13.63A37.5 37.5 0 0 1 76.56 32a14.12 14.12 0 0 0-10.75-4.9zM38.71 71a6.45 6.45 0 1 1-12.9 0v-1.32h-2.59V71a9 9 0 1 0 18.06 0v-1.32h-2.57z"/><path class="cls-2" d="M40 71a15.48 15.48 0 1 1 15.48-15.52A15.5 15.5 0 0 1 40 71z"/><path class="cls-1" d="M40 61.94a6.42 6.42 0 0 1-5.13-2.58h6.42v-2.59h-7.61a6.45 6.45 0 0 1 0-2.58h7.61v-2.58h-6.42a6.4 6.4 0 0 1 9.93-.43l1.92-1.72a9 9 0 0 0-14.87 2.15h-2.17v2.58h1.39a8.12 8.12 0 0 0 0 2.58h-1.39v2.58h2.17a9 9 0 0 0 14.87 2.15l-1.92-1.72a6.46 6.46 0 0 1-4.8 2.16z"/></svg>