<svg id="Layer_1" data-name="Layer 1" xmlns="http://www.w3.org/2000/svg" viewBox="0 0 60 60"><defs><style>.cls-1{fill:none}.cls-2{clip-path:url(#clip-path)}.cls-3{fill:#aab1ba}.cls-4{fill:#ffd0a1}.cls-5{fill:#f2edda}.cls-6{fill:#ff7474}.cls-7{fill:#80d6fa}.cls-8{fill:#51565f}</style><clipPath id="clip-path"><path class="cls-1" d="M0 0h60v60H0z"/></clipPath></defs><title>mortgage</title><g class="cls-2"><path class="cls-3" d="M47.29 55.42H37.12v4.07h16.27v-4.07zm-24.41 0v4.07H6.61v-4.07h16.27z"/><path class="cls-4" d="M53.39 35.9v-14a3.05 3.05 0 1 1 6.1 0v15.22a6.89 6.89 0 0 1-2 5.08l-8.14 8.14a7.78 7.78 0 0 0-2 5.08h-8.2v-9.15a6.89 6.89 0 0 1 2-5.08l7.12-7.12a2.83 2.83 0 0 1 4.17-.1 2.89 2.89 0 0 1 .95 1.93zm-46.68 0a3.23 3.23 0 0 1 .81-2 2.92 2.92 0 0 1 4.17.1l7.12 7.12a6.89 6.89 0 0 1 2 5.08v9.15h-8.1a7.78 7.78 0 0 0-2-5.08L2.54 42.1A6.89 6.89 0 0 1 .51 37V21.76a3 3 0 0 1 3.05-3.05 3 3 0 0 1 3.05 3.05z"/><path class="cls-5" d="M45.25 15.76v17.29h-30.5V15.76L28 2.54l2-2 2 2z"/><path class="cls-6" d="M47.29 2.54V17.8l-2-2L32 2.54zM28 2.54L14.74 15.76l-2 2V2.54h6.1v-2h4.07v2H28z"/><path class="cls-7" d="M33.05 26.95h6.1v-8.14h-6.1z"/><path class="cls-4" d="M29 25.93v7.12h-8.15V18.81H29z"/><path class="cls-8" d="M53.39 60a.48.48 0 0 1-.51-.51v-3.56H37.63v3.56a.51.51 0 0 1-1 0v-4.07a.48.48 0 0 1 .51-.51h1.53v-8.64a7.4 7.4 0 0 1 2.24-5.49L48 33.66a3.88 3.88 0 0 1 2.44-1.12 3.15 3.15 0 0 1 2.44 1 3.31 3.31 0 0 1 1 2.34 3.64 3.64 0 0 1-1.12 2.54l-5.08 5.08a.5.5 0 0 1-.71-.71l5.08-5.08a2.73 2.73 0 0 0 .81-1.83 2 2 0 0 0-.71-1.63 2.43 2.43 0 0 0-3.46.1l-7.12 7.12a6.64 6.64 0 0 0-1.93 4.68v8.64h13.75a.48.48 0 0 1 .51.51v4.07c0 .43-.21.63-.51.63zm-30.51 0a.48.48 0 0 1-.51-.51v-3.56H7.12v3.56a.51.51 0 0 1-1 0v-4.07a.48.48 0 0 1 .51-.51h13.71v-8.64a6.5 6.5 0 0 0-1.83-4.68l-7.12-7.12a2.34 2.34 0 0 0-3.46-.1 2.38 2.38 0 0 0-.71 1.73A2.51 2.51 0 0 0 8 37.83l5.08 5.08a.5.5 0 0 1-.71.71l-5.05-5.08A3.88 3.88 0 0 1 6.2 36.1a3.15 3.15 0 0 1 1-2.44 3.41 3.41 0 0 1 4.88.1l7.12 7.12a7.52 7.52 0 0 1 2.14 5.49V55h1.53a.48.48 0 0 1 .51.51v4.07a.47.47 0 0 1-.5.42zm25.42-8.14a.61.61 0 0 1-.41-.1.49.49 0 0 1 0-.71l9.15-9.15A6.2 6.2 0 0 0 59 37.22V22a2.54 2.54 0 0 0-5.08 0v8a.51.51 0 1 1-1 0v-8.14a3.56 3.56 0 1 1 7.12 0v15.26a7.4 7.4 0 0 1-2.24 5.49l-9.15 9.15c-.04.1-.24.1-.34.1zm-36.61 0a.61.61 0 0 1-.41-.1l-9.14-9.15C2 42.61 0 40.78 0 37.12V21.86a3.6 3.6 0 0 1 3.56-3.56 3.6 3.6 0 0 1 3.56 3.56v8a.51.51 0 0 1-1 0v-8a2.52 2.52 0 0 0-2.54-2.54A2.52 2.52 0 0 0 1 21.86v15.26a6.5 6.5 0 0 0 1.85 4.68L12 50.95a.49.49 0 0 1 0 .71c0 .2-.2.2-.31.2zm33.56-18.3a.48.48 0 0 1-.51-.51V20.34a.51.51 0 1 1 1 0V33a.48.48 0 0 1-.49.56zm-16.25 0h-8.15a.48.48 0 0 1-.51-.51V18.81a.48.48 0 0 1 .51-.51H29a.48.48 0 0 1 .51.51V33a.48.48 0 0 1-.51.56zm-7.63-1h7.12v-6.1h-1.54a.51.51 0 1 1 0-1h1.53v-6.1h-7.12zm-6.61 1a.48.48 0 0 1-.51-.51V20.34a.51.51 0 1 1 1 0V33a.48.48 0 0 1-.5.56zm24.41-6.1h-6.1a.48.48 0 0 1-.51-.51v-8.14a.48.48 0 0 1 .51-.51h6.1a.48.48 0 0 1 .51.51v8.14a.48.48 0 0 1-.53.51zm-5.59-1h5.08v-7.14h-5.1zm13.71-8.16c-.1 0-.31-.1-.41-.1L30 1.32 13.12 18.2c-.1.1-.41.2-.51.1a.56.56 0 0 1-.31-.51V2.54a.48.48 0 0 1 .51-.54h5.59V.51a.48.48 0 0 1 .52-.51H23a.48.48 0 0 1 .51.51v2a.51.51 0 1 1-1 0V1h-3.09v1.54a.48.48 0 0 1-.51.51h-5.59v13.53L29.69.2a.49.49 0 0 1 .71 0l16.38 16.38V3h-9.66a.48.48 0 0 1-.51-.51.48.48 0 0 1 .51-.49h10.17a.48.48 0 0 1 .51.51V17.8a.56.56 0 0 1-.31.51z"/></g></svg>