<svg id="Layer_1" data-name="Layer 1" xmlns="http://www.w3.org/2000/svg" viewBox="0 0 53.94 60"><defs><style>.cls-1{fill:none}.cls-2{clip-path:url(#clip-path)}.cls-3{fill:#fae0eb}.cls-4{fill:#ffd86d}.cls-5{fill:#ff55a3}.cls-6{fill:#ffd153}.cls-7{fill:#59dbff}</style><clipPath id="clip-path" transform="translate(-3.05)"><path class="cls-1" d="M0 0h60v60H0z"/></clipPath></defs><title>paint-roller1</title><g class="cls-2"><path class="cls-3" d="M6.58 13.58v14.66a3 3 0 1 0 6.09 0v-5.93a2.88 2.88 0 1 1 5.77 0v1.14a2.56 2.56 0 1 0 5.12 0v-3.2a2.13 2.13 0 0 1 2.13-2.13H30a2.59 2.59 0 0 0 2.59-2.59V14H8.1a3.18 3.18 0 0 1-1.52-.42z" transform="translate(-3.05)"/><path class="cls-4" d="M48.23 5.48h-2.08a11 11 0 0 1 0 4.18h2.08a2.09 2.09 0 1 0 0-4.18z" transform="translate(-3.05)"/><path class="cls-5" d="M46.15 5.48A11 11 0 0 0 45.38 3a3.18 3.18 0 0 0-2.9-1.87H8.1A3.19 3.19 0 0 0 5.19 3a11 11 0 0 0 0 9 3.19 3.19 0 0 0 2.91 2h34.38a3.18 3.18 0 0 0 2.9-1.87 11 11 0 0 0 .78-6.61z" transform="translate(-3.05)"/><path class="cls-6" d="M29.82 36.8a1.08 1.08 0 0 0-1.08-1.08h-2.17a1.08 1.08 0 0 0-1.08 1.08v4h4.32z" transform="translate(-3.05)"/><path class="cls-7" d="M30.76 40.76h-6.21a.49.49 0 0 0-.49.49v14a3.6 3.6 0 0 0 7.2 0v-14a.49.49 0 0 0-.5-.49z" transform="translate(-3.05)"/><path d="M52.28 6.39h-1a3.26 3.26 0 0 0-3-2.09h-1.2a12.12 12.12 0 0 0-.63-1.74 4.37 4.37 0 0 0-4-2.56H8.1a4.37 4.37 0 0 0-4 2.56 12.15 12.15 0 0 0 0 10 4.35 4.35 0 0 0 1.31 1.64v14a4.22 4.22 0 0 0 8.44 0v-5.89a1.71 1.71 0 1 1 3.42 0v1.14a3.73 3.73 0 1 0 7.46 0v-3.2a1 1 0 0 1 1-1H30a3.77 3.77 0 0 0 3.76-3.76v-.4h8.71a4.37 4.37 0 0 0 4-2.56 12.14 12.14 0 0 0 .63-1.75h1.15a3.27 3.27 0 0 0 3-2.09h1a2.37 2.37 0 0 1 2.37 2.37v5.2a2.57 2.57 0 0 1-2.18 2.53l-19.87 2.98a7.06 7.06 0 0 0-6 7v5.54a1.17 1.17 0 0 0 0 .25 2.25 2.25 0 0 0-2.25 2.25v2.8a1.66 1.66 0 0 0-1.44 1.65v14a4.77 4.77 0 1 0 9.54 0v-14A1.67 1.67 0 0 0 31 39.6v-2.8a2.25 2.25 0 0 0-2.13-2.25 1.17 1.17 0 0 0 0-.26v-5.54a4.75 4.75 0 0 1 4-4.67l19.93-2.92a4.93 4.93 0 0 0 4.2-4.85v-5.2a4.72 4.72 0 0 0-4.72-4.72zm-20.86 9.14A1.42 1.42 0 0 1 30 17h-4.31a3.31 3.31 0 0 0-3.31 3.31v3.2a1.39 1.39 0 1 1-2.77 0v-1.2a4.06 4.06 0 1 0-8.11 0v5.93a1.87 1.87 0 1 1-3.75 0V15.12h23.67zm11.05-2.74H7.59a2 2 0 0 1-1.33-1.12 9.79 9.79 0 0 1-.87-3.93h11.8a1.17 1.17 0 0 0 0-2.34H5.65a9.79 9.79 0 0 1 .61-1.8A2 2 0 0 1 8.1 2.34h34.38a2 2 0 0 1 1.83 1.18 9.8 9.8 0 0 1 0 8.08 2 2 0 0 1-1.83 1.19zm5.75-4.31h-.74a12 12 0 0 0 0-1.83h.74a.92.92 0 0 1 0 1.83zM28.64 39.59h-2v-2.7h2zm1.44 15.64a2.43 2.43 0 0 1-4.86 0v-13.3h4.86z" transform="translate(-3.05)"/><path d="M21.88 5.33A1.17 1.17 0 1 0 23 6.5a1.17 1.17 0 0 0-1.13-1.17z" transform="translate(-3.05)"/></g></svg>