<svg id="Layer_1" data-name="Layer 1" xmlns="http://www.w3.org/2000/svg" viewBox="0 0 125.24 112.72"><defs><style>.cls-1{fill:none}.cls-2{clip-path:url(#clip-path)}.cls-3{fill:url(#linear-gradient)}.cls-4{fill:#484848}.cls-5{fill:#ababab}</style><clipPath id="clip-path" transform="translate(-32.41 -43.24)"><path class="cls-1" transform="rotate(-60 81.96 81.96)" d="M21.96 21.96h120v120h-120z"/></clipPath><linearGradient id="linear-gradient" x1="136.13" y1="56.68" x2="114.63" y2="69.09" gradientTransform="matrix(1 0 0 -1 0 162.75)" gradientUnits="userSpaceOnUse"><stop offset="0" stop-color="#dcd09a"/><stop offset="1" stop-color="#faff15"/></linearGradient></defs><title>paint-roller</title><g class="cls-2"><path class="cls-3" d="M156.82 70.23l-41.38 71.67a6.21 6.21 0 0 1-8.48 2.27L96.21 138a6.21 6.21 0 0 1-2.27-8.48l41.38-71.67a6.21 6.21 0 0 1 8.48-2.27l10.75 6.21a6.21 6.21 0 0 1 2.27 8.44z" transform="translate(-32.41 -43.24)"/><path class="cls-4" d="M152.28 53.28a2.07 2.07 0 0 0-2.83.76L153 56.1a2.07 2.07 0 0 0-.72-2.82z" transform="translate(-32.41 -43.24)"/><path class="cls-5" d="M97.17 152.86l4.14-7.17-3.58-2.07-4.14 7.17a2.07 2.07 0 0 1-2.83.76l-15.14-8.75a2.07 2.07 0 0 1-1-2.35l16-57.65a6.21 6.21 0 0 0-2.87-7l-13.3-7.73 2.07-3.58L40.69 43.8A4.14 4.14 0 0 0 35 45.31l-2 3.59a4.14 4.14 0 0 0 1.51 5.65l35.8 20.69 2.07-3.58 13.35 7.71a2.07 2.07 0 0 1 1 2.34l-16 57.65a6.21 6.21 0 0 0 2.87 7l15.15 8.75a6.21 6.21 0 0 0 8.42-2.25z" transform="translate(-32.41 -43.24)"/></g></svg>