<svg id="Layer_1" data-name="Layer 1" xmlns="http://www.w3.org/2000/svg" viewBox="0 0 60 60"><defs><style>.cls-1{fill:#e4edfb}.cls-2{fill:#d7e1f2}.cls-3{fill:#2659db}.cls-4{fill:#fcbe57}.cls-5{fill:#d74947}.cls-6{fill:#fff}</style></defs><title>parking</title><path class="cls-1" d="M12.6 16.76A11.72 11.72 0 0 0 .88 28.48v16.4a3.52 3.52 0 0 0 3.51 3.52H20.8a3.52 3.52 0 0 0 3.52-3.52v-16.4A11.72 11.72 0 0 0 12.6 16.76z"/><path class="cls-2" d="M7.32 45.59a4.11 4.11 0 0 1-4.1-4.1v-12.9a4.11 4.11 0 0 1 4.1-4.1h10.55a4.11 4.11 0 0 1 4.1 4.1v12.89a4.11 4.11 0 0 1-4.1 4.1z"/><path class="cls-3" d="M17.87 43.24H7.32a1.76 1.76 0 0 1-1.76-1.76V28.59a1.76 1.76 0 0 1 1.76-1.76h10.55a1.76 1.76 0 0 1 1.76 1.76v12.89a1.76 1.76 0 0 1-1.76 1.76zm2.93 5.16H4.39a3.52 3.52 0 0 1-3.51-3.52v7.73a3.52 3.52 0 0 0 3.52 3.52h16.4a3.52 3.52 0 0 0 3.52-3.52v-7.73a3.52 3.52 0 0 1-3.52 3.52z"/><path class="cls-3" d="M24.32 13.92a9.63 9.63 0 0 1-9-9.34h-5.07a9.62 9.62 0 0 1-9.37 9.36v14.54a11.72 11.72 0 1 1 23.44 0V13.92z"/><path class="cls-4" d="M10.25 4.57a9.38 9.38 0 0 0-9.37 9.37 9.62 9.62 0 0 0 9.37-9.37zm5.05.01a9.63 9.63 0 0 0 9 9.34 9.37 9.37 0 0 0-9-9.34z"/><path class="cls-1" d="M47.4 16.76a11.72 11.72 0 0 0-11.72 11.72v16.4a3.52 3.52 0 0 0 3.52 3.52h16.41a3.52 3.52 0 0 0 3.52-3.52v-16.4A11.72 11.72 0 0 0 47.4 16.76z"/><path class="cls-2" d="M42.13 45.59a4.11 4.11 0 0 1-4.1-4.1v-12.9a4.11 4.11 0 0 1 4.1-4.1h10.55a4.11 4.11 0 0 1 4.1 4.1v12.89a4.11 4.11 0 0 1-4.1 4.1z"/><path class="cls-5" d="M52.68 43.24H42.13a1.76 1.76 0 0 1-1.76-1.76V28.59a1.76 1.76 0 0 1 1.76-1.76h10.55a1.76 1.76 0 0 1 1.76 1.76v12.89a1.76 1.76 0 0 1-1.76 1.76zm2.93 5.16H39.2a3.52 3.52 0 0 1-3.52-3.52v7.73a3.52 3.52 0 0 0 3.52 3.52h16.41a3.52 3.52 0 0 0 3.52-3.52v-7.73a3.52 3.52 0 0 1-3.52 3.52z"/><path class="cls-5" d="M59.12 13.92a9.63 9.63 0 0 1-9-9.34h-5.07a9.62 9.62 0 0 1-9.37 9.37v14.53a11.72 11.72 0 1 1 23.44 0V13.92z"/><path class="cls-4" d="M45.05 4.57a9.38 9.38 0 0 0-9.37 9.37 9.62 9.62 0 0 0 9.37-9.37zm5.06.01a9.63 9.63 0 0 0 9 9.34 9.37 9.37 0 0 0-9-9.34z"/><path d="M14.94 3.69h-4.69A10.27 10.27 0 0 0 0 13.95v38.67A4.4 4.4 0 0 0 4.39 57H20.8a4.4 4.4 0 0 0 4.39-4.39V13.95A10.27 10.27 0 0 0 14.94 3.69zM9.29 5.51A8.74 8.74 0 0 1 1.81 13a8.51 8.51 0 0 1 7.48-7.49zm-7.54 23a10.77 10.77 0 0 1 1-4.49L5 27.27a2.62 2.62 0 0 0-.36 1.32v12.89a2.62 2.62 0 0 0 .25 1.12l-2.63 3.82a2.62 2.62 0 0 1-.5-1.54zm5.57 15.61h10.55a2.62 2.62 0 0 0 1.13-.25l2.5 3.56a2.63 2.63 0 0 1-.69.09H4.39a2.63 2.63 0 0 1-.69-.09l2.5-3.56a2.62 2.62 0 0 0 1.12.25zm-.88-2.64V28.59a.88.88 0 0 1 .88-.88h10.55a.88.88 0 0 1 .88.88v12.89a.88.88 0 0 1-.88.88H7.32a.88.88 0 0 1-.87-.88zM18.8 26.13a2.63 2.63 0 0 0-.93-.17H7.32a2.63 2.63 0 0 0-.93.17L3.7 22.3a10.83 10.83 0 0 1 17.8 0zm4.63 26.49a2.64 2.64 0 0 1-2.64 2.64H4.39a2.64 2.64 0 0 1-2.64-2.64V48.4a4.37 4.37 0 0 0 2.64.88H20.8a4.37 4.37 0 0 0 2.64-.88zm0-7.73a2.62 2.62 0 0 1-.5 1.54l-2.68-3.82a2.62 2.62 0 0 0 .25-1.12v-12.9a2.62 2.62 0 0 0-.36-1.32L22.46 24a10.77 10.77 0 0 1 1 4.49zm0-22.82a12.59 12.59 0 0 0-21.68 0v-7.3a10.5 10.5 0 0 0 9.31-9.31h3.41a10.5 10.5 0 0 0 9 9.27zM16.26 5.55a8.51 8.51 0 0 1 7.11 7.37 8.83 8.83 0 0 1-7.11-7.37zm33.49-1.86h-4.69A10.27 10.27 0 0 0 34.8 13.95v38.67A4.4 4.4 0 0 0 39.2 57h16.41A4.4 4.4 0 0 0 60 52.62V13.95A10.27 10.27 0 0 0 49.75 3.69zm8.43 9.23a8.83 8.83 0 0 1-7.11-7.37 8.51 8.51 0 0 1 7.11 7.38zM44.1 5.51A8.74 8.74 0 0 1 36.62 13a8.51 8.51 0 0 1 7.48-7.49zm-7.54 23a10.77 10.77 0 0 1 1-4.49l2.31 3.29a2.62 2.62 0 0 0-.36 1.32v12.85a2.62 2.62 0 0 0 .25 1.12l-2.68 3.82a2.62 2.62 0 0 1-.5-1.54zm5.57 15.64h10.55a2.62 2.62 0 0 0 1.12-.25l2.5 3.56a2.63 2.63 0 0 1-.69.09H39.2a2.63 2.63 0 0 1-.69-.09L41 43.87a2.62 2.62 0 0 0 1.13.25zm-.88-2.64V28.59a.88.88 0 0 1 .88-.88h10.55a.88.88 0 0 1 .88.88v12.89a.88.88 0 0 1-.88.88H42.13a.88.88 0 0 1-.88-.88zm12.36-15.38a2.63 2.63 0 0 0-.93-.17H42.13a2.63 2.63 0 0 0-.93.17l-2.7-3.83a10.83 10.83 0 0 1 17.8 0zm4.63 26.49a2.64 2.64 0 0 1-2.64 2.64H39.2a2.64 2.64 0 0 1-2.64-2.64V48.4a4.37 4.37 0 0 0 2.64.88h16.41a4.37 4.37 0 0 0 2.64-.88zm0-7.73a2.62 2.62 0 0 1-.5 1.54l-2.68-3.82a2.62 2.62 0 0 0 .25-1.12v-12.9a2.62 2.62 0 0 0-.31-1.32L57.27 24a10.77 10.77 0 0 1 1 4.49zm0-22.82a12.59 12.59 0 0 0-21.68 0v-7.3a10.5 10.5 0 0 0 9.31-9.31h3.41a10.5 10.5 0 0 0 9 9.27zM29.18 3.52h1.76v53h-1.76zm0-3.52h1.76v1.76h-1.76zm0 58.24h1.76V60h-1.76z"/><path class="cls-6" d="M3.46 51.74h1.75v1.76H3.46zm16.54 0h1.76v1.76H20zm18.5 0h1.76v1.76H38.5zm16.5 0h1.76v1.76H55z"/></svg>