<svg id="Layer_1" data-name="Layer 1" xmlns="http://www.w3.org/2000/svg" viewBox="0 0 59.85 60"><defs><style>.cls-1{fill:none}.cls-2{clip-path:url(#clip-path)}.cls-3{fill:#f2edda}.cls-4{fill:#ffd0a1}.cls-5{fill:#80d6fa}.cls-6{fill:#ff7474}.cls-7{fill:#ecf4f7}.cls-8{fill:#51565f}</style><clipPath id="clip-path" transform="translate(-.08)"><path class="cls-1" d="M0 0h60v60H0z"/></clipPath></defs><title>real-estate1</title><g class="cls-2"><path class="cls-3" d="M39.2 20.88L20.91 39.17v20.32H33.1v-2h10.16v2h12.19V36.12L42.24 22.91l-2.34-2.34-.2-.2z" transform="translate(-.08)"/><path class="cls-3" d="M43.26 57.46H33.1v2h10.16z" transform="translate(-.08)"/><path class="cls-4" d="M41.23 45.77v7.63h-6.1V41.2h6.1z" transform="translate(-.08)"/><path class="cls-5" d="M45.29 49.33h6.1V41.2h-6.1zm-20.29 0h6.1V41.2H25z" transform="translate(-.08)"/><path class="cls-6" d="M47.32 20.88v2h-5.08l13.21 13.24 4.06 4.06V22.91h-8.12v-2z" transform="translate(-.08)"/><path class="cls-5" d="M39.2 10.72v10.16L20.91 39.17 8.71 51.36V10.72z" transform="translate(-.08)"/><path class="cls-7" d="M35.13 6.66H4.65v48.77l4.06-4.06V10.72H39.2v10.16l.51-.51 3.56-3.56V6.66zM20.91.56v2h-8.13v4.1h22.35V2.59H27v-2z" transform="translate(-.08)"/><path class="cls-8" d="M.58 60a.61.61 0 0 1-.41-.1c-.1-.1-.1-.2-.1-.41s0-.3.1-.41L59.11.15a.49.49 0 0 1 .71 0c.1.1.1.2.1.41s0 .3-.1.41L.89 59.9c0 .1-.2.1-.31.1zm54.87 0h-8.13a.51.51 0 1 1 0-1h7.62V41.2a.51.51 0 0 1 1 0v18.29a.48.48 0 0 1-.49.51zm-12.19 0a.48.48 0 0 1-.51-.51V58h-9.14v1.52a.48.48 0 0 1-.51.51H20.91a.48.48 0 0 1-.51-.51V44.25a.51.51 0 0 1 1 0V59h11.19v-1.54a.48.48 0 0 1 .51-.46h10.16a.48.48 0 0 1 .51.51v2a.48.48 0 0 1-.51.49zm-2-6.1a.48.48 0 0 1-.51-.51v-5.58H39.2a.51.51 0 0 1 0-1h1.52v-5.1h-5.08V53.4a.51.51 0 0 1-1 0V41.2a.48.48 0 0 1 .51-.51h6.1a.48.48 0 0 1 .51.51v12.2a.48.48 0 0 1-.53.5zm-36.58-3a.48.48 0 0 1-.51-.51V6.66a.48.48 0 0 1 .51-.51h7.62V2.59a.48.48 0 0 1 .51-.51h7.59V.56a.48.48 0 0 1 .51-.51H27a.48.48 0 0 1 .51.51v1.52h7.62a.48.48 0 0 1 .51.51v3.56h7.62a.48.48 0 0 1 .51.51v5.08a.51.51 0 0 1-1 0V7.16H16.84a.51.51 0 1 1 0-1h17.78v-3H27a.48.48 0 0 1-.51-.51V1.07h-5.08v1.52a.48.48 0 0 1-.51.51h-7.61v3.56a.48.48 0 0 1-.51.51H5.16v43.18a.48.48 0 0 1-.51.51zm46.74-1h-6.1a.48.48 0 0 1-.51-.51V41.2a.48.48 0 0 1 .51-.51h6.1a.48.48 0 0 1 .51.51v8.13a.48.48 0 0 1-.54.51zm-5.59-1h5.08v-7.19H45.8zm-14.73 1H25a.48.48 0 0 1-.51-.51V41.2a.48.48 0 0 1 .51-.51h6.1a.48.48 0 0 1 .51.51v8.13a.48.48 0 0 1-.54.51zm-5.59-1h5.08v-7.19h-5.11zm-16.77-2a.48.48 0 0 1-.51-.51V10.72a.48.48 0 0 1 .51-.51H39.2a.48.48 0 0 1 .51.51v5.08a.51.51 0 1 1-1 0v-4.57h-5.1v7.11h2.54a.51.51 0 0 1 0 1h-2.54v2.56a.51.51 0 1 1-1 0v-2.54h-5.1v7.11H28a.51.51 0 1 1 0 1h-.51V28a.51.51 0 0 1-1 0v-.51h-5.08v6.6a.51.51 0 0 1-1 0v-6.6h-5.09v7.11h4.57a.51.51 0 1 1 0 1h-4.57v4.57a.51.51 0 0 1-1 0v-4.56h-5.1v7.11h1.52a.51.51 0 1 1 0 1H9.22v2.54a.48.48 0 0 1-.51.53zm.48-12.3h5.08v-7.11H9.22zm12.19-8.13h5.08v-7.11h-5.08zm-6.1 0h5.09v-7.11h-5.08zm-6.1 0h5.09v-7.11H9.22zm18.29-8.13h5.08v-7.11h-5.07zm-6.1 0h5.08v-7.11h-5.07zm-6.1 0h5.1v-7.11h-5.08zm-6.1 0h5.1v-7.11H9.22zm50.3 22.35c-.1 0-.3-.1-.41-.1L41.84 23.32a.5.5 0 0 1 .71-.71L58.91 39V23.42h-7.62a.48.48 0 0 1-.51-.51v-1.52h-3v1.52a.51.51 0 0 1-1 0v-2a.48.48 0 0 1 .51-.51h4.06a.48.48 0 0 1 .51.51v1.49h7.62a.48.48 0 0 1 .51.51v17.28a.56.56 0 0 1-.3.51z" transform="translate(-.08)"/></g></svg>