<svg id="Layer_1" data-name="Layer 1" xmlns="http://www.w3.org/2000/svg" viewBox="0 0 30 30"><defs><style>.cls-1{fill:#1bd741}.cls-2{fill:#fff}</style></defs><title>whatsapp</title><path class="cls-1" d="M30 0H0v30h30z"/><path class="cls-2" d="M4.51 25.5L6 20.28a10.47 10.47 0 1 1 3.91 3.83zm5.66-3.29l.32.2a8.7 8.7 0 1 0-2.8-2.74l.21.33-.85 3z"/><path class="cls-2" d="M12.07 10.1h-.68a.82.82 0 0 0-.58.2 3.1 3.1 0 0 0-1 1.56 4.73 4.73 0 0 0 1.1 3.71 11 11 0 0 0 5.95 4.32 2.9 2.9 0 0 0 2.45-.3 2.19 2.19 0 0 0 1-1.39l.11-.51a.35.35 0 0 0-.2-.39l-2.3-1.06a.35.35 0 0 0-.43.1l-.9 1.17a.26.26 0 0 1-.29.09 7.06 7.06 0 0 1-3.82-3.27.26.26 0 0 1 0-.29l.86-1a.35.35 0 0 0 .06-.37l-1-2.32a.35.35 0 0 0-.33-.25z"/></svg>