<svg id="Layer_1" data-name="Layer 1" xmlns="http://www.w3.org/2000/svg" viewBox="0 0 60 58.06"><defs><style>.cls-1{fill:#dbf6ff}.cls-2{fill:#59dbff}.cls-3{fill:#ffd153}.cls-4{fill:#fae0eb}.cls-5{fill:#ff55a3}</style></defs><title>window</title><path class="cls-1" d="M56.85 3.76H3.15a2 2 0 0 0 0 4h53.7a2 2 0 0 0 0-4z" transform="translate(0 -.94)"/><path class="cls-2" d="M50 45.31V14.54a2.65 2.65 0 0 0-2.65-2.65H30.21v33.42z" transform="translate(0 -.94)"/><path class="cls-3" d="M51.77 45.31H30.21v4.8h23.66V47.4a2.09 2.09 0 0 0-2.1-2.09z" transform="translate(0 -.94)"/><path class="cls-4" d="M30.21 11.89h-5.73v44.26l.9.88a2.8 2.8 0 0 0 3.93 0 3 3 0 0 0 .9-2.15z" transform="translate(0 -.94)"/><path class="cls-5" d="M18.76 11.89v44.26l.9.88a2.8 2.8 0 0 0 3.93 0l.9-.88V11.89z" transform="translate(0 -.94)"/><path class="cls-4" d="M13 11.89v44.26l.9.88a2.8 2.8 0 0 0 3.93 0l.9-.88V11.89z" transform="translate(0 -.94)"/><path class="cls-5" d="M9.29 11.89a2 2 0 0 0-2 2v41A3 3 0 0 0 8.21 57a2.8 2.8 0 0 0 3.93 0l.9-.88V11.89z" transform="translate(0 -.94)"/><path d="M56.85 2.59H28.44v-.48a1.17 1.17 0 1 0-2.34 0v.48h-3.45v-.48a1.17 1.17 0 0 0-2.34 0v.48h-3.45v-.48a1.17 1.17 0 1 0-2.34 0v.48h-2.77v-.48a1.17 1.17 0 0 0-2.34 0v.48H3.15a3.15 3.15 0 0 0 0 6.3h6.26v1.84h-.12a3.15 3.15 0 0 0-3.15 3.15v41a4.21 4.21 0 0 0 1.25 3 4 4 0 0 0 5.57 0l.07-.07.07.07a4 4 0 0 0 5.57 0l.08-.07.07.07a4 4 0 0 0 5.57 0l.08-.07.07.07a4 4 0 0 0 5.57 0 4.21 4.21 0 0 0 1.25-3v-3.6h22.51A1.17 1.17 0 0 0 55 50.11V47.4a3.27 3.27 0 0 0-3.27-3.26h-.57v-29.6a3.82 3.82 0 0 0-3.82-3.82h-18.9V8.89h28.41a3.15 3.15 0 0 0 0-6.3zM26.1 4.93v1.61h-3.45V4.93zm-5.79 0v1.61h-3.45V4.93zm-3.45 5.79V8.89h3.45v1.84zm-2.34-5.79v1.61h-2.77V4.93zM3.15 6.54a.81.81 0 0 1 0-1.61h6.26v1.61zm8.6 2.34h2.77v1.84h-2.77zM9 56.2a1.85 1.85 0 0 1-.55-1.31v-41a.8.8 0 0 1 .8-.8h2.58v42.57l-.55.54a1.63 1.63 0 0 1-2.28 0zm5.72 0l-.55-.54V13.07h3.38v42.59l-.55.54a1.63 1.63 0 0 1-2.24 0zm5.72 0l-.55-.54V13.07h3.38v42.59l-.55.54a1.63 1.63 0 0 1-2.24 0zm32.26-8.8v1.54H31.38v-2.46h20.4a.92.92 0 0 1 .92.92zm-3.84-32.86v29.6H31.38V13.07h16a1.48 1.48 0 0 1 1.48 1.47zM29 54.89a1.85 1.85 0 0 1-.55 1.31 1.63 1.63 0 0 1-2.28 0l-.55-.54V13.07H29zm-2.9-44.17h-3.45V8.89h3.45zm30.75-4.18H28.44V4.93h28.41a.81.81 0 0 1 0 1.61z" transform="translate(0 -.94)"/><path d="M34.63 36.93a1.17 1.17 0 0 0 1.56-.56l5.63-11.92a1.17 1.17 0 1 0-2.12-1l-5.63 11.92a1.17 1.17 0 0 0 .56 1.56zm7.89-15.54a1.17 1.17 0 1 0-1.17-1.17 1.17 1.17 0 0 0 1.18 1.17zm-2.21 13.66a1.17 1.17 0 1 0 2.12 1l3.29-7a1.17 1.17 0 1 0-2.12-1z" transform="translate(0 -.94)"/></svg>