<svg data-name="Layer 1" xmlns="http://www.w3.org/2000/svg" viewBox="0 0 40 23.54"><title>car-repair</title><g class="cls-2"><path class="cls-3" d="M39.84 21.72l-2.41-4.14c2-5.2 1.85-4.83 1.88-4.92a1.21 1.21 0 0 0 0-.81l-2.56-6.79a1.41 1.41 0 0 0-1.82-.82l-2.36.89a1.41 1.41 0 0 0-.91 1.35L34 5.17l-2.8 2.6-3-.76a1 1 0 0 0-1.77-.63l-3.88 4.16-3.7-6.57a1.73 1.73 0 0 0-1.51-.88H5a1.74 1.74 0 0 0-1.69 1.36l-1.8 8v4A2 2 0 0 0 2 20.42h1.47a4.36 4.36 0 1 1 8.72 0h8.28a4.36 4.36 0 1 1 8.72 0H30a2 2 0 0 0 .67-3.88v-1a3.15 3.15 0 0 0-3.15-3.15h-3.93L27 8.77s.1.09 4.23 1.12a1 1 0 0 0 .92-.23l3.15-2.89-2.3 3.39 1.22 3.23-1.47 1a1.21 1.21 0 0 0-.55 1.1l.47 6.94a1.213 1.213 0 0 0 2.42-.16l-.42-6.23 1.07-.7-.75 2a1.21 1.21 0 0 0 .08 1l2.7 4.64a1.214 1.214 0 0 0 2.1-1.22zM9.43 10.77H3.91L5.18 5h4.25zm5.74 3.34h-2.06a.7.7 0 1 1 0-1.4h2.06a.7.7 0 1 1 0 1.4zm-3.69-3.34V5.01h5.75l3.23 5.76z"/><path class="cls-3" d="M32.78 4.19a2.09 2.09 0 1 0-2.09-2.09 2.09 2.09 0 0 0 2.09 2.09zM7.83 17.38a3 3 0 1 0 3 3 3 3 0 0 0-3-3zm0 4.28a1.23 1.23 0 1 1 1.23-1.23 1.23 1.23 0 0 1-1.23 1.23zm17.01-4.28a3 3 0 1 0 3 3 3 3 0 0 0-3-3zm0 4.28a1.23 1.23 0 1 1 1.23-1.23 1.23 1.23 0 0 1-1.23 1.23z"/></g></svg>