<svg data-name="Layer 1" xmlns="http://www.w3.org/2000/svg" viewBox="0 0 30 28.96"><title>car</title><path d="M18.23 10.12h-6.66a.69.69 0 1 0 0 1.38h6.66a.69.69 0 1 0 0-1.38zM14.4 7.64h-2.83a.69.69 0 1 0 0 1.38h2.83a.69.69 0 0 0 0-1.38zm3.83 4.95h-6.66a.69.69 0 1 0 0 1.38h6.66a.69.69 0 1 0 0-1.38z"/><path d="M28.38 19.17L26 18.09l-2.12-3.35a3.4 3.4 0 0 0-2-1.48v-8a.68.68 0 0 0-.2-.5L16.82.17a.65.65 0 0 0-.47-.17h-6.14a2.08 2.08 0 0 0-2.09 2.05v12.52a2 2 0 0 0 .28 1.07l-1.82 2.39L2 19.27a2.76 2.76 0 0 0-2 2.65v1.73a2.79 2.79 0 0 0 2.77 2.77h.33a3.46 3.46 0 0 0 6.67 0h10.12a3.46 3.46 0 0 0 6.67 0h.67A2.79 2.79 0 0 0 30 23.65v-2a2.76 2.76 0 0 0-1.62-2.48zm-11.46-17l2.74 2.59H17zM9.5 2.09a.69.69 0 0 1 .67-.71h5.38v3.33A1.42 1.42 0 0 0 17 6.12h3.5v8.45a.75.75 0 0 1-.72.77H10.2a.74.74 0 0 1-.71-.77zM6.43 27.55a2.08 2.08 0 1 1 2.09-2.07 2.08 2.08 0 0 1-2.09 2.07zm16.79 0a2.08 2.08 0 1 1 2.09-2.07 2.08 2.08 0 0 1-2.09 2.07zm5.4-3.9a1.41 1.41 0 0 1-1.39 1.4h-.58a3.46 3.46 0 0 0-6.87 0H9.87a3.46 3.46 0 0 0-6.87 0h-.23a1.41 1.41 0 0 1-1.39-1.4v-1.73a1.38 1.38 0 0 1 1-1.32l4.76-1.3a.71.71 0 0 0 .37-.25l1.91-2.48a2.15 2.15 0 0 0 .78.17h9.6a2.13 2.13 0 0 0 2.11-2 2 2 0 0 1 .83.74L24.95 19a.68.68 0 0 0 .3.26l2.57 1.16a1.39 1.39 0 0 1 .81 1.25z"/></svg>