<svg data-name="Layer 1" xmlns="http://www.w3.org/2000/svg" viewBox="0 0 20 20"><title>checked</title><g class="cls-2"><path class="cls-3" d="M19.76.14a.64.64 0 0 0-.91.1L8.56 13.19 5.19 9a.64.64 0 0 0-.91-.1.66.66 0 0 0-.1.92l3.73 4.69a.63.63 0 0 0 .55.32h.17a.66.66 0 0 0 .53-.27l10.7-13.5a.66.66 0 0 0-.1-.92z"/><path class="cls-3" d="M18.49 6.62a.65.65 0 0 0-.64.65V18a.65.65 0 0 1-.65.65H1.93a.65.65 0 0 1-.64-.65V2.62A.65.65 0 0 1 1.93 2H12.5a.65.65 0 0 0 0-1.3H1.93A2 2 0 0 0 0 2.62V18a2 2 0 0 0 1.93 2H17.2a2 2 0 0 0 1.93-2V7.27a.65.65 0 0 0-.64-.65z"/></g></svg>