<svg data-name="Layer 1" xmlns="http://www.w3.org/2000/svg" viewBox="0 0 22 21.99"><title>clock</title><g class="cls-2"><path class="cls-3" d="M21.12 6.71A10.78 10.78 0 0 0 15.26.87 10.81 10.81 0 0 0 11-.01a10.7 10.7 0 0 0-4.29.88A10.81 10.81 0 0 0 .87 6.71a11 11 0 0 0 0 8.55 10.84 10.84 0 0 0 5.85 5.85 10.7 10.7 0 0 0 4.28.88 10.82 10.82 0 0 0 4.28-.88 10.8 10.8 0 0 0 5.86-5.85 10.85 10.85 0 0 0 0-8.55zm-1.76 9.13a9.65 9.65 0 0 1-3.54 3.52 9.47 9.47 0 0 1-4.82 1.3 9.32 9.32 0 0 1-3.75-.77 9.84 9.84 0 0 1-3.08-2.06 9.78 9.78 0 0 1-2.06-3.09 9.47 9.47 0 0 1-.77-3.75 9.46 9.46 0 0 1 1.28-4.85 9.66 9.66 0 0 1 3.53-3.52A9.4 9.4 0 0 1 11 1.32a9.47 9.47 0 0 1 4.85 1.3 9.68 9.68 0 0 1 3.54 3.52 9.4 9.4 0 0 1 1.27 4.85 9.49 9.49 0 0 1-1.29 4.85z"/><path class="cls-3" d="M11.68 10.88V4.65a.69.69 0 0 0-.68-.66.68.68 0 0 0-.66.67v6.33a.55.55 0 0 1 0 .1.63.63 0 0 0 .18.54l3.6 3.6a.68.68 0 0 0 .93 0 .65.65 0 0 0 0-.94z"/></g></svg>