<svg data-name="Layer 1" xmlns="http://www.w3.org/2000/svg" viewBox="0 0 30 30"><title>coin</title><g class="cls-2"><path class="cls-3" d="M26.6 8.88L28.26 8a15.13 15.13 0 0 0-1-1.7l-1.58 1.09a13.11 13.11 0 0 1 .92 1.49zM24.57 6l1.37-1.28a15.33 15.33 0 0 0-1.46-1.37l-1.19 1.49A13.41 13.41 0 0 1 24.57 6z"/><path class="cls-3" d="M29.08 9.83l-1.76.65a13.15 13.15 0 1 1-5.45-6.66l1-1.6a15 15 0 1 0 6.22 7.6z"/><path class="cls-3" d="M18.73 15a3.76 3.76 0 1 0 0-7.51h-6.57v5.63H8.4V15h3.76v1.88H8.4v1.88h3.76v3.76H14v-3.75h3.76v-1.88H14V15zM14 9.38h4.69a1.88 1.88 0 1 1 0 3.76H14z"/></g></svg>