<svg data-name="Layer 1" xmlns="http://www.w3.org/2000/svg" viewBox="0 0 16.01 22"><title>mechanic</title><path class="cls-1" d="M8.01 0a4 4 0 1 0 4 4 4 4 0 0 0-4-4zm0 6.92A2.94 2.94 0 1 1 10.95 4a2.94 2.94 0 0 1-2.94 2.92z"/><path class="cls-1" d="M14.49 10.82a5.18 5.18 0 0 0-.62-.94 4.36 4.36 0 0 0-4.74-1.31 3.71 3.71 0 0 1-2.23 0 4.36 4.36 0 0 0-4.74 1.3 4.78 4.78 0 0 0-.63.94c-.18.34-.3.67-.38 2.89a.5.5 0 0 0 .15.37.53.53 0 0 0 .38.16h12.67a.51.51 0 0 0 .52-.5c-.08-2.24-.19-2.57-.38-2.91zM2.21 13.18c.07-1.61.17-1.77.24-1.9a3.72 3.72 0 0 1 .49-.74 3.33 3.33 0 0 1 3.63-1 4.73 4.73 0 0 0 2.86 0 3.31 3.31 0 0 1 3.63 1 4.13 4.13 0 0 1 .5.77c.07.13.17.33.23 1.88zm13.24 5.21a.52.52 0 0 0 .56-.47.46.46 0 0 0 0-.19 3 3 0 0 0-3-2.15 3 3 0 0 0-2.83 1.79H5.67a3.25 3.25 0 0 0-2.66-1.55 2.88 2.88 0 0 0-3 2.31.51.51 0 0 0 .39.62h.16l1.45-.11a.89.89 0 0 1 0 .67l-1.47-.12a.52.52 0 0 0-.56.47.46.46 0 0 0 0 .19A3 3 0 0 0 3.01 22a3 3 0 0 0 2.83-1.78h4.51a3.12 3.12 0 0 0 2.66 1.54 2.93 2.93 0 0 0 3-2.28.52.52 0 0 0-.38-.63.44.44 0 0 0-.17 0l-1.45.09a.89.89 0 0 1 0-.67zm-2.16 1.41a.52.52 0 0 0 .45.2l.93-.07a1.92 1.92 0 0 1-1.65.79 2.18 2.18 0 0 1-1.89-1.24.52.52 0 0 0-.47-.3H5.47a.52.52 0 0 0-.5.37A2 2 0 0 1 3.01 21a2 2 0 0 1-1.57-.66l.85.07a.52.52 0 0 0 .46-.2 2 2 0 0 0 0-2.37.51.51 0 0 0-.45-.2l-1 .07a1.87 1.87 0 0 1 1.71-.86 2.23 2.23 0 0 1 1.88 1.25.53.53 0 0 0 .47.31h5.2a.54.54 0 0 0 .45-.41 2 2 0 0 1 2-1.41 2.05 2.05 0 0 1 1.57.67l-.85-.07a.52.52 0 0 0-.46.2 1.94 1.94 0 0 0 .02 2.41z"/></svg>