<svg data-name="Layer 1" xmlns="http://www.w3.org/2000/svg" viewBox="0 0 24.51 35"><title>mobile-phone</title><g class="cls-2"><path class="cls-3" d="M19.57 0H4.84a4.79 4.79 0 0 0-3.52 1.28A5 5 0 0 0 .01 5v25.06C.01 33.7 2.57 35 4.96 35h14.61c3.64 0 4.94-2.55 4.94-4.94V4.94C24.52 1.3 21.96 0 19.57 0zm3.82 30a3.5 3.5 0 0 1-3.82 3.83H4.96A3.51 3.51 0 0 1 1.13 30v-3h22.26zm0-4.08H1.13V6.5h22.26zm0-20.59H1.13V5a3.89 3.89 0 0 1 1-2.87 3.77 3.77 0 0 1 2.78-1h14.66A3.51 3.51 0 0 1 23.4 5z"/><path class="cls-3" d="M14.03 2.73h-3.5a.56.56 0 1 0 0 1.12h3.5a.56.56 0 1 0 0-1.12zm-1.77 25.41a2.45 2.45 0 1 0 2.5 2.45 2.45 2.45 0 0 0-2.5-2.45zm0 3.78a1.33 1.33 0 1 1 1.34-1.33 1.33 1.33 0 0 1-1.34 1.34z"/></g></svg>