<svg viewBox="0 0 25 25" fill="none" xmlns="http://www.w3.org/2000/svg"><g clip-path="url(#clip0)"><path d="M24.357 18.44l-3.107-3.11a2.2 2.2 0 0 0-3.107 0l-1.413 1.413a1.666 1.666 0 0 1-2.354 0l-6.123-6.128a1.664 1.664 0 0 1 0-2.355l1.411-1.41a2.196 2.196 0 0 0 0-3.109L6.555.643A2.2 2.2 0 0 0 3.451.64L2.318 1.763c-3.09 3.09-3.09 8.118 0 11.207l9.702 9.707a7.92 7.92 0 0 0 11.207 0l1.13-1.13a2.2 2.2 0 0 0 0-3.108zM4.485 1.678a.734.734 0 0 1 1.036 0l3.107 3.098a.732.732 0 0 1 0 1.036l-.518.518-4.14-4.14.514-.511zm8.571 19.962l-9.702-9.707a6.44 6.44 0 0 1-.404-8.691l4.13 4.129a3.127 3.127 0 0 0 .135 4.28l6.123 6.128a3.127 3.127 0 0 0 4.28.136l4.13 4.13a6.428 6.428 0 0 1-8.692-.405zm10.265-1.13l-.518.518-4.143-4.144.517-.518a.733.733 0 0 1 1.037 0l3.107 3.108a.733.733 0 0 1 0 1.036z" fill="#fff"/></g></svg>