<svg data-name="Layer 1" xmlns="http://www.w3.org/2000/svg" viewBox="0 0 23.35 30"><title>tools</title><g class="cls-2"><path class="cls-3" d="M10.04 21.64a4.87 4.87 0 0 0-2.22-1.75v-10a5.42 5.42 0 0 0 2.74-4.66A4.94 4.94 0 0 0 6.68.14a.66.66 0 0 0-.8.48.56.56 0 0 0 0 .21l.22 2.82a1.92 1.92 0 0 1-1.79 0l.2-2.84A.65.65 0 0 0 3.92.1a.58.58 0 0 0-.24.03A5 5 0 0 0 .97 2a5.53 5.53 0 0 0-1 3.14 5.39 5.39 0 0 0 .95 3.15 4.9 4.9 0 0 0 2.22 1.75v10.11a5.59 5.59 0 0 0-2.76 4.68 5.25 5.25 0 0 0 1 3.16 5 5 0 0 0 3 1.86.65.65 0 0 0 .79-.49.66.66 0 0 0 0-.2l-.22-2.82a1.92 1.92 0 0 1 1.79 0l-.24 2.83a.65.65 0 0 0 .6.71.58.58 0 0 0 .24 0 5 5 0 0 0 2.71-1.91 5.46 5.46 0 0 0 .95-3.15 5.39 5.39 0 0 0-.96-3.18zm-2.15 6.55l.18-2.14a.66.66 0 0 0-.26-.58 3.23 3.23 0 0 0-3.93 0 .67.67 0 0 0-.25.56l.17 2.22a3.56 3.56 0 0 1-2-3.45 4.26 4.26 0 0 1 2.38-3.7.64.64 0 0 0 .36-.59V9.6a.65.65 0 0 0-.53-.6 3.81 3.81 0 0 1-2.72-3.8 3.86 3.86 0 0 1 1.82-3.42l-.18 2.14a.66.66 0 0 0 .26.58 3.23 3.23 0 0 0 3.93 0 .65.65 0 0 0 .24-.56l-.17-2.2a3.64 3.64 0 0 1 2 3.47 4.16 4.16 0 0 1-2.36 3.66.64.64 0 0 0-.37.6v10.9a.65.65 0 0 0 .46.63 3.81 3.81 0 0 1 2.76 3.79 3.82 3.82 0 0 1-1.79 3.4zm14.79-11.06h-3.41V5.5h1.35a.67.67 0 0 0 .65-.68.32.32 0 0 0 0-.08L20.68.55a.64.64 0 0 0-.66-.55h-2.93a.64.64 0 0 0-.65.55l-.6 4.2a.66.66 0 0 0 .56.75h1.56v11.61h-3.74a.66.66 0 0 0 0 1.32h1.26v8.51A3.08 3.08 0 0 0 18.54 30a3.07 3.07 0 0 0 3.14-3.08v-8.49h1.07a.665.665 0 0 0 0-1.33zM17.24 4.19l.44-2.88h1.8l.41 2.88zm3.08 22.74a1.76 1.76 0 0 1-1.75 1.77 1.77 1.77 0 0 1-1.76-1.77v-8.51h3.53z"/></g></svg>