<svg data-name="Layer 1" xmlns="http://www.w3.org/2000/svg" viewBox="0 0 35 35"><title>user</title><path class="cls-1" d="M17.5 24.06c5.43 0 9.84-5.4 9.84-12S22.93 0 17.5 0a9 9 0 0 0-7 3.61A13.47 13.47 0 0 0 7.66 12c0 6.66 4.41 12.06 9.84 12.06zm0-21.87c4.22 0 7.66 4.42 7.66 9.84s-3.44 9.84-7.66 9.84S9.84 17.46 9.84 12s3.44-9.81 7.66-9.81zm7.66 19.69a1.095 1.095 0 0 0 0 2.19 7.67 7.67 0 0 1 7.66 7.66 1.1 1.1 0 0 1-1.09 1.09H3.28a1.1 1.1 0 0 1-1.09-1.09 7.67 7.67 0 0 1 7.66-7.66 1.095 1.095 0 1 0 0-2.19A9.85 9.85 0 0 0 0 31.72 3.29 3.29 0 0 0 3.28 35h28.44A3.29 3.29 0 0 0 35 31.72a9.86 9.86 0 0 0-9.84-9.85z"/></svg>