<svg viewBox="0 0 30 30" xmlns="http://www.w3.org/2000/svg"><path d="M13.3086 0C12.985 0 12.7227 0.262324 12.7227 0.585938V4.19924C12.7227 4.52279 12.985 4.78518 13.3086 4.78518C13.6322 4.78518 13.8945 4.52285 13.8945 4.19924V0.585938C13.8945 0.262324 13.6322 0 13.3086 0Z"/><path d="M20.9984 7.69141H17.3851C17.0615 7.69141 16.7991 7.95373 16.7991 8.27734C16.7991 8.60096 17.0615 8.86328 17.3851 8.86328H20.9984C21.322 8.86328 21.5843 8.60096 21.5843 8.27734C21.5843 7.95373 21.322 7.69141 20.9984 7.69141Z"/><path d="M9.23042 7.68982H5.61719C5.29357 7.68982 5.03125 7.95214 5.03125 8.27576C5.03125 8.59937 5.29357 8.86169 5.61719 8.86169H9.23048C9.55404 8.86169 9.81636 8.59937 9.81636 8.27576C9.81636 7.95214 9.55404 7.68982 9.23042 7.68982Z"/><path d="M10.4099 4.54883L8.70397 2.84287C8.47516 2.61406 8.10415 2.61406 7.87528 2.84287C7.64647 3.07168 7.64647 3.44269 7.87528 3.67156L9.5813 5.37752C9.69573 5.49195 9.84567 5.54914 9.99561 5.54914C10.1456 5.54914 10.2956 5.49195 10.4099 5.37752C10.6387 5.14871 10.6387 4.77769 10.4099 4.54883Z"/><path d="M18.7414 2.84397C18.5126 2.61516 18.1416 2.61516 17.9127 2.84397L16.2068 4.54992C15.978 4.77873 15.978 5.14975 16.2068 5.37861C16.3212 5.49305 16.4712 5.55024 16.6211 5.55024C16.7711 5.55024 16.9211 5.49305 17.0355 5.37861L18.7414 3.67266C18.9702 3.44385 18.9702 3.07284 18.7414 2.84397Z"/><path d="M22.8008 13.3422C22.4052 13.3422 22.0344 13.4491 21.7148 13.6349C21.4484 12.7392 20.6179 12.0838 19.6367 12.0838C19.0131 12.0838 18.4506 12.3488 18.0547 12.7717C17.6588 12.3488 17.0962 12.0838 16.4727 12.0838C16.1137 12.0838 15.7751 12.172 15.4766 12.3271V8.27649C15.4766 7.08106 14.504 6.10852 13.3086 6.10852C12.1132 6.10852 11.1406 7.08106 11.1406 8.27649V11.366C11.1406 11.6896 11.4029 11.9519 11.7266 11.9519C12.0502 11.9519 12.3125 11.6896 12.3125 11.366V8.27649C12.3125 7.72723 12.7593 7.2804 13.3086 7.2804C13.8579 7.2804 14.3047 7.72723 14.3047 8.27649V18.0856C14.3047 18.4092 14.567 18.6715 14.8906 18.6715C15.2142 18.6715 15.4766 18.4092 15.4766 18.0856V14.2518C15.4766 13.7025 15.9234 13.2557 16.4727 13.2557C17.0219 13.2557 17.4688 13.7025 17.4688 14.2518V14.8173V18.0856C17.4688 18.4092 17.7311 18.6715 18.0547 18.6715C18.3783 18.6715 18.6406 18.4092 18.6406 18.0856V14.8173V14.2518C18.6406 13.7025 19.0875 13.2557 19.6367 13.2557C20.186 13.2557 20.6328 13.7025 20.6328 14.2518V15.5101V16.5234V18.0856C20.6328 18.4092 20.8951 18.6715 21.2188 18.6715C21.5424 18.6715 21.8047 18.4092 21.8047 18.0856V16.5234V15.5101C21.8047 14.9608 22.2515 14.514 22.8008 14.514C23.35 14.514 23.7969 14.9608 23.7969 15.5101V21.6374C23.7969 22.0739 23.7576 22.5109 23.6799 22.9363C23.6219 23.2547 23.8329 23.5598 24.1512 23.6179C24.1868 23.6243 24.2221 23.6275 24.257 23.6275C24.5346 23.6275 24.7812 23.4294 24.8328 23.1465C24.923 22.6519 24.9688 22.1442 24.9688 21.6374V15.5101C24.9688 14.3147 23.9962 13.3422 22.8008 13.3422Z"/><path d="M22.3383 26.9252C22.1175 26.6886 21.7467 26.6757 21.5102 26.8965C20.1749 28.1421 18.4333 28.8281 16.6061 28.8281C13.8648 28.8281 11.3232 27.2331 10.131 24.7645L7.43201 19.176C7.18855 18.672 7.37764 18.0579 7.86238 17.778C8.36359 17.4887 9.01615 17.6553 9.31732 18.1494L11.2262 21.2815C11.3629 21.5057 11.6321 21.6117 11.885 21.5407C12.1378 21.4697 12.3125 21.2392 12.3125 20.9766V15.2344C12.3125 14.9108 12.0502 14.6484 11.7266 14.6484C11.403 14.6484 11.1406 14.9108 11.1406 15.2344V18.8893L10.318 17.5395C9.67779 16.489 8.34174 16.148 7.27644 16.7631C6.26307 17.3482 5.86785 18.6319 6.3768 19.6856L9.0758 25.2742C9.76053 26.692 10.8273 27.8838 12.1609 28.7207C13.4945 29.5576 15.0317 30 16.6062 30C18.7311 30 20.7566 29.2021 22.3095 27.7533C22.5462 27.5326 22.559 27.1618 22.3383 26.9252Z"/><path d="M23.8542 24.9374C23.7452 24.8284 23.594 24.7657 23.4399 24.7657C23.2858 24.7657 23.1347 24.8284 23.0257 24.9374C22.9167 25.0464 22.854 25.1976 22.854 25.3517C22.854 25.5064 22.9167 25.657 23.0257 25.7659C23.1347 25.8749 23.2858 25.9376 23.4399 25.9376C23.594 25.9376 23.7452 25.8749 23.8542 25.7659C23.9632 25.657 24.0259 25.5064 24.0259 25.3517C24.0259 25.1976 23.9632 25.0464 23.8542 24.9374Z"/><path d="M12.1407 12.9451C12.0317 12.8361 11.8805 12.7734 11.7264 12.7734C11.5723 12.7734 11.4212 12.8361 11.3122 12.9451C11.2032 13.0541 11.1405 13.2053 11.1405 13.3594C11.1405 13.5135 11.2032 13.6646 11.3122 13.7736C11.4212 13.8826 11.5723 13.9453 11.7264 13.9453C11.8805 13.9453 12.0317 13.8826 12.1407 13.7736C12.2497 13.6646 12.3124 13.5135 12.3124 13.3594C12.3124 13.2053 12.2497 13.0541 12.1407 12.9451Z"/></svg>