<svg viewBox="0 0 24 24" fill="none" xmlns="http://www.w3.org/2000/svg"><g clip-path="url(#clip0)"><path d="M10.5701 8.04615C11.2246 7.62938 12.0846 7.77047 12.0846 7.77047C12.2786 7.7536 12.466 7.78505 12.6353 7.85419V7.79246C11.8856 6.78943 12.2641 5.58207 12.2641 5.58207L12.2636 5.45372L11.7829 4.66496L11.826 4.1963C11.8536 3.89672 11.6174 3.6384 11.3166 3.63915L10.8597 3.64027C10.8597 3.64027 9.41033 3.29954 8.57282 2.6521H8.52763C8.31027 3.27216 8.27136 4.08047 8.27136 4.08047L7.96246 4.81055C7.91136 4.9313 7.97722 5.06958 8.10317 5.10601C8.22767 5.16174 8.59353 5.14894 8.65752 5.49249C8.72793 5.87063 8.94514 6.56424 9.59652 6.65729C10.2337 6.74827 10.5345 7.42004 10.5701 8.04615Z" fill="#F4D44E"/><path d="M11.535 7.75446C11.4828 7.13281 11.1746 6.48673 10.5443 6.39668C9.71244 6.27785 9.08661 5.00177 9.53821 3.19582C9.1993 3.04943 8.85205 2.86784 8.57282 2.65198H8.52763C8.31027 3.27204 8.27136 4.08035 8.27136 4.08035L7.96246 4.81043C7.91136 4.93118 7.97722 5.06946 8.10317 5.10588C8.22711 5.16138 8.59353 5.14873 8.65752 5.49237C8.72792 5.87051 8.94514 6.56412 9.59652 6.65717C10.2297 6.74763 10.5341 7.41331 10.5701 8.04607C10.8558 7.86424 11.1999 7.77804 11.535 7.75446Z" fill="#E8C842"/><path d="M12.0846 7.6737C12.0846 7.6737 10.5861 7.42695 10.0398 8.54319C9.55647 9.53089 9.08158 12.1155 9.51517 14.062H12.2525L12.0846 7.6737Z" fill="#DB4E33"/><path d="M16.7728 19.7358L15.977 19.3756L14.6617 21.1395C14.6614 22.1134 15.1052 23.0749 15.6538 23.4113C15.9628 23.6008 16.3632 23.4014 16.3958 23.0404L17.0728 20.2911C17.109 20.0596 16.9862 19.8325 16.7728 19.7358Z" fill="#656566"/><path d="M15.4078 20.139L14.6617 21.1396C14.6614 22.1136 15.1052 23.075 15.6538 23.4115C15.9628 23.601 16.3631 23.4016 16.3958 23.0406L16.6215 22.124C16.0984 22.1086 15.5152 21.1289 15.4078 20.139Z" fill="#545456"/><path d="M13.4644 17.7807C13.2208 17.6262 13.0865 17.3451 13.1225 17.0589C13.275 15.846 12.6486 14.8673 12.6486 14.8673L12.5738 14.9129C12.4516 15.5401 12.1333 16.5918 11.3187 17.311C11.1503 17.4597 11.0584 17.6769 11.0584 17.9015V19.0284L14.1989 21.0737C14.4538 21.24 14.7951 21.169 14.9626 20.9149L15.9769 19.3757L13.4644 17.7807Z" fill="#5085BA"/><path d="M14.6653 20.1115L11.1471 17.5343C10.9995 17.8225 11.0815 18.0046 11.0584 19.0284L14.1989 21.0736C14.4538 21.24 14.7951 21.169 14.9626 20.9148L15.3881 20.2692C15.1443 20.3189 14.8816 20.2703 14.6653 20.1115Z" fill="#3A77AA"/><path d="M10.8162 14.0139H9.50476C8.94559 15.4309 8.29234 16.1731 8.38717 17.5573L8.69294 22.0697H11.155V17.95C11.155 17.7204 11.2545 17.5028 11.4259 17.3502C12.6441 16.2647 12.744 14.4337 12.744 14.4337C11.4105 14.1155 11.2336 14.0139 10.8162 14.0139Z" fill="#5085BA"/><path d="M10.7929 14.0139H9.50476C8.94559 15.4309 8.29234 16.1731 8.38717 17.5573L8.69294 22.0697H9.9811L9.67534 17.5573C9.58056 16.1728 10.2329 15.433 10.7929 14.0139Z" fill="#3A77AA"/><path d="M8.69295 22.0212C7.74875 22.2404 7.1353 22.8524 6.94367 23.4169C6.83572 23.7348 7.12733 24.0464 7.48531 23.9942L10.9347 23.9775C11.168 23.9575 11.2299 23.7756 11.2299 23.5298L11.1551 22.0211L8.69295 22.0212Z" fill="#656566"/><path d="M8.82046 23.317C8.97796 22.853 9.37898 22.3619 9.98615 22.0212H8.69296C7.7488 22.2405 7.1353 22.8525 6.94367 23.4169C6.83572 23.7348 7.12733 24.0465 7.48531 23.9943L9.23188 23.9858C8.9249 23.9185 8.71752 23.6202 8.82046 23.317Z" fill="#545456"/><path d="M13.4771 12.1008C13.5033 11.6873 13.5234 10.6143 13.2041 9.92444L11.3708 10.084C11.3708 10.084 11.353 11.2739 11.6535 12.254C11.7033 12.4162 11.6755 12.5921 11.5807 12.7328C9.86759 15.2764 10.1098 15.0814 9.95642 15.1679L9.2292 15.5781C9.04967 15.6794 8.98414 15.9058 9.08187 16.0873C9.16423 16.2402 9.05319 16.3702 9.05506 16.3654C8.79528 16.6979 8.90094 17.1846 9.27514 17.3795C9.70836 17.6051 10.2422 17.4635 10.5065 17.0527C11.0037 16.2803 11.0257 16.2119 11.1987 16.0812C11.5895 15.7863 12.7845 14.7957 13.2444 13.4037C13.2866 13.2761 13.3328 13.1498 13.3884 13.0274C13.5644 12.6402 13.4556 12.4392 13.4771 12.1008Z" fill="#F4D44E"/><path d="M12.373 13.2994C12.4152 13.1718 12.4614 13.0455 12.517 12.923C12.693 12.5358 12.5842 12.3347 12.6057 11.9962C12.6298 11.6161 12.6485 10.6788 12.4033 9.99402L11.3708 10.0839C11.3708 10.0839 11.353 11.2738 11.6535 12.2539C11.7033 12.4161 11.6755 12.592 11.5807 12.7327C9.86754 15.2763 10.1098 15.0813 9.95641 15.1677L9.22919 15.5779C9.04966 15.6792 8.98413 15.9056 9.08191 16.0871C9.16385 16.2393 9.05702 16.3603 9.05515 16.3652C8.81913 16.6673 8.88551 17.0958 9.18011 17.3181C9.36157 17.2483 9.52286 17.1228 9.63527 16.9482C10.1325 16.1757 10.1544 16.1074 10.3275 15.9767C10.7181 15.6819 11.9131 14.6914 12.373 13.2994Z" fill="#E8C842"/><path d="M13.4597 9.71664L13.3764 8.75866C13.3353 8.28747 13.0217 7.90235 12.605 7.74536C12.3115 7.98963 12.1366 8.3777 12.173 8.7962C12.2932 9.94174 12.2309 9.9896 12.3451 10.0958L13.204 10.021C13.3587 10.0076 13.4732 9.87138 13.4597 9.71664Z" fill="#ED694A"/><path d="M12.5495 10.0781C12.4383 10.0877 12.3401 10.0017 12.33 9.88593L12.2358 8.8041C12.1997 8.38959 12.3843 8.00652 12.6878 7.78054C11.8689 7.39931 10.9733 8.04163 11.0486 8.90741L11.1428 9.98924C11.1528 10.105 11.2549 10.1907 11.3707 10.1807C12.4518 10.0866 12.121 10.1154 13.2039 10.0211L12.5495 10.0781Z" fill="#DB4E33"/><path d="M12.2412 0.61717C12.2412 0.61717 10.203 -0.92933 8.39943 0.874279C6.57936 2.69434 10.8114 3.68856 10.8114 3.68856L11.2682 3.68744C11.5691 3.68669 11.8053 3.94501 11.7777 4.24459C11.7536 4.50639 11.7132 4.67809 11.8436 4.89208L12.264 5.58208C15.3961 2.215 12.2412 0.61717 12.2412 0.61717Z" fill="#CC9D72"/><path d="M9.60673 1.58654C10.73 0.463186 11.9442 0.639482 12.7005 0.932217C12.4466 0.721373 12.2411 0.61717 12.2411 0.61717C12.2411 0.61717 10.203 -0.92933 8.39941 0.874279C7.25993 2.01376 8.4927 2.82953 9.57391 3.28028C9.09377 2.83839 8.9224 2.27083 9.60673 1.58654Z" fill="#C19067"/></g><defs><clipPath id="clip0"><path fill="#fff" d="M0 0H24V24H0z"/></clipPath></defs></svg>