<svg id="Layer_1" data-name="Layer 1" xmlns="http://www.w3.org/2000/svg" viewBox="0 0 508.28 512"><defs><style>.cls-1{fill:#abb2b7}.cls-2{fill:#ffa834}.cls-3{fill:#ccd6db}.cls-4{fill:#fcc062}.cls-5{fill:#fedaaa}.cls-6{fill:#ffdf5a}.cls-7{fill:#fff}.cls-8{fill:#99a0a4}.cls-9{fill:#e5e9ea}</style></defs><title>apple-pie</title><path class="cls-1" d="M60.91 470.61h386.47v34.2H60.91z"/><path class="cls-2" d="M467.21 366c-9 0-13.59-5.32-18-10.45-4.25-5-8.65-10.11-17.22-10.11s-12.95 5.13-17.2 10.1c-4.41 5.15-9 10.46-18 10.46s-13.6-5.32-18-10.46c-4.25-5-8.65-10.11-17.21-10.11s-13 5.14-17.21 10.11c-4.61 5.38-9 10.46-18 10.46s-13.39-5.08-18-10.45c-4.26-5-8.65-10.11-17.22-10.11s-12.95 5.13-17.2 10.1c-4.62 5.38-9 10.46-18 10.46s-13.59-5.32-18-10.45c-4.25-5-8.65-10.11-17.21-10.11s-13 5.14-17.21 10.11c-4.4 5.14-8.94 10.45-18 10.45s-13.59-5.31-18-10.45c-4.26-5-8.65-10.11-17.21-10.11s-13 5.14-17.21 10.1c-4.62 5.38-9 10.46-18 10.46s-13.59-5.31-18-10.45c-4.25-5-8.65-10.11-17.21-10.11-7.75 0-11.93 4.05-15.88 8.57-.47.54-.89 1-1.29 1.49-4.43 5.18-9 10.51-18 10.51s-13.59-5.32-18-10.45c-3.12-3.65-6.66-7.78-11.89-9.36L9 344.43v-24.8a52.23 52.23 0 0 1 6.45-21.41c5.29-9.47 15.9-20.93 36.36-21.71h1.18A39.42 39.42 0 0 1 63.67 278a172.62 172.62 0 0 1 161.64-110.1h61.38A172.74 172.74 0 0 1 448.32 278l1-.27.81-.28h.46l.77-.16.49-.1.69-.12a43.65 43.65 0 0 1 7.22-.61 42.79 42.79 0 0 1 14.39 2.47 43.06 43.06 0 0 1 28.74 40.66v24.8l-5.84 1.77c-4.81 1.45-8.1 5-11.33 8.73l-.55.63c-4.36 5.12-8.92 10.48-17.96 10.48z" transform="translate(-1.86)"/><path class="cls-3" d="M97.21 471.64L34.42 366.23l12.65-1.44c7.09-.81 11.07-5.46 14.92-10 4.4-5.15 9-10.47 18-10.47s13.59 5.32 18 10.46c4.25 5 8.64 10.1 17.21 10.1s13-5.13 17.2-10.1c4.41-5.15 9-10.46 18-10.46s13.59 5.32 18 10.46c4.25 5 8.64 10.1 17.21 10.1s13-5.13 17.21-10.1c4.4-5.15 9-10.47 18-10.47s13.59 5.32 18 10.46c4.25 5 8.64 10.1 17.21 10.1s13-5.13 17.2-10.1c4.62-5.39 9-10.47 18-10.47s13.38 5.08 18 10.46c4.25 5 8.64 10.1 17.22 10.1s13-5.13 17.2-10.09c4.42-5.15 9-10.47 18-10.47s13.59 5.32 18 10.46c4.25 5 8.64 10.1 17.21 10.1s13-5.13 17.21-10.1c4.62-5.39 9-10.47 18-10.47s13.6 5.32 18 10.46c3.85 4.49 7.84 9.15 14.93 10l12.65 1.44L452 409.12l-37.25 62.52z" transform="translate(-1.86)"/><path class="cls-4" d="M494.72 319.57v18.7c-7.17 2.17-11.69 7.16-15.2 11.25l-.55.64c-4.39 5.12-6.72 7.58-11.75 7.58h-1c-4.37-.31-6.67-2.77-10.75-7.54-4.69-5.48-11.11-13-23.47-13s-18.76 7.51-23.45 13c-4.39 5.12-6.72 7.58-11.75 7.58s-7.36-2.46-11.74-7.58c-4.69-5.48-11.11-13-23.46-13s-18.77 7.51-23.46 13c-4.39 5.12-6.71 7.58-11.74 7.58s-7.36-2.46-11.75-7.58c-4.69-5.48-11.1-13-23.46-13s-18.76 7.51-23.45 13c-4.39 5.12-6.71 7.58-11.74 7.58s-7.36-2.46-11.74-7.58c-4.69-5.48-11.11-13-23.46-13s-18.77 7.51-23.46 13c-4.38 5.12-6.71 7.58-11.74 7.58s-7.36-2.46-11.75-7.58c-4.69-5.48-11.1-13-23.45-13s-18.77 7.51-23.46 13c-4.39 5.12-6.71 7.58-11.74 7.58s-7.36-2.46-11.74-7.58c-4.69-5.48-11.11-13-23.46-13-11.18 0-17.5 6.15-22.07 11.38V346c0-1.09 2.78-33.68 34.9-34.9a30.92 30.92 0 0 1 9.65 1.37l6.76 1.94 2.55-6.55a164.48 164.48 0 0 1 154.16-105.3h61.38a166 166 0 0 1 69.09 14.92 165.54 165.54 0 0 1 44.43 64l2.56 6.55 6.76-1.94c.49-.14 1-.28 1.51-.39h.09q.6-.15 1.23-.28l.63-.12h.24a35.24 35.24 0 0 1 6-.51 34.61 34.61 0 0 1 11.63 2 34.86 34.86 0 0 1 23.28 32.91z" transform="translate(-1.86)"/><ellipse class="cls-5" cx="304.77" cy="276.8" rx="110.86" ry="57.85"/><path class="cls-3" d="M256 262.3c-5.92 0-12.54-11-12.54-25.75s6.62-25.75 12.54-25.75c2.29 0 4.6 1.51 6.7 4.38 1.76 2.38 5.85 9.26 5.85 21.37s-4.09 19-5.85 21.38c-2.1 2.86-4.41 4.37-6.7 4.37zm-87.82-5.7a7.43 7.43 0 0 1-5.46-1.84c-2.81-2.81-1.71-8.18-1.11-10.36 1.54-5.51 5.34-11.6 10.44-16.72s11.19-8.91 16.71-10.45a18.91 18.91 0 0 1 4.92-.73 7.57 7.57 0 0 1 5.43 1.82c2.83 2.83 1.73 8.2 1.13 10.38-1.54 5.53-5.35 11.62-10.45 16.72a41.2 41.2 0 0 1-15.53 10.08c-.44.14-.84.27-1.23.37a18.62 18.62 0 0 1-4.85.73zm173.56 0a18.6 18.6 0 0 1-4.91-.74c-5.5-1.52-11.6-5.33-16.71-10.44s-8.92-11.21-10.45-16.72c-.61-2.17-1.72-7.56 1.12-10.37a7.46 7.46 0 0 1 5.4-1.83 20 20 0 0 1 6.13 1.11 41 41 0 0 1 15.53 10.06c5.11 5.11 8.92 11.2 10.45 16.71.6 2.19 1.7 7.56-1.11 10.37a7.44 7.44 0 0 1-5.45 1.85z" transform="translate(-1.86)"/><path class="cls-6" d="M452.33 265.63c-.26-.61.28-.68.28-.68z" transform="translate(-1.86)"/><path class="cls-2" d="M494.72 319.57v18.7c-7.17 2.17-11.69 7.16-15.2 11.25l-.55.64c-4.39 5.12-6.72 7.58-11.75 7.58h-1V315c0-22-22.83-27.06-22.83-27.06l6.76-1.94c.49-.14 1-.28 1.51-.39h.09q.6-.15 1.23-.28l.63-.12h.24a35.24 35.24 0 0 1 6-.51 34.61 34.61 0 0 1 11.63 2 34.84 34.84 0 0 1 23.28 32.91z" transform="translate(-1.86)"/><circle class="cls-7" cx="178.49" cy="436.39" r="15.42"/><circle class="cls-7" cx="343.4" cy="416.91" r="5.75"/><circle class="cls-7" cx="239.37" cy="419.79" r="2.88"/><circle class="cls-7" cx="218.56" cy="452.44" r="5.75"/><circle class="cls-7" cx="411.49" cy="411.87" r="3.87"/><ellipse class="cls-7" cx="333.19" cy="235.93" rx="2.51" ry="8.06" transform="rotate(-43.7 332.293 238.255)"/><ellipse class="cls-7" cx="185.14" cy="236.56" rx="8.06" ry="2.51" transform="rotate(-46.3 184.19 238.733)"/><ellipse class="cls-7" cx="258.59" cy="237.49" rx="2.06" ry="9.43"/><path class="cls-8" d="M439.15 478.83v8.88H92.04v8.87H69.13v-17.75h370.02z"/><path class="cls-9" d="M445 404.91l-34.85 58.5H139.51l-17.36-29.14a34.87 34.87 0 0 1 3.49-40.52l.13-.15c4.38-5.12 6.71-7.59 11.74-7.59s7.36 2.47 11.74 7.59c4.69 5.48 11.11 13 23.46 13s18.77-7.49 23.46-13c4.38-5.12 6.71-7.59 11.74-7.59s7.36 2.47 11.74 7.59c4.69 5.48 11.11 13 23.46 13s18.77-7.49 23.46-13c4.38-5.12 6.71-7.59 11.74-7.59s7.36 2.47 11.74 7.59c4.69 5.48 11.11 13 23.46 13s18.77-7.49 23.46-13c4.38-5.12 6.71-7.59 11.74-7.59s7.35 2.47 11.74 7.59c4.69 5.48 11.11 13 23.46 13s18.77-7.49 23.46-13c4.38-5.12 6.71-7.59 11.74-7.59s7.36 2.47 11.75 7.59c3.35 3.89 7.55 8.79 14.14 11.31zM265.46 236.55c0 9.07-2.54 15.86-5.25 19.55-2.71-3.69-5.26-10.49-5.26-19.55s2.55-15.86 5.26-19.55c2.71 3.68 5.25 10.48 5.25 19.55zm-68.19-8.67c-1.4 5-4.91 10.62-9.65 15.36a38.38 38.38 0 0 1-14.31 9.34c-1.12-1.12-1.25-4-.32-7.36 1.39-5 4.91-10.61 9.65-15.36a38.43 38.43 0 0 1 14.36-9.34c1.08 1.12 1.2 4.02.27 7.36zM345 252.58a38.39 38.39 0 0 1-14.31-9.34c-4.75-4.74-8.27-10.34-9.65-15.36-.92-3.32-.81-6.21.3-7.34a37.48 37.48 0 0 1 14.32 9.32c4.75 4.75 8.27 10.34 9.66 15.36.95 3.35.82 6.24-.32 7.36z" transform="translate(-1.86)"/><path d="M459.82 269.24a50.22 50.22 0 0 0-7.1.51 180.9 180.9 0 0 0-166-109h-61.41a180.9 180.9 0 0 0-166 109 50.31 50.31 0 0 0-57.45 49.82v33h7.71c5 0 7.36 2.46 11.74 7.58 1.09 1.27 2.28 2.66 3.62 4h-.07l59.07 99.16H55.57V512h400.86v-48.59h-28.37l59.07-99.16h-.07c1.33-1.37 2.52-2.76 3.61-4 4.39-5.12 6.72-7.58 11.75-7.58h7.71v-33a50.38 50.38 0 0 0-50.31-50.43zM441 478.83v17.74H71v-17.74h370zm-30.89-15.42H101.89L48 373c10.27-1.17 16-7.8 20.23-12.78s6.71-7.58 11.74-7.58 7.36 2.46 11.74 7.58c4.69 5.48 11.11 13 23.46 13s18.77-7.5 23.46-13c4.38-5.12 6.72-7.58 11.74-7.58s7.36 2.46 11.74 7.58c4.69 5.48 11.11 13 23.46 13s18.77-7.5 23.46-13c4.39-5.12 6.72-7.58 11.74-7.58s7.36 2.46 11.74 7.58c4.69 5.48 11.11 13 23.46 13s18.77-7.5 23.46-13c4.38-5.12 6.71-7.58 11.74-7.58s7.36 2.46 11.74 7.58c4.69 5.48 11.11 13 23.46 13s18.77-7.5 23.46-13c4.39-5.12 6.72-7.58 11.74-7.58s7.36 2.46 11.75 7.58c4.69 5.48 11.11 13 23.46 13s18.77-7.5 23.46-13c4.39-5.12 6.72-7.58 11.74-7.58s7.36 2.46 11.75 7.58 10 11.61 20.24 12.78zm84.6-125.14c-7.54 2.28-12.15 7.68-15.75 11.88-4.39 5.12-6.72 7.58-11.75 7.58s-7.36-2.46-11.75-7.58c-4.69-5.48-11.11-13-23.46-13s-18.77 7.5-23.46 13c-4.39 5.12-6.72 7.58-11.75 7.58s-7.36-2.46-11.74-7.58c-4.69-5.48-11.11-13-23.46-13s-18.77 7.5-23.46 13c-4.39 5.12-6.72 7.58-11.74 7.58s-7.36-2.46-11.74-7.58c-4.69-5.48-11.11-13-23.46-13s-18.77 7.5-23.46 13c-4.38 5.12-6.71 7.58-11.74 7.58s-7.36-2.46-11.74-7.58c-4.69-5.48-11.11-13-23.46-13s-18.77 7.5-23.46 13c-4.38 5.12-6.72 7.58-11.74 7.58s-7.36-2.46-11.74-7.58c-4.69-5.48-11.11-13-23.46-13s-18.77 7.5-23.46 13c-4.39 5.12-6.72 7.58-11.74 7.58s-7.36-2.46-11.74-7.58c-4.69-5.48-11.11-13-23.46-13s-18.77 7.5-23.46 13c-4.39 5.12-6.72 7.58-11.74 7.58s-7.36-2.46-11.74-7.58c-3.6-4.2-8.22-9.6-15.75-11.88v-18.7c0-1.09 2.78-33.68 34.9-34.9a30.87 30.87 0 0 1 9.65 1.33l6.76 2 2.56-6.55a164.47 164.47 0 0 1 154.15-105.3h61.38a164.47 164.47 0 0 1 154.15 105.3l2.55 6.55 6.76-1.94a34.9 34.9 0 0 1 44.56 33.54v18.7zM251.55 74C245.84 78 238 83.52 238 94.77s7.83 16.78 13.55 20.81c5.44 3.84 7 5.38 7 8.21H274c0-11.25-7.83-16.78-13.55-20.81-5.44-3.84-7-5.38-7-8.21s1.58-4.37 7-8.21C266.16 82.53 274 77 274 65.75S266.16 49 260.45 44.94c-5.44-3.84-7-5.38-7-8.21s1.58-4.37 7-8.21C266.16 24.49 274 19 274 7.71h-15.43c0 2.83-1.58 4.37-7 8.21C245.84 20 238 25.48 238 36.73s7.83 16.78 13.55 20.81c5.44 3.84 7 5.38 7 8.21s-1.55 4.38-7 8.25zm82.32 20.52c-5.72 4-13.55 9.56-13.55 20.81s7.83 16.78 13.55 20.81c5.44 3.84 7 5.38 7 8.21h15.42c0-11.25-7.83-16.78-13.55-20.81-5.44-3.84-7-5.38-7-8.21s1.58-4.38 7-8.21c5.72-4 13.55-9.56 13.55-20.81s-7.83-16.78-13.55-20.81c-5.44-3.84-7-5.38-7-8.21s1.58-4.37 7-8.21c5.72-4 13.55-9.56 13.55-20.81h-15.41c0 2.83-1.58 4.37-7 8.21-5.72 4-13.55 9.56-13.55 20.81s7.83 16.78 13.55 20.81c5.44 3.84 7 5.38 7 8.21s-1.58 4.38-7.01 8.21zM171.83 93.5c-5.72 4-13.54 9.56-13.54 20.81s7.83 16.78 13.54 20.81c5.44 3.84 7 5.38 7 8.21h15.42c0-11.25-7.83-16.78-13.55-20.81-5.44-3.84-7-5.38-7-8.21s1.58-4.38 7-8.21c5.72-4 13.54-9.56 13.54-20.81s-7.83-16.78-13.55-20.81c-5.44-3.84-7-5.38-7-8.21s1.58-4.37 7-8.21c5.72-4 13.55-9.56 13.55-20.81h-15.39c0 2.83-1.58 4.37-7 8.21-5.72 4-13.55 9.56-13.55 20.81s7.82 16.73 13.53 20.81c5.44 3.83 7 5.38 7 8.21s-1.56 4.37-7 8.21z" transform="translate(-1.86)"/><path d="M408.96 147.06H425v15.42h-16.04zm30.08-80.42h16.04v15.42h-16.04zm-50.35-41.97h16.04v15.42h-16.04zM108.97 66.64h16.04v15.42h-16.04zm-42.66 73.43h16.04v15.42H66.31zM97.13 0h16.04v15.42H97.13z"/><path class="cls-7" d="M254.25 432.57H369.1v15.42H254.25zm130.25 0h15.51v15.42H384.5z"/><path d="M256 198.46c-14.19 0-24.88 16.38-24.88 38.09s10.7 38.09 24.88 38.09 24.88-16.37 24.88-38.09-10.69-38.09-24.88-38.09zm0 60.76c-3.34 0-9.46-8.61-9.46-22.67s6.13-22.67 9.46-22.67 9.46 8.61 9.46 22.67-6.12 22.67-9.46 22.67zm-70.53-53.88c-7.61 2.11-15.47 6.95-22.13 13.61s-11.5 14.52-13.61 22.13c-2.5 9-.95 17.18 4.27 22.39 3.59 3.58 8.56 5.44 14.24 5.44a30.55 30.55 0 0 0 8.15-1.17c7.61-2.11 15.47-6.95 22.13-13.61S210 239.62 212.13 232c2.5-9 .95-17.18-4.27-22.39s-13.38-6.77-22.39-4.27zm11.81 22.54c-1.39 5-4.91 10.61-9.65 15.36s-10.34 8.26-15.36 9.65c-3.35.93-6.24.8-7.36-.32s-1.25-4-.32-7.36c1.39-5 4.91-10.61 9.65-15.36s10.34-8.26 15.36-9.65a15.67 15.67 0 0 1 4.09-.62 4.68 4.68 0 0 1 3.27.94c1.12 1.13 1.24 4.02.31 7.36zM346.59 219c-15.35-15.35-34.5-19.37-44.53-9.34-5.22 5.22-6.77 13.38-4.27 22.39 2.11 7.61 6.95 15.47 13.61 22.13s14.52 11.5 22.14 13.61a30.55 30.55 0 0 0 8.15 1.17c5.68 0 10.66-1.86 14.24-5.44 5.22-5.22 6.77-13.38 4.27-22.39-2.12-7.65-6.95-15.51-13.61-22.13zM345 252.58c-1.12 1.12-4 1.25-7.36.32-5-1.39-10.61-4.91-15.36-9.65s-8.26-10.34-9.66-15.36c-.93-3.35-.8-6.24.32-7.36a4.6 4.6 0 0 1 3.23-.94c4.4 0 12.08 2.86 19.49 10.27 4.74 4.74 8.26 10.34 9.66 15.36.95 3.35.82 6.24-.32 7.36z" transform="translate(-1.86)"/></svg>