<svg id="Layer_1" data-name="Layer 1" xmlns="http://www.w3.org/2000/svg" viewBox="0 0 120 115.58"><defs><style>.cls-1{fill:none}.cls-2{clip-path:url(#clip-path)}.cls-3{fill:#d0f4ef}.cls-4{fill:#abe0da}.cls-5{fill:#f72b2b}.cls-6{fill:#d61b1f}.cls-7{fill:#628fb1}.cls-8{fill:#ffbd47}.cls-9{fill:#38aaff}</style><clipPath id="clip-path" transform="translate(.23 -2.34)"><path class="cls-1" d="M0 0h120v120H0z"/></clipPath></defs><title>calendar</title><g class="cls-2"><path class="cls-3" d="M107.48 107.27H2.67a2.9 2.9 0 0 1-2.9-2.9V18.19A9.2 9.2 0 0 1 9 9h92.22a9.2 9.2 0 0 1 9.2 9.2v86.19a2.9 2.9 0 0 1-2.94 2.88z" transform="translate(.23 -2.34)"/><path class="cls-4" d="M110.38 18.19v86.19a2.9 2.9 0 0 1-2.9 2.9h-8.8a2.9 2.9 0 0 0 2.9-2.9V18.19A9.2 9.2 0 0 0 92.39 9h8.8a9.2 9.2 0 0 1 9.19 9.19z" transform="translate(.23 -2.34)"/><path class="cls-5" d="M110.38 18.19v14.06H-.23V18.19A9.2 9.2 0 0 1 9 9h92.22a9.2 9.2 0 0 1 9.16 9.19z" transform="translate(.23 -2.34)"/><path class="cls-6" d="M110.38 18.19v14.06h-8.79V18.19A9.2 9.2 0 0 0 92.39 9h8.8a9.2 9.2 0 0 1 9.19 9.19z" transform="translate(.23 -2.34)"/><path class="cls-7" d="M18.4 43h-6.3a1.81 1.81 0 1 1 0-3.62h6.3a1.81 1.81 0 1 1 0 3.62zm19.34 0h-6.29a1.81 1.81 0 1 1 0-3.62h6.29a1.81 1.81 0 1 1 0 3.62zm19.34 0h-6.29a1.81 1.81 0 0 1 0-3.62h6.29a1.81 1.81 0 1 1 0 3.62zm19.35 0h-6.3a1.81 1.81 0 0 1 0-3.62h6.29a1.81 1.81 0 0 1 0 3.62zm19.34 0h-6.29a1.81 1.81 0 0 1 0-3.62h6.29a1.81 1.81 0 0 1 0 3.62zM18.4 52.08h-6.3a1.81 1.81 0 0 1 0-3.62h6.3a1.81 1.81 0 1 1 0 3.62zm19.34 0h-6.29a1.81 1.81 0 0 1 0-3.62h6.29a1.81 1.81 0 0 1 0 3.62zm19.34 0h-6.29a1.81 1.81 0 0 1 0-3.62h6.29a1.81 1.81 0 1 1 0 3.62zm19.35 0h-6.3a1.81 1.81 0 0 1 0-3.62h6.29a1.81 1.81 0 0 1 0 3.62zm19.34 0h-6.29a1.81 1.81 0 0 1 0-3.62h6.29a1.81 1.81 0 0 1 0 3.62z" transform="translate(.23 -2.34)"/><path class="cls-5" d="M45.84 97.21a5.3 5.3 0 0 1-3.76-1.56l-9.31-9.31a5.32 5.32 0 1 1 7.52-7.52l5.55 5.55 21.74-21.74a5.32 5.32 0 0 1 7.52 7.52l-25.5 25.5a5.3 5.3 0 0 1-3.76 1.56z" transform="translate(.23 -2.34)"/><path class="cls-8" d="M19.52 16.32h-3.36a2.59 2.59 0 0 1-2.59-2.59v-8.8a2.59 2.59 0 0 1 2.59-2.59h3.36a2.59 2.59 0 0 1 2.59 2.59v8.8a2.59 2.59 0 0 1-2.59 2.59zm24.17 0h-3.36a2.59 2.59 0 0 1-2.59-2.59v-8.8a2.59 2.59 0 0 1 2.59-2.59h3.36a2.59 2.59 0 0 1 2.59 2.59v8.8a2.59 2.59 0 0 1-2.59 2.59zm24.17 0H64.5a2.59 2.59 0 0 1-2.59-2.59v-8.8a2.59 2.59 0 0 1 2.59-2.59h3.36a2.59 2.59 0 0 1 2.59 2.59v8.8a2.59 2.59 0 0 1-2.59 2.59zm24.14 0h-3.33a2.59 2.59 0 0 1-2.59-2.59v-8.8a2.59 2.59 0 0 1 2.59-2.59H92a2.59 2.59 0 0 1 2.59 2.59v8.8A2.59 2.59 0 0 1 92 16.32z" transform="translate(.23 -2.34)"/><path class="cls-9" d="M119.77 95.71A22.21 22.21 0 1 1 97.55 73.5a22.21 22.21 0 0 1 22.22 22.21z" transform="translate(.23 -2.34)"/><path class="cls-3" d="M113.53 95.71a16 16 0 1 1-16-16 16 16 0 0 1 16 16z" transform="translate(.23 -2.34)"/><path class="cls-7" d="M97.55 86.46a1.81 1.81 0 0 1-1.81-1.81v-2.21a1.81 1.81 0 0 1 3.62 0v2.21a1.81 1.81 0 0 1-1.81 1.81zm0 24.33a1.81 1.81 0 0 1-1.81-1.79v-2.2a1.81 1.81 0 1 1 3.62 0v2.2a1.81 1.81 0 0 1-1.81 1.79zm13.27-13.27h-2.21a1.81 1.81 0 1 1 0-3.62h2.21a1.81 1.81 0 1 1 0 3.62z" transform="translate(.23 -2.34)"/><path class="cls-8" d="M101.54 97.52h-4a1.81 1.81 0 0 1-1.81-1.81V92a1.81 1.81 0 0 1 3.62 0v1.9h2.18a1.81 1.81 0 1 1 0 3.62z" transform="translate(.23 -2.34)"/><path class="cls-7" d="M86.49 97.52h-2.2a1.81 1.81 0 1 1 0-3.62h2.21a1.81 1.81 0 1 1 0 3.62z" transform="translate(.23 -2.34)"/></g></svg>