<svg id="Capa_1" data-name="Capa 1" xmlns="http://www.w3.org/2000/svg" viewBox="0 0 512 368"><defs><style>.cls-1{fill:#5d647f}.cls-2{fill:#ffd100}.cls-3{fill:#b8bac0}.cls-4{fill:#8a8895}.cls-5{fill:#ff4f19}.cls-6{fill:#ff9500}</style></defs><title>credit-card</title><path class="cls-1" d="M472 72H40a40 40 0 0 0-40 40v288a40 40 0 0 0 40 40h432a40 40 0 0 0 40-40V112a40 40 0 0 0-40-40z" transform="translate(0 -72)"/><path class="cls-2" d="M176 232H80a16 16 0 0 1-16-16v-64a16 16 0 0 1 16-16h96a16 16 0 0 1 16 16v64a16 16 0 0 1-16 16z" transform="translate(0 -72)"/><path class="cls-3" d="M120 336H80a16 16 0 0 1-16-16v-8a16 16 0 0 1 16-16h40a16 16 0 0 1 16 16v8a16 16 0 0 1-16 16zm104 0h-40a16 16 0 0 1-16-16v-8a16 16 0 0 1 16-16h40a16 16 0 0 1 16 16v8a16 16 0 0 1-16 16zm104 0h-40a16 16 0 0 1-16-16v-8a16 16 0 0 1 16-16h40a16 16 0 0 1 16 16v8a16 16 0 0 1-16 16zm104 0h-40a16 16 0 0 1-16-16v-8a16 16 0 0 1 16-16h40a16 16 0 0 1 16 16v8a16 16 0 0 1-16 16z" transform="translate(0 -72)"/><path class="cls-4" d="M232 384H72a8 8 0 0 1 0-16h160a8 8 0 0 1 0 16zm104 0h-72a8 8 0 0 1 0-16h72a8 8 0 0 1 0 16z" transform="translate(0 -72)"/><path class="cls-5" d="M368 216a48 48 0 1 1 0-64" transform="translate(0 -72)"/><path class="cls-6" d="M192 120h-80v-16h80V88h-80V64H96v96h16v-24h80v-16z"/><circle class="cls-2" cx="400" cy="112" r="48"/></svg>