<svg id="Layer_1" data-name="Layer 1" xmlns="http://www.w3.org/2000/svg" viewBox="0 0 50 50"><defs><style>.cls-1{fill:#ffd100}.cls-2{fill:#ff9500}.cls-3{fill:#fff}.cls-4{fill:#ff4f19}.cls-5{fill:#e7001e}</style></defs><title>discount-cart</title><path class="cls-1" d="M50 25c0 2.17-1.87 4.06-2.4 6.06s.11 4.64-.94 6.45S43 40 41.54 41.54s-2.2 4.05-4 5.12-4.38.39-6.45.94S27.17 50 25 50s-4.06-1.87-6.06-2.4-4.64.11-6.45-.94S10 43 8.46 41.54s-4.05-2.2-5.12-4-.34-4.42-.94-6.48S0 27.17 0 25s1.87-4.06 2.4-6.06-.11-4.64.94-6.45S7 10 8.46 8.46s2.2-4.05 4-5.12 4.42-.34 6.48-.94S22.83 0 25 0s4.06 1.87 6.06 2.4 4.64-.11 6.45.94S40 7 41.54 8.46s4.05 2.2 5.12 4 .39 4.38.94 6.45S50 22.83 50 25z"/><path class="cls-2" d="M8.46 8.46C7 10 4.41 10.66 3.35 12.5S3 16.88 2.4 18.94 0 22.83 0 25s1.87 4.06 2.4 6.06-.11 4.64.94 6.45S7 40 8.46 41.54s2.2 4.05 4 5.12 4.38.39 6.45.94S22.83 50 25 50s4.06-1.87 6.06-2.4 4.64.11 6.45-.94 2.54-3.63 4-5.12z"/><path class="cls-3" d="M25 42.74A17.74 17.74 0 1 0 7.26 25 17.74 17.74 0 0 0 25 42.74z"/><path class="cls-1" d="M25 42.74a17.69 17.69 0 0 0 12.55-5.2l-25.1-25.09A17.74 17.74 0 0 0 25 42.74z"/><path class="cls-4" d="M25 40.32A15.32 15.32 0 1 0 9.68 25 15.32 15.32 0 0 0 25 40.32z"/><path class="cls-5" d="M14.17 14.17a15.32 15.32 0 1 0 21.66 21.66z"/><path class="cls-3" d="M17.74 33.47a1.21 1.21 0 0 1-.86-2.07L31.4 16.89a1.21 1.21 0 0 1 1.71 1.71L18.6 33.11a1.21 1.21 0 0 1-.86.36zm2.42-8.87a4.44 4.44 0 1 1 4.44-4.44 4.44 4.44 0 0 1-4.44 4.44zm0-6.45a2 2 0 1 0 2 2 2 2 0 0 0-2-2zm9.68 16.12a4.44 4.44 0 1 1 4.44-4.44 4.44 4.44 0 0 1-4.44 4.44zm0-6.45a2 2 0 1 0 2 2 2 2 0 0 0-2-2z"/></svg>