<svg id="Layer_1" data-name="Layer 1" xmlns="http://www.w3.org/2000/svg" viewBox="0 0 30 30"><defs><style>.cls-1{fill:none}.cls-2{clip-path:url(#clip-path)}.cls-3{fill:#dc9f90}.cls-4{fill:#b35f49}</style><clipPath id="clip-path"><path class="cls-1" d="M0 0h30v30H0z"/></clipPath></defs><title>discount-footer</title><g class="cls-2"><path class="cls-3" d="M28.62 15l1.32-3.43a.94.94 0 0 0-.28-1.07L26.8 8.19l-.58-3.63a.94.94 0 0 0-.78-.78l-3.63-.58L19.5.35a.94.94 0 0 0-1.06-.29L15 1.38 11.57.06a.94.94 0 0 0-1.07.29L8.19 3.2l-3.63.58a.94.94 0 0 0-.78.78L3.2 8.19.35 10.51a.94.94 0 0 0-.28 1.06L1.38 15 .06 18.43a.94.94 0 0 0 .29 1.07l2.85 2.31.58 3.63a.94.94 0 0 0 .78.78l3.63.58 2.31 2.85a.93.93 0 0 0 1.06.28L15 28.62l3.43 1.32a.94.94 0 0 0 1.06-.29l2.31-2.85 3.63-.58a.94.94 0 0 0 .78-.78l.58-3.63 2.85-2.31a.94.94 0 0 0 .28-1.06z"/><path class="cls-4" d="M12.19 13.13A2.81 2.81 0 1 1 15 10.31a2.82 2.82 0 0 1-2.81 2.82zm0-3.75a.94.94 0 1 0 .94.94.94.94 0 0 0-.94-.94zm5.62 13.12a2.81 2.81 0 1 1 2.81-2.81 2.82 2.82 0 0 1-2.81 2.81zm0-3.75a.94.94 0 1 0 .94.94.94.94 0 0 0-.94-.94zm-7.5 3.75a.94.94 0 0 1-.76-1.5l9.38-13.11A.94.94 0 0 1 20.45 9l-9.37 13.11a.94.94 0 0 1-.77.39z"/></g></svg>