<svg id="Layer_1" data-name="Layer 1" xmlns="http://www.w3.org/2000/svg" viewBox="0 0 120 120"><defs><style>.cls-1{fill:#87ced9}.cls-2{fill:#71c4d1}.cls-3{fill:#5eb3d1}.cls-4{fill:#ff8a3d}.cls-5{fill:#fda72f}.cls-6{fill:#e34b87}.cls-7{fill:#4398d1}.cls-8{fill:#d94881}</style></defs><title>features-img</title><path class="cls-1" d="M8.28 12.41h89a8.28 8.28 0 0 1 8.28 8.28v91a8.28 8.28 0 0 1-8.32 8.31h-89A8.28 8.28 0 0 1 0 111.72v-91a8.28 8.28 0 0 1 8.28-8.31z"/><path class="cls-2" d="M70.34 120h26.9a8.28 8.28 0 0 0 8.28-8.28V55.86zm8.28-62.07h8.28l4.1 6.21L99.1 48l-5.64-4.07-7.26-1.16z"/><path class="cls-3" d="M10.34 18.62H6.21v4.14h4.14zm8.28 0h-4.14v4.14h4.14zm8.28 0h-4.14v4.14h4.14zm37.24 8.28H6.21V31h57.93z"/><path class="cls-4" d="M95.17 0l7.92 5.71 9.64 1.56 1.56 9.64 5.71 7.92-5.71 7.92-1.56 9.64-9.64 1.56-7.92 5.71-7.92-5.71-9.64-1.56-1.56-9.64-5.71-7.92 5.71-7.92 1.56-9.64 9.64-1.56z"/><path class="cls-5" d="M95.17 37.24a12.41 12.41 0 1 0-12.41-12.41 12.41 12.41 0 0 0 12.41 12.41z"/><path class="cls-6" d="M103.09 43.94L97.45 48l8.06 16.13 4.14-6.21h8.28l-7.58-15.16zM80 42.77l-7.59 15.16h8.28l4.14 6.21L92.89 48l-5.64-4.07z"/><path class="cls-4" d="M97.24 31H93.1v-7l-1.1.61-1.85-3.7 4.14-2.07a2.07 2.07 0 0 1 3 1.85z"/><path class="cls-6" d="M24.83 39.31H8.28v16.55h16.55z"/><path class="cls-3" d="M45.52 37.24H31v4.14h14.52zm20.69 8.28H31v4.14h35.21zm-16.56 8.27H31v4.14h18.65zm16.56 0H53.79v4.14h12.42z"/><path class="cls-7" d="M24.83 66.21H8.28v16.55h16.55z"/><path class="cls-3" d="M45.52 64.14H31v4.14h14.52zm33.1 8.27H31v4.14h47.62zm-28.97 8.28H31v4.14h18.65zm28.97 0H53.79v4.14h24.83z"/><path class="cls-5" d="M24.83 93.1H8.28v16.55h16.55z"/><path class="cls-3" d="M45.52 91H31v4.14h14.52zm33.1 8.31H31v4.14h47.62zm-28.97 8.28H31v4.14h18.65zm28.97 0H53.79v4.14h24.83z"/><path class="cls-8" d="M87.25 43.94L80 42.77l-2.52 5 7.36 1.84 4.83 4.83L92.89 48zm25.91 4.44l-2.81-5.62-7.26 1.18L97.45 48l2.8 5.59 5.26-3.95z"/></svg>