<svg id="Layer_1" data-name="Layer 1" xmlns="http://www.w3.org/2000/svg" viewBox="0 0 31.03 50"><defs><style>.cls-1{fill:#f0c419}.cls-2{fill:#e64c3c}.cls-3{fill:#ffe69f}</style></defs><title>gold-medal</title><path class="cls-1" d="M40.52 19.83A15.52 15.52 0 1 0 25 35.34a15.52 15.52 0 0 0 15.52-15.51z" transform="translate(-9.48)"/><path class="cls-2" d="M25 4.31a15.43 15.43 0 0 1 9.48 3.25V0h-19v7.56A15.43 15.43 0 0 1 25 4.31zm0 31.03a15.43 15.43 0 0 1-9.48-3.25V50L25 40.52 34.48 50V32.09A15.43 15.43 0 0 1 25 35.34z" transform="translate(-9.48)"/><path class="cls-3" d="M25 8.62l3.3 6.66 7 1.1-5 5.19 1.55 6.88-6.9-3-6.9 3 1.55-6.88-5-5.19 7-1.1z" transform="translate(-9.48)"/></svg>