<svg id="Layer_1" data-name="Layer 1" xmlns="http://www.w3.org/2000/svg" viewBox="0 0 15.83 20"><defs><style>.cls-1{fill:#2bf547}</style></defs><title>kettlebell</title><path class="cls-1" d="M13.77 11.69a.83.83 0 0 0-.83.83 2.07 2.07 0 0 1-.61 1.48.83.83 0 1 0 1.18 1.18 3.73 3.73 0 0 0 1.1-2.65.83.83 0 0 0-.84-.84z" transform="translate(-2.08)"/><path class="cls-1" d="M11.25 0h-2.5a5 5 0 0 0-5 5v2.24a7.92 7.92 0 1 0 12.5 0V5a5 5 0 0 0-5-5zM10 18.33A6.25 6.25 0 0 1 5.22 8.06L5.29 8v-.31a.76.76 0 0 0 0-.09V5a3.34 3.34 0 0 1 3.46-3.33h2.5A3.34 3.34 0 0 1 14.58 5v2.99A6.25 6.25 0 0 1 10 18.33z" transform="translate(-2.08)"/><path class="cls-1" d="M13.33 6.67V5.42a2.5 2.5 0 0 0-2.5-2.5H9.17a2.5 2.5 0 0 0-2.5 2.5v1.25a.83.83 0 0 0 .83.83h5a.83.83 0 0 0 .83-.83zm-1.67-.83H8.33v-.42a.83.83 0 0 1 .83-.83h1.67a.83.83 0 0 1 .83.83z" transform="translate(-2.08)"/></svg>