<svg id="Layer_1" data-name="Layer 1" xmlns="http://www.w3.org/2000/svg" viewBox="0 0 50 49.84"><defs><style>.cls-1{fill:none}.cls-2{clip-path:url(#clip-path)}.cls-3{fill:#ff7300}.cls-4{fill:#ff3c00}.cls-5{fill:#fff}</style><clipPath id="clip-path" transform="translate(0 -.08)"><path class="cls-1" d="M0 0h50v50H0z"/></clipPath></defs><title>new</title><g class="cls-2"><path class="cls-3" d="M49.92 22.59A1.58 1.58 0 0 0 48.69 21l-4.58-1.15 3.44-3.27a1.6 1.6 0 0 0 .25-2l-2.46-4.17a1.6 1.6 0 0 0-1.8-.74L39 11l1.31-4.58a1.55 1.55 0 0 0-.74-1.8l-4.22-2.41a1.72 1.72 0 0 0-2 .25l-3.24 3.43L29 1.31A1.58 1.58 0 0 0 27.41.08H22.5a1.58 1.58 0 0 0-1.55 1.23L19.8 5.89l-3.27-3.44a1.6 1.6 0 0 0-2-.25l-4.14 2.46a1.6 1.6 0 0 0-.74 1.8L11 11 6.38 9.74a1.55 1.55 0 0 0-1.8.74l-2.45 4.17a1.72 1.72 0 0 0 .25 2l3.44 3.27L1.23 21A1.58 1.58 0 0 0 0 22.59v4.83A1.58 1.58 0 0 0 1.23 29l4.58 1.15-3.44 3.24a1.6 1.6 0 0 0-.25 2l2.45 4.17a1.6 1.6 0 0 0 1.8.74L11 39l-1.34 4.54a1.55 1.55 0 0 0 .74 1.8l4.17 2.46a1.72 1.72 0 0 0 2-.25l3.27-3.44 1.15 4.58a1.58 1.58 0 0 0 1.55 1.23h4.91A1.58 1.58 0 0 0 29 48.69l1.15-4.58 3.27 3.44a1.6 1.6 0 0 0 2 .25l4.17-2.46a1.6 1.6 0 0 0 .74-1.8L39 39l4.58 1.31a1.55 1.55 0 0 0 1.8-.74l2.46-4.17a1.72 1.72 0 0 0-.25-2l-3.44-3.27L48.69 29a1.58 1.58 0 0 0 1.23-1.55z" transform="translate(0 -.08)"/><path class="cls-4" d="M11 11l28 28.12 4.58 1.31a1.55 1.55 0 0 0 1.8-.74l2.46-4.17a1.72 1.72 0 0 0-.25-2l-3.44-3.27 4.58-1.15A1.58 1.58 0 0 0 50 27.58v-4.83a1.58 1.58 0 0 0-1.23-1.55L44.19 20l3.44-3.27a1.6 1.6 0 0 0 .25-2l-2.46-4.17a1.6 1.6 0 0 0-1.8-.74L39 11.21l1.31-4.58a1.55 1.55 0 0 0-.74-1.8l-4.14-2.46a1.72 1.72 0 0 0-2 .25L30.2 6.06 29 1.31A1.58 1.58 0 0 0 27.41.08H22.5a1.58 1.58 0 0 0-1.55 1.23L19.8 5.89l-3.27-3.44a1.6 1.6 0 0 0-2-.25l-4.14 2.46a1.6 1.6 0 0 0-.74 1.8z" transform="translate(0 -.08)"/><path class="cls-4" d="M18.41 30.28l-5.48-9.66-1.8 10.56 17.76 17.76c0-.08 0-.08.08-.16l1.15-4.58 3.27 3.44a1.6 1.6 0 0 0 2 .25l4.17-2.45a1.6 1.6 0 0 0 .74-1.8L39 39l4.58 1.31a1.64 1.64 0 0 0 1.8-.74L23 20.29z" transform="translate(0 -.08)"/><path class="cls-5" d="M18.33 20.21H17.1a.35.35 0 0 0-.33.33v4.09c0 .9 0 1.72.08 2.54-.33-.57-.65-1.23-1.06-1.88l-3.19-5c-.08-.08-.16-.16-.25-.16H11a.35.35 0 0 0-.33.33v9.9a.35.35 0 0 0 .33.33h1.23a.35.35 0 0 0 .33-.33v-6.87a19.29 19.29 0 0 0 1.23 2l3.11 5c.08.08.16.16.25.16h1.31a.35.35 0 0 0 .33-.33v-9.78a.54.54 0 0 0-.46-.33zM26.1 29h-3.92v-2.9h3.52a.35.35 0 0 0 .33-.33v-1.06a.35.35 0 0 0-.33-.33h-3.52v-2.45h3.68a.35.35 0 0 0 .33-.33v-1.06a.35.35 0 0 0-.33-.33h-5.32a.35.35 0 0 0-.33.33v9.9a.35.35 0 0 0 .33.33h5.56a.35.35 0 0 0 .33-.33v-1.06a.37.37 0 0 0-.33-.38zm13.18-8.71c-.08-.08-.16-.16-.25-.16h-1.3c-.16 0-.25.08-.33.25l-1.31 5v.16a13.09 13.09 0 0 0-.41 1.72 18.42 18.42 0 0 0-.41-1.8l-1.23-5c0-.16-.16-.25-.33-.25h-1.3c-.16 0-.25.08-.33.25l-1.31 5c-.16.65-.33 1.31-.49 1.88-.16-.57-.25-1.23-.41-1.88l-1.15-5c0-.16-.16-.25-.33-.25h-1.3c-.08 0-.16.08-.25.16a.3.3 0 0 0-.08.25l2.54 9.9c0 .16.16.25.33.25h1.31c.16 0 .25-.08.33-.25l1.39-5.16a12 12 0 0 0 .41-1.64c.08.49.25 1 .33 1.64l1.23 5.16c0 .16.16.25.33.25h1.31c.16 0 .25-.08.33-.25l2.78-9.9a.49.49 0 0 0-.1-.33z" transform="translate(0 -.08)"/></g></svg>