<svg id="Layer_1" data-name="Layer 1" xmlns="http://www.w3.org/2000/svg" viewBox="0 0 50.21 60"><defs><style>.cls-1{fill:none}.cls-2{clip-path:url(#clip-path)}.cls-3{fill:#c69c6d}.cls-4{fill:#a67c52}.cls-5{fill:#f9a12b}.cls-6{fill:#bb7920}.cls-7{fill:#fab455}.cls-8{fill:#fff}.cls-9{fill:#3e424b}</style><clipPath id="clip-path" transform="translate(-4.89)"><path class="cls-1" d="M0 0h60v60H0z"/></clipPath></defs><title>nut</title><g class="cls-2"><path class="cls-3" d="M50.19 26.54h1.65a2.38 2.38 0 0 0 2.38-2.38A18.38 18.38 0 0 0 35.84 5.78h-.15A5.77 5.77 0 0 1 29.92.09V0a5.77 5.77 0 0 1-5.77 5.77A18.38 18.38 0 0 0 5.77 24.16a2.38 2.38 0 0 0 2.38 2.38h1.66" transform="translate(-4.89)"/><path class="cls-4" d="M13.14 24.16A18.38 18.38 0 0 1 31.52 5.78a5.75 5.75 0 0 0 2.09-.39 5.77 5.77 0 0 1-3.69-5.3V0a5.77 5.77 0 0 1-5.77 5.77A18.38 18.38 0 0 0 5.77 24.16a2.38 2.38 0 0 0 2.38 2.38h7.36a2.38 2.38 0 0 1-2.37-2.38z" transform="translate(-4.89)"/><path class="cls-4" d="M46.84 24.16A18.38 18.38 0 0 0 28.45 5.78a5.75 5.75 0 0 1-2.09-.39A5.77 5.77 0 0 0 30 .09V0a5.77 5.77 0 0 0 5.77 5.77A18.38 18.38 0 0 1 54.2 24.16a2.38 2.38 0 0 1-2.38 2.38h-7.37a2.38 2.38 0 0 0 2.39-2.38z" transform="translate(-4.89)"/><path class="cls-5" d="M30 59.12c0-2.72 1.65-4.13 4.16-5.19a25.77 25.77 0 0 0 15.77-23.65l-.1-4.89c0-5.26-8.91-9.52-19.9-9.52S10 20.13 10 25.39v4.89a25.77 25.77 0 0 0 15.79 23.65c2.51 1.06 4.14 2.47 4.16 5.19H30z" transform="translate(-4.89)"/><path class="cls-5" d="M30 59.12c0-2.72 1.65-4.13 4.16-5.19a25.77 25.77 0 0 0 15.77-23.65l-.1-4.89c0-5.26-8.91-9.52-19.9-9.52S10 20.13 10 25.39v4.89a25.77 25.77 0 0 0 15.79 23.65c2.51 1.06 4.14 2.47 4.16 5.19H30z" transform="translate(-4.89)"/><path class="cls-6" d="M49.82 25.39c0-5.26-8.91-9.52-19.9-9.52q-1.22 0-2.39.07c9.86.57 17.47 4.58 17.47 9.45l.1 4.89a25.77 25.77 0 0 1-15.71 23.65 11.1 11.1 0 0 0-1.8.94A4.78 4.78 0 0 1 30 59.12c0-2.72 1.65-4.13 4.16-5.19a25.77 25.77 0 0 0 15.77-23.65z" transform="translate(-4.89)"/><path class="cls-6" d="M10 25.39c0-5.26 8.91-9.52 19.9-9.52q1.22 0 2.39.07c-9.86.57-17.51 4.58-17.51 9.45l-.1 4.89A25.77 25.77 0 0 0 30.4 53.93a11.1 11.1 0 0 1 1.8.94 4.79 4.79 0 0 0-2.36 4.25h-.07c0-2.72-1.65-4.13-4.16-5.19A25.77 25.77 0 0 1 9.86 30.28z" transform="translate(-4.89)"/><path d="M30.89 60h-1.82v-.88c0-2-1.06-3.3-3.62-4.38A26.61 26.61 0 0 1 9.16 30.28v-4.89c0-2.9 2.25-5.58 6.33-7.53A34.35 34.35 0 0 1 29.92 15a34.35 34.35 0 0 1 14.45 2.87c4.08 1.95 6.32 4.62 6.33 7.51l.1 4.9a26.61 26.61 0 0 1-16.28 24.46c-2.56 1.08-3.61 2.35-3.62 4.38zm-1-43.25c-10.31 0-19 4-19 8.64v4.89a24.85 24.85 0 0 0 15.24 22.84A8 8 0 0 1 30 56a8 8 0 0 1 3.85-2.89A24.85 24.85 0 0 0 49 30.29l-.1-4.9c.04-4.68-8.67-8.64-18.98-8.64z" transform="translate(-4.89)"/><path class="cls-7" d="M32.31 55.38a2.31 2.31 0 1 0-4.61 0l2 1.53z" transform="translate(-4.89)"/><path class="cls-8" d="M43.57 41L42 40.32a24.72 24.72 0 0 0 2.15-10h1.76A26.47 26.47 0 0 1 43.57 41zm-3.91 6.3l-1.35-1.13a25 25 0 0 0 2.46-3.52l1.52.88a26.76 26.76 0 0 1-2.63 3.77z" transform="translate(-4.89)"/><path d="M49 17.07h-1.72v1.76H49zm1.8 1.76H49v1.77h1.8zm-3.52-5.28h-1.76v1.76h1.76zm-3.52-2.64H42v1.76h1.76zm-2.64 2.64h-1.76v1.76h1.76zM38.47 10h-1.76v1.76h1.76zm-2.64-1.73h-1.76V10h1.76zm-5.28-1.76h-1.76v1.76h1.76zM32.31 12h-1.76v1.76h1.76zM27 9.15h-1.73v1.76H27zm-1.73 2.64h-1.76v1.76h1.76zM20 10.91h-1.78v1.76H20zm2.63-2.64h-1.76V10h1.76z" transform="translate(-4.89)"/><path class="cls-9" d="M35.84 4.9h-.15A4.91 4.91 0 0 1 30.8.08V0H29a4.89 4.89 0 0 1-4.85 4.9A19.28 19.28 0 0 0 4.89 24.16a3.27 3.27 0 0 0 3.26 3.26h1v2.86a26.61 26.61 0 0 0 16.3 24.46c2.56 1.08 3.61 2.35 3.62 4.38V60h1.82v-.88c0-2 1.06-3.3 3.62-4.38a26.61 26.61 0 0 0 16.3-24.46l-.06-2.86h1.1a3.27 3.27 0 0 0 3.26-3.26A19.28 19.28 0 0 0 35.84 4.9zM30 56a5.82 5.82 0 0 0-1.2-1.36 1.42 1.42 0 0 1 2.43 0A5.83 5.83 0 0 0 30 56zm3.85-2.89c-.38.16-.77.34-1.15.54a3.18 3.18 0 0 0-5.37 0c-.39-.21-.79-.39-1.18-.56a24.85 24.85 0 0 1-15.23-22.81v-4.89c0-1.73 1.19-3.37 3.22-4.73v7h1.76v-8.03q.8-.4 1.7-.75v4.2h1.76v-4.82q.82-.26 1.7-.47v1.83h1.76v-2.21a39.13 39.13 0 0 1 14.39 0v2.19H39v-1.77q.88.22 1.7.48v4.77h1.76v-4.14q.9.36 1.7.77v8h1.76v-6.95c1.93 1.35 3.06 2.94 3.06 4.63l.1 4.9a24.85 24.85 0 0 1-15.25 22.83zm18-27.45h-1.14v-.28a5.61 5.61 0 0 0-.15-1.26h1.13v-1.76h-1.77v.14a12.11 12.11 0 0 0-5.55-4.63A34.35 34.35 0 0 0 29.92 15a34.35 34.35 0 0 0-14.45 2.87A12.3 12.3 0 0 0 10 22.36H8.54v1.76h.75a5.6 5.6 0 0 0-.15 1.28v.27h-1a1.51 1.51 0 0 1-1.5-1.5 17.46 17.46 0 0 1 .57-4.44h1.33V18h-.75a17.37 17.37 0 0 1 .74-1.68V18h1.77v-1.81H8.58a17.52 17.52 0 0 1 15.57-9.53 6.65 6.65 0 0 0 5.77-3.35 6.67 6.67 0 0 0 5.76 3.35h.15a17.52 17.52 0 0 1 17.5 17.5 1.51 1.51 0 0 1-1.49 1.5z" transform="translate(-4.89)"/><path d="M14.7 12.67h-1.76v1.76h1.76zm1.76 2.64H14.7v1.76h1.76zm.88-6.16h-1.76v1.76h1.76z" transform="translate(-4.89)"/></g></svg>