<svg id="Layer_1" data-name="Layer 1" xmlns="http://www.w3.org/2000/svg" viewBox="0 0 120 120"><defs><style>.cls-1{fill:#f5cf51}.cls-2{fill:#d58a2d}.cls-3{fill:#e2902a}.cls-4{fill:#bb5335}.cls-5{fill:#d25e3e}.cls-6{fill:#e5846a}.cls-7{fill:#fae8b1}.cls-8{fill:#fbf1d1}.cls-9{fill:#a0452c}</style></defs><title>nuts</title><path class="cls-1" d="M120 60A60 60 0 1 1 60 0a60 60 0 0 1 60 60z"/><path class="cls-2" d="M46.66 51.83l-.69.68C24 73.71-3.4 46.27 17.8 24.35l.68-.69c12.9-12.9 29.7-17.58 40.08-11.91 5.67 10.38.99 27.18-11.9 40.08z"/><path class="cls-3" d="M46.66 51.83l-.69.68a26.85 26.85 0 0 1-11.64 6.93 18.79 18.79 0 0 1-4-1.64 2.18 2.18 0 0 1 .26-3.94 48.12 48.12 0 0 0 11.81-7.17C51 39.8 56.14 31.94 53.89 29.13a2.25 2.25 0 0 0-.23-.25C51 33 46 38.24 39.69 43.29a79.78 79.78 0 0 1-13.39 8.84 2.18 2.18 0 0 1-2.83-.77l-.14-.22a2.18 2.18 0 0 1 .67-2.93 85 85 0 0 0 11-9.52c6.8-6.87 11.62-13.17 10.71-14.09s-7.22 3.91-14.09 10.77c-2.84 2.84-5.33 5.59-7.21 7.9A2.18 2.18 0 0 1 20.54 42v-.06a2.19 2.19 0 0 1 .31-1.21 88.52 88.52 0 0 1 6.71-9.55c5.06-6.32 10.33-11.32 14.41-14a2.09 2.09 0 0 0-.25-.23 2.74 2.74 0 0 0-1.9-.52.6.6 0 0 1-.35-1.11 42.41 42.41 0 0 1 14-5.44 18.88 18.88 0 0 1 5.12 1.87c5.64 10.38.96 27.18-11.93 40.08z"/><path class="cls-4" d="M25 75.35l.53-.52c16.9-16.07 47.56 14.6 31.47 31.48l-.52.53c-9.85 9.85-24.83 11.28-35.6 4.11-7.15-10.77-5.72-25.75 4.12-35.6z"/><path class="cls-5" d="M38.46 72.36l.79-.77q.5-.48 1-.91C55.09 73.59 69 93.76 57 106.31l-.52.53a28.62 28.62 0 0 1-30.87 6.61c-3.52-13.17.96-29.21 12.85-41.09z"/><path class="cls-6" d="M51.83 91.46a14.74 14.74 0 0 1-12.2.76A14.74 14.74 0 0 1 40.4 80c-4.76-1.35-8.52-4.46-10.08-8.37C45.83 64.83 67 86 60.24 101.53c-3.95-1.53-7.06-5.31-8.41-10.07z"/><path class="cls-7" d="M109.84 65.31a8.25 8.25 0 0 1 4.94 14l-.1.1c-11 11-30.3 9.48-43.09-3.31S57.31 43.94 68.28 33l.1-.1a8.25 8.25 0 0 1 14 4.94 31.14 31.14 0 0 0 9.14 18.36 31.14 31.14 0 0 0 18.32 9.11z"/><path class="cls-8" d="M116.9 75.52c-11.12 5.73-26.35 2.93-37-7.74s-13.48-25.9-7.74-37a8.24 8.24 0 0 1 4.74.22 8.16 8.16 0 0 1 5.44 6.82 31.15 31.15 0 0 0 9.14 18.36 31.15 31.15 0 0 0 18.36 9.14 8.16 8.16 0 0 1 6.82 5.44 8.25 8.25 0 0 1 .24 4.76zM8.83 65c-1 1.9-.38 4.6 1.58 6.55s4.66 2.54 6.55 1.58c1-1.9.38-4.6-1.58-6.55S10.72 64 8.83 65zm89.58-25.18c2-2 2.54-4.66 1.58-6.55-1.9-1-4.59-.38-6.55 1.58s-2.54 4.65-1.58 6.55c1.9.96 4.6.37 6.55-1.58z"/><path class="cls-9" d="M84.35 105.44c-2 2-4.66 2.54-6.55 1.58-1-1.9-.38-4.6 1.58-6.55s4.65-2.54 6.55-1.58c.96 1.9.38 4.6-1.58 6.55zM81.58 23c1-1.9.38-4.6-1.58-6.55s-4.66-2.54-6.55-1.58c-1 1.9-.38 4.59 1.58 6.55s4.65 2.53 6.55 1.58zM47.33 59.38c-1 1.9-.38 4.6 1.58 6.55s4.66 2.54 6.55 1.58c1-1.9.38-4.6-1.58-6.55s-4.65-2.54-6.55-1.58z"/></svg>