<svg id="Capa_1" data-name="Capa 1" xmlns="http://www.w3.org/2000/svg" viewBox="0 0 58.39 58"><defs><style>.cls-1{fill:#ecf0f1}.cls-2{fill:#545e73}.cls-3{fill:#8697cb}.cls-4{fill:#b1d3ef}.cls-5{fill:#fff}</style></defs><title>signs</title><circle class="cls-1" cx="29" cy="29" r="29"/><path class="cls-2" d="M29 4.2a25 25 0 1 1-25 25 25 25 0 0 1 25-25m0-4a29 29 0 1 0 29 29 29 29 0 0 0-29-29z" transform="translate(0 -.19)"/><path class="cls-3" d="M29 6.07a1 1 0 0 0-1 1v1a1 1 0 0 0 2 0v-1a1 1 0 0 0-1-1zm0 43a1 1 0 0 0-1 1v1a1 1 0 1 0 2 0v-1a1 1 0 0 0-1-1zm22-21h-1a1 1 0 0 0 0 2h1a1 1 0 0 0 0-2zm-43 0H7a1 1 0 1 0 0 2h1a1 1 0 0 0 0-2zm35.85-15.26l-.71.71a1 1 0 1 0 1.41 1.41l.71-.71a1 1 0 1 0-1.41-1.41zM13.44 43.22l-.71.71a1 1 0 1 0 1.41 1.41l.71-.71a1 1 0 1 0-1.41-1.41zm31.12 0a1 1 0 1 0-1.41 1.41l.71.71a1 1 0 1 0 1.41-1.41zM14.15 12.81a1 1 0 0 0-1.41 1.41l.71.71a1 1 0 0 0 1.41-1.41z" transform="translate(0 -.19)"/><path class="cls-2" d="M26 30.07h-8a1 1 0 0 1 0-2h8a1 1 0 0 1 0 2zm3-3a1 1 0 0 1-1-1v-11a1 1 0 1 1 2 0v11a1 1 0 0 1-1 1z" transform="translate(0 -.19)"/><path class="cls-2" d="M29 33.07a4 4 0 1 1 4-4 4 4 0 0 1-4 4zm0-6a2 2 0 1 0 2 2 2 2 0 0 0-2-2z" transform="translate(0 -.19)"/><circle class="cls-4" cx="47.39" cy="47" r="11"/><path class="cls-5" d="M53.39 46.19h-5v-5a1 1 0 0 0-2 0v6a1 1 0 0 0 1 1h6a1 1 0 0 0 0-2z" transform="translate(0 -.19)"/></svg>