<svg id="Capa_1" data-name="Capa 1" xmlns="http://www.w3.org/2000/svg" viewBox="0 0 455.73 455.73"><defs><style>.cls-1{fill:#44678d}.cls-2{fill:#fff}</style></defs><title>vk</title><path class="cls-1" d="M0 0h455.73v455.73H0z"/><path class="cls-2" d="M118.06 138.69c10.92 27 24.76 52.4 43 75.23a40.15 40.15 0 0 0 8.68 7.94c4.69 3.22 9.12 2.09 11-3.28 2-5.63 3.87-17 4-23 .3-15.45 0-25.57-.87-41-.54-9.88-4.05-18.56-18.59-21.18-4.49-.81-4.91-4.51-2-8.19 6-7.67 14.37-8.9 23.44-9.38 14.7-.79 29.45-.15 44.17 0a87.91 87.91 0 0 1 17.93 1.82c7.7 1.68 11.83 7.08 13.09 14.6a62.25 62.25 0 0 1 .9 11.79c-.38 16.86-1.2 33.71-1.39 50.57a88.08 88.08 0 0 0 1.82 19.84c2 9 8.09 11.23 14.34 4.74a219.73 219.73 0 0 0 21.51-26.93c11.93-17.13 20.85-35.92 28.52-55.3 4-10 7-12.17 17.77-12.2q30.33-.07 60.66 0a36.43 36.43 0 0 1 10.72 1.43c5.49 1.75 7.67 6.23 6.39 11.92-3 13.32-10.2 24.65-17.91 35.53-12.37 17.46-25.34 34.51-38 51.77a65.12 65.12 0 0 0-4.36 6.93c-4.74 8.56-4.41 13.36 2.5 20.48 11 11.34 22.77 22 33.41 33.61a198.12 198.12 0 0 1 21 27.36c7.76 12.24 3 23.78-11.52 25.83-9.11 1.29-53.64 0-55.94 0a43.59 43.59 0 0 1-30.91-12.34c-9.4-9.05-17.94-19-27-28.42a75.33 75.33 0 0 0-8.75-8c-7.38-5.63-14.63-4.38-18.08 4.29-2.95 7.45-5.49 27-5.61 28.67-.62 8.73-6.18 14.3-16 14.84-28.24 1.53-55.6-1.61-81.1-15.27-21.61-11.57-38.86-27.93-53.81-47-23.74-30.3-42.5-63.62-59.62-97.9-.87-1.75-18.22-38.65-18.68-40.4-1.55-5.84-.1-11.41 4.83-13.33 3.07-1.2 60.25 0 61.2 0 9.2.61 15.42 4.46 19.26 13.93z"/></svg>