<svg data-name="Layer 1" xmlns="http://www.w3.org/2000/svg" viewBox="0 0 25 20.5"><title>book2</title><g class="cls-2"><path class="cls-3" d="M22.77 17.86V0l-.68.06A26.2 26.2 0 0 0 14.15 2l-1.2.5v17.78l.87-.36a27.26 27.26 0 0 1 8.21-2z"/><path class="cls-3" d="M25 2.64h-1.34v15.63a.45.45 0 0 1-.41.45l-1.14.05-1 .1h-.32l-.66.09-.38.07-.59.11-.4.09-.56.12-.42.1-.54.14-.42.12-.53.16-.41.13-.53.18-.4.15-.18.07H25zM2.91.06L2.23 0v17.86l.79.07a27.07 27.07 0 0 1 8.21 2l.82.34V2.49l-1.2-.5A26.2 26.2 0 0 0 2.91.06z"/><path class="cls-3" d="M0 2.64V20.5h10.24l-.17-.07-.39-.14-.55-.19-.4-.13-.53-.2-.4-.12-.55-.15-.4-.1-.56-.13-.4-.09-.59-.11-.38-.07-.65-.09h-.33l-1-.1-1.2-.1a.45.45 0 0 1-.41-.45V2.64z"/></g></svg>