<svg data-name="Layer 1" xmlns="http://www.w3.org/2000/svg" viewBox="0 0 100 100"><title>book</title><path class="cls-1" d="M52.41 34.26a2.57 2.57 0 0 0-2.56-2.56h-5.5a2.57 2.57 0 0 0-2.56 2.56v4.57H37.2a2.57 2.57 0 0 0-2.56 2.56v5.48a2.57 2.57 0 0 0 2.56 2.56h4.58V54a2.57 2.57 0 0 0 2.56 2.56h5.5A2.57 2.57 0 0 0 52.41 54v-4.58H57a2.57 2.57 0 0 0 2.56-2.56v-5.48A2.57 2.57 0 0 0 57 38.82h-4.59zm4.22 7.49v4.74h-5.68A1.46 1.46 0 0 0 49.48 48v5.66h-4.76V48a1.46 1.46 0 0 0-1.46-1.46h-5.69v-4.79h5.68a1.46 1.46 0 0 0 1.46-1.46v-5.67h4.77v5.66a1.46 1.46 0 0 0 1.46 1.46z"/><path class="cls-1" d="M47.1 63.6a19.47 19.47 0 0 0 14.24-32.8 1.46 1.46 0 1 0-2.13 2 16.58 16.58 0 1 1-5.12-3.69 1.465 1.465 0 1 0 1.23-2.66A19.49 19.49 0 1 0 47.1 63.6z"/><path class="cls-1" d="M96.7 24.22l3-5.43a2.44 2.44 0 0 0-2.14-3.62h-11v-2.31a1.46 1.46 0 0 0-.26-.85l-3.21-4.86 2.24-3.35a2.44 2.44 0 0 0-2-3.8h-78A5.27 5.27 0 0 0 0 5.26v89.48A5.27 5.27 0 0 0 5.27 100h76a5.38 5.38 0 0 0 5.37-5.37V33.26h11a2.44 2.44 0 0 0 2.14-3.62zM7.61 97.07H5.27a2.34 2.34 0 0 1-2.34-2.33V14.31h4.68zM2.93 11.38V5.26a2.34 2.34 0 0 1 2.34-2.33h77.12l-1.85 2.76H16.68a1.465 1.465 0 1 0 0 2.93h63.86l1.84 2.76H2.93zm83.67 19v-4.27a1.465 1.465 0 0 0-2.93 0v68.52a2.44 2.44 0 0 1-2.44 2.44H10.54V14.31h73.13v6.12a1.465 1.465 0 1 0 2.93 0V18.1h10.13l-3 5.41a1.46 1.46 0 0 0 0 1.42l3 5.41z"/><path class="cls-1" d="M69.92 73.94H24.28a1.465 1.465 0 0 0 0 2.93h45.64a1.465 1.465 0 0 0 0-2.93zM61 79.63H33.16a1.465 1.465 0 1 0 0 2.93H61a1.465 1.465 0 1 0 0-2.93zm-12 9.48h-3.8a1.465 1.465 0 1 0 0 2.93H49a1.465 1.465 0 1 0 0-2.93z"/></svg>