<svg viewBox="0 0 30 30" xmlns="http://www.w3.org/2000/svg"><g clip-path="url(#clip0)" fill="#fff"><path d="M7.606 10.169h-3.05a.508.508 0 0 0-.51.508v3.051c0 .28.228.508.51.508h3.05c.28 0 .508-.227.508-.508v-3.05a.508.508 0 0 0-.508-.51zm-.509 3.05H5.064v-2.033h2.033v2.034zm5.593-3.05H9.64a.508.508 0 0 0-.509.508v3.051c0 .28.228.508.509.508h3.05a.508.508 0 0 0 .509-.508v-3.05a.508.508 0 0 0-.508-.51zm-.508 3.05h-2.034v-2.033h2.034v2.034zm5.593-3.05h-3.051a.509.509 0 0 0-.509.508v3.051c0 .28.228.508.509.508h3.05a.508.508 0 0 0 .509-.508v-3.05a.508.508 0 0 0-.508-.51zm-.509 3.05h-2.034v-2.033h2.034v2.034zm2.543 1.017h3.05a.508.508 0 0 0 .509-.508v-3.05a.508.508 0 0 0-.509-.51h-3.05a.508.508 0 0 0-.509.51v3.05c0 .28.228.508.509.508zm.508-3.05h2.034v2.034h-2.034v-2.034zM7.606 15.253h-3.05a.508.508 0 0 0-.51.509v3.05c0 .281.228.51.51.51h3.05a.51.51 0 0 0 .508-.51v-3.05a.508.508 0 0 0-.508-.509zm-.509 3.051H5.064V16.27h2.033v2.034zm5.593-3.051H9.64a.509.509 0 0 0-.509.509v3.05c0 .281.228.51.509.51h3.05a.51.51 0 0 0 .509-.51v-3.05a.509.509 0 0 0-.508-.509zm-.508 3.051h-2.034V16.27h2.034v2.034zm5.593-3.051h-3.051a.509.509 0 0 0-.509.509v3.05c0 .281.228.51.509.51h3.05a.51.51 0 0 0 .509-.51v-3.05a.509.509 0 0 0-.508-.509zm-.509 3.051h-2.034V16.27h2.034v2.034zm2.543 1.017h3.05a.51.51 0 0 0 .509-.509v-3.05a.509.509 0 0 0-.509-.509h-3.05a.508.508 0 0 0-.509.509v3.05c0 .281.228.51.509.51zm.508-3.05h2.034v2.033h-2.034V16.27zM7.606 20.338h-3.05a.508.508 0 0 0-.51.508v3.051c0 .28.228.508.51.508h3.05c.28 0 .508-.227.508-.508v-3.05a.508.508 0 0 0-.508-.51zm-.509 3.05H5.064v-2.033h2.033v2.033zm5.593-3.05H9.64a.508.508 0 0 0-.509.508v3.051c0 .28.228.508.509.508h3.05a.508.508 0 0 0 .509-.508v-3.05a.508.508 0 0 0-.508-.51zm-.508 3.05h-2.034v-2.033h2.034v2.033zm5.593-3.05h-3.051a.508.508 0 0 0-.509.508v3.051c0 .28.228.508.509.508h3.05a.508.508 0 0 0 .509-.508v-3.05a.508.508 0 0 0-.508-.51zm-.509 3.05h-2.034v-2.033h2.034v2.033z"/><path d="M26.419 20.517V2.542a.508.508 0 0 0-.51-.508h-2.541v-.509a1.525 1.525 0 0 0-3.05 0v.509H19.3v-.509a1.525 1.525 0 0 0-3.05 0v.509h-1.018v-.509a1.525 1.525 0 1 0-3.05 0v.509h-1.017v-.509a1.525 1.525 0 0 0-3.05 0v.509H7.096v-.509a1.525 1.525 0 1 0-3.05 0v.509H1.504a.508.508 0 0 0-.508.508v24.406c0 .28.228.508.508.508H19.48a5.08 5.08 0 1 0 6.939-6.939zM21.334 1.525a.508.508 0 1 1 1.017 0V3.56a.508.508 0 1 1-1.017 0V1.525zm-4.068 0a.508.508 0 0 1 1.017 0V3.56a.509.509 0 1 1-1.017 0V1.525zm-4.067 0a.508.508 0 1 1 1.017 0V3.56a.508.508 0 1 1-1.017 0V1.525zm-4.068 0a.508.508 0 0 1 1.017 0V3.56a.509.509 0 0 1-1.017 0V1.525zm-4.067 0a.508.508 0 1 1 1.016 0V3.56a.508.508 0 1 1-1.016 0V1.525zM2.013 3.051h2.034v.508a1.525 1.525 0 1 0 3.05 0v-.508h1.017v.508a1.525 1.525 0 1 0 3.051 0v-.508h1.017v.508a1.525 1.525 0 1 0 3.05 0v-.508h1.018v.508a1.525 1.525 0 0 0 3.05 0v-.508h1.017v.508a1.525 1.525 0 1 0 3.05 0v-.508h2.034v4.067H2.013V3.051zm0 23.388V8.135h23.388v11.929a5.085 5.085 0 0 0-6.375 6.375H2.013zm21.863 2.543a4.068 4.068 0 1 1 0-8.136 4.068 4.068 0 0 1 0 8.136z"/><path d="M25.592 22.991l-2.186 1.75-1.203-1.204a.509.509 0 0 0-.72.72l1.526 1.525c.183.183.475.2.677.038l2.542-2.034a.509.509 0 1 0-.635-.795z"/></g></svg>