<svg data-name="Layer 1" xmlns="http://www.w3.org/2000/svg" viewBox="0 0 20.32 30"><title>clinic-history</title><path class="cls-1" d="M16.94 4.35V2.91h-3.42a3.39 3.39 0 0 0-6.71 0H3.39v1.45H0V30h20.32V4.35zM4.36 3.87h3.38v-.49a2.42 2.42 0 1 1 4.84 0v.48h3.39v2.43H4.36zM.97 5.32h2.42v1.94h13.55V5.32h2.42v6.77H17.1l-2.06 2.79-1.56-5.43-2.7 4.41L9.84 11l-2.68 3.81L5.7 8.44l-2.35 3.65H.97zM19.36 29H.97V13h2.9l1.39-2.15 1.39 6.21 2.88-4 1 3 2.63-4.23 1.5 5.17 2.94-4h1.76z"/><path class="cls-1" d="M17.42 18.87H2.91v1h14.51zm0 3.39H2.91v1h14.51zm-7.74 3.39H2.91v1h6.77zm7.74 0h-1v1h1zm-1.94 0h-1v1h1zm-1.93 0h-1v1h1z"/></svg>