<svg data-name="Layer 1" xmlns="http://www.w3.org/2000/svg" viewBox="0 0 30 30"><title>hospital</title><path class="cls-1" d="M26.13 29V6.77h-7.26V0h-7.74v6.77H3.87V29H0v1h12.58v-7.74h4.84V30H30v-1zM12.09 1h5.81v5.77h-5.81zm13.07 28h-6.77v-7.71h-6.78V29H4.84V7.74h20.32z"/><path class="cls-1" d="M15.48 3.39V1.94h-1v1.45h-1.42v1h1.45v1.42h1V4.35h1.45v-1zm-9.19 5.8v3.87h3.87V9.19zM9.2 12.1H7.26v-1.94H9.2zm10.64-2.91v3.87h3.86V9.19zm2.91 2.91H20.8v-1.94h1.94zm-9.69-2.91v3.87h3.87V9.19zM16 12.1h-2v-1.94h2zM6.29 16v3.87h3.87V16zm2.91 2.87H7.26v-1.93H9.2zM19.84 16v3.87h3.86V16zm2.91 2.91H20.8v-1.97h1.94zM13.06 16v3.87h3.87V16zM16 18.87h-2v-1.93h2zm-9.71 3.87v3.87h3.87v-3.87zm2.91 2.91H7.26v-1.94H9.2zm10.64-2.91v3.87h3.86v-3.87zm2.91 2.91H20.8v-1.94h1.94z"/></svg>