<svg data-name="Layer 1" xmlns="http://www.w3.org/2000/svg" viewBox="0 0 93.33 100"><title>notepad</title><path class="cls-1" d="M21.67 31.67h15a1.67 1.67 0 0 0 0-3.33h-15a1.67 1.67 0 1 0 0 3.33zm0 11.66H30A1.67 1.67 0 1 0 30 40h-8.33a1.67 1.67 0 1 0 0 3.33zm21.67 0H55A1.67 1.67 0 1 0 55 40H43.34a1.67 1.67 0 1 0 0 3.33zm-5.49-.48a1.67 1.67 0 1 0-2.37 0 1.65 1.65 0 0 0 1.18.48 1.75 1.75 0 0 0 1.19-.48zm23.82.48a1.72 1.72 0 0 0 1.18-.48 1.67 1.67 0 1 0-2.37 0 1.65 1.65 0 0 0 1.19.48zm-35 10A1.67 1.67 0 0 0 28.34 55H40a1.67 1.67 0 0 0 0-3.33H28.34a1.67 1.67 0 0 0-1.67 1.66zm-3.82 1.19a1.69 1.69 0 0 0 0-2.37 1.75 1.75 0 0 0-2.37 0 1.64 1.64 0 0 0-.48 1.18 1.67 1.67 0 0 0 2.85 1.18zm8.03 7.37c-3.65 1.9-4.88 5.53-5.33 9.3l-2.07-1.73c-1.63-1.37-4 1-2.36 2.36l4.68 3.92a1.69 1.69 0 0 0 2.85-1.18c.12-3.61.29-7.9 3.91-9.79 1.91-.99.22-3.87-1.68-2.88zm11.08 6.65c-2.31.53-4.94 3.47-6.56.18-.95-1.92-3.82-.24-2.88 1.68a5.77 5.77 0 0 0 4.45 3.22 5.57 5.57 0 0 0 2.81-.38c.68-.26 3.23-2.18 3.78-1.19 1 1.87 3.93.19 2.88-1.68a4 4 0 0 0-4.48-1.83z"/><path class="cls-1" d="M88.36 0h-6.71a5 5 0 0 0-4.68 3.33h-27V1.67A1.67 1.67 0 0 0 48.34 0h-15a1.67 1.67 0 0 0-1.67 1.67v1.66H0V100h81.67v-7.47l1.67 2.92v2.89a1.67 1.67 0 1 0 3.33 0v-2.9l6.67-11.67V5a5 5 0 0 0-4.98-5zM80 15h10v3.33H80zM46.67 3.33v5H35v-5zm-15 3.33v5H50v-5h8.33v6.67h-35V6.67zm-10 10h40V15H70v73.33H11.67V15H20v1.67zm56.67 80h-75v-90H20v5H8.34v80h65v-80H61.67v-5h15v77.12l1.67 2.92zM81.17 85h7.59l-3.79 6.64-3.3-5.83zm8.8-3.33h-10v-60h10zm-10-70V5a1.64 1.64 0 0 1 1.64-1.64h6.72A1.64 1.64 0 0 1 90 5v6.69z"/></svg>