<svg data-name="Layer 1" xmlns="http://www.w3.org/2000/svg" viewBox="0 0 21.3 30"><title>placeholder</title><path class="cls-1" d="M10.65 3.87a6.77 6.77 0 1 0 6.77 6.77 6.78 6.78 0 0 0-6.77-6.77zm0 12.58a5.81 5.81 0 1 1 5.81-5.81 5.81 5.81 0 0 1-5.81 5.81z"/><path class="cls-1" d="M10.65 0A10.66 10.66 0 0 0 0 10.65c0 6.77 10.65 17.13 10.65 17.13S21.3 17.28 21.3 10.64A10.66 10.66 0 0 0 10.65 0zm0 26.4C8.89 24.57.97 16 .97 10.65a9.68 9.68 0 0 1 19.36 0c0 5.35-7.92 13.92-9.68 15.75z"/><path class="cls-1" d="M15.3 24.56l-.59.77a1.75 1.75 0 0 1 .78 1.29c0 1.31-2.21 2.38-4.84 2.38s-4.84-1.11-4.84-2.42a1.75 1.75 0 0 1 .78-1.29L6 24.52a2.62 2.62 0 0 0-1.16 2C4.85 28.51 7.4 30 10.65 30s5.81-1.49 5.81-3.39a2.63 2.63 0 0 0-1.16-2.05zM12.1 9.19V6.77H9.2v2.42H6.78v2.91H9.2v2.42h2.91v-2.43h2.42v-2.9zm1.45 1.94h-2.42v2.42h-1v-2.42H7.74v-1h2.42V7.74h1v2.42h2.42zm-2.42 7.74h-1v1h1zm0 1.94h-1v1h1zm0 1.93h-1v1h1z"/></svg>