<svg data-name="Layer 1" xmlns="http://www.w3.org/2000/svg" viewBox="0 0 62.48 100"><title>student</title><g class="cls-2"><path class="cls-3" d="M26.36 39.13a1.49 1.49 0 0 0-1.81-1.07l-6.74 1.72a1.49 1.49 0 1 0 .73 2.88l6.74-1.72a1.49 1.49 0 0 0 1.08-1.81zm10.83 1.81l6.74 1.72a1.46 1.46 0 0 0 .37 0 1.49 1.49 0 0 0 .37-2.93l-6.74-1.72a1.49 1.49 0 1 0-.73 2.88zM20.9 46v1.65a1.5 1.5 0 1 0 3 0V46a1.5 1.5 0 1 0-3 0zm19.19-1.51A1.49 1.49 0 0 0 38.61 46v1.65a1.5 1.5 0 0 0 3 0V46a1.49 1.49 0 0 0-1.52-1.51zm-8.85 10.63a4.83 4.83 0 0 0 3.43-1.42 1.49 1.49 0 1 0-2.1-2.1 1.88 1.88 0 0 1-2.65 0 1.49 1.49 0 0 0-2.1 2.1 4.83 4.83 0 0 0 3.42 1.42zm-1.49 6.15c-5.07-.56-6.25-3.93-6.31-4.11a1.49 1.49 0 0 0-2.84.87c.07.22 1.71 5.41 8.83 6.19h.16a1.502 1.502 0 0 0 .16-3z"/><path class="cls-3" d="M48.43 67.44A24.41 24.41 0 0 0 52.54 62a5 5 0 0 0 1.4.2c4.52 0 8.53-5.66 8.53-10.12a8.34 8.34 0 0 0-2.34-6V26.12a22.36 22.36 0 0 0-3.91-12.66 1.494 1.494 0 0 0-2.47 1.68 19.39 19.39 0 0 1 3.39 11v18.13a7.6 7.6 0 0 0-1.59-.27v-9.78a1.5 1.5 0 0 0-3 0v1.61c-5.8-.39-26.8-2.58-37.51-14.27a1.51 1.51 0 0 0-.43-.32 1.49 1.49 0 0 0-1.79.36 24.3 24.3 0 0 0-5.89 15.86V44a7.62 7.62 0 0 0-1.26.19V19.76A5 5 0 0 1 12.1 15a1.49 1.49 0 0 0 1.86-1 15.79 15.79 0 0 1 20.79-9.93l10 3.93a19.42 19.42 0 0 1 5.08 2.94 1.51 1.51 0 0 0 1.92-2.33 22.39 22.39 0 0 0-5.86-3.39l-10-3.91a18.77 18.77 0 0 0-24.32 10.57 7.94 7.94 0 0 0-8.82 7.88v25.93a8.23 8.23 0 0 0-2.7 6.36c0 4.46 4 10.12 8.53 10.12A5 5 0 0 0 9.95 62a24.44 24.44 0 0 0 13.26 11.19v5.48l-7.31 4.24a1.49 1.49 0 1 0 1.49 2.57l1.5-.87 1.7 8.49a1.49 1.49 0 0 0 2.34.91L29.75 89v9.5a1.5 1.5 0 0 0 3 0V89l6.82 5a1.49 1.49 0 0 0 2.34-.91l1.7-8.49 8.64 5 2.42 9.26a1.49 1.49 0 0 0 1.41 1.14 1.5 1.5 0 0 0 .38 0 1.49 1.49 0 0 0 1.06-1.81l-2.58-9.86a1.48 1.48 0 0 0-.69-.91l-15-8.69V73.2a24.2 24.2 0 0 0 9.18-5.76zM59.5 52.05c0 3-2.88 7.14-5.56 7.14h-.09a24.09 24.09 0 0 0 1.05-3.37c.33-1.17 1.22-3.07 2.17-3.07a1.5 1.5 0 0 0 0-3 3.78 3.78 0 0 0-1.53.32V47c2 .23 3.96 1.84 3.96 5.05zm-51 7.14c-2.68 0-5.56-4.19-5.56-7.14 0-3.21 2-4.82 4-5.08v3.12a3.78 3.78 0 0 0-1.53-.32 1.5 1.5 0 1 0 0 3c1 0 2 2.16 2.23 3.32a24.22 24.22 0 0 0 1 3.09zm1.37-8.95V37.46a21.33 21.33 0 0 1 4.18-12.65c5.63 5.49 13.86 9.5 24.51 11.95a88.34 88.34 0 0 0 14 2v11.49a21.335 21.335 0 0 1-42.67 0zM21.61 83l2-1.14a8.07 8.07 0 0 0 4.14 4.92l-4.7 3.46zm17.81 7.2l-4.67-3.42a8.07 8.07 0 0 0 4.21-4.87l2 1.13zm-3.13-10.76v.15a5.055 5.055 0 0 1-10.11-.06V74a24.48 24.48 0 0 0 10.11 0zm-24.77 6.02l-3.3 1.91a1.49 1.49 0 0 0-.69.91l-2.58 9.86a1.49 1.49 0 1 0 2.88.75l2.42-9.26L13.01 88a1.49 1.49 0 1 0-1.49-2.57z"/></g></svg>