<svg data-name="Layer 1" xmlns="http://www.w3.org/2000/svg" viewBox="0 0 25 25"><title>telephone2</title><g class="cls-2"><path class="cls-3" d="M19 16.54a1.75 1.75 0 0 0-2.65 0c-.62.61-1.24 1.23-1.85 1.85a.36.36 0 0 1-.51.09c-.4-.22-.83-.4-1.21-.63a19.2 19.2 0 0 1-4.63-4.21A11 11 0 0 1 6.5 11a.38.38 0 0 1 .09-.49c.62-.6 1.22-1.21 1.83-1.83a1.76 1.76 0 0 0 0-2.68L7 4.49l-1.5-1.5A1.76 1.76 0 0 0 2.82 3C2.2 3.62 1.6 4.25 1 4.85a3 3 0 0 0-.95 2 8.62 8.62 0 0 0 .67 3.71 22.54 22.54 0 0 0 4 6.66 24.76 24.76 0 0 0 8.2 6.41 11.86 11.86 0 0 0 4.5 1.37 3.33 3.33 0 0 0 2.86-1.09c.53-.59 1.13-1.13 1.69-1.7a1.77 1.77 0 0 0 0-2.69zm-1-4.15l1.92-.33A8.62 8.62 0 0 0 12.64 5l-.27 1.93A6.66 6.66 0 0 1 18 12.39z"/><path class="cls-3" d="M21 4a14.15 14.15 0 0 0-8.1-4l-.27 1.93a12.35 12.35 0 0 1 10.45 10.13l1.92-.33A14.26 14.26 0 0 0 21 4z"/></g></svg>