<svg data-name="Layer 1" xmlns="http://www.w3.org/2000/svg" viewBox="0 0 24.97 25"><title>telephone</title><path class="cls-1" d="M17.7 25h.29a3.92 3.92 0 0 0 3-1.29 11.84 11.84 0 0 1 .94-1c.23-.22.47-.45.69-.68a2.38 2.38 0 0 0 0-3.54l-2.92-2.92a2.39 2.39 0 0 0-1.74-.8 2.47 2.47 0 0 0-1.75.79l-1.73 1.73-.47-.24c-.19-.1-.37-.19-.53-.29a18.34 18.34 0 0 1-4.39-4 10.32 10.32 0 0 1-1.47-2.35c.45-.41.87-.84 1.28-1.25l.45-.46a2.32 2.32 0 0 0 0-3.55L7.94 3.71l-.5-.5c-.32-.33-.66-.67-1-1a2.42 2.42 0 0 0-1.73-.76 2.52 2.52 0 0 0-1.72.78L1.15 4A3.79 3.79 0 0 0-.01 6.46a9.07 9.07 0 0 0 .68 3.91 22.86 22.86 0 0 0 4 6.76 25 25 0 0 0 8.3 6.5A12.88 12.88 0 0 0 17.7 25zm-12-8.68a21.6 21.6 0 0 1-3.81-6.39 7.77 7.77 0 0 1-.6-3.37 2.51 2.51 0 0 1 .76-1.63l1.8-1.81a1.28 1.28 0 0 1 .88-.4 1.23 1.23 0 0 1 .86.41c.32.3.64.62 1 1l.51.51L8.51 6a1.1 1.1 0 0 1 0 1.77l-.46.46c-.45.46-.87.89-1.34 1.3a1 1 0 0 0-.25 1.11 11.6 11.6 0 0 0 1.71 2.78 19.55 19.55 0 0 0 4.7 4.28 7.25 7.25 0 0 0 .65.35c.19.1.37.19.53.29h.06a1.07 1.07 0 0 0 .49.12 1 1 0 0 0 .74-.34l1.82-1.82a1.25 1.25 0 0 1 .83-.3 1.22 1.22 0 0 1 .84.42l2.93 2.93a1.15 1.15 0 0 1 0 1.79c-.2.22-.42.43-.65.65a13.33 13.33 0 0 0-1 1.06 2.64 2.64 0 0 1-2.07.87h-.25a11.71 11.71 0 0 1-4.18-1.25 23.55 23.55 0 0 1-7.89-6.16zm8.03-11.74a.63.63 0 0 0-.21 1.24 6.93 6.93 0 0 1 5.64 5.64.63.63 0 0 0 .62.52h.11a.62.62 0 0 0 .51-.72 8.17 8.17 0 0 0-6.67-6.67zm10.62 7.18h.11a.62.62 0 0 0 .53-.76 13.52 13.52 0 0 0-11-11 .63.63 0 1 0-.21 1.24 12.27 12.27 0 0 1 10 10 .63.63 0 0 0 .57.52z"/></svg>