<svg data-name="Layer 1" xmlns="http://www.w3.org/2000/svg" viewBox="0 0 86.67 100"><title>visa</title><path class="cls-1" d="M82.27 48.25L64.96 30.94a8.43 8.43 0 0 0-1.63-1.23v-28A1.67 1.67 0 0 0 61.66 0H8.33A8.34 8.34 0 0 0 0 8.33V75a8.34 8.34 0 0 0 8.33 8.33h40.08A18.35 18.35 0 0 0 66.66 100H85a1.67 1.67 0 0 0 1.67-1.67V58.85a14.9 14.9 0 0 0-4.4-10.6zM3.33 75V8.33a5 5 0 0 1 5-5H60V66L48.3 54.3a8.33 8.33 0 1 0-11.78 11.77l2 2 8.31 8.36a5 5 0 0 1 1.5 3.57h-40a5 5 0 0 1-5-5zm35.5-11.3a5 5 0 0 1 0-7.07 5.11 5.11 0 0 1 7.06 0l.87.87-7.03 7.07zm44.46 33H66.66a15 15 0 0 1-15-15V80a8.29 8.29 0 0 0-2.44-5.89l-7.13-7.14 7.07-7.07 16.32 16.28a1.67 1.67 0 0 0 2.35-2.36l-4.5-4.51V34l16.58 16.61a11.6 11.6 0 0 1 3.42 8.25z"/><path class="cls-1" d="M8.33 20A1.67 1.67 0 0 0 10 18.33v-6.66A1.67 1.67 0 0 1 11.66 10h6.67a1.67 1.67 0 0 0 0-3.33h-6.67a5 5 0 0 0-5 5v6.67A1.67 1.67 0 0 0 8.33 20zm10 53.33h-6.67a1.67 1.67 0 0 1-1.67-1.67V65a1.67 1.67 0 0 0-3.33 0v6.67a5 5 0 0 0 5 5h6.67a1.67 1.67 0 0 0 0-3.33zm30-45A16.67 16.67 0 1 0 31.66 45a16.67 16.67 0 0 0 16.67-16.67zm-3.45-1.67h-3.26a23.24 23.24 0 0 0-2.37-9.28 13.33 13.33 0 0 1 5.63 9.29zM30 15.5v11.17h-4.94c.36-5.67 2.56-9.8 4.94-11.17zM30 30v11.17c-2.38-1.37-4.57-5.53-4.94-11.17zm3.33 11.17V30h4.94c-.37 5.64-2.56 9.8-4.94 11.17zm0-14.5V15.5c2.38 1.37 4.57 5.53 4.94 11.17zm-9.25-9.28a23.24 23.24 0 0 0-2.37 9.28h-3.27a13.33 13.33 0 0 1 5.64-9.29zM18.44 30h3.27a23.24 23.24 0 0 0 2.37 9.28A13.33 13.33 0 0 1 18.44 30zm20.8 9.28A23.24 23.24 0 0 0 41.62 30h3.27a13.33 13.33 0 0 1-5.64 9.28z"/></svg>