<svg id="Layer_1" data-name="Layer 1" xmlns="http://www.w3.org/2000/svg" viewBox="0 0 32 32"><defs><style>.cls-1{fill:none}.cls-2{clip-path:url(#clip-path)}.cls-3{fill:#9076a6}</style><clipPath id="clip-path"><path class="cls-1" d="M0 0h32v32H0z"/></clipPath></defs><title>man</title><g class="cls-2"><path class="cls-3" d="M16 32a16 16 0 1 1 16-16 16 16 0 0 1-16 16zm0-31a15 15 0 1 0 15 15A15 15 0 0 0 16 1z"/><path class="cls-3" d="M16 32a15.88 15.88 0 0 1-9.26-3 .48.48 0 0 1 .11-.85c4-1.49 4.67-2.7 4.67-5a1.68 1.68 0 0 0-.38-1.15A6.39 6.39 0 0 1 10 19.14c0-.25-.09-.27-.31-.37-.59-.28-1.13-.69-1.27-2.55A2.25 2.25 0 0 1 9 14.57c-.06-.32-.15-.87-.23-1.47-.44-2.69-.46-6 3.33-7.52 3.3-1.34 5.94-.61 6.76.26A4.34 4.34 0 0 1 22 7.23c1.62 1.88 1.1 6.17.93 7.33a2.18 2.18 0 0 1 .57 1.62c-.14 1.89-.68 2.3-1.27 2.59-.22.11-.26.13-.31.37A6.39 6.39 0 0 1 20.86 22a1.67 1.67 0 0 0-.39 1.18c0 2.32.65 3.52 4.67 5a.48.48 0 0 1 .11.85A15.88 15.88 0 0 1 16 32zm-7.93-3.25a15 15 0 0 0 15.87 0c-3.37-1.38-4.43-2.78-4.43-5.58a2.6 2.6 0 0 1 .56-1.73A5.5 5.5 0 0 0 21 19a1.32 1.32 0 0 1 .84-1.07c.3-.14.61-.29.72-1.75 0-.74-.33-.94-.35-1a.52.52 0 0 1-.26-.52c.24-1.29.64-5.31-.66-6.82a3.39 3.39 0 0 0-2.55-1h-.13a.77.77 0 0 1-.4-.25c-.26-.45-2.56-1.36-5.73-.08s-3.14 4-2.73 6.48c.13.93.28 1.73.28 1.73a.49.49 0 0 1-.27.53s-.33.2-.33 1c.11 1.42.42 1.57.72 1.71A1.32 1.32 0 0 1 11 19a5.49 5.49 0 0 0 .94 2.48 2.6 2.6 0 0 1 .56 1.73c-.01 2.79-1.07 4.16-4.43 5.54z"/></g></svg>