<svg id="Layer_1" data-name="Layer 1" xmlns="http://www.w3.org/2000/svg" viewBox="0 0 32 31.99"><defs><style>.cls-1{fill:none}.cls-2{clip-path:url(#clip-path)}.cls-3{fill:#9076a6}</style><clipPath id="clip-path"><path class="cls-1" d="M0 0h32v32H0z"/></clipPath></defs><title>phone-call</title><g class="cls-2"><path class="cls-3" d="M25.72 32A13.75 13.75 0 0 1 21 31a35.32 35.32 0 0 1-11.87-8.13A35.32 35.32 0 0 1 1 11C-.33 7.46-.33 4.57 1 3.25l.59-.61C2.79 1.37 4.18-.07 6 0c1.25.05 2.46.83 3.7 2.37 3.65 4.55 2 6.17.1 8l-.34.33c-.31.31-.9 1.76 4.58 7.24a30.54 30.54 0 0 0 4.54 3.9c.77.5 2.14 1.25 2.71.69l.34-.34c1.88-1.9 3.5-3.55 8 .11 1.54 1.24 2.31 2.45 2.37 3.7.07 1.81-1.37 3.18-2.64 4.39l-.6.58A4.2 4.2 0 0 1 25.72 32zM5.83 1.08c-1.28 0-2.45 1.22-3.47 2.3L1.75 4c-1 1-.88 3.58.26 6.6A34.25 34.25 0 0 0 9.9 22.1 34.25 34.25 0 0 0 21.39 30c3 1.14 5.62 1.24 6.6.25l.62-.6c1.11-1.05 2.36-2.24 2.31-3.56 0-.91-.7-1.88-2-2.9-3.79-3-4.85-2-6.6-.19l-.34.35c-.84.84-2.2.66-4.05-.55a31.56 31.56 0 0 1-4.71-4c-4.55-4.55-6-7.34-4.58-8.77L9 9.65c1.78-1.76 2.86-2.82-.18-6.6-1-1.26-2-1.93-2.9-2zM25.9 13.23a.54.54 0 0 1-.5-.74 4.52 4.52 0 0 0-6.06-5.82.54.54 0 1 1-.44-1 5.6 5.6 0 0 1 7.5 7.21.54.54 0 0 1-.5.35z"/><path class="cls-3" d="M30.71 15.18a.54.54 0 0 1-.5-.74 9.71 9.71 0 0 0-13-12.5.54.54 0 0 1-.44-1 10.79 10.79 0 0 1 14.44 13.9.54.54 0 0 1-.5.34z"/></g></svg>