<svg id="Layer_1" data-name="Layer 1" xmlns="http://www.w3.org/2000/svg" viewBox="0 0 11.25 16"><defs><style>.cls-1{fill:#ed3970}</style></defs><title>placeholder</title><path class="cls-1" d="M8 0a5.63 5.63 0 0 0-4.79 8.58l4.47 7.2a.47.47 0 0 0 .4.22.47.47 0 0 0 .4-.23l4.35-7.27A5.63 5.63 0 0 0 8 0zm4 8l-4 6.61-4-6.52A4.69 4.69 0 1 1 12 8z" transform="translate(-2.38)"/><path class="cls-1" d="M8 2.81a2.81 2.81 0 1 0 2.81 2.81A2.82 2.82 0 0 0 8 2.81zm0 4.7a1.88 1.88 0 1 1 1.88-1.88A1.88 1.88 0 0 1 8 7.51z" transform="translate(-2.38)"/></svg>