<svg id="Layer_1" data-name="Layer 1" xmlns="http://www.w3.org/2000/svg" viewBox="0 0 30.91 34"><defs><style>.cls-1{fill:#fff}</style></defs><title>ruble-currency-sign 2</title><path class="cls-1" d="M2.32 28.59h5.41v4.64a.74.74 0 0 0 .77.77h4a.76.76 0 0 0 .54-.22.73.73 0 0 0 .23-.55v-4.64H25.5a.74.74 0 0 0 .77-.77v-3.09a.74.74 0 0 0-.77-.73H13.31v-2.9h8.21a10.88 10.88 0 0 0 7.88-2.95 10.1 10.1 0 0 0 3.05-7.61 10.1 10.1 0 0 0-3.05-7.59A10.89 10.89 0 0 0 21.52 0H8.5a.74.74 0 0 0-.77.77V16H2.32a.73.73 0 0 0-.56.23.76.76 0 0 0-.22.54v3.6a.74.74 0 0 0 .77.77h5.42V24H2.32a.74.74 0 0 0-.77.77v3.09a.74.74 0 0 0 .77.77zm11-23.45H21a5.73 5.73 0 0 1 4.13 1.5 5.16 5.16 0 0 1 1.57 3.91 5.16 5.16 0 0 1-1.57 3.91A5.73 5.73 0 0 1 21 16h-7.69z" transform="translate(-1.55)"/></svg>