<svg id="Layer_1" data-name="Layer 1" xmlns="http://www.w3.org/2000/svg" viewBox="0 0 20.8 24"><defs><style>.cls-1{fill:none}.cls-2{clip-path:url(#clip-path)}.cls-3{fill:#9076a6}</style><clipPath id="clip-path" transform="translate(-1.6)"><path class="cls-1" d="M0 0h24v24H0z"/></clipPath></defs><title>scale</title><g class="cls-2"><path class="cls-3" d="M22 23.57l-.91-10.43A9.07 9.07 0 0 0 12 4.8a9.07 9.07 0 0 0-9.09 8.33L2 23.57a.4.4 0 0 0 .4.43h19.2a.4.4 0 0 0 .4-.43zM2.84 23.2l.87-10A8.28 8.28 0 0 1 12 5.6a8.28 8.28 0 0 1 8.29 7.6l.87 10zM22 0H2a.4.4 0 0 0-.4.4 2.8 2.8 0 0 0 2.8 2.8h15.2A2.8 2.8 0 0 0 22.4.4.4.4 0 0 0 22 0zm-2.4 2.4H4.4a2 2 0 0 1-2-1.6h19.16a2 2 0 0 1-1.96 1.6z" transform="translate(-1.6)"/><path class="cls-3" d="M11.6 2.8h-.8v2.4h.8zm1.6 0h-.8v2.4h.8zM12 7.2a7.2 7.2 0 1 0 7.2 7.2A7.21 7.21 0 0 0 12 7.2zm0 13.6a6.4 6.4 0 1 1 6.4-6.4 6.41 6.41 0 0 1-6.4 6.4z" transform="translate(-1.6)"/><path class="cls-3" d="M12.4 7.6h-.8v1.6h.8zm0 12h-.8v1.6h.8zM6.8 14H5.2v.8h1.6zm12 0h-1.6v.8h1.6zM7.47 9.31l-.57.57L8 11l.57-.57zM16 17.79l-.57.57 1.13 1.13.57-.57zm-8 0l-1.09 1.13.57.57 1.13-1.13zm8.53-8.48l-1.13 1.13.6.56 1.13-1.13zM12 15.2a.8.8 0 1 0-.8-.8.8.8 0 0 0 .8.8z" transform="translate(-1.6)"/><path class="cls-3" d="M12.4 10h-.8v4h.8z" transform="translate(-1.6)"/></g></svg>