<svg id="Layer_1" data-name="Layer 1" xmlns="http://www.w3.org/2000/svg" viewBox="0 0 43.07 43.07"><defs><style>.cls-1{fill:#fff}</style></defs><title>shopping-cart2</title><path class="cls-1" d="M27.35 32.12H5.54L1 11.14h21v1.74H3.21L7 30.38h19L36.58 1H44v1.8h-6.12zM23.06 44a4.76 4.76 0 1 1 4.75-4.76A4.75 4.75 0 0 1 23.06 44zm0-7.7a3 3 0 0 0-3 2.94 2.92 2.92 0 0 0 3 2.94 2.94 2.94 0 1 0 0-5.87zM9.54 44a4.76 4.76 0 1 1 4.75-4.76A4.75 4.75 0 0 1 9.54 44zm0-7.7a3 3 0 0 0-3 2.94 2.92 2.92 0 0 0 3 2.94 3 3 0 0 0 3-2.94 3 3 0 0 0-3-2.91z" transform="translate(-.97 -.97)"/></svg>