<svg id="Layer_1" data-name="Layer 1" xmlns="http://www.w3.org/2000/svg" viewBox="0 0 32 31.43"><defs><style>.cls-1{fill:#9076a6}</style></defs><title>speech-bubble</title><path class="cls-1" d="M7.06 31.71a.49.49 0 0 1-.48-.48v-6.91A11.77 11.77 0 0 1 0 13.41C0 5.93 6.88.29 16 .29s16 5.64 16 13.12-6.88 13.12-16 13.12h-.89l-7.78 5.1a.48.48 0 0 1-.27.08zM16 1.25c-8.57 0-15 5.23-15 12.16a10.76 10.76 0 0 0 6.28 10.18.48.48 0 0 1 .27.43v6.3l7.15-4.73a.44.44 0 0 1 .29-.08H16c8.57 0 15-5.22 15-12.15S24.57 1.25 16 1.25z" transform="translate(0 -.29)"/></svg>