<svg id="Layer_1" data-name="Layer 1" xmlns="http://www.w3.org/2000/svg" viewBox="0 0 64 45.87"><defs><style>.cls-1{fill:#fff}</style></defs><title>truck</title><path class="cls-1" d="M14.93 42.13a6.4 6.4 0 1 0 6.4 6.4 6.41 6.41 0 0 0-6.4-6.4zm0 10.67a4.27 4.27 0 1 1 4.27-4.27 4.27 4.27 0 0 1-4.27 4.27zM51.2 42.13a6.4 6.4 0 1 0 6.4 6.4 6.41 6.41 0 0 0-6.4-6.4zm0 10.67a4.27 4.27 0 1 1 4.27-4.27 4.27 4.27 0 0 1-4.27 4.27z" transform="translate(0 -9.07)"/><path class="cls-1" d="M63.83 36.22l-9.6-14.93a1.07 1.07 0 0 0-.9-.49H41.6a1.07 1.07 0 0 0-1.07 1.07v26.66a1.07 1.07 0 0 0 1.07 1.07h4.27v-2.13h-3.2V22.93h10.08l9.12 14.18v10.36h-5.34v2.13h6.4A1.07 1.07 0 0 0 64 48.53V36.8a1.06 1.06 0 0 0-.17-.58z" transform="translate(0 -9.07)"/><path class="cls-1" d="M46.93 34.67V27.2h8.53v-2.13h-9.6a1.07 1.07 0 0 0-1.07 1.07v9.6a1.07 1.07 0 0 0 1.07 1.07h16v-2.14H46.93zM41.6 13.33H1.07A1.07 1.07 0 0 0 0 14.4v34.13a1.07 1.07 0 0 0 1.07 1.07H9.6v-2.13H2.13v-32h38.4v32H20.27v2.13H41.6a1.07 1.07 0 0 0 1.07-1.07V14.4a1.07 1.07 0 0 0-1.07-1.07z" transform="translate(0 -9.07)"/><path class="cls-1" d="M7.47 43.2h-6.4v2.13h6.4zm33.06 0H22.4v2.13h18.13zm22.4 0h-4.26v2.13h4.27zM41.6 17.6H4.27v2.13H41.6zM16 47.47h-2.13v2.13H16zm36.27 0h-2.14v2.13h2.13zM19.2 9.07H4.27v2.13H19.2zm-17.07 0H0v2.13h2.13z" transform="translate(0 -9.07)"/></svg>