<svg id="Слой_3" data-name="Слой 3" xmlns="http://www.w3.org/2000/svg" viewBox="0 0 99.5 98.8"><defs><style>.cls-1{fill:none;stroke:#000;stroke-miterlimit:10;stroke-width:2px}</style></defs><title>booking-list</title><path class="cls-1" d="M83.5 13h15v84.8H1V13h15m27.8 0h29.6m-47.3 0h18.6"/><path d="M1.4 32.2h96.8v2H1.4z"/><path class="cls-1" d="M22.4 25h-2.6a3.69 3.69 0 0 1-3.7-3.7V4.7A3.61 3.61 0 0 1 19.7 1h2.6A3.69 3.69 0 0 1 26 4.7v16.6a3.61 3.61 0 0 1-3.6 3.7zm57.4 0h-2.6a3.69 3.69 0 0 1-3.7-3.7V4.7A3.69 3.69 0 0 1 77.2 1h2.6a3.69 3.69 0 0 1 3.7 3.7v16.6a3.76 3.76 0 0 1-3.7 3.7z"/><path transform="rotate(-45 24.21 48.282)" d="M17.41 47.29h13.6v2h-13.6z"/><path d="M39.2 47.2h46.6v2H39.2zm0 21h46.6v2H39.2z"/><path transform="rotate(-45 18.208 50.548)" d="M17.21 46.95h2v7.2h-2z"/><path class="cls-1" d="M14.1 44.1h13.3v13.3H14.1z"/><path transform="rotate(-45 24.22 67.478)" d="M17.42 66.48h13.6v2h-13.6z"/><path transform="rotate(-45 18.229 69.72)" d="M17.22 66.11h2v7.2h-2z"/><path class="cls-1" d="M14.1 63.2h13.3v13.3H14.1z"/></svg>