<svg id="Слой_3" data-name="Слой 3" xmlns="http://www.w3.org/2000/svg" viewBox="0 0 99.5 98.8"><defs><style>.cls-1{fill:none;stroke:#000;stroke-miterlimit:10;stroke-width:2px}</style></defs><title>new-booking</title><path class="cls-1" d="M83.5 13h15v84.8H1V13h15m38.8 0h18.6m-47.3 0h18.6"/><path class="cls-1" d="M22.4 25h-2.6a3.69 3.69 0 0 1-3.7-3.7V4.7A3.61 3.61 0 0 1 19.7 1h2.6A3.69 3.69 0 0 1 26 4.7v16.6a3.61 3.61 0 0 1-3.6 3.7zm57.4 0h-2.6a3.69 3.69 0 0 1-3.7-3.7V4.7A3.69 3.69 0 0 1 77.2 1h2.6a3.69 3.69 0 0 1 3.7 3.7v16.6a3.76 3.76 0 0 1-3.7 3.7zm-28.7 0h-2.6a3.69 3.69 0 0 1-3.7-3.7V4.7A3.69 3.69 0 0 1 48.5 1h2.6a3.69 3.69 0 0 1 3.7 3.7v16.6a3.76 3.76 0 0 1-3.7 3.7z"/><path transform="rotate(-45 29.008 52.335)" d="M22.81 51.33h12.4v2h-12.4z"/><path d="M41.9 51h9.5v2h-9.5zm12.9 0h22.5v2H54.8zM41.9 69.3h35.5v2H41.9z"/><path transform="rotate(-45 23.155 53.729)" d="M22.15 49.63h2v8.2h-2z"/></svg>