<svg id="Слой_2" data-name="Слой 2" xmlns="http://www.w3.org/2000/svg" viewBox="0 0 102 102"><defs><style>.cls-1,.cls-2{fill:none;stroke:#000;stroke-linecap:round;stroke-width:2px}.cls-1{stroke-miterlimit:10}.cls-2{stroke-linejoin:round}</style></defs><title>person</title><path class="cls-1" d="M101 51A50 50 0 1 1 51 1a50 50 0 0 1 50 50z"/><path class="cls-2" d="M50.9 10.3c-20.4 0-22.2 13.4-19.8 29.7-7.7.8-2.5 14 1.8 14 .7 4.3 4.4 10.5 6.1 12 2.2 5.1 1.5 11.4-13.3 16.9a28.47 28.47 0 0 0-8.7 5m34.1-77.6c20.4 0 22.2 13.4 19.8 29.7 7.7.8 2.5 14-1.8 14-.7 4.3-4.4 10.5-6.1 12-2.2 5.1-1.5 11.4 13.3 16.9a27 27 0 0 1 8.3 4.7"/></svg>