<svg id="Capa_1" data-name="Capa 1" xmlns="http://www.w3.org/2000/svg" viewBox="0 0 512 180"><defs><style>.cls-1{fill:#ccc}.cls-2{fill:#a6a6a6}</style></defs><title>audi</title><path class="cls-1" d="M422 166a90 90 0 1 0 90 90 90 90 0 0 0-90-90zm0 154.76A64.76 64.76 0 1 1 486.75 256 64.83 64.83 0 0 1 422 320.76z" transform="translate(0 -166)"/><path class="cls-2" d="M422 166a90.61 90.61 0 0 0-12.62.89c43.72 6.11 85.29 43.69 85.29 89.11s-41.57 83-85.29 89.11A90 90 0 1 0 422 166z" transform="translate(0 -166)"/><path class="cls-1" d="M312 166a90 90 0 1 0 90 90 90 90 0 0 0-90-90zm0 154.76A64.76 64.76 0 1 1 376.75 256 64.83 64.83 0 0 1 312 320.76z" transform="translate(0 -166)"/><path class="cls-2" d="M312 166a90.61 90.61 0 0 0-12.62.89c43.72 6.11 85.29 43.69 85.29 89.11s-41.57 83-85.29 89.11A90 90 0 1 0 312 166z" transform="translate(0 -166)"/><path class="cls-1" d="M200 166a90 90 0 1 0 90 90 90 90 0 0 0-90-90zm0 154.76A64.76 64.76 0 1 1 264.75 256 64.83 64.83 0 0 1 200 320.76z" transform="translate(0 -166)"/><path class="cls-2" d="M200 166a90.61 90.61 0 0 0-12.62.89c43.72 6.11 85.29 43.69 85.29 89.11s-41.57 83-85.29 89.11A90 90 0 1 0 200 166z" transform="translate(0 -166)"/><path class="cls-1" d="M90 166a90 90 0 1 0 90 90 90 90 0 0 0-90-90zm0 154.76A64.76 64.76 0 1 1 154.75 256 64.83 64.83 0 0 1 90 320.76z" transform="translate(0 -166)"/><path class="cls-2" d="M90 166a90.61 90.61 0 0 0-12.62.89c43.72 6.11 85.29 43.69 85.29 89.11s-41.57 83-85.29 89.11A90 90 0 1 0 90 166z" transform="translate(0 -166)"/></svg>