<svg id="Capa_1" data-name="Capa 1" xmlns="http://www.w3.org/2000/svg" viewBox="0 0 512 512"><defs><style>.cls-1{fill:#202738}.cls-2{fill:#fff}.cls-3{fill:#2c44bf}.cls-4{fill:#cfcfcf}.cls-5{fill:#263aa3}.cls-6{fill:#191e2b}.cls-7{fill:#ebebeb}</style></defs><title>bmw</title><circle class="cls-1" cx="256" cy="256" r="256"/><circle class="cls-2" cx="256" cy="256" r="162.77"/><path class="cls-3" d="M256 93.23V256H93.23A162.81 162.81 0 0 1 256 93.23zm0 325.54V256h162.77A162.81 162.81 0 0 1 256 418.77z"/><ellipse class="cls-1" cx="256" cy="251.68" rx="256" ry="251.68"/><ellipse class="cls-2" cx="256" cy="251.68" rx="162.77" ry="160.02"/><path class="cls-4" d="M256 91.66q-6.44 0-12.76.49c83.93 6.4 150 75.38 150 159.54s-66.08 153.14-150 159.54q6.31.48 12.76.49c89.89 0 162.77-71.64 162.77-160S345.89 91.66 256 91.66z"/><path class="cls-3" d="M256 91.66v160H93.23c0-88.32 72.91-160 162.77-160zm0 320.05v-160h162.77c0 88.29-72.91 160-162.77 160z"/><path class="cls-5" d="M393.26 251.68c0 79.81-59.51 146-137.26 158.06v2c89.86 0 162.77-71.68 162.77-160h-25.51z"/><path class="cls-6" d="M256 0q-6.48 0-12.88.32c135.4 6.59 243.12 116.61 243.12 251.37S378.52 496.45 243.12 503q6.4.31 12.88.32c141.39 0 256-112.68 256-251.68S397.39 0 256 0z"/><path class="cls-7" d="M266.29 17.47A17.61 17.61 0 0 0 256 20.79a17.7 17.7 0 0 0-28 14.41v34.63a7.5 7.5 0 0 0 15 0V35.2a2.73 2.73 0 1 1 5.45 0v34.63a7.5 7.5 0 0 0 7.5 7.5h.13a7.5 7.5 0 0 0 7.5-7.5V35.2a2.73 2.73 0 0 1 5.45 0v34.63a7.5 7.5 0 1 0 15 0V35.2a17.75 17.75 0 0 0-17.74-17.73zm-96.15 45.17a18.48 18.48 0 0 0-27.51-18.26L123.2 55.47a7.5 7.5 0 0 0-2.8 10.23l10.91 19.11 10.91 19.11a7.5 7.5 0 0 0 10.23 2.8l19.43-11.09a18.48 18.48 0 0 0-1.74-33zm-20.08-5.23a3.5 3.5 0 0 1 3.47 6.08l-12.92 7.37-3.47-6.08zm14.38 25.19L151.53 90l-3.47-6.08 12.94-7.4a3.5 3.5 0 0 1 3.47 6.08zm224.75-26.2A7.5 7.5 0 0 0 379 59.19l-17.2 30.08a2.73 2.73 0 1 1-4.73-2.7l17.16-30.08a7.5 7.5 0 0 0-2.8-10.23h-.1A7.5 7.5 0 0 0 361.09 49l-17.16 30.08a2.73 2.73 0 1 1-4.73-2.7l17.16-30.08a7.5 7.5 0 0 0-13-7.43l-17.2 30.07a17.65 17.65 0 0 0 17.19 26.41 17.71 17.71 0 0 0 16 10.3 17.83 17.83 0 0 0 4.7-.64 17.62 17.62 0 0 0 10.72-8.32L392 66.62a7.5 7.5 0 0 0-2.81-10.22z"/></svg>