<svg id="Capa_1" data-name="Capa 1" xmlns="http://www.w3.org/2000/svg" viewBox="0 0 512 192"><defs><style>.cls-1{fill:#ccc}.cls-2{fill:#e3e3e3}.cls-3{fill:#a6a6a6}.cls-4{fill:#8c8c8c}.cls-5{fill:#f3db53}.cls-6{fill:#f3c153}</style></defs><title>chevrolet</title><path class="cls-1" d="M512 202.79a3.72 3.72 0 0 1-.29 1.45l-.17.34-54.29 106.49a3.82 3.82 0 0 1-.64.87 3.87 3.87 0 0 1-.69.54 3.64 3.64 0 0 1-1.92.52h-98.54a4.17 4.17 0 0 0-4.16 4.17v31.05a3.74 3.74 0 0 1-3.72 3.74H164.43a3.74 3.74 0 0 1-3.72-3.74v-31.01a4.16 4.16 0 0 0-3.16-4 4 4 0 0 0-1-.12H3.72a3.71 3.71 0 0 1-3.17-1.78 3.65 3.65 0 0 1-.55-2 3.76 3.76 0 0 1 .29-1.45l.17-.34L54.76 201a4 4 0 0 1 .65-.86 3.44 3.44 0 0 1 .68-.54 3.75 3.75 0 0 1 2-.55h98.51a4.16 4.16 0 0 0 4.16-4.17v-31.14a3.74 3.74 0 0 1 3.72-3.74h183.1a3.71 3.71 0 0 1 2.63 1.1 3.79 3.79 0 0 1 1.09 2.64v31.15a4.13 4.13 0 0 0 .71 2.33 4.17 4.17 0 0 0 3.45 1.84h152.82a3.69 3.69 0 0 1 2.63 1.1 3.84 3.84 0 0 1 .54.69 3.66 3.66 0 0 1 .55 1.94z" transform="translate(0 -160)"/><path class="cls-2" d="M188.6 284.94l1.22 37.74L167 345.61l-5.25 5.29a3.72 3.72 0 0 1-1.09-2.64v-31.05a4.16 4.16 0 0 0-3.16-4zm1.21-95.62l-1.22 37.83-29.11-29.31a4.17 4.17 0 0 0 1.22-3v-31.1a3.72 3.72 0 0 1 1.09-2.64l5.25 5.29z" transform="translate(0 -160)"/><path class="cls-3" d="M350.2 161.1l-5.2 5.29-22.77 22.94H189.81L167 166.39l-5.25-5.29a3.71 3.71 0 0 1 2.63-1.1h183.2a3.71 3.71 0 0 1 2.62 1.1zm0 189.8a3.69 3.69 0 0 1-2.63 1.1H164.42a3.71 3.71 0 0 1-2.63-1.1l5.25-5.29 22.77-22.94h132.38L345 345.61z" transform="translate(0 -160)"/><path class="cls-2" d="M73.77 228.79l-27.21 54.15-39.65 24.39-6.3 3.88a3.65 3.65 0 0 1-.55-2 3.76 3.76 0 0 1 .29-1.45l.17-.34L54.76 201a4 4 0 0 1 .65-.86 3.44 3.44 0 0 1 .68-.54l3.86 6.4z" transform="translate(0 -160)"/><path class="cls-4" d="M512 202.79a3.72 3.72 0 0 1-.29 1.45l-.17.34-54.29 106.49a3.82 3.82 0 0 1-.64.87 3.87 3.87 0 0 1-.69.54l-3.86-6.36-14-23.18 27.42-53.79 39.67-24.4 6.34-3.9a3.66 3.66 0 0 1 .51 1.94zm-160-5.58s-27.64 28.18-27.82 28.18a12 12 0 0 0-2 1.12v-37.2l28-28.23.83 1.28a3.67 3.67 0 0 1 .26 1.36v31.15a4.12 4.12 0 0 0 .73 2.34zm0 117.67a4.18 4.18 0 0 0-.71 2.33v31.05a3.72 3.72 0 0 1-1.09 2.64l-28-28.23v-36.33h2.27z" transform="translate(0 -160)"/><path class="cls-5" d="M465.59 233.22l-25.21 49.44a4.16 4.16 0 0 1-3.7 2.27H327.56a4.17 4.17 0 0 0-4.16 4.17v30.62a4.17 4.17 0 0 1-4.16 4.17H192.76a4.17 4.17 0 0 1-4.16-4.17v-30.61a4.17 4.17 0 0 0-4.16-4.17H50.11a4.17 4.17 0 0 1-3.7-6.08l25.21-49.44a4.16 4.16 0 0 1 3.7-2.27h109.12a4.17 4.17 0 0 0 4.16-4.15v-30.7a4.17 4.17 0 0 1 4.16-4.17h126.48a4.17 4.17 0 0 1 4.16 4.17V223a4.17 4.17 0 0 0 4.16 4.17h134.33a4.17 4.17 0 0 1 3.7 6.05z" transform="translate(0 -160)"/><path class="cls-6" d="M256 188.1v135.8h-63.24a4.17 4.17 0 0 1-4.16-4.17v-30.62a4.17 4.17 0 0 0-4.16-4.17H50.11a4.17 4.17 0 0 1-3.7-6.08l25.21-49.44a4.16 4.16 0 0 1 3.7-2.27h109.12a4.17 4.17 0 0 0 4.16-4.15v-30.7a4.17 4.17 0 0 1 4.16-4.17z" transform="translate(0 -160)"/></svg>