<svg id="Capa_1" data-name="Capa 1" xmlns="http://www.w3.org/2000/svg" viewBox="0 0 512 444"><defs><style>.cls-1{fill:#ccc}.cls-2{fill:#a6a6a6}.cls-3{fill:#8c8c8c}.cls-4{fill:#fcee21}</style></defs><title>citroen</title><path class="cls-1" d="M511.95 265.45l-2.95 27.9a9.5 9.5 0 0 1-15.76 6.14q-3.59-3.09-7.16-6.09c-114.66-96.68-216.32-131.81-228.8-135.89a4.11 4.11 0 0 0-2.56 0c-12.7 4.15-118.37 40.65-236 142A9.54 9.54 0 0 1 3 293.35L.05 265.44a9.41 9.41 0 0 1 1.82-6.67c18.15-24 144.4-187.62 250.72-224.2a10.45 10.45 0 0 1 6.81 0C347 64.74 448.3 181.29 491.3 234.71c9.14 11.35 15.64 19.85 18.82 24.07a9.41 9.41 0 0 1 1.83 6.67z" transform="translate(0 -34)"/><path class="cls-2" d="M509 293.35l-.6 2.48a9.56 9.56 0 0 1-15.16 3.66c-117.61-101.33-223.29-137.84-236-142a4.1 4.1 0 0 0-2.55 0c-12.69 4.15-118.37 40.65-236 142A9.54 9.54 0 0 1 3 293.35s180.89-166.26 253-166.26 253 166.26 253 166.26z" transform="translate(0 -34)"/><path class="cls-3" d="M511.95 265.45l-2.95 27.9a9.5 9.5 0 0 1-15.76 6.14q-3.59-3.09-7.16-6.09c4.15-19.76 5.17-42.06 5.2-58.7 9.14 11.35 15.64 19.85 18.82 24.07a9.4 9.4 0 0 1 1.85 6.68z" transform="translate(0 -34)"/><path class="cls-4" d="M270.42 227.41h-25.75v-25.73h25.75v25.73z"/><path class="cls-3" d="M156.93 143.81a1 1 0 0 0 .8 1.89c20.78-7.08 60.43-18.61 98.27-18.61s76.58 11.46 97 18.54a1 1 0 0 0 .81-1.88c-22.76-11.67-68.57-33.12-97.82-33.12s-75.99 21.52-99.06 33.18z" transform="translate(0 -34)"/><path class="cls-1" d="M511.95 441.59L509 469.5a9.5 9.5 0 0 1-15.76 6.14q-3.59-3.09-7.16-6.09c-114.66-96.69-216.32-131.81-228.8-135.89a4.11 4.11 0 0 0-2.56 0c-12.7 4.15-118.37 40.65-236 142A9.54 9.54 0 0 1 3 469.5L.05 441.59a9.41 9.41 0 0 1 1.82-6.67c18.14-24 144.4-187.62 250.71-224.21a10.45 10.45 0 0 1 6.81 0C347 240.88 448.3 357.43 491.3 410.85c9.14 11.35 15.64 19.85 18.82 24.07a9.41 9.41 0 0 1 1.83 6.67z" transform="translate(0 -34)"/><path class="cls-2" d="M509 469.5l-.6 2.48a9.56 9.56 0 0 1-15.16 3.66c-117.61-101.33-223.29-137.84-236-142a4.1 4.1 0 0 0-2.55 0c-12.69 4.15-118.37 40.65-236 142A9.54 9.54 0 0 1 3 469.5s180.89-166.27 253-166.27S509 469.5 509 469.5z" transform="translate(0 -34)"/><path class="cls-3" d="M511.95 441.59L509 469.5a9.5 9.5 0 0 1-15.76 6.14q-3.59-3.09-7.16-6.09c4.15-19.76 5.17-42.06 5.2-58.7 9.14 11.35 15.64 19.85 18.82 24.07a9.4 9.4 0 0 1 1.85 6.67zM156.93 320a1 1 0 0 0 .8 1.89c20.78-7.08 60.43-18.61 98.27-18.61s76.58 11.46 97 18.54a1 1 0 0 0 .81-1.89c-22.76-11.67-68.57-33.12-97.82-33.12S180 308.3 156.93 320z" transform="translate(0 -34)"/></svg>