<svg id="Capa_1" data-name="Capa 1" xmlns="http://www.w3.org/2000/svg" viewBox="0 0 512 247"><defs><style>.cls-1{fill:#00539e}.cls-2{fill:#004380}.cls-3{fill:#fff}</style></defs><title>ford</title><path class="cls-1" d="M255.91 379.5C397.26 379.5 512 324.19 512 255.87c0-68.06-114.74-123.37-256.09-123.37C114.39 132.5 0 187.82 0 255.87 0 324.19 114.39 379.5 255.91 379.5z" transform="translate(0 -132.5)"/><path class="cls-2" d="M255.91 132.5q-6.48 0-12.88.15c135.38 3.24 243.22 57.24 243.22 123.22 0 66.23-107.85 120.24-243.22 123.47q6.4.15 12.88.15C397.26 379.5 512 324.19 512 255.87c0-68.05-114.74-123.37-256.09-123.37z" transform="translate(0 -132.5)"/><path class="cls-3" d="M213.37 313.41c-9.9 0-18-4.92-21.76-12.62a64.65 64.65 0 0 1-6 3.84l-.09.05-.41.21a9 9 0 0 1-4.11 1.36 4.13 4.13 0 0 1-2.3-.69l-.21-.14-.19-.17a11.67 11.67 0 0 1-3.87-6.76l-.83-6.11 4.29 1.68c.52-.39 1.2-.92 1.9-1.47l1.12-.87c5.64-4.24 7-7.49 7.05-7.52l.04-.2.05-.1c1.31-2.7 3.35-6.55 5.15-10l1.49-2.82c7.86-15.47 19.47-23.9 33.56-24.35h.13c3.76 0 5.56 1.73 6.59 3.25.19.19 4.23-2.67 6.85-2.66a6.25 6.25 0 0 1 4.75 1.8c3.48 3.51 5.5 8.9 6.27 13.84 6.57-7.66 13.5-14.78 19.81-16.89a12.52 12.52 0 0 1 5.69-1h.66c5.09 0 9 1.59 11.64 4.66a12.65 12.65 0 0 1 2 3.24c4.7-4.29 9.54-6.91 15.59-6.89h1.31c9.06.48 13.18 7.12 13.16 13.08v.14c-.28 6.61-5.28 13.58-13.17 13.79h-.11c-4.91 0-8.74-1.89-11.26-5.46a11.33 11.33 0 0 0-1 3.44v.09c19.78 11.66 26.05-4.83 28.28-7.14 8.65-9 16.82-17.46 32.24-17.4h.43a17.65 17.65 0 0 1 15.4 8.56l20.79-34.68a1.76 1.76 0 0 1 1.51-.85l18.6.07a1.75 1.75 0 0 1 1.52 2.62c-7.64 13.42-42.16 74.09-42.44 74.85 3.61-.86 8.47-6.47 19.67-18.14 0 0 3.62-4.52 8-3.06 2.61.86 5.81 2.25 5.8 5.44 0 2.65-12.92 32-39.48 32h-.1c-6 0-10-2-12.13-6.09a51.66 51.66 0 0 1-22.41 5.42c-8.38-.2-14.29-4.18-17.64-11.82a23.19 23.19 0 0 1-2-9.64 37.32 37.32 0 0 1-9.14.89c-.86 0-1.77 0-2.7-.05-6.81-.19-11.77-2.8-15-7.93l-1.1 2c-4 7.28-11.9 21.82-14 25.6a1.74 1.74 0 0 1-1.55.91l-19.84-.07a1.76 1.76 0 0 1-1.51-2.64l20.15-34.54c1.88-7.4-10.12 2.74-19.56 14-7.21 8.53-17.65 24-35.58 23.94zm1.5-22.71c13.74 0 18.76-17.71 16.5-19.61-5.12-4.31-17.51-.82-20.09 12.39-.73 3.78.86 6.52 3.6 7.22zm125.47-15.29c-3 2.83-5.71 9.22-4.39 12.78.49 1.32 9.24 5.35 17.19-4.73 2.48-3.14 4.39-7.81 3.32-11.16-.46-1.57-6.66-5.74-16.12 3.11zM138.9 240.42a19.11 19.11 0 0 1-13.7-5.83 23 23 0 0 1-6.41-16.22c.11-10.35 5.71-19.74 15.8-26.4 11.35-7.5 32.22-20.26 77.79-13.94 14.26 2 46.73 14.46 96.28 9.83a30.75 30.75 0 0 1 4.48-.51c3.22 0 7.05 1.1 7.05 6.36 0 9.26-23.36 19.58-39.18 19.58-18.82 0-37.87-6.36-51.79-11-5.27-1.76-9.82-3.28-13.09-4-12.6-2.94-24.65-5.58-33.91-5.58-23.94 0-34.61 7.46-38.83 11.91-3.36 3.53-5 7.54-4.8 11.57.18 2.76 2 4.37 4.93 4.37a9.63 9.63 0 0 0 1.79-.18c5.93-1 14.4-6.92 16.24-11.25a5.51 5.51 0 0 1 5.11-3.39c5 .08 5.23 4.79 4.87 6.49-1.2 7.97-12.73 28.19-32.63 28.19z" transform="translate(0 -132.5)"/><path class="cls-3" d="M128.32 311.15c-19.59 0-33.53-13.38-33.91-32.53-.11-6.65 2.56-13.82 7.33-19.7A39.16 39.16 0 0 1 123 245.68l.45-.11h.55c4.51 0 6.54 2.82 6.54 5.62 0 1.14-.45 4-4.62 5.84h-.22c-3.26 1.2-10.92 9.39-10.92 16.71 0 5 3.1 10.85 8.28 12h.15c22.57 4.7 34.43-13.24 55.08-40.89-4.82.9-9.4 2.23-10.6 3.6 0 0-3.09 2-4.42 2a5.46 5.46 0 0 1-5.24-4.45l-.12-.46v-.47a9.39 9.39 0 0 1 1.86-4.65l.09-.12.1-.12c5.47-6.15 17.78-8.35 28-9.56 14.77-22.43 19-24.29 22.65-24.29a7.17 7.17 0 0 1 2.37.42l.39.13c2.17.73 10 5.14-.64 19.29 1.93-.27 6.8-.6 8-2 2.63-14.38 19.08-18.29 23.7-3.24 1.92 6.26-2.53 10.16-6.3 12.87-8.87 6.39-24.34 8.44-32 10.1-35.22 56.81-53.47 67.25-77.81 67.25z" transform="translate(0 -132.5)"/><path class="cls-3" d="M255.92 372.48c-64.14 0-124.52-11.45-170-32.26-47.35-21.65-73.42-51.16-73.42-83.09s26.07-61.28 73.42-82.9c45.51-20.78 105.88-32.23 170-32.23s124.44 11.44 170 32.23c47.44 21.63 73.57 51.07 73.57 82.9s-26.12 61.43-73.56 83.1C380.39 361 320 372.48 255.92 372.48zm0-215.48c-62 0-120.17 11-163.77 30.87-41.09 18.76-64.65 44-64.65 69.26 0 25.72 23 50.39 64.65 69.45 43.57 19.92 101.73 30.9 163.77 30.9s120.15-11 163.79-30.9c41.18-18.8 64.79-44.12 64.79-69.45s-23.61-50.48-64.79-69.25C376 168 317.88 157 255.92 157z" transform="translate(0 -132.5)"/></svg>