<svg id="Capa_1" data-name="Capa 1" xmlns="http://www.w3.org/2000/svg" viewBox="0 0 512 452"><defs><style>.cls-1{fill:#ccc}.cls-2{fill:#8c8c8c}.cls-3{fill:#a6a6a6}</style></defs><title>honda</title><path class="cls-1" d="M417.46 67l-30.6 378h-55.54s-.7-36.61-17.69-64.32a29.84 29.84 0 0 0-10.73-10.81c-12.32-7.21-32.29-9.52-46.9-9.52s-34.58 2.31-46.9 9.52a29.86 29.86 0 0 0-10.73 10.81c-17 27.71-17.69 64.32-17.69 64.32h-55.54L94.54 67h40.54c17.88 103.74 31.7 158.59 55.74 203.65 5.17 9.69 13.81 16.45 23.65 18.25 13.41 2.36 26.35 2.73 41.53 2.73s28.12-.37 41.53-2.73c9.84-1.8 18.48-8.56 23.65-18.25 24-45.05 37.86-99.91 55.74-203.65z" transform="translate(0 -30)"/><path class="cls-2" d="M231.64 360.34c-14.61 0-34.58 2.31-46.9 9.52A29.86 29.86 0 0 0 174 380.67C157 408.38 156.33 445 156.33 445h24.36s.7-36.61 17.69-64.32a29.84 29.84 0 0 1 10.73-10.81c9.14-5.35 22.48-8 34.72-9-4.28-.37-8.41-.53-12.19-.53z" transform="translate(0 -30)"/><path class="cls-3" d="M190.11 288.87c13.41 2.36 26.35 2.73 41.53 2.73 4.22 0 8.25 0 12.18-.13a191.86 191.86 0 0 1-29.35-2.61c-9.84-1.8-18.48-8.56-23.65-18.25C166.77 225.57 153 170.71 135.08 67h-24.36c17.88 103.74 31.7 158.59 55.74 203.65 5.17 9.66 13.81 16.42 23.65 18.22z" transform="translate(0 -30)"/><path class="cls-2" d="M393.11 36.97L362.5 414.99h24.36l30.6-378.02h-24.35z"/><path class="cls-1" d="M379.15 30H134.84C.26 30-1.59 72.14.34 123.41l10.33 274.82c1.75 46.54 37 83.77 78.7 83.77h333.26c41.72 0 76.95-37.23 78.7-83.77l10.33-274.82c1.93-51.27.07-93.41-132.51-93.41zm92.8 91.63l-10.33 274.82c-.86 23.19-18.36 42.06-39 42.06H89.36c-20.62 0-38.12-18.87-39-42.06L40 121.63c-.53-13.9 3.66-26.66 11.77-35.92 4.89-5.57 13.34-12.21 25.85-12.21h356.7c12.51 0 21 6.64 25.85 12.21 8.12 9.29 12.3 22.02 11.78 35.92z" transform="translate(0 -30)"/><path class="cls-3" d="M77.67 73.51H54.35c-12.51 0-21 6.64-25.85 12.21-8.11 9.26-12.3 22-11.77 35.92l10.33 274.81c.86 23.19 18.36 42.06 39 42.06h23.31c-20.62 0-38.12-18.87-39-42.06L40 121.63c-.53-13.9 3.66-26.66 11.77-35.92 4.94-5.57 13.39-12.2 25.9-12.2z" transform="translate(0 -30)"/><path class="cls-2" d="M379.15 30h-23.32c132.58 0 134.43 42.14 132.51 93.41L478 398.23c-1.75 46.54-37 83.77-78.7 83.77h23.33c41.72 0 76.95-37.23 78.7-83.77l10.33-274.82c1.93-51.27.07-93.41-132.51-93.41z" transform="translate(0 -30)"/></svg>