<svg id="Capa_1" data-name="Capa 1" xmlns="http://www.w3.org/2000/svg" viewBox="0 0 512 274"><defs><style>.cls-1{fill:#ccc}.cls-2{fill:#8c8c8c}</style></defs><title>hyundai</title><path class="cls-1" d="M256 119C114.62 119 0 180.34 0 256s114.62 137 256 137 256-61.33 256-137-114.62-137-256-137zm166.43 206.66c-34.79 18.63-79.09 30.61-127.48 34.8q-11.36 1-23 1.38-7.93.29-16 .29c-51.57 0-100.31-8.57-140.35-24.44q-9.41-3.72-18.16-8-4-2-7.91-4C52.29 305.71 30.9 280.32 30.9 256s21.39-49.71 58.67-69.67c33.2-17.76 75.06-29.5 120.87-34.17q11.19-1.16 22.66-1.72c7.55-.38 15.19-.58 22.89-.58 50.22 0 97.75 8.14 137.19 23.21q9.13 3.49 17.65 7.47c4 1.85 7.84 3.79 11.59 5.79 37.28 20 58.67 45.35 58.67 69.67s-21.38 49.71-58.66 69.66z" transform="translate(0 -119)"/><path class="cls-2" d="M256 119q-7.79 0-15.45.26c134.18 4.27 240.54 63.86 240.54 136.74S374.73 388.47 240.55 392.74q7.67.24 15.45.26c141.38 0 256-61.33 256-137S397.38 119 256 119z" transform="translate(0 -119)"/><path class="cls-1" d="M410.84 180.55c-32.35 55.94-91 143.29-115.89 179.92q-11.36 1-23 1.38c11-31.51 28.27-99.54-28.62-99.54-55.31 0-105.72 50.05-127.69 75.39q-9.41-3.72-18.16-8c44.67-85 91.81-149.95 113-177.54q11.19-1.16 22.66-1.72c-12.78 32.4-23.93 83.56 32.73 83.56 56.41 0 103.17-37.13 127.32-60.89q9.13 3.45 17.65 7.44z" transform="translate(0 -119)"/><path class="cls-2" d="M393.19 173.08c-4.27 4.21-9.27 8.83-14.89 13.6C350 234.85 305 302.61 277.73 343.09c-1.84 7-3.9 13.39-5.78 18.75q11.62-.39 23-1.38c24.86-36.62 83.54-124 115.89-179.92q-8.52-3.98-17.65-7.46z" transform="translate(0 -119)"/></svg>