<svg id="Capa_1" data-name="Capa 1" xmlns="http://www.w3.org/2000/svg" viewBox="0 0 512 238"><defs><style>.cls-1{fill:#ccc}.cls-2{fill:#8c8c8c}.cls-3{fill:#a6a6a6}</style></defs><title>infiniti</title><path class="cls-1" d="M256 137C114.6 137 0 190.86 0 257.36 0 315 85.95 363.12 200.88 375a3.11 3.11 0 0 0 3.13-1.78l49.19-106a3.1 3.1 0 0 1 5.61 0l49.19 106a3.11 3.11 0 0 0 3.13 1.78C426.05 363.12 512 315 512 257.36 512 190.86 397.4 137 256 137zm109.63 176.14l-107.37-115a3.1 3.1 0 0 0-4.52 0l-107.37 115c-60.92-5.86-101.2-39.2-101.2-69.18 0-38.7 86.63-81.83 210.83-81.83S466.83 205.26 466.83 244c0 29.94-40.28 63.28-101.2 69.14z" transform="translate(0 -137)"/><path class="cls-2" d="M364.71 313.33l.92-.19-107.37-115a3.1 3.1 0 0 0-4.52 0l-10.62 11.37 85.87 92a38.92 38.92 0 0 0 35.72 11.82z" transform="translate(0 -137)"/><path class="cls-3" d="M204.53 316.61l-25.8 55.58q10.88 1.62 22.15 2.79a3.1 3.1 0 0 0 3.13-1.78l52-112-2.8 6c-22.6 12.65-37.81 26-48.68 49.41z" transform="translate(0 -137)"/><path class="cls-2" d="M256 137q-6.48 0-12.88.15c135.41 3.15 243.12 55.74 243.12 120.21 0 53.83-75.08 99.41-178.73 114.83l.47 1a3.11 3.11 0 0 0 3.13 1.78C426.05 363.12 512 315 512 257.36 512 190.86 397.4 137 256 137z" transform="translate(0 -137)"/></svg>