<svg id="Capa_1" data-name="Capa 1" xmlns="http://www.w3.org/2000/svg" viewBox="0 0 512 206"><defs><style>.cls-1{fill:#202738}.cls-2{fill:#191e2b}</style></defs><title>jeep</title><path class="cls-1" d="M124.3 153H79a4 4 0 0 0-4 4v116.39s-1 13.36-13 13.36-12.88-13.36-12.88-13.36v-26.7a4 4 0 0 0-4-4H4a4 4 0 0 0-4 4v33.73S2.58 327 63.22 327c63 0 64.88-57.35 64.88-57.35l.2-112.65a4 4 0 0 0-4-4zm76.94 69.4c9.68 0 16.94 7.47 18.34 17.06a3 3 0 0 1-3 3.38h-35.26a1 1 0 0 1-1-1.07c.35-4.22 2.86-19.37 20.92-19.37zM257 267.56a3 3 0 0 0 3-3.08c-.81-46.36-20.08-72-62.31-72-34.76 0-57.54 33-57.54 68.92 0 41.49 26.37 65 61.14 65 23.83 0 45.52-11.1 54.88-34.87a3 3 0 0 0-2.78-4.14h-33.23a3 3 0 0 0-2.35 1.14c-3.81 4.83-10.44 7.47-16.57 7.47-12.13 0-19.19-12-21.18-25.07a3 3 0 0 1 3-3.41zm71.14-45.16c9.68 0 16.94 7.47 18.34 17.06a3 3 0 0 1-3 3.38h-35.26a1 1 0 0 1-1-1.07c.35-4.22 2.86-19.37 20.92-19.37zm55.71 45.16a3 3 0 0 0 3-3.08c-.81-46.36-20.08-72-62.31-72-34.76 0-57.54 33-57.54 68.92 0 41.49 26.37 65 61.14 65 23.83 0 45.52-11.1 54.88-34.87a3 3 0 0 0-2.78-4.14h-33.18a3 3 0 0 0-2.35 1.14c-3.8 4.85-10.44 7.52-16.57 7.52C316 296 309 284 307 271a3 3 0 0 1 3-3.41zm81.04-75.12c-25.64 0-33.47 16.72-33.47 16.72v-10.63a3 3 0 0 0-3-3h-35.53a3 3 0 0 0-3 3V356a3 3 0 0 0 3 3h36.76a3 3 0 0 0 3-3v-50.25c9.52 18 31.62 16.72 31.62 16.72s47.73-.77 47.73-64.4-38.37-65.63-47.11-65.63zm-14.57 93.81c-14.56 0-19.57-12.67-19.57-28.29s5.8-28.3 19.57-28.3S469.9 242.32 469.9 258s-5.02 28.25-19.58 28.25z" transform="translate(0 -153)"/><path class="cls-2" d="M102.56 153l-.21 116.64s-1.66 49.52-52.43 56.52a102.69 102.69 0 0 0 13.31.83c63 0 64.88-57.35 64.88-57.35L128.3 157a4 4 0 0 0-4-4h-21.74zm85.8 172.23a71.44 71.44 0 0 0 12.88 1.15c23.83 0 45.52-11.1 54.88-34.87a3 3 0 0 0-2.78-4.14h-21.51c-6.93 21.98-23.67 34.25-43.47 37.86zm45.87-57.67H257a3 3 0 0 0 3-3.08c-.81-46.36-20.08-72-62.31-72a52.06 52.06 0 0 0-11.06 1.19c32.8 5.62 47.6 31.47 47.6 73.89zm126.9 0h22.73a3 3 0 0 0 3-3.08c-.81-46.36-20.08-72-62.31-72a52.06 52.06 0 0 0-11.06 1.19c32.84 5.62 47.64 31.47 47.64 73.89zm-45.87 57.67a71.44 71.44 0 0 0 12.88 1.15c23.83 0 45.52-11.1 54.88-34.87a3 3 0 0 0-2.78-4.14h-21.51c-6.93 21.98-23.67 34.25-43.47 37.86zm149.63-132.79a48.77 48.77 0 0 0-13.19 1.71c14.42 4.08 34.55 17.84 34.55 63.92 0 43.32-22.12 57.5-36.24 62.14a41.09 41.09 0 0 0 14.27 2.26s47.72-.77 47.72-64.4-38.37-65.63-47.11-65.63z" transform="translate(0 -153)"/></svg>