<svg id="Capa_1" data-name="Capa 1" xmlns="http://www.w3.org/2000/svg" viewBox="0 0 512 268"><defs><style>.cls-1{fill:#e82934}.cls-2{fill:#c7232c}</style></defs><title>kia</title><path class="cls-1" d="M256 122C114.61 122 0 182 0 256s114.61 134 256 134 256-60 256-134-114.61-134-256-134zm1.07 237.33C128.9 359.33 25 313.36 25 256.66S128.9 154 257.08 154s232.08 46 232.08 102.68-103.9 102.65-232.08 102.65z" transform="translate(0 -122)"/><path class="cls-1" d="M337.51 208.88c0-1.49-2.53-2.73-2.53-2.73h-2.41a1 1 0 0 1-1-1v-12.73a1 1 0 0 1 1-1H379c1.39 0 2.72.3 3.18 1.81 0 0 40.4 124.33 40.4 124.56a2.29 2.29 0 0 1-2.23 2.37h.05-29.1a3.87 3.87 0 0 1-3.35-2.73L363 237.46c-.17-.69-.58-1.27-1.28-1.27s-1.11.52-1.27 1.27l-24.91 79.92a3.89 3.89 0 0 1-3.36 2.73h-29a2.33 2.33 0 0 1-2.26-2.38c-.01-.26 36.59-108.47 36.59-108.85zm-96.19-.6a2.64 2.64 0 0 0-2.61-2.66h-3.85a.53.53 0 0 1-.52-.54v-13.21a.54.54 0 0 1 .52-.54h38.49a2.63 2.63 0 0 1 2.55 2.67v123.39a2.63 2.63 0 0 1-2.54 2.7h-29.51a2.62 2.62 0 0 1-2.54-2.7zm-24.98 111.8h-34a6.29 6.29 0 0 1-4.41-2.72s-34.49-49.79-34.93-50.14a1.76 1.76 0 0 0-1-.29 1.45 1.45 0 0 0-1.4 1.64v48.82a2.62 2.62 0 0 1-2.54 2.7h-28.5a2.62 2.62 0 0 1-2.54-2.7V208.64a2.6 2.6 0 0 0-2.52-2.7h.07-4a.53.53 0 0 1-.51-.54v-13.53a.53.53 0 0 1 .51-.55h37.59a2.63 2.63 0 0 1 2.54 2.71V235a1.46 1.46 0 0 0 1.4 1.65 1.85 1.85 0 0 0 1-.3c.37-.34 5.68-7.9 5.68-7.9l23.42-34.37a6.31 6.31 0 0 1 4.42-2.71h32.52a2.27 2.27 0 0 1 2.19 2.38 2.58 2.58 0 0 1-.34 1.33l-36 55a2.68 2.68 0 0 0-.6 1.67 2.35 2.35 0 0 0 .55 1.58l43 62.76a2.2 2.2 0 0 1 .54 1.58 2.29 2.29 0 0 1-2.14 2.41z" transform="translate(0 -122)"/><path class="cls-2" d="M256 122q-6.54 0-13 .17c118.32 3.1 215.47 48.25 238 107.48 5.29 8.61 8.13 17.66 8.13 27 0 10.17-3.36 20-9.59 29.28-25.02 57.46-120.62 100.86-236.54 103.9q6.46.17 13 .17c141.39 0 256-60 256-134S397.39 122 256 122z" transform="translate(0 -122)"/></svg>