<svg id="Capa_1" data-name="Capa 1" xmlns="http://www.w3.org/2000/svg" viewBox="0 0 512 350"><defs><style>.cls-1{fill:#ccc}.cls-2{fill:#a6a6a6}.cls-3{fill:#8c8c8c}</style></defs><title>lexus</title><path class="cls-1" d="M470.94 294.85c-6.77 21.62-19.46 41.65-36.79 59h-274c-60.24 0-40.5-45.27-40.5-45.27 34-72.18 114.17-177.75 142.62-214.31A284.28 284.28 0 0 1 352 110.88c-63.72 71.52-119.69 142.4-142.58 171.9a8.81 8.81 0 0 0 7 14.19z" transform="translate(0 -81)"/><path class="cls-2" d="M283.18 99.46a25.74 25.74 0 0 1 14.61 42.09c-52.17 60.37-96 116-115.63 141.23a8.81 8.81 0 0 0 7 14.19l21.11-.18a1 1 0 0 0 .61-1.76 8.72 8.72 0 0 1-1.5-12.26C232.19 253.43 287.71 183.13 351 112a1 1 0 0 0-.4-1.6 284.59 284.59 0 0 0-87.82-16.09 1 1 0 0 0-.82.38 1 1 0 0 0 .67 1.59q10.37 1.23 20.55 3.18z" transform="translate(0 -81)"/><path class="cls-3" d="M443.39 295.75c-6.61 20.58-18.6 39.71-34.85 56.42a1 1 0 0 0 .7 1.68h24.49a1 1 0 0 0 .71-.3c16.83-16.93 29.26-36.4 36.08-57.4a1 1 0 0 0-1-1.3l-25.25.21a1 1 0 0 0-.88.69z" transform="translate(0 -81)"/><path class="cls-1" d="M256 81C114.62 81 0 159.35 0 256s114.62 175 256 175 256-78.35 256-175S397.38 81 256 81zm206 210.27c-6.42 20.53-18.48 39.56-34.93 56-38.46 38.76-100.75 64-171.06 64C139.23 411.26 44.46 341.75 44.46 256S139.23 100.73 256 100.73c2.64 0 5.19 0 7.83.08A269.86 269.86 0 0 1 349 116.59c70.22 25.2 118.52 78.14 118.52 139.44a115.33 115.33 0 0 1-5.52 35.24z" transform="translate(0 -81)"/><path class="cls-2" d="M243.51 101q-2.71-.12-5.43-.19c-2.64-.08-5.19-.08-7.83-.08-116.77 0-211.54 69.51-211.54 155.3s94.77 155.23 211.54 155.23q6.55 0 13-.29C132.41 406.12 44.46 338.6 44.46 256s88.08-150.24 199.05-155z" transform="translate(0 -81)"/><path class="cls-3" d="M256 81q-6.48 0-12.88.22C378.52 85.81 486.24 162.3 486.24 256S378.52 426.19 243.12 430.78q6.4.22 12.88.22c141.38 0 256-78.35 256-175S397.38 81 256 81z" transform="translate(0 -81)"/></svg>