<svg id="Capa_1" data-name="Capa 1" xmlns="http://www.w3.org/2000/svg" viewBox="0 0 484.1 442.8"><defs><style>.cls-1{fill:#ed664c}.cls-2{fill:#fdc75b}</style></defs><title>logo</title><path class="cls-1" d="M473.6 315.75V380a31.6 31.6 0 0 1-31.6 31.6h-15.9c.1-1.2.1-2.4.1-3.7a45.3 45.3 0 0 0-90.6 0c0 1.2.1 2.5.2 3.7h-65.5V302h200.3a34.24 34.24 0 0 1 3 13.75z" transform="translate(0 -20.65)"/><path class="cls-2" d="M470.5 302H368.8l-38-81.7v-.5h42.3a32.08 32.08 0 0 1 21.6 8.5l68.9 64.3a34.51 34.51 0 0 1 6.9 9.4zm-44.3 106c0 1.2 0 2.5-.1 3.7a45.35 45.35 0 0 1-90.4 0c-.1-1.2-.2-2.4-.2-3.7a45.35 45.35 0 0 1 90.7 0zM406 69.65l-39.4-3.3-.2.3a31.36 31.36 0 0 0 .2 38.2l39.2-3c-7 27.8-28.5 41.5-54 41.5-23.4.2-43.6-15.3-52.2-33.6H186c-7.4 24.6-28.8 39-54.3 39s-47.1-14.1-54.3-39l39.4 3.3.2-.3a31.36 31.36 0 0 0-.2-38.2l-39.2 3c6.5-28.3 28.1-42 53.6-42 23.2 0 43.6 15.3 52.4 33.9h114.1c7.4-24.6 28.8-39 54.3-39 25.3.2 46.9 14.4 54 39.2z" transform="translate(0 -20.65)"/><path class="cls-2" d="M330.8 199.6l38 81.7h-98.6v-82.2h60.6v.5z"/><path class="cls-1" d="M270.2 302v109.6H148.9c.1-1.2.1-2.4.1-3.7a45.3 45.3 0 0 0-90.6 0c0 1.2.1 2.5.2 3.7H42A31.6 31.6 0 0 1 10.4 380v-25.3A52.71 52.71 0 0 1 63.1 302h52.2c1.2 0 2.5-.1 3.7-.2v.2z" transform="translate(0 -20.65)"/><path class="cls-2" d="M270.2 219.75V302H118.9v-.2a31.58 31.58 0 0 0 19.4-9.8l58.2-62.2a31.54 31.54 0 0 1 23.1-10h50.6zM149 408c0 1.2-.1 2.5-.1 3.7a45.35 45.35 0 0 1-90.4 0c-.1-1.2-.2-2.4-.2-3.7a45.35 45.35 0 0 1 90.7 0z" transform="translate(0 -20.65)"/><path d="M470.4 285.35l-68.9-64.3a41.48 41.48 0 0 0-28.4-11.2H355v-27h16.9a10 10 0 0 0 0-20H220.1a10 10 0 0 0 0 20H237v27h-17.4A42.07 42.07 0 0 0 189.2 223L131 285.15a21.72 21.72 0 0 1-13.3 6.6 20.08 20.08 0 0 1-2.5.1H63.1c-34.6 0-63.1 28.3-63.1 62.8V380a42.23 42.23 0 0 0 42 41.9h8.1a55.33 55.33 0 0 0 107.2 0h170.1a55.33 55.33 0 0 0 107.2 0h7.5a42.23 42.23 0 0 0 42-41.9v-64.3a41.46 41.46 0 0 0-4.3-18 43.3 43.3 0 0 0-9.4-12.35zm-82.5-49.8l60.4 56.3h-73.2l-28.9-62h26.9a21.75 21.75 0 0 1 14.8 5.7zm-63.7-5.7l28.9 62H280v-62zm-67.2-47h78v27h-78zm-53.2 53.7a21.38 21.38 0 0 1 15.8-6.7H260v62H152zm-64.9 174.3a35.32 35.32 0 0 1-70.4 0 27.15 27.15 0 0 1-.1-2.9 35.3 35.3 0 0 1 70.6 0c0 .9-.1 1.9-.1 2.9zm-35.3-58a55.08 55.08 0 0 0-55 49H42A22.17 22.17 0 0 1 20 380v-25.3c0-23.5 19.5-42.8 43.1-42.8h52.2c1.3 0 2.8.1 3.8 0h141v90H158.6a55 55 0 0 0-55-49.05zm312.5 58a35.32 35.32 0 0 1-70.4 0 27.15 27.15 0 0 1-.1-2.9 35.3 35.3 0 0 1 70.6 0c0 .9 0 1.9-.1 2.9zM464 380a22.24 22.24 0 0 1-22 21.9h-6.2a55.37 55.37 0 0 0-110 0H280v-90h183.3a20.94 20.94 0 0 1 .7 3.9zM78.3 99.75a10 10 0 0 0-10.5 12.7 62.65 62.65 0 0 0 24.1 34.2 69 69 0 0 0 39.7 12c28.1 0 51-14.9 61.3-38.9h100.7c10.6 17 31.3 33.6 57.5 33.6h.6c15.1 0 28.9-4.2 39.9-12.3 11.7-8.6 20-21.3 23.9-36.8a10 10 0 0 0-2.1-8.9 9.74 9.74 0 0 0-8.4-3.5l-33.1 2.6a21.59 21.59 0 0 1 0-17.6l33.3 2.8a10 10 0 0 0 10.5-12.7 62.16 62.16 0 0 0-24.1-34.2c-11.2-7.9-24.8-11.9-39.6-12.1-28.1 0-51 14.2-61.3 39.2H189.6c-12.3-21-35-34.1-58.4-34.1-15.2 0-29 4.2-39.9 12.2-11.7 8.7-19.8 21.6-23.4 37.3a10 10 0 0 0 10.5 12.1l33.1-2.6a21.59 21.59 0 0 1 0 17.6zm46.4-31.4a10 10 0 0 0-8.7-3.8l-23.6 1.8c7.6-13.4 21.1-20.8 38.7-20.8s35.5 11.8 43.4 28.4a10.23 10.23 0 0 0 9 5.9h114.1a10.27 10.27 0 0 0 9.6-7.3c5.9-19.6 23.1-32 44.6-32 15.9.1 29.2 6.6 37.5 17.7l-22-1.9a10.06 10.06 0 0 0-8.8 3.9l-.3.3a41.41 41.41 0 0 0 .3 50.4c.3.3.5.6.8.9a9.94 9.94 0 0 0 7.8 2.9l23.2-1.8c-7.8 13.1-21.4 20.3-38.9 20.3-20.5.2-36.7-14.3-43-27.8a10 10 0 0 0-9.1-5.7H186a10 10 0 0 0-9.6 7.1c-5.9 19.6-23.1 31.8-44.7 31.8-15.9 0-29.4-6.5-37.7-17.5l22 1.8a10.06 10.06 0 0 0 8.8-3.9l.3-.3a41.27 41.27 0 0 0-.4-50.4z" transform="translate(0 -20.65)"/></svg>