<svg id="Capa_1" data-name="Capa 1" xmlns="http://www.w3.org/2000/svg" viewBox="0 0 512 434"><defs><style>.cls-1{fill:#ccc}.cls-2{fill:#a6a6a6}.cls-3{fill:#8c8c8c}.cls-4{fill:#737474}</style></defs><title>mazda</title><path class="cls-1" d="M325 39H187C83.71 39 0 122.57 0 225.67v60.66C0 389.43 83.71 473 187 473h138c103.27 0 187-83.57 187-186.67v-60.66C512 122.57 428.29 39 325 39zm132.53 270.18c0 73-59.25 132.1-132.33 132.1H186.79c-73.08 0-132.33-59.14-132.33-132.1V202.82c0-73 59.25-132.1 132.33-132.1h138.42c73.08 0 132.33 59.15 132.33 132.1z" transform="translate(0 -39)"/><path class="cls-2" d="M186.79 70.72H161c-73 0-132.29 59.14-132.29 132.1v106.36c0 73 59.25 132.1 132.33 132.1h25.76c-73.08 0-132.33-59.14-132.33-132.1V202.82c0-72.96 59.24-132.1 132.32-132.1z" transform="translate(0 -39)"/><path class="cls-3" d="M325 39h-25.74c103.28 0 187 83.57 187 186.67v60.66c0 103.1-83.71 186.67-187 186.67H325c103.27 0 187-83.57 187-186.67v-60.66C512 122.57 428.29 39 325 39z" transform="translate(0 -39)"/><path class="cls-3" d="M469.66 169.13c-.47 16.29-4.11 33.1-14.72 43.82-4.26 4.31-10.18 7.95-17.36 11.18-30.87 13.93-84.94 20.44-129 42-24.81 12.2-41.56 52.31-48.69 72.7a4.12 4.12 0 0 1-7.78 0c-7.13-20.39-23.88-60.49-48.69-72.7-54.3-26.52-123.8-30.27-146.36-53.15-10.61-10.73-14.25-27.53-14.72-43.82-.51-16.72 2.21-33 4.07-42a4.12 4.12 0 0 1 6.81-2.21c9.73 8.82 33.85 28 77.35 47.53 55.4 25 110.88 54.83 123.49 105.43a2 2 0 0 0 3.87 0c12.61-50.61 68.09-80.47 123.49-105.43a368 368 0 0 0 49.18-26.37 218.18 218.18 0 0 0 28.19-21.17 4.11 4.11 0 0 1 6.79 2.21c1.87 8.98 4.59 25.26 4.08 41.98z" transform="translate(0 -39)"/><path class="cls-4" d="M469.66 169.13c-.47 16.29-4.11 33.1-14.72 43.82-4.26 4.31-10.18 7.95-17.36 11.18 6.39-30 1.27-49.16-1-59.3a156.32 156.32 0 0 0-6-18.74 218.19 218.19 0 0 0 28.18-21.17 4.12 4.12 0 0 1 6.8 2.21c1.89 9.01 4.61 25.28 4.1 42z" transform="translate(0 -39)"/><path class="cls-1" d="M469.66 169.13a319.67 319.67 0 0 1-29.45 16.39c-29.32 14.5-62.55 26.36-94 35.63-60 17.73-82.34 61.54-88.39 76.55a2 2 0 0 1-3.71 0c-6.05-15-28.41-58.82-88.39-76.55-42.54-12.56-88.43-29.87-123.42-52-.51-16.72 2.21-33 4.07-42a4.12 4.12 0 0 1 6.81-2.21c9.73 8.82 33.85 28 77.36 47.53 55.4 25 110.88 54.83 123.49 105.43a2 2 0 0 0 3.87 0c12.61-50.61 68.09-80.47 123.49-105.43a368 368 0 0 0 49.18-26.37 218.18 218.18 0 0 0 28.19-21.17 4.11 4.11 0 0 1 6.79 2.21c1.9 8.99 4.62 25.27 4.11 41.99z" transform="translate(0 -39)"/><path class="cls-2" d="M469.66 169.13a319.67 319.67 0 0 1-29.45 16.39 149.19 149.19 0 0 0-3.62-20.69 156.32 156.32 0 0 0-6-18.74 218.19 218.19 0 0 0 28.18-21.17 4.12 4.12 0 0 1 6.8 2.21c1.88 9.01 4.6 25.28 4.09 42z" transform="translate(0 -39)"/></svg>