<svg id="Capa_1" data-name="Capa 1" xmlns="http://www.w3.org/2000/svg" viewBox="0 0 512 512"><defs><style>.cls-1{fill:#ccc}.cls-2{fill:#8c8c8c}.cls-3{fill:#e3e3e3}</style></defs><title>mercedes-benz</title><path class="cls-1" d="M256 0C114.67 0 0 114.6 0 256s114.67 256 256 256 256-114.6 256-256S397.33 0 256 0zm0 476c-121.28 0-219.94-98.72-219.94-220S134.72 36 256 36s219.94 98.68 219.94 220S377.27 476 256 476z"/><path class="cls-2" d="M256 0c-6.06 0-12.07.23-18 .64 132.92 9.26 238 120 238 255.32S371 502.1 238 511.36c6 .41 12 .64 18 .64 141.33 0 256-114.6 256-256S397.33 0 256 0z"/><path class="cls-2" d="M449.41 364.62v.06a.61.61 0 0 1-.34.26l-2.24-.86-188.72-71.43a6 6 0 0 0-4.25 0L65.23 364.08l-2.28.87a.64.64 0 0 1-.32-.24.09.09 0 0 1 0-.07.7.7 0 0 1 0-.52l1.65-1.5L211 230.08a6 6 0 0 0 1.84-3.15l42.04-189.72.09-.4.26-1.23a1.07 1.07 0 0 1 .47-.48.5.5 0 0 1 .3-.1.58.58 0 0 1 .26.06 1.09 1.09 0 0 1 .49.53l.26 1.15.09.43 42.06 189.71a6 6 0 0 0 1.84 3.15l146.77 132.5 1.68 1.52a.69.69 0 0 1-.04.57z"/><path class="cls-3" d="M256 35v210.2L65.5 362.82l-2.91 1.79a.7.7 0 0 1 0-.52l1.65-1.5L211 230.08a6 6 0 0 0 1.84-3.15l42.04-189.72.09-.4.26-1.23a1.07 1.07 0 0 1 .47-.48.5.5 0 0 1 .3-.1z"/><path class="cls-1" d="M449.41 364.62l-2.91-1.8L256 245.23V35a.58.58 0 0 1 .26.06 1.09 1.09 0 0 1 .49.53l.24 1.1.1.46 42.07 189.72a6 6 0 0 0 1.84 3.15l146.78 132.57 1.68 1.51a.68.68 0 0 1-.05.52z"/></svg>