<svg id="Capa_1" data-name="Capa 1" xmlns="http://www.w3.org/2000/svg" viewBox="0 0 512 464.06"><defs><style>.cls-1{fill:#a6a6a6}.cls-2{fill:#8c8c8c}.cls-3{fill:#ccc}</style></defs><title>nissan</title><path class="cls-1" d="M256 24C127.85 24 24 127.85 24 256s103.85 232 232 232 232-103.86 232-232S384.15 24 256 24zm0 412.5A180.47 180.47 0 1 1 436.46 256 180.47 180.47 0 0 1 256 436.47z" transform="translate(0 -23.97)"/><path class="cls-2" d="M243.1 76c-4.26-.3-8.56-.46-12.89-.46a180.47 180.47 0 1 0 0 360.93c4.34 0 8.63-.16 12.89-.46a180.46 180.46 0 0 1 0-360zM256 24q-6.49 0-12.89.36C365.26 31 462.24 132.18 462.24 256s-97 225-219.14 231.67q6.4.35 12.89.36c128.15 0 232-103.89 232-232S384.15 24 256 24z" transform="translate(0 -23.97)"/><path class="cls-3" d="M508 325H4a4 4 0 0 1-4-4V191a4 4 0 0 1 4-4h504a4 4 0 0 1 4 4v130a4 4 0 0 1-4 4z" transform="translate(0 -23.97)"/><path class="cls-1" d="M508 325h-21.75V187H508a4 4 0 0 1 4 4v130a4 4 0 0 1-4 4z" transform="translate(0 -23.97)"/><path class="cls-2" d="M96.26 210.14a7.51 7.51 0 0 0-7.5 7.52v54.17l-44-58.69a7.5 7.5 0 0 0-13.49 4.52v76.68a7.5 7.5 0 1 0 15 0v-54.18l44 58.69a7.5 7.5 0 0 0 13.5-4.52v-76.67a7.51 7.51 0 0 0-7.51-7.52zm377 0a7.51 7.51 0 0 0-7.5 7.52v54.17l-44-58.69a7.5 7.5 0 0 0-13.49 4.52v76.68a7.5 7.5 0 1 0 15 0v-54.18l44 58.69a7.5 7.5 0 0 0 13.49-4.52v-76.67a7.51 7.51 0 0 0-7.5-7.52zm-343.91 0a7.51 7.51 0 0 0-7.5 7.52v76.68a7.5 7.5 0 1 0 15 0v-76.68a7.51 7.51 0 0 0-7.5-7.52zm52.39 15.04h38.4a7.52 7.52 0 0 0 0-15h-38.4a26.69 26.69 0 0 0 0 53.37H201a11.65 11.65 0 0 1 0 23.3h-38.4a7.52 7.52 0 0 0 0 15H201a26.68 26.68 0 0 0 0-53.37h-19.26a11.65 11.65 0 0 1 0-23.31zm84.69 0h38.4a7.52 7.52 0 0 0 0-15h-38.4a26.69 26.69 0 0 0 0 53.37h19.27a11.65 11.65 0 0 1 0 23.3h-38.4a7.52 7.52 0 0 0 0 15h38.4a26.68 26.68 0 0 0 0-53.37h-19.27a11.65 11.65 0 0 1 0-23.31zm94.32-15.04a36.34 36.34 0 0 0-36.26 36.34v47.85a7.5 7.5 0 1 0 15 0v-30.82H382v30.82a7.5 7.5 0 1 0 15 0v-47.85a36.34 36.34 0 0 0-36.25-36.34zm-21.26 38.34v-2a21.26 21.26 0 1 1 42.53 0v2z" transform="translate(0 -23.97)"/></svg>