<svg id="Capa_1" data-name="Capa 1" xmlns="http://www.w3.org/2000/svg" viewBox="0 0 512 444"><defs><style>.cls-1{fill:#ccc}.cls-2{fill:#8c8c8c}.cls-3{fill:#a6a6a6}</style></defs><title>opel</title><path id="SVGCleanerId_0" data-name="SVGCleanerId 0" class="cls-1" d="M256 34C133.38 34 34 133.39 34 256s99.38 222 222 222 222-99.39 222-222S378.61 34 256 34zm0 402.7c-99.64 0-180.7-81.06-180.7-180.7S156.36 75.3 256 75.3 436.7 156.36 436.7 256 355.63 436.7 256 436.7z" transform="translate(0 -34)"/><path id="SVGCleanerId_0-2" data-name="SVGCleanerId 0" class="cls-1" d="M256 34C133.38 34 34 133.39 34 256s99.38 222 222 222 222-99.39 222-222S378.61 34 256 34zm0 402.7c-99.64 0-180.7-81.06-180.7-180.7S156.36 75.3 256 75.3 436.7 156.36 436.7 256 355.63 436.7 256 436.7z" transform="translate(0 -34)"/><path class="cls-2" d="M256 34c-4.33 0-8.63.14-12.91.38 116.6 6.69 209.1 103.35 209.1 221.62s-92.5 214.93-209.09 221.62c4.27.24 8.57.38 12.91.38 122.61 0 222-99.39 222-222S378.61 34 256 34z" transform="translate(0 -34)"/><path class="cls-3" d="M511.89 271.54l-5.75 24.72a4.14 4.14 0 0 1-4 3.18H154.23a3.57 3.57 0 0 1-3.48-2.74 3.33 3.33 0 0 1-.1-.84 3.54 3.54 0 0 1 1.05-2.52 2.43 2.43 0 0 1 .34-.3l49.9-42.28a2 2 0 0 0-1.25-3.53L4.07 243.44a4.1 4.1 0 0 1-3.78-5.59L10.9 211a4.16 4.16 0 0 1 3.82-2.61l283.88-3.08 53.72-.58a3.57 3.57 0 0 1 3.37 2.37 3.4 3.4 0 0 1 .21 1.2 3.52 3.52 0 0 1-1 2.42l-.35.34-50.24 47.82a2 2 0 0 0 1.34 3.45l202.28 4.14a4.12 4.12 0 0 1 3.96 5.07z" transform="translate(0 -34)"/><path class="cls-1" d="M355.68 207.13l-6.53 2.87-192 83.9-6.45 2.81a3.33 3.33 0 0 1-.1-.84 3.54 3.54 0 0 1 1.05-2.52 2.43 2.43 0 0 1 .34-.3l49.9-42.28a2 2 0 0 0 .59-2.19l96.07-43.23 53.72-.58a3.57 3.57 0 0 1 3.41 2.36z" transform="translate(0 -34)"/><path class="cls-2" d="M355.89 208.33a3.52 3.52 0 0 1-1 2.42l-.35.34-50.24 47.82a2 2 0 0 0-.5 2.15l-60.68 38.36h-88.89a3.57 3.57 0 0 1-3.48-2.74l6.45-2.81 192-83.9 6.53-2.86a3.4 3.4 0 0 1 .16 1.22z" transform="translate(0 -34)"/></svg>