<svg id="Capa_1" data-name="Capa 1" xmlns="http://www.w3.org/2000/svg" viewBox="0 0 512 512"><defs><style>.cls-1{fill:#2c44bf}.cls-2{fill:#263aa3}.cls-3{fill:#ccc}.cls-4{fill:#a6a6a6}.cls-5{fill:#8c8c8c}</style></defs><title>peugeot</title><path class="cls-1" d="M508 512H4a4 4 0 0 1-4-4V4a4 4 0 0 1 4-4h504a4 4 0 0 1 4 4v504a4 4 0 0 1-4 4z"/><path class="cls-1" d="M508 512H4a4 4 0 0 1-4-4V4a4 4 0 0 1 4-4h504a4 4 0 0 1 4 4v504a4 4 0 0 1-4 4z"/><path class="cls-2" d="M486.24 0v512H508a4 4 0 0 0 4-4V4a4 4 0 0 0-4-4z"/><path class="cls-3" d="M472.31 448c-8.4-25-42.24-87.85-68.8-123.19-5.75-7.71-3.6-11.66-.52-14.14s21.94-6.84 33.64-20.21c11.85-13.54 14-40.08 5.67-62.19-8.3-21.92-60.3-101.62-53.22-123.84 4.11-13 11.56-13.28 16.73-13.23 2.15 3.08 5.3 16.9 10.79 31.45 8.77 23.15 31.24 38.26 38.34 41.31 4.95 2.16 5.81-1.69 5.38-3.53s-7.76-30.52-13.25-52.09c-5.75-22.6-8.65-27.49-13.74-32.29-8.14-7.71-20.53-11.85-31-11.48-23.35.93-33.7 23.49-35 25.59-1.12 1.86-1.56 3.19-3.9 1.56C356.77 87 330.27 49.64 317.39 44c-23-10.13-65.73-16.13-76.24-14.17-17.85 3.34-28.8 7.45-42.21 14.48-7.41 3.92-8.27 6.53-9.71 8.4-1.09 1.43-2.3 3.19-5 4.08-4.45 1.44-21 7.62-26.7 10.93-3.53 2-5.46 4.22-3.65 8.22 3.16 7.07 12.7 21.79 16.87 25.5 2.52 2.21 14.34.74 17.31-1.35 4.42-3.11 12.7-5.26 17.1-5.67 3.37-.29 5.43-.4 7.16.86s5.72 5.52 7.1 9.8.51 5.87-1.87 6.87c-1.79.76-21.69 8-31.45 11.58a4.7 4.7 0 0 0-2.36 6.92c3.37 5.4 9 13.4 13.2 14.68 5.14 1.58 7.87-.09 13.68-4.23 5.15-3.73 8.51-3.71 10-2.67s4.66 3.82 3.85 6.47c-1.36 4.56-10.61 15.52-12.39 17.76s-8.08 7.35-11.08 5.91l-.37-.18a2.72 2.72 0 0 0-.3-.13c-10.19-4.63-111.23-48.82-123.95-47.23-4.73.59-24.07 19.77-24.67 25.7-.42 4.26 4.32 13 4.83 13.57s1.38 1.83 4 1.54 9.17-3.68 17-2.33c7.11 1.24 7.82 6.82 8.17 11.07a2.86 2.86 0 0 0 3 2.35 26.5 26.5 0 0 1 12.36 2.5c6.32 3 18.77 12.65 20.68 14.8 1.58 1.73 1.46 3.31-1.49 3.6-15.84 1.41-39.91 6.13-51.06 9.78-5.29 1.73-11.23 3.88-15.56 6.85a16 16 0 0 0-5 5c-3.74 6.49-8.45 16.93-9.81 24.34-1 5.41 6.7 13.29 10.93 17.16a4.84 4.84 0 0 0 5.57.7c4.4-2.37 12.92-6.51 19.29-6.88 5.43-.32 8.91 6.68 8.91 6.68a496 496 0 0 1 56-11c16.73-2.17 33.85-3.12 46.12-.65 11.59 11.84 27.9 34 27.9 34s-45.68 81.4-49.11 89c-2.57 5.71-4 37.66-4.36 48.82a4.54 4.54 0 0 1-3.95 4.34c-9.37 1.23-33.55 4.51-44.18 7.13-12.11 3-16.62 5.86-18.83 15.24A256.55 256.55 0 0 0 88.56 478c-.14 3.39 4.11 4.16 4.11 4.16s119.93 0 123.38.32c4.37.43 5.23-.08 4.95-3.13-.4-4-1.15-16.87-1.33-24.55s-1.38-15.47 5.55-22.94 59-65.6 61.89-68.57c2.5-2.52 4.2-5.22 8.08-1.69s46.8 34.52 55.52 40.85 16.81 8.46 26.73 8.6c7.07.13 9.05 12.48 3 13.65-6.18 1.17-15.62 3.1-22.2 4.61-10.14 2.38-13.25 5.69-16.3 12.53-2.62 5.78-5.49 34.15-5.57 36.62-.08 1.76 2.62 3.74 2.62 3.74s44.95.08 76 .17c15.64.05 27.75.11 28.86.17 3.6.27 3.95-.26 5.75-3.07 3.08-4.8 12.25-15.41 20.21-21.93 2.28-1.85 3.29-3.09 3.42-4.72a12.57 12.57 0 0 0-.92-4.82zm-93.58-171.63c-6.18 2-10.2.29-13.22-2.59s-27.6-32.45-35.51-41.51c-4-4.57-7-15 5-19.41 9.86-3.57 27.49-9.23 32.37-11.82s7.48-5.23 7.93-10.26.43-10.69.46-12.59 2.29-3.29 3.58-1.46a2 2 0 0 1 .17.28c.86 1.59 5.26 10.18 10.64 20.13 8.06 15 18.22 33.66 21.53 41.68 3.1 7.68 1.59 13.54-3.19 19.43-6.42 7.97-25.24 16.65-29.76 18.12z"/><path class="cls-3" d="M185.6 101.15a24.62 24.62 0 0 0-5.2-5.89c-1.73-1.27-3.79-1.15-7.16-.86a43.27 43.27 0 0 0-7.2 1.43 40.36 40.36 0 0 0 4.72 5.59c2.07 1.79 10.24 1.16 14.84-.27z"/><path class="cls-4" d="M469.88 457.48c-8 6.52-17.13 17.13-20.21 21.94-1.8 2.81-2.15 3.33-5.75 3.07-1.1-.06-13.21-.12-28.85-.17 1-.36 1.61-1.22 2.69-2.9C420.82 474.61 430 464 438 457.48c4-3.24 4.09-4.6 2.42-9.49-8.4-25-18-35.62-37.57-75.28-20.09-40.82-32.89-58 1.9-82.26 14.76-10.29 29.56-30 17.67-50.42-56.83-97.69-64-134.78-55-149.86.91-1.52 6.56-13.7 18.43-20.71a34.8 34.8 0 0 1 16.54-4.88c10.45-.37 22.85 3.77 31 11.48 5.09 4.8 8 9.68 13.75 32.28 5.49 21.57 12.81 50.25 13.24 52.09s-.43 5.7-5.37 3.53c-7.1-3.05-29.58-18.16-38.35-41.31-5.31-14.07-8.43-27.48-10.57-31.12-.07-.12-.13-.22-.2-.32-5.17-.05-12.62.27-16.73 13.23C382 126.65 434 206.36 442.3 228.26c8.37 22.1 6.18 48.65-5.67 62.19-11.69 13.37-30.63 17.72-33.63 20.21s-5.24 6.44.51 14.15c26.56 35.33 60.4 98.14 68.8 123.18 1.69 4.89 1.57 6.25-2.43 9.49z"/><path class="cls-3" d="M83.46 257.25S118.27 248 150.33 245c-20.16-2.92-50.79 1.83-72.6 6.24 3.57 1.69 5.73 6.01 5.73 6.01z"/><path class="cls-5" d="M454.94 164c-7.1-3.05-29.58-18.16-38.35-41.31-5.31-14.07-8.43-27.48-10.57-31.12-2.71-11.8-5-12.46-9-16.14-1.36-1.26-6.43-3.75-11.2-5.92a34.8 34.8 0 0 1 16.54-4.88c10.45-.37 22.85 3.77 31 11.48 5.09 4.8 8 9.68 13.75 32.28 5.49 21.57 12.81 50.25 13.24 52.09s-.47 5.65-5.41 3.52z"/><path class="cls-4" d="M379.35 176.74c-1.3-1.82-3.55-.36-3.58 1.46s-.05 7.56-.46 12.59-3 7.68-7.93 10.26-22.52 8.25-32.38 11.82c-12 4.43-9 14.84-5 19.41 7.91 9.05 32.49 38.63 35.51 41.51-6.29 3.51-28.12 8.75-48.36-22.42-13.74-21.16-9.37-42.27.61-50.21 4.86-3.87 26.15-10.05 37.4-17 10.35-6.42 18.41-16.92 24.19-7.42z"/><path class="cls-3" d="M190.24 139.55c.46.55.92 1.07 1.38 1.57a11.16 11.16 0 0 0-1.38-1.57z"/><path class="cls-5" d="M289.38 361c-7.65-5.64-33.33 11.08-41.88 19.17-3 2.85-39.2 42.18-46.1 49.68s-12.75 45.46-12.34 49.48c.15 1.59 0 2.49-.84 2.93 15.44 0 26.8.11 27.83.21 4.37.43 5.23-.09 4.94-3.14-.4-4-1.15-16.87-1.32-24.55s-1.38-15.47 5.55-22.94c5.29-5.79 48.29-53.31 64.16-70.84z"/><path class="cls-3" d="M169 168.37c3 1.44 9.4-3.8 11.07-5.93l1.93-2.38c-32.43-14-95.81-40.48-105.71-39.25-1.64.2-5 2.65-8.81 6 35.73 12.46 98.23 39.97 101.52 41.56zM51.53 257.25s-3-6-7.77-6.62a66.37 66.37 0 0 0 5.93 6.13 4.85 4.85 0 0 0 5.58.7c1.21-.65 2.74-1.44 4.44-2.24-5.13 1.22-8.18 2.03-8.18 2.03z"/><path class="cls-4" d="M473.33 452.77h-32s-269.12-275-365-331.95c12.72-1.59 113.76 42.61 123.95 47.23l.3.13.37.18S332 274.14 397.55 362.16l75.76 90.58zm-287.76-207.2c-12.27-2.47-29.39-1.52-46.12.65-26.28-13.49-63.16-27.66-85.91-36 4.33-3 10.26-5.12 15.56-6.85 11.15-3.65 35.21-8.37 51.06-9.78 3-.29 3.07-1.87 1.49-3.6zM221.6 78.43a7.5 7.5 0 0 1-2.43-14.6l10.75-3.68a7.5 7.5 0 0 1 4.86 14.19L224 78a7.5 7.5 0 0 1-2.4.43z"/></svg>