<svg id="Capa_1" data-name="Capa 1" xmlns="http://www.w3.org/2000/svg" viewBox="0 0 512 55"><defs><style>.cls-1{fill:#484c57}</style></defs><title>porsche</title><path class="cls-1" d="M62.33 228.59H7.5a7.5 7.5 0 0 0-7.5 7.5v39.66a7.5 7.5 0 0 0 15 0V267l47.28.29a7.5 7.5 0 0 0 7.5-7.5v-23.71a7.5 7.5 0 0 0-7.45-7.49zm-7.5 23.64L15 252v-8.39h39.83zm78.1-23.64H85.66a11.39 11.39 0 0 0-11.28 11.47v31.74a11.4 11.4 0 0 0 11.25 11.47l47.26.15a11.12 11.12 0 0 0 7.9-3.28 11.47 11.47 0 0 0 3.38-8.19v-31.9a11.39 11.39 0 0 0-11.24-11.46zm-3.72 39.81l-39.83-.12v-24.7h39.83zm301.41-39.81a7.5 7.5 0 0 0-7.5 7.5v12.39l-39.83-.12v-12.27a7.5 7.5 0 0 0-15 0v39.66a7.5 7.5 0 0 0 15 0v-12.4l39.83.12v12.44a7.5 7.5 0 0 0 15 0v-39.83a7.5 7.5 0 0 0-7.5-7.49zm73.86 34.91a7.5 7.5 0 0 0 0-15l-47.35-.15v-4.83l47.3.15a7.5 7.5 0 0 0 0-15l-54.83-.17a7.5 7.5 0 0 0-7.5 7.48v39.83a7.5 7.5 0 0 0 7.48 7.52l54.83.17a7.5 7.5 0 0 0 0-15l-47.35-.15v-5zm-147.57-19.91a7.5 7.5 0 0 0 0-15h-47.26a11.39 11.39 0 0 0-11.28 11.47v31.74a11.4 11.4 0 0 0 11.25 11.47l47.26.15a7.5 7.5 0 0 0 0-15l-43.56-.13v-24.7zm-72.74 0a7.5 7.5 0 0 0 0-15h-51a11.39 11.39 0 0 0-11.28 11.47v11.9a11.39 11.39 0 0 0 11.28 11.47h43.54v5l-47.3-.15a7.5 7.5 0 0 0 0 15l51 .16a11.12 11.12 0 0 0 7.9-3.28 11.47 11.47 0 0 0 3.38-8.19v-12.09a11.39 11.39 0 0 0-11.28-11.47h-43.57v-4.83zm-70.5 22.57a7.43 7.43 0 0 0 3.59-6.39v-23.68a7.5 7.5 0 0 0-7.5-7.5h-54.83a7.5 7.5 0 0 0-7.5 7.5v39.66a7.5 7.5 0 0 0 15 0V267l35.31.22 5.15 11.73a7.5 7.5 0 0 0 13.74-6zm-51.24-22.58h39.83v8.64l-39.83-.22z" transform="translate(0 -228.5)"/></svg>