<svg id="Capa_1" data-name="Capa 1" xmlns="http://www.w3.org/2000/svg" viewBox="0 0 420 512"><defs><style>.cls-1{fill:#ccc}.cls-2{fill:#8c8c8c}.cls-3{fill:#e3e3e3}.cls-4{fill:#a6a6a6}</style></defs><title>renault</title><path class="cls-1" d="M465.47 254L321.29 2a4 4 0 0 0-3.46-2H194.18a4 4 0 0 0-3.46 2L46.53 254a4 4 0 0 0 0 4l144.18 252a4.75 4.75 0 0 0 .28.43 4 4 0 0 0 1.16 1 3.78 3.78 0 0 0 1.54.51 2.58 2.58 0 0 0 .48 0h123.66a4 4 0 0 0 3.46-2L465.47 258a4 4 0 0 0 0-4zm-281.68 3.88a4 4 0 0 1 0-3.78L256 119.53l72.21 134.58a4 4 0 0 1 0 3.78L256 392.47z" transform="translate(-46)"/><path class="cls-2" d="M317.83 0h-23.37l146.46 256-146.47 256h23.37a4 4 0 0 0 3.46-2l144.19-252a4 4 0 0 0 0-4L321.29 2a4 4 0 0 0-3.46-2z" transform="translate(-46)"/><path class="cls-1" d="M317.77 4.42l-10.06 18.74-38.86 72.44L256 119.53l-72.21 134.58a4 4 0 0 0 0 3.78L256 392.47l-12.85 23.93L203 491.3l-8.59 16-2.22 4.13-.12.21a2.61 2.61 0 0 1-.8-.75l-.12-.2-.41-.72L46.53 258a4 4 0 0 1 0-4L190.71 2a4 4 0 0 1 3.46-2h121a3 3 0 0 1 2.6 4.42z" transform="translate(-46)"/><path class="cls-3" d="M317.77 4.42l-10.06 18.74-38.86 72.44L256 119.53l-72.21 134.58a4 4 0 0 0 0 3.78L256 392.47l-12.85 23.93L203 491.3l-8.59 16-2.22 4.13-.12.21a2.61 2.61 0 0 1-.8-.75l-.12-.2-.41-.72L46.53 258a4 4 0 0 1 0-4L190.71 2a4 4 0 0 1 3.46-2h121a3 3 0 0 1 2.6 4.42z" transform="translate(-46)"/><path class="cls-2" d="M294.45 0L158.1 254.11a4 4 0 0 0 0 3.79l85.06 158.5L256 392.47l-72.21-134.58a4 4 0 0 1 0-3.79l134-249.69A3 3 0 0 0 315.13 0z" transform="translate(-46)"/><path class="cls-4" d="M353.9 257.89L217.54 512h-24.25a2.54 2.54 0 0 1-1.25-.34l.12-.21 2.22-4.13 8.59-16 40.18-74.9L256 392.47l72.21-134.58a4 4 0 0 0 0-3.78L256 119.53l12.85-23.93 85.05 158.51a4 4 0 0 1 0 3.78z" transform="translate(-46)"/></svg>