<svg id="Capa_1" data-name="Capa 1" xmlns="http://www.w3.org/2000/svg" viewBox="0 0 512 303"><defs><style>.cls-1{fill:#e3e3e3}.cls-2{fill:#ccc}.cls-3{fill:#00539e}.cls-4{fill:#004380}</style></defs><title>subaru</title><path class="cls-1" d="M256 104.5C114.61 104.5 0 172.36 0 256s114.61 151.5 256 151.5S512 339.68 512 256 397.39 104.5 256 104.5z" transform="translate(0 -104.5)"/><path class="cls-2" d="M256 104.5q-6.22 0-12.36.18C379.29 108.5 487.28 174.81 487.28 256s-108 147.5-243.64 151.32q6.15.17 12.36.18c141.4 0 256-67.82 256-151.5S397.39 104.5 256 104.5z" transform="translate(0 -104.5)"/><path class="cls-3" d="M256 382.77c-64 0-123.84-14.53-168.43-40.93C47 317.86 24.72 287.37 24.72 256S47 194.16 87.57 170.17c44.6-26.4 104.43-40.94 168.43-40.94s123.83 14.54 168.44 40.94c40.52 24 62.84 54.47 62.84 85.83s-22.28 61.86-62.84 85.84C379.84 368.23 320 382.77 256 382.77z" transform="translate(0 -104.5)"/><path class="cls-4" d="M424.43 170.17C379.83 143.77 320 129.24 256 129.24q-7.77 0-15.45.29c58.14 2.15 112 16.38 153 40.64 40.52 24 62.84 54.47 62.84 85.83s-22.32 61.86-62.84 85.84c-41 24.26-94.83 38.49-153 40.63q7.68.28 15.45.29c64 0 123.84-14.53 168.44-40.93 40.52-24 62.84-54.47 62.84-85.84s-22.28-61.83-62.85-85.82z" transform="translate(0 -104.5)"/><path class="cls-1" d="M268.36 226.36c0 .54-.3 1.2-.91 1.2L193 238.89c-3.93.32-7.16 3.48-8.37 7.73l-13.11 47.92a2.26 2.26 0 0 1-.36.72 1.38 1.38 0 0 1-1.16.59c-.6 0-1.21-.65-1.51-1.31l-13-47.93a11.39 11.39 0 0 0-8.68-8.06l-74.24-11c-.5 0-.81-.65-.81-1.2a1.42 1.42 0 0 1 .81-1.31l37.33-5.45 36.91-5.55a11.12 11.12 0 0 0 8.38-7.73l13.32-48.58c.3-.54.91-1.2 1.51-1.2a1.09 1.09 0 0 1 .64.24 1.27 1.27 0 0 1 .55.95l13.42 48.58a11 11 0 0 0 8.37 7.73l74.45 11a1.36 1.36 0 0 1 .91 1.33zM459.37 272a1.07 1.07 0 0 1-.89 1.06l-40.89 7h-.15a8.55 8.55 0 0 0-5.75 5.34l-6.22 23.68a1.07 1.07 0 0 1-1 .8h-.92a1.06 1.06 0 0 1-1-.78L396 285.49a.49.49 0 0 0-.06-.17 9 9 0 0 0-6-5.28l-38.23-7a.71.71 0 0 0-.33 0l-37.56 6.34a6.93 6.93 0 0 0-5.7 5l-5.87 23a1.08 1.08 0 0 1-1.06.8h-.49a1.09 1.09 0 0 1-1-.8l-5.86-23a7 7 0 0 0-5.71-5l-19.77-3.65-18.76-3a1.07 1.07 0 0 1-.9-1.06 1.06 1.06 0 0 1 .9-1.05l38.47-6.31h.12a7.46 7.46 0 0 0 5.64-5.46l5.86-22.58a1.07 1.07 0 0 1 1-.8h.54a1.07 1.07 0 0 1 1 .8l5.77 22.67a7.43 7.43 0 0 0 5.64 5.46h.13l37.5 6.14a.82.82 0 0 0 .32 0l38.24-6.26a9.29 9.29 0 0 0 6-5.27 1.06 1.06 0 0 0 .07-.2l6.54-24a1.07 1.07 0 0 1 1-.79h.91a1.07 1.07 0 0 1 1 .8l6.34 24.18a8.89 8.89 0 0 0 5.74 5.34h.17l40.87 6.66a1.06 1.06 0 0 1 .9 1z" transform="translate(0 -104.5)"/><path class="cls-1" d="M426.79 207.78l-39.43 6.46a7.66 7.66 0 0 0-5.36 5.36l-6 23.4c-.07.51-.61.78-1.18.81s-1.34-.23-1.36-.81l-6.07-23.4a7.54 7.54 0 0 0-5.71-5.36l-39.42-6.46c-.37-.36-.37-1.82 0-1.82l19.66-3.16 19.77-3.66a7.11 7.11 0 0 0 5.71-5l6.07-23.76c0-.22.69-.46 1.36-.46a1.39 1.39 0 0 1 1.18.46l5.99 23.75a7.16 7.16 0 0 0 5.34 5l39.45 6.87c.36 0 .36 1.41 0 1.78z" transform="translate(0 -104.5)"/><path class="cls-2" d="M268.36 226.36c0 .54-.3 1.2-.91 1.2L193 238.89c-3.93.32-7.16 3.48-8.37 7.73l-13.11 47.92a2.26 2.26 0 0 1-.36.72l-1.16.59V156.54l.64.24a1.27 1.27 0 0 1 .55.95l13.42 48.58a11 11 0 0 0 8.37 7.73l74.45 11a1.36 1.36 0 0 1 .93 1.32zm158.43-18.58l-39.43 6.46a7.66 7.66 0 0 0-5.36 5.36l-6 23.4c-.07.51-.61.78-1.18.81v-73.9a1.39 1.39 0 0 1 1.18.46l6 23.76a7.16 7.16 0 0 0 5.34 5l39.45 6.87c.36 0 .36 1.41 0 1.78zm-75.5 62.79v2.62l-37.56 6.34a6.93 6.93 0 0 0-5.7 5l-5.87 23a1.08 1.08 0 0 1-1.06.8h-.21v-72.78h.25a1.07 1.07 0 0 1 1 .8l5.86 22.59a7.43 7.43 0 0 0 5.64 5.46h.13l37.5 6.14zM459.37 272a1.07 1.07 0 0 1-.89 1.06l-40.89 7h-.15a8.55 8.55 0 0 0-5.75 5.34l-6.22 23.68a1.07 1.07 0 0 1-1 .8H404V234.1h.42a1.07 1.07 0 0 1 1 .8l6.27 24.1a8.89 8.89 0 0 0 5.74 5.34h.17l40.87 6.66a1.06 1.06 0 0 1 .9 1z" transform="translate(0 -104.5)"/><path class="cls-1" d="M400.92 320.83a1.07 1.07 0 0 1-.89 1.06l-40.89 7h-.15a8.55 8.55 0 0 0-5.75 5.34L347 358a1.07 1.07 0 0 1-1 .8h-.92a1.06 1.06 0 0 1-1-.78l-6.55-23.61a.49.49 0 0 0-.06-.17 9 9 0 0 0-6-5.28l-38.23-7a.71.71 0 0 0-.33 0l-37.56 6.34a6.93 6.93 0 0 0-5.7 5l-5.87 23a1.08 1.08 0 0 1-1.06.8h-.49a1.09 1.09 0 0 1-1-.8l-5.86-23a7 7 0 0 0-5.71-5l-19.77-3.65-18.76-3a1.07 1.07 0 0 1-.9-1.06 1.06 1.06 0 0 1 .9-1.05l38.47-6.31h.12a7.46 7.46 0 0 0 5.65-5.46l5.86-22.58a1.07 1.07 0 0 1 1-.8h.54a1.07 1.07 0 0 1 1 .8l5.86 22.58a7.43 7.43 0 0 0 5.63 5.46h.13l37.5 6.14a.82.82 0 0 0 .32 0l38.24-6.26a9.29 9.29 0 0 0 6-5.27 1.06 1.06 0 0 0 .07-.2l6.54-24a1.07 1.07 0 0 1 1-.79h.94a1.07 1.07 0 0 1 1 .8l6.22 24.05a8.89 8.89 0 0 0 5.74 5.34h.17l40.87 6.74a1.06 1.06 0 0 1 .92 1.05z" transform="translate(0 -104.5)"/><path class="cls-2" d="M292.84 319.35V322l-37.56 6.34a6.93 6.93 0 0 0-5.7 5l-5.87 23a1.08 1.08 0 0 1-1.06.8h-.21v-72.81h.25a1.07 1.07 0 0 1 1 .8l5.86 22.58a7.43 7.43 0 0 0 5.63 5.46h.13l37.5 6.14zm108.08 1.48a1.07 1.07 0 0 1-.89 1.06l-40.89 7h-.15a8.55 8.55 0 0 0-5.75 5.34L347 358a1.07 1.07 0 0 1-1 .8h-.43v-75.9h.43a1.07 1.07 0 0 1 1 .8l6.22 24.05a8.89 8.89 0 0 0 5.74 5.34h.17l40.87 6.69a1.06 1.06 0 0 1 .92 1.05z" transform="translate(0 -104.5)"/></svg>