<svg id="Capa_1" data-name="Capa 1" xmlns="http://www.w3.org/2000/svg" viewBox="0 0 472 512"><defs><style>.cls-1{fill:#e82934}.cls-2{fill:#c7232c}</style></defs><title>suzuki</title><path class="cls-1" d="M491 181.48l-13.08 8.26c-56.13 35.41-124.09 30.24-178.29-8.09l-90.56-64.05c-3.2-2.27-9.82-1.39-14.49 3.31s-5.15 11.22-.12 15l282.41 209.63.11.09a4.13 4.13 0 0 1 .37 6.32 4.83 4.83 0 0 1-.5.4 2.59 2.59 0 0 1-.29.17 4.79 4.79 0 0 1-.62.28q-3.77 1.39-7.5 2.87l-.45.17q-3.3 1.3-6.56 2.68l-.42.17C354.3 403.65 269.74 498.66 256.43 511.43a2 2 0 0 1-2.64.15l-223-167.16-5.23-3.91A2.1 2.1 0 0 1 25 340a2.06 2.06 0 0 1-.28-1.55 2 2 0 0 1 .24-.62 2.19 2.19 0 0 1 .45-.54l.75-.63c51.65-43.5 123.77-43 178.68-3.69l82.91 59.35c4.08 2.93 10.53 5.16 15.77-1.57s4.26-15.1-1-19.06L21.65 162.21a4.12 4.12 0 0 1 .34-6.83C155.5 74.71 230.83 9.59 241.12.52a2 2 0 0 1 2.55-.13L491.14 178a2.07 2.07 0 0 1-.14 3.48z" transform="translate(-20)"/><path class="cls-2" d="M289.17 406.41c-6.17 5.67-19-2-23.07-4.92L195.61 351c-50.16-35.91-114.69-39.45-164.86-6.6l-5.23-3.91A2.1 2.1 0 0 1 25 340a2.06 2.06 0 0 1-.28-1.55 2.23 2.23 0 0 1 .24-.62 2.19 2.19 0 0 1 .45-.54l.75-.63c51.65-43.5 123.77-43 178.68-3.69l82.91 59.35c4.08 2.93 10.53 5.16 15.77-1.57.02-.01-10.18 11.83-14.35 15.66zM491.14 178L243.67.39a2 2 0 0 0-2.55.13c-2 1.79-6.6 5.77-13.63 11.6 2.29 2 4.6 4.14 6.93 6.34l240.87 172.92q1.33-.81 2.66-1.64l13.05-8.26a2.07 2.07 0 0 0 .14-3.48zm-13.79 174a4.83 4.83 0 0 1-.5.4 2.59 2.59 0 0 1-.29.17 3.76 3.76 0 0 1-.62.29l-1.24.46c-2.09.78-4.18 1.57-6.26 2.4l-.45.17c-2.2.88-4.38 1.76-6.56 2.68l-.42.17-275.8-204.81c-8.59-8.6 6.72-32.51 9.37-33-4.67 4.69-5.15 11.22-.12 15l282.41 209.61.11.09a4.12 4.12 0 0 1 .37 6.37z" transform="translate(-20)"/></svg>