<svg id="Capa_1" data-name="Capa 1" xmlns="http://www.w3.org/2000/svg" viewBox="0 0 512 342"><defs><style>.cls-1{fill:#ccc}.cls-2{fill:#8c8c8c}</style></defs><title>toyota</title><path class="cls-1" d="M256 85C114.61 85 0 161.56 0 256s114.61 171 256 171 256-76.56 256-171S397.38 85 256 85zm128.49 67a13.76 13.76 0 0 1 0 22.25c-10.31 7.57-28.48 16.56-53.62 23.12-.48-1.75-1-3.49-1.52-5.2C318 155.36 297 128.23 272 120c56.45 2.72 95.37 19.29 112.49 32zM212 241.26a390.56 390.56 0 0 0 44 2.46 390.38 390.38 0 0 0 44-2.46q.46 6.63.47 13.64c0 60-26.77 99.75-44.47 99.75s-44.48-39.78-44.48-99.75q0-7 .48-13.64zm81.45-37a321.39 321.39 0 0 1-37.45 2.12q-6.58 0-12.88-.25H243c-8.56-.32-16.71-1-24.47-1.87 9.15-30.68 25.39-49.11 37.45-49.11s28.31 18.42 37.46 49.1zm-165.9-52.41c13.22-9.7 39.36-21.76 76.51-28l1.93-.32A305.74 305.74 0 0 1 240 120c-26.22 8.58-48 37.89-58.87 77.28-25.18-6.57-43.37-15.61-53.67-23.23a13.76 13.76 0 0 1 .08-22.22zm144 242.35c-.86.05-1.73.08-2.6.11q-6.4.26-12.88.26C137.79 394.55 37.92 331.11 37.92 256c0-29 14.88-56.24 39.95-78.77 8.91 24.89 46.19 46.33 96.59 57.74q-.87 9.76-.87 19.93c0 75.91 36.89 137.45 82.4 137.45s82.39-61.54 82.39-137.45q0-10.15-.86-19.93c50.4-11.4 87.68-32.85 96.59-57.74 25.06 22.53 40 49.77 40 78.77-.04 71.8-91.31 132.94-202.61 138.18zm57.8-202.06c.46 1.75 1 3.49 1.52 5.2-.52-1.77-1.03-3.51-1.56-5.22z" transform="translate(0 -85)"/><path class="cls-2" d="M127.5 174.09c10.3 7.62 28.5 16.66 53.67 23.23-43.64-1.75-67-14.45-74.37-21.49s-4.81-18.44 2.75-24c17.14-12.59 37.52-20.22 96.43-28.31l-1.93.32c-37.15 6.23-63.29 18.29-76.51 28a13.76 13.76 0 0 0-.04 22.25zM256 85q-6.48 0-12.88.21C378.52 89.7 486.24 164.44 486.24 256S378.52 422.3 243.12 426.79q6.4.21 12.88.21c141.38 0 256-76.56 256-171S397.38 85 256 85z" transform="translate(0 -85)"/><path class="cls-2" d="M337.53 235q.87 9.76.86 19.93c0 75.91-36.89 137.45-82.39 137.45a50.55 50.55 0 0 1-12.88-1.68c39.38-10.31 68.59-46.58 68.59-115.18 0-.07.93-20.73.93-20.8-.01-11.38 13.69-17.83 24.89-19.72zm-6.7-37.68a16.23 16.23 0 0 1-2.5.71 25.09 25.09 0 0 1-28.18-15.19c-13-32-37.23-55.32-60.12-62.81 11.59-2.84 21.43-1.7 31.94 0 25 8.2 46 35.32 57.34 72.09.46 1.75.97 3.49 1.52 5.2z" transform="translate(0 -85)"/></svg>