<svg id="Capa_1" data-name="Capa 1" xmlns="http://www.w3.org/2000/svg" viewBox="0 0 512 512"><defs><style>.cls-1{fill:#3e5594}.cls-2{fill:#2d3e6c}.cls-3{fill:#fff}</style></defs><title>volkswagen</title><path class="cls-1" d="M256 0C114.67 0 0 114.6 0 256s114.67 256 256 256 256-114.6 256-256S397.33 0 256 0z"/><path class="cls-2" d="M256 0c-3.62 0-7.23.09-10.82.24C381.5 5.92 490.37 118.22 490.37 256S381.5 506.08 245.18 511.76c3.59.15 7.19.24 10.82.24 141.33 0 256-114.6 256-256S397.33 0 256 0z"/><path class="cls-3" d="M256 476c-121.28 0-219.94-98.72-219.94-220S134.72 36 256 36s219.94 98.68 219.94 220S377.27 476 256 476z"/><path class="cls-2" d="M205 80.75a2.21 2.21 0 0 1 1.41-3 186.34 186.34 0 0 1 99.1 0 2.21 2.21 0 0 1 1.41 3L258 189.18a2.2 2.2 0 0 1-4 0z"/><path class="cls-2" d="M357.43 101.26a186.07 186.07 0 0 1 47.23 44.6 2.22 2.22 0 0 1 .24 2.23L322 331.63a2.2 2.2 0 0 1-3.95.13l-30.19-56.39a2.2 2.2 0 0 0-1.94-1.16h-59.79a2.2 2.2 0 0 0-1.94 1.16L194 331.76a2.2 2.2 0 0 1-3.95-.13l-82.81-183.72a2.21 2.21 0 0 1 .24-2.23 186 186 0 0 1 47.09-44.42 2.21 2.21 0 0 1 3.2.91l66.45 141a2.2 2.2 0 0 0 2 1.26H286a2.2 2.2 0 0 0 2-1.27l66.23-141a2.21 2.21 0 0 1 3.2-.9zM79.87 213.92a2.2 2.2 0 0 0-4.15.39 185.32 185.32 0 0 0 92 204.33 2.21 2.21 0 0 0 3.05-2.85z"/><path class="cls-2" d="M204.82 433.83a186.25 186.25 0 0 0 102.3 0L256 320.32zm136.39-18.05a2.21 2.21 0 0 0 3.05 2.85 185.33 185.33 0 0 0 92.12-203.9 2.2 2.2 0 0 0-4.15-.4z"/></svg>