<svg id="Capa_1" data-name="Capa 1" xmlns="http://www.w3.org/2000/svg" viewBox="0 0 512 512"><defs><style>.cls-1{fill:#2d3e6c}.cls-2{fill:#ccc}.cls-3{fill:#8c8c8c}.cls-4{fill:#ebebeb}</style></defs><title>volvo</title><path class="cls-1" d="M17.34 185.61h469.88v131.4H17.34z"/><path id="SVGCleanerId_0" data-name="SVGCleanerId 0" class="cls-2" d="M432.15 23.19l-30.3 30.3A252 252 0 0 0 253.27 5.32C113.39 5.32 0 118.74 0 258.67S113.39 512 253.27 512s253.27-113.42 253.27-253.33a252.28 252.28 0 0 0-51.24-152.81 3 3 0 0 1 .26-3.93l27.66-27.67zm-178.88 406.2A170.7 170.7 0 0 1 82.59 258.67c0-94.3 76.41-170.73 170.68-170.73s170.68 76.43 170.68 170.73a170.7 170.7 0 0 1-170.68 170.72z"/><path id="SVGCleanerId_0-2" data-name="SVGCleanerId 0" class="cls-2" d="M432.15 23.19l-30.3 30.3A252 252 0 0 0 253.27 5.32C113.39 5.32 0 118.74 0 258.67S113.39 512 253.27 512s253.27-113.42 253.27-253.33a252.28 252.28 0 0 0-51.24-152.81 3 3 0 0 1 .26-3.93l27.66-27.67zm-178.88 406.2A170.7 170.7 0 0 1 82.59 258.67c0-94.3 76.41-170.73 170.68-170.73s170.68 76.43 170.68 170.73a170.7 170.7 0 0 1-170.68 170.72z"/><path class="cls-2" d="M455.56 101.93l27.66-27.67-51.07-51.07-27.9 27.9a4 4 0 0 1-5.15.42A252 252 0 0 0 253.27 5.32q-6.76 0-13.44.35C106.2 12.66 0 123.25 0 258.67 0 398.58 113.39 512 253.27 512s253.27-113.42 253.27-253.33a252.28 252.28 0 0 0-51.24-152.81 3 3 0 0 1 .26-3.93zM253.27 429.39A170.7 170.7 0 0 1 82.59 258.67c0-94.3 76.41-170.73 170.68-170.73s170.68 76.43 170.68 170.73a170.7 170.7 0 0 1-170.68 170.72z"/><path class="cls-3" d="M82.59 258.67A170.72 170.72 0 0 1 239.7 88.47q-6.71-.53-13.57-.54c-94.27 0-170.68 76.43-170.68 170.73a170.7 170.7 0 0 0 170.69 170.73q6.85 0 13.57-.54A170.71 170.71 0 0 1 82.59 258.67zM386.24 53.49a37.45 37.45 0 0 1-20.41-6.1c-36.77-23.91-81.51-36.9-126.19-41.69h.18q6.67-.34 13.44-.35a252 252 0 0 1 145.59 46c.95.65-12.61 2.14-12.61 2.14zm69.32 48.44l27.66-27.67-51.07-51.07-13.56 13.56L434.79 53a30.13 30.13 0 0 1 0 42.6l-.58.58a12.54 12.54 0 0 0-1.34 16.12 252.24 252.24 0 0 1 46.54 146.4c0 135.36-106.13 245.92-239.7 253q6.74.36 13.57.36c139.88 0 253.27-113.42 253.27-253.33a252.28 252.28 0 0 0-51.25-152.87 3 3 0 0 1 .26-3.93z"/><path class="cls-4" d="M201.47 216.36h-6.36a24 24 0 0 0-23.94 23.94v23.06a24 24 0 0 0 23.94 23.94h6.36a24 24 0 0 0 23.94-23.94V240.3a24 24 0 0 0-23.94-23.94zm8.94 47a9 9 0 0 1-8.94 8.94h-6.36a9 9 0 0 1-8.94-8.94V240.3a9 9 0 0 1 8.94-8.94h6.36a9 9 0 0 1 8.94 8.94v23.06zm70.79 8.94h-31.75v-48.44a7.5 7.5 0 0 0-15 0v55.94a7.5 7.5 0 0 0 7.5 7.5h39.25a7.5 7.5 0 0 0 0-15zm101.07-55.94h-6.36A24 24 0 0 0 352 240.3v23.06a24 24 0 0 0 23.94 23.94h6.36a24 24 0 0 0 23.94-23.94V240.3a24 24 0 0 0-23.97-23.94zm8.94 47a9 9 0 0 1-8.94 8.94h-6.36a9 9 0 0 1-8.94-8.94V240.3a9 9 0 0 1 8.94-8.94h6.36a9 9 0 0 1 8.94 8.94zm-226.86-47h-15.94a7.5 7.5 0 0 0-3.6 14.08l-9.37 26.7-9.05-25.8a7.49 7.49 0 0 0-.39-15h-15.94a7.5 7.5 0 0 0 0 15h.44l17.86 50.92a7.5 7.5 0 0 0 14.15 0l17.86-50.92h4a7.5 7.5 0 0 0 0-15zm178.65 0h-16a7.5 7.5 0 0 0-2 14.71l-9.15 26.08-9.15-26.07a7.5 7.5 0 0 0-2.06-14.71h-15.98a7.5 7.5 0 0 0 0 15h2.21l17.86 50.92a7.5 7.5 0 0 0 14.15 0l17.86-50.92H343a7.5 7.5 0 1 0 0-15z"/><path class="cls-2" d="M400.36 6.83l104.81 104.81a4 4 0 0 0 6.83-2.83V4a4 4 0 0 0-4-4H403.19a4 4 0 0 0-2.83 6.83z"/><path class="cls-3" d="M486.3 0v92.77l18.87 18.87a4 4 0 0 0 6.83-2.83V4a4 4 0 0 0-4-4z"/></svg>