<svg id="Layer_1" data-name="Layer 1" xmlns="http://www.w3.org/2000/svg" viewBox="0 0 20 20"><defs><style>.cls-1{fill:#a98258}.cls-2{fill:#daae86}.cls-3{fill:#d8b18b}.cls-4{fill:#e8d5b2}.cls-5{fill:#d4c3a5}.cls-6{fill:#f4d5bd}</style></defs><title>box</title><path class="cls-1" d="M16.55 0H3.45L0 5.52V20h20V5.52z"/><path class="cls-2" d="M3.45 0L0 5.52h20L16.55 0z"/><path class="cls-3" d="M11.38 18.62L10 17.24l-1.38 1.38-.69-.69V20h4.14v-2.07z"/><path class="cls-4" d="M13.1 10.34H6.9v5.52h6.2z"/><path class="cls-5" d="M10.34 14.14H8.28a.34.34 0 0 0 0 .69h2.07a.34.34 0 0 0 0-.69zm1.38 0h-.34a.34.34 0 0 0 0 .69h.34a.34.34 0 1 0 0-.69zm-2.06-2.07h2.07a.34.34 0 1 0 0-.69H9.66a.34.34 0 0 0 0 .69zm2.06.69H11a.34.34 0 1 0 0 .69h.69a.34.34 0 0 0 0-.69zm-3.44.69H9a.34.34 0 0 0 0-.69h-.72a.34.34 0 0 0 0 .69zm0-1.38h.34a.34.34 0 0 0 0-.69h-.34a.34.34 0 0 0 0 .69zm1.48.79a.35.35 0 0 0 0 .49.35.35 0 1 0 0-.49z"/><path class="cls-6" d="M12.07 0H7.93v5.52h4.14z"/><path class="cls-3" d="M8.62 7.24L10 8.62l1.38-1.38.69.69V5.52H7.93v2.41z"/></svg>