<svg id="Layer_1" data-name="Layer 1" xmlns="http://www.w3.org/2000/svg" viewBox="0 0 32 31.32"><defs><style>.cls-1{fill:none}.cls-2{clip-path:url(#clip-path)}.cls-3{fill:#3bbc56}.cls-4{fill:#30aa44}.cls-5{fill:#239b31}.cls-6{fill:#83cc8e}.cls-7{fill:#78c181}.cls-8{fill:#9be0a3}</style><clipPath id="clip-path" transform="translate(0 -.34)"><path class="cls-1" d="M0 0h32v32H0z"/></clipPath></defs><title>cabbage</title><g class="cls-2"><path class="cls-3" d="M28.84 7.69a.66.66 0 0 1-.4-.55 4.09 4.09 0 0 0-3.86-3.73.81.81 0 0 1-.72-.56A3.76 3.76 0 0 0 17 2.28v.07h.07A4.12 4.12 0 0 1 19.84 6a12.74 12.74 0 0 1 6.5 4.48l.08.1v-.13A3.07 3.07 0 0 1 29 7.93h.22z" transform="translate(0 -.34)"/><path class="cls-4" d="M22.91 1.35a3.78 3.78 0 0 0-5.91.93v.07h.07a4.05 4.05 0 0 1 1.25.69 3.76 3.76 0 0 1 4.59-1.69zM4 19.4v-.13zm-.31-.03v-.13z" transform="translate(0 -.34)"/><path class="cls-4" d="M16 2a4.2 4.2 0 0 0-3.2 1.28.91.91 0 0 1-1 .22 4.57 4.57 0 0 0-5.7 1.9.75.75 0 0 1-.68.37A5.21 5.21 0 0 0 1 14a1.5 1.5 0 0 1 .16 1.48 3.61 3.61 0 0 0 1 4.3 2.94 2.94 0 0 1 1.28-.38A12.81 12.81 0 0 1 20 6a4.2 4.2 0 0 0-4-4z" transform="translate(0 -.34)"/><path class="cls-5" d="M2.4 15.37a1.55 1.55 0 0 0-.16-1.5 5.35 5.35 0 0 1 2.65-8.1A5.21 5.21 0 0 0 1 14a1.5 1.5 0 0 1 .16 1.48 3.61 3.61 0 0 0 1 4.3 3 3 0 0 1 .93-.34 3.71 3.71 0 0 1-.69-4.07z" transform="translate(0 -.34)"/><path class="cls-6" d="M26.45 10.37A13.06 13.06 0 0 0 22 6.69a12.79 12.79 0 0 0-5.81-1.38A12.94 12.94 0 0 0 3.31 19.37h.06a3.84 3.84 0 0 1 3 1.59 4.21 4.21 0 0 1 3.45 2.48 8.16 8.16 0 0 1 .8 2.29v.05h.05c2.52.16 4.39 2.71 5.44 5 .93-3.28 3.06-6 6.42-6.61h.06v-.06c0-.05-.67-5.22 2.27-7.08s-1.46-4.18 1.4-6a3.8 3.8 0 0 1 .1-.48z" transform="translate(0 -.34)"/><path class="cls-7" d="M17.35 5.36q-.58-.05-1.16-.05A12.94 12.94 0 0 0 3.31 19.37h.06a2.76 2.76 0 0 1 1.3.24A13.45 13.45 0 0 1 17.35 5.36z" transform="translate(0 -.34)"/><path class="cls-3" d="M14.94 28.46a6.21 6.21 0 0 0-3.78-2.72.6.6 0 0 1-.48-.44c-.52-2.08-1.77-4-3.91-4.39a.94.94 0 0 1-.55-.3c-1.26-1.41-2.94-1.87-4.57-.7-2.72 2-.38 4.42 2.13 3.92.73-.15 1.15.7 1.73 1.88a10.43 10.43 0 0 0 3 4.1 8.59 8.59 0 0 0 5.27 1.53 17 17 0 0 0 2.58-.21 12.69 12.69 0 0 0-1.42-2.67z" transform="translate(0 -.34)"/><path class="cls-4" d="M15.11 31.27a8.59 8.59 0 0 1-5.27-1.53 10.43 10.43 0 0 1-3-4.1c-.58-1.18-1-2-1.73-1.88-2.51.51-4.85-2-2.13-3.92a3.6 3.6 0 0 1 1.13-.56 3.11 3.11 0 0 0-2.42.63c-2.72 2-.38 4.42 2.13 3.92.73-.15 1.15.7 1.73 1.88a10.43 10.43 0 0 0 3 4.1 8.59 8.59 0 0 0 5.27 1.53c.47 0 .92 0 1.37-.07z" transform="translate(0 -.34)"/><path class="cls-8" d="M22.6 12a.48.48 0 0 0-.65-.2 10.29 10.29 0 0 0-4.78 5.26 10.9 10.9 0 0 0-.4 1.17 19.12 19.12 0 0 0-1.69-3.46 9.47 9.47 0 0 1 2.93-5A.48.48 0 0 0 17.4 9a10.11 10.11 0 0 0-3 4.71 17.09 17.09 0 0 0-4.12-4.18.48.48 0 0 0-.52.81 14 14 0 0 1 2.16 1.89 8.49 8.49 0 0 0-3.38.29.48.48 0 0 0 .15.94h.15a7.63 7.63 0 0 1 4.11 0 18.44 18.44 0 0 1 1.17 1.62 17.9 17.9 0 0 1 1 1.86c-3.25-1.51-7.57.16-7.78.25a.48.48 0 0 0 .35.89c.05 0 5.29-2.06 8.1.44a18.67 18.67 0 0 1 1 4 9 9 0 0 0-4.94-1.1.48.48 0 0 0 .09 1 8.4 8.4 0 0 1 5 1.33 22.15 22.15 0 0 1-.39 6 .48.48 0 0 0 .94.19 22.16 22.16 0 0 0 0-9c0-.19-.09-.38-.13-.57a9.47 9.47 0 0 1 5-7.58.48.48 0 0 0 .24-.79z" transform="translate(0 -.34)"/><path class="cls-3" d="M30.87 17.78a24.17 24.17 0 0 0-1-5.76c-2.18 0-2.44 3.82-2.45 4-.15 3.25-4.57 7.93-4.86 8.22C19 24.83 16.73 27.88 16 31a7.44 7.44 0 0 0 3.15.64h.37c1.94-.08 4.94-.85 8.2-4.07 2.55-2.57 3.28-6.2 3.15-9.79z" transform="translate(0 -.34)"/><path class="cls-4" d="M18.33 28.84a9 9 0 0 1 4.14-4.6C19 24.88 16.73 27.9 16 31a7.45 7.45 0 0 0 3.15.64H20a2 2 0 0 1-1.67-2.8zM32 9.5c-.08-.91-.85-1.52-2.12-1.68a3.14 3.14 0 0 0-3.59 2.75.8.8 0 0 1-.29.43 4.32 4.32 0 0 0-1.59 3.64 8.18 8.18 0 0 0 .3 2.07.36.36 0 0 1-.14.39 5.93 5.93 0 0 0-2.06 4.16 11.2 11.2 0 0 0 0 2.93c3.05-1.12 5.08-2.69 6-4.76a10.11 10.11 0 0 0 .69-4.91c-.05-1.27-.09-2.19.6-2.41A2.81 2.81 0 0 0 32 9.5z" transform="translate(0 -.34)"/><path class="cls-5" d="M23.85 21.29a5.93 5.93 0 0 1 2.06-4.16.36.36 0 0 0 .14-.39 8.18 8.18 0 0 1-.3-2.07A4.32 4.32 0 0 1 27.33 11a.79.79 0 0 0 .29-.46 3.24 3.24 0 0 1 2.46-2.72h-.2a3.14 3.14 0 0 0-3.59 2.75.8.8 0 0 1-.29.43 4.32 4.32 0 0 0-1.59 3.64 8.18 8.18 0 0 0 .3 2.07.36.36 0 0 1-.14.39 5.93 5.93 0 0 0-2.06 4.16 11.2 11.2 0 0 0 0 2.93q.67-.24 1.27-.52a11.2 11.2 0 0 1 .07-2.38z" transform="translate(0 -.34)"/></g></svg>