<svg id="Layer_1" data-name="Layer 1" xmlns="http://www.w3.org/2000/svg" viewBox="0 0 25 22.88"><defs><style>.cls-1{fill:none}.cls-2{clip-path:url(#clip-path)}.cls-3{fill:#ebba16}.cls-4{fill:#ed8a19}.cls-5{fill:#fff}</style><clipPath id="clip-path" transform="translate(0 -1.06)"><path class="cls-1" d="M0 0h25v25H0z"/></clipPath></defs><title>chat</title><g class="cls-2"><path class="cls-3" d="M19 7.93V17a2.12 2.12 0 0 1-2.12 2.12H9.52l-4.35 4.82V19.2h-3A2.12 2.12 0 0 1 0 17.07V8a2.12 2.12 0 0 1 2.12-2.17h14.72A2.12 2.12 0 0 1 19 7.93z" transform="translate(0 -1.06)"/><path class="cls-4" d="M22.88 1.09H8.16A2.12 2.12 0 0 0 6 3.19v2.64h10.81A2.12 2.12 0 0 1 19 7.93v7.95l3 3.32v-4.75h.89A2.12 2.12 0 0 0 25 12.33V3.22a2.12 2.12 0 0 0-2.12-2.13z" transform="translate(0 -1.06)"/><path class="cls-5" d="M4.74 14a1.29 1.29 0 1 0-1.29-1.29A1.29 1.29 0 0 0 4.74 14zm4.74 0a1.29 1.29 0 1 0-1.29-1.29A1.29 1.29 0 0 0 9.48 14zm4.74 0a1.29 1.29 0 1 0-1.29-1.29A1.29 1.29 0 0 0 14.22 14z" transform="translate(0 -1.06)"/></g></svg>