<svg id="Layer_1" data-name="Layer 1" xmlns="http://www.w3.org/2000/svg" viewBox="0 0 32 25.38"><defs><style>.cls-1{fill:#ffd782}.cls-2{fill:#fdbd40}.cls-3{fill:#e97424}</style></defs><title>cheese</title><path class="cls-1" d="M32 14.34l-11-11-10.15 5.29a1.65 1.65 0 0 1-2.92 1.54L0 14.34z" transform="translate(0 -3.31)"/><path class="cls-2" d="M30.9 18.76a2.18 2.18 0 0 1 1.1.31v-4.73H0v11a1.1 1.1 0 0 1 1.1 1.1A1.1 1.1 0 0 1 0 27.59v1.1h32v-5.82a2.18 2.18 0 0 1-1.1.31 2.21 2.21 0 1 1 0-4.41z" transform="translate(0 -3.31)"/><path class="cls-3" d="M7.72 19.31A2.76 2.76 0 1 1 5 16.55a2.76 2.76 0 0 1 2.72 2.76zm7.73 5.52a1.66 1.66 0 1 1-1.66-1.66 1.66 1.66 0 0 1 1.66 1.66zm4.41-16.55c0-.61-.74-1.1-1.66-1.1s-1.66.49-1.66 1.1.74 1.1 1.66 1.1 1.66-.49 1.66-1.1zM25.93 11c0-.61-.74-1.1-1.66-1.1s-1.66.49-1.66 1.1.74 1.1 1.66 1.1 1.66-.46 1.66-1.1zm-6.07 7.76a1.1 1.1 0 1 1-1.1-1.1 1.1 1.1 0 0 1 1.1 1.1zm4.42-1.1a1.1 1.1 0 1 1-1.1-1.1 1.1 1.1 0 0 1 1.1 1.1zm3.31 7.72a1.1 1.1 0 1 1-1.1-1.1 1.1 1.1 0 0 1 1.1 1.1z" transform="translate(0 -3.31)"/></svg>