<svg id="Layer_1" data-name="Layer 1" xmlns="http://www.w3.org/2000/svg" viewBox="0 0 25 18.1"><defs><style>.cls-1{fill:#f0c41b}.cls-2{fill:#806f5e}.cls-3{fill:#f9eab0}.cls-4{fill:#db2215}.cls-5{fill:#245ea9}</style></defs><title>credit-card</title><path class="cls-1" d="M23.61 21.55H1.39A1.39 1.39 0 0 1 0 20.17V4.83a1.39 1.39 0 0 1 1.39-1.38h22.22A1.39 1.39 0 0 1 25 4.83v15.34a1.39 1.39 0 0 1-1.39 1.38z" transform="translate(0 -3.45)"/><path class="cls-2" d="M25 5.6H0v3.45h25z" transform="translate(0 -3.45)"/><path class="cls-3" d="M6.47 12.07H2.59a.43.43 0 0 1 0-.86h3.88a.43.43 0 0 1 0 .86zm5.6 0H8.19a.43.43 0 0 1 0-.86h3.88a.43.43 0 0 1 0 .86zM3 14.22h-.41a.43.43 0 1 1 0-.86H3a.43.43 0 1 1 0 .86zm2.6 0h-.86a.43.43 0 1 1 0-.86h.86a.43.43 0 1 1 0 .86zm2.16 0h-.43a.43.43 0 1 1 0-.86h.43a.43.43 0 1 1 0 .86zm2.58 0h-.86a.43.43 0 1 1 0-.86h.86a.43.43 0 1 1 0 .86zm1.73 0a.45.45 0 0 1-.31-.12.45.45 0 0 1-.12-.31.43.43 0 1 1 .43.43z" transform="translate(0 -3.45)"/><path class="cls-4" d="M19.83 16.81a2.59 2.59 0 1 1-2.59-2.59 2.59 2.59 0 0 1 2.59 2.59z" transform="translate(0 -3.45)"/><path class="cls-5" d="M22.84 16.81a2.59 2.59 0 1 1-2.59-2.59 2.59 2.59 0 0 1 2.59 2.59z" transform="translate(0 -3.45)"/></svg>