<svg id="Layer_1" data-name="Layer 1" xmlns="http://www.w3.org/2000/svg" viewBox="0 0 100.07 100.07"><defs><style>.cls-1{fill:none}.cls-2{clip-path:url(#clip-path)}.cls-3{fill:#ffb782}.cls-4{fill:#de4c3c}.cls-5{fill:#7a4930}.cls-6{fill:#4398d1}.cls-7{fill:#3e8cc7}.cls-8{fill:#5eb3d1}.cls-9{fill:#88b337}.cls-10{fill:#6b962a}.cls-11{fill:#fdb62f}.cls-12{fill:#fd7b2f}.cls-13{fill:#f2a46f}</style><clipPath id="clip-path" transform="translate(0 -.1)"><path class="cls-1" d="M0 0h100v100H0z"/></clipPath></defs><title>debit-card</title><g class="cls-2"><path class="cls-3" d="M94 28.54L76 10.46v72.46h24.15v-39.7A20.71 20.71 0 0 0 94 28.54z" transform="translate(0 -.1)"/><path class="cls-4" d="M14.11 69.71L.46 34.29a6.9 6.9 0 0 1 4-8.92L68.82.57a6.9 6.9 0 0 1 8.92 4l13.65 35.38a6.9 6.9 0 0 1-4 8.92L23 73.67a6.9 6.9 0 0 1-8.89-3.96z" transform="translate(0 -.1)"/><path class="cls-5" d="M82.66 17.29L5.44 47.22l5.14 13.35L87.8 30.65z" transform="translate(0 -.1)"/><path class="cls-6" d="M0 45V7A6.9 6.9 0 0 1 6.9.1h69A6.9 6.9 0 0 1 82.81 7v38a6.9 6.9 0 0 1-6.9 6.9H6.9A6.9 6.9 0 0 1 0 45z" transform="translate(0 -.1)"/><path class="cls-7" d="M75.91.1h-7.33L16.82 51.86h59.09a6.9 6.9 0 0 0 6.9-6.9V7a6.9 6.9 0 0 0-6.9-6.9z" transform="translate(0 -.1)"/><path class="cls-8" d="M6.9 27.71h6.9v3.45H6.9zm0 10.35h6.9v3.45H6.9zm31.1 0h6.9v3.45H38zM17.25 27.71h6.9v3.45h-6.9zm10.35 0h6.9v3.45h-6.9zm10.4 0h6.9v3.45H38zM70.74 7h3.45v5.18h-3.45zm-6.9 0h3.45v5.18h-3.45zm-6.91 0h3.45v5.18h-3.45zM50 7h3.45v5.18H50z" transform="translate(0 -.1)"/><path class="cls-9" d="M69 82.92h31.06v17.25H69z" transform="translate(0 -.1)"/><path class="cls-3" d="M63.95 31.27a7.48 7.48 0 0 0-10.8 10.34L67.29 57a23.27 23.27 0 0 0 .47 23.87l1.25 2h22.43V58.76z" transform="translate(0 -.1)"/><path class="cls-10" d="M74.19 88.09h3.45v3.45h-3.45z" transform="translate(0 -.1)"/><path class="cls-11" d="M6.9 18V9.76A2.76 2.76 0 0 1 9.66 7h8.28a2.76 2.76 0 0 1 2.76 2.76V18a2.76 2.76 0 0 1-2.76 2.76H9.66A2.76 2.76 0 0 1 6.9 18z" transform="translate(0 -.1)"/><path class="cls-12" d="M6.9 12.18h5.18v3.45H6.9zm8.63 0h5.17v3.45h-5.17z" transform="translate(0 -.1)"/><path class="cls-13" d="M89.72 58.76a1.72 1.72 0 0 1-1.22-.51l-6.9-6.9a1.73 1.73 0 0 1 2.4-2.43l6.9 6.9a1.73 1.73 0 0 1-1.22 2.95z" transform="translate(0 -.1)"/></g></svg>