<svg id="Layer_1" data-name="Layer 1" xmlns="http://www.w3.org/2000/svg" viewBox="0 0 100 100"><defs><style>.cls-1{fill:none}.cls-2{clip-path:url(#clip-path)}.cls-3{fill:#9bdd39}.cls-4{fill:#93bf00}.cls-5{fill:#3e5959}.cls-6{fill:#384949}</style><clipPath id="clip-path"><path class="cls-1" d="M0 0h100v100H0z"/></clipPath></defs><title>discount</title><g class="cls-2"><path class="cls-3" d="M94.35 57l5.65-7-5.65-7 3.22-8.43L90 29.62l.44-9-8.71-2.35-2.33-8.72-9 .44-4.95-7.56L57 5.65 50 0l-7 5.65-8.45-3.22L29.62 10l-9-.44-2.35 8.71-8.72 2.33.44 9-7.56 4.95L5.65 43 0 50l5.65 7-3.22 8.45L10 70.38l-.44 9 8.71 2.35 2.35 8.71 9-.44 4.93 7.56L43 94.35l7 5.65 7-5.65 8.43 3.22L70.38 90l9 .44 2.35-8.71 8.71-2.35-.44-9 7.56-4.93z"/><path class="cls-4" d="M94.35 57l5.65-7-5.65-7 3.22-8.43L90 29.62l.44-9-8.71-2.35-2.33-8.72-9 .44-4.95-7.56L57 5.65 50 0v100l7-5.65 8.43 3.22L70.38 90l9 .44 2.35-8.71 8.71-2.35-.44-9 7.56-4.93z"/><path class="cls-5" d="M38.1 47.63a10.54 10.54 0 1 0-10.53-10.54A10.55 10.55 0 0 0 38.1 47.63zm0-15.17a4.63 4.63 0 1 1-4.63 4.63 4.64 4.64 0 0 1 4.63-4.63zm23.8 19.91a10.54 10.54 0 1 0 10.53 10.54A10.55 10.55 0 0 0 61.9 52.37zm0 15.17a4.63 4.63 0 1 1 4.63-4.63 4.64 4.64 0 0 1-4.63 4.63zm-34.79 1.28l41-41L72.26 32l-41 41z"/><path class="cls-6" d="M61.9 52.37a10.54 10.54 0 1 0 10.53 10.54A10.55 10.55 0 0 0 61.9 52.37zm0 15.17a4.63 4.63 0 1 1 4.63-4.63 4.64 4.64 0 0 1-4.63 4.63zm6.18-39.69L50 45.93v8.35L72.26 32z"/></g></svg>