<svg id="Layer_1" data-name="Layer 1" xmlns="http://www.w3.org/2000/svg" viewBox="0 0 24.29 25"><defs><style>.cls-1{fill:none}.cls-2{clip-path:url(#clip-path)}.cls-3{fill:#ff7956}.cls-4{fill:#c6c5ca}.cls-5{fill:#d1d1d5}.cls-6{fill:#ff9811}.cls-7{fill:#ffad41}.cls-8{fill:#acabb1}.cls-9{fill:#898890}</style><clipPath id="clip-path" transform="translate(-.39 .05)"><path class="cls-1" d="M0 0h25v25H0z"/></clipPath></defs><title>factory</title><g class="cls-2"><path class="cls-3" d="M2.48 19.09h3.35v2.51H2.48zm7.96 0h3.35v2.51h-3.35zm8.38 0h3.35v2.51h-3.35z" transform="translate(-.39 .05)"/><path class="cls-4" d="M5.42 5.27H2.9L2.23 16 6 14.7z" transform="translate(-.39 .05)"/><path class="cls-5" d="M12.54 6.94H10l-.57 9.18L13 15z" transform="translate(-.39 .05)"/><path class="cls-6" d="M10.44 21.6v-2.51h1.68v-3.77l-2.67.8-1.52.46v-2.52L6 14.7 2.23 16l-1.84.62V25h11.73v-3.4zm-4.61 0H2.48v-2.51h3.35z" transform="translate(-.39 .05)"/><path class="cls-7" d="M16.31 16.58v-2.52L13 15l-.93.28v3.77h1.68v2.55h-1.63V25h12.56V14.06zm5.86 5h-3.35v-2.49h3.35z" transform="translate(-.39 .05)"/><path class="cls-8" d="M12.24 6.23a.42.42 0 0 1-.3-.71 1.59 1.59 0 0 1 1.21-.45.74.74 0 0 0 .85-.86A1.59 1.59 0 0 1 14.46 3a.42.42 0 1 1 .6.58.78.78 0 0 0-.21.64 1.56 1.56 0 0 1-1.47 1.68h-.2a.78.78 0 0 0-.64.21.42.42 0 0 1-.3.12z" transform="translate(-.39 .05)"/><path class="cls-8" d="M11 5a.42.42 0 0 1-.3-.71 1.59 1.59 0 0 1 1.2-.49.74.74 0 0 0 .85-.8 1.59 1.59 0 0 1 .45-1.21.42.42 0 1 1 .6.58.78.78 0 0 0-.21.64 1.56 1.56 0 0 1-1.46 1.66h-.2a.78.78 0 0 0-.64.21A.42.42 0 0 1 11 5z" transform="translate(-.39 .05)"/><path class="cls-9" d="M5.12 4.55a.42.42 0 0 1-.3-.71A1.59 1.59 0 0 1 6 3.38a.74.74 0 0 0 .85-.85 1.59 1.59 0 0 1 .45-1.21.42.42 0 1 1 .6.58.78.78 0 0 0-.21.64 1.56 1.56 0 0 1-1.43 1.68h-.2a.78.78 0 0 0-.64.21.42.42 0 0 1-.3.12z" transform="translate(-.39 .05)"/><path class="cls-9" d="M3.86 3.3a.42.42 0 0 1-.3-.71 1.59 1.59 0 0 1 1.21-.45.78.78 0 0 0 .64-.21.78.78 0 0 0 .21-.64A1.59 1.59 0 0 1 6.08.07a.42.42 0 0 1 .59.59.78.78 0 0 0-.21.64A1.56 1.56 0 0 1 5 3h-.2a.78.78 0 0 0-.64.21.42.42 0 0 1-.3.09z" transform="translate(-.39 .05)"/></g></svg>