<svg id="Layer_1" data-name="Layer 1" xmlns="http://www.w3.org/2000/svg" viewBox="0 0 206.62 130"><defs><style>.cls-1{fill:none}.cls-2{fill:#ed2e2e}.cls-3{clip-path:url(#clip-path)}.cls-4{fill:#fdd7ad}.cls-5{fill:#cb8252}.cls-6{fill:#c03a2b}.cls-7{fill:#e64c3c}.cls-8{fill:#5e5f62}.cls-9{fill:#fff}.cls-10{fill:#a5a5a4}.cls-11{fill:#2c2f38}.cls-12{fill:#90bae1}.cls-13{fill:#b0d3f0}</style><clipPath id="clip-path" transform="translate(0 -1)"><path class="cls-1" d="M0 1h130v130H0z"/></clipPath></defs><title>features-time</title><path class="cls-2" d="M100.7 6.48L77.54 34.9v6.2h23.62V50h7v-8.9h7.49v-6.33h-7.49V6.48zm.45 28.29H85.66l15.49-19zm22.94-28.29l-1.41 24.19a35.35 35.35 0 0 1 11.07-1.92c6.91 0 11.84 2 11.84 7.81 0 5.12-4.61 7.68-11.07 7.68A27.27 27.27 0 0 1 121.4 41v6.85a33.12 33.12 0 0 0 14 2.94c9.6 0 17.6-4.8 17.6-14.21 0-10.24-7.81-13.89-16.19-13.89a28.16 28.16 0 0 0-6.59.77l.64-10.5h20.1V6.48zM161.08 50v-7.8l3.26 5h1.54l3.29-5V50h2.47V38.48H169l-3.94 6.07-3.91-6.07h-2.59V50zm16.22 0l6.17-7.54V50H186V38.48h-2.21L177.66 46v-7.52h-2.57V50zm14.76 0v-4.63h5.76V50h2.57V38.48h-2.57v4.63h-5.76v-4.63h-2.57V50zm14.57-1.32a1.48 1.48 0 0 0-1.63-1.54 1.56 1.56 0 1 0 1.61 1.54z" transform="translate(0 -1)"/><g class="cls-3"><path class="cls-4" d="M72.1 54.79h40.66a6.74 6.74 0 0 1 6.14 4L129.24 77h-73l15.87-22.21z" transform="translate(0 -1)"/><path class="cls-5" d="M65.9 75h59.62a4.42 4.42 0 0 1 3.72 2 4.34 4.34 0 0 1 .76 2.47v47.07a4.5 4.5 0 0 1-4.48 4.48H56.26a4.5 4.5 0 0 1-4.48-4.48V87.11z" transform="translate(0 -1)"/><path class="cls-6" d="M89.77 75h9v20.14a1.12 1.12 0 0 1-1.79.9l-4.75-3.54a2.24 2.24 0 0 0-2.69 0l-4.7 3.5a1.12 1.12 0 0 1-1.79-.9V75h9" transform="translate(0 -1)"/><path class="cls-7" d="M98.73 75l-4.48-20.21h-6.72L83 75z" transform="translate(0 -1)"/><path class="cls-8" d="M118.79 124.28h-9a2.24 2.24 0 0 1 0-4.48h9a2.24 2.24 0 1 1 0 4.48z" transform="translate(0 -1)"/><path class="cls-6" d="M114.31 97.38a2.24 2.24 0 0 1-2.24-2.24v-5.8l-.66.66a2.24 2.24 0 0 1-3.17-3.17l4.48-4.48a2.24 2.24 0 0 1 3.83 1.58v11.21a2.24 2.24 0 0 1-2.24 2.24z" transform="translate(0 -1)"/><path class="cls-6" d="M118.79 90.65a2.24 2.24 0 0 1-1.58-.66l-4.48-4.48a2.24 2.24 0 0 1 3.17-3.17l4.48 4.48a2.24 2.24 0 0 1-1.58 3.83z" transform="translate(0 -1)"/><path class="cls-8" d="M114.31 124.28a2.24 2.24 0 0 1-2.24-2.24v-9a2.24 2.24 0 1 1 4.48 0v9a2.24 2.24 0 0 1-2.24 2.24z" transform="translate(0 -1)"/><path class="cls-8" d="M114.31 115.31a6.74 6.74 0 0 1-6.72-6.72v-2.24a4.48 4.48 0 0 1 4.48-4.48h4.48a4.48 4.48 0 0 1 4.48 4.48v2a7 7 0 0 1-5.59 6.9 7.13 7.13 0 0 1-1.13.06z" transform="translate(0 -1)"/><path class="cls-9" d="M62.87 110.83h11.21a2.24 2.24 0 0 1 2.24 2.24v6.72a2.24 2.24 0 0 1-2.24 2.21H62.87a2.24 2.24 0 0 1-2.24-2.24v-6.72a2.24 2.24 0 0 1 2.24-2.21z" transform="translate(0 -1)"/><path class="cls-10" d="M58.86 27l4.38-4.38a4.48 4.48 0 0 1 6.34 0l1.59 1.6a4.48 4.48 0 0 1 0 6.34l-4.81 4.81zM6.12 35.36l-4.81-4.81a4.48 4.48 0 0 1 0-6.34l1.59-1.6a4.48 4.48 0 0 1 6.34 0L13.63 27z" transform="translate(0 -1)"/><path class="cls-11" d="M31.76 10h9v9.26h-9z" transform="translate(0 -1)"/><path class="cls-10" d="M25 1h22.45a4.48 4.48 0 1 1 0 9H25a4.48 4.48 0 1 1 0-9z" transform="translate(0 -1)"/><path class="cls-8" d="M72.11 54.79a35.86 35.86 0 1 1-35.86-35.86 35.86 35.86 0 0 1 35.86 35.86z" transform="translate(0 -1)"/><path class="cls-12" d="M63.14 54.79a26.9 26.9 0 1 1-26.9-26.9 26.9 26.9 0 0 1 26.9 26.9z" transform="translate(0 -1)"/><path class="cls-13" d="M63.09 52.33c-26.16-1.26-40.75 8.63-48.73 18a26.9 26.9 0 1 1 48.73-18z" transform="translate(0 -1)"/><path class="cls-10" d="M39.88 55a2.24 2.24 0 0 1-1-4.24l9.44-4.73a2.24 2.24 0 1 1 2 4l-9.45 4.72a2.24 2.24 0 0 1-.99.25zm-7.38-.45a2.23 2.23 0 0 1-1.24-.38l-9.7-6.48A2.24 2.24 0 1 1 24 44l9.7 6.48a2.24 2.24 0 0 1-1.25 4.1z" transform="translate(0 -1)"/><path class="cls-8" d="M40.34 54.79a4.48 4.48 0 1 1-4.48-4.48 4.48 4.48 0 0 1 4.48 4.48z" transform="translate(0 -1)"/></g></svg>