<svg id="Layer_1" data-name="Layer 1" xmlns="http://www.w3.org/2000/svg" viewBox="0 0 32 23.01"><defs><style>.cls-1{fill:none}.cls-2{clip-path:url(#clip-path)}.cls-3{fill:#fbbf00}.cls-4{fill:#ffa900}.cls-5{fill:#f80}.cls-6{fill:#333}.cls-7{fill:#e47700}</style><clipPath id="clip-path" transform="translate(0 -4.5)"><path class="cls-1" d="M0 0h32v32H0z"/></clipPath></defs><title>fish</title><g class="cls-2"><path class="cls-3" d="M18.22 7.08a3.87 3.87 0 0 0-4.94-2.36L9.42 6.08 11 10.55l7.48-2.72z" transform="translate(0 -4.5)"/><path class="cls-4" d="M11 21.45l-1.58 4.47 3.86 1.36a3.87 3.87 0 0 0 4.94-2.36l.27-.75z" transform="translate(0 -4.5)"/><path class="cls-4" d="M20.55 7.48C14.36 7.48 7 12.41 5 15v2c2 2.55 9.38 7.47 15.57 7.47C27.77 24.52 32 16 32 16s-4.23-8.52-11.45-8.52z" transform="translate(0 -4.5)"/><path class="cls-5" d="M5 16v1c2 2.55 9.38 7.47 15.57 7.47C27.77 24.52 32 16 32 16z" transform="translate(0 -4.5)"/><path class="cls-3" d="M32 16s-2.94-5.92-8.1-7.89a13.33 13.33 0 0 0 0 15.77C29.06 21.92 32 16 32 16z" transform="translate(0 -4.5)"/><path class="cls-4" d="M32 16H21.32a13.2 13.2 0 0 0 2.58 7.89C29.06 21.92 32 16 32 16z" transform="translate(0 -4.5)"/><path class="cls-6" d="M26 14.79a.94.94 0 1 0-.94-.94.94.94 0 0 0 .94.94z" transform="translate(0 -4.5)"/><path class="cls-5" d="M2.1 16h-.45A1.65 1.65 0 0 1 0 14.35v-3.88h.5a4.65 4.65 0 0 1 4.65 4.65v1.75A4.65 4.65 0 0 1 .5 21.53H0v-3.88A1.65 1.65 0 0 1 1.65 16" transform="translate(0 -4.5)"/><path class="cls-7" d="M2.1 16h3.05v.87A4.65 4.65 0 0 1 .5 21.53H0v-3.88A1.65 1.65 0 0 1 1.65 16" transform="translate(0 -4.5)"/></g></svg>