<svg id="Layer_1" data-name="Layer 1" xmlns="http://www.w3.org/2000/svg" viewBox="0 0 28.54 32"><defs><style>.cls-1{fill:#ffd27b}.cls-2{fill:#f8bb5e}.cls-3{fill:#ff4949}.cls-4{fill:#ff193d}</style></defs><title>french-fries</title><path class="cls-1" d="M10.38 3.75H6.63v18.81h3.75z" transform="translate(-1.73)"/><path class="cls-2" d="M10.38 3.75H8.5v18.81h1.88z" transform="translate(-1.73)"/><path class="cls-1" d="M14.13 0h-3.75v18.81h3.75z" transform="translate(-1.73)"/><path class="cls-2" d="M14.13 0h-1.88v18.81h1.88z" transform="translate(-1.73)"/><path class="cls-1" d="M17.88 1.88h-3.75v18.81h3.75z" transform="translate(-1.73)"/><path class="cls-2" d="M17.88 1.88H16v18.81h1.88z" transform="translate(-1.73)"/><path class="cls-1" d="M21.63 0h-3.75v18.81h3.75z" transform="translate(-1.73)"/><path class="cls-2" d="M21.63 0h-1.88v18.81h1.88z" transform="translate(-1.73)"/><path class="cls-1" d="M25.38 3.75h-3.75v18.81h3.75z" transform="translate(-1.73)"/><path class="cls-2" d="M25.38 3.75H23.5v18.81h1.88z" transform="translate(-1.73)"/><path class="cls-3" d="M24.87 11.31l-3.75 5.63H10.88l-3.75-5.63h-5.4L5.86 32h20.28l4.13-20.69z" transform="translate(-1.73)"/><path class="cls-4" d="M30.27 11.31L26.14 32H16V16.94h5.12l3.75-5.62z" transform="translate(-1.73)"/><path class="cls-1" d="M9.44 20.69v7.56h13.12v-7.56z" transform="translate(-1.73)"/><path class="cls-2" d="M22.56 20.69H16v7.56h6.56z" transform="translate(-1.73)"/></svg>