<svg id="Layer_1" data-name="Layer 1" xmlns="http://www.w3.org/2000/svg" viewBox="0 0 120 106.87"><defs><style>.cls-1{fill:#f4d06b}.cls-2{fill:#24465e}.cls-3{fill:#dd9947}.cls-4{fill:#75b2cc}.cls-5{fill:#2c967f}.cls-6{fill:#74dbad}.cls-7{fill:#f25f5f}.cls-8{fill:#ce4141}</style></defs><title>gift</title><path class="cls-1" d="M90.29 113.43H0L5.47 6.56h79.35l3.25 63.5.58 11.29z" transform="translate(0 -6.56)"/><path class="cls-2" d="M71.07 23.27a5.84 5.84 0 1 1-5.84-5.84 5.84 5.84 0 0 1 5.84 5.84z" transform="translate(0 -6.56)"/><path class="cls-3" d="M70.24 72.36v9h-21.6c-3.29 0-5.58-2.22-6.79-5.32-2-5.09-1.11-12.56 2.9-16.57C51.19 53 70.24 72.36 70.24 72.36z" transform="translate(0 -6.56)"/><path class="cls-2" d="M30.89 23.27a5.84 5.84 0 1 1-5.84-5.84 5.84 5.84 0 0 1 5.84 5.84z" transform="translate(0 -6.56)"/><path class="cls-4" d="M45.06 69.34a21.92 21.92 0 0 1-21.84-21.92V23.26a1.84 1.84 0 0 1 3.67 0v24.16a18.25 18.25 0 0 0 18.18 18.25 1.84 1.84 0 0 1 0 3.67zM60 62.75a1.84 1.84 0 0 1-1.36-3.07 18.21 18.21 0 0 0 4.76-12.26V23.26a1.84 1.84 0 0 1 3.67 0v24.16a21.87 21.87 0 0 1-5.68 14.73 1.83 1.83 0 0 1-1.39.6z" transform="translate(0 -6.56)"/><path class="cls-3" d="M90.29 113.43H40.76a6.32 6.32 0 0 1-6.32-6.31v-19a6.76 6.76 0 0 1 6.76-6.76h47.45z" transform="translate(0 -6.56)"/><path class="cls-5" d="M120 88.13v19a6.32 6.32 0 0 1-6.32 6.31H46.27a6.32 6.32 0 0 1-6.27-6.32v-19a6.76 6.76 0 0 1 6.76-6.76h66.52a6.76 6.76 0 0 1 6.72 6.77z" transform="translate(0 -6.56)"/><path class="cls-6" d="M120 88.13v19a6.32 6.32 0 0 1-6.32 6.31H53.26a6.31 6.31 0 0 1-6.26-6.32v-19a6.76 6.76 0 0 1 6.76-6.76h59.53a6.76 6.76 0 0 1 6.71 6.77z" transform="translate(0 -6.56)"/><path class="cls-7" d="M72.33 81.36h15.3v32.07h-15.3zm1.95-9v9h-21.6c-3.29 0-5.58-2.22-6.8-5.32-2-5.09-1.11-12.56 2.9-16.57 6.45-6.47 25.5 12.89 25.5 12.89z" transform="translate(0 -6.56)"/><path class="cls-8" d="M74.28 78.37v3h-21.6c-3.29 0-5.58-2.22-6.8-5.32.01-10.44 18.5-4.28 28.4 2.32z" transform="translate(0 -6.56)"/><path class="cls-7" d="M85.68 72.36v9h21.6c3.29 0 5.58-2.22 6.79-5.32 2-5.09 1.11-12.56-2.9-16.57-6.44-6.47-25.49 12.89-25.49 12.89z" transform="translate(0 -6.56)"/><path class="cls-8" d="M85.68 78.37v3h21.6c3.29 0 5.58-2.22 6.79-5.32 0-10.44-18.49-4.28-28.39 2.32zm-11.4-6.01h11.4v9h-11.4z" transform="translate(0 -6.56)"/></svg>