<svg id="Layer_1" data-name="Layer 1" xmlns="http://www.w3.org/2000/svg" viewBox="0 0 32 32"><defs><style>.cls-1{fill:none}.cls-2{clip-path:url(#clip-path)}.cls-3{fill:#99503d}.cls-4{fill:#90e36a}.cls-5{fill:#70da40}.cls-6{fill:#ffd400}.cls-7{fill:#fdbf00}.cls-8{fill:#ffe470}</style><clipPath id="clip-path"><path class="cls-1" d="M0 0h32v32H0z"/></clipPath></defs><title>lemons</title><g class="cls-2"><path class="cls-3" d="M11.38 4.89l-1.83-.37A5.64 5.64 0 0 1 15.06 0v1.88a3.76 3.76 0 0 0-3.68 3.01z"/><path class="cls-4" d="M10.38 1.89A4.66 4.66 0 0 0 6.63 0H1.94v.94a4.69 4.69 0 0 0 4.69 4.69h4.69v-.94a4.52 4.52 0 0 0-.94-2.8z"/><path class="cls-5" d="M11.31 4.69v.94h-.94V1.89a4.52 4.52 0 0 1 .94 2.8z"/><path class="cls-6" d="M20.69 17.94a13.67 13.67 0 0 1-.58 4l-5 6.81a9.07 9.07 0 0 1-2 .92 2.82 2.82 0 0 1-5.55 0C3.19 28.23 0 23.41 0 17.94S3.19 7.52 7.6 6.07a2.82 2.82 0 0 1 5.55 0c4.41 1.45 7.54 6.39 7.54 11.87z"/><path class="cls-7" d="M20.69 17.94a13.67 13.67 0 0 1-.58 4l-5 6.81a9.07 9.07 0 0 1-2 .92A2.82 2.82 0 0 1 10.38 32V3.75a2.84 2.84 0 0 1 2.77 2.32c4.41 1.45 7.54 6.39 7.54 11.87z"/><path class="cls-6" d="M32 20.75v.94a10.34 10.34 0 0 1-20.69 0v-.94h3.75l1.88.94h9.38l1.88-.94z"/><path class="cls-7" d="M32 20.75v.94A10.38 10.38 0 0 1 21.63 32V21.69h4.69l1.88-.94z"/><path class="cls-8" d="M28.19 20.75v.94A6.59 6.59 0 0 1 26.56 26a6.45 6.45 0 0 1-1.42 1.24 6.48 6.48 0 0 1-7 0A6.45 6.45 0 0 1 16.69 26a6.59 6.59 0 0 1-1.63-4.29v-.94h5.31l1.26.94 1.26-.94z"/><path class="cls-6" d="M28.19 20.75v.94A6.59 6.59 0 0 1 26.56 26a6.45 6.45 0 0 1-1.42 1.24 6.57 6.57 0 0 1-3.51 1v-6.55l1.26-.94z"/><path class="cls-6" d="M27.63 27.5l-1.5 1.13-1-1.41-3.51-5-3.51 5-1 1.41-1.5-1.12L16.69 26l3.68-5.23h2.51L26.56 26z"/><path class="cls-7" d="M27.63 27.5l-1.5 1.13-1-1.41-3.51-5v-1.47h1.26L26.56 26z"/></g></svg>