<svg id="Layer_1" data-name="Layer 1" xmlns="http://www.w3.org/2000/svg" viewBox="0 0 20 17.85"><defs><style>.cls-1{fill:none}.cls-2{clip-path:url(#clip-path)}.cls-3{fill:#44c868}.cls-4{fill:#4ce166}.cls-5{fill:#ffdb56}.cls-6{fill:#a8eefc}.cls-7{fill:#ffbb24}.cls-8{fill:#ff4a4a}.cls-9{fill:#e7343f}.cls-10{fill:#1ea4e9}</style><clipPath id="clip-path" transform="translate(0 -1.07)"><path class="cls-1" d="M0 0h20v20H0z"/></clipPath></defs><title>map</title><g class="cls-2"><path class="cls-3" d="M20 18.58l-1.58-8.66a.29.29 0 0 0-.15-.2l-4-2.2a.29.29 0 0 0-.17 0l.72 9.28 4.73 2.12h.12a.29.29 0 0 0 .29-.35zM10 9.62l-4-2.1a.29.29 0 0 0-.16 0l-.72 9.28 4.76 2.1H10z" transform="translate(0 -1.07)"/><path class="cls-4" d="M5.84 7.49a.29.29 0 0 0-.17 0l-4 2.2a.29.29 0 0 0-.15.2L0 18.58a.29.29 0 0 0 .29.35h.12l4.71-2.11zm8.32 0h-.11L10 9.62v9.3h.12l4.76-2.13z" transform="translate(0 -1.07)"/><path class="cls-5" d="M1.1 12.55l-.32 1.76 4.73-2.5.11-1.42v-.23z" transform="translate(0 -1.07)"/><path class="cls-6" d="M5.55 11.26v.55l-4.77 2.5L0 18.58a.29.29 0 0 0 .29.35h.12l4.71-2.11z" transform="translate(0 -1.07)"/><path class="cls-7" d="M10 10.78l-4.37-.62-.13 1.65 4.5 6.82v-2.48l-2.68-4.22 2.68.32zm8-1.23l-1.9-1.06-1.8.42v.29l.09 1.15z" transform="translate(0 -1.07)"/><path class="cls-5" d="M14.54 12.41l-.17-2.2-.1-1.3L10 10.78v1.47L12.79 11z" transform="translate(0 -1.07)"/><path class="cls-7" d="M20 18.58l-.39-2.17-5.22-6.06.16 2.06 5.35 6.45a.29.29 0 0 0 .1-.28z" transform="translate(0 -1.07)"/><path class="cls-8" d="M10 1.07a4.11 4.11 0 0 0-4.11 4.1 7.16 7.16 0 0 0 2 4.47 14 14 0 0 0 2 1.92.29.29 0 0 0 .36 0 14 14 0 0 0 2-1.92 7.16 7.16 0 0 0 2-4.47A4.11 4.11 0 0 0 10 1.07zm1.52 4.1A1.52 1.52 0 1 1 10 3.66a1.52 1.52 0 0 1 1.54 1.52z" transform="translate(0 -1.07)"/><path class="cls-9" d="M10 1.07a4.13 4.13 0 0 0-.53 0 4.11 4.11 0 0 1 3.58 4.07 7.16 7.16 0 0 1-2 4.47 14.69 14.69 0 0 1-1.6 1.63l.35.29a.29.29 0 0 0 .36 0 14 14 0 0 0 2-1.92 7.16 7.16 0 0 0 2-4.47A4.11 4.11 0 0 0 10 1.07z" transform="translate(0 -1.07)"/><path class="cls-5" d="M10.12 18.9l1.77-.79-1.89-2v2.77z" transform="translate(0 -1.07)"/><path class="cls-10" d="M18.42 9.92a.29.29 0 0 0-.15-.2L18 9.55l-3.59.8 5.22 6.06zM10 18.93v-.29l-4.49-6.83-.38 5 4.75 2.09z" transform="translate(0 -1.07)"/></g></svg>