<svg id="Layer_1" data-name="Layer 1" xmlns="http://www.w3.org/2000/svg" viewBox="0 0 32 23.27"><defs><style>.cls-1{fill:none}.cls-2{clip-path:url(#clip-path)}.cls-3{fill:#edb4a2}.cls-4{fill:#f3cdc1}.cls-5{fill:#ae2b00}.cls-6{fill:#e48d72}.cls-7{fill:#8e1600}.cls-8{fill:#d65128}</style><clipPath id="clip-path" transform="translate(.06 -4.38)"><path class="cls-1" d="M0 0h32v32H0z"/></clipPath></defs><title>meat</title><g class="cls-2"><path class="cls-3" d="M31.94 13.83c0-5.22-5.86-9.45-13.09-9.45a16.93 16.93 0 0 0-6.68 1.32C10 6.64 7.7 7.27 5.44 8c-3.27 1.11-5.5 3.3-5.5 5.83v4.37c0 2.53 2.24 4.72 5.51 5.81 2.25.75 4.55 1.38 6.73 2.32a16.93 16.93 0 0 0 6.67 1.33c7.23 0 13.09-4.23 13.09-9.45z" transform="translate(.06 -4.38)"/><path class="cls-4" d="M18.85 4.38a17.11 17.11 0 0 0-6.09 1.09A69 69 0 0 1 6.17 7.8c-3.66 1-6.24 3.31-6.24 6s2.57 5 6.24 6a69 69 0 0 1 6.58 2.34 17.11 17.11 0 0 0 6.09 1.09c7.23 0 13.09-4.23 13.09-9.45s-5.85-9.4-13.08-9.4z" transform="translate(.06 -4.38)"/><path class="cls-5" d="M30.39 14.84a1.47 1.47 0 0 0-1.17-1.71h-4.56c-2.91 0-2.78 1.1-2.78 1.45a1.32 1.32 0 0 0 .39.94 5.24 5.24 0 0 1 1.54 3.66 1.37 1.37 0 0 0 2 1.07C28.27 19 30 17 30.39 14.84z" transform="translate(.06 -4.38)"/><path class="cls-6" d="M31.13 13.63h-.07a.73.73 0 0 0-.65.79v.08a6.55 6.55 0 0 1-1.51 2.89h-.13l-.12.12a10.19 10.19 0 0 1-2.13 1.62h-.36a1.38 1.38 0 0 1-.63.16 1.36 1.36 0 0 1-1.36-1.22h-.2a4.44 4.44 0 0 0-.38-.82.73.73 0 0 0-1.25.74 4.86 4.86 0 0 1 .54 2 2.81 2.81 0 0 0 2.81 2.53 2.85 2.85 0 0 0 1.3-.32 12 12 0 0 0 3-2.18 8.15 8.15 0 0 0 2.25-4.17 2.93 2.93 0 0 0 0-.82.73.73 0 0 0-.72-.66z" transform="translate(.06 -4.38)"/><path class="cls-5" d="M18.85 8.62A15.72 15.72 0 0 0 22 10.67a13.69 13.69 0 0 0 5.78 1 1.24 1.24 0 0 0 .88-2.11 13 13 0 0 0-8.36-3.67c-2.91-.06-2.91 1.39-1.45 2.73z" transform="translate(.06 -4.38)"/><path class="cls-6" d="M20.59 10a.73.73 0 0 0-.37 1.35c.37.22.75.43 1.14.62a14.12 14.12 0 0 0 5.85 1.13h1.12a2.66 2.66 0 0 0 2.09-2.15.73.73 0 1 0-1.42-.31 1.25 1.25 0 0 1-.29.53h-.1a1.18 1.18 0 0 1-.48.22h-.93a12.81 12.81 0 0 1-5.21-1h-.34l-.44-.24h-.06l-.2-.11a.72.72 0 0 0-.36-.04z" transform="translate(.06 -4.38)"/><path class="cls-5" d="M4.3 10.19h-.41a3.84 3.84 0 0 0-3.94 3.9v3.8C-.24 20.54 2 22.87 5.44 24l.79.26a4.08 4.08 0 0 0 5.34-3.89c0-2.9 0-10.18-7.27-10.18z" transform="translate(.06 -4.38)"/><path class="cls-5" d="M20.43 14.56a2.73 2.73 0 0 1 .32-1.26 1.46 1.46 0 0 0-.55-2 18.15 18.15 0 0 1-2.8-2.06l-.4-.32a5.7 5.7 0 0 0-5.94-1.25 1.83 1.83 0 0 0-1 3.13c2.33 2.23 2.8 5.77 2.89 8.11a2.43 2.43 0 0 0 1.48 2.32 16.14 16.14 0 0 0 4.36.59h.61a2.92 2.92 0 0 0 2.74-3.54 3.3 3.3 0 0 0-1-1.75 2.77 2.77 0 0 1-.71-1.97z" transform="translate(.06 -4.38)"/><path class="cls-6" d="M22.36 16a.73.73 0 0 0-.61 1.12 3.14 3.14 0 0 1 .26.54h.18a2.87 2.87 0 0 1-.58 2.1l-.14.17h-.17l-.15.13h-.39l-.19.1a2.9 2.9 0 0 1-.89.25h-1.5a16.38 16.38 0 0 1-2.13-.22h-1.64a1.55 1.55 0 0 1-.29-.15h-.68a.73.73 0 0 0-1.33.6 3.72 3.72 0 0 0 2.18 2q.58.16 1.18.29h.09a17.81 17.81 0 0 0 3.49.34h.67a4.37 4.37 0 0 0 3.32-1.72 4.32 4.32 0 0 0 .79-3.6 4.87 4.87 0 0 0-.65-1.6.73.73 0 0 0-.82-.35z" transform="translate(.06 -4.38)"/><path class="cls-7" d="M29.56 14.48a.73.73 0 0 0-.7.52v.12a6.86 6.86 0 0 1-3.32 3.62.73.73 0 0 0 .67 1.26 8.26 8.26 0 0 0 4-4.44v-.14a.72.72 0 0 0-.49-.89.73.73 0 0 0-.16-.05zm-.66-4.57v-.09h-.17l-.06-.07a9.43 9.43 0 0 0-1-.84h-.12a.73.73 0 0 0-.87 1.17 8.21 8.21 0 0 1 .76.64h-.24a11.5 11.5 0 0 1-4.56-.84q-.47-.23-.94-.51a.73.73 0 0 0-.75 1.25l.19.11h.06l.44.24H22a12.82 12.82 0 0 0 5.21 1h.95a1.18 1.18 0 0 0 .46-.3h.12a1.26 1.26 0 0 0 .14-.28H29v-.13a1.24 1.24 0 0 0-.1-1.35zm-8.73 2.22a.75.75 0 0 0-.7.48 4.16 4.16 0 0 0-.47 1.95 4.21 4.21 0 0 0 1.24 3 1.85 1.85 0 0 1 .57 1 1.41 1.41 0 0 1-.27 1.18 1.47 1.47 0 0 1-1.11.58h-.56a14.6 14.6 0 0 1-3.91-.52 1.12 1.12 0 0 1-.48-1v-.27a.72.72 0 0 0-.72-.69.73.73 0 0 0-.69.76v.31a2.5 2.5 0 0 0 .6 1.1h.15a1.94 1.94 0 0 0 .59.38h.06a16.15 16.15 0 0 0 4.36.59h.82a2.9 2.9 0 0 0 .89-.25l.19-.1h.39l.15-.13h.22a2.88 2.88 0 0 0 .72-2.27h-.01a3.3 3.3 0 0 0-1-1.75 2.77 2.77 0 0 1-.82-2 2.73 2.73 0 0 1 .32-1.26v-.2a.7.7 0 0 0-.45-.85.75.75 0 0 0-.08-.04zM2.43 17.15a2.18 2.18 0 0 0-1.91 3.24 5.81 5.81 0 0 0 .72 1h.93A10.52 10.52 0 0 0 5 22.89h1l1.8.57h.17a2.18 2.18 0 0 0 1.32-4.16h-.16l-.5-.16-1.81-.58a4.55 4.55 0 0 1-2.48-1.59 2.18 2.18 0 0 0-1.91.18z" transform="translate(.06 -4.38)"/><path class="cls-6" d="M13.76 23.92a1.45 1.45 0 0 0-.47 2.83h.43a16.68 16.68 0 0 0 2.08.5h3.74a1.45 1.45 0 0 0-.06-2.91h-1.35a14.14 14.14 0 0 1-3.9-.72 1.45 1.45 0 0 0-.47-.08zm15.37-3.46A1.45 1.45 0 0 0 28 21a7 7 0 0 1-.69.76 10 10 0 0 1-3.14 1.94 1.45 1.45 0 0 0 1.08 2.7 12.9 12.9 0 0 0 4.05-2.53 9.89 9.89 0 0 0 .8-.87h.06a1.45 1.45 0 0 0-1.15-2.34z" transform="translate(.06 -4.38)"/><path class="cls-8" d="M5.76 13.1c0-.8-1-1.45-2.18-1.45S1.4 12.3 1.4 13.1s1 1.45 2.18 1.45 2.18-.64 2.18-1.45zm2.6.3a.75.75 0 0 0-1-.16.75.75 0 0 0 .16 1 .75.75 0 0 0 1 .16.75.75 0 0 0-.16-1zm7.58-3.21c0-.8-1-1.45-2.18-1.45s-2.18.65-2.18 1.45 1 1.45 2.18 1.45 2.18-.64 2.18-1.45zm2.91 2.19a.73.73 0 1 1-.73-.73.73.73 0 0 1 .73.73zM21.76 8a.73.73 0 1 1-.76-.72.73.73 0 0 1 .76.72zm2.9 7.28a.73.73 0 1 1-.73-.73.73.73 0 0 1 .73.73z" transform="translate(.06 -4.38)"/></g></svg>