<svg id="Layer_1" data-name="Layer 1" xmlns="http://www.w3.org/2000/svg" viewBox="0 0 150 140.54"><defs><style>.cls-1{fill:none}.cls-2{clip-path:url(#clip-path)}.cls-3{fill:#eab932}.cls-4{fill:#ffd039}.cls-5{fill:#ed2e2e}.cls-6{fill:#d82525}.cls-7{fill:#3b9dff}.cls-8{fill:#4d4d4d}.cls-9{fill:#0fbc30}.cls-10{fill:#ccc}.cls-11{fill:#e6e6e6}.cls-12{fill:#f2f2f2}.cls-13{fill:#999}</style><clipPath id="clip-path" transform="translate(0 -4.73)"><path class="cls-1" d="M0 0h150v150H0z"/></clipPath></defs><title>moscow</title><g class="cls-2"><path class="cls-3" d="M23.41 24.77A17.15 17.15 0 1 1 6.26 41.92a17.15 17.15 0 0 1 17.15-17.15z" transform="translate(0 -4.73)"/><path class="cls-4" d="M40.56 41.92A17.15 17.15 0 0 1 17.47 58a17.16 17.16 0 0 1 22-22 17.07 17.07 0 0 1 1.09 5.92z" transform="translate(0 -4.73)"/><path class="cls-5" d="M42 27.09l4.95 21.63-7.55 2.51-4.64-2.51 3.51-15.35 1.44-6.28a5.21 5.21 0 0 0 2.28 0z" transform="translate(0 -4.73)"/><path class="cls-6" d="M49.72 48.71l1 7.23-.82.11-8.62 3.88-9.47-3.88-.81-.11 1-7.23h17.72z" transform="translate(0 -4.73)"/><path class="cls-7" d="M50.71 55.94l1 7.45-11.29 3.54L30 63.39l.82-6 .2-1.46.81.11H49.9z" transform="translate(0 -4.73)"/><path class="cls-6" d="M40.85 24.14A1.16 1.16 0 0 1 39.69 23v-7.47a1.16 1.16 0 1 1 2.33 0V23a1.16 1.16 0 0 1-1.17 1.14z" transform="translate(0 -4.73)"/><path class="cls-5" d="M40.85 19.53a3.92 3.92 0 0 1 .87 7.75 4 4 0 0 1-1.75 0 3.92 3.92 0 0 1 .87-7.75z" transform="translate(0 -4.73)"/><path class="cls-6" d="M54 78.07L61.92 137h-39L20 96.28c1.3-1.54 7.68-18.21 7.68-18.21V63.39H54z" transform="translate(0 -4.73)"/><path class="cls-5" d="M53.14 103.67h-25.6v3.41h25.6zM103.31 34L98.4 21.58v-6.29a1.43 1.43 0 1 0-2.86 0v6.29L90.63 34h-2v14.5h16.78V34z" transform="translate(0 -4.73)"/><path class="cls-8" d="M97 49.56A2.56 2.56 0 0 1 94.41 47v-4.1a2.56 2.56 0 0 1 5.12 0V47A2.56 2.56 0 0 1 97 49.56z" transform="translate(0 -4.73)"/><path class="cls-5" d="M82.32 83.19v43.54h29.3V83.19zm37.2 1.36h-5.12v10.58h5.12zm-61.81 9.9h15.74V123l-14 14h-9.21V94.45z" transform="translate(0 -4.73)"/><path class="cls-6" d="M73.45 90.7H66.9v45.86h6.55z" transform="translate(0 -4.73)"/><path class="cls-5" d="M31.46 94.81V137H8.25V94.45h23.21z" transform="translate(0 -4.73)"/><path class="cls-6" d="M31.46 90.7h-5.19v45.86h5.19z" transform="translate(0 -4.73)"/><path class="cls-5" d="M143.79 137H115v-14h-3.41V90.7h32.18z" transform="translate(0 -4.73)"/><path class="cls-6" d="M122 90.7h-10.39v45.86H122z" transform="translate(0 -4.73)"/><path class="cls-6" d="M115 123v14H96.14v-14H115z" transform="translate(0 -4.73)"/><path class="cls-5" d="M108.09 69.91V47H85.85v22.91h-3.53v13.28h29.3V69.91z" transform="translate(0 -4.73)"/><path class="cls-7" d="M73.27 94.45a.88.88 0 0 0 .73-.37 8 8 0 0 0 1.5-4.58c0-11.09-8.87-11.43-13.65-17.24-2.16 2.63-5.17 4.14-7.81 6-3.18 2.28-5.84 5.14-5.84 11.2a8 8 0 0 0 1.5 4.58.88.88 0 0 0 .73.37z" transform="translate(0 -4.73)"/><path class="cls-9" d="M31.74 94.45a8.1 8.1 0 0 0 1.77-4.95 14.45 14.45 0 0 0-.92-5.4 13.26 13.26 0 0 0-5.19-6c-2.57-1.81-5.45-3.3-7.54-5.84-2 2.45-4.76 3.93-7.26 5.65-2.35 1.61-4.48 3.45-5.59 6.5a14.72 14.72 0 0 0-.81 5.09 8 8 0 0 0 1.54 4.64.75.75 0 0 0 .62.31z" transform="translate(0 -4.73)"/><path class="cls-10" d="M97.17 50.08a8.53 8.53 0 1 1-8.53 8.53 8.53 8.53 0 0 1 8.53-8.53z" transform="translate(0 -4.73)"/><path class="cls-11" d="M97.17 52.19a6.42 6.42 0 1 1-6.42 6.42 6.42 6.42 0 0 1 6.42-6.42z" transform="translate(0 -4.73)"/><path class="cls-5" d="M96.14 123.46V137H59.42v-14h36.72z" transform="translate(0 -4.73)"/><path class="cls-12" d="M66.59 89.5a19.47 19.47 0 0 1-.59 4.95h-8.29a19.46 19.46 0 0 1-.61-4.95c0-11.09 3.09-11.43 4.74-17.24 1.66 5.81 4.75 6.15 4.75 17.24z" transform="translate(0 -4.73)"/><path class="cls-4" d="M31.46 94.45h.28a8.1 8.1 0 0 0 1.77-4.95 14.45 14.45 0 0 0-.92-5.4l-.27.11c-14-.68-18.77-6.14-18.77-6.14l-.95-.16c-2.35 1.61-4.48 3.45-5.59 6.5l.39.14a53.05 53.05 0 0 0 24.06 9.9z" transform="translate(0 -4.73)"/><path class="cls-8" d="M19.86 110.32a2.56 2.56 0 0 1-2.56-2.56V103a2.56 2.56 0 1 1 5.12 0v4.78a2.56 2.56 0 0 1-2.56 2.54zm20.99-30.38a2.56 2.56 0 0 1-2.56-2.56v-4.77a2.56 2.56 0 1 1 5.12 0v4.78a2.56 2.56 0 0 1-2.56 2.55zm0 15.36a2.56 2.56 0 0 1-2.56-2.56V88a2.56 2.56 0 1 1 5.12 0v4.78a2.56 2.56 0 0 1-2.56 2.52zm20.99 15.02a2.56 2.56 0 0 1-2.56-2.56V103a2.56 2.56 0 1 1 5.12 0v4.78a2.56 2.56 0 0 1-2.56 2.54z" transform="translate(0 -4.73)"/><path class="cls-5" d="M127.61 84.55h-5.12v10.58h5.12zm8.09 0h-5.12v10.58h5.12zm8.09 0h-5.12v10.58h5.12z" transform="translate(0 -4.73)"/><path class="cls-6" d="M111.61 111.18H82.32v3.41h29.3zm-4.72-28.85v-5.8h-5.12v5.8h-2.38v-5.8h-5.12v5.8h-2.39v-5.8h-5.12v5.8h-4v3.41h28.33v-3.41zm18.68 23.55h-2.88a2.56 2.56 0 1 1 0-5.12h2.88a2.56 2.56 0 1 1 0 5.12zm11.87 6.83h-2.88a2.56 2.56 0 0 1 0-5.12h2.88a2.56 2.56 0 0 1 0 5.12zM128 124.65h-2.88a2.56 2.56 0 1 1 0-5.12H128a2.56 2.56 0 1 1 0 5.12z" transform="translate(0 -4.73)"/><path class="cls-4" d="M97 4.73l2.45 5 5.48.8-4 3.86.93 5.45L97 17.23l-4.9 2.58.9-5.46-4-3.86 5.48-.8z" transform="translate(0 -4.73)"/><path class="cls-10" d="M150 145.27H0a8.71 8.71 0 0 1 8.7-8.7h132.6a8.7 8.7 0 0 1 8.7 8.7z" transform="translate(0 -4.73)"/><path class="cls-13" d="M150 145.27H0a8.64 8.64 0 0 1 1.06-4.17h147.87a8.65 8.65 0 0 1 1.07 4.17z" transform="translate(0 -4.73)"/></g></svg>