<svg id="Capa_1" data-name="Capa 1" xmlns="http://www.w3.org/2000/svg" viewBox="0 0 512 512"><defs><style>.cls-1{fill:#df6d37}</style></defs><title>od</title><path class="cls-1" d="M256.28 204.75a51.58 51.58 0 1 0-51.9-51.06 51.21 51.21 0 0 0 51.9 51.06z"/><path class="cls-1" d="M484.77 0H27.23A27.23 27.23 0 0 0 0 27.23v457.54A27.23 27.23 0 0 0 27.23 512h457.54A27.23 27.23 0 0 0 512 484.77V27.23A27.23 27.23 0 0 0 484.77 0zM256.44 47.75c58.28.15 105.06 47.83 104.77 106.77-.31 57.57-47.86 104.24-106 104-57.61-.2-104.84-47.95-104.51-105.65.3-58.29 47.56-105.3 105.74-105.12zM374.48 300c-12.89 13.24-28.4 22.81-45.63 29.5-16.29 6.3-34.14 9.49-51.81 11.6 2.67 2.91 3.93 4.32 5.58 6 24 24.1 48.07 48.11 72 72.28 8.14 8.23 9.86 18.44 5.37 28-4.91 10.49-15.88 17.36-26.66 16.62-6.82-.48-12.14-3.87-16.85-8.62-18.11-18.22-36.55-36.1-54.28-54.64-5.16-5.4-7.64-4.4-12.21.31q-27.31 28.12-55.31 55.56c-8.36 8.25-18.3 9.72-28 5-10.31-5-16.85-15.51-16.35-26.1.35-7.15 3.87-12.6 8.77-17.51q35.59-35.55 71.08-71.2c1.57-1.57 3-3.25 5.32-5.69-32.29-3.37-61.41-11.31-86.33-30.81-3.09-2.42-6.29-4.77-9.12-7.48-10.9-10.48-12-22.47-3.37-34.84 7.37-10.58 19.78-13.42 32.66-7.35a50 50 0 0 1 7.15 4.22c46.45 31.92 110.27 32.81 156.9 1.45a42.3 42.3 0 0 1 15.28-7.89c11.14-2.86 21.5 1.22 27.48 11 6.85 11.08 6.74 21.93-1.67 30.59z"/></svg>