<svg id="Layer_1" data-name="Layer 1" xmlns="http://www.w3.org/2000/svg" viewBox="0 0 149.82 116.24"><defs><style>.cls-1{fill:none}.cls-2{clip-path:url(#clip-path)}.cls-3{fill:#d3843d}.cls-4{fill:#fdbd40}.cls-5{fill:#fff}.cls-6{fill:#e97424}</style><clipPath id="clip-path" transform="translate(0 -16.98)"><path class="cls-1" d="M0 0h150v150H0z"/></clipPath></defs><title>pie</title><g class="cls-2"><path class="cls-3" d="M129.16 133.21H20.67L10.33 97.05h129.16z" transform="translate(0 -16.98)"/><path class="cls-4" d="M134.32 86.72c-.48 0-.95 0-1.42.07a38.73 38.73 0 0 0-37.32-28.48H54.25a38.73 38.73 0 0 0-37.33 28.48c-.47 0-.94-.07-1.42-.07C6.94 86.72 0 91.34 0 97.05s6.94 10.33 15.5 10.33c6.36 0 11.82-2.56 14.21-6.21 2.39 3.65 7.85 6.21 14.21 6.21 8.56 0 15.5-4.63 15.5-10.33 0 5.71 6.94 10.33 15.5 10.33s15.5-4.63 15.5-10.33c0 5.71 6.94 10.33 15.5 10.33 6.36 0 11.82-2.56 14.21-6.21 2.39 3.65 7.85 6.21 14.21 6.21 8.56 0 15.5-4.63 15.5-10.33s-6.96-10.33-15.52-10.33z" transform="translate(0 -16.98)"/><path class="cls-5" d="M74.91 81.55A2.58 2.58 0 0 1 72.33 79V68.64a2.58 2.58 0 1 1 5.17 0V79a2.58 2.58 0 0 1-2.58 2.58zm-20.67 0a2.58 2.58 0 0 1-2.06-4.13l7.75-10.33a2.58 2.58 0 0 1 4.13 3.09l-7.75 10.34a2.57 2.57 0 0 1-2.07 1.03zm41.34 0a2.57 2.57 0 0 1-2.07-1l-7.75-10.36a2.58 2.58 0 0 1 4.13-3.1l7.75 10.33a2.58 2.58 0 0 1-2.06 4.13z" transform="translate(0 -16.98)"/><path class="cls-4" d="M20.67 60.89a2.58 2.58 0 0 1-2.58-2.58 7.76 7.76 0 0 0-7.75-7.75 2.58 2.58 0 1 1 0-5.17 7.76 7.76 0 0 0 7.75-7.75 2.58 2.58 0 0 1 5.17 0A7.76 7.76 0 0 0 31 45.39a2.58 2.58 0 1 1 0 5.17 7.76 7.76 0 0 0-7.75 7.75 2.58 2.58 0 0 1-2.58 2.58zM18.07 48a13 13 0 0 1 2.59 2.59 12.9 12.9 0 0 1 2.6-2.59 13 13 0 0 1-2.59-2.59 13 13 0 0 1-2.6 2.59z" transform="translate(0 -16.98)"/><path class="cls-6" d="M62 48a2.58 2.58 0 0 1-2.58-2.58 7.86 7.86 0 0 1 3.51-6.29c1.32-1.1 1.65-1.49 1.65-2.32s-.4-1.28-1.65-2.32a7.88 7.88 0 0 1-3.51-6.29 7.87 7.87 0 0 1 3.51-6.29c1.25-1 1.65-1.45 1.65-2.33a2.58 2.58 0 0 1 5.17 0 7.88 7.88 0 0 1-3.51 6.29c-1.25 1-1.65 1.45-1.65 2.32s.4 1.28 1.65 2.33a7.87 7.87 0 0 1 3.51 6.29 7.86 7.86 0 0 1-3.51 6.29c-1.32 1.1-1.65 1.49-1.65 2.32A2.58 2.58 0 0 1 62 48zm12.91 0a2.58 2.58 0 0 1-2.58-2.58 7.86 7.86 0 0 1 3.51-6.29c1.32-1.1 1.65-1.49 1.65-2.32s-.4-1.28-1.66-2.32a7.88 7.88 0 0 1-3.51-6.29 7.87 7.87 0 0 1 3.51-6.29c1.25-1 1.66-1.45 1.66-2.33a2.58 2.58 0 1 1 5.17 0 7.87 7.87 0 0 1-3.51 6.29c-1.25 1-1.65 1.45-1.65 2.32s.4 1.28 1.65 2.33a7.86 7.86 0 0 1 3.51 6.29 7.86 7.86 0 0 1-3.51 6.29c-1.32 1.1-1.65 1.49-1.65 2.32A2.58 2.58 0 0 1 74.91 48zm12.92 0a2.58 2.58 0 0 1-2.58-2.58 7.86 7.86 0 0 1 3.51-6.29c1.32-1.1 1.65-1.49 1.65-2.32s-.4-1.28-1.65-2.32a7.87 7.87 0 0 1-3.51-6.29 7.86 7.86 0 0 1 3.51-6.29c1.25-1 1.65-1.45 1.65-2.33a2.58 2.58 0 0 1 5.17 0 7.88 7.88 0 0 1-3.51 6.29c-1.25 1-1.66 1.45-1.66 2.32s.4 1.28 1.66 2.33a7.87 7.87 0 0 1 3.51 6.29 7.86 7.86 0 0 1-3.51 6.29c-1.32 1.1-1.65 1.49-1.65 2.32A2.58 2.58 0 0 1 87.83 48z" transform="translate(0 -16.98)"/></g></svg>