<svg id="Layer_1" data-name="Layer 1" xmlns="http://www.w3.org/2000/svg" viewBox="0 0 100 100"><defs><style>.cls-1{fill:#ffd237}.cls-2{fill:#ffb037}.cls-3{fill:#ff4b37}.cls-4{fill:#ff6e37}.cls-5{fill:#fff0bc}.cls-6{fill:#fff}.cls-7{fill:#751f17}.cls-8{fill:#8a3931}.cls-9{fill:#aa665f}.cls-10{fill:#ff0021}</style></defs><title>pizza</title><path class="cls-1" d="M100 50A50 50 0 1 1 50 0a50 50 0 0 1 50 50z"/><path class="cls-2" d="M99.84 46L76.66 22.8 22.8 76.66 46 99.84q2 .16 4 .16a50 50 0 0 0 50-50q0-2-.16-4z"/><path class="cls-3" d="M50 11.91l-8.93 38.94L50 88.09a38.09 38.09 0 0 0 0-76.17z"/><path class="cls-4" d="M11.91 50A38.09 38.09 0 0 0 50 88.09V11.91A38.09 38.09 0 0 0 11.91 50z"/><path class="cls-5" d="M50 20.84l-8.93 29.81L50 79.16a29.16 29.16 0 0 0 0-58.32z"/><path class="cls-6" d="M20.84 50A29.16 29.16 0 0 0 50 79.16V20.84A29.16 29.16 0 0 0 20.84 50z"/><path class="cls-7" d="M47.77 47.92h4.46v4.46h-4.46zM60.5 60.65H65v4.46h-4.5z"/><path class="cls-8" d="M60.5 35.19H65v4.46h-4.5z"/><path class="cls-9" d="M35 35.19h4.5v4.46H35zm0 25.46h4.5v4.46H35z"/><path class="cls-10" d="M50 29.92l-3 6.84 3 6.55a6.69 6.69 0 1 0 0-13.39z"/><path class="cls-3" d="M43.31 36.61a6.7 6.7 0 0 0 6.69 6.7V29.92a6.7 6.7 0 0 0-6.69 6.69zm-.15 13.54a6.69 6.69 0 1 1-6.69-6.69 6.7 6.7 0 0 1 6.69 6.69z"/><path class="cls-10" d="M50 57l-3 6.84 3 6.55A6.69 6.69 0 1 0 50 57z"/><path class="cls-3" d="M43.31 63.69A6.7 6.7 0 0 0 50 70.38V57a6.7 6.7 0 0 0-6.69 6.69z"/><path class="cls-10" d="M70.23 50.15a6.69 6.69 0 1 1-6.69-6.69 6.7 6.7 0 0 1 6.69 6.69z"/></svg>