<svg id="Layer_1" data-name="Layer 1" xmlns="http://www.w3.org/2000/svg" viewBox="0 0 512 363.01"><defs><style>.cls-1{fill:#f9eac7}.cls-2{fill:#f4dbb3}.cls-3{fill:#ff8b5a}.cls-4{fill:#ff7350}.cls-5{fill:#ffa95f}</style></defs><title>roast-chicken</title><path class="cls-1" d="M398.48 97.06a17.25 17.25 0 0 0-15.53-1.84 4 4 0 0 1-5.55-3.7 17.29 17.29 0 1 0-30.93 11.37 8.59 8.59 0 0 1 0 9.93l-30.39 45.66 28.78 19.16L375.23 132a8.59 8.59 0 0 1 9.16-3.85 17.29 17.29 0 0 0 14.09-31.08z" transform="translate(0 -75)"/><path class="cls-2" d="M350.59 169l24.64-37a8.58 8.58 0 0 1 9.16-3.85 17.29 17.29 0 1 0-1.44-32.92 4.14 4.14 0 0 1-3.75-.38l-43 64.59z" transform="translate(0 -75)"/><path class="cls-3" d="M350.59 169l-5.75 8.64a43.07 43.07 0 0 0-6.69 30.81c5.6 34.32 12 77.07-13.6 108.15-24.82 30.1-69.62 37.26-102.39 16.08-.3-.2-.56-.43-.86-.63s-.62-.35-.92-.55c-32.18-22.05-42.86-66.14-24.68-100.66 18.78-35.65 60.7-46.2 94.52-54.29a43.07 43.07 0 0 0 25.84-18.06l5.75-8.64z" transform="translate(0 -75)"/><path class="cls-4" d="M281.59 288c23.35-32.6 28.23-67.81 35.78-93.39 2.36-8 7-17.49 13.07-26.56l5.75-8.64 14.4 9.59-5.75 8.64a43.07 43.07 0 0 0-6.69 30.81c5.59 34.32 12 77.07-13.6 108.15-24.82 30.1-69.62 37.26-102.39 16.08-.16-.11-.31-.22-.46-.34 11.18 6.57 37.37-12.86 59.89-44.34z" transform="translate(0 -75)"/><path class="cls-5" d="M424.27 223.91a87.89 87.89 0 0 0-21.27-6.77l-97-19.77-80-16c-96.26-19.26-186.07 54.37-186.07 152.54a103.47 103.47 0 0 0 14.16 52.23h332.5a85.5 85.5 0 0 0 37.69-162.23z" transform="translate(0 -75)"/><path class="cls-1" d="M2.32 395.65l54.83 36.55a34.57 34.57 0 0 0 19.17 5.8h359.36a34.58 34.58 0 0 0 19.18-5.8l54.83-36.55a5.19 5.19 0 0 0-2.88-9.5H5.2a5.19 5.19 0 0 0-2.88 9.5z" transform="translate(0 -75)"/><path class="cls-3" d="M162.55 369.29c-28.83 0-53.32-22.83-53.48-51.66v-.57a155.35 155.35 0 0 1 85-138.75c-83.31.57-154.13 68.4-154.13 155.61a103.46 103.46 0 0 0 14.15 52.23h332.5a85.48 85.48 0 0 0 51-16.86z" transform="translate(0 -75)"/><path class="cls-1" d="M489.82 133.56A17.26 17.26 0 0 0 475 128.7a4 4 0 0 1-4.72-4.72 17.29 17.29 0 1 0-32.6 5.02 8.6 8.6 0 0 1-2 9.74l-38.79 38.79L421.37 202l38.79-38.79a8.59 8.59 0 0 1 9.74-2 17.29 17.29 0 0 0 19.93-27.7z" transform="translate(0 -75)"/><path class="cls-2" d="M428.71 194.67l31.45-31.45a8.59 8.59 0 0 1 9.74-2 17.29 17.29 0 1 0 5.1-32.52 4.12 4.12 0 0 1-3.6-1.11l-54.87 54.87z" transform="translate(0 -75)"/><path class="cls-3" d="M428.71 194.67l-7.34 7.33a43.07 43.07 0 0 0-12.62 28.89c-1.27 34.75-3.36 77.93-34.62 103.36-30.26 24.62-75.59 22.83-103.55-4.39l-1.51-1.51c-27.21-28-29-73.29-4.39-103.55 25.43-31.26 68.61-33.35 103.36-34.62a43.08 43.08 0 0 0 28.89-12.62l7.34-7.34z" transform="translate(0 -75)"/><path class="cls-4" d="M337.64 297.78c29.32-27.37 41-60.93 53.46-84.52 3.89-7.39 10.34-15.77 18-23.47l7.34-7.34 12.22 12.22-7.29 7.33a43.08 43.08 0 0 0-12.62 28.89c-1.27 34.75-3.36 77.93-34.62 103.36-30.26 24.62-75.59 22.83-103.55-4.39-.14-.14-.32-.3-.44-.44 9.66 8.64 39.22-5.24 67.5-31.64z" transform="translate(0 -75)"/><path class="cls-2" d="M126.36 386.15H5.2a5.19 5.19 0 0 0-2.87 9.5l54.81 36.55a34.55 34.55 0 0 0 19.18 5.8h359.36a34.55 34.55 0 0 0 19.18-5.81l17.22-11.48H160.93a34.57 34.57 0 0 1-34.57-34.56z" transform="translate(0 -75)"/></svg>