<svg id="Layer_1" data-name="Layer 1" xmlns="http://www.w3.org/2000/svg" viewBox="0 0 28.37 32"><defs><style>.cls-1{fill:none}.cls-2{clip-path:url(#clip-path)}.cls-3{fill:#88c057}.cls-4{fill:#659c35}</style><clipPath id="clip-path" transform="translate(-1.82)"><path class="cls-1" d="M0 0h32v32H0z"/></clipPath></defs><title>salad</title><g class="cls-2"><path class="cls-3" d="M24.17 15.6a4.57 4.57 0 0 0 2.91-.23 5 5 0 0 0 3.1-4.37 4.88 4.88 0 0 0-3.27-4.71 3.8 3.8 0 0 0-3.79-3.54 2.34 2.34 0 0 0-.12-.98A2.47 2.47 0 0 0 21 0a2.44 2.44 0 0 0-2 .69 2.7 2.7 0 0 0-4.53 2 3.51 3.51 0 0 0-3.16 4.34 4.06 4.06 0 0 0-3.35 6.1 3 3 0 0 0 .9 5.12c-.15 5.31 1.74 8.44 5.41 12.66l.2.23c1.52 1.71 5 .4 4.22-1.77-3.95-11.58 8.22-9.91 8.22-9.91s.35-3.5-2.79-3.67v-.26z" transform="translate(-1.82)"/><path class="cls-4" d="M14.49 31.22l-.2-.23c-3.66-4.22-5.56-7.35-5.41-12.66a3 3 0 0 1-.9-5.12 4.06 4.06 0 0 1 3.35-6.1A3.51 3.51 0 0 1 13.38 3a5.26 5.26 0 0 0-.38-.86C12.29.73 11-.15 9.9.04A2.46 2.46 0 0 0 8.07 2a2.75 2.75 0 0 0-2.45-.46c-1.69.6-2.23 3-1.26 5.28-1.83.89-2.36 3.49-1.15 5.84a6.28 6.28 0 0 0 .58.95c-2 .84-2.56 3.38-1.29 5.61A5.61 5.61 0 0 0 4.06 21a2.59 2.59 0 0 0 .23 2.31 3.36 3.36 0 0 0 2.84 1.66c1.89 3.71 4.21 5.15 7.72 6.64h.11a2.22 2.22 0 0 1-.47-.39z" transform="translate(-1.82)"/><path class="cls-4" d="M15.86 14.06a.57.57 0 0 0 .05-.23 12.51 12.51 0 0 1 1.43-2.64 8.35 8.35 0 0 1 4.57.29.57.57 0 0 0 .23 0 .58.58 0 0 0 .23-1.1 9 9 0 0 0-4-.55 9.14 9.14 0 0 1 2.24-1.77 3.09 3.09 0 0 1 2.46.35.58.58 0 0 0 .58-1A4.9 4.9 0 0 0 21 6.84a3.24 3.24 0 0 1 .49-1.06.58.58 0 0 0-.91-.7 4.06 4.06 0 0 0-.79 2.2 12.47 12.47 0 0 0-4.52 5.19c-.08.17-.16.35-.24.53a3.3 3.3 0 0 1-1.3-3.08.58.58 0 0 0-1.14-.18 4.38 4.38 0 0 0 2 4.36 17 17 0 0 0-.85 4.54.57.57 0 0 0 0 .17 23.12 23.12 0 0 0 .2 4.14 2.89 2.89 0 0 1-1.09-1 .58.58 0 0 0-1 .54 4.1 4.1 0 0 0 2.31 1.82A37.57 37.57 0 0 0 16.53 32a3 3 0 0 0 1.12-.3 36.78 36.78 0 0 1-2.42-7.95 22.54 22.54 0 0 1-.35-4.75c.81-1.37 3.18-1.43 3.2-1.43a.58.58 0 0 0 0-1.15 6.57 6.57 0 0 0-3 .85 14.81 14.81 0 0 1 .75-3 .55.55 0 0 0 .03-.21z" transform="translate(-1.82)"/></g></svg>