<svg id="Layer_1" data-name="Layer 1" xmlns="http://www.w3.org/2000/svg" viewBox="0 0 20.17 25"><defs><style>.cls-1{fill:#fc5356}.cls-2{fill:#f70b57}.cls-3{fill:#ffe795}.cls-4{fill:#ffd330}.cls-5{fill:#45686e}.cls-6{fill:#2a3b3b}</style></defs><title>shopping-bag</title><path class="cls-1" d="M19.7 25H5.34a2.9 2.9 0 0 1-2.89-3.22L4.17 6a.77.77 0 0 1 .76-.68h15.19a.77.77 0 0 1 .76.68l1.71 15.82A2.9 2.9 0 0 1 19.7 25z" transform="translate(-2.44)"/><path class="cls-2" d="M20.88 6a.77.77 0 0 0-.76-.68h-7.6V25h7.18a2.9 2.9 0 0 0 2.89-3.22z" transform="translate(-2.44)"/><path class="cls-3" d="M12.52 14.85a.48.48 0 0 1 0-.94h1.13a.77.77 0 0 0 0-1.53h-.36v-.3a.77.77 0 0 0-1.53 0v.47a2 2 0 0 0-1.13 1.83 2 2 0 0 0 1.89 2 .48.48 0 0 1 0 .94h-1.13a.77.77 0 0 0 0 1.53h.36v.3a.77.77 0 1 0 1.53 0v-.47a2 2 0 0 0 1.13-1.83 2 2 0 0 0-1.89-2z" transform="translate(-2.44)"/><path class="cls-4" d="M12.52 17.32v2.6a.77.77 0 0 0 .77-.77v-.47a2 2 0 0 0 1.13-1.83 2 2 0 0 0-1.9-2v1.53a.48.48 0 0 1 0 .94zm1.13-4.94h-.36v-.3a.77.77 0 0 0-.77-.77v2.6h1.13a.77.77 0 0 0 0-1.53z" transform="translate(-2.44)"/><path class="cls-5" d="M16.52 9.53a.77.77 0 0 1-.77-.77v-4a3.23 3.23 0 1 0-6.46 0v4a.77.77 0 0 1-1.53 0v-4a4.76 4.76 0 0 1 9.53 0v4a.77.77 0 0 1-.77.77z" transform="translate(-2.44)"/><path class="cls-6" d="M12.52 0v1.53a3.24 3.24 0 0 1 3.23 3.23v4a.77.77 0 0 0 1.53 0v-4A4.77 4.77 0 0 0 12.52 0z" transform="translate(-2.44)"/></svg>