<svg id="Layer_1" data-name="Layer 1" xmlns="http://www.w3.org/2000/svg" viewBox="0 0 20 20"><defs><style>.cls-1{fill:none}.cls-2{clip-path:url(#clip-path)}.cls-3{fill:#ecf0f1}.cls-4{fill:#545e73}.cls-5{fill:#8697cb}.cls-6{fill:#71c386}.cls-7{fill:#fff}</style><clipPath id="clip-path"><path class="cls-1" d="M0 0h20v20H0z"/></clipPath></defs><title>stopwatch</title><g class="cls-2"><path class="cls-3" d="M10 20A10 10 0 1 0 0 10a10 10 0 0 0 10 10z"/><path class="cls-4" d="M10 1.38A8.62 8.62 0 1 1 1.38 10 8.63 8.63 0 0 1 10 1.38zM10 0a10 10 0 1 0 10 10A10 10 0 0 0 10 0z"/><path class="cls-5" d="M10 2a.34.34 0 0 0-.34.34v.34a.34.34 0 1 0 .69 0v-.31A.34.34 0 0 0 10 2zm0 14.85a.34.34 0 0 0-.34.34v.34a.34.34 0 0 0 .69 0v-.33a.34.34 0 0 0-.35-.35zm7.59-7.24h-.34a.34.34 0 1 0 0 .69h.34a.34.34 0 0 0 0-.69zm-14.83 0h-.35a.34.34 0 1 0 0 .69h.34a.34.34 0 1 0 0-.69zm12.36-5.26l-.24.24a.34.34 0 1 0 .49.49l.24-.24a.34.34 0 0 0-.49-.49zM4.64 14.83l-.24.24a.34.34 0 1 0 .49.49l.24-.24a.34.34 0 1 0-.49-.49zm10.72 0a.34.34 0 1 0-.49.49l.24.24a.34.34 0 0 0 .49-.49zM4.88 4.35a.34.34 0 0 0-.49.49l.24.24a.34.34 0 0 0 .49-.49z"/><path class="cls-4" d="M9 10.3H6.21a.34.34 0 1 1 0-.69H9a.34.34 0 1 1 0 .69zm1-1.03a.34.34 0 0 1-.34-.34v-3.8a.34.34 0 1 1 .69 0v3.79a.34.34 0 0 1-.35.35z"/><path class="cls-4" d="M10 11.34A1.38 1.38 0 1 1 11.38 10 1.38 1.38 0 0 1 10 11.34zm0-2.07a.69.69 0 1 0 .69.69.69.69 0 0 0-.69-.69z"/><path class="cls-6" d="M15.31 20a4.14 4.14 0 1 0-4.14-4.14A4.14 4.14 0 0 0 15.31 20z"/><path class="cls-7" d="M17.38 15.52h-1.73v-1.73a.34.34 0 0 0-.69 0v1.72h-1.72a.34.34 0 1 0 0 .69H15v1.72a.34.34 0 0 0 .69 0v-1.71h1.72a.34.34 0 1 0 0-.69z"/></g></svg>