<svg id="Layer_1" data-name="Layer 1" xmlns="http://www.w3.org/2000/svg" viewBox="0 0 20.11 25"><defs><style>.cls-1{fill:none}.cls-2{clip-path:url(#clip-path)}.cls-3{fill:#27a2db}.cls-4{fill:#e56353}.cls-5{fill:#44c4a1}.cls-6{fill:#64798a}.cls-7{fill:#2d93ba}.cls-8{fill:#d15241}.cls-9{fill:#3ea69b}.cls-10{fill:#3a556a}.cls-11{fill:#fcd462}.cls-12{fill:#ebf0f3}.cls-13{fill:#dc8744}.cls-14{fill:#f6c358}.cls-15{fill:#e1e6e9}.cls-16{fill:#2f4859}.cls-17{fill:#1c75a1}</style><clipPath id="clip-path" transform="translate(-2.45)"><path class="cls-1" d="M0 0h25v25H0z"/></clipPath></defs><title>user</title><g class="cls-2"><path class="cls-3" d="M22.25 1.29h-1.51v3.39h1.51a.31.31 0 0 0 .31-.31V1.6a.31.31 0 0 0-.31-.31z" transform="translate(-2.45)"/><path class="cls-4" d="M22.25 4.68h-1.51v3.39h1.51a.31.31 0 0 0 .31-.31V5a.31.31 0 0 0-.31-.32z" transform="translate(-2.45)"/><path class="cls-5" d="M22.25 8.07h-1.51v3.39h1.51a.31.31 0 0 0 .31-.31V8.38a.31.31 0 0 0-.31-.31z" transform="translate(-2.45)"/><path class="cls-6" d="M22.25 11.46h-1.51v3.39h1.51a.31.31 0 0 0 .31-.31v-2.77a.31.31 0 0 0-.31-.31z" transform="translate(-2.45)"/><path class="cls-7" d="M21.44 1.29h-.7v3.39h.7z" transform="translate(-2.45)"/><path class="cls-8" d="M21.44 4.68h-.7v3.39h.7z" transform="translate(-2.45)"/><path class="cls-9" d="M21.44 8.07h-.7v3.39h.7z" transform="translate(-2.45)"/><path class="cls-10" d="M21.44 11.46h-.7v3.39h.7z" transform="translate(-2.45)"/><path class="cls-6" d="M2.45 2.74V22l2.74-.39V0a2.74 2.74 0 0 0-2.74 2.74z" transform="translate(-2.45)"/><path class="cls-11" d="M21.05 1.06A1.06 1.06 0 0 0 20 0H5.18v21.65l15.87-2.25z" transform="translate(-2.45)"/><path class="cls-12" d="M5.4 19.41a2.62 2.62 0 1 0 0 5.24h15.65c-.77 0-.77-5.24 0-5.24z" transform="translate(-2.45)"/><path class="cls-13" d="M20.71 25H5.41a3 3 0 1 1 0-5.93h15.3a.34.34 0 0 1 0 .68H5.41a2.29 2.29 0 1 0 0 4.58h15.3a.34.34 0 1 1 0 .68z" transform="translate(-2.45)"/><path class="cls-3" d="M13.12 10A3.62 3.62 0 1 0 9.5 6.41 3.62 3.62 0 0 0 13.12 10z" transform="translate(-2.45)"/><path class="cls-12" d="M13.28 9.92l.11-.36.61-1.82v-.45l-.26-.38h-1.29l-.34.5.47 2.51z" transform="translate(-2.45)"/><path class="cls-14" d="M13.81 6.4h-1.36v1.18h1.36z" transform="translate(-2.45)"/><path class="cls-4" d="M12.89 7.58l-.18.27.18.27h.48l.18-.27-.18-.27z" transform="translate(-2.45)"/><path class="cls-15" d="M12.19 7.29l.26-.38.53.68-.43.75zm1.95-.03l-.33-.35-.53.68.38.66z" transform="translate(-2.45)"/><path class="cls-8" d="M13.6 9.92l-.23-1.8h-.48l-.23 1.8z" transform="translate(-2.45)"/><path class="cls-10" d="M14.77 9.76l.41-.2.17-.09c.06-.08.05-.06 0 0l.23-.3a2.05 2.05 0 0 1 .42-.35v-.19a1 1 0 0 0-.76-.82l-.26-.06a1.29 1.29 0 0 1-.56-.29l-.23-.2-.89 2.64h1.3a1 1 0 0 1 .17-.14z" transform="translate(-2.45)"/><path class="cls-16" d="M13.4 9.92a5.28 5.28 0 0 1 1.12-1.52 1.14 1.14 0 0 0-.35-.25 1.55 1.55 0 0 0 .45-.15 2.45 2.45 0 0 0-.48-.71A14 14 0 0 0 13 9.92h.37z" transform="translate(-2.45)"/><path class="cls-10" d="M11.12 9.41l.1.1.15.09.14.06-.15-.06a1.62 1.62 0 0 1 .51.31h1.23l-.89-2.64-.23.2a1.29 1.29 0 0 1-.56.29l-.26.06a1 1 0 0 0-.76.82v.2a2.09 2.09 0 0 1 .72.57z" transform="translate(-2.45)"/><path class="cls-16" d="M12.95 9.92a5.28 5.28 0 0 0-1.12-1.52 1.14 1.14 0 0 1 .35-.25 1.55 1.55 0 0 1-.45-.15 2.45 2.45 0 0 1 .48-.71 14 14 0 0 1 1.11 2.66h-.37z" transform="translate(-2.45)"/><path class="cls-11" d="M14.34 5.15c-.13 0-.29.1-.35.31s0 .41.12.45.29-.1.35-.31.01-.41-.12-.45zm-2.07.31c-.06-.21-.22-.35-.35-.31s-.18.24-.12.45.22.35.35.31.19-.25.12-.45z" transform="translate(-2.45)"/><path class="cls-11" d="M14.27 4.81V4h-2.21v.79a1.54 1.54 0 0 0 0 .31c0 .8.51 1.81 1.13 1.81s1.13-1 1.13-1.81a1.52 1.52 0 0 0-.05-.29z" transform="translate(-2.45)"/><path class="cls-6" d="M14.39 4.2s-.22-.64-1.26-.57-1.26.57-1.26.57A4.62 4.62 0 0 0 12 5.37v-.83a.46.46 0 0 1 .09-.28.22.22 0 0 1 .32-.07.89.89 0 0 0 1.26 0 .22.22 0 0 1 .32.07.46.46 0 0 1 .09.28v.83a4.61 4.61 0 0 0 .31-1.17z" transform="translate(-2.45)"/><path class="cls-17" d="M13.12 2.55A3.87 3.87 0 1 0 17 6.41a3.87 3.87 0 0 0-3.88-3.86zm0 7.27a3.41 3.41 0 1 1 3.41-3.41 3.41 3.41 0 0 1-3.41 3.41z" transform="translate(-2.45)"/></g></svg>