<svg data-name="Capa 1" xmlns="http://www.w3.org/2000/svg" viewBox="0 0 408 484.5"><title>metro</title><path d="M204 0C91.8 0 0 12.75 0 102v242.25c0 48.45 40.8 89.25 89.25 89.25L51 471.75v12.75h306v-12.75l-38.25-38.25c48.45 0 89.25-40.8 89.25-89.25V102C408 12.75 316.2 0 204 0zM89.25 382.5c-20.4 0-38.25-17.85-38.25-38.25S68.85 306 89.25 306s38.25 17.85 38.25 38.25-17.85 38.25-38.25 38.25zm89.25-153H51V102h127.5zm140.25 153c-20.4 0-38.25-17.85-38.25-38.25S298.35 306 318.75 306 357 323.85 357 344.25s-17.85 38.25-38.25 38.25zm38.25-153H229.5V102H357z"/></svg>