<svg data-name="Capa 1" xmlns="http://www.w3.org/2000/svg" viewBox="0 0 266.21 350"><title>person</title><path d="M133.1 171.17c38.91 0 70.46-38.32 70.46-85.59S193.2 0 133.1 0 62.64 38.32 62.64 85.59s31.54 85.58 70.46 85.58zM.01 301.85c0-2.88 0-.81 0 0zm266.17 2.25c0-.79 0-5.47 0 0zm-.15-5.7c-1.3-82.34-12.06-105.8-94.35-120.66 0 0-11.58 14.76-38.58 14.76s-38.59-14.76-38.59-14.76c-81.39 14.69-92.8 37.81-94.3 118-.12 6.55-.18 6.89-.2 6.13v8.65s19.59 39.5 133.08 39.5 133.08-39.5 133.08-39.5v-6.4c-.01.46-.07-.46-.14-5.72z"/></svg>