<svg data-name="Capa 1" xmlns="http://www.w3.org/2000/svg" viewBox="0 0 459 459"><title>phone</title><path d="M433.5 318.75a288.79 288.79 0 0 1-91.8-15.3c-7.65-2.55-17.85 0-25.5 5.1l-56.1 56.1c-71.4-35.7-130.05-96.9-168.3-168.3l56.1-56.1c7.65-7.65 10.2-17.85 5.1-25.5-7.65-28.05-12.75-58.65-12.75-89.25 0-15.3-10.2-25.5-25.5-25.5H25.5C10.2 0 0 10.2 0 25.5 0 265.2 193.8 459 433.5 459c15.3 0 25.5-10.2 25.5-25.5v-89.25c0-15.25-10.2-25.5-25.5-25.5zM408 229.5h51C459 102 357 0 229.5 0v51C329 51 408 130.05 408 229.5zm-102 0h51c0-71.4-56.1-127.5-127.5-127.5v51c43.35 0 76.5 33.15 76.5 76.5z"/></svg>