<svg data-name="Capa 1" xmlns="http://www.w3.org/2000/svg" viewBox="0 0 46.04 42.56"><title>purse</title><path d="M20.77 23.52v-.43a10.65 10.65 0 0 1 10.67-10.65h11.48V9.26a1.27 1.27 0 0 0-1.27-1.3H8a2.3 2.3 0 0 1 0-4.6h33.71a1.21 1.21 0 0 0 1.21-1.21V1.04a1 1 0 0 0-1.1-1H4.27A4.23 4.23 0 0 0 0 4.26v34a4.28 4.28 0 0 0 4.27 4.3h34.36a4.3 4.3 0 0 0 4.29-4.3v-4H31.44a10.7 10.7 0 0 1-10.67-10.74z"/><path d="M43.19 15.8H31.44a7.23 7.23 0 0 0-7.18 7.29v.43a7.17 7.17 0 0 0 7.18 7.22h11.75A2.82 2.82 0 0 0 46 27.96v-9.31a2.88 2.88 0 0 0-2.81-2.85zM32.08 26.45a3.15 3.15 0 1 1 3.16-3.19 3.15 3.15 0 0 1-3.16 3.19z"/></svg>