<svg data-name="Capa 1" xmlns="http://www.w3.org/2000/svg" viewBox="0 0 475.08 453.1"><title>star</title><path d="M475.08 175.58q0-10.56-16-13.13l-143.31-20.84L251.53 11.7Q246.11.01 237.54.01t-14 11.7l-64.23 129.9L16 162.45q-16 2.56-16 13.13 0 6 7.14 13.71l103.92 101.07-24.55 142.75a46.37 46.37 0 0 0-.57 5.71 16.83 16.83 0 0 0 3 10.14q3 4.15 9 4.14 5.14 0 11.42-3.42l128.19-67.39 128.2 67.39a23.11 23.11 0 0 0 11.42 3.42 10.06 10.06 0 0 0 8.71-4.14 16.86 16.86 0 0 0 3-10.14 43.13 43.13 0 0 0-.29-5.71L364 290.36l103.65-101.07q7.43-7.42 7.43-13.71z"/></svg>