<svg data-name="Layer 1" xmlns="http://www.w3.org/2000/svg" viewBox="0 0 37.6 60"><title>baby-boy</title><g class="cls-2"><path class="cls-3" d="M23.73 56.17a1.17 1.17 0 0 0-1.52.65 1.37 1.37 0 0 1-1.27.84h-4.28a1.37 1.37 0 0 1-1.27-.84 1.174 1.174 0 1 0-2.18.87A3.68 3.68 0 0 0 16.66 60h4.28a3.68 3.68 0 0 0 3.44-2.31 1.17 1.17 0 0 0-.65-1.52z"/><path class="cls-3" d="M37.5 50.13a5.78 5.78 0 0 0-2.77-3.9 5.82 5.82 0 0 0 2.07-5.39 14.77 14.77 0 0 0-8.19-11.11 13.44 13.44 0 0 0-6.14-22.14 5.07 5.07 0 0 0 1.19-3.27A4.33 4.33 0 0 0 19.33 0a3.92 3.92 0 0 0-2.53.88 3.2 3.2 0 0 0-1.15 2.48 1.17 1.17 0 1 0 2.34 0 .87.87 0 0 1 .32-.69 1.59 1.59 0 0 1 1-.33 2 2 0 0 1 2 2 2.76 2.76 0 0 1-2.76 2.76h-.09a13.44 13.44 0 0 0-9.47 22.64A14.77 14.77 0 0 0 .8 40.84a5.82 5.82 0 0 0 2.08 5.39 5.78 5.78 0 0 0-1.65 8.57L3.74 58a5.22 5.22 0 0 0 4.12 2 5.17 5.17 0 0 0 2.59-.69 5.23 5.23 0 0 0 2.23-6.46l-1.52-3.78a5.77 5.77 0 0 0-.36-.73h8.6a1.17 1.17 0 0 0 0-2.34H8.56v-2.47a.58.58 0 0 1 .58-.58h19.32a.58.58 0 0 1 .58.58v2.63a5.78 5.78 0 0 0-2.58 2.91l-1.52 3.78a5.23 5.23 0 0 0 2.23 6.46 5.17 5.17 0 0 0 2.59.69 5.22 5.22 0 0 0 4.12-2l2.51-3.21a5.78 5.78 0 0 0 1.11-4.66zM7.69 20.53A11.11 11.11 0 1 1 18.8 31.64 11.12 11.12 0 0 1 7.69 20.53zm1.28 29.41l1.52 3.78a2.86 2.86 0 0 1-4.91 2.84l-2.51-3.21a3.44 3.44 0 1 1 5.9-3.41zm19.5-11.68a1.17 1.17 0 0 0-1.17 1.17v1.17h-17v-1.17a1.17 1.17 0 1 0-2.34 0v1.42a2.92 2.92 0 0 0-1.75 2.67v1.65a3.49 3.49 0 0 1-3.11-4 12.37 12.37 0 0 1 7.82-9.75 13.42 13.42 0 0 0 15.74 0 12.37 12.37 0 0 1 7.82 9.75 3.49 3.49 0 0 1-3.11 4v-1.64a2.92 2.92 0 0 0-1.74-2.67v-1.43a1.17 1.17 0 0 0-1.16-1.17zm6.06 15.09l-2.51 3.21a2.86 2.86 0 0 1-4.91-2.84l1.52-3.78a3.44 3.44 0 1 1 5.9 3.41z"/><path class="cls-3" d="M24.87 46.34a1.17 1.17 0 1 0 .34.83 1.18 1.18 0 0 0-.34-.83zm-2.84-21.8a1.17 1.17 0 0 0-1.65.17 2 2 0 0 1-3.17 0 1.173 1.173 0 0 0-1.82 1.48 4.38 4.38 0 0 0 6.81 0 1.17 1.17 0 0 0-.17-1.65zm-6.23-4.83a2.73 2.73 0 0 0-3.86 0 1.174 1.174 0 0 0 1.66 1.66.38.38 0 0 1 .54 0 1.174 1.174 0 0 0 1.66-1.66zm9.82 0a2.73 2.73 0 0 0-3.86 0 1.174 1.174 0 1 0 1.66 1.66.38.38 0 0 1 .54 0 1.174 1.174 0 0 0 1.66-1.66z"/></g></svg>