<svg data-name="Layer 1" xmlns="http://www.w3.org/2000/svg" viewBox="0 0 80 80"><title>bike</title><path class="cls-1" d="M29 77.33a1.56 1.56 0 1 0 .46 1.1 1.57 1.57 0 0 0-.46-1.1zm26.46-12.46a1.56 1.56 0 0 0-1.56 1.56 5.28 5.28 0 0 1-5.27 5.27 1.565 1.565 0 0 0 0 3.13 8.41 8.41 0 0 0 8.4-8.4 1.56 1.56 0 0 0-1.57-1.56z"/><path class="cls-1" d="M66.88 0a13.14 13.14 0 0 0-13.13 13.12v18.75a13.14 13.14 0 0 0 11.56 13v13.72h-5.62a13.56 13.56 0 0 0-14.53-5.28L40 40h6.35a.84.84 0 0 1 .8.58.84.84 0 0 1-.8 1.11h-1.6a1.565 1.565 0 0 0 0 3.13h1.6a4 4 0 1 0 0-7.94h-8.69A1.56 1.56 0 0 0 36.21 39l2.93 7.5h-13L25 43.81l-.44-1.13a1.56 1.56 0 0 0-1.45-1h-6.82a4 4 0 0 0 0 7.94h5.18L19 54A13.56 13.56 0 0 0 5 76.89H1.56a1.565 1.565 0 0 0 0 3.13h12A13.59 13.59 0 0 0 27 68h6.12a1.56 1.56 0 0 0 1.43-2.19l-7.03-16.18h12.84l1.89 4.83A13.56 13.56 0 0 0 40 76.87h-5.58a1.565 1.565 0 1 0 0 3.13h14.2a13.57 13.57 0 0 0 12.72-18.28h11.21a1.56 1.56 0 0 0 0-3.12h-4.11V44.9A13.14 13.14 0 0 0 80 31.88V13.12A13.14 13.14 0 0 0 66.88 0zM16.29 46.5a.84.84 0 0 1-.79-.5.84.84 0 0 1 .79-1.15H22l.66 1.69zm-2.72 30.37a10.44 10.44 0 1 1 3.81-20.16l-5.16 8.94A1.56 1.56 0 0 0 13.57 68h5a5.28 5.28 0 0 1-5 3.71 1.565 1.565 0 1 0 0 3.13A8.41 8.41 0 0 0 21.82 68h2.07a10.46 10.46 0 0 1-10.32 8.87zm2.71-12l3.81-6.59a10.44 10.44 0 0 1 3.81 6.59zm14.5 0H27a13.57 13.57 0 0 0-5.39-9.32l2.87-5zm17.85 12a10.44 10.44 0 0 1-5.23-19.48L47.17 67a1.563 1.563 0 1 0 2.91-1.14l-3.76-9.61a10.44 10.44 0 1 1 2.31 20.62zm28.25-45a10 10 0 0 1-8.44 9.88v-6.5l4.16-4.45a1.563 1.563 0 0 0-2.28-2.14l-1.88 2v-5l4.16-4.45a1.563 1.563 0 0 0-2.28-2.14l-1.88 2v-2.71a1.56 1.56 0 1 0-3.12 0v7l-1.62-1.68a1.563 1.563 0 0 0-2.28 2.14L65.31 30v11.75a10 10 0 0 1-8.44-9.88V13.12a10 10 0 0 1 20 0zm1.56 26.72a1.565 1.565 0 1 0 0 3.13 1.56 1.56 0 1 0 0-3.12z"/><path class="cls-1" d="M37.32 21.67h-2.59A9.188 9.188 0 1 0 18 14.07a6.69 6.69 0 0 0-8.2 10.12 1.56 1.56 0 0 0 1.24.61h26.28a1.56 1.56 0 0 0 0-3.12zm-6.33 0H11.92a3.53 3.53 0 0 1-.36-1.57 3.57 3.57 0 0 1 6.22-2.39 1.56 1.56 0 0 0 2.71-.85A6.05 6.05 0 1 1 31 21.67z"/></svg>