<svg data-name="Layer 1" xmlns="http://www.w3.org/2000/svg" viewBox="0 0 49.99 50"><title>budget</title><g class="cls-2"><path class="cls-3" d="M44.16 7.5a.83.83 0 0 0-.83-.83H20a.83.83 0 0 0-.83.83v3.33a.835.835 0 0 0 1.67 0v-2.5h21.65v5H24.16a.835.835 0 1 0 0 1.67h19.16a.83.83 0 0 0 .83-.83zm-10 12.5a.835.835 0 1 0 0-1.67h-5a.83.83 0 0 0-.83.83v5a.83.83 0 0 0 .83.83h5a.835.835 0 1 0 0-1.67H30V20zm10-.83a.83.83 0 0 0-.83-.83h-5a.83.83 0 0 0-.83.83v5a.83.83 0 0 0 .83.83h5a.83.83 0 0 0 .83-.83zm-1.67 4.17h-3.33V20h3.33zM35 28.33a.83.83 0 0 0-.83-.83h-5a.83.83 0 0 0-.83.83v5a.83.83 0 0 0 .83.83h5a.83.83 0 0 0 .83-.83zm-1.68 4.17H30v-3.33h3.33zm.84 4.17h-5a.83.83 0 0 0-.83.83v5a.83.83 0 0 0 .83.83h5a.83.83 0 0 0 .84-.83v-5a.83.83 0 0 0-.84-.83zm-.83 5H30v-3.34h3.33zm9.99-14.17h-5a.83.83 0 0 0-.83.83V42.5a.83.83 0 0 0 .83.83h5a.83.83 0 0 0 .83-.83V28.33a.83.83 0 0 0-.83-.83zm-.83 14.17h-3.33v-12.5h3.33z"/><path class="cls-3" d="M40 11.67A.835.835 0 0 0 40 10h-3.34a.835.835 0 0 0 0 1.67zm-6.68 0a.835.835 0 0 0 0-1.67H30a.835.835 0 0 0 0 1.67z"/><path class="cls-3" d="M45.82 0H17.49a4.17 4.17 0 0 0-4.17 4.17v6.67a.835.835 0 0 0 1.67 0V4.17a2.5 2.5 0 0 1 2.5-2.5h28.33a2.5 2.5 0 0 1 2.5 2.5v41.66a2.5 2.5 0 0 1-2.5 2.5H23.33a.835.835 0 1 0 0 1.67h22.5A4.17 4.17 0 0 0 50 45.83V4.17A4.17 4.17 0 0 0 45.82 0z"/><path class="cls-3" d="M24.16 19.17v5a.835.835 0 0 0 1.67 0v-5a.835.835 0 0 0-1.67 0zM13.33 32.5A1.67 1.67 0 0 1 15 34.17a.835.835 0 1 0 1.67 0 3.33 3.33 0 0 0-2.5-3.22v-1.78a.835.835 0 0 0-1.67 0v1.77a3.33 3.33 0 0 0 .83 6.56 1.67 1.67 0 1 1-1.67 1.67.835.835 0 0 0-1.67 0 3.33 3.33 0 0 0 2.5 3.22v1.77a.835.835 0 1 0 1.67 0v-1.77a3.33 3.33 0 0 0-.83-6.56 1.67 1.67 0 1 1 0-3.33z"/><path class="cls-3" d="M24.88 43.33a.84.84 0 1 0-1.45-.83 11.67 11.67 0 1 1-16.1-15.83h12a11.67 11.67 0 0 1 5.67 10 .835.835 0 1 0 1.67 0 13.33 13.33 0 0 0-5.15-10.52 2.5 2.5 0 0 0-.77-4.37 4.17 4.17 0 0 0 .92-2.62v-2.5a3.33 3.33 0 0 0-5.83-2.2 3.33 3.33 0 0 0-5 0A3.33 3.33 0 0 0 5 16.67v2.5a4.17 4.17 0 0 0 .92 2.62 2.5 2.5 0 0 0-.77 4.37 13.33 13.33 0 1 0 19.73 17.17zM6.66 16.67a1.67 1.67 0 1 1 3.33 0 .835.835 0 0 0 1.67 0 1.67 1.67 0 0 1 3.33 0 .835.835 0 1 0 1.67 0 1.67 1.67 0 1 1 3.33 0v2.5a2.5 2.5 0 0 1-2.5 2.5H9.16a2.5 2.5 0 0 1-2.5-2.5zm0 6.67H20A.83.83 0 0 1 20 25H6.66a.835.835 0 0 1 0-1.67z"/></g></svg>