<svg data-name="Layer 1" xmlns="http://www.w3.org/2000/svg" viewBox="0 0 50 50"><title>bus-stop</title><path class="cls-1" d="M39.26 20.12a1 1 0 1 0-1-1 1 1 0 0 0 1 1z"/><path class="cls-1" d="M47.07 26.56a2.92 2.92 0 0 0-1 .17v-5.64a6.84 6.84 0 0 0-6.84-6.84H25.59a6.84 6.84 0 0 0-6.84 6.84v5.64a2.93 2.93 0 1 0-1 5.69h1v10.74a2.93 2.93 0 0 0 2 2.76v1.14a2.91 2.91 0 0 0 .17 1h-5.29v-1a2.93 2.93 0 0 0-2.93-2.93h-1v-8.78a1 1 0 0 0-1-1h-1V17.58h4.88a2.93 2.93 0 0 0 2.93-2.93V2.93A2.93 2.93 0 0 0 14.65 0H2.93A2.93 2.93 0 0 0 0 2.93v11.72a2.93 2.93 0 0 0 2.93 2.93h4.88v16.8h-1a1 1 0 0 0-1 1v8.79h-1A2.93 2.93 0 0 0 2 47.07v1H1a1 1 0 1 0 0 2h46.07a1 1 0 1 0 0-2H44a2.92 2.92 0 0 0 .17-1v-1.14a2.93 2.93 0 0 0 2-2.76V32.42h1a2.93 2.93 0 0 0 0-5.86zM2 14.65V2.93a1 1 0 0 1 1-1h11.65a1 1 0 0 1 1 1v11.72a1 1 0 0 1-1 1H2.93a1 1 0 0 1-.93-1zm18.7 6.44a4.89 4.89 0 0 1 4.88-4.88h13.68a4.89 4.89 0 0 1 4.88 4.88v11.33h-8.38l4.19-4.19a1 1 0 0 0-1.38-1.38L33 32.42h-5.06l4.19-4.19a1 1 0 0 0-1.38-1.38l-5.57 5.57H20.7zm-3.91 8.4a1 1 0 1 1 2 0v1h-1a1 1 0 0 1-.99-1zm5.86 17.58v-1h3.91v1a1 1 0 0 1-1 1h-2a1 1 0 0 1-.9-1zm13.67-1v1a2.91 2.91 0 0 0 .17 1h-8.14a2.92 2.92 0 0 0 .17-1v-1zM7.81 36.33h2v7.81h-2zm-3.9 10.74a1 1 0 0 1 1-1h7.79a1 1 0 0 1 1 1v1H3.91zm35.35 1a1 1 0 0 1-1-1v-1h3.91v1a1 1 0 0 1-1 1zm3.91-3.91H21.68a1 1 0 0 1-1-1v-8.79h23.46v8.79a1 1 0 0 1-.98.98zm3.91-13.67h-1v-1a1 1 0 1 1 1 1z"/><path class="cls-1" d="M11.72 10.74a2.92 2.92 0 0 0-.75-2 2.93 2.93 0 0 0-2.18-4.83h-2a1 1 0 0 0-1 1v7.79a1 1 0 0 0 1 1h2a2.93 2.93 0 0 0 2.93-2.96zM8.79 5.86a1 1 0 1 1 0 2h-1v-2zm-1 3.91h1a1 1 0 0 1 0 2h-1zM37.3 0a4.89 4.89 0 0 0-4.13 2.27 4.89 4.89 0 0 0-6.52 3.59h-1.06a2.93 2.93 0 0 0 0 5.86h15.62A2.93 2.93 0 0 0 42.06 6a4.87 4.87 0 0 0-4.76-6zm0 2a2.93 2.93 0 0 1 2.76 3.91h-3.83a4.88 4.88 0 0 0-1.4-2.54A2.93 2.93 0 0 1 37.3 2zm3.91 7.81H25.59a1 1 0 0 1 0-2h2a1 1 0 0 0 1-1 2.93 2.93 0 1 1 5.86 0 1 1 0 0 0 1 1h5.86a1 1 0 1 1 0 2zM33.4 39.26h-2a1 1 0 0 0 0 2h2a1 1 0 1 0 0-2zm5.86-2.93a2.93 2.93 0 1 0 2.93 2.93 2.93 2.93 0 0 0-2.93-2.93zm0 3.91a1 1 0 1 1 1-1 1 1 0 0 1-1 .99zm-13.67-3.91a2.93 2.93 0 1 0 2.93 2.93 2.93 2.93 0 0 0-2.93-2.93zm0 3.91a1 1 0 1 1 1-1 1 1 0 0 1-1 .99zm.16-20.12h9.6a1 1 0 0 0 0-2h-9.6a1 1 0 1 0 0 2z"/></svg>