<svg data-name="Layer 1" xmlns="http://www.w3.org/2000/svg" viewBox="0 0 35 35"><title>calendar</title><g class="cls-2"><path class="cls-3" d="M27.76 20.52A7.24 7.24 0 1 0 35 27.76a7.25 7.25 0 0 0-7.24-7.24zm0 13.28a6 6 0 1 1 6-6 6 6 0 0 1-6 5.99z"/><path class="cls-3" d="M31.38 27.16h-3v-3a.605.605 0 0 0-1.21 0v3.62a.6.6 0 0 0 .6.6h3.62a.605.605 0 1 0 0-1.21zM16.29 12.67H4.22v17.5h12.07V19.31h10.87v-6.64H16.29zm5.43 1.21h4.22v4.22h-4.22zm-10.86 0h4.22v4.22h-4.22zm-5.43 0h4.23v4.22H5.43zm0 5.43h4.23v4.22H5.43zM9.66 29H5.43v-4.26h4.23zm5.43 0h-4.23v-4.26h4.22zm0-5.43h-4.23v-4.26h4.22zm5.43-5.43h-4.23v-4.26h4.22z"/><path class="cls-3" d="M19.91 33.19H1.21V9.66h29v7.84a.605.605 0 0 0 1.21 0V3a.6.6 0 0 0-.6-.6h-3V.6a.6.6 0 0 0-.6-.6h-4.29a.6.6 0 0 0-.6.6v1.81H9.05V.6a.6.6 0 0 0-.6-.6H4.22a.6.6 0 0 0-.6.6v1.81H.6A.6.6 0 0 0 0 3v30.79a.6.6 0 0 0 .6.6h19.31a.605.605 0 0 0 0-1.21zm3.62-32h3v3.64h-3V1.21zm-18.71 0h3v3.64h-3V1.21zM1.21 3.62h2.41v1.81a.6.6 0 0 0 .6.6h4.23a.6.6 0 0 0 .6-.6V3.62h13.28v1.81a.6.6 0 0 0 .6.6h4.22a.6.6 0 0 0 .6-.6V3.62h2.41v4.83h-29z"/></g></svg>