<svg data-name="Layer 1" xmlns="http://www.w3.org/2000/svg" viewBox="0 0 35 35"><title>chat-comment-oval-speech-bubble-with-text-lines</title><path class="cls-1" d="M23 18.59H12a1.095 1.095 0 0 0 0 2.19h11a1.095 1.095 0 0 0 0-2.19zM25.16 12H9.84a1.095 1.095 0 0 0 0 2.19h15.32a1.095 1.095 0 0 0 0-2.19zM17.5 0C7.84 0 0 6.86 0 15.31a14.66 14.66 0 0 0 6.56 11.95V35l7.67-4.65a20.07 20.07 0 0 0 3.27.28c9.67 0 17.5-6.86 17.5-15.31S27.17 0 17.5 0zm0 28.44a17.7 17.7 0 0 1-3.7-.4l-5.15 3.1.07-5.07a12.68 12.68 0 0 1-6.53-10.76C2.19 8.06 9 2.19 17.5 2.19s15.31 5.87 15.31 13.12S26 28.44 17.5 28.44z"/></svg>