<svg data-name="Layer 1" xmlns="http://www.w3.org/2000/svg" viewBox="0 0 30 28.69"><title>check</title><g class="cls-2"><path class="cls-3" d="M27.48 11.91a1.21 1.21 0 0 0-1.21 1.21v1.22a11.92 11.92 0 0 1-11.93 11.92 11.92 11.92 0 0 1 0-23.84 11.85 11.85 0 0 1 4.84 1 1.213 1.213 0 1 0 1-2.21A14.25 14.25 0 0 0 14.35 0 14.34 14.34 0 0 0 4.2 24.48a14.25 14.25 0 0 0 10.14 4.21 14.34 14.34 0 0 0 14.35-14.35v-1.21a1.21 1.21 0 0 0-1.21-1.22z"/><path class="cls-3" d="M29.65 1.67a1.21 1.21 0 0 0-1.71 0l-13.6 13.59-3.08-3.08a1.21 1.21 0 1 0-1.71 1.71l3.94 3.94a1.21 1.21 0 0 0 1.71 0L29.65 3.34a1.21 1.21 0 0 0 0-1.67z"/></g></svg>