<svg data-name="Layer 1" xmlns="http://www.w3.org/2000/svg" viewBox="0 0 35 35"><title>clock1</title><path class="cls-1" d="M17.5 0A17.5 17.5 0 1 0 35 17.5 17.52 17.52 0 0 0 17.5 0zm0 33.83A16.33 16.33 0 1 1 33.83 17.5 16.35 16.35 0 0 1 17.5 33.83z"/><path class="cls-1" d="M18.08 15.18V9.26a.585.585 0 1 0-1.17 0v5.92a2.33 2.33 0 0 0-1.67 1.67h-4.16a.585.585 0 0 0 0 1.17h4.17a2.33 2.33 0 1 0 2.83-2.83zm-.58 3.42a1.17 1.17 0 1 1 1.17-1.17 1.17 1.17 0 0 1-1.17 1.17zm0-12.84a.58.58 0 0 0 .58-.58V4.6a.585.585 0 0 0-1.17 0v.58a.58.58 0 0 0 .59.58zm0 23.34a.58.58 0 0 0-.58.58v.58a.585.585 0 0 0 1.17 0v-.58a.58.58 0 0 0-.59-.58zm12.83-12.25h-.58a.585.585 0 0 0 0 1.17h.58a.585.585 0 0 0 0-1.17zm-25.08 0h-.58a.585.585 0 0 0 0 1.17h.58a.585.585 0 0 0 0-1.17zm20.91-8.91l-.41.41a.58.58 0 1 0 .82.82l.43-.4a.58.58 0 0 0-.82-.82zM8.43 25.68l-.43.41a.58.58 0 1 0 .82.82l.41-.41a.58.58 0 0 0-.82-.82zm18.14 0a.58.58 0 0 0-.82.82l.41.41a.58.58 0 1 0 .82-.82zM8.84 7.94a.59.59 0 0 0-.84.83l.41.41a.58.58 0 0 0 .82-.82z"/></svg>