<svg data-name="Layer 1" xmlns="http://www.w3.org/2000/svg" viewBox="0 0 38.73 50"><title>doll</title><g class="cls-2"><path class="cls-3" d="M38.52 7.42l-4.38-5a5.14 5.14 0 0 0-7-.68l-.9.69a11 11 0 0 0-13.85 0l-.9-.69a5.14 5.14 0 0 0-7 .68l-4.38 5a.84.84 0 0 0 .63 1.39h.23l8-1.23A11 11 0 0 0 12.1 19.2l-8.18 5a3.8 3.8 0 0 0 3.94 6.5l2-1.23-2.26 9a.84.84 0 0 0 .53 1q.9.32 1.82.59l-.78 5.69a3.76 3.76 0 0 0 3.2 4.25 3.85 3.85 0 0 0 .51 0 3.77 3.77 0 0 0 3.72-3.25l.77-5.41q1 .06 2 .06t2-.06l.74 5.42A3.77 3.77 0 0 0 25.86 50a3.87 3.87 0 0 0 .51 0 3.76 3.76 0 0 0 3.21-4.23L28.81 40q.92-.27 1.82-.59a.84.84 0 0 0 .53-1l-2.29-9.09 2.19 1.33a3.8 3.8 0 0 0 3.94-6.5l-8.26-5a11 11 0 0 0 3.08-11.58l8 1.23h.13a.84.84 0 0 0 .63-1.39zM3 6.8l2.85-3.23a3.46 3.46 0 0 1 4.68-.46l.68.52A11.06 11.06 0 0 0 9.7 5.76zm10.92-3.36a10.91 10.91 0 0 0 1.45 4.26 9.33 9.33 0 0 1-5.29 3.25 9.31 9.31 0 0 1 3.84-7.51zm-7 25.78a2.122 2.122 0 1 1-2.2-3.63l7.15-4.33-1.47 5.86zm8 17.31a2.09 2.09 0 0 1-2.06 1.8h-.29A2.08 2.08 0 0 1 10.81 46l.75-5.48a33.35 33.35 0 0 0 4.11.72zm12.59 1a2.07 2.07 0 0 1-1.37.8h-.29a2.09 2.09 0 0 1-2.06-1.8l-.73-5.33a33.36 33.36 0 0 0 4.11-.72l.76 5.52a2.07 2.07 0 0 1-.41 1.5zm6.61-21.92a2.122 2.122 0 0 1-2.2 3.63L28.29 27l-1.47-5.86zm-4.75 12.5a31.74 31.74 0 0 1-20 0l4.42-17.64a11 11 0 0 0 1.12.58 4.435 4.435 0 0 0 8.87 0 11 11 0 0 0 1.12-.58zM16.68 21.66a11 11 0 0 0 5.37 0 2.76 2.76 0 0 1-5.37 0zm2.69-1.35a9.33 9.33 0 0 1-9.17-7.68 11 11 0 0 0 6.17-3.51 11 11 0 0 0 8.51 4 11 11 0 0 0 3.72-.65 9.33 9.33 0 0 1-9.23 7.84zm5.47-8.82a9.33 9.33 0 0 1-9.31-9 9.31 9.31 0 0 1 13.15 8.16 9.2 9.2 0 0 1-3.84.84zm4.19-5.73a11.05 11.05 0 0 0-1.51-2.13l.68-.52a3.46 3.46 0 0 1 4.68.46l2.86 3.23z"/><path class="cls-3" d="M24.28 16.08a.84.84 0 1 0-.84-.84.84.84 0 0 0 .84.84zm-9.83 0a.84.84 0 1 0-.84-.84.84.84 0 0 0 .84.84z"/></g></svg>