<svg id="Layer_1" data-name="Layer 1" xmlns="http://www.w3.org/2000/svg" viewBox="0 0 5.81 6"><defs><style>.cls-1{fill:#2e2e2e}</style></defs><title>double-left-chevron</title><path class="cls-1" d="M2.52 3L.16.64a.19.19 0 0 1 0-.28l.3-.3a.19.19 0 0 1 .28 0l2.8 2.8a.19.19 0 0 1 0 .28L.73 5.94a.19.19 0 0 1-.28 0l-.3-.3a.19.19 0 0 1 0-.28z" transform="translate(-.1)"/><path class="cls-1" d="M4.83 3L2.47.64a.19.19 0 0 1 0-.28l.3-.3a.19.19 0 0 1 .23 0l2.8 2.8a.19.19 0 0 1 0 .28L3 5.94a.19.19 0 0 1-.28 0l-.3-.3a.19.19 0 0 1 0-.28z" transform="translate(-.1)"/></svg>