<svg data-name="Layer 1" xmlns="http://www.w3.org/2000/svg" viewBox="0 0 34.62 40"><title>drama</title><g class="cls-2"><path class="cls-3" d="M14.09 11a3.3 3.3 0 0 0 1.74.43 5.69 5.69 0 0 0 1.25-.15 4.81 4.81 0 0 0 2.16-1 2.44 2.44 0 0 0 .42-.5 1.48 1.48 0 0 0 .22-1.13 1.5 1.5 0 0 0-.7-.94 4.11 4.11 0 0 0-3-.28A4.12 4.12 0 0 0 13.62 9a1.48 1.48 0 0 0-.22 1.13 1.5 1.5 0 0 0 .69.87zm.65-1.36a3 3 0 0 1 1.75-1 4.27 4.27 0 0 1 .94-.11 2.08 2.08 0 0 1 1 .22c.08.05.11.09.11.11a.27.27 0 0 1-.05.13 3 3 0 0 1-1.75 1 3 3 0 0 1-2-.11c-.08-.05-.11-.09-.11-.11a.27.27 0 0 1 .12-.09zM9.87 11a1.43 1.43 0 0 0 .48-2 4.12 4.12 0 0 0-2.58-1.55 4.1 4.1 0 0 0-3 .28 1.44 1.44 0 0 0-.49 2.05 4.12 4.12 0 0 0 2.6 1.55 5.64 5.64 0 0 0 1.25.15A3.3 3.3 0 0 0 9.87 11zm-2.69-1a3 3 0 0 1-1.75-1 .23.23 0 0 1-.05-.14l.11-.1a2.08 2.08 0 0 1 1-.22 4.25 4.25 0 0 1 .94.11 3 3 0 0 1 1.75 1 .26.26 0 0 1 .05.13l-.11.1a3 3 0 0 1-1.94.12zm9.36 6.2a.67.67 0 1 0-1.26-.32 3.24 3.24 0 0 1-3.3 2.12 3.27 3.27 0 0 1-3.25-2.1.67.67 0 1 0-1.28.35 4.55 4.55 0 0 0 4.54 3.08 4.57 4.57 0 0 0 4.55-3.13z"/><path class="cls-3" d="M33.15 14.6c-1.32-1-3.22-.57-5.43 0a20.17 20.17 0 0 1-5.69.78 30 30 0 0 0 1.93-10c0-2.47-.47-4-1.46-4.77C21.18-.42 19.28 0 17.07.59a21.41 21.41 0 0 1-5.09.8 21.41 21.41 0 0 1-5.09-.8C4.69 0 2.78-.42 1.46.62.46 1.4 0 2.92 0 5.39 0 13.33 4.93 25.49 11.55 26c1.73 6.83 5.85 14 11.09 14 6.84 0 12-12.52 12-20.64-.02-2.47-.49-3.98-1.49-4.76zM4.57 18.1A29.71 29.71 0 0 1 1.33 5.38c0-2 .32-3.22 1-3.72a1.93 1.93 0 0 1 1.22-.33 14.52 14.52 0 0 1 3.07.55 22.43 22.43 0 0 0 5.41.84 22.43 22.43 0 0 0 5.41-.84c1.84-.46 3.43-.88 4.24-.22.63.5 1 1.75 1 3.72a29 29 0 0 1-2.15 10.31 22.87 22.87 0 0 1-3.3 5.85 12 12 0 0 1-1.72 1.75 5.66 5.66 0 0 1-3.4 1.39h-.13c-2.55 0-5.26-2.4-7.41-6.59zm12.55 5.49l.27-.27.23-.24.27-.29.1-.11h.15a3 3 0 0 1 1.75 1 .27.27 0 0 1 .05.13l-.11.1a3 3 0 0 1-2 .11 4.6 4.6 0 0 1-.84-.28l.13-.14zm12.93 8.49c-2.15 4.19-4.86 6.59-7.41 6.59-4.26 0-8-6.28-9.73-12.72h.07a6.06 6.06 0 0 0 .75-.18h.1a6.79 6.79 0 0 0 .69-.27l.13-.06a7.83 7.83 0 0 0 .73-.41l.16-.1.33-.23a5.46 5.46 0 0 0 1.65.66 5.64 5.64 0 0 0 1.25.15 3.3 3.3 0 0 0 1.76-.51 1.44 1.44 0 0 0 .47-2 3.83 3.83 0 0 0-2.13-1.43l.29-.41.19-.29.26-.41.2-.33.24-.4.2-.36.22-.41.2-.39.2-.41.2-.41.19-.42.19-.44.09-.2a20 20 0 0 0 6.51-.8c1.87-.46 3.48-.85 4.29-.22.63.5.95 1.75.95 3.72a29.71 29.71 0 0 1-3.24 12.71z"/><path class="cls-3" d="M30.54 22.62c-.26-1.11-1.84-1.62-3.69-1.21a5 5 0 0 0-2 .93 1.78 1.78 0 0 0-.78 1.75c.19.85 1.17 1.36 2.45 1.36a5.64 5.64 0 0 0 1.24-.15 5 5 0 0 0 2-.93 1.78 1.78 0 0 0 .78-1.75zm-1.62.72a3.69 3.69 0 0 1-1.48.67c-1.26.29-2.06 0-2.1-.21s.06-.21.33-.43a3.7 3.7 0 0 1 1.48-.67 4.29 4.29 0 0 1 .95-.11c.7 0 1.12.2 1.15.32s-.06.21-.33.43zm-6.27 6.01a4.57 4.57 0 0 0-4.56 3.16.67.67 0 0 0 .49.8h.16a.67.67 0 0 0 .65-.51 3.24 3.24 0 0 1 3.27-2.15 3.27 3.27 0 0 1 3.25 2.1.67.67 0 1 0 1.28-.35 4.55 4.55 0 0 0-4.54-3.08z"/></g></svg>