<svg data-name="Layer 1" xmlns="http://www.w3.org/2000/svg" viewBox="0 0 28 28"><title>key1</title><path class="cls-1" d="M25.12 2.88A9.85 9.85 0 0 0 8.93 13.27L0 22.2V28h8.6v-2.32h2.32v-2.32h2.32v-2.8l1.49-1.49A9.85 9.85 0 0 0 25.12 2.88zM24 15.64a8.21 8.21 0 0 1-9.1 1.71l-.51-.22-2.79 2.75v1.84H9.28V24H7v2.32H2.8l9.52-9.52-1.16-1.16-9.52 9.56v-2.32l9.23-9.23-.22-.51A8.2 8.2 0 1 1 24 15.64z"/><path class="cls-1" d="M20.48 4.24a3.28 3.28 0 1 0 2.32 1 3.26 3.26 0 0 0-2.32-1zm1.16 4.44a1.64 1.64 0 1 1 0-2.32 1.63 1.63 0 0 1 0 2.32z"/></svg>