<svg data-name="Layer 1" xmlns="http://www.w3.org/2000/svg" viewBox="0 0 60 59.93"><title>kremlin</title><path class="cls-1" d="M30.07 31.13a3.75 3.75 0 1 0 3.75 3.75 3.76 3.76 0 0 0-3.75-3.75zm0 5.72a2 2 0 0 1-.89-3.73v1.76a.89.89 0 0 0 .89.89h1.76a2 2 0 0 1-1.76 1.09zm.93-2.89v-.87a2 2 0 0 1 .87.87zm1.24-32.39a.89.89 0 0 0-1.08-.61l-.2.05V.83a.89.89 0 0 0-1.78 0v.21L29 .96a.89.89 0 0 0-.55 1.69l.19.07-.14.24a.89.89 0 0 0 1.44 1l.13-.16.13.16a.89.89 0 0 0 1.44-1l-.11-.17.19-.07a.89.89 0 0 0 .52-1.15z"/><path class="cls-1" d="M59.11 58.14H38.28V41.49h.51a.89.89 0 1 0 0-1.78H36v-9a.915.915 0 0 0 0-1.83h-1.21v-10a.89.89 0 0 0-.89-.92h-.56l-2.4-12.18a.89.89 0 0 0-1.75 0l-2.4 12.18h-.56a.89.89 0 0 0-.89.89v10h-1.18a.89.89 0 0 0-.08 1.78v1.59a.89.89 0 0 0 1.78 0v-1.56h8.41v9h-8.41v-4.45a.89.89 0 0 0-1.78 0v4.49h-2.8a.89.89 0 1 0 0 1.78h.51v16.66H1a.91.91 0 0 0 0 1.82h58.11a.89.89 0 0 0 0-1.78zm-29-47.6l1.42 7.42H28.6zm-2.95 9.18H33v5.44h-.72v-4.27a.89.89 0 1 0-1.78 0v4.27h-.89v-4.27a.89.89 0 1 0-1.78 0v4.27h-.72v-5.43zM33 28.88h-5.88v-1.92H33zm-5 29.26v-3.1a2.08 2.08 0 0 1 1.06-1.81l.16-.08v5zm4.15 0H31v-5h.08a2.08 2.08 0 0 1 1.06 1.81zm4.34 0h-2.55v-3.1a3.86 3.86 0 0 0-2-3.36 3.85 3.85 0 0 0-5.73 3.37v3.1h-2.64v-9.76H36.5zm0-11.53H35.3v-2.72a.89.89 0 1 0-1.78 0v2.72h-1.23v-2.72a.89.89 0 1 0-1.78 0v2.72h-1.23v-2.72a.89.89 0 1 0-1.78 0v2.72h-1.23v-2.72a.89.89 0 1 0-1.78 0v2.72h-.91v-5.13H36.5v5.13z"/><path class="cls-1" d="M45.23 52.48h-1.78a.89.89 0 0 0 0 1.78h1.78a.89.89 0 0 0 0-1.78zm5.46 1.78h-1.78a.89.89 0 1 0 0 1.78h1.78a.89.89 0 1 0 0-1.78zM8.08 51.77H6.3a.89.89 0 0 0 0 1.78h1.78a.89.89 0 0 0 0-1.78zm6.29 2.25h-1.78a.89.89 0 1 0 0 1.78h1.78a.89.89 0 1 0 0-1.78zM59 46.52h-1.74v-6a.89.89 0 0 0-.89-.89 3.64 3.64 0 0 0-2.76 1.33 3.64 3.64 0 0 0-2.76-1.26.89.89 0 0 0-.89.89v6h-1.43v-1.1a.89.89 0 0 0-1.78 0v2a.89.89 0 0 0 .89.89h3.2a.89.89 0 0 0 .89-.89v-5.82a1.87 1.87 0 0 1 1 1.64.89.89 0 0 0 1.78 0 1.87 1.87 0 0 1 1-1.64v5.74a.89.89 0 0 0 .89.89H59a.89.89 0 0 0 0-1.78z"/><path class="cls-1" d="M47.65 39.67a3.64 3.64 0 0 0-2.76 1.29 3.64 3.64 0 0 0-2.76-1.26.89.89 0 0 0-.89.89v6h-1.13a.89.89 0 1 0 0 1.78h2a.89.89 0 0 0 .89-.89v-5.81a1.87 1.87 0 0 1 1 1.64.89.89 0 0 0 1.78 0 1.87 1.87 0 0 1 1-1.64v.78a.89.89 0 0 0 1.78 0v-1.89a.89.89 0 0 0-.91-.89zm-27.88 6.85h-1.13v-6a.89.89 0 0 0-.89-.89A3.64 3.64 0 0 0 15 40.96a3.64 3.64 0 0 0-2.76-1.26.89.89 0 0 0-.89.89v6H9.92v-6a.89.89 0 0 0-.92-.92 3.64 3.64 0 0 0-2.73 1.29 3.64 3.64 0 0 0-2.76-1.26.89.89 0 0 0-.89.89v6H.89a.89.89 0 1 0 0 1.78h2.62a.89.89 0 0 0 .89-.89v-5.81a1.87 1.87 0 0 1 1 1.64.89.89 0 0 0 1.78 0 1.87 1.87 0 0 1 1-1.64v5.74a.89.89 0 0 0 .89.89h3.2a.89.89 0 0 0 .89-.89v-5.74a1.87 1.87 0 0 1 1 1.64.89.89 0 0 0 1.78 0 1.87 1.87 0 0 1 1-1.64v5.74a.89.89 0 0 0 .89.89h2a.89.89 0 1 0 0-1.78z"/></svg>