<svg data-name="Layer 1" xmlns="http://www.w3.org/2000/svg" viewBox="0 0 24 21.2"><title>like</title><path class="cls-1" d="M22.25 2.08a6 6 0 0 0-9.65.69 9.21 9.21 0 0 0-.6 1 9.21 9.21 0 0 0-.6-1 6 6 0 0 0-9.65-.69A7.27 7.27 0 0 0 0 6.91a8.91 8.91 0 0 0 2.45 5.85 54.63 54.63 0 0 0 6.14 5.74c.93.79 1.89 1.61 2.91 2.5a.7.7 0 0 0 .93 0c1-.89 2-1.71 2.91-2.5a54.6 54.6 0 0 0 6.14-5.74A8.91 8.91 0 0 0 24 6.91a7.27 7.27 0 0 0-1.75-4.83zm-7.76 15.35L12 19.6l-2.49-2.17c-4.88-4.16-8.1-6.9-8.1-10.51a5.87 5.87 0 0 1 1.4-3.9A4.69 4.69 0 0 1 6.38 1.4a4.74 4.74 0 0 1 3.88 2.2 8.34 8.34 0 0 1 1.08 2.14.7.7 0 0 0 1.34 0 8.34 8.34 0 0 1 1.06-2.14 4.64 4.64 0 0 1 7.45-.58 5.87 5.87 0 0 1 1.4 3.9c0 3.6-3.22 6.35-8.1 10.51z"/></svg>