<svg data-name="Layer 1" xmlns="http://www.w3.org/2000/svg" viewBox="0 0 50 46.67"><title>mortarboard</title><g class="cls-2"><path class="cls-3" d="M35.2 41.69a.83.83 0 0 0-1 .61l-.83 3.33a.83.83 0 0 0 .61 1h.2a.83.83 0 0 0 .82-.6l.83-3.33a.83.83 0 0 0-.63-1.01zM25 25a.83.83 0 0 0 .32-.06l9.17-3.79a.834.834 0 0 0-.64-1.54L25 23.26 1.67 13.61v-.28a.835.835 0 0 0-1.67 0v.83a.83.83 0 0 0 .52.77l24.17 10A.83.83 0 0 0 25 25zm9.91 8.53a.83.83 0 0 0-1.12-.38 19.42 19.42 0 0 1-8 1.82V27.5a.835.835 0 0 0-1.67 0v7.47c-10.3-.34-13.64-6.64-14.12-7.64v-5.67a.835.835 0 0 0-1.67 0v5.83a.84.84 0 0 0 .06.31c.15.36 3.69 8.86 16.61 8.86a21.42 21.42 0 0 0 9.54-2 .83.83 0 0 0 .37-1.13zm2.59 8.97a.83.83 0 0 0-.83.83v2.5a.835.835 0 0 0 1.67 0v-2.5a.83.83 0 0 0-.84-.83z"/><path class="cls-3" d="M49.17 12.5a.83.83 0 0 0-.83.83v.28l-10 4.12v-1.52l11.15-4.62a.83.83 0 0 0 0-1.54L25.32.05a.83.83 0 0 0-.64 0L.52 10.06a.83.83 0 0 0 0 1.54l24.17 10a.83.83 0 0 0 .64 0l8.74-3.62a.834.834 0 1 0-.64-1.54L25 19.93l-22-9.1 22-9.1 22 9.1-9.57 4-9.17-3.5a2 2 0 0 0 .08-.54c0-1.4-1.46-2.5-3.33-2.5s-3.33 1.1-3.33 2.5 1.45 2.54 3.32 2.54a4 4 0 0 0 2.16-.59l9.51 3.59v20.49a2.5 2.5 0 1 0 1.67 0v-4.73a10.12 10.12 0 0 0 3.29-4.32.84.84 0 0 0 0-.27v-5.84a.835.835 0 1 0-1.67 0v5.67a8.52 8.52 0 0 1-1.67 2.52V19.52l11.19-4.59a.83.83 0 0 0 .52-.77v-.83a.83.83 0 0 0-.83-.83zM25 11.66c-1 0-1.67-.49-1.67-.83S23.98 10 25 10s1.67.49 1.67.83-.67.83-1.67.83zM37.5 40a.83.83 0 1 1 .83-.83.83.83 0 0 1-.83.83zm3.31 2.33a.834.834 0 0 0-1.62.4l.81 3.3a.83.83 0 0 0 .81.63h.2a.83.83 0 0 0 .61-1z"/></g></svg>