<svg data-name="Layer 1" xmlns="http://www.w3.org/2000/svg" viewBox="0 0 28 27.99"><title>mortgage-loan</title><path class="cls-1" d="M24.71 18.44V9.9h3L16.51 0 5.33 9.9h3v6.52a5.7 5.7 0 0 0-2.15 1.19l-2.5 2.18H0V28h18.42L28 20.79l-.46-.65a4.1 4.1 0 0 0-2.83-1.7zM9.65 8.26l6.86-6.07 6.86 6.07h-.3v10.3a4.11 4.11 0 0 0-1.16.53l-2.52 1.66a4.08 4.08 0 0 0 .4-1.75v-.82h-5.12c-.45 0-.64-.33-.93-.54a5.73 5.73 0 0 0-3.79-1.43V8.26zm8.22 18.09H1.64v-4.92H4.3l2.95-2.59a4.11 4.11 0 0 1 5.42 0 2.89 2.89 0 0 0 2 .95H18a2.47 2.47 0 0 1-2.32 1.65h-3.33v1.64h6.48l4-2.62a2.51 2.51 0 0 1 2.82.06z"/><path class="cls-1" d="M16.51 13.18a.82.82 0 0 1-.82-.82H14a2.46 2.46 0 0 0 1.64 2.32v1.84h1.64v-1.84a2.46 2.46 0 0 0-.82-4.78.82.82 0 1 1 .82-.82H19a2.46 2.46 0 0 0-1.64-2.32V5h-1.67v1.76a2.46 2.46 0 0 0 .82 4.78.82.82 0 1 1 0 1.64z"/></svg>