<svg data-name="Layer 1" xmlns="http://www.w3.org/2000/svg" viewBox="0 0 38.52 40"><title>museum</title><path class="cls-1" d="M19.65 2.17a.74.74 0 0 0-.77 0L6.55 9.66A.74.74 0 0 0 6.93 11h4.21a1 1 0 0 0 1-1v-.36h1v.42a1 1 0 0 0 1 1h1.43a1 1 0 0 0 1-1v-.42h1v.42a1 1 0 0 0 1 1H20a1 1 0 0 0 1-1v-.42h1v.42a1 1 0 0 0 1 1h1.4a1 1 0 0 0 1-1v-.42h1v.42a1 1 0 0 0 1 1h4.2a.74.74 0 0 0 .39-1.38zm7.94 7.69v-.42a1 1 0 0 0-1-1h-1.41a1 1 0 0 0-1 1v.42h-1v-.42a1 1 0 0 0-1-1h-1.42a1 1 0 0 0-1 1v.42h-1v-.42a1 1 0 0 0-1-1H16.3a1 1 0 0 0-1 1v.42h-1v-.42a1 1 0 0 0-1-1h-1.38a1 1 0 0 0-1 1v.42H8.47L19.3 3.31l10.8 6.55z"/><path class="cls-1" d="M36.57 36v-.22a2.2 2.2 0 0 0-2.2-2.2h-.83v-1.82a1.17 1.17 0 0 0-1.16-1.17l-.53-8.35a.59.59 0 1 0-1.17.07l.53 8.27h-3.29l.79-12.4h1.71l.11 1.8a.59.59 0 1 0 1.17-.07l-.11-1.72a2 2 0 0 0 1.95-1.95v-.84h1.07a.9.9 0 0 0 .9-.9v-1.67h1.69a1 1 0 0 0 .5-1.8L19.77.14a1 1 0 0 0-1 0l-4 2.43a.59.59 0 1 0 .61 1l3.92-2.36 17.19 10.45H2.04L13.3 4.8a.59.59 0 0 0-.61-1L.82 11a1 1 0 0 0 .5 1.8h1.69v1.66a.9.9 0 0 0 .9.9h1.08v.84a2 2 0 0 0 1.95 1.95l-.79 12.4a1.17 1.17 0 0 0-1.16 1.17v1.81h-.84a2.2 2.2 0 0 0-2.2 2.2V36a2.23 2.23 0 0 0-2 2.21v1a.78.78 0 0 0 .78.78h37a.78.78 0 0 0 .78-.78v-1A2.23 2.23 0 0 0 36.57 36zm-9.81-4.23h5.61v1.81h-5.61zm0-1.17a1.17 1.17 0 0 0-1.16 1.17v1.81h-2.36v-1.82a1.18 1.18 0 0 0-1.16-1.17l-.78-12.41a2 2 0 0 0 1.95-1.95v-.84h2.34v.84a2 2 0 0 0 1.95 1.95zm-13.8 3v-1.84a1.17 1.17 0 0 0-1.16-1.17l-.79-12.4a2 2 0 0 0 1.95-1.95v-.84h2.34v.84a2 2 0 0 0 1.95 1.95l-.79 12.4a1.18 1.18 0 0 0-1.16 1.17v1.81zm8-3h-3.34l.79-12.4h1.71zM17.23 17a.77.77 0 0 1-.77-.77v-.84h5.61v.84a.77.77 0 0 1-.77.77zm-.77 14.75h5.61v1.81h-5.61zm15.91-15.51a.77.77 0 0 1-.77.77h-4.07a.77.77 0 0 1-.77-.77v-.84h5.61v.84zM4.19 12.83H34.3v1.39H4.19zm2 3.4v-.84h5.61v.84a.77.77 0 0 1-.77.77h-4.1a.77.77 0 0 1-.77-.76zm3.66 1.95l.79 12.4H7.3l.79-12.4zM6.16 31.76h5.61v1.81H6.16zm31.2 7.07H1.18v-.63a1.06 1.06 0 0 1 1.06-1.06h6.91a.59.59 0 1 0 0-1.17h-6v-.21a1 1 0 0 1 1-1h30.23a1 1 0 0 1 1 1V36H11.49a.59.59 0 1 0 0 1.17H36.3a1.06 1.06 0 0 1 1.06 1.06z"/></svg>