<svg data-name="Layer 1" xmlns="http://www.w3.org/2000/svg" viewBox="0 0 50 50"><title>open-book</title><g class="cls-2"><path class="cls-3" d="M28.42 23.71a.83.83 0 0 0 1.12.36 71.43 71.43 0 0 1 7.37-3.28.833.833 0 0 0-.5-1.59 71.47 71.47 0 0 0-7.63 3.39.83.83 0 0 0-.36 1.12zm.75-9.54a.83.83 0 0 0 .38-.09 71.45 71.45 0 0 1 7.37-3.28.833.833 0 0 0-.5-1.59 71.45 71.45 0 0 0-7.63 3.39.83.83 0 0 0 .38 1.58z"/><path class="cls-3" d="M49.17 12.5a.83.83 0 0 0-.83.83v32.5a2.5 2.5 0 0 1-2.5 2.5h-20v-1.91A24.56 24.56 0 0 1 33.33 45a43 43 0 0 1 12.24 1.62.83.83 0 0 0 1.1-.79V9.17a.83.83 0 0 0-.67-.82s-.65-.15-1.77-.35a.834.834 0 0 0-.3 1.64l1.06.2v34.89a47.06 47.06 0 0 0-11.67-1.39 26.18 26.18 0 0 0-8.3 1.6 19.52 19.52 0 0 0-7.53-1.6A56.15 56.15 0 0 0 5 44.76V9.81a54.85 54.85 0 0 1 12.5-1.48 18.07 18.07 0 0 1 6.67 1.37v32.8a.83.83 0 0 0 1.26.71 95.41 95.41 0 0 1 15.67-7.42.83.83 0 0 0 .57-.79V.83a.83.83 0 0 0-1.13-.78 88.65 88.65 0 0 0-13.48 6.74.831.831 0 1 0 .88 1.41A89.07 89.07 0 0 1 40 2.05V34.4a93.39 93.39 0 0 0-14.17 6.65V9.17a.83.83 0 0 0-.46-.75 19.3 19.3 0 0 0-7.87-1.75 54.09 54.09 0 0 0-13.56 1.7.83.83 0 0 0-.6.8v36.66a.83.83 0 0 0 .83.83.82.82 0 0 0 .23 0A53.53 53.53 0 0 1 17.5 45a18 18 0 0 1 6.67 1.37v2h-20a2.5 2.5 0 0 1-2.5-2.5V13.33a.835.835 0 1 0-1.67 0v32.5A4.17 4.17 0 0 0 4.17 50h41.66A4.17 4.17 0 0 0 50 45.83v-32.5a.83.83 0 0 0-.83-.83z"/><path class="cls-3" d="M28.42 18.71a.83.83 0 0 0 1.12.36 71.43 71.43 0 0 1 7.37-3.28.833.833 0 0 0-.5-1.59 71.47 71.47 0 0 0-7.63 3.39.83.83 0 0 0-.36 1.12zm0 10a.83.83 0 0 0 1.12.36 71.43 71.43 0 0 1 7.37-3.28.833.833 0 0 0-.5-1.59 71.5 71.5 0 0 0-7.63 3.39.83.83 0 0 0-.36 1.12zm-8.23-13.24C15 14.26 9.2 15.8 9 15.86a.83.83 0 0 0 .22 1.64h.22c.06 0 5.69-1.5 10.43-.38a.832.832 0 1 0 .38-1.62zm0 5C15 19.26 9.2 20.8 9 20.86a.83.83 0 0 0 .22 1.64h.22c.06 0 5.69-1.5 10.43-.38a.832.832 0 1 0 .38-1.62zm8.23 13.24a.83.83 0 0 0 1.12.36 71.43 71.43 0 0 1 7.37-3.28.833.833 0 0 0-.5-1.59 71.47 71.47 0 0 0-7.63 3.39.83.83 0 0 0-.36 1.12zm-8.23-8.24C15 24.26 9.2 25.8 9 25.86a.83.83 0 0 0 .22 1.64h.22c.06 0 5.69-1.5 10.43-.38a.832.832 0 1 0 .38-1.62zm0 10C15 34.26 9.2 35.8 9 35.86a.83.83 0 0 0 .22 1.64h.22c.06 0 5.69-1.5 10.43-.38a.832.832 0 1 0 .38-1.62zm0-5C15 29.26 9.2 30.8 9 30.86a.83.83 0 0 0 .22 1.64h.22c.06 0 5.69-1.5 10.43-.38a.832.832 0 1 0 .38-1.62z"/></g></svg>