<svg data-name="Layer 1" xmlns="http://www.w3.org/2000/svg" viewBox="0 0 80 80"><title>park</title><g class="cls-2"><path class="cls-3" d="M78.67 62.66a1.335 1.335 0 1 0 0-2.67h-1.34a1.335 1.335 0 0 0-2.67 0H53.33a1.335 1.335 0 1 0-2.67 0h-1.33a1.335 1.335 0 1 0 0 2.67h1.33v4h-1.33a1.335 1.335 0 0 0 0 2.67h1.33v1.33h-1.33a1.335 1.335 0 1 0 0 2.67h1.33v4H28v-11a13.18 13.18 0 0 0 6.46 1.66A13.74 13.74 0 0 0 48 54.1a13.88 13.88 0 0 0-7.59-12.49 12.17 12.17 0 0 0 2.36-7.26 12 12 0 0 0-9.64-11.89A10.31 10.31 0 0 0 24 7.89h-.12a9.33 9.33 0 0 0-18.47.22 6.67 6.67 0 0 0 1.26 13.22h7.77a10.3 10.3 0 0 0 .43 1.13 12 12 0 0 0-9.64 11.9 12.17 12.17 0 0 0 2.36 7.26A13.89 13.89 0 0 0 0 54.1a13.74 13.74 0 0 0 13.54 13.89A13.18 13.18 0 0 0 20 66.3v11H1.33a1.335 1.335 0 1 0 0 2.67h77.34a1.335 1.335 0 1 0 0-2.67h-1.34v-4h1.33a1.335 1.335 0 1 0 0-2.67h-1.33v-1.3h1.33a1.335 1.335 0 1 0 0-2.67h-1.33v-4h1.33zM13.95 18.2v.46H6.67a4 4 0 0 1 0-8A1.33 1.33 0 0 0 8 9.33a6.65 6.65 0 0 1 13.23-1 10.29 10.29 0 0 0-7.28 9.87zm11.38 59.13h-2.66v-13A13.75 13.75 0 0 0 24 62.9a13.74 13.74 0 0 0 1.33 1.43v13zm.16-16.94l8.78-8.78a1.336 1.336 0 0 0-1.89-1.89l-7.06 7.06V43.21l6.28-6.28a1.336 1.336 0 0 0-1.89-1.89l-4.39 4.39v-6.1a1.335 1.335 0 0 0-2.67 0v6.11l-4.39-4.39a1.336 1.336 0 0 0-1.89 1.89l6.28 6.28v13.56l-7.06-7.06a1.336 1.336 0 0 0-1.89 1.89l8.78 8.78a10.68 10.68 0 0 1-9 4.94 11.28 11.28 0 0 1-3.31-21.93 1.33 1.33 0 0 0 .52-2.22 9.5 9.5 0 0 1-2.79-6.83 9.29 9.29 0 0 1 9-9.44 1.38 1.38 0 0 0 1.34-.72 1.33 1.33 0 0 0-.12-1.39 7.73 7.73 0 0 1-1.53-4.6A7.53 7.53 0 0 1 24 10.56a7.52 7.52 0 0 1 7.38 7.64 7.73 7.73 0 0 1-1.53 4.6 1.33 1.33 0 0 0-.09 1.39 1.36 1.36 0 0 0 1.21.73 9.3 9.3 0 0 1 9.13 9.44 9.5 9.5 0 0 1-2.84 6.83 1.33 1.33 0 0 0 .52 2.22 11.28 11.28 0 0 1-3.31 21.93 10.68 10.68 0 0 1-8.97-4.96zm49.18 16.94H53.33v-4h21.34zm0-6.67H53.33v-1.33h21.34zm0-4H53.33v-4h21.34zM57.33 33.32h16a6.67 6.67 0 0 0 1.25-13.21 9.33 9.33 0 0 0-18.51 0 6.67 6.67 0 0 0 1.25 13.21zm0-10.67a1.33 1.33 0 0 0 1.33-1.33 6.67 6.67 0 1 1 13.33 0 1.33 1.33 0 0 0 1.33 1.33 4 4 0 1 1 0 8h-16a4 4 0 0 1 0-8z"/></g></svg>