<svg data-name="Layer 1" xmlns="http://www.w3.org/2000/svg" viewBox="0 0 50 50"><title>parking</title><path class="cls-1" d="M12.45 3.08H8.54A8.55 8.55 0 0 0 0 11.62v32.23a3.67 3.67 0 0 0 3.66 3.66h13.67A3.67 3.67 0 0 0 21 43.85V11.62a8.55 8.55 0 0 0-8.55-8.54zM7.74 4.59a7.28 7.28 0 0 1-6.23 6.23 7.09 7.09 0 0 1 6.23-6.23zM1.46 23.73A9 9 0 0 1 2.28 20l1.92 2.73a2.18 2.18 0 0 0-.3 1.1v10.74a2.19 2.19 0 0 0 .21.93l-2.23 3.19a2.19 2.19 0 0 1-.42-1.28zm4.64 13h8.79a2.18 2.18 0 0 0 .94-.21l2.08 3a2.19 2.19 0 0 1-.58.08H3.66a2.19 2.19 0 0 1-.58-.08l2.08-3a2.18 2.18 0 0 0 .94.25zm-.73-2.2v-10.7a.73.73 0 0 1 .73-.73h8.79a.73.73 0 0 1 .73.73v10.74a.73.73 0 0 1-.73.73H6.1a.73.73 0 0 1-.73-.73zm10.3-12.8a2.19 2.19 0 0 0-.78-.14H6.1a2.19 2.19 0 0 0-.78.14l-2.24-3.15a9 9 0 0 1 14.83 0zm3.86 22.07a2.2 2.2 0 0 1-2.2 2.2H3.66a2.2 2.2 0 0 1-2.2-2.2v-3.47a3.64 3.64 0 0 0 2.2.73h13.67a3.64 3.64 0 0 0 2.2-.73zm0-6.45a2.18 2.18 0 0 1-.42 1.28l-2.24-3.18a2.19 2.19 0 0 0 .21-.93V23.83a2.18 2.18 0 0 0-.3-1.1L18.72 20a9 9 0 0 1 .81 3.74zm0-19a10.49 10.49 0 0 0-18.07 0V12.3a8.75 8.75 0 0 0 7.76-7.76h2.84a8.75 8.75 0 0 0 7.47 7.72zm-6-13.76a7.09 7.09 0 0 1 5.93 6.14 7.35 7.35 0 0 1-5.91-6.1zm27.93-1.51h-3.91A8.55 8.55 0 0 0 29 11.62v32.23a3.67 3.67 0 0 0 3.66 3.66h13.68A3.67 3.67 0 0 0 50 43.85V11.62a8.55 8.55 0 0 0-8.54-8.54zm7 7.7a7.35 7.35 0 0 1-5.93-6.14 7.09 7.09 0 0 1 5.95 6.13zM36.75 4.59a7.28 7.28 0 0 1-6.23 6.23 7.09 7.09 0 0 1 6.23-6.23zm-6.28 19.14a9 9 0 0 1 .81-3.73l1.93 2.74a2.18 2.18 0 0 0-.3 1.1v10.73a2.19 2.19 0 0 0 .21.93l-2.23 3.18a2.18 2.18 0 0 1-.42-1.28zm4.64 13h8.79a2.18 2.18 0 0 0 .94-.21l2.08 3a2.19 2.19 0 0 1-.58.08H32.67a2.19 2.19 0 0 1-.58-.08l2.08-3a2.18 2.18 0 0 0 .94.25zm-.73-2.2v-10.7a.73.73 0 0 1 .73-.73h8.79a.73.73 0 0 1 .73.73v10.74a.73.73 0 0 1-.73.73h-8.79a.73.73 0 0 1-.73-.73zm10.3-12.8a2.19 2.19 0 0 0-.78-.14h-8.79a2.19 2.19 0 0 0-.78.14l-2.24-3.19a9 9 0 0 1 14.83 0zm3.86 22.07a2.2 2.2 0 0 1-2.2 2.2H32.67a2.2 2.2 0 0 1-2.2-2.2v-3.47a3.64 3.64 0 0 0 2.2.73h13.67a3.64 3.64 0 0 0 2.2-.73zm0-6.45a2.18 2.18 0 0 1-.42 1.28l-2.24-3.18a2.19 2.19 0 0 0 .21-.93V23.83a2.18 2.18 0 0 0-.3-1.1L47.72 20a9 9 0 0 1 .81 3.74zm0-19a10.49 10.49 0 0 0-18.07 0V12.3a8.75 8.75 0 0 0 7.76-7.76h2.84a8.75 8.75 0 0 0 7.47 7.72zM24.32 48.54h1.46V50h-1.46zm0-45.61h1.46v44.14h-1.46zm0-2.93h1.46v1.46h-1.46z"/><path class="cls-1" d="M2.88 43.12h1.47v1.46H2.88zm13.77 0h1.46v1.46h-1.46zm15.43 0h1.46v1.46h-1.46zm13.77 0h1.46v1.46h-1.46z"/></svg>