<svg data-name="Layer 1" xmlns="http://www.w3.org/2000/svg" viewBox="0 0 60 60"><title>payment-method</title><g class="cls-2"><path class="cls-3" d="M20.22 45.93a1.22 1.22 0 0 0-.07-.22 1.19 1.19 0 0 0-.11-.2 1.14 1.14 0 0 0-.32-.32l-.2-.11-.22-.08a1.16 1.16 0 0 0-.46 0l-.22.07-.2.11a1.17 1.17 0 0 0-.43.52 1.14 1.14 0 0 0-.07.22 1.13 1.13 0 0 0 0 .46 1.1 1.1 0 0 0 .07.22 1.09 1.09 0 0 0 .11.2 1.14 1.14 0 0 0 .32.32l.2.11.22.07h.46l.22-.07.2-.11a1.14 1.14 0 0 0 .32-.32 1.16 1.16 0 0 0 .11-.2 1.18 1.18 0 0 0 .07-.22 1.13 1.13 0 0 0 0-.46z"/><path class="cls-3" d="M53.91 46.29c-1.08-2.52-3.61-3.46-6.6-2.43l-8.16 2.26a5.35 5.35 0 0 0-3.31-3.26l-9-3a9.26 9.26 0 0 0-7.47-3.44c-3.06 0-5.77 2.1-7.32 4.39H1.17A1.17 1.17 0 0 0 0 41.88v14.78a1.17 1.17 0 0 0 1.17 1.17h7a1.17 1.17 0 0 0 1.17-1.17v-1h3.27a1.17 1.17 0 0 0 1.17-1.17v-.34A8.31 8.31 0 0 1 18 55.67a70.89 70.89 0 0 0 7 3.59h.05a10.52 10.52 0 0 0 3.77.71 9.34 9.34 0 0 0 3.88-.83l18-6.46h.09c1.85-.81 4.42-3.04 3.12-6.39zM7 55.48H2.34V43.05H7zm4.44-2.18H9.31V43.05h2.1zM50 50.52L31.94 57h-.05a7.59 7.59 0 0 1-5.84.1 67.87 67.87 0 0 1-6.8-3.48 10.55 10.55 0 0 0-5.45-1.85v-9.42c1.11-1.82 3.26-3.68 5.59-3.68a6.76 6.76 0 0 1 5.74 2.69 1.17 1.17 0 0 0 .62.5L35 45a2.63 2.63 0 0 1 1.91 3.1 2.28 2.28 0 0 1-2.81 1.58l-10.5-3.33a1.17 1.17 0 1 0-.71 2.23l10.52 3.33a4.65 4.65 0 0 0 1.27.18 4.63 4.63 0 0 0 4.44-3.36q0-.14.07-.28L48 46c1.27-.43 2.94-.59 3.68 1.12.82 2.04-1.18 3.15-1.68 3.4zm-7.92-35.11a1.14 1.14 0 0 0-.07-.22 1.19 1.19 0 0 0-.25-.38 1.13 1.13 0 0 0-.18-.15l-.2-.11-.22-.07a1.16 1.16 0 0 0-.46 0l-.22.07-.2.11A1.14 1.14 0 0 0 40 15a1.19 1.19 0 0 0-.11.2 1.14 1.14 0 0 0-.07.22 1.13 1.13 0 0 0 0 .46 1.1 1.1 0 0 0 .07.22 1.15 1.15 0 0 0 .11.2 1.14 1.14 0 0 0 .32.32l.2.11.22.07h.46l.22-.07.2-.11a1.14 1.14 0 0 0 .32-.32 1.08 1.08 0 0 0 .11-.2 1.11 1.11 0 0 0 .07-.22 1.18 1.18 0 0 0 0-.46z"/><path class="cls-3" d="M58.83 4h-7a1.17 1.17 0 0 0-1.17 1.17v1h-3.24a1.17 1.17 0 0 0-1.17 1.17v.34A8.31 8.31 0 0 1 42 6.13a70.9 70.9 0 0 0-7-3.59h-.05a10 10 0 0 0-7.65.12l-4.79 1.66-4-4a1.17 1.17 0 0 0-1.66 0l-13 13a1.16 1.16 0 0 0 0 1.66l22.3 22.3a1.27 1.27 0 0 0 1.66 0L39.7 25.44h1c3.06 0 5.77-2.1 7.32-4.39h10.81A1.17 1.17 0 0 0 60 19.92V5.14A1.17 1.17 0 0 0 58.83 4zM17.71 2.83l2.67 2.67a5.11 5.11 0 0 1-5.38 0zM9 16.89l-2.69-2.67L9 11.55a5.11 5.11 0 0 1 0 5.34zm18 18l-2.72-2.69a5.1 5.1 0 0 1 5.34 0zm4.36-4.36a7.45 7.45 0 0 0-8.72 0L10.67 18.58a7.45 7.45 0 0 0 0-8.72l2.67-2.67a7.45 7.45 0 0 0 8.72 0l2.54 2.54a4.64 4.64 0 0 0-3.49 2.56 6.68 6.68 0 1 0 7.68 8.27l4 1.34A7.48 7.48 0 0 0 34 27.83zM24.19 19l2.34.8a4.34 4.34 0 1 1-5.89-5 5.19 5.19 0 0 0 3.55 4.2zm11.49 7.16a5.12 5.12 0 0 1-.75-2.44 9.11 9.11 0 0 0 2.07 1.1zm10.57-6.69c-1.11 1.82-3.26 3.68-5.59 3.68a8.53 8.53 0 0 1-1.22-.15 6.71 6.71 0 0 1-4.34-2.38l-.1-.14a1.17 1.17 0 0 0-.65-.54L25 16.78a2.63 2.63 0 0 1-1.91-3.1 2.28 2.28 0 0 1 2.8-1.57l10.5 3.33a1.17 1.17 0 0 0 .71-2.23l-8.35-2.65-.07-.07-4.34-4.34 3.72-1.33A7.59 7.59 0 0 1 34 4.68a67.88 67.88 0 0 1 6.8 3.48A10.55 10.55 0 0 0 46.25 10zm4.44-.7h-2.1V8.5h2.1zm7 0H53V6.32h4.62z"/></g></svg>