<svg data-name="Layer 1" xmlns="http://www.w3.org/2000/svg" viewBox="0 0 59.99 60"><title>piggy-bank</title><g class="cls-2"><path class="cls-3" d="M28.83 12.89A1.17 1.17 0 0 0 30 11.72V7a1.17 1.17 0 0 0-2.34 0v4.69a1.17 1.17 0 0 0 1.17 1.2zM15.94 35.16a3.52 3.52 0 1 0-3.52-3.52 3.52 3.52 0 0 0 3.52 3.52zm0-4.69a1.17 1.17 0 1 1-1.17 1.17 1.17 1.17 0 0 1 1.17-1.17zm5.86-7.03h9.38a1.17 1.17 0 1 0 0-2.34H21.8a1.17 1.17 0 1 0 0 2.34zm14.06-2.35a1.17 1.17 0 1 1-1.17 1.17 1.17 1.17 0 0 1 1.17-1.17z"/><path class="cls-3" d="M3.66 42.89h3.49a20.05 20.05 0 0 0 5.27 7v6.46A3.67 3.67 0 0 0 16.09 60h2a3.67 3.67 0 0 0 3.66-3.66v-2a20.08 20.08 0 0 0 3.52.31h7a20.08 20.08 0 0 0 3.52-.31v2A3.67 3.67 0 0 0 39.52 60h2a3.67 3.67 0 0 0 3.66-3.66v-6.47a21.57 21.57 0 0 0 7-14.15v-.68a9.54 9.54 0 0 0 5.35-2.33 8.2 8.2 0 0 0 0-11.6 1.174 1.174 0 1 0-1.66 1.66 5.86 5.86 0 0 1 0 8.29 7.26 7.26 0 0 1-3.72 1.62c-.63-8.52-7.05-15.85-15.67-18A9.38 9.38 0 1 0 21 14.53a19.58 19.58 0 0 0-4.76 1.71 8.21 8.21 0 0 0-7.14-4.52A1.33 1.33 0 0 0 7.73 13v11.6a19.78 19.78 0 0 0-2 5.87h-2A3.67 3.67 0 0 0 0 34.13v5.09a3.67 3.67 0 0 0 3.66 3.67zM28.83 2.34a7 7 0 1 1-7 7 7 7 0 0 1 7-7zM2.34 34.13a1.32 1.32 0 0 1 1.32-1.32h2.92a1.32 1.32 0 0 0 1.3-1.14 17.44 17.44 0 0 1 2-6.17 1.3 1.3 0 0 0 .17-.64V14.18a5.86 5.86 0 0 1 4.4 3.94 1.31 1.31 0 0 0 1.91.72 17.33 17.33 0 0 1 6.44-2.26 9.37 9.37 0 0 0 11.85.11c8.7 1.53 15.21 8.86 15.27 17.31 0 .53 0 1.06-.06 1.57a19 19 0 0 1-6.49 12.85 1.31 1.31 0 0 0-.48 1v6.94a1.32 1.32 0 0 1-1.32 1.32h-2a1.32 1.32 0 0 1-1.32-1.32V50.5a1.17 1.17 0 0 0-2.34 0v1.41a17.7 17.7 0 0 1-3.52.35h-7a17.7 17.7 0 0 1-3.52-.35V50.5a1.17 1.17 0 0 0-2.34 0v5.83a1.32 1.32 0 0 1-1.32 1.32h-2a1.32 1.32 0 0 1-1.32-1.32v-6.94a1.3 1.3 0 0 0-.49-1 17.68 17.68 0 0 1-5.24-7 1.31 1.31 0 0 0-1.21-.8H3.66a1.32 1.32 0 0 1-1.32-1.32z"/></g></svg>