<svg data-name="Layer 1" xmlns="http://www.w3.org/2000/svg" viewBox="0 0 50 50"><title>printer</title><g class="cls-2"><path class="cls-3" d="M3.85 28.85a1.92 1.92 0 1 0 1.92 1.92 1.93 1.93 0 0 0-1.92-1.92zm0 2.56a.64.64 0 1 1 .64-.64.64.64 0 0 1-.64.64zm35.21 4.26a.64.64 0 0 0-.6-.41H12.82a.64.64 0 0 0-.58.37L5.83 49.08a.64.64 0 0 0 .58.92h37.18a.64.64 0 0 0 .6-.87zm-31.64 13l5.8-12.18H38l4.64 12.18z"/><path class="cls-3" d="M44.87 13.46H39L38.46.62a.64.64 0 0 0-.64-.62H13.46a.64.64 0 0 0-.64.62l-.49 12.85h-7.2C1.76 13.46 0 21 0 25v14.74a4.49 4.49 0 0 0 4.49 4.49h3.2a.64.64 0 0 0 .64-.64V33.33h34v10.26a.64.64 0 0 0 .64.64h2.56A4.49 4.49 0 0 0 50 39.74V25c0-4-1.76-11.54-5.13-11.54zm-31.29.67l.49-12.84H37.2l.49 12.85.1 2.54h-24.3zm-1.23 3.62a.64.64 0 0 0 .46.2h25.65a.64.64 0 0 0 .64-.67l-.1-2.53h4.45c.8.43 2 2.6 2.77 4.45a.62.62 0 0 1 0 .63 2.6 2.6 0 0 1-2 .68h-37a2.6 2.6 0 0 1-2-.68.62.62 0 0 1 0-.63c.73-1.86 2-4 2.77-4.45h4.26l-.1 2.54a.64.64 0 0 0 .21.46zm29.95 14.3h-34v-2.56a2.57 2.57 0 0 1 2.56-2.56h28.88a2.57 2.57 0 0 1 2.56 2.56zm6.41 7.69a3.21 3.21 0 0 1-3.21 3.21h-1.91V29.49a3.85 3.85 0 0 0-3.85-3.85H10.9a3.85 3.85 0 0 0-3.85 3.85v13.46H4.49a3.21 3.21 0 0 1-3.21-3.21V25c0-4.38 1.9-10.26 3.85-10.26H6.2a18.35 18.35 0 0 0-2.15 4 1.88 1.88 0 0 0 .15 1.83 3.76 3.76 0 0 0 3 1.24h37a3.76 3.76 0 0 0 3-1.24 1.88 1.88 0 0 0 .15-1.83 18.78 18.78 0 0 0-2.05-3.86c1.73.89 3.35 6.21 3.35 10.13z"/></g></svg>