<svg data-name="Layer 1" xmlns="http://www.w3.org/2000/svg" viewBox="0 0 28.35 40"><title>reading</title><path class="cls-1" d="M26.42 26.42v-4.16l-1.76.68v-.08a4.52 4.52 0 0 0-3-2l-4.23-.77v-.33a6.46 6.46 0 0 0 3.1-4.34 2.58 2.58 0 0 0 2.06-2.52V6.52a4 4 0 0 0-2.89-3.88l-.32-.32A7.93 7.93 0 0 0 5.8 7.93v5a2.58 2.58 0 0 0 2.05 2.52 6.46 6.46 0 0 0 3.1 4.34v.33l-4.23.77a4.53 4.53 0 0 0-3 2v.09l-1.77-.69v4.16a1.94 1.94 0 0 0-1.93 1.93v2.58a1.94 1.94 0 0 0 1.93 1.93v2.37L14.18 40l12.24-4.76v-2.38a1.94 1.94 0 0 0 1.93-1.93v-2.58a1.94 1.94 0 0 0-1.93-1.93zm-7.81-4.81l2.79.51a3.23 3.23 0 0 1 2 1.3l-6.22 2.42zm-6.31-1.27a6.42 6.42 0 0 0 3.76 0l-1.88 1.41zm.9 2.28l-1.32 1.32-.85-2.56.41-.07zm3.72-1.32l.41.07-.85 2.56-1.3-1.31zm3.7-7.3v-2.22a1.28 1.28 0 0 1 0 2.22zM7.74 14a1.28 1.28 0 0 1 0-2.22zm0-4.33v.74a2.55 2.55 0 0 0-.64.27V7.93a6.65 6.65 0 0 1 11.35-4.7l.57.57h.17a2.75 2.75 0 0 1 2.09 2.68v4.15a2.53 2.53 0 0 0-.64-.27v-.69h-2a5.6 5.6 0 0 1-4.46-2.23l-.51-.68L12.33 8a5.54 5.54 0 0 1-3.95 1.67zm1.29 4.51v-3.26a6.82 6.82 0 0 0 4.21-2l.25-.25A6.9 6.9 0 0 0 18.58 11h.75v3.22a5.16 5.16 0 1 1-10.31 0zm-2.06 7.94l2.79-.51 1.42 4.23-6.24-2.42a3.23 3.23 0 0 1 2.02-1.3zm-5.68 8.81v-2.58a.65.65 0 0 1 .64-.64 1.935 1.935 0 1 1 0 3.87.65.65 0 0 1-.64-.65zm12.24 7.43l-10.35-4v-1.77a3.22 3.22 0 0 0 0-5.9v-2.55l10.31 4zM11.62 26l2.56-2.54L16.74 26l-2.56 1zm13.56 8.36l-10.31 4V28.15l10.31-4v2.55a3.22 3.22 0 0 0 0 5.9zm1.93-3.43a.65.65 0 0 1-.64.64 1.935 1.935 0 1 1 0-3.87.65.65 0 0 1 .64.64z"/></svg>