<svg viewBox="0 0 28 28" xmlns="http://www.w3.org/2000/svg"><g clip-path="url(#clip0)"><path d="M12.426 17.064c0 1.81 1.472 3.28 3.281 3.28a3.285 3.285 0 0 0 3.28-3.28 3.285 3.285 0 0 0-3.28-3.28 3.285 3.285 0 0 0-3.28 3.28zm4.375 0a1.095 1.095 0 0 1-2.187 0 1.095 1.095 0 0 1 2.187 0zm7.928 4.374a3.285 3.285 0 0 0-3.28 3.281A3.285 3.285 0 0 0 24.728 28a3.285 3.285 0 0 0 3.281-3.28 3.285 3.285 0 0 0-3.28-3.282zm0 4.375a1.095 1.095 0 0 1 0-2.187 1.095 1.095 0 0 1 0 2.187zm.602-12.14L17.62 28h-2.486l7.71-14.326h2.486zm-11.503 12.14L12.65 28H6.083a3.285 3.285 0 0 1-3.28-3.28V13.236l-1.274 1.162-1.474-1.616L14.067 0l12.59 11.487h-3.245L14.067 2.96 4.99 11.24v13.48c0 .603.49 1.094 1.093 1.094h7.745z" fill="#fff"/></g></svg>