<svg data-name="Layer 1" xmlns="http://www.w3.org/2000/svg" viewBox="0 0 50.04 37.32"><title>ruler</title><g class="cls-2"><path class="cls-3" d="M17.14 18.15c4.14 0 7.52-2.54 7.52-5.66s-3.37-5.66-7.52-5.66-7.52 2.54-7.52 5.66 3.38 5.66 7.52 5.66zm0-9.31c3 0 5.51 1.67 5.51 3.65s-2.56 3.64-5.51 3.64-5.51-1.67-5.51-3.65 2.52-3.66 5.51-3.66z"/><path class="cls-3" d="M49.03 22.94H34.19V12.47C34.19 5.6 26.53 0 17.09 0S0 5.6 0 12.47v12.37C0 31.17 6.49 36.4 14.84 37.2h.17c.69.06 1.4.11 2.11.11h31.91a1 1 0 0 0 1-1V23.95a1 1 0 0 0-1-1.01zM17.14 2.02c8.3 0 15.08 4.7 15.08 10.47s-6.74 10.46-15.08 10.46S2.09 18.26 2.09 12.48 8.86 2.02 17.14 2.02zm15.09 16.33v4.6h-5.84a15.16 15.16 0 0 0 5.78-4.6zm15.8 17h-2v-5.14a1 1 0 1 0-2 0v5.1h-4v-2.77a1 1 0 1 0-2 0v2.77h-4v-2.77a1 1 0 0 0-2 0v2.77h-4v-5.1a1 1 0 1 0-2 0v5.1h-3.94v-2.77a1 1 0 0 0-2 0v2.77h-4v-2.77a1 1 0 0 0-2 0v2.52c-6.87-1-12-5.2-12-10.23v-6.48c2.88 3.93 8.54 6.61 15.08 6.61h30.85z"/></g></svg>