<svg data-name="Layer 1" xmlns="http://www.w3.org/2000/svg" viewBox="0 0 45.51 50"><title>skyline1</title><path class="cls-1" d="M44.66 48.31h-1.4V4.21a.84.84 0 0 0-.84-.84H26.68a.84.84 0 0 0-.84.84v3.66h-1.69V4.21a.84.84 0 0 0-.84-.84h-3.65V.84a.845.845 0 0 0-1.69 0v2.53h-3.65a.84.84 0 0 0-.84.84v3.66h-2.53a.84.84 0 0 0-.84.84v7h-7a.84.84 0 0 0-.84.84v31.76H.84a.845.845 0 0 0 0 1.69h43.82a.845.845 0 0 0 0-1.69zM15.17 5.06h7.3v2.81h-7.3zm-2.81 43.25h-.61v-1.4a.845.845 0 1 0-1.69 0v1.4h-.51v-2.8h2.81zm5.62-21.63v21.63h-3.94v-3.65a.84.84 0 0 0-.84-.84H8.75a.84.84 0 0 0-.84.84v3.65H3.93V17.42h14zm.84-11h-7.07V9.55h14v16.29h-6.09V23h2.53a.845.845 0 0 0 0-1.69h-2.53v-2.77h2.53a.845.845 0 0 0 0-1.69h-2.53v-.28a.84.84 0 0 0-.84-.84zm14.93 32.63h-14V27.53h14zm7.87 0h-6.23V25.56a.845.845 0 1 0-1.69 0v.28h-1.68v-.28a.845.845 0 1 0-1.69 0v.28h-2.8V5.06h14v43.25z"/><path class="cls-1" d="M23.31 46.63a.84.84 0 0 0 .84-.84V30.06a.845.845 0 1 0-1.69 0v15.73a.84.84 0 0 0 .85.84zm3.37 0a.84.84 0 0 0 .84-.84V30.06a.845.845 0 0 0-1.69 0v15.73a.84.84 0 0 0 .85.84zm3.37 0a.84.84 0 0 0 .84-.84V30.06a.845.845 0 1 0-1.69 0v15.73a.84.84 0 0 0 .85.84zm1.13-35.96a.84.84 0 0 0 .84-.84V8.71a.845.845 0 1 0-1.69 0v1.12a.84.84 0 0 0 .85.84zm3.37 0a.84.84 0 0 0 .84-.84V8.71a.845.845 0 1 0-1.69 0v1.12a.84.84 0 0 0 .85.84zm3.37 0a.84.84 0 0 0 .83-.84V8.71a.845.845 0 1 0-1.69 0v1.12a.84.84 0 0 0 .86.84zm-6.74 5.62a.84.84 0 0 0 .84-.84v-1.12a.845.845 0 1 0-1.69 0v1.12a.84.84 0 0 0 .85.84zm3.37 0a.84.84 0 0 0 .84-.84v-1.12a.845.845 0 1 0-1.69 0v1.12a.84.84 0 0 0 .85.84zm3.37 0a.84.84 0 0 0 .84-.84v-1.12a.845.845 0 1 0-1.69 0v1.12a.84.84 0 0 0 .85.84zm-6.74 5.62a.84.84 0 0 0 .84-.84v-1.13a.845.845 0 0 0-1.69 0v1.12a.84.84 0 0 0 .85.85zm3.37 0a.84.84 0 0 0 .84-.84v-1.13a.845.845 0 0 0-1.69 0v1.12a.84.84 0 0 0 .85.85zm3.37 0a.84.84 0 0 0 .84-.84v-1.13a.845.845 0 0 0-1.69 0v1.12a.84.84 0 0 0 .85.85zM7.58 24.16a.84.84 0 0 0 .84-.84v-1.13a.845.845 0 1 0-1.69 0v1.12a.84.84 0 0 0 .85.85zm3.37 0a.84.84 0 0 0 .84-.84v-1.13a.845.845 0 1 0-1.69 0v1.12a.84.84 0 0 0 .85.85zm3.37 0a.84.84 0 0 0 .84-.84v-1.13a.845.845 0 1 0-1.69 0v1.12a.84.84 0 0 0 .85.85zm-6.74 5.62a.84.84 0 0 0 .84-.84v-1.13a.845.845 0 1 0-1.69 0v1.12a.84.84 0 0 0 .85.85zm3.37 0a.84.84 0 0 0 .84-.84v-1.13a.845.845 0 1 0-1.69 0v1.12a.84.84 0 0 0 .85.85zm3.37 0a.84.84 0 0 0 .84-.84v-1.13a.845.845 0 1 0-1.69 0v1.12a.84.84 0 0 0 .85.85zm-6.74 5.61a.84.84 0 0 0 .84-.84v-1.12a.845.845 0 1 0-1.69 0v1.12a.84.84 0 0 0 .85.84zm3.37 0a.84.84 0 0 0 .84-.84v-1.12a.845.845 0 1 0-1.69 0v1.12a.84.84 0 0 0 .85.84zm3.37 0a.84.84 0 0 0 .84-.84v-1.12a.845.845 0 1 0-1.69 0v1.12a.84.84 0 0 0 .85.84zM7.58 41a.84.84 0 0 0 .84-.84V39a.84.84 0 1 0-1.67 0v1.12a.84.84 0 0 0 .83.88zm3.37 0a.84.84 0 0 0 .84-.84V39a.845.845 0 1 0-1.69 0v1.12a.84.84 0 0 0 .85.88zm3.37 0a.84.84 0 0 0 .84-.84V39a.845.845 0 1 0-1.69 0v1.12a.84.84 0 0 0 .85.88zm23.6-13.47a.84.84 0 0 0 .84-.84v-1.13a.845.845 0 1 0-1.69 0v1.12a.84.84 0 0 0 .85.85zm0 5.62a.84.84 0 0 0 .83-.85v-1.12a.845.845 0 1 0-1.69 0v1.12a.84.84 0 0 0 .86.85zm0 5.61a.84.84 0 0 0 .84-.84V36.8a.845.845 0 1 0-1.69 0v1.12a.84.84 0 0 0 .85.84zm0 5.62a.84.84 0 0 0 .84-.84v-1.12a.845.845 0 1 0-1.69 0v1.12a.84.84 0 0 0 .85.84zM23.03 13.2a.84.84 0 0 0-.84-.84h-6.74a.845.845 0 1 0 0 1.69h6.74a.84.84 0 0 0 .84-.85z"/></svg>