<svg data-name="Layer 1" xmlns="http://www.w3.org/2000/svg" viewBox="0 0 60 60"><title>soldier</title><g class="cls-2"><path class="cls-3" d="M10.05 23a1 1 0 0 0 1 1H15a1 1 0 0 0 .62-.22S20.52 20 30 20s14.33 3.74 14.37 3.78A1 1 0 0 0 45 24h4a1 1 0 0 0 1-1v-3a20 20 0 1 0-40 0 .92.92 0 0 0 .05.3zM30 2a18 18 0 0 1 18 18v2h-2.67C44.08 21.12 39 18 30 18s-14.08 3.13-15.33 4h-2.62v-2a.9.9 0 0 0 0-.29A18 18 0 0 1 30 2zm19 54h-6a1 1 0 0 0-1 1v2a1 1 0 0 0 2 0v-1h4v1a1 1 0 1 0 2 0v-2a1 1 0 0 0-1-1zM28 38a1 1 0 0 0 0 2h4a1 1 0 1 0 0-2z"/><path class="cls-3" d="M26.41 11.81l1.14.83-.46 1.36a1 1 0 0 0 1.35 1.25l1.6-.71 1.57.71A1 1 0 0 0 33 14l-.44-1.29 1.1-.89A1 1 0 0 0 33 10h-1.38l-.72-1.45a1 1 0 0 0-1.79 0L28.38 10H27a1 1 0 0 0-.59 1.81zm3.48-.36l.1-.21.1.21a1 1 0 0 0 .37.41 1 1 0 0 0-.12.6 1 1 0 0 0-.34-.06 1 1 0 0 0-.31 0 1 1 0 0 0-.11-.66 1 1 0 0 0 .32-.29zM34 28a1 1 0 0 0 2 0h1a1 1 0 1 0 0-2h-4a1 1 0 0 0 0 2zm25.95 30.68l-1-3C57.75 52.1 55.09 48 45 48a1 1 0 0 0 0 2c9.94 0 11.37 4.27 12.05 6.32l1 3a1 1 0 0 0 1.9-.63z"/><path class="cls-3" d="M20.83 39.44C19.3 37.15 18.26 31 18 28.88a1 1 0 0 0-1-.88 1 1 0 0 1-1-1 1 1 0 0 0-2 0 3 3 0 0 0 2.11 2.87c.31 2.1 1.3 8.05 3.06 10.69l.16.24C20.61 42.74 22.76 46 30 46s9.39-3.26 10.67-5.21l.16-.24c1.76-2.63 2.75-8.59 3.06-10.69A3 3 0 0 0 46 27a1 1 0 0 0-2 0 1 1 0 0 1-1 1 1 1 0 0 0-1 .88c-.27 2.16-1.31 8.27-2.84 10.57l-.16.25c-1.19 1.81-2.83 4.3-9 4.3s-7.81-2.49-9-4.31zM17 49a1 1 0 0 0-1-1C5.23 48 2 52.81 1.05 55.68l-1 3a1 1 0 1 0 1.9.63l1-3C3.91 53.43 7 50 16 50a1 1 0 0 0 1-1z"/><path class="cls-3" d="M27 26h-4a1 1 0 0 0 0 2h1a1 1 0 1 0 2 0h1a1 1 0 0 0 0-2zM17 56h-6a1 1 0 0 0-1 1v2a1 1 0 0 0 2 0v-1h4v1a1 1 0 0 0 2 0v-2a1 1 0 0 0-1-1zM5 48a1 1 0 0 0 1-1V37a6.64 6.64 0 0 1 .83-1.46A5.25 5.25 0 0 0 8 33v-6a1 1 0 1 0-2 0v6a6.64 6.64 0 0 1-.83 1.46A5.25 5.25 0 0 0 4 37v10a1 1 0 0 0 1 1zm37 .88a1 1 0 0 0-.55-.77l-4-2a1 1 0 0 0-1.1.14L30 51.68l-6.35-5.44a1 1 0 0 0-1.1-.14l-4 2a1 1 0 0 0-.2 1.65l7 6a1 1 0 1 0 1.3-1.52l-5.86-5 2.06-1L29 53.46V59a1 1 0 1 0 2 0v-5.54l6.15-5.27 2.06 1-5.86 5a1 1 0 1 0 1.3 1.52l7-6a1 1 0 0 0 .35-.83zM8 45a1 1 0 1 0 2 0v-8a1 1 0 1 0-2 0z"/></g></svg>