<svg data-name="Layer 1" xmlns="http://www.w3.org/2000/svg" viewBox="0 0 16 14.06"><title>stairs</title><path class="cls-1" d="M15.53.03H9.88a.47.47 0 0 0-.47.47v1.84a.47.47 0 0 0 .47.47h.47v.94H5.19a.47.47 0 0 0-.47.47v1.87a.47.47 0 0 0 .47.47h.47v.94H.47a.47.47 0 0 0-.47.47v1.87a.47.47 0 0 0 .47.47h.47v3.28a.47.47 0 0 0 .47.47h4.72a.47.47 0 0 0 .29-.1l9.41-7.5a.47.47 0 0 0 .17-.37V.47a.47.47 0 0 0-.47-.44zm-5.19.94h4.72v.94h-4.72zM5.66 4.69h4.69v.94H5.66zM.94 8.44h4.72v.94H.94zm5 4.69H1.88v-2.82h4.25a.47.47 0 0 0 .47-.47V6.56h4.22a.47.47 0 0 0 .47-.47V2.81h3.78v3.06z"/></svg>