<svg data-name="Layer 1" xmlns="http://www.w3.org/2000/svg" viewBox="0 0 21.92 22"><title>telephone</title><g class="cls-2"><path class="cls-3" d="M4.44 14.62a23.34 23.34 0 0 0 7.76 6.08 12.08 12.08 0 0 0 4.35 1.3h.31a3.6 3.6 0 0 0 2.79-1.2 11.75 11.75 0 0 1 .88-.91c.21-.21.43-.42.64-.64a2.2 2.2 0 0 0 0-3.28l-2.74-2.74a2.22 2.22 0 0 0-1.6-.74 2.29 2.29 0 0 0-1.62.73l-1.63 1.63-.45-.24a5.63 5.63 0 0 1-.5-.27 17.27 17.27 0 0 1-4.13-3.76 10 10 0 0 1-1.39-2.23c.43-.35.85-.8 1.22-1.19l.42-.42a2.34 2.34 0 0 0 .76-1.64 2.32 2.32 0 0 0-.76-1.64L7.39 2.09l-.43-.47c-.34-.31-.65-.62-1-.92A2.27 2.27 0 0 0 4.39 0a2.34 2.34 0 0 0-1.62.71l-1.71 1.7a3.5 3.5 0 0 0-1 2.24A8.44 8.44 0 0 0 .65 8.3a21.22 21.22 0 0 0 3.79 6.32zM1.13 4.75a2.41 2.41 0 0 1 .73-1.55l1.7-1.7a1.23 1.23 0 0 1 .84-.39 1.16 1.16 0 0 1 .82.4c.31.28.59.58.9.89l.47.48 1.37 1.37a1.24 1.24 0 0 1 .43.85 1.24 1.24 0 0 1-.43.9l-.42.43c-.42.43-.82.83-1.26 1.22a.89.89 0 0 0-.23 1 10.73 10.73 0 0 0 1.6 2.6 18.23 18.23 0 0 0 4.39 4 6.54 6.54 0 0 0 .6.33 5.65 5.65 0 0 1 .5.27h.05a1 1 0 0 0 .44.11 1 1 0 0 0 .68-.31L15.96 14a1.21 1.21 0 0 1 .83-.41 1.14 1.14 0 0 1 .81.41l2.75 2.74a1.1 1.1 0 0 1 0 1.72c-.19.21-.39.4-.61.61a13.14 13.14 0 0 0-1 1 2.5 2.5 0 0 1-2 .83h-.24a11 11 0 0 1-3.93-1.18 22.17 22.17 0 0 1-7.39-5.79 20.31 20.31 0 0 1-3.6-6 7.35 7.35 0 0 1-.45-3.18z"/></g></svg>