<svg data-name="Layer 1" xmlns="http://www.w3.org/2000/svg" viewBox="0 0 28 28"><title>tower-crane</title><path class="cls-1" d="M7.44 24.55a.55.55 0 1 0 .56.55.55.55 0 0 0-.56-.55zm7.65 0H9.63a.55.55 0 1 0 0 1.09h5.47a.55.55 0 0 0 0-1.09z"/><path class="cls-1" d="M28 7.11a.55.55 0 0 0-.35-.51L12.34.4a1.63 1.63 0 0 0-1.07-.4 1.65 1.65 0 0 0-1.4.78L.26 6.64a.55.55 0 0 0-.26.47V9.3a.55.55 0 0 0 .55.55h.55v2.73a.55.55 0 0 0 .55.55h4.7a.55.55 0 0 0 .55-.55V9.84H8v12.53H6.34A1.64 1.64 0 0 0 4.7 24v3.45a.55.55 0 0 0 .55.55h12a.55.55 0 0 0 .55-.55V24a1.64 1.64 0 0 0-1.64-1.64h-1.61V9.84h8v2.23a.55.55 0 0 0 .16.39l.93.93v3.27a1.64 1.64 0 1 0 2 2.25.552.552 0 1 0-1-.47.55.55 0 1 1-.5-.78.55.55 0 0 0 .55-.55v-3.72l.93-.93a.55.55 0 0 0 .16-.39V9.84h1.64A.55.55 0 0 0 28 9.3V7.11zM10.72 1.64a.55.55 0 1 1 1.09 0v3.83h-1.09zm-.55 4.92h3.28v3.74L9.82 6.56zm-.35 11.27h3.63v3.74zm2.88 4.54H9.08v-3.74zm-3.62-5.64V13l3.63 3.74zm.75-4.54h3.63v3.74zm-.75-1.09V7.36l3.63 3.74zm.55-8.89v3.26H8.46l-5.39.74zM5.8 12H2.19V9.84H5.8zM1.09 8.75V7.59L8 6.64v2.11zm15.1 14.71a.55.55 0 0 1 .55.55v2.9H5.8V24a.55.55 0 0 1 .55-.55zM14 5.47h-1.09V1.81l11 4.47zm10.67 6.37l-.55.55-.55-.55v-2h1.09zm2.19-3.09H14.55V6.61l12.36 1z"/></svg>