<svg data-name="Layer 1" xmlns="http://www.w3.org/2000/svg" viewBox="0 0 50 50"><title>train</title><g class="cls-2"><path class="cls-3" d="M39.64 31.12l-.37 1.1a2.11 2.11 0 0 0 .39 2 2.08 2.08 0 0 0 1.6.75h.31c3.7-.54 4.48-2.05 4.48-3.23 0-1.62-2.44-2-4.26-2.08a2.11 2.11 0 0 0-2.15 1.46zm1.69 2.21a.41.41 0 0 1-.39-.15.44.44 0 0 1-.08-.43l.37-1.1a.45.45 0 0 1 .46-.3 6.58 6.58 0 0 1 2.69.53c-.18.95-2.38 1.35-3.05 1.45zm-12.64-2.21a2.11 2.11 0 0 0-2.14-1.44c-1.83.11-4.26.45-4.26 2.07 0 1.17.78 2.69 4.48 3.23h.31a2.08 2.08 0 0 0 1.6-.75 2.11 2.11 0 0 0 .39-2zm-1.3 2.06a.42.42 0 0 1-.39.15c-.69-.1-2.87-.49-3-1.46a6.58 6.58 0 0 1 2.69-.53.45.45 0 0 1 .46.3l.37 1.1a.44.44 0 0 1-.13.44zm.94-20.68H40a.835.835 0 0 0 0-1.67H28.33a.835.835 0 0 0 0 1.67z"/><path class="cls-3" d="M49.63 48.47L44 44.69c4.77-1 5.21-4.37 5.21-5.52v-22.5c0-2.66-.61-4.58-1.81-5.7a3.57 3.57 0 0 0-1.8-.92l-.18-.31-.06-.09a4.8 4.8 0 0 0-.63-.74l-.1-.09a4.73 4.73 0 0 0-1-.7L43.42 8a4.89 4.89 0 0 0-.67-.27A5.85 5.85 0 0 0 42 7.6h-.21a7 7 0 0 0-.92-.07H39l10.57-5.97a.83.83 0 0 0-.4-1.56H17.5a.83.83 0 0 0-.5.18L.31 13.52l-.11.13-.08.13A.85.85 0 0 0 0 14a.84.84 0 0 0 0 .17v25a.83.83 0 0 0 .35.68l14.17 10A.83.83 0 0 0 15 50h34.17a.83.83 0 0 0 .46-1.53zM45.57 15.1c.08-.7.15-1.41.2-2.13v-1.08a2.09 2.09 0 0 1 .44.33c.57.55 1.25 1.77 1.25 4.44v22.5c0 2.47-2.11 4-5.83 4.15V40a2.5 2.5 0 0 0-2.5-2.5H30a2.5 2.5 0 0 0-2.5 2.5v3.33c-2.55 0-4.45-.56-5.55-1.58a3.61 3.61 0 0 1-.43-.46l-.06-.08a3.21 3.21 0 0 1-.29-.49l-.06-.13a3.42 3.42 0 0 1-.19-.6v-.14a3.92 3.92 0 0 1-.07-.69V16.67c0-2.67.68-3.89 1.25-4.44l.2-.23.11-.08.09-.06V13c0 .72.11 1.44.2 2.13a47.09 47.09 0 0 0 2.41 10 3.57 3.57 0 0 0 3.35 2.36h11.35a3.57 3.57 0 0 0 3.35-2.36 47.11 47.11 0 0 0 2.41-10.03zM40 40v3.33H29.17V40a.83.83 0 0 1 .83-.83h9.17A.83.83 0 0 1 40 40zm-5.83-16.67a3.32 3.32 0 0 0-3.17 2.5h-2.48a1.9 1.9 0 0 1-1.78-1.25 46 46 0 0 1-2.2-8.74h19.25a46 46 0 0 1-2.2 8.74 1.9 1.9 0 0 1-1.78 1.25h-2.43a3.32 3.32 0 0 0-3.21-2.5zm1.44 2.5h-2.89a1.67 1.67 0 0 1 2.88 0zm5.22-16.66a5 5 0 0 1 .86.07l.22.05a3.94 3.94 0 0 1 .46.13l.24.1.39.18.2.13.25.19.15.14.18.19.11.13.12.18.07.11.07.14v1.76c0 .49-.06 1-.12 1.48H24.34c-.05-.5-.08-1-.12-1.49v-1.69a3 3 0 0 1 .65-.89 2.25 2.25 0 0 1 .13-.15 3.23 3.23 0 0 1 .39-.25h.06a3.6 3.6 0 0 1 .55-.26h.1a4.16 4.16 0 0 1 .59-.15h.1a5.18 5.18 0 0 1 .75-.05h13.29zm-39.16 5.4l16.12-12.9H46L35.61 7.5H27.5a6.94 6.94 0 0 0-.92.07h-.21a5.43 5.43 0 0 0-1.46.43l-.15.07a4.79 4.79 0 0 0-.88.58L5.4 15l-3.15 1.13a3.29 3.29 0 0 0-.58.27zm17.52 25a5.41 5.41 0 0 0 .08.69L12 36.18a10.17 10.17 0 0 1-.36-2.85v-2.79l2.89.8a1.67 1.67 0 0 0 2.11-1.61v-9.52a1.67 1.67 0 0 0-2-1.63l-3 .66v-.91a8.21 8.21 0 0 1 .81-4l7.9-2.71-.12.19-.11.17c-.08.13-.15.27-.22.42l-.07.14a6.62 6.62 0 0 0-.23.62v.17c-.05.17-.1.34-.14.52s0 .17-.05.26-.06.33-.08.5 0 .19 0 .29 0 .37-.05.56 0 .18 0 .27v23.39c-.11.16-.1.31-.09.46zm-7.52-10.76v-7.86l3.33-.74v9.53zM10 30.07v3.26a13.69 13.69 0 0 0 .11 1.77l-4-2.26a7.71 7.71 0 0 1-.27-2v-1.92zm-4.17-2.88v-4.95l4.17-.92v7zM10 18.33v1.28l-4.17.93v-1.37a7.37 7.37 0 0 1 .47-2.67l4.13-1.42a11.62 11.62 0 0 0-.43 3.25zm-8.33 1a1.67 1.67 0 0 1 1.12-1.58l1.57-.54a9.85 9.85 0 0 0-.2 2v1.74l-2.5.56zm0 3.88l2.5-.56v4.12L1.67 26zm0 4.6l2.5.7v3.33l-1.7-1a1.67 1.67 0 0 1-.85-1.45zm13.6 20.57l-13.6-9.6v-2.29l19.52 11.84zm9.14 0L1.67 34.53v-2.27l9.22 5.2L21 43.16c1.21 1 3.2 1.84 6.49 1.84h13.89l5 3.35h-22z"/></g></svg>