<svg data-name="Layer 1" xmlns="http://www.w3.org/2000/svg" viewBox="0 0 50 50"><title>university</title><g class="cls-2"><path class="cls-3" d="M18.33 30.83a.83.83 0 0 0 .83.83h3.34a.83.83 0 0 0 .83-.83v-5a.83.83 0 0 0-.83-.83h-3.33a.83.83 0 0 0-.83.83v5zM20 26.67h1.67V30H20zm-.83-5h3.33a.83.83 0 0 0 .83-.83v-5a.83.83 0 0 0-.83-.84h-3.33a.83.83 0 0 0-.83.83v5a.83.83 0 0 0 .83.84zm.83-5h1.67V20H20z"/><path class="cls-3" d="M12.93 15.71L25 8.47l12.07 7.24a.834.834 0 0 0 .86-1.43L25.83 7V1.67H30v1.66h-2.5a.835.835 0 0 0 0 1.67h3.33a.83.83 0 0 0 .83-.83V.83a.83.83 0 0 0-.83-.83H25a.83.83 0 0 0-.83.83V7l-12.1 7.26a.834.834 0 0 0 .86 1.43zM9.17 31.67a.83.83 0 0 0 .83-.83v-5a.83.83 0 0 0-.83-.84H5.83a.83.83 0 0 0-.83.83v1.67a.835.835 0 0 0 1.67 0v-.83h1.66v4.17a.83.83 0 0 0 .84.83zM15 42.5V18.33a.835.835 0 0 0-1.67 0V42.5a.835.835 0 1 0 1.67 0z"/><path class="cls-3" d="M10.83 46.67h28.34a.835.835 0 1 0 0-1.67h-7.5v-8.33h.83a.835.835 0 0 0 0-1.67h-15a.835.835 0 0 0 0 1.67h.83V45h-7.5a.835.835 0 0 0 0 1.67zm15-5a.835.835 0 0 0 0-1.67v-3.33H30V45h-4.17zm-5.83-5h4.17V40a.835.835 0 0 0 0 1.67V45H20zm24.17-.84h-3.34a.83.83 0 0 0-.83.83v5a.83.83 0 0 0 .83.83h3.33a.83.83 0 0 0 .83-.83v-5a.83.83 0 0 0-.82-.83zm-.83 5h-1.67V37.5h1.67zm.83-15h-3.34a.83.83 0 0 0-.83.83v5a.83.83 0 0 0 .83.83h3.33a.83.83 0 0 0 .83-.83v-5a.83.83 0 0 0-.82-.83zm-.83 5h-1.67V27.5h1.67zm-.84 17.5h-35a.835.835 0 0 0 0 1.67h35a.835.835 0 0 0 0-1.67z"/><path class="cls-3" d="M49.17 18.33a.83.83 0 0 0-.83.83V20h-9.17a.835.835 0 1 0 0 1.67h9.17v27.5a.835.835 0 1 0 1.67 0v-30a.83.83 0 0 0-.84-.84zm-22.5 12.5a.83.83 0 0 0 .83.83h3.33a.83.83 0 0 0 .83-.83v-5a.83.83 0 0 0-.83-.83H27.5a.83.83 0 0 0-.83.83zm1.67-4.17H30V30h-1.67zM8.33 40.83c0-.11 0-10.83-4.17-10.83S0 40.72 0 40.83a4.17 4.17 0 0 0 3.33 4.08v4.25a.835.835 0 1 0 1.67 0v-4.24a4.17 4.17 0 0 0 3.33-4.09zm-4.17 2.5a2.5 2.5 0 0 1-2.5-2.5c0-4.15 1.12-9.17 2.5-9.17s2.5 5 2.5 9.17a2.5 2.5 0 0 1-2.49 2.5zm32.51-.83v-25a.835.835 0 1 0-1.67 0v25a.835.835 0 1 0 1.67 0zM27.5 21.67h3.33a.83.83 0 0 0 .83-.83v-5a.83.83 0 0 0-.83-.83H27.5a.83.83 0 0 0-.83.83v5a.83.83 0 0 0 .83.83zm.83-5H30V20h-1.67zM.83 29.17a.83.83 0 0 0 .83-.83v-6.67h9.17a.835.835 0 1 0 0-1.67H1.67v-.83a.835.835 0 0 0-1.67 0v9.17a.83.83 0 0 0 .83.83z"/></g></svg>