<svg data-name="Layer 1" xmlns="http://www.w3.org/2000/svg" viewBox="0 0 26.64 35"><title>user1</title><g class="cls-2"><path class="cls-3" d="M21.42 22.73a4.62 4.62 0 0 1-4.66-4.2 7.89 7.89 0 0 0 1.82-1.8 10.93 10.93 0 0 0 2-5.14.78.78 0 0 0 .2-.28A8.48 8.48 0 0 0 21.41 8c0-4.42-3.33-8-7.42-8a6.89 6.89 0 0 0-3.09.73 5.43 5.43 0 0 0-1.08.2 6.14 6.14 0 0 0-3.85 3.51 8.72 8.72 0 0 0-.43 5.72 9.21 9.21 0 0 0 .4 1.21.78.78 0 0 0 .18.27 9.84 9.84 0 0 0 3.78 6.88 4.62 4.62 0 0 1-4.68 4.21A5.42 5.42 0 0 0 0 28.13v6.08a.79.79 0 0 0 .82.79h25a.79.79 0 0 0 .79-.79v-6.08a5.42 5.42 0 0 0-5.19-5.4zM10.24 2.44a3.88 3.88 0 0 1 .9-.15.79.79 0 0 0 .33-.09 5.35 5.35 0 0 1 2.51-.63c3.23.01 5.84 2.89 5.84 6.43v.32a3.44 3.44 0 0 0-2.45-1H12a1.47 1.47 0 0 1-1.36-.92 1 1 0 0 0-1.82.1 7.31 7.31 0 0 1-1.8 3.19c-.79-3.26.64-6.5 3.22-7.25zm-.69 13.63a9.27 9.27 0 0 1-1.91-4.8 8.93 8.93 0 0 0 2.29-3.21l.24.2a3 3 0 0 0 1.82.6h5.37A1.87 1.87 0 0 1 19.08 10c0 4.45-2.58 8.07-5.75 8.07a4.93 4.93 0 0 1-3.78-2zm1.81 3.22a5.73 5.73 0 0 0 3.92 0A6.17 6.17 0 0 0 17.57 23l-4.14 5.89a.14.14 0 0 1-.22 0L9.07 23a6.17 6.17 0 0 0 2.29-3.71zm13.7 14.13H1.58v-5.29a3.84 3.84 0 0 1 3.83-3.83 6.75 6.75 0 0 0 2.3-.49l4.21 6a1.71 1.71 0 0 0 1.4.73 1.71 1.71 0 0 0 1.4-.73l4.21-6a6.49 6.49 0 0 0 2.3.49 3.84 3.84 0 0 1 3.83 3.83z"/></g></svg>