<svg data-name="Layer 1" xmlns="http://www.w3.org/2000/svg" viewBox="0 0 50 49.41"><title>work-tools</title><g class="cls-2"><path class="cls-3" d="M37.51 12.71L34.65.57a.735.735 0 1 0-1.43.34l2.86 12.12a.73.73 0 0 0 .71.57h.17a.73.73 0 0 0 .55-.89zM46 48.51l-7.9-33.47a.735.735 0 0 0-1.43.34l7.9 33.47a.73.73 0 0 0 .71.57h.17a.73.73 0 0 0 .55-.91zM6 43.19a.73.73 0 0 0-.88.55L4 48.51a.73.73 0 0 0 .55.88h.17a.73.73 0 0 0 .71-.57l1.13-4.78a.73.73 0 0 0-.56-.85zM16.23.02a.73.73 0 0 0-.88.55L5.89 40.64a.73.73 0 0 0 .55.88h.17a.73.73 0 0 0 .71-.57L16.77.91a.73.73 0 0 0-.54-.89zM50 48.48L36.42.54a.733.733 0 1 0-1.41.4l13.55 47.94a.73.73 0 0 0 .71.53h.2a.73.73 0 0 0 .53-.93zM14.49.03a.73.73 0 0 0-.91.51L0 48.48a.73.73 0 0 0 .51.91h.2a.73.73 0 0 0 .71-.53L15 .94a.73.73 0 0 0-.51-.91zM26.9.71a.735.735 0 0 0-1.47 0l.09 2.81h-1l.05-2.81a.735.735 0 0 0-1.47 0L23 4.28a.73.73 0 0 0 .73.76h2.55a.73.73 0 0 0 .72-.76zm.17 5.41a.73.73 0 0 0-.73-.71h-2.67a.73.73 0 0 0-.73.71l-.19 6.26a.73.73 0 0 0 .73.76h3.05a.73.73 0 0 0 .73-.76zm-2.84 5.59l.15-4.79h1.24l.15 4.79zm3.1 3a.73.73 0 0 0-.73-.71h-3.2a.73.73 0 0 0-.73.71l-.22 7.14a.73.73 0 0 0 .73.76h3.64a.73.73 0 0 0 .73-.76zm-3.39 6.43l.17-5.68h1.77l.17 5.68zm3.71 4.06a.73.73 0 0 0-.73-.71h-3.84a.73.73 0 0 0-.73.71l-.27 8.72a.73.73 0 0 0 .73.76h4.38a.73.73 0 0 0 .73-.76zm-4.08 8l.22-7.25h2.42l.22 7.25zm4.48 4.91a.73.73 0 0 0-.73-.71h-4.64a.73.73 0 0 0-.73.71l-.32 10.55a.735.735 0 1 0 1.47 0l.3-9.84h3.21l.3 9.84a.73.73 0 0 0 .73.71.73.73 0 0 0 .71-.76z"/></g></svg>