<svg data-name="Layer 1" xmlns="http://www.w3.org/2000/svg" viewBox="0 0 24.39 24.86"><title>calendarTo</title><path d="M17.37 3.37H20a2.12 2.12 0 0 1 2.12 2.12v5.63M7.37 3.37h6.78m5.22 21.11H2.49a2.12 2.12 0 0 1-2.12-2.11V5.49a2.12 2.12 0 0 1 2.12-2.12h2.05" fill="none" stroke="#bf0112" stroke-linecap="round" stroke-linejoin="round" stroke-width=".75"/><path d="M2.37 24.3H19.3a2.11 2.11 0 0 0 2.12-2.11v-2.82m-16.05-18a1 1 0 0 1 1-1h.74a1 1 0 0 1 1 1v3.76a1 1 0 0 1-1 1h-.74a1 1 0 0 1-1-1V1.37zm9 0a1 1 0 0 1 1-1h.74a1 1 0 0 1 1 1v3.76a1 1 0 0 1-1 1h-.74a1 1 0 0 1-1-1V1.37z" fill="none" stroke="#bf0112" stroke-linecap="round" stroke-linejoin="round" stroke-width=".75"/><path d="M.37 8.37h21.17" fill="none" stroke="#bf0112" stroke-linejoin="round" stroke-width=".75"/><path d="M10.94 11.37l-5.57 5.07 5.57 5.36v-3.06h13.07" fill="none" stroke="#bf0112" stroke-linecap="round" stroke-linejoin="round" stroke-width=".75"/></svg>