<svg data-name="Layer 1" xmlns="http://www.w3.org/2000/svg" viewBox="0 0 28.49 24.02"><title>calendarOut</title><path d="M17.75 2.37h2.63a2.13 2.13 0 0 1 2.13 2.13v5.66l5.6 5.09-5.6 5.39v-3.08H9.38m-2-15.19h6.8" fill="none" stroke="#bf0112" stroke-linecap="round" stroke-linejoin="round" stroke-width=".75"/><path d="M19.51 23.64h-17a2.13 2.13 0 0 1-2.13-2.12v-17a2.13 2.13 0 0 1 2.13-2.15h2.06" fill="none" stroke="#bf0112" stroke-linecap="round" stroke-linejoin="round" stroke-width=".75"/><path d="M5.38 1.37a1 1 0 0 1 1-1h.75a1 1 0 0 1 1 1v3.79a1 1 0 0 1-1 1h-.75a1 1 0 0 1-1-1V1.37zm9 0a1 1 0 0 1 1-1h.75a1 1 0 0 1 1 1v3.79a1 1 0 0 1-1 1h-.75a1 1 0 0 1-1-1V1.37z" fill="none" stroke="#bf0112" stroke-linecap="round" stroke-linejoin="round" stroke-width=".75"/><path d="M.38 8.37h21.27" fill="none" stroke="#bf0112" stroke-linejoin="round" stroke-width=".75"/></svg>