<svg data-name="Layer 1" xmlns="http://www.w3.org/2000/svg" viewBox="0 0 27.05 18.91"><title>cost</title><path d="M26.62 6.66V.37h-6.08a.67.67 0 0 1-.59.36.66.66 0 0 1-.58-.36h-19v6.29a2.8 2.8 0 0 1 0 5.58v6.29h19a.67.67 0 0 1 .59-.36.66.66 0 0 1 .59.36h6.12v-6.29a2.79 2.79 0 1 1 0-5.58z" fill="none" stroke="#bf0112" stroke-linecap="round" stroke-linejoin="round" stroke-width=".75"/><path d="M19.37.37v17.46" fill="none" stroke="#bf0112" stroke-linecap="round" stroke-linejoin="round" stroke-width=".75" stroke-dasharray="2"/><path d="M6.37 6.37h9.26m-9.26 3h9.26m-9.26 4h9.26" fill="none" stroke="#bf0112" stroke-linecap="round" stroke-linejoin="round" stroke-width=".75"/></svg>