<svg data-name="Layer 1" xmlns="http://www.w3.org/2000/svg" viewBox="0 0 26 26.01"><title>direction-checkbox</title><path d="M26 1.63v20.31a1.62 1.62 0 0 1-1.11 1.54l-7.31 2.44a1.67 1.67 0 0 1-1 0l-7.24-2.28-7.23 2.28A1.6 1.6 0 0 1 0 24.38V4.47a1.63 1.63 0 0 1 1.06-1.53L8.78.1a1.54 1.54 0 0 1 .56-.1 1.82 1.82 0 0 1 .52.08l6.81 2.27L23.89.08A1.6 1.6 0 0 1 26 1.63zm-5.85.48c-.15.28-.3.53-.42.89A6 6 0 0 0 20 4.24c.24.37.64.21.81.63a1.48 1.48 0 0 1-.65 1.67.7.7 0 0 1-.45.16c-.26 0-.52-.13-.84-.16a5.8 5.8 0 0 1-1.45-.37v2.52a2.62 2.62 0 0 1 .48.15c.54.22.75.65 1.29.84a2 2 0 0 0 .56.09c.56 0 1-.28 1.71-.31.41 0 .75-.2 1.08-.2a.78.78 0 0 1 .53.2c.46.41.22 1.19.64 1.67a1.69 1.69 0 0 0 1.13.63l.3.06V1.63a.81.81 0 0 0-.77-.82 1 1 0 0 0-.24 0zM19 2.74a1.94 1.94 0 0 1 .12-.29L17.47 3v2.31l.32.11a4.3 4.3 0 0 0 1.21.31 2.88 2.88 0 0 1 .53.11h.21a.9.9 0 0 0 .38-.61 1.6 1.6 0 0 1-.76-.59 2.21 2.21 0 0 1-.31-1 1.5 1.5 0 0 0-.05-.36.77.77 0 0 1 0-.54zm-2.3 5.88V5.91a9.08 9.08 0 0 0-2.23-.65h-.35c-.65.09-1.23-.06-1.61.62a2.08 2.08 0 0 0 0 2.1 1.66 1.66 0 0 0 1.29.62 2.4 2.4 0 0 0 .62.08c.38 0 .73-.08 1.18-.08h1.1zm-3.89 8.09c.16-.54.64-.52.81-1a2.19 2.19 0 0 0 0-1.45A1.94 1.94 0 0 0 12.13 13a1 1 0 0 0-.37-.07c-.38 0-.73.21-1.1.21a.88.88 0 0 1-.47-.14 3.9 3.9 0 0 1-.85-1.1v5.27a7.26 7.26 0 0 0 1 .84 2.57 2.57 0 0 0 1.13.63h.24a1 1 0 0 0 1-.64 10.43 10.43 0 0 0 0-1.25zm-12-8.93v13.79h.3a.94.94 0 0 0 .69-.27c.49-.46.22-1.19.49-1.88s.44-1.6 1.13-1.88a1.18 1.18 0 0 1 .43-.09 2.42 2.42 0 0 1 .54.09c.55.14.73.71 1.29.84a3.81 3.81 0 0 0 .77.14.79.79 0 0 0 .68-.35c.28-.36 0-.92.32-1.25a.68.68 0 0 1 .55-.23h.53V11a8.72 8.72 0 0 0-1.4-1.13C6.35 9.3 5.77 9.39 5 8.77a7.63 7.63 0 0 0-1.1-1.25 1.08 1.08 0 0 0-.5-.12c-.46 0-.87.3-1.43.33s-.8 0-1.16 0zm0-3.31V7h1.11a2.05 2.05 0 0 0 .54-.14 2.9 2.9 0 0 1 .94-.27 2 2 0 0 1 .86.2 2.42 2.42 0 0 1 1 1 2.45 2.45 0 0 0 .33.41 2.54 2.54 0 0 0 .88.45 4.68 4.68 0 0 1 1.15.55 9.78 9.78 0 0 1 1 .7V1.06L1.34 3.71a.81.81 0 0 0-.53.76zm7.72 18.58v-5.5a.32.32 0 0 0-.14 0h-.3v.08a1.77 1.77 0 0 1-.31 1.08 1.63 1.63 0 0 1-1.33.68 3.35 3.35 0 0 1-.81-.13h-.15a2.21 2.21 0 0 1-1-.62 1.07 1.07 0 0 0-.26-.22 2.53 2.53 0 0 0-.35-.06.33.33 0 0 0-.13 0 1.43 1.43 0 0 0-.48.88c-.06.18-.12.36-.2.54a2.24 2.24 0 0 0-.09.61 2.18 2.18 0 0 1-.58 1.56 1.77 1.77 0 0 1-1.27.52 2.85 2.85 0 0 1-.29 0v2a.83.83 0 0 0 .33.65.84.84 0 0 0 .49.16 1 1 0 0 0 .24 0zm8.13 2.05V9.43h-1.1a5.1 5.1 0 0 0-.55 0 6.07 6.07 0 0 1-.63 0 3 3 0 0 1-.84-.11l-.29-.06a2 2 0 0 1-1.48-.93 2.89 2.89 0 0 1 0-2.9 2 2 0 0 1 1.85-1h.82a4 4 0 0 1 1.63.4c.2.07.39.15.6.21V3.21l-.25-.09L9.6.85a1.09 1.09 0 0 0-.26 0v9.81l.5.54a3.7 3.7 0 0 1 .46.68 1.27 1.27 0 0 0 .33.43 1.81 1.81 0 0 0 .37-.1 2.47 2.47 0 0 1 .79-.15 1.8 1.8 0 0 1 .68.14l.14.06A2.55 2.55 0 0 1 14.35 14a2.93 2.93 0 0 1 0 1.94 1.74 1.74 0 0 1-.67.9l-.12.11a.79.79 0 0 0 0 .23 1.84 1.84 0 0 1 0 1.1 1.79 1.79 0 0 1-1.81 1.14h-.31a2 2 0 0 1-1.21-.53 2.64 2.64 0 0 0-.29-.21 4 4 0 0 1-.6-.44v4.57l.25.08zm8.53-3.16v-9.31l-.42-.06a2.47 2.47 0 0 1-1.58-.89 2.34 2.34 0 0 1-.49-1.24 2 2 0 0 0-.08-.36l-.28.07a3.5 3.5 0 0 1-.76.13 4.37 4.37 0 0 0-.72.14 3.74 3.74 0 0 1-1 .17 2.6 2.6 0 0 1-1.75-.71 1.76 1.76 0 0 0-.41-.28l-.17-.06V25.1l7.16-2.39a.82.82 0 0 0 .56-.77z" fill="#bf0112"/><path d="M23.9 18.14a2.18 2.18 0 0 1-.77 2.24 2.77 2.77 0 0 1-1.59.47 1.66 1.66 0 0 1-1.32-.48.91.91 0 0 1-.2-.8 1.16 1.16 0 0 1 .85-.84.63.63 0 0 0 .4-.26 1.24 1.24 0 0 0-.46-.7 1.36 1.36 0 0 1-.55-1 .73.73 0 0 1 .35-.52 1.26 1.26 0 0 1 .73-.25 3 3 0 0 1 .82.16 2.39 2.39 0 0 1 1.74 2zm-.8.14A1.57 1.57 0 0 0 21.94 17a1.12 1.12 0 0 0-.84-.08 3.06 3.06 0 0 0 .3.34 1.55 1.55 0 0 1 .6 1.5 1.34 1.34 0 0 1-.86.73c-.28.11-.34.15-.35.23a.14.14 0 0 0 0 .13 1 1 0 0 0 .7.19 1.93 1.93 0 0 0 1.1-.31 1.36 1.36 0 0 0 .46-1.45z" fill="#bf0112"/></svg>