<svg data-name="Layer 1" xmlns="http://www.w3.org/2000/svg" viewBox="0 0 23.73 27.37"><title>direction</title><path d="M14.37 13.37a3 3 0 1 1 3 3 3 3 0 0 1-3-3z" fill="none" stroke="#bf0112" stroke-linecap="round" stroke-linejoin="round" stroke-width=".75"/><path d="M23.37 12.87a6.49 6.49 0 1 0-11.49 4.12l5 7.9 5-7.9a6.5 6.5 0 0 0 1.49-4.12zm-18-6.74A2.77 2.77 0 1 1 8.14 8.9a2.76 2.76 0 0 1-2.77-2.77z" fill="none" stroke="#bf0112" stroke-linecap="round" stroke-linejoin="round" stroke-width=".75"/><path d="M14.37 7.07a6 6 0 1 0-10.67 3l4.67 7.42 2.52-4" fill="none" stroke="#bf0112" stroke-linecap="round" stroke-linejoin="round" stroke-width=".75"/><path d="M8.27 19.37c-4.39 0-7.9 1.71-7.9 3.82S3.92 27 8.27 27h8.72" fill="none" stroke="#bf0112" stroke-linecap="round" stroke-linejoin="round" stroke-width=".75" stroke-dasharray="2"/></svg>