<svg data-name="Layer 1" xmlns="http://www.w3.org/2000/svg" viewBox="0 0 19.9 26.53"><title>form-tour-mark</title><path d="M19.9 10a11.15 11.15 0 0 1-2.19 6.22l-7.09 10a.8.8 0 0 1-.67.35.84.84 0 0 1-.68-.35l-7.09-10A11.75 11.75 0 0 1 0 9.95a9.95 9.95 0 0 1 19.9 0zm-.83 0A9.12 9.12 0 0 0 .83 10c0 2.4 1.44 4.75 2.45 6.22l6.67 9.11 6.66-9.11c.91-1.34 2.45-3.82 2.45-6.22z" fill="#bf0112"/><path d="M14.29 9.14A4.15 4.15 0 1 1 10.14 5a4.15 4.15 0 0 1 4.15 4.14zm-.83 0a3.31 3.31 0 1 0-6.62 0 3.31 3.31 0 0 0 6.62 0z" fill="#bf0112"/><path d="M15.61 9.8A5.81 5.81 0 1 1 9.8 4a5.81 5.81 0 0 1 5.81 5.8zm-.83 0a5 5 0 0 0-10 0 5 5 0 0 0 10 0z" fill="#bf0112"/></svg>