<svg data-name="Layer 1" xmlns="http://www.w3.org/2000/svg" viewBox="0 0 24.49 24.49"><title>form-tour-earth</title><path d="M24.49 12.24A12.245 12.245 0 0 1 0 12.25a12.245 12.245 0 1 1 24.49-.01zm-14.4-9.35a1.42 1.42 0 0 0-.3.2 2.22 2.22 0 0 1-.27.19.38.38 0 0 0-.2.2l.1.12a1 1 0 0 1 .28.7 1.34 1.34 0 0 1-.4.9 1 1 0 0 1-.3.2v.04a1.07 1.07 0 0 0-.19.39 2.13 2.13 0 0 1 .1.52 5.61 5.61 0 0 1 .8.43h1.03c.11 0 .22 0 .38.07a1.3 1.3 0 0 1 .46.26.39.39 0 0 0 .17.1.29.29 0 0 0 .17-.08 1.14 1.14 0 0 1 .4-.2A2.22 2.22 0 0 1 13 7a1.52 1.52 0 0 0 .43 0 1.32 1.32 0 0 1 .5-.16h.15a1.36 1.36 0 0 1 .35.09.34.34 0 0 0 .14 0 2.88 2.88 0 0 0 .54-.35 1.45 1.45 0 0 1 .41-.25l.17-.09.18-.14a1.86 1.86 0 0 1 .55-.33 1.58 1.58 0 0 1 1.06-.08 1.55 1.55 0 0 1 .78.62l.12.15.13.14a.51.51 0 0 0 .15.15.4.4 0 0 0 .24 0 1.37 1.37 0 0 1 .52 0h.12a1.75 1.75 0 0 1 .36.07l.24.1a1.67 1.67 0 0 1 .65.64 2.17 2.17 0 0 1 .33.89v.14a3.4 3.4 0 0 1 .07.74v.4a1.84 1.84 0 0 1 0 .69 1.46 1.46 0 0 1-.29.56.7.7 0 0 0-.15.26v.08a.61.61 0 0 0 0 .4 2.38 2.38 0 0 1 0 .49.63.63 0 0 1 .41-.21.53.53 0 0 1 .44.26.64.64 0 0 1 .09.46h.1v-.1a1 1 0 0 1 .13-.62.82.82 0 0 1 .56-.38.4.4 0 0 0 .16-.07.56.56 0 0 0 .11-.18A1.22 1.22 0 0 1 23 11a1.24 1.24 0 0 1 .36-.24.23.23 0 0 0 .11-.07v-.11a.82.82 0 0 1 .07-.34 11.47 11.47 0 0 0-6.27-8.32.94.94 0 0 1-.54.07.73.73 0 0 1-.62-.55q-.34-.13-.7-.23a.53.53 0 0 1-.24.11 1.25 1.25 0 0 1-.83-.09 1.1 1.1 0 0 1-.45-.35 12.82 12.82 0 0 0-3 0 1 1 0 0 1 .2.72 1.32 1.32 0 0 1-.39.81l-.07.07a1.74 1.74 0 0 1-.55.44zM1.8 16.74a1.73 1.73 0 0 1 1 .41l.1.09a7.83 7.83 0 0 1 .68.55 5.4 5.4 0 0 0 1.43 1 1.26 1.26 0 0 0 .54-1 4 4 0 0 1 .24-.65 1.07 1.07 0 0 1 1-.57.9.9 0 0 1 .68.41.86.86 0 0 0 .15.17 2.31 2.31 0 0 0 .42.2 2.26 2.26 0 0 1 .61.32 2.1 2.1 0 0 1 .45.44 1.14 1.14 0 0 0 .31.31l.19.14a.59.59 0 0 0 .43.18c.08 0 .12 0 .22-.37a2.53 2.53 0 0 1 .28-.61 2.1 2.1 0 0 0 .15-.3 1.11 1.11 0 0 1 .68-.74 1 1 0 0 1 .29 0 1.24 1.24 0 0 1 1 .93 2.81 2.81 0 0 0 .28.52 4 4 0 0 1 .27.42 1.24 1.24 0 0 0 .3.41.92.92 0 0 0 .59.2 3.43 3.43 0 0 0 .78-.13 5.53 5.53 0 0 1 .76-.07h.38a1.77 1.77 0 0 0 .76-.18l.23-.19c.49-.24.63-.34.59-.47s-.11-.24-.5-.37a.56.56 0 0 0-.36.1 1.51 1.51 0 0 1-.66.19h-.23a2 2 0 0 1-1.06-.71l-.15-.16a1.75 1.75 0 0 1-.32-.51.61.61 0 0 0-.23-.31.52.52 0 0 0-.4 0 1.36 1.36 0 0 1-1 0 1.22 1.22 0 0 1-.55-.7.46.46 0 0 0-.2-.31 1.21 1.21 0 0 0-1 .17l-.19.09a1.18 1.18 0 0 0-.42.35 1.85 1.85 0 0 1-.76.55 3.86 3.86 0 0 1-1.29.28 1.2 1.2 0 0 1-1.22-.74 1.28 1.28 0 0 1 0-1.27.78.78 0 0 1 .66-.33 1.86 1.86 0 0 1 .34 0 .92.92 0 0 0 .36 0 3.42 3.42 0 0 0 .7-.29l.42-.19a2 2 0 0 1 .56-.16h.13-.18l-.35-.1h-.13a2.64 2.64 0 0 0-.52.08 1 1 0 0 1-1-.11.58.58 0 0 1-.14-.49.84.84 0 0 1 .83-.65h.19a.51.51 0 0 0-.32-.33 1 1 0 0 0-.24.07 1.41 1.41 0 0 1-.72.12 2.26 2.26 0 0 1-1.11-.52 3.58 3.58 0 0 0-.43-.29 4.05 4.05 0 0 1-.51-.35 1.85 1.85 0 0 0-.67-.38 2.82 2.82 0 0 0-1.23 0h-.43a1 1 0 0 0-.57.15.66.66 0 0 0-.22.45 1.92 1.92 0 0 1-.34.76 2.62 2.62 0 0 1-.53.46 1.48 1.48 0 0 0-.36.3 3.26 3.26 0 0 0-.37.54 11.46 11.46 0 0 0 .86 3.25h.07zm21.92-4.5v-.84a.29.29 0 0 0-.13.08.56.56 0 0 0-.11.19 1.36 1.36 0 0 1-.27.41 1 1 0 0 1-.49.25.73.73 0 0 0-.12 0 .3.3 0 0 0 0 .2v.3a1 1 0 0 1-1 .63.62.62 0 0 1-.61-.37 1 1 0 0 1-.29.21h-.26a.44.44 0 0 1-.31-.13 1.24 1.24 0 0 1-.13-.83 2.91 2.91 0 0 0 0-.44 1.48 1.48 0 0 1 0-.8V11a1.73 1.73 0 0 1 .28-.53.6.6 0 0 0 .16-.27 1 1 0 0 0 0-.43v-.45a3.23 3.23 0 0 0-.06-.61v-.14a1.58 1.58 0 0 0-.23-.57.94.94 0 0 0-.37-.39h-.47a.8.8 0 0 0-.26 0 1.2 1.2 0 0 1-.76-.07 1.31 1.31 0 0 1-.38-.35L17.82 7l-.18-.23a.49.49 0 0 0-.14-.17.63.63 0 0 0-.26-.16.79.79 0 0 0-.56.07 1.17 1.17 0 0 0-.31.2 2.1 2.1 0 0 1-.51.33.74.74 0 0 0-.23.14 2.52 2.52 0 0 1-1.06.53 1.1 1.1 0 0 1-.44-.1L14 7.54h-.1a.81.81 0 0 1-.25.09 2 2 0 0 1-.65 0 1.26 1.26 0 0 0-.44 0 .43.43 0 0 0-.18.09 1 1 0 0 1-.59.22 1 1 0 0 1-.65-.27l-.19-.12H9.84a.67.67 0 0 1-.46-.06l-.11-.08a2.8 2.8 0 0 0-.34-.21 2.18 2.18 0 0 0-.52-.2l-.31-.07v-.78a.77.77 0 0 1 0-.61 1.86 1.86 0 0 1 .35-.64l.14-.1.1-.08a.62.62 0 0 0 .2-.44.77.77 0 0 0-.11-.15.85.85 0 0 1-.2-.83 1 1 0 0 1 .52-.65l.19-.14a2.47 2.47 0 0 1 .42-.29 1 1 0 0 0 .35-.22l.07-.09a.57.57 0 0 0 .21-.36.48.48 0 0 0-.16-.35l-.12-.2A11.46 11.46 0 0 0 .77 12.24v.07a2.08 2.08 0 0 1 .36-.31 1.84 1.84 0 0 0 .37-.31 1.41 1.41 0 0 0 .19-.47 1.37 1.37 0 0 1 .53-.89 1.71 1.71 0 0 1 .93-.28h.39a3.52 3.52 0 0 1 1.55 0 2.66 2.66 0 0 1 .92.5l.43.3a3.76 3.76 0 0 1 .51.34 1.66 1.66 0 0 0 .76.38.82.82 0 0 0 .29-.07 1.32 1.32 0 0 1 .51-.12.88.88 0 0 1 .42.11 1.16 1.16 0 0 1 .71 1.13.67.67 0 0 1-.1.31A1 1 0 0 1 10 13l.26.07a.93.93 0 0 1 .88.77.82.82 0 0 1-.87.8 1.57 1.57 0 0 0-.36.09l-.41.17a3.92 3.92 0 0 1-.86.35 1.73 1.73 0 0 1-.68 0 .76.76 0 0 0-.21 0c-.11.11-.12.22 0 .54a.45.45 0 0 0 .51.26 3.17 3.17 0 0 0 1-.23 1.07 1.07 0 0 0 .44-.34 2 2 0 0 1 .68-.54l.18-.08a2.5 2.5 0 0 1 1-.31 1.47 1.47 0 0 1 .61.14 1.2 1.2 0 0 1 .58.71.62.62 0 0 0 .2.32.61.61 0 0 0 .41 0 1.32 1.32 0 0 1 1 0 1.34 1.34 0 0 1 .53.64.81.81 0 0 0 .19.31l.15.17a1.31 1.31 0 0 0 .68.49.61.61 0 0 0 .37-.11A1.46 1.46 0 0 1 17 17a1 1 0 0 1 .3 0 1.35 1.35 0 0 1 1 .92 1.26 1.26 0 0 1-1 1.34l-.22.1a2.45 2.45 0 0 1-1 .26 5.39 5.39 0 0 0-1 .18 4.67 4.67 0 0 1-1 .15 1.73 1.73 0 0 1-1.56-1c-.07-.11-.12-.22-.2-.33a3.06 3.06 0 0 1-.38-.62 1.39 1.39 0 0 0-.3-.5.45.45 0 0 0-.22.32 1.75 1.75 0 0 1-.22.43 1.77 1.77 0 0 0-.18.42 1.09 1.09 0 0 1-.85.89 1.27 1.27 0 0 1-1-.33L9 19.15a2.15 2.15 0 0 1-.48-.47 1.07 1.07 0 0 0-.3-.3 1.43 1.43 0 0 0-.44-.23 2.91 2.91 0 0 1-.56-.28 1.15 1.15 0 0 1-.33-.33l-.11-.11a.28.28 0 0 0-.29.19 2.45 2.45 0 0 0-.18.48c-.18.61-.46 1.55-1.32 1.49a4.26 4.26 0 0 1-1.89-1.22l-.59-.5-.14-.09-.27-.16a11.48 11.48 0 0 0 21.62-5.38z" fill="#bf0112"/><path d="M18.32 11.58c.49.72-.16 1.35-.6 1.76l-.17.17a2.86 2.86 0 0 1-1.63.82l-.38.11a2.49 2.49 0 0 1-.78.17A.71.71 0 0 1 14 14a1 1 0 0 1 .61-1 2.19 2.19 0 0 0 .25-.2 2.75 2.75 0 0 1 .62-.41 2.19 2.19 0 0 0 .46-.39 1.18 1.18 0 0 0 .2-.31 1.06 1.06 0 0 1 .68-.68 1.3 1.3 0 0 1 1.5.52zm-.63.42a.52.52 0 0 0-.45-.24.56.56 0 0 0-.21 0 .36.36 0 0 0-.2.27 1.68 1.68 0 0 1-.37.54 2.71 2.71 0 0 1-.62.42 2 2 0 0 0-.46.31 3.19 3.19 0 0 1-.33.25.73.73 0 0 0-.28.26 2 2 0 0 0 .54-.14 4.45 4.45 0 0 1 .45-.13A2.13 2.13 0 0 0 17 13l.18-.17c.49-.46.6-.64.5-.79zm-4.86 8.56a1.34 1.34 0 0 1 0 1.77 1.41 1.41 0 0 1-1 .51.83.83 0 0 1-.58-.23.91.91 0 0 1-.17-1v-.53a.9.9 0 0 1 .52-1 .84.84 0 0 1 .27 0 1.23 1.23 0 0 1 .92.56zm-.6.47a.43.43 0 0 0-.34-.26 1.3 1.3 0 0 0 0 .28 3 3 0 0 1 0 .42 1.66 1.66 0 0 1-.07.35.84.84 0 0 0 0 .23.71.71 0 0 0 .42-.26.59.59 0 0 0 0-.79z" fill="#bf0112"/></svg>