<svg data-name="Layer 1" xmlns="http://www.w3.org/2000/svg" viewBox="0 0 27 27"><title>form-tour-avia</title><path d="M27 11.81v2.53a.85.85 0 0 1-.84.85h-9.89l-.63 5.69L18.25 23a.83.83 0 0 1 .31.66v.84a.85.85 0 0 1-.84.84h-2.59A1.81 1.81 0 0 1 13.5 27a1.8 1.8 0 0 1-1.63-1.69H9.28a.85.85 0 0 1-.84-.84v-.84a.83.83 0 0 1 .31-.63l2.61-2.09-.63-5.69H.84a.85.85 0 0 1-.84-.88v-2.11a.84.84 0 0 1 .51-.77l9.35-4L9.71 6c0-.35-.23-3.29 1.29-4.94A3.31 3.31 0 0 1 13.5 0 3.31 3.31 0 0 1 16 1.06c1.52 1.65 1.32 4.59 1.29 4.94l-.14 1.3 9.32 3.7a.85.85 0 0 1 .53.78zm-26.16.85h9.61L10 8.28l-9.12 4v.43zm9.7.84H.84v.84h9.8zm1.22 11l-.29-2.6-2.19 1.73v.84h2.48zm3.77-2.6l-.29 2.6h2.48v-.87zm.92-16c0-.22.2-2.89-1.07-4.27A2.45 2.45 0 0 0 13.5.84a2.45 2.45 0 0 0-1.88.79C10.34 3 10.53 5.7 10.55 5.92l2.1 18.95c0 .46.27 1.29.85 1.29s.8-.82.84-1.25zm9.71 7.6h-9.7l-.1.84h9.8v-.84zm0-1.69l-9.11-3.64-.5 4.49h9.61v-.85z" fill="#bf0112"/></svg>