<svg data-name="Layer 1" xmlns="http://www.w3.org/2000/svg" viewBox="0 0 17.15 26.35"><title>header-order</title><path d="M12 17a5.4 5.4 0 0 1 5.14 5.13V26a.38.38 0 0 1-.37.32.39.39 0 0 1-.37-.32v-3.86a4.67 4.67 0 0 0-4.72-4.39v3.55a.38.38 0 0 1-.59.3l-1-.69-1.33 1.22v3.8a.38.38 0 1 1-.75 0H8v-3.76l-1.32-1.22-1 .69a.38.38 0 0 1-.59-.3v-3.55a4.61 4.61 0 0 0-4.34 4.35V26A.38.38 0 1 1 0 26v-3.86a5.32 5.32 0 0 1 4.57-5 6.08 6.08 0 0 1-2.21-3.92 1.18 1.18 0 0 1-.52.13H1.4a1.16 1.16 0 0 1-1.1-.88.37.37 0 0 1-.07-.2V6.69A6.72 6.72 0 0 1 7 0h2.69a6.72 6.72 0 0 1 6.71 6.69v6.12a2.06 2.06 0 0 1-2 2h-.66A6.68 6.68 0 0 1 12 17zm3.68-8a.42.42 0 0 0-.42-.42h-.43a.42.42 0 0 0-.42.42v3.09a.41.41 0 0 0 .42.42h.44a.42.42 0 0 0 .42-.42V9zm-2-2.29a3.65 3.65 0 0 0-3.64-3.64H6.72a3.65 3.65 0 0 0-3.64 3.66v1.79C6.8 9.13 9.36 8 10.8 5.08a.39.39 0 0 1 .27-.2.4.4 0 0 1 .33.1l2.29 2.29v-.54zM3 12a5.49 5.49 0 0 0 2.4 4.77l.35.23a5.41 5.41 0 0 0 2.54.73h.1a4.8 4.8 0 0 0 2.33-.73l.28-.13a6.17 6.17 0 0 0 1.87-2H9.55a.38.38 0 0 1-.32-.37.39.39 0 0 1 .32-.38h3.69a5.5 5.5 0 0 0 .41-2.12V8.34l-2.44-2.48A6.75 6.75 0 0 1 4.9 9.43a12.58 12.58 0 0 1-1.84-.16zm11.4 2.11a1.3 1.3 0 0 0 1.22-.93 1.28 1.28 0 0 1-.34.07h-.44a1.08 1.08 0 0 1-.53-.14 5.83 5.83 0 0 1-.24 1h.33zM1 7.95a1 1 0 0 1 .4-.09h.46a1 1 0 0 1 .42.09V6.73a4.4 4.4 0 0 1 4.39-4.39H10a4.4 4.4 0 0 1 4.45 4.35v1.25a1 1 0 0 1 .42-.09h.44a1 1 0 0 1 .42.09V6.69a6 6 0 0 0-6-5.94H7a6 6 0 0 0-6 5.94zm1.28 4.18V9a.42.42 0 0 0-.42-.42H1.4A.41.41 0 0 0 1 9v3.09a.42.42 0 0 0 .42.42h.45a.41.41 0 0 0 .42-.42zm3.59 8.44L8 19v-.55a6.07 6.07 0 0 1-2.13-.57v2.69zm3.59-.11l-1.09-.78-1.08.78 1.08 1zm1.41-2.67a5.7 5.7 0 0 1-2.13.66V19l2.13 1.54v-2.75z" fill="#bf0112"/></svg>