<svg data-name="Layer 1" xmlns="http://www.w3.org/2000/svg" viewBox="0 0 25 25"><title>hotels</title><path d="M25 9.38v14.06A1.56 1.56 0 0 1 23.44 25H1.56A1.56 1.56 0 0 1 0 23.44v-18a1.56 1.56 0 0 1 1.56-1.53h4.69V1.56A1.56 1.56 0 0 1 7.81 0h9.38a1.56 1.56 0 0 1 1.56 1.56v6.25h4.69A1.56 1.56 0 0 1 25 9.38zM6.25 4.69H1.56a.78.78 0 0 0-.78.78v18a.78.78 0 0 0 .78.78h4.69V4.69zm7.42 16.4h-2.34v3.13h2.34v-3.13zM18 1.56a.78.78 0 0 0-.81-.78H7.81a.78.78 0 0 0-.81.78v22.66h3.52V20.7a.39.39 0 0 1 .39-.39h3.12a.39.39 0 0 1 .39.39v3.52H18V1.56zm6.25 7.82a.78.78 0 0 0-.77-.79h-4.7v15.63h4.69a.78.78 0 0 0 .78-.78V9.38z" fill="#bf0112"/><path d="M2 8.95V7.39A.38.38 0 0 1 2.39 7h1.56a.38.38 0 0 1 .39.39v1.56a.38.38 0 0 1-.39.39H2.39A.38.38 0 0 1 2 9v-.05zm.78-.39h.78v-.78h-.78v.78zM2 12.95v-1.56a.38.38 0 0 1 .39-.39h1.56a.38.38 0 0 1 .39.39v1.56a.38.38 0 0 1-.39.39H2.39A.38.38 0 0 1 2 13v-.05zm.78-.39h.78v-.78h-.78v.78zM2 16.95v-1.56a.38.38 0 0 1 .39-.39h1.56a.38.38 0 0 1 .39.39v1.56a.38.38 0 0 1-.39.39H2.39A.38.38 0 0 1 2 17v-.05zm.78-.39h.78v-.78h-.78v.78zm8.56-9.17V9a.38.38 0 0 1-.39.39H9.39A.38.38 0 0 1 9 9V7.39A.38.38 0 0 1 9.39 7h1.56a.38.38 0 0 1 .39.39zm-.78.39h-.78v.78h.78v-.78zm.78 3.61V13a.38.38 0 0 1-.39.39H9.39A.38.38 0 0 1 9 13v-1.61a.38.38 0 0 1 .39-.39h1.56a.38.38 0 0 1 .39.39zm-.78.39h-.78v.78h.78v-.78zm.78 3.61V17a.38.38 0 0 1-.39.39H9.39A.38.38 0 0 1 9 17v-1.61a.38.38 0 0 1 .39-.39h1.56a.38.38 0 0 1 .39.39zm-.78.39h-.78v.78h.78v-.78zm4.78-8.39V9a.38.38 0 0 1-.39.39h-1.56A.38.38 0 0 1 13 9V7.39a.38.38 0 0 1 .39-.39h1.56a.38.38 0 0 1 .39.39zm-.78.39h-.78v.78h.78v-.78zm-3.22-4.39V5a.38.38 0 0 1-.39.39H9.39A.38.38 0 0 1 9 5V3.39A.38.38 0 0 1 9.39 3h1.56a.38.38 0 0 1 .39.39zm-.78.39h-.78v.78h.78v-.78zm4.78-.39V5a.38.38 0 0 1-.39.39h-1.56A.38.38 0 0 1 13 5V3.39a.38.38 0 0 1 .39-.39h1.56a.38.38 0 0 1 .39.39zm-.78.39h-.78v.78h.78v-.78zm.78 7.61V13a.38.38 0 0 1-.39.39h-1.56A.38.38 0 0 1 13 13v-1.61a.38.38 0 0 1 .39-.39h1.56a.38.38 0 0 1 .39.39zm-.78.39h-.78v.78h.78v-.78zm.78 3.61V17a.38.38 0 0 1-.39.39h-1.56A.38.38 0 0 1 13 17v-1.61a.38.38 0 0 1 .39-.39h1.56a.38.38 0 0 1 .39.39zm-.78.39h-.78v.78h.78v-.78zm7.78-4.39V13a.38.38 0 0 1-.39.39h-1.56A.38.38 0 0 1 20 13v-1.61a.38.38 0 0 1 .39-.39h1.56a.38.38 0 0 1 .39.39zm-.78.39h-.78v.78h.78v-.78zm.78 3.61V17a.38.38 0 0 1-.39.39h-1.56A.38.38 0 0 1 20 17v-1.61a.38.38 0 0 1 .39-.39h1.56a.38.38 0 0 1 .39.39zm-.78.39h-.78v.78h.78v-.78zm.78 3.61V21a.38.38 0 0 1-.39.39h-1.56A.38.38 0 0 1 20 21v-1.61a.38.38 0 0 1 .39-.39h1.56a.38.38 0 0 1 .39.39zm-.78.39h-.78v.78h.78v-.78zM2 20.95v-1.56a.38.38 0 0 1 .39-.39h1.56a.38.38 0 0 1 .39.39v1.56a.38.38 0 0 1-.39.39H2.39A.38.38 0 0 1 2 21v-.05zm.78-.39h.78v-.78h-.78v.78z" fill="#bf0112"/></svg>