<svg data-name="Layer 1" xmlns="http://www.w3.org/2000/svg" viewBox="0 0 25 25"><title>hotel-price</title><path d="M25 13.28v3.13a.78.78 0 0 1-.78.78h-.78v6.25A1.56 1.56 0 0 1 21.88 25H1.56A1.56 1.56 0 0 1 0 23.44V5.85c0-.85.37-2.2 1.52-2.33l7.91-.84L16.54.09a1.57 1.57 0 0 1 2 .94l.25.69 1.48-.16a1.59 1.59 0 0 1 1.13.35 1.53 1.53 0 0 1 .48 1.21v1.57a1.56 1.56 0 0 1 1.56 1.56v6.25h.78a.78.78 0 0 1 .78.78zM19.07 2.47l.8 2.22h1.22V3.12a.79.79 0 0 0-.21-.62.74.74 0 0 0-.52-.16l-1.29.13zM6.21 4.69h6a2.34 2.34 0 0 1 4.41 0H19L17.81 1.3a.78.78 0 0 0-1-.47zm8.24-.78a1.54 1.54 0 0 0-1.34.78h2.69a1.55 1.55 0 0 0-1.35-.78zM1 4.78a1.77 1.77 0 0 1 .52-.09h2.4l2.48-.91-4.79.51a.76.76 0 0 0-.61.49zm21.66 12.41h-6.25a.77.77 0 0 1-.78-.76v-3.15a.77.77 0 0 1 .78-.78h6.25V6.25a.78.78 0 0 0-.78-.78H1.56a.78.78 0 0 0-.78.78v17.19a.78.78 0 0 0 .78.78h20.32a.78.78 0 0 0 .78-.78v-6.25zm1.56-3.52a.4.4 0 0 0-.39-.39h-7a.39.39 0 0 0-.39.39V16a.39.39 0 0 0 .39.39h7a.4.4 0 0 0 .39-.39v-2.33z" fill="#bf0112"/><path d="M17 14.78a.78.78 0 1 1 1.56 0 .78.78 0 0 1-1.56 0zm3.39-7h.78a.38.38 0 0 0 .39-.39.38.38 0 0 0-.37-.39h-.8a.38.38 0 0 0-.39.37.38.38 0 0 0 .39.41zm-2 0h.78a.38.38 0 0 0 .39-.39.38.38 0 0 0-.37-.39h-.8a.38.38 0 0 0-.39.37.38.38 0 0 0 .39.41zm-2 0h.78a.38.38 0 0 0 .39-.39.38.38 0 0 0-.37-.39h-.8a.38.38 0 0 0-.39.37.38.38 0 0 0 .39.41zM14.17 7h-.78a.38.38 0 0 0-.39.37.38.38 0 0 0 .39.39h.78a.38.38 0 0 0 .39-.39.38.38 0 0 0-.37-.37zm-2 0h-.78a.38.38 0 0 0-.39.37.38.38 0 0 0 .39.39h.78a.38.38 0 0 0 .39-.39.38.38 0 0 0-.37-.37zm-2 0h-.78a.38.38 0 0 0-.39.37.38.38 0 0 0 .39.39h.78a.38.38 0 0 0 .39-.39.38.38 0 0 0-.37-.37zm-3 0h-.78a.38.38 0 0 0-.39.37.38.38 0 0 0 .39.39h.78a.38.38 0 0 0 .39-.39.38.38 0 0 0-.37-.37zm-2 0h-.78a.38.38 0 0 0-.39.37.38.38 0 0 0 .39.39h.78a.38.38 0 0 0 .39-.39.38.38 0 0 0-.37-.37zm-2 0h-.78a.38.38 0 0 0-.39.37.38.38 0 0 0 .39.39h.78a.38.38 0 0 0 .39-.39.38.38 0 0 0-.37-.37zm17.22 15.78h.78a.38.38 0 0 0 .39-.39.38.38 0 0 0-.37-.39h-.8a.38.38 0 0 0-.39.37.38.38 0 0 0 .39.41zm-2 0h.78a.38.38 0 0 0 .39-.39.38.38 0 0 0-.37-.39h-.8a.38.38 0 0 0-.39.37.38.38 0 0 0 .39.41zM16 22.39a.38.38 0 0 0 .39.39h.78a.38.38 0 0 0 .39-.39.38.38 0 0 0-.37-.39h-.8a.38.38 0 0 0-.39.37v.02zM14.17 22h-.78a.38.38 0 0 0-.39.37.38.38 0 0 0 .39.39h.78a.38.38 0 0 0 .39-.39.38.38 0 0 0-.37-.37zm-2 0h-.78a.38.38 0 0 0-.39.37.38.38 0 0 0 .39.39h.78a.38.38 0 0 0 .39-.39.38.38 0 0 0-.37-.37zm-2 0h-.78a.38.38 0 0 0-.39.37.38.38 0 0 0 .39.39h.78a.38.38 0 0 0 .39-.39.38.38 0 0 0-.37-.37zm-3 0h-.78a.38.38 0 0 0-.39.37.38.38 0 0 0 .39.39h.78a.38.38 0 0 0 .39-.39.38.38 0 0 0-.37-.37zm-2 0h-.78a.38.38 0 0 0-.39.37.38.38 0 0 0 .39.39h.78a.38.38 0 0 0 .39-.39.38.38 0 0 0-.37-.37zm-2 0h-.78a.38.38 0 0 0-.39.37.38.38 0 0 0 .39.39h.78a.38.38 0 0 0 .39-.39.38.38 0 0 0-.37-.37z" fill="#bf0112"/></svg>