<svg data-name="Layer 1" xmlns="http://www.w3.org/2000/svg" viewBox="0 0 32 32"><title>inst</title><path d="M20.67 16.6a4.83 4.83 0 0 1-9.66 0 4.58 4.58 0 0 1 .2-1.34L10 15v6.8a.42.42 0 0 0 .49.49h10.68a.42.42 0 0 0 .49-.49V15l-1.19.26a4.57 4.57 0 0 1 .2 1.34z" fill="#fff"/><path d="M13 16a3.12 3.12 0 0 1 6.24 0A3.12 3.12 0 0 1 13 16z" fill="#fff"/><path d="M32 16A16 16 0 1 1 16 0a16 16 0 0 1 16 16zm-8.23-5.83a1.9 1.9 0 0 0-1.86-1.94H10.17a1.9 1.9 0 0 0-1.94 1.86v11.74a1.9 1.9 0 0 0 1.94 1.94h11.66a1.9 1.9 0 0 0 1.94-1.86V10.17z" fill="#fff"/><path d="M21.43 10h-1.94a.5.5 0 0 0-.49.49v1.94a.49.49 0 0 0 .49.49h1.94a.5.5 0 0 0 .49-.49v-1.94a.5.5 0 0 0-.49-.49z" fill="#fff"/></svg>