<svg width="26" height="26" viewBox="0 0 26 26" xmlns="http://www.w3.org/2000/svg"><title>map</title><g fill="#BF0112"><path d="M25.335.314a1.625 1.625 0 0 0-1.45-.238L16.67 2.354 9.857.084A1.62 1.62 0 0 0 8.782.1L1.063 2.944A1.625 1.625 0 0 0 0 4.47v19.906a1.625 1.625 0 0 0 2.114 1.55l7.23-2.284 7.23 2.283a1.619 1.619 0 0 0 1.002-.007l7.313-2.438A1.625 1.625 0 0 0 26 21.938V1.625c0-.518-.247-1.005-.665-1.311zM24.13.851a.807.807 0 0 1 .726.119.816.816 0 0 1 .331.655v10.191c-.095-.014-.193-.034-.297-.053-.474-.095-.771-.212-1.13-.629-.422-.482-.176-1.263-.642-1.67a.774.774 0 0 0-.525-.206c-.335 0-.675.19-1.087.205-.677.03-1.142.307-1.704.307-.173 0-.356-.026-.557-.094-.545-.187-.754-.614-1.291-.838a2.707 2.707 0 0 0-.485-.152V6.171c.458.163.865.314 1.453.37.32.033.58.155.84.155a.73.73 0 0 0 .45-.155c.488-.363.906-1.024.647-1.668-.168-.425-.573-.265-.81-.628-.254-.4-.134-.765-.32-1.25.116-.356.313-.607.422-.888L24.13.85zm-5.16 2.433c.046.12.06.239.077.39.031.264.074.626.316 1.007.245.374.567.514.76.588.006.215-.203.473-.385.612a2.477 2.477 0 0 1-.205-.046A3.531 3.531 0 0 0 19 5.733c-.469-.045-.796-.162-1.21-.31-.1-.036-.211-.074-.323-.112V2.954l1.61-.508c-.042.093-.086.187-.122.298a.814.814 0 0 0 .015.54zm-2.314 5.334c-.22.005-.447.016-.702.016a6.28 6.28 0 0 1-.258-.005 3.317 3.317 0 0 0-.14-.003c-.45 0-.794.087-1.18.087a2.27 2.27 0 0 1-.615-.084c-.525-.145-.96-.076-1.292-.622-.385-.648-.366-1.43 0-2.093.384-.687.962-.53 1.615-.625a2.55 2.55 0 0 1 .342-.024c.812 0 1.347.417 2.23.646v2.707zm-3.882 9.345c-.216.524-.613.633-1.059.633-.076 0-.154-.003-.232-.008-.479-.028-.694-.368-1.13-.625-.415-.244-.7-.58-1.009-.843v-5.273c.304.41.423.828.846 1.101.164.107.32.144.473.144.366 0 .712-.215 1.1-.215a.94.94 0 0 1 .364.072c.65.27 1.2.438 1.45 1.258.164.528.169.933 0 1.458-.165.53-.65.502-.803 1.043-.136.463.174.82 0 1.255zM.813 7.783c.355-.004.7-.028 1.153-.05.567-.032.973-.332 1.438-.332.156 0 .318.033.496.122.543.265.644.843 1.131 1.25.735.617 1.32.525 2.097 1.047.58.39.983.714 1.403 1.132v5.773c-.038-.005-.073-.016-.114-.018-.15-.004-.288-.022-.416-.022a.678.678 0 0 0-.551.234c-.306.33-.043.888-.321 1.25-.202.27-.43.353-.677.353-.24 0-.5-.078-.776-.143-.554-.127-.737-.701-1.289-.835-.207-.05-.372-.09-.54-.09-.133 0-.268.026-.428.09-.686.279-.8 1.052-1.132 1.88-.271.687-.002 1.418-.482 1.876a.95.95 0 0 1-.7.292c-.094 0-.191-.01-.292-.026V7.782zm.531-4.076l7.187-2.648v8.793a10.944 10.944 0 0 0-.95-.706c-.44-.295-.82-.43-1.155-.548-.34-.12-.585-.206-.873-.447-.122-.102-.218-.247-.33-.415-.205-.31-.462-.697-.968-.943a1.898 1.898 0 0 0-.852-.205c-.366 0-.671.104-.94.196-.198.068-.37.127-.542.136l-.328.019c-.298.016-.538.029-.78.03v-2.5c0-.34.213-.645.531-.762zM1.87 25.15a.811.811 0 0 1-1.058-.775v-1.992c.096.011.192.022.293.022.483 0 .896-.169 1.26-.516.51-.486.551-1.104.582-1.555.015-.228.03-.443.096-.61.073-.182.137-.365.198-.54.196-.56.301-.812.484-.887.072-.029.104-.029.122-.029.073 0 .201.031.35.067.06.014.16.111.267.214.225.214.533.51 1.03.623l.148.035c.243.06.518.128.81.128.533 0 .992-.234 1.326-.677.29-.378.303-.802.312-1.083l.002-.073c.023 0 .046.003.07.005.074.005.15.01.231.013a.447.447 0 0 1 .138.027v5.499L1.87 25.15zm7.719-2.283l-.245-.078V18.22c.171.152.363.305.597.444.097.057.19.13.288.207.267.209.632.495 1.206.529.093.006.187.009.28.009.89 0 1.5-.382 1.81-1.137.182-.453.107-.843.057-1.101-.018-.094-.038-.2-.028-.234l.007-.022c.012-.016.074-.065.12-.1.193-.153.516-.407.673-.908.213-.669.214-1.25 0-1.94-.342-1.124-1.135-1.45-1.773-1.71l-.14-.059a1.778 1.778 0 0 0-.679-.134 2.7 2.7 0 0 0-.796.144 1.45 1.45 0 0 1-.303.072c-.008 0-.016-.003-.032-.013-.117-.076-.193-.2-.329-.43a4.144 4.144 0 0 0-.465-.674 20.45 20.45 0 0 0-.493-.54V.813a.8.8 0 0 1 .257.041l6.812 2.27.243.082v1.855a8.58 8.58 0 0 1-.594-.216c-.48-.193-.978-.393-1.635-.393-.148 0-.3.01-.453.031a4.32 4.32 0 0 1-.365.032c-.531.033-1.334.081-1.848 1.002-.518.94-.514 2.024.01 2.905.446.733 1.069.85 1.482.927.102.02.2.037.291.063.277.076.55.113.834.113.23 0 .436-.024.634-.046.183-.02.356-.04.544-.04l.108.001c.1.005.197.007.29.007.17 0 .327-.006.479-.011l.224-.006v15.668L9.59 22.867zm15.043-.159l-7.163 2.388V9.526c.055.018.11.036.17.061.143.06.255.154.409.284.225.19.505.426.933.572.275.094.543.14.821.14.388 0 .723-.09 1.02-.17.242-.066.47-.127.72-.139.298-.01.555-.082.762-.139.101-.027.215-.06.275-.064.031.058.06.24.08.363.056.349.133.827.49 1.236.495.575.973.767 1.582.889l.042.008c.135.026.273.048.415.065v9.306a.81.81 0 0 1-.556.77z"/><path d="M22.468 15.975c-.275-.085-.535-.165-.817-.165-.264 0-.504.072-.732.221-.257.17-.331.379-.348.524-.045.392.245.7.553 1.025.205.218.516.547.456.704-.04.104-.157.16-.398.257-.3.12-.753.3-.85.841a.94.94 0 0 0 .196.796c.259.31.728.481 1.322.481.605 0 1.2-.175 1.595-.47.672-.515.93-1.267.766-2.235-.163-.988-.757-1.67-1.743-1.98zm.487 3.567c-.248.185-.682.305-1.105.305-.374 0-.619-.094-.698-.189-.014-.016-.038-.045-.022-.13.015-.08.077-.122.353-.232.29-.116.689-.275.856-.724.241-.63-.26-1.16-.625-1.549a3.642 3.642 0 0 1-.299-.342c.214-.113.457-.039.835.077.667.21 1.046.645 1.16 1.33.114.677-.027 1.126-.455 1.454z"/></g></svg>