<svg data-name="Layer 1" xmlns="http://www.w3.org/2000/svg" viewBox="0 0 40 40"><title>one-country-listNav-mobile</title><path d="M20 0a20 20 0 0 1 20 20 20 20 0 0 1-20 20A20 20 0 0 1 0 20 20 20 0 0 1 20 0z" fill="#fff"/><path d="M20 .5A19.5 19.5 0 0 1 39.51 20a19.5 19.5 0 0 1-19.5 19.5A19.5 19.5 0 0 1 .51 20 19.5 19.5 0 0 1 20 .5z" fill="none" stroke="#ececec"/><ellipse cx="12.08" cy="13.01" rx="1.35" ry="1.3" fill="#bf0112"/><path d="M15.8 13h12.15M15.8 19.51h12.15M15.8 26h12.15" fill="none" stroke="#bf0112" stroke-linecap="square"/><ellipse cx="12.08" cy="19.51" rx="1.35" ry="1.3" fill="#bf0112"/><ellipse cx="12.08" cy="26.02" rx="1.35" ry="1.3" fill="#bf0112"/></svg>