<svg width="32" height="8" viewBox="0 0 32 8" xmlns="http://www.w3.org/2000/svg"><title>Group 16</title><g transform="translate(0 1)" fill="none" fill-rule="evenodd"><path d="M4 3h8m8 0h8" stroke="#BF0112" stroke-linecap="square"/><circle fill="#BF0112" cx="16" cy="3" r="2"/><path d="M.643 2.914L5.349.091A.1.1 0 0 1 5.5.177v5.646a.1.1 0 0 1-.151.086L.643 3.086a.1.1 0 0 1 0-.172zm30.714 0L26.651.091a.1.1 0 0 0-.151.086v5.646a.1.1 0 0 0 .151.086l4.706-2.823a.1.1 0 0 0 0-.172z" stroke="#BF0112" fill="#BF0112"/></g></svg>