<svg data-name="Layer 1" xmlns="http://www.w3.org/2000/svg" viewBox="0 0 40 40"><title>one-country-sliderNav-mobile-active</title><path d="M20 0a20 20 0 0 1 20 20 20 20 0 0 1-20 20A20 20 0 0 1 0 20 20 20 0 0 1 20 0z" fill="#bf0112"/><path d="M12.44 19.51h5.36m5.37 0h5.37" fill="none" stroke="#fff" stroke-linecap="square"/><ellipse cx="20.49" cy="19.51" rx="1.34" ry="1.3" fill="#fff"/><path d="M10.24 19.43l3.05-1.78a.1.1 0 0 1 .15.09v3.55a.1.1 0 0 1-.1.1h-.05l-3.05-1.79a.1.1 0 0 1 0-.14zm20.5 0l-3.05-1.78a.1.1 0 0 0-.15.09v3.55a.1.1 0 0 0 .1.1h.05l3.05-1.78a.1.1 0 0 0 0-.14z" fill="#fff" stroke="#fff"/></svg>