<svg data-name="Layer 1" xmlns="http://www.w3.org/2000/svg" viewBox="0 0 32 32"><title>page-footer__about-tw</title><path d="M32 16A16 16 0 1 1 16 0a16 16 0 0 1 16 16zm-8.08-5.17c-1 .37-1.19.32-.67-.24a3.55 3.55 0 0 0 .83-1.33.77.77 0 0 0-.39.14 7 7 0 0 1-1.08.42l-.67.18-.6-.41a5 5 0 0 0-1-.54 4.22 4.22 0 0 0-2.15 0 3.56 3.56 0 0 0-2.4 3.58v.6l-.61-.07a9.93 9.93 0 0 1-5.85-2.88l-.81-.73-.21.6a3.58 3.58 0 0 0 .76 3.67c.49.53.38.6-.47.29A1.62 1.62 0 0 0 8 14a4.45 4.45 0 0 0 .44 1.67 4 4 0 0 0 1.68 1.59l.6.28h-.71c-.69 0-.71 0-.64.27a3.75 3.75 0 0 0 2.3 2l.76.26-.66.39a6.76 6.76 0 0 1-3.29.92 4.39 4.39 0 0 0-1 .1 9.36 9.36 0 0 0 2.37 1.1 10.39 10.39 0 0 0 8.06-.92A10.75 10.75 0 0 0 22 16.87a12.83 12.83 0 0 0 .84-3.73c0-.57 0-.64.72-1.33a7.26 7.26 0 0 0 .86-1c.12-.24.11-.24-.52 0z" fill="#454545"/></svg>