<svg data-name="Layer 1" xmlns="http://www.w3.org/2000/svg" viewBox="0 0 16.45 24.8"><title>page-footer-about-tel</title><path d="M.38 5.38a5.13 5.13 0 0 1 1.69-3.85c.32-.3.66-.57 1-.86a1.1 1.1 0 0 1 1.56.07 3.71 3.71 0 0 1 .42.46 9.74 9.74 0 0 1 1.33 2.38 1.59 1.59 0 0 1-.39 1.8c-.32.29-.67.58-1 .84a1.26 1.26 0 0 0-.5 1.39 4.39 4.39 0 0 0 .77 1.6 14 14 0 0 0 2.12 2.43 4.28 4.28 0 0 0 1.38.9 1.28 1.28 0 0 0 1.45-.31c.32-.31.64-.62 1-.9a1.58 1.58 0 0 1 1.85-.17 6.75 6.75 0 0 1 1.49 1.1 5.37 5.37 0 0 1 1 1.08 1.1 1.1 0 0 1-.09 1.5c-.41.39-.84.77-1.29 1.12a5 5 0 0 1-3.48.94 7.25 7.25 0 0 1-3.15-1.1 15.44 15.44 0 0 1-3.48-3 19.65 19.65 0 0 1-2.21-2.94 9.85 9.85 0 0 1-1.26-3C.5 6.38.45 5.92.38 5.38zm13.84 11s3.13 2.57 1.28 4.21c-2.53 2.23-6-1.82-7.61.14-1.37 1.58.49 3.7.49 3.7" fill="none" stroke="#fff" stroke-linecap="round" stroke-linejoin="round" stroke-width=".75"/></svg>