<svg data-name="Layer 1" xmlns="http://www.w3.org/2000/svg" viewBox="0 0 32 32"><title>page-footer__about-sk</title><path d="M14.72 14.44c-2.27-.56-1-2.54.81-2.51s2.69 2 3.5 1.85 1.5-1.34.23-2.45A5.74 5.74 0 0 0 14.62 10a3.67 3.67 0 0 0-3.47 3.41C11 15.6 13.46 16.69 15.43 17c1.39.2 3.28.89 2.14 2.21s-3 .46-3.53.13-1.1-1.52-2.08-1.45-1.45 1.37-.25 2.51 2.23 1.59 4.73 1.46 4.73-2.39 3.86-4.5S17 15 14.72 14.44z" fill="#454545"/><path d="M32 16A16 16 0 1 1 16 0a16 16 0 0 1 16 16zm-7.46 3.79a4.7 4.7 0 0 0-.81-2.67 7.9 7.9 0 0 0-9-8.89 4.62 4.62 0 0 0-2.56-.77 4.7 4.7 0 0 0-4.68 4.72 4.73 4.73 0 0 0 .75 2.58 7.88 7.88 0 0 0 9.18 9 4.7 4.7 0 0 0 7.12-3.97z" fill="#454545"/></svg>