<svg data-name="Layer 1" xmlns="http://www.w3.org/2000/svg" viewBox="0 0 21.04 26.02"><title>passangers</title><path d="M5.37 10.37c0 2.42 1.88 6.84 4.95 6.84s4.95-4.37 4.95-6.84m-2.09 9c0 1.09-1.3 2-2.91 2s-2.9-.91-2.9-2" fill="none" stroke="#bf0112" stroke-miterlimit="50" stroke-width=".75"/><path d="M5.51 10.56C2.89 5.37 4.93.37 10.16.37c1.81 0 3.49 1 3.49 2.87a3.9 3.9 0 0 1-2.64 3.57c-1.64.42-6.17-.96-5.5 3.75z" fill="none" stroke="#bf0112" stroke-linejoin="round" stroke-width=".75"/><path d="M7.37 16.37v3.39m6-3.39v3.39" fill="none" stroke="#bf0112" stroke-linecap="round" stroke-miterlimit="50" stroke-width=".75"/><path d="M13.37 5.71c1.41.57 2.52 2.34 2.52 5.41 1.66-1.75 2.73-8.53-1.75-8.75" fill="none" stroke="#bf0112" stroke-miterlimit="50" stroke-width=".75"/><path d="M7.5 19.37l-3.48.91a4.37 4.37 0 0 0-3.17 3.53L.37 25.6m13-6.23l3.64.94a4.4 4.4 0 0 1 3.17 3.54l.48 1.79" fill="none" stroke="#bf0112" stroke-linecap="round" stroke-miterlimit="50" stroke-width=".75"/></svg>