<svg data-name="Layer 1" xmlns="http://www.w3.org/2000/svg" viewBox="0 0 17 17"><title>plane</title><path d="M10.06 16.67l2.34-5.87.83.09a4.55 4.55 0 0 0 3.1-.81A2.08 2.08 0 0 0 17 8.5a2.08 2.08 0 0 0-.67-1.58 4.56 4.56 0 0 0-3.11-.81l-.89.1L9.78.32A.53.53 0 0 0 9.3 0H8a.53.53 0 0 0-.53.53v6.23l-3.58.4-1.35-1.65a.53.53 0 0 0-.41-.2h-.54a.53.53 0 0 0-.53.53v1.63A1.14 1.14 0 0 0 0 8.5a1.14 1.14 0 0 0 1.06 1v1.63a.53.53 0 0 0 .53.53h.54a.53.53 0 0 0 .41-.2l1.31-1.61 3.58.4v6.22A.53.53 0 0 0 8 17h1.56a.53.53 0 0 0 .5-.33zM9.3.53l2.49 5.74L9 6.58v-6h.3zM8 6.7V.53h.5v6.11zm-6.41-.86h.54l1.1 1.38-1.64.18V5.84zm.53 5.31h-.53V9.6l1.64.18zM1.32 9a.77.77 0 0 1-.79-.5.79.79 0 0 1 .81-.5l11.93-1.36a4.1 4.1 0 0 1 2.7.67 1.54 1.54 0 0 1 .5 1.18A1.54 1.54 0 0 1 16 9.68a4.08 4.08 0 0 1-2.68.67zM8 16.47V10.3l.5.06v6.11H8zm1.06 0v-6l2.82.31-2.32 5.69H9z" fill="#bf0112"/></svg>