<svg data-name="Layer 1" xmlns="http://www.w3.org/2000/svg" viewBox="0 0 17.88 26.01"><title>popular</title><path d="M14.63 15.84v9.36a.82.82 0 0 1-1.3.65l-4.39-3.29-4.39 3.29a.87.87 0 0 1-.49.16.77.77 0 0 1-.36-.09.78.78 0 0 1-.45-.72v-9.36a8.94 8.94 0 1 1 11.38 0zm-9.75 8.75V16.9a8.29 8.29 0 0 1-.82-.47v8.77zm7.31-.58v-6.74a8.82 8.82 0 0 1-6.5 0v6.74l3.25-2.44zm1.62-7.55a8.12 8.12 0 0 1-.81.47v7.69l.81.61v-8.8zm3.25-7.48a8.13 8.13 0 0 0-16.25 0 8.13 8.13 0 0 0 16.25-.03z" fill="#bf0112"/><path d="M16.63 9.32a7.32 7.32 0 1 1-7.32-7.31 7.34 7.34 0 0 1 7.32 7.31zm-.82 0a6.5 6.5 0 1 0-6.5 6.51 6.51 6.51 0 0 0 6.5-6.51z" fill="#bf0112"/><path d="M12.48 8.46a.4.4 0 0 1-.1.41l-1.27 1.31.3 1.83a.42.42 0 0 1-.4.47.46.46 0 0 1-.2 0l-1.56-.87-1.56.87a.41.41 0 0 1-.6-.47l.3-1.86-1.27-1.28A.4.4 0 0 1 6 8.46a.39.39 0 0 1 .32-.27l1.78-.27.78-1.68a.41.41 0 0 1 .74 0l.78 1.68 1.75.27a.4.4 0 0 1 .33.27zm-1.23.41l-1.18-.18a.41.41 0 0 1-.31-.23l-.51-1.09-.51 1.09a.41.41 0 0 1-.31.23l-1.18.18.87.89a.4.4 0 0 1 .11.35L8 11.34l1-.57a.5.5 0 0 1 .2 0 .46.46 0 0 1 .2 0l1 .57-.2-1.23a.4.4 0 0 1 .11-.35z" fill="#bf0112"/></svg>