<svg data-name="Layer 1" xmlns="http://www.w3.org/2000/svg" viewBox="0 0 65 65"><defs><filter id="a" x="-14.8" y="-9.7" width="121.5" height="121.5"><feOffset result="shadowOffsetOuter1" dy="2" in="SourceAlpha"/><feGaussianBlur result="shadowBlurOuter1" stdDeviation="2" in="shadowOffsetOuter1"/><feComposite result="shadowBlurOuter1" operator="out" in="shadowBlurOuter1" in2="SourceAlpha"/><feColorMatrix values="0 0 0 0 0 0 0 0 0 0 0 0 0 0 0 0 0 0 0.09 0" in="shadowBlurOuter1"/></filter></defs><title>tel-mobile</title><circle cx="32.5" cy="32.5" r="32.5" filter="url(#a)"/><circle data-name="path-1" cx="32.5" cy="32.5" r="32.5" fill="#fff"/><circle cx="32.5" cy="32.5" r="32" fill="none" stroke="#ececec"/><g fill="#bf0112"><path d="M36.61 36.67a6.64 6.64 0 0 0 1.73-2.15H39a2.06 2.06 0 0 0 2-2.05v-6.12a6.72 6.72 0 0 0-6.74-6.69h-2.69a6.72 6.72 0 0 0-6.74 6.69v5.57a.36.36 0 0 0 .07.2A1.16 1.16 0 0 0 26 33h.44a1.15 1.15 0 0 0 .56-.13 6.06 6.06 0 0 0 2.21 3.92 5.32 5.32 0 0 0-4.57 5v3.83a.375.375 0 0 0 .75 0V41.8a4.61 4.61 0 0 1 4.34-4.35V41a.38.38 0 0 0 .59.3l1-.69 1.33 1.22v3.76a.38.38 0 1 0 .75 0v-3.8l1.33-1.22 1 .69a.38.38 0 0 0 .59-.3v-3.55A4.68 4.68 0 0 1 41 41.8v3.83a.38.38 0 0 0 .75 0V41.8a5.39 5.39 0 0 0-5.14-5.13zm3.68-4.9a.42.42 0 0 1-.42.42h-.44a.42.42 0 0 1-.43-.42v-3.09a.42.42 0 0 1 .42-.42h.44a.42.42 0 0 1 .42.42v3.09zm-2-4.84L36 24.64a.38.38 0 0 0-.6.1c-1.44 2.93-4 4.05-7.72 3.44v-1.79a3.65 3.65 0 0 1 3.64-3.64h3.34a3.65 3.65 0 0 1 3.64 3.64v.54zm-10.63 2a12.28 12.28 0 0 0 1.84.16 6.75 6.75 0 0 0 6.31-3.57L38.25 28v3.7a5.45 5.45 0 0 1-.41 2.08h-3.69a.38.38 0 0 0 0 .75h3.32a6.15 6.15 0 0 1-1.87 2l-.28.17a4.88 4.88 0 0 1-2.33.73h-.1a5.31 5.31 0 0 1-2.54-.73l-.35-.27a5.49 5.49 0 0 1-2.38-4.73zM39 33.77h-.33a6.26 6.26 0 0 0 .24-1 1.14 1.14 0 0 0 .53.14h.44a1.14 1.14 0 0 0 .34-.07 1.3 1.3 0 0 1-1.22.93zm-13.4-7.42a6 6 0 0 1 6-5.94h2.74a6 6 0 0 1 6 5.94v1.25a1.16 1.16 0 0 0-.42-.09h-.44a1.16 1.16 0 0 0-.42.09v-1.21A4.4 4.4 0 0 0 34.61 22h-3.34a4.4 4.4 0 0 0-4.39 4.39v1.22a1.16 1.16 0 0 0-.42-.09H26a1.16 1.16 0 0 0-.42.09zm1.29 5.44a.42.42 0 0 1-.42.42H26a.42.42 0 0 1-.42-.42V28.7a.42.42 0 0 1 .42-.42h.44a.42.42 0 0 1 .42.42v3.09zm3.56 5.75a6.1 6.1 0 0 0 2.13.57v.58l-2.13 1.54v-2.69zm2.5 3.58l-1.08-1 1.08-.78 1.05.78zm2.5-.89l-2.13-1.54v-.58a5.74 5.74 0 0 0 2.13-.66v2.78z"/><path data-name="Shape" d="M37.75 42.52h-2.33a.38.38 0 1 0 0 .75h2.34a.38.38 0 0 0 0-.75z"/></g></svg>