<svg data-name="Layer 1" xmlns="http://www.w3.org/2000/svg" viewBox="0 0 16.49 26.12"><title>tel</title><path d="M15.66.83a2.79 2.79 0 0 1 .83 2V23.3a2.82 2.82 0 0 1-2.82 2.82H2.82A2.83 2.83 0 0 1 0 23.31V2.82a2.79 2.79 0 0 1 .83-2 2.8 2.8 0 0 1 2-.83h10.84a2.79 2.79 0 0 1 1.99.84zM.73 21.23h15V4h-15v17.23zm0-18.45v.45h15v-.41A2.07 2.07 0 0 0 13.66.75H2.82A2.07 2.07 0 0 0 .74 2.78zm14.4 22a2.06 2.06 0 0 0 .61-1.46V22h-15v1.3a2.07 2.07 0 0 0 2.07 2.07h10.86a2.07 2.07 0 0 0 1.47-.6z" fill="#bf0112"/></svg>