<svg width="25" height="25" viewBox="0 0 25 25" xmlns="http://www.w3.org/2000/svg"><title>GRAND VOYAGE clock-03</title><g fill="#BF0112"><path d="M12.366 24.55a12.267 12.267 0 1 1 12.256-12.266c-.007 6.767-5.488 12.254-12.256 12.267zm0-23.635a11.38 11.38 0 1 0 11.37 11.38C23.728 6.017 18.644.928 12.365.915z"/><path d="M17.4 12.733h-5.105a.45.45 0 0 1-.437-.438v-8.84a.45.45 0 0 1 .887 0v8.391h4.668a.45.45 0 0 1 0 .887H17.4zM4 12.685H2.663a.45.45 0 0 1 0-.886h1.335a.45.45 0 0 1 0 .886zm17.726 0h-1.335a.443.443 0 1 1 0-.886h1.335a.45.45 0 0 1 0 .886zM12.2 22.223a.45.45 0 0 1-.436-.438V20.45a.443.443 0 1 1 .886 0v1.335a.45.45 0 0 1-.45.438z"/></g></svg>