<svg data-name="Layer 1" xmlns="http://www.w3.org/2000/svg" viewBox="0 0 27 27"><title>trend</title><path d="M27 18.14a2 2 0 0 1 0 .42v3.38A5.07 5.07 0 0 1 21.94 27h-2.53a5.07 5.07 0 0 1-5.07-5.06v-3.38a2.6 2.6 0 0 1 .07-.56 1.62 1.62 0 0 0-1.82 0 2.6 2.6 0 0 1 .07.56v3.38A5.07 5.07 0 0 1 7.59 27H5.06A5.07 5.07 0 0 1 0 21.94v-3.38a2 2 0 0 1 0-.42V1.69A1.69 1.69 0 0 1 1.69 0h1.69a1.27 1.27 0 0 1 0 2.53h-.85V16h7.6a2.4 2.4 0 0 1 .71.11 4.21 4.21 0 0 1 5.32 0 2.41 2.41 0 0 1 .72-.11h7.59V2.53h-.84a1.27 1.27 0 1 1 0-2.53h1.68A1.69 1.69 0 0 1 27 1.69v16.45zM.84 16.68a2.51 2.51 0 0 1 .85-.5V2.11a.42.42 0 0 1 .42-.42h1.27a.425.425 0 1 0 0-.85H1.69a.85.85 0 0 0-.85.85v15zm11 1.88a1.68 1.68 0 0 0-1.68-1.68H2.53a1.69 1.69 0 0 0-1.69 1.68v3.38a4.22 4.22 0 0 0 4.22 4.22h2.53a4.22 4.22 0 0 0 4.22-4.22v-3.38zm3.51-2a3.33 3.33 0 0 0-3.64 0 2.67 2.67 0 0 1 .58.63 2.6 2.6 0 0 1 2.48 0 2.67 2.67 0 0 1 .55-.62zm10.84 2a1.69 1.69 0 0 0-1.69-1.68h-7.62a1.68 1.68 0 0 0-1.69 1.68v3.38a4.22 4.22 0 0 0 4.22 4.22h2.53a4.22 4.22 0 0 0 4.22-4.22v-3.38zm0-16.87a.85.85 0 0 0-.88-.85h-1.68a.425.425 0 0 0 0 .85h1.26a.42.42 0 0 1 .42.42v14.07a2.51 2.51 0 0 1 .85.5v-15z" fill="#bf0112"/><path d="M25.38 22a.42.42 0 0 0-.43.41 2.53 2.53 0 0 1-2.53 2.53.425.425 0 0 0 0 .85 3.38 3.38 0 0 0 3.38-3.38.42.42 0 0 0-.42-.41zm-15 0a.42.42 0 0 0-.43.41 2.53 2.53 0 0 1-2.53 2.53.425.425 0 1 0 0 .85 3.38 3.38 0 0 0 3.38-3.38.42.42 0 0 0-.42-.41z" fill="#bf0112"/></svg>