<svg data-name="Layer 1" xmlns="http://www.w3.org/2000/svg" viewBox="0 0 20.78 20.78"><title>watches</title><path d="M.79 14.36A10.39 10.39 0 1 1 14.36 20 10.39 10.39 0 0 1 .79 14.36zm9.6-13.6A9.62 9.62 0 1 0 20 10.34 9.62 9.62 0 0 0 10.39.76z" fill="#bf0112"/><path d="M14.69 10.17h-4.32A.39.39 0 0 1 10 9.8V2.32a.38.38 0 0 1 .38-.32.37.37 0 0 1 .37.32v7.1h4a.38.38 0 0 1 0 .75zm-11.24.58H2.32a.38.38 0 0 1 0-.75h1.13a.38.38 0 0 1 0 .75zm15.06 0h-1.13a.38.38 0 1 1 0-.75h1.13a.38.38 0 0 1 0 .75zm-8.14 8.13a.39.39 0 0 1-.37-.37v-1.13a.38.38 0 1 1 .75 0v1.13a.38.38 0 0 1-.38.37z" fill="#bf0112"/></svg>