<svg data-name="Layer 1" xmlns="http://www.w3.org/2000/svg" viewBox="0 0 30 28.92"><title>macbook</title><g class="cls-2"><path class="cls-3" d="M27.95 10.46l2-9a1.24 1.24 0 0 0-.49-1.23c-.6-.41.63-.14-28.19-.22A1.25 1.25 0 0 0 0 1.54l2 9a1.24 1.24 0 0 0 .39.66A1.69 1.69 0 0 0 2 12.28v14.66a2 2 0 0 0 2 2h1.26a.44.44 0 1 0 0-.88H4a1.11 1.11 0 0 1-1.1-1.11V12.28a.82.82 0 0 1 .81-.82h2.1a1.14 1.14 0 0 0 1.13 1h16.11a1.14 1.14 0 0 0 1.13-1h2.1a.82.82 0 0 1 .82.81v1.49a.44.44 0 0 0 .88 0v-1.48a1.69 1.69 0 0 0-.43-1.12 1.24 1.24 0 0 0 .4-.7zm-4.63.88a.28.28 0 0 1-.28.26H7a.28.28 0 0 1-.28-.26.26.26 0 0 1 .26-.26H23.1a.27.27 0 0 1 .21.29zm3.78-1.07a.37.37 0 0 1-.36.29h-2.86a1.15 1.15 0 0 0-.83-.36H6.95a1.15 1.15 0 0 0-.83.36H3.27a.37.37 0 0 1-.36-.29l-2-9a.37.37 0 0 1 .38-.45C30.46.82 28.8.76 28.98.88a.37.37 0 0 1 .15.39z"/><path class="cls-3" d="M25.24 12.93H4.84a.93.93 0 0 0-.93.93v6.19a.85.85 0 0 0 .85.85h20.36a1 1 0 0 0 1-1v-6.13a.85.85 0 0 0-.88-.84zm-3 .88h1.06v.54h-1.08zm0 1.42h3v.52h-3zm.09 1.39v.52h-1.08v-.52zm-2-2.82h1.06v.54h-1.11zm0 1.42h1.06v.52h-1.11zm.09 1.39v.52h-1.11v-.52zm-2-2.82h.98v.54h-1.06zm0 1.42h.98v.52h-1.06zm-1 1.91v-.52h1.06v.52zm.09.88v.52h-1.1V18zm-1.06-4.21h1.06v.54h-1.1zm0 1.42h1.06v.52h-1.1zm.09 1.39v.52h-1.1v-.52h1.06zm-3 .52v-.52h1.06v.52zm.09.88v.52h-1.1V18zm.88 0h1.06v.52h-1.1zm0-4.21h1.06v.54h-1.1zm0 1.42h1.06v.52h-1.1zm-1.94-1.42h1.06v.54h-1.1zm0 1.42h1.06v.52h-1.1zm.09 1.39v.52h-1.09v-.52h1.06zm-2.94 1.93H8.66v-.52h1.06v.52zm-.09-1.39v-.52h1.06v.52zm1 .88h1.06v.52H10.6zm0-4.21h1.06v.54H10.6zm0 1.42h1.06v.52H10.6zm-1.97-1.42h1.06v.54H8.66zm0 1.42h1.06v.52H8.66zm-1.94-1.42h1.06v.54H6.72zm0 1.42h1.06v.52H6.72zm-1.93-1.37a.05.05 0 0 1 .05-.05h1v.54H4.79zm0 1.37h1.06v.52H4.79zm0 1.39h2v.52h-2zm1.06 3.4H4.79v-.56h1.06zm-1.06-1.49v-.52h3v.52h-3zm3 1.49H6.72v-.56h1.06zm-.09-2.89v-.52h1.05v.52H7.69zm2 2.89H8.66v-.56h1.06zm9.68 0H10.6v-.56h8.8v.61zm0-1.49h-1.04v-.52h1.06zm1.94 1.49h-1.04v-.56h1.06zm0-1.49h-1.04v-.52h1.06zm1.94 1.49h-1.04v-.56h1.06zm1.84 0h-1v-.56h1.06v.52a.1.1 0 0 1-.04.05zm.1-1.49h-3v-.52h3zm0-1.39h-2v-.52h2zm0-2.79h-1.05v-.54h1.06zm-6.41 7.11h-7.58a.83.83 0 0 0-.83.83v3.3a.83.83 0 0 0 .83.83h7.58a.83.83 0 0 0 .83-.83v-3.3a.83.83 0 0 0-.83-.83zm0 4.08h-7.53v-3.2h7.49zm-.88-16.57h-5.82a.44.44 0 0 0 0 .88h5.81a.44.44 0 1 0 0-.88zm9.5-7.34H2.59a.7.7 0 0 0-.69.83l1.26 5.59a.7.7 0 0 0 .69.55h22.3a.7.7 0 0 0 .69-.55l1.26-5.59a.7.7 0 0 0-.69-.83zM27 3.29H7.31a.44.44 0 0 0 0 .88h19.51L26 7.72H4l-.8-3.55h2.06a.44.44 0 0 0 0-.88H3l-.19-.83h24.38z"/><path class="cls-3" d="M27.54 15.38a.44.44 0 0 0-.44.44v11.12a1.11 1.11 0 0 1-1.1 1.1h-7.66v-.06a1.14 1.14 0 0 0-1.14-1.14h-4.4a1.14 1.14 0 0 0-1.14 1.14v.06H7.31a.44.44 0 0 0 0 .88H26a2 2 0 0 0 2-2V15.81a.44.44 0 0 0-.46-.43zM17.47 28.04h-4.94v-.06a.27.27 0 0 1 .26-.26h4.4a.27.27 0 0 1 .26.26z"/></g></svg>