<svg data-name="Layer 1" xmlns="http://www.w3.org/2000/svg" viewBox="0 0 25 25"><title>settings</title><g class="cls-2"><path class="cls-3" d="M15 0a12.83 12.83 0 0 1 2.33.71 12.53 12.53 0 0 1 2.17 1.15.65.65 0 0 1 .18.9.45.45 0 0 1-.08.1 1.74 1.74 0 0 0 0 2.43 1.75 1.75 0 0 0 2.44 0 .64.64 0 0 1 .91 0l.07.08a13.62 13.62 0 0 1 1.16 2.17A13.36 13.36 0 0 1 25 10a.65.65 0 0 1-.51.77h-.11a1.77 1.77 0 0 0-1.21.54 1.76 1.76 0 0 0 0 2.44 1.76 1.76 0 0 0 1.21.53.64.64 0 0 1 .63.66.69.69 0 0 1 0 .14 12.83 12.83 0 0 1-.71 2.33 13.23 13.23 0 0 1-1.16 2.17.64.64 0 0 1-.9.18l-.1-.08a1.8 1.8 0 0 0-1.22-.47 1.73 1.73 0 0 0-1.21.52 1.74 1.74 0 0 0 0 2.44.64.64 0 0 1 0 .91.36.36 0 0 1-.09.07A12.82 12.82 0 0 1 15 25a.64.64 0 0 1-.76-.51.46.46 0 0 1 0-.11 1.745 1.745 0 0 0-3.49 0 .65.65 0 0 1-.66.63L10 25a12.73 12.73 0 0 1-4.49-1.86.65.65 0 0 1-.18-.9.37.37 0 0 1 .07-.09 1.75 1.75 0 0 0 0-2.43 1.75 1.75 0 0 0-1.21-.52 1.78 1.78 0 0 0-1.23.48.65.65 0 0 1-.92 0 .56.56 0 0 1-.06-.09 12.57 12.57 0 0 1-1.25-2.22A12.23 12.23 0 0 1 0 15a.65.65 0 0 1 .51-.77h.12a1.72 1.72 0 0 0 1.2-.53 1.72 1.72 0 0 0 .5-1.22 1.7 1.7 0 0 0-.5-1.22 1.73 1.73 0 0 0-1.2-.54.64.64 0 0 1-.63-.62.62.62 0 0 1 0-.1 13.16 13.16 0 0 1 .73-2.38 12.9 12.9 0 0 1 1.16-2.17.65.65 0 0 1 .9-.18l.1.08a1.71 1.71 0 0 0 1.22.47A1.73 1.73 0 0 0 5.82 4.1a1.69 1.69 0 0 0-.48-1.22.66.66 0 0 1 0-.92l.09-.07A12.58 12.58 0 0 1 10 0a.64.64 0 0 1 .76.51v.11a1.72 1.72 0 0 0 .53 1.2 1.74 1.74 0 0 0 1.22.5 1.76 1.76 0 0 0 1.22-.5 1.72 1.72 0 0 0 .53-1.2.65.65 0 0 1 .65-.62zm-2.5 6.3a6.21 6.21 0 1 1-4.38 1.82A6.18 6.18 0 0 1 12.5 6.3zM16 9a4.9 4.9 0 1 0 1.43 3.46A4.89 4.89 0 0 0 16 9zm.91-7.11a11.66 11.66 0 0 0-1.45-.49 3.07 3.07 0 0 1-.8 1.33 3 3 0 0 1-2.12.87 3 3 0 0 1-2.12-.87 3 3 0 0 1-.8-1.33 11.16 11.16 0 0 0-1.45.49 12 12 0 0 0-1.38.68 3 3 0 0 1-2.68 4.56 3 3 0 0 1-1.5-.38 12.14 12.14 0 0 0-.68 1.38 11.17 11.17 0 0 0-.49 1.45 3 3 0 0 1 1.33.79 3 3 0 0 1 0 4.25 3.11 3.11 0 0 1-1.33.8 10.62 10.62 0 0 0 .48 1.41 11.88 11.88 0 0 0 .68 1.37 3 3 0 0 1 1.5-.37 3 3 0 0 1 3 3 3 3 0 0 1-.38 1.5 10.77 10.77 0 0 0 1.38.68 12.76 12.76 0 0 0 1.45.5 3 3 0 0 1 .8-1.34 3 3 0 0 1 4.24 0 3 3 0 0 1 .8 1.34 13.46 13.46 0 0 0 1.45-.5 10 10 0 0 0 1.37-.68 3.07 3.07 0 0 1-.37-1.5 3 3 0 0 1 3-3 3 3 0 0 1 1.5.37 12 12 0 0 0 .69-1.37 11.68 11.68 0 0 0 .49-1.45 3.1 3.1 0 0 1-1.34-.8 3.07 3.07 0 0 1 0-4.25 3.09 3.09 0 0 1 1.34-.79 11.81 11.81 0 0 0-.49-1.46 12.78 12.78 0 0 0-.69-1.37 3 3 0 0 1-1.5.38 3 3 0 0 1-3-3 3.1 3.1 0 0 1 .37-1.5 10.13 10.13 0 0 0-1.33-.66z"/></g></svg>