<svg xmlns="http://www.w3.org/2000/svg" xmlns:xlink="http://www.w3.org/1999/xlink" height="1102" viewBox="0 0 110 1102" width="110"><svg height="34.06" viewBox="0 0 102 35" width="101.61" x="4" y="4"><title>logo-footer-hover</title><path d="M19.13 21.5c-.08-2.68-.51-5.35-.48-8 0-2.17.39-4.41-.36-6.49 0-.24.1-.47.14-.71.19-1-3.27-.49-3.81.46a.82.82 0 0 0-.37 1l.1.26a78.19 78.19 0 0 1-2.62 9.41c-.4 1.19-.89 2.35-1.3 3.53a35.66 35.66 0 0 1-1.64-3.46C7.42 14.07 6.18 10.6 4.5 7.3c.19-1.53-3.2-1.37-3.87 0a8.64 8.64 0 0 0-.44 5.21 45.24 45.24 0 0 1 .38 6.11c0 4 .36 7.94.42 11.92a1 1 0 0 0-.09 1.41 3.08 3.08 0 0 0 .57.55c.9.72 3.5.11 3.5-1.27C5 27.1 4.65 23 4.54 18.87v-1.21l.17.43a33.8 33.8 0 0 0 2.19 4.65 21.46 21.46 0 0 1 1.8 4.68.77.77 0 0 0-.23.71.31.31 0 0 0 .25.36c.64.55 1.84.27 2.51 0a6.07 6.07 0 0 0 .77-.43 1.21 1.21 0 0 0 .73-1.16l-.09-.28a24.34 24.34 0 0 0 1-3.93 24.91 24.91 0 0 1 1.29-4.13c.05.62.11 1.24.16 1.86.2 2.55 0 5.07 0 7.63a11.7 11.7 0 0 0 .22 2.46 10.55 10.55 0 0 1 .28 1.89.78.78 0 0 0 .41 1.43 3.32 3.32 0 0 0 2.77-.74c1.2-1.11.63-2.84.36-4.24-.47-2.35.08-4.97 0-7.35zm8.37.67c-.07-2-.77-3.86-.77-5.87a48.66 48.66 0 0 0-.15-6.89c-.11-.73-4.06.1-3.92 1a38.87 38.87 0 0 1 .16 6.35 39.16 39.16 0 0 0 .73 5.9c.27 2.05-.08 4.16.15 6.21.11 1 .75 2.74.09 3.58-.42.53 1.47.34 1.55.33a3.86 3.86 0 0 0 2.3-1c.65-.83.2-2.43.05-3.36a54.62 54.62 0 0 1-.19-6.25zm16.33-3.32c-2.06-2.78-5.89-.78-8.56-1.54-1.38-.39-1.39-2.27-1.39-3.4a35.22 35.22 0 0 0-.27-4.15 3.4 3.4 0 0 1 .75-2.9 4.38 4.38 0 0 1 .81-.34 8.23 8.23 0 0 1 1.07-.09c1.55-.07 4.61.23 4 2.48-.27 1 3.6.43 3.88-.64 1.21-4.6-7.28-3.71-9.69-3.08-2.21.59-4.65 1.84-4.78 4.4-.05 1.23.28 2.41.35 3.6.06 1.39-.2 2.78.29 4.12 1.08 3 5.52 1.58 7.78 1.75 3.85.29 2.7 5.47 2.75 7.88 0 1.29 1.18 3.43.21 4.51-.6.66-2 .7-2.79.77s-2.2.31-2.74-.46c-1-1.42.09-3.8-.12-5.42-.12-.92-4.07-.1-3.92 1C31.78 30 30 33.52 33.84 34a18.09 18.09 0 0 0 7.5-.93 8.85 8.85 0 0 0 3.24-1.79c1-.94.69-2.35.42-3.55-.68-2.95.73-6.31-1.17-8.88zm17.33-.19c-.12-3.78-.69-7.51-.71-11.3 0-2-4-1.31-4 .34 0 3.61.5 7.17.68 10.76v.22c-1.95 0-3.9.18-5.85.25.2-4.63-.61-9.23-.43-13.86C50.92 4.5 47 5 47 6.13c-.17 4.47.59 8.92.45 13.39-.06 2.14-.24 4.26-.26 6.4a21.72 21.72 0 0 0 .33 3.26 8.32 8.32 0 0 1 .18 3.32c-.24.77 3.56.29 3.86-.69.54-1.78-.22-4-.41-5.84a31 31 0 0 1 .08-5.25 29.73 29.73 0 0 1 6.08 0q.13 2.07.32 4.13c.11 1.16.18 2.31.2 3.48a10.62 10.62 0 0 1-.22 3.46c-.77 2.06 3.15 1.89 3.72.36.7-1.87.5-4.2.38-6.16-.15-2.45-.48-4.88-.55-7.33zm16.93 4.48a73.73 73.73 0 0 0-3.62-7.8c1-1.95 2-3.9 2.93-5.89.83-1.81 1.45-3.82 3.08-5.09.57-.45.55-.9-.25-1a4.44 4.44 0 0 0-2.77.74 10.74 10.74 0 0 0-3.2 4.27c-.93 2.05-1.9 4.06-2.91 6.08l-.22.44a1.14 1.14 0 0 0-.64 1.27c-.79 1.56-1.6 3.12-2.5 4.61-.3-5.53-1-11.06-1.15-16.6 0-1.27-4-.48-3.92 1 .24 6.96 1.21 13.83 1.28 20.68v.05c-.3.31-.19.49.05.6 0 1.75-.06 3.5-.21 5.25-.47.75.46 1.14 1.08 1.14h.1c.74 0 2.63-.35 2.72-1.36.19-2.1.25-4.2.23-6.29a31.36 31.36 0 0 0 4.06-5.63 29.36 29.36 0 0 1 2 4.58c.86 2.74 2.3 5.26 3.13 8 .54 1.81 4.46.74 3.92-1-.89-2.79-2.28-5.34-3.19-8.05zm23.5-4.64c-.21-.83-1.37-.85-2.27-.77v-1c-.12-2.66-.16-5.38-.39-8-.21-2.46-1.58-3.34-4-3.25a24.28 24.28 0 0 0-7.48 1.4 7 7 0 0 0-4.56 5.68c-.55 3 .24 6.22.37 9.25.15 3.5.07 7 .06 10.52 0 .57 3.92 0 3.92-1V23c0-.82-.05-1.63-.1-2.44 1.37-.59 3.69 0 5.05.14a15.29 15.29 0 0 0 3.24-.29c0 2.31.11 4.63.2 6.94 0 1.18.48 3.53-.35 4.51-.44.52 1.48.34 1.55.33a4 4 0 0 0 2.3-1c.95-1.12.46-3.79.4-5.13-.08-1.91-.1-3.82-.14-5.74 1.15-.26 2.42-.97 2.2-1.82zM87 18.35c-.1-1.25-.22-2.49-.3-3.74-.16-2.33.12-5.58 2.29-7a7.14 7.14 0 0 1 2.35-.44 3.67 3.67 0 0 1 2.83.19c1.21.8.91 3.66.91 4.87 0 2 .21 4 .31 6a13.68 13.68 0 0 1-1.68.08c-2.32-.05-4.57-.41-6.71.04zM24.11 6.7a3.16 3.16 0 0 0 1.48-.52l.25-.18a1.17 1.17 0 0 0 .73-1.36 7.72 7.72 0 0 1-.42-3.41c0-1-1-1.25-1.78-1.17S22.2.64 22.2 1.58a16.06 16.06 0 0 0 .11 3 2.56 2.56 0 0 0-.1.36.69.69 0 0 0 .14.59v.41a.9.9 0 0 0 .43.53 2.18 2.18 0 0 0 1.33.23z" fill="#4abfae"/></svg><svg height="34.06" viewBox="0 0 102 35" width="101.61" x="4" y="43"><title>logo--footer</title><path d="M19.13 21.5c-.08-2.68-.51-5.35-.48-8 0-2.17.39-4.41-.36-6.49 0-.24.1-.47.14-.71.19-1-3.27-.49-3.81.46a.82.82 0 0 0-.37 1l.1.26a78.19 78.19 0 0 1-2.62 9.41c-.4 1.19-.89 2.35-1.3 3.53a35.66 35.66 0 0 1-1.64-3.46C7.42 14.07 6.18 10.6 4.5 7.3c.19-1.53-3.2-1.37-3.87 0a8.64 8.64 0 0 0-.44 5.21 45.24 45.24 0 0 1 .38 6.11c0 4 .36 7.94.42 11.92a1 1 0 0 0-.09 1.41 3.08 3.08 0 0 0 .57.55c.9.72 3.5.11 3.5-1.27C5 27.1 4.65 23 4.54 18.87v-1.21l.17.43a33.8 33.8 0 0 0 2.19 4.65 21.46 21.46 0 0 1 1.8 4.68.77.77 0 0 0-.23.71.31.31 0 0 0 .25.36c.64.55 1.84.27 2.51 0a6.07 6.07 0 0 0 .77-.43 1.21 1.21 0 0 0 .73-1.16l-.09-.28a24.34 24.34 0 0 0 1-3.93 24.91 24.91 0 0 1 1.29-4.13c.05.62.11 1.24.16 1.86.2 2.55 0 5.07 0 7.63a11.7 11.7 0 0 0 .22 2.46 10.55 10.55 0 0 1 .28 1.89.78.78 0 0 0 .41 1.43 3.32 3.32 0 0 0 2.77-.74c1.2-1.11.63-2.84.36-4.24-.47-2.35.08-4.97 0-7.35zm8.37.67c-.07-2-.77-3.86-.77-5.87a48.66 48.66 0 0 0-.15-6.89c-.11-.73-4.06.1-3.92 1a38.87 38.87 0 0 1 .16 6.35 39.16 39.16 0 0 0 .73 5.9c.27 2.05-.08 4.16.15 6.21.11 1 .75 2.74.09 3.58-.42.53 1.47.34 1.55.33a3.86 3.86 0 0 0 2.3-1c.65-.83.2-2.43.05-3.36a54.62 54.62 0 0 1-.19-6.25zm16.33-3.32c-2.06-2.78-5.89-.78-8.56-1.54-1.38-.39-1.39-2.27-1.39-3.4a35.22 35.22 0 0 0-.27-4.15 3.4 3.4 0 0 1 .75-2.9 4.38 4.38 0 0 1 .81-.34 8.23 8.23 0 0 1 1.07-.09c1.55-.07 4.61.23 4 2.48-.27 1 3.6.43 3.88-.64 1.21-4.6-7.28-3.71-9.69-3.08-2.21.59-4.65 1.84-4.78 4.4-.05 1.23.28 2.41.35 3.6.06 1.39-.2 2.78.29 4.12 1.08 3 5.52 1.58 7.78 1.75 3.85.29 2.7 5.47 2.75 7.88 0 1.29 1.18 3.43.21 4.51-.6.66-2 .7-2.79.77s-2.2.31-2.74-.46c-1-1.42.09-3.8-.12-5.42-.12-.92-4.07-.1-3.92 1C31.78 30 30 33.52 33.84 34a18.09 18.09 0 0 0 7.5-.93 8.85 8.85 0 0 0 3.24-1.79c1-.94.69-2.35.42-3.55-.68-2.95.73-6.31-1.17-8.88zm17.33-.19c-.12-3.78-.69-7.51-.71-11.3 0-2-4-1.31-4 .34 0 3.61.5 7.17.68 10.76v.22c-1.95 0-3.9.18-5.85.25.2-4.63-.61-9.23-.43-13.86C50.92 4.5 47 5 47 6.13c-.17 4.47.59 8.92.45 13.39-.06 2.14-.24 4.26-.26 6.4a21.72 21.72 0 0 0 .33 3.26 8.32 8.32 0 0 1 .18 3.32c-.24.77 3.56.29 3.86-.69.54-1.78-.22-4-.41-5.84a31 31 0 0 1 .08-5.25 29.73 29.73 0 0 1 6.08 0q.13 2.07.32 4.13c.11 1.16.18 2.31.2 3.48a10.62 10.62 0 0 1-.22 3.46c-.77 2.06 3.15 1.89 3.72.36.7-1.87.5-4.2.38-6.16-.15-2.45-.48-4.88-.55-7.33zm16.93 4.48a73.73 73.73 0 0 0-3.62-7.8c1-1.95 2-3.9 2.93-5.89.83-1.81 1.45-3.82 3.08-5.09.57-.45.55-.9-.25-1a4.44 4.44 0 0 0-2.77.74 10.74 10.74 0 0 0-3.2 4.27c-.93 2.05-1.9 4.06-2.91 6.08l-.22.44a1.14 1.14 0 0 0-.64 1.27c-.79 1.56-1.6 3.12-2.5 4.61-.3-5.53-1-11.06-1.15-16.6 0-1.27-4-.48-3.92 1 .24 6.96 1.21 13.83 1.28 20.68v.05c-.3.31-.19.49.05.6 0 1.75-.06 3.5-.21 5.25-.47.75.46 1.14 1.08 1.14h.1c.74 0 2.63-.35 2.72-1.36.19-2.1.25-4.2.23-6.29a31.36 31.36 0 0 0 4.06-5.63 29.36 29.36 0 0 1 2 4.58c.86 2.74 2.3 5.26 3.13 8 .54 1.81 4.46.74 3.92-1-.89-2.79-2.28-5.34-3.19-8.05zm23.5-4.64c-.21-.83-1.37-.85-2.27-.77v-1c-.12-2.66-.16-5.38-.39-8-.21-2.46-1.58-3.34-4-3.25a24.28 24.28 0 0 0-7.48 1.4 7 7 0 0 0-4.56 5.68c-.55 3 .24 6.22.37 9.25.15 3.5.07 7 .06 10.52 0 .57 3.92 0 3.92-1V23c0-.82-.05-1.63-.1-2.44 1.37-.59 3.69 0 5.05.14a15.29 15.29 0 0 0 3.24-.29c0 2.31.11 4.63.2 6.94 0 1.18.48 3.53-.35 4.51-.44.52 1.48.34 1.55.33a4 4 0 0 0 2.3-1c.95-1.12.46-3.79.4-5.13-.08-1.91-.1-3.82-.14-5.74 1.15-.26 2.42-.97 2.2-1.82zM87 18.35c-.1-1.25-.22-2.49-.3-3.74-.16-2.33.12-5.58 2.29-7a7.14 7.14 0 0 1 2.35-.44 3.67 3.67 0 0 1 2.83.19c1.21.8.91 3.66.91 4.87 0 2 .21 4 .31 6a13.68 13.68 0 0 1-1.68.08c-2.32-.05-4.57-.41-6.71.04zM24.11 6.7a3.16 3.16 0 0 0 1.48-.52l.25-.18a1.17 1.17 0 0 0 .73-1.36 7.72 7.72 0 0 1-.42-3.41c0-1-1-1.25-1.78-1.17S22.2.64 22.2 1.58a16.06 16.06 0 0 0 .11 3 2.56 2.56 0 0 0-.1.36.69.69 0 0 0 .14.59v.41a.9.9 0 0 0 .43.53 2.18 2.18 0 0 0 1.33.23z" fill="#231f20"/></svg><svg height="76.89" viewBox="0 0 101 77" width="100.68" x="4" y="82"><title>video-play</title><path d="M96.95 18.15s-.92-7-3.79-10.08c-3.63-4-7.67-4.07-9.54-4.3-13.33-1-33.3-1-33.3-1h-.05s-20 0-33.3 1c-1.87.23-5.91.26-9.54 4.3-2.84 3.1-3.79 10.08-3.79 10.08s-.9 8.21-.9 16.42v7.7a164.22 164.22 0 0 0 .95 16.42s.92 7 3.79 10.08c3.63 4 8.36 3.91 10.49 4.35 7.62.77 32.36 1 32.36 1s20 0 33.33-1c1.87-.23 5.91-.26 9.54-4.3 2.84-3.07 3.79-10.08 3.79-10.08a164.37 164.37 0 0 0 .95-16.42v-7.7c-.04-8.26-.99-16.47-.99-16.47z" fill="#63d1bb"/><path d="M50.31 76.89c-1 0-24.95-.27-32.6-1h-.28c-.27-.06-.67-.11-1.13-.17-2.5-.33-7.16-.94-10.84-5C2.11 67.1 1.08 59.95.98 59.14a165.51 165.51 0 0 1-1-16.74v-7.7c0-8.27.88-16.38.91-16.72v-.07c.11-.8 1.16-7.93 4.47-11.56a15.43 15.43 0 0 1 10.71-5.12l.53-.06h.13c13.28-1 33.31-1 33.51-1h.05c.2 0 20.24 0 33.51 1h.13l.53.06a15.43 15.43 0 0 1 10.7 5.11c3.35 3.62 4.38 10.77 4.48 11.58 0 .34 1 8.46 1 16.75v7.71a165.47 165.47 0 0 1-1 16.74v.05c-.11.81-1.16 8-4.48 11.56a15.43 15.43 0 0 1-10.71 5.12l-.53.06h-.13c-13.28 1-33.33 1.06-33.53 1.06zm-31.94-6.45c7.48.73 31.22 1 32 1s20.13 0 33-1l.58-.06a10 10 0 0 0 7.19-3.33c1.83-2 2.85-6.93 3.08-8.55.06-.51.93-8.36.93-16.08v-7.7c0-7.76-.9-15.63-1-16.11-.32-2.38-1.43-6.79-3.07-8.54a10 10 0 0 0-7.19-3.34l-.58-.06c-13.07-1-32.83-1-33-1h-.05c-.2 0-20 0-33 1l-.58.06a10 10 0 0 0-7.19 3.34c-1.83 2-2.86 6.92-3.08 8.55-.06.59-.87 8.4-.87 16.09v7.7c0 7.75.87 15.6.93 16.08.32 2.38 1.43 6.79 3.07 8.54 2.32 2.58 5.3 3 7.48 3.26.47-.04.93.02 1.35.15z" fill="#fff"/><path fill="#fff" d="M38.43 20.58v35.71l29.75-17.86-29.75-17.85z"/></svg><svg height="81.69" viewBox="0 0 47 82" width="46.68" x="4" y="163"><title>address--icon</title><path d="M7.78 3.89v38.9l38.9-19.45zM0 81.69V0h3.8v81.69H0z" fill="#63d1bb"/><path fill="#231f20" d="M0 0h3.8v81.69H0z"/></svg><svg height="62.41" viewBox="0 0 41 63" width="40.22" x="4" y="249"><title>page-title__block--interior</title><path d="M15.18 38a8 8 0 0 0 0 3.64c.49 2.63 1.69 6 2.36 9.67h5.06c.7-3.64 1.95-7 2.47-9.68a7.67 7.67 0 0 0 0-3.62 4.1 4.1 0 0 0-2-2.3h-6A4.06 4.06 0 0 0 15.18 38zM27 58H13.21a2.24 2.24 0 0 0-2.3 2.23v2.23h18.4v-2.28A2.24 2.24 0 0 0 27 58zm7.14-55.77H22.41a2.3 2.3 0 0 0-4.6 0H6.07L0 27.75a5.17 5.17 0 0 1 2.63-1 4.51 4.51 0 0 1 2.92 1.38A3.15 3.15 0 0 0 7 29a3.13 3.13 0 0 0 1.45-.84 4.53 4.53 0 0 1 2.92-1.36 4.55 4.55 0 0 1 2.92 1.35 3.18 3.18 0 0 0 1.45.84 1.26 1.26 0 0 0 .58-.21 7.64 7.64 0 0 0 .87-.63 5.83 5.83 0 0 1 2-1.22 3.22 3.22 0 0 1 .93-.14A4.55 4.55 0 0 1 23 28.14a3.17 3.17 0 0 0 1.45.84 3.19 3.19 0 0 0 1.45-.85 4.54 4.54 0 0 1 2.92-1.37 4.51 4.51 0 0 1 2.92 1.37 7.76 7.76 0 0 0 .87.63 1.23 1.23 0 0 0 .57.21 3.12 3.12 0 0 0 1.44-.85 4.51 4.51 0 0 1 2.93-1.38 5.14 5.14 0 0 1 2.63 1zM23.52 53.5h-6.86a1.11 1.11 0 1 0 0 2.23h6.9a1.11 1.11 0 1 0 0-2.23zM20.11 29a1.29 1.29 0 0 0-.58.21c-.16.09-.37.26-.57.41v3.73h2.3v-3.72a2.65 2.65 0 0 0-1.15-.63z" opacity=".5" fill="#149080"/></svg><svg height="59.62" viewBox="0 0 60 60" width="60" x="4" y="316"><title>page-title__block--toy</title><path d="M0 43.68l27.44 15.93V36.27L0 20.33v23.35zm51.35-31.24v2.45c0 1.82-3.46 3.29-7.73 3.29s-7.73-1.47-7.73-3.29v-4.06c.26 1.71 3.6 3.07 7.7 3.07 4.27 0 7.73-1.47 7.73-3.28s-3.46-3.29-7.73-3.29h-1l-5-2.89v3.12c0 1.82-3.45 3.29-7.72 3.29a12.65 12.65 0 0 1-6.43-1.47 3.94 3.94 0 0 0-.73-.59 1.8 1.8 0 0 1-.57-1.24v-3l-4.76 2.81h-1.05c-4.27 0-7.73 1.47-7.73 3.29s3.46 3.28 7.73 3.28c4.1 0 7.45-1.36 7.7-3.07v4.06c0 1.82-3.45 3.29-7.73 3.29s-7.7-1.5-7.7-3.32v-2.42l-6 3.45 27.53 16L57.53 16zM37.7 22.6c0 1.82-3.46 3.29-7.73 3.29s-7.73-1.47-7.73-3.29v-4.06c.26 1.71 3.6 3.08 7.71 3.08s7.44-1.36 7.7-3.08v4.06zm-5.14 13.88v23.14L60 43.68V20.54zM29.92 6.57c4.27 0 7.72-1.47 7.72-3.29S34.18 0 29.92 0s-7.73 1.47-7.73 3.29 3.46 3.29 7.73 3.29" fill="#149080" opacity=".5"/></svg><svg height="23.18" viewBox="0 0 55 24" width="54.16" x="4" y="380"><title>about__items--icon4</title><path d="M40.31 5.71A48.13 48.13 0 0 0 28 4a46.41 46.41 0 0 0-7.71.62L13.46 0H0l5.81 6.19h8.45A21.81 21.81 0 0 0 7.5 9.7v3.78A24.11 24.11 0 0 0 14.43 17H5.81L0 23.18h13.46l6.82-4.69a44.33 44.33 0 0 0 7.68.65 48.26 48.26 0 0 0 12.36-1.67 10.62 10.62 0 0 1-1.92-5.88 10.6 10.6 0 0 1 1.91-5.88zm3.42 1.04a7.84 7.84 0 0 0-2 4.84 7.8 7.8 0 0 0 2 4.85 48.52 48.52 0 0 0 10.42-4.84 48.58 48.58 0 0 0-10.42-4.85z" fill="#63d1bb"/></svg><svg height="26" viewBox="0 0 50 26" width="50" x="4" y="408"><title>reviews__control--left</title><path d="M50 11H7.66l8.17-8.17L13.01 0 0 13v.01L13.01 26l2.82-2.82L7.66 15H50v-4z"/></svg><svg height="27.33" viewBox="0 0 47 28" width="46.58" x="4" y="438"><title>about__items--icon3</title><path d="M42.67 0H3.9A3.9 3.9 0 0 0 0 3.9v19.53a3.91 3.91 0 0 0 3.9 3.91h38.77a3.91 3.91 0 0 0 3.91-3.91V3.9A3.91 3.91 0 0 0 42.67 0zM3 24.95V2.72h40.2v22.23H3z" fill="#63d1bb"/><path d="M6.93 21h32.39V6.62H6.93V21zM23.29 8.52A5.31 5.31 0 1 1 18 13.83a5.31 5.31 0 0 1 5.29-5.31z" fill="#63d1bb"/></svg><svg height="37.3" viewBox="0 0 32 38" width="31.97" x="4" y="470"><title>about__items--icon1</title><path d="M16 37.3a16 16 0 0 0 16-16 16 16 0 0 0-16 16zM4.63 16.43a4.44 4.44 0 0 0 7 3.66v.34a4.44 4.44 0 1 0 8.88 0v-.34a4.4 4.4 0 0 0 2.51.78 4.43 4.43 0 0 0 1.9-8.44 4.43 4.43 0 1 0-4.41-7.66v-.34a4.44 4.44 0 0 0-8.88 0v.34A4.39 4.39 0 0 0 9.07 4a4.43 4.43 0 0 0-1.9 8.44 4.42 4.42 0 0 0-2.54 3.99zM16 8a4.44 4.44 0 1 1-4.44 4.44A4.44 4.44 0 0 1 16 8zM0 21.31a16 16 0 0 0 16 16 16 16 0 0 0-16-16z" fill="#63d1bb"/></svg><svg height="35.08" viewBox="0 0 28 36" width="28" x="4" y="512"><title>html-academy-hover</title><path d="M14.14.5H14L.5 1.91V26.5l13.5 8 13.5-8V1.91zm11.59 25L14 32.5l-11.73-7V15.43l11.68 6.92v1.25l-8-4.74v1.22l8 4.81v1.29l-8-4.76v1.22l8 4.81 8.12-4.83V17.4l3.62-2.15V25.5zm0-11.56l-3.21 1.88-1.48.87L14 12.5v1.22l6 3.57h-.05l-.13.08-.86.5-5-3v1.22l3.94 2.33-.93.62-3-1.74v1.22l2 1.14-2 1.19-11.63-6.87 11.64-7zm0-1.22L13.93 5.8 2.26 12.71V3.5L14 2.27 25.73 3.5v9.24z" fill="#45c2af" stroke="#45c2af" stroke-miterlimit="10"/></svg><svg height="35.08" viewBox="0 0 28 36" width="28" x="4" y="552"><title>html-academy</title><path d="M14.14.5H14L.5 1.91V26.5l13.5 8 13.5-8V1.91zm11.59 25L14 32.5l-11.73-7V15.43l11.68 6.92v1.25l-8-4.74v1.22l8 4.81v1.29l-8-4.76v1.22l8 4.81 8.12-4.83V17.4l3.62-2.15V25.5zm0-11.56l-3.21 1.88-1.48.87L14 12.5v1.22l6 3.57h-.05l-.13.08-.86.5-5-3v1.22l3.94 2.33-.93.62-3-1.74v1.22l2 1.14-2 1.19-11.63-6.87 11.64-7zm0-1.22L13.93 5.8 2.26 12.71V3.5L14 2.27 25.73 3.5v9.24z" fill="#63d2bc" stroke="#63d2bc" stroke-miterlimit="10"/></svg><svg height="34.37" viewBox="0 0 35 35" width="34.37" x="4" y="592"><title>about__items--icon2</title><path d="M.29 14.07a17.25 17.25 0 0 0 0 6.3l4.12-3.21zM24.4 1.59A17.21 17.21 0 0 0 9.15 2l7.51 5.63zm9.5 11.58l-4.81 3.75 4.91 3.7a17.25 17.25 0 0 0-.1-7.45zM9.21 32.41a17.21 17.21 0 0 0 15.73.11l-8.1-6.06zm-1.3-17.98L1.68 9.77a17.15 17.15 0 0 0-.82 2.06l5.31 4zM18.59 25.1l8.34 6.24c.28-.19.55-.39.82-.6s.62-.5.92-.77l-8.33-6.23zm-7.18-13.39L4 6.16a17.1 17.1 0 0 0-1.27 1.72l6.93 5.19zm10.68 10.67l8.09 6.06a17.09 17.09 0 0 0 1.3-1.7L23.84 21zM14.91 9L7.2 3.2l-.57.43q-.63.46-1.14.97l7.68 5.75zm10.68 10.65l7 5.22a17.18 17.18 0 0 0 .86-2l-6.08-4.55zm.86-16.94L.88 22.63a17.11 17.11 0 0 0 .84 2.06L28.24 4a17 17 0 0 0-1.79-1.29zm4.29 3.91q-.45-.62-.94-1.1l-27 21q.39.6.84 1.18l.44.53L31.16 7.18zM32.3 9L5.55 29.84a17.12 17.12 0 0 0 1.71 1.38L33.22 11a17.12 17.12 0 0 0-.92-2z" fill="#6cc7b6"/></svg><svg height="27.86" viewBox="0 0 34 28" width="33.05" x="4" y="631"><title>about__items--icon5</title><path d="M33.05 8.74a8.73 8.73 0 0 0-16.53-3.95A8.73 8.73 0 0 0 0 8.74c0 9.13 14.66 19.12 16.52 19.12s16.53-9.95 16.53-19.12z" fill="#63d1bb"/></svg><svg height="32.49" viewBox="0 0 33 33" width="32.67" x="4" y="663"><title>about__items--icon6</title><path d="M2.89 32.49H15.4V18.58H2.89v13.91zM31.08 8.87h-7.34a10.87 10.87 0 0 0 1.4-.87 5.06 5.06 0 0 0 2.42-4 3.86 3.86 0 0 0-1.36-2.9 4.58 4.58 0 0 0-3-1.12 6 6 0 0 0-3.32 1.07 10.62 10.62 0 0 0-3.42 4.07l-.12.24a13 13 0 0 0-1-1.79 9.66 9.66 0 0 0-2.5-2.51A6 6 0 0 0 9.46 0a4.65 4.65 0 0 0-3.15 1.3A4.35 4.35 0 0 0 4.9 4.43a4.09 4.09 0 0 0 .65 2.19 6.54 6.54 0 0 0 2.63 2.25H1.59A1.59 1.59 0 0 0 0 10.46v5.9h15.4V8.87h1.87v7.49h15.4v-5.9a1.59 1.59 0 0 0-1.59-1.59M8.71 6.53A3.76 3.76 0 0 1 7.5 5.39a1.78 1.78 0 0 1-.3-1A2.05 2.05 0 0 1 7.89 3a2.37 2.37 0 0 1 1.56-.7 3.68 3.68 0 0 1 2 .68 8.36 8.36 0 0 1 2.64 3.19 10.44 10.44 0 0 1 .79 2.09 14.86 14.86 0 0 1-6.17-1.73M19.25 4.9A7.38 7.38 0 0 1 21.14 3a3.69 3.69 0 0 1 2-.68 2.3 2.3 0 0 1 1.49.55A1.56 1.56 0 0 1 25.26 4a2.82 2.82 0 0 1-1.47 2.13 15.84 15.84 0 0 1-6.13 2.26 10.57 10.57 0 0 1 1.59-3.49m-2 27.59h12.53V18.58H17.27v13.91z" fill="#63d1bb"/></svg><svg height="22.74" viewBox="0 0 33 23" width="32.67" x="4" y="700"><title>confirm</title><path fill="#231f20" d="M32.67 1.41L31.25 0 11.34 19.91 1.41 9.99 0 11.4l9.92 9.93 1.42 1.41 1.41-1.41L32.67 1.41z"/></svg><svg height="22" viewBox="0 0 32 22" width="32" x="4" y="727"><title>video-content</title><path d="M26 10l6-4v16l-6-4v-8zm-2 0v8a4 4 0 0 1-4 4H4a4 4 0 0 1-4-4v-8a4 4 0 0 1 4-4h10a2 2 0 0 1 2-2V2H5a1 1 0 0 1 0-2h12a1 1 0 0 1 1 1v3a2 2 0 0 1 2 2 4 4 0 0 1 4 4zm-12 0H4v8h8v-8zm8 1a1 1 0 0 0-1-1h-4a1 1 0 0 0 0 2h4a1 1 0 0 0 1-1z" fill="#63d2bc"/></svg><svg height="21" viewBox="0 0 32 21" width="32" x="4" y="753"><title>mail-hover</title><path d="M28 0H4a4 4 0 0 0-4 4v13a4 4 0 0 0 4 4h24a4 4 0 0 0 4-4V4a4 4 0 0 0-4-4zM2 5.25l7 5.25-7 5.25V5.25zM30 17a2 2 0 0 1-2 2H4a2 2 0 0 1-2-2l7.83-5.87 4.37 3.27a3 3 0 0 0 3.6 0l4.37-3.28L30 17zm0-1.25l-7-5.25 7-5.25v10.5zM17.2 13.6a2 2 0 0 1-2.4 0l-4.13-3.1-.83-.62L2 4a2 2 0 0 1 2-2h24a2 2 0 0 1 2 2z" fill="#62d2bb"/></svg><svg height="27.72" viewBox="0 0 15 28" width="14.96" x="4" y="778"><title>fb</title><path d="M11.66 5.19a6.68 6.68 0 0 0 2.68-.3 8.12 8.12 0 0 0 .62-3 1.09 1.09 0 0 1-.21-.4c0-.2-.28-.19-.31-.4-.27-.15-.44-.41-.72-.58L11.56 0A13.56 13.56 0 0 0 9 .11 6.62 6.62 0 0 0 3.72 2.5c0 .08 0 .2-.1.2-.62 1.59-.13 3.62-.21 5.58.1.44.11 1 .2 1.39a18.82 18.82 0 0 1-3.4.5 3.06 3.06 0 0 0-.21 1.7 15 15 0 0 0 .41 1.59 3.53 3.53 0 0 0 .83.5.44.44 0 0 1 .1.1c.51.27 1.45 0 2.27.1-.14 2 .26 3.92 0 5.68a2 2 0 0 1 .21.8A8.25 8.25 0 0 0 4 23.33a2.63 2.63 0 0 0-.41 1.79c.12 0 .11.16.1.3-.07.47.64.17.52.7.16.46-.43.18-.41.5v.9a6 6 0 0 0 2.27.2c.91-.42 2.19-.48 2.79-1.2a1.28 1.28 0 0 0 1.24-.2 2.82 2.82 0 0 0 .21-.7 3.32 3.32 0 0 1-.1-.9v-2.89c-.21-2.29 0-4.94-.31-7.18a9.1 9.1 0 0 0 2.58-.4 4.85 4.85 0 0 0 .52-1.88 1.56 1.56 0 0 0 .21-1 2.4 2.4 0 0 0 .1-1.1c-.14-.6-.17-1.3-.83-1.39-.88-.24-2 .6-3 .3 0-1.13-.29-2.34 0-3.39.76-.18 1.46-.4 2.18-.6zM7.84 10a3.76 3.76 0 0 0 .41.7c.08 0 .2 0 .21.1a10.32 10.32 0 0 0 3.1-.3A7.46 7.46 0 0 1 11 13a10 10 0 0 1-2 .2 7.41 7.41 0 0 0-.62.7 2.26 2.26 0 0 1 0 .8 3.7 3.7 0 0 0-.21.8V17a1.7 1.7 0 0 1-.1.5v3.49a1.75 1.75 0 0 0 .1.5v3a1.46 1.46 0 0 0 .1.9c-.07.36-.41 0-.82.1a7.66 7.66 0 0 1-1.55.4 2.81 2.81 0 0 0 .31-1.1c0-.38-.37-.31-.52-.5.19-.64.56-1.12.72-1.79.2-.51.71-1.3.31-1.79A1 1 0 0 0 6 21c0 .08 0 .2-.1.2s0 .2-.1.2-.15.06 0 0 0-.2.1-.2 0-.2.1-.2v-.3a5.71 5.71 0 0 0 .83-2 4.81 4.81 0 0 0 .41-1 1.29 1.29 0 0 0 .1-1.2 1 1 0 0 0-.93.7c-.32-.19.16-.43.1-.7.14-.23.17-.57.31-.8.2-.41.56-1.3 0-1.6a.66.66 0 0 0-.72.5 1.45 1.45 0 0 0-.52.7c-.37-.07-.14-.73-.21-1.1a8.53 8.53 0 0 0 0-1.2c-.56-.8-2-.11-3.2-.3a2.24 2.24 0 0 1-.1-1.2c1-.09 2.48.2 3.2-.2 0-.08 0-.2.1-.2a1.78 1.78 0 0 0-.51-1.4 17.1 17.1 0 0 0 .1-3 3.28 3.28 0 0 0 .51-.6c.11-1 .67-1.48.72-2.49-.27 0-.61-.05-.62.2-.3-.11-.38.48-.51.2a1.7 1.7 0 0 1 .31-1C6 2.68 6.58 2.28 7.23 1.9c1.74-.24 4.65-.45 6.09.2.04.62-.32.9-.21 1.5h-1.55a30.6 30.6 0 0 0-3 1c-.23.06-.27.33-.51.4a5.91 5.91 0 0 1-.31 1c-.08 1.43.13 2.59.1 4z" fill="#231f20"/></svg><svg height="27.72" viewBox="0 0 15 28" width="14.96" x="4" y="810"><title>fb-hover</title><path d="M11.66 5.19a6.68 6.68 0 0 0 2.68-.3 8.12 8.12 0 0 0 .62-3 1.09 1.09 0 0 1-.21-.4c0-.2-.28-.19-.31-.4-.27-.15-.44-.41-.72-.58L11.56 0A13.56 13.56 0 0 0 9 .11 6.62 6.62 0 0 0 3.72 2.5c0 .08 0 .2-.1.2-.62 1.59-.13 3.62-.21 5.58.1.44.11 1 .2 1.39a18.82 18.82 0 0 1-3.4.5 3.06 3.06 0 0 0-.21 1.7 15 15 0 0 0 .41 1.59 3.53 3.53 0 0 0 .83.5.44.44 0 0 1 .1.1c.51.27 1.45 0 2.27.1-.14 2 .26 3.92 0 5.68a2 2 0 0 1 .21.8A8.25 8.25 0 0 0 4 23.33a2.63 2.63 0 0 0-.41 1.79c.12 0 .11.16.1.3-.07.47.64.17.52.7.16.46-.43.18-.41.5v.9a6 6 0 0 0 2.27.2c.91-.42 2.19-.48 2.79-1.2a1.28 1.28 0 0 0 1.24-.2 2.82 2.82 0 0 0 .21-.7 3.32 3.32 0 0 1-.1-.9v-2.89c-.21-2.29 0-4.94-.31-7.18a9.1 9.1 0 0 0 2.58-.4 4.85 4.85 0 0 0 .52-1.88 1.56 1.56 0 0 0 .21-1 2.4 2.4 0 0 0 .1-1.1c-.14-.6-.17-1.3-.83-1.39-.88-.24-2 .6-3 .3 0-1.13-.29-2.34 0-3.39.76-.18 1.46-.4 2.18-.6zM7.84 10a3.76 3.76 0 0 0 .41.7c.08 0 .2 0 .21.1a10.32 10.32 0 0 0 3.1-.3A7.46 7.46 0 0 1 11 13a10 10 0 0 1-2 .2 7.41 7.41 0 0 0-.62.7 2.26 2.26 0 0 1 0 .8 3.7 3.7 0 0 0-.21.8V17a1.7 1.7 0 0 1-.1.5v3.49a1.75 1.75 0 0 0 .1.5v3a1.46 1.46 0 0 0 .1.9c-.07.36-.41 0-.82.1a7.66 7.66 0 0 1-1.55.4 2.81 2.81 0 0 0 .31-1.1c0-.38-.37-.31-.52-.5.19-.64.56-1.12.72-1.79.2-.51.71-1.3.31-1.79A1 1 0 0 0 6 21c0 .08 0 .2-.1.2s0 .2-.1.2-.15.06 0 0 0-.2.1-.2 0-.2.1-.2v-.3a5.71 5.71 0 0 0 .83-2 4.81 4.81 0 0 0 .41-1 1.29 1.29 0 0 0 .1-1.2 1 1 0 0 0-.93.7c-.32-.19.16-.43.1-.7.14-.23.17-.57.31-.8.2-.41.56-1.3 0-1.6a.66.66 0 0 0-.72.5 1.45 1.45 0 0 0-.52.7c-.37-.07-.14-.73-.21-1.1a8.53 8.53 0 0 0 0-1.2c-.56-.8-2-.11-3.2-.3a2.24 2.24 0 0 1-.1-1.2c1-.09 2.48.2 3.2-.2 0-.08 0-.2.1-.2a1.78 1.78 0 0 0-.51-1.4 17.1 17.1 0 0 0 .1-3 3.28 3.28 0 0 0 .51-.6c.11-1 .67-1.48.72-2.49-.27 0-.61-.05-.62.2-.3-.11-.38.48-.51.2a1.7 1.7 0 0 1 .31-1C6 2.68 6.58 2.28 7.23 1.9c1.74-.24 4.65-.45 6.09.2.04.62-.32.9-.21 1.5h-1.55a30.6 30.6 0 0 0-3 1c-.23.06-.27.33-.51.4a5.91 5.91 0 0 1-.31 1c-.08 1.43.13 2.59.1 4z" fill="#45c2af"/></svg><svg height="24.33" viewBox="0 0 25 25" width="24.83" x="4" y="842"><title>tel-hover</title><path d="M17.32 24.33h-1.11A17.24 17.24 0 0 1 5.1 18.56 19.39 19.39 0 0 1 0 6.82V5.46a3.37 3.37 0 0 1 1.07-2.09 4.5 4.5 0 0 1 2.52-1.55 3.19 3.19 0 0 1 2.23 1.07 7.54 7.54 0 0 1 .78 2.37A8.82 8.82 0 0 1 7.08 8c-.18 1.2-1.76 1.7-2.23 2.57a16.65 16.65 0 0 0 7.47 8.35c.85-.46 1.59-1.86 2.77-1.89a5.12 5.12 0 0 1 1.41.34c.48.14.89.33 1.31.48A5.73 5.73 0 0 1 20.18 19a3.51 3.51 0 0 1 .58 2.23c-.19 1.28-2.22 2.65-3.44 3.1zm-4.79-22.8A10.77 10.77 0 0 1 23.3 12.3h1.53A12.3 12.3 0 0 0 12.53 0v1.53z" fill="#62d2bb"/><path d="M12.53 9.33v1.55a1.42 1.42 0 0 1 1.42 1.42h1.55a3 3 0 0 0-2.97-2.97zm0-3.08a6.05 6.05 0 0 1 6.06 6.05h1.59a7.64 7.64 0 0 0-7.64-7.64v1.59z" fill="#62d2bb"/></svg><svg height="20.17" viewBox="0 0 24 21" width="23.49" x="4" y="871"><title>tw-hover</title><path d="M23.45 4.08A2.16 2.16 0 0 0 22 3.71h-1.07a8.34 8.34 0 0 1 .52-1 5.42 5.42 0 0 0 .22-1.26c.13-.17.18-.42.3-.59A.6.6 0 0 0 22 .23C22 0 21.75 0 21.45 0a.51.51 0 0 0-.22.15c-.45.43-.78 1-1.26 1.41h-.07c-.09 0 0 0-.08.07l-.37.22a3 3 0 0 1-.89.52A6.08 6.08 0 0 0 16.71 2a6.44 6.44 0 0 0-3 .74 7.32 7.32 0 0 0-2.15 1.63 8.05 8.05 0 0 0-.37.74s0 .09-.07.07a1.22 1.22 0 0 1-.07.52c0 .13.2.43 0 .52a7.15 7.15 0 0 1-2.15-1 10.15 10.15 0 0 1-2.12-1.06A6 6 0 0 1 5 2.82a3.58 3.58 0 0 1-.67-.89C4 1.77 4.16 1 3.59 1c-.32 0-.34.2-.44.37a1.63 1.63 0 0 0-.37.52S2.77 2 2.71 2a17.77 17.77 0 0 0-.52 3.26 3.07 3.07 0 0 0 .59 1 1.11 1.11 0 0 0-.89.52 3.72 3.72 0 0 0 .74 2.3 2.94 2.94 0 0 0 .59 1 1 1 0 0 0 .3.45 2.21 2.21 0 0 0 .15.22c0 .11.29.18.07.22a2.75 2.75 0 0 0-1.26.37 1.92 1.92 0 0 0 0 1.11 4.45 4.45 0 0 1 .3.52 18.31 18.31 0 0 0 1.63 1.11 15.23 15.23 0 0 0 1.85.37 1.44 1.44 0 0 1-.59.74 19.23 19.23 0 0 1-2.74.74c-.56 0-1 .23-1.56.22-.37.14-.85.09-1.11.23a.8.8 0 0 0-.22.22.72.72 0 0 0 .44.89.45.45 0 0 0 .37.37.8.8 0 0 0 .44.37 10.58 10.58 0 0 0 1.93 1.11c.83.18 1.65.38 2.52.52s1.9.12 2.82.22h1a9.91 9.91 0 0 0 1.85.07.81.81 0 0 1 .52-.07 9.28 9.28 0 0 0 1.63-.74c.57-.24 1-.64 1.56-.89a10 10 0 0 0 2.52-2.37 1.66 1.66 0 0 0 .36-.73 3.34 3.34 0 0 0 .59-.67 9.92 9.92 0 0 0 1-1.41c.32-.5.58-1.05.89-1.56 0-.41.31-.48.3-.89.19-.23.18-.66.37-.89a1.38 1.38 0 0 1 .07-.59 12.15 12.15 0 0 0-.22-3.4 5.74 5.74 0 0 0 1.63-.59 1 1 0 0 0 .82-1.27zM20 8.16a4.73 4.73 0 0 1-1 2 8.65 8.65 0 0 1-.07.89 4.31 4.31 0 0 0-.37 1c-.2.27-.33.61-.52.89-.37.55-.78 1.05-1.19 1.56s-.91 1-1.33 1.48-.94.88-1.41 1.33a5 5 0 0 0-1.26.67 5 5 0 0 0-.67.3c-.18.15-.5.14-.67.3a24 24 0 0 1-3.51.18 26.33 26.33 0 0 1-3-.37 11.79 11.79 0 0 1-2.3-1 1.58 1.58 0 0 1 1-.22A3 3 0 0 1 4 17a3.47 3.47 0 0 0 .52-.07 9.52 9.52 0 0 0 1.7-.59 8.84 8.84 0 0 0 .67-.59.74.74 0 0 1 .22-.44 2 2 0 0 0 .15-.82 1.2 1.2 0 0 0 .3-.67.6.6 0 0 0-.3-.37 1.48 1.48 0 0 0-.44-.22 1.37 1.37 0 0 1-.59-.08c-.15 0-.49.09-.52-.07a3.61 3.61 0 0 1-1.85-.74 4.48 4.48 0 0 0 1.33-.74c.52-.08 1.06-.13 1.11-.67 0-.72-.77-.66-1.33-.82a12.12 12.12 0 0 1-1.75-2.54A3 3 0 0 0 4 7.12a.6.6 0 0 0 .63-.52.94.94 0 0 0-.63-.81A3.5 3.5 0 0 1 3.37 5a18.47 18.47 0 0 1 .07-2.37c.06 0 .07 0 .07.07.23.44.56.77.82 1.19A8.87 8.87 0 0 0 5.89 5c.45.41 1.11.62 1.56 1a16.41 16.41 0 0 1 1.7 1 4.29 4.29 0 0 0 2 .59l.59-.3c.26-.46-.06-1.08.15-1.63a4.35 4.35 0 0 1 1.26-1.48 7.81 7.81 0 0 0 .85-.54 4.82 4.82 0 0 0 1-.37 6.26 6.26 0 0 0 1-.15h1.26a7 7 0 0 0 .74.15 1.83 1.83 0 0 0 .67.37 4.47 4.47 0 0 1 1.41 3A10.23 10.23 0 0 0 20 8.16zm.3-5.63a1.1 1.1 0 0 1-.59.82 2 2 0 0 0-.15-.22c0-.21.21-.19.3-.3a1.92 1.92 0 0 1 .44-.3c.03-.09.15-.05.04 0zm-5.48 3a1.36 1.36 0 0 0 .52.37.71.71 0 0 0 .59.37 2 2 0 0 0 .37-.22.94.94 0 0 0 .3-.3 2.36 2.36 0 0 0-.37-1.33.93.93 0 0 0-1.37 1.15z" fill="#45c2af"/></svg><svg height="20.17" viewBox="0 0 24 21" width="23.49" x="4" y="896"><title>tw</title><path d="M23.45 4.08A2.16 2.16 0 0 0 22 3.71h-1.07a8.34 8.34 0 0 1 .52-1 5.42 5.42 0 0 0 .22-1.26c.13-.17.18-.42.3-.59A.6.6 0 0 0 22 .23C22 0 21.75 0 21.45 0a.51.51 0 0 0-.22.15c-.45.43-.78 1-1.26 1.41h-.07c-.09 0 0 0-.08.07l-.37.22a3 3 0 0 1-.89.52A6.08 6.08 0 0 0 16.71 2a6.44 6.44 0 0 0-3 .74 7.32 7.32 0 0 0-2.15 1.63 8.05 8.05 0 0 0-.37.74s0 .09-.07.07a1.22 1.22 0 0 1-.07.52c0 .13.2.43 0 .52a7.15 7.15 0 0 1-2.15-1 10.15 10.15 0 0 1-2.12-1.06A6 6 0 0 1 5 2.82a3.58 3.58 0 0 1-.67-.89C4 1.77 4.16 1 3.59 1c-.32 0-.34.2-.44.37a1.63 1.63 0 0 0-.37.52S2.77 2 2.71 2a17.77 17.77 0 0 0-.52 3.26 3.07 3.07 0 0 0 .59 1 1.11 1.11 0 0 0-.89.52 3.72 3.72 0 0 0 .74 2.3 2.94 2.94 0 0 0 .59 1 1 1 0 0 0 .3.45 2.21 2.21 0 0 0 .15.22c0 .11.29.18.07.22a2.75 2.75 0 0 0-1.26.37 1.92 1.92 0 0 0 0 1.11 4.45 4.45 0 0 1 .3.52 18.31 18.31 0 0 0 1.63 1.11 15.23 15.23 0 0 0 1.85.37 1.44 1.44 0 0 1-.59.74 19.23 19.23 0 0 1-2.74.74c-.56 0-1 .23-1.56.22-.37.14-.85.09-1.11.23a.8.8 0 0 0-.22.22.72.72 0 0 0 .44.89.45.45 0 0 0 .37.37.8.8 0 0 0 .44.37 10.58 10.58 0 0 0 1.93 1.11c.83.18 1.65.38 2.52.52s1.9.12 2.82.22h1a9.91 9.91 0 0 0 1.85.07.81.81 0 0 1 .52-.07 9.28 9.28 0 0 0 1.63-.74c.57-.24 1-.64 1.56-.89a10 10 0 0 0 2.52-2.37 1.66 1.66 0 0 0 .36-.73 3.34 3.34 0 0 0 .59-.67 9.92 9.92 0 0 0 1-1.41c.32-.5.58-1.05.89-1.56 0-.41.31-.48.3-.89.19-.23.18-.66.37-.89a1.38 1.38 0 0 1 .07-.59 12.15 12.15 0 0 0-.22-3.4 5.74 5.74 0 0 0 1.63-.59 1 1 0 0 0 .82-1.27zM20 8.16a4.73 4.73 0 0 1-1 2 8.65 8.65 0 0 1-.07.89 4.31 4.31 0 0 0-.37 1c-.2.27-.33.61-.52.89-.37.55-.78 1.05-1.19 1.56s-.91 1-1.33 1.48-.94.88-1.41 1.33a5 5 0 0 0-1.26.67 5 5 0 0 0-.67.3c-.18.15-.5.14-.67.3a24 24 0 0 1-3.51.18 26.33 26.33 0 0 1-3-.37 11.79 11.79 0 0 1-2.3-1 1.58 1.58 0 0 1 1-.22A3 3 0 0 1 4 17a3.47 3.47 0 0 0 .52-.07 9.52 9.52 0 0 0 1.7-.59 8.84 8.84 0 0 0 .67-.59.74.74 0 0 1 .22-.44 2 2 0 0 0 .15-.82 1.2 1.2 0 0 0 .3-.67.6.6 0 0 0-.3-.37 1.48 1.48 0 0 0-.44-.22 1.37 1.37 0 0 1-.59-.08c-.15 0-.49.09-.52-.07a3.61 3.61 0 0 1-1.85-.74 4.48 4.48 0 0 0 1.33-.74c.52-.08 1.06-.13 1.11-.67 0-.72-.77-.66-1.33-.82a12.12 12.12 0 0 1-1.75-2.54A3 3 0 0 0 4 7.12a.6.6 0 0 0 .63-.52.94.94 0 0 0-.63-.81A3.5 3.5 0 0 1 3.37 5a18.47 18.47 0 0 1 .07-2.37c.06 0 .07 0 .07.07.23.44.56.77.82 1.19A8.87 8.87 0 0 0 5.89 5c.45.41 1.11.62 1.56 1a16.41 16.41 0 0 1 1.7 1 4.29 4.29 0 0 0 2 .59l.59-.3c.26-.46-.06-1.08.15-1.63a4.35 4.35 0 0 1 1.26-1.48 7.81 7.81 0 0 0 .85-.54 4.82 4.82 0 0 0 1-.37 6.26 6.26 0 0 0 1-.15h1.26a7 7 0 0 0 .74.15 1.83 1.83 0 0 0 .67.37 4.47 4.47 0 0 1 1.41 3A10.23 10.23 0 0 0 20 8.16zm.3-5.63a1.1 1.1 0 0 1-.59.82 2 2 0 0 0-.15-.22c0-.21.21-.19.3-.3a1.92 1.92 0 0 1 .44-.3c.03-.09.15-.05.04 0zm-5.48 3a1.36 1.36 0 0 0 .52.37.71.71 0 0 0 .59.37 2 2 0 0 0 .37-.22.94.94 0 0 0 .3-.3 2.36 2.36 0 0 0-.37-1.33.93.93 0 0 0-1.37 1.15z" fill="#231f20"/></svg><svg height="21.33" viewBox="0 0 22 22" width="21.77" x="4" y="921"><title>inst-hover</title><path d="M21.77 12.15c0-2.39-.34-4.79-.3-7.13 0-.79-.09-1.54-.15-2.28a5.29 5.29 0 0 1-.15-1.06 8.8 8.8 0 0 1-.47-.85A7.67 7.67 0 0 0 19 .61c-.66 0-1.25-.12-1.9-.15-1.94-.1-4-.08-6-.08A43.25 43.25 0 0 1 5.37 0h-2.2a.6.6 0 0 1-.23.08 9.25 9.25 0 0 0-1.59.3 2.81 2.81 0 0 1-.68.3 3 3 0 0 0-.61.38c-.19.21.18.45 0 .61v.91a1.73 1.73 0 0 1 .08.83v1c0 1.28.13 2.4.08 3.72a38.7 38.7 0 0 1 .08 9.41 14.11 14.11 0 0 1 .46 1.75 7.61 7.61 0 0 0 .68 1.52 6.73 6.73 0 0 0 1.9.23 4.34 4.34 0 0 0 1.14.3c2.84-.21 5.5-.15 8.43-.23a34.61 34.61 0 0 0 8.28-.23 1.77 1.77 0 0 0 .23-.76 2.22 2.22 0 0 1 .23-.76c.1-2.36.13-4.79.12-7.21zm-13-6.22a9.43 9.43 0 0 1 2.43-.3 10.79 10.79 0 0 1 1.9.46c.12.18-.24.55.15.68v.06c.06 0 .15 0 .15.08a1.92 1.92 0 0 1 1.06.38c.45.05.54.48 1.14.38a2.18 2.18 0 0 0-.08.83 11.88 11.88 0 0 1 .3 4.25 1.86 1.86 0 0 0-.3.68 9.81 9.81 0 0 1-.84 1.06 1.08 1.08 0 0 1-.45.53.89.89 0 0 1-.46.53 1 1 0 0 1-.77-.06 3.44 3.44 0 0 0-1.21.61c-.82-.1-1.65-.17-2.43-.3a1.94 1.94 0 0 0-.83-.3 2 2 0 0 0-.89-.5 3.79 3.79 0 0 0-.46-.23 2.32 2.32 0 0 0-.46-.23 11.72 11.72 0 0 1-.53-1.06 5.55 5.55 0 0 1-.46-1.21 13.41 13.41 0 0 1 .38-3.8c.35-.59.78-1.09 1.14-1.67a.3.3 0 0 0 .38-.3 2.53 2.53 0 0 0 .68-.08 1.78 1.78 0 0 0 .47-.5zM7.11 3.19A3.27 3.27 0 0 1 7 2.13a2.84 2.84 0 0 1 .3-.53c0-.07-.09-.06-.15-.08a1 1 0 0 1 .83 0c.18.53-.31.48-.49.68 0 .17.32 0 .46.08 0 .85-.06 1.5 0 2.2h-.46c0 .23.23.23.46.23a2.68 2.68 0 0 0 .05.6 3 3 0 0 1-1 .08c-.14-.59.2-1.39.11-2.2zm-.68-1.6a.12.12 0 0 1 .15.08 1.1 1.1 0 0 1-.08.91 2.44 2.44 0 0 1-.07-.99zm.15 1.83A.44.44 0 0 1 6.43 3a.44.44 0 0 1 .15.42zm0 1.37c-.06.14-.08 0-.08-.15s.09.04.08.14zM6.43 5a.77.77 0 0 1 .23.23c0 .19-.28.18-.38.08s.11-.19.15-.31zM4.08 3.79c0-.11 0-.21-.08-.23-.07-.73.13-1.41 0-2a3.41 3.41 0 0 1 1.14-.08v1.18a.49.49 0 0 1-.38.08c-.05.26.32.12.38.26a9.3 9.3 0 0 0 .15 2.43c-.57-.06-.91.11-1.44.08.1-.61 0-1.43.53-1.59a.81.81 0 0 0-.3-.13zm-.53 0c-.2 0-.22-.53-.08-.61.33.01.25.51.08.61zm-.15 1a3.67 3.67 0 0 0 .07-.69c.23.01.26.77-.08.68zm.23-2c-.26.05-.27-.27-.15-.38s.26.21.14.32zm0-1.14a.49.49 0 0 1-.08.3.78.78 0 0 1-.23-.23c.02-.15.19-.11.3-.13zm-.24 3.66c.15 0 .11.34-.08.23a.36.36 0 0 0 .08-.23zm-.68-3.72c0 .26-.44.32-.38 0h.38zm-1 .08a3.52 3.52 0 0 1-.37.33c-.21-.12.09-.42.38-.33zm-.46.76L2 1.82a.58.58 0 0 1 0-.23h.26c.1.41-.26.3-.26.53a.62.62 0 0 1-.08.23 4.67 4.67 0 0 1 .08 1 1.79 1.79 0 0 1-.61.23c-.02-.44-.18-.69-.12-1.15zm.09 3.26V4.1c.2-.18.4-.36.61-.53.3.49.18 1.43.46 1.89a8.81 8.81 0 0 1-1.07.23zm18.22 11.09a21.35 21.35 0 0 1-.38 2.81c-2.89.12-6 0-8.88.15-.2 0-.27 0-.23-.23a4.45 4.45 0 0 1-.53.23 1.24 1.24 0 0 0 .15-1.29c-.8 0-.8.82-1.14 1.29-.69-.05-1.14.13-1.82.08.18-.71.75-1 .91-1.75-.39-.55-1 .14-1.21.45-.2.48-.56.81-.76 1.29h-1c.24-.47.49-.93.76-1.37a5.13 5.13 0 0 0 .68-1.37c-.16-.28-.42 0-.68 0-.12.18-.27.33-.38.53a8.63 8.63 0 0 0-.68 1.14c-.17.26-.37.01-.52.26-.39.27-.58.74-1 1-.17-.06 0-.36.15-.38a.9.9 0 0 1 .09-.62 2.41 2.41 0 0 1 .38-.91c.12-.74.52-1.2.68-1.9a1.93 1.93 0 0 0-1 1 7.29 7.29 0 0 0-.68 1.29 1.72 1.72 0 0 1-.08-.84c.12-.59.3-1.12.38-1.75A2.61 2.61 0 0 0 3 15a.71.71 0 0 0-.08-.76.54.54 0 0 0-.45.3c-.19 0-.19.51-.3.3 0-2.59-.45-4.81-.46-7.44a1.94 1.94 0 0 0-.21-.64c1.63 0 3.12.09 4.78.23a3.45 3.45 0 0 1-.3.38 1.88 1.88 0 0 0-.38.3 12.67 12.67 0 0 0-.6 6.15 4.39 4.39 0 0 0 1 1.44c.91.49 1.63 1.15 2.51 1.67a14.15 14.15 0 0 0 5.54 0 4.32 4.32 0 0 0 .68-.38c1.36-1.24 2.75-2.46 3-4.86v-1.37a4.93 4.93 0 0 0-1.75-3.64 3.86 3.86 0 0 1 1.67.08 5.8 5.8 0 0 0 .68 0 8.77 8.77 0 0 1 1.44 0 5.75 5.75 0 0 1 .23.76c-.06 1.68-.19 3.3-.15 5.09.1.45.13 1 .23 1.44a17 17 0 0 1-.52 2.73zm.38-11.16c-.64-.12-1.23-.29-1.94-.38.07-.33.8 0 1-.23.38-.22.29-.92.3-1.52a5 5 0 0 0 .08-1.06C19 1.48 17.63 2 16.53 2a6 6 0 0 0-.3 2.66c.17.49 1 .29 1.52.46-.14.33-.69.06-1 .08s-.75-.09-.98-.2c-2.29.08-4.28 0-6.53.15a17.2 17.2 0 0 0-.08-3.64h3.11c-.34.37-.91.49-1.27.84a3.15 3.15 0 0 0-1.14.91 1 1 0 0 0 .76-.38c.36-.07.48-.38.83-.46a5.9 5.9 0 0 1 1.67-.91 3.54 3.54 0 0 1 1 .08c1.28 0 2.46.13 3.8.08a13 13 0 0 1 2 .3 7.11 7.11 0 0 1 .3.91 25.58 25.58 0 0 1-.28 2.74zM14.1 1.9c.11 0 0-.09 0 0zm0 0a3.26 3.26 0 0 0-1.37.68 3.31 3.31 0 0 0 1.37-.68zm1.06.6c.11 0 0-.09 0 0zm-1.75.91a6 6 0 0 0 1.75-.91 7.1 7.1 0 0 0-1 .38 3.72 3.72 0 0 0-.74.54zm-.68-.84c-.11 0 0 .09 0 0zm-.73.62c.11 0 0-.09 0 0zm0 .07c.06 0 .07 0 .08-.08s-.08.04-.08.08zm-.08.08c.06 0 .07 0 .08-.08s-.1.03-.1.08zm-.83.61a2.06 2.06 0 0 0 .83-.61 2 2 0 0 0-.86.61zm2.28 1a6.68 6.68 0 0 0 1.21-.53 4.59 4.59 0 0 0 1-.76 4.11 4.11 0 0 0-1.22.53 7.44 7.44 0 0 0-1.02.74zm-2.28-1c-.32-.07 0 .23 0 0zm-.53.38s.12 0 .08-.08-.15.04-.11.08zm2.81.61c-.11 0 0 .09 0 0zM12.2 6.76a3.35 3.35 0 0 0-1-.38 5.32 5.32 0 0 0-1.75.23l-.91.45a4.08 4.08 0 0 1-.76.53 1.59 1.59 0 0 1-.68.61.48.48 0 0 1-.3.38 1.09 1.09 0 0 1-.22.42c0 .12 0 .29-.08.3a18.36 18.36 0 0 0 .68 4.18 5 5 0 0 0 1.44 1.29 6.32 6.32 0 0 0 2.13.53 3.19 3.19 0 0 1 .91-.08 5.09 5.09 0 0 0 2.81-1.44 1.58 1.58 0 0 1 .45-.68c-.25-.67.29-1.1.46-1.6a8.52 8.52 0 0 0-.6-3.5 4 4 0 0 0-1.37-1.14c-.06 0-.15 0-.15-.08a1.36 1.36 0 0 0-1.06-.02zm-3.42 4.32a.62.62 0 0 1-.15-.38c.26-.07.12.24.15.38zm.08.3c0-.12.08 0 .08.08s-.08.01-.08-.07zm.46-2.04c0-.09.08 0 .08 0s-.08.04-.08 0zM11 7.21a1 1 0 0 0 .08.84c-.32-.05-.59-.89-.08-.84zm.38 3.95s.05-.1.08-.08-.07.1-.09.08zm.74 2.84c0-.11.07 0 .15 0a.08.08 0 0 1-.15 0zm2.2-2.58c-.23-.06-.14.21-.38.15a1.57 1.57 0 0 1 .23-.46c.14.07.18.18.16.35zm-1.14-3.8a2.75 2.75 0 0 1 .61.38 2 2 0 0 0 .38.53 20.57 20.57 0 0 1 .15 2.35c-.26.1-.44.27-.68.38a4.44 4.44 0 0 1-1.9-.46c-.17-.26-.36-.5-.53-.76V9a4.2 4.2 0 0 0 .46-.61.56.56 0 0 0 .45-.61.38.38 0 0 1-.12-.19 2 2 0 0 1 .38.23 6 6 0 0 1 .81-.15z" fill="#45c2af"/></svg><svg height="21.33" viewBox="0 0 22 22" width="21.77" x="4" y="947"><title>inst</title><path d="M21.77 12.15c0-2.39-.34-4.79-.3-7.13 0-.79-.09-1.54-.15-2.28a5.29 5.29 0 0 1-.15-1.06 8.8 8.8 0 0 1-.47-.85A7.67 7.67 0 0 0 19 .61c-.66 0-1.25-.12-1.9-.15-1.94-.1-4-.08-6-.08A43.25 43.25 0 0 1 5.37 0h-2.2a.6.6 0 0 1-.23.08 9.25 9.25 0 0 0-1.59.3 2.81 2.81 0 0 1-.68.3 3 3 0 0 0-.61.38c-.19.21.18.45 0 .61v.91a1.73 1.73 0 0 1 .08.83v1c0 1.28.13 2.4.08 3.72a38.7 38.7 0 0 1 .08 9.41 14.11 14.11 0 0 1 .46 1.75 7.61 7.61 0 0 0 .68 1.52 6.73 6.73 0 0 0 1.9.23 4.34 4.34 0 0 0 1.14.3c2.84-.21 5.5-.15 8.43-.23a34.61 34.61 0 0 0 8.28-.23 1.77 1.77 0 0 0 .23-.76 2.22 2.22 0 0 1 .23-.76c.1-2.36.13-4.79.12-7.21zm-13-6.22a9.43 9.43 0 0 1 2.43-.3 10.79 10.79 0 0 1 1.9.46c.12.18-.24.55.15.68v.06c.06 0 .15 0 .15.08a1.92 1.92 0 0 1 1.06.38c.45.05.54.48 1.14.38a2.18 2.18 0 0 0-.08.83 11.88 11.88 0 0 1 .3 4.25 1.86 1.86 0 0 0-.3.68 9.81 9.81 0 0 1-.84 1.06 1.08 1.08 0 0 1-.45.53.89.89 0 0 1-.46.53 1 1 0 0 1-.77-.06 3.44 3.44 0 0 0-1.21.61c-.82-.1-1.65-.17-2.43-.3a1.94 1.94 0 0 0-.83-.3 2 2 0 0 0-.89-.5 3.79 3.79 0 0 0-.46-.23 2.32 2.32 0 0 0-.46-.23 11.72 11.72 0 0 1-.53-1.06 5.55 5.55 0 0 1-.46-1.21 13.41 13.41 0 0 1 .38-3.8c.35-.59.78-1.09 1.14-1.67a.3.3 0 0 0 .38-.3 2.53 2.53 0 0 0 .68-.08 1.78 1.78 0 0 0 .47-.5zM7.11 3.19A3.27 3.27 0 0 1 7 2.13a2.84 2.84 0 0 1 .3-.53c0-.07-.09-.06-.15-.08a1 1 0 0 1 .83 0c.18.53-.31.48-.49.68 0 .17.32 0 .46.08 0 .85-.06 1.5 0 2.2h-.46c0 .23.23.23.46.23a2.68 2.68 0 0 0 .05.6 3 3 0 0 1-1 .08c-.14-.59.2-1.39.11-2.2zm-.68-1.6a.12.12 0 0 1 .15.08 1.1 1.1 0 0 1-.08.91 2.44 2.44 0 0 1-.07-.99zm.15 1.83A.44.44 0 0 1 6.43 3a.44.44 0 0 1 .15.42zm0 1.37c-.06.14-.08 0-.08-.15s.09.04.08.14zM6.43 5a.77.77 0 0 1 .23.23c0 .19-.28.18-.38.08s.11-.19.15-.31zM4.08 3.79c0-.11 0-.21-.08-.23-.07-.73.13-1.41 0-2a3.41 3.41 0 0 1 1.14-.08v1.18a.49.49 0 0 1-.38.08c-.05.26.32.12.38.26a9.3 9.3 0 0 0 .15 2.43c-.57-.06-.91.11-1.44.08.1-.61 0-1.43.53-1.59a.81.81 0 0 0-.3-.13zm-.53 0c-.2 0-.22-.53-.08-.61.33.01.25.51.08.61zm-.15 1a3.67 3.67 0 0 0 .07-.69c.23.01.26.77-.08.68zm.23-2c-.26.05-.27-.27-.15-.38s.26.21.14.32zm0-1.14a.49.49 0 0 1-.08.3.78.78 0 0 1-.23-.23c.02-.15.19-.11.3-.13zm-.24 3.66c.15 0 .11.34-.08.23a.36.36 0 0 0 .08-.23zm-.68-3.72c0 .26-.44.32-.38 0h.38zm-1 .08a3.52 3.52 0 0 1-.37.33c-.21-.12.09-.42.38-.33zm-.46.76L2 1.82a.58.58 0 0 1 0-.23h.26c.1.41-.26.3-.26.53a.62.62 0 0 1-.08.23 4.67 4.67 0 0 1 .08 1 1.79 1.79 0 0 1-.61.23c-.02-.44-.18-.69-.12-1.15zm.09 3.26V4.1c.2-.18.4-.36.61-.53.3.49.18 1.43.46 1.89a8.81 8.81 0 0 1-1.07.23zm18.22 11.09a21.35 21.35 0 0 1-.38 2.81c-2.89.12-6 0-8.88.15-.2 0-.27 0-.23-.23a4.45 4.45 0 0 1-.53.23 1.24 1.24 0 0 0 .15-1.29c-.8 0-.8.82-1.14 1.29-.69-.05-1.14.13-1.82.08.18-.71.75-1 .91-1.75-.39-.55-1 .14-1.21.45-.2.48-.56.81-.76 1.29h-1c.24-.47.49-.93.76-1.37a5.13 5.13 0 0 0 .68-1.37c-.16-.28-.42 0-.68 0-.12.18-.27.33-.38.53a8.63 8.63 0 0 0-.68 1.14c-.17.26-.37.01-.52.26-.39.27-.58.74-1 1-.17-.06 0-.36.15-.38a.9.9 0 0 1 .09-.62 2.41 2.41 0 0 1 .38-.91c.12-.74.52-1.2.68-1.9a1.93 1.93 0 0 0-1 1 7.29 7.29 0 0 0-.68 1.29 1.72 1.72 0 0 1-.08-.84c.12-.59.3-1.12.38-1.75A2.61 2.61 0 0 0 3 15a.71.71 0 0 0-.08-.76.54.54 0 0 0-.45.3c-.19 0-.19.51-.3.3 0-2.59-.45-4.81-.46-7.44a1.94 1.94 0 0 0-.21-.64c1.63 0 3.12.09 4.78.23a3.45 3.45 0 0 1-.3.38 1.88 1.88 0 0 0-.38.3 12.67 12.67 0 0 0-.6 6.15 4.39 4.39 0 0 0 1 1.44c.91.49 1.63 1.15 2.51 1.67a14.15 14.15 0 0 0 5.54 0 4.32 4.32 0 0 0 .68-.38c1.36-1.24 2.75-2.46 3-4.86v-1.37a4.93 4.93 0 0 0-1.75-3.64 3.86 3.86 0 0 1 1.67.08 5.8 5.8 0 0 0 .68 0 8.77 8.77 0 0 1 1.44 0 5.75 5.75 0 0 1 .23.76c-.06 1.68-.19 3.3-.15 5.09.1.45.13 1 .23 1.44a17 17 0 0 1-.52 2.73zm.38-11.16c-.64-.12-1.23-.29-1.94-.38.07-.33.8 0 1-.23.38-.22.29-.92.3-1.52a5 5 0 0 0 .08-1.06C19 1.48 17.63 2 16.53 2a6 6 0 0 0-.3 2.66c.17.49 1 .29 1.52.46-.14.33-.69.06-1 .08s-.75-.09-.98-.2c-2.29.08-4.28 0-6.53.15a17.2 17.2 0 0 0-.08-3.64h3.11c-.34.37-.91.49-1.27.84a3.15 3.15 0 0 0-1.14.91 1 1 0 0 0 .76-.38c.36-.07.48-.38.83-.46a5.9 5.9 0 0 1 1.67-.91 3.54 3.54 0 0 1 1 .08c1.28 0 2.46.13 3.8.08a13 13 0 0 1 2 .3 7.11 7.11 0 0 1 .3.91 25.58 25.58 0 0 1-.28 2.74zM14.1 1.9c.11 0 0-.09 0 0zm0 0a3.26 3.26 0 0 0-1.37.68 3.31 3.31 0 0 0 1.37-.68zm1.06.6c.11 0 0-.09 0 0zm-1.75.91a6 6 0 0 0 1.75-.91 7.1 7.1 0 0 0-1 .38 3.72 3.72 0 0 0-.74.54zm-.68-.84c-.11 0 0 .09 0 0zm-.73.62c.11 0 0-.09 0 0zm0 .07c.06 0 .07 0 .08-.08s-.08.04-.08.08zm-.08.08c.06 0 .07 0 .08-.08s-.1.03-.1.08zm-.83.61a2.06 2.06 0 0 0 .83-.61 2 2 0 0 0-.86.61zm2.28 1a6.68 6.68 0 0 0 1.21-.53 4.59 4.59 0 0 0 1-.76 4.11 4.11 0 0 0-1.22.53 7.44 7.44 0 0 0-1.02.74zm-2.28-1c-.32-.07 0 .23 0 0zm-.53.38s.12 0 .08-.08-.15.04-.11.08zm2.81.61c-.11 0 0 .09 0 0zM12.2 6.76a3.35 3.35 0 0 0-1-.38 5.32 5.32 0 0 0-1.75.23l-.91.45a4.08 4.08 0 0 1-.76.53 1.59 1.59 0 0 1-.68.61.48.48 0 0 1-.3.38 1.09 1.09 0 0 1-.22.42c0 .12 0 .29-.08.3a18.36 18.36 0 0 0 .68 4.18 5 5 0 0 0 1.44 1.29 6.32 6.32 0 0 0 2.13.53 3.19 3.19 0 0 1 .91-.08 5.09 5.09 0 0 0 2.81-1.44 1.58 1.58 0 0 1 .45-.68c-.25-.67.29-1.1.46-1.6a8.52 8.52 0 0 0-.6-3.5 4 4 0 0 0-1.37-1.14c-.06 0-.15 0-.15-.08a1.36 1.36 0 0 0-1.06-.02zm-3.42 4.32a.62.62 0 0 1-.15-.38c.26-.07.12.24.15.38zm.08.3c0-.12.08 0 .08.08s-.08.01-.08-.07zm.46-2.04c0-.09.08 0 .08 0s-.08.04-.08 0zM11 7.21a1 1 0 0 0 .08.84c-.32-.05-.59-.89-.08-.84zm.38 3.95s.05-.1.08-.08-.07.1-.09.08zm.74 2.84c0-.11.07 0 .15 0a.08.08 0 0 1-.15 0zm2.2-2.58c-.23-.06-.14.21-.38.15a1.57 1.57 0 0 1 .23-.46c.14.07.18.18.16.35zm-1.14-3.8a2.75 2.75 0 0 1 .61.38 2 2 0 0 0 .38.53 20.57 20.57 0 0 1 .15 2.35c-.26.1-.44.27-.68.38a4.44 4.44 0 0 1-1.9-.46c-.17-.26-.36-.5-.53-.76V9a4.2 4.2 0 0 0 .46-.61.56.56 0 0 0 .45-.61.38.38 0 0 1-.12-.19 2 2 0 0 1 .38.23 6 6 0 0 1 .81-.15z" fill="#231f20"/></svg><svg height="16.09" viewBox="0 0 22 17" width="21.7" x="4" y="973"><title>confirm-mobile</title><path d="M21.36.3a1 1 0 0 0-1.41 0L6.61 13.68l-4.9-4.9a1 1 0 0 0-1.41 0 1 1 0 0 0 0 1.41l5.61 5.61a1 1 0 0 0 .71.29 1 1 0 0 0 .74-.29l14-14.09a1 1 0 0 0 0-1.41z"/></svg><svg height="18.85" viewBox="0 0 21 19" width="20.29" x="4" y="994"><title>basket-hover</title><path d="M19.54 7.23h-3.15L13 .41a.75.75 0 1 0-1.34.67l3.07 6.14H5.58l3.07-6.13A.751.751 0 1 0 7.31.41L3.9 7.23H.75a.75.75 0 1 0 0 1.5h.16l.85 3a.73.73 0 0 0 .38 1.33l1.66 5.79h12.7l1.66-5.79a.74.74 0 0 0 .7-.74.74.74 0 0 0-.32-.6l.85-3h.16a.75.75 0 0 0-.01-1.49zm-4.18 10.12H4.93l-1.22-4.29h12.88zM17 11.56H3.28l-.81-2.83h15.36z" fill="#63d2bc"/></svg><svg height="18.85" viewBox="0 0 21 19" width="20.29" x="4" y="1017"><title>basket</title><path d="M19.54 7.23h-3.15L13 .41a.75.75 0 1 0-1.34.67l3.07 6.14H5.58l3.07-6.13A.751.751 0 1 0 7.31.41L3.9 7.23H.75a.75.75 0 1 0 0 1.5h.16l.85 3a.73.73 0 0 0 .38 1.33l1.66 5.79h12.7l1.66-5.79a.74.74 0 0 0 .7-.74.74.74 0 0 0-.32-.6l.85-3h.16a.75.75 0 0 0-.01-1.49zm-4.18 10.12H4.93l-1.22-4.29h12.88zM17 11.56H3.28l-.81-2.83h15.36z" fill="#d2d1d1"/></svg><svg height="14" viewBox="0 0 20 14" width="19.96" x="4" y="1040"><title>main-nav-button</title><path fill="#231f20" d="M0 0h19.96v2H0zm0 6h19.96v2H0zm0 6h19.96v2H0z"/></svg><svg height="17.6" viewBox="0 0 18 18" width="17.6" x="4" y="1058"><title>search</title><path d="M17.27 15.73l-3.41-3.42a7.75 7.75 0 1 0-1.54 1.54l3.42 3.42a1 1 0 0 0 .77.33 1.1 1.1 0 0 0 1.1-1.1 1 1 0 0 0-.34-.77zM2.2 7.7a5.5 5.5 0 1 1 5.5 5.5 5.5 5.5 0 0 1-5.5-5.5z" fill="#d2d1d1"/></svg><svg height="17.6" viewBox="0 0 18 18" width="17.6" x="4" y="1080"><title>search-hover</title><path d="M17.27 15.73l-3.41-3.42a7.75 7.75 0 1 0-1.54 1.54l3.42 3.42a1 1 0 0 0 .77.33 1.1 1.1 0 0 0 1.1-1.1 1 1 0 0 0-.34-.77zM2.2 7.7a5.5 5.5 0 1 1 5.5 5.5 5.5 5.5 0 0 1-5.5-5.5z" fill="#63d2bc"/></svg></svg>