<svg data-name="Capa 1" xmlns="http://www.w3.org/2000/svg" viewBox="0 0 60 58"><title>chat</title><path d="M54.07 0H15.93A5.94 5.94 0 0 0 10 5.93V14H5.93A5.94 5.94 0 0 0 0 19.93v21.14A5.94 5.94 0 0 0 5.93 47H12v10a1 1 0 0 0 1.74.67L23.44 47h20.63A5.94 5.94 0 0 0 50 41.07V33h4.07A5.94 5.94 0 0 0 60 27.07V5.93A5.94 5.94 0 0 0 54.07 0zM48 41.07A3.93 3.93 0 0 1 44.07 45H23a1 1 0 0 0-.74.33L14 54.41V46a1 1 0 0 0-1-1H5.93A3.93 3.93 0 0 1 2 41.07V19.93A3.93 3.93 0 0 1 5.93 16h38.14A3.93 3.93 0 0 1 48 19.93v21.14zm10-14A3.93 3.93 0 0 1 54.07 31H50V19.93a5.94 5.94 0 0 0-4.17-5.66 5.69 5.69 0 0 0-.57-.15 5.88 5.88 0 0 0-1.19-.12H12V5.93A3.93 3.93 0 0 1 15.93 2h38.14A3.93 3.93 0 0 1 58 5.93z"/><path d="M12 26h14a1 1 0 0 0 0-2H12a1 1 0 0 0 0 2zm27 4H12a1 1 0 0 0 0 2h27a1 1 0 0 0 0-2zm0 6H12a1 1 0 0 0 0 2h27a1 1 0 0 0 0-2z"/></svg>