<svg data-name="Capa 1" xmlns="http://www.w3.org/2000/svg" viewBox="0 0 320 480.02"><title>chef</title><path d="M243.41 336.82a7.88 7.88 0 0 0-3.42-.82 7.73 7.73 0 0 0-1.6.32c-2.12-.15-4.23-.32-6.4-.32h-8.15a79.52 79.52 0 0 0 16.15-48 24 24 0 0 0 0-48v-31.2l7.7-38.5 13.73-34.3h2.57a48 48 0 1 0-25.34-88.66 60 60 0 0 0-106.81-23.11 48 48 0 1 0-43.85 79.13v39.86l-7.84 39.2a6 6 0 0 0 0 .85c0 .25-.16.47-.16.72v56a24 24 0 0 0 0 48 79.52 79.52 0 0 0 16.15 48h-8.15a88.1 88.1 0 0 0-88 88v48a8 8 0 0 0 8 8h304a8 8 0 0 0 8-8V424a88.07 88.07 0 0 0-76.58-87.18zM79.99 272a8 8 0 0 1 0-16zm144-41.18a48.53 48.53 0 0 1-25-20.21l25 4.17zm1.67-32L97.47 177.5l4.86-24.3 128.2 21.36zm-53 7.38c-12.55 18.48-53.4 24.44-76.69 25.55v-38.3zm75.33 57.8a8 8 0 0 1-8 8v-16a8 8 0 0 1 8 8zm-184-208a31.94 31.94 0 0 1 61-13.3 8.22 8.22 0 0 0 7.36 4.66 8 8 0 0 0 7.25-4.8A44 44 0 0 1 223.99 60c0 1.29-.1 2.55-.19 3.82a8 8 0 0 0 14.4 5.38A31.67 31.67 0 0 1 263.99 56a32 32 0 0 1 0 64h-8a8 8 0 0 0-7.43 5l-13.6 34-130.97-21.75V96a8 8 0 0 0-8-8 32 32 0 0 1-32-32zm32 232v-40.2c20-.85 68.87-5.46 88.38-30.22a63 63 0 0 0 39.62 29.72V288a64 64 0 0 1-128 0zm-16 120v56h-24v-32a8 8 0 0 0-16 0v32h-24v-40a72.08 72.08 0 0 1 72-72h24.16a79.39 79.39 0 0 0 95.68 0h24.16v25.17L86.75 400.13a8 8 0 0 0-6.76 7.87zm224 56h-32v-24a8 8 0 0 0-16 0v24h-160v-49.14l145.25-22.94a8 8 0 0 0 6.75-7.92v-30.12a72.08 72.08 0 0 1 56 70.12v40z"/><path d="M127.99 256a8 8 0 0 0-8 8v8a8 8 0 0 0 16 0v-8a8 8 0 0 0-8-8zm64 0a8 8 0 0 0-8 8v8a8 8 0 0 0 16 0v-8a8 8 0 0 0-8-8zm6.4 51.22a8 8 0 0 0-11.19-1.6 45.6 45.6 0 0 1-54.4 0 8 8 0 0 0-9.6 12.8 61.66 61.66 0 0 0 73.6 0 8 8 0 0 0 1.59-11.2zM123.99 424a12 12 0 1 0 12 12 12 12 0 0 0-12-12zm0 16a4 4 0 1 1 4-4 4 4 0 0 1-4 4z"/></svg>