<svg data-name="Capa 1" xmlns="http://www.w3.org/2000/svg" viewBox="0 0 512.02 513.2"><title>contact</title><path d="M405.35 486.75a5.12 5.12 0 0 1-5.12 5.12H69.56a5.12 5.12 0 0 1-5.53-4.67V34.16a36.49 36.49 0 0 0-1.92-11.63h329.05a14.29 14.29 0 0 1 14.19 14.4V225.2h21.33V37a35.73 35.73 0 0 0-35.52-35.8h-351a29.23 29.23 0 0 0-24.57 3.73A37 37 0 0 0 .02 35.55v77.76a25.71 25.71 0 0 0 24.83 26.56h17.83v346.88a26.45 26.45 0 0 0 26.45 26.45H399.8a26.45 26.45 0 0 0 26.88-26v-91.33h-21.33zM42.68 118.53H24.87c-1.71 0-3.52-2.13-3.52-5.12V35.55a16 16 0 0 1 6.08-13 7.9 7.9 0 0 1 4.59-1.39v1.39h4.48a13.34 13.34 0 0 1 6.19 11.63v84.37z"/><path d="M508.92 250.48l-33.17-33.17a10.67 10.67 0 0 0-15 0L295.05 383a10.67 10.67 0 0 0-2.13 3.2l-27.63 60.69a10.67 10.67 0 0 0 14.12 14.04l60.69-27.63a10.67 10.67 0 0 0 3.2-2.13l165.62-165.65a10.67 10.67 0 0 0 0-15.04zM296.41 429.79l9.49-21.33 11.41 11.41zm39.25-21.33l-18-17.92 111.89-112L448 296.67zm127-126.93l-18-18 23.57-23.57 18 18zM138.68 75.87h192V97.2h-192zm0 74.66h192v21.33h-192zm0 74.67h192v21.33h-192zm0 74.67h85.33v21.33h-85.33zm117.33 0h21.33v21.33h-21.33zm53.34 0h21.33v21.33h-21.33z"/></svg>