<svg data-name="Layer 1" xmlns="http://www.w3.org/2000/svg" viewBox="0 0 468.35 512"><title>delivery-man</title><path d="M198.09 289.84a7.8 7.8 0 0 0-11-11 27.49 27.49 0 0 1-38.88 0 7.8 7.8 0 0 0-11 11 43.1 43.1 0 0 0 61 0zm16.07-46.62a7.8 7.8 0 0 0 7.8-7.8v-23.75a7.805 7.805 0 0 0-15.61 0v23.75a7.8 7.8 0 0 0 7.81 7.8zm-93.1-39.35a7.8 7.8 0 0 0-7.8 7.8v23.75a7.8 7.8 0 0 0 15.6 0v-23.75a7.8 7.8 0 0 0-7.8-7.8z"/><path d="M208.27 375h-7.54v-14.36a113.2 113.2 0 0 0 79.39-98.18 46.86 46.86 0 0 0 49.8-67.79c27.8-8.7 34.87-25.49 34.87-47.15a7.8 7.8 0 0 0-7.8-7.8h-76.44V67.35A67.43 67.43 0 0 0 213.2 0H122a67.43 67.43 0 0 0-67.32 67.35V75a7.8 7.8 0 1 0 15.6 0v-7.65A51.81 51.81 0 0 1 122 15.61h11.56a67.22 67.22 0 0 0-24.3 51.74v72.39h-39v-33.49a7.8 7.8 0 0 0-15.6 0v63.85a46.88 46.88 0 1 0 .43 92.36 113.12 113.12 0 0 0 79.41 98.24V375H127a49.39 49.39 0 0 0-49.37 49.3v79.9a7.8 7.8 0 0 0 7.8 7.8h164.36a7.8 7.8 0 0 0 7.8-7.8v-79.9a49.38 49.38 0 0 0-49.32-49.3zm111.35-158.68a31.3 31.3 0 0 1-39.07 30.29v-45.45a234.93 234.93 0 0 0 33.4-2.78 31.15 31.15 0 0 1 5.67 17.94zm18.94-42.68c-11.33 8.07-32.86 12-65.81 12-67.16 0-112.45-15.8-125-30.3h201c-1.06 8.59-4.19 14.02-10.19 18.3zM124.9 67.35A51.81 51.81 0 0 1 170.47 16 51.81 51.81 0 0 1 216 67.35v48.27a7.805 7.805 0 1 0 15.61 0V67.35a67.23 67.23 0 0 0-24.3-51.75h5.87a51.8 51.8 0 0 1 51.73 51.75v72.38h-140zm-37.78 88v16.78a24.67 24.67 0 0 1-16.83 23.36v-40.15h16.83zm-71.51 61A31.3 31.3 0 0 1 54.68 186v60.58a31.28 31.28 0 0 1-39.07-30.29zm54.68 36.35v-41.11a40.3 40.3 0 0 0 32.44-39.47v-16.78H130c3.43 10.14 14.56 22.16 43.92 32 24.66 8.31 56.74 13.14 91 13.78v51.51a97.33 97.33 0 0 1-194.66 0zm97.32 112.9a113.16 113.16 0 0 0 17.52-1.36v16.1c0 .54 0 1.08-.08 1.61v.19a17.51 17.51 0 0 1-34.84 0v-.2c0-.53-.08-1.06-.08-1.61v-16.07a114.67 114.67 0 0 0 17.48 1.34zM242 496.39H93.23V424.3A33.76 33.76 0 0 1 127 390.57h9.16a33.11 33.11 0 0 0 63 0h9.16A33.76 33.76 0 0 1 242 424.3z"/><path d="M460.55 312.21a7.8 7.8 0 0 0 7.8-7.8v-33.64a7.8 7.8 0 0 0-7.8-7.8H315a7.8 7.8 0 0 0-7.8 7.8v128.64a7.8 7.8 0 0 0 7.8 7.8h6.46a36.38 36.38 0 0 0-6.64 21v6.94l-30.54 65.77A7.8 7.8 0 0 0 291.4 512h49.93a7.8 7.8 0 0 0 7.08-4.52l29.16-62.82H408a26.51 26.51 0 0 0 24.16-37.45h28.42a7.8 7.8 0 0 0 7.8-7.8v-63.79a7.805 7.805 0 0 0-15.61 0v56H322.84v-113h31.65v53.67a7.8 7.8 0 0 0 11.63 6.8l21.68-12.29 21.67 12.2a7.8 7.8 0 0 0 11.64-6.8v-53.63h31.64v25.85a7.8 7.8 0 0 0 7.8 7.79zm-124.2 184.18h-32.72l24-51.73h32.73zM408 407.21a10.92 10.92 0 0 1 0 21.84h-77.5v-.86a21 21 0 0 1 21-21zm-2.47-88.34l-13.87-7.82a7.82 7.82 0 0 0-7.67 0l-13.87 7.82v-40.3h35.4z"/></svg>