<svg data-name="Capa 1" xmlns="http://www.w3.org/2000/svg" viewBox="0 0 512 374.26"><title>delivery-truck</title><path d="M414.5 119.65h-32.24L392 8.13v-.65a7.5 7.5 0 0 0-4.52-6.87h-.07l-.51-.19-.19-.07-.43-.11-.28-.11-.39-.06-.36-.05H231a7.5 7.5 0 0 0 0 15h145.32L361.4 186.37l-3.77 43.24H97l4.36-45H151a7.5 7.5 0 0 0 0-15h-48.17l9.2-95h79a7.5 7.5 0 0 0 0-15h-77.54l4.33-44.66H201a7.5 7.5 0 0 0 0-15h-90a7.5 7.5 0 0 0-7.32 5.92v.07c0 .19-.06.38-.09.57s0 .12 0 .18l-5.12 52.89H7.5a7.5 7.5 0 0 0 0 15H97l-9.2 95H61a7.5 7.5 0 1 0 0 15h25.31l-5 51.72-7.75 80v1.53c0 .06.05.39.09.58s0 .11 0 .17.07.28.11.42 0 .2.08.3v.08a7.5 7.5 0 0 0 1.78 2.94l.25.23a7.44 7.44 0 0 0 1.74 1.19l.4.19h.13l.57.21h.05c.22.07.45.12.68.17h.09c.22 0 .44.08.66.1h34.13a57.09 57.09 0 0 0 113.19 0H347.9a57.09 57.09 0 0 0 113.19 0h34.28l.58-.09.24-.06.44-.11.29-.1.37-.14.3-.13.33-.16.3-.16.31-.19.28-.18.3-.22.24-.2.3-.27.2-.2.3-.33.16-.18c.11-.14.21-.28.31-.42l.11-.14c.12-.18.24-.37.34-.57.11-.21.22-.42.31-.64l.07-.19c.06-.15.12-.31.17-.47s.06-.21.09-.32.07-.25.1-.38 0-.23.06-.34 0-.2.05-.3c.32-2.55 6.19-49.67 8.81-80.14v-.09c.76-8.78 1.24-16.18 1.24-20.71a97.61 97.61 0 0 0-97.47-97.33zm-33.54 15h30.68l-3.92 45H377zM171 359.26a42.1 42.1 0 1 1 42.1-42.1 42.15 42.15 0 0 1-42.1 42.1zm233.49 0a42.1 42.1 0 1 1 42.11-42.13 42.15 42.15 0 0 1-42.1 42.13zm83.37-49.61H461.1a57.09 57.09 0 0 0-113.19 0H227.6a57.09 57.09 0 0 0-113.19 0H89.27l6.3-65h268.94a7.38 7.38 0 0 0 .75 0h.14l.58-.09.25-.06.45-.11.29-.1.37-.14.31-.14.33-.16.3-.17.3-.18.28-.2.29-.22.26-.21.28-.25.23-.23.26-.29.2-.24.24-.32.17-.25.21-.35.15-.27c.06-.12.12-.24.17-.36l.13-.29c0-.12.09-.24.13-.36s.08-.21.11-.32.06-.23.09-.35.06-.24.08-.36 0-.24.05-.36 0-.25.05-.37 0 0 0-.05l3.76-43.15h38.78c23 0 33.34 11.91 44.31 24.51 9.05 10.4 19.16 22 36.34 24.84-2.15 23.02-5.71 52.63-7.29 65.6zm8.57-80.68c-11.14-2.27-18-10.11-26.31-19.65-10.39-11.93-23.07-26.5-47.39-29.21l3.88-44.55A82.62 82.62 0 0 1 497 217.13c0 2.84-.21 6.92-.57 11.84z"/><path d="M171 289.65a27.5 27.5 0 1 0 27.5 27.5 27.53 27.53 0 0 0-27.5-27.5zm0 40a12.5 12.5 0 1 1 12.5-12.5 12.51 12.51 0 0 1-12.5 12.5zm233.5-40a27.5 27.5 0 1 0 27.5 27.48 27.53 27.53 0 0 0-27.5-27.48zm0 40a12.5 12.5 0 1 1 12.5-12.52 12.51 12.51 0 0 1-12.5 12.52zM71 119.66H34.33a7.5 7.5 0 1 0 0 15H71a7.5 7.5 0 1 0 0-15z"/></svg>