<svg data-name="Layer 1" xmlns="http://www.w3.org/2000/svg" viewBox="0 0 511 510.52"><title>sale</title><path d="M510.65 18.72c-3.54-19.74-29.35-25.64-41-9A188.13 188.13 0 0 1 425.61 54a11.72 11.72 0 0 0-17-9.31 310.18 310.18 0 0 1-60 23.13 7.564 7.564 0 1 0 4 14.59 327.74 327.74 0 0 0 58-21.76v423.24a11.46 11.46 0 0 1-17.86 9.5L270.35 411a26.57 26.57 0 0 0-29.71 0l-72.69 49a7.565 7.565 0 0 0 8.45 12.55c75.38-50 72.87-50.94 79.09-50.94 6.53 0 1.45-.56 128.73 84.39 17.71 11.91 41.44-.88 41.44-22V107.58c33.23-18.73 61.17-43.08 81.26-71.9a22.62 22.62 0 0 0 3.73-16.96zM494.51 27c-17.3 24.81-40.86 46.12-68.85 63.09V72.27c22.73-15 42-33.13 56.44-53.89A7.56 7.56 0 0 1 494.51 27zM142.86 476.85c-24.36 15.77-25.15 18.53-30.89 18.53a11.53 11.53 0 0 1-11.52-11.49V60.62c68.1 33.44 149.05 41.8 222 28.59a7.57 7.57 0 0 0-2.7-14.89c-72 13-151.62 4.11-217.33-29.66a11.72 11.72 0 0 0-17 9.31A188.11 188.11 0 0 1 41.3 9.72a22.71 22.71 0 0 0-37.24 26c20.09 28.81 48 53.17 81.26 71.9v376.27c0 21.14 23.7 34 41.44 22l24.56-16.55a7.57 7.57 0 0 0-8.46-12.55zM85.32 90.12c-28-17-51.54-38.28-68.84-63.09a7.564 7.564 0 1 1 12.41-8.65c14.48 20.76 33.7 38.9 56.43 53.89z"/><path d="M287.45 287.44v41.72c0 53.55 63.5 53.09 84.62 33.7 8.57-7.88 13.11-19.52 13.11-33.7v-41.72c0-14.17-4.54-25.83-13.11-33.7-21.07-19.33-84.62-19.94-84.62 33.7zm15.13 0c0-20.14 11.34-30.35 33.73-30.35s33.73 10.21 33.73 30.35v41.72c0 20.14-11.36 30.35-33.73 30.35s-33.73-10.21-33.73-30.35z"/><path d="M336.32 350.12c14 0 22.09-7.65 22.09-21v-41.68c0-13.32-8-21-22.09-21s-21.8 7.44-21.8 21v41.72c-.01 13.52 7.74 20.96 21.8 20.96zm-6.68-62.68c0-4.44.3-5.84 6.68-5.84 6.67 0 7 1.79 7 5.84v41.72c0 4-.28 5.83-7 5.83-6.37 0-6.68-1.4-6.68-5.83zM174.67 170.62c-14.06 0-21.8 7.44-21.8 21v41.68c0 13.52 7.75 21 21.8 21s22.09-7.65 22.09-21v-41.72c0-13.31-8.05-20.96-22.09-20.96zm7 62.68c0 4-.28 5.84-7 5.84-6.37 0-6.68-1.4-6.68-5.84v-41.72c0-4.43.3-5.83 6.68-5.83 6.67 0 7 1.78 7 5.83z"/><path d="M223.53 191.58c0-14.17-4.54-25.82-13.11-33.7-17.2-15.79-54.19-15.9-71.5 0-8.57 7.88-13.11 19.52-13.11 33.7v41.72c0 27.59 16.93 45.49 48.87 45.49s48.86-17.87 48.86-45.49zM208.4 233.3c0 20.14-11.34 30.35-33.73 30.35s-33.73-10.21-33.73-30.35v-41.72c0-20.14 11.34-30.35 33.73-30.35s33.73 10.21 33.73 30.35zm80.22-87.03C175 373.86 183 355.8 183 362.43a21.81 21.81 0 0 0 21.79 21.24c8.25 0 15.81-4.45 19.24-11.32l43.17-86.1a7.562 7.562 0 0 0-13.52-6.78l-43.17 86.1c-.89 1.77-3.19 3-5.72 3-4.45 0-8.13-4.39-5.94-8.51L302.2 153c3-5.91 14.6-1.48 11.64 6.42l-46.65 93a7.57 7.57 0 1 0 13.52 6.79c18.78-37.47 46.81-93.36 47-93.79a21.06 21.06 0 0 0-2.91-21.7c-9.8-12.02-29.44-11.72-36.18 2.55z"/></svg>