<svg viewBox="0 0 60 60" fill="none" xmlns="http://www.w3.org/2000/svg"><path d="M58.8281 10.8245H41.3384C36.5698 10.8245 32.463 14.0343 31.3515 18.63C31.3509 18.6322 31.3505 18.6343 31.3499 18.6366L31.1718 19.3917V13.3782C33.8099 12.8141 35.793 10.482 35.793 7.69898C35.793 4.49566 33.1657 1.88965 29.9362 1.88965C26.7068 1.88965 24.0797 4.49578 24.0797 7.6991C24.0797 10.5267 26.1267 12.8889 28.8281 13.4041V19.3917L28.65 18.6366C28.6494 18.6343 28.6489 18.6322 28.6484 18.63C27.537 14.0343 23.4302 10.8245 18.6615 10.8245H1.17188C0.524648 10.8245 0 11.3491 0 11.9964V12.9529C0 15.2563 1.30664 17.2624 3.22371 18.2805V18.7765C3.22371 21.0797 4.53059 23.0859 6.4473 24.1042V24.6001C6.4473 27.9301 9.17883 30.6393 12.5361 30.6393H28.8281V34.3358H22.7962C20.4552 34.3358 18.5505 36.2429 18.5505 38.5871C18.5505 40.9314 20.4552 42.8385 22.7962 42.8385H28.8281V46.599H23.0202C20.9607 46.599 19.2853 48.2766 19.2853 50.3387C19.2853 52.4009 20.9607 54.0784 23.0202 54.0784H28.8281V56.9275C28.8281 57.5747 29.3528 58.0993 30 58.0993C30.6471 58.0993 31.1719 57.5747 31.1719 56.9275V54.0784H40.4046C41.0517 54.0784 41.5765 53.5537 41.5765 52.9065C41.5765 52.2593 41.0517 51.7346 40.4046 51.7346H31.1719V48.9429H37.3581C39.6841 48.9429 41.5765 47.048 41.5765 44.7189C41.5765 42.3898 39.6841 40.4948 37.3581 40.4948H31.1719V36.6797H37.39C39.6983 36.6797 41.5765 34.7992 41.5765 32.4877C41.5765 31.8204 41.4238 31.1941 41.1497 30.6394H47.4639C50.8212 30.6394 53.5527 27.9302 53.5527 24.6002V24.1043C55.4693 23.0861 56.7763 21.0798 56.7763 18.7766V18.2807C58.6934 17.2624 60 15.2562 60 12.9529V11.9964C60 11.3491 59.4752 10.8245 58.8281 10.8245ZM26.4234 7.6991C26.4234 5.78813 27.9993 4.23352 29.9364 4.23352C31.8735 4.23352 33.4494 5.78824 33.4494 7.6991C33.4494 9.60996 31.8735 11.1647 29.9364 11.1647C27.9993 11.1647 26.4234 9.60996 26.4234 7.6991ZM12.5361 28.2956C10.5443 28.2956 8.91059 26.7536 8.79738 24.8156H16.9857C17.6329 24.8156 18.1576 24.291 18.1576 23.6437C18.1576 22.9965 17.6329 22.4719 16.9857 22.4719H9.31254C7.3207 22.4719 5.68711 20.9297 5.57379 18.9919H5.99215C6.01312 18.993 6.03422 18.9936 6.05555 18.9936H16.8762C17.5233 18.9936 18.048 18.469 18.048 17.8218C18.048 17.1745 17.5233 16.6499 16.8762 16.6499H6.15234C6.13137 16.6488 6.11027 16.6481 6.08895 16.6481C4.09711 16.6481 2.4634 15.1061 2.3502 13.1682H18.6618C22.3432 13.1682 25.5123 15.639 26.3696 19.1775L28.5198 28.2956H12.5361ZM28.8281 51.7346H23.0202C22.2531 51.7346 21.6291 51.1084 21.6291 50.3387C21.6291 49.569 22.2531 48.9428 23.0202 48.9428H28.8281V51.7346ZM37.3581 42.8386C38.3918 42.8386 39.2327 43.6821 39.2327 44.7189C39.2327 45.7556 38.3918 46.5991 37.3581 46.5991H31.1719V42.8386H37.3581ZM28.8281 40.4948H22.7962C21.7475 40.4948 20.8943 39.6391 20.8943 38.5873C20.8943 37.5354 21.7474 36.6797 22.7962 36.6797H28.8281V40.4948ZM39.2327 32.4877C39.2327 33.5068 38.4061 34.3359 37.39 34.3359H31.1719V30.6394H37.2629C38.3859 30.6394 39.2327 31.4339 39.2327 32.4877ZM53.9112 16.6481C53.89 16.6481 53.8688 16.6487 53.8479 16.6499H48.2266C47.5795 16.6499 47.0548 17.1745 47.0548 17.8218C47.0548 18.469 47.5795 18.9936 48.2266 18.9936H54.4262C54.3121 20.9306 52.6788 22.4719 50.6876 22.4719H43.0144C42.3673 22.4719 41.8425 22.9965 41.8425 23.6437C41.8425 24.291 42.3673 24.8156 43.0144 24.8156H51.2027C51.0894 26.7536 49.4558 28.2956 47.464 28.2956H31.4803L33.6305 19.1775C34.4878 15.639 37.6569 13.1682 41.3384 13.1682H57.6499C57.5366 15.1061 55.903 16.6481 53.9112 16.6481Z" fill="#22ABEB"/><path d="M42.2566 18.8014C42.6709 19.0775 43.2245 19.0572 43.6203 18.757C44.004 18.466 44.1685 17.9464 44.0285 17.4865C43.8868 17.021 43.4571 16.6825 42.9704 16.6569C42.4787 16.631 42.0143 16.9246 41.8255 17.3787C41.6147 17.8856 41.795 18.4993 42.2566 18.8014Z" fill="#22ABEB"/></svg>