<svg viewBox="0 0 60 60" fill="none" xmlns="http://www.w3.org/2000/svg"><path d="M37.25 37.4673L37.0001 47.9673L30 52.7174L23.125 48.0924L22.75 37.4673C22.75 37.4673 25 35.3424 24.375 33.2173H35.375C35 35.3424 37.25 37.4673 37.25 37.4673Z" fill="#F8B64C"/><path d="M52.375 55.3425V51.7175C52.375 48.2175 50.5 44.9675 47.5 43.2176L42.375 40.3425L37.2501 37.4675L32.7501 48.3425L31.0001 40.9676L32.2501 39.5926H27.7501L29.0002 40.9676L27.2502 48.3425L22.8753 37.4675L17.7503 40.3425L12.6253 43.2175C9.62534 44.9674 7.75034 48.2175 7.75034 51.7174V55.3424H52.375V55.3425Z" fill="#F2F2F2"/><path d="M22.6124 23.4457C22.0858 22.1694 20.9347 21.4336 20.0413 21.8022C19.1479 22.1708 18.8505 23.5043 19.3771 24.7806C19.9037 26.0569 21.0549 26.7927 21.9483 26.4241C22.8417 26.0555 23.139 24.722 22.6124 23.4457Z" fill="#F8B64C"/><path d="M37.2836 23.449C36.757 24.7253 37.0544 26.0588 37.9478 26.4274C38.8412 26.796 39.9923 26.0602 40.5189 24.7839C41.0455 23.5076 40.7482 22.1741 39.8547 21.8055C38.9613 21.4368 37.8102 22.1727 37.2836 23.449Z" fill="#F8B64C"/><path d="M40 19.9674C40 20.4674 40 21.0924 39.8749 21.7173C39.1249 27.5923 34.9999 37.0923 29.9999 37.0923C24.9999 37.0923 20.8749 27.5923 20.1249 21.5923C19.9998 21.0923 19.9998 20.4673 19.9998 19.9672C19.9998 14.4673 24.4998 9.96729 29.9998 9.96729C35.4997 9.96729 40 14.4674 40 19.9674Z" fill="#FFD15C"/><path d="M20.3751 23.4672C20.1251 22.0923 20.25 20.2173 21.1251 19.2172C21.1251 19.2172 20.3751 12.8422 25.0001 13.2172C25.0001 13.2172 28.7501 14.4672 35.75 13.2172C35.75 13.2172 38.625 13.0922 38.1251 16.0922C38.1251 16.0922 37.3751 18.8422 38.8751 19.4672L39.5 23.3422L40.125 20.4672C41.25 15.2172 40 9.96724 35.125 7.5922C34.9999 7.5922 34.9999 7.5922 34.9999 7.5922C35.6249 6.71716 36.8749 7.09216 36.8749 7.09216C28.6249 1.84216 23.125 6.71716 23.125 6.71716C17.25 12.0922 19.125 18.3422 19.125 18.3422C18.5001 20.5922 20.3751 23.4672 20.3751 23.4672Z" fill="#40596B"/><path d="M11.625 41.7172L16.75 38.8422L21.375 36.2172V36.0922C21.875 35.4672 22.25 34.7172 22.625 33.9672C21.5 32.2172 20.5001 30.2172 19.7501 27.9672C18.875 27.4672 18.125 26.5922 17.75 25.5922C17.25 24.4672 17.25 23.2171 17.625 22.0921C17.125 20.7172 16.875 19.4671 17.125 18.3421C16.9999 17.5921 16.75 15.9671 16.9999 14.0921C13.75 13.967 11.875 15.7171 11.875 15.7171C7.37496 19.8421 8.74992 24.5921 8.74992 24.5921C8.49996 25.5921 8.87496 26.717 9.37488 27.5921C8.99988 27.9671 8.87484 28.8421 9.24984 29.5921C9.49981 30.3421 10.1249 30.7171 10.6248 30.8422C11.2498 32.7172 12.1248 34.5922 13.1248 36.0922C13.4998 37.7172 11.8747 39.3421 11.8747 39.3421L7.87477 41.5921L3.75 43.7172C1.37496 45.0922 0 47.4672 0 50.2172V51.4673H5.75004C5.87496 47.4672 8.12496 43.7172 11.625 41.7172Z" fill="#ACB3BA"/><path d="M56.25 43.7173L52.375 41.4673L48.375 39.2173C48.375 39.2173 46.75 37.5923 47.125 35.9674C48.1249 34.4674 49 32.5924 49.6249 30.7174C50.125 30.5923 50.7499 30.0924 50.9999 29.4673C51.3749 28.4674 51.1249 27.4673 50.4998 27.2173L50.7498 26.2174C51.6248 22.2174 50.6248 18.0924 46.9998 16.3423C46.8748 16.2173 46.7498 16.2173 46.7498 16.2173C47.2499 15.5923 48.1248 15.8423 48.1248 15.8423C45.8748 14.3423 43.8748 13.9673 42.1248 13.9673C42.6248 16.0922 42.4998 18.4673 41.9998 20.9672V21.2172C42.7498 22.3422 42.9997 23.9672 42.2497 25.4672C41.8747 26.4672 41.1247 27.3422 40.2497 27.8423C39.4997 30.0923 38.4997 32.0923 37.3747 33.8423C37.7497 34.5923 38.1247 35.3423 38.6248 35.9672V36.0923L48.2497 41.5922C51.8747 43.5923 53.9998 47.3423 54.1247 51.4673H60V50.2172C60 47.5922 58.5 45.0923 56.25 43.7173Z" fill="#ACB3BA"/><path d="M45.375 48.8423H43V46.4673H41.375V48.8423H39V50.4674H41.375V52.8423H43V50.4674H45.375V48.8423Z" fill="#FF7058"/></svg>