<svg viewBox="0 0 60 60" fill="none" xmlns="http://www.w3.org/2000/svg"><path d="M35.625 35.4226C41.3204 35.4226 45.9375 30.8055 45.9375 25.1101C45.9375 19.4147 41.3204 14.7976 35.625 14.7976C29.9296 14.7976 25.3125 19.4147 25.3125 25.1101C25.3125 30.8055 29.9296 35.4226 35.625 35.4226Z" fill="#70D2FF"/><path d="M44.0625 46.875V45H42.1875V46.875C42.1875 47.1236 42.0887 47.3621 41.9129 47.5379C41.7371 47.7137 41.4986 47.8125 41.25 47.8125H39.375V49.6875H41.25C41.4986 49.6875 41.7371 49.7863 41.9129 49.9621C42.0887 50.1379 42.1875 50.3764 42.1875 50.625V52.5H44.0625V50.625C44.0625 50.3764 44.1613 50.1379 44.3371 49.9621C44.5129 49.7863 44.7514 49.6875 45 49.6875H46.875V47.8125H45C44.7514 47.8125 44.5129 47.7137 44.3371 47.5379C44.1613 47.3621 44.0625 47.1236 44.0625 46.875Z" fill="#70D2FF"/><path d="M52.1963 41.5521C49.3318 38.6952 45.7805 36.6234 41.8838 35.5361L35.625 41.7996L29.3616 35.5361C24.4207 36.9078 20.0657 39.8615 16.9638 43.9446C13.8619 48.0278 12.1841 53.0153 12.1875 58.143C12.1922 58.3886 12.293 58.6225 12.4683 58.7944C12.6436 58.9664 12.8794 59.0627 13.125 59.0627H58.125C58.3706 59.0627 58.6064 58.9664 58.7817 58.7944C58.957 58.6225 59.0578 58.3886 59.0625 58.143C59.0713 55.061 58.4689 52.0079 57.2904 49.1601C56.1118 46.3124 54.3804 43.7265 52.1963 41.5521ZM48.75 50.6252C48.75 50.8738 48.6512 51.1123 48.4754 51.2881C48.2996 51.4639 48.0611 51.5627 47.8125 51.5627H45.9375V53.4377C45.9375 53.6863 45.8387 53.9248 45.6629 54.1006C45.4871 54.2764 45.2486 54.3752 45 54.3752H41.25C41.0014 54.3752 40.7629 54.2764 40.5871 54.1006C40.4113 53.9248 40.3125 53.6863 40.3125 53.4377V51.5627H38.4375C38.1889 51.5627 37.9504 51.4639 37.7746 51.2881C37.5988 51.1123 37.5 50.8738 37.5 50.6252V46.8752C37.5 46.6266 37.5988 46.3881 37.7746 46.2123C37.9504 46.0365 38.1889 45.9377 38.4375 45.9377H40.3125V44.0627C40.3125 43.8141 40.4113 43.5756 40.5871 43.3998C40.7629 43.224 41.0014 43.1252 41.25 43.1252H45C45.2486 43.1252 45.4871 43.224 45.6629 43.3998C45.8387 43.5756 45.9375 43.8141 45.9375 44.0627V45.9377H47.8125C48.0611 45.9377 48.2996 46.0365 48.4754 46.2123C48.6512 46.3881 48.75 46.6266 48.75 46.8752V50.6252Z" fill="#70D2FF"/><path d="M44.0625 20.625C44.0623 19.7381 43.8105 18.8694 43.3364 18.1199C42.8622 17.3704 42.1851 16.7708 41.3838 16.3907C40.5825 16.0106 39.6898 15.8657 38.8093 15.9727C37.9289 16.0797 37.0969 16.4343 36.41 16.9953C35.723 17.5563 35.2094 18.3007 34.9286 19.142C34.6478 19.9833 34.6115 20.887 34.8238 21.7481C35.0361 22.6092 35.4883 23.3924 36.128 24.0068C36.7677 24.6211 37.5685 25.0414 38.4375 25.2188V31.875C38.4375 34.61 37.351 37.2331 35.417 39.167C33.4831 41.101 30.86 42.1875 28.125 42.1875C25.3899 42.1875 22.7669 41.101 20.8329 39.167C18.899 37.2331 17.8125 34.61 17.8125 31.875V24.5559L25.2459 5.97375C25.303 5.83143 25.3242 5.6773 25.3078 5.52486C25.2915 5.37242 25.238 5.22632 25.152 5.09937C25.066 4.97241 24.9502 4.86848 24.8148 4.79667C24.6793 4.72487 24.5283 4.68738 24.375 4.6875H20.625C20.625 4.43886 20.5262 4.2004 20.3504 4.02459C20.1746 3.84877 19.9361 3.75 19.6875 3.75C19.4388 3.75 19.2004 3.84877 19.0246 4.02459C18.8488 4.2004 18.75 4.43886 18.75 4.6875V6.5625C18.75 6.81114 18.8488 7.0496 19.0246 7.22541C19.2004 7.40123 19.4388 7.5 19.6875 7.5C19.9361 7.5 20.1746 7.40123 20.3504 7.22541C20.5262 7.0496 20.625 6.81114 20.625 6.5625H22.9903L16.875 21.8503L10.7597 6.5625H13.125C13.125 6.81114 13.2238 7.0496 13.3996 7.22541C13.5754 7.40123 13.8138 7.5 14.0625 7.5C14.3111 7.5 14.5496 7.40123 14.7254 7.22541C14.9012 7.0496 15 6.81114 15 6.5625V4.6875C15 4.43886 14.9012 4.2004 14.7254 4.02459C14.5496 3.84877 14.3111 3.75 14.0625 3.75C13.8138 3.75 13.5754 3.84877 13.3996 4.02459C13.2238 4.2004 13.125 4.43886 13.125 4.6875H9.37499C9.22167 4.68738 9.07066 4.72487 8.9352 4.79667C8.79973 4.86848 8.68395 4.97241 8.59798 5.09937C8.51202 5.22632 8.45851 5.37242 8.44213 5.52486C8.42575 5.6773 8.44702 5.83143 8.50405 5.97375L15.9375 24.555V31.875C15.9375 35.1073 17.2215 38.2073 19.5071 40.4929C21.7927 42.7785 24.8927 44.0625 28.125 44.0625C31.3573 44.0625 34.4572 42.7785 36.7428 40.4929C39.0284 38.2073 40.3125 35.1073 40.3125 31.875V25.2188C41.3705 25.0012 42.3212 24.4255 43.0043 23.5887C43.6874 22.7519 44.0611 21.7052 44.0625 20.625ZM39.375 23.4375C38.8187 23.4375 38.275 23.2726 37.8124 22.9635C37.3499 22.6545 36.9894 22.2152 36.7766 21.7013C36.5637 21.1874 36.508 20.6219 36.6165 20.0763C36.725 19.5307 36.9929 19.0296 37.3862 18.6363C37.7796 18.2429 38.2807 17.9751 38.8263 17.8665C39.3719 17.758 39.9374 17.8137 40.4513 18.0266C40.9652 18.2395 41.4044 18.5999 41.7135 19.0625C42.0225 19.525 42.1875 20.0687 42.1875 20.625C42.1875 21.3709 41.8912 22.0863 41.3637 22.6137C40.8363 23.1412 40.1209 23.4375 39.375 23.4375Z" fill="#151A6A"/></svg>