<svg viewBox="0 0 60 60" fill="none" xmlns="http://www.w3.org/2000/svg"><path d="M37.5 27.1875V22.5H33.75V27.1875C33.75 27.4361 33.6512 27.6746 33.4754 27.8504C33.2996 28.0262 33.0611 28.125 32.8125 28.125H28.125V31.875H32.8125C33.0611 31.875 33.2996 31.9738 33.4754 32.1496C33.6512 32.3254 33.75 32.5639 33.75 32.8125V37.5H37.5V32.8125C37.5 32.5639 37.5988 32.3254 37.7746 32.1496C37.9504 31.9738 38.1889 31.875 38.4375 31.875H43.125V28.125H38.4375C38.1889 28.125 37.9504 28.0262 37.7746 27.8504C37.5988 27.6746 37.5 27.4361 37.5 27.1875Z" fill="#70D2FF"/><path d="M35.625 12.1875C31.3996 12.1922 27.3485 13.8729 24.3607 16.8607C21.3729 19.8485 19.6922 23.8996 19.6875 28.125C19.6875 43.3388 34.3387 58.1644 34.9622 58.7878C35.138 58.9636 35.3764 59.0623 35.625 59.0623C35.8736 59.0623 36.112 58.9636 36.2878 58.7878C36.9122 58.1644 51.5625 43.3388 51.5625 28.125C51.5578 23.8996 49.8771 19.8485 46.8893 16.8607C43.9015 13.8729 39.8504 12.1922 35.625 12.1875ZM45 32.8125C45 33.0611 44.9012 33.2996 44.7254 33.4754C44.5496 33.6512 44.3111 33.75 44.0625 33.75H39.375V38.4375C39.375 38.6861 39.2762 38.9246 39.1004 39.1004C38.9246 39.2762 38.6861 39.375 38.4375 39.375H32.8125C32.5639 39.375 32.3254 39.2762 32.1496 39.1004C31.9738 38.9246 31.875 38.6861 31.875 38.4375V33.75H27.1875C26.9389 33.75 26.7004 33.6512 26.5246 33.4754C26.3488 33.2996 26.25 33.0611 26.25 32.8125V27.1875C26.25 26.9389 26.3488 26.7004 26.5246 26.5246C26.7004 26.3488 26.9389 26.25 27.1875 26.25H31.875V21.5625C31.875 21.3139 31.9738 21.0754 32.1496 20.8996C32.3254 20.7238 32.5639 20.625 32.8125 20.625H38.4375C38.6861 20.625 38.9246 20.7238 39.1004 20.8996C39.2762 21.0754 39.375 21.3139 39.375 21.5625V26.25H44.0625C44.3111 26.25 44.5496 26.3488 44.7254 26.5246C44.9012 26.7004 45 26.9389 45 27.1875V32.8125Z" fill="#70D2FF"/><path d="M45 19.6875H36.5625V7.5C36.5625 6.75408 36.2662 6.03871 35.7387 5.51126C35.2113 4.98382 34.4959 4.6875 33.75 4.6875H15C14.2541 4.6875 13.5387 4.98382 13.0113 5.51126C12.4838 6.03871 12.1875 6.75408 12.1875 7.5V19.6875H3.75C3.00408 19.6875 2.28871 19.9838 1.76126 20.5113C1.23382 21.0387 0.9375 21.7541 0.9375 22.5V46.875C0.9375 47.1236 1.03627 47.3621 1.21209 47.5379C1.3879 47.7137 1.62636 47.8125 1.875 47.8125H46.875C47.1236 47.8125 47.3621 47.7137 47.5379 47.5379C47.7137 47.3621 47.8125 47.1236 47.8125 46.875V22.5C47.8125 21.7541 47.5162 21.0387 46.9887 20.5113C46.4613 19.9838 45.7459 19.6875 45 19.6875ZM2.8125 22.5C2.8125 22.2514 2.91127 22.0129 3.08709 21.8371C3.2629 21.6613 3.50136 21.5625 3.75 21.5625H12.1875V45.9375H2.8125V22.5ZM14.0625 7.5C14.0625 7.25136 14.1613 7.0129 14.3371 6.83709C14.5129 6.66127 14.7514 6.5625 15 6.5625H33.75C33.9986 6.5625 34.2371 6.66127 34.4129 6.83709C34.5887 7.0129 34.6875 7.25136 34.6875 7.5V45.9375H31.875V39.375C31.875 38.6291 31.5787 37.9137 31.0512 37.3863C30.5238 36.8588 29.8084 36.5625 29.0625 36.5625H19.6875C18.9416 36.5625 18.2262 36.8588 17.6988 37.3863C17.1713 37.9137 16.875 38.6291 16.875 39.375V45.9375H14.0625V7.5ZM18.75 39.375C18.75 39.1264 18.8488 38.8879 19.0246 38.7121C19.2004 38.5363 19.4389 38.4375 19.6875 38.4375H23.4375V45.9375H18.75V39.375ZM25.3125 45.9375V38.4375H29.0625C29.3111 38.4375 29.5496 38.5363 29.7254 38.7121C29.9012 38.8879 30 39.1264 30 39.375V45.9375H25.3125ZM45.9375 45.9375H36.5625V21.5625H45C45.2486 21.5625 45.4871 21.6613 45.6629 21.8371C45.8387 22.0129 45.9375 22.2514 45.9375 22.5V45.9375Z" fill="#151A6A"/><path d="M20.625 14.0625H23.4375V16.875C23.4375 17.1236 23.5363 17.3621 23.7121 17.5379C23.8879 17.7137 24.1264 17.8125 24.375 17.8125C24.6236 17.8125 24.8621 17.7137 25.0379 17.5379C25.2137 17.3621 25.3125 17.1236 25.3125 16.875V14.0625H28.125C28.3736 14.0625 28.6121 13.9637 28.7879 13.7879C28.9637 13.6121 29.0625 13.3736 29.0625 13.125C29.0625 12.8764 28.9637 12.6379 28.7879 12.4621C28.6121 12.2863 28.3736 12.1875 28.125 12.1875H25.3125V9.375C25.3125 9.12636 25.2137 8.8879 25.0379 8.71209C24.8621 8.53627 24.6236 8.4375 24.375 8.4375C24.1264 8.4375 23.8879 8.53627 23.7121 8.71209C23.5363 8.8879 23.4375 9.12636 23.4375 9.375V12.1875H20.625C20.3764 12.1875 20.1379 12.2863 19.9621 12.4621C19.7863 12.6379 19.6875 12.8764 19.6875 13.125C19.6875 13.3736 19.7863 13.6121 19.9621 13.7879C20.1379 13.9637 20.3764 14.0625 20.625 14.0625Z" fill="#151A6A"/><path d="M9.375 25.3125H5.625C5.37636 25.3125 5.1379 25.4113 4.96209 25.5871C4.78627 25.7629 4.6875 26.0014 4.6875 26.25C4.6875 26.4986 4.78627 26.7371 4.96209 26.9129C5.1379 27.0887 5.37636 27.1875 5.625 27.1875H9.375C9.62364 27.1875 9.8621 27.0887 10.0379 26.9129C10.2137 26.7371 10.3125 26.4986 10.3125 26.25C10.3125 26.0014 10.2137 25.7629 10.0379 25.5871C9.8621 25.4113 9.62364 25.3125 9.375 25.3125Z" fill="#151A6A"/><path d="M18.75 23.4375H22.5C22.7486 23.4375 22.9871 23.3387 23.1629 23.1629C23.3387 22.9871 23.4375 22.7486 23.4375 22.5C23.4375 22.2514 23.3387 22.0129 23.1629 21.8371C22.9871 21.6613 22.7486 21.5625 22.5 21.5625H18.75C18.5014 21.5625 18.2629 21.6613 18.0871 21.8371C17.9113 22.0129 17.8125 22.2514 17.8125 22.5C17.8125 22.7486 17.9113 22.9871 18.0871 23.1629C18.2629 23.3387 18.5014 23.4375 18.75 23.4375Z" fill="#151A6A"/><path d="M18.75 30.9375H22.5C22.7486 30.9375 22.9871 30.8387 23.1629 30.6629C23.3387 30.4871 23.4375 30.2486 23.4375 30C23.4375 29.7514 23.3387 29.5129 23.1629 29.3371C22.9871 29.1613 22.7486 29.0625 22.5 29.0625H18.75C18.5014 29.0625 18.2629 29.1613 18.0871 29.3371C17.9113 29.5129 17.8125 29.7514 17.8125 30C17.8125 30.2486 17.9113 30.4871 18.0871 30.6629C18.2629 30.8387 18.5014 30.9375 18.75 30.9375Z" fill="#151A6A"/><path d="M30 29.0625H26.25C26.0014 29.0625 25.7629 29.1613 25.5871 29.3371C25.4113 29.5129 25.3125 29.7514 25.3125 30C25.3125 30.2486 25.4113 30.4871 25.5871 30.6629C25.7629 30.8387 26.0014 30.9375 26.25 30.9375H30C30.2486 30.9375 30.4871 30.8387 30.6629 30.6629C30.8387 30.4871 30.9375 30.2486 30.9375 30C30.9375 29.7514 30.8387 29.5129 30.6629 29.3371C30.4871 29.1613 30.2486 29.0625 30 29.0625Z" fill="#151A6A"/><path d="M25.3125 22.5C25.3125 22.7486 25.4113 22.9871 25.5871 23.1629C25.7629 23.3387 26.0014 23.4375 26.25 23.4375H30C30.2486 23.4375 30.4871 23.3387 30.6629 23.1629C30.8387 22.9871 30.9375 22.7486 30.9375 22.5C30.9375 22.2514 30.8387 22.0129 30.6629 21.8371C30.4871 21.6613 30.2486 21.5625 30 21.5625H26.25C26.0014 21.5625 25.7629 21.6613 25.5871 21.8371C25.4113 22.0129 25.3125 22.2514 25.3125 22.5Z" fill="#151A6A"/><path d="M9.375 32.8125H5.625C5.37636 32.8125 5.1379 32.9113 4.96209 33.0871C4.78627 33.2629 4.6875 33.5014 4.6875 33.75C4.6875 33.9986 4.78627 34.2371 4.96209 34.4129C5.1379 34.5887 5.37636 34.6875 5.625 34.6875H9.375C9.62364 34.6875 9.8621 34.5887 10.0379 34.4129C10.2137 34.2371 10.3125 33.9986 10.3125 33.75C10.3125 33.5014 10.2137 33.2629 10.0379 33.0871C9.8621 32.9113 9.62364 32.8125 9.375 32.8125Z" fill="#151A6A"/><path d="M43.125 32.8125H39.375C39.1264 32.8125 38.8879 32.9113 38.7121 33.0871C38.5363 33.2629 38.4375 33.5014 38.4375 33.75C38.4375 33.9986 38.5363 34.2371 38.7121 34.4129C38.8879 34.5887 39.1264 34.6875 39.375 34.6875H43.125C43.3736 34.6875 43.6121 34.5887 43.7879 34.4129C43.9637 34.2371 44.0625 33.9986 44.0625 33.75C44.0625 33.5014 43.9637 33.2629 43.7879 33.0871C43.6121 32.9113 43.3736 32.8125 43.125 32.8125Z" fill="#151A6A"/><path d="M43.125 25.3125H39.375C39.1264 25.3125 38.8879 25.4113 38.7121 25.5871C38.5363 25.7629 38.4375 26.0014 38.4375 26.25C38.4375 26.4986 38.5363 26.7371 38.7121 26.9129C38.8879 27.0887 39.1264 27.1875 39.375 27.1875H43.125C43.3736 27.1875 43.6121 27.0887 43.7879 26.9129C43.9637 26.7371 44.0625 26.4986 44.0625 26.25C44.0625 26.0014 43.9637 25.7629 43.7879 25.5871C43.6121 25.4113 43.3736 25.3125 43.125 25.3125Z" fill="#151A6A"/></svg>