<svg viewBox="0 0 72 72" fill="none" xmlns="http://www.w3.org/2000/svg"><circle cx="36.5" cy="9.5" r="7.5" stroke="#E60028" stroke-width="4"/><circle cx="64" cy="26" r="6" stroke="#0163BE" stroke-width="4"/><circle cx="44" cy="32" r="2" stroke="#E60028" stroke-width="2"/><circle cx="8" cy="26" r="6" stroke="#0163BE" stroke-width="4"/><path d="M18.1619 33C11.4267 35.2373 8.05908 39.4322 7.2172 40.5508C4.58705 44.0456 3.84957 47.5424 7.49776 51.4576C17.0742 60.2124 22.9706 61.9267 35 66" stroke="#0163BE" stroke-width="4" stroke-linecap="round"/><path d="M53.3994 33C60.3591 35.2373 63.8389 39.4322 64.7089 40.5508C67.4267 44.0456 68.1888 47.5424 64.419 51.4576C54.5234 60.2124 48.4304 61.9267 36 66" stroke="#0163BE" stroke-width="4" stroke-linecap="round"/><path d="M25.7783 37C24.775 34.1134 24.7067 32.5661 25.7783 29.9783C26.5548 28.7031 27.0886 28.7539 28.1473 29.673C29.7116 31.4924 30.0682 32.9306 29.9899 36.0841" stroke="#E60028" stroke-width="2"/><path d="M27 29.1342C29.5932 17.5894 42.5593 18.7438 44 30" stroke="#E60028" stroke-width="2"/><path d="M52 28.3756C43.4483 19.736 28.5517 20.0148 20 28.3756C20.5517 44.819 24.7454 52.4976 36 68C47.5506 53.184 51.4483 42.5894 52 28.3756Z" stroke="#E60028" stroke-width="4"/></svg>