<svg viewBox="0 0 50 49" fill="none" xmlns="http://www.w3.org/2000/svg"><circle cx="25.228" cy="6.566" r="5.566" stroke="#fff" stroke-width="2"/><circle cx="44.235" cy="17.971" r="4.529" stroke="#fff" stroke-width="2"/><circle cx="30.412" cy="22.117" r="1.074" stroke="#fff" stroke-width="2"/><circle cx="5.529" cy="17.971" r="4.529" stroke="#fff" stroke-width="2"/><path d="M12.5531 22.8086C7.89784 24.355 5.57024 27.2544 4.98835 28.0276C3.17045 30.4431 2.66072 32.8599 5.18227 35.5661C11.8012 41.6172 15.8767 42.8021 24.1912 45.6174" stroke="#fff" stroke-width="2" stroke-linecap="round"/><path d="M36.9084 22.8086C41.7188 24.355 44.124 27.2544 44.7253 28.0276C46.6038 30.4431 47.1305 32.8599 44.5249 35.5661C37.6853 41.6172 33.474 42.8021 24.8824 45.6174" stroke="#fff" stroke-width="2" stroke-linecap="round"/><path d="M17.8174 25.5734C17.1239 23.5782 17.0767 22.5088 17.8174 20.7201C18.3541 19.8387 18.723 19.8738 19.4548 20.5091C20.536 21.7667 20.7824 22.7607 20.7284 24.9403" stroke="#fff" stroke-width="2"/><path d="M18.6618 20.1368C20.4541 12.1573 29.416 12.9552 30.4118 20.7352" stroke="#fff" stroke-width="2"/><path d="M35.9412 19.6127C30.0304 13.6412 19.7343 13.8339 13.8235 19.6127C14.2049 30.978 17.1034 36.2853 24.8823 47.0002C32.8659 36.7597 35.5598 29.4369 35.9412 19.6127Z" stroke="#fff" stroke-width="2"/></svg>