<svg viewBox="0 0 60 60" fill="none" xmlns="http://www.w3.org/2000/svg"><path d="M38.4375 31.875V25.3125H32.8125V31.875C32.8125 32.1236 32.7137 32.3621 32.5379 32.5379C32.3621 32.7137 32.1236 32.8125 31.875 32.8125H25.3125V38.4375H31.875C32.1236 38.4375 32.3621 38.5363 32.5379 38.7121C32.7137 38.8879 32.8125 39.1264 32.8125 39.375V45.9375H38.4375V39.375C38.4375 39.1264 38.5363 38.8879 38.7121 38.7121C38.8879 38.5363 39.1264 38.4375 39.375 38.4375H45.9375V32.8125H39.375C39.1264 32.8125 38.8879 32.7137 38.7121 32.5379C38.5363 32.3621 38.4375 32.1236 38.4375 31.875Z" fill="#70D2FF"/><path d="M35.625 12.1875C30.9895 12.1875 26.4581 13.5621 22.6038 16.1374C18.7496 18.7128 15.7455 22.3732 13.9716 26.6559C12.1977 30.9385 11.7335 35.651 12.6379 40.1974C13.5422 44.7439 15.7744 48.92 19.0522 52.1978C22.33 55.4756 26.5062 57.7078 31.0526 58.6122C35.599 59.5165 40.3115 59.0524 44.5942 57.2784C48.8768 55.5045 52.5372 52.5005 55.1126 48.6462C57.6879 44.7919 59.0625 40.2605 59.0625 35.625C59.0556 29.4111 56.584 23.4537 52.1902 19.0599C47.7963 14.666 41.8389 12.1944 35.625 12.1875ZM20.1422 26.76C20.0385 26.6934 19.949 26.607 19.8788 26.5058C19.8085 26.4045 19.7589 26.2904 19.7328 26.17C19.7067 26.0496 19.7045 25.9252 19.7265 25.804C19.7485 25.6827 19.7942 25.567 19.8609 25.4634C21.7763 22.4946 24.4902 20.1261 27.6909 18.63C27.9162 18.5246 28.1741 18.513 28.408 18.5977C28.6418 18.6824 28.8324 18.8566 28.9378 19.0819C29.0432 19.3071 29.0549 19.5651 28.9701 19.7989C28.8854 20.0327 28.7112 20.2233 28.4859 20.3287C25.6038 21.6758 23.1599 23.8083 21.435 26.4816C21.3001 26.6894 21.0883 26.8354 20.8461 26.8876C20.6038 26.9397 20.3507 26.8939 20.1422 26.76ZM47.8125 39.375C47.8125 39.6236 47.7137 39.8621 47.5379 40.0379C47.3621 40.2137 47.1236 40.3125 46.875 40.3125H40.3125V46.875C40.3125 47.1236 40.2137 47.3621 40.0379 47.5379C39.8621 47.7137 39.6237 47.8125 39.375 47.8125H31.875C31.6264 47.8125 31.3879 47.7137 31.2121 47.5379C31.0363 47.3621 30.9375 47.1236 30.9375 46.875V40.3125H24.375C24.1264 40.3125 23.8879 40.2137 23.7121 40.0379C23.5363 39.8621 23.4375 39.6236 23.4375 39.375V31.875C23.4375 31.6264 23.5363 31.3879 23.7121 31.2121C23.8879 31.0363 24.1264 30.9375 24.375 30.9375H30.9375V24.375C30.9375 24.1264 31.0363 23.8879 31.2121 23.7121C31.3879 23.5363 31.6264 23.4375 31.875 23.4375H39.375C39.6237 23.4375 39.8621 23.5363 40.0379 23.7121C40.2137 23.8879 40.3125 24.1264 40.3125 24.375V30.9375H46.875C47.1236 30.9375 47.3621 31.0363 47.5379 31.2121C47.7137 31.3879 47.8125 31.6264 47.8125 31.875V39.375Z" fill="#70D2FF"/><path d="M40.2712 10.5883C40.3144 10.448 40.324 10.2996 40.2993 10.155C40.2746 10.0104 40.2164 9.87358 40.1292 9.75557C40.042 9.63757 39.9284 9.54167 39.7974 9.4756C39.6664 9.40953 39.5217 9.37512 39.375 9.37515H9.37498C9.22826 9.37512 9.08359 9.40953 8.95259 9.4756C8.8216 9.54167 8.70794 9.63757 8.62076 9.75557C8.53358 9.87358 8.47531 10.0104 8.45064 10.155C8.42597 10.2996 8.43559 10.448 8.47873 10.5883C8.51717 10.713 12.3562 22.7552 23.4375 23.4058V27.0348C17.7356 24.9855 8.76092 20.6092 6.49967 12.858C3.53529 2.69078 13.8187 0.818588 22.3472 4.71578C20.6981 5.48546 17.6062 6.22984 13.6809 3.96578C13.4657 3.84342 13.2108 3.81115 12.9719 3.87601C12.733 3.94087 12.5294 4.09761 12.4057 4.312C12.2819 4.52639 12.2479 4.78105 12.3112 5.02039C12.3745 5.25973 12.5298 5.46432 12.7434 5.58953C19.7475 9.63484 24.6694 5.52953 24.8737 5.35234C24.9883 5.25407 25.0775 5.12958 25.1337 4.98945C25.1898 4.84932 25.2113 4.6977 25.1963 4.54749C25.1813 4.39727 25.1303 4.2529 25.0475 4.12665C24.9647 4.0004 24.8527 3.896 24.7209 3.82234C14.4572 -1.92547 1.04529 0.857026 4.69967 13.382C7.27123 22.2011 17.4375 26.9402 23.4375 29.0177V36.9705C21.2806 36.2293 19.2315 35.2053 17.3437 33.9255C17.2418 33.8524 17.1263 33.8006 17.0039 33.773C16.8816 33.7454 16.755 33.7426 16.6316 33.7648C16.5082 33.787 16.3905 33.8338 16.2854 33.9023C16.1804 33.9708 16.0902 34.0597 16.0201 34.1637C15.9501 34.2677 15.9016 34.3847 15.8775 34.5078C15.8535 34.6308 15.8544 34.7575 15.8802 34.8802C15.9059 35.0029 15.9561 35.1192 16.0276 35.2222C16.0991 35.3252 16.1906 35.4128 16.2965 35.4798C18.4898 36.9815 20.8972 38.1434 23.4375 38.9261V42.2167C16.2665 42.5102 12.6197 46.0548 12.4622 46.2123C12.3311 46.3435 12.2418 46.5105 12.2057 46.6923C12.1695 46.8741 12.1881 47.0626 12.259 47.2339C12.33 47.4052 12.4501 47.5516 12.6042 47.6546C12.7584 47.7576 12.9396 47.8126 13.125 47.8127H35.625C35.8104 47.8126 35.9916 47.7576 36.1457 47.6546C36.2999 47.5516 36.42 47.4052 36.4909 47.2339C36.5619 47.0626 36.5804 46.8741 36.5443 46.6923C36.5081 46.5105 36.4189 46.3435 36.2878 46.2123C36.1312 46.0548 32.4834 42.5102 25.3125 42.2167V39.3048C25.6234 39.3458 25.9364 39.3693 26.25 39.3752C27.8489 39.4037 29.3959 38.8078 30.5625 37.7139C31.0568 37.1854 31.4369 36.5606 31.6788 35.8786C31.9208 35.1966 32.0195 34.472 31.9687 33.7502C31.8797 30.1877 28.725 28.5545 27.1125 28.2002C26.6325 28.0698 26.0194 27.8927 25.3125 27.6695V23.4058C36.3937 22.7552 40.2328 10.713 40.2712 10.5883ZM16.1803 45.9377C18.7221 44.665 21.5326 44.0219 24.375 44.0627C27.2174 44.0216 30.0279 44.6647 32.5697 45.9377H16.1803ZM26.6625 30.018C26.7994 30.0489 30.0206 30.8195 30.0937 33.7942C30.1344 34.2656 30.0782 34.7403 29.9285 35.1892C29.7789 35.638 29.5391 36.0515 29.2237 36.4042C28.4058 37.1309 27.3439 37.5222 26.25 37.5002C25.9361 37.4959 25.6229 37.4702 25.3125 37.4233V29.6252C25.8262 29.7845 26.2837 29.9148 26.6625 30.018ZM10.725 11.2502H38.0259C36.7828 14.2239 32.8556 21.5627 24.375 21.5627C15.8944 21.5627 11.9672 14.2239 10.725 11.2502Z" fill="#151A6A"/></svg>