<svg id="Layer_1" data-name="Layer 1" xmlns="http://www.w3.org/2000/svg" viewBox="0 0 312.41 512"><defs><style>.cls-1{fill:#ed1c24}.cls-2{fill:#e6e6e6}.cls-3{fill:#f2c09a}.cls-4{fill:#c1272d}.cls-5{fill:#cc9c72}.cls-6{fill:#e8b894}.cls-7{fill:#a67c52}.cls-8{fill:#666}.cls-9{fill:#333}</style></defs><title>actor1</title><path class="cls-1" d="M186.78 295.05h138.85a86.78 86.78 0 0 1 86.78 86.78V512H100V381.83a86.78 86.78 0 0 1 86.78-86.78z" transform="translate(-100)"/><path class="cls-2" d="M100 477.29h312.41v17.36H100zm0-34.71h312.41v17.36H100zm0-34.72h312.41v17.36H100zm312.41-26.03v8.68H100v-8.68c0-3 .17-5.82.43-8.68H412c.23 2.85.41 5.73.41 8.68zm-4-26.03H104a84.13 84.13 0 0 1 7.64-17.36h289.14a84.13 84.13 0 0 1 7.63 17.36zm-20.82-34.71H124.82A84.59 84.59 0 0 1 149 303.73h214.38a84.59 84.59 0 0 1 24.21 17.36z" transform="translate(-100)"/><path class="cls-3" d="M100 442.58h60.75V512H100zm251.66 0h60.75V512h-60.75zm-34.71-147.53v26a60.75 60.75 0 0 1-121.49 0v-26z" transform="translate(-100)"/><path class="cls-4" d="M143.39 390.51h17.36V512h-17.36zm208.27 0H369V512h-17.34z" transform="translate(-100)"/><path class="cls-5" d="M272.61 321.09H239.8a96.2 96.2 0 0 1-44.34-11v11a60.63 60.63 0 0 0 2.27 16.27 96.24 96.24 0 0 0 42.07 9.76h32.8a96.24 96.24 0 0 0 42.07-9.76 60.63 60.63 0 0 0 2.27-16.27v-11a96.2 96.2 0 0 1-44.33 11z" transform="translate(-100)"/><path class="cls-3" d="M369 112.81v111.86a96.42 96.42 0 0 1-96.41 96.41H239.8a96.42 96.42 0 0 1-96.41-96.41V112.81z" transform="translate(-100)"/><path class="cls-6" d="M192.64 287.41a96.39 96.39 0 0 1-23.21-62.74V112.81h-26v111.86a96.42 96.42 0 0 0 96.41 96.41h26a96.4 96.4 0 0 1-73.2-33.67z" transform="translate(-100)"/><path class="cls-7" d="M230.17 173.56h-34.71a8.68 8.68 0 0 1 0-17.36h34.71a8.68 8.68 0 1 1 0 17.36zm86.78 0h-34.71a8.68 8.68 0 1 1 0-17.36h34.71a8.68 8.68 0 0 1 0 17.36z" transform="translate(-100)"/><path class="cls-5" d="M369 156.2h8.68a26 26 0 1 1 0 52.07H369zm-225.61 52.07h-8.68a26 26 0 0 1 0-52.07h8.68z" transform="translate(-100)"/><path class="cls-7" d="M221.49 190.91a8.68 8.68 0 1 1-8.68-8.68 8.68 8.68 0 0 1 8.68 8.68zm86.78 0a8.68 8.68 0 1 1-8.68-8.68 8.68 8.68 0 0 1 8.68 8.68zm-43.39 104.14h-17.35a8.68 8.68 0 1 1 0-17.36h17.36a8.68 8.68 0 0 1 0 17.36z" transform="translate(-100)"/><path class="cls-4" d="M282.24 225.63a26 26 0 1 1-26-26 26 26 0 0 1 26 26z" transform="translate(-100)"/><path class="cls-8" d="M108.68 95.46h295.05v34.71H108.68z" transform="translate(-100)"/><path class="cls-9" d="M143.39 0H369v95.46H143.39z" transform="translate(-100)"/></svg>