<svg id="Layer_1" data-name="Layer 1" xmlns="http://www.w3.org/2000/svg" viewBox="0 0 512 498.1"><defs><style>.cls-1{fill:#e6e6e6}.cls-2{fill:#ccc}.cls-3{fill:#64b4d8}.cls-4{fill:#4d4d4d}.cls-5{fill:#fcea81}.cls-6{fill:#e0b394}.cls-7{fill:#f7cba4}.cls-8{fill:#f9c573}.cls-9{fill:#e2af66}.cls-10{fill:#f95428}.cls-11{fill:#f2f2f2}.cls-12{fill:#666}</style></defs><title>actor</title><path class="cls-1" d="M321.74 332.35H215a70 70 0 0 0-70 70V505h246.72V402.33a70 70 0 0 0-69.98-69.98z" transform="translate(0 -6.95)"/><path class="cls-2" d="M258.14 332.35H215a70 70 0 0 0-70 70V505h43.12V402.33a70 70 0 0 1 70.02-69.98z" transform="translate(0 -6.95)"/><path class="cls-2" d="M259.89 325.39h16.97V498.1h-16.97z"/><path class="cls-3" d="M317.94 339.09L281 360.4a14.61 14.61 0 0 0-25.32 0l-36.91-21.31v57.24L255.72 375a14.61 14.61 0 0 0 25.28 0l36.91 21.31z" transform="translate(0 -6.95)"/><circle class="cls-4" cx="295.15" cy="473.61" r="8.3"/><circle class="cls-4" cx="295.15" cy="407.24" r="8.3"/><circle class="cls-4" cx="295.15" cy="440.43" r="8.3"/><path class="cls-5" d="M146.57 208.43h-136a120.64 120.64 0 0 0 58.28 158.44 22.64 22.64 0 0 0 19.46 0 120.58 120.58 0 0 0 68.85-108.95 120.08 120.08 0 0 0-10.59-49.49zM27.25 266.14a8.48 8.48 0 0 1 8.49-8.49h24.89a8.49 8.49 0 1 1 0 17h-24.9a8.48 8.48 0 0 1-8.48-8.51zm82 42.15c-.18.5-.41 1-.66 1.61s-.69 1.15-1.09 1.81-.89 1.32-1.41 2.06a24 24 0 0 1-1.75 2c-.62.69-1.32 1.37-2.06 2.09s-1.6 1.29-2.47 1.93a18.28 18.28 0 0 1-2.81 1.87c-1 .57-2 1.11-3.11 1.64a36.5 36.5 0 0 1-7 2.22 39.34 39.34 0 0 1-7.58.86 40.23 40.23 0 0 1-7.59-.84 36.56 36.56 0 0 1-7-2.23 47.76 47.76 0 0 1-3.11-1.63c-.5-.28-1-.53-1.46-.85l-1.35-1c-.87-.64-1.7-1.29-2.47-1.93s-1.43-1.4-2.06-2.09a21.42 21.42 0 0 1-1.73-2c-.49-.72-1-1.37-1.35-2s-.78-1.23-1.08-1.8-.53-1.17-.72-1.67a20.56 20.56 0 0 1-1.1-3.34s1.35.2 3.31.7c.51.11 1 .27 1.6.41s1.22.25 1.89.37c1.3.28 2.67.66 4.21.87.76.12 1.51.31 2.29.45s1.61.2 2.41.34l1.21.2c.41.06.84.08 1.26.14.84.08 1.66.19 2.49.33 1.73 0 3.41.34 5.15.35 1.71.18 3.45.08 5.19.19 1.73-.11 3.47 0 5.19-.18 1.74 0 3.42-.31 5.15-.35.83-.12 1.65-.24 2.5-.32.41-.06.84-.08 1.25-.14s.8-.15 1.21-.2c.8-.14 1.61-.25 2.42-.34s1.52-.33 2.27-.46 1.53-.24 2.18-.39 1.31-.31 2-.42 1.26-.26 1.87-.36 1.14-.35 1.66-.48a28.05 28.05 0 0 1 3.33-.72 27.71 27.71 0 0 1-1.09 3.3zm13.62-33.66H98a8.49 8.49 0 1 1 0-17h24.89a8.49 8.49 0 1 1 0 17z" transform="translate(0 -6.95)"/><path class="cls-6" d="M150.22 236.71a26.4 26.4 0 0 1 1.2-52.77 25.79 25.79 0 0 1 3.87.28m231.22 52.49a26.4 26.4 0 0 0-1.2-52.77 27.21 27.21 0 0 0-3.87.28" transform="translate(0 -6.95)"/><path class="cls-7" d="M353 317.06l-46.45 33.74a65 65 0 0 1-76.38 0l-46.45-33.74a85.66 85.66 0 0 1-34.91-77.52l4-41.58 4-41.79a112 112 0 0 1 223 0l3.9 40.4 4.15 43A85.68 85.68 0 0 1 353 317.06z" transform="translate(0 -6.95)"/><path class="cls-6" d="M177.74 256a51.7 51.7 0 0 0 12 36.32l48.55 59.65a38.65 38.65 0 0 0 8.52 7.58 64.57 64.57 0 0 1-16.65-8.72l-46.45-33.74a85.64 85.64 0 0 1-34.9-77.52l8-83.37A112 112 0 0 1 266.7 55c-35.08.85-74.8 33.91-76.87 69.13z" transform="translate(0 -6.95)"/><path class="cls-6" d="M383.77 196.56c-54.64-78.64-85.59-36.39-116.53-36.39a81.57 81.57 0 0 1-20.88-2.69 88.88 88.88 0 0 1-45.88-30.12c0 29.42-46.3 73.78-46.3 73.78-.45-1.06-.9-2.13-1.34-3.18l4-41.79a112 112 0 0 1 223 0z" transform="translate(0 -6.95)"/><path class="cls-8" d="M394 195.25c-61.1-99.58-93.92-52.05-126.73-52.05a81.57 81.57 0 0 1-20.88-2.69 88.88 88.88 0 0 1-45.88-30.12c0 29.42-46.3 73.78-46.3 73.78C100 57.66 213.91 41.29 213.91 41.29 222.86 20.87 251 5.7 285.24 7a116.6 116.6 0 0 1 38.59 8.31C443.77 62.86 394 195.25 394 195.25z" transform="translate(0 -6.95)"/><path class="cls-9" d="M246.37 140.51a88.88 88.88 0 0 1-45.88-30.12c0 29.42-46.3 73.78-46.3 73.78C100 57.66 213.91 41.29 213.91 41.29 222.86 20.87 251 5.7 285.24 7c-1.84.74-74.39 29.73-38.87 133.51z" transform="translate(0 -6.95)"/><path class="cls-10" d="M501.62 337.43h-133a118.07 118.07 0 0 0 57 155 22.11 22.11 0 0 0 19 0 118.07 118.07 0 0 0 57-155zm-117.05 55.71a8.49 8.49 0 0 1 8.49-8.49h24a8.49 8.49 0 0 1 0 17h-24a8.49 8.49 0 0 1-8.49-8.51zm77.22 48.24c-.49-.1-1-.25-1.55-.39s-1.19-.21-1.83-.33c-1.27-.26-2.6-.59-4.1-.78-.72-.11-1.45-.28-2.2-.42s-1.56-.17-2.33-.29c-.4 0-.78-.12-1.17-.19s-.8-.06-1.2-.1c-.82-.08-1.61-.18-2.41-.29-1.65 0-3.26-.32-4.92-.31-1.65-.17-3.32-.07-5-.18-1.65.1-3.33 0-5 .16-1.67 0-3.28.27-4.93.3-.8.11-1.6.21-2.41.29-.4 0-.8.06-1.2.1s-.78.15-1.17.19c-.78.12-1.55.23-2.33.29s-1.47.3-2.21.42c-1.52.2-2.77.5-4 .72-.63.1-1.22.24-1.81.32s-1.12.33-1.63.44a24.28 24.28 0 0 1-3.25.66 27.3 27.3 0 0 1 1-3.17c.18-.49.39-1 .62-1.57s.64-1.13 1-1.78.85-1.3 1.35-2a24.62 24.62 0 0 1 1.69-2c.6-.68 1.28-1.33 2-2s1.54-1.26 2.39-1.89a17.76 17.76 0 0 1 2.7-1.79c1-.54 2-1.08 3-1.6a35.43 35.43 0 0 1 6.8-2.18 38.86 38.86 0 0 1 7.37-.84 38.11 38.11 0 0 1 7.38.83 35.37 35.37 0 0 1 6.8 2.17c1 .52 2 1.05 3 1.6.49.28 1 .53 1.41.84s.88.62 1.3 1c.84.63 1.64 1.26 2.38 1.89s1.38 1.38 2 2a23.58 23.58 0 0 1 1.66 2c.46.7.92 1.33 1.29 2s.74 1.2 1 1.77.5 1.13.68 1.64a20 20 0 0 1 1 3.19s-1.24-.28-3.18-.73zm15.38-39.75h-24a8.49 8.49 0 1 1 0-17h24a8.49 8.49 0 0 1 0 17zM83.27 97.53a6.22 6.22 0 0 1-4.4-10.62l15-15a6.22 6.22 0 0 1 8.8 8.8l-15 15a6.21 6.21 0 0 1-4.4 1.82zm-44.63 44.63a6.22 6.22 0 0 1-4.4-10.62l15-15a6.22 6.22 0 0 1 8.8 8.8l-15 15a6.2 6.2 0 0 1-4.4 1.82zm59.61 0a6.21 6.21 0 0 1-4.4-1.82l-15-15a6.22 6.22 0 0 1 8.8-8.8l15 15a6.22 6.22 0 0 1-4.4 10.62zM53.62 97.53a6.21 6.21 0 0 1-4.4-1.82l-15-15a6.22 6.22 0 0 1 8.8-8.8l15 15a6.22 6.22 0 0 1-4.4 10.62z" transform="translate(0 -6.95)"/><path class="cls-5" d="M465.26 271.77a6.22 6.22 0 0 1-4.4-10.62l11.85-11.85a6.22 6.22 0 1 1 8.8 8.8l-11.85 11.85a6.2 6.2 0 0 1-4.4 1.82zM430 307.08a6.22 6.22 0 0 1-4.4-10.62l11.85-11.85a6.22 6.22 0 1 1 8.8 8.8l-11.85 11.85a6.2 6.2 0 0 1-4.4 1.82zm47.11 0a6.21 6.21 0 0 1-4.4-1.82l-11.85-11.85a6.22 6.22 0 1 1 8.8-8.8l11.85 11.85a6.22 6.22 0 0 1-4.4 10.62zm-35.31-35.31a6.21 6.21 0 0 1-4.4-1.82l-11.85-11.85a6.22 6.22 0 1 1 8.8-8.8l11.85 11.85a6.22 6.22 0 0 1-4.4 10.62z" transform="translate(0 -6.95)"/><path class="cls-11" d="M312.67 275.74s-.64 1.58-2 4.08c-.33.64-.71 1.32-1.14 2.06s-1.1 1.46-1.73 2.29-1.36 1.66-2.13 2.59a8.84 8.84 0 0 1-.88 1l-.36.34-1.36 1.27c-.93.87-1.93 1.73-3 2.64s-2.3 1.58-3.52 2.42c-.61.42-1.24.83-1.89 1.23s-1.33.7-2 1.05c-1.38.7-2.82 1.38-4.3 2.06a55.42 55.42 0 0 1-9.63 2.77 50.43 50.43 0 0 1-20.66 0 55.39 55.39 0 0 1-9.63-2.77c-1.48-.67-2.92-1.35-4.31-2-.69-.35-1.38-.67-2-1.05s-1.27-.82-1.88-1.23c-1.22-.84-2.42-1.62-3.53-2.42s-2-1.78-3-2.64l-1.35-1.28-.48-.44a7.57 7.57 0 0 1-.76-.84c-.74-.89-1.45-1.72-2.07-2.54s-1.21-1.55-1.71-2.27-.87-1.47-1.22-2.12a37.53 37.53 0 0 1-2-4.12s1.68.51 4.26 1.55c.66.25 1.34.55 2.09.86s1.63.54 2.51.84 1.79.66 2.74 1 2 .6 3.05.92 2.1.68 3.2 1 2.29.54 3.46.83c.59.14 1.16.31 1.75.46s1.22.21 1.83.34q1.85.32 3.7.75c2.57.24 5.1.8 7.75.9 2.61.34 5.28.25 7.93.41 2.66-.16 5.33-.06 7.94-.4 2.65-.09 5.18-.67 7.75-.9 1.23-.27 2.47-.52 3.7-.74.61-.12 1.23-.2 1.83-.34s1.18-.33 1.75-.46c1.18-.28 2.32-.59 3.46-.83s2.16-.7 3.21-1 2.13-.57 3-.92 1.8-.67 2.68-.94 1.69-.59 2.49-.83 1.49-.67 2.16-.93a45.15 45.15 0 0 1 4.3-1.65z" transform="translate(0 -6.95)"/><path class="cls-4" d="M304.78 287.71l-.36.34-1.36 1.27c-.93.87-1.93 1.73-3 2.64s-2.3 1.58-3.52 2.42c-.61.42-1.24.83-1.89 1.23s-1.33.7-2 1.05c-1.38.7-2.82 1.38-4.3 2.06a55.42 55.42 0 0 1-9.63 2.77 50.43 50.43 0 0 1-20.66 0 55.39 55.39 0 0 1-9.63-2.77c-1.48-.67-2.92-1.35-4.31-2-.69-.35-1.38-.67-2-1.05s-1.27-.82-1.88-1.23c-1.22-.84-2.42-1.62-3.53-2.42s-2-1.78-3-2.64l-1.35-1.28-.48-.44 1.1.37c.89.29 1.79.64 2.74 1s2 .61 3.05.93 2.1.67 3.2 1 2.29.54 3.46.83c.59.14 1.16.29 1.75.45s1.22.21 1.83.34c1.23.21 2.47.48 3.7.75 2.57.25 5.1.82 7.75.9 2.61.35 5.28.25 7.93.42 2.66-.16 5.33-.06 7.94-.41 2.65-.09 5.18-.66 7.75-.89 1.23-.27 2.47-.53 3.7-.75.61-.12 1.23-.2 1.83-.34s1.18-.32 1.75-.45c1.18-.28 2.32-.59 3.46-.83s2.16-.71 3.21-1 2.13-.58 3-.92 1.8-.67 2.68-1zM218 237.83a8.49 8.49 0 0 1-8.49-8.49v-13.57a8.49 8.49 0 0 1 17 0v13.57a8.49 8.49 0 0 1-8.51 8.49z" transform="translate(0 -6.95)"/><path class="cls-12" d="M299.34 189.18s0-.23.1-.61.17-1 .36-1.64c.08-.35.2-.71.32-1.1s.39-.81.62-1.27.52-.92.83-1.43a15.82 15.82 0 0 1 1.06-1.42c.39-.48.82-1 1.27-1.45s1-.9 1.55-1.35a21.18 21.18 0 0 1 3.78-2.4 22.3 22.3 0 0 1 4.55-1.56 21.26 21.26 0 0 1 9.92 0 22.47 22.47 0 0 1 4.56 1.55 21.11 21.11 0 0 1 3.78 2.4c.55.45 1.07.9 1.55 1.35s.88 1 1.27 1.46a14.39 14.39 0 0 1 1 1.41c.29.5.56.94.79 1.4s.44.85.6 1.25.28.8.38 1.16a17 17 0 0 1 .39 1.66 6.11 6.11 0 0 1 .09.6h-.63c-.4 0-1-.07-1.64-.17-.34 0-.69-.1-1.07-.15s-.81-.08-1.25-.11c-.86-.09-1.76-.23-2.74-.26-.48 0-1-.1-1.45-.14s-1 0-1.51-.07c-1-.13-2-.05-3-.18-1 0-2-.09-3.05-.06s-2 0-3-.07-2 0-3 .05-2 .1-3.06.05c-1 .12-2 0-3 .17-.5 0-1 .06-1.51.07s-1 .12-1.45.15c-1 .05-1.84.15-2.68.22l-1.23.09c-.41.07-.78.15-1.13.2-.68.12-1.28.15-1.66.2s-.71 0-.71 0zm-100.74 0s0-.23.1-.61.18-1 .37-1.64c.09-.35.2-.71.32-1.1s.38-.81.62-1.27.52-.92.83-1.43a15.81 15.81 0 0 1 1.06-1.42c.38-.48.82-1 1.27-1.45s1-.9 1.55-1.35a21.18 21.18 0 0 1 3.78-2.4 22.3 22.3 0 0 1 4.55-1.56 21.26 21.26 0 0 1 9.92 0 22.47 22.47 0 0 1 4.56 1.55 21.11 21.11 0 0 1 3.78 2.4c.55.45 1.07.9 1.55 1.35s.88 1 1.27 1.46a14.39 14.39 0 0 1 1 1.41c.29.5.56.94.79 1.4s.44.85.6 1.25.28.8.38 1.16a17 17 0 0 1 .39 1.66 6.1 6.1 0 0 1 .09.6h-.63c-.4 0-1-.07-1.64-.17-.34 0-.69-.1-1.07-.15s-.81-.08-1.25-.11c-.86-.09-1.76-.23-2.74-.26-.48 0-1-.1-1.45-.14s-1 0-1.51-.07c-1-.13-2-.05-3-.18-1 0-2-.09-3.05-.06s-2 0-3-.07-2 0-3 .05-2 .1-3.06.05c-1 .12-2 0-3 .17-.5 0-1 .06-1.51.07s-1 .12-1.45.15c-1 .05-1.84.15-2.68.22l-1.23.09c-.41.07-.78.15-1.13.2-.68.12-1.28.15-1.66.2s-.72 0-.72 0z" transform="translate(0 -6.95)"/><path class="cls-4" d="M318.74 237.83a8.49 8.49 0 0 1-8.49-8.49v-13.57a8.49 8.49 0 1 1 17 0v13.57a8.49 8.49 0 0 1-8.51 8.49z" transform="translate(0 -6.95)"/><path class="cls-6" d="M281.38 203.33v40.17a13 13 0 0 1-13 13 13 13 0 0 1-13-13v-40.17" transform="translate(0 -6.95)"/></svg>