<svg id="Capa_1" data-name="Capa 1" xmlns="http://www.w3.org/2000/svg" viewBox="0 0 512 511.9"><defs><style>.cls-1{fill:#fcbf29}.cls-2{fill:#fea832}.cls-3{fill:#1de8f1}.cls-4{fill:#1bd9de}.cls-5{fill:#fd4e26}.cls-6{fill:#e61e14}.cls-7{fill:#fedb41}.cls-8{fill:#e5e5e5}.cls-9{fill:#b8c7d5}.cls-10{fill:#15b7be}.cls-11{fill:#5c697c}.cls-12{fill:#4b5868}</style></defs><title>bouncy-castle</title><path class="cls-1" d="M395.62 45.47a340.2 340.2 0 0 0-281.23 0l28.69 56c69.83-35.24 154-35.24 223.85 0z" transform="translate(0 -.05)"/><path class="cls-2" d="M256 75.09a248.57 248.57 0 0 1 110.93 26.42l28.69-56A338.47 338.47 0 0 0 256 15.06v60z" transform="translate(0 -.05)"/><path class="cls-3" d="M366.92 116.51a15 15 0 0 1-6.75-1.61 234.32 234.32 0 0 0-210.34 0 15 15 0 0 1-13.51-26.78 264.43 264.43 0 0 1 237.37 0 15 15 0 0 1-6.77 28.39z" transform="translate(0 -.05)"/><path class="cls-4" d="M256 90a233.44 233.44 0 0 1 104.17 24.9 15 15 0 0 0 13.51-26.78A263.45 263.45 0 0 0 256 60v30z" transform="translate(0 -.05)"/><path class="cls-5" d="M114.39 60.47a15 15 0 0 1-6.24-28.64 355.19 355.19 0 0 1 293.7 0 15 15 0 1 1-12.47 27.28 323 323 0 0 0-268.76 0 15 15 0 0 1-6.23 1.36z" transform="translate(0 -.05)"/><path class="cls-6" d="M256 29.84a323.12 323.12 0 0 1 133.38 29.27 15 15 0 1 0 12.47-27.28A355.64 355.64 0 0 0 256 .06v29.78z" transform="translate(0 -.05)"/><path class="cls-7" d="M390.97 209.96v61.98l-23.69 30H150.02l-29.99-30v-61.98h270.94z"/><path class="cls-1" d="M367.28 301.94H256v-91.98h134.97v61.98l-23.69 30z"/><path class="cls-8" d="M120.03 271.94h270.95v89.98H120.03z"/><path class="cls-9" d="M256 271.94h134.97v89.98H256z"/><path class="cls-5" d="M466 120h-90a14.85 14.85 0 0 0-15 15v212a14.85 14.85 0 0 0 15 15h90a14.85 14.85 0 0 0 15-15V135a14.85 14.85 0 0 0-15-15z" transform="translate(0 -.05)"/><path class="cls-6" d="M481 135v212a14.85 14.85 0 0 1-15 15h-45V120h45a14.85 14.85 0 0 1 15 15z" transform="translate(0 -.05)"/><path class="cls-7" d="M509.55 126.93l-76-120c-2.7-4.5-7.8-6.6-12.6-6.6s-9.9 2.1-12.6 6.6l-75 120a14.78 14.78 0 0 0-.6 15.3A15.26 15.26 0 0 0 346 150h151a15.26 15.26 0 0 0 13.2-7.8 14.78 14.78 0 0 0-.65-15.27z" transform="translate(0 -.05)"/><path class="cls-2" d="M510.15 142.22A15.26 15.26 0 0 1 497 150h-76V.35c4.8 0 9.9 2.1 12.6 6.6l76 120a14.78 14.78 0 0 1 .55 15.27z" transform="translate(0 -.05)"/><path class="cls-5" d="M135 120H45a14.85 14.85 0 0 0-15 15v212a14.85 14.85 0 0 0 15 15h90a14.85 14.85 0 0 0 15-15V135a14.85 14.85 0 0 0-15-15z" transform="translate(0 -.05)"/><path class="cls-6" d="M150 135v212a14.85 14.85 0 0 1-15 15H90V120h45a14.85 14.85 0 0 1 15 15z" transform="translate(0 -.05)"/><path class="cls-3" d="M436 332H331l-15 30-15-30h-91l-15 30-15-30H75a75 75 0 1 0 0 150h361a75 75 0 0 0 0-150z" transform="translate(0 -.05)"/><path class="cls-10" d="M510.95 407a75 75 0 0 1-75 75H256V332h45l15 30 15-30h105a75 75 0 0 1 74.95 75z" transform="translate(0 -.05)"/><path class="cls-11" d="M331 377a14.85 14.85 0 0 1-15 15H195a15 15 0 0 1 0-30h121a14.85 14.85 0 0 1 15 15zm0 60a14.85 14.85 0 0 1-15 15H195a15 15 0 0 1 0-30h121a14.85 14.85 0 0 1 15 15z" transform="translate(0 -.05)"/><path class="cls-7" d="M177.62 126.93l-75-120c-2.7-4.5-7.8-6.6-12.6-6.6s-9.9 2.1-12.6 6.6l-75 120a14.78 14.78 0 0 0-.6 15.3A15.26 15.26 0 0 0 15 150h150a15.26 15.26 0 0 0 13.2-7.8 14.78 14.78 0 0 0-.58-15.27z" transform="translate(0 -.05)"/><path class="cls-2" d="M178.21 142.22A15.26 15.26 0 0 1 165 150H90V.35c4.8 0 9.9 2.1 12.6 6.6l75 120a14.78 14.78 0 0 1 .61 15.27z" transform="translate(0 -.05)"/><path class="cls-11" d="M180 332v165a15 15 0 1 0 30 0V332z" transform="translate(0 -.05)"/><path class="cls-12" d="M301 332v165a15 15 0 0 0 30 0V332z" transform="translate(0 -.05)"/><path class="cls-12" d="M331 437a14.85 14.85 0 0 1-15 15h-60v-30h60a14.85 14.85 0 0 1 15 15zm-15-45h-60v-30h60a15 15 0 1 1 0 30z" transform="translate(0 -.05)"/></svg>