<svg id="Capa_1" data-name="Capa 1" xmlns="http://www.w3.org/2000/svg" viewBox="0 0 59 49"><defs><style>.cls-1{fill:#f0c419}.cls-2{fill:#fff}.cls-3{fill:#556080}.cls-4{fill:#e64c3c}</style></defs><title>cart</title><path class="cls-1" d="M15 39L9.83 13H58v22a4 4 0 0 1-4 4H15" transform="translate(0 -5)"/><circle class="cls-2" cx="22" cy="43" r="5"/><path class="cls-3" d="M22 54a6 6 0 1 1 6-6 6 6 0 0 1-6 6zm0-10a4 4 0 1 0 4 4 4 4 0 0 0-4-4z" transform="translate(0 -5)"/><circle class="cls-2" cx="45" cy="43" r="5"/><path class="cls-3" d="M45 54a6 6 0 1 1 6-6 6 6 0 0 1-6 6zm0-10a4 4 0 1 0 4 4 4 4 0 0 0-4-4z" transform="translate(0 -5)"/><path class="cls-3" d="M55 48h-5.1a1 1 0 0 1 0-2H55a1 1 0 0 1 0 2zm-14.9 0H26.9a1 1 0 1 1 0-2h13.2a1 1 0 0 1 0 2zM9.83 14a1 1 0 0 1-1-.84L8.15 9H6a1 1 0 0 1 0-2h3.85l1 5.84A1 1 0 0 1 10 14z" transform="translate(0 -5)"/><circle class="cls-2" cx="33.01" cy="13" r="1"/><circle class="cls-2" cx="36.01" cy="10" r="1"/><circle class="cls-2" cx="36.01" cy="16" r="1"/><circle class="cls-2" cx="39.01" cy="13" r="1"/><circle class="cls-2" cx="27.01" cy="13" r="1"/><circle class="cls-2" cx="30.01" cy="10" r="1"/><circle class="cls-2" cx="30.01" cy="16" r="1"/><circle class="cls-2" cx="12.01" cy="10" r="1"/><circle class="cls-2" cx="12.01" cy="16" r="1"/><circle class="cls-2" cx="15.01" cy="13" r="1"/><circle class="cls-2" cx="21.01" cy="13" r="1"/><circle class="cls-2" cx="18.01" cy="10" r="1"/><circle class="cls-2" cx="24.01" cy="10" r="1"/><circle class="cls-2" cx="18.01" cy="16" r="1"/><circle class="cls-2" cx="24.01" cy="16" r="1"/><circle class="cls-2" cx="57.01" cy="13" r="1"/><circle class="cls-2" cx="42.01" cy="10" r="1"/><circle class="cls-2" cx="42.01" cy="16" r="1"/><circle class="cls-2" cx="45.01" cy="13" r="1"/><circle class="cls-2" cx="51.01" cy="13" r="1"/><circle class="cls-2" cx="33.01" cy="19" r="1"/><circle class="cls-2" cx="39.01" cy="19" r="1"/><circle class="cls-2" cx="27.01" cy="19" r="1"/><circle class="cls-2" cx="15.01" cy="19" r="1"/><circle class="cls-2" cx="21.01" cy="19" r="1"/><circle class="cls-2" cx="57.01" cy="19" r="1"/><circle class="cls-2" cx="45.01" cy="19" r="1"/><circle class="cls-2" cx="51.01" cy="19" r="1"/><circle class="cls-2" cx="48.01" cy="10" r="1"/><circle class="cls-2" cx="54.01" cy="10" r="1"/><circle class="cls-2" cx="48.01" cy="16" r="1"/><circle class="cls-2" cx="54.01" cy="16" r="1"/><circle class="cls-2" cx="33.01" cy="25" r="1"/><circle class="cls-2" cx="36.01" cy="22" r="1"/><circle class="cls-2" cx="36.01" cy="28" r="1"/><circle class="cls-2" cx="39.01" cy="25" r="1"/><circle class="cls-2" cx="27.01" cy="25" r="1"/><circle class="cls-2" cx="30.01" cy="22" r="1"/><circle class="cls-2" cx="30.01" cy="28" r="1"/><circle class="cls-2" cx="15.01" cy="25" r="1"/><circle class="cls-2" cx="21.01" cy="25" r="1"/><circle class="cls-2" cx="18.01" cy="22" r="1"/><circle class="cls-2" cx="24.01" cy="22" r="1"/><circle class="cls-2" cx="18.01" cy="28" r="1"/><circle class="cls-2" cx="24.01" cy="28" r="1"/><circle class="cls-2" cx="57.01" cy="25" r="1"/><circle class="cls-2" cx="42.01" cy="22" r="1"/><circle class="cls-2" cx="42.01" cy="28" r="1"/><circle class="cls-2" cx="45.01" cy="25" r="1"/><circle class="cls-2" cx="51.01" cy="25" r="1"/><circle class="cls-2" cx="33.01" cy="31" r="1"/><circle class="cls-2" cx="39.01" cy="31" r="1"/><circle class="cls-2" cx="27.01" cy="31" r="1"/><circle class="cls-2" cx="15.01" cy="31" r="1"/><circle class="cls-2" cx="21.01" cy="31" r="1"/><circle class="cls-2" cx="57.01" cy="31" r="1"/><circle class="cls-2" cx="45.01" cy="31" r="1"/><circle class="cls-2" cx="51.01" cy="31" r="1"/><circle class="cls-2" cx="48.01" cy="22" r="1"/><circle class="cls-2" cx="54.01" cy="22" r="1"/><circle class="cls-2" cx="48.01" cy="28" r="1"/><circle class="cls-2" cx="54.01" cy="28" r="1"/><path class="cls-3" d="M17.1 48H14a5 5 0 0 1-5-5.51A5.15 5.15 0 0 1 14.19 38a1 1 0 1 1 0 2A3.13 3.13 0 0 0 11 42.69a3 3 0 0 0 .78 2.31A3 3 0 0 0 14 46h3.1a1 1 0 1 1 0 2z" transform="translate(0 -5)"/><circle class="cls-4" cx="3" cy="3" r="3"/><path class="cls-3" d="M54 40H14.18L8.61 12H59v23a5 5 0 0 1-5 5zm-38.18-2H54a3 3 0 0 0 3-3V14H11.05z" transform="translate(0 -5)"/></svg>