<svg data-name="Capa 1" xmlns="http://www.w3.org/2000/svg" viewBox="0 0 121.84 164.47"><title>charlie-chaplin</title><g data-name="charlie chaplin"><path data-name="&lt;Compound Path&gt;" d="M11.11 87.48a13.88 13.88 0 0 1-5.94-4.21 3.71 3.71 0 0 1-.84-1.95c0-.63-.07-1.4.43-1.72s.79.48 1.18.76a3.14 3.14 0 0 0 4.51-1.42c.31-.85-.24-1.25-.87-1.56a19.48 19.48 0 0 0-5-1.31l-.9-.18c-.09-.48.26-.42.46-.51a8.9 8.9 0 0 0 5.54-6.54 5.3 5.3 0 0 1 .69-2.18c1-1.19.23-1.59-.67-2.11a24.92 24.92 0 0 0-5.59-2.09c-.54-.15-1.09-.3-1.61-.51a3.82 3.82 0 0 1-2.46-3.43 3.46 3.46 0 0 1 1.86-3.46c2.57-1.61 5.5-1.94 8.42-2.15a24.29 24.29 0 0 1 6.47.2c1 .19 1.3 0 1.24-1.13-.45-8-1-16-1-24.06 0-7.32 2.06-13.65 8-18.39a36.27 36.27 0 0 1 11.71-6.15A74.42 74.42 0 0 1 56.29.17c9-.42 18-.18 26.76 2.31a31.56 31.56 0 0 1 14 7.71 22.43 22.43 0 0 1 6.8 16c.21 9.63.43 19.26.3 28.89 0 1.1.16 1.45 1.39 1.35a35 35 0 0 1 11.8.74h.15c2.66.75 4.2 2.27 4.3 4.23s-1.21 3.68-3.75 4.74a15.11 15.11 0 0 1-3.67 1c1.43 2.35.57 4.14-1.25 5.7q-1.82 1.56-3.6 3.15a5.59 5.59 0 0 0-2 4.51 3 3 0 0 0 1.28 2.81c1.08.6 1.63-.51 2.32-1a3.58 3.58 0 0 1 0 4.58 9.55 9.55 0 0 1-6.86 4c-1.1.15-1.35.51-1.38 1.51a128.51 128.51 0 0 0 .82 17.42c.88 8.49.84 16.86-3.35 24.64-1.85 3.43-3.9 6.75-5.82 10.15-2.45 4.33-4.88 8.66-7.26 13-1.68 3.08-3.67 5.57-7.45 6.3-9.74 1.89-18.25-1-26.15-6.41a49.32 49.32 0 0 1-9.37-8.24c-3.62-4.26-8.05-7.57-12.08-11.39-.45-.43-.88-.87-1.33-1.29-1.6-1.48-3.27-2.83-2.35-5.51.34-1-.15-2.22-.61-3.28-2.25-5.11-4.25-10.26-8.25-14.38a22.7 22.7 0 0 1-6.46-12 5.51 5.51 0 0 0-1.54-3.15c-2.31-2.41-3.73-7.18-.57-10.78zM52.39 76c-1.46-2.59.19-4.4 1.54-6.29a9 9 0 0 0-9.76 5 23.15 23.15 0 0 0-1.49 5c-1.34 5.4-3.38 10.2-9.91 11a17.23 17.23 0 0 1 1.31 3c.73 3-.13 5.81-.79 8.65-.32 1.4-1.1 2.93-.43 4.2 1 1.86-.33 1.8-1.32 1.94-.71.1-.93.35-1 1-.55 3.41-1 6.81.19 10.2a11.77 11.77 0 0 1 .58 3.17c.34 5.3 1.29 10.47 4.83 14.66a132.12 132.12 0 0 0 15.28 15.9 25.41 25.41 0 0 0 6.15 4.14 40 40 0 0 1-6.89-12.13c-1.52-4.36-3-8.76-2.17-13.49a.67.67 0 0 1 .37.52 46.79 46.79 0 0 0 11.8 24.29c2.44 2.7 5.14 5.19 9 5.77a42.42 42.42 0 0 0 6.31.11c5.16 0 8.35-2.46 10.6-7.1 3.26-6.74 7.12-13.18 11-19.57 4-6.58 5.28-13.7 4.82-21.25-.42-6.93-1.35-13.83-1.29-20.79a2.07 2.07 0 0 0-3.29-1.74 5.8 5.8 0 0 0-1.18 1c-1.26 1.39-2.49 2.82-3.85 4.37h1.63c2.42.17 4.37 1.09 5.39 3.43.14.33.64.92-.14 1.12-1.1.28-2.26.83-3.16-.49a2 2 0 0 0-2-1.07c.33 2.24.07 2.72-1.61 3.06a5 5 0 0 1-2.89 0c-1.13-.43-1.14-1.5-1.41-2.58-.73.77-1.69 1.23-1.46 2.35s1.2 1.32 2.09 1.56a11.84 11.84 0 0 1 1.2.22c1 .39 2.17 0 3.26.87-1.71 0-3.21.12-4.68 0a5.93 5.93 0 0 1-4.92-2.73c-.35-.6-.79-1.4.16-1.84 1.92-.89 3.39-2.48 5.5-3.29a11 11 0 0 1-1.59-.52 1.35 1.35 0 0 1-.21-2.44c1.42-1.19 2.82-2.4 4.24-3.6a15.42 15.42 0 0 1 3.69-2.5 3.81 3.81 0 0 1 4.53.83c.3.29.43.8 1 .87.37-2.22 1.67-4.21 1.26-6.58-.22-1.31-.16-2.67-.32-4-.33-2.75-.48-5.53-1.48-8.16-.3-.8-.51-1.61-1.57-.6a3.35 3.35 0 0 1-1.63.53 30.65 30.65 0 0 1-7.7.26c-6.73-.25-13.45-1-20.19-.81-6.11.24-12.24.43-17.4 4.55zm49.37-21.33h.13c0-1.49-.06-3 0-4.47 0-.9-.21-1.14-1.11-1.08-2.46.16-4.93.31-7.4.33A284.88 284.88 0 0 1 64.91 48c-8.3-.75-16.59-1.56-24.9-2.13-5.84-.4-11.69-1-17.57-.44-2.21.21-2.21.18-2.06 2.47 0 .72.11 1.44.1 2.16 0 1.34.64 1.76 1.93 1.91 4.79.57 9.57 1.26 14.36 1.92 9.41 1.3 18.82 2.68 28.24 3.9 8.57 1.11 17.17 1.94 25.8 2.43 3.08.17 6.17.15 9.26.24 1.22 0 1.89-.29 1.72-1.74a34.41 34.41 0 0 1-.03-4.05zm-97.79 3.4c.36 0 .58.09.75 0a22.6 22.6 0 0 1 9.1-1.26c11.1.13 22 2.08 32.94 3.6 6.82.94 13.63 2 20.49 2.59 10.2.85 20.41 1.58 30.62 2.3a60 60 0 0 0 15.24-.42c2.15-.4 4.28-.93 5.92-3.29-4 1.76-7.86 1.78-11.71 1.82-9 .1-18-.68-27-1.26-8.08-.51-16.19-1.15-24.24-2.25-11.6-1.65-23.16-3.62-34.86-4.45a50.26 50.26 0 0 0-11.41.23 10.4 10.4 0 0 0-5.84 2.39zM16.13 94.7c-.19 0-.3 0-.36.09a2.31 2.31 0 0 0-.75 2.52c.16.92-.38 2.07-.24 3.15a20 20 0 0 0 4.4 9.69c1.71 2.25 3.59 4.37 5.39 6.56a17.76 17.76 0 0 1 1.75 2.71 1.73 1.73 0 0 0 2.26.78c.81-.35.06-1 0-1.57a20.61 20.61 0 0 1-.25-5.68c.18-1.58.9-3.23.43-4.72a45 45 0 0 0-5.41-12c-.53-.79-1-.8-1.78-.38a7.32 7.32 0 0 0-3.59 4.6c-.3 1-.42 2.13-.69 3.55-2.22-3.13-1.41-6.24-1.16-9.3zm14.34 34.75c-.42 2.67-.59 4.91 2.13 6.19a32.94 32.94 0 0 1-2.13-6.19zm-2.49-6l2 4.71c.01-4.22-.04-4.33-2-4.72z"/><path data-name="&lt;Path&gt;" d="M89.01 124.83a19.71 19.71 0 0 1-.27 5.54 3.12 3.12 0 0 1-1.31 1.66 15.46 15.46 0 0 1-8.6 3.38 27 27 0 0 1-10.65-1.13c-2.91-.92-3.89-2.06-3.8-5.09a12.15 12.15 0 0 1 3.11-8.3 2.09 2.09 0 0 1 1.64-.93 4.72 4.72 0 0 0 .54 4 4.3 4.3 0 0 0 3.29 1.76 32.85 32.85 0 0 1 8.68 1.87c3.5 1.13 4.4.82 6.73-2.1.16-.15.31-.31.64-.66zM40.9 98.08a14.58 14.58 0 0 0 7.07-3.3c3.32-2.55 6.86-4.42 11.19-4.62a15.78 15.78 0 0 1 8.72 2 12.81 12.81 0 0 0 5.09 2.06c.75.07.66.4.41.92-1.36 2.88-6.88 4.15-9.14 2s-4.79-1.75-7.4-1.18c-3.75.83-7.37 2.18-11.17 2.82a6 6 0 0 1-4.77-.7z"/><path data-name="&lt;Path&gt;" d="M63.03 101.81c-.06 1.28.54 2.72-.85 3.3a6.23 6.23 0 0 1-5.22.1 2.09 2.09 0 0 1-.89-2c.05-1.16-.42-.89-1-.54s-1.18.62-1.74 1c-1.36.84-1.4 1.55-.12 2.54a5.93 5.93 0 0 0 3.6 1.15c1.45 0 2.91 0 4.37.14-2.18 1.32-4.59 1.26-6.94 1-3.13-.31-6.18-1.06-8.63-3.27-.42-.38-1-.78-.9-1.34s.86-.43 1.32-.53a46.26 46.26 0 0 0 7.14-2.74 22.36 22.36 0 0 1 12.64-1.67 8.66 8.66 0 0 1 5.41 3.78c.23.32.34.53 0 .91a3.2 3.2 0 0 1-4.76.25c-1.01-.89-1.85-2.02-3.43-2.08z"/><path data-name="&lt;Compound Path&gt;" d="M89.54 133.21a15.59 15.59 0 0 1-5.14 6.19 21.47 21.47 0 0 1-12.25 4c-5.38.12-10.23-4-11.88-9.74 9.73 2.65 19.41 4.84 29.27-.45zm-10.48 6.65a63 63 0 0 1-15.74-3.52c.08 2.12 1.4 2.89 3 3.4a22.76 22.76 0 0 0 12.74.11z"/><path data-name="&lt;Path&gt;" d="M61.53 142.81a24.61 24.61 0 0 0 6 2.18 1.47 1.47 0 0 1 .83.33c3.77 3.8 8.22 4.42 13.15 2.8 0 0 .09 0 .29.12-4.08 3.11-8.49 4.12-13.31 2.55a10 10 0 0 1-6.96-7.98zm-2.58 3.36a30.28 30.28 0 0 1-3.86-9.23c-.25-1-.37-2-.56-3a5 5 0 0 1 1.73-4.56c1.62-1.65 3.3-3.25 5-4.86a20.78 20.78 0 0 0 4.16-5.36 3.61 3.61 0 0 1-.51 2.68 18.91 18.91 0 0 1-5.23 6.43c-3.54 2.89-3.48 6.43-2.66 10.32.55 2.54 1.26 5.04 1.93 7.58zm33.39-9.73a49 49 0 0 0 1.53-6.59 8.15 8.15 0 0 0-3.33-8.39c-1.51-1.13-1.68-2.32-1.37-4.07a17.69 17.69 0 0 1 6.18 6.4c.69 1.31.33 2.73.19 4.08a19.08 19.08 0 0 1-1.83 6.79c-.35.69-.56 1.51-1.37 1.78zM25.89 105.1a2.64 2.64 0 0 1-.11.65c-1.41 2.51-.42 4.73.85 6.91l.07.14c.37.91.8 1.84 0 2.73a1.06 1.06 0 0 1-1.25.37c-1-.46-1.09-1.46-1.28-2.33a38.16 38.16 0 0 1-.62-4.11c-.08-.8-.35-1.14-1.22-1.22a3.3 3.3 0 0 1-3.09-4.43 17.14 17.14 0 0 1 3.23-5.21c.27-.35.63-.51.83 0 .91 2.19 1.77 4.4 2.59 6.5z"/></g></svg>