<svg id="Capa_1" data-name="Capa 1" xmlns="http://www.w3.org/2000/svg" viewBox="0 0 512 463.36"><defs><style>.cls-1{fill:#9fd479}.cls-2{fill:#8cc165}.cls-3{fill:#ebeef2}.cls-4{fill:#d1d6de}.cls-5{fill:#ed5575}.cls-6{fill:#444966}.cls-7{fill:#5c9cee}</style></defs><title>chat</title><path class="cls-1" d="M339.75 276H53.14a23 23 0 0 0-23 23v118.82a23 23 0 0 0 23 23h207.23A1.87 1.87 0 0 1 262 442a74.85 74.85 0 0 0 57.34 44.74 75.66 75.66 0 0 0 11.88.94q1.86 0 3.73-.09a7.5 7.5 0 0 0 5.13-12.59 60 60 0 0 1-15.72-32.22 1.59 1.59 0 0 1 .39-1.3 1.8 1.8 0 0 1 1.38-.63h13.63a23 23 0 0 0 23-23V299a23 23 0 0 0-23.01-23z" transform="translate(0 -24.32)"/><path class="cls-2" d="M339.75 276H336a22.89 22.89 0 0 1 6 15.48v118.84a23 23 0 0 1-23 23h-13.54a1.79 1.79 0 0 0-1.38.63 1.59 1.59 0 0 0-.39 1.3 60 60 0 0 0 15.72 32.22 7.5 7.5 0 0 1-5.09 12.63q-1.86.09-3.73.09a75.67 75.67 0 0 1-11.88-.94c-1.13-.18-2.24-.39-3.35-.62a75.66 75.66 0 0 0 35.9 9.06q1.86 0 3.73-.09a7.5 7.5 0 0 0 5.09-12.6 60 60 0 0 1-15.72-32.22 1.59 1.59 0 0 1 .39-1.3 1.8 1.8 0 0 1 1.38-.63h13.63a23 23 0 0 0 23-23V299a23 23 0 0 0-23.01-23z" transform="translate(0 -24.32)"/><path class="cls-3" d="M458.86 24.32H172.25a23 23 0 0 0-23 23v118.83a23 23 0 0 0 23 23h13.63a1.79 1.79 0 0 1 1.38.63 1.59 1.59 0 0 1 .39 1.3 60 60 0 0 1-15.72 32.22 7.5 7.5 0 0 0 5.07 12.62q1.86.09 3.73.09a75.64 75.64 0 0 0 11.88-.94A74.85 74.85 0 0 0 250 190.33a1.88 1.88 0 0 1 1.68-1.2h207.18a23 23 0 0 0 23-23V47.3a23 23 0 0 0-23-22.98z" transform="translate(0 -24.32)"/><path class="cls-4" d="M458.86 24.32h-1a22.84 22.84 0 0 1 2.8 11v118.83a23 23 0 0 1-23 23H230.41a1.87 1.87 0 0 0-1.68 1.2 74.84 74.84 0 0 1-56.49 44.6l-.33.36a7.5 7.5 0 0 0 5.09 12.61q1.86.09 3.73.09a75.64 75.64 0 0 0 11.88-.94A74.85 74.85 0 0 0 250 190.33a1.88 1.88 0 0 1 1.68-1.2h207.18a23 23 0 0 0 23-23V47.3a23 23 0 0 0-23-22.98z" transform="translate(0 -24.32)"/><path class="cls-5" d="M76.62 117a39.23 39.23 0 1 0-41.89 0A56 56 0 0 0 0 162.58a5.73 5.73 0 0 0 5.73 6.3h99.83a5.73 5.73 0 0 0 5.73-6.3A56 56 0 0 0 76.62 117z" transform="translate(0 -24.32)"/><path class="cls-6" d="M405 74.44H226.1a7.5 7.5 0 0 1 0-15H405a7.5 7.5 0 1 1 0 15zm0 39.78H226.1a7.5 7.5 0 1 1 0-15H405a7.5 7.5 0 1 1 0 15zM315.56 154H226.1a7.5 7.5 0 0 1 0-15h89.45a7.5 7.5 0 0 1 0 15z" transform="translate(0 -24.32)"/><path class="cls-7" d="M435.38 368.63a39.23 39.23 0 1 1 41.89 0A56 56 0 0 1 512 414.25a5.73 5.73 0 0 1-5.73 6.3h-99.86a5.73 5.73 0 0 1-5.73-6.3 56 56 0 0 1 34.7-45.62z" transform="translate(0 -24.32)"/><path class="cls-3" d="M285.9 326.12H107a7.5 7.5 0 1 1 0-15h178.9a7.5 7.5 0 1 1 0 15zm0 39.78H107a7.5 7.5 0 1 1 0-15h178.9a7.5 7.5 0 1 1 0 15zm0 39.78h-89.46a7.5 7.5 0 0 1 0-15h89.46a7.5 7.5 0 0 1 0 15z" transform="translate(0 -24.32)"/></svg>