<svg id="Capa_1" data-name="Capa 1" xmlns="http://www.w3.org/2000/svg" viewBox="0 0 464 464"><defs><style>.cls-1{fill:#b21d48}.cls-2{fill:#dd1c4b}.cls-3{fill:#7fcccb}.cls-4{fill:#2bb3ce}.cls-5{fill:#e3472c}</style></defs><title>cinema</title><path class="cls-1" d="M312 336v-58.34a15.32 15.32 0 0 1 3.27-9.66 10.26 10.26 0 0 1 7.93-4h49.6a10.26 10.26 0 0 1 7.9 4 15.32 15.32 0 0 1 3.3 9.66V336z"/><path class="cls-2" d="M372.73 276a10.26 10.26 0 0 0-7.93-4h-49.6a9.27 9.27 0 0 0-2.25.29 16.15 16.15 0 0 0-.93 5.37V344h64v-58.34a15.32 15.32 0 0 0-3.29-9.66z"/><path class="cls-1" d="M80 336v-58.34a15.32 15.32 0 0 1 3.27-9.66 10.26 10.26 0 0 1 7.93-4h49.6a10.26 10.26 0 0 1 7.9 4 15.32 15.32 0 0 1 3.3 9.66V336z"/><path class="cls-2" d="M140.73 276a10.26 10.26 0 0 0-7.93-4H83.2a9.27 9.27 0 0 0-2.25.29 16.15 16.15 0 0 0-.93 5.37V344h64v-58.34a15.32 15.32 0 0 0-3.29-9.66z"/><path class="cls-1" d="M308.36 268a11.87 11.87 0 0 0-8.8-4h-55.2a11.87 11.87 0 0 0-8.8 4 13.79 13.79 0 0 0-2.75 4.63 14.92 14.92 0 0 0-.89 5V336H312v-58.34a14.4 14.4 0 0 0-3.64-9.66z"/><path class="cls-2" d="M300.36 276a11.87 11.87 0 0 0-8.8-4h-55.2a11.31 11.31 0 0 0-3.53.63 14.92 14.92 0 0 0-.89 5V344h72v-58.34a14.4 14.4 0 0 0-3.58-9.66z"/><path class="cls-1" d="M228.36 268a11.87 11.87 0 0 0-8.8-4h-55.2a11.87 11.87 0 0 0-8.8 4 13.79 13.79 0 0 0-2.75 4.63 14.92 14.92 0 0 0-.89 5V336H232v-58.34a14.4 14.4 0 0 0-3.64-9.66z"/><path class="cls-2" d="M220.36 276a11.87 11.87 0 0 0-8.8-4h-55.2a11.31 11.31 0 0 0-3.53.63 14.92 14.92 0 0 0-.89 5V344h72v-58.34a14.4 14.4 0 0 0-3.58-9.66z"/><path class="cls-3" d="M0 0h464v216H0z"/><path class="cls-4" d="M464 216H0l195.39-29.1A368.5 368.5 0 0 0 464 0z"/><path class="cls-2" d="M384 232a87.2 87.2 0 0 1 62.4-71.54l1.6-.46a168.8 168.8 0 0 1-91.82-128.65L352 0h112v232zm-304 0a87.2 87.2 0 0 0-62.4-71.54L16 160a168.8 168.8 0 0 0 91.82-128.65L112 0H0v232z"/><path class="cls-5" d="M0 0v232h40a83.2 83.2 0 0 0-31.2-65L0 160A195.89 195.89 0 0 0 66.4 39L72 0zm464 0v232h-40a83.2 83.2 0 0 1 31.2-65l8.8-7a195.89 195.89 0 0 1-66.4-121L392 0z"/><path class="cls-1" d="M352 400v-58.34a15.32 15.32 0 0 1 3.27-9.66 10.26 10.26 0 0 1 7.93-4h49.6a10.26 10.26 0 0 1 7.9 4 15.32 15.32 0 0 1 3.3 9.66V400z"/><path class="cls-2" d="M412.73 340a10.26 10.26 0 0 0-7.93-4h-49.6a9.27 9.27 0 0 0-2.25.29 16.15 16.15 0 0 0-.93 5.37V408h64v-58.34a15.32 15.32 0 0 0-3.29-9.66z"/><path class="cls-1" d="M40 400v-58.34a15.32 15.32 0 0 1 3.27-9.66 10.26 10.26 0 0 1 7.93-4h49.6a10.26 10.26 0 0 1 7.9 4 15.32 15.32 0 0 1 3.3 9.66V400z"/><path class="cls-2" d="M100.73 340a10.26 10.26 0 0 0-7.93-4H43.2a9.27 9.27 0 0 0-2.25.29 16.16 16.16 0 0 0-1 5.37V408h64v-58.34a15.32 15.32 0 0 0-3.22-9.66z"/><path class="cls-1" d="M188.36 332a11.87 11.87 0 0 0-8.8-4h-55.2a11.87 11.87 0 0 0-8.8 4 13.79 13.79 0 0 0-2.75 4.63 14.92 14.92 0 0 0-.89 5V400H192v-58.34a14.4 14.4 0 0 0-3.64-9.66z"/><path class="cls-2" d="M180.36 340a11.87 11.87 0 0 0-8.8-4h-55.2a11.31 11.31 0 0 0-3.53.63 14.92 14.92 0 0 0-.89 5V408h72v-58.34a14.4 14.4 0 0 0-3.58-9.66z"/><path class="cls-1" d="M268.36 332a11.87 11.87 0 0 0-8.8-4h-55.2a11.87 11.87 0 0 0-8.8 4 13.79 13.79 0 0 0-2.75 4.63 14.92 14.92 0 0 0-.89 5V400H272v-58.34a14.4 14.4 0 0 0-3.64-9.66z"/><path class="cls-2" d="M260.36 340a11.87 11.87 0 0 0-8.8-4h-55.2a11.31 11.31 0 0 0-3.53.63 14.92 14.92 0 0 0-.89 5V408h72v-58.34a14.4 14.4 0 0 0-3.58-9.66z"/><path class="cls-1" d="M348.36 332a11.87 11.87 0 0 0-8.8-4h-55.2a11.87 11.87 0 0 0-8.8 4 13.79 13.79 0 0 0-2.75 4.63 14.92 14.92 0 0 0-.89 5V400H352v-58.34a14.4 14.4 0 0 0-3.64-9.66z"/><path class="cls-2" d="M340.36 340a11.87 11.87 0 0 0-8.8-4h-55.2a11.31 11.31 0 0 0-3.53.63 14.92 14.92 0 0 0-.89 5V408h72v-58.34a14.4 14.4 0 0 0-3.58-9.66z"/><path class="cls-1" d="M388.36 396a11.87 11.87 0 0 0-8.8-4h-55.2a11.87 11.87 0 0 0-8.8 4 13.79 13.79 0 0 0-2.75 4.63 14.92 14.92 0 0 0-.89 5V464H392v-58.34a14.4 14.4 0 0 0-3.64-9.66z"/><path class="cls-1" d="M392 464v-58.34a15.32 15.32 0 0 1 3.27-9.66 10.26 10.26 0 0 1 7.93-4h49.6a10.26 10.26 0 0 1 7.9 4 15.32 15.32 0 0 1 3.3 9.66V464zM0 464v-58.34A15.32 15.32 0 0 1 3.27 396a10.26 10.26 0 0 1 7.93-4h49.6a10.26 10.26 0 0 1 7.9 4 15.32 15.32 0 0 1 3.3 9.66V464zm308.36-68a11.87 11.87 0 0 0-8.8-4h-55.2a11.87 11.87 0 0 0-8.8 4 13.79 13.79 0 0 0-2.75 4.63 14.92 14.92 0 0 0-.89 5V464H312v-58.34a14.4 14.4 0 0 0-3.64-9.66z"/><path class="cls-1" d="M228.36 396a11.87 11.87 0 0 0-8.8-4h-55.2a11.87 11.87 0 0 0-8.8 4 13.79 13.79 0 0 0-2.75 4.63 14.92 14.92 0 0 0-.89 5V464H232v-58.34a14.4 14.4 0 0 0-3.64-9.66z"/><path class="cls-1" d="M148.36 396a11.87 11.87 0 0 0-8.8-4h-55.2a11.87 11.87 0 0 0-8.8 4 13.79 13.79 0 0 0-2.75 4.63 14.92 14.92 0 0 0-.89 5V464H152v-58.34a14.4 14.4 0 0 0-3.64-9.66z"/><path class="cls-2" d="M452.73 404a10.26 10.26 0 0 0-7.93-4h-49.6a9.27 9.27 0 0 0-2.25.29 16.15 16.15 0 0 0-.93 5.37V464h64v-50.34a15.32 15.32 0 0 0-3.29-9.66zm-392 0a10.26 10.26 0 0 0-7.93-4H3.2a9.27 9.27 0 0 0-2.25.29 16.16 16.16 0 0 0-1 5.37V464H64v-50.34a15.32 15.32 0 0 0-3.27-9.66zm319.63 0a11.87 11.87 0 0 0-8.8-4h-55.2a11.31 11.31 0 0 0-3.53.63 14.92 14.92 0 0 0-.89 5V464h72v-50.34a14.4 14.4 0 0 0-3.58-9.66zm-80 0a11.87 11.87 0 0 0-8.8-4h-55.2a11.31 11.31 0 0 0-3.53.63 14.92 14.92 0 0 0-.89 5V464h72v-50.34a14.4 14.4 0 0 0-3.58-9.66zm-80 0a11.87 11.87 0 0 0-8.8-4h-55.2a11.31 11.31 0 0 0-3.53.63 14.92 14.92 0 0 0-.89 5V464h72v-50.34a14.4 14.4 0 0 0-3.58-9.66zm-80 0a11.87 11.87 0 0 0-8.8-4h-55.2a11.31 11.31 0 0 0-3.53.63 14.92 14.92 0 0 0-.89 5V464h72v-50.34a14.4 14.4 0 0 0-3.58-9.66z"/></svg>