<svg id="Layer_1" data-name="Layer 1" xmlns="http://www.w3.org/2000/svg" viewBox="0 0 365.49 397.33"><defs><style>.cls-1{fill:#f93030}.cls-2,.cls-5{fill:#2d4151}.cls-3{fill:#f9c032}.cls-4{fill:#ce2e2e}.cls-5{opacity:.34;isolation:isolate}.cls-6{fill:#3496f7}.cls-7{fill:#fff}</style></defs><title>circus</title><path class="cls-1" d="M213.53 10.67l-32.67 10.66V0l32.67 10.67z"/><path class="cls-2" d="M180.86 0h4v48h-4z"/><path class="cls-3" d="M377.75 179.41a629.29 629.29 0 0 0 3.17 217.92h-365A629.31 629.31 0 0 0 19 178.81 559.478 559.478 0 0 0 16.05 162l-.12-.67s3.57-2 5.59-3A816.07 816.07 0 0 0 198.42 39.7a816 816 0 0 0 175.12 117.75c2.61 1.3 7.38 3.88 7.38 3.88l-.12.67c-.76 4-1.49 8-2.16 12-.31 1.8-.64 3.61-.89 5.41z" transform="translate(-15.92)"/><path class="cls-1" d="M35 161.33h.44c0 .22.07.45.11.67.67 4 1.33 8 1.92 12 .25 1.6.49 3.21.71 4.81a703.36 703.36 0 0 1-2.74 218.52H15.92A629.31 629.31 0 0 0 19 178.81 559.478 559.478 0 0 0 16.05 162m365.36-.67h-.49l-.12.67c-.76 4-1.49 8-2.16 12-.31 1.8-.6 3.61-.89 5.41a629.29 629.29 0 0 0 3.17 217.92h-19.49a703.5 703.5 0 0 1-2.83-217.92c.26-1.8.52-3.61.79-5.41.6-4 1.25-8 1.93-12 0-.22.07-.45.11-.67h.44m-222.71 236h-51A1035.63 1035.63 0 0 0 89.52 174q-.65-6.34-1.38-12.67h51q.39 6.33.74 12.67a1925.74 1925.74 0 0 1-.72 223.33zm169.54 0h-51a1925.73 1925.73 0 0 1-.76-223.33q.35-6.34.74-12.67h51q-.73 6.33-1.38 12.67a1035.63 1035.63 0 0 0 1.4 223.33zm-50.93-236c-22.12-33.12-42-74.5-59.35-121.64-17.35 47.13-37.23 88.51-59.35 121.64H88.58c40.93-33.12 77.73-74.5 109.84-121.64 32.11 47.13 68.91 88.51 109.84 121.64z" transform="translate(-15.92)"/><path class="cls-4" d="M126.42 397.33V241.27a8.94 8.94 0 0 1 8.94-8.94h126.12a8.94 8.94 0 0 1 8.94 8.94v156.06z" transform="translate(-15.92)"/><path class="cls-2" d="M117.5 239.33h130v158h-130z"/><path class="cls-3" d="M263.42 239.33v139.33a24 24 0 0 1-8.5-1.68c-22.58-8.69-41.65-49.61-51.5-85.61-2.11-7.71-3.79-15.19-5-22.09a127.89 127.89 0 0 1-2.17-21.28 68.87 68.87 0 0 1 .55-8.67z" transform="translate(-15.92)"/><path class="cls-3" d="M200.59 248a127.89 127.89 0 0 1-2.17 21.28c-6.84 39.09-29.09 97.15-56.5 107.7a24 24 0 0 1-8.5 1.68V239.33H200a68.88 68.88 0 0 1 .59 8.67z" transform="translate(-15.92)"/><path class="cls-5" d="M380.8 162c-.76 4-1.49 8-2.16 12-.31 1.8-.6 3.61-.89 5.41a18.27 18.27 0 0 1-33-10.75 18.27 18.27 0 1 1-36.53 0 18.27 18.27 0 1 1-36.54 0 18.27 18.27 0 1 1-36.53 0 18.27 18.27 0 0 1-36.54 0 18.27 18.27 0 1 1-36.53 0 18.27 18.27 0 1 1-36.53 0 18.27 18.27 0 1 1-36.53 0 18.27 18.27 0 1 1-36.53 0A18.27 18.27 0 0 1 19 178.81 559.478 559.478 0 0 0 16.05 162z" transform="translate(-15.92)"/><path class="cls-6" d="M52.45 161.33a18.27 18.27 0 1 1-36.53 0" transform="translate(-15.92)"/><path class="cls-7" d="M89 161.33a18.27 18.27 0 1 1-36.53 0" transform="translate(-15.92)"/><path class="cls-6" d="M125.51 161.33a18.27 18.27 0 1 1-36.53 0" transform="translate(-15.92)"/><path class="cls-7" d="M162 161.33a18.27 18.27 0 1 1-36.53 0" transform="translate(-15.92)"/><path class="cls-6" d="M198.57 161.33a18.27 18.27 0 1 1-36.53 0" transform="translate(-15.92)"/><path class="cls-7" d="M235.11 161.33a18.27 18.27 0 0 1-36.54 0" transform="translate(-15.92)"/><path class="cls-6" d="M271.64 161.33a18.27 18.27 0 1 1-36.53 0" transform="translate(-15.92)"/><path class="cls-7" d="M308.18 161.33a18.27 18.27 0 1 1-36.53 0" transform="translate(-15.92)"/><path class="cls-6" d="M344.71 161.33a18.27 18.27 0 1 1-36.53 0" transform="translate(-15.92)"/><path class="cls-7" d="M344.71 161.33a18.27 18.27 0 1 0 36.53 0" transform="translate(-15.92)"/><path class="cls-5" d="M254.92 239.33h-121.5v139.33a24 24 0 0 0 8.5-1.68V257.33h58.15c-.36 3.71-.91 7.7-1.65 12 1.21 6.9 2.89 14.38 5 22.09 2.11-7.71 3.79-15.19 5-22.09.53-3 1-8 1.31-12h45.19V377a24 24 0 0 0 8.5 1.68V239.33z" transform="translate(-15.92)"/><path class="cls-7" d="M293.15 221.39a863.29 863.29 0 0 1-189.46 0l3.73-33.79a829.2 829.2 0 0 0 182 0z" transform="translate(-15.92)"/><path class="cls-6" d="M174 197.41a4.94 4.94 0 0 1 .46 3 7.83 7.83 0 0 1-1.29 3.2 17.26 17.26 0 0 1-4 4.47 9.8 9.8 0 0 1-7 1.83 13.31 13.31 0 0 1-5.43-1.62l-.7.93a5.22 5.22 0 0 0-.47 5.2c1 2.1 3.37 3.41 6.62 3.68a12.24 12.24 0 0 0 7.13-1.17 4.48 4.48 0 0 0 1.67-1.47l.05-.12 1.44-2.11a1.33 1.33 0 0 1 1.8-.39 1.25 1.25 0 0 1 .38 1.72l-1.38 2.08a6.74 6.74 0 0 1-2.38 2.35 11.32 11.32 0 0 1-3.53 1.34 18.76 18.76 0 0 1-5.43.29 12.58 12.58 0 0 1-5.61-1.71 8.71 8.71 0 0 1-3.19-3.44 7.67 7.67 0 0 1-.67-4 7.38 7.38 0 0 1 1.43-3.68l.75-1a7.3 7.3 0 0 1-1.77-2.35 6 6 0 0 1-.55-3.23 6.44 6.44 0 0 1 5.24-5.65 1.25 1.25 0 0 1 .47 2.46 3.88 3.88 0 0 0-3.19 3.47 4.16 4.16 0 0 0 1.29 3.29q1.29-1.76 2.57-3.54a25.63 25.63 0 0 1 4.36-4.85 8.5 8.5 0 0 1 5.87-1.91 5.77 5.77 0 0 1 5.06 2.93zm-13.13 5.26q-1.29 1.8-2.6 3.59a10.74 10.74 0 0 0 4.15 1.16c4.41.37 6.62-2.23 8.63-5.21.94-1.39 1.19-2.75.7-3.69a3.32 3.32 0 0 0-2.91-1.57c-3.03-.21-5.35 2.13-7.93 5.72z" transform="translate(-15.92)"/><path class="cls-6" d="M178.85 208.53q-2.7 4.08-5.49 8.14a1.24 1.24 0 0 0-.21 1.32 2.31 2.31 0 0 0 1.92 1c2 .1 3.65-1.69 4.67-3.22l1.44-2.22a1.36 1.36 0 0 1 1.79-.39 1.25 1.25 0 0 1 .42 1.71l-1.39 2.2a10.79 10.79 0 0 1-2.89 3.07 6.27 6.27 0 0 1-4.13 1.29 5 5 0 0 1-4.15-2.36 3.54 3.54 0 0 1 .37-3.79q2.81-4 5.52-8.11a1.35 1.35 0 0 1 1.77-.37 1.18 1.18 0 0 1 .36 1.73zm2.88-4.6a1.48 1.48 0 0 1-1.54 1.39 1.46 1.46 0 0 1-1.42-1.51 1.43 1.43 0 0 1 1.54-1.38 1.46 1.46 0 0 1 1.42 1.5z" transform="translate(-15.92)"/><path class="cls-6" d="M188.62 204.8c-.22.45-.4.86.39 1.58q1.74 1.51 3.5 3a1.24 1.24 0 0 1 .24 1.58q-2 3.17-4 6.31a1.45 1.45 0 0 0-.21 1.53 1.89 1.89 0 0 0 1.61.7c1.93 0 3.54-1.81 4.51-3.38l1.36-2.27a1.36 1.36 0 0 1 1.78-.45 1.25 1.25 0 0 1 .48 1.7l-1.28 2.26a10.78 10.78 0 0 1-2.78 3.17 6.25 6.25 0 0 1-4 1.44 4.4 4.4 0 0 1-3.88-2 3.73 3.73 0 0 1 .28-4q1.75-2.69 3.46-5.39l-2.49-2.17q-2.54 4-5.18 8a1.43 1.43 0 0 1-1.16.58 2 2 0 0 1-.65-.19 1.24 1.24 0 0 1-.41-1.72q3-4.48 5.83-9a3.43 3.43 0 0 1 .5-2.6 1.3 1.3 0 0 1 1.74-.41 1.2 1.2 0 0 1 .36 1.73z" transform="translate(-15.92)"/><path class="cls-6" d="M209.56 205.56a4.34 4.34 0 0 1-.17 4.52 1.33 1.33 0 0 1-1.75.5 1.24 1.24 0 0 1-.51-1.69 2.05 2.05 0 0 0 .25-2 1.77 1.77 0 0 0-1.59-.63 3.45 3.45 0 0 0-2.37 1 12.54 12.54 0 0 0-2.2 3q-1.34 2.29-2.7 4.57a3 3 0 0 0 0 3c.7 1.12 2.2 1.74 4.18 1.71 1.27 0 4-.05 6.53-4.06L210 214a1.35 1.35 0 0 1 1.76-.55 1.22 1.22 0 0 1 .58 1.68l-.82 1.48c-3.25 5.21-7.18 5.31-8.72 5.32h-.09c-4 0-5.79-1.84-6.44-3a5.35 5.35 0 0 1-.77-2.82 5 5 0 0 1 .79-2.69q1.37-2.27 2.72-4.55c1.63-2.7 3.5-5.19 6.76-5.25a4.25 4.25 0 0 1 3.79 1.94z" transform="translate(-15.92)"/><path class="cls-6" d="M225.65 205.26q-2.94 5.8-6.06 11.56a1.25 1.25 0 0 0-.06 1.33 2.25 2.25 0 0 0 2 .76c2-.11 3.4-2.07 4.25-3.7l1.24-2.37a1.35 1.35 0 0 1 1.74-.58 1.25 1.25 0 0 1 .6 1.66l-1.23 2.37a11.39 11.39 0 0 1-2.5 3.37 6.28 6.28 0 0 1-4 1.73 5 5 0 0 1-4.19-1.65 6.29 6.29 0 0 1-4.42 2 4.39 4.39 0 0 1-4-1.78 4.26 4.26 0 0 1 .19-4.52q3.1-5.43 6-10.9A1.31 1.31 0 0 1 217 204a1.25 1.25 0 0 1 .55 1.67q-2.91 5.49-6 10.93a2 2 0 0 0-.24 2 1.83 1.83 0 0 0 1.65.61 3.63 3.63 0 0 0 2.42-1.09 11.9 11.9 0 0 0 2.14-3q3-5.49 5.82-11a1.31 1.31 0 0 1 1.71-.57 1.25 1.25 0 0 1 .6 1.71z" transform="translate(-15.92)"/><path class="cls-6" d="M234.74 203.17a2.22 2.22 0 0 1-.13.51c-.69 1.85.45 3.74 1.68 5.75a19.41 19.41 0 0 1 1.74 3.25 5.1 5.1 0 0 1 0 3.82 9.17 9.17 0 0 1-.6 1.14c1.54-.56 2.65-2.25 3.34-3.69l1.15-2.41a1.37 1.37 0 0 1 1.72-.64 1.25 1.25 0 0 1 .66 1.64l-1.13 2.46a10.75 10.75 0 0 1-2.38 3.45 6.27 6.27 0 0 1-3.9 1.87l-1.76.16c-1.58.14-4.86.4-6.65-1.22 0 0 0-.08-.1-.12a1.2 1.2 0 0 1 .1-1.75 1.28 1.28 0 0 1 .72-.34h.18a1.56 1.56 0 0 1 .9.35 5.25 5.25 0 0 0 3.23.16 3.29 3.29 0 0 0 2.13-1.89c.58-1.38-.45-3-1.56-4.89a20.63 20.63 0 0 1-1.65-3.1l-4 8a1.38 1.38 0 0 1-1.76.58 1.24 1.24 0 0 1-.59-1.66q3.13-6 6.07-12.12l.12-.13a1.42 1.42 0 0 1 1.87-.45 1.25 1.25 0 0 1 .6 1.27z" transform="translate(-15.92)"/><circle class="cls-2" cx="96.25" cy="193.93" r="2.75"/><circle class="cls-2" cx="94.75" cy="216.18" r="2.75"/><circle class="cls-2" cx="268.75" cy="193.93" r="2.75"/><circle class="cls-2" cx="270.25" cy="216.18" r="2.75"/></svg>