<svg id="Layer_1" data-name="Layer 1" xmlns="http://www.w3.org/2000/svg" viewBox="0 0 591.4 591.39"><defs><style>.cls-1{fill:#ffb782}.cls-2{fill:#de4c3c}.cls-3{fill:#7a4930}.cls-4{fill:#4398d1}.cls-5{fill:#3e8cc7}.cls-6{fill:#5eb3d1}.cls-7{fill:#88b337}.cls-8{fill:#6b962a}.cls-9{fill:#fdb62f}.cls-10{fill:#fd7b2f}.cls-11{fill:#f2a46f}</style></defs><title>debit-card</title><g id="surface1"><path class="cls-1" d="M555.31 168.65L448.65 61.78V490H591.4V255.42a122.37 122.37 0 0 0-36.09-86.77z" transform="translate(0 -.6)"/><path class="cls-2" d="M83.37 412L2.74 202.67a40.78 40.78 0 0 1 23.4-52.72l380.6-146.6a40.78 40.78 0 0 1 52.71 23.4l80.64 209.33a40.78 40.78 0 0 1-23.4 52.72L136.1 435.4A40.8 40.8 0 0 1 83.37 412z" transform="translate(0 -.6)"/><path class="cls-3" d="M488.51 102.16L32.16 279l30.39 78.88 456.37-176.76z" transform="translate(0 -.6)"/><path class="cls-4" d="M0 265.71V41.39A40.79 40.79 0 0 1 40.79.6h407.86a40.79 40.79 0 0 1 40.79 40.79v224.32a40.79 40.79 0 0 1-40.79 40.79H40.79A40.79 40.79 0 0 1 0 265.71z" transform="translate(0 -.6)"/><path class="cls-5" d="M448.65.6h-43.34L99.42 306.5h349.23a40.79 40.79 0 0 0 40.79-40.79V41.39A40.79 40.79 0 0 0 448.65.6z" transform="translate(0 -.6)"/><path class="cls-6" d="M40.79 163.74h40.79v20.39H40.79zm0 61.18h40.79v20.39H40.79zm183.54 0h40.79v20.39h-40.79zM102 163.74h40.78v20.39H102zm61.15 0h40.79v20.39h-40.79zm61.18 0h40.79v20.39h-40.79zM418.06 41.39h20.39V72h-20.39zm-40.79 0h20.39V72h-20.39zm-40.79 0h20.39V72h-20.39zm-40.78 0h20.39V72H295.7z" transform="translate(0 -.6)"/><path class="cls-7" d="M407.86 490H591.4v102H407.86z" transform="translate(0 -.6)"/><path class="cls-1" d="M377.93 184.8a44.2 44.2 0 0 0-63.83 61.13l83.56 91.16a137.51 137.51 0 0 0 2.78 141.09l7.42 11.82h132.55V347.28z" transform="translate(0 -.6)"/><path class="cls-8" d="M438.45 520.62h20.39V541h-20.39z" transform="translate(0 -.6)"/><path class="cls-9" d="M40.79 106.65V57.7a16.31 16.31 0 0 1 16.32-16.31H106a16.31 16.31 0 0 1 16.36 16.31v48.94A16.31 16.31 0 0 1 106 123H57.11a16.31 16.31 0 0 1-16.32-16.35z" transform="translate(0 -.6)"/><path class="cls-10" d="M40.79 72h30.59v20.37H40.79zm50.98 0h30.59v20.37H91.77z" transform="translate(0 -.6)"/><path class="cls-11" d="M530.22 347.28a10.18 10.18 0 0 1-7.21-3l-40.79-40.79a10.2 10.2 0 0 1 14.42-14.42l40.79 40.79a10.2 10.2 0 0 1-7.21 17.41z" transform="translate(0 -.6)"/></g></svg>