<svg id="Capa_1" data-name="Capa 1" xmlns="http://www.w3.org/2000/svg" viewBox="0 0 512 367.16"><defs><style>.cls-1{fill:#5d9cec}.cls-2{fill:#4a89dc}.cls-3{fill:#ed5565}.cls-4{fill:#da4453}.cls-5{fill:#ccd1d9}.cls-6{fill:#e6e9ed}.cls-7{fill:#aab2bc}.cls-8{fill:#656d78}</style></defs><title>delivery-truck</title><path class="cls-1" d="M414.5 192.08h-32.23l-6.53 75h38.76c23 0 33.34 11.91 44.31 24.51 10.4 11.95 22.18 25.49 44.49 25.49h6.85l.61-6.8c.75-8.78 1.24-16.17 1.24-20.7a97.61 97.61 0 0 0-97.5-97.5z" transform="translate(0 -72.42)"/><path class="cls-2" d="M414.5 192.08h-30a97.61 97.61 0 0 1 97.5 97.5c0 4.53-.48 11.92-1.24 20.7l-.1 1.08a45.25 45.25 0 0 0 22.64 5.72h6.85l.61-6.8c.75-8.78 1.24-16.17 1.24-20.7a97.61 97.61 0 0 0-97.5-97.5z" transform="translate(0 -72.42)"/><path class="cls-3" d="M392 79.85v-1.07c0-.11 0-.28-.07-.42s-.05-.21-.08-.31-.07-.27-.11-.4-.08-.22-.12-.32-.08-.24-.14-.36-.11-.24-.17-.36-.09-.2-.14-.29-.17-.28-.26-.42l-.12-.19a5.72 5.72 0 0 0-.37-.49l-.06-.08a7.5 7.5 0 0 0-2.18-1.8c-.17-.09-.35-.18-.54-.26l-.24-.08-.45-.17-.25-.09-.38-.1-.36-.09-.35-.05-.41-.06H111a7.5 7.5 0 0 0-7.32 5.92v.07c0 .19-.06.38-.09.57s0 .12 0 .18L81.3 308.8l-.07.76a7.5 7.5 0 0 0 7.5 7.48H365.4l.58-.09.25-.06.45-.11.29-.1.37-.14.31-.14.33-.16.3-.17.3-.19.28-.2.29-.22.26-.21.28-.25.23-.23.26-.29.2-.24.24-.32.17-.25.21-.35.15-.27c.06-.12.12-.24.17-.36l.13-.29c0-.12.09-.24.13-.36s.08-.21.11-.32.06-.23.09-.35.06-.24.08-.36 0-.24.05-.36 0-.25.05-.37 0 0 0-.05L392 80.71v-.86z" transform="translate(0 -72.42)"/><path class="cls-4" d="M392 79.85v-1.07c0-.11 0-.28-.07-.42s-.05-.21-.08-.31-.07-.27-.11-.4-.08-.22-.12-.32-.08-.24-.14-.36-.11-.24-.17-.36-.09-.2-.14-.29-.17-.28-.26-.42l-.12-.19a5.72 5.72 0 0 0-.37-.49l-.06-.08a7.5 7.5 0 0 0-2.18-1.8c-.17-.09-.35-.18-.54-.26l-.24-.08-.45-.17-.25-.09-.38-.1-.36-.09-.35-.05-.41-.06h-30l.41.06.35.05.36.09.38.1.25.09.45.17.13.06c.18.08.36.16.54.26a7.5 7.5 0 0 1 2.18 1.8l.06.08c.13.16.25.32.37.49l.12.19c.09.14.18.28.26.42s.1.19.14.29.12.23.17.36.09.24.14.36.08.21.12.32.07.26.11.4.06.21.08.31 0 .28.07.42 0 .21 0 .32v1.61L342 310.23v.05c0 .05 0 .25-.05.37s0 .24-.05.36-.05.24-.08.36-.06.24-.09.35-.07.22-.11.32-.08.24-.13.36l-.13.29c-.06.12-.11.24-.17.36l-.15.27-.21.35-.17.25-.24.32-.2.24-.26.29-.23.23-.28.25-.26.21-.29.22-.28.2-.3.19-.3.17-.33.16-.31.14-.37.14-.29.1-.45.11-.25.06-.58.09h-.88 30.89l.58-.09.25-.06.45-.11.29-.1.37-.14.31-.14.33-.16.3-.17.3-.19.28-.2.29-.22.26-.21.28-.25.23-.23.26-.29.2-.24.24-.32.17-.25.21-.35.15-.27c.06-.12.12-.24.17-.36l.13-.29c0-.12.09-.24.13-.36s.08-.21.11-.32.06-.23.09-.35.06-.24.08-.36 0-.24.05-.36 0-.25.05-.37 0 0 0-.05L392 80.71v-.86z" transform="translate(0 -72.42)"/><path class="cls-5" d="M414.5 267.08a59 59 0 0 1 6.94.4l6.48-74.48a98 98 0 0 0-13.42-.93h-1.55l-6.53 75h8.08z" transform="translate(0 -72.42)"/><path class="cls-6" d="M151 257.08H61a7.5 7.5 0 1 1 0-15h90a7.5 7.5 0 0 1 0 15zm-80-50H34.33a7.5 7.5 0 1 1 0-15H71a7.5 7.5 0 1 1 0 15zm120-60H7.5a7.5 7.5 0 0 1 0-15H191a7.5 7.5 0 0 1 0 15z" transform="translate(0 -72.42)"/><path class="cls-5" d="M510.75 310.37l-.59 6.54c.21-2.24.41-4.43.59-6.53zm-7.45 6.71c-22.3 0-34.09-13.54-44.49-25.49-11-12.61-21.33-24.51-44.31-24.51h-38.76L372 310.23v.05c0 .05 0 .25-.05.37s0 .24-.05.36-.05.24-.08.36-.06.24-.09.35-.07.22-.11.32-.08.24-.13.36l-.13.29c-.06.12-.11.24-.17.36l-.15.27-.21.35-.17.25-.24.32-.2.24-.26.29-.23.23-.28.25-.26.21-.29.22-.28.2-.3.19-.3.17-.33.16-.31.14-.37.14-.29.1-.45.11-.25.06-.58.09H88.76a7.5 7.5 0 0 1-7.5-7.48l-7.72 79.24v1.53c0 .06.05.39.09.58s0 .11 0 .17.07.28.11.42 0 .2.08.3v.08a7.51 7.51 0 0 0 1.78 2.94l.25.23a7.41 7.41 0 0 0 1.74 1.19l.4.19h.13l.57.21h.05c.22.07.45.13.68.17h.09c.22 0 .44.08.66.1h415.1l.58-.09.24-.06.44-.11.29-.1.37-.14.3-.13.33-.16.3-.16.31-.19.28-.19.3-.22.24-.2.3-.27.2-.2c.11-.11.2-.22.3-.33l.16-.18c.11-.13.21-.27.31-.41l.11-.14c.12-.18.24-.37.34-.56a6.89 6.89 0 0 0 .31-.64l.07-.19c.06-.15.12-.31.17-.47s.06-.21.09-.32.07-.25.1-.38 0-.23.06-.34 0-.2.05-.3c.3-2.37 5.39-43.22 8.21-73.43z" transform="translate(0 -72.42)"/><path class="cls-7" d="M503.3 317.08a45.25 45.25 0 0 1-22.59-5.69c-2.82 30.22-8.48 76.76-8.77 79.12 0 .1 0 .2-.05.3s0 .23-.06.34-.06.25-.1.38-.05.21-.09.32-.11.32-.17.47l-.07.19a6.9 6.9 0 0 1-.31.64c-.11.19-.22.38-.34.56l-.11.14c-.1.14-.2.28-.31.41l-.16.18c-.1.11-.2.23-.3.33l-.2.2-.3.27-.24.2-.3.22-.28.19-.31.19-.3.16-.33.16-.3.13-.37.14-.29.1-.44.11-.24.06-.58.09h-.85 30.87l.58-.09.24-.06.44-.11.29-.1.37-.14.3-.13.33-.16.3-.16.31-.19.28-.19.3-.22.24-.2.3-.27.2-.2c.11-.11.2-.22.3-.33l.16-.18c.11-.13.21-.27.31-.41l.11-.14c.12-.18.24-.37.34-.56a6.89 6.89 0 0 0 .31-.64l.07-.19c.06-.15.12-.31.17-.47s.06-.21.09-.32.07-.25.1-.38 0-.23.06-.34 0-.2.05-.3c.3-2.37 5.39-43.22 8.21-73.43z" transform="translate(0 -72.42)"/><path class="cls-8" d="M171 439.58a50 50 0 1 1 50-50 50.06 50.06 0 0 1-50 50z" transform="translate(0 -72.42)"/><path class="cls-5" d="M171 409.58a20 20 0 1 1 20-20 20 20 0 0 1-20 20z" transform="translate(0 -72.42)"/><path class="cls-8" d="M404.5 439.58a50 50 0 1 1 50-50 50.06 50.06 0 0 1-50 50z" transform="translate(0 -72.42)"/><path class="cls-5" d="M404.5 409.58a20 20 0 1 1 20-20 20 20 0 0 1-20 20z" transform="translate(0 -72.42)"/></svg>