<svg id="Capa_1" data-name="Capa 1" xmlns="http://www.w3.org/2000/svg" viewBox="0 0 511.75 512"><defs><style>.cls-1{fill:#455058}.cls-2{fill:#e6b09f}.cls-3{fill:#323a40}.cls-4{fill:#efedee}.cls-5{fill:#d4d2d3}.cls-6{fill:#ffc4b1}.cls-7{fill:#3a484a}.cls-8{fill:#323b40}.cls-9{fill:#bd364b}.cls-10{fill:#d85c67}</style></defs><title>musician</title><path class="cls-1" d="M215.84 419.89h-51.49s-51.86 26.55-51.86 92.11h103.35L256 465.95zm131.81 0h-51.49L256 465.95 296.16 512h103.35c0-65.56-51.86-92.11-51.86-92.11z" transform="translate(-.12)"/><circle class="cls-2" cx="440.97" cy="265.25" r="46.4"/><path class="cls-3" d="M347.65 419.89h-51.49L256 465.95l2.61 3a214.89 214.89 0 0 0 110.84-32c-11.45-11.75-21.8-17.06-21.8-17.06zm-94.27 49.05l2.62-3-40.16-46.05h-51.49s-10.35 5.3-21.8 17a214.91 214.91 0 0 0 110.83 32.05z" transform="translate(-.12)"/><path class="cls-4" d="M215.72 419.88h80.32v92.11h-80.32z"/><path class="cls-5" d="M215.84 465.25a218.47 218.47 0 0 0 80.32 0v-45.36h-80.32z" transform="translate(-.12)"/><ellipse class="cls-6" cx="255.88" cy="265.25" rx="185.1" ry="177.96"/><path class="cls-2" d="M286.92 432.9c-102.23 0-185.1-79.67-185.1-178 0-72.27 44.81-134.48 109.17-162.34C145.87 108.24 94.41 157 77.14 219.28a46.4 46.4 0 1 0 0 91.94c21.08 76 93.16 132 178.85 132a190.72 190.72 0 0 0 75.92-15.61 192.54 192.54 0 0 1-44.99 5.29z" transform="translate(-.12)"/><path class="cls-7" d="M173.65 280.52a7.73 7.73 0 0 1-7.73-7.73v-14.9a7.73 7.73 0 0 1 15.46 0v14.9a7.73 7.73 0 0 1-7.73 7.73zm164.7 0a7.73 7.73 0 0 1-7.73-7.73v-14.9a7.73 7.73 0 0 1 15.46 0v14.9a7.73 7.73 0 0 1-7.73 7.73zM256 291.53a40.77 40.77 0 0 1-30.79-13.69 7.73 7.73 0 0 1 11.64-10.17 26 26 0 0 0 38.3 0 7.73 7.73 0 1 1 11.64 10.18A40.76 40.76 0 0 1 256 291.53z" transform="translate(-.12)"/><path class="cls-8" d="M153.74 512v-42.16a7.73 7.73 0 1 1 15.46 0V512zm189.05 0v-42.16a7.73 7.73 0 0 1 15.46 0V512z" transform="translate(-.12)"/><path class="cls-4" d="M256 21.29C133-49.39 40.88 71.65 44.1 155.13a14 14 0 0 1-10.33 14.09 45.25 45.25 0 0 0 11.6 89c79 0 99.08-197.1 210.63-147 111.55-50.09 131.63 147 210.63 147a45.25 45.25 0 0 0 11.6-89 14 14 0 0 1-10.33-14.09C471.12 71.65 379-49.4 256 21.29z" transform="translate(-.12)"/><path class="cls-5" d="M31 213a45.26 45.26 0 0 1 33.65-43.74A14 14 0 0 0 75 155.13C72.64 93.33 122.51 10.95 198.48 1 105.46-10.85 41.41 85.29 44.1 155.13a14 14 0 0 1-10.33 14.09 45.25 45.25 0 0 0 11.6 89 46.68 46.68 0 0 0 15.57-2.68A45.26 45.26 0 0 1 31 213z" transform="translate(-.12)"/><path class="cls-9" d="M256 405c-53.89-30-65.81-22.24-65.81 3.55s21.36 63.79 65.81 19.34zm0 0c53.89-30 65.81-22.24 65.81 3.55s-21.36 63.83-65.81 19.38z" transform="translate(-.12)"/><path class="cls-10" d="M261 401.45h-10a20 20 0 0 0-20 20v2.24a20 20 0 0 0 20 20h10a20 20 0 0 0 20-20v-2.24a20 20 0 0 0-20-20z" transform="translate(-.12)"/></svg>