<svg id="Capa_1" data-name="Capa 1" xmlns="http://www.w3.org/2000/svg" xmlns:xlink="http://www.w3.org/1999/xlink" viewBox="0 0 512 512"><defs><style>.cls-1{fill:url(#linear-gradient)}.cls-2{fill:url(#linear-gradient-2)}.cls-3{fill:url(#linear-gradient-3)}.cls-4{fill:#c2cece}.cls-5{fill:url(#linear-gradient-4)}.cls-6{fill:url(#linear-gradient-5)}.cls-7{fill:url(#linear-gradient-6)}.cls-8{fill:url(#linear-gradient-7)}.cls-9{fill:url(#linear-gradient-8)}.cls-10{fill:url(#linear-gradient-9)}.cls-11{fill:url(#linear-gradient-10)}.cls-12{fill:url(#linear-gradient-11)}.cls-13{fill:url(#linear-gradient-12)}.cls-14{fill:url(#linear-gradient-13)}.cls-15{fill:url(#linear-gradient-14)}</style><linearGradient id="linear-gradient" x1="383.38" y1="814.96" x2="449.57" y2="881.15" gradientTransform="matrix(1.07 0 0 1.07 39.75 -420.62)" gradientUnits="userSpaceOnUse"><stop offset="0" stop-color="#97aaaa"/><stop offset="1" stop-color="#e8efee"/></linearGradient><linearGradient id="linear-gradient-2" x1="202.73" y1="379.21" x2="202.73" y2="887.87" gradientTransform="matrix(1.07 0 0 1.07 39.75 -420.62)" gradientUnits="userSpaceOnUse"><stop offset="0" stop-color="#fff"/><stop offset="1" stop-color="#e8efee"/></linearGradient><linearGradient id="linear-gradient-3" x1="202.73" y1="845.7" x2="202.73" y2="878.88" gradientTransform="matrix(1.07 0 0 1.07 39.75 -420.62)" gradientUnits="userSpaceOnUse"><stop offset="0" stop-color="#c2cece" stop-opacity="0"/><stop offset=".18" stop-color="#afbcbc" stop-opacity=".18"/><stop offset="1" stop-color="#5b6a6a"/></linearGradient><linearGradient id="linear-gradient-4" x1="202.73" y1="555.42" x2="202.73" y2="908.42" xlink:href="#linear-gradient-3"/><linearGradient id="linear-gradient-5" x1="20.39" y1="550.94" x2="374.15" y2="550.94" gradientTransform="matrix(1.07 0 0 1.07 39.75 -420.62)" gradientUnits="userSpaceOnUse"><stop offset="0" stop-color="#d63305"/><stop offset=".37" stop-color="#cf3004"/><stop offset=".9" stop-color="#bc2602"/><stop offset="1" stop-color="#b72401"/></linearGradient><linearGradient id="linear-gradient-6" x1="141.33" y1="638.9" x2="489.46" y2="672.08" xlink:href="#linear-gradient-3"/><linearGradient id="linear-gradient-7" x1="333.13" y1="772.08" x2="382.74" y2="821.69" xlink:href="#linear-gradient-2"/><linearGradient id="linear-gradient-8" x1="72.6" y1="597.16" x2="72.6" y2="809.99" gradientTransform="matrix(1.07 0 0 1.07 39.75 -420.62)" gradientUnits="userSpaceOnUse"><stop offset="0" stop-color="#ffcf95"/><stop offset=".43" stop-color="#ffc954"/><stop offset="1" stop-color="#ffc200"/></linearGradient><linearGradient id="linear-gradient-9" x1="72.6" y1="593.02" x2="72.6" y2="650.85" gradientTransform="matrix(1.07 0 0 1.07 39.75 -420.62)" gradientUnits="userSpaceOnUse"><stop offset="0" stop-color="#ffc200" stop-opacity="0"/><stop offset=".2" stop-color="#fb0" stop-opacity=".2"/><stop offset=".5" stop-color="#ffa700" stop-opacity=".5"/><stop offset=".85" stop-color="#f80" stop-opacity=".85"/><stop offset="1" stop-color="#ff7800"/></linearGradient><linearGradient id="linear-gradient-10" x1="88.76" y1="418.36" x2="88.76" y2="581.09" gradientTransform="matrix(1.07 0 0 1.07 39.75 -420.62)" gradientUnits="userSpaceOnUse"><stop offset="0" stop-color="#00a6f9"/><stop offset="1" stop-color="#0071e2"/></linearGradient><linearGradient id="linear-gradient-11" x1="158.01" y1="418.36" x2="158.01" y2="581.09" xlink:href="#linear-gradient-10"/><linearGradient id="linear-gradient-12" x1="236.63" y1="418.36" x2="236.63" y2="581.09" xlink:href="#linear-gradient-10"/><linearGradient id="linear-gradient-13" x1="317.4" y1="418.36" x2="317.4" y2="581.09" xlink:href="#linear-gradient-10"/><linearGradient id="linear-gradient-14" x1="180.13" y1="468.28" x2="221.97" y2="468.28" gradientTransform="matrix(1.07 0 0 1.07 39.75 -420.62)" gradientUnits="userSpaceOnUse"><stop offset="0" stop-color="#008bf2" stop-opacity="0"/><stop offset="1" stop-color="#0046e2"/></linearGradient></defs><title>news</title><path class="cls-1" d="M512 26.85v458.3A26.86 26.86 0 0 1 485.15 512H26.85A26.86 26.86 0 0 1 0 485.15V26.85A26.86 26.86 0 0 1 26.85 0h458.3A26.86 26.86 0 0 1 512 26.85z"/><path class="cls-2" d="M376.82 512h-350A26.85 26.85 0 0 1 0 485.15V26.85A26.85 26.85 0 0 1 26.85 0h458.3A26.85 26.85 0 0 1 512 26.85v357a15.64 15.64 0 0 1-4.5 11l-104.75 106.3A36.4 36.4 0 0 1 376.82 512z"/><path class="cls-3" d="M512 463.66v21.48A26.86 26.86 0 0 1 485.15 512H26.85A26.86 26.86 0 0 1 0 485.15v-21.49z"/><path class="cls-4" d="M429.71 230.23H205.3a9.14 9.14 0 0 1-9.14-9.14 9.14 9.14 0 0 1 9.14-9.14h224.41a9.14 9.14 0 0 1 9.14 9.14 9.14 9.14 0 0 1-9.14 9.14zm0 69.82H205.3a9.14 9.14 0 0 1-9.14-9.14 9.14 9.14 0 0 1 9.14-9.14h224.41a9.14 9.14 0 0 1 9.14 9.14 9.14 9.14 0 0 1-9.14 9.14zm0 69.82H205.3a9.14 9.14 0 0 1-9.14-9.14 9.14 9.14 0 0 1 9.14-9.14h224.41a9.14 9.14 0 0 1 9.14 9.14 9.14 9.14 0 0 1-9.14 9.14zm-68.66 69.82H205.3a9.14 9.14 0 0 1-9.14-9.14 9.14 9.14 0 0 1 9.14-9.14h155.75a9.14 9.14 0 0 1 9.14 9.14 9.14 9.14 0 0 1-9.14 9.14z"/><path class="cls-5" d="M512 258.92V24.43C512 10.94 500 0 485.15 0H26.85C12 0 0 10.94 0 24.43v234.49c0 1.48 512 0 512 0z"/><path class="cls-6" d="M435.53 170.39H64.83a3.32 3.32 0 0 1-3.33-3.32 3.32 3.32 0 0 1 3.33-3.32h370.7a3.32 3.32 0 0 1 3.33 3.32 3.32 3.32 0 0 1-3.33 3.32z"/><path class="cls-7" d="M255.35 0H24.09C10.78 0 0 12 0 26.85v458.3C0 500 10.78 512 24.09 512h231.26c1.46 0 0-512 0-512z"/><path class="cls-8" d="M510.63 390.27a16.56 16.56 0 0 1-3.92 5.37c-1.16 1.16-103.34 104.89-103.34 104.89A38.49 38.49 0 0 1 375.94 512a16.11 16.11 0 0 0 16.11-16.11v-78.77a26.85 26.85 0 0 1 26.85-26.85h91.72z"/><path class="cls-9" d="M70.51 439.69h93.37a9 9 0 0 0 9-9V220.95a9 9 0 0 0-9-9H70.51a9 9 0 0 0-9 9v209.74a9 9 0 0 0 9 9z"/><path class="cls-10" d="M172.88 259.32v-47.37H61.51v47.32c28.1.05 67.58.06 111.37.05z"/><path class="cls-11" d="M105.16 139.22v-84q0-4.44 6.73-4.45a9.44 9.44 0 0 1 5.72 1.59q2.16 1.59 4.45 6l28.2 55V55.12a3.48 3.48 0 0 1 2-3.24 11.06 11.06 0 0 1 9.53 0 3.49 3.49 0 0 1 2 3.24v84.09a3.66 3.66 0 0 1-2 3.24 9 9 0 0 1-4.76 1.21 8.59 8.59 0 0 1-8-5l-30.36-57.8v58.31a3.66 3.66 0 0 1-2 3.24 9.89 9.89 0 0 1-9.46 0 3.65 3.65 0 0 1-2.05-3.19z"/><path class="cls-12" d="M180.48 139.22v-84a3.73 3.73 0 0 1 1.78-3.22 7.28 7.28 0 0 1 4.19-1.21h45.22a3.69 3.69 0 0 1 3.3 1.78 7.36 7.36 0 0 1 1.14 4.06 7.51 7.51 0 0 1-1.2 4.37 3.73 3.73 0 0 1-3.24 1.78h-37.72v29.05h19.56a3.86 3.86 0 0 1 3.24 1.59A6.23 6.23 0 0 1 218 97.3a6 6 0 0 1-1.14 3.62 3.81 3.81 0 0 1-3.3 1.59h-19.61v29.22h37.73a3.74 3.74 0 0 1 3.24 1.78 7.52 7.52 0 0 1 1.21 4.32 7.35 7.35 0 0 1-1.14 4.07 3.69 3.69 0 0 1-3.3 1.78h-45.24a7.28 7.28 0 0 1-4.19-1.21 3.73 3.73 0 0 1-1.78-3.25z"/><path class="cls-13" d="M240.31 56.27q0-2.29 2.67-3.87a11 11 0 0 1 5.72-1.59q3.94 0 4.7 2.79l20.83 72.4 11.43-45.48q.87-3.94 6.58-3.94 5.46 0 6.45 4l11.56 45.48L331 53.52q.76-2.72 4.67-2.72a11 11 0 0 1 5.68 1.57q2.65 1.57 2.65 3.82a4.38 4.38 0 0 1-.13 1.25l-25.13 82.32a6 6 0 0 1-3.2 3.43 11.7 11.7 0 0 1-5.33 1.23 11.93 11.93 0 0 1-5.33-1.2 5 5 0 0 1-2.95-3.35l-9.77-38.43-9.65 38.36a5.06 5.06 0 0 1-2.92 3.4 12.77 12.77 0 0 1-10.86 0 5.49 5.49 0 0 1-3-3.37l-25.29-82.29a4.48 4.48 0 0 1-.13-1.27z"/><path class="cls-14" d="M349.81 129.69a8.11 8.11 0 0 1 1.78-4.83 5.05 5.05 0 0 1 4.07-2.41 5.76 5.76 0 0 1 3.37 1.63q2 1.63 3.87 3.51a18.29 18.29 0 0 0 5.78 3.52 22.24 22.24 0 0 0 8.7 1.63q7.24 0 11.62-3.45t4.38-10.09a13.59 13.59 0 0 0-4.26-10.2 31.85 31.85 0 0 0-10.29-6.51q-6-2.43-12.13-5.24a27.08 27.08 0 0 1-10.35-8.43q-4.26-5.62-4.26-14a24.67 24.67 0 0 1 2.6-11.66 18.86 18.86 0 0 1 7-7.6 33.85 33.85 0 0 1 9.34-3.87 43.2 43.2 0 0 1 10.35-1.2 61.5 61.5 0 0 1 7.18.44 50.51 50.51 0 0 1 7.44 1.38 17.14 17.14 0 0 1 6.1 2.89 5.4 5.4 0 0 1 2.41 4.27 9 9 0 0 1-1.51 4.81 4.63 4.63 0 0 1-4 2.43 7.67 7.67 0 0 1-3.43-1.21 34.46 34.46 0 0 0-5.78-2.43 26.22 26.22 0 0 0-8.32-1.21q-7.24 0-11.56 2.87t-4.32 8.75a9.94 9.94 0 0 0 2.29 6.58 17.81 17.81 0 0 0 5.91 4.53q3.62 1.79 8.07 3.51a86.08 86.08 0 0 1 8.83 4 45.86 45.86 0 0 1 8 5.3 21.78 21.78 0 0 1 5.91 8.24 30.1 30.1 0 0 1 2.29 12.13q0 13.13-7.94 20t-21 6.88q-11.69 0-19.88-4.89t-8.26-10.07z"/><path class="cls-15" d="M255.51 60.95l-2.11-7.35q-.76-2.79-4.7-2.79a11 11 0 0 0-5.7 1.58q-2.67 1.59-2.67 3.87a4.44 4.44 0 0 0 .13 1.27L255.62 107c-.04-17.39-.08-33-.11-46.05z"/></svg>