<svg id="Layer_1" data-name="Layer 1" xmlns="http://www.w3.org/2000/svg" viewBox="0 0 440 494.85"><defs><style>.cls-1{fill:#ffda44}.cls-2{fill:#ffcd00}.cls-3{fill:#2488ff}.cls-4{fill:#005ece}</style></defs><title>phone-book</title><path class="cls-1" d="M260.76 247.42a41.59 41.59 0 0 1 46.67-41.36v-23.43c-1.65-.13-3.32-.21-5-.21a65 65 0 0 0 0 130c1.68 0 3.34-.08 5-.21v-23.42a41.68 41.68 0 0 1-46.67-41.37z" transform="translate(-27.42)"/><path class="cls-1" d="M302.42 342.42a95 95 0 0 1 0-190q2.52 0 5 .13V0h-160v494.85h160V342.29q-2.49.13-5 .13z" transform="translate(-27.42)"/><path class="cls-1" d="M302.42 235.76a11.67 11.67 0 1 0 5 22.19V236.9a11.56 11.56 0 0 0-5-1.14z" transform="translate(-27.42)"/><path class="cls-2" d="M307.42 236.9v21.05a11.64 11.64 0 0 0 0-21.05z" transform="translate(-27.42)"/><path class="cls-2" d="M307.42 0v152.56a95.12 95.12 0 0 1 90 94.87c0 30.56-21 46.54-41.67 46.54a40 40 0 0 1-29.2-12.55 42.07 42.07 0 0 1-19.13 7.37v23.43a64.34 64.34 0 0 0 20.3-4.89L339.41 335a94.21 94.21 0 0 1-32 7.34v152.51h160V0z" transform="translate(-27.42)"/><path class="cls-2" d="M344.09 247.42c0 12.21 6.29 16.54 11.67 16.54s11.67-4.33 11.67-16.54a65.07 65.07 0 0 0-60-64.79v23.43a41.72 41.72 0 0 1 36.66 41.36z" transform="translate(-27.42)"/><path class="cls-3" d="M20 0v113.71h60v40H20v73.71h60v40H20v73.72h60v40H20v113.71h100V0H20z"/><path class="cls-4" d="M80 227.42H0v40h80v-40zm0-113.71H2.5v40H80v-40zm0 227.43H0v40h80v-40z"/><path class="cls-3" d="M207.42 247.42a95.11 95.11 0 0 0 95 95q2.51 0 5-.13a94.23 94.23 0 0 0 32-7.34l-11.69-27.63a64.34 64.34 0 0 1-20.3 4.89c-1.66.13-3.32.21-5 .21a65 65 0 1 1 0-130c1.68 0 3.35.09 5 .21a65.07 65.07 0 0 1 60 64.79c0 12.21-6.29 16.54-11.67 16.54s-11.67-4.33-11.67-16.54a41.76 41.76 0 1 0-17.57 34A40 40 0 0 0 355.76 294c20.71 0 41.67-16 41.67-46.54a95.12 95.12 0 0 0-90-94.87q-2.48-.13-5-.13a95.11 95.11 0 0 0-95.01 94.96zm100 10.53a11.64 11.64 0 1 1 6.67-10.52 11.58 11.58 0 0 1-6.67 10.52z" transform="translate(-27.42)"/></svg>