<svg id="Layer_1" data-name="Layer 1" xmlns="http://www.w3.org/2000/svg" viewBox="0 0 512 481.98"><defs><style>.cls-1{fill:#414b82}.cls-2{fill:#ba6746}.cls-3{fill:#64afff}.cls-4{fill:#ffb69e}.cls-5{fill:#4699f2}.cls-6{fill:#e28c71}.cls-7{fill:#373c41}</style></defs><title>pianist</title><g id="surface1"><path class="cls-1" d="M205.24 332.5a22.53 22.53 0 0 0-18.61-9.84h-.07l-61.37.18 2.53-89.25a31.45 31.45 0 0 0-30.81-32.33L68 200.69a31.45 31.45 0 0 0-32.06 31.13l-1.06 106.63a31.45 31.45 0 0 0 9 22.38c5.87 6 13.87 6.87 22.23 6.91l57.75.17 29.53-.09-38.91 98.33a22.53 22.53 0 1 0 41.9 16.58l51.15-129.25a22.53 22.53 0 0 0-2.29-20.98z" transform="translate(0 -15)"/><path class="cls-2" d="M14.33 496.43a12.92 12.92 0 0 1-8.66-16.09l31.11-103.57a12.92 12.92 0 1 1 24.75 7.43L30.41 487.77a12.92 12.92 0 0 1-16.08 8.66zm98.5-8.66L81.72 384.2a12.92 12.92 0 1 1 24.74-7.43l31.11 103.57a12.92 12.92 0 0 1-24.75 7.43z" transform="translate(0 -15)"/><path class="cls-3" d="M40 356a31.45 31.45 0 0 1-5.14-17.54l1.05-106.64A31.45 31.45 0 0 1 68 200.69l28.92.57a31.45 31.45 0 0 1 30.81 32.33l-2.53 89.25z" transform="translate(0 -15)"/><path class="cls-4" d="M118.49 288.62L65 242.26a18.78 18.78 0 0 1 24.59-28.38l45.91 39.77 60.64-16.8a18.77 18.77 0 1 1 10 36.18l-70.34 19.49a18.77 18.77 0 0 1-17.31-3.9z" transform="translate(0 -15)"/><path class="cls-5" d="M89.55 213.88A18.78 18.78 0 0 0 65 242.26l27.75 24 25.15-27.89z" transform="translate(0 -15)"/><path class="cls-4" d="M157.48 144.77A41.44 41.44 0 1 1 116 103.33a41.44 41.44 0 0 1 41.48 41.44z" transform="translate(0 -15)"/><path class="cls-6" d="M126 397.86H17.23a17.22 17.22 0 1 1 0-34.45H126a17.22 17.22 0 1 1 0 34.45zm.74 52.5H16.5a12.92 12.92 0 0 1 0-25.84h110.24a12.92 12.92 0 0 1 0 25.84z" transform="translate(0 -15)"/><path class="cls-7" d="M487.77 242.6c32.09-37.57-3-38.64-3-38.64s-84.39 10.59-30.14-75.66c41-65.25-12.79-99.12-41.43-111.75a18.18 18.18 0 0 0-23.34 8L272.19 243.41a11.58 11.58 0 0 0-1.38 5.5V288a11.6 11.6 0 0 0 11.6 11.6h215.47a11.6 11.6 0 0 0 11.6-11.6v-30.27a11.6 11.6 0 0 0-11.6-11.6l-8.55-.09a2.09 2.09 0 0 1-1.56-3.44z" transform="translate(0 -15)"/><path class="cls-2" d="M474.46 497a16.81 16.81 0 0 1-16.81-16.81V324a16.81 16.81 0 0 1 33.62 0v156.17A16.81 16.81 0 0 1 474.46 497zm-244.28 0a16.81 16.81 0 0 1-16.81-16.81V324a16.81 16.81 0 0 1 33.63 0v156.17A16.81 16.81 0 0 1 230.18 497z" transform="translate(0 -15)"/><path class="cls-2" d="M495.89 333H208.75a16.11 16.11 0 0 1-16.11-16.11v-6.64a16.11 16.11 0 0 1 16.11-16.11h287.14A16.11 16.11 0 0 1 512 310.22v6.64A16.11 16.11 0 0 1 495.89 333z" transform="translate(0 -15)"/></g></svg>