<svg id="Capa_1" data-name="Capa 1" xmlns="http://www.w3.org/2000/svg" viewBox="0 0 510.99 511.98"><defs><style>.cls-1{fill:#ff5a5f}.cls-2{fill:#464141}.cls-3{fill:#d49b00}.cls-4{fill:#c78b00}.cls-5{fill:#f5c850}.cls-6{fill:#ebb410}.cls-7{fill:#e3a600}.cls-8{fill:#ffeb50}.cls-9{fill:#cd2d23}.cls-10{fill:#006941}.cls-11{fill:#f7d139}.cls-12{fill:#be1e14}.cls-13{fill:#005a37}</style></defs><title>singing</title><path class="cls-1" d="M511.48 259.19C511.48 397.91 399.23 512 258.7 512 118.52 512 5.91 398.26 5.91 259.19 5.91 119.58 119.08 6.4 258.7 6.4c139.87 0 252.78 113.42 252.78 252.79z" transform="translate(-.49)"/><path class="cls-2" d="M511.43 263.83q-.14 9-.94 17.84l-91.69 45a47.89 47.89 0 0 0-22 63.6 63.37 63.37 0 0 1-32.44 85.85l-20.81 8.79a63.34 63.34 0 0 1-81.5-30.42l-10.37-21.09 14-6.89 10.37 21.09a47.79 47.79 0 0 0 61.42 22.93l20.81-8.79A47.75 47.75 0 0 0 382.74 397a63.53 63.53 0 0 1 29.18-84.37z" transform="translate(-.49)"/><path class="cls-3" d="M280.61 430.21L255.37 443a21.13 21.13 0 0 1-28.37-9.35l-13.81-27.31 63-31.84L290 401.81a21.13 21.13 0 0 1-9.39 28.4z" transform="translate(-.49)"/><path class="cls-4" d="M281.16 429.93l-28.24 14.29a18.37 18.37 0 0 1-24.69-8.1l-15.06-29.77 28.25-14.29 15.06 29.77a18.37 18.37 0 0 0 24.68 8.1z" transform="translate(-.49)"/><circle class="cls-5" cx="91.51" cy="88.63" r="88.63"/><path class="cls-6" d="M145.49 159.31a89.69 89.69 0 0 1-13.49 8.4A88.62 88.62 0 1 1 52 9.54a89.77 89.77 0 0 1 14.77-5.89 88.65 88.65 0 0 0 78.73 155.66z" transform="translate(-.49)"/><path class="cls-6" d="M291 403.42l-63.43 32.08a6.58 6.58 0 0 1-8.73-2.68l-142.38-257 94.92-48L294 394.79a6.58 6.58 0 0 1-3 8.63z" transform="translate(-.49)"/><path class="cls-7" d="M255.86 421.21l-28.24 14.29a6.59 6.59 0 0 1-8.74-2.68l-142.38-257 28.25-14.29 142.38 257a6.59 6.59 0 0 0 8.73 2.68z" transform="translate(-.49)"/><path class="cls-8" d="M176.21 60.25l-157 79.38a10.82 10.82 0 0 1-14.54-4.77l-2.57-5.08a10.82 10.82 0 0 1 4.77-14.54l157-79.38a10.82 10.82 0 0 1 14.54 4.77l2.59 5.08a10.82 10.82 0 0 1-4.79 14.54z" transform="translate(-.49)"/><circle class="cls-9" cx="145.85" cy="196.06" r="10.37"/><circle class="cls-10" cx="159.46" cy="222.97" r="10.37"/><path class="cls-11" d="M46.24 126L18 140.26a9.4 9.4 0 0 1-12.64-4.14l-3.85-7.61a9.41 9.41 0 0 1 4.15-12.65l28.24-14.28a9.41 9.41 0 0 0-4.14 12.64l3.85 7.61A9.4 9.4 0 0 0 46.24 126z" transform="translate(-.49)"/><circle class="cls-9" cx="145.85" cy="196.06" r="10.37"/><circle class="cls-10" cx="159.46" cy="222.97" r="10.37"/><path class="cls-12" d="M153.69 203.39a10.37 10.37 0 1 1-8.89-17.58 10.37 10.37 0 0 0 8.89 17.58z" transform="translate(-.49)"/><path class="cls-13" d="M167.3 230.3a10.37 10.37 0 1 1-8.89-17.58 10.37 10.37 0 0 0 8.89 17.58z" transform="translate(-.49)"/></svg>