<svg id="Capa_1" data-name="Capa 1" xmlns="http://www.w3.org/2000/svg" viewBox="0 0 480 464.14"><defs><style>.cls-1{fill:#fff89b}.cls-2{fill:#ffbf41}.cls-3{fill:#ffdb43}.cls-4{fill:#5a6570}.cls-5{fill:#364e5e}</style></defs><title>spotlights</title><path class="cls-1" d="M306.1 271.21L264 159.93h-48l-13 36.94 5 3.06-16 168-32.61-46.88L112 455.93h264l-31.28-82.67L272 319.93z" transform="translate(0 -7.93)"/><path class="cls-2" d="M208 199.93l-5-3.06-43.61 124.18L192 367.93z" transform="translate(0 -7.93)"/><path class="cls-3" d="M184 407.93l9.89 21.07 22.11 3.43-16 16.43 3.78 23.21-19.78-11-19.78 11 3.78-23.21-16-16.43 22.11-3.43zm88-48l14.83 31.6L320 396.6l-24 24.6 5.66 34.74L272 439.53l-29.66 16.4L248 421.2l-24-24.6 33.17-5.07z" transform="translate(0 -7.93)"/><path class="cls-1" d="M306.1 271.21l38.62 102L392 407.93l56.9-227.63-64.41-22zM203 196.87l-100.6-60.3-40.91 42.87 97.9 141.62z" transform="translate(0 -7.93)"/><path class="cls-2" d="M272 319.93l72.72 53.33-38.62-102z" transform="translate(0 -7.93)"/><path class="cls-4" d="M472 47.93h-28.69l24-24H472a8 8 0 0 0 0-16H8a8 8 0 0 0 0 16h36.69l-24 24H8a8 8 0 0 0 0 16h23.94l-.36 47.94a8 8 0 0 0 7.94 8.06h.06a8 8 0 0 0 8-7.94l.36-48.06H232v32a8 8 0 0 0 16 0v-32h192v56a8 8 0 0 0 16 0v-56h16a8 8 0 0 0 0-16zm-268.69 0L224 27.24l20.69 20.69zm-160 0L64 27.24l20.69 20.69zm121.38 0h-41.38L144 27.24zm-1.38-24h41.38L184 44.62zm80 0h41.38L264 44.62zM304 27.24l20.69 20.69h-41.38zm19.31-3.31h41.38L344 44.62zM384 27.24l20.69 20.69h-41.38zm40 17.38l-20.69-20.69h41.38zM124.69 23.93L104 44.62 83.31 23.93z" transform="translate(0 -7.93)"/><path class="cls-5" d="M280 159.93v-45.14a26.86 26.86 0 0 0-26.86-26.86h-26.28A26.86 26.86 0 0 0 200 114.79v45.14zm173.82-54.04L429 97.39a26.85 26.85 0 0 0-34.09 16.71l-14.62 42.71 4.26 1.46 64.41 22 7 2.4L470.54 140a26.85 26.85 0 0 0-16.71-34.09zM79.35 95.36a26.86 26.86 0 0 0-38 .88l-18.18 19a26.86 26.86 0 0 0 .88 38l32.64 31.2 4.74-5 40.94-42.89 9.6-10z" transform="translate(0 -7.93)"/></svg>