<svg id="Capa_1" data-name="Capa 1" xmlns="http://www.w3.org/2000/svg" viewBox="0 0 59.39 58"><defs><style>.cls-1{fill:#ecf0f1}.cls-2{fill:#545e73}.cls-3{fill:#8697cb}.cls-4{fill:#26b999}.cls-5{fill:#fff}</style></defs><title>stopwatch</title><circle class="cls-1" cx="29" cy="29" r="29"/><path class="cls-2" d="M29 4.7a25 25 0 1 1-25 25 25 25 0 0 1 25-25m0-4a29 29 0 1 0 29 29 29 29 0 0 0-29-29z" transform="translate(0 -.69)"/><path class="cls-3" d="M29 6.57a1 1 0 0 0-1 1v1a1 1 0 0 0 2 0v-1a1 1 0 0 0-1-1zm0 43a1 1 0 0 0-1 1v1a1 1 0 1 0 2 0v-1a1 1 0 0 0-1-1zm22-21h-1a1 1 0 0 0 0 2h1a1 1 0 0 0 0-2zm-43 0H7a1 1 0 1 0 0 2h1a1 1 0 0 0 0-2zm35.85-15.26l-.71.71a1 1 0 1 0 1.41 1.41l.71-.71a1 1 0 1 0-1.41-1.41zM13.44 43.72l-.71.71a1 1 0 1 0 1.41 1.41l.71-.71a1 1 0 1 0-1.41-1.41zm31.12 0a1 1 0 1 0-1.41 1.41l.71.71a1 1 0 1 0 1.41-1.41zM14.15 13.31a1 1 0 0 0-1.41 1.41l.71.71A1 1 0 0 0 14.86 14z" transform="translate(0 -.69)"/><path class="cls-2" d="M26 30.57h-8a1 1 0 0 1 0-2h8a1 1 0 0 1 0 2zm3-3a1 1 0 0 1-1-1v-11a1 1 0 1 1 2 0v11a1 1 0 0 1-1 1z" transform="translate(0 -.69)"/><path class="cls-2" d="M29 33.57a4 4 0 1 1 4-4 4 4 0 0 1-4 4zm0-6a2 2 0 1 0 2 2 2 2 0 0 0-2-2z" transform="translate(0 -.69)"/><circle class="cls-4" cx="47.39" cy="46" r="12"/><path class="cls-5" d="M54 40.87a1 1 0 0 0-1.39.25l-5.6 8-4.01-3.2a1 1 0 0 0-1.27 1.55l4.79 3.93a1 1 0 0 0 .63.23h.14a1 1 0 0 0 .71-.43l6.21-8.93a1 1 0 0 0-.21-1.4z" transform="translate(0 -.69)"/></svg>