<svg id="Layer_1" data-name="Layer 1" xmlns="http://www.w3.org/2000/svg" viewBox="0 0 511 508.91"><defs><style>.cls-1{fill:#ff5364}.cls-2{fill:#285680}.cls-3{fill:#f3d55b}.cls-4{fill:none;stroke:#000;stroke-linecap:round;stroke-linejoin:round;stroke-width:2px}.cls-5{fill:#2fa8cc}</style></defs><title>theater</title><path class="cls-1" d="M149.74 175.79a8.82 8.82 0 0 1-8.81-8.81 77.31 77.31 0 0 0-7.63-25.83c-5.64-13.61-11.46-27.68-5.56-39.41a28.4 28.4 0 0 1 19.86-13.82 170.73 170.73 0 0 1 73.27-.27 8.81 8.81 0 1 1-3.9 17.19 154.83 154.83 0 0 0-65.09.22c-3.16.8-7.18 2.24-8.41 4.65-2.27 4.51 2.18 15.26 6.1 24.72a88.8 88.8 0 0 1 9 32.54 8.82 8.82 0 0 1-8.83 8.82z" transform="translate(0 -1.8)"/><path class="cls-2" d="M361.27 431.39c-24.13 0-37-4.41-41.6-14.41-6.12-13.14 5.78-27.28 17.27-41a113.45 113.45 0 0 0 11.72-15.5 154.92 154.92 0 0 0-64.75-.14 8.81 8.81 0 1 1-3.91-17.13 171 171 0 0 1 73.29.31 16.51 16.51 0 0 1 13 10.66c3.36 10.38-5.54 21-15.86 33.2-5 6-15.47 18.38-14.75 22.25 0 0 3.41 4.13 25.56 4.13a8.81 8.81 0 0 1 0 17.63z" transform="translate(0 -1.8)"/><path class="cls-3" d="M222.32 2A641.57 641.57 0 0 0 500.2 2a8.81 8.81 0 0 1 10.8 8.7q-.22 12.76-1 25.19C501.31 189.19 438 308 361.27 308S221.21 189.19 212.49 35.92q-.74-12.41-1-25.19A8.81 8.81 0 0 1 222.32 2z" transform="translate(0 -1.8)"/><path class="cls-1" d="M284.63 159.11a8.88 8.88 0 0 1 12.23-5.62 168.42 168.42 0 0 0 63.79 11 168.45 168.45 0 0 0 63.79-11 8.87 8.87 0 0 1 12.22 5.62 36.44 36.44 0 0 1 1.23 9.4c0 29.14-34.55 52.77-77.25 52.77s-77.25-23.63-77.25-52.77a36.6 36.6 0 0 1 1.24-9.4zm49-62.3a54 54 0 0 0-35.56-1.76 53.84 53.84 0 0 0-30.61 18.16 34.93 34.93 0 0 1-5.57-12 36.6 36.6 0 0 1 71-17.63 34.83 34.83 0 0 1 .74 13.23zm120.57 16.4a53.86 53.86 0 0 0-30.61-18.15A54 54 0 0 0 388 96.83a34.85 34.85 0 0 1 .71-13.22 36.6 36.6 0 0 1 71 17.62 34.86 34.86 0 0 1-5.51 11.98z" transform="translate(0 -1.8)"/><path class="cls-4" d="M83.9 420.55a247 247 0 0 1-11.37-22.21v-.09" transform="translate(0 -1.8)"/><path class="cls-5" d="M10.8 204.74a641.55 641.55 0 0 0 277.87 0 8.81 8.81 0 0 1 10.8 8.7q-.22 12.75-1 25.19c-8.72 153.27-72 272.08-148.77 272.08S9.69 391.9 1 238.63q-.74-12.41-1-25.19a8.81 8.81 0 0 1 10.8-8.7z" transform="translate(0 -1.8)"/><path class="cls-2" d="M122.06 275.74a54.08 54.08 0 0 1-35.52 1.68A53.44 53.44 0 0 1 56 259.26a33.67 33.67 0 0 0-5.55 12.07 36.56 36.56 0 0 0 71 17.63 33.72 33.72 0 0 0 .61-13.22zm120.57-16.48A53.44 53.44 0 0 1 212 277.41a54.13 54.13 0 0 1-35.52-1.68 33.72 33.72 0 0 0 .71 13.22 36.6 36.6 0 0 0 71-17.63 35.33 35.33 0 0 0-5.56-12.06zM73.1 414.23a8.88 8.88 0 0 0 12.23 5.61 168.6 168.6 0 0 1 63.79-11 168.59 168.59 0 0 1 63.79 11 8.87 8.87 0 0 0 12.22-5.61 36.57 36.57 0 0 0 1.24-9.4c0-29.15-34.56-52.77-77.25-52.77s-77.25 23.62-77.25 52.77a36.73 36.73 0 0 0 1.23 9.4z" transform="translate(0 -1.8)"/></svg>