<svg id="Layer_1" data-name="Layer 1" xmlns="http://www.w3.org/2000/svg" viewBox="0 0 504.33 374.2"><defs><style>.cls-1{fill:#e2574c}.cls-2{fill:#efc75e}.cls-3{fill:#dcb757}.cls-4{fill:#d05046}</style></defs><title>theater2</title><path class="cls-1" d="M198.59 341.56v-33.08l-92.16 26s6.69-39.39 54.74-53.17c14.57-3.94 27.18-3.94 37.41-2V143.06h46.08c-5.12-15.36-9.85-27.57-13.79-35.84-6.7-13.79-13.79-4.73-29.15 8.67-11 9.06-39 29.14-81.13 40.17-42.14 11.42-76 8.27-90.19 5.91-20.07-3.55-30.71-7.88-29.52 7.48.79 13.39 3.94 34.26 11.42 62.23 15.75 59.86 68.14 175.26 167.38 148.48 26-7.09 44.51-20.87 57.11-38.6h-38.2zM50.11 232.46l70.5-18.46s-2 27.18-28.36 34.26c-26.39 6.65-42.14-15.8-42.14-15.8z" transform="translate(0 -65.07)"/><path class="cls-2" d="M465.22 145.82c-18.9 3.15-63.8 7.48-119.33-7.48s-92.55-41-107.13-53.17c-20.87-17.33-29.93-29.15-38.6-11-7.88 16.15-18.12 42.14-28 78.77-21.27 79.16-37 246.15 94.13 281.21 131.55 35.05 201.26-117.37 222.52-196.53 9.85-36.63 14.18-64.2 15.36-81.92 1.62-20.52-12.17-14.61-38.95-9.88zm-263.87 65.77s20.87-32.69 56.32-22.45 38.2 49.23 38.2 49.23zm85.85 143.76C225.37 337.23 215.92 288 215.92 288l165.81 46.08c0 .39-33.48 38.99-94.53 21.27zm59.86-100.43s20.09-32.29 54-22.45c33.87 10.24 36.63 49.23 36.63 49.23z" transform="translate(0 -65.07)"/><path class="cls-3" d="M291.93 356.53l-4.73-1.18C225.37 337.23 215.92 288 215.92 288l87.43 24.42 44.9-173.69a5 5 0 0 0-2.36-.39c-55.53-15-92.55-41-107.13-53.17-20.87-17.33-29.93-29.15-38.6-11-7.88 16.15-18.12 42.14-28 78.77-20.48 76-35.84 232.76 79.56 276.48l19.69 5.91 20.48-78.77zm-90.58-144.94s20.87-32.69 56.32-22.45 38.2 49.23 38.2 49.23z" transform="translate(0 -65.07)"/><path class="cls-4" d="M165.9 317.93l-59.47 16.93s6.3-37 50-51.59l-33.86-127.21a25.08 25.08 0 0 1-2.76.79c-42.14 11.42-76 8.27-90.19 5.91-20.08-3.55-30.71-7.88-29.53 7.48.79 13.39 3.91 34.26 11.42 62.23 16.54 59.08 68.92 174.47 168.17 147.69l2.36-.79zM50.11 232.46l70.5-18.46s-2 27.18-28.36 34.26c-26.39 6.65-42.14-15.8-42.14-15.8z" transform="translate(0 -65.07)"/></svg>