<svg id="Layer_1" data-name="Layer 1" xmlns="http://www.w3.org/2000/svg" viewBox="0 0 512 444.46"><defs><style>.cls-1{fill:#b27214}.cls-2{fill:#995c0d}.cls-3{fill:#e09b2d}.cls-4{fill:#f7b239}</style></defs><title>theater3</title><path class="cls-1" d="M101.07 140.59h302.86v243.68H101.07z"/><path class="cls-2" d="M114.68 153.03h293.23v36.27H114.68z"/><path class="cls-3" d="M382.96 140.59h29.47v243.67h-29.47zm-156.43 0H256v243.67h-29.47z"/><path class="cls-4" d="M412.44 140.59h29.47v243.68h-29.47zm-156.44 0h29.47v243.68H256zm-156.44 0h29.47v243.68H99.56z"/><path class="cls-3" d="M99.56 140.59h29.47v25.29H99.56zm-29.47 0h29.47v243.67H70.09z"/><path class="cls-1" d="M91.06 140.59h17v243.67h-17z"/><path class="cls-3" d="M256 140.59h29.47v25.29H256zm156.44 0h29.47v25.29h-29.47z"/><path class="cls-1" d="M247.5 140.59h17v243.67h-17zm156.43 0h17v243.67h-17z"/><path class="cls-4" d="M256 0L0 100.89h46.85v52.14h418.3v-52.14H512L256 0z"/><path class="cls-3" d="M465.15 100.89v23.8H46.85v-23.8h418.3z"/><path class="cls-4" d="M465.15 408.14v-36.32H46.85v36.32H20.16v36.32h471.67v-36.32h-26.68z"/><path class="cls-3" d="M465.15 395.87v12.27H46.85v-12.27h418.3z"/></svg>