<svg id="Layer_1" data-name="Layer 1" xmlns="http://www.w3.org/2000/svg" viewBox="0 0 467.17 512"><defs><style>.cls-1{fill:#f7b081}.cls-2{fill:#efe7e4}.cls-3{fill:#d8d1d0}.cls-4{fill:#dd9a76}.cls-5{fill:#f7cb4f}.cls-6{fill:#fbab00}.cls-7{fill:#546f7a}.cls-8{fill:#465a65}.cls-9{fill:#353535}.cls-10{fill:#ffc89f}</style></defs><title>thumbs-up</title><path class="cls-1" d="M372.78 238.2c-2.66-16.21-11.22-35.53-36.91-35.53a7.51 7.51 0 0 0-7.4 6.25l-4.93 29a223.7 223.7 0 0 1-7.94 32.45c-9.2 27.89-20.8 42.18-41.39 51-9.89 4.23-17.92 7.85-21.14 9.31h-38.5a7.51 7.51 0 0 0-7.51 7.51v136.06a7.51 7.51 0 0 0 7.51 7.51H252l16.14 13.07a76.61 76.61 0 0 0 48.06 17H362a7.51 7.51 0 0 0 3.69-14v-150h-9.34l15.73-79.25a84.87 84.87 0 0 0 .7-30.38z" transform="translate(-22.41)"/><path class="cls-2" d="M214.57 317.15h-58.36a7.51 7.51 0 0 0-7.51 7.51v160.62a7.51 7.51 0 0 0 7.51 7.51h58.37a7.51 7.51 0 0 0 7.51-7.51V324.67a7.51 7.51 0 0 0-7.52-7.52z" transform="translate(-22.41)"/><path class="cls-3" d="M148.69 462.86v22.42a7.51 7.51 0 0 0 7.51 7.51h58.37a7.51 7.51 0 0 0 7.51-7.51v-22.42z" transform="translate(-22.41)"/><path class="cls-4" d="M345.47 490.36a21.64 21.64 0 0 1 21.64-21.64 21.64 21.64 0 0 1 0-43.29 21.64 21.64 0 1 1 0-43.28 21.64 21.64 0 1 1 0-43.28h-24.55a21.64 21.64 0 1 0 0 43.28 21.64 21.64 0 1 0 0 43.28 21.64 21.64 0 0 0 0 43.29 21.64 21.64 0 1 0 0 43.28h24.55a21.64 21.64 0 0 1-21.64-21.64z" transform="translate(-22.41)"/><path class="cls-5" d="M173.12 108.4a14 14 0 0 0-11.34-9.56l-34.16-5-15.28-31a14.05 14.05 0 0 0-25.2 0l-15.27 31-34.16 5a14.05 14.05 0 0 0-7.79 24l24.72 24.06-5.83 34a14 14 0 0 0 20.39 14.83l30.55-16.06 30.55 16.06a14.05 14.05 0 0 0 20.39-14.81l-5.84-34 24.72-24.1a14 14 0 0 0 3.55-14.42z" transform="translate(-22.41)"/><path class="cls-6" d="M161.78 98.84l-.76-.11-38.62 38.12a8.42 8.42 0 0 0-2.4 7.45l9.1 50.79 1.22.64a14.05 14.05 0 0 0 20.39-14.81l-5.84-34 24.72-24.1a14 14 0 0 0-7.79-24z" transform="translate(-22.41)"/><path class="cls-5" d="M331.15 53.31a14 14 0 0 0-11.34-9.56l-34.16-5-15.27-31a14.05 14.05 0 0 0-25.2 0l-15.28 31-34.16 5a14.05 14.05 0 0 0-7.79 24l24.72 24.09-5.84 34a14.05 14.05 0 0 0 20.39 14.81l30.55-16.06 30.55 16.06a14 14 0 0 0 20.39-14.81l-5.83-34 24.72-24.1a14 14 0 0 0 3.55-14.43z" transform="translate(-22.41)"/><path class="cls-6" d="M303.13 139.57a14 14 0 0 0 5.59-13.74l-5.83-34 24.72-24.1a14.05 14.05 0 0 0-7.79-24h-.31l-39.08 38.03a8.42 8.42 0 0 0-2.43 7.45l7.07 41.24 1.69 9.38 1.55.82a14 14 0 0 0 14.8-1.07z" transform="translate(-22.41)"/><path class="cls-5" d="M488.89 108.4a14 14 0 0 0-11.34-9.56l-34.16-5-15.28-31a14.05 14.05 0 0 0-25.2 0l-15.28 31-34.16 5a14.05 14.05 0 0 0-7.79 24l24.72 24.1-5.83 34A14.05 14.05 0 0 0 385 195.73l30.55-16.06 30.55 16.06a14 14 0 0 0 20.39-14.81l-5.83-34 24.72-24.1a14 14 0 0 0 3.51-14.42z" transform="translate(-22.41)"/><path class="cls-6" d="M488.89 108.4a14 14 0 0 0-11.34-9.56l-.61-.09-38.78 38.1a8.42 8.42 0 0 0-2.42 7.45l8.26 50.32 2.11 1.11a14 14 0 0 0 20.39-14.81l-5.83-34 24.72-24.1a14 14 0 0 0 3.5-14.42z" transform="translate(-22.41)"/><path class="cls-7" d="M156.21 301.54H29.93a7.51 7.51 0 0 0-7.52 7.46v191.9a7.51 7.51 0 0 0 7.51 7.51h126.29a7.51 7.51 0 0 0 7.51-7.51V309a7.51 7.51 0 0 0-7.51-7.46z" transform="translate(-22.41)"/><path class="cls-8" d="M22.41 479.6v21.3a7.51 7.51 0 0 0 7.51 7.51h126.29a7.51 7.51 0 0 0 7.51-7.51v-21.3z" transform="translate(-22.41)"/><circle class="cls-9" cx="93.91" cy="462.29" r="11.96"/><path class="cls-10" d="M441.26 338.86H363A25.2 25.2 0 0 0 337.83 364v4.21A25.2 25.2 0 0 0 363 393.42h78.26a25.2 25.2 0 0 0 25.17-25.17V364a25.2 25.2 0 0 0-25.17-25.14z" transform="translate(-22.41)"/><path class="cls-1" d="M441.26 369.14H363A25.21 25.21 0 0 1 339.92 354a25 25 0 0 0-2.09 10v4.21A25.2 25.2 0 0 0 363 393.42h78.26a25.2 25.2 0 0 0 25.17-25.17V364a25 25 0 0 0-2.09-10 25.21 25.21 0 0 1-23.08 15.14z" transform="translate(-22.41)"/><path class="cls-10" d="M450.39 378.39H363a25.2 25.2 0 0 0-25.17 25.17v4.21A25.2 25.2 0 0 0 363 432.94h87.39a25.2 25.2 0 0 0 25.17-25.17v-4.21a25.2 25.2 0 0 0-25.17-25.17z" transform="translate(-22.41)"/><path class="cls-1" d="M450.39 408.9H363a25.2 25.2 0 0 1-23.13-15.25 25 25 0 0 0-2 9.92v4.21A25.2 25.2 0 0 0 363 432.95h87.39a25.2 25.2 0 0 0 25.17-25.17v-4.21a25 25 0 0 0-2-9.92 25.2 25.2 0 0 1-23.17 15.25z" transform="translate(-22.41)"/><path class="cls-10" d="M439.15 417.92h-74a27.28 27.28 0 0 0 0 54.55h74a27.28 27.28 0 0 0 0-54.55z" transform="translate(-22.41)"/><path class="cls-1" d="M439.15 448h-74a27.3 27.3 0 0 1-24.35-15 27.26 27.26 0 0 0 24.35 39.54h74A27.26 27.26 0 0 0 463.5 433a27.3 27.3 0 0 1-24.35 15z" transform="translate(-22.41)"/><path class="cls-10" d="M418.77 457.45H365.1a27.28 27.28 0 0 0 0 54.55h53.66a27.28 27.28 0 1 0 0-54.55z" transform="translate(-22.41)"/><path class="cls-1" d="M418.77 487.5H365.1a27.3 27.3 0 0 1-24.36-15A27.26 27.26 0 0 0 365.1 512h53.66a27.26 27.26 0 0 0 24.36-39.53 27.3 27.3 0 0 1-24.35 15.03z" transform="translate(-22.41)"/></svg>