<svg id="Layer_1" data-name="Layer 1" xmlns="http://www.w3.org/2000/svg" viewBox="0 0 512 512"><defs><style>.cls-1{fill:#933ec5}</style></defs><title>v</title><path class="cls-1" d="M0 0v512h512V0zm423 379.62c-13.89 41.31-47.87 58.42-88.1 42-57.9-23.56-107.9-55.31-148.75-96.19s-72.63-90.83-96.23-148.76c-16.39-40.23.72-74.21 42-88.1a32 32 0 0 1 22 0c17.62 6.48 62.23 67.89 63.23 86.26.77 14.09-8.81 21.72-18.31 28.17-18 12.19-18.05 27.65-10.38 44.9s17.62 32.53 30.15 45.05 27.7 22.42 45.05 30.15 32.7 7.57 44.9-10.38c6.45-9.5 14.08-19.08 28.17-18.31 18.37 1 79.78 45.62 86.26 63.23a32.06 32.06 0 0 1 .01 21.98zm-58-158.94c-1.55-17.85-9.85-35.13-23.39-48.66a83.77 83.77 0 0 0-51.75-24.54 74.17 74.17 0 0 0-15.75.3 11.82 11.82 0 0 1-3-23.44 98 98 0 0 1 20.79-.41 107.44 107.44 0 0 1 66.42 31.37c17.46 17.46 28.19 40 30.22 63.33a91.59 91.59 0 0 1-.38 19.41 11.82 11.82 0 0 1-11.71 10.33 12.15 12.15 0 0 1-1.5-.09 11.82 11.82 0 0 1-10.23-13.21 68 68 0 0 0 .28-14.39zm-39.24 3.4c-1.61-18.54-19.61-35.66-39.3-37.36a36.45 36.45 0 0 0-4.63-.11 11.82 11.82 0 1 1-1-23.61 60.73 60.73 0 0 1 7.65.18c31.47 2.73 58.18 28.58 60.8 58.87a53.58 53.58 0 0 1 .08 8.24 11.82 11.82 0 0 1-11.78 11h-.81a11.82 11.82 0 0 1-11-12.59 30 30 0 0 0-.04-4.62zm100.6 24.79a11.82 11.82 0 0 1-23.28-4 107 107 0 0 0 1.16-27.55c-2.35-27.07-14.7-53-34.78-73.11a123.21 123.21 0 0 0-76.2-35.92 113 113 0 0 0-27.48.95A11.82 11.82 0 1 1 262 85.85a136.83 136.83 0 0 1 33.22-1.15 146.88 146.88 0 0 1 90.87 42.76c24 24 38.78 55.18 41.61 87.78a130.65 130.65 0 0 1-1.37 33.63z"/></svg>