<svg id="Layer_1" data-name="Layer 1" xmlns="http://www.w3.org/2000/svg" viewBox="0 0 512 512"><defs><style>.cls-1{fill:#4a696f}.cls-2{fill:#3e5959}.cls-3{fill:#ff7816}.cls-4{fill:#ff4b00}.cls-5{fill:#fdbf00}.cls-6{fill:#ff9f00}.cls-7{fill:#ececf1}.cls-8{fill:#e2e2e7}.cls-9{fill:#00ee8a}.cls-10{fill:#babac0}</style></defs><title>verification</title><g id="surface1"><path class="cls-1" d="M392 107v360a44.94 44.94 0 0 1-45 45H46c-24.9 0-46-20.1-46-45V107c0-24.9 21.1-45 46-45h301a44.94 44.94 0 0 1 45 45z"/><path class="cls-2" d="M392 107v360a44.94 44.94 0 0 1-45 45H196V62h151a44.94 44.94 0 0 1 45 45z"/><path class="cls-3" d="M482 61v45a15 15 0 0 1-30 0V61a15 15 0 0 1 30 0z"/><path class="cls-4" d="M467 121V46a14.85 14.85 0 0 1 15 15v45a14.85 14.85 0 0 1-15 15z"/><path class="cls-5" d="M512 106v75l-45 30-45-30v-75a14.85 14.85 0 0 1 15-15h60a14.85 14.85 0 0 1 15 15z"/><path class="cls-6" d="M512 106v75l-45 30V91h30a14.85 14.85 0 0 1 15 15z"/><path class="cls-3" d="M482 466v31a15 15 0 0 1-30 0v-31a15 15 0 0 1 30 0z"/><path class="cls-4" d="M482 466v31a14.85 14.85 0 0 1-15 15v-61a14.85 14.85 0 0 1 15 15z"/><path class="cls-5" d="M467 331l-45 30v45a16.36 16.36 0 0 0 1.5 6.6l30 60c2.7 5.1 7.8 9.4 13.5 9.4s10.8-4.3 13.5-9.4l30-60a16.36 16.36 0 0 0 1.5-6.6v-45z"/><path class="cls-6" d="M467 331l45 30v45a16.36 16.36 0 0 1-1.5 6.6l-30 60c-2.7 5.1-7.8 9.4-13.5 9.4z"/><path class="cls-3" d="M422 181h90v180h-90z"/><path class="cls-4" d="M467 181h45v180h-45z"/><path class="cls-7" d="M362 107v360a14.85 14.85 0 0 1-15 15H46c-8.4 0-16-6.6-16-15V107c0-8.4 7.6-15 16-15h301a14.85 14.85 0 0 1 15 15z"/><path class="cls-8" d="M362 107v360a14.85 14.85 0 0 1-15 15H196V92h151a14.85 14.85 0 0 1 15 15z"/><path class="cls-9" d="M106 242a15 15 0 0 1-10.61-4.39l-30-30A15 15 0 0 1 86.6 186.4l19.4 19.39 49.39-49.39a15 15 0 0 1 21.21 21.21l-60 60A15 15 0 0 1 106 242zm0 105a15 15 0 0 1-10.61-4.39l-30-30A15 15 0 0 1 86.6 291.4l19.4 19.39 49.39-49.39a15 15 0 0 1 21.21 21.21l-60 60A15 15 0 0 1 106 347zm0 105a15 15 0 0 1-10.61-4.39l-30-30A15 15 0 0 1 86.6 396.4l19.4 19.39 49.39-49.39a15 15 0 0 1 21.21 21.21l-60 60A15 15 0 0 1 106 452z"/><path class="cls-10" d="M317 212h-91a15 15 0 0 1 0-30h91a15 15 0 0 1 0 30zm0 105h-91a15 15 0 0 1 0-30h91a15 15 0 0 1 0 30zm0 105h-91a15 15 0 0 1 0-30h91a15 15 0 0 1 0 30z"/><path class="cls-3" d="M286 62v15a14.85 14.85 0 0 1-15 15H121a14.85 14.85 0 0 1-15-15V62a30.09 30.09 0 0 1 30-30h30c0-16.5 13.5-32 30-32s30 15.5 30 32h30a30.09 30.09 0 0 1 30 30z"/><path class="cls-4" d="M286 62v15a14.85 14.85 0 0 1-15 15h-75V0c16.5 0 30 15.5 30 32h30a30.09 30.09 0 0 1 30 30z"/></g></svg>