<svg id="Layer_1" data-name="Layer 1" xmlns="http://www.w3.org/2000/svg" viewBox="0 0 504.12 504.12"><defs><style>.cls-1{fill:#415661}.cls-2{fill:#2b414d}.cls-3{fill:#e2574c}.cls-4{fill:#e66b62}.cls-5{fill:#fff}.cls-6{fill:#324d5b}</style></defs><title>youtube</title><path class="cls-1" d="M78.77 0h346.58a79 79 0 0 1 78.77 78.77v346.58a79 79 0 0 1-78.77 78.77H78.77A79 79 0 0 1 0 425.35V78.77A79 79 0 0 1 78.77 0z"/><path class="cls-2" d="M78.77 31.51h346.58a47.4 47.4 0 0 1 47.26 47.26V323a47.4 47.4 0 0 1-47.26 47.26H78.77A47.4 47.4 0 0 1 31.51 323V78.77a47.4 47.4 0 0 1 47.26-47.26z"/><path class="cls-3" d="M86.65 55.14h330.83A31.6 31.6 0 0 1 449 86.65v228.43a31.6 31.6 0 0 1-31.51 31.51H86.65a31.6 31.6 0 0 1-31.51-31.51V86.65a31.6 31.6 0 0 1 31.51-31.51z"/><path class="cls-4" d="M449 315.08V86.65a31.6 31.6 0 0 0-31.51-31.51H252.06v291.44h165.42a31.6 31.6 0 0 0 31.52-31.5z"/><path class="cls-5" d="M321 192.2l-96.9-60.26c-7.48-4.73-15-.79-15 8.66v120.52c0 9.45 7.48 13.39 15 8.67l96.9-59.08c9.44-5.91 5.89-14.97 0-18.51z"/><path class="cls-2" d="M189 405.66a7.9 7.9 0 0 0-7.88 7.88v39.39a7.88 7.88 0 1 0 15.75 0v-39.39a7.9 7.9 0 0 0-7.87-7.88zm31.51 0a7.9 7.9 0 0 0-7.88 7.88v39.39a7.88 7.88 0 1 0 15.75 0v-39.39a7.9 7.9 0 0 0-7.83-7.88zm31.51 0a7.9 7.9 0 0 0-7.88 7.88v39.39a7.88 7.88 0 1 0 15.75 0v-39.39a7.9 7.9 0 0 0-7.83-7.88zm31.51 0a7.9 7.9 0 0 0-7.88 7.88v39.39a7.88 7.88 0 1 0 15.75 0v-39.39a7.9 7.9 0 0 0-7.83-7.88zm31.51 0a7.9 7.9 0 0 0-7.88 7.88v39.39a7.88 7.88 0 1 0 15.75 0v-39.39a7.9 7.9 0 0 0-7.83-7.88z"/><path class="cls-5" d="M389.91 405.66a27.57 27.57 0 1 0 27.57 27.57 27.4 27.4 0 0 0-27.57-27.57zm-275.69 0a27.57 27.57 0 1 0 27.57 27.57 27.4 27.4 0 0 0-27.58-27.57z"/><path class="cls-6" d="M114.21 421.42A11.82 11.82 0 1 0 126 433.23a11.85 11.85 0 0 0-11.79-11.81zm275.69 0a11.82 11.82 0 1 0 11.82 11.82 11.85 11.85 0 0 0-11.81-11.82z"/></svg>