<svg id="Capa_1" data-name="Capa 1" xmlns="http://www.w3.org/2000/svg" viewBox="0 0 229.52 512"><defs><style>.cls-1{fill:#f6ab27}.cls-2{fill:#f6db6d}.cls-3{fill:#faedbd}.cls-4{fill:#fccc88}.cls-5{fill:#6d5a61}</style></defs><title>butternut-squash</title><path class="cls-1" d="M229.52 44.14l12.77-31.94A17.72 17.72 0 0 1 258.08 0h6.74a10.12 10.12 0 0 1 8.83 11v33.1h-44.13z" transform="translate(-141.24)"/><path class="cls-2" d="M271 512c-9-11.92-23.23-11.67-30.06 0-59.6 0-105.89-47.26-99.06-101.12L157.71 309a149.11 149.11 0 0 0 .29-35.08L146.1 136.7c-5.32-48.37 32.22-92 85.12-98.84l6.64-.86a140.7 140.7 0 0 1 36.26 0l6.64.86c52.9 6.88 90.44 50.46 85.12 98.84l-13.07 137.19a149.11 149.11 0 0 0 .29 35.11l17 101.91C376.92 464.74 330.63 512 271 512z" transform="translate(-141.24)"/><path class="cls-1" d="M262.23 300.14h-12.46a33.45 33.45 0 0 0-24.11 9.86l-25.84 27a70.94 70.94 0 0 0-19.72 40.92l-3.11 27a71.49 71.49 0 0 0 32.21 66.62 30.27 30.27 0 0 0 31.84 1.2 30.39 30.39 0 0 1 29.95 0 30.28 30.28 0 0 0 31.84-1.2A71.49 71.49 0 0 0 335 404.92l-3.11-27.05a70.94 70.94 0 0 0-19.73-40.92l-25.84-27a33.45 33.45 0 0 0-24.12-9.83z" transform="translate(-141.24)"/><path class="cls-3" d="M238.33 81.35a8.83 8.83 0 0 1-1.13-17.58l4.07-.53A123.67 123.67 0 0 1 256 61.79a8.83 8.83 0 1 1 0 17.66 122.24 122.24 0 0 0-12.45 1.29l-4.07.53a8.72 8.72 0 0 1-1.15.07zm-55.08 95.2a8.83 8.83 0 0 1-8.81-8.32l-2-34.46a60.62 60.62 0 0 1 25.3-55 8.83 8.83 0 1 1 10.6 14.12A43.16 43.16 0 0 0 190 131.85l.1.93 2 34.43a8.83 8.83 0 0 1-8.31 9.32z" transform="translate(-141.24)"/><path class="cls-4" d="M256 300.14v168.7a30.91 30.91 0 0 0-15 3.88 29.5 29.5 0 0 1-14.92 4 30.08 30.08 0 0 1-16.86-5.12A71.59 71.59 0 0 1 177 404.92l3.09-27a71.33 71.33 0 0 1 19.77-41l25.78-27a33.73 33.73 0 0 1 24.1-9.8z" transform="translate(-141.24)"/><path class="cls-5" d="M220.69 370.76a8.74 8.74 0 0 1-8.83-8.83 10.5 10.5 0 0 1 .18-1.68 5.31 5.31 0 0 1 .53-1.68 6.78 6.78 0 0 1 .8-1.59l1.06-1.32a9.11 9.11 0 0 1 12.53 0L228 357a6.74 6.74 0 0 1 .8 1.59 5.44 5.44 0 0 1 .53 1.68 11 11 0 0 1 .18 1.68 8.47 8.47 0 0 1-5.47 8.12 8.85 8.85 0 0 1-3.35.69zm0 35.31a13.42 13.42 0 0 1-1.77-.18 5.78 5.78 0 0 1-1.59-.53 6.76 6.76 0 0 1-1.59-.8 13.06 13.06 0 0 1-1.32-1.06 9.28 9.28 0 0 1-2.56-6.27 8.82 8.82 0 0 1 .7-3.36 9.08 9.08 0 0 1 1.86-2.91l1.32-1.06a6.74 6.74 0 0 1 1.59-.8 5.62 5.62 0 0 1 1.59-.53 9.24 9.24 0 0 1 8 2.38 10.25 10.25 0 0 1 1.85 2.91 8.83 8.83 0 0 1 .71 3.36 8.75 8.75 0 0 1-8.83 8.83zm0 35.31a8.86 8.86 0 0 1-6.27-15.1 8.23 8.23 0 0 1 2.91-1.86 8.82 8.82 0 0 1 9.63 1.86 9.29 9.29 0 0 1 2.56 6.27 13.36 13.36 0 0 1-.18 1.76 5.78 5.78 0 0 1-.53 1.59 6.74 6.74 0 0 1-.8 1.59 14.15 14.15 0 0 1-1.06 1.32 9.3 9.3 0 0 1-6.26 2.57zm70.62 0a9.29 9.29 0 0 1-6.27-2.56L284 437.5a6.7 6.7 0 0 1-.8-1.59 5.62 5.62 0 0 1-.53-1.59 12.87 12.87 0 0 1-.18-1.76 8.83 8.83 0 1 1 17.66 0 13.36 13.36 0 0 1-.18 1.76 5.78 5.78 0 0 1-.53 1.59 6.74 6.74 0 0 1-.8 1.59l-1.06 1.32a9.3 9.3 0 0 1-6.27 2.56zm0-35.31a8.75 8.75 0 0 1-8.12-12.18A10.18 10.18 0 0 1 285 391a8.85 8.85 0 0 1 9.62-1.86 9.13 9.13 0 0 1 2.91 1.86 10.25 10.25 0 0 1 1.85 2.91 7.4 7.4 0 0 1 .71 3.36 8.47 8.47 0 0 1-5.47 8.12 7.41 7.41 0 0 1-3.35.71zm0-35.31a8.83 8.83 0 0 1-3.36-.71 9.15 9.15 0 0 1-2.95-1.85 9.28 9.28 0 0 1-2.56-6.27 10.5 10.5 0 0 1 .18-1.68 5.31 5.31 0 0 1 .53-1.68A6.78 6.78 0 0 1 284 357a13.1 13.1 0 0 1 1.06-1.32 9.11 9.11 0 0 1 12.53 0l1.06 1.32a6.74 6.74 0 0 1 .8 1.59 5.44 5.44 0 0 1 .53 1.68 11 11 0 0 1 .18 1.68 8.75 8.75 0 0 1-8.83 8.83z" transform="translate(-141.24)"/></svg>