<svg id="Capa_1" data-name="Capa 1" xmlns="http://www.w3.org/2000/svg" viewBox="0 0 512 501.13"><defs><style>.cls-1{fill:#3bbc56}.cls-2{fill:#30aa44}.cls-3{fill:#239b31}.cls-4{fill:#83cc8e}.cls-5{fill:#78c181}.cls-6{fill:#9be0a3}</style></defs><title>cabbage</title><path class="cls-1" d="M461.43 123.11a10.6 10.6 0 0 1-6.39-8.85 65.39 65.39 0 0 0-61.79-59.71 13 13 0 0 1-11.46-9c-17.2-49.62-84.88-53.84-109.33-9.12l-.59 1.08 1.16.39a65.84 65.84 0 0 1 44.45 57.63 203.84 203.84 0 0 1 104 71.66l1.27 1.65.54-2c3.69-13.81 14-37.37 41.45-40l3.5-.38c-4.17-2.12-5.34-2.71-6.81-3.35z" transform="translate(0 -5.44)"/><path class="cls-2" d="M366.51 21.61c-26.85-25.44-74.4-21.11-94 14.82l-.59 1.08 1.16.39a64.83 64.83 0 0 1 20 11c15.25-27.84 47.3-36.65 73.43-27.29z" transform="translate(0 -5.44)"/><path class="cls-2" d="M64.04 304.99l.07.01.28-2.03-.35 2.02z"/><path class="cls-2" d="M59.1 309.87v-2.05zM256.32 32.62a67.26 67.26 0 0 0-51.44 19.81A14.63 14.63 0 0 1 188.82 56a73.13 73.13 0 0 0-91.16 30.35 12 12 0 0 1-10.85 5.91C17.9 89.45-24.42 167.31 15.36 223.54a24 24 0 0 1 2.49 23.61c-10.12 22.56-5.28 50.72 16.58 68.74A47.1 47.1 0 0 1 55 309.83C44.92 187.08 141.36 87 259 87a205.07 205.07 0 0 1 60.59 9.11c-2.74-37.24-31.47-61.76-63.27-63.49z" transform="translate(0 -5.44)"/><path class="cls-3" d="M38.36 246a24.81 24.81 0 0 0-2.49-24c-33.8-48.66-8.3-113.15 42.42-129.67-63.79 3.61-101 77.33-62.93 131.2a24 24 0 0 1 2.48 23.61c-10.12 22.56-5.28 50.72 16.58 68.74a48.38 48.38 0 0 1 14.85-5.37A59.4 59.4 0 0 1 38.36 246z" transform="translate(0 -5.44)"/><path class="cls-4" d="M423.13 165.93A208.88 208.88 0 0 0 352 107a204.68 204.68 0 0 0-93-22A207 207 0 0 0 52.92 310l1-.07c27.93-2 47.52 25.22 47.72 25.49l.28.39h.48c23.45 1.79 42 15.13 55.18 39.64a130.59 130.59 0 0 1 12.84 36.66l.13.81.82.05c40.35 2.59 70.16 43.32 87.07 80.27 15-52.53 49-96.76 102.71-105.7l1-.16-.13-1c-.11-.83-10.79-83.57 36.38-113.36l.7-.44-.28-.77c-.24-.67-23.34-66.93 22.46-96.64l.4-.26.06-.48a60.63 60.63 0 0 1 1.58-7.63l.13-.49z" transform="translate(0 -5.44)"/><path class="cls-5" d="M277.63 85.81Q268.4 85 259 85A207 207 0 0 0 52.92 310l1-.07a44.15 44.15 0 0 1 20.74 3.76C67.71 191 161.74 92.06 277.63 85.81z" transform="translate(0 -5.44)"/><path class="cls-1" d="M239.11 455.37c-18-24.8-38.74-39.72-60.45-43.57a9.65 9.65 0 0 1-7.75-7.12c-8.33-33.26-28.36-64.51-62.49-70.19a15.07 15.07 0 0 1-8.8-4.83c-20.08-22.6-47-30-73.17-11.14-43.53 31.38-6.11 70.79 34.06 62.7 11.73-2.37 18.45 11.25 27.75 30.09 10.26 20.77 23 46.62 48.67 65.55 22.24 16.42 50 24.55 84.28 24.55a272.28 272.28 0 0 0 41.36-3.41c-4.57-12-13.43-28.8-23.46-42.63z" transform="translate(0 -5.44)"/><path class="cls-2" d="M241.73 500.38c-34.25 0-62-8.13-84.28-24.55-25.64-18.93-38.41-44.78-48.67-65.55-9.3-18.84-16-32.45-27.75-30.09-40.17 8.09-77.58-31.32-34.03-62.7a57.66 57.66 0 0 1 18.13-9c-12.46-2.25-25.65.63-38.65 10-43.53 31.38-6.11 70.79 34.06 62.71 11.73-2.37 18.45 11.25 27.75 30.09 10.26 20.77 23 46.62 48.67 65.55 22.24 16.42 50 24.55 84.28 24.55 7.49 0 14.75-.38 22-1z" transform="translate(0 -5.44)"/><path class="cls-6" d="M361.65 192.57a7.7 7.7 0 0 0-10.4-3.2c-44.51 23.58-66.17 58.79-76.51 84.18a174.39 174.39 0 0 0-6.42 18.79 305.89 305.89 0 0 0-27-55.38c1.63-7.94 12-51.47 46.9-80.67a7.69 7.69 0 1 0-9.87-11.8c-28.87 24.14-42.51 56.33-48.43 75.32-31.6-44.29-64.36-65.88-65.87-66.86a7.69 7.69 0 0 0-8.38 12.91c.24.15 15.38 10.13 34.64 30.22-29.74-3.36-52.83 4.24-54 4.65a7.69 7.69 0 1 0 4.92 14.58c.31-.1 31.17-10.26 65.75-.29a295.44 295.44 0 0 1 18.67 25.89 286.68 286.68 0 0 1 16.65 29.73c-52-24.22-121.07 2.61-124.4 3.93a7.69 7.69 0 0 0 5.68 14.3c.85-.33 84.64-32.92 129.52 7a298.62 298.62 0 0 1 15.95 63.47c-15.55-8.31-45-20.61-79-17.55a7.69 7.69 0 1 0 1.38 15.33c40.12-3.6 74.36 17.8 79.67 21.31 2.21 28.77.75 60.79-6.2 96a7.69 7.69 0 1 0 15.1 3c9.92-50.26 10-98.59.35-143.62-.66-3.07-1.38-6.13-2.14-9.17v-.39c0-.8 2.88-80.32 80.22-121.3a7.69 7.69 0 0 0 3.22-10.38z" transform="translate(0 -5.44)"/><path class="cls-1" d="M493.94 284.53c-1.4-35-8.82-72.07-15.31-92.18h-.76c-34.82.76-39.06 61.06-39.22 63.64-2.45 52-73.13 126.93-77.74 131.58-56.25 9.67-93.16 58.43-105.31 108.79 7.72 4 26.52 10.2 50.35 10.2 1.93 0 3.91 0 5.93-.12 31-1.29 79-13.65 131.15-65.16 41.21-40.7 53.21-99.34 50.91-156.75z" transform="translate(0 -5.44)"/><path class="cls-2" d="M293.32 461.4c13.73-31.41 36.23-59 66.27-73.55-55.5 10.18-91.94 58.58-104 108.51 7.72 4 26.52 10.2 50.35 10.2 1.93 0 3.91 0 5.93-.12 2.44-.1 5-.28 7.64-.53l-.53-.05c-21.36-2.26-34.27-24.76-25.66-44.46zm218.57-309.45C510.6 137.37 498.25 127.56 478 125c-31.09-3.89-50.91 15.05-57.4 44a12.73 12.73 0 0 1-4.64 7.34c-16.81 12.89-25.56 32.92-25.36 58.28a130.76 130.76 0 0 0 4.81 33.13 5.83 5.83 0 0 1-2.17 6.25c-17.7 13.21-29.07 36.11-33 66.59a179.16 179.16 0 0 0 .62 46.93c48.86-17.94 81.3-43.11 96.68-76.17 13.07-28.08 11.9-56.05 11-78.53-.85-20.37-1.45-35.08 9.64-38.52 20.45-6.3 35.25-24.91 33.71-42.35z" transform="translate(0 -5.44)"/><path class="cls-3" d="M381.59 340.67c3.91-30.48 15.27-53.38 33-66.59a5.83 5.83 0 0 0 2.17-6.25 130.81 130.81 0 0 1-4.81-33.13c-.2-25.36 8.55-45.4 25.36-58.28a12.72 12.72 0 0 0 4.64-7.34c5.13-22.89 18.56-39.5 39.28-43.57-1-.18-2.1-.34-3.19-.47-31.09-3.89-50.91 15.05-57.4 44.05a12.73 12.73 0 0 1-4.64 7.34c-16.81 12.89-25.56 32.92-25.36 58.28a130.82 130.82 0 0 0 4.81 33.13 5.83 5.83 0 0 1-2.17 6.25c-17.7 13.21-29.07 36.11-33 66.59a179.16 179.16 0 0 0 .62 46.93q10.67-3.92 20.28-8.3a179.08 179.08 0 0 1 .41-38.64z" transform="translate(0 -5.44)"/></svg>