<svg id="Capa_1" data-name="Capa 1" xmlns="http://www.w3.org/2000/svg" viewBox="0 0 56.05 41"><defs><style>.cls-1{fill:#f4c647}.cls-2{fill:#f9e295}.cls-3{fill:#eeaf4b}.cls-4{fill:#fcdf76}</style></defs><title>cheese</title><path class="cls-1" d="M45 19.52V25l4.78.63V14.27c-.08-3.18-11.19-6.74-24.89-6.74S.08 11.09 0 14.27v18.25c0 3.19 10.74 7.11 24.48 7.11H25V21.52l-4.7-7.22z" transform="translate(0 -7.52)"/><path class="cls-2" d="M25 31.52v-10l-4.7-7.22L45 19.52V25l-14-1.48v10s-6-2.02-6-2z" transform="translate(0 -7.52)"/><path class="cls-3" d="M24.89 7.52C11.14 7.52 0 11.11 0 14.3s10.74 7.22 24.48 7.22H25l-4.7-7.22 25 5.22c2.79-.93 4.44-4 4.44-5.22.04-3.19-11.11-6.78-24.85-6.78z" transform="translate(0 -7.52)"/><path class="cls-1" d="M36 29v19.52c8.26 0 15.65-1 20-2.49V26.49l-25-3.3z" transform="translate(0 -7.52)"/><path class="cls-3" d="M31 23.19L36 29c8.23 0 15.57-1 19.94-2.5z" transform="translate(0 -7.52)"/><path class="cls-4" d="M36 21.45V41l-5-6V15.67l5 5.78z"/></svg>