<svg id="Capa_1" data-name="Capa 1" xmlns="http://www.w3.org/2000/svg" viewBox="0 0 512 426.67"><defs><style>.cls-1{fill:#303c42}.cls-2{fill:#fafafa}.cls-3{fill:#f9a825}.cls-4,.cls-5{opacity:.1;isolation:isolate}.cls-5{fill:#fff;opacity:.2}.cls-6{fill:url(#linear-gradient)}.cls-7{fill:url(#linear-gradient-2)}</style><linearGradient id="linear-gradient" x1="-80.74" y1="26.51" x2="-72.28" y2="34.97" gradientTransform="translate(1992.67 -277.98) scale(21.33)" gradientUnits="userSpaceOnUse"><stop offset="0" stop-opacity=".1"/><stop offset="1" stop-opacity="0"/></linearGradient><linearGradient id="linear-gradient-2" x1="-89.83" y1="20.69" x2="-68.25" y2="30.75" gradientTransform="translate(1992.67 -277.98) scale(21.33)" gradientUnits="userSpaceOnUse"><stop offset="0" stop-color="#fff" stop-opacity=".2"/><stop offset="1" stop-color="#fff" stop-opacity="0"/></linearGradient></defs><title>chicken</title><path class="cls-1" d="M504.71 416.55C467.08 404 448 382.29 448 352c0-3.36-.67-80.09-45.47-138.94a318.88 318.88 0 0 1 21-24.18 10.68 10.68 0 0 0 3.13-7.54c0-.69 0-2.89-.33-5.92l26.08-26.08h16.92A42.72 42.72 0 0 0 512 106.67a42.26 42.26 0 0 0-25.21-38.78A42.26 42.26 0 0 0 448 42.67a42.72 42.72 0 0 0-42.67 42.67v16.92l-26.08 26.08c-3-.28-5.22-.33-5.92-.33a10.66 10.66 0 0 0-7.54 3.13 327.64 327.64 0 0 1-35.05 29.24 184.2 184.2 0 0 0-64.07-11C124.6 149.33 0 249 0 362.67c0 65.79 53.13 106.67 138.67 106.67h298.66c48.08 0 74.67-25.23 74.67-42.67a10.66 10.66 0 0 0-7.29-10.12z" transform="translate(0 -42.67)"/><path class="cls-2" d="M423.54 114.21a10.66 10.66 0 0 0 3.13-7.54V85.33a21.25 21.25 0 0 1 41.63-6.09 10.64 10.64 0 0 0 7.15 7.15 21.13 21.13 0 0 1 15.23 20.28A21.35 21.35 0 0 1 469.33 128H448a10.66 10.66 0 0 0-7.54 3.13l-20.62 20.62a34.93 34.93 0 0 0-16.91-16.92z" transform="translate(0 -42.67)"/><path class="cls-3" d="M377.38 149.58c6.08.63 15.67 2.54 20.42 7.29s6.67 14.34 7.29 20.42c-13.75 14.58-63.75 71.06-63.75 121.37A85.33 85.33 0 1 1 256 213.33c50.31 0 106.79-50 121.38-63.75z" transform="translate(0 -42.67)"/><path class="cls-4" d="M397.79 156.88a21.35 21.35 0 0 0-7.69-4.39c-20.57 24.49-53.17 69.81-53.17 111.17A88.43 88.43 0 0 1 248.59 352c-33.42 0-62.21-18.87-77.21-46.3C175 349.42 211.35 384 256 384a85.42 85.42 0 0 0 85.33-85.33c0-50.31 50-106.79 63.75-121.37-.62-6.08-2.54-15.67-7.29-20.42z" transform="translate(0 -42.67)"/><path class="cls-3" d="M437.33 448H138.67c-35.27 0-117.33-8.31-117.33-85.33 0-102.28 114.65-192 245.33-192a169.72 169.72 0 0 1 40.54 4.84C290.62 184.85 272.59 192 256 192a106.67 106.67 0 1 0 106.67 106.67c0-22.26 12.84-47.16 26.72-67.65 36.8 52.64 37.28 120.25 37.28 121 0 36.47 20.58 64.09 59.71 80.45-6.98 6.61-22.63 15.53-49.05 15.53z" transform="translate(0 -42.67)"/><path class="cls-5" d="M36.69 386.67c0-81.66 73.16-155.16 169.13-181.54A105.27 105.27 0 0 1 256 192c16.59 0 34.62-7.15 51.21-16.5a169.72 169.72 0 0 0-40.54-4.84c-130.69 0-245.33 89.72-245.33 192 0 24.52 8.36 42 20.84 54.57a83.79 83.79 0 0 1-5.49-30.56z" transform="translate(0 -42.67)"/><path class="cls-6" d="M486.38 432.45c-39.12-16.35-59.71-44-59.71-80.45 0-.73-.48-68.34-37.28-121-13.88 20.49-26.72 45.39-26.72 67.65a106.42 106.42 0 0 1-180.31 76.85l72.5 72.5h182.47c26.42 0 42.07-8.92 49.05-15.55z" transform="translate(0 -42.67)"/><path class="cls-7" d="M504.71 416.55C467.08 404 448 382.29 448 352c0-3.36-.67-80.09-45.47-138.94a318.88 318.88 0 0 1 21-24.18 10.68 10.68 0 0 0 3.13-7.54c0-.69 0-2.89-.33-5.92l26.08-26.08h16.92A42.72 42.72 0 0 0 512 106.67a42.26 42.26 0 0 0-25.21-38.78A42.26 42.26 0 0 0 448 42.67a42.72 42.72 0 0 0-42.67 42.67v16.92l-26.08 26.08c-3-.28-5.22-.33-5.92-.33a10.66 10.66 0 0 0-7.54 3.13 327.64 327.64 0 0 1-35.05 29.24 184.2 184.2 0 0 0-64.07-11C124.6 149.33 0 249 0 362.67c0 65.79 53.13 106.67 138.67 106.67h298.66c48.08 0 74.67-25.23 74.67-42.67a10.66 10.66 0 0 0-7.29-10.12z" transform="translate(0 -42.67)"/></svg>