<svg id="Layer_1" data-name="Layer 1" xmlns="http://www.w3.org/2000/svg" viewBox="0 0 508.41 512"><defs><style>.cls-1{fill:#ffd652}.cls-2{fill:#458fde}.cls-3{fill:#fb9d46}.cls-4{fill:#ff7452}.cls-5{fill:#fdc854}.cls-6{fill:#89dcfc}.cls-7{fill:#fff}.cls-8{fill:gray}.cls-9{fill:#666}.cls-10{fill:#aff078}</style></defs><title>delivery-truck</title><path class="cls-1" d="M486.32 330.5h-35.55v-95a23.88 23.88 0 0 0-23.88-23.88H307.13a8.28 8.28 0 0 0-3.24.6 8 8 0 0 0-4.9 7.36l.08 99.76H1.79v136.4a15.92 15.92 0 0 0 15.92 15.92h476.57a15.92 15.92 0 0 0 15.92-15.92V354.38a23.88 23.88 0 0 0-23.88-23.88z" transform="translate(-1.79)"/><path class="cls-2" d="M307.13 147.94H9.76a8 8 0 0 0-8 8v193.14a8 8 0 0 0 8 8h297.37a8 8 0 0 0 8-8V155.9a8 8 0 0 0-8-7.96z" transform="translate(-1.79)"/><path class="cls-3" d="M0 402.14h508.41v21.23H0z"/><path class="cls-4" d="M1.79 423.37v32.37a15.92 15.92 0 0 0 15.92 15.92h476.57a15.92 15.92 0 0 0 15.92-15.92v-32.37z" transform="translate(-1.79)"/><path class="cls-5" d="M510.21 354.38a23.88 23.88 0 0 0-23.88-23.88h-35.56v-95a23.88 23.88 0 0 0-23.88-23.88H307.13a8.28 8.28 0 0 0-3.24.6 8 8 0 0 0-4.9 7.36l.08 110.91H1.79v71.64h508.42v-47.75z" transform="translate(-1.79)"/><path class="cls-6" d="M413.09 237.1h-76.42a8 8 0 0 0-8 8V313a8 8 0 0 0 8 8h76.42a8 8 0 0 0 8-8v-67.94a8 8 0 0 0-8-7.96z" transform="translate(-1.79)"/><path class="cls-6" d="M389 237.1h-22.29l-39.8 39.8v22.29L389 237.1z"/><path class="cls-7" d="M390.8 237.1l-62.09 62.09V313a8 8 0 0 0 .1 1.22l77.11-77.11z" transform="translate(-1.79)"/><path class="cls-6" d="M413.09 237.1h-7.16l-77.11 77.11a8 8 0 0 0 7.35 6.71l82-82a7.94 7.94 0 0 0-5.08-1.82z" transform="translate(-1.79)"/><path class="cls-7" d="M418.16 238.92l-82 82h27.58L421 263.63v-18.57a7.94 7.94 0 0 0-2.84-6.14z" transform="translate(-1.79)"/><path class="cls-6" d="M363.73 320.95h49.36a8 8 0 0 0 8-8v-49.32z" transform="translate(-1.79)"/><path class="cls-8" d="M124.39 368.71A71.64 71.64 0 1 0 196 440.36a71.73 71.73 0 0 0-71.61-71.65zm250.49 0a71.64 71.64 0 1 0 71.64 71.64 71.73 71.73 0 0 0-71.64-71.64z" transform="translate(-1.79)"/><path class="cls-9" d="M374.88 393.65a46.7 46.7 0 1 0 46.7 46.7 46.75 46.75 0 0 0-46.7-46.7zm-250.49 0a46.7 46.7 0 1 0 46.7 46.7 46.75 46.75 0 0 0-46.7-46.7z" transform="translate(-1.79)"/><path class="cls-10" d="M124.39 402.68a37.68 37.68 0 1 0 37.68 37.68 37.72 37.72 0 0 0-37.68-37.68zm250.49 0a37.68 37.68 0 1 0 37.68 37.68 37.72 37.72 0 0 0-37.68-37.68z" transform="translate(-1.79)"/><path class="cls-4" d="M357.89 346.42h-21.22a8 8 0 0 1 0-15.92h21.23a8 8 0 0 1 0 15.92z" transform="translate(-1.79)"/><path class="cls-10" d="M139.95 46.78h-43.4L83.13 5.5A8 8 0 0 0 68 5.5L54.58 46.78h-43.4a8 8 0 0 0-4.68 14.4l35.11 25.51L28.2 128c-2.32 7.14 6.17 13.31 12.25 8.9l35.11-25.51 35.11 25.51c6.07 4.41 14.55-1.81 12.25-8.9l-13.41-41.31 35.11-25.51a8 8 0 0 0-4.68-14.4zm156.38 0h-43.4L239.52 5.5a8 8 0 0 0-15.14 0L211 46.78h-43.4a8 8 0 0 0-4.68 14.4L198 86.69 184.59 128c-2.32 7.14 6.17 13.31 12.25 8.9l35.11-25.51 35.11 25.51c6.07 4.41 14.55-1.81 12.25-8.9L265.9 86.69 301 61.18a8 8 0 0 0-4.68-14.4zm163.96 5.5a8 8 0 0 0-7.57-5.5h-43.4L395.91 5.5a8 8 0 0 0-15.14 0l-13.41 41.28H324a8 8 0 0 0-4.68 14.4l35.11 25.51L341 128c-2.32 7.14 6.17 13.31 12.25 8.9l35.11-25.51 35.11 25.51c6.07 4.41 14.55-1.81 12.25-8.9l-13.43-41.31 35.11-25.51a8 8 0 0 0 2.89-8.9z" transform="translate(-1.79)"/><path class="cls-6" d="M79.81 215.87H41.6a8 8 0 0 0-8 8v87a8 8 0 1 0 15.92 0v-34.5h21.8a8 8 0 1 0 0-15.92H49.56v-28.66h30.25a8 8 0 1 0 0-15.92zm61.56 0h-36.09a8 8 0 0 0-8 8v87a8 8 0 1 0 15.92 0v-26h10.83l7.48 28.06a8 8 0 1 0 15.38-4.1l-6.39-24h.82a8 8 0 0 0 8-8v-53a8 8 0 0 0-7.95-7.96zM113.24 269v-37.21h20.17v37.15h-19.64zm96.06-37.21a8 8 0 0 0 0-15.92h-38.21a8 8 0 0 0-8 8v87a8 8 0 0 0 8 8h38.21a8 8 0 0 0 0-15.92H179v-26.58h21.76a8 8 0 1 0 0-15.92H179v-28.66zm65.81 71.11h-30.25v-26.53h21.76a8 8 0 1 0 0-15.92h-21.76v-28.66h30.25a8 8 0 0 0 0-15.92H236.9a8 8 0 0 0-8 8v87a8 8 0 0 0 8 8h38.21a8 8 0 1 0 0-15.92z" transform="translate(-1.79)"/></svg>