<svg id="Capa_1" data-name="Capa 1" xmlns="http://www.w3.org/2000/svg" viewBox="0 0 512 341.33"><defs><style>.cls-1{fill:#303c42}.cls-2{fill:#ffca28}.cls-3{fill:#ff6f00}.cls-4{fill:url(#linear-gradient)}.cls-5,.cls-6{opacity:.1;isolation:isolate}.cls-6{fill:#fff;opacity:.2}.cls-7{fill:url(#linear-gradient-2)}</style><linearGradient id="linear-gradient" x1="-92.15" y1="25.53" x2="-70.49" y2="25.53" gradientTransform="translate(1992.7 -278.01) scale(21.33)" gradientUnits="userSpaceOnUse"><stop offset="0" stop-color="#ff6f00"/><stop offset=".21" stop-color="#ff7302"/><stop offset=".42" stop-color="#ff7f07"/><stop offset=".63" stop-color="#ff9410"/><stop offset=".84" stop-color="#ffb01d"/><stop offset="1" stop-color="#ffca28"/></linearGradient><linearGradient id="linear-gradient-2" x1="-93.7" y1="21.05" x2="-71.98" y2="31.17" gradientTransform="translate(1992.7 -278.01) scale(21.33)" gradientUnits="userSpaceOnUse"><stop offset="0" stop-color="#fff" stop-opacity=".2"/><stop offset="1" stop-color="#fff" stop-opacity="0"/></linearGradient></defs><title>fish</title><path class="cls-1" d="M510.61 261.38C462.94 178 383.53 129.82 292.37 128.3 257 96.44 186 85.89 182.84 85.45a10.55 10.55 0 0 0-9.84 3.87 10.67 10.67 0 0 0-1.69 10.41c6 16.13 13.94 40.37 16.54 53.57-34.31 14.77-64.93 33-81.27 45.95-28.15-21.67-88.9-47.83-91.73-49A10.67 10.67 0 0 0 .42 162.94c.21.74 20.92 73.6 20.92 103.74S.63 369.67.42 370.41a10.67 10.67 0 0 0 14.46 12.73c2.83-1.21 63.58-27.37 91.73-49a259.2 259.2 0 0 0 26.12 17.7c-2.69 5-4.72 11.85-4.72 21.54 0 25.92 24.17 53.33 47 53.33 28 0 40.32-6.49 55.62-31 19.92 5.9 39.67 9.7 57.38 9.7 93 0 174.17-48.61 222.6-133.37a10.76 10.76 0 0 0 0-10.66z" transform="translate(0 -85.33)"/><path class="cls-2" d="M197.59 109.94c16.36 3.58 41 10.32 61.11 21a301.27 301.27 0 0 0-50.82 14.35c-2.49-11.14-6.61-24.51-10.29-35.35z" transform="translate(0 -85.33)"/><path class="cls-3" d="M175 405.33c-9.21 0-25.67-16.12-25.67-32a28.93 28.93 0 0 1 1.77-11 458.1 458.1 0 0 0 58.6 26.45c-10.6 15.58-17.7 16.55-34.7 16.55z" transform="translate(0 -85.33)"/><path class="cls-4" d="M288 384c-62.08 0-155.4-53.14-173.79-71.54a10.66 10.66 0 0 0-15.08 0c-12.29 12.28-47.19 30.13-72.31 41.89 6.46-25.08 15.85-65.46 15.85-87.68s-9.4-62.6-15.85-87.68c25.12 11.76 60 29.61 72.31 41.89a10.66 10.66 0 0 0 15.08 0c18.4-18.4 111.71-71.54 173.79-71.54 83.21 0 156.13 42.68 201 117.33C444.13 341.33 371.21 384 288 384z" transform="translate(0 -85.33)"/><path class="cls-5" d="M288 361.34c-62.08 0-155.4-42.88-173.79-57.73a12.54 12.54 0 0 0-15.08 0c-11.57 9.33-43.07 22.59-67.7 32-1.59 6.72-3.18 13.13-4.61 18.7 25.12-11.76 60-29.61 72.31-41.89a10.66 10.66 0 0 1 15.08 0C132.61 330.86 225.92 384 288 384c83.21 0 156.13-42.68 201-117.33-44.87 60.24-117.79 94.67-201 94.67z" transform="translate(0 -85.33)"/><path class="cls-6" d="M288 149.34c-62.08 0-155.4 53.14-173.79 71.54a10.66 10.66 0 0 1-15.08 0C86.83 208.6 51.94 190.75 26.82 179c1.44 5.58 3 12 4.61 18.7 24.63 9.44 56.13 22.7 67.7 32a12.54 12.54 0 0 0 15.08 0C132.61 214.88 225.92 172 288 172c83.21 0 156.13 34.43 201 94.67C444.13 192 371.21 149.34 288 149.34z" transform="translate(0 -85.33)"/><circle class="cls-1" cx="405.33" cy="170.67" r="21.33"/><path class="cls-1" d="M309.33 288c0-28.28 19.35-57.8 19.54-58.09a10.66 10.66 0 0 0-17.75-11.82C310.19 219.5 288 253.16 288 288s22.19 68.5 23.13 69.92a10.67 10.67 0 0 0 17.75-11.83c-.19-.3-19.55-29.65-19.55-58.09z" transform="translate(0 -85.33)"/><path class="cls-7" d="M510.61 261.38C462.94 178 383.53 129.82 292.37 128.3 257 96.44 186 85.89 182.84 85.45a10.55 10.55 0 0 0-9.84 3.87 10.67 10.67 0 0 0-1.69 10.41c6 16.13 13.94 40.37 16.54 53.57-34.31 14.77-64.93 33-81.27 45.95-28.15-21.67-88.9-47.83-91.73-49A10.67 10.67 0 0 0 .42 162.94c.21.74 20.92 73.6 20.92 103.74S.63 369.67.42 370.41a10.67 10.67 0 0 0 14.46 12.73c2.83-1.21 63.58-27.37 91.73-49a259.2 259.2 0 0 0 26.12 17.7c-2.69 5-4.72 11.85-4.72 21.54 0 25.92 24.17 53.33 47 53.33 28 0 40.32-6.49 55.62-31 19.92 5.9 39.67 9.7 57.38 9.7 93 0 174.17-48.61 222.6-133.37a10.76 10.76 0 0 0 0-10.66z" transform="translate(0 -85.33)"/></svg>