<svg id="Layer_1" data-name="Layer 1" xmlns="http://www.w3.org/2000/svg" viewBox="0 0 512 357.43"><defs><style>.cls-1{fill:#fe0b37}.cls-2{fill:#ffb657}.cls-3{fill:#fec377}.cls-4{fill:#fedaaa}.cls-5{fill:#ff5023}.cls-6{fill:#e0e0e2}</style></defs><title>meat</title><path class="cls-1" d="M112.11 157.11l-.17 60.82q0-1.24-.07-2.48-.11-1.86-.11-3.69l.17-60.82q0 1.84.11 3.69.08 1.24.07 2.48z" transform="translate(0 -77.29)"/><path class="cls-2" d="M509.32 218.63c-7.73-30.42-36.93-63.54-85-91.28C333.29 74.78 209 61.48 146.79 97.65c-24.87 14.45-36.07 34.62-34.74 57 1.17 19.69-12.26 38.68-37.21 52C27.69 231.89.07 262.32.18 291.15v-.29L0 351.68a46.86 46.86 0 0 0 8.35 26.46c6.5 9.76 16.46 18.37 29.21 25.73C94.84 436.95 208.67 445 320.5 420.23c85.21-18.9 149.14-52.44 176.58-88a56.44 56.44 0 0 0 12.1-21.88 49.55 49.55 0 0 0 2.65-15.57L512 234v1a44.52 44.52 0 0 0-2.68-16.37z" transform="translate(0 -77.29)"/><path class="cls-2" d="M509.35 249.53a56.45 56.45 0 0 1-12.1 21.88l-.17 60.82a56.44 56.44 0 0 0 12.1-21.88 49.55 49.55 0 0 0 2.65-15.57L512 234a49.55 49.55 0 0 1-2.65 15.53z" transform="translate(0 -77.29)"/><path class="cls-3" d="M0 351.68l.17-60.82a46.86 46.86 0 0 0 8.35 26.46C15 327.08 25 335.69 37.73 343.06c57.27 33.07 171.12 41.15 282.94 16.35 85.21-18.9 149.14-52.44 176.58-88l-.17 60.82c-27.44 35.55-91.37 69.09-176.58 88C208.67 445 94.84 436.95 37.56 403.87c-12.76-7.36-22.72-16-29.21-25.73A46.87 46.87 0 0 1 0 351.68z" transform="translate(0 -77.29)"/><path class="cls-4" d="M424.36 127.35c48 27.73 77.23 60.86 85 91.28 3.62 10 3.51 20.45 0 30.9a56.45 56.45 0 0 1-12.1 21.88c-27.44 35.55-91.37 69.09-176.58 88C208.85 384.21 95 376.13 37.73 343.05 25 335.69 15 327.08 8.52 317.32c-23.71-35.61 4.54-77.6 66.32-110.66 24.94-13.35 38.37-32.34 37.21-52-1.33-22.36 9.87-42.53 34.74-57C209 61.48 333.3 74.78 424.36 127.35z" transform="translate(0 -77.29)"/><path class="cls-5" d="M190.54 355.24c-60 0-112.29-10.33-143.48-28.34C36.55 320.83 28.81 314.13 24 307c-5-7.52-6.37-14.89-4.3-23.17 4.89-19.47 28.17-41.59 63.89-60.71 31.51-16.86 48.65-42.22 47-69.58-.95-16 7.63-29.36 25.5-39.75 20.08-11.67 48.91-17.84 83.37-17.84 58.31 0 123.91 17.78 175.51 47.57 41.67 24.06 69.45 53.12 76.21 79.72l.22.88.31.85c2.13 5.92 2.09 12-.12 18.68l-.14.41-.12.41a38.07 38.07 0 0 1-8.2 14.68l-.38.43-.35.45c-12 15.59-32.87 31.14-60.27 45-29.47 14.89-66 27.4-105.58 36.19a591.66 591.66 0 0 1-126.01 14.02z" transform="translate(0 -77.29)"/><path class="cls-3" d="M262 142.48v27.63c-2.44.88-5 1.65-7.56 2.32a27.84 27.84 0 0 0-2.68-1.74c-13.52-7.81-35.4-7.81-48.85 0-.88.51-1.69 1-2.46 1.58-2.58-.68-5.1-1.46-7.54-2.35l.08-27.65a11.21 11.21 0 0 1 .22-2.23c.84-4.32 4.11-8.5 9.81-11.82 13.45-7.82 35.32-7.82 48.85 0 5.79 3.35 9.12 7.57 10 11.94a11.75 11.75 0 0 1 .13 2.32z" transform="translate(0 -77.29)"/><path class="cls-6" d="M271.54 118.15c24.48 14.13 24.61 37 .29 51.18s-63.88 14.13-88.36 0-24.61-37-.29-51.18 63.89-14.15 88.36 0zm-67.28 39.1c12.92 7.46 33.81 7.46 46.64 0s12.77-19.56-.15-27-33.8-7.46-46.64 0-12.76 19.56.15 27" transform="translate(0 -77.29)"/><path class="cls-4" d="M271.54 118.15c24.48 14.13 24.61 37 .29 51.18s-63.88 14.13-88.36 0-24.61-37-.29-51.18 63.89-14.15 88.36 0zm-67.28 39.1c12.92 7.46 33.81 7.46 46.64 0s12.77-19.56-.15-27-33.8-7.46-46.64 0-12.76 19.56.15 27" transform="translate(0 -77.29)"/></svg>