<svg id="Layer_1" data-name="Layer 1" xmlns="http://www.w3.org/2000/svg" viewBox="0 0 298.65 511.99"><defs><style>.cls-1{fill:#a0d468}.cls-2{fill:#8cc153}.cls-3{fill:#f6bb42}.cls-4{fill:#ffce54}.cls-5{opacity:.2}.cls-6{fill:#fff}</style></defs><title>onion</title><path class="cls-1" d="M298.67 21.34A10.66 10.66 0 0 0 288 32v222.67h21.33V32a10.65 10.65 0 0 0-10.66-10.66zm-85.35 64A10.65 10.65 0 0 0 202.67 96v222.67H224V96a10.66 10.66 0 0 0-10.68-10.66z" transform="translate(-106.67)"/><path class="cls-2" d="M154.65 338.76H208V99.56L154.65 64v274.76zM144 381.42H90.66V142.23L144 106.67v274.75z"/><path class="cls-3" d="M330.67 245.34A10.67 10.67 0 1 1 320 234.67a10.66 10.66 0 0 1 10.67 10.67zm-128 0A10.67 10.67 0 1 1 192 234.67a10.66 10.66 0 0 1 10.67 10.67z" transform="translate(-106.67)"/><path class="cls-1" d="M176 274.75h-53.35V35.56L176 0v274.75z"/><path class="cls-3" d="M288 501.33a10.66 10.66 0 1 1-10.67-10.67A10.66 10.66 0 0 1 288 501.33z" transform="translate(-106.67)"/><path class="cls-3" d="M266.67 501.33A10.67 10.67 0 1 1 256 490.66a10.66 10.66 0 0 1 10.67 10.67z" transform="translate(-106.67)"/><path class="cls-3" d="M245.32 501.33a10.66 10.66 0 1 1-10.66-10.67 10.65 10.65 0 0 1 10.66 10.67z" transform="translate(-106.67)"/><path class="cls-4" d="M405.32 362.67c0 76.58-66.86 138.67-149.32 138.67s-149.33-62.1-149.33-138.67C106.67 241.34 256 224 256 224s149.32 17.34 149.32 138.67z" transform="translate(-106.67)"/><g class="cls-5"><path class="cls-6" d="M256 224s-4 .47-10.67 1.77c34.16 6.68 138.67 35.4 138.67 136.9 0 73.24-61.18 133.23-138.68 138.33 3.53.23 7.08.36 10.67.36 82.47 0 149.32-62.09 149.32-138.67C405.32 241.34 256 224 256 224z" transform="translate(-106.67)"/></g></svg>