<svg id="Capa_1" data-name="Capa 1" xmlns="http://www.w3.org/2000/svg" viewBox="0 0 512 512"><defs><style>.cls-1{fill:#10bb67}.cls-2{fill:#bf6015}.cls-3{fill:#994c10}.cls-4{fill:#fe9923}.cls-5{fill:#fe8821}.cls-6{fill:#fea832}.cls-7{fill:#fedb41}.cls-8{fill:#fcbf29}</style></defs><title>orange</title><path class="cls-1" d="M226 150h-30a15 15 0 0 1-15-15C181 60.56 242.56 0 317 0h30a15 15 0 0 1 15 15c0 74.44-61.56 135-136 135z"/><path class="cls-2" d="M211 135a15 15 0 0 1-30 0 75 75 0 0 0-75-75 15 15 0 0 1 0-30 104.73 104.73 0 0 1 90 51.3 102.56 102.56 0 0 1 15 53.7z"/><path class="cls-3" d="M211 135a14.85 14.85 0 0 1-15 15V81.3a102.56 102.56 0 0 1 15 53.7z"/><path class="cls-4" d="M392 317a195.27 195.27 0 0 1-57 138 197.65 197.65 0 0 1-139 57C88.3 512 0 424.7 0 317c0-54 22.9-104.6 58-140a195.27 195.27 0 0 1 138-57 197.65 197.65 0 0 1 139 57c35.1 35.4 57 86 57 140z"/><path class="cls-5" d="M392 317a195.27 195.27 0 0 1-57 138 197.65 197.65 0 0 1-139 57V120a197.65 197.65 0 0 1 139 57c35.1 35.4 57 86 57 140z"/><circle class="cls-6" cx="166" cy="227" r="15"/><circle class="cls-6" cx="106" cy="287" r="15"/><circle class="cls-6" cx="106" cy="377" r="15"/><path class="cls-4" d="M241 287c0 8.28 7.72 15 16 15a15 15 0 0 0 0-30c-8.28 0-16 6.72-16 15z"/><path class="cls-6" d="M497 332H196a14.85 14.85 0 0 0-15 15c0 90.9 75.1 165 166 165s165-74.1 165-165a14.85 14.85 0 0 0-15-15z"/><path class="cls-4" d="M512 347c0 90.9-74.1 165-165 165V332h150a14.85 14.85 0 0 1 15 15z"/><path class="cls-7" d="M211.9 362c7.5 67.5 65.8 120 135.1 120s126.6-52.5 134.1-120z"/><path class="cls-8" d="M481.1 362c-7.5 67.5-64.8 120-134.1 120V362z"/><path class="cls-6" d="M464 463.4c-5.7 5.7-15.3 5.4-21-.3L362 383v114a15 15 0 0 1-30 0V383.3l-80.1 81a16.37 16.37 0 0 1-22.3-.3c-5.7-5.7-5.4-15.3.3-21L335 336.2c2.7-2.7 7.8-3.9 12-4.2 3.9 0 9.3 1.8 12 4.5l105.3 105.6a15.12 15.12 0 0 1-.3 21.3z"/><path class="cls-4" d="M464 463.4c-5.7 5.7-15.3 5.4-21-.3L362 383v114a14.85 14.85 0 0 1-15 15V332c3.9 0 9.3 1.8 12 4.5l105.3 105.6a15.12 15.12 0 0 1-.3 21.3z"/></svg>