<svg id="Layer_1" data-name="Layer 1" xmlns="http://www.w3.org/2000/svg" viewBox="0 0 325.34 512"><defs><style>.cls-1{fill:#9ad14b}.cls-2{fill:#e54728}.cls-3{fill:#f95428}</style></defs><title>pepper</title><path class="cls-1" d="M357.53 61.4v4.06a21.27 21.27 0 0 1-42.54 0V62c0-9.82-7.28-18.41-17.05-19.33a18.87 18.87 0 0 0-20.66 18.73v106.91h-42.55V62.56C234.73 29 261.13.81 294.65 0a61.47 61.47 0 0 1 62.88 61.4z" transform="translate(-93.33)"/><path class="cls-2" d="M414.92 230.8s-.27 19.31-2.67 47.67C406 352.21 388.32 487.14 342 503.18c-17 5.87-33.31 4.55-48.13-.58l-.1-.18c14.92-8.22-11.05-162.33-4-181.08z" transform="translate(-93.33)"/><path class="cls-3" d="M277.28 152.43h83.35c40.45 0 68.45 40.35 54.35 78.23v.15L328.22 462c-7 18.76-19.55 32.23-34.47 40.45a77.85 77.85 0 0 1-29.67 9.18c-15.69 1.59-32.74-15.55-46.75-23.26-14.92-8.22-26.52-7.61-33.55-26.37L103 244c7.56 10.72 7.42-7.35 7.4-7.4-14.11-37.87 82.27-84.16 82.27-84.16h84.62z" transform="translate(-93.33)"/><path class="cls-2" d="M253.31 503.18C189.14 481 179.92 230.8 179.92 230.8l.4-.15c-14.1-37.87 13.91-78.22 54.35-78.22h-83.3c-40.44 0-68.45 40.35-54.35 78.23 0 0 .13 14.36 1.8 36.32 5.33 70.14 22.32 219.29 71.2 236.21 17 5.87 33.31 4.55 48.13-.58l.11-.18a79.23 79.23 0 0 0 66.92 4 69.4 69.4 0 0 1-31.87-3.25z" transform="translate(-93.33)"/></svg>