<svg id="Capa_1" data-name="Capa 1" xmlns="http://www.w3.org/2000/svg" viewBox="0 0 512 303.52"><defs><style>.cls-1{fill:#b78855}.cls-2{fill:#a3764a}.cls-3{fill:#e0b377}.cls-4{fill:#cc9a5e}</style></defs><title>potato</title><path class="cls-1" d="M239.08 328.86a9.6 9.6 0 0 1-2.43-3.07c-8.9-18.08 36.26-59.51 111-96.34 16.79-8.27 33.22-18.53 48.72-24.49-23.89-58.7-86.82-100.72-152.73-100.72C159.89 104.24 0 172.19 0 256c0 130.71 159.89 151.76 243.7 151.76a164.48 164.48 0 0 0 64.17-13.32c-31.14-13.44-50.46-36.31-68.79-65.58z" transform="translate(0 -104.24)"/><path class="cls-2" d="M19.35 256c0-61.16 79.73-114.41 158.78-142C95.93 135.68 0 191.08 0 256c0 79.2 58.7 118.14 123.61 136.53C66.17 370.07 19.35 329.09 19.35 256z" transform="translate(0 -104.24)"/><path class="cls-1" d="M500.26 191.86l-269.42 137c41.4 66.11 129.91 99.71 200.29 65 71.55-35.2 98.59-128.28 69.13-202z" transform="translate(0 -104.24)"/><path class="cls-2" d="M451.84 380.18c-69.52 34.24-156.72 1.88-198.74-62.63l-22.25 11.32c41.4 66.11 129.91 99.71 200.29 65a133.28 133.28 0 0 0 24.79-15.83c-1.35.75-2.71 1.46-4.09 2.14z" transform="translate(0 -104.24)"/><ellipse class="cls-3" cx="363.85" cy="259.12" rx="150.96" ry="36.5" transform="rotate(-26.22 140.12 207.026)"/><path class="cls-4" d="M248.43 325.8c-8.91-18.08 44.5-62.6 119.29-99.43 46.84-23.07 91-37.66 119.58-40.89-24.29-4.22-79.71 11.4-139.59 40.89-74.79 36.84-128.19 81.36-119.29 99.43 3.33 6.76 14.89 8.86 32 6.93-6.09-1.05-10.21-3.33-11.99-6.93zm-110.05-72.94a7.73 7.73 0 0 1-7.73-7.73v-7.69a7.73 7.73 0 0 1 15.45 0v7.69a7.73 7.73 0 0 1-7.72 7.73zm77.13 0a7.73 7.73 0 0 1-7.73-7.73v-7.69a7.73 7.73 0 0 1 15.45 0v7.69a7.73 7.73 0 0 1-7.72 7.73zm36.03-74.73a7.73 7.73 0 0 1-7.73-7.73v-7.69a7.73 7.73 0 1 1 15.45 0v7.69a7.73 7.73 0 0 1-7.72 7.73zM68.46 252.86a7.73 7.73 0 0 1-7.73-7.73v-7.69a7.73 7.73 0 1 1 15.45 0v7.69a7.73 7.73 0 0 1-7.72 7.73zm33.88 84.33a7.73 7.73 0 0 1-7.73-7.73v-7.69a7.73 7.73 0 0 1 15.45 0v7.69a7.73 7.73 0 0 1-7.72 7.73zm72.08 0a7.73 7.73 0 0 1-7.73-7.73v-7.69a7.73 7.73 0 0 1 15.45 0v7.69a7.73 7.73 0 0 1-7.72 7.73zm0-159.06a7.73 7.73 0 0 1-7.73-7.73v-7.69a7.73 7.73 0 0 1 15.45 0v7.69a7.73 7.73 0 0 1-7.72 7.73z" transform="translate(0 -104.24)"/><path class="cls-3" d="M416.54 347.6l7.36-3.21a7.73 7.73 0 1 1 6.17 14.17l-7.36 3.21c-9.49 4.13-15.42-10.14-6.17-14.17zm-75.29 9.99a7.73 7.73 0 0 1 4-10.16l7.06-3a7.73 7.73 0 1 1 6.13 14.19l-7.06 3a7.73 7.73 0 0 1-10.13-4.03z" transform="translate(0 -104.24)"/></svg>