<svg id="Layer_1" data-name="Layer 1" xmlns="http://www.w3.org/2000/svg" viewBox="0 0 299.84 300"><defs><style>.cls-1{fill:none}.cls-2{clip-path:url(#clip-path)}.cls-3{fill:#66c6b9}.cls-4{fill:#fff}.cls-5{fill:#415a6b}.cls-6{fill:#f3705a}.cls-7{fill:#ffd15c}</style><clipPath id="clip-path" transform="translate(-10.08 -6)"><path class="cls-1" d="M10 6h300v300H10z"/></clipPath></defs><title>balloons</title><g class="cls-2"><path class="cls-3" d="M235 185.28c32.48-32.48 75-51.22 75-91.2 0-21.86-17.49-40-39.36-40A39.74 39.74 0 0 0 235 76.59a39.74 39.74 0 0 0-35.65-22.49c-21.86 0-39.35 18.12-39.35 40 0 40.58 44.35 59.32 75 91.18z" transform="translate(-10.08 -6)"/><path class="cls-3" d="M249.33 190.9c-8.12 8.12-20 8.12-28.11 0 3.12-3.75 8.78-6.9 8.78-11.9h10c0 5 6.2 7.53 9.33 11.9z" transform="translate(-10.08 -6)"/><path class="cls-4" d="M290.56 77.84c4.37 5 6.25 11.24 3.75 13.12s-8.12 0-12.49-5.62c-4.37-5-6.25-11.24-3.75-13.12 1.87-1.88 7.49.62 12.49 5.62z" transform="translate(-10.08 -6)"/><path class="cls-5" d="M241.21 182.78h-11.87a1.87 1.87 0 0 1 0-3.75h11.87a1.66 1.66 0 0 1 1.87 1.87 2 2 0 0 1-1.87 1.88z" transform="translate(-10.08 -6)"/><path class="cls-5" d="M223.72 195.9c-.62 0-1.87-.62-1.87-1.25a3.25 3.25 0 0 1 1.25-2.5c1.87-.62 3.12-1.25 3.12-4.37.62-4.37 5-7.5 5.62-8.12a1.82 1.82 0 0 1 1.87 3.12c-1.25.63-3.75 3.12-3.75 5.62.04 4.38-1.87 6.25-6.24 7.5zM245 222.14c-10.62-18.11-6.25-41.23-6.25-41.23v-.62H235c-.62 1.87-4.37 24.36 6.87 43.73 10 18.12-5 50.6-5 51.22-.62 1.25 0 1.87.63 2.5h.63c.63 0 1.25-.62 1.87-1.25.58-1.26 16.2-34.36 5-54.35z" transform="translate(-10.08 -6)"/><path class="cls-6" d="M88.79 143.43c34.36-34.36 78.71-53.72 78.71-95.58C167.5 24.74 148.76 6 126.27 6a39.9 39.9 0 0 0-36.86 23.74C81.92 15.37 67.55 6 51.31 6 28.82 6 10.08 24.74 10.08 47.85c0 42.48 46.85 61.85 78.71 95.58z" transform="translate(-10.08 -6)"/><path class="cls-6" d="M103.15 149.05c-8.75 8.12-20.61 8.12-29.36 0 3.12-4.37 9.37-6.87 9.37-12.49h10.62c0 4.99 6.22 8.12 9.37 12.49z" transform="translate(-10.08 -6)"/><path class="cls-4" d="M146.88 30.36c5 5.62 6.25 11.87 3.75 13.74-2.5 2.5-8.74 0-13.12-5.62-5-5.62-6.25-11.87-3.75-13.74 2.5-2.5 8.12 0 13.12 5.62z" transform="translate(-10.08 -6)"/><path class="cls-5" d="M95 140.3H82.54a1.87 1.87 0 1 1 0-3.75H95a1.66 1.66 0 0 1 1.87 1.87c.66.64-.59 1.88-1.87 1.88z" transform="translate(-10.08 -6)"/><path class="cls-5" d="M76.92 154c-.62 0-1.87-.62-1.87-1.25a3.24 3.24 0 0 1 1.25-2.5c1.87-.62 3.12-1.25 3.75-4.37.62-4.37 5-8.12 5.62-8.75a1.82 1.82 0 0 1 1.87 3.12 10.47 10.47 0 0 0-4.37 5.62c-.01 5.05-1.88 6.93-6.25 8.13zm21.86 27.53c-10.62-19.37-6.87-43.1-6.25-43.1v-.62h-3.74c-.62 1.87-4.37 25.61 6.87 45.6 10.62 18.74-5 53.1-5.62 53.72-.62 1.25 0 2.5 1.25 2.5h.62c.62 0 1.25-.62 1.87-1.25s16.87-36.23 5-56.85z" transform="translate(-10.08 -6)"/><path class="cls-7" d="M160 237.75c31.23-30.61 71.21-48.72 71.21-86.21a37.59 37.59 0 0 0-37.48-37.48c-15 0-27.49 8.75-33.73 21.24-6.25-12.49-18.74-21.24-33.73-21.24a37.59 37.59 0 0 0-37.48 37.48c0 38.11 42.47 55.61 71.21 86.21z" transform="translate(-10.08 -6)"/><path class="cls-7" d="M173.12 242.13a18.12 18.12 0 0 1-26.24 0c3.12-3.75 8.75-6.25 8.75-11.24H165c0 4.99 5.62 7.49 8.12 11.24z" transform="translate(-10.08 -6)"/><path class="cls-4" d="M212.47 135.31c4.37 5 5.62 10.62 3.75 12.49s-7.5 0-11.87-5-5.62-10.62-3.75-12.49 7.5 0 11.87 5z" transform="translate(-10.08 -6)"/><path class="cls-5" d="M166.25 234.63H155a1.87 1.87 0 0 1 0-3.75h11.24a1.66 1.66 0 0 1 1.87 1.87q-.93 1.88-1.86 1.88z" transform="translate(-10.08 -6)"/><path class="cls-5" d="M149.38 247.12c-.62 0-1.87-.62-1.87-1.25a3.25 3.25 0 0 1 1.25-2.5c1.88-.62 3.12-1.25 3.12-3.75.63-4.37 5-7.5 5-7.5a1.82 1.82 0 0 1 1.87 3.12c-1.25.63-3.75 3.12-3.75 5 0 3.76-1.87 6.26-5.62 6.88zm18.12 57.48c0 1.87 3.75 1.87 3.75 0 2.5-10.62 3.75-23.11-1.87-32.48-10-17.49-5.62-38.73-5.62-38.73v-.62H160c-.62 1.87-3.75 23.11 6.25 41.23 4.99 8.73 3.75 20.6 1.25 30.6z" transform="translate(-10.08 -6)"/></g></svg>