<svg id="Capa_1" data-name="Capa 1" xmlns="http://www.w3.org/2000/svg" viewBox="0 0 446.84 420.56"><defs><style>.cls-1{fill:#fff}</style></defs><title>basket</title><path class="cls-1" d="M444.09 93.1a14.34 14.34 0 0 0-11.58-5.89H155.32a14.34 14.34 0 1 0 0 28.67h257.54l-10.34 32.26H186.78a14.34 14.34 0 0 0 0 28.67h206.55l-11.87 37H203.51a14.34 14.34 0 0 0 0 28.68h168.76l-10 31.06H172.69L94.79 49.06a14.35 14.35 0 0 0-8.3-8.65l-66.9-26.28A14.34 14.34 0 0 0 9.1 40.83L69.86 64.7l74.38 214.4a11.88 11.88 0 0 0-7.33 7.19L115.41 346a11.95 11.95 0 0 0 11.24 16h11a43 43 0 1 0 63.94 0h93.81a43 43 0 1 0 63.93 0h13.43a11.95 11.95 0 0 0 0-23.89H143.65l13.32-37a14.2 14.2 0 0 0 5.52 1.15h210.28a14.33 14.33 0 0 0 13.65-10l59.74-186.39a14.33 14.33 0 0 0-2.07-12.77zM169.66 409.81a19.12 19.12 0 1 1 19.12-19.12 19.13 19.13 0 0 1-19.12 19.12zm157.71 0a19.12 19.12 0 1 1 19.12-19.12 19.14 19.14 0 0 1-19.12 19.12z" transform="translate(0 -13.14)"/></svg>