<svg id="Layer_1" data-name="Layer 1" xmlns="http://www.w3.org/2000/svg" viewBox="0 0 512 512"><defs><style>.cls-1{fill:#016a74}.cls-2{fill:#ebae56}.cls-3{fill:#fbc56d}.cls-4{fill:#dca050}.cls-5{fill:#ce9047}.cls-6{fill:#d73131}.cls-7{fill:#e84444}.cls-8{fill:#fd7d43}.cls-9{fill:#fc6930}</style></defs><title>features-img3</title><path class="cls-1" d="M60.29 141.68a19.12 19.12 0 0 1-15.83-29.88 256 256 0 0 1 448.95 240.11 36.46 36.46 0 0 1-33.77 22.85H338.25c0-128.73-104.36-233.09-233.09-233.09z"/><path class="cls-2" d="M370 120v365.26A254.91 254.91 0 0 1 256 512C116.32 512 2.79 400.13.07 261.11A9.5 9.5 0 0 1 0 260V120a10 10 0 0 1 10-10h350c.34 0 .69 0 1 .05a10 10 0 0 1 6.69 3.59 9.2 9.2 0 0 1 .58.77 9.92 9.92 0 0 1 1.5 3.57A10.08 10.08 0 0 1 370 120z"/><path class="cls-3" d="M369.8 118a9.92 9.92 0 0 0-1.5-3.57 9.2 9.2 0 0 0-.58-.77 10 10 0 0 0-6.69-3.59c-.34 0-.68-.05-1-.05H20V260a9.5 9.5 0 0 0 .07 1.11c2.66 135.67 110.85 245.46 245.88 250.68A254.66 254.66 0 0 0 370 485.26V120a10.08 10.08 0 0 0-.2-2zM185 380a85 85 0 1 1 85-85 85 85 0 0 1-85 85z"/><path class="cls-4" d="M255 55v110a5 5 0 0 1-5 5h-20a5 5 0 0 1-5-5V65a5 5 0 0 0-5-5h-80a5 5 0 0 0-5 5v100a5 5 0 0 1-5 5h-20a5 5 0 0 1-5-5V55a25 25 0 0 1 25-25h100a25 25 0 0 1 25 25z"/><path class="cls-5" d="M125 170h-15a5 5 0 0 1-5-5V55a25 25 0 0 1 25-25h15a25 25 0 0 0-25 25v110a5 5 0 0 0 5 5z"/><path class="cls-6" d="M205.38 350h288.81C456.71 444.88 364.2 512 256 512a255.36 255.36 0 0 1-91.5-16.86V370.86h.3A49.88 49.88 0 0 1 205.38 350z"/><path class="cls-7" d="M204.78 350h289.41C456.71 444.88 364.2 512 256 512a256.29 256.29 0 0 1-66.44-8.73V370.86h.3z"/><path class="cls-8" d="M495.09 347.64l-19.57-27.37a230.88 230.88 0 0 1-39.92-96.32 4.73 4.73 0 0 0-4.66-3.95H245.57a4.73 4.73 0 0 0-4.66 3.95A230.83 230.83 0 0 1 201 320.27l-36.48 51h320.1a254.65 254.65 0 0 0 10.47-23.63zm-89.47-80.36a18.91 18.91 0 0 1-18.91 18.91h-96.92a18.91 18.91 0 0 1 0-37.82h96.92a18.91 18.91 0 0 1 18.91 18.91z"/><path class="cls-9" d="M475.52 320.27l-92.34 36.21a3 3 0 0 1-1.07.2 3 3 0 0 1-1.66-5.38l80.17-54.87a231.06 231.06 0 0 0 14.9 23.84zm-181.21 31L233.59 309A230.81 230.81 0 0 0 266 223.95a4.72 4.72 0 0 1 4.66-3.95h-25.09a4.72 4.72 0 0 0-4.66 3.95A230.83 230.83 0 0 1 201 320.27l-36.48 51h25.06l30.82-43.11 71 28.28a2.89 2.89 0 0 0 1.09.21h.13a3 3 0 0 0 1.69-5.34z"/></svg>