<svg id="Layer_1" data-name="Layer 1" xmlns="http://www.w3.org/2000/svg" viewBox="0 0 512 512"><defs><style>.cls-1{fill:#75ccd4}.cls-2{fill:#a7dde2}.cls-3{fill:#738c96}.cls-4{fill:#607882}.cls-5{fill:#87a0af}.cls-6{fill:#495959}.cls-7{fill:#a62b2b}.cls-8{fill:#fbc56d}.cls-9{fill:#e84444}.cls-10{fill:#fc9368}.cls-11{fill:#d73131}.cls-12{fill:#fc9302}.cls-13{fill:#fda800}.cls-14{fill:#ffdf8e}.cls-15{fill:#ee4424}.cls-16{fill:#d63d24}</style></defs><title>features-img2</title><path class="cls-1" d="M512 256c0 141.39-114.61 256-256 256S0 397.39 0 256 114.61 0 256 0s256 114.61 256 256z"/><path class="cls-2" d="M263.57 150H165a15 15 0 0 1 0-30h98.57a15 15 0 0 1 0 30zM305 170h-98.57a15 15 0 0 0 0 30H305a15 15 0 0 0 0-30zm205.7 60H465a15 15 0 0 0 0 30h46.95c0-1.33.05-2.66.05-4a259.92 259.92 0 0 0-1.3-26zM393.57 80H360a7.5 7.5 0 0 1 0-15h66.43a256.7 256.7 0 0 0-41.18-30h-61.68a15 15 0 0 0 0 30H330a7.5 7.5 0 0 1 0 15h-35a15 15 0 0 0 0 30h98.57a15 15 0 0 0 0-30zM200 35a15 15 0 0 0-15-15h-28.36A255.63 255.63 0 0 0 104 50h81a15 15 0 0 0 15-15zm261.43 150a15 15 0 0 0 15 15h29.41a254.09 254.09 0 0 0-21.57-60h-57.42a15.28 15.28 0 0 0-15.41 14.27 15 15 0 0 0 15 15.73h20a15 15 0 0 1 14.99 15z"/><path class="cls-3" d="M503.93 320C475.52 430.41 375.29 512 256 512S36.48 430.41 8.07 320z"/><path class="cls-4" d="M5.73 310h500.54a254.24 254.24 0 0 1-8.39 30H14.12a254.24 254.24 0 0 1-8.39-30z"/><path class="cls-5" d="M44.32 400H260v30H68.25a256.8 256.8 0 0 1-23.93-30zM280 400v30h163.75a257.24 257.24 0 0 0 23.93-30z"/><path class="cls-6" d="M101.34 460h309.32a256 256 0 0 1-309.31 0z"/><path class="cls-7" d="M214.8 374.8a57.2 57.2 0 1 1-57.2-57.2 57.2 57.2 0 0 1 57.2 57.2z"/><path class="cls-8" d="M184.8 374.8a27.2 27.2 0 1 1-27.2-27.2 27.2 27.2 0 0 1 27.2 27.2z"/><path class="cls-9" d="M460 374.13v.06a5.87 5.87 0 0 1-5.9 5.81H67a6.55 6.55 0 0 1-6.58-6.48v-.07a97.13 97.13 0 0 1 45.4-82.25H50a30 30 0 0 1-30-30V200a20 20 0 0 1 20-20h30v60h175a5 5 0 0 1 5 5v26.2a20 20 0 0 1-20 20h-20.6a97.31 97.31 0 0 1 43.36 62.4H288a87.38 87.38 0 0 1 52-60.29V200a20 20 0 0 0-20-20h-30a10 10 0 0 1-10-10.66 10.23 10.23 0 0 1 10.34-9.34H340a59.86 59.86 0 0 1 44.71 20H405a15 15 0 0 1 0 30h-5.84a60.68 60.68 0 0 1 .84 10v31.26A40 40 0 0 1 430 290v18.31a87 87 0 0 1 30 65.82z"/><path class="cls-10" d="M388.33 195A16.67 16.67 0 1 1 405 211.66 16.67 16.67 0 0 1 388.33 195z"/><path class="cls-11" d="M80 291.2H50a30 30 0 0 1-30-30V200a20 20 0 0 1 20-20h30a20 20 0 0 0-20 20v61.2a30 30 0 0 0 30 30zm-19.6 82.25v.07A6.55 6.55 0 0 0 67 380h45.2a6.87 6.87 0 0 1-6.57-7.11v-.07c0-42.66 22.86-79.46 55.89-96.48-1.29-.05-2.59-.08-3.89-.08a97.2 97.2 0 0 0-97.23 97.19zM340 160h-49.66a10.23 10.23 0 0 0-10.34 9.34A10 10 0 0 0 290 180h30a20 20 0 0 1 20 20v93.31a86.79 86.79 0 0 1 20-5.45V180a20 20 0 0 0-20-20z"/><path class="cls-7" d="M300 251.6a13.2 13.2 0 0 1-13.2 13.2H200v-13.2a13.2 13.2 0 0 1 13.2-13.2h73.6a13.2 13.2 0 0 1 13.2 13.2zm72.8 66a57.2 57.2 0 1 0 57.2 57.2 57.2 57.2 0 0 0-57.2-57.2z"/><path class="cls-8" d="M400 374.8a27.2 27.2 0 1 1-27.2-27.2 27.2 27.2 0 0 1 27.2 27.2z"/><path class="cls-12" d="M224.8 264.8H60a10 10 0 0 1-10-10V90a10 10 0 0 1 10-10h164.8a10 10 0 0 1 10 10v164.8a10 10 0 0 1-10 10z"/><path class="cls-13" d="M224.8 264.8H80a10 10 0 0 1-10-10V90a10 10 0 0 1 10-10h144.8a10 10 0 0 1 10 10v164.8a10 10 0 0 1-10 10z"/><path class="cls-14" d="M200.92 175.48A58.52 58.52 0 1 1 142.4 117a58.52 58.52 0 0 1 58.52 58.48z"/><path class="cls-15" d="M204 227.52a6.48 6.48 0 0 1-6.48 6.48H87.29a6.48 6.48 0 0 1 0-13h3.24a51.88 51.88 0 0 1 43-51.11 9.73 9.73 0 1 1 17.71 0 51.88 51.88 0 0 1 43 51.11h3.24a6.48 6.48 0 0 1 6.52 6.52zm-83.48-58.36a4.86 4.86 0 1 0 0-9.72 7.29 7.29 0 0 1 0-14.59h34a17 17 0 0 0 0-34 4.86 4.86 0 0 0 0 9.73 7.29 7.29 0 0 1 0 14.59h-34a17 17 0 0 0 0 34z"/><path class="cls-16" d="M178 215.51a5 5 0 0 1-5 5.49h-72a6.66 6.66 0 0 0-6.75 6.29 6.49 6.49 0 0 0 6.48 6.68H87.28a6.49 6.49 0 0 1-6.48-6.68 6.66 6.66 0 0 1 6.75-6.29h3a51.88 51.88 0 0 1 43-51.11 9.72 9.72 0 0 1 15.6-11 9.69 9.69 0 0 0-3 7 5.16 5.16 0 0 1-3.8 5 52 52 0 0 0-32 25.13 10 10 0 0 0 8.79 14.98h53.65a5.15 5.15 0 0 1 5.21 4.51z"/></svg>