<svg id="Layer_1" data-name="Layer 1" xmlns="http://www.w3.org/2000/svg" viewBox="0 0 512 512"><defs><style>.cls-1{fill:#c92c2c}.cls-2{fill:#fbc56d}.cls-3{fill:#ebae56}.cls-4{fill:#49cb5c}.cls-5{fill:#0cc33c}.cls-6{fill:#73d37a}.cls-7{fill:#fff5f5}.cls-8{fill:#495959}.cls-9{fill:#fc6930}.cls-10{fill:#ee4424}</style></defs><title>features-img4</title><path class="cls-1" d="M70.5 425.41a6.34 6.34 0 0 1-7.72-1.48A255 255 0 0 1 0 256C0 114.62 114.61 0 256 0s256.49 115.52 256 256.91a255 255 0 0 1-66.14 170.82C392.1 398.57 326.64 381.44 256 381.44c-68.75 0-132.59 16.22-185.5 43.97z"/><path class="cls-2" d="M256 512a255.41 255.41 0 0 1-194.59-89.67 1990.63 1990.63 0 0 1 25.94-319.52h337.3a1990.6 1990.6 0 0 1 25.94 319.52A255.41 255.41 0 0 1 256 512z"/><path class="cls-3" d="M439.79 70v34.05a10 10 0 0 1-10 10H390.7a10.19 10.19 0 0 1 9.28 9.28A10 10 0 0 1 390 134H184.63a80 80 0 0 0-79.49 70.95 2184.43 2184.43 0 0 0-14.31 246.62 258 258 0 0 1-29.42-29.23 1990.79 1990.79 0 0 1 24.16-308.29h-3.36a10 10 0 0 1-10-10V70a10 10 0 0 1 10-10h347.58a10 10 0 0 1 10 10z"/><path class="cls-2" d="M429.79 114.05H100a10 10 0 0 1-10-10V70a10 10 0 0 1 10-10h329.79a10 10 0 0 1 10 10v34.05a10 10 0 0 1-10 10z"/><path class="cls-4" d="M455.3 217.06l-70-43.75a10 10 0 0 0-10.6 0l-70 43.75a10 10 0 0 0-4.7 8.48V430a10 10 0 0 0 10 10h140a10 10 0 0 0 10-10V225.54a10 10 0 0 0-4.7-8.48zM390 230h-20a10 10 0 0 1 0-20h20a10 10 0 0 1 0 20z"/><path class="cls-5" d="M330 440h-20a10 10 0 0 1-10-10V225.54a10 10 0 0 1 4.7-8.48l15.7-9.81a10 10 0 0 0-.4 2.75v220a10 10 0 0 0 10 10z"/><path class="cls-6" d="M445 335a65 65 0 1 1-65-65 65 65 0 0 1 65 65z"/><path class="cls-7" d="M427.5 305.18l-77.32 77.32a12.5 12.5 0 0 1-17.68-17.68l77.32-77.32a12.5 12.5 0 0 1 17.68 17.68zM345 317.5a17.5 17.5 0 1 0-17.5-17.5 17.5 17.5 0 0 0 17.5 17.5zm70 35a17.5 17.5 0 1 0 17.5 17.5 17.5 17.5 0 0 0-17.5-17.5z"/><path class="cls-8" d="M390 60v170h-20V60z"/><path class="cls-9" d="M301 125a45 45 0 1 1-45-45 45 45 0 0 1 45 45z"/><path class="cls-10" d="M300.1 134h-88.2a45.25 45.25 0 0 1 .46-20h87.28a45.25 45.25 0 0 1 .46 20z"/></svg>