<svg id="Capa_1" data-name="Capa 1" xmlns="http://www.w3.org/2000/svg" viewBox="0 0 60 59.02"><defs><style>.cls-1{fill:#52c306}.cls-2{fill:#388f04}.cls-3{fill:#efce4a}</style></defs><title>phone</title><path class="cls-1" d="M52.47 46.94c-1.9-3.59-8.9-7.69-8.9-7.69-1.58-.9-3.49-1-4.4.61A36.1 36.1 0 0 1 36.32 43c-2.64 1.79-5.09 1.72-7.56-.75L23 36.49l-5.74-5.74c-2.47-2.47-2.54-4.92-.75-7.56a36.11 36.11 0 0 1 3.12-2.85c1.61-.9 1.51-2.82.61-4.4 0 0-4.1-7-7.69-8.9a3.93 3.93 0 0 0-4.62.7L5.4 10.26c-8 8-4.08 17.13 4 25.17l7.35 7.35 7.35 7.35c8 8 17.13 12 25.17 4l2.54-2.54a3.94 3.94 0 0 0 .66-4.65z" transform="translate(0 -.49)"/><path class="cls-2" d="M39.65 59.51a14.3 14.3 0 0 1-3.22-.38c-4.13-1-8.53-3.74-13.07-8.28L8.66 36.14c-10-10-11.36-19.18-4-26.59L7.23 7A4.91 4.91 0 0 1 13 6.15c3.8 2 7.91 9 8.08 9.28a4.94 4.94 0 0 1 .65 3.73 3.33 3.33 0 0 1-1.55 2 33.15 33.15 0 0 0-2.87 2.59C15.75 26.11 15.94 28 18 30l11.47 11.52c2 2 3.92 2.23 6.3.63a33.89 33.89 0 0 0 2.59-2.87 3.32 3.32 0 0 1 2-1.55 4.92 4.92 0 0 1 3.72.65c.31.18 7.28 4.3 9.29 8.09a4.91 4.91 0 0 1-.87 5.8L50 54.81c-3.18 3.13-6.63 4.7-10.35 4.7zM10.72 7.57a2.92 2.92 0 0 0-2.07.86L6.11 11c-6.57 6.57-5.24 14.56 4 23.76l14.7 14.71C34 58.63 42 60 48.54 53.4l2.54-2.54a2.92 2.92 0 0 0 .52-3.45c-1.45-2.74-6.64-6.19-8.52-7.3a3.08 3.08 0 0 0-2.19-.45 1.35 1.35 0 0 0-.84.68l-.1.15a29.56 29.56 0 0 1-3.06 3.31c-3.15 2.13-6.12 1.84-8.83-.87L16.57 31.45c-2.71-2.71-3-5.68-.87-8.83a29.59 29.59 0 0 1 3.3-3.06l.15-.1a1.35 1.35 0 0 0 .68-.84 3.08 3.08 0 0 0-.46-2.2c0-.06-4-6.77-7.29-8.51a3 3 0 0 0-1.36-.34z" transform="translate(0 -.49)"/><path class="cls-2" d="M40 48.51h-.1a20.88 20.88 0 0 1-11.6-5.28 1 1 0 0 1 1.4-1.42 19.18 19.18 0 0 0 10.4 4.72 1 1 0 0 1-.1 2zm-22-16a1 1 0 0 1-.64-.23c-.23-.19-5.64-4.72-6.36-11.67a1 1 0 0 1 2-.21c.64 6.12 5.59 10.29 5.64 10.33a1 1 0 0 1-.64 1.78z" transform="translate(0 -.49)"/><path class="cls-3" d="M27.36.49a1 1 0 0 0 0 2A30.67 30.67 0 0 1 58 33.12a1 1 0 0 0 2 0A32.67 32.67 0 0 0 27.36.49z" transform="translate(0 -.49)"/><path class="cls-3" d="M27.36 7.52a1 1 0 0 0 0 2A23.63 23.63 0 0 1 51 33.12a1 1 0 0 0 2 0 25.63 25.63 0 0 0-25.64-25.6z" transform="translate(0 -.49)"/><path class="cls-3" d="M27.36 14.55a1 1 0 0 0 0 2 16.59 16.59 0 0 1 16.58 16.57 1 1 0 0 0 2 0 18.6 18.6 0 0 0-18.58-18.57z" transform="translate(0 -.49)"/></svg>