<svg viewBox="0 0 80 80" fill="none" xmlns="http://www.w3.org/2000/svg"><g clip-path="url(#clip0)"><path d="M80 40C80 62.0917 62.0917 80 40 80C17.9083 80 0 62.0917 0 40C0 17.9083 17.9083 0 40 0C62.0917 0 80 17.9083 80 40Z" fill="#FFCE00"/><path d="M80.0005 40C80.0005 36.1639 79.4591 32.4542 78.4514 28.9423L61.6106 12.1014L15.4424 67.9199L24.3779 76.8335C29.1777 78.8721 34.4573 80 40.0005 80C62.0922 80 80.0005 62.0917 80.0005 40Z" fill="#FFA300"/><path d="M15.4424 20.4688H42.2045V67.9199H15.4424V20.4688Z" fill="#2864F0"/><path d="M26.6367 20.4688H42.2037V67.9199H26.6367V20.4688Z" fill="#27488F"/><path d="M18.3027 24.7394H39.344V30.1562H18.3027V24.7394Z" fill="#87C7FF"/><path d="M18.3027 33.3856H39.344V38.8025H18.3027V33.3856Z" fill="#87C7FF"/><path d="M18.3027 42.0312H39.344V47.4481H18.3027V42.0312Z" fill="#87C7FF"/><path d="M18.3027 50.6769H39.344V56.0938H18.3027V50.6769Z" fill="#87C7FF"/><path d="M18.3027 59.3231H39.344V64.74H18.3027V59.3231Z" fill="#87C7FF"/><path d="M26.6367 24.7394H39.3436V30.1562H26.6367V24.7394Z" fill="#65B1FC"/><path d="M26.6367 33.3856H39.3436V38.8025H26.6367V33.3856Z" fill="#65B1FC"/><path d="M26.6367 42.0312H39.3436V47.4481H26.6367V42.0312Z" fill="#65B1FC"/><path d="M26.6367 50.6769H39.3436V56.0938H26.6367V50.6769Z" fill="#65B1FC"/><path d="M26.6367 59.3231H39.3436V64.74H26.6367V59.3231Z" fill="#65B1FC"/><path d="M34.8477 12.1014H61.6097V67.9199H34.8477V12.1014Z" fill="#fff"/><path d="M48.1211 12.1014H61.6099V67.9199H48.1211V12.1014Z" fill="#E9EDF5"/><path d="M37.708 16.0938H58.7499V21.5106H37.708V16.0938Z" fill="#87C7FF"/><path d="M37.708 24.7394H58.7499V30.1562H37.708V24.7394Z" fill="#87C7FF"/><path d="M37.708 33.3856H58.7499V38.8025H37.708V33.3856Z" fill="#87C7FF"/><path d="M37.708 42.0312H58.7499V47.4481H37.708V42.0312Z" fill="#87C7FF"/><path d="M42.2041 54.5691H54.2543V67.9199H42.2041V54.5691Z" fill="#87C7FF"/><path d="M48.1211 16.0938H58.7498V21.5106H48.1211V16.0938Z" fill="#65B1FC"/><path d="M48.1211 24.7394H58.7498V30.1562H48.1211V24.7394Z" fill="#65B1FC"/><path d="M48.1211 33.3856H58.7498V38.8025H48.1211V33.3856Z" fill="#65B1FC"/><path d="M48.1211 42.0312H58.7498V47.4481H48.1211V42.0312Z" fill="#65B1FC"/><path d="M48.1211 54.5691H54.2539V67.9199H48.1211V54.5691Z" fill="#65B1FC"/></g><defs><clipPath id="clip0"><path fill="#fff" d="M0 0H80V80H0z"/></clipPath></defs></svg>