<svg viewBox="0 0 150 151" fill="none" xmlns="http://www.w3.org/2000/svg"><g clip-path="url(#clip0)"><path d="M75 150.691C116.421 150.691 150 117.113 150 75.6914C150 34.27 116.421 0.691406 75 0.691406C33.5786 0.691406 0 34.27 0 75.6914C0 117.113 33.5786 150.691 75 150.691Z" fill="#8DD9FF"/><path d="M22.9913 61.1807H16.4062V74.5195H22.9913V61.1807Z" fill="#fff"/><path d="M141.504 65.9502H133.398V76.8633H141.504V65.9502Z" fill="#B2B9C9"/><path d="M135.938 87.4102H149.083C149.682 83.591 150 79.6787 150 75.6914C150 74.5125 149.965 73.3415 149.911 72.1758H135.938V87.4102Z" fill="#9FC3DD"/><path d="M0.0290039 74.8424C0.0249023 75.1269 0 75.4058 0 75.6914C0 79.6787 0.317871 83.591 0.917285 87.4102H14.3555V74.8424H0.0290039Z" fill="#B39191"/><path d="M21.0938 87.4102H35.1562L32.8125 61.6289L21.0938 66.3164V87.4102Z" fill="#B2B9C9"/><path d="M104.077 63.9727H90.4541V87.4102H104.077V63.9727Z" fill="#7FAAB8"/><path d="M42.1875 52.2539H32.8125V87.4102H42.1875V52.2539Z" fill="#EEE1C2"/><path d="M93.75 56.9414H84.375V87.4102H93.75V56.9414Z" fill="#EEE1C2"/><path d="M72.6562 51.0826H63.2812V87.4102H72.6562V51.0826Z" fill="#9FC3DD"/><path d="M121.143 66.3164H107.52V87.4102H121.143V66.3164Z" fill="#B2B9C9"/><path d="M135.938 69.832H122.314V87.4102H135.938V69.832Z" fill="#B39191"/><path d="M0.91748 87.4102C6.54424 123.264 37.5661 150.691 75.0002 150.691C112.434 150.691 143.456 123.264 149.083 87.4102H0.91748Z" fill="#43AB5F"/><path d="M138.538 115.535C143.817 107.134 147.481 97.6151 149.083 87.4102H0.91748C2.51914 97.6151 6.18359 107.134 11.462 115.535H138.538Z" fill="#71BE63"/><path d="M4.5749 101.473H145.425C147.076 96.9697 148.32 92.2711 149.083 87.4102H0.91748C1.68037 92.2711 2.92461 96.9697 4.5749 101.473Z" fill="#94D75B"/><path d="M1.83096 92.0977H148.17C148.517 90.5508 148.835 88.9925 149.083 87.4102H0.91748C1.16592 88.9925 1.4832 90.5508 1.83096 92.0977Z" fill="#B0EB81"/><path d="M109.582 142.241C96.6249 121.697 75 87.4102 75 87.4102L40.4186 142.241C50.7677 147.631 62.5237 150.691 75 150.691C87.4764 150.691 99.2326 147.631 109.582 142.241Z" fill="#674447"/><path d="M83.8692 101.473C78.6614 93.215 75.0002 87.4102 75.0002 87.4102L66.1312 101.473H83.8692Z" fill="#8C665B"/><path d="M84.375 87.4102V44.0508L72.6562 37.0195V87.4102" fill="#FDEFDB"/><path d="M51.5625 28.8164V87.4102H63.2812V34.9688V20.6133L51.5625 28.8164Z" fill="#fff"/><path d="M110.156 38.7773H100.781V87.4102H110.156V38.7773Z" fill="#fff"/><path d="M42.1875 87.4102V75.6914H28.125V87.4102" fill="#A29B91"/><path d="M55.6641 87.4102V59.2852H42.1875V87.4102" fill="#9FC3DD"/><path d="M93.75 87.4102V78.0352L79.6875 80.3789V87.4102" fill="#88B7C6"/><path d="M126.562 63.9727H117.188V87.4102H126.562V63.9727Z" fill="#FDEFDB"/><path d="M75 87.4102L106.005 143.982C107.214 143.432 108.407 142.853 109.582 142.241L75 87.4102Z" fill="#fff"/><path d="M75 87.4102L40.4186 142.241C41.5928 142.852 42.7858 143.432 43.9954 143.982L75 87.4102Z" fill="#fff"/><path d="M81.4986 150.379L75 87.4102L77.1747 150.625C78.627 150.583 80.0684 150.502 81.4986 150.379Z" fill="#E9B668"/><path d="M74.9998 87.4102L68.5012 150.379C69.9315 150.502 71.3729 150.583 72.8251 150.625L74.9998 87.4102Z" fill="#E9B668"/><path d="M21.0938 71.0039H11.7188V87.4102H21.0938V71.0039Z" fill="#9FC3DD"/><path d="M112.207 81.0381H96.5332V87.4102H112.207V81.0381Z" fill="#A29B91"/><path d="M68.5014 64.7051H63.2812V87.4102H68.5014V64.7051Z" fill="#B39191"/><path d="M48.5353 82.7227H35.1562V87.4102H48.5353V82.7227Z" fill="#9E8282"/><path d="M30.3923 82.7227H24.121V87.4102H30.3923V82.7227Z" fill="#EEE1C2"/><path d="M71.0939 82.7227H65.9089V87.4102H71.0939V82.7227Z" fill="#EEE1C2"/><path d="M118.506 82.7227H110.156V87.4102H118.506V82.7227Z" fill="#EEE1C2"/><path d="M90.4539 84.0105H83.8688V87.4101H90.4539V84.0105Z" fill="#9E8282"/><path d="M121.875 79.793H115.29V87.4102H121.875V79.793Z" fill="#9E8282"/><path d="M146.387 81.6483H132.645V87.4101H146.387V81.6483Z" fill="#9E8282"/><path d="M15.0115 79.793H8.42648V87.4102H15.0115V79.793Z" fill="#9E8282"/><path d="M57.7093 79.793H52.7344V87.4102H57.7093V79.793Z" fill="#B2B9C9"/><path d="M106.565 84.0105H101.59V87.4101H106.565V84.0105Z" fill="#B2B9C9"/><path d="M11.7189 84.0105H6.74402V87.4101H11.7189V84.0105Z" fill="#B2B9C9"/><path d="M38.3747 85.0664H28.8143V87.4102H38.3747V85.0664Z" fill="#B2B9C9"/></g><defs><clipPath id="clip0"><path fill="#fff" transform="translate(0 .691)" d="M0 0H150V150H0z"/></clipPath></defs></svg>