<svg viewBox="0 0 150 151" fill="none" xmlns="http://www.w3.org/2000/svg"><g clip-path="url(#clip0)"><path d="M75 0.691406C116.422 0.691406 150 34.2697 150 75.6914C150 117.113 116.422 150.691 75 150.691C33.5783 150.691 0 117.113 0 75.6914C0 34.2697 33.5783 0.691406 75 0.691406Z" fill="#B1E9F1"/><path d="M128.047 62.4912H124.692V60.5532H128.047V62.4912Z" fill="#75A0A5"/><path d="M131.999 62.4912H128.645V60.5532H131.999V62.4912Z" fill="#75A0A5"/><path d="M128.047 66.0019H124.692V64.063H128.047V66.0019Z" fill="#75A0A5"/><path d="M131.999 66.0019H128.645V64.063H131.999V66.0019Z" fill="#75A0A5"/><path d="M132.321 94.3057H118.254V91.9939H132.321V94.3057Z" fill="#72EBF9"/><path d="M133.215 61.5926V58.8299V55.8794H129.689V48.7693H124.679V42.3545H122.914V48.7693H117.904V55.8794H114.377V58.8299V61.931V66.0293V68.4829V69.1307V71.4223L110.259 66.2074H98.8035L94.7939 71.4841V100.083H114.377V100.141H133.105V100.63H145.748C148.498 92.8266 150 84.4356 150 75.6914C150 69.6123 149.271 63.704 147.906 58.0441L142.92 54.2941L133.215 61.5926Z" fill="#424242"/><path d="M35.364 101.308H15.7324V65.6196L19.742 59.0322H31.1971L35.364 65.6196V101.308Z" fill="#fff"/><path d="M27.2605 79.352H24.6413V73.5987H27.2605V79.352ZM23.1768 72.1368H20.5576V66.3823H23.1768V72.1368ZM27.2605 72.1368H24.6413V66.3823H27.2605V72.1368ZM31.3444 72.1368H28.7238V66.3823H31.3444V72.1368ZM31.3444 79.352H28.7238V73.5987H31.3444V79.352ZM31.3444 86.5696H28.7238V80.8146H31.3444V86.5696ZM27.2605 86.5696H24.6413V80.8146H27.2605V86.5696ZM23.1768 79.352H20.5576V73.5987H23.1768V79.352ZM23.1768 86.5696H20.5576V80.8146H23.1768V86.5696Z" fill="#8FC9F7"/><path d="M55.3805 100.735H35.748V67.0329L45.564 63.7373L55.3805 67.0329V100.735Z" fill="#FF7042"/><path d="M41.1231 87.4299C41.1231 87.4179 41.1246 87.4065 41.1246 87.3951C41.1246 86.6049 40.481 85.9651 39.6858 85.9651C38.8907 85.9651 38.2471 86.6052 38.2471 87.3951C38.2471 87.4065 38.2491 87.4179 38.2491 87.4299H38.2471V91.9745H41.1267V87.4299H41.1231ZM41.1231 80.0354C41.1231 80.0231 41.1246 80.0125 41.1246 80C41.1246 79.2098 40.481 78.5706 39.6858 78.5706C38.8907 78.5706 38.2471 79.2101 38.2471 80C38.2471 80.0128 38.2491 80.0234 38.2491 80.0354H38.2471V84.5791H41.1267V80.0354H41.1231ZM45.0422 80.0354C45.0422 80.0231 45.0437 80.0125 45.0437 80C45.0437 79.2098 44.4 78.5706 43.6049 78.5706C42.8098 78.5706 42.1661 79.2101 42.1661 80C42.1661 80.0128 42.1667 80.0234 42.1676 80.0354H42.1655V84.5791H45.0445V80.0354H45.0422ZM48.9606 80.0354C48.9606 80.0231 48.9627 80.0125 48.9627 80C48.9627 79.2098 48.3179 78.5706 47.5228 78.5706C46.7288 78.5706 46.084 79.2101 46.084 80C46.084 80.0128 46.086 80.0234 46.0866 80.0354H46.0834V84.5791H48.963V80.0354H48.9606ZM52.88 80.0354C52.88 80.0231 52.8814 80.0125 52.8814 80C52.8814 79.2098 52.2366 78.5706 51.4418 78.5706C50.6467 78.5706 50.003 79.2101 50.003 80C50.003 80.0128 50.0039 80.0234 50.0039 80.0354H50.0024V84.5791H52.882V80.0354H52.88ZM52.88 87.4299C52.88 87.4179 52.8814 87.4065 52.8814 87.3951C52.8814 86.6049 52.2366 85.9651 51.4418 85.9651C50.6467 85.9651 50.003 86.6052 50.003 87.3951C50.003 87.4065 50.0039 87.4179 50.0039 87.4299H50.0024V91.9745H52.882V87.4299H52.88ZM48.9606 87.4299C48.9606 87.4179 48.9627 87.4065 48.9627 87.3951C48.9627 86.6049 48.3179 85.9651 47.5228 85.9651C46.7288 85.9651 46.084 86.6052 46.084 87.3951C46.084 87.4065 46.086 87.4179 46.0866 87.4299H46.0834V91.9745H48.963V87.4299H48.9606ZM45.0422 87.4299C45.0422 87.4179 45.0437 87.4065 45.0437 87.3951C45.0437 86.6049 44.4 85.9651 43.6049 85.9651C42.8098 85.9651 42.1661 86.6052 42.1661 87.3951C42.1661 87.4065 42.1667 87.4179 42.1676 87.4299H42.1655V91.9745H45.0445V87.4299H45.0422Z" fill="#fff"/><path d="M114.14 100.749H94.5068V72.1509L98.5167 66.8728H109.973L114.14 72.1509V100.749Z" fill="#DFDFDF"/><path d="M109.648 78.5621H98.999V73.7158H109.648V78.5621Z" fill="#FFBF06"/><path d="M109.648 85.9566H98.999V81.1089H109.648V85.9566Z" fill="#FFBF06"/><path d="M74.9648 100.628H55.333V63.7124H74.9648V100.628Z" fill="#606060"/><path d="M62.482 70.0363H58.5469V68.0974H62.482V70.0363ZM71.7516 87.5875H67.8164V85.6489H71.7516V87.5875ZM67.1165 87.5875H63.1825V85.6489H67.1165V87.5875ZM62.482 87.5875H58.5469V85.6489H62.482V87.5875ZM71.7516 84.0771H67.8164V82.1391H71.7516V84.0771ZM67.1165 84.0771H63.1825V82.1391H67.1165V84.0771ZM62.482 84.0771H58.5469V82.1391H62.482V84.0771ZM71.7516 80.5673H67.8164V78.6279H71.7516V80.5673ZM67.1165 80.5673H63.1825V78.6279H67.1165V80.5673ZM62.482 80.5673H58.5469V78.6279H62.482V80.5673ZM71.7516 77.0576H67.8164V75.1175H71.7516V77.0576ZM67.1165 77.0576H63.1825V75.1175H67.1165V77.0576ZM62.482 77.0576H58.5469V75.1175H62.482V77.0576ZM71.7516 73.5472H67.8164V71.6078H71.7516V73.5472ZM67.1165 73.5472H63.1825V71.6078H67.1165V73.5472ZM62.482 73.5472H58.5469V71.6078H62.482V73.5472ZM71.7516 70.0363H67.8164V68.0974H71.7516V70.0363ZM67.1165 70.0363H63.1825V68.0974H67.1165V70.0363Z" fill="#BBB"/><path d="M15.9026 100.391H4.16748C1.47041 92.6564 0 84.3463 0 75.6915C0 70.6691 0.497754 65.7627 1.43936 61.0169L6.08584 58.3943L15.9023 63.9349V100.391H15.9026Z" fill="#606060"/><path d="M5.20459 83.6917H2.58398V77.9375H5.20459V83.6917Z" fill="#E5E5E5"/><path d="M9.28916 83.6917H6.66797V77.9375H9.28916V83.6917Z" fill="#E5E5E5"/><path d="M5.20459 91.3315H2.58398V85.5764H5.20459V91.3315Z" fill="#E5E5E5"/><path d="M9.28916 91.3315H6.66797V85.5764H9.28916V91.3315Z" fill="#E5E5E5"/><path d="M76.6447 58.3703V54.47H91.6488V58.3703H94.5061V100.589H74.874V58.3703H76.6447Z" fill="#202020"/><path d="M145.513 101.296H132.929V62.3435L142.881 54.9609L148.096 58.8296C149.341 64.2495 150 69.8941 150 75.6914C150 84.6844 148.416 93.3064 145.513 101.296Z" fill="#DBE2E4"/><path d="M141.535 79.2735C141.535 77.9745 140.475 76.9221 139.168 76.9221C137.861 76.9221 136.802 77.9742 136.802 79.2735C136.802 80.5719 137.861 81.6243 139.168 81.6243C140.475 81.6243 141.535 80.5719 141.535 79.2735Z" fill="#BAC8CA"/><path d="M148.466 79.2735C148.466 77.9745 147.406 76.9221 146.099 76.9221C144.792 76.9221 143.732 77.9742 143.732 79.2735C143.732 80.5719 144.792 81.6243 146.099 81.6243C147.406 81.6243 148.466 80.5719 148.466 79.2735Z" fill="#BAC8CA"/><path d="M141.535 85.9648C141.535 84.6655 140.475 83.614 139.168 83.614C137.861 83.614 136.802 84.6658 136.802 85.9648C136.802 87.2632 137.861 88.3167 139.168 88.3167C140.475 88.3167 141.535 87.2632 141.535 85.9648Z" fill="#BAC8CA"/><path d="M124.393 43.0205H122.628V59.4971H124.393V43.0205Z" fill="#fff"/><path d="M148.466 85.965C148.466 84.6657 147.406 83.6143 146.099 83.6143C144.792 83.6143 143.732 84.666 143.732 85.965C143.732 87.2635 144.792 88.317 146.099 88.317C147.406 88.3173 148.466 87.2635 148.466 85.965Z" fill="#BAC8CA"/><path d="M141.535 92.6565C141.535 91.3586 140.475 90.3057 139.168 90.3057C137.861 90.3057 136.802 91.3586 136.802 92.6565C136.802 93.9549 137.861 95.0084 139.168 95.0084C140.475 95.0084 141.535 93.9549 141.535 92.6565Z" fill="#BAC8CA"/><path d="M148.275 91.7304C147.913 90.8928 147.074 90.3057 146.099 90.3057C144.792 90.3057 143.732 91.3586 143.732 92.6565C143.732 93.9549 144.792 95.0084 146.099 95.0084C146.686 95.0084 147.222 94.7957 147.636 94.4441C147.867 93.5462 148.077 92.6403 148.275 91.7304Z" fill="#BAC8CA"/><path d="M132.93 69.1492H114.091V100.807H132.93V69.1492Z" fill="#fff"/><path d="M129.404 49.4353H117.618V56.5459H114.091V59.497H117.618V62.5981H114.091V66.6956H121.8V69.7972H114.091V73.8944H121.8V76.9966H114.091V81.0935H121.8V84.1952H114.091V88.2923H121.8V91.3934H114.091V95.4915H121.8V98.5928H114.091V100.807H132.93V98.5928H125.222V95.4915H132.93V91.3934H125.222V88.2923H132.93V84.1952H125.222V81.0935H132.93V76.9966H125.222V73.8944H132.93V69.7972H125.222V66.6956H132.93V62.5981H129.404V59.497H132.93V56.5459H129.404V49.4353Z" fill="#424242"/><path d="M121.8 59.4971H114.091V62.5982H121.8V59.4971Z" fill="#fff"/><path d="M125.222 62.5982H132.93V59.4971H125.222V62.5982Z" fill="#fff"/><path d="M121.8 66.6956H114.091V69.7972H121.8V66.6956Z" fill="#fff"/><path d="M125.222 69.7972H132.93V66.6956H125.222V69.7972Z" fill="#fff"/><path d="M121.8 73.8943H114.091V76.9965H121.8V73.8943Z" fill="#fff"/><path d="M125.222 76.9965H132.93V73.8943H125.222V76.9965Z" fill="#fff"/><path d="M121.8 81.0935H114.091V84.1952H121.8V81.0935Z" fill="#fff"/><path d="M125.222 84.1952H132.93V81.0935H125.222V84.1952Z" fill="#fff"/><path d="M121.8 88.2922H114.091V91.3933H121.8V88.2922Z" fill="#fff"/><path d="M125.222 91.3933H132.93V88.2922H125.222V91.3933Z" fill="#fff"/><path d="M3.15723 97.2732H146.842C146.435 98.6308 145.994 99.9729 145.513 101.297H4.48672C4.00566 99.9732 3.56475 98.6308 3.15723 97.2732Z" fill="#BBB"/><path d="M20.2305 126.923H129.768C136.619 119.602 142.02 110.908 145.512 101.297H4.48633C7.97881 110.908 13.3797 119.602 20.2305 126.923Z" fill="#606060"/><path d="M138.27 115.183H138.767C139.206 114.474 139.638 113.76 140.055 113.037H138.27V115.183ZM11.2329 115.183C10.8793 114.613 10.533 114.038 10.1943 113.459V113.037H27.2712V115.183H11.2329V115.183ZM116.923 115.183H134V113.037H116.923V115.183ZM95.5772 115.183H112.654V113.037H95.5772V115.183ZM74.2315 115.183H91.308V113.037H74.2315V115.183ZM52.8863 115.183H69.962V113.037H52.8863V115.183ZM31.5406 115.183H48.6172V113.037H31.5406V115.183Z" fill="#fff"/><path d="M129.77 126.922H20.2305C33.9165 141.548 53.3893 150.691 75.0001 150.691C96.6109 150.691 116.083 141.548 129.77 126.922Z" fill="#7CB142"/><path d="M78.2305 65.1715H80.1825V60.6182H78.2305V65.1715ZM80.1825 77.7073V73.1549H78.2305V77.7073H80.1825ZM83.8587 77.7073V73.1549H81.9078V77.7073H83.8587ZM87.4748 77.7073V73.1549H85.5233V77.7073H87.4748ZM91.1507 73.1546H89.1986V77.707H91.1507V73.1546ZM89.1986 66.8862V71.4396H91.1507V66.8862H89.1986ZM85.523 66.8862V71.4396H87.4745V66.8862H85.523ZM81.9081 66.8862V71.4396H83.859V66.8862H81.9081ZM80.1825 71.4396V66.8862H78.2305V71.4396H80.1825ZM89.1986 60.6182V65.1715H91.1507V60.6182H89.1986ZM85.523 60.6182V65.1715H87.4745V60.6182H85.523ZM81.9081 60.6182V65.1715H83.859V60.6182H81.9081Z" fill="#fff"/><path d="M6.24131 104.765C6.24131 104.962 6.1789 105.146 6.07285 105.295C5.84814 104.772 5.6293 104.246 5.41602 103.716C5.87978 103.763 6.24131 104.154 6.24131 104.63V104.765Z" fill="#BBB"/><path d="M4.75977 102.029C8.70107 99.7221 16.1205 95.5989 23.2435 97.5456C23.2435 97.5456 24.952 97.9517 27.6834 100.213C27.6834 100.213 42.6251 99.3805 45.3576 103.95C45.3576 103.95 43.9027 106.415 32.7374 106.98C32.7374 106.98 14.6278 107.162 9.92891 107.035C9.92891 107.035 8.47959 107.174 6.50029 105.937L6.29961 105.813C5.75322 104.569 5.23965 103.307 4.75977 102.029Z" fill="#FFB100"/><path d="M10.7852 107.122L18.8333 107.166C18.8333 105.752 18.0959 104.275 16.9832 103.711H12.6347C11.5231 104.275 10.7852 105.709 10.7852 107.122Z" fill="#333"/><path d="M11.4189 106.944C11.4189 108.816 12.9368 110.334 14.8086 110.334C16.681 110.334 18.1988 108.816 18.1988 106.944C18.1988 105.071 16.681 103.595 14.8086 103.595C12.9371 103.595 11.4189 105.071 11.4189 106.944Z" fill="#424242"/><path d="M12.2236 106.944C12.2236 108.372 13.382 109.531 14.81 109.531C16.2382 109.531 17.3978 108.372 17.3978 106.944C17.3978 105.515 16.2382 104.358 14.81 104.358C13.3817 104.358 12.2236 105.515 12.2236 106.944Z" fill="#fff"/><path d="M12.751 106.944C12.751 108.081 13.6732 109.002 14.8091 109.002C15.9446 109.002 16.8672 108.081 16.8672 106.944C16.8672 105.808 15.9443 104.886 14.8091 104.886C13.6732 104.886 12.751 105.808 12.751 106.944Z" fill="#BBB"/><path d="M38.7789 106.378C38.916 106.323 39.4117 106.309 39.4091 106.27C39.274 104.566 37.4412 102.955 35.4464 102.955C33.2236 102.955 31.4219 104.719 31.4219 106.98L38.8355 106.994L38.7789 106.378Z" fill="#333"/><path d="M32.0547 106.994C32.0547 108.867 33.5731 110.384 35.4455 110.384C37.3179 110.384 38.8346 108.867 38.8346 106.994C38.8346 105.122 37.3179 103.604 35.4455 103.604C33.5731 103.604 32.0547 105.122 32.0547 106.994Z" fill="#424242"/><path d="M32.8584 106.994C32.8584 108.422 34.0159 109.581 35.4459 109.581C36.8738 109.581 38.0322 108.422 38.0322 106.994C38.0322 105.565 36.8738 104.408 35.4459 104.408C34.0159 104.408 32.8584 105.565 32.8584 106.994Z" fill="#fff"/><path d="M33.3877 106.994C33.3877 108.131 34.3091 109.051 35.4458 109.051C36.5813 109.051 37.5027 108.132 37.5027 106.994C37.5027 105.858 36.5813 104.936 35.4458 104.936C34.3091 104.936 33.3877 105.858 33.3877 106.994Z" fill="#BBB"/><path d="M15.1864 100.643L13.8786 97.8643C11.3002 98.6005 8.93154 99.7205 6.99121 100.766C12.5939 101.226 15.1864 100.643 15.1864 100.643Z" fill="#7FDDE9"/><path d="M16.2178 98.1429C16.2178 98.1429 17.9009 101.018 20.029 101.018C20.029 101.018 25.1117 101.357 27.657 100.193C25.4439 98.3659 23.907 97.7577 23.414 97.5959C20.9806 97.6698 16.2878 97.8482 16.2178 98.1429Z" fill="#7FDDE9"/><path d="M21.4244 102.586C21.4244 102.741 21.2976 102.867 21.1426 102.867H19.734C19.5775 102.867 19.4521 102.741 19.4521 102.586C19.4521 102.429 19.5775 102.304 19.734 102.304H21.1426C21.2978 102.304 21.4244 102.429 21.4244 102.586Z" fill="#333"/><path d="M43.3471 104.033C43.3471 104.453 43.0075 104.792 42.5889 104.792C42.1702 104.792 41.8301 104.452 41.8301 104.033C41.8301 103.614 42.1702 103.275 42.5889 103.275C43.0075 103.275 43.3471 103.614 43.3471 104.033Z" fill="#fff"/><path d="M45.3706 115.082C45.3706 115.437 45.0826 115.725 44.7264 115.725H44.7091C44.3543 115.725 44.0654 115.437 44.0654 115.082V113.613C44.0654 113.258 44.354 112.97 44.7091 112.97H44.7264C45.0829 112.97 45.3706 113.258 45.3706 113.613V115.082Z" fill="#00E3FF"/><path d="M86.6655 113.952C86.7754 114.395 86.5029 114.842 86.0608 114.95L85.259 115.148C84.8154 115.258 84.3683 114.987 84.2596 114.543C84.1504 114.102 84.4202 113.654 84.8637 113.545L85.6665 113.347C86.1091 113.238 86.5559 113.51 86.6655 113.952Z" fill="#ED1C23"/><path d="M75.1384 104.706C72.1211 104.706 64.448 104.706 64.448 104.706C60.6766 104.706 57.6836 108.765 56.573 109.926H48.1589C46.3352 109.926 44.9365 111.322 44.9365 113.147V117.61H56.1429H73.7623H77.0667H86.5982C83.8108 103.836 76.041 104.706 75.1384 104.706Z" fill="#429F46"/><path d="M87.5631 117.143C87.5631 117.561 87.2235 117.9 86.8055 117.9H44.8225C44.4053 117.9 44.0654 117.561 44.0654 117.143V117.063C44.0654 116.645 44.405 116.305 44.8225 116.305H86.8055C87.2233 116.305 87.5631 116.645 87.5631 117.063V117.143Z" fill="#DFDFDF"/><path d="M56.2868 117.037C56.2868 119.021 54.6769 120.63 52.6912 120.63C50.7069 120.63 49.0977 119.021 49.0977 117.037C49.0977 115.051 50.7069 113.442 52.6912 113.442C54.6766 113.442 56.2868 115.051 56.2868 117.037Z" fill="#424242"/><path d="M55.1069 117.036C55.1069 118.37 54.0253 119.452 52.6902 119.452C51.3569 119.452 50.2744 118.37 50.2744 117.036C50.2744 115.701 51.3569 114.621 52.6902 114.621C54.0253 114.621 55.1069 115.701 55.1069 117.036Z" fill="#fff"/><path d="M54.5342 117.037C54.5342 118.054 53.7086 118.879 52.6905 118.879C51.6733 118.879 50.8486 118.054 50.8486 117.037C50.8486 116.019 51.6733 115.195 52.6905 115.195C53.7086 115.195 54.5342 116.019 54.5342 117.037Z" fill="#BBB"/><path d="M82.7144 117.037C82.7144 119.021 81.1057 120.63 79.1202 120.63C77.1351 120.63 75.5264 119.021 75.5264 117.037C75.5264 115.051 77.1351 113.442 79.1202 113.442C81.106 113.442 82.7144 115.051 82.7144 117.037Z" fill="#424242"/><path d="M81.5351 117.036C81.5351 118.37 80.4534 119.452 79.1192 119.452C77.7845 119.452 76.7031 118.37 76.7031 117.036C76.7031 115.701 77.7842 114.621 79.1192 114.621C80.4534 114.621 81.5351 115.701 81.5351 117.036Z" fill="#fff"/><path d="M80.9619 117.037C80.9619 118.054 80.1363 118.879 79.1191 118.879C78.1011 118.879 77.2764 118.054 77.2764 117.037C77.2764 116.019 78.1011 115.195 79.1191 115.195C80.1363 115.195 80.9619 116.019 80.9619 117.037Z" fill="#BBB"/><path d="M58.0703 109.926H82.0211C82.0211 109.926 79.5443 105.756 75.1841 105.756C75.1841 105.756 67.2505 105.675 64.351 105.675C63.0426 105.675 60.6391 106.446 58.0703 109.926Z" fill="#DFF5F9"/><path d="M69.7289 110.505H68.5693V105.576H69.7289V110.505Z" fill="#429F46"/><path d="M68.5698 111.695C68.5698 111.999 68.3234 112.245 68.0187 112.245H66.0761C65.7714 112.245 65.5244 111.999 65.5244 111.695V111.636C65.5244 111.332 65.7714 111.085 66.0761 111.085H68.0187C68.3234 111.085 68.5698 111.332 68.5698 111.636V111.695Z" fill="#1A5E20"/><path d="M72.7733 111.695C72.7733 111.999 72.527 112.245 72.2223 112.245H70.2796C69.9755 112.245 69.7285 111.999 69.7285 111.695V111.636C69.7285 111.332 69.9755 111.085 70.2796 111.085H72.2223C72.527 111.085 72.7733 111.332 72.7733 111.636V111.695Z" fill="#1A5E20"/><path d="M61.7545 109.093C61.7545 108.743 61.3994 108.466 61.049 108.466L58.4082 108.743C58.0572 108.743 57.8398 109.018 57.8398 109.368V110.384C57.8398 110.735 58.0312 110.945 58.381 110.945L61.0599 110.67C61.4108 110.67 61.7545 110.459 61.7545 110.109V109.093Z" fill="#1A5E20"/><path d="M130.074 119.269C130.074 119.085 130.108 119.113 130.293 119.113H133.976C134.161 119.113 134.311 119.174 134.311 119.358L133.976 121.345C133.976 121.531 133.827 121.658 133.641 121.658H130.293C130.108 121.658 130.074 121.463 130.074 121.278V119.269Z" fill="#F9F9F9"/><path d="M104.51 114.247C104.51 114.247 98.4992 114.418 96.5029 114.582C94.1305 114.777 89.6035 115.889 89.6035 117.749C89.6035 120.442 91.6194 122.366 93.21 122.366C102.99 122.366 130.263 122.283 130.263 122.283C130.263 122.283 131.403 122.525 132.38 121.01C133.358 119.496 135.606 116.368 133.92 115.219C133.92 115.219 127.738 110.942 121.312 110.942C121.312 110.942 117.48 110.81 115.788 110.792C113.135 110.764 111.17 110.796 104.51 114.247Z" fill="#FF3C00"/><path d="M90.4324 117.228C90.5063 117.448 91.6122 117.281 92.9042 116.854C94.1959 116.427 95.1832 115.902 95.1115 115.681C95.0376 115.461 93.9317 115.629 92.6397 116.056C91.348 116.483 90.3601 117.008 90.4324 117.228Z" fill="#FBF47E"/><path d="M133.218 116.076C133.218 115.666 133.413 115.304 133.711 115.08C133.846 115.167 133.92 115.218 133.92 115.218C134.593 115.676 134.638 116.449 134.39 117.309C133.741 117.298 133.218 116.751 133.218 116.076Z" fill="#ED1C23"/><path d="M101.92 121.359H121.388V122.406H101.92V121.359Z" fill="#DB2C00"/><path d="M120.424 120.459C120.424 122.764 122.291 124.63 124.595 124.63C126.898 124.63 128.766 122.764 128.766 120.459C128.766 118.156 126.898 116.289 124.595 116.289C122.291 116.289 120.424 118.156 120.424 120.459Z" fill="#424242"/><path d="M121.791 120.459C121.791 122.008 123.047 123.263 124.595 123.263C126.143 123.263 127.398 122.008 127.398 120.459C127.398 118.911 126.143 117.656 124.595 117.656C123.047 117.656 121.791 118.911 121.791 120.459Z" fill="#BBB"/><path d="M123.914 120.459C123.914 120.835 124.219 121.14 124.595 121.14C124.971 121.14 125.274 120.835 125.274 120.459C125.274 120.084 124.971 119.78 124.595 119.78C124.219 119.78 123.914 120.084 123.914 120.459Z" fill="#fff"/><path d="M94.3076 120.459C94.3076 122.764 96.175 124.63 98.4789 124.63C100.782 124.63 102.649 122.764 102.649 120.459C102.649 118.156 100.782 116.289 98.4789 116.289C96.1753 116.289 94.3076 118.156 94.3076 120.459Z" fill="#424242"/><path d="M95.6738 120.459C95.6738 122.008 96.9301 123.263 98.4781 123.263C100.027 123.263 101.281 122.008 101.281 120.459C101.281 118.911 100.027 117.656 98.4781 117.656C96.9301 117.656 95.6738 118.911 95.6738 120.459Z" fill="#BBB"/><path d="M97.7979 120.459C97.7979 120.835 98.1017 121.14 98.4784 121.14C98.8537 121.14 99.1584 120.835 99.1584 120.459C99.1584 120.084 98.8537 119.78 98.4784 119.78C98.1017 119.78 97.7979 120.084 97.7979 120.459Z" fill="#fff"/><path d="M126.079 112.733C126.258 112.825 126.707 113.504 125.481 113.979C124.252 114.452 122.871 115.07 119.606 115.07C116.342 115.07 108.864 115.07 108.864 115.07C108.864 115.07 106.412 115.01 104.511 114.324C104.574 114.322 104.511 114.324 104.511 114.324C106.898 113.086 108.681 112.251 110.11 111.738C123.648 111.153 125.398 112.381 126.079 112.733Z" fill="#B1E3FB"/><path d="M121.389 115.369H121.988V111.326H121.389V115.369Z" fill="#FF3C00"/><path d="M106.247 114.912L106.553 115.507L114.291 111.533L113.985 110.937L106.247 114.912Z" fill="#FF3C00"/><path d="M117.569 116.717C117.569 116.902 117.718 117.017 117.904 117.017H119.579C119.764 117.017 119.913 116.902 119.913 116.717C119.913 116.532 119.764 116.418 119.579 116.418H117.904C117.718 116.418 117.569 116.532 117.569 116.717Z" fill="#333"/><path d="M81.4805 27.6293C82.4118 27.6293 83.2901 27.8502 84.068 28.2428C84.9108 27.4181 86.0637 26.9092 87.3363 26.9092C89.5395 26.9092 91.3869 28.4341 91.88 30.486C92.9813 30.8171 93.8649 31.6477 94.2677 32.7149C94.4001 32.7009 94.534 32.6936 94.6702 32.6936C96.7058 32.6936 98.3566 34.3444 98.3566 36.3803C98.3566 38.4164 96.7058 40.0667 94.6702 40.0667C94.0357 40.0667 93.4389 39.907 92.918 39.6249C92.4706 41.1571 91.0559 42.2757 89.3795 42.2757C88.3547 42.2757 87.428 41.8576 86.7598 41.1832C86.0921 41.8576 85.1646 42.2757 84.1406 42.2757C83.1668 42.2757 82.2817 41.898 81.622 41.2813C80.9481 42.0187 79.9787 42.481 78.9015 42.481C77.8931 42.481 76.9796 42.0765 76.314 41.4202C76.0099 41.4879 75.6932 41.5227 75.3691 41.5227C72.9434 41.5227 70.9775 39.5566 70.9775 37.1311C70.9775 34.7057 72.9431 32.739 75.3691 32.739C75.5013 32.739 75.6322 32.7454 75.7617 32.7568C76.0728 29.8734 78.515 27.6293 81.4805 27.6293Z" fill="#fff"/><path d="M68.3317 24.792C73.7145 24.792 78.0785 29.1561 78.0785 34.5385C78.0785 39.9215 73.7145 44.2853 68.3317 44.2853C62.949 44.2853 58.585 39.9212 58.585 34.5385C58.585 29.1561 62.949 24.792 68.3317 24.792Z" fill="#FF0"/><path d="M46.3239 24.4328C47.2553 24.4328 48.1336 24.6537 48.9114 25.0462C49.7543 24.2215 50.9071 23.7126 52.1798 23.7126C54.3829 23.7126 56.2304 25.2375 56.7237 27.2895C57.825 27.6203 58.7086 28.4511 59.1114 29.5181C59.2438 29.5041 59.3777 29.4967 59.514 29.4967C61.5495 29.4967 63.2004 31.1476 63.2004 33.1837C63.2004 35.2199 61.5495 36.8699 59.514 36.8699C58.8794 36.8699 58.2826 36.7102 57.7617 36.4284C57.3144 37.9603 55.8996 39.0789 54.2232 39.0789C53.1984 39.0789 52.2718 38.6611 51.6035 37.9864C50.9358 38.6608 50.0083 39.0789 48.9844 39.0789C48.0105 39.0789 47.1255 38.7012 46.4657 38.0845C45.7919 38.8219 44.8225 39.2842 43.7452 39.2842C42.7368 39.2842 41.8233 38.8796 41.1577 38.2234C40.8536 38.2911 40.5369 38.3259 40.2129 38.3259C37.7871 38.3259 35.8213 36.3598 35.8213 33.9343C35.8213 31.5088 37.7868 29.5421 40.2129 29.5421C40.345 29.5421 40.476 29.5489 40.6055 29.5603C40.9163 26.6769 43.3585 24.4328 46.3239 24.4328Z" fill="#fff"/></g><defs><clipPath id="clip0"><path fill="#fff" transform="translate(0 .691)" d="M0 0H150V150H0z"/></clipPath></defs></svg>