<svg viewBox="0 0 150 151" fill="none" xmlns="http://www.w3.org/2000/svg"><g clip-path="url(#clip0)"><path d="M73.8226 28.5747V27.4078L70.8079 28.5747H73.8226Z" fill="#B1E9F1"/><path d="M70.4829 27.283V28.4446L73.4853 27.283H70.4829Z" fill="#B1E9F1"/><path d="M73.8228 24.0759V22.892L70.7663 24.0759H73.8228Z" fill="#B1E9F1"/><path d="M70.4829 24.0541V24.0758H70.5099L70.4829 24.0541Z" fill="#B1E9F1"/><path d="M73.4357 24.2832H70.4829V25.0877H71.3601L73.4357 24.2832Z" fill="#B1E9F1"/><path d="M70.4829 26.2513V26.9366L72.2519 26.2513H70.4829Z" fill="#B1E9F1"/><path d="M70.4829 36.2806V37.4317L73.4557 36.2806H70.4829Z" fill="#B1E9F1"/><path d="M73.8229 37.5727V36.394L70.7789 37.5727H73.8229Z" fill="#B1E9F1"/><path d="M70.4829 28.7833V29.9432L73.4794 28.7833H70.4829Z" fill="#B1E9F1"/><path d="M73.5055 30.2821H70.4829V30.4714H73.0174L73.5055 30.2821Z" fill="#B1E9F1"/><path d="M70.4829 34.8365V35.9572L73.3798 34.8365H70.4829Z" fill="#B1E9F1"/><path d="M73.8224 22.5759V21.3934L70.7682 22.5759H73.8224Z" fill="#B1E9F1"/><path d="M70.4829 18.3937V19.4232L73.1428 18.3937H70.4829Z" fill="#B1E9F1"/><path d="M73.4469 16.785H70.4829V17.2295H72.2981L73.4469 16.785Z" fill="#B1E9F1"/><path d="M70.4829 16.5632V16.5773H70.5011L70.4829 16.5632Z" fill="#B1E9F1"/><path d="M73.8225 16.5773V15.3855L70.7422 16.5773H73.8225Z" fill="#B1E9F1"/><path d="M70.4829 15.2854V16.4221L73.4208 15.2854H70.4829Z" fill="#B1E9F1"/><path d="M73.8225 21.0762V19.8829L70.7422 21.0762H73.8225Z" fill="#B1E9F1"/><path d="M70.4829 37.7808V38.9298L73.4489 37.7808H70.4829Z" fill="#B1E9F1"/><path d="M70.4829 21.2842V22.4312L73.4457 21.2842H70.4829Z" fill="#B1E9F1"/><path d="M70.4829 22.7833V23.9291L73.4416 22.7833H70.4829Z" fill="#B1E9F1"/><path d="M70.4829 19.5642V19.5762H70.499L70.4829 19.5642Z" fill="#B1E9F1"/><path d="M70.4829 19.7842V20.9212L73.4193 19.7842H70.4829Z" fill="#B1E9F1"/><path d="M73.5087 52.7773H70.4829V53.1711H72.4921L73.5087 52.7773Z" fill="#B1E9F1"/><path d="M73.4914 48.2783H70.4829V48.3691H73.2576L73.4914 48.2783Z" fill="#B1E9F1"/><path d="M73.8227 51.0701V49.9053L70.811 51.0701H73.8227Z" fill="#B1E9F1"/><path d="M70.4829 49.7783V50.942L73.4894 49.7783H70.4829Z" fill="#B1E9F1"/><path d="M70.815 49.5709H73.8229V49.5328H70.9105L70.815 49.5709Z" fill="#B1E9F1"/><path d="M70.4829 51.2781V52.4391L73.4817 51.2781H70.4829Z" fill="#B1E9F1"/><path d="M70.4829 51.0668V51.07H70.4861L70.4829 51.0668Z" fill="#B1E9F1"/><path d="M70.4829 15.0507V15.0773H70.5184L70.4829 15.0507Z" fill="#B1E9F1"/><path d="M72.2894 57.2769H70.4829V58.4347L72.2894 57.7354V57.2769Z" fill="#B1E9F1"/><path d="M73.8225 39.0726V37.892L70.7724 39.0726H73.8225Z" fill="#B1E9F1"/><path d="M72.2893 57.0688V56.6633H71.8188L70.7711 57.0688H72.2893Z" fill="#B1E9F1"/><path d="M73.8226 52.5697V51.4016L70.8062 52.5697H73.8226Z" fill="#B1E9F1"/><path d="M70.4829 56.6633V56.9244L71.1579 56.6633H70.4829Z" fill="#B1E9F1"/><path d="M70.4829 40.7804V41.9373L73.4718 40.7804H70.4829Z" fill="#B1E9F1"/><path d="M72.2892 57.9917L70.7974 58.5688H72.2892V57.9917Z" fill="#B1E9F1"/><path d="M70.4829 43.1306V43.4353L71.2681 43.1306H70.4829Z" fill="#B1E9F1"/><path d="M73.8226 40.5724V39.402L70.7994 40.5724H73.8226Z" fill="#B1E9F1"/><path d="M70.4829 39.2804V40.4391L73.4753 39.2804H70.4829Z" fill="#B1E9F1"/><path d="M70.4829 45.2787V46.4362L73.4718 45.2787H70.4829Z" fill="#B1E9F1"/><path d="M70.4829 46.7792V47.9335L73.4656 46.7792H70.4829Z" fill="#B1E9F1"/><path d="M73.8224 46.5712V45.399L70.7932 46.5712H73.8224Z" fill="#B1E9F1"/><path d="M73.8227 48.0702V46.8966L70.7887 48.0702H73.8227Z" fill="#B1E9F1"/><path d="M73.8224 45.0715V43.907L70.816 45.0715H73.8224Z" fill="#B1E9F1"/><path d="M70.4829 43.7789V44.9444L73.4926 43.7789H70.4829Z" fill="#B1E9F1"/><path d="M59.8739 49.5322H44.493V53.8983H59.8739V49.5322Z" fill="#B1E9F1"/><path d="M59.8739 55.3535H44.493V55.4985H59.8739V55.3535Z" fill="#B1E9F1"/><path d="M58.3986 2.75767V2.53882L58.7844 2.45503V2.67183L61.8401 1.8439C62.3285 1.75806 62.8192 1.67749 63.3111 1.60015H70.4964V1.40005H70.8957V0.804443C66.2589 1.05464 61.7355 1.72817 57.3603 2.78315C57.3952 2.77495 57.4297 2.76616 57.4646 2.75767H58.3986Z" fill="#B1E9F1"/><path d="M73.6755 9.07859H74.2084V11.1179H79.8442V7.77136H82.0022V11.1179H83.6209V12.2825H82.0022V17.2296H97.9225V16.7933H100.081V17.2296H102.78V18.3938H100.081V25.0879H102.78V26.2515H100.081V33.6724H102.4V34.837H100.081V41.9673H115.324C115.325 41.4226 115.326 40.8698 115.327 40.2962C115.327 40.1336 115.013 39.9176 114.557 39.9727V38.335C115.305 38.1915 116.743 38.7177 116.743 39.596V40.1347V41.967H117.081V38.6204H119.51V41.967H134.087V43.1303H132.193V48.3689H133.824V49.5326H132.193V55.4992H134.35V56.6634H132.193V63.7931H135.971V59.8644H142.986V64.958H149.232C149.342 65.7258 149.44 66.4975 149.527 67.2727C146.003 35.7326 122.923 10.1063 92.6889 2.79529H73.6755V9.07859Z" fill="#B1E9F1"/><path d="M73.2766 1.4001H73.6757V2.22129H90.1428C90.2017 2.2333 90.26 2.24707 90.3189 2.25938C85.3733 1.23311 80.2499 0.691406 74.9999 0.691406C74.1775 0.691406 73.3593 0.70957 72.5433 0.735645C72.7877 0.728027 73.0317 0.719238 73.2766 0.713672V1.4001Z" fill="#B1E9F1"/><path d="M97.9216 34.8369H82.0017V41.9672H97.9216V34.8369Z" fill="#B1E9F1"/><path d="M130.303 43.1306H119.51V48.2122C120.496 47.7229 122.385 46.9486 125.176 46.4781C128.016 45.9994 129.571 44.7654 130.303 43.9767V43.1306Z" fill="#B1E9F1"/><path d="M59.8739 43.1307H44.493V46.9144H59.8739V43.1307Z" fill="#B1E9F1"/><path d="M97.9216 26.2529H82.0017V33.6738H97.9216V26.2529Z" fill="#B1E9F1"/><path d="M97.9216 18.3926H82.0017V25.0866H97.9216V18.3926Z" fill="#B1E9F1"/><path d="M59.8739 34.8369H44.493V41.0933H59.8739V34.8369Z" fill="#B1E9F1"/><path d="M149.961 73.4912C149.966 73.6667 149.974 73.8413 149.979 74.0167C149.967 73.4835 149.947 72.9524 149.925 72.4221C149.93 72.5554 149.933 72.6896 149.938 72.8232C149.946 73.0456 149.954 73.2682 149.961 73.4912Z" fill="#B1E9F1"/><path d="M82.0023 56.6633V63.793H89.1112L90.4093 56.6633H82.0023Z" fill="#B1E9F1"/><path d="M149.53 67.2996C149.659 68.4544 149.76 69.6172 149.836 70.7871C149.76 69.6169 149.659 68.4544 149.53 67.2996Z" fill="#B1E9F1"/><path d="M130.303 63.793V56.6633H122.991L124.073 63.793H130.303Z" fill="#B1E9F1"/><path d="M91.5063 2.51794C91.8978 2.60701 92.2883 2.69841 92.6776 2.79246C92.2883 2.69841 91.8983 2.60583 91.5063 2.51794Z" fill="#B1E9F1"/><path d="M70.9113 0.803613C71.1509 0.790723 71.3914 0.781055 71.632 0.770508C71.3917 0.781055 71.1512 0.790723 70.9113 0.803613Z" fill="#B1E9F1"/><path d="M117.08 43.1307H116.742V48.357H117.08V43.1307Z" fill="#B1E9F1"/><path d="M97.9216 43.1307H82.0017V48.3693H97.9216V43.1307Z" fill="#B1E9F1"/><path d="M121.818 51.3897L121.82 51.3883C121.826 51.3968 121.83 51.4067 121.836 51.4152C121.901 51.511 121.961 51.6112 122.017 51.7152C122.032 51.7442 122.046 51.7738 122.061 51.8034C122.107 51.8963 122.151 51.9912 122.189 52.0891C122.198 52.111 122.208 52.1324 122.217 52.1547C122.26 52.2692 122.297 52.3876 122.33 52.5077C122.339 52.5402 122.347 52.5728 122.355 52.6056C122.385 52.7289 122.413 52.8537 122.432 52.9812C122.432 52.9829 122.433 52.985 122.433 52.9867L122.814 55.4998H130.303V49.5332H119.509V50.2076H119.654C120.586 50.2073 121.328 50.6796 121.818 51.3897Z" fill="#B1E9F1"/><path d="M93.8579 50.2073H97.9226V49.5328H82.0023V55.4994H90.6212L91.0785 52.9869C91.3518 51.4822 92.3289 50.2073 93.8579 50.2073Z" fill="#B1E9F1"/><path d="M115.324 48.3569C115.323 46.5663 115.322 44.8902 115.323 43.1306H100.081V48.3692H114.476C114.515 48.3639 114.555 48.3569 114.596 48.3569H115.324Z" fill="#B1E9F1"/><path d="M149.924 72.3996C149.902 71.8918 149.874 71.3859 149.842 70.8811C149.874 71.3859 149.9 71.8921 149.922 72.3996H149.924Z" fill="#B1E9F1"/><path d="M73.4032 10.7859H70.4829V11.1178H72.5457L73.4032 10.7859Z" fill="#B1E9F1"/><path d="M73.8228 24.3899L72.021 25.0877H73.8228V24.3899Z" fill="#B1E9F1"/><path d="M73.8227 16.8951L72.959 17.2294H73.8227V16.8951Z" fill="#B1E9F1"/><path d="M70.4829 10.5603V10.5791H70.5063L70.4829 10.5603Z" fill="#B1E9F1"/><path d="M73.8225 36.0735V34.9207L70.8456 36.0735H73.8225Z" fill="#B1E9F1"/><path d="M73.8229 28.9049L70.8024 30.0747H73.8229V28.9049Z" fill="#B1E9F1"/><path d="M73.8229 10.8798L73.2083 11.1179H73.8229V10.8798Z" fill="#B1E9F1"/><path d="M73.8228 13.5782V12.3896L70.7525 13.5782H73.8228Z" fill="#B1E9F1"/><path d="M70.4829 13.7856V14.9256L73.4255 13.7856H70.4829Z" fill="#B1E9F1"/><path d="M70.4829 12.2866V13.4266L73.4296 12.2866H70.4829Z" fill="#B1E9F1"/><path d="M73.8226 19.5761V18.3937H73.8053L70.7485 19.5761H73.8226Z" fill="#B1E9F1"/><path d="M73.8227 30.4148L73.6786 30.4713H73.8227V30.4148Z" fill="#B1E9F1"/><path d="M73.8227 27.076V26.2513H72.9142L70.7849 27.076H73.8227Z" fill="#B1E9F1"/><path d="M73.6379 63.7931H73.8224V63.402L73.6379 63.4738V63.7931Z" fill="#B1E9F1"/><path d="M73.8224 60.3934L73.6379 60.4652V61.5679H73.8224V60.3934Z" fill="#B1E9F1"/><path d="M73.8224 58.897L73.6379 58.9682V60.0686H73.8224V58.897Z" fill="#B1E9F1"/><path d="M73.8228 43.5715V43.1306H71.9285L70.7903 43.5715H73.8228Z" fill="#B1E9F1"/><path d="M73.8226 15.0773V13.8882L70.7485 15.0773H73.8226Z" fill="#B1E9F1"/><path d="M73.8224 61.9034L73.6379 61.9746V63.0677H73.8224V61.9034Z" fill="#B1E9F1"/><path d="M73.8227 40.9004L71.0685 41.9668H73.8227V40.9004Z" fill="#B1E9F1"/><path d="M73.8225 52.9114L73.1528 53.1712H73.8225V52.9114Z" fill="#B1E9F1"/><path d="M73.8224 57.397L73.6379 57.4688V58.5688H73.8224V57.397Z" fill="#B1E9F1"/><path d="M73.8219 56.6631H73.6373V57.0686H73.8219V56.6631Z" fill="#B1E9F1"/><path d="M44.4946 61.6107H45.8435V63.793H55.0192V60.7376H58.2571V58.1176H59.8758V56.6633H44.4946V61.6107Z" fill="#B1E9F1"/><path d="M23.516 47.7592L23.828 47.3528L22.8887 47.1416L23.516 47.7592Z" fill="#B1E9F1"/><path d="M23.9794 47.1577L24.292 46.7557L23.3598 46.5457L23.9794 47.1577Z" fill="#B1E9F1"/><path d="M22.5883 48.9548L22.9032 48.5482L21.9601 48.3361L22.5883 48.9548Z" fill="#B1E9F1"/><path d="M24.4439 46.5586L24.7553 46.1584L23.8251 45.9498L24.4439 46.5586Z" fill="#B1E9F1"/><path d="M22.1239 49.5542L22.44 49.1456L21.4931 48.9329L22.1239 49.5542Z" fill="#B1E9F1"/><path d="M23.0515 48.3577L23.365 47.951L22.4222 47.738L23.0515 48.3577Z" fill="#B1E9F1"/><path d="M26.3025 44.1602L26.6057 43.7682L25.6984 43.564L26.3025 44.1602Z" fill="#B1E9F1"/><path d="M24.5443 56.7469H29.881L27.0556 55.7971L24.5443 56.7469Z" fill="#B1E9F1"/><path d="M25.3718 45.3598L25.6792 44.9631L24.761 44.756L25.3718 45.3598Z" fill="#B1E9F1"/><path d="M25.8378 44.7592L26.1425 44.366L25.2319 44.1606L25.8378 44.7592Z" fill="#B1E9F1"/><path d="M26.9387 42.8479C27.1909 42.8479 27.3957 42.7365 27.3957 42.6009C27.3957 42.4652 27.1912 42.3545 26.9387 42.3545C26.687 42.3545 26.4816 42.4652 26.4816 42.6009C26.4816 42.7365 26.6873 42.8479 26.9387 42.8479Z" fill="#B1E9F1"/><path d="M24.9086 45.9593L25.218 45.5611L24.2946 45.3525L24.9086 45.9593Z" fill="#B1E9F1"/><path d="M18.4242 54.3287L18.7382 53.9247L17.8007 53.715L18.4242 54.3287Z" fill="#B1E9F1"/><path d="M17.9607 54.9287L18.2754 54.5227L17.3335 54.3105L17.9607 54.9287Z" fill="#B1E9F1"/><path d="M18.8843 53.7364L19.1989 53.3283L18.2535 53.115L18.8843 53.7364Z" fill="#B1E9F1"/><path d="M7.52773 64.9582V58.4091H11.6858V57.4461H13.0883V57.6785H14.2405V57.1552H10.8904V57.5504H10.2072V56.7161H10.7855V54.8258L16.5239 54.7968C16.5198 54.7854 16.5198 54.7734 16.5286 54.7626L17.4547 53.5675L18.3802 52.3728L19.3048 51.1778L20.232 49.9825L21.1561 48.7875L23.4711 45.8006L25.3227 43.4109C25.3273 43.4021 25.3373 43.396 25.3473 43.3907L25.3487 43.3898L26.4002 42.8329C26.3041 42.769 26.2458 42.6893 26.2458 42.6014C26.2458 42.3955 26.5572 42.2276 26.9378 42.2276C27.3195 42.2276 27.6298 42.3955 27.6298 42.6014C27.6298 42.7631 27.4373 42.9002 27.1695 42.9518V55.6863L30.1376 56.6841C30.1786 56.6982 30.1974 56.7231 30.1906 56.7474H31.5125V57.3099H22.6607V56.7474H24.3189C24.2908 56.7193 24.3028 56.6835 24.3532 56.6648L26.9343 55.6889V42.9747C26.8408 42.9741 26.7512 42.9641 26.6691 42.9451L26.8766 43.7255C26.8766 43.727 26.8751 43.7282 26.8751 43.7296C26.8766 43.7337 26.8751 43.7384 26.8745 43.7425C26.8745 43.7466 26.873 43.7519 26.8704 43.7554C26.8689 43.7569 26.8689 43.7581 26.8678 43.7595L26.4061 44.3566C26.4061 44.3566 26.4061 44.3566 26.4046 44.3566C26.4046 44.3572 26.4046 44.3572 26.4046 44.3572L25.9429 44.9545H25.942L25.4803 45.5516L25.0174 46.1481V46.1496L24.5542 46.7466L24.091 47.3431L23.6281 47.9417L23.1649 48.5381L22.7026 49.1355C22.7026 49.1355 22.7026 49.1355 22.7026 49.1367L22.2395 49.7332L21.7777 50.3305H21.7763L21.3145 50.9282L20.8514 51.5255L20.3885 52.1226C20.3885 52.1226 20.3885 52.1226 20.3885 52.1235L19.9247 52.7206L19.463 53.3176L18.9998 53.915V53.9156L18.0737 55.1103C18.0638 55.1232 18.0474 55.1323 18.0274 55.1405L17.8376 57.1544H16.6853V57.6776H17.5142V57.4253H19.0979V58.4086H21.8287V64.9576H23.8856C24.0687 64.3435 24.4244 63.498 25.0666 63.065C26.1456 62.3373 28.035 62.0463 28.3045 61.173C28.5737 60.3 30.4625 59.7181 32.0826 60.1544C32.1837 60.1816 32.2766 60.2129 32.3618 60.2478L32.3955 60.135L32.7286 60.4526C32.8499 60.5402 32.9495 60.6378 33.0327 60.7426L35.4837 63.0796L35.503 63.0146L35.9111 61.5858L36.13 61.7109V61.6101H42.0658V56.663H40.4343V55.4988H42.0658V49.5322H39.9084V48.3685H42.0658V43.1299H40.1706V41.9666H42.0658V34.8363H40.1706V33.6717H42.0658V31.0526H44.4939V33.6717H59.8751V26.2508H57.7177V25.0872H59.8751V18.3937H57.4478V17.2294H59.8751V12.2824H59.6053V11.1178H59.8751V10.8266H62.0334V11.1178H70.0965V9.07847H70.4955V2.96509H56.6141C25.6021 10.7806 2.27451 37.9086 0.161621 70.814C0.288184 68.8406 0.490918 66.8877 0.76748 64.9582H7.52773ZM47.8645 11.5482C52.1173 11.5482 55.5638 14.9947 55.5638 19.2468C55.5638 23.4987 52.1173 26.9455 47.8645 26.9455C43.6133 26.9455 40.1659 23.4987 40.1659 19.2468C40.1659 14.9947 43.6133 11.5482 47.8645 11.5482Z" fill="#B1E9F1"/><path d="M72.2894 58.7762H70.4829V59.9332L72.2894 59.2336V58.7762Z" fill="#B1E9F1"/><path d="M19.3491 53.1368L19.6623 52.7305L18.721 52.5181L19.3491 53.1368Z" fill="#B1E9F1"/><path d="M20.74 51.3398L21.0529 50.9378L20.1207 50.7278L20.74 51.3398Z" fill="#B1E9F1"/><path d="M21.2046 50.7408L21.516 50.3406L20.587 50.1315L21.2046 50.7408Z" fill="#B1E9F1"/><path d="M21.6636 50.1472L21.9777 49.7432L21.0387 49.532L21.6636 50.1472Z" fill="#B1E9F1"/><path d="M20.2764 51.9413L20.5884 51.535L19.6503 51.3237L20.2764 51.9413Z" fill="#B1E9F1"/><path d="M19.8108 52.5399L20.1255 52.133L19.1833 51.9211L19.8108 52.5399Z" fill="#B1E9F1"/><path d="M17.5154 58.2598H13.0886V58.4089H17.5154V58.2598Z" fill="#B1E9F1"/><path d="M20.3498 50.1613L20.0325 50.5708L20.9805 50.7844L20.3498 50.1613Z" fill="#B1E9F1"/><path d="M19.8856 50.7601L19.5695 51.1679L20.5143 51.3809L19.8856 50.7601Z" fill="#B1E9F1"/><path d="M19.4191 51.3612L19.1062 51.7652L20.0425 51.9767L19.4191 51.3612Z" fill="#B1E9F1"/><path d="M70.496 1.92004L67.4084 2.75764H70.496V1.92004Z" fill="#B1E9F1"/><path d="M20.8085 49.5688L20.4953 49.9729L21.4319 50.1841L20.8085 49.5688Z" fill="#B1E9F1"/><path d="M18.9556 51.96L18.6436 52.3634L19.5764 52.5732L18.9556 51.96Z" fill="#B1E9F1"/><path d="M18.4927 52.5571L18.1807 52.9605L19.1141 53.1706L18.4927 52.5571Z" fill="#B1E9F1"/><path d="M17.1055 54.349L16.7929 54.753L17.7275 54.9636L17.1055 54.349Z" fill="#B1E9F1"/><path d="M0.159717 70.8503C0.126904 71.3654 0.0981934 71.8816 0.0759277 72.3996H0.0785645C0.101123 71.8819 0.126904 71.3651 0.159717 70.8503Z" fill="#B1E9F1"/><path d="M26.4437 42.9882L25.6413 43.4135L26.6142 43.6327L26.4437 42.9882Z" fill="#B1E9F1"/><path d="M17.5693 53.7505L17.2558 54.1554L18.1939 54.3672L17.5693 53.7505Z" fill="#B1E9F1"/><path d="M18.028 53.1571L17.7175 53.5576L18.6471 53.7677L18.028 53.1571Z" fill="#B1E9F1"/><path d="M23.5888 45.9794L23.2712 46.3878L24.2181 46.6013L23.5888 45.9794Z" fill="#B1E9F1"/><path d="M24.053 45.3794L23.7345 45.7907L24.6875 46.0055L24.053 45.3794Z" fill="#B1E9F1"/><path d="M24.517 44.7809L24.1973 45.1934L25.1542 45.409L24.517 44.7809Z" fill="#B1E9F1"/><path d="M25.4475 43.5808L25.1232 43.9983L26.0914 44.2171L25.4475 43.5808Z" fill="#B1E9F1"/><path d="M24.9829 44.1794L24.6609 44.596L25.625 44.8128L24.9829 44.1794Z" fill="#B1E9F1"/><path d="M0.0598389 72.8613C0.0648193 72.7307 0.0674561 72.5994 0.0730225 72.4688C0.0513428 72.982 0.0322998 73.4959 0.020874 74.0118C0.0252686 73.8334 0.0334717 73.6562 0.0390381 73.478C0.0451904 73.2721 0.0522217 73.0667 0.0598389 72.8613Z" fill="#B1E9F1"/><path d="M23.1243 46.5786L22.8082 46.9858L23.7533 47.1988L23.1243 46.5786Z" fill="#B1E9F1"/><path d="M22.1951 47.7791L21.8831 48.181L22.8153 48.3905L22.1951 47.7791Z" fill="#B1E9F1"/><path d="M21.7323 48.3759L21.4203 48.7775L22.3534 48.9885L21.7323 48.3759Z" fill="#B1E9F1"/><path d="M21.2684 48.9745L20.9581 49.3756L21.8863 49.585L21.2684 48.9745Z" fill="#B1E9F1"/><path d="M22.658 47.1794L22.3454 47.5832L23.2817 47.7938L22.658 47.1794Z" fill="#B1E9F1"/><path d="M72.2893 60.9873L70.7887 61.568H72.2893V60.9873Z" fill="#B1E9F1"/><path d="M79.8449 18.3926H74.2091V25.0866H79.8449V18.3926Z" fill="#B1E9F1"/><path d="M79.8461 12.2825H75.5275V17.2295H79.8461V12.2825Z" fill="#B1E9F1"/><path d="M79.8449 26.2529H74.2091V30.4729H79.8449V26.2529Z" fill="#B1E9F1"/><path d="M70.0962 49.5322H62.0331V53.1709H70.0962V49.5322Z" fill="#B1E9F1"/><path d="M68.7805 60.7376V63.793H70.0971V56.6633H62.034V58.1176H64.1929V60.7376H68.7805Z" fill="#B1E9F1"/><path d="M70.0962 43.1307H62.0331V48.3693H70.0962V43.1307Z" fill="#B1E9F1"/><path d="M73.8224 10.579V9.38196L70.7322 10.579H73.8224Z" fill="#B1E9F1"/><path d="M79.8449 56.6631H74.2091V63.7928H79.8449V56.6631Z" fill="#B1E9F1"/><path d="M79.8449 34.8369H74.2091V41.9672H79.8449V34.8369Z" fill="#B1E9F1"/><path d="M79.8449 43.1307H74.2091V48.3693H79.8449V43.1307Z" fill="#B1E9F1"/><path d="M79.8449 49.5322H74.2091V53.1709H79.8449V49.5322Z" fill="#B1E9F1"/><path d="M72.2894 63.7394V63.2756H70.4829V63.793H72.1499L72.2894 63.7394Z" fill="#B1E9F1"/><path d="M72.2895 62.4972L70.815 63.0676H72.2895V62.4972Z" fill="#B1E9F1"/><path d="M72.2894 61.776H70.4829V62.9403L72.2894 62.2409V61.776Z" fill="#B1E9F1"/><path d="M73.2911 2.34226V1.72498L71.3121 2.34226H73.2911Z" fill="#B1E9F1"/><path d="M72.2894 60.276H70.4829V61.4303L72.2894 60.731V60.276Z" fill="#B1E9F1"/><path d="M72.2891 59.4902L70.7947 60.0686H72.2891V59.4902Z" fill="#B1E9F1"/><path d="M65.8127 34.8369H62.0331V41.9672H65.8127V34.8369Z" fill="#B1E9F1"/><path d="M70.098 34.8369H66.8935V41.9672H70.098V34.8369Z" fill="#B1E9F1"/><path d="M70.0962 26.2529H62.0331V30.4729H70.0962V26.2529Z" fill="#B1E9F1"/><path d="M70.0981 12.2825H67.7022V17.2295H70.0981V12.2825Z" fill="#B1E9F1"/><path d="M70.0962 18.3926H62.0331V25.0866H70.0962V18.3926Z" fill="#B1E9F1"/><path d="M66.3514 12.2825H62.0331V17.2295H66.3514V12.2825Z" fill="#B1E9F1"/><path d="M73.2914 7.05146V6.43066L71.303 7.05146H73.2914Z" fill="#B1E9F1"/><path d="M73.2911 7.99275V7.37488L71.3074 7.99275H73.2911Z" fill="#B1E9F1"/><path d="M70.8817 7.25916V7.88581L72.8918 7.25916H70.8817Z" fill="#B1E9F1"/><path d="M70.8817 8.20142V8.83159L72.9012 8.20142H70.8817Z" fill="#B1E9F1"/><path d="M66.8497 1.80823V2.67717L70.053 1.80823H66.8497Z" fill="#B1E9F1"/><path d="M70.8817 6.31787V6.94248L72.8865 6.31787H70.8817Z" fill="#B1E9F1"/><path d="M66.4629 2.75776V1.90405L63.317 2.75776H66.4629Z" fill="#B1E9F1"/><path d="M73.2911 6.10945V5.48425L71.2851 6.10945H73.2911Z" fill="#B1E9F1"/><path d="M62.8165 1.80823V2.66106L65.9603 1.80823H62.8165Z" fill="#B1E9F1"/><path d="M73.2911 8.93555V8.32031L71.3174 8.93555H73.2911Z" fill="#B1E9F1"/><path d="M70.4829 10.4195L73.4094 9.28662H70.4829V10.4195Z" fill="#B1E9F1"/><path d="M62.4314 2.75769V1.91541L59.3277 2.75769H62.4314Z" fill="#B1E9F1"/><path d="M70.8817 1.60754V2.23625L72.8965 1.60754H70.8817Z" fill="#B1E9F1"/><path d="M70.8817 3.49109V4.1113L72.8716 3.49109H70.8817Z" fill="#B1E9F1"/><path d="M70.8817 4.43347V5.06335L72.9012 4.43347H70.8817Z" fill="#B1E9F1"/><path d="M73.2913 4.2252V3.60059L71.2859 4.2252H73.2913Z" fill="#B1E9F1"/><path d="M73.291 3.28384V2.65308L71.2698 3.28384H73.291Z" fill="#B1E9F1"/><path d="M71.2798 0.817749V1.23992L72.5322 0.817749H71.2798Z" fill="#B1E9F1"/><path d="M70.8817 2.54968V2.96511V3.16638L72.8557 2.54968H70.8817Z" fill="#B1E9F1"/><path d="M70.8817 5.37537V5.99558L72.8704 5.37537H70.8817Z" fill="#B1E9F1"/><path d="M72.8918 1.32834V0.942505L71.7457 1.32834H72.8918Z" fill="#B1E9F1"/><path d="M73.2909 5.16763V4.55151L71.316 5.16763H73.2909Z" fill="#B1E9F1"/><path d="M149.979 74.0169C149.975 73.8414 149.967 73.6665 149.961 73.4913C149.97 73.7992 149.979 74.1069 149.984 74.4156H125.685L125.7 74.5129C125.887 75.7405 124.944 76.8083 123.764 77.1655C123.492 77.2478 123.207 77.2926 122.921 77.2926H89.9394H89.9388C89.9373 77.2926 89.9361 77.2923 89.9347 77.2923C89.8333 77.292 89.7322 77.2856 89.6314 77.2744C89.596 77.2706 89.5614 77.2636 89.5263 77.2583C89.4595 77.2484 89.393 77.2381 89.3268 77.2238C89.2863 77.215 89.2465 77.2038 89.2063 77.1936C89.1463 77.1781 89.0868 77.1613 89.0279 77.1423C88.9869 77.1288 88.9465 77.1145 88.9061 77.0992C88.8495 77.0781 88.7936 77.0556 88.7382 77.0313C88.6986 77.014 88.6594 76.9964 88.6207 76.9774C88.5653 76.9501 88.5114 76.9208 88.4578 76.8906C88.4224 76.8707 88.3866 76.8514 88.3518 76.83C88.2943 76.7945 88.2393 76.7562 88.1845 76.7172C88.1569 76.6976 88.1282 76.6791 88.1013 76.6586C88.0216 76.5977 87.9448 76.5335 87.8725 76.4655C87.8663 76.4597 87.8607 76.453 87.8546 76.4471C87.789 76.3841 87.7271 76.3185 87.6689 76.2502C87.6645 76.2449 87.6592 76.2405 87.6548 76.2353L87.6562 76.2341C87.2558 75.7563 87.0422 75.156 87.1594 74.5126L87.1772 74.4154H72.8763L79.193 75.986C79.626 75.635 80.1765 75.4232 80.7741 75.4232H82.5167C83.6786 75.4232 84.6603 76.2206 84.948 77.2949H125.732C126.703 77.2949 127.558 77.8642 128.051 78.7176L128.054 78.7167C128.067 78.7384 128.076 78.7624 128.088 78.7844C128.132 78.8647 128.172 78.9473 128.209 79.032C128.224 79.0662 128.24 79.0999 128.254 79.1351C128.3 79.2493 128.34 79.3662 128.373 79.4872C128.379 79.5089 128.383 79.5315 128.388 79.5531C128.415 79.6586 128.436 79.7667 128.453 79.8763C128.458 79.9123 128.463 79.9481 128.468 79.9844C128.483 80.1159 128.494 80.2489 128.494 80.3849C128.494 80.3855 128.494 80.3858 128.494 80.3861V80.3866V83.8366C128.529 83.9374 128.525 84.0482 128.494 84.1583V85.8192C128.617 85.97 128.738 86.1215 128.855 86.2774L129.72 85.9627C129.98 85.869 130.266 85.8854 130.415 86.1192L130.846 86.8003C130.994 87.0344 130.886 87.3001 130.689 87.4949L130.038 88.1392C130.265 88.5646 130.472 89.0037 130.657 89.4531L131.57 89.3632C131.846 89.3362 132.119 89.4241 132.204 89.6872L132.452 90.4542C132.538 90.7173 132.368 90.9488 132.128 91.0876L131.337 91.5493C131.45 92.0163 131.541 92.493 131.607 92.9761L132.517 93.1164C132.79 93.1595 133.034 93.3124 133.051 93.5881L133.1 94.3929C133.118 94.6695 132.896 94.8511 132.629 94.9264L131.744 95.1775C131.738 95.6667 131.708 96.1498 131.655 96.6256L132.501 96.988C132.755 97.0976 132.953 97.3062 132.901 97.5772L132.749 98.3691C132.697 98.6406 132.436 98.7616 132.159 98.769L131.244 98.7918C131.117 99.2629 130.967 99.724 130.796 100.174L131.523 100.734C131.742 100.903 131.881 101.154 131.763 101.405L131.42 102.133C131.302 102.384 131.02 102.436 130.749 102.374L129.856 102.169C129.616 102.591 129.357 103 129.078 103.394L129.645 104.119C129.815 104.337 129.887 104.615 129.711 104.828L129.197 105.449C129.02 105.662 128.733 105.643 128.488 105.515L127.671 105.093C127.335 105.441 126.983 105.773 126.614 106.087L126.984 106.93C127.094 107.184 127.095 107.472 126.871 107.634L126.219 108.107C125.995 108.27 125.722 108.179 125.515 107.995L124.831 107.385C124.421 107.639 123.996 107.873 123.559 108.086L123.707 108.992C123.751 109.265 123.681 109.544 123.423 109.645L122.673 109.942C122.416 110.043 122.175 109.888 122.021 109.658L121.511 108.899C121.051 109.042 120.581 109.163 120.103 109.26L120.021 110.174C119.995 110.45 119.857 110.702 119.583 110.737L118.784 110.837C118.508 110.872 118.313 110.661 118.221 110.4L117.915 109.535C117.672 109.547 117.429 109.553 117.183 109.553C116.942 109.553 116.702 109.547 116.464 109.536L116.156 110.403C116.062 110.664 115.867 110.874 115.592 110.84L114.793 110.738C114.519 110.703 114.382 110.451 114.358 110.175L114.277 109.263C113.798 109.166 113.328 109.046 112.868 108.904L112.356 109.664C112.201 109.893 111.959 110.048 111.702 109.947L110.953 109.649C110.695 109.547 110.626 109.269 110.671 108.996L110.819 108.092C110.382 107.879 109.958 107.645 109.546 107.392L108.86 108.003C108.652 108.187 108.38 108.276 108.156 108.114L107.504 107.64C107.28 107.477 107.282 107.189 107.394 106.936L107.763 106.094C107.394 105.782 107.041 105.45 106.705 105.102L105.886 105.525C105.639 105.651 105.353 105.67 105.176 105.457L104.664 104.835C104.486 104.622 104.56 104.345 104.731 104.126L105.296 103.405C105.017 103.011 104.757 102.602 104.517 102.18L103.622 102.384C103.352 102.445 103.069 102.393 102.951 102.142L102.609 101.413C102.491 101.162 102.63 100.912 102.85 100.743L103.576 100.186C103.404 99.7358 103.254 99.2746 103.127 98.8041L102.209 98.7801C101.932 98.7722 101.671 98.6515 101.619 98.3787L101.469 97.5874C101.417 97.3155 101.614 97.107 101.87 96.9983L102.714 96.6385C102.66 96.1621 102.63 95.6787 102.623 95.1904L101.737 94.9375C101.525 94.8769 101.344 94.7486 101.286 94.5605H82.033L82.1077 94.791C82.1748 94.999 82.0412 95.181 81.8525 95.2906L81.23 95.6541C81.3193 96.0221 81.3902 96.3965 81.4427 96.7768L82.1587 96.8875C82.374 96.9212 82.5653 97.0419 82.5788 97.2587L82.6184 97.8921C82.6318 98.1098 82.4566 98.2533 82.2466 98.3122L81.5508 98.5103C81.5461 98.8946 81.5221 99.2755 81.4796 99.6505L82.1467 99.935C82.3468 100.021 82.502 100.186 82.4613 100.399L82.3412 101.023C82.3002 101.237 82.0957 101.332 81.8774 101.337L81.1567 101.355C81.0568 101.726 80.9385 102.089 80.8037 102.444L81.3771 102.884C81.5493 103.017 81.6586 103.215 81.5663 103.412L81.2953 103.986C81.2027 104.183 80.9807 104.224 80.768 104.175L80.0645 104.014C79.8759 104.346 79.6711 104.668 79.4511 104.978L79.8979 105.549C80.0314 105.721 80.0886 105.939 79.9497 106.107L79.5448 106.596C79.406 106.763 79.1804 106.748 78.9864 106.648L78.3442 106.316C78.08 106.59 77.8022 106.851 77.5116 107.097L77.8028 107.763C77.8901 107.962 77.8907 108.188 77.7144 108.316L77.2011 108.689C77.0244 108.817 76.81 108.746 76.6474 108.6L76.1086 108.119C75.7852 108.319 75.4509 108.504 75.1075 108.672L75.2235 109.385C75.2578 109.6 75.2027 109.82 75.0003 109.9L74.4105 110.133C74.2078 110.213 74.0171 110.091 73.8958 109.91L73.495 109.312C73.1326 109.425 72.7629 109.52 72.3864 109.597L72.3214 110.316C72.3012 110.533 72.1934 110.732 71.9771 110.759L71.3476 110.838C71.1316 110.865 70.9778 110.7 70.9052 110.494L70.6638 109.813C70.473 109.822 70.2812 109.827 70.0878 109.827C69.8974 109.827 69.7087 109.822 69.5215 109.813L69.2783 110.497C69.2054 110.701 69.0516 110.867 68.8351 110.84L68.2061 110.76C67.9893 110.732 67.8817 110.534 67.8624 110.316L67.7985 109.599C67.4221 109.522 67.0518 109.428 66.6899 109.316L66.2865 109.914C66.1649 110.095 65.9745 110.217 65.7718 110.136L65.182 109.903C64.9793 109.822 64.9242 109.603 64.96 109.387L65.0766 108.677C64.7326 108.509 64.3983 108.325 64.0749 108.125L63.5341 108.606C63.3709 108.751 63.1564 108.822 62.9798 108.693L62.4671 108.32C62.2907 108.192 62.2919 107.966 62.3801 107.767L62.6707 107.104C62.3807 106.857 62.1023 106.597 61.8378 106.323L61.193 106.655C60.9993 106.755 60.7734 106.77 60.6346 106.602L60.2306 106.113C60.0917 105.945 60.1488 105.726 60.2836 105.555L60.7292 104.986C60.5092 104.676 60.3044 104.354 60.116 104.022L59.41 104.183C59.1978 104.231 58.9758 104.19 58.8823 103.993L58.6125 103.419C58.5199 103.222 58.6298 103.024 58.8032 102.891L59.3748 102.452C59.2392 102.098 59.1211 101.735 59.0206 101.365L58.2979 101.345C58.0805 101.339 57.8751 101.244 57.8341 101.03L57.716 100.407C57.675 100.192 57.83 100.028 58.0312 99.9432L58.6963 99.6593C58.6535 99.2849 58.6298 98.9043 58.6245 98.5197L57.9264 98.3204C57.7163 98.2601 57.542 98.1171 57.5552 97.8988L57.5956 97.266C57.6088 97.0487 57.801 96.9285 58.0163 96.8957L58.7303 96.7861C58.7827 96.4056 58.8539 96.0306 58.9424 95.6629L58.3184 95.2979C58.1303 95.188 57.997 95.0055 58.0638 94.7981L58.2598 94.1946C58.3274 93.9871 58.5422 93.9189 58.7596 93.9403L59.4771 94.012C59.6221 93.6578 59.7844 93.3121 59.9637 92.9767L59.4495 92.4681C59.2951 92.3146 59.2104 92.1042 59.3273 91.9205L59.6675 91.385C59.7841 91.201 60.0097 91.1878 60.2145 91.2628L60.8927 91.511C61.1209 91.2048 61.3644 90.911 61.621 90.6306L61.2492 90.008C61.137 89.8205 61.1077 89.5964 61.2665 89.4476L61.7288 89.0134C61.8879 88.8637 62.11 88.9073 62.289 89.0307L62.8854 89.4405C63.1813 89.2009 63.4895 88.9768 63.8089 88.7676L63.6026 88.0724C63.5411 87.8638 63.5684 87.6388 63.7597 87.5342L64.3154 87.2286C64.5067 87.1235 64.7106 87.2204 64.8536 87.3851L65.3273 87.9279C65.673 87.7703 66.0278 87.6285 66.3908 87.5052L66.3647 86.7839C66.3565 86.5656 66.4392 86.3553 66.6498 86.3008L67.2645 86.1432C67.4757 86.0896 67.6488 86.2346 67.747 86.4291L68.0713 87.0734C68.4437 87.0069 68.8222 86.9594 69.2054 86.9298L69.3604 86.222C69.4066 86.009 69.5388 85.8259 69.757 85.8259H70.391C70.6093 85.8259 70.7408 86.009 70.7877 86.222L70.8721 86.6093L72.4544 84.7774L70.3447 83.1511C70.0031 82.8874 69.9387 82.3923 70.2023 82.0507L70.5721 81.5711L62.8477 75.1114L62.6748 75.6991L58.6271 74.4154H58.4739L49.6714 78.4662C49.5524 79.4178 48.7345 80.1608 47.7521 80.1608H46.2483C45.7576 80.1608 45.3094 79.9741 44.9675 79.6703C44.0165 80.1224 42.9056 80.4139 41.6013 80.4587C39.3776 80.5352 37.4669 79.8739 35.7964 78.7507L35.7938 78.7528C35.7624 78.7317 35.7322 78.7088 35.7009 78.6874C35.6191 78.6315 35.538 78.5743 35.4574 78.516C35.3651 78.4492 35.2737 78.3801 35.1829 78.3104C35.1067 78.2521 35.03 78.1947 34.9547 78.1343C34.8141 78.0215 34.6755 77.9049 34.5384 77.7857C34.4631 77.72 34.389 77.6521 34.3146 77.5847C34.2325 77.5103 34.1508 77.435 34.0699 77.3582C33.9955 77.2876 33.9214 77.217 33.8481 77.1446C33.7585 77.0562 33.6703 76.9656 33.5821 76.8748C33.4811 76.7702 33.3809 76.6645 33.2815 76.5567C33.1931 76.4606 33.1049 76.3642 33.0179 76.2657C32.9487 76.1872 32.8805 76.1075 32.8122 76.0279C32.7375 75.9403 32.6634 75.8518 32.5898 75.7627C32.5245 75.6833 32.4589 75.6045 32.3944 75.5239C32.2857 75.3886 32.1788 75.2512 32.0725 75.1123C32.001 75.0189 31.9307 74.9239 31.8604 74.8293C31.7862 74.7294 31.7124 74.6292 31.6395 74.5279C31.6125 74.4904 31.5844 74.4537 31.5574 74.4159H0.0161133C0.0213867 74.1028 0.0301758 73.7905 0.0392578 73.4781C0.0336914 73.6563 0.0254883 73.8335 0.0210937 74.0119C0.00761719 74.5703 0 75.1299 0 75.6915C0 81.0593 0.568359 86.2935 1.64033 91.3419C3.38789 89.7121 5.84326 88.7881 8.63877 88.3472L8.63848 88.3428L8.7498 88.3299C9.32432 88.2423 9.91201 88.1737 10.5114 88.1245L10.5387 88.1213V88.1225C14.4952 87.8029 18.927 88.2804 22.9356 89.0204C24.4424 89.2988 25.8841 89.6169 27.2719 89.9647V89.9612L27.2924 89.9696C33.7611 91.5933 38.944 93.9238 42.9097 96.5239L42.91 96.5207L44.4855 97.5786L44.4797 97.6097C48.847 100.812 51.5001 104.308 53.0077 107.274C54.6108 110.427 54.9211 112.979 54.0179 115.382C53.1152 117.786 50.998 120.041 48.9305 121.617C46.8636 123.194 44.7979 123.32 40.8721 124.09L21.2083 127.947C34.8363 141.974 53.8986 150.692 75 150.692C116.422 150.692 150 117.113 150 75.6915C150 75.1317 149.992 74.5736 149.979 74.0169ZM21.6539 87.6259C20.5512 87.6259 19.6573 86.7965 19.6573 85.7732C19.6573 85.6164 19.6787 85.4638 19.7183 85.3182C19.6371 85.3276 19.5545 85.3323 19.4707 85.3323H19.4511C19.0477 85.7773 18.3375 86.0723 17.5283 86.0723C16.754 86.0723 16.0702 85.8019 15.6595 85.3885C15.5279 85.4008 15.3917 85.4067 15.2534 85.4067C13.926 85.4067 12.8496 84.8436 12.8496 84.149C12.8496 83.4543 13.926 82.8912 15.2534 82.8912C15.7031 82.8912 16.1244 82.9557 16.4842 83.0682C16.7962 82.9548 17.1498 82.8912 17.5257 82.8912C17.7806 82.1201 18.5552 81.5591 19.4704 81.5591C20.5937 81.5591 21.5042 82.404 21.5042 83.4455C21.5042 83.6131 21.4808 83.7763 21.4365 83.9307C21.5077 83.9234 21.5801 83.9198 21.6533 83.9198C22.7558 83.9198 23.6496 84.7492 23.6496 85.7726C23.6502 86.7965 22.7563 87.6259 21.6539 87.6259ZM44.2181 91.5473C43.9175 91.5473 43.631 91.4855 43.3679 91.3738C43.0008 91.9618 42.2766 92.3611 41.4431 92.3611C40.2378 92.3611 39.2607 91.525 39.2607 90.4929C39.2607 90.3297 39.2848 90.1721 39.3308 90.0212C39.0756 90.1882 38.7823 90.3025 38.4677 90.3446C38.2052 90.5442 37.8937 90.6587 37.5595 90.6587C37.0884 90.6587 36.6615 90.4299 36.3536 90.0593C35.9394 90.2538 35.4771 90.3625 34.9887 90.3625C33.2215 90.3625 31.7889 88.9384 31.7889 87.1815C31.7889 85.4245 33.2218 84.0004 34.9887 84.0004C35.5746 84.0004 36.1233 84.1569 36.5959 84.4308C37.391 83.0442 39.1749 82.0771 41.2474 82.0771C44.0604 82.0771 46.3409 83.8574 46.3409 86.0532C46.3409 86.5774 46.2105 87.0775 45.9744 87.5357C46.3093 87.9605 46.5114 88.508 46.5114 89.1054C46.5111 90.4539 45.4846 91.5473 44.2181 91.5473Z" fill="#BBA9A3"/><path d="M7.70864 108.837C6.94868 107.297 6.24028 105.728 5.58521 104.13C6.24028 105.728 6.94868 107.297 7.70864 108.837Z" fill="#BBA9A3"/><path d="M2.55907 95.1668C2.22245 93.9118 1.91718 92.6438 1.64471 91.3635C1.91718 92.6438 2.22245 93.9118 2.55907 95.1668Z" fill="#BBA9A3"/><path d="M3.70123 99.0086C3.30924 97.8089 2.94684 96.596 2.61432 95.3705C2.94684 96.596 3.30924 97.8089 3.70123 99.0086Z" fill="#BBA9A3"/><path d="M5.52664 103.987C5.04529 102.806 4.59294 101.61 4.17078 100.401C4.59294 101.61 5.04529 102.806 5.52664 103.987Z" fill="#BBA9A3"/><path d="M9.53539 112.305C8.90902 111.188 8.31049 110.053 7.74066 108.901C8.31049 110.053 8.90902 111.188 9.53539 112.305Z" fill="#BBA9A3"/><path d="M4.14542 100.327C4.00714 99.9296 3.87238 99.5303 3.74054 99.1295C3.87238 99.5303 4.00714 99.9296 4.14542 100.327Z" fill="#BBA9A3"/><path d="M12.2564 116.786C11.3104 115.344 10.4127 113.869 9.56573 112.361C10.4127 113.869 11.3104 115.344 12.2564 116.786Z" fill="#BBA9A3"/><path d="M21.2004 127.94C20.0007 126.704 18.8432 125.428 17.7302 124.113C18.8434 125.428 20.0007 126.704 21.2004 127.94Z" fill="#BBA9A3"/><path d="M49.0272 75.477L50.5245 74.4155H49.4994C49.3617 74.7639 49.2068 75.1195 49.0272 75.477Z" fill="#BBA9A3"/><path d="M149.938 72.8233C149.933 72.6897 149.93 72.5555 149.925 72.4222C149.924 72.4146 149.924 72.4073 149.924 72.3997H149.921C149.927 72.5409 149.933 72.6821 149.938 72.8233Z" fill="#BBA9A3"/><path d="M0.0787476 72.3997H0.0758179H0.0755249C0.074646 72.4225 0.0740601 72.4457 0.0731812 72.4685C0.0676147 72.5992 0.064978 72.7304 0.0599976 72.8611C0.0658569 72.7073 0.0720093 72.5535 0.0787476 72.3997Z" fill="#BBA9A3"/><path d="M72.9836 79.7321L75.2837 81.5051L76.661 79.9108L68.287 76.8235L71.9061 79.8498C72.1736 79.5311 72.6508 79.4751 72.9836 79.7321Z" fill="#BBA9A3"/><path d="M17.7046 124.082C15.7561 121.778 13.9441 119.354 12.2809 116.823C13.9441 119.354 15.7558 121.777 17.7046 124.082Z" fill="#BBA9A3"/><path d="M48.9307 121.617C50.9982 120.041 53.1155 117.786 54.0182 115.382C54.9214 112.979 54.6114 110.427 53.008 107.274C51.5004 104.308 48.8475 100.811 44.48 97.6095L40.5554 118.609L42.9097 96.5238C38.9437 93.9237 33.7608 91.5931 27.2924 89.9695L29.2655 90.7878L26.4284 114.17L27.2719 89.9645C25.8841 89.6168 24.4424 89.2986 22.9356 89.0203C18.9269 88.2799 14.4952 87.8027 10.5387 88.1223L10.0148 103.185L8.63876 88.3467C5.84325 88.7877 3.38788 89.7117 1.64032 91.3415C1.64178 91.3488 1.64354 91.3558 1.64501 91.3631C1.91718 92.6434 2.22274 93.9114 2.55936 95.1665C2.57753 95.2344 2.59598 95.3021 2.61444 95.3701C2.94667 96.5956 3.30936 97.8085 3.70135 99.0082C3.71454 99.0486 3.72743 99.089 3.74061 99.1292C3.87245 99.5299 4.00721 99.929 4.1455 100.327C4.15399 100.351 4.16278 100.376 4.17128 100.4C4.59344 101.61 5.04579 102.806 5.52714 103.986C5.54647 104.034 5.5661 104.082 5.58573 104.13C6.24081 105.727 6.94921 107.297 7.70917 108.837C7.71971 108.858 7.73026 108.879 7.74081 108.901C8.31063 110.053 8.90917 111.187 9.53553 112.305C9.54579 112.324 9.55604 112.342 9.5663 112.36C10.4133 113.868 11.3109 115.344 12.2569 116.786C12.2651 116.798 12.273 116.81 12.2812 116.822C13.9441 119.353 15.7561 121.777 17.705 124.082C17.7135 124.092 17.722 124.102 17.7305 124.112C18.8434 125.427 20.001 126.703 21.2007 127.939C21.2033 127.941 21.2059 127.944 21.2086 127.947L40.8723 124.09C44.7981 123.32 46.8639 123.194 48.9307 121.617Z" fill="#9F877E"/><path d="M8.75037 88.3295L10.512 88.1241C9.91228 88.1734 9.32459 88.2419 8.75037 88.3295Z" fill="#9F877E"/><path d="M10.5381 88.1224L10.5384 88.1212L10.5112 88.1244L8.74956 88.3295L8.63794 88.3427L8.63823 88.3468L10.0143 103.185L10.5381 88.1224Z" fill="#6C4C40"/><path d="M29.2657 90.7882L27.2922 89.9699L27.272 89.9614L27.2717 89.9646L26.4283 114.17L29.2657 90.7882Z" fill="#6C4C40"/><path d="M44.4797 97.6098L44.4855 97.5788L42.9099 96.5209L42.9096 96.5241L40.5551 118.609L44.4797 97.6098Z" fill="#6C4C40"/><path d="M21.6536 83.9201C21.5804 83.9201 21.508 83.9236 21.4368 83.9309C21.4811 83.7765 21.5045 83.6136 21.5045 83.4457C21.5045 82.4042 20.594 81.5593 19.4707 81.5593C18.5552 81.5593 17.7809 82.1204 17.526 82.8915C17.1501 82.8915 16.7965 82.955 16.4845 83.0684C16.1247 82.9556 15.7034 82.8915 15.2537 82.8915C13.9263 82.8915 12.8499 83.4545 12.8499 84.1492C12.8499 84.8438 13.9263 85.4069 15.2537 85.4069C15.3917 85.4069 15.5279 85.401 15.6598 85.3887C16.0705 85.8021 16.7543 86.0725 17.5286 86.0725C18.3381 86.0725 19.048 85.7772 19.4514 85.3325H19.471C19.5548 85.3325 19.6374 85.3278 19.7186 85.3184C19.679 85.464 19.6576 85.6166 19.6576 85.7734C19.6576 86.7967 20.5515 87.6261 21.6542 87.6261C22.7567 87.6261 23.6505 86.7967 23.6505 85.7734C23.6499 84.7495 22.7561 83.9201 21.6536 83.9201Z" fill="#6C4C40"/><path d="M47.865 26.9455C52.1178 26.9455 55.5642 23.4987 55.5642 19.2468C55.5642 14.9947 52.1178 11.5482 47.865 11.5482C43.6137 11.5482 40.1664 14.9947 40.1664 19.2468C40.1664 23.4987 43.6137 26.9455 47.865 26.9455Z" fill="#FF0"/><path d="M46.3411 86.0534C46.3411 83.8576 44.0606 82.0773 41.2476 82.0773C39.1754 82.0773 37.3915 83.0444 36.5961 84.431C36.1238 84.1571 35.5748 84.0006 34.9889 84.0006C33.2217 84.0006 31.7891 85.4247 31.7891 87.1817C31.7891 88.9386 33.222 90.3627 34.9889 90.3627C35.4772 90.3627 35.9396 90.254 36.3538 90.0595C36.6617 90.4298 37.0886 90.6589 37.5597 90.6589C37.8939 90.6589 38.2054 90.5441 38.4679 90.3448C38.7825 90.3027 39.0758 90.1884 39.331 90.0214C39.2853 90.1726 39.2609 90.3302 39.2609 90.4931C39.2609 91.5252 40.2383 92.3614 41.4433 92.3614C42.2768 92.3614 43.001 91.962 43.3681 91.374C43.6312 91.4857 43.9177 91.5475 44.2183 91.5475C45.4848 91.5475 46.5113 90.4541 46.5113 89.1059C46.5113 88.5088 46.3095 87.9613 45.9743 87.5362C46.2107 87.0777 46.3411 86.5776 46.3411 86.0534Z" fill="#6C4C40"/><path d="M70.4961 9.07859H70.0971V11.1179H62.034V10.8267H59.8757V11.1179H59.6059V12.2825H59.8757V17.2296H57.4485V18.3938H59.8757V25.0879H57.7183V26.2515H59.8757V33.6724H44.4946V31.0533H42.0665V33.6724H40.1712V34.837H42.0665V41.9673H40.1712V43.1306H42.0665V48.3692H39.909V49.5329H42.0665V55.4995H40.4349V56.6637H42.0665V61.6108H36.1306V61.7116L38.4916 63.0616L38.9003 61.6322L42.3928 63.5602C43.6122 64.5549 44.6059 65.7938 45.169 67.1848C45.169 67.1851 45.1693 67.1851 45.1693 67.1854L46.6212 67.2472C47.3727 66.344 48.5 66.2151 49.425 66.6024L52.5588 64.0263C52.6204 63.9967 52.6825 63.9745 52.7443 63.9587C52.7666 63.9528 52.7888 63.9519 52.8111 63.9478C52.8503 63.9405 52.8896 63.9326 52.9286 63.9302C52.9564 63.9288 52.9834 63.9317 53.0109 63.9326C53.0437 63.9338 53.0765 63.9332 53.1087 63.9376C53.1392 63.9417 53.1685 63.9499 53.1984 63.9566C53.2265 63.9631 53.2549 63.9683 53.2825 63.9771C53.3141 63.9871 53.3443 64.0009 53.3748 64.0137C53.3988 64.024 53.4231 64.0334 53.4465 64.0454C53.4782 64.0615 53.5078 64.0805 53.5379 64.0996C53.5584 64.1125 53.5793 64.1248 53.5989 64.1391C53.6291 64.1608 53.6572 64.1845 53.6853 64.2089C53.7029 64.2241 53.7208 64.239 53.7375 64.2551C53.7647 64.2812 53.7896 64.3091 53.8145 64.3378C53.8239 64.3486 53.835 64.3583 53.8441 64.3694L53.8423 64.3709C53.9824 64.5431 54.0796 64.7503 54.1116 64.97L60.2153 70.0744L63.9896 71.2287L63.7227 72.1401L72.8768 74.4162H87.1778L89.1117 63.7937H82.0028V56.664H90.4098L90.6219 55.4998H82.0031V49.5332H97.9233V50.2076H114.596C114.088 50.2076 113.672 49.7916 113.672 49.2827V49.2821C113.672 48.8145 114.025 48.4293 114.477 48.3695H100.082V43.1309H115.324C115.324 42.7483 115.324 42.3601 115.325 41.9676H100.082V34.8373H102.401V33.6727H100.082V26.2518H102.781V25.0882H100.082V18.3938H102.781V17.2296H100.082V16.7933H97.9233V17.2296H82.0031V12.2825H83.6217V11.1179H82.0031V7.77136H79.8451V11.1179H74.2092V9.07859H73.6763V2.79529H92.6894H92.69C92.6862 2.79441 92.6824 2.79353 92.6786 2.79265C92.2892 2.69861 91.8987 2.6072 91.5073 2.51814C91.1127 2.42849 90.7166 2.34265 90.3193 2.25945C90.2604 2.24714 90.2021 2.23337 90.1432 2.22136H73.6757V1.40017H73.2767V0.713745C73.0318 0.719312 72.7877 0.728101 72.5434 0.735718C72.2393 0.745386 71.9352 0.757104 71.632 0.770288C71.3918 0.780835 71.1512 0.790503 70.9113 0.803394C70.906 0.803687 70.9007 0.803979 70.8955 0.804272V0.804565V1.40017H70.4961V1.60027H63.3108C62.8189 1.67732 62.3285 1.75789 61.8398 1.84402L58.7841 2.67195V2.45515L58.3983 2.53894V2.75779H57.464C57.4292 2.76599 57.3946 2.77478 57.3597 2.78328C57.1107 2.84275 56.8617 2.90281 56.6132 2.96521H56.6144H70.4959V9.07859H70.4961ZM59.8757 58.1177H58.2571V60.7378H55.0192V63.7934H45.8434V61.6111H44.4946V56.664H59.8757V58.1177ZM59.8757 55.4992H44.4946V55.3542H59.8757V55.4992ZM59.8757 53.8987H44.4946V49.5326H59.8757V53.8987ZM59.8757 46.9143H44.4946V43.1306H59.8757V46.9143ZM59.8757 41.093H44.4946V34.8367H59.8757V41.093ZM82.0025 18.3938H97.9227V25.0879H82.0025V18.3938ZM82.0025 26.2515H97.9227V33.6724H82.0025V26.2515ZM82.0025 34.8367H97.9227V41.967H82.0025V34.8367ZM82.0025 43.1306H97.9227V48.3692H82.0025V43.1306ZM70.483 10.5604L70.5064 10.5792H70.483V10.5604ZM70.483 10.786H73.4036L72.546 11.1182H70.4832L70.483 10.786ZM73.6382 63.0677V61.9747L73.8228 61.9035V63.0677H73.6382ZM73.8228 63.402V63.7931H73.6382V63.4735L73.8228 63.402ZM73.6382 61.568V60.4653L73.8228 60.3935V61.568H73.6382ZM73.6382 60.0686V58.9682L73.8228 58.897V60.0686H73.6382ZM73.6382 58.5689V57.4688L73.8228 57.397V58.5686L73.6382 58.5689ZM73.6382 57.0689V56.6634H73.8228V57.0689H73.6382ZM73.1531 53.1713L73.8228 52.9114V53.1713H73.1531ZM71.0686 41.967L73.8228 40.9006V41.967H71.0686ZM73.8228 43.1306V43.5716H70.7903L71.9285 43.1306H73.8228ZM73.6787 30.4715L73.8231 30.4149V30.4715H73.6787ZM73.8228 34.9208V36.0736H70.8459L73.8228 34.9208ZM70.8023 30.0748L73.8228 28.9053V30.0748H70.8023ZM72.021 25.0879L73.8228 24.39V25.0879H72.021ZM73.8228 26.2515V27.0762H70.7847L72.914 26.2515H73.8228ZM72.9591 17.2296L73.8228 16.8953V17.2296H72.9591ZM73.8228 18.3938V19.5762H70.7484L73.8052 18.3938H73.8228ZM73.8228 10.8798V11.1179H73.2082L73.8228 10.8798ZM70.483 12.2866H73.4296L70.483 13.4268V12.2866ZM73.8228 12.3897V13.5783H70.7525L73.8228 12.3897ZM70.483 13.7857H73.4255L70.483 14.926V13.7857ZM73.8228 13.8883V15.0771H70.7484L73.8228 13.8883ZM70.483 15.0508L70.5184 15.0774H70.483V15.0508ZM70.483 15.2854H73.4209L70.483 16.4221V15.2854ZM73.8228 15.3856V16.5774H70.7425L73.8228 15.3856ZM70.483 16.5634L70.5011 16.5774H70.483V16.5634ZM70.483 16.7851H73.4472L72.2982 17.2296H70.483V16.7851ZM70.483 18.3938H73.1431L70.483 19.4233V18.3938ZM70.483 19.5642L70.4991 19.5762H70.483V19.5642ZM70.483 19.7843H73.4194L70.483 20.921V19.7843ZM73.8228 19.883V21.076H70.7425L73.8228 19.883ZM70.483 21.2843H73.4458L70.483 22.4312V21.2843ZM73.8228 21.3935V22.576H70.7686L73.8228 21.3935ZM70.483 22.7834H73.4417L70.483 23.9289V22.7834ZM73.8228 22.8921V24.076H70.766L73.8228 22.8921ZM70.483 24.0543L70.5099 24.0757H70.483V24.0543ZM70.483 24.2834H73.4358L71.3601 25.0879H70.483V24.2834ZM70.483 26.2515H72.2519L70.483 26.9368V26.2515ZM70.483 27.2831H73.4853L70.483 28.4447V27.2831ZM73.8228 27.4079V28.5748H70.8082L73.8228 27.4079ZM70.483 28.7834H73.4794L70.483 29.9429V28.7834ZM70.483 30.2822H73.5055L73.0177 30.4715H70.483V30.2822ZM70.483 34.8367H73.3798L70.483 35.9573V34.8367ZM70.483 36.2807H73.4557L70.483 37.4318V36.2807ZM73.8228 36.3941V37.5727H70.7789L73.8228 36.3941ZM70.483 37.7807H73.449L70.483 38.9298V37.7807ZM73.8228 37.8921V39.0724H70.7727L73.8228 37.8921ZM70.483 39.2804H73.4753L70.483 40.4388V39.2804ZM73.8228 39.402V40.5724H70.7997L73.8228 39.402ZM70.483 40.7804H73.4718L70.483 41.9374V40.7804ZM70.483 43.1306H71.2681L70.483 43.4353V43.1306ZM70.483 43.779H73.4926L70.483 44.9447V43.779ZM73.8228 43.907V45.0716H70.8164L73.8228 43.907ZM70.483 45.2787H73.4718L70.483 46.4362V45.2787ZM73.8228 45.3991V46.5716H70.7935L73.8228 45.3991ZM70.483 46.7793H73.466L70.483 47.9336V46.7793ZM73.8228 46.8968V48.0704H70.7888L73.8228 46.8968ZM70.483 48.2784H73.4915L73.258 48.3689H70.4832V48.2784H70.483ZM73.8228 49.5329V49.5713H70.8149L70.9101 49.5329H73.8228ZM70.483 49.7784H73.4894L70.483 50.9421V49.7784ZM73.8228 49.9052V51.0701H70.8108L73.8228 49.9052ZM70.483 51.0669L70.4862 51.0701H70.483V51.0669ZM70.483 51.2781H73.4818L70.483 52.4391V51.2781ZM73.8228 51.4017V52.5701H70.8064L73.8228 51.4017ZM70.483 52.7775H73.5087L72.4921 53.1716H70.483V52.7775ZM72.2894 56.6634V57.0689H70.7712L71.8189 56.6634H72.2894ZM70.483 56.6634H71.158L70.483 56.9245V56.6634ZM70.483 57.2769H72.2894V57.7351L70.483 58.4344V57.2769ZM72.2894 57.9918V58.5689H70.7976L72.2894 57.9918ZM70.483 58.7763H72.2894V59.234L70.483 59.9333V58.7763ZM72.2894 59.4903V60.0686H70.795L72.2894 59.4903ZM70.483 60.2761H72.2894V60.731L70.483 61.4303V60.2761ZM72.2894 60.9874V61.568H70.7891L72.2894 60.9874ZM70.483 61.776H72.2894V62.241L70.483 62.9403V61.776ZM72.2894 62.4973V63.0677H70.8152L72.2894 62.4973ZM70.483 63.2758H72.2894V63.7395L72.15 63.7931H70.483V63.2758ZM67.7012 12.2825H70.0971V17.2296H67.7012V12.2825ZM62.034 12.2825H66.3524V17.2296H62.034V12.2825ZM62.034 18.3938H70.0971V25.0879H62.034V18.3938ZM62.034 26.2515H70.0971V30.4715H62.034V26.2515ZM70.0971 34.8367V41.967H66.8926V34.8367H70.0971ZM62.034 34.8367H65.8136V41.967H62.034V34.8367ZM62.034 43.1306H70.0971V48.3692H62.034V43.1306ZM62.034 49.5329H70.0971V53.1716H62.034V49.5329ZM62.034 58.1177V56.6634H70.0971V63.7931H68.7805V60.7375H64.1929V58.1175L62.034 58.1177ZM75.5258 12.2825H79.8445V17.2296H75.5258V12.2825ZM74.2086 18.3938H79.8445V25.0879H74.2086V18.3938ZM74.2086 26.2515H79.8445V30.4715H74.2086V26.2515ZM74.2086 34.8367H79.8445V41.967H74.2086V34.8367ZM74.2086 43.1306H79.8445V48.3692H74.2086V43.1306ZM74.2086 49.5329H79.8445V53.1716H74.2086V49.5329ZM74.2086 56.6634H79.8445V63.7931H74.2086V56.6634ZM73.8228 9.3821V10.5792H70.7326L73.8228 9.3821ZM73.2914 1.72507V2.34265H71.3124L73.2914 1.72507ZM71.2801 0.817749H72.5326L71.2801 1.23992V0.817749ZM72.892 0.942554V1.32839H71.7459L72.892 0.942554ZM70.882 1.60759H72.8967L70.882 2.2366V1.60759ZM70.882 2.96521V2.54978H72.8557L70.882 3.16648V2.96521ZM73.2914 2.6532V3.28396H71.2702L73.2914 2.6532ZM70.882 3.49109H72.8718L70.882 4.11101V3.49109ZM73.2914 3.60066V4.22556H71.286L73.2914 3.60066ZM70.882 4.43357H72.9014L70.882 5.06375V4.43357ZM73.2914 4.55164V5.16775H71.3165L73.2914 4.55164ZM70.882 5.37546H72.8704L70.882 5.99568V5.37546ZM73.2914 5.48445V6.10994H71.2854L73.2914 5.48445ZM70.882 6.31794H72.8868L70.882 6.94285V6.31794ZM73.2914 6.43074V7.05154H71.303L73.2914 6.43074ZM70.882 7.25925H72.8918L70.882 7.88591V7.25925ZM73.2914 7.37498V7.99314H71.3077L73.2914 7.37498ZM70.882 8.20144H72.9014L70.882 8.83162V8.20144ZM73.2914 8.32039V8.93562H71.3176L73.2914 8.32039ZM73.4094 9.2866L70.483 10.4195V9.2866H73.4094ZM62.4313 2.75779H59.3276L62.4313 1.9155V2.75779ZM62.8166 1.80828H65.9604L62.8166 2.66111V1.80828ZM66.4631 2.75779H63.3172L66.4631 1.90408V2.75779ZM66.8501 1.80828H70.0532L66.8501 2.67722V1.80828ZM67.4085 2.75779L70.4961 1.92019V2.75779H67.4085Z" fill="#9C9C9C"/><path d="M32.7297 60.4535L33.0338 60.7435C32.9506 60.6386 32.8507 60.5411 32.7297 60.4535Z" fill="#9C9C9C"/><path d="M142.986 64.9583V59.8648H135.971V63.7935H132.193V56.6638H134.351V55.4995H132.193V49.5329H133.825V48.3693H132.193V43.1307H134.087V41.9673H119.51V38.6207H117.082V41.9673H116.743V43.1307H117.082V48.357H117.698C118.207 48.357 118.623 48.7733 118.623 49.2819V49.2824C118.623 49.791 118.207 50.2074 117.698 50.2074H119.51V49.5329H130.304V55.4995H122.815L122.864 55.8224L122.992 56.6638H130.304V63.7935H124.074L125.685 74.4159H149.984C149.978 74.1072 149.97 73.7995 149.961 73.4916C149.954 73.2687 149.946 73.046 149.938 72.8234C149.933 72.6822 149.927 72.5409 149.921 72.4C149.899 71.8926 149.874 71.3861 149.842 70.8816C149.84 70.8502 149.838 70.8189 149.836 70.7875C149.761 69.6174 149.659 68.4546 149.53 67.3C149.529 67.2912 149.528 67.2822 149.527 67.2734C149.441 66.4982 149.342 65.7265 149.233 64.9586L142.986 64.9583ZM125.177 46.4782C122.385 46.9487 120.496 47.723 119.511 48.2122V43.1307H130.304V43.9771C129.572 44.7655 128.016 45.9994 125.177 46.4782Z" fill="#9C9C9C"/><path d="M50.9329 68.298C51.1122 68.9839 51.0047 69.8098 50.4405 70.7024C50.4405 70.7024 50.2887 72.4213 49.4995 74.4155H50.5246L56.7446 70.0063L52.8103 66.7163L50.9329 68.298Z" fill="#9C9C9C"/><path d="M0.0602417 72.8615C0.0526245 73.0669 0.0453003 73.2722 0.0394409 73.4782C0.0303589 73.7905 0.0215698 74.1028 0.0162964 74.416H31.5599C31.5251 74.3671 31.4917 74.317 31.4571 74.2677C31.3859 74.1664 31.3159 74.0641 31.2459 73.9616C31.1902 73.8801 31.1343 73.7993 31.0795 73.717C30.9682 73.55 30.8583 73.3818 30.7496 73.2122C30.6951 73.1269 30.6415 73.0408 30.5876 72.9549C30.5205 72.8483 30.4537 72.7411 30.3878 72.6336C30.3336 72.5451 30.2794 72.4566 30.2258 72.3675C30.1531 72.2471 30.0816 72.1264 30.0101 72.0051C29.951 71.905 29.8921 71.8045 29.8338 71.7037C29.7468 71.5528 29.6603 71.4019 29.5748 71.2502C29.527 71.1652 29.4799 71.0802 29.4327 70.9953C29.3674 70.8775 29.3023 70.7597 29.2379 70.6417C29.1931 70.5599 29.1485 70.4782 29.1043 70.3962C29.0102 70.2215 28.9168 70.0472 28.8248 69.8726C28.7902 69.8073 28.7562 69.742 28.722 69.6763C28.6452 69.5299 28.569 69.3834 28.4934 69.2372C28.4551 69.1631 28.4173 69.0889 28.3792 69.0148C28.3065 68.8727 28.2345 68.7309 28.163 68.5894C28.1351 68.5343 28.107 68.4793 28.0795 68.4242C27.9787 68.2241 27.8791 68.0249 27.7807 67.8265C27.7701 67.8054 27.7599 67.7843 27.7493 67.7633C27.2123 66.6822 26.7072 65.6348 26.2218 64.6724C26.2218 64.6724 27.1168 63.6283 27.8911 64.2227C28.5093 64.6962 29.7564 65.8994 30.2354 66.3667C29.9568 65.1462 30.0286 63.4771 31.7879 62.1799L32.363 60.248C32.2777 60.2132 32.1849 60.1818 32.0838 60.1546C30.4637 59.7186 28.5749 60.3002 28.3057 61.1732C28.0358 62.0463 26.1468 62.3375 25.0678 63.0652C24.4256 63.4979 24.0699 64.3434 23.8868 64.9578H21.8299V58.4093H19.0991V57.4261H17.5153V57.6784H16.6865V57.1551H17.8388L18.0286 55.1413C18.0488 55.1331 18.0649 55.124 18.0749 55.1111L19.001 53.9164V53.9158L19.4641 53.3184L19.9259 52.7214L20.3896 52.1243C20.3896 52.1234 20.3896 52.1234 20.3896 52.1234L20.8525 51.5263L21.3157 50.929L21.7774 50.3313H21.7789L22.2406 49.734L22.7038 49.1375C22.7038 49.1363 22.7038 49.1363 22.7038 49.1363L23.1661 48.5389L23.6293 47.9425L24.0922 47.3439L24.5554 46.7474L25.0185 46.1504V46.1489L25.4814 45.5524L25.9432 44.9553H25.944L26.4057 44.358C26.4057 44.358 26.4057 44.358 26.4057 44.3574C26.4072 44.3574 26.4072 44.3574 26.4072 44.3574L26.8689 43.7603C26.8704 43.7589 26.8704 43.7577 26.8716 43.7562C26.8742 43.7527 26.8757 43.7474 26.8757 43.7433C26.8763 43.7392 26.8777 43.7345 26.8763 43.7304C26.8763 43.729 26.8777 43.7278 26.8777 43.7263L26.6703 42.9459C26.7523 42.9649 26.842 42.9749 26.9354 42.9755V55.6897L24.3544 56.6656C24.304 56.6843 24.292 56.7198 24.3201 56.7482H22.6619V57.3107H31.5148V56.7482H30.193C30.1994 56.7242 30.1807 56.6993 30.1399 56.6849L27.1719 55.6871V42.9526C27.4396 42.901 27.6321 42.7639 27.6321 42.6022C27.6321 42.3963 27.3222 42.2284 26.9401 42.2284C26.5599 42.2284 26.2481 42.3963 26.2481 42.6022C26.2481 42.6901 26.3064 42.7698 26.4025 42.8337L25.3511 43.3906L25.3496 43.3915C25.3396 43.3967 25.3294 43.4029 25.325 43.4117L23.4734 45.8014L21.1584 48.7883L20.2344 49.9833L19.3071 51.1786L18.3825 52.3736L17.457 53.5683L16.5309 54.7634C16.5222 54.7742 16.5222 54.7862 16.5263 54.7976L10.7879 54.8266V56.7169H10.2096V57.5512H10.8928V57.156H14.2429V57.6793H13.0906V57.4469H11.6882V58.4099H7.52831V64.959H0.768054C0.491492 66.8887 0.28905 68.8414 0.162195 70.8148C0.161316 70.8268 0.16073 70.8388 0.159851 70.8511C0.127039 71.3659 0.101257 71.8827 0.0789917 72.4004C0.0722534 72.5536 0.0661011 72.7074 0.0602417 72.8615ZM17.9609 54.9289L17.3337 54.3107L18.2759 54.5228L17.9609 54.9289ZM18.4247 54.3289L17.8013 53.7148L18.7388 53.9249L18.4247 54.3289ZM18.8849 53.7365L18.2542 53.1151L19.1996 53.3284L18.8849 53.7365ZM19.3496 53.1371L18.7215 52.5183L19.6631 52.7304L19.3496 53.1371ZM19.8113 52.54L19.1838 51.9213L20.126 52.1331L19.8113 52.54ZM20.2768 51.9415L19.6508 51.3239L20.5889 51.5351L20.2768 51.9415ZM20.7406 51.34L20.1213 50.728L21.0535 50.9381L20.7406 51.34ZM21.205 50.7409L20.5874 50.1315L21.5161 50.341L21.205 50.7409ZM21.664 50.1473L21.0391 49.5321L21.9778 49.7433L21.664 50.1473ZM22.1243 49.5544L21.4935 48.933L22.4404 49.1457L22.1243 49.5544ZM22.5887 48.955L21.9605 48.3362L22.9033 48.548L22.5887 48.955ZM23.0518 48.3579L22.4223 47.7385L23.365 47.9512L23.0518 48.3579ZM23.5162 47.7593L22.889 47.1418L23.8282 47.353L23.5162 47.7593ZM23.98 47.1579L23.3606 46.5459L24.2929 46.7559L23.98 47.1579ZM24.4443 46.5588L23.8256 45.95L24.7557 46.1586L24.4443 46.5588ZM24.9087 45.9594L24.2946 45.3526L25.2181 45.5612L24.9087 45.9594ZM25.3724 45.3599L24.7616 44.7558L25.6798 44.9633L25.3724 45.3599ZM25.838 44.7593L25.2321 44.1608L26.1427 44.3662L25.838 44.7593ZM26.3026 44.1602L25.6985 43.5643L26.6058 43.7682L26.3026 44.1602ZM29.8815 56.747H24.5448L27.0558 55.7975L29.8815 56.747ZM26.9392 42.355C27.1915 42.355 27.3963 42.4657 27.3963 42.6013C27.3963 42.737 27.1918 42.8483 26.9392 42.8483C26.6876 42.8483 26.4822 42.737 26.4822 42.6013C26.4822 42.4657 26.6879 42.355 26.9392 42.355ZM26.4441 42.9884L26.6146 43.6326L25.6417 43.4137L26.4441 42.9884ZM25.4477 43.581L26.092 44.2174L25.1237 43.9985L25.4477 43.581ZM24.9831 44.1796L25.6253 44.813L24.6611 44.5962L24.9831 44.1796ZM24.5176 44.781L25.1551 45.4092L24.1982 45.1938L24.5176 44.781ZM24.0535 45.3796L24.6878 46.0056L23.7348 45.7909L24.0535 45.3796ZM23.5894 45.9796L24.219 46.6018L23.2722 46.3883L23.5894 45.9796ZM23.1248 46.5787L23.7538 47.1986L22.8087 46.9859L23.1248 46.5787ZM22.6584 47.1796L23.2818 47.7942L22.3458 47.5836L22.6584 47.1796ZM22.1955 47.7793L22.8154 48.3907L21.8832 48.1812L22.1955 47.7793ZM21.7326 48.376L22.354 48.9886L21.4206 48.778L21.7326 48.376ZM21.2688 48.9746L21.887 49.5854L20.9589 49.3759L21.2688 48.9746ZM20.8089 49.569L21.4323 50.1842L20.4954 49.973L20.8089 49.569ZM20.3501 50.1614L20.9808 50.7842L20.0325 50.5707L20.3501 50.1614ZM19.8857 50.7602L20.5147 51.381L19.5699 51.168L19.8857 50.7602ZM19.4193 51.3614L20.0428 51.9766L19.1064 51.7654L19.4193 51.3614ZM18.9561 51.9602L19.5769 52.5737L18.6441 52.3636L18.9561 51.9602ZM18.4932 52.5573L19.1146 53.1708L18.1812 52.9607L18.4932 52.5573ZM18.0286 53.1573L18.6474 53.7678L17.7178 53.5578L18.0286 53.1573ZM17.5698 53.7506L18.1947 54.3673L17.2566 54.1554L17.5698 53.7506ZM17.106 54.3491L17.728 54.9637L16.7932 54.7531L17.106 54.3491ZM13.0889 58.2602H17.5153V58.4093H13.0889V58.2602Z" fill="#9C9C9C"/><path d="M58.4763 74.4156H58.6295L58.5387 74.3868L58.4763 74.4156Z" fill="#9C9C9C"/><path d="M45.1696 67.1853C45.1696 67.185 45.1693 67.185 45.1693 67.1847C44.6063 65.7937 43.6125 64.5548 42.3932 63.5601L38.9007 61.6321L38.492 63.0615L36.131 61.7115L35.9121 61.5864L35.504 63.0152L35.4847 63.0802L33.0337 60.7432L32.7296 60.4532L32.3965 60.1356L32.3628 60.2484L31.7877 62.1802C30.0281 63.4772 29.9567 65.1466 30.2353 66.3671C30.3566 66.4854 30.431 66.5587 30.431 66.5587L45.1696 67.1853Z" fill="#6C4C40"/><path d="M122.19 52.0886C122.151 51.9908 122.108 51.8959 122.062 51.803C122.108 51.8959 122.151 51.9911 122.19 52.0886Z" fill="#FF0"/><path d="M122.33 52.5073C122.297 52.3872 122.26 52.2691 122.217 52.1543C122.26 52.2688 122.297 52.3872 122.33 52.5073Z" fill="#FF0"/><path d="M122.433 52.9804C122.413 52.853 122.386 52.7282 122.356 52.6049C122.386 52.7282 122.413 52.853 122.433 52.9804Z" fill="#FF0"/><path d="M122.017 51.7152C121.962 51.6114 121.902 51.5113 121.837 51.4152C121.902 51.5113 121.962 51.6114 122.017 51.7152Z" fill="#FF0"/><path d="M89.5264 77.2585C89.4596 77.2488 89.3928 77.2382 89.3268 77.2239C89.3928 77.2382 89.4596 77.2488 89.5264 77.2585Z" fill="#FF0"/><path d="M89.9347 77.2925C89.8333 77.2922 89.7322 77.2858 89.6315 77.2747C89.7322 77.2858 89.8333 77.2922 89.9347 77.2925Z" fill="#FF0"/><path d="M89.2064 77.1937C89.1466 77.1782 89.0868 77.1615 89.028 77.1425C89.0868 77.1615 89.1463 77.1782 89.2064 77.1937Z" fill="#FF0"/><path d="M87.8551 76.4472C87.7897 76.3842 87.7276 76.3186 87.6693 76.2504C87.7273 76.3189 87.7894 76.3842 87.8551 76.4472Z" fill="#FF0"/><path d="M88.9061 77.0993C88.8495 77.0782 88.7936 77.0557 88.7382 77.0314C88.7936 77.0557 88.8495 77.0782 88.9061 77.0993Z" fill="#FF0"/><path d="M88.1017 76.659C88.022 76.5981 87.9453 76.5339 87.8729 76.4659C87.9453 76.5339 88.022 76.5978 88.1017 76.659Z" fill="#FF0"/><path d="M88.352 76.8304C88.2946 76.795 88.2395 76.7566 88.1847 76.7177C88.2395 76.7563 88.2946 76.7947 88.352 76.8304Z" fill="#FF0"/><path d="M88.621 76.9778C88.5656 76.9509 88.5117 76.9213 88.4581 76.8911C88.5117 76.9213 88.5654 76.9506 88.621 76.9778Z" fill="#FF0"/><path d="M124.073 63.793L122.992 56.6633L122.864 55.8219L125.699 74.513C125.886 75.7405 124.944 76.8084 123.764 77.1655C124.944 76.8081 125.886 75.7402 125.7 74.513L125.685 74.4157L124.073 63.793Z" fill="#FF0"/><path d="M92.4305 72.7626C91.8609 72.701 91.3421 72.0055 91.4435 71.4058L94.3465 54.1415C94.4666 53.4263 94.9397 52.8228 95.6651 52.8228H107.9C108.625 52.8228 109.202 53.4167 109.218 54.1415L109.344 60.4617L121.818 51.3896C121.328 50.6795 120.587 50.2069 119.654 50.2069H119.51H117.698H116.743H115.324H114.596H97.9228H93.8581C92.3294 50.2069 91.3523 51.4819 91.079 52.9863L90.6217 55.4988L90.4096 56.6631L89.1114 63.7927L87.1775 74.4152L87.1597 74.5125C87.0425 75.1558 87.2561 75.7561 87.6565 76.234L92.4305 72.7626Z" fill="#FF0"/><path d="M125.699 74.5131L122.864 55.8219L122.815 55.4991L122.434 52.986C122.433 52.9843 122.433 52.9822 122.433 52.9804C122.413 52.853 122.386 52.7282 122.356 52.6049C122.347 52.572 122.339 52.5395 122.33 52.507C122.298 52.3869 122.26 52.2688 122.217 52.154C122.209 52.1317 122.199 52.1106 122.19 52.0884C122.151 51.9905 122.108 51.8956 122.062 51.8027C122.047 51.7731 122.033 51.7435 122.017 51.7145C121.961 51.6108 121.901 51.5106 121.837 51.4145C121.831 51.406 121.826 51.3961 121.821 51.3876L121.819 51.389L109.344 60.4611L109.449 65.6686C109.463 66.3923 108.808 66.7344 108.13 66.9867L92.7613 72.7236C92.6517 72.7643 92.5401 72.7737 92.4303 72.7617L87.6566 76.2334L87.6552 76.2346C87.6595 76.2398 87.6648 76.2442 87.6692 76.2495C87.7275 76.3178 87.7896 76.3834 87.855 76.4464C87.8611 76.4522 87.8664 76.459 87.8728 76.4648C87.9449 76.5328 88.0217 76.597 88.1016 76.6579C88.1286 76.6784 88.1573 76.6966 88.1848 76.7165C88.2396 76.7554 88.2947 76.7938 88.3521 76.8293C88.3867 76.8507 88.4224 76.87 88.4582 76.8899C88.5118 76.9201 88.5657 76.9494 88.6211 76.9766C88.6597 76.9957 88.699 77.013 88.7385 77.0305C88.7936 77.0549 88.8496 77.0774 88.9064 77.0985C88.9468 77.1135 88.9873 77.1281 89.0283 77.1416C89.0872 77.1606 89.1467 77.1773 89.2067 77.1929C89.2469 77.2034 89.2867 77.2142 89.3271 77.223C89.393 77.2374 89.4598 77.2479 89.5266 77.2576C89.5618 77.2629 89.5967 77.2696 89.6318 77.2737C89.7326 77.2848 89.834 77.2913 89.935 77.2916C89.9365 77.2916 89.9377 77.2919 89.9391 77.2919H89.9397H122.921C123.207 77.2919 123.492 77.2473 123.764 77.1647C124.944 76.8082 125.886 75.7403 125.699 74.5131Z" fill="#FFD500"/><path d="M109.218 54.1415C109.202 53.4167 108.625 52.8229 107.9 52.8229H95.6653C94.9399 52.8229 94.4667 53.4264 94.3466 54.1415L91.4436 71.4059C91.3422 72.0056 91.8611 72.7014 92.4306 72.7626C92.5405 72.7743 92.6521 72.7653 92.7617 72.7245L108.13 66.9876C108.808 66.7354 109.463 66.3932 109.449 65.6696L109.345 60.462L109.218 54.1415ZM108.607 65.6863C108.612 65.9265 108.007 66.1345 107.836 66.199L92.4669 71.9359C92.4174 71.9016 92.2551 71.6593 92.2739 71.5459L92.6744 69.1644L92.6738 69.165L92.9202 67.7019L92.9205 67.7016L93.079 66.76L93.0787 66.7603L93.8243 62.3282L95.1778 54.281C95.2194 54.032 95.3603 53.6649 95.665 53.6649H103.531H107.9C108.17 53.6649 108.37 53.8957 108.376 54.1582L108.395 55.1268L108.417 56.2354L108.607 65.6863Z" fill="gray"/><path d="M103.531 53.6652H95.6646C95.3599 53.6652 95.219 54.0323 95.1774 54.2813L93.8239 62.3285L93.9747 61.4318L103.531 53.6652Z" fill="#83BED6"/><path d="M108.395 55.1267L108.376 54.1584L108.379 54.3275L93.0785 66.7602L92.92 67.7018L108.395 55.1267Z" fill="#83BED6"/><path d="M108.417 56.2354L108.42 56.3689L92.6742 69.1646L92.2737 71.5462C92.255 71.6596 92.4173 71.9019 92.4668 71.9361L107.835 66.1992C108.007 66.1348 108.612 65.9268 108.606 65.6865L108.417 56.2354Z" fill="#83BED6"/><path d="M108.379 54.3276L108.376 54.1585C108.37 53.896 108.17 53.6652 107.9 53.6652H103.531L93.975 61.4318L93.8242 62.3285L93.0786 66.7606L93.0788 66.7603L108.379 54.3276Z" fill="#A4D8ED"/><path d="M108.42 56.369L108.417 56.2354L108.395 55.1268L92.92 67.7019V67.7022L92.6736 69.165L92.6742 69.1647L108.42 56.369Z" fill="#A4D8ED"/><path d="M71.906 79.8501L68.287 76.8237L62.9277 74.8479L62.85 75.1119L70.5745 81.5715L71.8831 79.8741C71.8899 79.8653 71.8987 79.8585 71.906 79.8501Z" fill="#fff"/><path d="M53.814 65.8707L52.8103 66.7162L56.7446 70.0062L57.7243 69.3119L60.2154 70.0736L54.1117 64.9692C54.1553 65.2722 54.0768 65.5953 53.814 65.8707Z" fill="#fff"/><path d="M75.2835 81.5051L72.9834 79.7321C72.6509 79.4751 72.1734 79.5311 71.9056 79.8501C71.8983 79.8586 71.8898 79.8654 71.8827 79.8744L70.574 81.5719L70.2043 82.0515C69.9406 82.3931 70.0051 82.8882 70.3467 83.1519L72.4564 84.7782L75.2835 81.5051Z" fill="#666"/><path d="M128.389 79.5538C128.416 79.6593 128.437 79.7674 128.453 79.877C128.437 79.7671 128.416 79.6593 128.389 79.5538Z" fill="#607C89"/><path d="M128.088 78.7852C128.132 78.8654 128.173 78.9481 128.21 79.0327C128.173 78.9478 128.132 78.8654 128.088 78.7852Z" fill="#607C89"/><path d="M85.0368 85.9139H78.2554V80.4987L76.6608 79.9107L75.2836 81.505L72.4564 84.7781L70.8741 86.61L70.9435 86.9293C71.3326 86.9581 71.7167 87.0058 72.0937 87.0723L72.4192 86.4266C72.5176 86.2321 72.6917 86.0876 72.9023 86.1421L73.517 86.3003C73.7276 86.3548 73.8102 86.5655 73.8014 86.7834L73.7745 87.503C74.1375 87.6263 74.492 87.7672 74.838 87.9251L75.3137 87.3814C75.4573 87.217 75.6612 87.1204 75.8519 87.225L76.4083 87.5317C76.5987 87.6369 76.6256 87.8613 76.5632 88.0705L76.3573 88.763C76.6766 88.9716 76.9854 89.1966 77.2813 89.4354L77.8798 89.0255C78.0597 88.9022 78.2818 88.8591 78.44 89.0083L78.9026 89.443C79.0608 89.5927 79.0315 89.8169 78.9193 90.0041L78.7626 90.2651L105.847 83.92C105.862 83.8274 105.903 83.7404 105.981 83.6677L106.569 83.1161C106.77 82.9262 107.052 82.9819 107.28 83.1389L107.764 83.4708L108.51 83.2959C108.739 83.126 108.971 82.9605 109.21 82.8041L108.949 81.9213C108.87 81.6556 108.905 81.3706 109.148 81.237L109.854 80.8491C110.096 80.7155 110.355 80.8391 110.538 81.0486L111.14 81.7376C111.579 81.537 112.029 81.3577 112.49 81.2006L112.457 80.2839C112.448 80.0074 112.551 79.7396 112.82 79.6713L113.6 79.4706C113.869 79.4015 114.089 79.5861 114.214 79.8331L114.625 80.6519C115.098 80.5681 115.578 80.5069 116.066 80.47L116.263 79.5708C116.322 79.3004 116.489 79.0669 116.766 79.0669H117.572C117.849 79.0669 118.016 79.3004 118.075 79.5708L118.271 80.4682C118.765 80.5045 119.253 80.5655 119.732 80.6501L120.146 79.8301C120.271 79.5832 120.492 79.3992 120.76 79.4677L121.54 79.6699C121.768 79.7285 121.876 79.9312 121.897 80.1603L128.052 78.7183C127.559 77.8649 126.703 77.2957 125.732 77.2957H84.9486C85.0043 77.5028 85.0365 77.7193 85.0365 77.9434V85.9139H85.0368Z" fill="#607C89"/><path d="M128.254 79.1357C128.3 79.25 128.34 79.3669 128.373 79.4879C128.341 79.3669 128.3 79.25 128.254 79.1357Z" fill="#607C89"/><path d="M128.468 79.9851C128.484 80.1166 128.494 80.2497 128.495 80.3856C128.494 80.2497 128.484 80.1164 128.468 79.9851Z" fill="#607C89"/><path d="M108.511 83.296L107.764 83.4709L108.038 83.659C108.192 83.5342 108.351 83.4147 108.511 83.296Z" fill="#445A64"/><path d="M101.317 93.5991C101.335 93.3226 101.578 93.1705 101.852 93.1281L102.759 92.9898C102.825 92.5061 102.915 92.03 103.028 91.5624L102.236 91.0987C101.997 90.9592 101.827 90.7269 101.912 90.4638L102.162 89.6977C102.247 89.4346 102.521 89.3473 102.796 89.3748L103.707 89.4654C103.892 89.0157 104.098 88.5768 104.325 88.1508L103.672 87.5045C103.476 87.3091 103.369 87.0428 103.517 86.8093L103.949 86.1287C104.098 85.8952 104.384 85.8785 104.645 85.9737L105.506 86.2884C105.796 85.9005 106.105 85.5273 106.431 85.1704L105.958 84.38C105.871 84.2335 105.824 84.0692 105.847 83.92L78.7627 90.2652L78.5471 90.6243C78.804 90.9056 79.0477 91.1989 79.2765 91.5041L79.9571 91.256C80.1619 91.1822 80.3875 91.1956 80.5041 91.3793L80.8436 91.9155C80.9597 92.0994 80.8756 92.3095 80.7203 92.4624L80.2076 92.9693C80.386 93.3047 80.5492 93.6498 80.6948 94.004L81.4141 93.9328C81.6308 93.912 81.8462 93.9812 81.9133 94.1883L82.034 94.5607H101.287C101.272 94.5118 101.263 94.4599 101.267 94.4028L101.317 93.5991Z" fill="#445A64"/><path d="M127.93 85.161C128.125 85.3746 128.312 85.5955 128.495 85.8199V84.1591C128.474 84.232 128.443 84.3044 128.402 84.3729L127.93 85.161Z" fill="#445A64"/><path d="M121.901 80.2828L121.867 81.1969C122.328 81.3533 122.779 81.5326 123.217 81.7324L123.822 81.0419C124.005 80.8339 124.265 80.7108 124.506 80.8439L125.212 81.2332C125.455 81.3674 125.489 81.6519 125.41 81.9176L125.148 82.7974C125.554 83.0625 125.946 83.3476 126.322 83.6511L127.081 83.1305C127.31 82.974 127.592 82.9198 127.793 83.1091L128.381 83.6613C128.436 83.7138 128.472 83.7738 128.494 83.8377V80.3877V80.3871C128.494 80.3865 128.494 80.3862 128.494 80.3859C128.494 80.25 128.483 80.1167 128.468 79.9855C128.463 79.9491 128.458 79.9134 128.453 79.8773C128.436 79.7675 128.415 79.6597 128.388 79.5542C128.383 79.5322 128.379 79.51 128.373 79.4883C128.34 79.3673 128.299 79.2504 128.254 79.1361C128.24 79.101 128.224 79.0673 128.209 79.033C128.172 78.9481 128.131 78.8657 128.088 78.7855C128.076 78.7635 128.067 78.7395 128.054 78.7178L128.051 78.7187L121.896 80.1607C121.901 80.2005 121.903 80.2412 121.901 80.2828Z" fill="#445A64"/><path d="M32.0747 75.1121C32.0032 75.0186 31.9329 74.9237 31.8626 74.8291C31.9329 74.9237 32.0032 75.0186 32.0747 75.1121Z" fill="#607C89"/><path d="M33.0202 76.2656C32.9511 76.1871 32.8828 76.1074 32.8146 76.0277C32.8828 76.1077 32.9511 76.1874 33.0202 76.2656Z" fill="#607C89"/><path d="M44.3155 78.2267V78.2253C44.3155 77.1618 45.1859 76.2914 46.2503 76.2914H47.7541L47.8736 76.2946L49.0273 75.4769C49.2069 75.1195 49.3619 74.7638 49.4996 74.4155C50.2889 72.4213 50.4406 70.7024 50.4406 70.7024C51.0049 69.8097 51.1124 68.9839 50.9331 68.298L52.8105 66.7163L53.8142 65.8708C54.077 65.5954 54.1555 65.2725 54.1115 64.9696C54.0799 64.7499 53.9823 64.5427 53.8423 64.3705L53.5563 64.5984C53.622 64.6769 53.6735 64.7689 53.702 64.8744C53.8065 65.2623 53.5772 65.6616 53.1887 65.7665C52.8945 65.8459 52.5942 65.7325 52.4205 65.5037L49.3821 67.9251C49.5755 68.0868 49.724 68.3059 49.7949 68.5678C49.9774 69.2464 49.5761 69.9436 48.8979 70.1267C48.3072 70.2858 47.702 70.0011 47.4351 69.4766L35.7983 78.7506C37.4686 79.8735 39.3796 80.535 41.6032 80.4586C42.9075 80.4137 44.0185 80.1222 44.9694 79.6702C44.5698 79.3154 44.3155 78.7998 44.3155 78.2267Z" fill="#607C89"/><path d="M34.0719 77.3585C33.9975 77.2879 33.9234 77.2173 33.8502 77.1449C33.9234 77.2173 33.9975 77.2879 34.0719 77.3585Z" fill="#607C89"/><path d="M33.5847 76.8749C33.4836 76.7703 33.3834 76.6643 33.2841 76.5568C33.3831 76.6646 33.4833 76.7703 33.5847 76.8749Z" fill="#607C89"/><path d="M35.1853 78.3105C35.1091 78.2522 35.0323 78.1948 34.957 78.1344C35.032 78.1948 35.1088 78.2519 35.1853 78.3105Z" fill="#607C89"/><path d="M34.5405 77.7858C34.4652 77.7202 34.3911 77.6522 34.3167 77.5848C34.3911 77.6525 34.4652 77.7202 34.5405 77.7858Z" fill="#607C89"/><path d="M35.7024 78.6875C35.6207 78.6315 35.5396 78.5744 35.459 78.5161C35.5396 78.5744 35.6207 78.6312 35.7024 78.6875Z" fill="#607C89"/><path d="M32.5918 75.7626C32.5265 75.6832 32.4609 75.6044 32.3964 75.5238C32.4609 75.6044 32.5265 75.6832 32.5918 75.7626Z" fill="#607C89"/><path d="M52.7441 63.9582C52.7664 63.9524 52.7887 63.9515 52.8109 63.9474C52.7887 63.9512 52.7664 63.9524 52.7441 63.9582Z" fill="#607C89"/><path d="M52.9283 63.9298C52.9562 63.9284 52.9831 63.9313 53.0107 63.9322C52.9831 63.9313 52.9562 63.9281 52.9283 63.9298Z" fill="#607C89"/><path d="M28.4927 69.2374C28.4543 69.1633 28.4165 69.0891 28.3784 69.015C28.4165 69.0891 28.4546 69.163 28.4927 69.2374Z" fill="#607C89"/><path d="M27.7801 67.827C27.7696 67.8059 27.7593 67.7848 27.7488 67.7637C27.759 67.7848 27.7696 67.8056 27.7801 67.827Z" fill="#607C89"/><path d="M53.109 63.9371C53.1395 63.9412 53.1688 63.9494 53.1987 63.9562C53.1688 63.9492 53.1395 63.9412 53.109 63.9371Z" fill="#607C89"/><path d="M53.5986 64.1384C53.6285 64.1601 53.6569 64.1841 53.6851 64.2082C53.6569 64.1838 53.6288 64.1601 53.5986 64.1384Z" fill="#607C89"/><path d="M53.2821 63.9767C53.3137 63.9869 53.3439 64.0004 53.3744 64.0133C53.3439 64.0001 53.3137 63.9866 53.2821 63.9767Z" fill="#607C89"/><path d="M53.4467 64.0447C53.478 64.0608 53.5082 64.0798 53.5381 64.0989C53.5079 64.0798 53.4783 64.0608 53.4467 64.0447Z" fill="#607C89"/><path d="M30.0095 72.0052C29.9503 71.905 29.8914 71.8045 29.8331 71.7037C29.8914 71.8045 29.9506 71.9047 30.0095 72.0052Z" fill="#607C89"/><path d="M29.5745 71.2504C29.5267 71.1654 29.4795 71.0804 29.4324 70.9955C29.4795 71.0804 29.5267 71.1657 29.5745 71.2504Z" fill="#607C89"/><path d="M29.2374 70.6418C29.1928 70.56 29.148 70.4783 29.1038 70.3962C29.148 70.4783 29.1928 70.5597 29.2374 70.6418Z" fill="#607C89"/><path d="M28.8241 69.8727C28.7895 69.8074 28.7555 69.742 28.7213 69.6764C28.7555 69.7417 28.7895 69.8071 28.8241 69.8727Z" fill="#607C89"/><path d="M28.1624 68.5895C28.1346 68.5345 28.1065 68.4794 28.0789 68.4243C28.1068 68.4794 28.1346 68.5345 28.1624 68.5895Z" fill="#607C89"/><path d="M53.7375 64.2544C53.7644 64.2805 53.7899 64.3086 53.8145 64.337C53.7896 64.3086 53.7644 64.2808 53.7375 64.2544Z" fill="#607C89"/><path d="M30.2252 72.3677C30.2788 72.4567 30.333 72.5452 30.3872 72.6337C30.333 72.5452 30.2788 72.4564 30.2252 72.3677Z" fill="#607C89"/><path d="M31.4567 74.2672C31.4912 74.3164 31.5246 74.3665 31.5595 74.4155C31.5864 74.4532 31.6146 74.4896 31.6415 74.5274C31.5794 74.4412 31.5179 74.3545 31.4567 74.2672Z" fill="#607C89"/><path d="M30.7488 73.2119C30.6943 73.1267 30.6407 73.0406 30.5868 72.9547C30.6407 73.0406 30.6943 73.1267 30.7488 73.2119Z" fill="#607C89"/><path d="M31.2456 73.9611C31.19 73.8796 31.134 73.7988 31.0792 73.7164C31.134 73.7988 31.19 73.8796 31.2456 73.9611Z" fill="#607C89"/><path d="M30.4298 66.5586L46.621 67.2477C47.3725 66.3435 48.4998 66.2146 49.4247 66.6028L52.5586 64.0259L49.4247 66.6019C48.4998 66.2146 47.3725 66.3435 46.621 67.2468L45.169 67.185L30.4307 66.5583C30.4307 66.5583 30.3563 66.4851 30.235 66.3667C29.7557 65.8994 28.5088 64.6962 27.8906 64.2228C28.6649 64.8172 30.4298 66.5586 30.4298 66.5586Z" fill="#607C89"/><path d="M47.4348 69.4767C47.3953 69.3991 47.3628 69.3168 47.3393 69.2295C47.1562 68.5518 47.5576 67.8537 48.2361 67.6712C48.6524 67.5587 49.0749 67.668 49.3822 67.9249L52.4206 65.5035C52.3652 65.4306 52.3218 65.3465 52.2966 65.2527C52.1921 64.8648 52.4223 64.4655 52.8102 64.3609C53.0926 64.2853 53.38 64.3879 53.5564 64.5985L53.8423 64.3706L53.8441 64.3691C53.835 64.358 53.8239 64.3483 53.8145 64.3375C53.7899 64.3091 53.7644 64.2809 53.7375 64.2549C53.7208 64.2388 53.7029 64.2238 53.6853 64.2086C53.6572 64.1843 53.6288 64.1602 53.5989 64.1389C53.5793 64.1245 53.5585 64.1125 53.538 64.0993C53.5081 64.0803 53.4779 64.0612 53.4465 64.0451C53.4231 64.0331 53.3988 64.0237 53.3748 64.0135C53.3443 64.0006 53.3138 63.9868 53.2825 63.9768C53.2549 63.9681 53.2265 63.9628 53.1984 63.9563C53.1685 63.9496 53.1392 63.9414 53.1088 63.9373C53.0765 63.9329 53.0437 63.9332 53.0109 63.9323C52.9834 63.9314 52.9564 63.9285 52.9286 63.93C52.8896 63.932 52.8504 63.9402 52.8111 63.9475C52.7888 63.9516 52.7666 63.9528 52.7443 63.9584C52.6825 63.9745 52.6204 63.9965 52.5589 64.0261L49.425 66.603C48.5001 66.2151 47.3727 66.344 46.6213 67.2478L30.43 66.5588C30.43 66.5588 28.6652 64.8171 27.8906 64.2232C27.1163 63.6288 26.2213 64.6729 26.2213 64.6729C26.7067 65.6353 27.2118 66.6824 27.7488 67.7638C27.7593 67.7849 27.7696 67.8059 27.7801 67.827C27.8786 68.0254 27.9782 68.2246 28.079 68.4247C28.1065 68.4795 28.1346 68.5348 28.1625 68.5899C28.2339 68.7314 28.306 68.8729 28.3787 69.0153C28.4165 69.0894 28.4546 69.1636 28.4929 69.2377C28.5682 69.3839 28.6447 69.5304 28.7214 69.6768C28.7557 69.7422 28.7897 69.8075 28.8243 69.8731C28.9163 70.0477 29.0097 70.2224 29.1038 70.3967C29.148 70.4784 29.1928 70.5604 29.2374 70.6422C29.3018 70.7602 29.3669 70.878 29.4322 70.9958C29.4794 71.0808 29.5265 71.166 29.5743 71.2507C29.6595 71.4021 29.746 71.5533 29.8333 71.7042C29.8916 71.805 29.9505 71.9052 30.0096 72.0057C30.0808 72.1269 30.1526 72.2476 30.2253 72.3681C30.2789 72.4571 30.3331 72.5456 30.3873 72.6341C30.4532 72.7416 30.52 72.8485 30.5871 72.9555C30.641 73.0413 30.6946 73.1274 30.7491 73.2127C30.8578 73.3823 30.9676 73.5505 31.079 73.7175C31.1338 73.7995 31.1897 73.8807 31.2454 73.9621C31.3154 74.0646 31.3857 74.1669 31.4566 74.2683C31.5178 74.3556 31.5794 74.4423 31.6412 74.5284C31.7141 74.6298 31.788 74.73 31.8621 74.8299C31.9324 74.9248 32.0027 75.0194 32.0742 75.1129C32.1802 75.2517 32.2875 75.3891 32.3962 75.5245C32.4606 75.6051 32.5262 75.6839 32.5916 75.7633C32.6651 75.8526 32.7392 75.9408 32.8139 76.0284C32.8822 76.1084 32.9505 76.1881 33.0196 76.2663C33.1066 76.3647 33.1948 76.4611 33.2833 76.5572C33.3826 76.665 33.4825 76.7708 33.5839 76.8754C33.672 76.9662 33.7602 77.057 33.8499 77.1452C33.9231 77.2176 33.9972 77.2882 34.0716 77.3588C34.1525 77.4355 34.2342 77.5108 34.3163 77.5852C34.3907 77.6526 34.4648 77.7206 34.5401 77.7862C34.6772 77.9055 34.8158 78.0221 34.9564 78.1349C35.0317 78.1952 35.1085 78.2523 35.1846 78.3109C35.2755 78.3807 35.3669 78.4498 35.4591 78.5166C35.5397 78.5749 35.6209 78.632 35.7026 78.688C35.7337 78.7094 35.7641 78.7322 35.7955 78.7533L35.7981 78.7513L47.4348 69.4767Z" fill="#445A64"/><path d="M48.236 67.6714C47.5575 67.8539 47.1561 68.5518 47.3392 69.2297C47.3626 69.317 47.3955 69.3993 47.4347 69.477C47.7016 70.0014 48.3069 70.2862 48.8975 70.1271C49.5757 69.944 49.9771 69.2467 49.7946 68.5682C49.724 68.306 49.5754 68.0868 49.3818 67.9254C49.0748 67.6682 48.6526 67.5589 48.236 67.6714Z" fill="#999"/><path d="M52.81 64.3608C52.4221 64.4654 52.1919 64.865 52.2965 65.2526C52.3217 65.3467 52.365 65.4308 52.4204 65.5034C52.5941 65.7319 52.8944 65.8453 53.1886 65.7662C53.577 65.6616 53.8067 65.262 53.7018 64.8741C53.6734 64.7689 53.6218 64.6766 53.5562 64.5981C53.3802 64.3878 53.0927 64.285 52.81 64.3608Z" fill="#999"/><path d="M63.7226 72.1395L63.9895 71.228L60.2152 70.0737L57.7241 69.312L56.7444 70.0063L50.5244 74.4155L49.027 75.477L47.8733 76.2946L47.7538 76.2914H46.25C45.1856 76.2914 44.3152 77.1618 44.3152 78.2253V78.2268C44.3152 78.7998 44.5692 79.3154 44.9688 79.6702C45.3107 79.974 45.7589 80.1606 46.2497 80.1606H47.7535C48.7358 80.1606 49.5541 79.4177 49.6727 78.4661L58.4752 74.4152L58.5379 74.3865L58.6288 74.4152L62.6764 75.699L62.8493 75.1113L62.9269 74.8474L68.2862 76.8231L76.6601 79.9105L78.2547 80.4984V77.9426C78.2547 77.1542 78.6218 76.4487 79.1928 75.9858L72.8761 74.4152L63.7226 72.1395ZM47.1705 79.263C46.5898 79.263 46.1196 78.7925 46.1196 78.2118C46.1196 77.6314 46.5898 77.1609 47.1705 77.1609C47.7508 77.1609 48.2213 77.6314 48.2213 78.2118C48.2213 78.7925 47.7508 79.263 47.1705 79.263Z" fill="#4D4D4D"/><path d="M78.2552 77.9429V80.4987V85.914H85.0366V77.9429C85.0366 77.7188 85.0041 77.5022 84.9487 77.2951C84.6607 76.2208 83.679 75.4233 82.5174 75.4233H80.7748C80.1768 75.4233 79.6266 75.6349 79.1936 75.9861C78.6223 76.449 78.2552 77.1545 78.2552 77.9429Z" fill="#445A64"/><path d="M127.794 83.1088C127.593 82.9196 127.311 82.9741 127.082 83.1302L126.322 83.6508C125.946 83.3476 125.554 83.0622 125.149 82.7971L125.411 81.9173C125.49 81.6516 125.456 81.3668 125.212 81.233L124.506 80.8436C124.265 80.7106 124.005 80.8336 123.823 81.0416L123.218 81.7322C122.779 81.5321 122.328 81.3531 121.867 81.1966L121.901 80.2826C121.903 80.241 121.901 80.2002 121.898 80.1595C121.877 79.9304 121.768 79.728 121.54 79.6691L120.76 79.4669C120.492 79.3987 120.272 79.5824 120.146 79.8293L119.732 80.6494C119.253 80.565 118.765 80.5038 118.272 80.4674L118.076 79.5701C118.017 79.2997 117.85 79.0662 117.572 79.0662H116.766C116.489 79.0662 116.322 79.2997 116.263 79.5701L116.066 80.4692C115.579 80.5061 115.099 80.5673 114.625 80.6511L114.214 79.8323C114.089 79.5853 113.869 79.4007 113.601 79.4699L112.82 79.6706C112.552 79.7388 112.448 80.0069 112.458 80.2832L112.491 81.1998C112.03 81.3569 111.579 81.5362 111.14 81.7369L110.539 81.0478C110.356 80.8383 110.097 80.715 109.854 80.8483L109.148 81.2362C108.906 81.3698 108.871 81.6548 108.949 81.9205L109.21 82.8033C108.971 82.9597 108.739 83.1252 108.511 83.2952C108.351 83.4138 108.192 83.5333 108.038 83.6581L107.764 83.4701L107.28 83.1381C107.052 82.9811 106.77 82.9254 106.569 83.1153L105.981 83.6669C105.904 83.7396 105.862 83.8263 105.847 83.9192C105.824 84.0683 105.871 84.2327 105.958 84.3791L106.431 85.1696C106.105 85.5267 105.797 85.8997 105.507 86.2875L104.645 85.9729C104.385 85.8777 104.098 85.8944 103.95 86.1279L103.518 86.8084C103.369 87.0419 103.477 87.3085 103.673 87.5037L104.326 88.1499C104.099 88.5759 103.892 89.0148 103.707 89.4645L102.797 89.374C102.521 89.3464 102.247 89.4337 102.162 89.6968L101.912 90.4629C101.827 90.726 101.997 90.9583 102.236 91.0978L103.028 91.5616C102.916 92.0294 102.826 92.5052 102.759 92.9889L101.852 93.1272C101.578 93.1694 101.335 93.3217 101.318 93.5983L101.267 94.4022C101.263 94.4593 101.272 94.5112 101.287 94.5601C101.345 94.7482 101.526 94.8765 101.738 94.9371L102.624 95.19C102.631 95.6786 102.661 96.1618 102.715 96.6381L101.871 96.9979C101.616 97.1066 101.418 97.3152 101.47 97.587L101.62 98.3784C101.672 98.6508 101.933 98.7718 102.209 98.7797L103.128 98.8038C103.255 99.2743 103.405 99.7354 103.577 100.186L102.851 100.743C102.631 100.912 102.492 101.162 102.61 101.413L102.952 102.142C103.07 102.393 103.353 102.445 103.622 102.384L104.518 102.18C104.758 102.602 105.018 103.01 105.297 103.404L104.732 104.126C104.561 104.344 104.487 104.621 104.665 104.835L105.177 105.456C105.354 105.67 105.64 105.65 105.887 105.524L106.706 105.102C107.042 105.45 107.395 105.781 107.764 106.094L107.394 106.936C107.282 107.189 107.281 107.476 107.505 107.639L108.157 108.113C108.381 108.276 108.653 108.186 108.86 108.003L109.547 107.391C109.958 107.645 110.383 107.879 110.82 108.092L110.672 108.995C110.626 109.268 110.696 109.547 110.954 109.649L111.703 109.946C111.96 110.048 112.202 109.893 112.357 109.664L112.869 108.903C113.329 109.045 113.799 109.166 114.277 109.263L114.359 110.174C114.383 110.451 114.519 110.703 114.794 110.737L115.593 110.839C115.868 110.874 116.064 110.664 116.157 110.403L116.465 109.535C116.703 109.547 116.943 109.552 117.184 109.552C117.43 109.552 117.673 109.547 117.916 109.534L118.222 110.4C118.314 110.661 118.509 110.872 118.784 110.837L119.584 110.737C119.858 110.702 119.996 110.45 120.021 110.174L120.103 109.26C120.582 109.163 121.052 109.042 121.512 108.899L122.021 109.658C122.176 109.888 122.417 110.043 122.674 109.942L123.424 109.645C123.682 109.543 123.751 109.265 123.708 108.992L123.56 108.085C123.997 107.873 124.421 107.639 124.832 107.384L125.516 107.995C125.723 108.179 125.995 108.269 126.22 108.107L126.872 107.634C127.096 107.471 127.095 107.184 126.985 106.93L126.615 106.086C126.983 105.772 127.337 105.441 127.672 105.093L128.489 105.515C128.734 105.642 129.021 105.662 129.197 105.448L129.712 104.828C129.888 104.615 129.816 104.337 129.646 104.119L129.079 103.394C129.358 102.999 129.617 102.591 129.857 102.168L130.75 102.373C131.021 102.436 131.302 102.383 131.42 102.133L131.764 101.404C131.882 101.154 131.743 100.903 131.524 100.733L130.796 100.174C130.968 99.7237 131.118 99.2625 131.245 98.7914L132.16 98.7686C132.437 98.7613 132.698 98.6403 132.749 98.3687L132.902 97.5768C132.954 97.3058 132.756 97.0972 132.502 96.9876L131.656 96.6252C131.709 96.1495 131.739 95.666 131.745 95.1771L132.63 94.926C132.896 94.8507 133.119 94.6691 133.101 94.3925L133.052 93.5877C133.035 93.312 132.791 93.1591 132.518 93.1161L131.608 92.9757C131.542 92.4926 131.452 92.016 131.338 91.549L132.129 91.0872C132.369 90.9484 132.538 90.7169 132.453 90.4538L132.205 89.6869C132.12 89.4238 131.847 89.3359 131.571 89.3628L130.658 89.4528C130.473 89.0031 130.266 88.5642 130.039 88.1388L130.69 87.4946C130.887 87.2997 130.995 87.034 130.847 86.7999L130.416 86.1188C130.267 85.8853 129.981 85.8686 129.72 85.9624L128.856 86.277C128.74 86.1211 128.618 85.9697 128.495 85.8188C128.312 85.5941 128.125 85.3732 127.93 85.1599L128.402 84.3721C128.443 84.3036 128.474 84.2312 128.495 84.1582C128.526 84.0481 128.529 83.9373 128.495 83.8366C128.473 83.7727 128.437 83.7126 128.382 83.6602L127.794 83.1088ZM116.75 102.643C112.393 102.643 108.862 99.1117 108.862 94.7549C108.862 90.3985 112.393 86.8665 116.75 86.8665C121.107 86.8665 124.638 90.3982 124.638 94.7549C124.638 99.1114 121.107 102.643 116.75 102.643Z" fill="#263238"/><path d="M116.751 102.643C121.108 102.643 124.639 99.1116 124.639 94.7549C124.639 90.3982 121.108 86.8665 116.751 86.8665C112.394 86.8665 108.862 90.3982 108.862 94.7549C108.862 99.1116 112.394 102.643 116.751 102.643Z" fill="#FFD500"/><path d="M81.4136 93.9328L80.6944 94.004C80.5488 93.6498 80.3856 93.3047 80.2072 92.9692L80.7199 92.4624C80.8754 92.3095 80.9595 92.0994 80.8432 91.9154L80.5037 91.3793C80.387 91.1953 80.1615 91.1821 79.9567 91.256L79.2761 91.5041C79.0473 91.1988 78.8038 90.9056 78.5466 90.6243L78.7622 90.2651L78.919 90.0041C79.0312 89.8169 79.0605 89.5928 78.9023 89.4431L78.4397 89.0083C78.2815 88.8595 78.0591 88.9022 77.8795 89.0256L77.281 89.4354C76.9851 89.1967 76.6763 88.9717 76.357 88.7631L76.5629 88.0705C76.6253 87.8613 76.5984 87.6369 76.408 87.5317L75.8516 87.225C75.6609 87.1204 75.457 87.2168 75.3134 87.3814L74.8376 87.9252C74.4914 87.7673 74.1372 87.6264 73.7742 87.503L73.8011 86.7835C73.8099 86.5652 73.7273 86.3549 73.5166 86.3004L72.902 86.1422C72.6913 86.0877 72.5176 86.2321 72.4189 86.4267L72.0934 87.0724C71.7164 87.0059 71.3323 86.9581 70.9432 86.9294L70.8738 86.6101L70.7894 86.2228C70.7425 86.0098 70.611 85.8267 70.3927 85.8267H69.7587C69.5405 85.8267 69.4083 86.0098 69.3621 86.2228L69.2071 86.9306C68.8239 86.9602 68.4454 87.0076 68.073 87.0741L67.7487 86.4299C67.6508 86.2353 67.4777 86.0903 67.2662 86.1439L66.6515 86.3016C66.4409 86.3561 66.3582 86.5667 66.3665 86.7847L66.3925 87.506C66.0295 87.6293 65.6745 87.7711 65.329 87.9287L64.8553 87.3858C64.7123 87.2215 64.5084 87.1242 64.3171 87.2294L63.7614 87.535C63.5701 87.6395 63.5425 87.8643 63.6043 88.0731L63.8106 88.7684C63.491 88.9775 63.1831 89.2017 62.8872 89.4413L62.2907 89.0314C62.1117 88.9081 61.8893 88.8645 61.7305 89.0142L61.2682 89.4483C61.1091 89.5972 61.1387 89.8213 61.2509 90.0088L61.6227 90.6313C61.3664 90.912 61.1226 91.2059 60.8944 91.5117L60.2162 91.2636C60.0114 91.1883 59.7858 91.2018 59.6692 91.3857L59.3291 91.9213C59.2122 92.105 59.2968 92.3153 59.4512 92.4688L59.9654 92.9774C59.7861 93.3132 59.6238 93.6586 59.4788 94.0128L58.7613 93.941C58.5439 93.9196 58.3291 93.9879 58.2615 94.1953L58.0655 94.7988C57.9984 95.0062 58.132 95.1888 58.3201 95.2986L58.9441 95.6637C58.8556 96.0313 58.7844 96.4066 58.732 96.7869L58.018 96.8965C57.8027 96.9293 57.6105 97.0494 57.5973 97.2668L57.5569 97.8996C57.5434 98.1179 57.718 98.2608 57.9281 98.3212L58.6262 98.5204C58.6315 98.9048 58.6549 99.2856 58.698 99.6601L58.033 99.9439C57.8317 100.029 57.6767 100.193 57.7177 100.408L57.8358 101.031C57.8768 101.245 58.0822 101.34 58.2996 101.346L59.0223 101.365C59.1231 101.736 59.2412 102.099 59.3765 102.453L58.8049 102.892C58.6315 103.025 58.5216 103.222 58.6142 103.419L58.884 103.993C58.9775 104.191 59.1996 104.232 59.4117 104.184L60.1177 104.023C60.3064 104.355 60.5109 104.677 60.7309 104.987L60.2853 105.555C60.1505 105.727 60.0931 105.945 60.2323 106.114L60.6363 106.603C60.7751 106.771 61.0007 106.755 61.1947 106.656L61.8395 106.323C62.104 106.598 62.3824 106.858 62.6724 107.105L62.3818 107.767C62.2939 107.967 62.2924 108.193 62.4688 108.321L62.9815 108.694C63.1581 108.822 63.3726 108.752 63.5358 108.607L64.0766 108.126C64.4 108.326 64.7343 108.509 65.0783 108.677L64.9617 109.388C64.9262 109.603 64.9813 109.823 65.1837 109.903L65.7735 110.137C65.9762 110.217 66.1666 110.095 66.2882 109.915L66.6916 109.316C67.0535 109.429 67.4238 109.523 67.8002 109.6L67.8641 110.317C67.8834 110.534 67.991 110.733 68.2078 110.761L68.8368 110.84C69.0533 110.868 69.2071 110.702 69.28 110.497L69.5232 109.813C69.7104 109.823 69.8991 109.828 70.0895 109.828C70.2829 109.828 70.4747 109.823 70.6655 109.813L70.9069 110.495C70.9792 110.701 71.133 110.866 71.3493 110.839L71.9789 110.76C72.1951 110.733 72.3032 110.534 72.3231 110.317L72.3881 109.597C72.7646 109.521 73.1343 109.426 73.4967 109.313L73.8975 109.91C74.0188 110.092 74.2095 110.214 74.4122 110.133L75.002 109.9C75.2047 109.821 75.2598 109.601 75.2252 109.386L75.1092 108.672C75.4529 108.505 75.7869 108.32 76.1103 108.12L76.6491 108.601C76.8117 108.746 77.0261 108.817 77.2028 108.689L77.7161 108.317C77.8924 108.189 77.8918 107.963 77.8045 107.764L77.5133 107.098C77.8039 106.851 78.0817 106.591 78.3459 106.317L78.9881 106.649C79.1821 106.749 79.4077 106.764 79.5465 106.596L79.9514 106.108C80.0903 105.94 80.0331 105.721 79.8996 105.55L79.4528 104.979C79.6728 104.669 79.8776 104.346 80.0663 104.014L80.7697 104.176C80.9824 104.225 81.2044 104.184 81.297 103.987L81.568 103.413C81.6606 103.216 81.5513 103.018 81.3787 102.885L80.8054 102.445C80.9402 102.09 81.0585 101.727 81.1584 101.356L81.8791 101.338C82.0974 101.333 82.3019 101.237 82.3429 101.024L82.463 100.4C82.5038 100.187 82.3482 100.022 82.1484 99.9357L81.4813 99.6513C81.5235 99.2763 81.5478 98.8957 81.5525 98.511L82.2483 98.313C82.4583 98.2541 82.6335 98.1105 82.6201 97.8929L82.5805 97.2595C82.567 97.0427 82.376 96.922 82.1604 96.8883L81.4444 96.7775C81.3919 96.397 81.321 96.0226 81.2317 95.6549L81.8542 95.2913C82.0429 95.182 82.1762 94.9998 82.1094 94.7918L82.0347 94.5612L81.914 94.1889C81.846 93.9812 81.6304 93.912 81.4136 93.9328ZM75.9559 98.1773C75.9559 101.607 73.175 104.387 69.7453 104.387C66.3152 104.387 63.5352 101.607 63.5352 98.1773C63.5352 94.7473 66.3155 91.9664 69.7453 91.9664C73.175 91.9664 75.9559 94.7473 75.9559 98.1773Z" fill="#263238"/><path d="M69.7439 104.388C73.1741 104.388 75.9548 101.607 75.9548 98.1768C75.9548 94.7466 73.1741 91.9658 69.7439 91.9658C66.3137 91.9658 63.533 94.7466 63.533 98.1768C63.533 101.607 66.3137 104.388 69.7439 104.388Z" fill="#FFD500"/><path d="M47.1711 79.2618C47.7514 79.2618 48.2219 78.7913 48.2219 78.2109C48.2219 77.6305 47.7514 77.16 47.1711 77.16C46.5907 77.16 46.1202 77.6305 46.1202 78.2109C46.1202 78.7913 46.5907 79.2618 47.1711 79.2618Z" fill="#B3B3B3"/><path d="M116.743 50.2072H117.698C118.207 50.2072 118.623 49.7912 118.623 49.2823V49.2818C118.623 48.7732 118.207 48.3568 117.698 48.3568H117.081H116.743V43.1306V41.9672V40.135V39.5962C116.743 38.7176 115.306 38.1917 114.557 38.3353V39.973C115.013 39.9179 115.327 40.1338 115.327 40.2964C115.326 40.87 115.325 41.4229 115.324 41.9675C115.324 42.3604 115.323 42.7483 115.323 43.1309C115.322 44.8904 115.323 46.5665 115.324 48.3571H114.596C114.554 48.3571 114.515 48.3642 114.476 48.3694C114.024 48.4292 113.671 48.8145 113.671 49.282V49.2826C113.671 49.7912 114.088 50.2075 114.596 50.2075H115.324H116.743V50.2072Z" fill="#3E2622"/></g><defs><clipPath id="clip0"><path fill="#fff" transform="translate(0 .691)" d="M0 0H150V150H0z"/></clipPath></defs></svg>