<svg viewBox="0 0 80 80" fill="none" xmlns="http://www.w3.org/2000/svg"><path d="M80 40C80 62.0917 62.0917 80 40 80C17.9083 80 0 62.0917 0 40C0 17.9083 17.9083 0 40 0C62.0917 0 80 17.9083 80 40Z" fill="#FF8945"/><path d="M80.0004 40C80.0004 37.4933 79.7672 35.0409 79.3265 32.6617L62.8464 16.1816L17.1543 21.7841L47.1128 51.7419L19.5212 68.4412L29.7532 78.6731C33.024 79.5374 36.4579 80 40.0004 80C62.092 80 80.0004 62.0917 80.0004 40Z" fill="#F63"/><path d="M19.5205 16.4008H60.4788V68.4412H19.5205V16.4008Z" fill="#fff"/><path d="M39.9365 16.4008H60.4791V68.4412H39.9365V16.4008Z" fill="#E9EDF5"/><path d="M17.1543 16.1816H62.8464V21.7841H17.1543V16.1816Z" fill="#2864F0"/><path d="M39.9365 16.1816H62.8461V21.7841H39.9365V16.1816Z" fill="#27488F"/><path d="M35.9609 24.7235H44.0396V36.2579H35.9609V24.7235Z" fill="#BFE1FF"/><path d="M39.9365 24.7235H44.0393V36.2579H39.9365V24.7235Z" fill="#A3D4FF"/><path d="M35.9609 30.4907H44.0396V36.2579H35.9609V30.4907Z" fill="#A3D4FF"/><path d="M39.9365 30.4907H44.0393V36.2579H39.9365V30.4907Z" fill="#87C7FF"/><path d="M22.7715 24.7235H30.8507V36.2579H22.7715V24.7235Z" fill="#BFE1FF"/><path d="M22.7715 30.4907H30.8507V36.2579H22.7715V30.4907Z" fill="#A3D4FF"/><path d="M49.1494 24.7235H57.2286V36.2579H49.1494V24.7235Z" fill="#A3D4FF"/><path d="M49.1494 30.4907H57.2286V36.2579H49.1494V30.4907Z" fill="#87C7FF"/><path d="M35.9609 39.8352H44.0396V51.3696H35.9609V39.8352Z" fill="#BFE1FF"/><path d="M39.9365 39.8352H44.0393V51.3696H39.9365V39.8352Z" fill="#A3D4FF"/><path d="M35.9609 45.6024H44.0396V51.3696H35.9609V45.6024Z" fill="#A3D4FF"/><path d="M39.9365 45.6024H44.0393V51.3696H39.9365V45.6024Z" fill="#87C7FF"/><path d="M22.7715 39.8352H30.8507V51.3696H22.7715V39.8352Z" fill="#BFE1FF"/><path d="M22.7715 45.6024H30.8507V51.3696H22.7715V45.6024Z" fill="#A3D4FF"/><path d="M49.1494 39.8352H57.2286V51.3696H49.1494V39.8352Z" fill="#A3D4FF"/><path d="M49.1494 45.6024H57.2286V51.3696H49.1494V45.6024Z" fill="#87C7FF"/><path d="M25.0215 55.7483H54.9775V68.4412H25.0215V55.7483Z" fill="#BFE1FF"/><path d="M39.9365 55.7483H54.978V68.4412H39.9365V55.7483Z" fill="#A3D4FF"/><path d="M35.3765 59.5709C36.6527 59.5709 37.6879 58.5358 37.6879 57.2589V54.1199H33.0645V57.2589C33.0645 58.5358 34.0996 59.5709 35.3765 59.5709Z" fill="#2864F0"/><path d="M40.0005 59.5709C41.2773 59.5709 42.3125 58.5358 42.3125 57.2589V54.1199H37.6885V57.2589C37.6885 58.5358 38.7236 59.5709 40.0005 59.5709Z" fill="#4A98F7"/><path d="M39.9365 54.1199V59.5673C39.9579 59.5679 39.9786 59.5709 40 59.5709C41.2769 59.5709 42.312 58.5358 42.312 57.2589V54.1193H39.9365V54.1199Z" fill="#4A7AFF"/><path d="M44.6229 59.5709C45.8998 59.5709 46.9349 58.5358 46.9349 57.2589V54.1199H42.3115V57.2589C42.3115 58.5358 43.3467 59.5709 44.6229 59.5709Z" fill="#27488F"/><path d="M26.1288 59.5709C27.4056 59.5709 28.4408 58.5358 28.4408 57.2589V54.1199H23.8174V57.2589C23.8174 58.5358 24.8519 59.5709 26.1288 59.5709Z" fill="#2864F0"/><path d="M53.8706 59.5709C55.1475 59.5709 56.1826 58.5358 56.1826 57.2589V54.1199H51.5586V57.2589C51.5586 58.5358 52.5937 59.5709 53.8706 59.5709Z" fill="#27488F"/><path d="M49.2476 59.5709C50.5238 59.5709 51.559 58.5358 51.559 57.2589V54.1199H46.9355V57.2589C46.9355 58.5358 47.9707 59.5709 49.2476 59.5709Z" fill="#4A7AFF"/><path d="M30.7528 59.5709C32.0297 59.5709 33.0648 58.5358 33.0648 57.2589V54.1199H28.4414V57.2589C28.4414 58.5358 29.4766 59.5709 30.7528 59.5709Z" fill="#4A98F7"/></svg>