<svg viewBox="0 0 80 80" fill="none" xmlns="http://www.w3.org/2000/svg"><g clip-path="url(#clip0)"><path d="M40 80C62.0914 80 80 62.0914 80 40C80 17.9086 62.0914 0 40 0C17.9086 0 0 17.9086 0 40C0 62.0914 17.9086 80 40 80Z" fill="#FFDC00"/><path d="M80 40C80 39.9105 79.9972 39.8216 79.9966 39.7322L70.0049 29.7405L39.0625 13.7575L12.8174 33.8678L28.4069 49.4572L14.4841 55.9086L18.8691 60.2936L16.935 61.7592L34.846 79.6702C36.5335 79.8873 38.2536 79.9998 40.0002 79.9998C62.0914 80 80 62.0914 80 40Z" fill="#FFC000"/><path d="M63.1566 42.6897H16.8447L21.9085 32.1824C23.2539 29.3905 26.0794 27.6156 29.1786 27.6156H52.0438C55.4432 27.6156 58.478 29.7458 59.6336 32.9427L63.1566 42.6897Z" fill="#005C83"/><path d="M59.6327 32.9427C58.4772 29.7458 55.4422 27.6156 52.0428 27.6156H39.9922V42.6897H63.1556L59.6327 32.9427Z" fill="#00263F"/><path d="M60.3098 40.9067H19.6904L24.1318 32.885C25.312 30.7536 27.7901 29.3986 30.5084 29.3986H50.5631C53.5446 29.3986 56.2065 31.0248 57.22 33.4655L60.3098 40.9067Z" fill="#B9EAFF"/><path d="M57.2194 33.4655C56.2059 31.0248 53.5441 29.3986 50.5625 29.3986H39.9922V40.9067H60.3094L57.2194 33.4655Z" fill="#35CCFF"/><path d="M67.1826 33.8678L40 15.2816L12.8173 33.8678L9.99512 29.7405L40 9.22438L70.0048 29.7405L67.1826 33.8678Z" fill="#FF6838"/><path d="M40 15.2816L67.1827 33.8678L70.0048 29.7405L40 9.22438V15.2816Z" fill="#AE4E32"/><path d="M26.1158 53.4047H16.9346V61.7594H26.1158V53.4047Z" fill="#333"/><path d="M63.066 53.4047H53.8848V61.7594H63.066V53.4047Z" fill="#1A1A1A"/><path d="M59.5312 58.3995H20.4688C15.8089 58.3995 12.0312 54.6219 12.0312 49.962V47.2225C12.0312 42.5627 15.8089 38.785 20.4688 38.785H59.5312C64.1911 38.785 67.9688 42.5627 67.9688 47.2225V49.962C67.9688 54.6219 64.1911 58.3995 59.5312 58.3995Z" fill="#0074A3"/><path d="M59.5309 38.785H39.9922V58.3994H59.5309C64.1908 58.3994 67.9684 54.6219 67.9684 49.9619V47.2225C67.9684 42.5625 64.1908 38.785 59.5309 38.785Z" fill="#005C83"/><path d="M25.7443 46.1406H15.21V50.3178H25.7443V46.1406Z" fill="#35CCFF"/><path d="M51.9871 46.1406H28.0137V50.3178H51.9871V46.1406Z" fill="#005C83"/><path d="M51.9859 46.1406H39.9922V50.3176H51.9859V46.1406Z" fill="#00263F"/><path d="M64.7902 46.1406H54.2559V50.3178H64.7902V46.1406Z" fill="#00BAFF"/></g><defs><clipPath id="clip0"><path fill="#fff" d="M0 0H80V80H0z"/></clipPath></defs></svg>