<svg viewBox="0 0 140 141" fill="none" xmlns="http://www.w3.org/2000/svg"><g clip-path="url(#clip0)"><path d="M140 70.6914C140 109.351 108.66 140.691 70 140.691C31.34 140.691 0 109.351 0 70.6914C0 32.0314 31.34 0.691406 70 0.691406C108.66 0.691406 140 32.0314 140 70.6914Z" fill="#F0FAA0"/><path d="M48.125 91.7461V108.699C48.125 109.454 47.5128 110.066 46.7578 110.066H16.6797C15.9247 110.066 15.3125 109.454 15.3125 108.699V91.7461C15.3125 90.9911 15.9247 90.3789 16.6797 90.3789H46.7578C47.5128 90.3789 48.125 90.9911 48.125 91.7461ZM46.7578 66.3164H16.6797C15.9247 66.3164 15.3125 66.9286 15.3125 67.6836V84.6367C15.3125 85.3917 15.9247 86.0039 16.6797 86.0039H46.7578C47.5128 86.0039 48.125 85.3917 48.125 84.6367V67.6836C48.125 66.9286 47.5128 66.3164 46.7578 66.3164ZM83.9453 90.3789H53.8672C53.1122 90.3789 52.5 90.9911 52.5 91.7461V108.699C52.5 109.454 53.1122 110.066 53.8672 110.066H83.9453C84.7003 110.066 85.3125 109.454 85.3125 108.699V91.7461C85.3125 90.9911 84.7003 90.3789 83.9453 90.3789ZM83.9453 66.3164H53.8672C53.1122 66.3164 52.5 66.9286 52.5 67.6836V84.6367C52.5 85.3917 53.1122 86.0039 53.8672 86.0039H83.9453C84.7003 86.0039 85.3125 85.3917 85.3125 84.6367V67.6836C85.3125 66.9286 84.7003 66.3164 83.9453 66.3164ZM123.32 90.3789H93.2422C92.4872 90.3789 91.875 90.9911 91.875 91.7461V108.699C91.875 109.454 92.4872 110.066 93.2422 110.066H123.32C124.075 110.066 124.688 109.454 124.688 108.699V91.7461C124.688 90.9911 124.075 90.3789 123.32 90.3789ZM123.32 66.3164H93.2422C92.4872 66.3164 91.875 66.9286 91.875 67.6836V84.6367C91.875 85.3917 92.4872 86.0039 93.2422 86.0039H123.32C124.075 86.0039 124.688 85.3917 124.688 84.6367V67.6836C124.688 66.9286 124.075 66.3164 123.32 66.3164Z" fill="#EBF582"/><path d="M123.747 115.535C110.906 130.908 91.5967 140.691 69.9998 140.691C48.4029 140.691 29.0933 130.908 16.2527 115.535H123.747Z" fill="#F2C230"/><path d="M113.477 7.52734V43.0742C113.477 43.8292 112.864 44.4414 112.109 44.4414H71.0938C70.3388 44.4414 69.7266 43.8292 69.7266 43.0742V7.52734C69.7266 6.77238 70.3388 6.16016 71.0938 6.16016H112.109C112.864 6.16016 113.477 6.77238 113.477 7.52734Z" fill="#D29650"/><path d="M121.68 72.4688L53.3203 82.7227V41.707H121.68V72.4688Z" fill="#AA6432"/><path d="M82.0312 17.0977H69.7266V11.6289H82.0312C82.7862 11.6289 83.3984 12.2411 83.3984 12.9961V15.7305C83.3984 16.4854 82.7862 17.0977 82.0312 17.0977Z" fill="#F7D139"/><path d="M109.375 123.055C109.375 124.565 108.151 125.789 106.641 125.789H79.2971C77.7869 125.789 76.5628 124.565 76.5628 123.055C76.5628 121.544 77.7869 120.32 79.2971 120.32H106.641C108.151 120.32 109.375 121.544 109.375 123.055ZM54.6878 120.32H20.6484C22.5991 122.26 24.661 124.088 26.8283 125.789H54.6878C56.198 125.789 57.4221 124.565 57.4221 123.055C57.4221 121.544 56.198 120.32 54.6878 120.32Z" fill="#E3A600"/><path d="M79.2969 66.3164H53.3203V49.9102H79.2969C80.0518 49.9102 80.6641 50.5224 80.6641 51.2773V64.9492C80.6641 65.7042 80.0518 66.3164 79.2969 66.3164Z" fill="#F63"/><path d="M133.164 21.8828H61.521C61.518 21.8828 61.5147 21.8828 61.5117 21.8828H36.3144L34.0979 13.0166C33.7673 11.694 32.524 10.842 31.2082 10.9584C31.1243 10.9505 31.0393 10.9453 30.9531 10.9453H9.51562C8.03578 10.9453 6.83594 12.1695 6.83594 13.6797C6.83594 15.1899 8.03551 16.4141 9.51562 16.4141H29.3106L31.5074 25.2018L42.2652 81.9488L37.0546 97.5807C36.5769 99.0133 37.3513 100.562 38.7841 101.039C39.0709 101.135 39.3624 101.181 39.6493 101.181C40.7941 101.181 41.8611 100.456 42.2428 99.3099L47.0728 84.8199L133.51 73.8141C134.876 73.6402 135.899 72.4783 135.899 71.1016V54.7292C135.899 54.7289 135.899 54.7287 135.899 54.7287L135.898 24.6172C135.898 23.107 134.674 21.8828 133.164 21.8828ZM37.4809 27.3516H59.0617L60.4363 40.4109L40.0701 41.0098L37.4809 27.3516ZM41.1018 46.4506L61.0107 45.8652L62.3252 58.3512L43.6775 60.0361L41.1018 46.4506ZM47.3244 79.2752L44.7005 65.4346L62.8975 63.7901L64.2729 76.8566C64.2819 76.943 64.2953 77.0283 64.312 77.112L47.3244 79.2752ZM64.5605 27.3516H86.1361C86.1361 27.4049 86.1342 27.4582 86.1375 27.5121L86.8506 39.6338L65.9184 40.2493L64.5605 27.3516ZM66.4923 45.7039L87.1716 45.0957L87.8158 56.0477L67.7718 57.859L66.4923 45.7039ZM69.7189 76.4235C69.7165 76.377 69.7162 76.3308 69.7113 76.284L68.3443 63.2979L88.1371 61.5094L88.871 73.985L69.7189 76.4235ZM91.6062 27.3516H110.742V38.9314L92.3193 39.4731L91.6062 27.3516ZM92.6406 44.9347L110.742 44.4023V53.9756L93.2654 55.555L92.6406 44.9347ZM94.3086 73.2926L93.5865 61.0172L110.742 59.4668V71.1016C110.742 71.1347 110.746 71.1666 110.747 71.1995L94.3086 73.2926ZM130.43 68.6931L116.211 70.5036V58.9727L130.43 57.6878V68.6931ZM130.43 52.1969L116.211 53.4818V44.2418L130.43 43.8237V52.1969ZM130.43 38.3522L116.211 38.7703V27.3516H130.43V38.3522Z" fill="#414669"/><path d="M121.68 95.0273V100.496C121.68 101.251 121.067 101.863 120.312 101.863H38.2812C37.5263 101.863 36.9141 101.251 36.9141 100.496V95.0273C36.9141 94.2724 37.5263 93.6602 38.2812 93.6602H120.312C121.067 93.6602 121.68 94.2724 121.68 95.0273ZM21.5332 8.89453H9.91211C7.08039 8.89453 4.78516 11.19 4.78516 14.0215C4.78516 16.8529 7.08066 19.1484 9.91211 19.1484H21.5332C24.3646 19.1484 26.6602 16.8529 26.6602 14.0215C26.6602 11.19 24.3646 8.89453 21.5332 8.89453Z" fill="#F63"/><path d="M110.742 94.3438V113.484C110.742 114.239 110.13 114.852 109.375 114.852H103.906C103.151 114.852 102.539 114.239 102.539 113.484V94.3438C102.539 93.5888 103.151 92.9766 103.906 92.9766H109.375C110.13 92.9766 110.742 93.5888 110.742 94.3438ZM57.4219 92.9766H51.9531C51.1982 92.9766 50.5859 93.5888 50.5859 94.3438V113.484C50.5859 114.239 51.1982 114.852 51.9531 114.852H57.4219C58.1768 114.852 58.7891 114.239 58.7891 113.484V94.3438C58.7891 93.5888 58.1768 92.9766 57.4219 92.9766Z" fill="#FF5019"/><path d="M116.211 116.219C116.211 121.504 111.926 125.789 106.641 125.789C101.355 125.789 97.0703 121.504 97.0703 116.219C97.0703 110.933 101.355 106.648 106.641 106.648C111.926 106.648 116.211 110.933 116.211 116.219ZM54.6875 106.648C49.402 106.648 45.1172 110.933 45.1172 116.219C45.1172 121.504 49.402 125.789 54.6875 125.789C59.973 125.789 64.2578 121.504 64.2578 116.219C64.2578 110.933 59.973 106.648 54.6875 106.648Z" fill="#501E0F"/><path d="M112.109 116.219C112.109 119.239 109.661 121.688 106.641 121.688C103.62 121.688 101.172 119.239 101.172 116.219C101.172 113.198 103.62 110.75 106.641 110.75C109.661 110.75 112.109 113.198 112.109 116.219ZM54.6875 110.75C51.6671 110.75 49.2188 113.198 49.2188 116.219C49.2188 119.239 51.6671 121.688 54.6875 121.688C57.7079 121.688 60.1562 119.239 60.1562 116.219C60.1562 113.198 57.7076 110.75 54.6875 110.75Z" fill="#B9783D"/></g><defs><clipPath id="clip0"><path fill="#fff" transform="translate(0 .691)" d="M0 0H140V140H0z"/></clipPath></defs></svg>