<svg viewBox="0 0 200 200" fill="none" xmlns="http://www.w3.org/2000/svg"><g clip-path="url(#clip0)" fill="#4AE1B9" fill-opacity=".26"><path d="M56.6667 113.333H63.3334V120H56.6667V113.333Z"/><path d="M69.9994 113.333H76.6661V120H69.9994V113.333Z"/><path d="M83.3328 113.333H89.9994V120H83.3328V113.333Z"/><path d="M56.6667 126.667H63.3334V133.333H56.6667V126.667Z"/><path d="M69.9994 126.667H76.6661V133.333H69.9994V126.667Z"/><path d="M83.3328 126.667H89.9994V133.333H83.3328V126.667Z"/><path d="M96.6658 126.667H103.333V133.333H96.6658V126.667Z"/><path d="M109.999 126.667H116.666V133.333H109.999V126.667Z"/><path d="M56.6667 140H63.3334V146.667H56.6667V140Z"/><path d="M69.9994 140H76.6661V146.666H69.9994V140Z"/><path d="M83.3328 140H89.9994V146.666H83.3328V140Z"/><path d="M96.6658 140H103.333V146.666H96.6658V140Z"/><path d="M109.999 140H116.666V146.666H109.999V140Z"/><path d="M56.6667 153.333H63.3334V160H56.6667V153.333Z"/><path d="M69.9994 153.333H76.6661V160H69.9994V153.333Z"/><path d="M83.3328 153.333H89.9994V160H83.3328V153.333Z"/><path d="M96.6658 153.333H103.333V160H96.6658V153.333Z"/><path d="M109.999 153.333H116.666V160H109.999V153.333Z"/><path d="M56.6663 166.666H63.3329V173.333H56.6663V166.666Z"/><path d="M69.9994 166.666H76.6661V173.333H69.9994V166.666Z"/><path d="M83.3328 166.666H89.9994V173.333H83.3328V166.666Z"/><path d="M96.6658 166.666H103.333V173.333H96.6658V166.666Z"/><path d="M109.999 166.666H116.666V173.333H109.999V166.666Z"/><path d="M56.6663 180H63.3329V186.666H56.6663V180Z"/><path d="M69.9994 180H76.6661V186.666H69.9994V180Z"/><path d="M83.3328 180H89.9994V186.666H83.3328V180Z"/><path d="M96.6658 180H103.333V186.666H96.6658V180Z"/><path d="M109.999 180H116.666V186.666H109.999V180Z"/><path d="M196.665 10.0016H173.332V3.33502C173.332 1.49421 171.84 0.00170898 169.999 0.00170898H136.666C134.825 0.00170898 133.332 1.49421 133.332 3.33502V10.0016H3.33331C1.4925 10.0016 0 11.4941 0 13.3349V26.6682C0 28.5106 1.4925 30.0015 3.33331 30.0015H13.3332V93.3344C13.3332 95.1768 14.8257 96.6677 16.6665 96.6677C18.5074 96.6677 19.9999 98.1602 19.9999 100.001C19.9999 101.843 18.5074 103.334 16.6665 103.334C14.8257 103.334 13.3332 101.843 13.3332 100.001H6.66662C6.67638 102.441 7.58295 104.793 9.21706 106.606L0.667313 118.002L0.70963 118.035C0.26367 118.595 0.0146483 119.286 0 120.001V133.334C0 134.219 0.35156 135.066 0.976555 135.691L7.64317 142.357C8.26817 142.982 9.11614 143.334 9.99993 143.334H23.3332C24.2169 143.334 25.0649 142.982 25.6899 142.357L32.3565 135.691C32.9815 135.066 33.3331 134.219 33.3331 133.334V120.001C33.3184 119.286 33.0694 118.595 32.6235 118.035L32.6658 118.002L24.116 106.606C26.3426 104.132 27.1824 100.707 26.354 97.4847C25.5272 94.2621 23.1411 91.6677 19.9999 90.5723V30.0015H133.332V33.3348C133.332 35.1772 134.825 36.6681 136.666 36.6681H143.332V193.334H129.999V60.0013H123.332V73.3345H103.333V66.6679H96.666V73.3345H76.6661V70.0012H69.9995V73.3345H49.9996V63.3346H93.3326V56.668H49.9996V43.3347H43.333V193.334H38.0466L22.3566 177.645C21.0545 176.343 18.9452 176.343 17.6431 177.645L1.95311 193.334H0V200H199.999V193.334H197.399C199.745 190.773 200.578 187.17 199.595 183.838C198.613 180.508 195.959 177.933 192.598 177.054C194.292 172.876 192.984 168.083 189.4 165.347C185.817 162.611 180.847 162.611 177.264 165.347C173.68 168.083 172.372 172.876 174.066 177.054C170.705 177.933 168.051 180.508 167.069 183.838C166.086 187.17 166.919 190.773 169.265 193.334H163.332V36.6681H169.999C171.84 36.6681 173.332 35.1772 173.332 33.3348V30.0015H196.665C198.506 30.0015 199.999 28.5106 199.999 26.6682V13.3349C199.999 11.4941 198.506 10.0016 196.665 10.0016ZM18.3332 110.001L23.3332 116.668H9.99993L14.9999 110.001H18.3332ZM26.6665 131.956L21.953 136.667H11.3801L6.66662 131.956V123.334H26.6665V131.956ZM182.333 16.6683L173.332 22.6692V16.6683H182.333ZM139.999 6.66833H153.332V20.0016H139.999V6.66833ZM49.9996 17.3356L59.0002 23.3349H40.9991L49.9996 17.3356ZM29.9998 22.6692L20.9992 16.6683H39.0004L29.9998 22.6692ZM60.9989 16.6683H79.0001L69.9995 22.6692L60.9989 16.6683ZM89.9993 17.3356L98.9999 23.3349H80.9988L89.9993 17.3356ZM100.999 16.6683H119L109.999 22.6692L100.999 16.6683ZM6.66662 16.6683H9.00059L19.0005 23.3349H6.66662V16.6683ZM120.998 23.3349L130.998 16.6683H133.332V23.3349H120.998ZM156.666 182.334L150.666 173.334L156.666 164.335V182.334ZM156.666 102.335L150.666 93.3344L156.666 84.3354V102.335ZM149.999 104.335L155.998 113.334L149.999 122.335V104.335ZM149.999 82.3351V64.3356L155.998 73.3345L149.999 82.3351ZM149.999 144.335L155.998 153.334L149.999 162.335V144.335ZM156.666 142.315L150.666 133.334L156.666 124.335V142.315ZM150.666 53.3347L156.666 44.3357V62.3352L150.666 53.3347ZM149.999 42.3354V36.6681H153.772L149.999 42.3354ZM123.332 80.0011V113.334H103.333V80.0011H123.332ZM96.666 80.0011V108.668L89 101.091C88.3783 100.478 87.54 100.131 86.666 100.128H76.6661V80.0011H96.666ZM69.9995 80.0011V85.5577H49.9996V80.0011H69.9995ZM19.9999 184.714L28.6196 193.334H11.3801L19.9999 184.714ZM49.9996 193.334V92.2243H69.9995V103.474C69.9995 105.317 71.492 106.808 73.3328 106.808H85.2956L97.6653 119.039C98.287 119.653 99.1253 119.999 99.9993 120.001H123.332V193.334H49.9996ZM149.999 184.335L155.998 193.334H149.999V184.335ZM189.999 190C188.158 190 186.665 188.509 186.665 186.667C186.665 184.826 188.158 183.334 189.999 183.334C191.839 183.334 193.332 184.826 193.332 186.667C193.332 188.509 191.839 190 189.999 190ZM183.332 170C185.173 170 186.665 171.493 186.665 173.334C186.665 175.176 185.173 176.667 183.332 176.667C181.491 176.667 179.999 175.176 179.999 173.334C179.999 171.493 181.491 170 183.332 170ZM176.665 183.334C178.506 183.334 179.999 184.826 179.999 186.667C179.999 188.509 178.506 190 176.665 190C174.825 190 173.332 188.509 173.332 186.667C173.332 184.826 174.825 183.334 176.665 183.334ZM166.665 30.0015H139.999V26.6682H156.666C158.506 26.6682 159.999 25.1773 159.999 23.3349V6.66833H166.665V30.0015ZM184.331 23.3349L193.332 17.3356V23.3349H184.331Z"/></g><defs><clipPath id="clip0"><path fill="#fff" d="M0 0H200V200H0z"/></clipPath></defs></svg>