<svg viewBox="0 0 40 40" fill="none" xmlns="http://www.w3.org/2000/svg"><path d="M40 0H0V40H40V0Z" fill="#FCD577"/><path d="M25.9687 16.8315H29.6151C30.135 16.8315 30.5564 16.4101 30.5564 15.8902V7.48758C30.5564 6.96773 30.135 6.54633 29.6151 6.54633H25.9687C25.4489 6.54633 25.0275 6.96773 25.0275 7.48758V15.8903C25.0275 16.4101 25.4489 16.8315 25.9687 16.8315Z" fill="#C4A457"/><path d="M10.0671 27.4437C8.89564 27.4437 7.86002 27.9241 7.22845 28.6599V32.0097C7.85994 32.7455 8.89564 33.2259 10.0671 33.2259C11.9911 33.2259 13.5509 31.9315 13.5509 30.3348C13.5508 28.7381 11.9911 27.4437 10.0671 27.4437Z" fill="#fff"/><path d="M10.0677 33.7751C8.78573 33.7751 7.56878 33.2489 6.81222 32.3674C6.61472 32.1372 6.6412 31.7905 6.87136 31.5929C7.10159 31.3954 7.44831 31.4219 7.64581 31.6521C8.19651 32.2937 9.1019 32.6768 10.0677 32.6768C11.6858 32.6768 13.0022 31.6262 13.0022 30.3349C13.0022 29.0436 11.6858 27.993 10.0677 27.993C9.1019 27.993 8.19651 28.3761 7.64581 29.0177C7.44831 29.2479 7.10151 29.2743 6.87136 29.0768C6.6412 28.8793 6.61472 28.5326 6.81222 28.3024C7.5687 27.4209 8.78573 26.8947 10.0677 26.8947C12.2914 26.8947 14.1007 28.438 14.1007 30.335C14.1007 32.2318 12.2914 33.7751 10.0677 33.7751Z" fill="#E25749"/><path d="M40 4.2218V0H0V39.9999H26.4815V36.8156H21.5765V28.7757H18.4234V36.8156H3.15313V23.5736H24.5722V20.4206H8.25773H5.86117H3.15313V3.12187H18.4234V14.7191H21.5765V3.12187H36.8469V20.4206H32.8978V23.5736H36.8469V36.8156H32.5138V39.9999H40V6.88453V4.2218Z" fill="#415E72"/><path d="M6.17908 27.0685H3.15283V33.6017H6.17908C6.90502 33.6017 7.49346 33.0133 7.49346 32.2874V28.3828C7.49338 27.6571 6.90486 27.0685 6.17908 27.0685Z" fill="#fff"/><path d="M11.6845 3.67108H3.70172V17.7612H7.6286C9.86867 17.7612 11.6845 15.9453 11.6845 13.7053V3.67108Z" fill="#fff"/><path d="M7.62893 18.3105H3.15283V3.12189H12.2342V13.7052C12.2341 16.2445 10.1683 18.3105 7.62893 18.3105ZM4.25127 17.212H7.629C9.5626 17.212 11.1358 15.6389 11.1358 13.7053V4.22032H4.25127V17.212Z" fill="#CFDCE5"/><path d="M36.8464 6.54645H35.045V16.8315H36.8464V6.54645Z" fill="#344F5E"/><path d="M27.7726 8.57678H30.5556V14.8011H27.7726C27.3036 14.8011 26.9233 14.4208 26.9233 13.9518V9.42608C26.9234 8.95702 27.3036 8.57678 27.7726 8.57678Z" fill="#B2934D"/><path d="M7.694 6.90119C7.4183 6.90119 7.1947 6.67759 7.1947 6.40189V3.67111C7.1947 3.39541 7.4183 3.17181 7.694 3.17181C7.9697 3.17181 8.1933 3.39541 8.1933 3.67111V6.40197C8.1933 6.67767 7.9697 6.90119 7.694 6.90119Z" fill="#CFDCE5"/><path d="M9.64133 5.40338C9.36562 5.40338 9.14203 5.17978 9.14203 4.90408V3.67111C9.14203 3.39541 9.36562 3.17181 9.64133 3.17181C9.91703 3.17181 10.1406 3.39541 10.1406 3.67111V4.90416C10.1406 5.17978 9.91703 5.40338 9.64133 5.40338Z" fill="#CFDCE5"/><path d="M5.74661 5.40338C5.47091 5.40338 5.24731 5.17978 5.24731 4.90408V3.67111C5.24731 3.39541 5.47091 3.17181 5.74661 3.17181C6.02231 3.17181 6.24591 3.39541 6.24591 3.67111V4.90416C6.24591 5.17978 6.02231 5.40338 5.74661 5.40338Z" fill="#CFDCE5"/><path d="M7.6354 14.2516C8.03982 14.2516 8.36767 13.9238 8.36767 13.5194C8.36767 13.115 8.03982 12.7871 7.6354 12.7871C7.23098 12.7871 6.90314 13.115 6.90314 13.5194C6.90314 13.9238 7.23098 14.2516 7.6354 14.2516Z" fill="#415E72"/><path d="M9.65902 31.0673C10.0634 31.0673 10.3913 30.7394 10.3913 30.335C10.3913 29.9306 10.0634 29.6027 9.65902 29.6027C9.2546 29.6027 8.92676 29.9306 8.92676 30.335C8.92676 30.7394 9.2546 31.0673 9.65902 31.0673Z" fill="#415E72"/></svg>