<svg viewBox="0 0 150 151" fill="none" xmlns="http://www.w3.org/2000/svg"><g clip-path="url(#clip0)"><path d="M75 150.691C116.421 150.691 150 117.113 150 75.6914C150 34.2701 116.421 0.691406 75 0.691406C33.5786 0.691406 0 34.2701 0 75.6914C0 117.113 33.5786 150.691 75 150.691Z" fill="#FFD05B"/><path d="M80.4166 95.483V150.483C78.6309 150.602 76.8154 150.691 75 150.691C73.1845 150.691 71.369 150.632 69.5833 150.483V95.483H80.4166Z" fill="#324A5E"/><path d="M118.81 121.406H31.1906C30.1489 121.406 29.3156 120.572 29.3156 119.531V31.8818C29.3156 30.8402 30.1489 30.0068 31.1906 30.0068H118.839C119.881 30.0068 120.714 30.8402 120.714 31.8818V119.531C120.714 120.543 119.851 121.406 118.81 121.406Z" fill="#FF7058"/><path d="M113.303 116.703H36.6963C35.2082 116.703 33.988 115.483 33.988 113.995V37.3879C33.988 35.8998 35.2082 34.6796 36.6963 34.6796H113.303C114.792 34.6796 116.012 35.8998 116.012 37.3879V113.995C116.012 115.483 114.792 116.703 113.303 116.703ZM36.6963 37.0308C36.488 37.0308 36.3094 37.2093 36.3094 37.4177V114.025C36.3094 114.233 36.488 114.412 36.6963 114.412H113.303C113.512 114.412 113.69 114.233 113.69 114.025V37.3879C113.69 37.1796 113.512 37.001 113.303 37.001H36.6963V37.0308Z" fill="#fff"/><path d="M78.393 46.5546C82.1727 49.7688 84.0775 54.7093 84.0775 61.376C84.0775 68.0426 82.143 72.9236 78.2441 75.9891C74.3453 79.0843 68.4227 80.6319 60.4465 80.6319H53.2739V109.233H41.2203V41.7034H60.2977C68.5715 41.7034 74.6132 43.3403 78.393 46.5546ZM69.5537 67.7748C70.9822 66.1677 71.7263 63.7867 71.7263 60.6617C71.7263 57.5367 70.7739 55.3343 68.8989 54.0248C67.0239 52.7153 64.1072 52.0605 60.1489 52.0605H53.2739V70.1855H61.3691C65.387 70.1855 68.1251 69.3819 69.5537 67.7748Z" fill="#fff"/><path d="M104.791 92.2985L100.684 83.0128C100.357 82.239 99.5534 81.733 98.6903 81.733H79.1962C78.3331 81.733 77.5593 82.239 77.2022 83.0128L73.095 92.2985C70.6546 93.1021 68.8688 95.4235 68.8688 98.1318V102.537C68.8688 103.965 69.7915 105.215 71.0712 105.662V108.549C71.0712 108.935 71.3986 109.263 71.7855 109.263H76.0117C76.3986 109.263 76.726 108.935 76.726 108.549V105.87H101.19V108.549C101.19 108.935 101.518 109.263 101.905 109.263H106.131C106.518 109.263 106.845 108.935 106.845 108.549V105.662C108.125 105.215 109.047 103.965 109.047 102.537V98.1318C109.018 95.4235 107.232 93.1021 104.791 92.2985ZM79.1665 83.8759L98.6903 83.8461L102.291 92.0009H75.595L79.1665 83.8759ZM74.7915 101.793C73.2141 101.793 71.9343 100.513 71.9343 98.9354C71.9343 98.4295 72.0534 97.9533 72.2915 97.5366C72.7974 96.6437 73.72 96.0485 74.7915 96.0485C75.8926 96.0485 76.8153 96.6437 77.3212 97.5366C77.5296 97.9533 77.6784 98.4295 77.6784 98.9354C77.6486 100.513 76.3688 101.793 74.7915 101.793ZM95.8331 97.864C95.8331 99.6199 94.4046 101.019 92.6784 101.019H85.2677C83.5415 101.019 82.1129 99.6199 82.1129 97.864V97.5366V96.8223H95.8331V97.5366V97.864ZM103.155 101.793C101.577 101.793 100.268 100.513 100.268 98.9057C100.268 98.3997 100.416 97.9235 100.655 97.5068C101.131 96.614 102.083 96.0187 103.155 96.0187C104.226 96.0187 105.178 96.614 105.655 97.5068C105.893 97.9235 106.041 98.3997 106.041 98.9057C106.012 100.513 104.732 101.793 103.155 101.793Z" fill="#fff"/></g><defs><clipPath id="clip0"><path fill="#fff" transform="translate(0 .691)" d="M0 0H150V150H0z"/></clipPath></defs></svg>