<svg viewBox="0 0 150 151" fill="none" xmlns="http://www.w3.org/2000/svg"><g clip-path="url(#clip0)"><path d="M74.9994 0.691406C116.422 0.691406 150 34.2697 150 75.6908C150 117.113 116.422 150.691 74.9994 150.691C33.5783 150.691 0 117.113 0 75.6908C0 34.2697 33.5783 0.691406 74.9994 0.691406Z" fill="#B1E9F1"/><path d="M62.5275 15.2524C63.4551 15.2524 64.3302 15.4718 65.1051 15.8626C65.9456 15.0423 67.0937 14.5349 68.3611 14.5349C70.556 14.5349 72.3962 16.054 72.8872 18.0989C73.9847 18.4282 74.8653 19.2552 75.2667 20.3178C75.3979 20.3043 75.5318 20.2964 75.6669 20.2964C77.6957 20.2964 79.3392 21.9412 79.3392 23.9703C79.3392 25.9994 77.6957 27.6426 75.6669 27.6426C75.0352 27.6426 74.4411 27.4833 73.9217 27.2023C73.4761 28.7281 72.0669 29.8428 70.3967 29.8428C69.3757 29.8428 68.4522 29.4265 67.7869 28.7547C67.1219 29.4265 66.1984 29.8428 65.1771 29.8428C64.2068 29.8428 63.3262 29.4667 62.669 28.8526C61.9973 29.5874 61.0311 30.0476 59.9576 30.0476C58.9539 30.0476 58.0439 29.6448 57.3801 28.9917C57.0777 29.0585 56.7619 29.0934 56.4394 29.0934C54.0224 29.0934 52.0645 27.1355 52.0645 24.7185C52.0645 22.303 54.0224 20.3436 56.4394 20.3436C56.5706 20.3436 56.7004 20.3503 56.8302 20.3609C57.141 17.4875 59.5727 15.2524 62.5275 15.2524Z" fill="#fff"/><path d="M88.0879 94.5822H129.152V55.4873H88.0879V94.5822Z" fill="#E54A18"/><path d="M60.2461 94.5822H19.1836V55.4873H60.2461V94.5822Z" fill="#E54A18"/><path d="M60.2457 46.0549H20.5994L16.2939 58.2925H60.2457V46.0549Z" fill="#606060"/><path d="M60.2461 94.5823H19.1836V100.108H60.2461V94.5823Z" fill="#F3F3F3"/><path d="M46.3716 74.1102H37.2148V62.1523H46.3716V74.1102Z" fill="#785448"/><path d="M45.9029 73.5H37.6816V62.7627H45.9029V73.5Z" fill="#B9DDF9"/><path d="M39.7869 62.7627L42.7954 73.5H45.3557L42.3472 62.7627H39.7869ZM41.3607 73.5H40.0814L37.6816 64.9348V62.7627H38.3522L41.3607 73.5Z" fill="#E1F1FB"/><path d="M32.3475 74.1102H23.1904V62.1523H32.3475V74.1102Z" fill="#785448"/><path d="M31.8797 73.5H23.6572V62.7627H31.8797V73.5Z" fill="#B9DDF9"/><path d="M25.7637 62.7627L28.7722 73.5H31.3324L28.3225 62.7627H25.7637ZM27.3363 73.5H26.0581L23.6572 64.9348V62.7627H24.329L27.3363 73.5Z" fill="#E1F1FB"/><path d="M46.3716 90.1781H37.2148V78.22H46.3716V90.1781Z" fill="#785448"/><path d="M45.9029 89.5679H37.6816V78.8306H45.9029V89.5679Z" fill="#B9DDF9"/><path d="M39.7869 78.8306L42.7954 89.5679H45.3557L42.3472 78.8306H39.7869ZM41.3607 89.5679H40.0814L37.6816 81.0026V78.8306H38.3522L41.3607 89.5679Z" fill="#E1F1FB"/><path d="M32.3475 90.1781H23.1904V78.22H32.3475V90.1781Z" fill="#785448"/><path d="M31.8797 89.5679H23.6572V78.8306H31.8797V89.5679Z" fill="#B9DDF9"/><path d="M25.7637 78.8306L28.7722 89.5679H31.3324L28.3225 78.8306H25.7637ZM27.3363 89.5679H26.0581L23.6572 81.0026V78.8306H24.329L27.3363 89.5679Z" fill="#E1F1FB"/><path d="M88.0879 46.0549H127.736L132.042 58.2925H88.0879V46.0549Z" fill="#606060"/><path d="M92.6549 42.1539L73.865 31.9038L53.6484 42.1539V67.982H92.6549V42.1539Z" fill="#F3501E"/><path d="M94.3327 45.117L73.7171 34.0062L51.7781 44.8211L48.4189 42.2181L73.8738 29.8L97.8832 42.6063L94.3327 45.117Z" fill="#606060"/><path d="M57.4922 99.2369H88.8088V74.0149H57.4922V99.2369Z" fill="#F3501E"/><path d="M54.1348 73.4636H62.3786V92.5227H54.1348V73.4636Z" fill="#F3F3F3"/><path d="M83.626 73.4636H91.8713V92.5227H83.626V73.4636Z" fill="#F3F3F3"/><path d="M52.9883 100.257H63.5275V92.0327H52.9883V100.257Z" fill="#F3F3F3"/><path d="M66.2666 99.2371H80.0352V86.9125C80.0352 83.1265 76.9371 80.0283 73.1511 80.0283C69.365 80.0283 66.2669 83.1265 66.2669 86.9125V99.2371H66.2666Z" fill="#5C4036"/><path d="M66.2666 99.2371H73.5536V80.0403C73.4212 80.0336 73.2858 80.0283 73.1508 80.0283C69.3647 80.0283 66.2666 83.1265 66.2666 86.9125V99.2371Z" fill="#6C4C40"/><path d="M88.0879 94.5823H129.152V100.108H88.0879V94.5823Z" fill="#F3F3F3"/><path d="M53.4551 73.4636H63.0601V75.3547H53.4551V73.4636Z" fill="#E5E5E5"/><path d="M101.965 74.1102H111.122V62.1523H101.965V74.1102Z" fill="#785448"/><path d="M82.9463 73.4636H92.5516V75.3547H82.9463V73.4636Z" fill="#E5E5E5"/><path d="M52.4346 67.9819H93.8674V74.015H52.4346V67.9819Z" fill="#F3F3F3"/><path d="M82.4795 100.257H93.0187V92.033H82.4795V100.257Z" fill="#F3F3F3"/><path d="M102.433 73.5H110.654V62.7627H102.433V73.5Z" fill="#B9DDF9"/><path d="M108.549 62.7627L105.54 73.5H102.981L105.99 62.7627H108.549ZM106.975 73.5H108.254L110.654 64.9348V62.7627H109.983L106.975 73.5Z" fill="#E1F1FB"/><path d="M115.988 74.1102H125.145V62.1523H115.988V74.1102Z" fill="#785448"/><path d="M116.455 73.5H124.678V62.7627H116.455V73.5Z" fill="#B9DDF9"/><path d="M122.571 62.7627L119.563 73.5H117.004L120.012 62.7627H122.571ZM120.997 73.5H122.278L124.678 64.9348V62.7627H124.006L120.997 73.5Z" fill="#E1F1FB"/><path d="M101.965 90.1781H111.122V78.22H101.965V90.1781Z" fill="#785448"/><path d="M102.433 89.5679H110.654V78.8306H102.433V89.5679Z" fill="#B9DDF9"/><path d="M108.549 78.8306L105.54 89.5679H102.981L105.99 78.8306H108.549ZM106.975 89.5679H108.254L110.654 81.0026V78.8306H109.983L106.975 89.5679Z" fill="#E1F1FB"/><path d="M115.988 90.1781H125.145V78.22H115.988V90.1781Z" fill="#785448"/><path d="M116.455 89.5679H124.678V78.8306H116.455V89.5679Z" fill="#B9DDF9"/><path d="M122.571 78.8306L119.563 89.5679H117.004L120.012 78.8306H122.571ZM120.997 89.5679H122.278L124.678 81.0026V78.8306H124.006L120.997 89.5679Z" fill="#E1F1FB"/><path d="M57.8311 63.607H64.117V51.6492H57.8311V63.607Z" fill="#785448"/><path d="M58.1523 62.9968H63.7961V52.2595H58.1523V62.9968Z" fill="#B9DDF9"/><path d="M62.3507 52.2595L60.2855 62.9968H58.5283L60.5935 52.2595H62.3507ZM61.2708 62.9968H62.1488L63.7962 54.4316V52.2595H63.3359L61.2708 62.9968Z" fill="#E1F1FB"/><path d="M69.9824 63.607H76.2684V51.6492H69.9824V63.607Z" fill="#785448"/><path d="M70.3037 62.9968H75.9489V52.2595H70.3037V62.9968Z" fill="#B9DDF9"/><path d="M74.5011 52.2595L72.4359 62.9968H70.6787L72.745 52.2595H74.5011ZM73.4212 62.9968H74.2992L75.948 54.4316V52.2595H75.4863L73.4212 62.9968Z" fill="#E1F1FB"/><path d="M81.668 63.607H87.9539V51.6492H81.668V63.607Z" fill="#785448"/><path d="M81.9893 62.9968H87.633V52.2595H81.9893V62.9968Z" fill="#B9DDF9"/><path d="M86.1876 52.2595L84.1225 62.9968H82.3652L84.4315 52.2595H86.1876ZM85.1077 62.9968H85.9857L87.6331 54.4316V52.2595H87.1728L85.1077 62.9968Z" fill="#E1F1FB"/><path d="M62.0111 41.9355H84.2902C85.5134 41.9355 86.5133 42.9352 86.5133 44.1586V47.0654C86.5133 48.2886 85.5137 49.2885 84.2902 49.2885H62.0111C60.7892 49.2885 59.7881 48.2889 59.7881 47.0654V44.1586C59.7881 42.9354 60.7892 41.9355 62.0111 41.9355Z" fill="#747474"/><path d="M63.4645 42.7842H82.8367C84.3933 42.7842 85.6645 44.0568 85.6645 45.6119C85.6645 47.167 84.393 48.4396 82.8367 48.4396H63.4645C61.9094 48.4396 60.6367 47.167 60.6367 45.6119C60.6367 44.0568 61.9094 42.7842 63.4645 42.7842Z" fill="#FFD34E"/><path d="M73.8346 20.54C74.1463 20.54 74.3994 20.821 74.3994 21.1676C74.3994 21.513 74.1466 21.7939 73.8346 21.7939C73.5214 21.7939 73.2686 21.513 73.2686 21.1676C73.2686 20.821 73.5214 20.54 73.8346 20.54Z" fill="#BBB"/><path d="M65.9276 44.5721C65.9104 44.6029 65.8901 44.6269 65.8702 44.6404C65.85 44.655 65.8248 44.6618 65.794 44.6618C65.7633 44.6618 65.7284 44.6498 65.6924 44.6269C65.6549 44.6029 65.6106 44.5774 65.5585 44.5493C65.5075 44.52 65.4486 44.4945 65.3792 44.4716C65.3109 44.4476 65.2292 44.4368 65.1357 44.4368C65.0514 44.4368 64.9778 44.4461 64.9148 44.4664C64.8507 44.4866 64.7985 44.5144 64.7555 44.5507C64.7112 44.5868 64.6793 44.631 64.6579 44.6805C64.6377 44.7315 64.6271 44.7874 64.6271 44.8478C64.6271 44.9254 64.65 44.9896 64.6913 45.0391C64.7355 45.0913 64.7918 45.1355 64.8627 45.1715C64.9336 45.2076 65.0139 45.2398 65.105 45.2679C65.1946 45.2975 65.2884 45.3283 65.3821 45.3602C65.4785 45.3924 65.5708 45.4299 65.6605 45.4727C65.7516 45.5155 65.8318 45.5703 65.9039 45.6359C65.9748 45.7015 66.0311 45.7818 66.0738 45.8767C66.1166 45.9716 66.138 46.0868 66.138 46.2233C66.138 46.3707 66.1125 46.5098 66.063 46.6381C66.012 46.7667 65.9385 46.879 65.8409 46.9753C65.7445 47.0703 65.6241 47.1453 65.485 47.2015C65.3443 47.2563 65.1826 47.2844 65.003 47.2844C64.8987 47.2844 64.7971 47.2736 64.6939 47.2537C64.5935 47.2334 64.4971 47.2042 64.4048 47.1655C64.311 47.128 64.224 47.0837 64.1426 47.0304C64.0623 46.9783 63.9888 46.9194 63.9258 46.8538L64.1051 46.5634C64.1197 46.542 64.1385 46.5233 64.1625 46.5098C64.1865 46.4952 64.2135 46.487 64.2401 46.487C64.2788 46.487 64.3192 46.5031 64.362 46.5338C64.4062 46.5646 64.4584 46.5995 64.5185 46.637C64.5788 46.6745 64.6497 46.7093 64.73 46.7401C64.8117 46.7708 64.9081 46.787 65.0203 46.787C65.1929 46.787 65.3282 46.7454 65.4231 46.6624C65.5181 46.5807 65.5649 46.4629 65.5649 46.3091C65.5649 46.2236 65.5447 46.1527 65.502 46.0991C65.4592 46.0455 65.4003 45.9986 65.3306 45.9611C65.2597 45.9236 65.1794 45.8928 65.0883 45.8688C64.9986 45.8421 64.9049 45.8152 64.8126 45.7844C64.7189 45.7537 64.6266 45.7176 64.5369 45.676C64.4458 45.6333 64.3655 45.5785 64.2946 45.5102C64.2223 45.4434 64.166 45.3576 64.1232 45.2559C64.0805 45.1542 64.0591 45.0283 64.0591 44.8797C64.0591 44.7605 64.0831 44.6442 64.13 44.5305C64.178 44.418 64.2463 44.3178 64.3374 44.2308C64.4271 44.1426 64.5396 44.0729 64.672 44.0193C64.8044 43.9671 64.957 43.9402 65.1284 43.9402C65.3224 43.9402 65.5005 43.9709 65.6637 44.0313C65.8257 44.0917 65.9648 44.1757 66.0785 44.2841L65.9276 44.5721ZM68.9133 46.4764C68.9467 46.4764 68.9763 46.4884 69.0029 46.5151L69.2426 46.7747C69.1087 46.9393 68.9467 47.065 68.7527 47.152C68.5588 47.2402 68.3259 47.2844 68.054 47.2844C67.8117 47.2844 67.5938 47.2428 67.3995 47.1587C67.2056 47.077 67.0395 46.9607 66.9029 46.8133C66.7649 46.6648 66.6606 46.4881 66.5871 46.2833C66.5136 46.0786 66.4772 45.855 66.4772 45.6116C66.4772 45.3667 66.5159 45.1405 66.595 44.9372C66.6727 44.7324 66.7837 44.5557 66.927 44.4086C67.0702 44.2613 67.2387 44.145 67.4367 44.0632C67.6336 43.9815 67.853 43.9402 68.0924 43.9402C68.3306 43.9402 68.5421 43.9789 68.7267 44.058C68.9112 44.1356 69.0691 44.2387 69.1992 44.3659L68.9959 44.6483C68.9824 44.667 68.9678 44.6832 68.949 44.6963C68.9303 44.7098 68.9036 44.7166 68.8699 44.7166C68.8485 44.7166 68.8245 44.7098 68.8002 44.6963C68.7762 44.6843 68.7492 44.6682 68.7211 44.6495C68.6918 44.6307 68.6596 44.6093 68.6206 44.5865C68.5831 44.5651 68.5403 44.5437 68.4908 44.525C68.4398 44.5062 68.3824 44.4901 68.3183 44.4769C68.2515 44.4649 68.175 44.4596 68.0895 44.4596C67.9436 44.4596 67.8097 44.4836 67.6881 44.5358C67.5677 44.5879 67.4619 44.6629 67.3749 44.762C67.2879 44.861 67.2196 44.9814 67.1716 45.1247C67.1235 45.2665 67.0992 45.4299 67.0992 45.6119C67.0992 45.7964 67.1259 45.9599 67.1769 46.1029C67.229 46.2461 67.2999 46.3677 67.3884 46.4641C67.478 46.5631 67.5823 46.6381 67.703 46.6888C67.8249 46.7424 67.9532 46.7691 68.0924 46.7691C68.1753 46.7691 68.2503 46.7638 68.3186 46.7544C68.3842 46.7465 68.4457 46.7316 68.5031 46.7117C68.5594 46.6915 68.613 46.6663 68.6637 46.6355C68.7146 46.6047 68.7642 46.5672 68.8137 46.5218C68.8283 46.5083 68.8444 46.4978 68.8617 46.4884C68.8787 46.4805 68.896 46.4764 68.9133 46.4764ZM72.4184 43.9765V47.2487H71.8081V45.8181H70.2718V47.2487H69.6601V43.9765H70.2718V45.3845H71.8081V43.9765H72.4184ZM76.2674 45.6119C76.2674 45.8527 76.2272 46.0736 76.1481 46.2784C76.069 46.4817 75.9568 46.6598 75.8121 46.8098C75.6662 46.9583 75.4922 47.0747 75.2889 47.1579C75.0856 47.2422 74.8594 47.285 74.6104 47.285C74.364 47.285 74.1378 47.2422 73.9345 47.1579C73.7297 47.075 73.5557 46.9583 73.4112 46.8098C73.2653 46.6598 73.1517 46.482 73.0726 46.2784C72.9923 46.0736 72.9522 45.8527 72.9522 45.6119C72.9522 45.3722 72.9923 45.1501 73.0726 44.9454C73.1517 44.742 73.2653 44.5654 73.4112 44.4154C73.5557 44.2668 73.7297 44.1491 73.9345 44.0662C74.1378 43.9818 74.364 43.9405 74.6104 43.9405C74.7762 43.9405 74.9314 43.9592 75.0788 43.9979C75.2247 44.0366 75.3598 44.0902 75.4816 44.1611C75.6035 44.2308 75.7146 44.3149 75.8109 44.4168C75.9085 44.5159 75.9902 44.6295 76.0585 44.7529C76.1268 44.8759 76.1789 45.0098 76.2138 45.1557C76.2501 45.3001 76.2674 45.4525 76.2674 45.6119ZM75.644 45.6119C75.644 45.4326 75.6199 45.272 75.5731 45.1288C75.525 44.987 75.4553 44.8666 75.3671 44.7661C75.2774 44.667 75.1702 44.5909 75.0434 44.5373C74.9147 44.4851 74.7703 44.4596 74.6109 44.4596C74.4516 44.4596 74.3071 44.4851 74.1814 44.5373C74.0528 44.5909 73.9444 44.667 73.8548 44.7661C73.7651 44.8666 73.6954 44.987 73.6474 45.1288C73.5993 45.272 73.575 45.4326 73.575 45.6119C73.575 45.7926 73.599 45.9517 73.6474 46.095C73.6954 46.2382 73.7651 46.3586 73.8548 46.4562C73.9444 46.5567 74.0528 46.6314 74.1814 46.6838C74.3071 46.7375 74.4519 46.7641 74.6109 46.7641C74.7703 46.7641 74.9147 46.7375 75.0434 46.6838C75.1705 46.6317 75.2774 46.5567 75.3671 46.4562C75.4556 46.3586 75.525 46.2379 75.5731 46.095C75.6196 45.9517 75.644 45.7926 75.644 45.6119ZM79.9225 45.6119C79.9225 45.8527 79.8838 46.0736 79.8047 46.2784C79.7256 46.4817 79.6134 46.6598 79.4687 46.8098C79.3242 46.9583 79.1487 47.0747 78.9454 47.1579C78.7421 47.2422 78.5159 47.285 78.2669 47.285C78.0193 47.285 77.7932 47.2422 77.5899 47.1579C77.3877 47.075 77.2125 46.9583 77.0666 46.8098C76.9222 46.6598 76.8082 46.482 76.7279 46.2784C76.6488 46.0736 76.6087 45.8527 76.6087 45.6119C76.6087 45.3722 76.6488 45.1501 76.7279 44.9454C76.8082 44.742 76.9219 44.5654 77.0666 44.4154C77.2125 44.2668 77.3877 44.1491 77.5899 44.0662C77.7932 43.9818 78.0193 43.9405 78.2669 43.9405C78.4327 43.9405 78.5895 43.9592 78.7354 43.9979C78.8813 44.0366 79.0151 44.0902 79.1382 44.1611C79.2601 44.2308 79.3696 44.3149 79.4675 44.4168C79.565 44.5159 79.6468 44.6295 79.715 44.7529C79.7833 44.8759 79.8343 45.0098 79.8689 45.1557C79.9049 45.3001 79.9225 45.4525 79.9225 45.6119ZM79.3014 45.6119C79.3014 45.4326 79.2774 45.272 79.229 45.1288C79.1795 44.987 79.1112 44.8666 79.0231 44.7661C78.9334 44.667 78.825 44.5909 78.6979 44.5373C78.5707 44.4851 78.4263 44.4596 78.2669 44.4596C78.1064 44.4596 77.9631 44.4851 77.8359 44.5373C77.7088 44.5909 77.6004 44.667 77.5107 44.7661C77.4211 44.8666 77.3514 44.987 77.3033 45.1288C77.2538 45.272 77.2298 45.4326 77.2298 45.6119C77.2298 45.7926 77.2538 45.9517 77.3033 46.095C77.3514 46.2382 77.4211 46.3586 77.5107 46.4562C77.6004 46.5567 77.7088 46.6314 77.8359 46.6838C77.9631 46.7375 78.1064 46.7641 78.2669 46.7641C78.4263 46.7641 78.5707 46.7375 78.6979 46.6838C78.825 46.6317 78.9334 46.5567 79.0231 46.4562C79.1112 46.3586 79.1795 46.2379 79.229 46.095C79.2774 45.9517 79.3014 45.7926 79.3014 45.6119ZM82.3755 46.7468V47.2487H80.4589V43.9765H81.0677V46.7468H82.3755Z" fill="#fff"/><path d="M66.7457 69.2388H79.5549C80.5826 69.2388 81.4246 70.0805 81.4246 71.1085V71.11C81.4246 72.1377 80.5829 72.9797 79.5549 72.9797H66.7457C65.718 72.9797 64.876 72.138 64.876 71.11V71.1085C64.876 70.0805 65.718 69.2388 66.7457 69.2388Z" fill="#747474"/><path d="M73.2686 21.177H74.3994V30.0929H73.2686V21.177Z" fill="#E5E5E5"/><path d="M74.3994 21.8435V25.694L78.7491 24.6487L78.0264 24.1802L82.6154 25.1585L78.7919 22.5648L78.9603 23.2032L74.3994 21.8435Z" fill="#FF3C00"/><path d="M3.13281 97.1921H146.867C146.462 98.5451 146.024 99.8822 145.547 101.202H4.45234C3.97598 99.8822 3.53711 98.5454 3.13281 97.1921Z" fill="#BBB"/><path d="M20.0516 126.73H129.948C136.737 119.425 142.086 110.767 145.547 101.202H4.45215C7.91299 110.767 13.2623 119.425 20.0516 126.73Z" fill="#606060"/><path d="M11.1398 115.034H27.4512V112.897H10.4385V113.873C10.6688 114.262 10.9017 114.649 11.1398 115.034Z" fill="#fff"/><path d="M31.7041 115.034H48.7153V112.897H31.7041V115.034Z" fill="#fff"/><path d="M52.9688 115.034H69.98V112.897H52.9688V115.034Z" fill="#fff"/><path d="M74.2334 115.034H91.2446V112.897H74.2334V115.034Z" fill="#fff"/><path d="M95.498 115.034H112.511V112.897H95.498V115.034Z" fill="#fff"/><path d="M132.436 115.034H138.859C139.296 114.329 139.721 113.617 140.134 112.897H132.436V115.034Z" fill="#fff"/><path d="M129.949 126.729H20.0508C33.7471 141.466 53.2945 150.691 74.9994 150.691C96.7055 150.691 116.253 141.466 129.949 126.729Z" fill="#7CB142"/><path d="M118.955 26.7497C119.883 26.7497 120.758 26.9691 121.533 27.3614C122.372 26.5396 123.521 26.0325 124.789 26.0325C126.983 26.0325 128.824 27.5515 129.315 29.5964C130.412 29.9257 131.293 30.7528 131.693 31.8168C131.825 31.8022 131.959 31.7955 132.094 31.7955C134.122 31.7955 135.767 33.4402 135.767 35.4678C135.767 37.4966 134.122 39.1402 132.094 39.1402C131.463 39.1402 130.869 38.9808 130.349 38.6999C129.904 40.2268 128.494 41.3404 126.824 41.3404C125.803 41.3404 124.88 40.9255 124.214 40.2523C123.549 40.9255 122.624 41.3404 121.605 41.3404C120.634 41.3404 119.752 40.9642 119.095 40.3501C118.425 41.0849 117.458 41.5452 116.385 41.5452C115.38 41.5452 114.47 41.1423 113.808 40.4893C113.504 40.5561 113.19 40.591 112.867 40.591C110.45 40.591 108.492 38.6331 108.492 36.2161C108.492 33.8005 110.45 31.8412 112.867 31.8412C112.998 31.8412 113.128 31.8479 113.258 31.8584C113.568 28.9859 116 26.7497 118.955 26.7497Z" fill="#fff"/><path d="M108.171 21.0247C112.388 21.0247 115.806 24.4427 115.806 28.6597C115.806 32.8767 112.388 36.2962 108.171 36.2962C103.954 36.2962 100.536 32.8767 100.536 28.6597C100.536 24.4427 103.954 21.0247 108.171 21.0247Z" fill="#FF0"/><path d="M20.4405 88.2698C20.4754 88.4078 20.3523 88.5255 20.3133 88.5589C20.5463 88.3714 20.6573 88.6005 20.6573 88.6005C20.9998 88.6553 20.64 88.9257 20.64 88.9257C20.517 88.9752 20.4367 88.8428 20.4367 88.8428C20.1235 88.9966 20.2987 89.0863 20.2987 89.0863C20.5328 89.0327 20.3936 89.2336 20.3936 89.2336L20.2504 89.255L20.079 89.3473L20.0883 89.4077L20.2181 89.3915L20.2316 89.492L20.0778 89.5618L20.1247 89.6769C20.2999 89.9271 19.7098 90.049 19.7098 90.049C19.6149 90.8025 18.9109 90.5309 18.7448 90.4571C18.6203 90.5174 18.4852 90.5587 18.342 90.5775C17.9807 90.627 17.638 90.5332 17.3637 90.3393C17.1563 90.3809 16.9301 90.3205 16.9301 90.3205C16.6905 90.346 16.7857 89.9954 16.7857 89.9954C16.5982 90.3847 16.3255 90.0475 16.3255 90.0475C16.0632 89.7692 16.3791 89.6031 16.3791 89.6031C16.2279 89.4317 16.4353 89.294 16.4353 89.294C16.0378 89.219 15.9455 89.013 15.9282 88.887C15.7594 88.8349 15.6217 88.7772 15.5388 88.7397C15.2309 88.887 14.8952 88.9899 14.5404 89.0394C13.653 89.1613 12.8005 88.9295 12.1234 88.4505C11.6081 88.5522 11.05 88.4078 11.05 88.4078C10.4532 88.4681 10.6899 87.598 10.6899 87.598C10.37 88.2645 9.95104 88.0744 9.72106 87.8924C9.76383 88.0972 9.27399 88.1989 9.27399 88.1989C9.1817 88.9524 8.4777 88.6808 8.31188 88.6058C8.18883 88.6647 8.04967 88.7063 7.90641 88.7262C7.54899 88.7757 7.20504 88.6808 6.92936 88.4892C6.72194 88.5308 6.49577 88.4704 6.49577 88.4704C6.25612 88.4959 6.3525 88.1426 6.3525 88.1426C6.165 88.5346 5.88932 88.1962 5.88932 88.1962C5.62975 87.9179 5.94674 87.7547 5.94674 87.7547C5.79411 87.5807 6.00036 87.4415 6.00036 87.4415C5.41002 87.329 5.49323 86.9303 5.49323 86.9303C5.22165 86.5785 5.48913 86.2758 5.48913 86.2758C5.45045 86.2451 5.42497 86.2143 5.40739 86.1847C5.07282 86.214 4.75436 86.1217 4.4986 85.9398C4.28971 85.9799 4.06237 85.9196 4.06237 85.9196C3.82008 85.9462 3.9153 85.5917 3.9153 85.5917C3.7278 85.9867 3.45211 85.6454 3.45211 85.6454C3.18844 85.3656 3.5069 85.1997 3.5069 85.1997C3.35573 85.0272 3.56432 84.8854 3.56432 84.8854C2.96754 84.7744 3.05309 84.3727 3.05309 84.3727C2.78004 84.0167 3.04899 83.7129 3.04899 83.7129C2.81198 83.5216 3.0276 83.3288 3.0276 83.3288C2.9526 83.0948 3.28454 83.1027 3.28454 83.1027C2.9526 82.4684 3.54293 82.396 3.54293 82.396C3.64987 82.0908 3.915 82.2768 3.915 82.2768C4.04889 81.937 4.51178 82.1924 4.51178 82.1924C4.37379 81.9021 4.80885 81.9006 4.80885 81.9006C4.89323 81.8538 4.97086 81.8485 5.03766 81.8658C5.0362 81.8271 5.04176 81.8028 5.04176 81.8028C4.77018 81.4495 5.03649 81.1471 5.03649 81.1471C4.80094 80.9543 5.0192 80.7604 5.0192 80.7604C4.98434 80.6599 5.02858 80.6039 5.08747 80.5729C4.82526 79.9612 5.24801 79.4822 5.24801 79.4822C4.75407 79.0793 5.20788 78.675 5.20788 78.675C5.04586 78.1852 5.74577 78.1998 5.74577 78.1998C5.04704 76.8683 6.28366 76.7209 6.28366 76.7209C6.50836 76.0811 7.06383 76.4693 7.06383 76.4693C7.34479 75.7612 8.31657 76.2967 8.31657 76.2967C8.02887 75.6876 8.9403 75.6824 8.9403 75.6824C9.55202 75.3411 9.98004 76.0664 9.98004 76.0664C10.3442 75.5927 10.6439 75.4266 10.8833 75.4172C10.6811 74.756 11.3491 74.6746 11.3491 74.6746C11.5003 74.2462 11.8697 74.5058 11.8697 74.5058C12.0598 74.0321 12.7076 74.3907 12.7076 74.3907C12.5163 73.9837 13.1277 73.9811 13.1277 73.9811C13.5358 73.7523 13.8223 74.238 13.8223 74.238C14.5477 73.2906 14.9022 74.1859 14.9022 74.1859C16.1347 73.5809 16.3342 74.7226 16.3342 74.7226C16.5844 74.4015 16.9231 74.7305 17.2468 75.1922C17.461 75.5001 17.323 75.7785 17.2052 75.9296C17.4194 76.0527 17.5477 76.2709 17.5477 76.2709C18.506 75.0197 18.973 76.2027 18.973 76.2027C20.599 75.4023 20.8627 76.912 20.8627 76.912C21.1905 76.4863 21.6376 76.9213 22.0671 77.5316C22.4954 78.1433 21.8596 78.6624 21.8596 78.6624C22.3093 79.0533 21.6282 79.3169 21.6282 79.3169C21.9923 79.665 21.6323 80.0116 21.54 80.0892C21.9695 79.74 22.1798 80.1668 22.1798 80.1668C22.8156 80.27 22.1491 80.773 22.1491 80.773C21.9176 80.8626 21.7703 80.6218 21.7703 80.6218C21.4556 80.7756 21.4049 80.8949 21.4249 80.971C22.2197 80.7865 22.3618 81.5892 22.3618 81.5892C22.5853 81.2974 22.8918 81.5959 23.1862 82.0134C23.478 82.4309 23.0429 82.7869 23.0429 82.7869C23.3508 83.0546 22.885 83.2366 22.885 83.2366C23.1352 83.4747 22.8865 83.7118 22.8235 83.7651C23.1194 83.5228 23.2624 83.8161 23.2624 83.8161C23.6974 83.887 23.2422 84.2335 23.2422 84.2335C23.0816 84.2924 22.9811 84.1266 22.9811 84.1266C22.866 84.184 22.803 84.235 22.7711 84.2766C23.0655 84.3944 23.127 84.7492 23.127 84.7492C23.3037 84.5189 23.5433 84.7544 23.7774 85.0852C24.0089 85.413 23.6649 85.694 23.6649 85.694C23.9072 85.9055 23.5404 86.0499 23.5404 86.0499C23.7373 86.236 23.5419 86.4235 23.4909 86.4663C23.7264 86.2761 23.8389 86.5064 23.8389 86.5064C24.1802 86.5626 23.8216 86.8357 23.8216 86.8357C23.696 86.8837 23.6169 86.7539 23.6169 86.7539C23.301 86.9078 23.4762 86.9948 23.4762 86.9948C23.7144 86.9426 23.5738 87.1459 23.5738 87.1459L23.4294 87.1662L23.2568 87.2625L23.2676 87.3188L23.3989 87.3027L23.4109 87.4032L23.2571 87.4741L23.304 87.5904C23.4821 87.8406 22.8839 87.9651 22.8839 87.9651C22.7916 88.7212 22.0808 88.4496 21.9176 88.3732C21.7905 88.4321 21.6554 88.4763 21.5107 88.4951C21.148 88.5431 20.8041 88.4497 20.5269 88.2569L20.4405 88.2698Z" fill="#9BCB64"/><path d="M13.5094 100.202C13.5094 100.202 13.4452 99.8393 13.5469 98.6053L13.195 94.6156C13.195 94.6156 13.1335 93.1502 13.3236 92.7271C13.3236 92.7271 16.1971 89.9354 16.7792 89.7816C16.7792 89.7816 17.1981 86.1295 17.7214 86.0571L17.1993 85.748C17.1993 85.748 16.7309 89.1983 16.3922 89.7254C16.3922 89.7254 15.0659 84.7376 15.2719 84.2114L15.0791 84.3614C15.0791 84.3614 15.7014 89.3398 15.5862 89.6838L14.739 90.5592C14.739 90.5592 14.4472 91.4398 14.272 91.0396C14.272 91.0396 12.6513 90.0506 13.4528 84.8434L12.801 84.4232L12.2602 87.8492C12.2602 87.8492 12.6363 87.8477 12.4702 88.719C12.4702 88.719 13.1314 90.7906 13.0269 90.9942C13.0269 90.9942 12.8689 91.9807 12.438 91.6915L11.5307 89.5476C11.5307 89.5476 10.7666 86.4869 11.2816 86.0158L11.0848 85.7683C11.0848 85.7683 10.7435 87.2858 11.0191 88.3968C11.0191 88.3968 9.62871 86.8552 9.19629 86.8578L9.2083 87.1361C9.2083 87.1361 9.47314 86.5889 10.9081 88.6871C10.9081 88.6871 11.8957 91.4653 11.932 92.0102C11.932 92.0102 11.8157 93.6711 11.884 93.9857C11.884 93.9857 12.7485 98.421 11.3247 99.7552L13.5094 100.202Z" fill="#4E342E"/><path d="M143.072 86.5189C143.107 86.6569 142.984 86.7758 142.945 86.8081C143.178 86.6206 143.289 86.8497 143.289 86.8497C143.631 86.9044 143.271 87.1763 143.271 87.1763C143.148 87.2244 143.068 87.0919 143.068 87.0919C142.755 87.2472 142.93 87.3354 142.93 87.3354C143.164 87.2806 143.024 87.4839 143.024 87.4839L142.882 87.5042L142.711 87.5964L142.72 87.658L142.849 87.6407L142.863 87.7412L142.71 87.8109L142.756 87.926C142.932 88.1762 142.342 88.2981 142.342 88.2981C142.247 89.0516 141.543 88.78 141.377 88.705C141.251 88.7666 141.116 88.8082 140.974 88.8281C140.613 88.8761 140.27 88.7827 139.996 88.5884C139.788 88.6312 139.562 88.5697 139.562 88.5697C139.322 88.5963 139.417 88.2445 139.417 88.2445C139.229 88.6338 138.956 88.2966 138.956 88.2966C138.695 88.0183 139.009 87.8522 139.009 87.8522C138.859 87.6823 139.067 87.5431 139.067 87.5431C138.669 87.4681 138.577 87.2633 138.56 87.1362C138.391 87.084 138.253 87.0263 138.17 86.9903C137.861 87.1362 137.527 87.2405 137.172 87.2888C136.284 87.4107 135.431 87.179 134.755 86.7014C134.24 86.8031 133.68 86.6572 133.68 86.6572C133.085 86.7187 133.322 85.8489 133.322 85.8489C133.002 86.5154 132.583 86.3252 132.353 86.1418C132.396 86.3466 131.905 86.4483 131.905 86.4483C131.813 87.2018 131.11 86.9302 130.944 86.8552C130.819 86.9141 130.681 86.9569 130.538 86.9756C130.181 87.0266 129.837 86.9302 129.561 86.7386C129.354 86.7802 129.128 86.7199 129.128 86.7199C128.887 86.7465 128.983 86.392 128.983 86.392C128.797 86.784 128.52 86.4457 128.52 86.4457C128.262 86.1673 128.579 86.0053 128.579 86.0053C128.426 85.8313 128.632 85.6907 128.632 85.6907C128.042 85.5796 128.125 85.1794 128.125 85.1794C127.854 84.8288 128.121 84.525 128.121 84.525C128.083 84.4942 128.057 84.4634 128.038 84.4338C127.705 84.4631 127.386 84.3709 127.131 84.1889C126.921 84.2291 126.695 84.1702 126.695 84.1702C126.452 84.1968 126.548 83.8409 126.548 83.8409C126.36 84.2358 126.084 83.8957 126.084 83.8957C125.821 83.6147 126.138 83.4501 126.138 83.4501C125.988 83.2775 126.197 83.1342 126.197 83.1342C125.6 83.0232 125.684 82.6215 125.684 82.6215C125.413 82.2667 125.68 81.9618 125.68 81.9618C125.443 81.7705 125.66 81.5791 125.66 81.5791C125.585 81.3436 125.917 81.353 125.917 81.353C125.585 80.7172 126.175 80.6463 126.175 80.6463C126.282 80.3399 126.547 80.5259 126.547 80.5259C126.681 80.1873 127.144 80.443 127.144 80.443C127.006 80.1527 127.441 80.15 127.441 80.15C127.526 80.1032 127.603 80.0979 127.669 80.1152C127.667 80.0765 127.673 80.0522 127.673 80.0522C127.403 79.7003 127.668 79.3965 127.668 79.3965C127.434 79.2038 127.65 79.011 127.65 79.011C127.617 78.9093 127.66 78.8545 127.72 78.8223C127.458 78.2106 127.881 77.7301 127.881 77.7301C127.387 77.3288 127.841 76.9259 127.841 76.9259C127.679 76.4349 128.378 76.4507 128.378 76.4507C127.68 75.1192 128.916 74.9706 128.916 74.9706C129.141 74.3308 129.696 74.7178 129.696 74.7178C129.977 74.0112 130.949 74.5464 130.949 74.5464C130.662 73.9373 131.573 73.9321 131.573 73.9321C132.185 73.5908 132.612 74.3176 132.612 74.3176C132.976 73.8424 133.277 73.6778 133.516 73.6672C133.313 73.006 133.982 72.9257 133.982 72.9257C134.133 72.4974 134.503 72.757 134.503 72.757C134.693 72.2818 135.341 72.6407 135.341 72.6407C135.149 72.2352 135.761 72.2311 135.761 72.2311C136.169 72.0023 136.455 72.488 136.455 72.488C137.181 71.5406 137.535 72.4359 137.535 72.4359C138.768 71.8324 138.967 72.9738 138.967 72.9738C139.217 72.6512 139.556 72.9817 139.88 73.4434C140.094 73.7498 139.955 74.0282 139.837 74.1808C140.051 74.3027 140.181 74.5207 140.181 74.5207C141.139 73.2694 141.605 74.4524 141.605 74.4524C143.231 73.652 143.496 75.1617 143.496 75.1617C143.824 74.736 144.269 75.171 144.7 75.7813C145.129 76.393 144.493 76.9136 144.493 76.9136C144.943 77.303 144.261 77.5666 144.261 77.5666C144.624 77.9147 144.264 78.2613 144.172 78.3401C144.603 77.9894 144.813 78.4163 144.813 78.4163C145.449 78.5194 144.782 79.0239 144.782 79.0239C144.551 79.1124 144.402 78.8712 144.402 78.8712C144.088 79.025 144.038 79.1428 144.058 79.2205C144.852 79.0359 144.994 79.8386 144.994 79.8386C145.218 79.5468 145.524 79.8454 145.819 80.2628C146.111 80.6803 145.676 81.0363 145.676 81.0363C145.984 81.3041 145.517 81.486 145.517 81.486C145.768 81.7242 145.519 81.9612 145.456 82.0145C145.752 81.7722 145.895 82.0655 145.895 82.0655C146.33 82.1364 145.874 82.483 145.874 82.483C145.713 82.5418 145.614 82.376 145.614 82.376C145.499 82.4334 145.436 82.4844 145.404 82.526C145.697 82.6438 145.76 82.9986 145.76 82.9986C145.937 82.7683 146.177 83.0039 146.409 83.3346C146.642 83.6639 146.298 83.9449 146.298 83.9449C146.541 84.1564 146.174 84.2997 146.174 84.2997C146.371 84.4857 146.175 84.6744 146.124 84.716C146.36 84.5258 146.471 84.7561 146.471 84.7561C146.813 84.8109 146.455 85.0854 146.455 85.0854C146.329 85.1335 146.25 85.0037 146.25 85.0037C145.934 85.1575 146.109 85.2445 146.109 85.2445C146.348 85.1923 146.206 85.3971 146.206 85.3971L146.061 85.4159L145.89 85.5108L145.901 85.5682L146.031 85.5536L146.043 85.6526L145.89 85.7235L145.937 85.8398C146.115 86.09 145.515 86.2145 145.515 86.2145C145.424 86.9707 144.714 86.7003 144.55 86.6226C144.423 86.6815 144.287 86.7257 144.142 86.7457C143.781 86.7937 143.436 86.7002 143.16 86.506L143.072 86.5189Z" fill="#9BCB64"/><path d="M136.139 98.4516C136.139 98.4516 136.076 98.0889 136.178 96.855L135.826 92.8668C135.826 92.8668 135.763 91.4014 135.953 90.9771C135.953 90.9771 138.828 88.1866 139.41 88.0316C139.41 88.0316 139.829 84.3795 140.352 84.3071L139.83 83.9992C139.83 83.9992 139.362 87.4495 139.022 87.9754C139.022 87.9754 137.697 82.9876 137.903 82.4614L137.71 82.6114C137.71 82.6114 138.332 87.5898 138.217 87.9352L137.369 88.8092C137.369 88.8092 137.078 89.6898 136.903 89.2911C136.903 89.2911 135.282 88.3009 136.084 83.0934L135.431 82.6732L134.891 86.1007C134.891 86.1007 135.266 86.0992 135.1 86.9693C135.1 86.9693 135.762 89.0409 135.658 89.2445C135.658 89.2445 135.5 90.2321 135.07 89.9403L134.162 87.7975C134.162 87.7975 133.397 84.7369 133.913 84.2658L133.716 84.0183C133.716 84.0183 133.375 85.5373 133.65 86.6468C133.65 86.6468 132.259 85.1063 131.828 85.109L131.84 85.3861C131.84 85.3861 132.105 84.84 133.54 86.9371C133.54 86.9371 134.528 89.7153 134.562 90.2602C134.562 90.2602 134.447 91.9211 134.516 92.2343C134.516 92.2343 135.38 96.6707 133.956 98.0063L136.139 98.4516Z" fill="#4E342E"/><path d="M66.2676 97.1921H80.0362V98.3297H66.2676V97.1921Z" fill="#fff"/><path d="M64.3867 98.3296H81.9162V99.4687H64.3867V98.3296Z" fill="#fff"/><path d="M62.5518 99.4688H83.7507V101.202H62.5518V99.4688Z" fill="#fff"/><path d="M67.251 104.47C67.251 105.169 67.4918 105.735 67.7918 105.735C68.0889 105.735 68.3312 105.169 68.3312 104.47C68.3312 103.773 68.0889 103.206 67.7918 103.206C67.4921 103.206 67.251 103.773 67.251 104.47Z" fill="#B9DDF9"/><path d="M57.9926 95.8983H56.3317C56.226 95.8983 56.1416 95.814 56.1416 95.7082C56.1416 95.6039 56.226 95.5181 56.3317 95.5181H57.9926C58.1678 95.5181 58.3286 95.5904 58.4464 95.7067C58.5627 95.823 58.6339 95.9839 58.6339 96.1605C58.6339 96.2663 58.5495 96.3507 58.4452 96.3507C58.3394 96.3507 58.2551 96.2663 58.2551 96.1605C58.2551 96.0882 58.2258 96.0214 58.1774 95.9745C58.1303 95.9276 58.0649 95.8983 57.9926 95.8983Z" fill="#606060"/><path d="M44.4717 109.456C44.4717 109.713 44.6791 109.922 44.936 109.922H53.9149C54.1719 109.922 54.3808 109.713 54.3808 109.456V108.75C54.3808 108.493 54.1719 108.284 53.9149 108.284H44.936C44.6791 108.284 44.4717 108.493 44.4717 108.75V109.456Z" fill="#424242"/><path d="M67.8923 105.589C67.8923 105.902 67.638 106.156 67.3248 106.156H66.8605C66.5473 106.156 66.293 105.902 66.293 105.589V103.353C66.293 103.038 66.5473 102.785 66.8605 102.785H67.3248C67.638 102.785 67.8923 103.038 67.8923 103.353V105.589Z" fill="#424242"/><path d="M64.1054 99.604H57.0967V107.771H66.3952V102.399C66.3952 100.855 65.6484 99.604 64.1054 99.604Z" fill="#FFE93A"/><path d="M67.186 108.762H9.67188V107.137H67.186V108.762Z" fill="#424242"/><path d="M54.5151 92.3315H12.5175C10.973 92.3315 9.72168 93.5828 9.72168 95.1259V108.284H57.3095V95.1259C57.3095 93.5828 56.0582 92.3315 54.5151 92.3315Z" fill="#FFE93A"/><path d="M57.1565 105.447H9.7334V104.609H57.1565V105.447Z" fill="#424242"/><path d="M57.1565 103.739H9.7334V102.903H57.1565V103.739Z" fill="#424242"/><path d="M57.3092 95.225H9.7334V94.877H57.3092V95.225Z" fill="#424242" fill-opacity=".8"/><path d="M10.6707 108.947C10.6707 108.947 10.2063 108.947 9.77803 108.947C9.34854 108.947 9.2627 108.766 9.2627 108.354C9.2627 107.942 9.2627 106.577 9.2627 106.577H11.4081L10.6707 108.947Z" fill="url(#paint0_linear)"/><path d="M27.1459 104.303C24.694 104.303 22.708 106.305 22.708 108.765H31.5823C31.5823 106.305 29.5963 104.303 27.1459 104.303Z" fill="#606060"/><path d="M22.7946 108.766C23.0193 106.459 24.8812 104.658 27.147 104.658C29.4113 104.658 31.2732 106.458 31.4964 108.766H31.7185C31.7185 108.762 31.7185 108.768 31.7185 108.766C31.7185 106.239 29.6709 104.024 27.1467 104.024C24.6213 104.024 22.5723 106.239 22.5723 108.766C22.5723 108.768 22.5737 108.762 22.5737 108.766H22.7946Z" fill="#FBD734"/><path d="M30.5698 108.731C30.5244 110.622 28.9544 112.119 27.0647 112.073C25.1736 112.029 23.6774 110.459 23.7217 108.57C23.7671 106.678 25.3371 105.182 27.2267 105.227C29.1179 105.272 30.6152 106.84 30.5698 108.731Z" fill="#202020"/><path d="M29.5308 108.707C29.5 110.024 28.4067 111.067 27.0898 111.034C25.7729 111.004 24.7302 109.91 24.7624 108.593C24.7932 107.276 25.8866 106.234 27.2035 106.265C28.5204 106.297 29.5627 107.39 29.5308 108.707Z" fill="#fff"/><path d="M9.7334 94.8769H57.2972C57.1715 93.449 55.9735 92.3313 54.5148 92.3313H12.5172C11.057 92.3316 9.86055 93.449 9.7334 94.8769Z" fill="#FFE93A"/><path d="M12.502 106.622C12.502 106.535 12.5729 106.464 12.6584 106.464H13.7037C13.7907 106.464 13.8602 106.535 13.8602 106.622V107.187C13.8602 107.274 13.7904 107.345 13.7037 107.345H12.6584C12.5729 107.345 12.502 107.274 12.502 107.187V106.622Z" fill="#FF6E40"/><path d="M59.032 99.0073C59.032 99.2053 58.8715 99.3659 58.6734 99.3659H58.3242C58.1262 99.3659 57.9668 99.2053 57.9668 99.0073V96.5756C57.9668 96.3776 58.1262 96.217 58.3242 96.217H58.6734C58.8715 96.217 59.032 96.3776 59.032 96.5756V99.0073Z" fill="#606060"/><path d="M57.9874 101.835H66.1727L66.1741 101.836C66.7683 101.848 67.2476 102.333 67.2476 102.931V108.284H55.1934V104.629C55.1931 103.086 56.4443 101.835 57.9874 101.835Z" fill="#FBD734"/><path d="M66.0675 108.947C66.0675 108.947 67.0111 108.947 67.4406 108.947C67.8689 108.947 67.9545 108.766 67.9545 108.354C67.9545 107.942 67.9545 106.577 67.9545 106.577H65.3301L66.0675 108.947Z" fill="#424242"/><path d="M60.473 104.303C58.0227 104.303 56.0352 106.305 56.0352 108.765H64.9095C64.9098 106.305 62.9237 104.303 60.473 104.303Z" fill="#606060"/><path d="M56.1225 108.766C56.346 106.459 58.209 104.658 60.4733 104.658C62.7377 104.658 64.6007 106.458 64.8242 108.766H65.0463C65.0463 108.762 65.0463 108.768 65.0463 108.766C65.0463 106.239 62.9987 104.024 60.4733 104.024C57.9479 104.024 55.9004 106.239 55.9004 108.766C55.9004 108.768 55.9019 108.762 55.9019 108.766H56.1225Z" fill="#FFE93A"/><path d="M63.898 108.731C63.8526 110.622 62.2826 112.119 60.3929 112.073C58.5006 112.029 57.0044 110.459 57.0498 108.57C57.0941 106.678 58.6638 105.182 60.5549 105.227C62.446 105.272 63.9422 106.84 63.898 108.731Z" fill="#202020"/><path d="M62.8589 108.707C62.8267 110.024 61.7348 111.067 60.4179 111.034C59.101 111.004 58.0583 109.91 58.0906 108.593C58.1199 107.276 59.2135 106.234 60.5316 106.265C61.847 106.297 62.8897 107.39 62.8589 108.707Z" fill="#fff"/><path d="M11.8311 100.483H16.6946C16.9516 100.483 17.1604 100.274 17.1604 100.016V96.8147C17.1604 96.5563 16.9516 96.3477 16.6946 96.3477H11.8311C11.5741 96.3477 11.3652 96.5566 11.3652 96.8147V100.016C11.3655 100.274 11.5741 100.483 11.8311 100.483Z" fill="#8FC9F7"/><path d="M20.2051 96.8147V100.016C20.2051 100.274 20.414 100.483 20.6709 100.483H25.5356C25.7914 100.483 26 100.274 26 100.016V96.8147C26 96.5563 25.7911 96.3477 25.5356 96.3477H20.6709C20.414 96.3477 20.2051 96.5563 20.2051 96.8147Z" fill="#8FC9F7"/><path d="M29.0459 96.8147V100.016C29.0459 100.274 29.2533 100.483 29.5103 100.483H34.375C34.6319 100.483 34.8408 100.274 34.8408 100.016V96.8147C34.8408 96.5563 34.6319 96.3477 34.375 96.3477H29.5103C29.2533 96.3477 29.0459 96.5563 29.0459 96.8147Z" fill="#8FC9F7"/><path d="M37.8848 96.8147V100.016C37.8848 100.274 38.0937 100.483 38.3506 100.483H43.2142C43.4711 100.483 43.6785 100.274 43.6785 100.016V96.8147C43.6785 96.5563 43.4711 96.3477 43.2142 96.3477H38.3506C38.0937 96.3477 37.8848 96.5563 37.8848 96.8147Z" fill="#8FC9F7"/><path d="M46.4541 96.8147V100.016C46.4541 100.274 46.663 100.483 46.9211 100.483H51.7847C52.0416 100.483 52.2505 100.274 52.2505 100.016V96.8147C52.2505 96.5563 52.0416 96.3477 51.7847 96.3477H46.9211C46.663 96.3477 46.4541 96.5563 46.4541 96.8147Z" fill="#8FC9F7"/><path d="M54.3184 96.7371V99.9383C54.3184 100.195 54.5272 100.404 54.7842 100.404H56.1251C56.382 100.404 56.5909 100.195 56.5909 99.9383V96.7371C56.5909 96.4787 56.382 96.2712 56.1251 96.2712H54.7842C54.5272 96.2712 54.3184 96.4787 54.3184 96.7371Z" fill="#8FC9F7"/><path d="M116.654 118.478H131.005L130.135 116.341H116.645L116.654 118.478ZM132.963 123.286C132.381 123.996 131.783 124.69 131.176 125.376H116.764L116.679 124.963L116.673 123.238H132.943L132.963 123.286ZM128.732 112.897H116.631L116.639 115.034H129.602L128.732 112.897ZM116.596 104.687H125.39L124.521 102.55L116.587 102.548L116.596 104.687ZM116.624 111.584H128.198L127.328 109.447H116.617L116.624 111.584ZM116.611 108.136H126.794L125.923 105.998H116.602L116.611 108.136ZM116.666 121.927H132.409L131.539 119.79H116.658L116.666 121.927Z" fill="#fff"/></g><defs><linearGradient id="paint0_linear" x1="-36.17" y1="-39.198" x2="-36.17" y2="-39.208" gradientUnits="userSpaceOnUse"><stop stop-color="#0C0C0C"/><stop offset=".051" stop-color="#0C0C0C"/><stop offset=".631" stop-color="#525252"/><stop offset="1" stop-color="#818181"/></linearGradient><clipPath id="clip0"><path fill="#fff" transform="translate(0 .691)" d="M0 0H150V150H0z"/></clipPath></defs></svg>