<svg viewBox="0 0 150 151" fill="none" xmlns="http://www.w3.org/2000/svg"><g clip-path="url(#clip0)"><path d="M0 77.9933L0.00351563 79.8472C0.0120117 84.5575 0.367969 85.5908 1.02832 88.3992L1.07812 88.3925C6.72744 121.533 34.0928 147.254 67.9966 150.368L68.2805 150.396C68.7275 150.432 69.1781 150.47 69.627 150.502L70.2237 150.54C70.6072 150.566 70.989 150.585 71.3742 150.606C71.6218 150.618 71.8711 150.621 72.1207 150.635C72.4664 150.643 72.8068 150.659 73.1508 150.671C73.548 150.678 73.9453 150.679 74.3461 150.683C74.5386 150.688 74.7363 150.691 74.9291 150.691L75.0167 150.69C75.5789 150.69 76.1432 150.679 76.6986 150.671L76.9688 150.664C77.5002 150.647 78.0246 150.628 78.5508 150.602L78.9996 150.583C79.4657 150.555 79.9368 150.524 80.4029 150.49L81.0615 150.44C81.3694 150.415 81.6703 150.387 81.9729 150.358C115.583 147.221 142.747 121.871 148.663 89.1161C149.382 86.3045 149.39 85.4273 149.751 80.9716H149.755L149.837 80.9681C149.849 80.6842 149.855 80.4073 149.86 80.1287V80.1064V80.0859V80.0669V80.0238V80.0033V79.9843V79.9638V79.9415V79.8814V79.8592V79.8401V79.8211V79.7988H149.861V79.7783V79.7578V79.7373V79.7168V79.6963V79.6772V79.655C150.333 74.0643 149.605 64.8759 147.708 57.7685L147.609 57.3867C139.446 24.8153 110.002 0.691406 74.9288 0.691406C39.0079 0.691406 8.99414 25.9983 1.69922 59.7729H1.69746C1.68896 59.797 1.68193 59.8245 1.6752 59.8485L1.55303 60.3059L1.4792 60.5845L1.34678 61.0781C0.421582 64.9061 0.129199 69.472 0.0398438 73.4634C0.0175781 74.2046 0.00380859 74.9476 0.00380859 75.692V75.8347C0 76.5935 0 77.3156 0 77.9933Z" fill="#FEE9C1"/><path d="M11.8438 77.6285L11.8455 79.1918C11.854 83.1574 12.1534 84.0275 12.7089 86.3921L12.7502 86.3868C17.5086 114.294 40.5523 135.953 69.1027 138.576L69.3418 138.598C69.7186 138.629 70.0968 138.66 70.4768 138.688L70.9772 138.72C71.3006 138.743 71.622 138.758 71.9472 138.775C72.1552 138.786 72.3667 138.789 72.5765 138.801C72.8653 138.808 73.1524 138.822 73.4431 138.831C73.7785 138.836 74.1119 138.839 74.4491 138.841C74.6108 138.844 74.7775 138.848 74.941 138.848L75.0148 138.846C75.4877 138.846 75.9623 138.839 76.4302 138.83L76.6572 138.825C77.1043 138.809 77.5481 138.794 77.9899 138.773L78.3682 138.756C78.7602 138.732 79.1557 138.708 79.5497 138.679L80.1052 138.636C80.363 138.613 80.6158 138.591 80.8722 138.567C109.175 135.926 132.05 114.579 137.03 86.995C137.636 84.627 137.643 83.8893 137.947 80.1369H137.951L138.02 80.1334H138.021C138.03 79.8961 138.035 79.6623 138.039 79.4265V79.4074V79.3919V79.3746V79.3386V79.3213V79.3058V79.2867V79.2694V79.2179V79.2006V79.1833V79.1678V79.1487H138.04V79.1297V79.1124V79.0969V79.0778V79.0606V79.045V79.026C138.438 74.3191 137.824 66.5807 136.228 60.5944L136.143 60.2745C129.269 32.8497 104.477 12.5332 74.941 12.5332C44.6917 12.5332 19.4173 33.8452 13.2729 62.2855C13.2661 62.3077 13.2591 62.3285 13.2538 62.3508L13.1507 62.736L13.0889 62.9698L12.977 63.3861C12.1979 66.6088 11.9504 70.454 11.8763 73.8144C11.8572 74.4404 11.8452 75.0645 11.8452 75.6923V75.8127C11.8438 76.4508 11.8438 77.0578 11.8438 77.6285Z" fill="#FEEBC7"/><path d="M34.4814 76.934L34.4832 77.9365C34.4885 80.4801 34.681 81.0388 35.0369 82.5555L35.0645 82.5519C38.1169 100.456 52.8992 114.353 71.2174 116.034L71.3703 116.048C71.6111 116.068 71.8534 116.089 72.0978 116.107L72.4194 116.126C72.6257 116.141 72.8322 116.151 73.0402 116.163C73.1744 116.169 73.3104 116.17 73.4442 116.177C73.63 116.184 73.814 116.191 73.9997 116.198C74.2165 116.201 74.4295 116.203 74.6463 116.204C74.7494 116.206 74.8578 116.208 74.9609 116.208H75.0072C75.3116 116.208 75.616 116.203 75.9169 116.198L76.0613 116.194C76.3502 116.184 76.6341 116.174 76.9177 116.16L77.1603 116.15C77.4113 116.136 77.6659 116.119 77.917 116.102L78.2747 116.072C78.4399 116.058 78.6031 116.045 78.7666 116.027C96.923 114.333 111.599 100.64 114.794 82.9439C115.183 81.4255 115.186 80.9509 115.382 78.5433H115.384L115.429 78.5415C115.436 78.3886 115.439 78.2389 115.441 78.0874V78.0754V78.0651V78.0549V78.0308V78.0206V78.0103V77.9983V77.9863V77.9553V77.9433V77.9312V77.9227V77.9107H115.443V77.8987V77.8885V77.8765V77.8662V77.8542V77.8439V77.8337C115.697 74.8123 115.304 69.8491 114.279 66.0074L114.225 65.8026C109.816 48.2066 93.9087 35.1733 74.9612 35.1733C55.5544 35.1733 39.3412 48.8465 35.3996 67.0908H35.3979C35.3943 67.1046 35.3911 67.1201 35.3858 67.1321L35.3205 67.3797L35.281 67.5294L35.2086 67.7978C34.71 69.8649 34.5518 72.3309 34.5034 74.4874C34.4914 74.8882 34.4829 75.2904 34.4829 75.693V75.7686C34.4814 76.179 34.4814 76.5678 34.4814 76.934Z" fill="#FEEFD2"/><path d="M55.7266 76.2819L55.7283 76.7583C55.7301 77.9688 55.8212 78.2337 55.9914 78.9562L56.0034 78.9544C57.4565 87.4704 64.4884 94.0807 73.2004 94.8805L73.2728 94.8872C73.3879 94.8957 73.5048 94.9062 73.6202 94.9147L73.7731 94.9232C73.8713 94.93 73.9691 94.9353 74.069 94.9405C74.1309 94.944 74.1962 94.9458 74.2601 94.9473C74.3494 94.9508 74.4373 94.954 74.5249 94.9575C74.6263 94.9593 74.7297 94.961 74.8311 94.961C74.8809 94.9628 74.9324 94.9628 74.9825 94.9628H75.0048C75.1492 94.9628 75.2936 94.961 75.4363 94.9575L75.5069 94.9558C75.6429 94.9505 75.777 94.9473 75.9127 94.9402L76.0278 94.935C76.1482 94.9282 76.2687 94.9194 76.3891 94.9109L76.5575 94.8989C76.6366 94.8922 76.714 94.8852 76.7913 94.8767C85.4292 94.0701 92.4095 87.5577 93.9279 79.1398C94.1137 78.4177 94.1154 78.1924 94.2083 77.0469H94.2101H94.2306C94.2341 76.9731 94.2358 76.9024 94.2358 76.8301V76.8248V76.8195V76.8143V76.8022V76.7987V76.7935V76.7867V76.7814V76.7659V76.7606V76.7554V76.7501V76.7448H94.2376V76.7396V76.7343V76.729V76.7223V76.7187V76.712V76.7067C94.358 75.2709 94.1705 72.9096 93.6839 71.0835L93.6581 70.9854C91.5602 62.6155 83.9951 56.416 74.9822 56.416C65.7508 56.416 58.0381 62.9199 56.1637 71.5991C56.1619 71.6044 56.1602 71.6111 56.1569 71.6182L56.1259 71.7351L56.1068 71.8074L56.074 71.9346C55.8367 72.9166 55.7594 74.0911 55.7386 75.1159C55.7318 75.3069 55.7283 75.4977 55.7283 75.6887V75.7247C55.7266 75.9225 55.7266 76.1082 55.7266 76.2819Z" fill="#FEF5E5"/><path d="M14.1463 82.3027C14.1463 82.3027 25.6375 76.7515 28.0656 75.4446C30.4955 74.1394 45.4653 82.6294 45.4653 82.6294L63.9141 75.1194C63.9141 75.1194 77.9432 82.4126 81.204 84.2252C84.4662 86.0395 72.7243 88.2166 65.9813 87.7091C59.2383 87.2003 12.552 86.7652 14.1463 82.3027Z" fill="#FFB54C"/><path d="M0.015625 81.0972C4.6123 77.9226 7.854 74.4816 12.5143 77.0867C17.1763 79.6921 26.5419 82.8494 29.5873 83.4289C32.633 84.0102 39.7076 76.8392 45.9191 77.0867C52.1324 77.3343 64.0205 84.4452 66.3405 83.864C68.6603 83.2845 79.3896 72.834 84.32 73.9965C89.2504 75.159 92.6192 84.698 98.1291 83.3929C103.639 82.0859 124.927 68.2681 130.134 70.2233C135.343 72.1786 143.047 77.7383 149.751 80.9747C149.39 85.4269 149.381 86.3041 148.662 89.1157C148.093 92.2663 147.326 95.3478 146.377 98.3486L4.84463 102.246C2.69307 96.5642 0.130762 87.2519 0.015625 81.0972Z" fill="#FFCB7F"/><path d="M135.849 44.4215C136.613 44.4215 137.332 44.5455 137.97 44.7637C138.659 44.3046 139.603 44.0208 140.646 44.0208C141.607 44.0208 142.486 44.2633 143.158 44.6606C144.137 46.8119 145.017 49.0165 145.793 51.2711C145.592 51.2298 145.399 51.1748 145.218 51.1077C144.85 51.9623 143.693 52.5848 142.319 52.5848C141.479 52.5848 140.721 52.3528 140.173 51.976C139.626 52.3528 138.867 52.5848 138.028 52.5848C137.23 52.5848 136.506 52.3751 135.964 52.0311C135.414 52.4421 134.62 52.7 133.737 52.7C132.91 52.7 132.162 52.4747 131.618 52.1085C131.369 52.1462 131.11 52.1653 130.845 52.1653C128.857 52.1653 127.247 51.0699 127.247 49.7181C127.247 48.3646 128.857 47.2692 130.845 47.2692C130.951 47.2692 131.06 47.2745 131.165 47.2794C131.419 45.6734 133.419 44.4215 135.849 44.4215Z" fill="#fff"/><path d="M97.0186 24.9838C98.3824 24.9838 99.6703 25.2038 100.811 25.5961C102.044 24.7723 103.734 24.2651 105.598 24.2651C108.826 24.2651 111.531 25.7854 112.257 27.8317C113.87 28.1619 115.163 28.9907 115.755 30.0554C115.949 30.0398 116.145 30.0349 116.344 30.0349C119.324 30.0349 121.744 31.679 121.744 33.7099C121.744 35.7407 119.324 37.3866 116.344 37.3866C115.414 37.3866 114.539 37.2267 113.777 36.9463C113.122 38.4732 111.048 39.5895 108.59 39.5895C107.09 39.5895 105.732 39.1731 104.753 38.4993C103.775 39.1734 102.416 39.5895 100.915 39.5895C99.4893 39.5895 98.1908 39.2112 97.2243 38.5972C96.2373 39.3313 94.8185 39.7939 93.2382 39.7939C91.7593 39.7939 90.4213 39.3899 89.448 38.7363C89.0027 38.8034 88.5366 38.8377 88.062 38.8377C84.5074 38.8377 81.627 36.8771 81.627 34.4575C81.627 32.0396 84.5074 30.0791 88.062 30.0791C88.2562 30.0791 88.449 30.0858 88.638 30.0981C89.0944 27.2212 92.6713 24.9838 97.0186 24.9838Z" fill="#fff"/><path d="M37.5257 51.6596C38.2892 51.6596 39.0081 51.7835 39.6462 52.0018C40.3358 51.5427 41.2798 51.2588 42.3222 51.2588C44.1263 51.2588 45.6395 52.1084 46.0435 53.2519C46.9464 53.4358 47.6686 53.9002 47.9987 54.4952C48.1071 54.4867 48.217 54.4832 48.3289 54.4832C49.9953 54.4832 51.3485 55.4031 51.3485 56.5381C51.3485 57.673 49.995 58.5933 48.3289 58.5933C47.8095 58.5933 47.3193 58.5039 46.8948 58.3457C46.5286 59.2003 45.3693 59.8229 43.9953 59.8229C43.156 59.8229 42.3978 59.5908 41.8508 59.2141C41.3038 59.5908 40.5438 59.8229 39.7045 59.8229C38.9082 59.8229 38.1825 59.6131 37.6426 59.2691C37.0906 59.6802 36.2961 59.938 35.414 59.938C34.5884 59.938 33.8387 59.7127 33.2952 59.3465C33.0459 59.3843 32.7863 59.4033 32.5215 59.4033C30.5334 59.4033 28.9238 58.3079 28.9238 56.9562C28.9238 55.6044 30.5334 54.5072 32.5215 54.5072C32.6281 54.5072 32.7365 54.5125 32.8432 54.5192C33.0975 52.9117 35.0976 51.6596 37.5257 51.6596Z" fill="#fff"/><path d="M80.8926 21.0558C80.8926 21.0558 82.5555 20.6999 83.9468 20.9665C85.3398 21.2331 86.793 22.3903 88.3665 22.4796C89.9383 22.569 89.6116 21.974 89.6116 21.974C89.6116 21.974 88.602 22.1237 88.3357 21.2638C88.0691 20.4022 89.1663 19.7178 90.855 18.5331C92.5472 17.3465 92.8721 16.1583 92.5472 15.4153C92.5472 15.4153 92.2498 15.8899 90.855 16.6329C89.4619 17.3758 88.4544 18.7411 87.3572 19.7181C86.26 20.7001 86.2 20.7584 85.1629 20.5504C84.1258 20.3421 81.9021 20.0172 80.8926 21.0558Z" fill="#000"/><path d="M1.40811 90.191C36.5087 94.7534 66.0479 89.639 105.728 97.7885C119.62 100.643 134.318 91.2659 148.466 90.1394C148.534 89.799 148.6 89.4585 148.662 89.1161L148.878 88.2322C134.65 89.2587 119.852 98.7738 105.872 95.9021C65.9805 87.7095 36.3367 92.9235 0.988281 88.2322L1.02783 88.3989L1.07764 88.3921C1.1793 88.9957 1.28945 89.5942 1.40811 90.191Z" fill="#DFF5F9"/><path d="M49.4756 34.007C49.4756 34.007 51.1385 33.651 52.5298 33.9176C53.9243 34.1842 55.3777 35.3415 56.9495 35.4326C58.5213 35.5202 58.1946 34.9269 58.1946 34.9269C58.1946 34.9269 57.1868 35.0749 56.9188 34.215C56.6539 33.3534 57.7493 32.669 59.4397 31.4842C61.1302 30.2977 61.4568 29.1094 61.1302 28.3665C61.1302 28.3665 60.8343 28.8411 59.4397 29.584C58.0467 30.327 57.0392 31.6922 55.942 32.6693C54.8448 33.6513 54.7848 33.7096 53.7459 33.5016C52.7085 33.2933 50.4849 32.9684 49.4756 34.007Z" fill="#000"/><path d="M103.546 51.1437C103.546 51.1437 105.207 50.786 106.6 51.0526C107.995 51.321 109.446 52.4782 111.02 52.5675C112.59 52.6551 112.263 52.0619 112.263 52.0619C112.263 52.0619 111.255 52.2116 110.989 51.35C110.722 50.4901 111.819 49.8057 113.508 48.6209C115.2 47.4327 115.527 46.2461 115.2 45.5032C115.2 45.5032 114.903 45.9778 113.508 46.7208C112.115 47.4637 111.107 48.829 110.01 49.806C108.913 50.7863 108.853 50.8446 107.816 50.6383C106.779 50.43 104.554 50.1051 103.546 51.1437Z" fill="#000"/><path d="M110.627 96.074L110.851 95.063V95.0612L112.454 95.4172L114.328 95.8317C114.005 95.6117 113.688 95.2936 113.389 94.8928L116.342 95.5446C116.362 95.0753 116.362 94.6109 116.345 94.1533L116.34 94.0605L116.338 94.0227L116.337 93.9711L116.331 93.8782L116.33 93.8352L116.326 93.7871L116.321 93.696L116.317 93.6479L116.314 93.6049L116.307 93.5155L116.302 93.464L116.3 93.4244L116.293 93.3333L116.287 93.2765L116.283 93.2437L116.275 93.1543L116.269 93.0925L116.266 93.0632L116.257 92.9738L116.25 92.9085L116.247 92.8845L116.237 92.7951L116.228 92.7263L116.225 92.7058L116.213 92.6164L116.204 92.5426L116.201 92.5271L116.189 92.4395L116.178 92.3604L116.177 92.3501L116.163 92.2607L116.151 92.1799L116.149 92.1731L116.135 92.0838L116.122 91.9994V91.9959L116.106 91.9083L116.091 91.8207V91.8189L116.075 91.7331L116.058 91.6455V91.6402L116.042 91.5576L116.025 91.47L116.023 91.4615L116.008 91.3842L115.989 91.2966L115.97 91.2107L115.952 91.1231L115.947 91.1041L115.931 91.037L115.912 90.9494L115.907 90.9272L115.892 90.8636L115.873 90.7777L115.866 90.752L115.852 90.6919L115.83 90.6061L115.823 90.575L115.809 90.5217L115.787 90.4358L115.779 90.3998L115.765 90.35L115.742 90.2642L115.732 90.2246L115.718 90.1798L115.694 90.0939L115.684 90.0509L115.672 90.0078L115.648 89.9234L115.634 89.8771L115.622 89.8394L115.598 89.755L115.583 89.7034L115.573 89.6691L115.547 89.5848L115.529 89.5314L115.521 89.5004L115.495 89.416L115.476 89.3574L115.468 89.3316L115.44 89.249L115.42 89.1854L115.413 89.1649L115.385 89.0823L115.363 89.0135L115.358 88.998L115.329 88.9136L115.304 88.843L115.299 88.831L115.27 88.7483L115.242 88.6728L115.241 88.6643L115.21 88.5816C114.685 87.1388 114.008 85.746 113.234 84.389C113.306 86.0208 113.115 87.4499 112.768 88.671L112.762 88.6933L112.756 88.7138L112.75 88.7328L112.745 88.7483L112.743 88.7551C112.694 88.9218 112.644 89.0853 112.589 89.2435L112.582 89.2625L112.575 89.2815C112.352 89.9144 112.087 90.4854 111.793 90.9893V90.991V90.9875L111.774 90.8964L111.772 90.8897V90.8879L114.25 79.6651L113.672 79.538C112.346 80.4597 111.053 81.4124 109.83 82.4305L109.781 82.4735L109.729 82.5166L109.676 82.5597L109.626 82.6027L109.624 82.6045L109.574 82.6476L109.525 82.6906L109.473 82.7337L109.421 82.7768L109.411 82.787L109.37 82.8213L109.32 82.8644L109.268 82.9092L109.219 82.954L109.2 82.9695L109.169 82.9971L109.119 83.0419L109.067 83.0867L109.017 83.1298L108.99 83.1538L108.969 83.1743L108.918 83.2191L108.868 83.2622L108.818 83.3085L108.782 83.3395L108.768 83.3533L108.719 83.3981L108.669 83.443L108.621 83.4878L108.576 83.5273L108.571 83.5326L108.521 83.5774L108.473 83.6237L108.423 83.6703L108.375 83.7151L108.371 83.7169L108.327 83.76L108.277 83.8063L108.229 83.8511L108.181 83.8974L108.169 83.9076L108.133 83.9437L108.085 83.9902L108.037 84.0365L107.988 84.0813L107.968 84.1004L107.94 84.1279L107.892 84.176L107.846 84.2223L107.798 84.2686L107.701 84.3614L107.655 84.4095L107.608 84.4558L107.572 84.4918L107.56 84.5038L107.514 84.5501L107.468 84.5981L107.421 84.6447L107.378 84.6895L107.375 84.6931L107.328 84.7411L107.28 84.7892L107.236 84.8354L107.189 84.8835L107.184 84.8888L107.143 84.9318L107.096 84.9816L107.051 85.0297L107.006 85.0777L106.993 85.0897L106.962 85.1258L106.915 85.1738L106.87 85.2236L106.825 85.2734L106.803 85.2939L106.781 85.3215L106.735 85.3713C106.219 85.9388 105.729 86.5303 105.268 87.1511L105.242 87.1854L105.216 87.2196L105.211 87.2264L105.19 87.2539L105.166 87.2882L105.141 87.3225L105.115 87.3567L105.089 87.391L105.065 87.4271L105.046 87.4528L105.041 87.4613L105.015 87.4956L104.989 87.5316L104.965 87.5659L104.941 87.6002L104.917 87.6362L104.891 87.6705L104.883 87.6808L104.867 87.7065L104.841 87.7408L104.817 87.7769L104.793 87.8129L104.769 87.8472L104.745 87.8832L104.725 87.9125L104.721 87.9192L104.697 87.9535L104.673 87.9895L104.649 88.0256L104.625 88.0616L104.601 88.0977L104.577 88.1337L104.569 88.1457L104.553 88.1697L104.531 88.2058L104.507 88.2418L104.483 88.2778L104.461 88.3139L104.438 88.3499L104.416 88.3827L104.413 88.388L104.39 88.424L104.368 88.4601L104.344 88.4961L104.322 88.5339L104.299 88.5699L104.275 88.606L104.231 88.6798L104.207 88.7176L104.184 88.7536L104.162 88.7914L104.14 88.8292L104.117 88.8635V88.8652L104.095 88.903L104.073 88.9408L104.051 88.9786L104.028 89.0164L104.008 89.0524L103.986 89.0902L103.975 89.1075L103.963 89.128L103.941 89.1658L103.919 89.2036L103.898 89.2414L103.878 89.2792L103.856 89.317L103.833 89.3548L103.813 89.3943L103.791 89.4321L103.77 89.4699C103.144 90.5999 102.613 91.8105 102.196 93.1449L108.098 94.4501L110.279 94.9332L110.054 95.9428L101.973 94.1542L101.974 94.1645L101.978 94.173L101.98 94.1814L101.983 94.1899L101.985 94.2002L101.988 94.2069L101.99 94.2172L101.994 94.2257L101.996 94.2342L101.999 94.2427L102.001 94.2494V94.2512L102.004 94.2597L102.008 94.2699L102.01 94.2784L102.013 94.2869L102.015 94.2954L102.018 94.3057L102.022 94.3124L102.024 94.3209L102.027 94.3312L102.029 94.3379L102.031 94.3432L102.032 94.3484L102.036 94.3569L102.038 94.3654L102.041 94.3739L102.045 94.3824L102.048 94.3909L102.05 94.3994L102.052 94.4079L102.055 94.4164L102.061 94.4355H102.062L102.064 94.4422L102.068 94.4524L102.071 94.4609L102.073 94.4694L102.076 94.4779L102.08 94.4864L102.082 94.4949L102.085 94.5034L102.089 94.5119L102.09 94.5204L102.094 94.5272V94.5289L102.097 94.5374L102.101 94.5441L102.104 94.5544L102.108 94.5611L102.11 94.5714L102.113 94.5799L102.117 94.5866L102.12 94.5969L102.122 94.6036L102.126 94.6121L102.127 94.6174L102.129 94.6209L102.133 94.6294L102.136 94.6379L102.138 94.6464L102.141 94.6549L102.145 94.6634L102.148 94.6719L102.152 94.6804L102.155 94.6889L102.159 94.6956L102.161 94.7041L102.166 94.7179L102.173 94.7299L102.176 94.7454L102.182 94.7574L102.187 94.7712L102.192 94.7832L102.194 94.7867L102.197 94.7952L102.203 94.809L102.208 94.821L102.213 94.8348L102.218 94.8485L102.222 94.8605L102.225 94.8658L102.229 94.8726L102.234 94.8863L102.24 94.8983L102.245 94.9121L102.25 94.9241L102.257 94.9379L102.272 94.9757L102.278 94.9877L102.283 95.0015L102.288 95.0135L102.293 95.0237L102.295 95.0255L102.3 95.0375L102.306 95.0495L102.313 95.0633L102.318 95.0753L102.328 95.1011L102.33 95.1028L102.352 95.1509L102.357 95.1629L102.364 95.1749L102.366 95.1784L102.374 95.1989L102.381 95.2109L102.386 95.2247L102.392 95.2367L102.398 95.2487L102.402 95.254L102.404 95.2607L102.41 95.2728L102.416 95.2848L102.422 95.2968L102.434 95.3208L102.44 95.3293L102.441 95.3346L102.447 95.3448L102.453 95.3586L102.459 95.3688L102.465 95.3809L102.472 95.3929L102.477 95.4031V95.4049L102.484 95.4169L102.491 95.4289L102.496 95.4409L102.503 95.4529L102.51 95.4649L102.515 95.4752L102.517 95.477L102.522 95.4872L102.529 95.4992L102.535 95.513L102.544 95.5285L102.551 95.5423L102.557 95.5543L102.561 95.5596L102.566 95.5681L102.573 95.5836L102.581 95.5974L102.588 95.6111L102.595 95.6214L102.597 95.6249L102.605 95.6369L102.612 95.6524L102.62 95.6645L102.629 95.6782V95.6817L102.636 95.692L102.644 95.7058L102.651 95.7195L102.659 95.7333L102.665 95.74L102.668 95.7468L102.677 95.7605L102.685 95.7743L102.692 95.7863L102.7 95.8001L102.709 95.8139L102.717 95.8259L102.726 95.8397L102.733 95.8534L102.736 95.8569L102.741 95.8672L102.75 95.8792L102.758 95.893L102.767 95.905L102.774 95.9152L102.775 95.9188L102.784 95.9308L102.792 95.9445L102.801 95.9565L102.818 95.9841L102.827 95.9961L102.835 96.0099L102.844 96.0219L102.849 96.0304L102.852 96.0356L102.861 96.0494L102.871 96.0614L102.878 96.0734L102.886 96.0855L102.888 96.0872L102.897 96.0992L102.905 96.113L102.915 96.125L102.922 96.137L102.926 96.1423L102.932 96.149L102.941 96.1628L102.949 96.1748L102.96 96.1868L102.965 96.1953L102.968 96.2006L102.979 96.2126L102.985 96.2246L102.996 96.2384L103.004 96.2504H103.006L103.014 96.2624L103.023 96.2744L103.033 96.2864L103.043 96.2984L103.047 96.3052L103.052 96.3119L103.063 96.3239L103.071 96.3359L103.083 96.3515L103.095 96.367L103.104 96.3755L103.107 96.3808L103.119 96.3963L103.131 96.4136L103.136 96.4171L103.145 96.4273L103.157 96.4429L103.169 96.4584L103.181 96.4739L103.193 96.4895L103.201 96.4997L103.207 96.5032L103.219 96.5188L103.231 96.5343L103.236 96.5395L103.244 96.5498L103.256 96.5636L103.268 96.5791L103.282 96.5929L103.294 96.6084L103.303 96.6169L103.308 96.6236L103.322 96.6392L103.334 96.6529L103.337 96.6564L103.346 96.6667L103.36 96.6822L103.373 96.696L103.385 96.7098L103.399 96.7253L103.408 96.7338L103.413 96.7391L103.425 96.7528L103.439 96.7684L103.442 96.7719L103.452 96.7821L103.466 96.7959L103.478 96.8097V96.8114L103.494 96.8252L103.506 96.839L103.514 96.8475L103.52 96.8527L103.533 96.8683L103.549 96.8803L103.551 96.8838L103.561 96.8958L103.576 96.9078L103.588 96.9216V96.9233L103.602 96.9371L103.618 96.9509L103.624 96.9594L103.631 96.9647L103.643 96.9784L103.659 96.9904L103.66 96.994L103.672 97.0042L103.686 97.018L103.698 97.03L103.7 97.0317L103.716 97.0455L103.786 97.1108L103.802 97.1246C104.314 97.5992 104.911 97.9965 105.559 98.3094L105.566 98.3147L105.586 98.3231L105.697 98.3765L105.69 98.3782L105.697 98.3765C106.854 98.9249 108.19 99.2674 109.602 99.4581L110.309 101.809L111.831 102.146L112.343 99.819H112.345L112.379 99.6556H112.415H112.451L112.486 99.6573H112.522H112.558H112.592H112.594H112.628H112.63H112.663L112.736 99.6591H112.771H112.807H112.843H112.877H112.913H112.949H112.983H112.985H113.019H113.054H113.055L113.162 99.6573H113.198H113.234H113.268H113.27L113.731 99.6488L113.767 99.6471H113.801H113.837V99.6453H113.873V99.6436H113.908L114.014 99.64H114.016L114.049 99.6383H114.051H114.085H114.087L114.192 99.6348H114.193L114.228 99.633H114.229L114.298 99.6295H114.3L114.334 99.6277L114.403 99.6242H114.405L114.475 99.6225H114.477L114.546 99.6189H114.548L114.581 99.6172H114.582L114.617 99.6154H114.618L114.651 99.6137H114.653L114.673 99.6119H114.691L114.729 99.6084H114.746L114.768 99.6066L114.806 99.6049L114.82 99.6031H114.844L114.881 99.5996H114.893L114.921 99.5979L114.957 99.5961H114.966L114.997 99.5943L115.034 99.5926L115.04 99.5908H115.072L115.11 99.5873H115.114L115.148 99.5838L115.184 99.582H115.186L115.224 99.5803L115.258 99.5768H115.263L115.299 99.575L115.33 99.5732H115.337L115.375 99.5697L115.404 99.568H115.413L115.45 99.5645L115.476 99.5627H115.488L115.526 99.5592L115.548 99.5574L115.564 99.5557L115.602 99.5539L115.621 99.5522L115.64 99.5504L115.677 99.5486L115.693 99.5469L115.715 99.5451L115.751 99.5416L115.765 99.5399L115.789 99.5381L115.827 99.5363L115.837 99.5346L115.865 99.5328L115.901 99.5293H115.909L115.938 99.5275L115.976 99.524H115.982L116.014 99.5205L116.05 99.517H116.054L116.088 99.5135L116.124 99.5117L116.126 99.51L116.162 99.5082L116.196 99.5064L116.2 99.5047L116.238 99.5012L116.269 99.4994L116.274 99.4977L116.312 99.4941L116.341 99.4924L116.348 99.4906L116.386 99.4889L116.411 99.4871L116.423 99.4854L116.459 99.4818L116.482 99.4801L116.497 99.4783L116.533 99.4748L116.552 99.4713H116.57L116.607 99.4678L116.623 99.466L116.643 99.4643L116.681 99.4607L116.693 99.459L116.717 99.4555L116.753 99.4537L116.763 99.452L116.791 99.4484L116.827 99.4449H116.836L116.863 99.4432L116.899 99.4379H116.904L116.937 99.4344L116.971 99.4309H116.975L117.008 99.4274L117.046 99.4238L117.065 99.4203L117.085 99.4186H117.092L117.106 99.4168L117.126 99.415L117.147 99.4115L117.166 99.4098H117.167L117.187 99.408L117.206 99.4062L117.228 99.4045L117.242 99.401H117.247L117.267 99.3992L117.286 99.3975L117.307 99.3957L117.315 99.3939H117.327L117.346 99.3904L117.367 99.3887L117.386 99.3869L117.391 99.3852L117.352 101.423L117.813 101.524L118.308 99.2785L118.37 98.9999L118.52 98.3173L118.628 97.8289L110.627 96.074ZM111.537 89.1778L111.539 89.2071L113.673 79.5356C112.717 81.2483 112.113 82.9938 111.789 84.6775V84.6793L111.787 84.6913L111.768 84.7909L111.758 84.8442L111.747 84.9028L111.73 84.9975L111.728 85.0165L111.709 85.1284L111.704 85.1489L111.69 85.24L111.68 85.3019L111.673 85.3534L111.658 85.453L111.656 85.4633L111.64 85.5752L111.637 85.6045L111.627 85.6854L111.616 85.756L111.611 85.7973L111.597 85.9074L111.585 86.0176L111.582 86.0571L111.573 86.1277L111.565 86.2068L111.563 86.2379L111.553 86.348L111.551 86.3548L111.542 86.4561L111.539 86.5024L111.534 86.5643L111.527 86.6519L111.525 86.6741L111.518 86.7825L111.517 86.798L111.511 86.8909L111.508 86.946L111.504 86.9976L111.501 87.0922L111.499 87.106L111.496 87.2126L111.494 87.2384L111.49 87.3192L111.489 87.3828L111.487 87.4259L111.485 87.529V87.5325L111.483 87.6374V87.6717L111.482 87.744V87.8147V87.8475V87.9523V87.9576L111.483 88.0572V88.1003L111.485 88.1604L111.487 88.2412V88.2652L111.49 88.3684V88.3804L111.494 88.4715L111.496 88.5213L111.499 88.5729L111.501 88.6605L111.503 88.676L111.508 88.7773L111.51 88.7979L111.515 88.8787L111.518 88.9355L111.522 88.9786L111.527 89.0715V89.08L111.537 89.1778ZM105.661 98.3955C105.628 98.4058 105.596 98.4178 105.563 98.4266C105.596 98.4178 105.628 98.4058 105.661 98.3955Z" fill="#903B13"/><path d="M148.867 88.2839C148.811 88.5265 148.747 88.7826 148.678 89.0562L148.867 88.2839ZM148.467 90.1396C142.176 122.399 115.232 147.254 81.9732 150.358C81.6706 150.387 81.3697 150.415 81.0618 150.44L80.4032 150.49C79.9371 150.525 79.466 150.554 78.9999 150.583L78.5511 150.602C78.0249 150.628 77.5005 150.647 76.969 150.664L76.6989 150.671C76.1435 150.679 75.5795 150.69 75.017 150.69L74.9294 150.692C74.7369 150.692 74.5392 150.688 74.3464 150.683C73.9456 150.68 73.5483 150.678 73.1511 150.671C72.8071 150.659 72.4667 150.644 72.121 150.635C71.8717 150.621 71.6224 150.618 71.3745 150.606C70.9893 150.585 70.6075 150.566 70.224 150.54L69.6272 150.503C69.1784 150.47 68.7278 150.432 68.2808 150.396L67.9969 150.368C34.7092 147.311 7.72734 122.459 1.40918 90.1912C36.5098 94.7536 66.0489 89.6392 105.729 97.7887C119.621 100.643 134.319 91.2661 148.467 90.1396Z" fill="#9FD2D9"/><path d="M145.001 102.31C135.068 128.49 110.91 147.658 81.9726 150.358C81.6699 150.387 81.369 150.414 81.0611 150.44L80.4025 150.49C79.9364 150.524 79.4653 150.554 78.9992 150.583L78.5504 150.602C78.0242 150.628 77.4998 150.647 76.9684 150.664L76.6982 150.671C76.1428 150.679 75.5788 150.69 75.0163 150.69L74.9287 150.691C74.7362 150.691 74.5385 150.688 74.3457 150.683C73.9449 150.679 73.5477 150.678 73.1504 150.671C72.8064 150.659 72.466 150.643 72.1203 150.635C71.871 150.621 71.6217 150.618 71.3738 150.605C70.9886 150.585 70.6068 150.566 70.2233 150.54L69.6266 150.502C69.1777 150.47 68.7271 150.432 68.2801 150.396L67.9962 150.368C39.0143 147.706 14.813 128.523 4.86816 102.31C21.2413 102.31 39.9362 94.908 53.9911 102.31C83.2124 111.974 114.055 99.2381 145.001 102.31Z" fill="#44BAC9"/><path d="M130.422 126.081C118.193 139.561 101.132 148.569 81.9729 150.358C81.6702 150.387 81.3693 150.414 81.0614 150.44L80.4028 150.49C79.9367 150.524 79.4656 150.554 78.9995 150.583L78.5507 150.602C78.0245 150.628 77.5001 150.647 76.9687 150.664L76.6985 150.671C76.1431 150.679 75.5791 150.69 75.0166 150.69L74.929 150.691C74.7365 150.691 74.5388 150.688 74.346 150.683C73.9452 150.679 73.548 150.678 73.1507 150.671C72.8067 150.659 72.4663 150.643 72.1206 150.635C71.8713 150.621 71.622 150.618 71.3741 150.606C70.9889 150.585 70.6071 150.566 70.2236 150.54L69.6269 150.502C69.178 150.47 68.7275 150.432 68.2804 150.396L67.9965 150.368C48.7962 148.605 31.6956 139.588 19.4463 126.081C58.7568 118.1 90.461 132.814 130.422 126.081Z" fill="#22B1C3"/><path d="M40.8294 114.179C51.139 114.179 59.4968 114.406 59.4968 114.686C59.4968 114.967 51.139 115.194 40.8294 115.194C30.5198 115.194 22.162 114.967 22.162 114.686C22.162 114.406 30.5198 114.179 40.8294 114.179ZM118.391 136.784C119.163 136.234 119.923 135.668 120.671 135.09C109.796 135.164 101.545 135.518 101.545 135.946C101.545 136.344 108.664 136.679 118.391 136.784ZM142.102 108.951C142.487 108.174 142.862 107.388 143.221 106.595C136.955 106.794 132.571 107.257 132.571 107.793C132.571 108.298 136.439 108.734 142.102 108.951ZM63.9936 127.966C70.9601 127.966 76.6076 128.258 76.6076 128.619C76.6076 128.979 70.9601 129.271 63.9936 129.271C57.0271 129.271 51.3795 128.979 51.3795 128.619C51.3798 128.258 57.0271 127.966 63.9936 127.966ZM105.452 122.016C111.653 122.016 116.68 122.248 116.68 122.535C116.68 122.822 111.653 123.054 105.452 123.054C99.2506 123.054 94.2241 122.822 94.2241 122.535C94.2241 122.248 99.2506 122.016 105.452 122.016ZM64.4269 136.961C77.0787 136.961 87.3332 137.384 87.3332 137.906C87.3332 138.425 77.0787 138.848 64.4269 138.848C51.775 138.848 41.5188 138.425 41.5188 137.906C41.519 137.384 51.7753 136.961 64.4269 136.961ZM97.7734 113.307C114.028 113.307 127.206 113.697 127.206 114.179C127.206 114.659 114.028 115.049 97.7734 115.049C81.5189 115.049 68.3409 114.659 68.3409 114.179C68.3409 113.697 81.5189 113.307 97.7734 113.307ZM89.5085 98.3595C97.9952 98.3595 104.877 98.6123 104.877 98.9252C104.877 99.2381 97.9952 99.4909 89.5085 99.4909C81.0218 99.4909 74.1396 99.2381 74.1396 98.9252C74.1396 98.6123 81.0221 98.3595 89.5085 98.3595ZM34.4872 95.7471C44.3755 95.7471 52.3926 95.9088 52.3926 96.1101C52.3926 96.3096 44.3755 96.473 34.4872 96.473C24.5972 96.473 16.5801 96.3096 16.5801 96.1101C16.5801 95.9088 24.5972 95.7471 34.4872 95.7471Z" fill="#DFF5F9"/></g><defs><clipPath id="clip0"><path fill="#fff" transform="translate(0 .691)" d="M0 0H150V150H0z"/></clipPath></defs></svg>