<svg viewBox="0 0 150 151" fill="none" xmlns="http://www.w3.org/2000/svg"><g clip-path="url(#clip0)"><path d="M150 75.6914C150 117.113 116.422 150.691 75 150.691C33.5781 150.691 0 117.113 0 75.6914C0 34.2695 33.5781 0.691406 75 0.691406C116.422 0.691406 150 34.2695 150 75.6914Z" fill="#FF52A5"/><path d="M149.999 75.6915C149.999 69.9008 149.343 64.2634 148.1 58.8492L109.192 19.8191C106.386 16.9364 102.466 15.1431 98.1256 15.1431C92.5455 15.1431 87.6577 18.1037 84.9432 22.5382C81.8144 21.6078 78.4716 21.1043 74.9994 21.1043C71.6978 21.1043 68.5175 21.5643 65.5237 22.4078L62.9236 19.7997C60.1187 16.9272 56.2048 15.1442 51.8732 15.1442C43.3416 15.1442 36.4271 22.0599 36.4271 30.5903C36.4271 34.5454 37.9126 38.1526 40.3582 40.8843L43.7433 44.2912C43.3405 46.1245 43.1242 48.0197 43.1242 49.9606C43.1242 55.8714 45.088 61.3658 48.4571 65.9411C44.684 67.787 29.2494 75.9799 25.3035 88.2708C23.7917 92.9801 24.5596 96.3481 26.4902 98.3851L36.5313 108.424C35.4441 110.625 34.8318 113.103 34.8318 115.725C34.8318 120.906 37.2202 125.527 40.9521 128.553L61.9577 149.56C66.1943 150.302 70.5511 150.691 74.9994 150.691C116.421 150.691 149.999 117.113 149.999 75.6915Z" fill="#FF056C"/><path d="M49.2946 65.5449C49.2946 65.5449 29.811 74.2356 25.3043 88.2706C19.9519 104.943 43.18 104.816 45.3967 88.2706C47.6123 71.7247 53.8173 69.2139 53.8173 69.2139L49.2946 65.5449Z" fill="#FFE131"/><path d="M100.705 65.5449C100.705 65.5449 120.189 74.2356 124.696 88.2706C130.048 104.943 106.82 104.816 104.603 88.2706C102.388 71.7247 96.1826 69.2139 96.1826 69.2139L100.705 65.5449Z" fill="#FFD000"/><path d="M108.387 92.9983C108.387 111.437 93.4401 126.385 75.0003 126.385C56.5604 126.385 41.6133 111.437 41.6133 92.9983C41.6133 74.5585 56.5604 59.6113 75.0003 59.6113C93.4401 59.6113 108.387 74.5585 108.387 92.9983Z" fill="#FFEE93"/><path d="M108.387 92.9971C108.387 111.437 93.4399 126.386 75 126.386V59.6101C84.2079 59.6101 92.5484 63.3363 98.5874 69.3696C104.642 75.4133 108.387 83.7652 108.387 92.9971Z" fill="#FFE767"/><path d="M67.3199 30.5903C67.3199 39.1207 60.4043 46.0364 51.8738 46.0364C43.3423 46.0364 36.4277 39.1207 36.4277 30.5903C36.4277 22.0587 43.3423 15.1431 51.8738 15.1431C60.4043 15.1431 67.3199 22.0587 67.3199 30.5903Z" fill="#FFE767"/><path d="M60.9441 30.5903C60.9441 35.5994 56.8826 39.6609 51.8735 39.6609C46.8633 39.6609 42.8018 35.5994 42.8018 30.5903C42.8018 25.5801 46.8633 21.5186 51.8735 21.5186C56.8826 21.5186 60.9441 25.5801 60.9441 30.5903Z" fill="#FF9B00"/><path d="M113.572 30.5903C113.572 39.1207 106.657 46.0364 98.1258 46.0364C89.5954 46.0364 82.6797 39.1207 82.6797 30.5903C82.6797 22.0587 89.5954 15.1431 98.1258 15.1431C106.657 15.1431 113.572 22.0587 113.572 30.5903Z" fill="#FFD000"/><path d="M107.198 30.5903C107.198 35.5994 103.136 39.6609 98.1263 39.6609C93.1172 39.6609 89.0557 35.5994 89.0557 30.5903C89.0557 25.5801 93.1172 21.5186 98.1263 21.5186C103.136 21.5186 107.198 25.5801 107.198 30.5903Z" fill="#FF7600"/><path d="M106.875 49.9593C106.875 34.0223 92.6047 21.103 75.0002 21.103C57.3958 21.103 43.125 34.0223 43.125 49.9593C43.125 65.8963 57.3958 78.8156 75.0002 78.8156C92.6047 78.8156 106.875 65.8963 106.875 49.9593Z" fill="#FFEE93"/><path d="M106.875 49.9604C106.875 57.4334 103.737 64.245 98.5874 69.3696C92.7567 75.1729 84.3487 78.8179 75 78.8179V21.103C92.6044 21.103 106.875 34.0223 106.875 49.9604Z" fill="#FFE767"/><path d="M74.9999 78.8156C85.7596 78.8156 95.2742 73.9884 101.047 66.5967C95.2742 59.2038 85.7596 54.3767 74.9999 54.3767C64.2401 54.3767 54.7255 59.2038 48.9531 66.5967C54.7255 73.9884 64.2401 78.8156 74.9999 78.8156Z" fill="#fff"/><path d="M101.048 66.5979C95.2732 73.9897 85.7609 78.8179 75 78.8179V54.3779C77.7248 54.3779 80.3696 54.6881 82.893 55.2717C90.3397 56.9849 96.7358 61.075 101.048 66.5979Z" fill="#FFF5CA"/><path d="M75.0002 50.9675C70.2658 50.9675 67.1084 52.0192 67.1084 55.2087C67.1084 58.3982 71.1733 62.0946 75.0002 62.0946C78.8271 62.0946 82.8921 58.3982 82.8921 55.2087C82.8921 52.0192 79.7347 50.9675 75.0002 50.9675Z" fill="#FF9B00"/><path d="M82.893 55.2099V55.2717C82.8403 58.444 78.8029 62.0946 75 62.0946V50.9675C79.7344 50.9675 82.893 52.0192 82.893 55.2099Z" fill="#FF7600"/><path d="M65.0757 42.5847C65.0757 44.8529 63.2367 46.6919 60.9696 46.6919C58.7014 46.6919 56.8623 44.8529 56.8623 42.5847C56.8623 40.3176 58.7014 38.4785 60.9696 38.4785C63.2367 38.4785 65.0757 40.3176 65.0757 42.5847Z" fill="#57545C"/><path d="M93.1373 42.5847C93.1373 44.8529 91.2982 46.6919 89.03 46.6919C86.7629 46.6919 84.9238 44.8529 84.9238 42.5847C84.9238 40.3176 86.7629 38.4785 89.03 38.4785C91.2982 38.4785 93.1373 40.3176 93.1373 42.5847Z" fill="#3A383F"/><path d="M67.8505 115.725C67.8505 124.843 60.4588 132.234 51.3413 132.234C42.2238 132.234 34.832 124.843 34.832 115.725C34.832 106.608 42.2238 99.2158 51.3413 99.2158C60.4588 99.2158 67.8505 106.608 67.8505 115.725Z" fill="#FFE131"/><path d="M60.4138 115.725C60.4138 120.735 56.3523 124.796 51.3421 124.796C46.333 124.796 42.2715 120.735 42.2715 115.725C42.2715 110.716 46.333 106.655 51.3421 106.655C56.3523 106.655 60.4138 110.716 60.4138 115.725Z" fill="#FF9B00"/><path d="M115.168 115.725C115.168 124.843 107.776 132.234 98.6587 132.234C89.5412 132.234 82.1494 124.843 82.1494 115.725C82.1494 106.608 89.5412 99.2158 98.6587 99.2158C107.776 99.2158 115.168 106.608 115.168 115.725Z" fill="#FFD000"/><path d="M107.729 115.725C107.729 120.735 103.668 124.796 98.6586 124.796C93.6484 124.796 89.5869 120.735 89.5869 115.725C89.5869 110.716 93.6484 106.655 98.6586 106.655C103.668 106.655 107.729 110.716 107.729 115.725Z" fill="#FF7600"/></g><defs><clipPath id="clip0"><path fill="#fff" transform="translate(0 .691)" d="M0 0H150V150H0z"/></clipPath></defs></svg>