<svg data-name="Layer 1" xmlns="http://www.w3.org/2000/svg" viewBox="0 0 30 28"><title>001-volume</title><path class="cls-1" d="M15 21.5h13v1H15zm-13 0h7v1H2zm-2 0h1v1H0zM12 20a2 2 0 1 0 2 2 2 2 0 0 0-2-2zm0 3a1 1 0 1 1 1-1 1 1 0 0 1-1 1zm8 2.5h8v1h-8zm-18 0h12v1H2zm-2 0h1v1H0zm15 .5a2 2 0 1 0 2-2 2 2 0 0 0-2 2zm3 0a1 1 0 1 1-1-1 1 1 0 0 1 1 1zm11-4.5h1v1h-1zm0 4h1v1h-1zm-3.59-14.59a2 2 0 0 0 0-2.83l-.71.71a1 1 0 0 1 0 1.41z"/><path class="cls-1" d="M26.83 12.33a4 4 0 0 0 0-5.66l-.71.71a3 3 0 0 1 0 4.24z"/><path class="cls-1" d="M27.54 13l.71.71a6 6 0 0 0 0-8.49l-.71.78a5 5 0 0 1 0 7zM1.5 12H3v.5A1.5 1.5 0 0 0 4.5 14h5.14A9.51 9.51 0 0 0 18 19h.5a1.5 1.5 0 0 0 1.5-1.5v-5h2a1.5 1.5 0 0 0 1.5-1.5V8A1.5 1.5 0 0 0 22 6.5h-2v-5A1.5 1.5 0 0 0 18.5 0H18a9.51 9.51 0 0 0-8.36 5H4.5A1.5 1.5 0 0 0 3 6.5V7H1.5A1.5 1.5 0 0 0 0 8.5v2A1.5 1.5 0 0 0 1.5 12zM20 7.5h2a.5.5 0 0 1 .5.5v3a.5.5 0 0 1-.5.5h-2zM18 1h.5a.5.5 0 0 1 .5.5v16a.5.5 0 0 1-.5.5H18a8.5 8.5 0 1 1 0-17zM4 6.5a.5.5 0 0 1 .5-.5h4.68a9.39 9.39 0 0 0 0 7H4.5a.5.5 0 0 1-.5-.5zm-3 2a.5.5 0 0 1 .5-.5H3v3H1.5a.5.5 0 0 1-.5-.5z"/></svg>