<svg data-name="Layer 1" xmlns="http://www.w3.org/2000/svg" viewBox="0 0 36.67 50"><title>018-hard-drive</title><path class="cls-1" d="M34.16 50H2.5A2.5 2.5 0 0 1 0 47.5v-45A2.5 2.5 0 0 1 2.5 0h31.66a2.5 2.5 0 0 1 2.5 2.5v45a2.5 2.5 0 0 1-2.5 2.5zM2.5 1.67a.83.83 0 0 0-.83.83v45a.83.83 0 0 0 .83.83h31.66a.83.83 0 0 0 .83-.83v-45a.83.83 0 0 0-.83-.83z"/><path class="cls-1" d="M18.33 29.17A4.17 4.17 0 1 1 22.5 25a4.17 4.17 0 0 1-4.17 4.17zm0-6.67a2.5 2.5 0 1 0 2.5 2.5 2.5 2.5 0 0 0-2.5-2.5zM6.66 8.33a1.67 1.67 0 1 1 1.67-1.66 1.67 1.67 0 0 1-1.67 1.66zm23.34 0a1.67 1.67 0 1 1 1.67-1.67A1.67 1.67 0 0 1 30 8.33zM6.66 45a1.67 1.67 0 1 1 1.67-1.67A1.67 1.67 0 0 1 6.66 45zM30 45a1.67 1.67 0 1 1 1.67-1.67A1.67 1.67 0 0 1 30 45z"/><path class="cls-1" d="M29.94 33.08A14 14 0 0 0 32.5 25a14.17 14.17 0 1 0-14.17 14.17 14 14 0 0 0 8.08-2.55L27.76 38a2.524 2.524 0 0 0 3.57-3.57zM18.33 37.5A12.5 12.5 0 1 1 30.83 25a12.34 12.34 0 0 1-2.08 6.88l-2.76-2.76a2.503 2.503 0 1 0-3.54 3.54l2.76 2.76a12.33 12.33 0 0 1-6.88 2.08zm11.79-.71a.83.83 0 0 1-1.18 0l-5.3-5.3a.834.834 0 0 1 1.18-1.18l5.3 5.3a.83.83 0 0 1-.01 1.17z"/></svg>