<svg data-name="Layer 1" xmlns="http://www.w3.org/2000/svg" viewBox="0 0 30 24.5"><title>021-ui</title><path class="cls-1" d="M1.5 18.5h12A1.5 1.5 0 0 0 15 17V9.5A1.5 1.5 0 0 0 13.5 8h-12A1.5 1.5 0 0 0 0 9.5V17a1.5 1.5 0 0 0 1.5 1.5zM13.18 9L7.5 13.37 1.82 9zM1 9.63l6.5 5 6.5-5V17a.5.5 0 0 1-.5.5h-12A.5.5 0 0 1 1 17z"/><path class="cls-1" d="M16 19a.5.5 0 0 1-.5.5h-13v1h13A1.5 1.5 0 0 0 17 19v-8.5h-1z"/><path class="cls-1" d="M18 21a.5.5 0 0 1-.5.5h-13v1h13A1.5 1.5 0 0 0 19 21v-8.5h-1z"/><path class="cls-1" d="M20 23a.5.5 0 0 1-.5.5h-13v1h13A1.5 1.5 0 0 0 21 23v-8.5h-1zm6.35-13.35L24 7.25l-2.35 2.4.71.71 1.14-1.11v7.29a.5.5 0 0 1-.5.5h-1v1h1a1.5 1.5 0 0 0 1.5-1.5V9.25l1.15 1.15z"/><path class="cls-1" d="M20 12h2.5v1H20zm6-7h-1.52a5.5 5.5 0 0 0-11 0H12a4 4 0 0 0-2.8 1.14l.7.71A3 3 0 0 1 12 6h2.5v-.5a4.5 4.5 0 1 1 9 0V6H26a3 3 0 1 1 0 6h-.5v1h.5a4 4 0 1 0 0-8z"/></svg>