<svg data-name="Layer 1" xmlns="http://www.w3.org/2000/svg" viewBox="0 0 30 30"><title>025-network-1</title><path class="cls-1" d="M1 16.5V19h1v-2.5a1 1 0 0 0 1-1h2.5v-1H3a1 1 0 0 0-1-1V11H1v2.5a1 1 0 0 0-1 1v1a1 1 0 0 0 1 1zm0-2h1v1H1zM1 3v2.5h1V3a1 1 0 0 0 .26 0l5.39 5.35.71-.71L3 2.26A1 1 0 0 0 3 2h2.5V1H3a1 1 0 0 0-1-1H1a1 1 0 0 0-1 1v1a1 1 0 0 0 1 1zm0-2h1v1H1zm14.5 4.5V3a1 1 0 0 0 1-1H19V1h-2.5a1 1 0 0 0-1-1h-1a1 1 0 0 0-1 1H11v1h2.5a1 1 0 0 0 1 1v2.5zm-1-4.5h1v1h-1zM29 0h-1a1 1 0 0 0-1 1h-2.5v1H27a1 1 0 0 0 0 .26l-5.35 5.39.71.71L27.74 3A1 1 0 0 0 28 3v2.5h1V3a1 1 0 0 0 1-1V1a1 1 0 0 0-1-1zm-1 2V1h1v1zM14.5 24.5V27a1 1 0 0 0-1 1H11v1h2.5a1 1 0 0 0 1 1h1a1 1 0 0 0 1-1H19v-1h-2.5a1 1 0 0 0-1-1v-2.5zm1 4.5h-1v-1h1zM29 27v-2.5h-1V27a1 1 0 0 0-.26 0l-5.39-5.39-.71.71L27 27.74a1 1 0 0 0 0 .26h-2.5v1H27a1 1 0 0 0 1 1h1a1 1 0 0 0 1-1v-1a1 1 0 0 0-1-1zm-1 2v-1h1v1zm1-15.5V11h-1v2.5a1 1 0 0 0-1 1h-2.5v1H27a1 1 0 0 0 1 1V19h1v-2.5a1 1 0 0 0 1-1v-1a1 1 0 0 0-1-1zm-1 2v-1h1v1zM1 30h1a1 1 0 0 0 1-1h2.5v-1H3a1 1 0 0 0 0-.26l5.39-5.39-.71-.71L2.26 27A1 1 0 0 0 2 27v-2.5H1V27a1 1 0 0 0-1 1v1a1 1 0 0 0 1 1zm0-2h1v1H1zm0-5.5h1v1H1zM1 20h1v1H1z"/><path class="cls-1" d="M6.5 15A8.5 8.5 0 1 0 15 6.5 8.5 8.5 0 0 0 6.5 15zm2.11-3.9a14.22 14.22 0 0 0 2.69.64 17.26 17.26 0 0 0-.3 2.76H7.53a7.43 7.43 0 0 1 1.08-3.4zm0 7.81a7.44 7.44 0 0 1-1.08-3.4H11a17.25 17.25 0 0 0 .29 2.76 14.22 14.22 0 0 0-2.68.63zm.59.85a14.2 14.2 0 0 1 2.32-.51 8.73 8.73 0 0 0 1.32 2.94 7.52 7.52 0 0 1-3.64-2.44zm5.3 2.62c-.76-.37-1.5-1.54-2-3.25.63-.06 1.3-.1 2-.11zm0-4.36c-.76 0-1.5.06-2.21.13A16.18 16.18 0 0 1 12 15.5h1.06a2 2 0 0 0 1.43 1.43zM12 14.5a16.19 16.19 0 0 1 .28-2.64c.71.07 1.45.12 2.21.13v1.08a2 2 0 0 0-1.43 1.43zm3.49 7.88V19c.68 0 1.34 0 2 .11-.49 1.73-1.23 2.89-1.99 3.26zm0-4.36v-1.09a2 2 0 0 0 1.43-1.43H18a16.18 16.18 0 0 1-.28 2.64C17 18.07 16.26 18 15.5 18zm1.66 4.17a8.73 8.73 0 0 0 1.32-2.94 14.2 14.2 0 0 1 2.32.51 7.52 7.52 0 0 1-3.63 2.42zm4.23-3.28a14.22 14.22 0 0 0-2.69-.64A17.25 17.25 0 0 0 19 15.5h3.49a7.44 7.44 0 0 1-1.1 3.4zm0-7.81a7.44 7.44 0 0 1 1.08 3.4H19a17.26 17.26 0 0 0-.29-2.76 14.22 14.22 0 0 0 2.69-.64zm-.59-.85a14.2 14.2 0 0 1-2.32.51 8.73 8.73 0 0 0-1.32-2.94 7.52 7.52 0 0 1 3.65 2.43zM15.5 7.63c.76.37 1.5 1.54 2 3.25-.63.06-1.3.1-2 .11zm0 4.36c.76 0 1.5-.06 2.21-.13A16.19 16.19 0 0 1 18 14.5h-1.07a2 2 0 0 0-1.43-1.43zm.5 3a1 1 0 1 1-1-1A1 1 0 0 1 16 15zm-1.5-7.36V11c-.68 0-1.34-.05-2-.11.5-1.73 1.24-2.89 2-3.26zm-1.66.19a8.73 8.73 0 0 0-1.32 2.94 14.2 14.2 0 0 1-2.32-.51 7.52 7.52 0 0 1 3.64-2.43zM1 6.5h1v1H1zM1 9h1v1H1zm5.5-8h1v1h-1zM9 1h1v1H9zm13.5 0h1v1h-1zM20 1h1v1h-1zm8 5.5h1v1h-1zM28 9h1v1h-1zm0 13.5h1v1h-1zm0-2.5h1v1h-1zm-5.5 8h1v1h-1zM20 28h1v1h-1zM6.5 28h1v1h-1zM9 28h1v1H9z"/></svg>