<svg data-name="Layer 1" xmlns="http://www.w3.org/2000/svg" viewBox="0 0 30 29"><title>029-plug</title><g class="cls-2"><path class="cls-3" d="M29 0h1v1h-1zm0 26.5a1.43 1.43 0 0 1-1.5 1.5H9a1.43 1.43 0 0 1-1.5-1.5V21H8a1.5 1.5 0 0 0 1.5-1.5v-1h1A1.5 1.5 0 0 0 12 17v-1h.5a1.5 1.5 0 0 0 1.5-1.5v-7A1.5 1.5 0 0 0 12.5 6h-2V0h-1v6h-2V0h-1v6h-2V0h-1v6h-2A1.5 1.5 0 0 0 0 7.5v7A1.5 1.5 0 0 0 1.5 16H2v1a1.5 1.5 0 0 0 1.5 1.5h1v1A1.5 1.5 0 0 0 6 21h.5v5.5A2.41 2.41 0 0 0 9 29h18.5a2.41 2.41 0 0 0 2.5-2.5V2h-1zM1.5 15a.5.5 0 0 1-.5-.5v-7a.5.5 0 0 1 .5-.5h11a.5.5 0 0 1 .5.5v7a.5.5 0 0 1-.5.5zm2 2.5A.5.5 0 0 1 3 17v-1h8v1a.5.5 0 0 1-.5.5zM6 20a.5.5 0 0 1-.5-.5v-1h3v1a.5.5 0 0 1-.5.5z"/></g></svg>