<svg data-name="Layer 1" xmlns="http://www.w3.org/2000/svg" viewBox="0 0 50 46.67"><title>036-programming</title><path class="cls-1" d="M20 41.66v3.33h-3.33v1.67h16.66V45H30v-3.34h-1.67v3.33h-6.66v-3.33zM47.5 0h-45A2.5 2.5 0 0 0 0 2.5v35A2.5 2.5 0 0 0 2.5 40h45a2.5 2.5 0 0 0 2.5-2.5v-35A2.5 2.5 0 0 0 47.5 0zm.83 37.5a.83.83 0 0 1-.83.83h-45a.83.83 0 0 1-.83-.83V30h46.66zM1.67 28.33V2.5a.83.83 0 0 1 .83-.83h45a.83.83 0 0 1 .83.83v25.83z"/><path class="cls-1" d="M26.67 34.16A1.67 1.67 0 1 1 25 32.5a1.67 1.67 0 0 1 1.67 1.66zM25 10.83A4.17 4.17 0 1 0 29.17 15 4.17 4.17 0 0 0 25 10.83zm0 6.67a2.5 2.5 0 1 1 2.5-2.5 2.5 2.5 0 0 1-2.5 2.5z"/><path class="cls-1" d="M33.37 11.33l2.24-2.24-4.72-4.7-2.23 2.24-.32-.14V3.33h-6.67v3.16l-.32.14-2.24-2.24L14.4 9.1l2.23 2.23-.14.32h-3.16v6.68h3.16l.14.32-2.24 2.24 4.71 4.71 2.24-2.27.32.14v3.16h6.67V23.5l.32-.14 2.24 2.24 4.71-4.71-2.24-2.24.14-.32h3.16v-6.67h-3.15zM35 16.66h-2.6l-1 2.38 1.85 1.85-2.36 2.36L29 21.4l-2.38 1V25h-3.29v-2.6l-2.38-1-1.85 1.85-2.36-2.36 1.85-1.85-1-2.38H15v-3.33h2.6l1-2.38-1.85-1.85 2.36-2.36L21 8.6l2.38-1V5h3.33v2.6l2.38 1 1.85-1.85 2.36 2.36-1.9 1.84 1 2.38H35z"/></svg>