<svg data-name="Layer 1" xmlns="http://www.w3.org/2000/svg" viewBox="0 0 30 22"><title>credit-card</title><path class="cls-1" d="M24 3a3.48 3.48 0 0 0-1.75.47 3.5 3.5 0 1 0 0 6.05A3.5 3.5 0 1 0 24 3zm-1 3.5a2.49 2.49 0 0 1-.75 1.78 2.49 2.49 0 0 1 0-3.56A2.49 2.49 0 0 1 23 6.5zm-5 0A2.5 2.5 0 0 1 20.5 4a2.47 2.47 0 0 1 .89.17 3.48 3.48 0 0 0 0 4.66 2.47 2.47 0 0 1-.89.17A2.5 2.5 0 0 1 18 6.5zM24 9a2.47 2.47 0 0 1-.89-.17 3.48 3.48 0 0 0 0-4.66A2.47 2.47 0 0 1 24 4a2.5 2.5 0 1 1 0 5z"/><path class="cls-1" d="M27.89 0H2.11A2.11 2.11 0 0 0 0 2.11v17.78A2.11 2.11 0 0 0 2.11 22h25.78A2.11 2.11 0 0 0 30 19.89V2.11A2.11 2.11 0 0 0 27.89 0zM29 19.89A1.11 1.11 0 0 1 27.89 21H2.11A1.11 1.11 0 0 1 1 19.89V2.11A1.11 1.11 0 0 1 2.11 1h25.78A1.11 1.11 0 0 1 29 2.11z"/><path class="cls-1" d="M3 5h4.5a.5.5 0 0 0 0-1H3a.5.5 0 0 0 0 1zm11-1H9.5a.5.5 0 0 0 0 1H14a.5.5 0 1 0 0-1zM3 7.5h.5a.5.5 0 0 0 0-1H3a.5.5 0 0 0 0 1zm2.5-1a.5.5 0 0 0 0 1h1a.5.5 0 0 0 0-1zm4 .5a.5.5 0 0 0-.5-.5h-.5a.5.5 0 0 0 0 1H9a.5.5 0 0 0 .5-.5zm2.5.5a.5.5 0 0 0 0-1h-1a.5.5 0 0 0 0 1zm1.65-.86a.5.5 0 0 0-.15.35.51.51 0 0 0 .15.35.5.5 0 0 0 .85-.34.5.5 0 0 0-.15-.35.51.51 0 0 0-.7-.01zM2.5 18.5H8v-4H2.5zm1-3H7v2H3.5zm5.5 3h5.5v-4H9zm1-3h3.5v2H10zm5.5 3H21v-4h-5.5zm1-3H20v2h-3.5zm5.5 3h5.5v-4H22zm1-3h3.5v2H23z"/></svg>