<svg data-name="Layer 1" xmlns="http://www.w3.org/2000/svg" viewBox="0 0 70 61.25"><title>imac</title><path class="cls-1" d="M66.72 0H3.28A3.29 3.29 0 0 0 0 3.29v43.75a3.29 3.29 0 0 0 3.28 3.28h25.16A23 23 0 0 1 26 59.07h-3v.85a1.34 1.34 0 0 0 1.34 1.34h21.35A1.34 1.34 0 0 0 47 59.92v-.85h-3a23 23 0 0 1-2.44-8.75h25.16A3.29 3.29 0 0 0 70 47.04V3.29A3.29 3.29 0 0 0 66.72 0zM46.48 59.63v.3a.79.79 0 0 1-.79.79H24.31a.79.79 0 0 1-.79-.79v-.3zm-3.09-.55H26.61A23.54 23.54 0 0 0 29 50.32h12a23.54 23.54 0 0 0 2.39 8.75zm25.52-12a2.19 2.19 0 0 1-2.19 2.19H3.28a2.19 2.19 0 0 1-2.19-2.19v-6h67.82zm0-6.56H1.09V3.29A2.19 2.19 0 0 1 3.28 1.1h63.44a2.19 2.19 0 0 1 2.19 2.19z"/><path class="cls-1" d="M64.53 3.29H5.47a2.19 2.19 0 0 0-2.19 2.18V36.1a2.19 2.19 0 0 0 2.19 2.19h59.06a2.19 2.19 0 0 0 2.19-2.19V5.47a2.19 2.19 0 0 0-2.19-2.18zm1.64 32.81a1.64 1.64 0 0 1-1.64 1.64H5.47a1.64 1.64 0 0 1-1.64-1.64V5.47a1.64 1.64 0 0 1 1.64-1.64h59.06a1.64 1.64 0 0 1 1.64 1.64z"/></svg>