<svg data-name="Layer 1" xmlns="http://www.w3.org/2000/svg" viewBox="0 0 30 30"><title>keyboard</title><path class="cls-1" d="M28.5 11H30v-1h-1.5A3.5 3.5 0 0 1 25 6.5V5.25a5.25 5.25 0 1 0-10.5 0V14H0v16h30V14H15.5V5.25a4.25 4.25 0 1 1 8.5 0V6.5a4.5 4.5 0 0 0 4.5 4.5zm.5 4v14H1V15z"/><path class="cls-1" d="M6 20H3v-3h3zm-2-1h1v-1H4zm5.5 1h-3v-3h3zm-2-1h1v-1h-1zm5.5 1h-3v-3h3zm-2-1h1v-1h-1zm5.5 1h-3v-3h3zm-2-1h1v-1h-1zm5.5 1h-3v-3h3zm-2-1h1v-1h-1zm9 1h-3v-3h3zm-2-1h1v-1h-1zM6 23.5H3v-3h3zm-2-1h1v-1H4zm5.5 1h-3v-3h3zm-2-1h1v-1h-1zm5.5 1h-3v-3h3zm-2-1h1v-1h-1zm5.5 1h-3v-3h3zm-2-1h1v-1h-1zm5.5 1h-3v-3h3zm-2-1h1v-1h-1zm5.5-2.5h-3v-3h3zm-2-1h1v-1h-1zm5.5 4.5h-6.5v-3H27zm-5.5-1H26v-1h-4.5zM6 27H3v-3h3zm-2-1h1v-1H4zm5.5 1h-3v-3h3zm-2-1h1v-1h-1zM20 27H10v-3h10zm-9-1h8v-1h-8zm12.5 1h-3v-3h3zm-2-1h1v-1h-1zm5.5 1h-3v-3h3zm-2-1h1v-1h-1z"/></svg>