<svg data-name="Layer 1" xmlns="http://www.w3.org/2000/svg" viewBox="0 0 30 28.75"><title>keypad</title><g class="cls-2"><path class="cls-3" d="M1.88 9.99a1.88 1.88 0 1 0 1.87 1.88 1.88 1.88 0 0 0-1.87-1.88zm0 2.5a.63.63 0 1 1 .63-.62.63.63 0 0 1-.63.62zm0-7.5a1.88 1.88 0 1 0 1.87 1.88 1.88 1.88 0 0 0-1.87-1.88zm0 2.5a.63.63 0 1 1 .62-.62.63.63 0 0 1-.62.63zm0-7.49a1.87 1.87 0 1 0 1.87 1.87A1.88 1.88 0 0 0 1.88 0zm0 2.5a.62.62 0 1 1 .62-.63.63.63 0 0 1-.62.62zm5 2.49a1.88 1.88 0 1 0 1.87 1.88 1.88 1.88 0 0 0-1.87-1.88zm0 2.5a.63.63 0 1 1 .62-.62.63.63 0 0 1-.62.63zm0-7.49a1.87 1.87 0 1 0 1.87 1.87A1.88 1.88 0 0 0 6.88 0zm0 2.5a.62.62 0 1 1 .62-.63.63.63 0 0 1-.62.62zm5 2.49a1.88 1.88 0 1 0 1.87 1.88 1.88 1.88 0 0 0-1.87-1.88zm0 2.5a.63.63 0 1 1 .63-.63.63.63 0 0 1-.63.64zm0 2.5a1.88 1.88 0 1 0 1.88 1.88 1.88 1.88 0 0 0-1.88-1.88zm0 2.5a.63.63 0 1 1 .63-.62.63.63 0 0 1-.63.62zM8.2 10.54a1.874 1.874 0 1 0-2.65 2.65.622.622 0 0 0 .88-.88.622.622 0 0 1 .88-.88.622.622 0 1 0 .88-.88zM11.88 0a1.87 1.87 0 1 0 1.87 1.87A1.88 1.88 0 0 0 11.88 0zm0 2.5a.62.62 0 1 1 .63-.62.63.63 0 0 1-.63.61z"/><path class="cls-3" d="M28.21 15.29l-4.7-5.16a2.44 2.44 0 0 0-3.38 0 2.34 2.34 0 0 0-.6 1 2.44 2.44 0 0 0-3.15.22 2.37 2.37 0 0 0-.61 1 2.44 2.44 0 0 0-3.14.22 2.38 2.38 0 0 0-.6 1l-2.22-2.15a2.394 2.394 0 0 0-3.39 3.38l8.51 8.51-5 .79a2.8 2.8 0 0 0-2.43 2.77 1.88 1.88 0 0 0 1.88 1.88h11.78a6.83 6.83 0 0 0 4.86-2l2-2a6.87 6.87 0 0 0 .22-9.48zm-1.11 8.59l-2 2a5.6 5.6 0 0 1-4 1.65H9.38a.63.63 0 0 1-.63-.62 1.55 1.55 0 0 1 1.33-1.54l6.27-1a.62.62 0 0 0 .34-1.06l-9.38-9.39a1.14 1.14 0 0 1 .81-1.95 1.11 1.11 0 0 1 .81.34l3.67 3.67 2.55 2.55a.622.622 0 1 0 .88-.88l-2.58-2.58a1.14 1.14 0 0 1 0-1.59 1.17 1.17 0 0 1 1.61 0l1.23 1.23 1.31 1.3a.622.622 0 0 0 .88-.88l-1.23-1.26a1.15 1.15 0 0 1 0-1.6 1.17 1.17 0 0 1 1.61 0l1.3 1.3a.63.63 0 0 0 .87-.9L21 12.6a1.14 1.14 0 0 1 0-1.6 1.18 1.18 0 0 1 1.59 0l4.68 5.14a5.62 5.62 0 0 1-.18 7.75z"/></g></svg>