<svg data-name="Layer 1" xmlns="http://www.w3.org/2000/svg" viewBox="0 0 30 20.49"><title>laptop</title><path class="cls-1" d="M10.5 6.25h9a.44.44 0 1 0 0-.88h-9a.44.44 0 0 0 0 .88zm10.85 2.77h1.79a.44.44 0 1 0 0-.88h-1.79a.44.44 0 1 0 0 .88zm-14.48 0H19.3a.44.44 0 0 0 0-.88H6.87a.44.44 0 1 0 0 .88zm16.26 1.86H10.7a.44.44 0 0 0 0 .88h12.43a.44.44 0 1 0 0-.88zm-16.26.87h1.78a.44.44 0 1 0 0-.88H6.87a.44.44 0 0 0 0 .88z"/><path class="cls-1" d="M26.18 1.67H3.82a.6.6 0 0 0-.6.6v13.15a.6.6 0 0 0 .6.6h22.36a.6.6 0 0 0 .6-.6V2.25a.6.6 0 0 0-.6-.58zm-.28 13.47H4.1V2.55h21.79v12.59z"/><path class="cls-1" d="M28.92 16.88h-.38V1.49A1.5 1.5 0 0 0 27 0H3a1.5 1.5 0 0 0-1.54 1.49v15.39h-.38A1.08 1.08 0 0 0 0 17.96a2.53 2.53 0 0 0 2.53 2.53h24.94A2.53 2.53 0 0 0 30 17.96a1.08 1.08 0 0 0-1.08-1.08zM2.53 19.61a1.65 1.65 0 0 1-1.65-1.65.2.2 0 0 1 .2-.2h10.14v.73a2 2 0 0 0 .34 1.12zm15.37-1.12a1.12 1.12 0 0 1-1.12 1.12h-3.56a1.12 1.12 0 0 1-1.12-1.12v-.73h5.8zM2.34 16.88V1.49A.62.62 0 0 1 3 .87h24a.62.62 0 0 1 .62.62v15.39zm25.14 2.73h-9a2 2 0 0 0 .34-1.12v-.73h10.1a.2.2 0 0 1 .2.2 1.65 1.65 0 0 1-1.65 1.65z"/></svg>