<svg data-name="Layer 1" xmlns="http://www.w3.org/2000/svg" viewBox="0 0 30 29.81"><title>quiz-on-computer-with-question-signs-around</title><g class="cls-2"><path class="cls-3" d="M12.85 10.4l-2.46 12.89L0 24.83l13.86 5 12.34-1.66L30 12.08zm-2.44 17.5L7 26.57l1.64-.22 3.82 1.28zm14.66-1.1l-13.73-3.9 2.2-11.38 14.72 1.73zM8.67 9.56h1.63v1.56H8.67zm.43-2.19H7.45a2.69 2.69 0 0 1 .15-.73A1.86 1.86 0 0 1 8 6a1.92 1.92 0 0 1 .67-.46 2.45 2.45 0 0 1 1-.18 2.64 2.64 0 0 1 1 .15 1.87 1.87 0 0 1 .64.39 1.53 1.53 0 0 1 .36.53 1.79 1.79 0 0 1 .13.55 1.54 1.54 0 0 1-.09.59 1.11 1.11 0 0 1-.25.37 1.43 1.43 0 0 1-.34.25l-.39.2-.22.14a.58.58 0 0 0-.13.15.6.6 0 0 0-.07.18 1.23 1.23 0 0 0 0 .23H8.76v-.3a1.63 1.63 0 0 1 0-.38A1.25 1.25 0 0 1 9 8.03a1 1 0 0 1 .35-.31l.22-.1.24-.12a.77.77 0 0 0 .19-.17.35.35 0 0 0 0-.22c0-.27-.15-.4-.46-.4a.42.42 0 0 0-.4.2.76.76 0 0 0-.05.46zm9.13 11.65l1.83 1.24L18.88 22 17 20.77zm5.63-2.12a2.06 2.06 0 0 1 0 .86 2.42 2.42 0 0 1-.27.71 2 2 0 0 1-.55.58 1.54 1.54 0 0 1-.56.23 1.88 1.88 0 0 1-.57 0l-.58-.07a1.58 1.58 0 0 0-.35 0 .8.8 0 0 0-.26.06.77.77 0 0 0-.21.15 2 2 0 0 0-.2.25l-1.63-1.1.22-.34a2.26 2.26 0 0 1 .34-.39 1.74 1.74 0 0 1 .48-.31 1.23 1.23 0 0 1 .63-.09l.32.05h.36a1 1 0 0 0 .34 0 .48.48 0 0 0 .26-.19c.2-.3.14-.57-.21-.8a.57.57 0 0 0-.61-.07 1 1 0 0 0-.45.45l-1.84-1.25a3.7 3.7 0 0 1 .72-.7 2.49 2.49 0 0 1 .91-.43 2.62 2.62 0 0 1 1.09 0 3.33 3.33 0 0 1 1.24.55 3.62 3.62 0 0 1 1 .91 2.57 2.57 0 0 1 .38.94zM1.11 19.82l-.92-.07.08-1 .92.07zm1.73-.29a.26.26 0 0 0-.1-.25.45.45 0 0 0-.27-.08l.08-1a1.61 1.61 0 0 1 .42.12 1.12 1.12 0 0 1 .36.26 1.14 1.14 0 0 1 .24.42 1.46 1.46 0 0 1 .06.6 1.65 1.65 0 0 1-.14.57 1.12 1.12 0 0 1-.27.36.9.9 0 0 1-.33.19 1.07 1.07 0 0 1-.33.05 1 1 0 0 1-.34-.09.69.69 0 0 1-.22-.13.92.92 0 0 1-.13-.22l-.1-.24a.67.67 0 0 0-.07-.14.3.3 0 0 0-.07-.05l-.1-.05h-.14l.06-.95h.18a.91.91 0 0 1 .23 0 .76.76 0 0 1 .22.12.54.54 0 0 1 .17.22l.05.14.06.15a.41.41 0 0 0 .09.12.2.2 0 0 0 .13.06c.16.09.24.01.26-.17zM25.51 6.68l.26.89-.94.27-.25-.94zm-2-.78a1.57 1.57 0 0 1 0-.44 1.14 1.14 0 0 1 .11-.43 1.17 1.17 0 0 1 .31-.37 1.46 1.46 0 0 1 .53-.26 1.61 1.61 0 0 1 .54-.08 1.13 1.13 0 0 1 .43.12.89.89 0 0 1 .29.24 1.16 1.16 0 0 1 .16.29.89.89 0 0 1 0 .35.69.69 0 0 1-.08.25.84.84 0 0 1-.16.2l-.19.18-.1.12a.32.32 0 0 0-.05.11.31.31 0 0 0 0 .12.73.73 0 0 0 0 .14l-.83.24.03-.18a1 1 0 0 1 0-.23.84.84 0 0 1 0-.25.53.53 0 0 1 .15-.24l.11-.1.12-.11a.46.46 0 0 0 .08-.12.21.21 0 0 0 0-.14c0-.15-.15-.2-.33-.16a.26.26 0 0 0-.2.18.45.45 0 0 0 0 .28zM18.3 8.77l.57.06-.05.54-.56-.06zm.22-.74L18 7.98a.92.92 0 0 1 0-.25.65.65 0 0 1 .16-.21.64.64 0 0 1 .25-.14.86.86 0 0 1 .35 0 .92.92 0 0 1 .33.09.64.64 0 0 1 .21.16.56.56 0 0 1 .11.19.66.66 0 0 1 0 .19.48.48 0 0 1-.05.2.41.41 0 0 1-.1.12l-.13.07-.13.04h-.08a.15.15 0 0 0 0 .06.28.28 0 0 0 0 .08h-.5a.72.72 0 0 1 0-.1.68.68 0 0 1 0-.13.42.42 0 0 1 .07-.13.33.33 0 0 1 .13-.1h.17l.07-.05a.11.11 0 0 0 0-.08c0-.09 0-.14-.15-.15a.15.15 0 0 0-.15.06.26.26 0 0 0-.03.13zm-3.21 12.2a.61.61 0 0 1 0 .19.52.52 0 0 1-.05.2.37.37 0 0 1-.1.12l-.13.07-.14.06h-.13v.06a.56.56 0 0 0 0 .08h-.5v-.11a.51.51 0 0 1 0-.13.44.44 0 0 1 .07-.13.31.31 0 0 1 .13-.1h.17l.07-.05a.12.12 0 0 0 0-.07c0-.09 0-.14-.14-.16a.15.15 0 0 0-.15.06.27.27 0 0 0 0 .16l-.57-.06a.86.86 0 0 1 .08-.25.66.66 0 0 1 .16-.21.64.64 0 0 1 .25-.14.85.85 0 0 1 .35 0 .88.88 0 0 1 .32.08.62.62 0 0 1 .21.16.61.61 0 0 1 .11.17zm-1.12 1l.57.06-.05.54-.57-.05zM3.46 3.98l-.57-.08A.94.94 0 0 1 3 3.68a.7.7 0 0 1 .16-.21.65.65 0 0 1 .24-.14.88.88 0 0 1 .35 0A.94.94 0 0 1 4 3.4a.61.61 0 0 1 .21.16.54.54 0 0 1 .11.19.67.67 0 0 1 0 .2.55.55 0 0 1-.05.2.45.45 0 0 1-.1.12l-.13.07-.04.05h-.13v.06a.43.43 0 0 0 0 .08h-.5v-.1a.58.58 0 0 1 0-.13.51.51 0 0 1 .07-.13.32.32 0 0 1 .13-.1h.24a.11.11 0 0 0-.01-.17c0-.09 0-.14-.14-.16a.15.15 0 0 0-.15.06.26.26 0 0 0-.05.18zm-.22.74l.57.06-.05.54-.57-.06zm1.4 10.73l-1.42.45-.39-1.34 1.41-.41zm-3.4-2.55a2.51 2.51 0 0 1-.05-.67 1.67 1.67 0 0 1 .18-.65 1.71 1.71 0 0 1 .46-.56 2.26 2.26 0 0 1 .81-.4 2.41 2.41 0 0 1 .87-.11 1.62 1.62 0 0 1 .64.18 1.39 1.39 0 0 1 .44.37 1.71 1.71 0 0 1 .25.44 1.4 1.4 0 0 1 .06.53 1 1 0 0 1-.12.38 1.26 1.26 0 0 1-.23.3l-.28.27a1.27 1.27 0 0 0-.16.18.5.5 0 0 0-.08.16.48.48 0 0 0 0 .17 1.19 1.19 0 0 0 0 .21l-1.23.4c0-.07-.05-.15-.08-.26a1.36 1.36 0 0 1-.06-.35 1.1 1.1 0 0 1 0-.37.8.8 0 0 1 .22-.36l.16-.15.18-.16a.62.62 0 0 0 .13-.19.3.3 0 0 0 0-.22c-.07-.23-.23-.31-.49-.23a.38.38 0 0 0-.3.28.7.7 0 0 0 0 .43zm15.3-9.35l.39 1.35-1.41.41-.39-1.34zm-3-1.18a2.44 2.44 0 0 1-.05-.67 1.7 1.7 0 0 1 .17-.65 1.74 1.74 0 0 1 .46-.56 2.22 2.22 0 0 1 .81-.4A2.44 2.44 0 0 1 15.8 0a1.72 1.72 0 0 1 .65.18 1.34 1.34 0 0 1 .44.37 1.71 1.71 0 0 1 .25.44 1.44 1.44 0 0 1 .06.53 1.05 1.05 0 0 1-.12.39 1.25 1.25 0 0 1-.23.3l-.28.27a1 1 0 0 0-.16.18.55.55 0 0 0-.08.16.5.5 0 0 0 0 .17 1.39 1.39 0 0 0 0 .21l-1.26.36c0-.07-.05-.15-.08-.26a1.38 1.38 0 0 1 .01-.34 1.17 1.17 0 0 1 0-.37.83.83 0 0 1 .22-.36l.16-.14.19-.19a.64.64 0 0 0 .13-.19.32.32 0 0 0 0-.22c-.07-.23-.23-.31-.49-.24a.38.38 0 0 0-.3.28.69.69 0 0 0 0 .43zM7.8 18.18l-1.08-.2a1.83 1.83 0 0 1 .19-.46 1.26 1.26 0 0 1 .33-.37 1.29 1.29 0 0 1 .49-.25 1.64 1.64 0 0 1 .67 0 1.77 1.77 0 0 1 .62.22 1.31 1.31 0 0 1 .37.34 1 1 0 0 1 .17.4 1.19 1.19 0 0 1 0 .37 1 1 0 0 1-.13.37.78.78 0 0 1-.21.22.93.93 0 0 1-.26.12l-.28.09-.16.07a.33.33 0 0 0-.11.08.43.43 0 0 0-.07.11 1 1 0 0 0 0 .15l-1-.18v-.2a1.12 1.12 0 0 1 .08-.25.85.85 0 0 1 .16-.23.64.64 0 0 1 .27-.16h.16l.17-.05a.47.47 0 0 0 .15-.08.23.23 0 0 0 .08-.14q0-.26-.25-.32a.29.29 0 0 0-.29.08.55.55 0 0 0-.07.27zm-.55 1.39l1.08.2-.19 1-1.08-.2z"/></g></svg>