<svg data-name="Layer 1" xmlns="http://www.w3.org/2000/svg" viewBox="0 0 30 30"><title>ram-memory</title><path class="cls-1" d="M29.85 9.34l-1.41-1.41-1.06-1.06a.5.5 0 0 0-.71 0 .5.5 0 0 1-.67-.71.5.5 0 0 0 0-.71L24.55 4a.5.5 0 0 0-.71 0 .52.52 0 0 1-.71 0 .5.5 0 0 1 0-.71.5.5 0 0 0 0-.71L20.66.15a.5.5 0 0 0-.71 0L.15 20a.5.5 0 0 0 0 .71l2.48 2.48a.5.5 0 0 0 .71 0 .502.502 0 0 1 .71.71.5.5 0 0 0 0 .71L5.45 26a.5.5 0 0 0 .71 0 .52.52 0 0 1 .71 0 .5.5 0 0 1 0 .71.5.5 0 0 0 0 .71l1.06 1.06 1.41 1.41a.5.5 0 0 0 .71 0L29.85 10a.5.5 0 0 0 0-.71zM7.87 27a1.5 1.5 0 0 0-2-2L5 24.13a1.5 1.5 0 0 0-2-2L1.21 20.3 20.3 1.21 22.13 3a1.5 1.5 0 0 0 2 2l.83.83a1.5 1.5 0 0 0 2 2l.41.41L8.28 27.38zm1.83 1.79l-.7-.7.71-.71.71.71zm1.41-1.41l-.71-.71L26.67 10.4l.71.71zm17-17l-.71-.71.69-.67.71.71z"/><path class="cls-1" d="M3.68 20a.5.5 0 0 0-.85.36.48.48 0 0 0 .15.35.5.5 0 0 0 .36.15.49.49 0 0 0 .35-.15.44.44 0 0 0 .11-.16.5.5 0 0 0 0-.19.55.55 0 0 0 0-.2.43.43 0 0 0-.12-.16zM20.31 3.83a.51.51 0 0 0 .5-.5.5.5 0 0 0-.15-.33.51.51 0 0 0-.66 0 .5.5 0 0 0-.15.36.48.48 0 0 0 .15.35.5.5 0 0 0 .31.12zM7.57 18.89a1 1 0 0 0-1.41 0L5.1 20a1 1 0 0 0 0 1.41l2.83 2.79a1 1 0 0 0 1.41 0l1.06-1.06a1 1 0 0 0 0-1.41zm2.13 3.54l-1.07 1.06-2.83-2.83 1.07-1.06 2.83 2.83zm1.06-6.72a1 1 0 0 0-1.41 0l-1.07 1.06a1 1 0 0 0 0 1.41L11.11 21a1 1 0 0 0 1.41 0l1.07-1a1 1 0 0 0 0-1.41zm1.06 4.6L9 17.48l1-1.07 2.83 2.83zm2.12-7.79a1 1 0 0 0-1.41 0l-1.06 1.06a1 1 0 0 0 0 1.41l2.83 2.83a1 1 0 0 0 1.41 0l1.06-1.06a1 1 0 0 0 0-1.41zm1.06 4.6l-2.83-2.83 1.06-1.06 2.83 2.83zM21.37 5.1a1 1 0 0 0-1.37 0l-5.3 5.3a1 1 0 0 0 0 1.41l2.83 2.83a1 1 0 0 0 1.41 0l5.3-5.31a1 1 0 0 0 0-1.41zm2.12 3.54l-.71.71-.35-.35a.502.502 0 0 0-.71.71l.35.35-.71.71-.36-.37a.502.502 0 0 0-.71.71l.35.35-.71.71-.35-.35a.502.502 0 0 0-.71.71l.35.35-1.06 1.06-2.83-2.83 5.31-5.3 2.83 2.83z"/><path class="cls-1" d="M18.89 9l-1.41 1.4a.502.502 0 1 0 .71.71L19.6 9.7a.5.5 0 0 0-.71-.7zm1.27-1.07a.5.5 0 0 0 .5.5.53.53 0 0 0 .34-.15.5.5 0 0 0 .15-.36.53.53 0 0 0 0-.2.51.51 0 0 0-1 .2z"/></svg>