<svg data-name="Layer 1" xmlns="http://www.w3.org/2000/svg" viewBox="0 0 30 30"><title>return</title><path class="cls-1" d="M1.25 16.22A1.25 1.25 0 0 0 2.5 15 12.46 12.46 0 0 1 14.92 2.5a12.29 12.29 0 0 1 8.05 3h-1.14a1.25 1.25 0 0 0 0 2.5h4.1a1.25 1.25 0 0 0 1.25-1.25V2.6a1.25 1.25 0 1 0-2.5 0v1A14.77 14.77 0 0 0 14.92 0 15 15 0 0 0 0 15a1.25 1.25 0 0 0 1.25 1.22zm27.5-2.45A1.25 1.25 0 0 0 27.5 15a12.46 12.46 0 0 1-12.42 12.5 12.29 12.29 0 0 1-8-2.91H8.3a1.25 1.25 0 1 0 0-2.5H3.67l-.1.05-.12.07-.06.05-.1.09-.08.09-.07.1-.06.11v.11L3 23v4.45a1.25 1.25 0 1 0 2.5 0v-1A14.77 14.77 0 0 0 15.08 30 15 15 0 0 0 30 15a1.25 1.25 0 0 0-1.25-1.23z"/></svg>