<svg viewBox="0 0 25 25" fill="none" xmlns="http://www.w3.org/2000/svg"><g clip-path="url(#clip0)" fill="#fff"><path d="M21.434 20.104a1.293 1.293 0 0 0 0 2.585c.713 0 1.293-.58 1.293-1.293s-.58-1.293-1.293-1.293zm0 1.819a.527.527 0 1 1 .001-1.055.527.527 0 0 1 0 1.055z"/><path d="M24.917 21.33a3.389 3.389 0 0 0-1.128-2.452l-7.712-6.956 6.819-6.82a.72.72 0 0 0 .132-.052l1.477-.78c.204-.107.34-.3.375-.528a.712.712 0 0 0-.203-.616l-1.662-1.662a.712.712 0 0 0-.616-.203.712.712 0 0 0-.529.375l-.78 1.477a.729.729 0 0 0-.053.133L17.82 6.465a.383.383 0 0 0 .541.542l2.954-2.954.774.774-7.554 7.554-.774-.774 3.297-3.298a.383.383 0 0 0-.541-.541l-2.393 2.392-2.603-2.348a5.878 5.878 0 0 0-1.398-6.09A5.89 5.89 0 0 0 3.853.39a.383.383 0 0 0-.133.629l3.007 3.007a.468.468 0 0 1 0 .666L4.774 6.645a.468.468 0 0 1-.666 0L1.1 3.638a.383.383 0 0 0-.628.134 5.89 5.89 0 0 0 1.331 6.268 5.9 5.9 0 0 0 5.972 1.436l2.013 2.202a2.064 2.064 0 0 1-2.593.986.383.383 0 0 0-.41.086l-4.69 4.69a3.26 3.26 0 0 0 0 4.606A3.235 3.235 0 0 0 4.397 25c.87 0 1.688-.339 2.303-.954l4.69-4.69a.383.383 0 0 0 .087-.41 2.074 2.074 0 0 1 2.682-2.682.383.383 0 0 0 .409-.086l.885-.884c.266-.267.413-.621.413-.998 0-.376-.147-.73-.413-.997l-.377-.377.458-.458 7.742 6.983a2.63 2.63 0 0 1 .875 1.902 2.629 2.629 0 0 1-.776 1.944 2.634 2.634 0 0 1-1.935.777 2.63 2.63 0 0 1-1.899-.862l-5.756-6.295a.383.383 0 1 0-.566.517l5.757 6.295a3.39 3.39 0 0 0 2.526 1.111c.912 0 1.767-.353 2.415-1.001a3.389 3.389 0 0 0 1-2.506zM21.785 3.44l.733-1.39 1.572 1.573-1.39.733-.915-.916zM8.17 10.773a.383.383 0 0 0-.416-.1 5.131 5.131 0 0 1-5.409-1.174 5.124 5.124 0 0 1-1.341-4.874l2.562 2.562a1.234 1.234 0 0 0 1.75 0l1.953-1.953a1.23 1.23 0 0 0 .362-.875c0-.33-.128-.641-.362-.875L4.707.922A5.124 5.124 0 0 1 9.58 2.263a5.113 5.113 0 0 1 1.134 5.517.383.383 0 0 0 .1.426l2.767 2.496-.362.363-.377-.377a1.401 1.401 0 0 0-.998-.413c-.376 0-.73.147-.997.413l-.885.885a.383.383 0 0 0-.086.41c.102.262.146.536.139.807L8.17 10.774zm6.74 3.979l-.716.717a2.84 2.84 0 0 0-2.793.72 2.84 2.84 0 0 0-.72 2.793l-4.523 4.522c-.47.47-1.095.73-1.76.73a2.493 2.493 0 0 1-1.761-4.252l4.522-4.522a2.84 2.84 0 0 0 3.513-3.513l.717-.717a.645.645 0 0 1 .911 0l.648.647 1.315 1.316.648.648a.645.645 0 0 1 0 .91z"/><path d="M7.926 16.907a.383.383 0 0 0-.542 0l-3.628 3.628a.383.383 0 0 0 .541.542l3.63-3.629a.383.383 0 0 0 0-.541zm1.341 1.34a.383.383 0 0 0-.542 0l-3.629 3.63a.383.383 0 0 0 .542.541l3.629-3.629a.383.383 0 0 0 0-.542z"/></g></svg>