<svg data-name="Layer 1" xmlns="http://www.w3.org/2000/svg" viewBox="0 0 30 21.89"><title>snail</title><path class="cls-1" d="M24.49 7.3l-.06-.07a.67.67 0 1 0-1 .84v.06a.67.67 0 1 0 1.05-.83z"/><path class="cls-1" d="M29.94 20.95c0-.1-1.12-2.31-4.86-4.67a6.51 6.51 0 0 0 .92-2.06 8 8 0 0 0-.58-5.47.67.67 0 0 0-1.2.59 6.68 6.68 0 0 1 .48 4.55 5.16 5.16 0 0 1-1.1 2.13 5.19 5.19 0 0 1-5.21 1.65 4 4 0 0 1-2.94-4.89 3.09 3.09 0 0 1 3.75-2.25 2.34 2.34 0 0 1 1.7 2.84 1.74 1.74 0 0 1-2.11 1.27 1.26 1.26 0 0 1-.91-1.52.67.67 0 0 0-1.3-.32 2.6 2.6 0 0 0 1.87 3.15 3.08 3.08 0 0 0 3.73-2.24 3.68 3.68 0 0 0-2.68-4.46 4.43 4.43 0 0 0-5.38 3.23 5.4 5.4 0 0 0-.12.66l-2.54-1-.46-.19a1.66 1.66 0 0 1-.77-1 1.59 1.59 0 0 1 .17-1.23 8.57 8.57 0 0 1 9.39-3.92 6.62 6.62 0 0 1 2.55 1.26.67.67 0 0 0 .84-1 8 8 0 0 0-3.07-1.52 9.77 9.77 0 0 0-6.22.41 9.94 9.94 0 0 0-4.62 4 2.93 2.93 0 0 0-.38 1 7.55 7.55 0 0 1-.63-1.67 8.13 8.13 0 0 0-.48-1.36 3.31 3.31 0 0 0-.64-.89V.67a.67.67 0 0 0-1.34 0v4.67a3.29 3.29 0 0 0-1-.16h-.27V.67a.67.67 0 0 0-1.34 0v4.52a3.31 3.31 0 0 0-.08 6.61 10.72 10.72 0 0 0 3.23 5.67 9.74 9.74 0 0 0 1.91 1.36l-1 2.1a.67.67 0 0 0 .6 1h21.48a.67.67 0 0 0 .61-1zm-21-.38l.86-1.75a.67.67 0 0 0-.37-.93 9 9 0 0 1-5.07-6.87.67.67 0 0 0-.66-.55h-.39a2 2 0 1 1 0-3.94h1.5a2 2 0 0 1 1.77 1.11A7.18 7.18 0 0 1 7 8.78a6 6 0 0 0 3.44 4.36l.35.16.2.08L14 14.57a5.36 5.36 0 0 0 4 4.38 6.62 6.62 0 0 0 1.61.2 6.51 6.51 0 0 0 4.57-1.87 15.37 15.37 0 0 1 3.85 3.25H8.9z"/><path class="cls-1" d="M4.79 7.47a.67.67 0 0 0-.67.67v.25a.67.67 0 1 0 1.34 0v-.25a.67.67 0 0 0-.67-.67z"/></svg>