<svg data-name="Layer 1" xmlns="http://www.w3.org/2000/svg" viewBox="0 0 30 23.42"><title>virus</title><path class="cls-1" d="M2.32 2.71A.44.44 0 1 0 2 2.63a.44.44 0 0 0 .32.08zm1.41 0a.44.44 0 1 0-.31-.13.44.44 0 0 0 .31.13zm1.41 0a.44.44 0 1 0-.31-.13.44.44 0 0 0 .31.13zm1.86 0h17.86a.44.44 0 0 0 0-.88H7a.44.44 0 0 0 0 .88zm19.74 0h.94a.44.44 0 0 0 0-.88h-.94a.44.44 0 0 0 0 .88zM15 15.91a.44.44 0 0 0 .44-.44v-.94a.44.44 0 0 0-.88 0v.94a.44.44 0 0 0 .44.44zm-2.84-1.28a.75.75 0 0 0 .73 0l1.11-.51a1 1 0 0 0 .52-.91 1 1 0 0 0-.89-1h-1.07a.87.87 0 0 0-.82.91v.72a.93.93 0 0 0 .42.79zm.46-1.51h1a.2.2 0 0 1 0 .12.19.19 0 0 1 0 .13l-1 .48zm3.38 1l1.08.54a.75.75 0 0 0 .73 0 .93.93 0 0 0 .42-.8v-.72a.87.87 0 0 0-.82-.91h-1.02a1 1 0 0 0-.89 1 1 1 0 0 0 .5.89zm.39-1h1v.7l-1-.48a.18.18 0 0 1 0-.13.2.2 0 0 1 .02-.12z"/><path class="cls-1" d="M23.41 11.1a1.38 1.38 0 0 0-.36-2.5 1.38 1.38 0 1 0-2.7.06l-1.35.8a5.13 5.13 0 0 0-8.06 0l-1.32-.82A1.38 1.38 0 1 0 7 8.59a1.38 1.38 0 1 0 1.2 2.4l1.7 1.05a5.15 5.15 0 0 0 0 .6v1.07a2.32 2.32 0 0 0 .33 1.19l-2 1.24a1.38 1.38 0 1 0-1.25 2.39H7a1.38 1.38 0 1 0 2.7-.06l1.41-.87a1.85 1.85 0 0 0 .37.44l1.42 1.24a3.27 3.27 0 0 0 4.29 0l1.42-1.24a1.85 1.85 0 0 0 .37-.44l1.41.87a1.38 1.38 0 1 0 2.7.06 1.38 1.38 0 1 0-1.25-2.39l-2-1.24a2.31 2.31 0 0 0 .3-1.19v-1.06a5.16 5.16 0 0 0 0-.6l1.7-1.05a1.38 1.38 0 0 0 1.57.1zM15 8.39a4.26 4.26 0 0 1 4.19 3.49 4.27 4.27 0 0 1 .07.74v1.09a1.44 1.44 0 0 1-.4 1 1.44 1.44 0 0 1-.45.31l-2.15.92a.44.44 0 0 0-.27.4v.47h-1.93v-.4a.44.44 0 0 0-.27-.4l-2.15-.92a1.44 1.44 0 0 1-.43-.28l-.09-.1a1.44 1.44 0 0 1-.37-1v-1.06a4.25 4.25 0 0 1 .06-.71.45.45 0 0 0 0-.07 4.23 4.23 0 0 1 .64-1.57A4.26 4.26 0 0 1 15 8.39zm-6.65 1.66a.44.44 0 0 0-.61.14.5.5 0 1 1-.56-.74.9.9 0 0 0 .64-1 .5.5 0 1 1 .91.17.44.44 0 0 0 .14.61l1.61 1a5.11 5.11 0 0 0-.39.93zm.53 7.93a.44.44 0 0 0-.14.61.5.5 0 1 1-.91.17.9.9 0 0 0-.63-1 .5.5 0 1 1 .56-.74.44.44 0 0 0 .61.14l2.44-1.51v1.13zm9.12-.54l-1.43 1.27a2.39 2.39 0 0 1-3.13 0L12 17.44a1 1 0 0 1-.33-.73v-.64l1.47.63v.18a.91.91 0 0 0 .91.91h1.88a.91.91 0 0 0 .91-.91v-.17l1.47-.63v.63a1 1 0 0 1-.31.73zm4-.25a.44.44 0 0 0 .27-.2.5.5 0 1 1 .56.74.9.9 0 0 0-.64 1 .5.5 0 1 1-.91-.17.44.44 0 0 0-.14-.61l-1.93-1.2v-1.13l2.44 1.51a.44.44 0 0 0 .35.05zm-2.07-6.05a5.11 5.11 0 0 0-.39-.93l1.61-1a.44.44 0 0 0 .14-.61.5.5 0 1 1 .91-.17.9.9 0 0 0 .64 1 .5.5 0 1 1-.56.74.44.44 0 0 0-.61-.14z"/><path class="cls-1" d="M27.68 0H2.32A2.32 2.32 0 0 0 0 2.32V21.1a2.32 2.32 0 0 0 2.32 2.32h25.36A2.32 2.32 0 0 0 30 21.1V2.32A2.32 2.32 0 0 0 27.68 0zM2.32.88h25.36a1.44 1.44 0 0 1 1.44 1.44v1.39H.88V2.32A1.44 1.44 0 0 1 2.32.88zm25.36 21.66H2.32A1.44 1.44 0 0 1 .88 21.1V4.64h28.24V21.1a1.44 1.44 0 0 1-1.44 1.44z"/></svg>