<svg id="Layer_1" data-name="Layer 1" xmlns="http://www.w3.org/2000/svg" viewBox="0 0 20 15.47"><defs><style>.cls-1{fill:#ffdd2d}</style></defs><title>car</title><path class="cls-1" d="M19.24,8l-.44-.46L17.27,3.43A1.79,1.79,0,0,0,15.6,2.27H4.67A1.79,1.79,0,0,0,3,3.43L1.49,7.5l-.63.58A2.46,2.46,0,0,0,0,9.95v6a1.79,1.79,0,0,0,1.79,1.78H2.91A1.79,1.79,0,0,0,4.7,16v-.87H15.3V16a1.79,1.79,0,0,0,1.79,1.78h1.13A1.79,1.79,0,0,0,20,16V9.79A2.48,2.48,0,0,0,19.24,8ZM3.8,3.72a.92.92,0,0,1,.87-.6H15.6a.93.93,0,0,1,.87.6L17.8,7.31h-1a2.93,2.93,0,0,0-5.8,0H2.47ZM15.94,7.31H11.87a2.08,2.08,0,0,1,4.06,0ZM3.85,16a.93.93,0,0,1-.93.92H1.79A.93.93,0,0,1,.85,16V14.84a1.74,1.74,0,0,0,.93.25H3.85Zm15.3,0a.93.93,0,0,1-.93.92H17.09a.93.93,0,0,1-.93-.92v-.87h2.06a1.74,1.74,0,0,0,.93-.25Zm-.93-1.73H1.79a.92.92,0,0,1-.93-.91V9.95a1.6,1.6,0,0,1,.57-1.22l0,0L2,8.16H18.21l.41.44,0,0a1.61,1.61,0,0,1,.5,1.17v3.53h0A.92.92,0,0,1,18.21,14.23Z" transform="translate(0 -2.27)"/><path class="cls-1" d="M5.64,9.87H2.44A.43.43,0,0,0,2,10.3v2.22a.43.43,0,0,0,.43.43H5.64a.43.43,0,0,0,.43-.43V10.3A.43.43,0,0,0,5.64,9.87Zm-.43,2.22H2.86V10.73H5.21Z" transform="translate(0 -2.27)"/><path class="cls-1" d="M17.56,9.87H14.36a.43.43,0,0,0-.43.43v2.22a.43.43,0,0,0,.43.43h3.21a.43.43,0,0,0,.43-.43V10.3A.43.43,0,0,0,17.56,9.87Zm-.43,2.22H14.79V10.73h2.35Z" transform="translate(0 -2.27)"/><path class="cls-1" d="M12.06,11.67H7.94a.43.43,0,1,0,0,.85h4.13a.43.43,0,0,0,0-.85Z" transform="translate(0 -2.27)"/><path class="cls-1" d="M12.06,10.34H7.94a.43.43,0,1,0,0,.85h4.13a.43.43,0,0,0,0-.85Z" transform="translate(0 -2.27)"/></svg>