<svg id="Layer_1" data-name="Layer 1" xmlns="http://www.w3.org/2000/svg" viewBox="0 0 20 20"><defs><style>.cls-1{fill:#bba9a3}</style></defs><title>clock1</title><path class="cls-1" d="M10,0A10,10,0,1,0,20,10,10,10,0,0,0,10,0Zm.43,19.12V17.36a.43.43,0,1,0-.86,0v1.76A9.14,9.14,0,0,1,.88,10.43H2.64a.43.43,0,1,0,0-.86H.88A9.14,9.14,0,0,1,9.57.88V2.64a.43.43,0,1,0,.86,0V.88a9.14,9.14,0,0,1,8.69,8.69H17.36a.43.43,0,1,0,0,.86h1.76A9.14,9.14,0,0,1,10.43,19.12Z"/><path class="cls-1" d="M14.53,14l-4.1-4.17V5.5a.43.43,0,0,0-.86,0V10a.43.43,0,0,0,.12.3l4.22,4.29a.43.43,0,1,0,.61-.6Z"/></svg>