<svg id="Layer_1" data-name="Layer 1" xmlns="http://www.w3.org/2000/svg" viewBox="0 0 28.12 25.88"><defs><style>.cls-1{fill:#dddfe0}</style></defs><title>comment</title><path class="cls-1" d="M25.18,2.71H4.79A3.87,3.87,0,0,0,.92,6.58V19.06a3.87,3.87,0,0,0,3.85,3.87v5.66l8.14-5.66H25.18A3.87,3.87,0,0,0,29,19.06V6.58A3.87,3.87,0,0,0,25.18,2.71ZM27.4,19.06a2.22,2.22,0,0,1-2.22,2.22H12.4l-6,4.16V21.28H4.79a2.22,2.22,0,0,1-2.22-2.22V6.58A2.22,2.22,0,0,1,4.79,4.36H25.18A2.22,2.22,0,0,1,27.4,6.58Z" transform="translate(-.92 -2.71)"/><path class="cls-1" d="M8.45,8.54H21.52v1.65H8.45Z" transform="translate(-.92 -2.71)"/><path class="cls-1" d="M8.45,12.05H21.52V13.7H8.45Z" transform="translate(-.92 -2.71)"/><path class="cls-1" d="M8.45,15.57H21.52v1.65H8.45Z" transform="translate(-.92 -2.71)"/></svg>