<svg id="Layer_1" data-name="Layer 1" xmlns="http://www.w3.org/2000/svg" viewBox="0 0 23.44 23.44"><defs><style>.cls-1{fill:#ffdd2d}</style></defs><title>crane1</title><path class="cls-1" d="M13.67,14.06h.78v7h-.78Z" transform="translate(-.78 -.78)"/><path class="cls-1" d="M10.55,14.06h.78v7h-.78Z" transform="translate(-.78 -.78)"/><path class="cls-1" d="M7.42,14.06H8.2v7H7.42Z" transform="translate(-.78 -.78)"/><path class="cls-1" d="M4.3,14.06h.78v7H4.3Z" transform="translate(-.78 -.78)"/><path class="cls-1" d="M19.92,14.06h.78v7h-.78Z" transform="translate(-.78 -.78)"/><path class="cls-1" d="M16.8,14.06h.78v7H16.8Z" transform="translate(-.78 -.78)"/><path class="cls-1" d="M24.22,12.89V11.33A.39.39,0,0,0,24,11h0L13.38,5.85a1.16,1.16,0,0,0,.3-.77A1.17,1.17,0,0,0,12.89,4V3.13h.39a.39.39,0,0,0,.39-.39V1.17a.39.39,0,0,0-.39-.39H11.72a.39.39,0,0,0-.39.39V2.73a.39.39,0,0,0,.39.39h.39V4.3a.39.39,0,0,0,.39.39.39.39,0,1,1-.39.39h-.78a1.16,1.16,0,0,0,.3.77L1,11H1a.39.39,0,0,0-.22.35v1.56a.39.39,0,0,0,.39.39v8.59a.39.39,0,0,0-.39.39v1.56a.39.39,0,0,0,.39.39H23.83a.39.39,0,0,0,.39-.39V22.27a.39.39,0,0,0-.39-.39V13.28a.39.39,0,0,0,.39-.39ZM12.11,1.56h.78v.78h-.78ZM1.56,12.5v-.78H23.44v.78Zm1.32-1.56L12.5,6.29l9.62,4.64Zm20.56,12.5H1.56v-.78H23.44ZM23,21.88H2V13.28H23Z" transform="translate(-.78 -.78)"/></svg>