<svg id="Layer_1" data-name="Layer 1" xmlns="http://www.w3.org/2000/svg" viewBox="0 0 25 25"><defs><style>.cls-1{fill:none}.cls-2{clip-path:url(#clip-path)}.cls-3{fill:#ffdd2d}</style><clipPath id="clip-path"><path class="cls-1" d="M0 0H25V25H0z"/></clipPath></defs><title>crane</title><g class="cls-2"><path class="cls-3" d="M20.83,12.5a.42.42,0,0,0,.42-.42V6.25h3.33A.42.42,0,0,0,25,5.83V4.12A.4.4,0,0,0,25,4l0-.06a.4.4,0,0,0-.17-.17l-.07,0,0,0L8.85,0H7.08L6.94,0H6.88L.21,3.8l-.06,0,0,0A.42.42,0,0,0,0,4H0a.41.41,0,0,0,0,.14H0V5.83a.42.42,0,0,0,.42.42H6.25V14L4.71,15.54a.42.42,0,0,0-.12.29V22.5H3.75V25h8.33V22.5h-.83V15.83a.42.42,0,0,0-.12-.29L9.58,14V6.25h8.33v5.83a.42.42,0,0,0,.42.42h.83v1.25a.42.42,0,0,0,.42.42.83.83,0,1,1-.83.83v-.42h-.83V15a1.66,1.66,0,0,0,.87,1.46l-3.13,3.13H14.58a.42.42,0,0,0-.42.42v3.75a.42.42,0,0,0,.42.42h10a.42.42,0,0,0,.42-.42V20a.42.42,0,0,0-.42-.42H23.51l-3.13-3.13A1.66,1.66,0,0,0,20,13.39V12.5Zm.42-7.92h2.92v.83H21.25Zm2.92,15.83v2.92H15V20.42Zm-1.84-.83H16.84l2.74-2.74ZM20.42,10H18.75V6.25h1.67Zm0-4.58H18.75V4.58h1.67ZM7.5.83h.83V3.75H7.5ZM7.08,4.58H8.75v.66l-.17.17H7.08ZM8.75,6.42v3L7.26,7.92ZM7.08,6.25h.66l-.66.66Zm0,2.67,1.49,1.49L7.08,11.91Zm1.67,2.5v3L7.26,12.92ZM7.08,14.17v-.24l1.49,1.49L7.08,16.91Zm1.67,2.26v3L7.26,17.92Zm-1.67,2.5,1.49,1.49L7.08,21.91Zm1.67,2.5V22.5H7.67ZM6.67,1.13V3.75H2ZM.83,5.42V4.58H6.25v.83ZM5.42,16l.83-.83V22.5H5.42Zm5.83,7.33v.83H4.58v-.83ZM10.42,16V22.5H9.58V15.17Zm7.5-10.59H9.58V4.58h8.33ZM9.17,3.75V.94L21,3.75H9.17Zm9.58,7.92v-.83h1.67v.83Z"/></g></svg>