<svg id="Layer_1" data-name="Layer 1" xmlns="http://www.w3.org/2000/svg" viewBox="0 0 25 18.75"><defs><style>.cls-1{fill:#d9006d}</style></defs><title>discount-voucher</title><path class="cls-1" d="M24.48,9.9A.52.52,0,0,0,25,9.38V5.21a2.09,2.09,0,0,0-2.08-2.08H2.08A2.09,2.09,0,0,0,0,5.21V9.38a.52.52,0,0,0,.52.52,2.6,2.6,0,0,1,0,5.21.52.52,0,0,0-.52.52v4.17a2.09,2.09,0,0,0,2.08,2.08H22.92A2.09,2.09,0,0,0,25,19.79V15.63a.52.52,0,0,0-.52-.52,2.6,2.6,0,1,1,0-5.21Zm-3.65,2.6A3.65,3.65,0,0,0,24,16.11v3.68a1,1,0,0,1-1,1H2.08a1,1,0,0,1-1-1V16.11A3.65,3.65,0,0,0,1,8.89V5.21a1,1,0,0,1,1-1H22.92a1,1,0,0,1,1,1V8.89A3.65,3.65,0,0,0,20.83,12.5Z" transform="translate(0 -3.13)"/><path class="cls-1" d="M6.77,5.08a.52.52,0,0,0-.52.52V6.77a.52.52,0,0,0,1,0V5.6A.52.52,0,0,0,6.77,5.08Z" transform="translate(0 -3.13)"/><path class="cls-1" d="M6.77,9.38a.52.52,0,0,0-.52.52v1a.52.52,0,1,0,1,0v-1A.52.52,0,0,0,6.77,9.38Z" transform="translate(0 -3.13)"/><path class="cls-1" d="M6.77,13.54a.52.52,0,0,0-.52.52v1a.52.52,0,1,0,1,0v-1A.52.52,0,0,0,6.77,13.54Z" transform="translate(0 -3.13)"/><path class="cls-1" d="M6.77,17.71a.52.52,0,0,0-.52.52v1a.52.52,0,0,0,1,0v-1A.52.52,0,0,0,6.77,17.71Z" transform="translate(0 -3.13)"/><path class="cls-1" d="M17.48,7.38a.52.52,0,0,0-.72.14L10.5,16.9a.52.52,0,1,0,.87.58L17.62,8.1A.52.52,0,0,0,17.48,7.38Z" transform="translate(0 -3.13)"/><path class="cls-1" d="M13.54,9.9a2.39,2.39,0,0,0-2.08-2.6A2.39,2.39,0,0,0,9.38,9.9a2.39,2.39,0,0,0,2.08,2.6A2.39,2.39,0,0,0,13.54,9.9Zm-3.12,0c0-.85.48-1.56,1-1.56s1,.72,1,1.56-.48,1.56-1,1.56S10.42,10.74,10.42,9.9Z" transform="translate(0 -3.13)"/><path class="cls-1" d="M16.67,12.5a2.39,2.39,0,0,0-2.08,2.6,2.39,2.39,0,0,0,2.08,2.6,2.39,2.39,0,0,0,2.08-2.6A2.39,2.39,0,0,0,16.67,12.5Zm0,4.17c-.56,0-1-.72-1-1.56s.48-1.56,1-1.56,1,.72,1,1.56S17.23,16.67,16.67,16.67Z" transform="translate(0 -3.13)"/></svg>