<svg id="Layer_1" data-name="Layer 1" xmlns="http://www.w3.org/2000/svg" viewBox="0 0 25 22.4"><defs><style>.cls-1{fill:#d9006d}</style></defs><title>family</title><path class="cls-1" d="M23.54,4.57a.41.41,0,1,0-.69.45,8.34,8.34,0,0,1,1.33,4.6c0,1.76-.75,4.59-4.35,8a27.54,27.54,0,0,1-2.31,2v-6a1.9,1.9,0,0,0,.73-.32l.43-.31a2,2,0,0,1,1,1.74v1.54a.41.41,0,1,0,.82,0V14.79a2.79,2.79,0,0,0-1.14-2.26,2.45,2.45,0,0,0,.87-2.15l-.13-1.19a3,3,0,0,0-6,0L14,10.38a2.44,2.44,0,0,0,.27,1.41,3,3,0,0,0-3.25.1s0-.05,0-.08l-.13-1.19a3,3,0,0,0-6,0l-.13,1.19A2.45,2.45,0,0,0,5.62,14a2.79,2.79,0,0,0-1.14,2.26V17c-3-3.13-3.65-5.7-3.65-7.34,0-4.13,2.83-7.49,6.3-7.49,2.74,0,5,2.65,5,5.91a.41.41,0,1,0,.82,0c0-3.26,2.23-5.91,5-5.91a5.73,5.73,0,0,1,4,1.69.41.41,0,0,0,.58-.59A6.55,6.55,0,0,0,17.87,1.3,5.88,5.88,0,0,0,12.5,5.54,5.88,5.88,0,0,0,7.13,1.3C3.2,1.3,0,5,0,9.62c0,2.76,1.59,5.74,4.6,8.63.49.48,1,1,1.6,1.41.37.3.76.61,1.16.91.69.52,1.42,1,2.17,1.49l1.13.69c.55.32,1.1.62,1.65.9a.41.41,0,0,0,.37,0c.55-.28,1.11-.59,1.65-.9s1.06-.64,1.58-1a30.75,30.75,0,0,0,4.48-3.53c3-2.89,4.6-5.88,4.6-8.63A9.16,9.16,0,0,0,23.54,4.57ZM17.12,7.33a2.19,2.19,0,0,1,2,1.35,10.2,10.2,0,0,1-3.51-.77A2.19,2.19,0,0,1,17.12,7.33Zm-2,1.27.43.17a2.18,2.18,0,0,1-.61.44A2.19,2.19,0,0,1,15.13,8.6Zm-4.73,6.73.13-1.19a2.19,2.19,0,0,1,4.36,0L15,15.33a1.62,1.62,0,0,1-.66,1.49l-1,.74a1.08,1.08,0,0,1-1.27,0l-1-.74A1.62,1.62,0,0,1,10.41,15.33ZM9.94,10.2A2.08,2.08,0,0,1,8.43,8.83,2.19,2.19,0,0,1,9.94,10.2ZM7.32,8.84a2.71,2.71,0,0,1-.23.46,1.93,1.93,0,0,1-1.28.91A2.19,2.19,0,0,1,7.32,8.84ZM5.57,11.9l.09-.84A2.76,2.76,0,0,0,7.8,9.73l.08-.14L8,9.73a2.77,2.77,0,0,0,2.14,1.34l.09.84a1.62,1.62,0,0,1-.66,1.49l-1,.74a1.08,1.08,0,0,1-1.27,0l-1-.74A1.62,1.62,0,0,1,5.57,11.9Zm.76,2.58.43.31A1.9,1.9,0,0,0,9,14.8l.7-.51-.1.95a2.43,2.43,0,0,0,0,.57H5.34A2,2,0,0,1,6.33,14.49Zm3,4.81a.41.41,0,0,0,0,.05V21c-.51-.34-1-.69-1.48-1s-.77-.59-1.13-.88-1-.83-1.42-1.25V16.63H9.85a2.44,2.44,0,0,0,.61.75A2.8,2.8,0,0,0,9.34,19.3Zm5.94,1.91c-.44.29-.9.57-1.35.83s-.95.54-1.43.78c-.48-.25-1-.51-1.42-.78l-.92-.55V19.38a2,2,0,0,1,1-1.47l.43.31a1.9,1.9,0,0,0,2.24,0l.43-.31a2,2,0,0,1,1,1.47Zm1.41-1-.59.41V19.35a.41.41,0,0,0,0-.05A2.8,2.8,0,0,0,15,17.39a2.45,2.45,0,0,0,.87-2.15l-.13-1.19a3,3,0,0,0-.38-1.17l.67.48a1.9,1.9,0,0,0,.69.31v6.57Zm-.2-7.55-1-.74a1.62,1.62,0,0,1-.66-1.49l0-.36a3,3,0,0,0,1.56-1.05,9.48,9.48,0,0,0,2.67.45h.24l.11,1A1.62,1.62,0,0,1,18.78,12l-1,.74A1.08,1.08,0,0,1,16.49,12.7Z" transform="translate(0 -1.3)"/><path class="cls-1" d="M18.32,11a.41.41,0,1,0-.41-.41A.41.41,0,0,0,18.32,11Z" transform="translate(0 -1.3)"/><path class="cls-1" d="M15.93,11a.41.41,0,1,0-.41-.41A.41.41,0,0,0,15.93,11Z" transform="translate(0 -1.3)"/><path class="cls-1" d="M13.91,15.58a.41.41,0,1,0-.41-.41A.41.41,0,0,0,13.91,15.58Z" transform="translate(0 -1.3)"/><path class="cls-1" d="M11.52,15.58a.41.41,0,1,0-.41-.41A.41.41,0,0,0,11.52,15.58Z" transform="translate(0 -1.3)"/><path class="cls-1" d="M9.07,12.11a.41.41,0,1,0-.41-.41A.41.41,0,0,0,9.07,12.11Z" transform="translate(0 -1.3)"/><path class="cls-1" d="M6.68,12.11a.41.41,0,1,0-.41-.41A.41.41,0,0,0,6.68,12.11Z" transform="translate(0 -1.3)"/></svg>