<svg id="Layer_1" data-name="Layer 1" xmlns="http://www.w3.org/2000/svg" viewBox="0 0 20 20"><defs><style>.cls-1{fill:#f2c230}</style></defs><title>help</title><path class="cls-1" d="M20,13.54a6.48,6.48,0,0,0-4.73-6.23A7.64,7.64,0,1,0,1.06,11.52L0,15.25l3.73-1a7.61,7.61,0,0,0,3.55,1.05,6.47,6.47,0,0,0,9.52,3.84L20,20l-.87-3.15A6.44,6.44,0,0,0,20,13.54ZM3.94,12.95l-2.23.62.62-2.23-.14-.22a6.46,6.46,0,1,1,2,2Zm14.35,5.34-1.66-.46-.22.14a5.29,5.29,0,0,1-7.9-2.75,7.65,7.65,0,0,0,6.71-6.71A5.3,5.3,0,0,1,18,16.41l-.14.22Z"/><path class="cls-1" d="M7.05,10.59H8.22v1.17H7.05Z"/><path class="cls-1" d="M8.81,5.86a1.16,1.16,0,0,1-.38.87L7.05,8V9.41H8.22V8.5l1-.91A2.34,2.34,0,1,0,5.29,5.86H6.46a1.17,1.17,0,1,1,2.34,0Z"/></svg>