<svg id="Layer_1" data-name="Layer 1" xmlns="http://www.w3.org/2000/svg" viewBox="0 0 19.69 20"><defs><style>.cls-1{fill:#ffdd2d}</style></defs><title>key1</title><path class="cls-1" d="M13.08,0A6.76,6.76,0,0,0,6.76,9.16L.3,15.62A.49.49,0,0,0,.16,16v3.54A.49.49,0,0,0,.65,20H3.56a.49.49,0,0,0,.35-.14l1-1A.49.49,0,0,0,5,18.53V17.32h1.2a.49.49,0,0,0,.49-.49v-.48h.48a.49.49,0,0,0,.49-.49V14.79H8.77a.49.49,0,0,0,.35-.14l1.57-1.57A6.76,6.76,0,1,0,13.08,0Zm0,12.53a5.73,5.73,0,0,1-2.32-.48.49.49,0,0,0-.54.1h0L8.57,13.81H7.22a.49.49,0,0,0-.49.49v1.06H6.24a.49.49,0,0,0-.49.49v.48H4.54a.49.49,0,0,0-.49.49v1.49L3.36,19H1.14v-.7l6-6a.44.44,0,0,0-.63-.63L1.14,17.06v-.89L7.69,9.62h0a.49.49,0,0,0,.1-.54,5.78,5.78,0,1,1,5.29,3.46Z" transform="translate(-.16)"/><path class="cls-1" d="M15.14,2.86A1.85,1.85,0,1,0,17,4.7,1.85,1.85,0,0,0,15.14,2.86Zm0,2.71A.86.86,0,1,1,16,4.7.86.86,0,0,1,15.14,5.56Z" transform="translate(-.16)"/></svg>