<svg id="Layer_1" data-name="Layer 1" xmlns="http://www.w3.org/2000/svg" viewBox="0 0 25 25"><defs><style>.cls-1{fill:#ffdd2d}</style></defs><title>laptop</title><path class="cls-1" d="M25,9.52V2.2A2.2,2.2,0,0,0,22.8,0H11.08a2.2,2.2,0,0,0-2.2,2.2V5.86H3.66a2.2,2.2,0,0,0-2.2,2.2V19.14H.73a.73.73,0,0,0-.73.73v1.46A3.67,3.67,0,0,0,3.66,25H21.34A3.67,3.67,0,0,0,25,21.34V19.87a.73.73,0,0,0-.73-.73h-.73V11.59A2.2,2.2,0,0,0,25,9.52ZM22.5,1.46l-5,5a.73.73,0,0,1-1,0l-5-5ZM19.14,6.9l3.36,3.36H11.39L14.75,6.9l.64.64a2.2,2.2,0,0,0,3.11,0ZM10.35,2.5l3.36,3.36L10.35,9.22ZM2.93,8.06a.73.73,0,0,1,.73-.73H8.89v2.2a2.2,2.2,0,0,0,2.2,2.2h11v7.42H16.94a.73.73,0,0,0-.73.73v.73H8.79v-.73a.73.73,0,0,0-.73-.73H2.93ZM23.54,21.34a2.2,2.2,0,0,1-2.2,2.2H3.66a2.2,2.2,0,0,1-2.2-2.2v-.73H7.32v.73a.73.73,0,0,0,.73.73h8.89a.73.73,0,0,0,.73-.73v-.73h5.86ZM20.18,5.86,23.54,2.5V9.22Z"/></svg>