<svg id="Layer_1" data-name="Layer 1" xmlns="http://www.w3.org/2000/svg" viewBox="0 0 25 25"><defs><style>.cls-1{fill:none}.cls-2{clip-path:url(#clip-path)}.cls-3{fill:#d9006d}</style><clipPath id="clip-path"><path class="cls-1" d="M0 0H25V25H0z"/></clipPath></defs><title>mortgage</title><g class="cls-2"><path class="cls-3" d="M21.83,12.21a.49.49,0,0,0,.64,0l2.39-2.39A.49.49,0,0,0,24.8,9L22.36,7.22V2.34a.49.49,0,0,0-.49-.49H18.75a.49.49,0,0,0-.49.49V4.17L12.79.1a.49.49,0,0,0-.58,0L7.93,3.28a.49.49,0,0,0,.58.78l4-3L23.77,9.48l-1.69,1.69L12.79,4.27a.49.49,0,0,0-.58,0L2.92,11.17,1.23,9.48,5.61,6.22A.49.49,0,1,0,5,5.44L.2,9a.49.49,0,0,0-.05.74l2.39,2.39a.49.49,0,0,0,.64,0l.35-.26v3.87H1a1,1,0,0,0-1,1V24a1,1,0,0,0,1,1H4.3a1,1,0,0,0,1-.83l2.27.8.16,0h7a3.42,3.42,0,0,0,2.21-.81l5.28-4.47a2,2,0,0,0-.67-3.4V11.95Zm-.45-5.72-2.15-1.6V2.83h2.15ZM4.3,24H1V16.8H2.15v3.61a.49.49,0,1,0,1,0V16.8H4.3v.39h0v6.28s0,0,0,0V24Zm17.31-6.5A1,1,0,0,1,21.52,19l-5.28,4.47a2.44,2.44,0,0,1-1.57.58H7.78l-2.5-.88V17.68H8.86a2.43,2.43,0,0,1,1.35.41l3.27,2.18a.64.64,0,0,1-.63,1.1L10.05,20a.49.49,0,1,0-.42.88l2.79,1.33A1.61,1.61,0,0,0,14,19.45l-3.27-2.18a3.4,3.4,0,0,0-1.89-.57H5.27a1,1,0,0,0-.78-.86V11.22l8-6,8,6v5h0a2,2,0,0,0-.91.43L15.71,20a.49.49,0,1,0,.63.75l3.89-3.27A1,1,0,0,1,21.61,17.52Z"/><path class="cls-3" d="M7.16,4.37a.49.49,0,1,0,.14.35A.49.49,0,0,0,7.16,4.37Z"/><path class="cls-3" d="M14.37,9.44a.49.49,0,0,0-.67.19l-3.25,5.76a.49.49,0,1,0,.85.48l3.25-5.76A.49.49,0,0,0,14.37,9.44Z"/><path class="cls-3" d="M14.65,13.13a1.66,1.66,0,1,0,1.66,1.66A1.66,1.66,0,0,0,14.65,13.13Zm0,2.34a.68.68,0,1,1,.68-.68A.68.68,0,0,1,14.65,15.47Z"/><path class="cls-3" d="M10.35,8.4A1.66,1.66,0,1,0,12,10.06,1.66,1.66,0,0,0,10.35,8.4Zm0,2.34a.68.68,0,1,1,.68-.68A.68.68,0,0,1,10.35,10.74Z"/><path class="cls-3" d="M3,22a.49.49,0,1,0,.14.35A.49.49,0,0,0,3,22Z"/></g></svg>