<svg id="Layer_1" data-name="Layer 1" xmlns="http://www.w3.org/2000/svg" viewBox="0 0 19.24 25"><defs><style>.cls-1{fill:#ffdd2d}</style></defs><title>new-file</title><path class="cls-1" d="M17.34,1.9,8.72,10.52a.54.54,0,0,0-.14.25l-.74,2.85a.54.54,0,0,0,.53.68l.14,0,2.85-.74a.54.54,0,0,0,.25-.14l8.62-8.62h0L22,3a.54.54,0,0,0,0-.77L19.85.16a.54.54,0,0,0-.77,0L17.34,1.9h0ZM10.93,12.53,9.12,13l.47-1.81L17.73,3l1.34,1.34ZM19.46,1.31l1.34,1.34-1,1L18.5,2.28Z" transform="translate(-2.88)"/><path class="cls-1" d="M21.57,5.89a.54.54,0,0,0-.54.54V23.91H4V3.12H14A.54.54,0,1,0,14,2H3.43a.54.54,0,0,0-.54.54V24.46a.54.54,0,0,0,.54.54H21.57a.54.54,0,0,0,.54-.54v-18A.54.54,0,0,0,21.57,5.89Z" transform="translate(-2.88)"/></svg>