<svg id="Layer_1" data-name="Layer 1" xmlns="http://www.w3.org/2000/svg" viewBox="0 0 25 20.72"><defs><style>.cls-1{fill:none}.cls-2{clip-path:url(#clip-path)}.cls-3{fill:#ffdd2d}</style><clipPath id="clip-path" transform="translate(0 -2.14)"><path class="cls-1" d="M0 0H25V25H0z"/></clipPath></defs><title>photo-camera</title><g class="cls-2"><path class="cls-3" d="M24.63,7.77a24.85,24.85,0,0,0-6.5-2.06L18,5.06A3.76,3.76,0,0,0,14.3,2.14H10.7A3.77,3.77,0,0,0,7,5.06l-.15.66A24.62,24.62,0,0,0,.37,7.77.69.69,0,0,0,0,8.38v8.15a5.93,5.93,0,0,0,5.93,5.93.69.69,0,1,0,0-1.38,4.55,4.55,0,0,1-4.54-4.54V8.82A25.87,25.87,0,0,1,7.56,7a.69.69,0,0,0,.55-.52l.26-1.1A2.39,2.39,0,0,1,10.7,3.52H14.3a2.39,2.39,0,0,1,2.33,1.85l.26,1.1a.68.68,0,0,0,.55.52,26.12,26.12,0,0,1,6.18,1.82v7.71a4.55,4.55,0,0,1-4.54,4.54.69.69,0,1,0,0,1.38A5.93,5.93,0,0,0,25,16.53V8.38A.68.68,0,0,0,24.63,7.77Z" transform="translate(0 -2.14)"/><path class="cls-3" d="M2.27,6.36a.63.63,0,0,0,.22,0c.73-.24,1.49-.46,2.27-.64a.69.69,0,1,0-.32-1.34C3.62,4.53,2.81,4.76,2,5a.69.69,0,0,0-.44.87A.71.71,0,0,0,2.27,6.36Z" transform="translate(0 -2.14)"/><path class="cls-3" d="M12.5,6.92a8,8,0,1,0,8,8A8,8,0,0,0,12.5,6.92Zm0,14.55a6.58,6.58,0,1,1,6.58-6.59A6.59,6.59,0,0,1,12.5,21.48Z" transform="translate(0 -2.14)"/></g></svg>