<svg id="Layer_1" data-name="Layer 1" xmlns="http://www.w3.org/2000/svg" viewBox="0 0 30 30"><defs><style>.cls-1{fill:none}.cls-2{clip-path:url(#clip-path)}.cls-3{fill:#dddfe0}</style><clipPath id="clip-path" transform="translate(0 -.69)"><path class="cls-1" d="M0 0.69H30V30.69H0z"/></clipPath></defs><title>smartphone</title><g class="cls-2"><path class="cls-3" d="M21.3.69H8.7a2.21,2.21,0,0,0-2.2,2.2V28.49a2.21,2.21,0,0,0,2.2,2.2H21.3a2.21,2.21,0,0,0,2.2-2.2V2.89A2.21,2.21,0,0,0,21.3.69Zm-13.8,4h15v19H7.5Zm1.2-3H21.3a1.2,1.2,0,0,1,1.2,1.2v.8H7.5v-.8A1.2,1.2,0,0,1,8.7,1.69Zm12.6,28H8.7a1.2,1.2,0,0,1-1.2-1.2v-3.8h15v3.8A1.2,1.2,0,0,1,21.3,29.69Z" transform="translate(0 -.69)"/><path class="cls-3" d="M15,25.19a2,2,0,1,0,2,2A2,2,0,0,0,15,25.19Zm0,3a1,1,0,1,1,1-1A1,1,0,0,1,15,28.19Z" transform="translate(0 -.69)"/><path class="cls-3" d="M13,3.19h2a.5.5,0,0,0,0-1H13a.5.5,0,0,0,0,1Z" transform="translate(0 -.69)"/><path class="cls-3" d="M16.5,3.19H17a.5.5,0,0,0,0-1h-.5a.5.5,0,0,0,0,1Z" transform="translate(0 -.69)"/><path class="cls-3" d="M28.31,3a.5.5,0,1,0-.71.71,4.8,4.8,0,0,1,0,6.78.5.5,0,1,0,.71.71A5.8,5.8,0,0,0,28.31,3Z" transform="translate(0 -.69)"/><path class="cls-3" d="M26.2,4.11a.5.5,0,0,0-.71.71,3.28,3.28,0,0,1,0,4.64.5.5,0,1,0,.71.71,4.28,4.28,0,0,0,0-6.05Z" transform="translate(0 -.69)"/><path class="cls-3" d="M2.4,3.68A.5.5,0,0,0,1.69,3a5.8,5.8,0,0,0,0,8.19.5.5,0,1,0,.71-.71A4.8,4.8,0,0,1,2.4,3.68Z" transform="translate(0 -.69)"/><path class="cls-3" d="M4.51,4A.5.5,0,0,0,3.8,4,4.28,4.28,0,0,0,3.8,10a.5.5,0,1,0,.71-.71,3.28,3.28,0,0,1,0-4.64A.5.5,0,0,0,4.51,4Z" transform="translate(0 -.69)"/></g></svg>