<svg id="Layer_1" data-name="Layer 1" xmlns="http://www.w3.org/2000/svg" viewBox="0 0 25 25"><defs><style>.cls-1{fill:#d9006d}</style></defs><title>soil</title><path class="cls-1" d="M25,3.4V1.25A1.25,1.25,0,0,0,23.75,0H1.25A1.25,1.25,0,0,0,0,1.25v22.5A1.25,1.25,0,0,0,1.25,25h22.5A1.25,1.25,0,0,0,25,23.75ZM2.08,11.25A1.25,1.25,0,0,1,3.33,10h.11a1.13,1.13,0,0,1,.44.13.42.42,0,1,0,.39-.74,1.94,1.94,0,0,0-.48-.17,1,1,0,0,1,0-.27,1,1,0,0,1,2-.28,1.74,1.74,0,0,0-.4.39.42.42,0,1,0,.67.49.93.93,0,0,1,.37-.3,1,1,0,0,1,.44-.1,1,1,0,0,1,.84.44,19.81,19.81,0,0,0-2.85,1.5c-.69.41-1.4.83-2.17,1.22A1.24,1.24,0,0,1,2.08,11.25Zm3.21.57a13.42,13.42,0,0,1,4-1.83,25.78,25.78,0,0,1,3.67-.45c2.59-.19,5-.37,6.56-2.19A13.93,13.93,0,0,1,24.17,4V5.19a14.15,14.15,0,0,0-4.49,3.29c-1.29,1.55-3.46,1.71-6,1.89a26.49,26.49,0,0,0-3.79.47A14,14,0,0,0,5.7,12.77,17.82,17.82,0,0,1,.83,15V14A19.8,19.8,0,0,0,5.29,11.82ZM15.83.83A2.08,2.08,0,0,1,16.25,5V4.34l1.13-1.13a.42.42,0,1,0-.59-.59l-.54.54V2.5a.42.42,0,1,0-.83,0v.66l-.54-.54a.42.42,0,0,0-.59.59l1.13,1.13V5A2.08,2.08,0,0,1,15.83.83ZM13.33,5a2.09,2.09,0,0,1-1.67,2V6.42l1.13-1.13a.42.42,0,0,0-.59-.59l-.54.54V4.58a.42.42,0,0,0-.83,0v.66l-.54-.54a.42.42,0,0,0-.59.59l1.13,1.13V7a2.08,2.08,0,1,1,2.5-2ZM11.67,7.88A2.92,2.92,0,0,0,14.15,5.3a2.89,2.89,0,0,0,1.27.5V8.45c-.79.13-1.65.19-2.55.26l-1.2.1Zm-10.83,8a18.41,18.41,0,0,0,5.29-2.38,13.4,13.4,0,0,1,4-1.83,25.79,25.79,0,0,1,3.67-.45c2.59-.19,5-.37,6.56-2.19a12.83,12.83,0,0,1,3.85-2.9v4a7.72,7.72,0,0,1-5,2.39,34.23,34.23,0,0,1-4.07.23,8.14,8.14,0,0,0-4.84,1.14A31.46,31.46,0,0,1,.83,17.21Zm0,2.19a32.36,32.36,0,0,0,9.79-3.46,7.4,7.4,0,0,1,4.43-1,34.92,34.92,0,0,0,4.16-.24,9,9,0,0,0,4.95-2v4.42c-3.51-.69-9.25-1.41-11.91.55C8.66,18.92,6.45,19.8.83,19.66Zm23.33,3.76c-2.41-.63-3.91-1.51-4.14-1.88l.19-.07a10.08,10.08,0,0,1,4,.21Zm-.42-21a.42.42,0,0,1,.42.42V3.13a14.89,14.89,0,0,0-5.32,3.68,4.64,4.64,0,0,1-2.6,1.47V5.8a2.91,2.91,0,0,0,1.62-5ZM1.25.83H13.8a2.91,2.91,0,0,0-.86,1.79,2.91,2.91,0,1,0-2.1,5.26v1a17.33,17.33,0,0,0-1.76.28l-.56.14a1.84,1.84,0,0,0-2-1A1.86,1.86,0,0,0,4.79,7.08,1.88,1.88,0,0,0,2.92,9a1.81,1.81,0,0,0,0,.25,2.09,2.09,0,0,0-1.69,2,2.07,2.07,0,0,0,.6,1.46c-.32.14-.66.27-1,.39V1.25A.42.42,0,0,1,1.25.83ZM.83,23.75v-.92c3.51.18,8.11,0,11-1.55,2.19-1.19,3.07-.84,3.29-.7a.7.7,0,0,1,.32.65,1.19,1.19,0,0,1-.66,1,10.27,10.27,0,0,1-1.8.59,11.54,11.54,0,0,0-3.48,1.37H1.25A.42.42,0,0,1,.83,23.75Zm22.92.42H11.38a19.14,19.14,0,0,1,1.85-.56,10.84,10.84,0,0,0,2-.65,2,2,0,0,0,1.13-1.69,1.51,1.51,0,0,0-.71-1.39c-.61-.39-1.83-.58-4.13.67C8.58,22.12,3.72,22.15.83,22V20.5h1c5.07,0,7.4-1,10.87-3.57,2.52-1.86,8.59-.94,11.42-.37v2.65A11,11,0,0,0,20,19.05c-.73.21-.83.62-.82.85,0,1.12,2.89,2.23,5,2.77v1.08A.42.42,0,0,1,23.75,24.17Z"/><path class="cls-1" d="M15,19.17a.42.42,0,1,0-.42-.42A.42.42,0,0,0,15,19.17Z"/><path class="cls-1" d="M17.92,17.08a.42.42,0,1,0-.42-.42A.42.42,0,0,0,17.92,17.08Z"/><path class="cls-1" d="M16.67,18.33a.42.42,0,1,0-.42-.42A.42.42,0,0,0,16.67,18.33Z"/><path class="cls-1" d="M16.25,23.75a.42.42,0,1,0-.42-.42A.42.42,0,0,0,16.25,23.75Z"/><path class="cls-1" d="M17.92,23.75a.42.42,0,1,0-.42-.42A.42.42,0,0,0,17.92,23.75Z"/><path class="cls-1" d="M19.58,23.75a.42.42,0,1,0-.42-.42A.42.42,0,0,0,19.58,23.75Z"/><path class="cls-1" d="M22.92,23.75a.42.42,0,1,0-.42-.42A.42.42,0,0,0,22.92,23.75Z"/><path class="cls-1" d="M21.25,23.75a.42.42,0,1,0-.42-.42A.42.42,0,0,0,21.25,23.75Z"/><path class="cls-1" d="M19.17,22.5a.42.42,0,1,0-.42-.42A.42.42,0,0,0,19.17,22.5Z"/><path class="cls-1" d="M17.5,22.5a.42.42,0,1,0-.42-.42A.42.42,0,0,0,17.5,22.5Z"/><path class="cls-1" d="M17.92,21.25a.42.42,0,1,0-.42-.42A.42.42,0,0,0,17.92,21.25Z"/><path class="cls-1" d="M16.67,20a.42.42,0,1,0-.42-.42A.42.42,0,0,0,16.67,20Z"/><path class="cls-1" d="M19.58,17.08a.42.42,0,1,0-.42-.42A.42.42,0,0,0,19.58,17.08Z"/><path class="cls-1" d="M21.25,17.5a.42.42,0,1,0-.42-.42A.42.42,0,0,0,21.25,17.5Z"/><path class="cls-1" d="M18.75,18.33a.42.42,0,1,0-.42-.42A.42.42,0,0,0,18.75,18.33Z"/><path class="cls-1" d="M18.33,19.58a.42.42,0,1,0-.42-.42A.42.42,0,0,0,18.33,19.58Z"/><path class="cls-1" d="M20.42,18.33a.42.42,0,1,0-.42-.42A.42.42,0,0,0,20.42,18.33Z"/><path class="cls-1" d="M22.5,18.33a.42.42,0,1,0-.42-.42A.42.42,0,0,0,22.5,18.33Z"/><path class="cls-1" d="M16.25,17.08a.42.42,0,1,0-.42-.42A.42.42,0,0,0,16.25,17.08Z"/><path class="cls-1" d="M14.58,17.5a.42.42,0,1,0-.42-.42A.42.42,0,0,0,14.58,17.5Z"/><path class="cls-1" d="M13.33,18.75a.42.42,0,1,0-.42-.42A.42.42,0,0,0,13.33,18.75Z"/><path class="cls-1" d="M11.67,19.58a.42.42,0,1,0-.42-.42A.42.42,0,0,0,11.67,19.58Z"/><path class="cls-1" d="M10,20.42A.42.42,0,1,0,9.58,20,.42.42,0,0,0,10,20.42Z"/><path class="cls-1" d="M8.33,21.25a.42.42,0,1,0-.42-.42A.42.42,0,0,0,8.33,21.25Z"/><path class="cls-1" d="M6.25,21.67a.42.42,0,1,0-.42-.42A.42.42,0,0,0,6.25,21.67Z"/><path class="cls-1" d="M4.17,21.67a.42.42,0,1,0-.42-.42A.42.42,0,0,0,4.17,21.67Z"/><path class="cls-1" d="M2.08,21.67a.42.42,0,1,0-.42-.42A.42.42,0,0,0,2.08,21.67Z"/></svg>