<svg id="Layer_1" data-name="Layer 1" xmlns="http://www.w3.org/2000/svg" viewBox="0 0 25 23.96"><defs><style>.cls-1{fill:none}.cls-2{clip-path:url(#clip-path)}.cls-3{fill:#333}</style><clipPath id="clip-path" transform="translate(0 -.54)"><path class="cls-1" d="M0 0H25V25H0z"/></clipPath></defs><title>tag2</title><g class="cls-2"><path class="cls-3" d="M23,12.24l-.6-5.15c2.33-1.69,3.3-4.52,1.9-5.92A2.62,2.62,0,0,0,21.8.65a5.85,5.85,0,0,0-2.63,1.57l0,0-6.89-.8L0,13.7,10.79,24.5ZM22.15,2.07a1.23,1.23,0,0,1,1.16.15c.54.54,0,2-1.07,3.14l-.17-1.47-1.2-1.2A3.9,3.9,0,0,1,22.15,2.07ZM12.79,3l5.32.62a5,5,0,0,0-.5,1.2l-.51-.51-1,1,3.11,3.11,1-1-1-1A1.23,1.23,0,0,1,19,5.2a4,4,0,0,1,.72-1.41l.2,0,.74.74.83,7.15L10.79,22.42,2.07,13.7Z" transform="translate(0 -.54)"/><path class="cls-3" d="M8.09,10.85a2.2,2.2,0,1,0,2.2,2.2A2.2,2.2,0,0,0,8.09,10.85Zm0,2.93A.73.73,0,1,1,8.83,13,.73.73,0,0,1,8.09,13.78Z" transform="translate(0 -.54)"/><path class="cls-3" d="M15.42,15.24a2.2,2.2,0,1,0-2.2-2.2A2.2,2.2,0,0,0,15.42,15.24Zm0-2.93a.73.73,0,1,1-.73.73A.73.73,0,0,1,15.42,12.31Z" transform="translate(0 -.54)"/><path class="cls-3" d="M11.77,8.53l1.45.24-1.47,8.8-1.45-.24Z" transform="translate(0 -.54)"/></g></svg>