<svg id="Layer_1" data-name="Layer 1" xmlns="http://www.w3.org/2000/svg" viewBox="0 0 30 29.99"><defs><style>.cls-1{fill:none}.cls-2{clip-path:url(#clip-path)}.cls-3{fill:#dddfe0}</style><clipPath id="clip-path" transform="translate(0 -.7)"><path class="cls-1" d="M0 0.69H30V30.69H0z"/></clipPath></defs><title>user</title><g class="cls-2"><path class="cls-3" d="M25.61,5.08A15,15,0,0,0,.89,20.78.61.61,0,0,0,2,20.37a13.78,13.78,0,1,1,23,4.81l-.09.09-.16.16a13.8,13.8,0,0,1-19.49,0l-.08-.09c0-.06,0-.11,0-.17s0-.25,0-.37,0-.08,0-.12,0-.16,0-.24v-.14c0-.07,0-.15,0-.22l0-.15,0-.21,0-.16,0-.2,0-.16,0-.19,0-.16,0-.19,0-.16.05-.19,0-.15L5.7,22l.05-.15.07-.18.06-.15.07-.18L6,21.19,6.09,21l.07-.15.08-.17.07-.14.09-.17.08-.14.1-.16.08-.14.1-.16.09-.13L7,19.49l.09-.13.12-.15.1-.13.12-.15.1-.12.13-.15.1-.12.13-.14L8,18.29l.14-.14L8.23,18l.15-.14.11-.1.16-.13.11-.1.16-.13L9,17.36l.18-.13.11-.08.2-.13.1-.07.26-.17,0,0,.31-.18.11-.06.21-.11.14-.07.18-.08a5.94,5.94,0,0,0,8.23,0,9.94,9.94,0,0,1,4.89,5,.61.61,0,1,0,1.12-.49,11,11,0,0,0-5.19-5.44A6,6,0,0,0,15,6,.61.61,0,0,0,15,7.2a4.74,4.74,0,0,1,3.52,7.91h0a4.72,4.72,0,0,1-7,0h0a4.73,4.73,0,0,1,.18-6.54.61.61,0,0,0-.86-.87,6,6,0,0,0-.74,7.58h0l-.14.07-.22.11-.15.08-.2.11-.15.09L9,15.9l-.15.1-.18.12-.15.11-.17.13-.15.11L8,16.59l-.14.12-.16.14L7.6,17l-.16.14-.13.13-.15.15L7,17.51l-.15.16-.12.13L6.63,18l-.11.13-.14.17-.1.13-.14.19L6,18.71,5.86,19l0,.07-.21.33-.07.11-.13.22-.08.14-.11.2-.08.15-.1.2L5,20.54l-.09.2-.07.16-.08.2-.06.17-.07.2-.06.17-.07.2L4.41,22l-.06.21,0,.18-.05.21,0,.18,0,.21,0,.18,0,.22,0,.17,0,.23L4,24c0,.08,0,.16,0,.24v.16c0,.09,0,.18,0,.27s0,.09,0,.13,0,.27,0,.41,0,.29,0,.44a.62.62,0,0,0,0,.1H4l0,.1H4l0,.09h0l.06.08h0l.08.09.19.19a15,15,0,0,0,21.22,0l.19-.19.08-.09a15,15,0,0,0-.27-20.94Z" transform="translate(0 -.7)"/></g></svg>