<svg id="Layer_1" data-name="Layer 1" xmlns="http://www.w3.org/2000/svg" viewBox="0 0 20 20"><defs><style>.cls-1{fill:none}.cls-2{clip-path:url(#clip-path)}.cls-3{fill:#fcf6eb}</style><clipPath id="clip-path"><path class="cls-1" d="M0 0H20V20H0z"/></clipPath></defs><title>user2</title><g class="cls-2"><path class="cls-3" d="M18.59,14.38a12.85,12.85,0,0,0-3.14-1.88A17,17,0,0,1,13,11.15a8.46,8.46,0,0,0,2.1-5.08,8,8,0,0,0-.61-3.67C14,1.3,12.74,0,10,0S6,1.3,5.47,2.4a8,8,0,0,0-.61,3.67A8.45,8.45,0,0,0,7,11.15a17,17,0,0,1-2.41,1.34,12.86,12.86,0,0,0-3.14,1.88A6.15,6.15,0,0,0,0,18.31,1.67,1.67,0,0,0,1.67,20H18.33A1.67,1.67,0,0,0,20,18.31,6.15,6.15,0,0,0,18.59,14.38Zm0,4.25a.42.42,0,0,1-.3.12H1.67a.42.42,0,0,1-.3-.12.42.42,0,0,1-.12-.3,5,5,0,0,1,1-3.07,12.7,12.7,0,0,1,2.81-1.65,13.71,13.71,0,0,0,2.71-1.55l.84-.8-.73-.9A7.23,7.23,0,0,1,6.11,6.06,6.91,6.91,0,0,1,6.59,3C7.16,1.83,8.31,1.25,10,1.25s2.84.58,3.41,1.71a6.91,6.91,0,0,1,.48,3.11,7.23,7.23,0,0,1-1.82,4.29l-.73.9.84.8a13.73,13.73,0,0,0,2.71,1.55,12.65,12.65,0,0,1,2.81,1.65,4.87,4.87,0,0,1,1,3.07A.42.42,0,0,1,18.63,18.63Z"/></g></svg>