<svg id="Layer_1" data-name="Layer 1" xmlns="http://www.w3.org/2000/svg" viewBox="0 0 25 25"><defs><style>.cls-1{fill:#d9006d}</style></defs><title>voucher</title><path class="cls-1" d="M15.92,21.09a2,2,0,1,0,2-2A2,2,0,0,0,15.92,21.09Zm2-1a1,1,0,1,1-1,1A1,1,0,0,1,17.87,20.12Z"/><path class="cls-1" d="M7.13,19.14a2,2,0,1,0,2,2A2,2,0,0,0,7.13,19.14Zm0,2.93a1,1,0,1,1,1-1A1,1,0,0,1,7.13,22.07Z"/><path class="cls-1" d="M.49,14H8l1.76,1.76-1.6,1.6a3.91,3.91,0,1,0,2.76,2.76l1.6-1.6,1.6,1.6a3.9,3.9,0,1,0,2.76-2.76l-1.6-1.6L17,14h7.49a.49.49,0,0,0,.49-.49V.49A.49.49,0,0,0,24.51,0H.49A.49.49,0,0,0,0,.49V4.74a.49.49,0,0,0,1,0V1H9.08v.49a.49.49,0,0,0,1,0V1H24V13H18l1.63-1.63a3.4,3.4,0,0,0,.82-1.3h.85a.49.49,0,0,0,0-1h-.67s0-.09,0-.14A3.39,3.39,0,0,0,20,7h1.25a.49.49,0,0,0,0-1H12.5a.49.49,0,1,0,0,1h5.93L16.38,9.08H12.5a.49.49,0,1,0,0,1h2.9L12.47,13H10.06V12.5a.49.49,0,1,0-1,0V13H1V8.64a.49.49,0,0,0-1,0v4.83A.49.49,0,0,0,.49,14ZM7.13,24a2.93,2.93,0,1,1,2.93-2.93A2.93,2.93,0,0,1,7.13,24ZM20.8,21.09a2.93,2.93,0,1,1-2.93-2.93A2.93,2.93,0,0,1,20.8,21.09Zm-4.91-3.36a3.88,3.88,0,0,0-1.38,1.38l-1.32-1.32,1.38-1.38Zm3-7.06-8.44,8.44a3.88,3.88,0,0,0-1.38-1.38L19.24,7.6a2.44,2.44,0,0,1-.31,3.07ZM10.43,15,9.36,14H11.5Z"/><path class="cls-1" d="M5.71,8.56a.88.88,0,0,1-.63-.37.49.49,0,0,0-.75.63,2,2,0,0,0,.89.64V10a.49.49,0,1,0,1,0V9.45a1.46,1.46,0,0,0-.49-2.85.49.49,0,1,1,0-1,.78.78,0,0,1,.53.26.49.49,0,1,0,.68-.7,1.89,1.89,0,0,0-.72-.45V4.16a.49.49,0,0,0-1,0v.57a1.46,1.46,0,0,0,.49,2.85.49.49,0,1,1,0,1Z"/><path class="cls-1" d="M9.57,5.08a.49.49,0,0,0,.49-.49V3.52a.49.49,0,0,0-1,0V4.59A.49.49,0,0,0,9.57,5.08Z"/><path class="cls-1" d="M9.08,7.52a.49.49,0,0,0,1,0v-1a.49.49,0,0,0-1,0Z"/><path class="cls-1" d="M9.08,10.55a.49.49,0,1,0,1,0v-1a.49.49,0,0,0-1,0Z"/><path class="cls-1" d="M12.5,4h8.79a.49.49,0,0,0,0-1H12.5a.49.49,0,1,0,0,1Z"/><path class="cls-1" d="M.49,7.18A.49.49,0,1,0,0,6.69.49.49,0,0,0,.49,7.18Z"/></svg>