<svg id="Capa_1" data-name="Capa 1" xmlns="http://www.w3.org/2000/svg" viewBox="0 0 512 512"><defs><style>.cls-1{fill:#d80027}</style></defs><title>chicken</title><path class="cls-1" d="M73 95.28a8.51 8.51 0 0 0-8.06-.72l-59.77 25.6a8.53 8.53 0 0 0 0 15.68l59.73 25.6a8.53 8.53 0 0 0 11.9-7.84v-51.2a8.53 8.53 0 0 0-3.8-7.12zm-13.26 45.38L30.2 128l29.53-12.66zM204.8 0h-42.67a59.8 59.8 0 0 0-59.73 59.73 8.54 8.54 0 0 0 8.53 8.53h42.67a59.8 59.8 0 0 0 59.73-59.73A8.54 8.54 0 0 0 204.8 0zm-51.2 51.2h-33.27a42.74 42.74 0 0 1 41.81-34.13h33.27A42.73 42.73 0 0 1 153.6 51.2zM128 93.87a25.6 25.6 0 1 0 25.6 25.6 25.63 25.63 0 0 0-25.6-25.6zm0 34.13a8.53 8.53 0 1 1 8.53-8.53A8.55 8.55 0 0 1 128 128zm93.87 307.2h17.07v68.27h-17.07z"/><path class="cls-1" d="M187.73 494.93h136.53V512H187.73z"/><path class="cls-1" d="M273.07 435.2h17.07v68.27h-17.07zm-42.67 25.6H256v17.07h-25.6z"/><path class="cls-1" d="M281.6 460.8h25.6v17.07h-25.6zM72.55 146.22a8.52 8.52 0 0 0-8.53 0l-44.73 25.59A38.79 38.79 0 0 0 0 204.8v3.94a38.4 38.4 0 0 0 38.14 38.72h.26a38.44 38.44 0 0 0 38.4-38.4V153.6a8.55 8.55 0 0 0-4.25-7.38zm-12.81 62.85A21.35 21.35 0 0 1 38.4 230.4v8.53l-.18-8.53a21.33 21.33 0 0 1-21.15-21.58v-3.9a21.59 21.59 0 0 1 10.73-18.31l31.94-18.29z"/><path class="cls-1" d="M512 59.73V51.2h-76.83a157.91 157.91 0 0 0-141.9 89.6L256 219.09l-59.55-125a73.7 73.7 0 0 0-60.91-42.87 71.33 71.33 0 0 0-75.66 66.72c-.1 1.53-.15 3.06-.15 4.6v129.2c.06 105.8 86.18 191.94 192 192 102.84 0 186.32-91.67 191.73-171.11A76.9 76.9 0 0 0 512 196.27v-8.53h-28.58A76.7 76.7 0 0 0 512 128v-8.53h-28.58A76.71 76.71 0 0 0 512 59.73zm-17.67 76.8a59.83 59.83 0 0 1-59.13 51.2v17.07h59.13A59.83 59.83 0 0 1 435.2 256h-8.53v8.53c0 73-80.73 162.13-174.93 162.13-96.41-.05-174.89-78.52-174.93-174.93V122.54c0-1.17 0-2.33.11-3.52a54.29 54.29 0 0 1 54-50.89q1.68 0 3.38.1a56.63 56.63 0 0 1 46.7 33.06l75 157.48 52.68-110.64a140.75 140.75 0 0 1 126.5-79.86h59.15a59.83 59.83 0 0 1-59.13 51.2v17.07h59.13z"/><path class="cls-1" d="M281.6 256v17.07h100.29a61.28 61.28 0 0 1-58.06 42.67l-.16 17.07h24.09a61.27 61.27 0 0 1-58.14 42.67H256a111.06 111.06 0 0 1-110.93-110.94V256H128v8.53a128.15 128.15 0 0 0 128 128h33.62a78.34 78.34 0 0 0 77.23-67.07l.9-6.37A78.11 78.11 0 0 0 401 265.73l1.37-9.73H281.6z"/></svg>