<svg id="Layer_1" data-name="Layer 1" xmlns="http://www.w3.org/2000/svg" viewBox="0 0 512 397.43"><defs><style>.cls-1{fill:#d80027}</style></defs><title>cow</title><path class="cls-1" d="M397.62 218a42 42 0 0 0-8.71-11 46.19 46.19 0 0 0-5.14-3.24 29.08 29.08 0 0 0-13.09-3.06h-48.19a10 10 0 0 0 0 20.08h48.19a9.58 9.58 0 0 1 7.76 4 10.73 10.73 0 0 1 1.78 5.53 10 10 0 0 0 20.08 0 29.33 29.33 0 0 0-2.68-12.31z" transform="translate(0 -57.29)"/><path class="cls-1" d="M397.62 218a42 42 0 0 0-8.71-11 46.19 46.19 0 0 0-5.14-3.24 29.08 29.08 0 0 0-13.09-3.06h-48.19a10 10 0 0 0 0 20.08h48.19a9.58 9.58 0 0 1 7.76 4 10.73 10.73 0 0 1 1.78 5.53 10 10 0 0 0 20.08 0 29.35 29.35 0 0 0-2.68-12.31z" transform="translate(0 -57.29)" id="SVGCleanerId_0" data-name="SVGCleanerId 0"/><path class="cls-1" d="M511.57 289.91l-14.63-48.36v-8.17A80 80 0 0 0 417 153.47H233.26A52.09 52.09 0 0 0 253.15 134a10 10 0 0 0 0-10.06 52.07 52.07 0 0 0-76.33-15.58c-.51-.47-1-.92-1.58-1.36a52.76 52.76 0 0 0 18-39.68 10 10 0 1 0-20.08 0 32.84 32.84 0 0 1-32.8 32.8h-26.2a32.84 32.84 0 0 1-32.8-32.8 10 10 0 0 0-20.08 0 52.72 52.72 0 0 0 18 39.68c-.54.43-1.06.87-1.58 1.35a52.09 52.09 0 0 0-76.35 15.58 10 10 0 0 0 0 10 52 52 0 0 0 69 20.17L77 201.92a27.8 27.8 0 0 0-13.2 23.62v8.67A27.81 27.81 0 0 0 91.58 262h5.17v7.6a76.55 76.55 0 0 0 30.77 61.49l9.38 114.41a10 10 0 0 0 10 9.22h71a10 10 0 0 0 10-9.22l8.1-99.09h31c.94 1.78 2 3.5 3 5.18v26.9a10 10 0 1 0 20.08 0v-6.3a71.66 71.66 0 0 0 15 7.78v16.43a10 10 0 0 0 20.08 0v-12a146 146 0 0 0 15.55-.52l-.87 60.65a10 10 0 0 0 10 10.18h72.92a10 10 0 0 0 9.91-8.44L447.35 356a9.55 9.55 0 0 0 .13-1.6V230.28a76.18 76.18 0 0 0-7-32c-1-2.18-5.93-10.67-7.28-12.56a77.81 77.81 0 0 0-10.53-11.92 59.89 59.89 0 0 1 54.15 59.55v8.17l-14.63 48.36a10 10 0 0 0 9.61 12.94H502a10 10 0 0 0 9.61-12.94zm-444-158a31.92 31.92 0 0 1-45.23-3A32 32 0 0 1 68 126.35a30.28 30.28 0 0 0-.44 5.57zM208.07 118a32.11 32.11 0 0 1 24.08 11 31.93 31.93 0 0 1-45.23 3 30.24 30.24 0 0 0-.4-5.57 31.82 31.82 0 0 1 21.55-8.43zm-117.7 6a11 11 0 0 1 8.43-3.83h56.87a11.17 11.17 0 0 1 11.07 12.7l-1.88 13.64a9.68 9.68 0 1 0-1.86 13.86l-5.16 37.39H96.68l-5.16-37.4a9.66 9.66 0 1 0-1.9-13.82l-1.89-13.64a11 11 0 0 1 2.64-8.9zm1.21 117.88a7.71 7.71 0 0 1-7.7-7.7v-8.67a7.71 7.71 0 0 1 7.7-7.7h71.34a7.71 7.71 0 0 1 7.69 7.7v8.67a7.71 7.71 0 0 1-7.69 7.7zm64.57 192.72l-7.56-92.4a76.51 76.51 0 0 0 16.18 3.66l7.23 88.78zm191.56-73a52.06 52.06 0 0 1-56.5-15.26h54.49a74.92 74.92 0 0 0 12.25 10.38 52 52 0 0 1-10.24 4.95zm28.4 73h-16l.81-56.7a72.33 72.33 0 0 0 16.12-10.27zm51.29-204.32v123.33l-13.07 81H396.2l1.09-76.13a10 10 0 0 0-8.13-10 53.25 53.25 0 0 1-9.58-2.82 54.85 54.85 0 0 1-21.7-15.75 10 10 0 0 0-7.7-3.6H226.79a10 10 0 0 0-10 9.22l-8.11 99.09H192.2l-8.12-99.09a10 10 0 0 0-10-9.22h-.52a56.72 56.72 0 0 1-56.72-56.73V262h46.09a27.8 27.8 0 0 0 27.77-27.78v-8.67a27.8 27.8 0 0 0-13.17-23.62l4-28.81c.92.29 189.2.44 189.2.44a62.64 62.64 0 0 1 25.2 5.91c.08 0 11.21 4.93 21 17.93 7.17 9.6 10.47 24.6 10.47 32.88zm54.73 54.83l4.77-15.76 4.77 15.76z" transform="translate(0 -57.29)"/><path class="cls-1" d="M397.62 218a42 42 0 0 0-8.71-11 46.19 46.19 0 0 0-5.14-3.24 29.08 29.08 0 0 0-13.09-3.06h-48.19a10 10 0 0 0 0 20.08h48.19a9.58 9.58 0 0 1 7.76 4 10.73 10.73 0 0 1 1.78 5.53 10 10 0 0 0 20.08 0 29.35 29.35 0 0 0-2.68-12.31z" transform="translate(0 -57.29)"/></svg>