<svg id="Capa_1" data-name="Capa 1" xmlns="http://www.w3.org/2000/svg" viewBox="0 0 512 384"><defs><style>.cls-1{fill:#d80027}</style></defs><title>fish</title><path class="cls-1" d="M510.65 261.47C468 185.14 397.9 138.46 315.73 129.81c-41.2-52-170.46-65.21-176-65.75a10.67 10.67 0 0 0-11 14.45c12.67 32.9 25.66 70.31 29.09 85.62-23.47 10.74-44 22.16-57.22 31.68-28.69-45.9-87.25-46.47-89.93-46.47A10.66 10.66 0 0 0 0 160c0 61.8 21.54 92.82 35.95 106.67C21.54 280.51 0 311.53 0 373.34A10.66 10.66 0 0 0 10.67 384c2.68 0 61.24-.57 89.93-46.47 17.57 12.65 48 28.64 81.16 41.93-7.34 11.87-11.09 30.74-11.09 57.87A10.66 10.66 0 0 0 181.34 448c3.17 0 75.71-.63 111.83-43 91.87-1.78 171-49.89 217.48-133.13a10.67 10.67 0 0 0 0-10.4zM154.91 87.42c35.84 5.19 94.68 18 127.93 40.8-30.66 1.2-69.78 12.79-105.24 27.34-4.72-18.76-15.2-48.05-22.69-68.14zm37.34 338.64c1.42-29.67 8.27-37.25 10.19-38.81 20.79 7.3 41.85 13.09 61 16-23.17 16.28-54.72 21.35-71.19 22.8zm8.95-39.2h.09zM288 384c-62.33 0-164.25-51.18-183.13-70.49a10.65 10.65 0 0 0-7.63-3.21 11.25 11.25 0 0 0-1.95.18 10.67 10.67 0 0 0-7.84 6.26c-14.4 33.39-48.25 42.5-65.84 45 3.33-66.84 35-84.71 36.59-85.57a10.72 10.72 0 0 0 0-19c-1.43-.76-33.25-18.5-36.6-85.52 17.58 2.57 51.56 11.82 65.84 44.93a10.66 10.66 0 0 0 17.42 3.23c18.88-19.31 120.79-70.49 183.13-70.49 84.22 0 157.17 42.68 201 117.33C445.17 341.32 372.22 384 288 384z" transform="translate(0 -64)"/><path class="cls-1" d="M320 266.67c0-49.08 19.37-79.15 19.56-79.45a10.67 10.67 0 0 0-17.77-11.8c-.95 1.42-23.13 35.33-23.13 91.25s22.18 89.83 23.13 91.25a10.67 10.67 0 1 0 17.75-11.83c-.19-.3-19.54-29.89-19.54-79.42zm-26.12-94.22a10.68 10.68 0 0 0-14.75 3c-.95 1.42-23.13 35.33-23.13 91.25a194.33 194.33 0 0 0 11.84 67.76 10.67 10.67 0 0 0 20-7.48 173 173 0 0 1-10.49-60.28c0-49.08 19.37-79.15 19.56-79.45a10.69 10.69 0 0 0-3.03-14.8z" transform="translate(0 -64)"/><circle class="cls-1" cx="384" cy="170.67" r="21.33"/></svg>