<svg id="Capa_1" data-name="Capa 1" xmlns="http://www.w3.org/2000/svg" viewBox="0 0 188.15 197.63"><defs><style>.cls-1{fill:none}.cls-2{fill:#e6e7e2}.cls-3{clip-path:url(#clip-path)}.cls-4{fill:#ecc19c}.cls-5{fill:#168ef7}.cls-6{fill:#494846}</style><clipPath id="clip-path"><circle class="cls-1" cx="94.07" cy="94.07" r="94.07"/></clipPath></defs><title>man</title><circle id="SVGID" class="cls-2" cx="94.07" cy="94.07" r="94.07"/><g class="cls-3"><path class="cls-4" d="M126.71 153.95a52.87 52.87 0 0 0-6.43-4.16.61.61 0 0 0-.19-.1 34.5 34.5 0 0 1-17.86-30.24l-16.12-.08a34.5 34.5 0 0 1-18 30.31 56.2 56.2 0 0 0-6.51 4.16 54.42 54.42 0 0 0-22 43.77h109.01a54.4 54.4 0 0 0-21.9-43.66z"/></g><g class="cls-3"><path class="cls-5" d="M148.61 197.63H39.54a54.42 54.42 0 0 1 22-43.77A56.27 56.27 0 0 1 68 149.7a33.86 33.86 0 0 0 5-3.34 29.41 29.41 0 0 0 42.09 0 31.85 31.85 0 0 0 4.92 3.32.6.6 0 0 1 .19.1 52.87 52.87 0 0 1 6.43 4.16 54.4 54.4 0 0 1 21.98 43.69z"/></g><g class="cls-3"><path class="cls-4" d="M52.22 38.09v42.84c0 29 25.44 52.46 41.86 52.46s41.86-23.49 41.86-52.46V38.09z"/></g><g class="cls-3"><path class="cls-6" d="M129.11 30.21a49.16 49.16 0 0 0-38.46-18.73c-27.52 0-49.81 23-49.81 51.3a51.81 51.81 0 0 0 16.27 37.93 57.78 57.78 0 0 1-4-21.38 55.37 55.37 0 0 1 10-32.25c6.6 2.93 17.29 4 29 2.38s21.53-5.43 27.12-10C129.37 48.45 136 63 136 79.33a57 57 0 0 1-4.8 23.2C141 98.46 148.24 84 148.24 66.7c0-18.48-8.24-33.7-19.13-36.49z"/></g></svg>