<svg id="Layer_1" data-name="Layer 1" xmlns="http://www.w3.org/2000/svg" viewBox="0 0 512 512"><defs><style>.cls-1{fill:#ffd24d}.cls-2{fill:#1b4145}</style></defs><title>mobile-phone</title><path class="cls-1" d="M256 0C114.61 0 0 114.61 0 256a254.8 254.8 0 0 0 44.5 144.25L10.87 501.13l100.88-33.63A254.8 254.8 0 0 0 256 512c141.39 0 256-114.61 256-256S397.39 0 256 0z"/><path class="cls-2" d="M375.74 332.55a511.4 511.4 0 0 0-40-35.59l-30.16 30.16-120.69-120.68L215 176.28a511.17 511.17 0 0 0-35.59-40 511.5 511.5 0 0 0-40-35.59s-36.14 33.24-38.57 59.61c-3.25 35.29 34.11 99.46 92.76 158.11s122.82 96 158.11 92.76c26.37-2.43 59.61-38.57 59.61-38.57a511.7 511.7 0 0 0-35.58-40.05z"/></svg>