<svg id="Capa_1" data-name="Capa 1" xmlns="http://www.w3.org/2000/svg" viewBox="0 0 511.99 386.33"><defs><style>.cls-1{fill:#d80027}</style></defs><title>moscow-metro-logo</title><path class="cls-1" d="M256 62.83C114.62 62.83 0 178.54 0 321.27c0 77.39 33.4 127.87 33.4 127.87h445.1S512 394 512 321.27c0-142.73-114.62-258.44-256-258.44zm203.72 354.85L53.1 417.5s-21.67-41-21.67-97c0-125.1 100.93-226.52 225.44-226.52S482.3 195.35 482.3 320.46c0 56.64-22.58 97.22-22.58 97.22z" transform="translate(0 -62.83)"/><path class="cls-1" d="M328.35 68.63l-3.21-.01-68.29 133.81-70.74-134.95-96.86 243.79H64.22v19.59h137.13v-19.59h-27.21l27.21-76.19 55.5 95.78 53.33-95.78 27.2 76.19h-27.2v19.59h136.03v-19.59h-23.56l-94.3-242.64z"/></svg>