<svg id="Capa_1" data-name="Capa 1" xmlns="http://www.w3.org/2000/svg" viewBox="0 0 56.96 56.98"><defs><style>.cls-1{fill:#fed070}.cls-2{fill:#fff1c6}.cls-3{fill:#eeaf4b}</style></defs><title>pie</title><path class="cls-1" d="M29.66 29.06l22.93 13a7.76 7.76 0 0 0 .27-3.23c-.14-1.87-.66-3.36.39-4.9C54 32.8 57 29.81 57 28.48s-3-4.32-3.75-5.48c-1.06-1.55-.53-3-.39-4.9.5-6.51-2.75-3.28-6.75-7.28s-.76-7.24-7.28-6.74c-1.87.14-3.36.66-4.9-.39C32.81 3 29.82 0 28.49 0S24.17 3 23 3.72c-1.54 1.06-3 .54-4.9.39-6.51-.5-3.28 2.75-7.28 6.75s-7.24.76-6.75 7.27c.14 1.87.66 3.36-.39 4.9C3 24.15 0 27.15 0 28.48s3 4.32 3.72 5.44c1.06 1.54.54 3 .39 4.9-.49 6.51 2.75 3.28 6.75 7.27s.77 7.24 7.28 6.75c1.87-.14 3.36-.66 4.9.39C24.17 54 27.16 57 28.49 57s4.32-3 5.44-3.72c1.51-1 3-.56 4.77-.4z" transform="translate(-.01)"/><path class="cls-2" d="M47.69 37.87A21 21 0 1 0 36.8 48.12l.08-.07-7.22-19 17.1 9.69z" transform="translate(-.01)"/><path class="cls-3" d="M29.23 12.36a6 6 0 0 0 0 8.47m0 0a6 6 0 0 0 0-8.47m0 24.71a6 6 0 0 0 0 8.47m0 0a6 6 0 0 0 0-8.47m16.59-8.12a6 6 0 0 0-8.47 0m0 0a6 6 0 0 0 8.47 0m-24.71 0a6 6 0 0 0-8.47 0m0 0a6 6 0 0 0 8.47 0M41 17.22a6 6 0 0 0-6 6m0-.02a6 6 0 0 0 6-6M23.49 34.69a6 6 0 0 0-6 6m.01-.01a6 6 0 0 0 6-6m-.01-11.48a6 6 0 0 0-6-6m.01.02a6 6 0 0 0 6 6" transform="translate(-.01)"/><path class="cls-2" d="M36.39 36.8L45.54 57a15.41 15.41 0 0 0 9-9.05z" transform="translate(-.01)"/><path class="cls-1" d="M44.07 53.74a7.68 7.68 0 0 0 7.08-7.9L49.7 45a1 1 0 0 0-.55.88 5.67 5.67 0 0 1-5.36 5.92 1 1 0 0 0-.54.18z" transform="translate(-.01)"/></svg>