<svg id="Capa_1" data-name="Capa 1" xmlns="http://www.w3.org/2000/svg" viewBox="0 0 512 512"><defs><style>.cls-1{fill:#f6e27b}.cls-2{fill:#ecb53a}.cls-3{fill:#e18933}.cls-4{fill:#c60051}.cls-5{fill:#ff415b}.cls-6{fill:#90e36a}.cls-7{fill:#83c17b}</style></defs><title>pizza</title><circle class="cls-1" cx="256" cy="256" r="256"/><path class="cls-1" d="M256 0v512c141.39 0 256-114.61 256-256S397.39 0 256 0z"/><path class="cls-2" d="M0 256h256V0C114.61 0 0 114.61 0 256zm512 0H256v256c141.39 0 256-114.61 256-256z"/><path class="cls-2" d="M256 512A256 256 0 0 1 75 75a256 256 0 0 1 362 362 254.33 254.33 0 0 1-181 75zm0-482C131.38 30 30 131.38 30 256s101.38 226 226 226 226-101.38 226-226S380.62 30 256 30z"/><path class="cls-3" d="M256 512v-30c124.62 0 226-101.38 226-226h30a256 256 0 0 1-256 256zM30 256H0A256 256 0 0 1 256 0v30C131.38 30 30 131.38 30 256z"/><path class="cls-4" d="M317.51 419.49a15 15 0 1 1 10.61-4.39 15.11 15.11 0 0 1-10.61 4.39zM194.49 122.5a15 15 0 1 1 10.61-4.39 15.09 15.09 0 0 1-10.61 4.39zM404.5 332.51a15 15 0 1 1 10.6-4.39 15.11 15.11 0 0 1-10.6 4.39zM107.51 209.49a15 15 0 1 1 10.6-4.39 15.11 15.11 0 0 1-10.6 4.39z"/><path class="cls-5" d="M404.5 209.49a15 15 0 1 1 10.6-4.39 15.11 15.11 0 0 1-10.6 4.39zM107.51 332.51a15 15 0 1 1 10.6-4.39 15.11 15.11 0 0 1-10.6 4.39zm210-210.01a15 15 0 1 1 10.61-4.39 15.13 15.13 0 0 1-10.61 4.39zM194.49 419.49a15 15 0 1 1 10.61-4.39 15.09 15.09 0 0 1-10.61 4.39z"/><path class="cls-6" d="M190.45 360.51a44 44 0 0 1-44-44 15 15 0 0 1 30 0 14 14 0 0 0 27.92 0 15 15 0 0 1 30 0 44 44 0 0 1-43.92 44z"/><path class="cls-7" d="M315.36 370.75a15 15 0 0 1-10.61-4.39 44 44 0 0 1 62.17-62.17 15 15 0 0 1-21.21 21.21A14 14 0 1 0 326 345.14a15 15 0 0 1-10.61 25.61z"/><path class="cls-6" d="M353.56 214a15 15 0 0 1-15-15 14 14 0 0 0-27.92 0 15 15 0 1 1-30 0 44 44 0 0 1 87.92 0 15 15 0 0 1-15 15z"/><path class="cls-7" d="M186.28 225.18a43.82 43.82 0 0 1-31.09-12.85 15 15 0 0 1 21.21-21.21 14 14 0 0 0 19.74-19.74 15 15 0 1 1 21.21-21.21 43.94 43.94 0 0 1-31.08 75z"/></svg>