<svg id="Layer_1" data-name="Layer 1" xmlns="http://www.w3.org/2000/svg" viewBox="0 0 373.24 486.3"><defs><style>.cls-1{fill:#cd2a00}.cls-2{fill:#d8d7da}.cls-3{fill:#ff3501}.cls-4{fill:#fff}</style></defs><title>placeholder</title><path class="cls-1" d="M243.15 0v104.4a80 80 0 1 1 0 160v221.9l146.43-184.1a184.59 184.59 0 0 0 40.19-115.58C429.77 83.72 346 0 243.15 0z" transform="translate(-56.53)"/><path class="cls-2" d="M323.15 184.4a80.09 80.09 0 0 0-80-80v160a80.09 80.09 0 0 0 80-80z" transform="translate(-56.53)"/><path class="cls-3" d="M163.15 184.4a80.09 80.09 0 0 1 80-80V0C140.25 0 56.53 83.72 56.53 186.62a184.58 184.58 0 0 0 40.23 115.62L243.15 486.3V264.4a80.09 80.09 0 0 1-80-80z" transform="translate(-56.53)"/><path class="cls-4" d="M163.15 184.4a80.09 80.09 0 0 0 80 80v-160a80.09 80.09 0 0 0-80 80z" transform="translate(-56.53)"/></svg>