<svg id="Capa_1" data-name="Capa 1" xmlns="http://www.w3.org/2000/svg" viewBox="0 0 455.95 512.01"><defs><style>.cls-1{fill:#d80027}</style></defs><title>salad</title><path class="cls-1" d="M484 178.35a84.15 84.15 0 0 0-51.15-79.26 67.83 67.83 0 0 0-58-56.57 46.3 46.3 0 0 0-1.67-8.78C367.9 15.92 352.18 2.5 334 .35a46.61 46.61 0 0 0-32.37 8.09A50.33 50.33 0 0 0 273.87 0a50.9 50.9 0 0 0-50.25 43.21c-.91.19-1.78.44-2.67.66-.84-2-1.7-4-2.68-6-13-25.72-35.94-40.68-57.21-37.24-14 2.27-25.52 11.75-32.31 26.05-12.27-5.65-24.8-6.61-36.11-2.62-12.05 4.3-21.43 13.38-27.1 26.32-7.54 17.15-7.54 39.2-.25 60.17-9.79 6.72-17.11 16.61-21.39 29-7.2 20.8-4.79 45.91 6.58 68.9 1.25 2.51 2.61 5 4.09 7.44a57.15 57.15 0 0 0-23 29.81c-6.81 19.94-3.8 43.44 8.27 64.45a96.22 96.22 0 0 0 21.46 25.59c-2.86 12-.69 25.09 6.26 37 9.79 16.7 27.4 28 46 29.77 29.23 54.89 65.49 78.46 121.3 102.12l.62.27a48.09 48.09 0 0 0 25.6 7.1 56.39 56.39 0 0 0 15.33-2.2h.24l.1-.06a52.41 52.41 0 0 0 11.65-4.88c16.88-9.86 23.72-26.69 17.84-43.93-16.86-49.48-15.49-86.64 4.08-110.43 33.88-41.16 112.48-31 113.25-30.91l9.14 1.25.92-9.18c.12-1.21 2.75-29.87-14-49.34-1-1.13-2-2.21-3.05-3.23a80.48 80.48 0 0 0 14-4.49c31.76-13.45 52.71-43.35 53.42-76.25zM127 389.8l-2.49-4.89h-5.72c-14 0-28.39-8.5-35.84-21.22-5.43-9.27-6.54-19.38-3.05-27.75l2.7-6.48-5.67-4.14a78.17 78.17 0 0 1-21.6-24.07c-9.51-16.57-12-34.74-6.86-49.85a38.89 38.89 0 0 1 22.41-24.09L81.39 223l-6.79-9.15a88.74 88.74 0 0 1-8.17-13.3c-9.13-18.47-11.28-39.1-5.71-55.19 3.68-10.67 10.42-18.61 19.48-22.93l7.61-3.65-3.25-7.78-.39-.84c-7.82-18.47-8.7-38.1-2.33-52.61 2.53-5.79 7.51-13.39 16.73-16.63 8.88-3.13 19.49-1 29.94 6.07l10.26 6.92L142 41.93c3.68-13.4 11.65-22 21.88-23.69 13.33-2.27 29.13 9.22 38.46 27.69q1.12 2.23 2.08 4.55c-.2.12-.37.27-.58.38a62.1 62.1 0 0 0-5.29 3.52c-1 .75-2 1.55-3 2.36-.65.54-1.28 1.1-1.9 1.66a62.51 62.51 0 0 0-9.48 10.69l-.6.88a63.67 63.67 0 0 0-4.23 7.27c-.31.61-.63 1.23-.93 1.85-.54 1.19-1 2.39-1.51 3.62s-.93 2.58-1.33 3.9c-.34 1.09-.68 2.18-1 3.3-.49 1.91-.87 3.86-1.17 5.83-.11.72-.2 1.43-.29 2.16a61.81 61.81 0 0 0-.49 7.41c0 1.63.07 3.26.2 4.91a71.61 71.61 0 0 0-52.47 100.09 55 55 0 0 0 15.85 86.81c0 4.76 0 9.39.19 13.94.05 1.49.17 2.93.24 4.39.15 3 .33 6 .58 9 .14 1.68.34 3.33.51 5 .28 2.66.58 5.3.94 7.89.23 1.69.5 3.37.76 5q.6 3.74 1.32 7.39.48 2.47 1 4.91c.53 2.43 1.12 4.84 1.73 7.22.39 1.54.78 3.08 1.2 4.6.7 2.5 1.47 5 2.26 7.41.43 1.34.84 2.7 1.29 4 1 2.94 2.11 5.85 3.25 8.75.31.79.59 1.61.91 2.4q2.23 5.5 4.78 10.9c.48 1 1 2 1.51 3.05 1.25 2.58 2.53 5.15 3.89 7.71.73 1.37 1.51 2.74 2.28 4.12 1.22 2.2 2.45 4.39 3.74 6.57.88 1.49 1.8 3 2.7 4.45 1.27 2.07 2.57 4.14 3.91 6.22l3 4.59q2.07 3.08 4.24 6.17c1.07 1.53 2.14 3.06 3.26 4.59 1.52 2.1 3.1 4.22 4.68 6.33 1.13 1.5 2.23 3 3.4 4.52 1.73 2.25 3.53 4.53 5.34 6.8 1.1 1.4 2.17 2.78 3.3 4.18l.29.37c-32.51-18.14-55.6-40.27-75.7-79.79zm257.25-148.53l-2.37-.39-8.61 2-.94 19.63 8.88.47c10.95.56 19.1 4.11 24.9 10.82 7.05 8.16 9.19 19.41 9.77 27.16-24.47-1.59-86.68-1.35-119.24 38.14-23.8 28.86-26.23 71.76-7.23 127.51 4.21 12.35-4.45 19.6-10 22.83-.39.23-.84.38-1.24.6-17.4-42.8-28.26-80.88-34.11-114.66 0-.21-.05-.42-.1-.62-4.63-27-6.13-51.17-5.26-72.86 12.45-21.23 49.05-22.09 49.43-22.09A8.9 8.9 0 0 0 288 262h-.11c-1.45 0-26.81.57-46.93 13.18a228.64 228.64 0 0 1 11.6-47.07 8.88 8.88 0 0 0 1.29-2 8.78 8.78 0 0 0 .77-3.5 193.14 193.14 0 0 1 22-40.75c39.88-8.3 70 4.18 70.64 4.46a8.75 8.75 0 0 0 3.55.75 8.9 8.9 0 0 0 3.58-17c-1.24-.54-25.78-11-61.06-8.44 17.23-18 32.37-26.12 34.62-27.27 12.92-6.19 31.81 1.81 38 5.43a8.8 8.8 0 0 0 4.5 1.23A8.89 8.89 0 0 0 375 124.4c-1-.6-21-12.17-41.49-9.85a49.93 49.93 0 0 1 7.62-16.4A8.89 8.89 0 0 0 327 87.36c-.56.72-12.23 16.2-12.2 34-12.94 7.93-46.38 31.95-69.77 80.23-1.26 2.6-2.48 5.39-3.69 8.19-24.26-16.59-20.27-46.1-20-47.53a8.9 8.9 0 0 0-17.58-2.78c-2.58 16.14 1.12 49.41 31.09 67.28a262.75 262.75 0 0 0-13.18 70.12 8.83 8.83 0 0 0-.14 2.55 357 357 0 0 0 3.06 63.89 44.58 44.58 0 0 1-16.77-15.9 8.9 8.9 0 0 0-15.73 8.33 63.35 63.35 0 0 0 35.73 28.19c6 32.8 16.48 69.48 32.85 110.21a30.53 30.53 0 0 1-15.89-4.46c-1-.61-1.76-1.21-2.54-1.81a24.12 24.12 0 0 1-2.8-2.52l-.14-.13-3.74-4.22c-55.7-64.1-83.57-111-81.36-189.41l.19-6.48-6.12-2.15A37.18 37.18 0 0 1 137 219.09l5.83-4.79-3.79-6.54a53.85 53.85 0 0 1 44.44-80.84l10.81-.45-2.48-10.47a45.47 45.47 0 0 1-1.31-10.63 45 45 0 0 1 .77-8c.12-.67.3-1.31.44-2a45.2 45.2 0 0 1 1.77-6c.2-.53.4-1.06.62-1.58a45.61 45.61 0 0 1 3.39-6.59c.05-.08.09-.17.14-.25a46.33 46.33 0 0 1 10.73-11.66c.58-.44 1.19-.84 1.79-1.25a45.12 45.12 0 0 1 4.43-2.72c1-.52 1.92-1 2.93-1.46a44.81 44.81 0 0 1 15.09-4l8.22-.62v-8.93a32.9 32.9 0 0 1 55.09-23.92l6.23 5.61 6-5.91a28.76 28.76 0 0 1 23.8-8.09A29.15 29.15 0 0 1 356 38.74a27.46 27.46 0 0 1 1 11l-.92 9.92h10A49.88 49.88 0 0 1 415.7 106l.41 5.84 5.52 1.94A66.41 66.41 0 0 1 466.18 178c-.53 25.88-17.21 49.5-42.48 60.17a61.7 61.7 0 0 1-39.45 3.1z" transform="translate(-28.03)"/></svg>