<svg data-name="Capa 1" xmlns="http://www.w3.org/2000/svg" viewBox="0 0 612 430.12"><title>delivery</title><path d="M21.47 286.58V26.2A26.2 26.2 0 0 1 47.67 0h260.25a26.2 26.2 0 0 1 26.2 26.2v260.38a8.73 8.73 0 0 1-8.73 8.73H30.21a8.73 8.73 0 0 1-8.74-8.73zm210.16 89.2a54.34 54.34 0 1 1-54.34-54.34 54.34 54.34 0 0 1 54.34 54.34zm-27.17 0a27.17 27.17 0 1 0-27.17 27.17 27.17 27.17 0 0 0 27.17-27.17zm-74-54.34H8.73A8.73 8.73 0 0 0 0 330.18v26.49a8.73 8.73 0 0 0 8.73 8.73h97.6a71.68 71.68 0 0 1 24.16-43.95zm385.44 54.34a54.34 54.34 0 1 1-54.34-54.34 54.34 54.34 0 0 1 54.38 54.34zm-27.17 0a27.17 27.17 0 1 0-27.17 27.17 27.17 27.17 0 0 0 27.21-27.17zM612 330.18v26.49a8.73 8.73 0 0 1-8.73 8.73h-70.7a71.71 71.71 0 0 0-141.93 0H248.26a71.68 71.68 0 0 0-24.16-44h135V71.65a17.47 17.47 0 0 1 17.47-17.47H459a69.86 69.86 0 0 1 57.9 30.77l53.15 78.72a69.86 69.86 0 0 1 12 39.09v118.68h21.25a8.73 8.73 0 0 1 8.7 8.74zM523.41 165.7l-42.5-60.39a8.73 8.73 0 0 0-7.14-3.71h-66.3a8.73 8.73 0 0 0-8.73 8.73v60.39a8.73 8.73 0 0 0 8.73 8.73h108.8a8.73 8.73 0 0 0 7.14-13.75z"/></svg>