<svg data-name="Layer 1" xmlns="http://www.w3.org/2000/svg" viewBox="0 0 68 71"><title>afisha-button-icon</title><circle class="cls-2" cx="65" cy="3" r="3"/><circle class="cls-2" cx="65" cy="35" r="3"/><circle class="cls-2" cx="65" cy="24" r="3"/><circle class="cls-2" cx="65" cy="13" r="3"/><circle class="cls-2" cx="65" cy="46" r="3"/><circle class="cls-2" cx="65" cy="68" r="3"/><circle class="cls-2" cx="65" cy="57" r="3"/><g class="cls-3"><path class="cls-2" d="M39.12 26.27l-3-3a4.56 4.56 0 0 1-7.79-3.23 4.4 4.4 0 0 1 1.33-3.23l-3-3a3.07 3.07 0 0 0-4.3 0L.88 35.39a3.07 3.07 0 0 0 0 4.3l3 3a4.4 4.4 0 0 1 3.23-1.33 4.39 4.39 0 0 1 3.23 1.33 4.59 4.59 0 0 1 0 6.46l3 3a3.07 3.07 0 0 0 4.3 0l21.48-21.58a3.07 3.07 0 0 0 0-4.3zM32.69 31L18 45.69a1.55 1.55 0 0 1-2.14 0L7.29 37.1a1.49 1.49 0 0 1 0-2.14L22 20.29a1.55 1.55 0 0 1 2.14 0l8.59 8.59a1.49 1.49 0 0 1 0 2.14z"/><path class="cls-2" d="M23 22.45l7.5 7.5L17 43.53 9.45 36z"/></g></svg>