<svg data-name="Layer 1" xmlns="http://www.w3.org/2000/svg" viewBox="0 0 76.67 100.01"><title>box</title><g class="cls-2"><path class="cls-3" d="M2.59 98.62a6.67 6.67 0 0 0 9.34-1.18l11.68-15a6.86 6.86 0 0 0 1.19-2.43l2-7.85 4.91 5.45v15.73a6.67 6.67 0 0 0 13.33 0V75.01a6.62 6.62 0 0 0-1.71-4.46L30.22 56.01l.42-5 1.83 2.18a6.63 6.63 0 0 0 5.86 3.49h23.33a6.67 6.67 0 0 0 6.67-6.67 6.6 6.6 0 0 0-.93-3.33h5.93a3.33 3.33 0 0 0 3.33-3.33V16.68a3.33 3.33 0 0 0-3.33-3.34H46.66a3.33 3.33 0 0 0-3.33 3.34v26.66h-1.19L32.5 32.91a5.67 5.67 0 0 0-.33-.48l.6-7.24a13.33 13.33 0 1 0-13.33-.64l-.93 11.32-1.78 21.39-4.53 18.11L1.4 89.25a6.67 6.67 0 0 0 1.19 9.36zm60.74-81.94v8.55l-2.41-1.6a1.67 1.67 0 0 0-1.85 0l-2.41 1.6v-8.55zm-16.67 0h6.67v11.66a1.67 1.67 0 0 0 2.59 1.39L60 27.01l4.07 2.72a1.67 1.67 0 0 0 2.59-1.38V16.68h6.67v26.66H46.66zm-30-3.33a10 10 0 1 1 10 10 10 10 0 0 1-10-10.01zm10 13.33a13.3 13.3 0 0 0 2.67-.27l-.53 6.47v.09a1.61 1.61 0 0 0 .1.52 1.44 1.44 0 0 0 .13.21 1.71 1.71 0 0 0 .17.28 2.7 2.7 0 0 1 .42.62 1.78 1.78 0 0 0 .27.39l10.29 11.15a1.67 1.67 0 0 0 1.23.53h20.25a3.335 3.335 0 1 1 0 6.67H38.33a3.31 3.31 0 0 1-3-1.85 1.63 1.63 0 0 0-.22-.33l-4.52-5.38-2.62-3.44a1.67 1.67 0 1 0-2.65 2l2.26 3-.78 9.14a1.67 1.67 0 0 0 .4 1.23l.12.14 13.49 14.93a3.29 3.29 0 0 1 .85 2.23v18.33a3.335 3.335 0 1 1-6.67 0V76.93a1.67 1.67 0 0 0-.43-1.12l-13.7-15.22a3.35 3.35 0 0 1-.85-2.52v-.4l1.8-21.53.83-10.06a13.28 13.28 0 0 0 4.02.6zM4.03 91.3l11-14.17a1.63 1.63 0 0 0 .3-.62l3.34-13.36 5.38 6-2.5 10a3.44 3.44 0 0 1-.6 1.23L9.33 95.39a3.44 3.44 0 0 1-4.7.62 3.33 3.33 0 0 1-.59-4.68z"/></g></svg>