<svg data-name="Layer 1" xmlns="http://www.w3.org/2000/svg" viewBox="0 0 23.67 30"><title>check-list</title><path class="cls-1" d="M23.09 15.12a.59.59 0 0 0 .59-.59V5.27a2.93 2.93 0 0 0-2.93-2.93h-4a1.59 1.59 0 0 0-1.26-.62h-1A2.94 2.94 0 0 0 11.89 0h-.1a2.94 2.94 0 0 0-2.67 1.73h-1a1.59 1.59 0 0 0-1.26.62h-4A2.93 2.93 0 0 0 0 5.27v21.8A2.93 2.93 0 0 0 2.93 30h17.82a2.93 2.93 0 0 0 2.93-2.93v-7.62a.59.59 0 0 0-1.17 0v7.62a1.76 1.76 0 0 1-1.76 1.76H2.93a1.76 1.76 0 0 1-1.76-1.76V5.27a1.76 1.76 0 0 1 1.76-1.75h3.64v1.17h-3a1.17 1.17 0 0 0-1.22 1.17v20.62a1.17 1.17 0 0 0 1.17 1.17h16.64a1.17 1.17 0 0 0 1.17-1.17V5.86a1.17 1.17 0 0 0-1.17-1.17h-3V3.52h3.63a1.76 1.76 0 0 1 1.76 1.76v9.26a.59.59 0 0 0 .54.58zM7.74 3.33a.43.43 0 0 1 .42-.42h1.36a.59.59 0 0 0 .57-.43 1.76 1.76 0 0 1 1.7-1.3h.1a1.76 1.76 0 0 1 1.7 1.3.59.59 0 0 0 .57.43h1.36a.43.43 0 0 1 .42.42v1.36h-8.2zm12.42 2.53v20.62H3.52V5.86h16.64z"/><path class="cls-1" d="M23.5 16.63a.59.59 0 1 0 .17.41.59.59 0 0 0-.17-.41zm-10.84-6.15a.59.59 0 1 0 .17.41.59.59 0 0 0-.17-.41zm5.65-.17h-3.47a.59.59 0 1 0 0 1.17h3.49a.59.59 0 0 0 0-1.17zm0 6.33h-6.06a.59.59 0 1 0 0 1.17h6.06a.59.59 0 0 0 0-1.17zm0 6.36h-6.06a.59.59 0 1 0 0 1.17h6.06a.59.59 0 1 0 0-1.17zM8.56 10.31H6.33V8.09a.59.59 0 1 0-1.17 0v2.81a.59.59 0 0 0 .59.59h2.81a.59.59 0 0 0 0-1.17z"/><path class="cls-1" d="M9.84 7.48a.59.59 0 0 0-.83 0l-.81.81-.07-.07a.59.59 0 0 0-.83.83l.48.48a.59.59 0 0 0 .83 0l1.23-1.22a.59.59 0 0 0 0-.83zm-1.28 9.14H6.33V14.4a.59.59 0 0 0-1.17 0v2.81a.59.59 0 0 0 .59.59h2.81a.59.59 0 0 0 0-1.17z"/><path class="cls-1" d="M9.84 13.79a.59.59 0 0 0-.83 0l-.81.81-.07-.07a.59.59 0 1 0-.83.83l.48.48a.59.59 0 0 0 .83 0l1.23-1.22a.59.59 0 0 0 0-.83zM8.56 23H6.33v-2.26a.59.59 0 1 0-1.17 0v2.81a.59.59 0 0 0 .59.59h2.81a.59.59 0 1 0 0-1.17z"/><path class="cls-1" d="M9.84 20.14a.59.59 0 0 0-.83 0l-.81.81-.07-.07a.59.59 0 0 0-.83.83l.48.48a.59.59 0 0 0 .83 0L9.84 21a.59.59 0 0 0 0-.86z"/></svg>