<svg data-name="Layer 1" xmlns="http://www.w3.org/2000/svg" viewBox="0 0 26.72 30"><title>delivery-man</title><path class="cls-1" d="M26.69 28.89l-2.33-8.7a.88.88 0 0 0-.34-.48l-5.75-4.1a6.8 6.8 0 0 0 1.93-4.73 30.88 30.88 0 0 0-.08-4.38A6.43 6.43 0 0 0 13.5 0h-.27a6.43 6.43 0 0 0-6.58 6.5 30.87 30.87 0 0 0-.08 4.38 6.8 6.8 0 0 0 1.93 4.73l-5.75 4.1a.88.88 0 0 0-.34.48l-2.38 8.7A.88.88 0 0 0 .88 30h11.6v-9.29l.88-.58.88.58V30h11.6a.88.88 0 0 0 .85-1.11zm-13.9-26h1.15a.88.88 0 0 1 0 1.76h-1.15a.88.88 0 0 1 0-1.76zm-.3 15.76l-1.93 1.27-2.59-1.77 2-1.41a6.76 6.76 0 0 0 2.54.86zm.87-2.75a5 5 0 0 1-5-5V9.31l.47.69a.88.88 0 0 0 .73.38h7.67a.88.88 0 0 0 .73-.38l.4-.7v1.59a5 5 0 0 1-5 5.01zm.88 2.7v-1a6.76 6.76 0 0 0 2.54-.86l2 1.41-2.58 1.73zm6.59 7.65h-3.09a.88.88 0 1 1 0-1.76h3.08a.88.88 0 1 1 0 1.76z"/></svg>