<svg data-name="Layer 1" xmlns="http://www.w3.org/2000/svg" viewBox="0 0 85.19 100"><title>invoice</title><g class="cls-2"><path class="cls-3" d="M68.52 66.67a16.67 16.67 0 1 0 16.66 16.66 16.69 16.69 0 0 0-16.66-16.66zm0 29.63a13 13 0 1 1 13-13 13 13 0 0 1-13 13z"/><path class="cls-3" d="M77.11 76.36a1.85 1.85 0 0 0-2.61.24l-8 9.55L62.42 82a1.853 1.853 0 0 0-2.62 2.62l5.56 5.56a1.85 1.85 0 0 0 1.31.54h.08a1.85 1.85 0 0 0 1.34-.66L77.35 79a1.85 1.85 0 0 0-.24-2.64zM68.52 0H1.85A1.85 1.85 0 0 0 0 1.85v92.59A1.85 1.85 0 0 0 2.8 96l8.19-4.91 6.41 4.81a1.85 1.85 0 0 0 2.06.11l8.19-4.91 6.41 4.81a1.85 1.85 0 0 0 2.06.11l9.26-5.56a1.85 1.85 0 1 0-1.89-3.16l-8.19 4.91-6.41-4.8a1.85 1.85 0 0 0-2.06-.11l-8.24 4.92-6.41-4.81a1.85 1.85 0 0 0-2.06-.11l-6.45 3.87V3.7h63v57.41a1.85 1.85 0 0 0 3.7 0V1.85A1.85 1.85 0 0 0 68.52 0z"/><path class="cls-3" d="M20.37 16.67h-9.26a1.85 1.85 0 1 0 0 3.7h9.26a1.85 1.85 0 0 0 0-3.7zm35.22 9.26h-9.3a1.85 1.85 0 0 0 0 3.7h9.3a1.85 1.85 0 1 0 0-3.7zm0 9.26h-9.3a1.85 1.85 0 0 0 0 3.7h9.3a1.85 1.85 0 1 0 0-3.7zm0 9.25h-9.3a1.85 1.85 0 0 0 0 3.7h9.3a1.85 1.85 0 1 0 0-3.7zm0 9.26h-9.3a1.85 1.85 0 0 0 0 3.7h9.3a1.85 1.85 0 1 0 0-3.7zm0 9.3h-9.3a1.85 1.85 0 0 0 0 3.7h9.3a1.85 1.85 0 1 0 0-3.7zM37.03 25.93H11.11a1.85 1.85 0 1 0 0 3.7h25.92a1.85 1.85 0 1 0 0-3.7zm0 9.26H11.11a1.85 1.85 0 1 0 0 3.7h25.92a1.85 1.85 0 1 0 0-3.7zm0 9.25H11.11a1.85 1.85 0 1 0 0 3.7h25.92a1.85 1.85 0 1 0 0-3.7zm0 9.26H11.11a1.85 1.85 0 1 0 0 3.7h25.92a1.85 1.85 0 1 0 0-3.7zm0 9.3H11.11a1.85 1.85 0 1 0 0 3.7h25.92a1.85 1.85 0 1 0 0-3.7z"/></g></svg>