<svg data-name="Layer 1" xmlns="http://www.w3.org/2000/svg" viewBox="0 0 96.67 100"><title>online-shop</title><g class="cls-2"><path class="cls-3" d="M64.93 62.11a3.05 3.05 0 0 1 2.21 1l16.65 18 2.45-2.26-11.28-12.18v-45a8.34 8.34 0 0 0-8.33-8.33H60v3.33h6.67a5 5 0 0 1 5 5v1.67H60v3.33h11.66V63.1l-2.09-2.26a6.36 6.36 0 0 0-4.58-2.06 6.17 6.17 0 0 0-1.32.09l1.28-5.12 1.38-5.42h2V45H65a1.67 1.67 0 0 0-1.62 1.26l-1.35 5.4H36.66a1.67 1.67 0 0 0-1.62 2.07l3.29 13.34a1.67 1.67 0 0 0 1.62 1.26h19.32a6.39 6.39 0 0 0 .79 1.12l1.27 1.48a1.67 1.67 0 0 1-1.37.74H38.33V75H60a5 5 0 0 0 3.61-1.56l6.19 7a17 17 0 0 0 1.6 12.81 5 5 0 0 1-4.74 3.45H33.33a5 5 0 0 1-5-5V90h38.33v-3.33H28.33V40H25v51.67a8.34 8.34 0 0 0 8.33 8.33h33.33a8.33 8.33 0 0 0 6.92-3.68A17.54 17.54 0 0 0 75.33 98l1.9 1.59 2.13-2.56-1.9-1.58a13.7 13.7 0 0 1-4.25-14.94 1.67 1.67 0 0 0-.33-1.63L62.56 67.24a3.09 3.09 0 0 1 .12-4.24 3.27 3.27 0 0 1 2.25-.89zm-25.3-3.78L38.8 55h4.73l.42 3.33zm1.7 6.67l-.83-3.33h3.83l.44 3.33zm10.56 0h-3.75l-.42-3.33h4.56zm.83-6.67h-5.39L46.89 55h6.22zM58.44 65h-3.22l.42-3.33h3.86A6.41 6.41 0 0 0 58.44 65zm1.89-6.67h-4.28l.42-3.33h4.73z"/><path class="cls-3" d="M41.66 83.33A3.33 3.33 0 1 0 38.33 80a3.33 3.33 0 0 0 3.33 3.33zm16.67 0A3.33 3.33 0 1 0 55 80a3.33 3.33 0 0 0 3.33 3.33zM50 0H6.66A6.67 6.67 0 0 0 0 6.67V30a6.67 6.67 0 0 0 6.67 6.67H50A6.67 6.67 0 0 0 56.66 30V6.67A6.67 6.67 0 0 0 50 0zm3.33 30A3.33 3.33 0 0 1 50 33.33H6.66A3.33 3.33 0 0 1 3.33 30V6.67a3.33 3.33 0 0 1 3.33-3.34H50a3.33 3.33 0 0 1 3.33 3.34z"/><path class="cls-3" d="M36.66 8.33h-30v3.33h30zM47.55 19a5 5 0 0 0-5.07 0 4.93 4.93 0 0 0-2.49-.69 5 5 0 0 0 0 10 4.93 4.93 0 0 0 2.49-.69A5 5 0 0 0 47.55 19zm-7.56 6a1.67 1.67 0 1 1 1.67-1.67A1.67 1.67 0 0 1 40 25zm5 0h-.29a4.63 4.63 0 0 0 0-3.25h.29a1.67 1.67 0 0 1 0 3.33zM10 18.33H6.66v3.33h3.33zm6.66 0h-3.33v3.33h3.33zm6.67 0H20v3.33h3.33zm6.67 0h-3.34v3.33h3.33zM30 25H6.66v3.33H30zm63.56 39.33l-14-15.46-2.47 2.24 14 15.47a8.31 8.31 0 0 1 2.24 5.68V100h3.33V72.26a11.6 11.6 0 0 0-3.1-7.93zM54.07 41.95l-2.41 1.6V40h-3.33v3.55l-2.41-1.6-1.85 2.77 5 3.33a1.67 1.67 0 0 0 1.85 0l5-3.33z"/></g></svg>