<svg data-name="Layer 1" xmlns="http://www.w3.org/2000/svg" viewBox="0 0 93.75 93.75"><title>promotion</title><path class="cls-1" d="M51.46 25.87a4.69 4.69 0 0 0 3.31-8 4.8 4.8 0 0 0-6.63 0 4.69 4.69 0 0 0 3.31 8zm-1.1-5.79a1.563 1.563 0 0 1 2.21 2.21 1.6 1.6 0 0 1-2.21 0 1.56 1.56 0 0 1 0-2.21z"/><path class="cls-1" d="M93.75 78.12h-1.57a7.81 7.81 0 1 1 0-15.62h1.56V46.87H37.5v-14l4.06-4a1.55 1.55 0 0 1 2.2.1 10.94 10.94 0 1 0 15-15.9 11.11 11.11 0 0 0-15.31.64l-6 6v-8.42A11.12 11.12 0 0 0 27.11.01a10.94 10.94 0 0 0-2.73 21.64 10.75 10.75 0 0 0 2.1.22 1.56 1.56 0 0 1 1.63 1.56v5.6l-15.6 15.62a7.08 7.08 0 0 0-1.49 2.22h-11V62.5h1.54a7.815 7.815 0 0 1 0 15.63H0v15.62h93.75zM45.68 15.87a8.1 8.1 0 0 1 11-.53 7.81 7.81 0 0 1-9.55 12.33 7.66 7.66 0 0 1-1.17-.95 4.66 4.66 0 0 0-6.66 0l-1.81 1.81v-4.45zm-19.17 2.88a7.815 7.815 0 0 1 .06-15.63h.39a8.1 8.1 0 0 1 7.41 8.16v43.79a4.35 4.35 0 0 1-3.12 4.05V23.36a4.65 4.65 0 0 0-4.73-4.62zm1.61 28.12h-4.58l4.58-4.58zm-13.4 0l13.4-13.4v4.4l-9 9h-4.41zm75.9 43.77H3.12v-9.51a10.94 10.94 0 0 0 0-21.65V50h25v12.5h1.56a7.63 7.63 0 0 0 7.81-7.42V50h53.13v9.49a10.94 10.94 0 0 0 0 21.65z"/><path class="cls-1" d="M31.25 84.37h-3.13v3.13h3.13zm0-6.25h-3.13v3.13h3.13zm0-6.25h-3.13V75h3.13zm0-6.25h-3.13v3.13h3.13zM69.2 56.7l-25 25 2.21 2.17 25-25zM50 68.75a6.25 6.25 0 1 0-4.42-1.88A6.25 6.25 0 0 0 50 68.75zm0-9.37a3.13 3.13 0 1 1-2.21.92 3.12 3.12 0 0 1 2.21-.93zm15.62 12.49a6.25 6.25 0 1 0 4.42 1.83 6.25 6.25 0 0 0-4.42-1.83zm0 9.38a3.13 3.13 0 1 1 2.25-.92 3.13 3.13 0 0 1-2.25.92zm-39.06-75a4.69 4.69 0 1 0 3.31 1.37 4.69 4.69 0 0 0-3.31-1.37zm0 6.25a1.56 1.56 0 1 1 1.1-.46 1.56 1.56 0 0 1-1.1.46zm7.31 17.64a1.64 1.64 0 0 0-2.22 0 1.46 1.46 0 0 0-.33.52 1.56 1.56 0 1 0 2.88 0 1.61 1.61 0 0 0-.33-.52z"/></svg>