<svg data-name="Layer 1" xmlns="http://www.w3.org/2000/svg" viewBox="0 0 29.89 30"><title>telephone</title><g class="cls-2"><path class="cls-3" d="M6.05 19.94a31.83 31.83 0 0 0 10.59 8.29A16.48 16.48 0 0 0 22.56 30h.38a4.91 4.91 0 0 0 3.8-1.63 16 16 0 0 1 1.2-1.24c.29-.28.59-.57.88-.87a3 3 0 0 0 0-4.47L25.14 18a3 3 0 0 0-2.2-1 3.13 3.13 0 0 0-2.21 1l-2.23 2.23c-.21-.12-.42-.22-.62-.32a7.68 7.68 0 0 1-.68-.37 23.55 23.55 0 0 1-5.63-5.12 13.56 13.56 0 0 1-1.9-3c.58-.53 1.13-1.08 1.66-1.62l.61-.62a3.19 3.19 0 0 0 1-2.24 3.16 3.16 0 0 0-1-2.24l-1.87-1.85-.63-.65c-.42-.42-.84-.85-1.27-1.2a3.1 3.1 0 0 0-2.23-1 3.19 3.19 0 0 0-2.17 1L1.45 3.29A4.78 4.78 0 0 0 .02 6.35a11.5 11.5 0 0 0 .86 5 28.93 28.93 0 0 0 5.17 8.59zM1.54 6.48a3.29 3.29 0 0 1 1-2.11l2.3-2.32a1.67 1.67 0 0 1 1.1-.53 1.59 1.59 0 0 1 1.12.54c.42.39.81.79 1.23 1.22l.65.66 1.85 1.85A1.69 1.69 0 0 1 11.42 7a1.69 1.69 0 0 1-.58 1.16l-.58.58c-.58.58-1.12 1.14-1.72 1.67a1.22 1.22 0 0 0-.31 1.38 14.63 14.63 0 0 0 2.18 3.55 24.86 24.86 0 0 0 6 5.46 8.9 8.9 0 0 0 .82.45 7.65 7.65 0 0 1 .68.37h.07a1.3 1.3 0 0 0 .6.16 1.32 1.32 0 0 0 .93-.42l2.32-2.32a1.65 1.65 0 0 1 1.11-.49 1.56 1.56 0 0 1 1.1.55l3.75 3.74a1.5 1.5 0 0 1 0 2.34c-.26.28-.53.55-.83.83a17.91 17.91 0 0 0-1.3 1.35 3.41 3.41 0 0 1-2.67 1.13h-.32a15 15 0 0 1-5.36-1.6A30.24 30.24 0 0 1 7.23 19a27.69 27.69 0 0 1-4.91-8.17 10 10 0 0 1-.78-4.35z"/></g></svg>