<svg data-name="Layer 1" xmlns="http://www.w3.org/2000/svg" viewBox="0 0 29.96 30"><title>tickets</title><path class="cls-1" d="M21.18 25.32a1.17 1.17 0 1 0-1.2-1.17 1.17 1.17 0 0 0 1.2 1.17zm-2.69-15.1A1.17 1.17 0 1 0 17.32 9a1.17 1.17 0 0 0 1.17 1.22z"/><path class="cls-1" d="M28.79 18.3h1.19v-7h-3a2.34 2.34 0 0 1-1.08-4.42l1-.52L23.91 0-.02 11.27v7h1.19a2.34 2.34 0 1 1 0 4.68H-.02v7h30V23h-1.19a2.34 2.34 0 1 1 0-4.68zM15.93 6.36a1.17 1.17 0 0 0 2.11-1l4.75-2.24 1.08 2.3a4.68 4.68 0 0 0-1 5.85H5.5zm11.69 18.81v2.49h-5.27a1.17 1.17 0 0 0-2.34 0H2.34v-2.49a4.68 4.68 0 0 0 0-9.07v-2.49h17.64a1.17 1.17 0 1 0 2.34 0h5.27v2.49a4.68 4.68 0 0 0 0 9.07z"/><path class="cls-1" d="M21.18 18.3a1.17 1.17 0 1 0-1.2-1.17 1.17 1.17 0 0 0 1.2 1.17zm0 3.51a1.17 1.17 0 1 0-1.2-1.17 1.17 1.17 0 0 0 1.2 1.17z"/></svg>