<svg data-name="Layer 1" xmlns="http://www.w3.org/2000/svg" viewBox="0 0 86.75 100"><title>wallet</title><g class="cls-2"><path class="cls-3" d="M83.51 17.22L52.98.69a6.44 6.44 0 0 0-8.45 2.53L26.67 36.41H4.95A4.89 4.89 0 0 0 0 41.36v53.7A4.89 4.89 0 0 0 4.95 100h69.43a4.89 4.89 0 0 0 4.95-4.95V82.5h2.05a1.91 1.91 0 0 0 1.93-1.93V66.21a1.91 1.91 0 0 0-1.93-1.93h-2.1V50.16a5 5 0 0 0-3.9-4.82l10.66-19.67a6.33 6.33 0 0 0-2.53-8.45zM61.79 9.86L42.72 45.22h-5.43L57.68 7.69zM48.03 5a2.37 2.37 0 0 1 3.14-1l3 1.69-21.22 39.53h-6.64zM3.75 41.24a1.16 1.16 0 0 1 1.09-1H24.5l-2.65 4.86h-17a3.34 3.34 0 0 0-1.09.12zM75.3 95.05a1.08 1.08 0 0 1-1.09 1.09H4.83a1.08 1.08 0 0 1-1.09-1.09V50.16a1.08 1.08 0 0 1 1.09-1.09h69.26a1.08 1.08 0 0 1 1.09 1.09v14.12h-7.36a5.79 5.79 0 0 0-5.79 5.79v6.64a5.79 5.79 0 0 0 5.79 5.79h7.48zm3.86-26.91h.12v10.5H67.82a1.91 1.91 0 0 1-1.93-1.93v-6.64a1.91 1.91 0 0 1 1.93-1.93zm3.38-44.41L70.96 45.22h-23.9l18.1-33.42 16.42 8.92a2.11 2.11 0 0 1 .96 3.02z"/><path class="cls-3" d="M75.18 21.93l-1-.48a5.28 5.28 0 0 0-7 2.05l-1.21 2.29a5.08 5.08 0 0 0-.36 4 4.86 4.86 0 0 0 2.53 3l1 .48a5.49 5.49 0 0 0 2.41.6 5.43 5.43 0 0 0 4.59-2.65l1.24-2.29a5.41 5.41 0 0 0-2.2-7zm-1.33 5.19l-1.21 2.29a1.36 1.36 0 0 1-1.81.48l-1-.6a1.77 1.77 0 0 1-.6-.72.91.91 0 0 1 .12-1l1.21-2.29a1.6 1.6 0 0 1 1.21-.72 1.09 1.09 0 0 1 .6.12l1 .48a1.88 1.88 0 0 1 .48 1.96z"/></g></svg>