<svg id="Слой_2" data-name="Слой 2" xmlns="http://www.w3.org/2000/svg" viewBox="0 0 88.09 97.32"><defs><style>.cls-1{fill:#8d54ff}</style></defs><title>bell</title><path class="cls-1" d="M91.23 86.4a9 9 0 0 1-6.7 3.12H60a11.2 11.2 0 0 1-2.75 4.56 11.07 11.07 0 0 1-18.4-4.56H14.34a9.11 9.11 0 0 1-7.6-13.85c2.38-4 6.67-11.08 10.7-16.47V38.06A32 32 0 0 1 43 6.71a2.44 2.44 0 0 1 0-.27 6.44 6.44 0 0 1 12.88 0 2.44 2.44 0 0 1 0 .27 32 32 0 0 1 25.56 31.35V59.2c4 5.39 8.32 12.43 10.7 16.47a9 9 0 0 1-.91 10.73z" transform="translate(-5.39)"/></svg>