<svg id="Слой_3" data-name="Слой 3" xmlns="http://www.w3.org/2000/svg" viewBox="0 0 78.6 88.99"><defs><style>.cls-1,.cls-2{fill:none;stroke:#000;stroke-width:3px}.cls-1{stroke-miterlimit:10}.cls-2{stroke-linecap:round;stroke-linejoin:round}</style></defs><title>brain</title><path class="cls-1" d="M73.09 34.61H69a14.94 14.94 0 0 0-3.49-6l2-3.54a3 3 0 0 0-1.08-4l-2.25-1.3a3 3 0 0 0-4 1.08l-2 3.54a14.52 14.52 0 0 0-7 0l-2-3.54a3 3 0 0 0-4-1.08L42.85 21a3 3 0 0 0-1.08 4l2 3.54a14.94 14.94 0 0 0-3.49 6h-4.04a3 3 0 0 0-3 3v2.6a3 3 0 0 0 3 3h4.08a14.94 14.94 0 0 0 3.49 6l-2 3.54a3 3 0 0 0 1.08 4L45.1 58a3 3 0 0 0 4-1.08l2-3.54a14.52 14.52 0 0 0 7 0l2 3.54a3 3 0 0 0 4 1.08l2.25-1.3a3 3 0 0 0 1.08-4l-2-3.54a14.94 14.94 0 0 0 3.49-6H73a3 3 0 0 0 3-3v-2.6a3 3 0 0 0-2.91-2.95z" transform="translate(-12.82 -4.82)"/><circle class="cls-1" cx="41.85" cy="34.05" r="8.17"/><path class="cls-2" d="M79.88 92.19s-4.5-15.25-1-25.75 18.17-21 6.79-43.21S47.34 6.71 44.27 7.74 25.37 12.29 22 29.81a20.39 20.39 0 0 0 0 6.63s1.59 7.76-6.62 16.75c-4.5 4.75 6.83 5.33 7.5 6.75s.5 12.88.5 12.88-.21 7.54 5.5 8S46.5 81.9 46.5 92.31z" transform="translate(-12.82 -4.82)"/></svg>