<svg id="Layer_1" data-name="Layer 1" xmlns="http://www.w3.org/2000/svg" viewBox="0 0 484.8 512"><defs><style>.cls-1{fill:#006df0}</style></defs><title>business</title><path class="cls-1" d="M488.4 492h-21.93V173.54a26.91 26.91 0 0 0-26.88-26.88h-49a26.91 26.91 0 0 0-26.88 26.88V492H308V317.83a26.91 26.91 0 0 0-26.88-26.88h-49a26.91 26.91 0 0 0-26.88 26.88V492h-55.73v-90.2a26.91 26.91 0 0 0-26.88-26.88h-49a26.91 26.91 0 0 0-26.91 26.88V492H23.6a10 10 0 1 0 0 20h464.8a10 10 0 1 0 0-20zm-358.9 0H66.72v-90.2a6.89 6.89 0 0 1 6.88-6.88h49a6.89 6.89 0 0 1 6.88 6.88V492zm158.5 0h-62.8V317.83a6.89 6.89 0 0 1 6.88-6.88h49a6.89 6.89 0 0 1 6.88 6.88zm158.48 0h-62.8V173.54a6.89 6.89 0 0 1 6.88-6.88h49a6.89 6.89 0 0 1 6.88 6.88V492zm19.96-481.48A10 10 0 0 0 455.95 0H395a10 10 0 0 0 0 20h37.36l-98.86 98.86-37.31-37.28a10 10 0 0 0-14.14 0L102.27 261.35a10 10 0 0 0 14.14 14.14l172.7-172.7 37.28 37.28a10 10 0 0 0 14.14 0L446.47 34.14V68a10 10 0 1 0 20 0V11c0-.16-.02-.32-.03-.48z" transform="translate(-13.6)"/><circle class="cls-1" cx="62.04" cy="303.31" r="10"/></svg>