<svg data-name="Capa 1" xmlns="http://www.w3.org/2000/svg" viewBox="0 0 56 60"><title>calendar</title><path d="M55 4h-7V1a1 1 0 0 0-1-1h-7a1 1 0 0 0-1 1v3H17V1a1 1 0 0 0-1-1H9a1 1 0 0 0-1 1v3H1a1 1 0 0 0-1 1v54a1 1 0 0 0 1 1h54a1 1 0 0 0 1-1V5a1 1 0 0 0-1-1zM41 2h5v6h-5V2zM10 2h5v6h-5V2zM2 6h6v3a1 1 0 0 0 1 1h7a1 1 0 0 0 1-1V6h22v3a1 1 0 0 0 1 1h7a1 1 0 0 0 1-1V6h6v9H2zm0 52V17h52v41z"/><path d="M36 23H9v29h38V23H36zm-7 2h7v7h-7zm7 16h-7v-7h7zm-16-7h7v7h-7zm0-9h7v7h-7zm-9 0h7v7h-7zm0 9h7v7h-7zm7 16h-7v-7h7zm9 0h-7v-7h7zm9 0h-7v-7h7zm9 0h-7v-7h7zm0-9h-7v-7h7zm0-16v7h-7v-7z"/></svg>