<svg id="Слой_3" data-name="Слой 3" xmlns="http://www.w3.org/2000/svg" viewBox="0 0 93.7 92.85"><defs><style>.cls-1,.cls-2,.cls-3{fill:none;stroke:#000;stroke-width:3px}.cls-1,.cls-3{stroke-miterlimit:10}.cls-2,.cls-3{stroke-linecap:round}.cls-2{stroke-linejoin:round}</style></defs><title>customer</title><path class="cls-1" d="M55.33 25.15c0 10.91-7.5 21.75-16.75 21.75S21.83 36.05 21.83 25.15 29.33 7.4 38.58 7.4s16.75 6.84 16.75 17.75zM44.87 52.64c0 3.94-2.71 5.86-6.06 5.86a6.78 6.78 0 0 1-3.54-.91 5.45 5.45 0 0 1-2.51-5M2.85 77.5a24.74 24.74 0 0 1 24.74-24.74V41" transform="translate(-1.35 -5.9)"/><path class="cls-1" d="M75 77.5a24.74 24.74 0 0 0-24.79-24.74V41" transform="translate(-1.35 -5.9)"/><path class="cls-2" d="M33.92 51.7l-1.65 34.4 5.19 5.25M41 51.7l1.65 34.4-5.19 5.25"/><path class="cls-3" d="M80.7 44.11a13.22 13.22 0 1 1 0-17" transform="translate(-1.35 -5.9)"/><path class="cls-3" d="M52.83 26.73h18.12m-20.07 4.64h18.41"/><path class="cls-3" d="M54.34 17.75a23.67 23.67 0 1 1 15.54 41.52A23.9 23.9 0 0 1 67 59.1" transform="translate(-1.35 -5.9)"/></svg>