<svg id="Слой_2" data-name="Слой 2" xmlns="http://www.w3.org/2000/svg" viewBox="0 0 99.33 99.21"><defs><style>.cls-1,.cls-2{fill:none;stroke:#000;stroke-width:2px}.cls-1{stroke-miterlimit:10}.cls-2{stroke-linecap:round;stroke-linejoin:round}</style></defs><title>dislike</title><rect class="cls-1" x="71.76" y="2.02" width="26.74" height="65.37" rx="6.04" ry="6.04" transform="rotate(180 85.045 34.19)"/><path class="cls-2" d="M50.15 67.38H7.54a6.13 6.13 0 0 1-6.16-7.61L16.21 6.53A6.32 6.32 0 0 1 22.36 2h43a6.22 6.22 0 0 1 6.37 6.06v53.26s0 7.89-3.21 13.26-12.93 22-16 23.84c-2.5 1.69-5.64.22-5.64.22s-3.81-1.82-2.29-7.64 5.56-23.62 5.56-23.62z" transform="translate(-.17 -1.02)"/><circle class="cls-1" cx="81.13" cy="18.67" r="3.6"/></svg>