<svg id="Слой_3" data-name="Слой 3" xmlns="http://www.w3.org/2000/svg" viewBox="0 0 94.67 97.6"><defs><style>.cls-1,.cls-2{fill:none;stroke:#000;stroke-width:2px}.cls-1{stroke-miterlimit:10}.cls-2{stroke-linecap:round;stroke-linejoin:round}</style></defs><title>donate</title><circle class="cls-1" cx="59.31" cy="39.08" r="19.94"/><path class="cls-1" d="M42 36.27a14.63 14.63 0 1 1 19.38-16.08M51.65 8.64a12.31 12.31 0 1 1 19.84 14.19" transform="translate(-2.25 -1.04)"/><path class="cls-2" d="M65.81 76.25s19.42-7.54 20.56-7.94 5.75-1.62 8.13 1.19c3.05 3.62.44 7.4-1 8.44C92 79.29 61.13 95.5 61.13 95.5s-7.75 4.81-15.81 0-17.94-9.81-17.94-9.81a13.85 13.85 0 0 0-11.31-.25C9.81 88 3.75 90.77 3.25 86V65.23a4.73 4.73 0 0 1 4.67-4.58c4.67-.42 17-2 17-2a17.85 17.85 0 0 1 10.92 1.83c5.79 3.33 8 5.92 13.75 7.21 2.89.65 5.16 1.13 11 .54 4.17-.42 5.42 2.56 5.63 3.81a6.6 6.6 0 0 1-3.12 6.85 19.13 19.13 0 0 1-8.42 2.33 20 20 0 0 1-11.25-2.08c-5.83-2.75-6.17-2.75-6.17-2.75" transform="translate(-2.25 -1.04)"/></svg>