<svg data-name="Capa 1" xmlns="http://www.w3.org/2000/svg" viewBox="0 0 368 368"><title>emoji-smile</title><path d="M184 0C82.54 0 0 82.54 0 184s82.54 184 184 184 184-82.54 184-184S285.46 0 184 0zm0 352c-92.64 0-168-75.36-168-168S91.36 16 184 16s168 75.36 168 168-75.36 168-168 168z"/><path d="M144 152a24 24 0 1 0-24 24 24 24 0 0 0 24-24zm-32 0a8 8 0 1 1 8 8 8 8 0 0 1-8-8zm136-24a24 24 0 1 0 24 24 24 24 0 0 0-24-24zm0 32a8 8 0 1 1 8-8 8 8 0 0 1-8 8zm13.34 66a8 8 0 0 0-11.3.62 89 89 0 0 1-132.08 0A8 8 0 0 0 106 237.34a105 105 0 0 0 155.92 0 8 8 0 0 0-.58-11.34z"/></svg>