<svg id="Capa_1" data-name="Capa 1" xmlns="http://www.w3.org/2000/svg" viewBox="0 0 426.67 512"><defs><style>.cls-1{fill:#006df0}</style></defs><title>experience</title><path class="cls-1" d="M320 170.66V21.35h21.33V0H170.66v21.35H192v149.31S42.68 384 42.68 448s64 64 64 64h298.66s64 0 64-64S320 170.66 320 170.66zm85.28 320H106.66c-7.1 0-42.68-2.1-42.68-42.68 0-41.7 89.25-184.74 145.48-265.1l3.85-5.52v-156h85.33v156l3.85 5.52c56.23 80.36 145.46 223.4 145.46 265.1 0 39.02-32.73 42.5-42.68 42.67zM192 410.15a21.33 21.33 0 1 1-21.33-21.33A21.32 21.32 0 0 1 192 410.15zm127.46 29.91a28.74 28.74 0 1 1-28.74-28.74 28.73 28.73 0 0 1 28.72 28.74zm-51-38.28a26.92 26.92 0 1 1-26.92-26.92 26.92 26.92 0 0 1 26.86 26.92zm-31.93-34.28a39.76 39.76 0 1 1 39.76-39.76 39.77 39.77 0 0 1-39.76 39.76zm60-37a21.33 21.33 0 1 1 21.33 21.33 21.32 21.32 0 0 1-21.35-21.32zm23.26 50.71a14.06 14.06 0 1 1-14.06-14.06 14.05 14.05 0 0 1 14.05 14.07z" transform="translate(-42.68)"/></svg>