<svg data-name="Capa 1" xmlns="http://www.w3.org/2000/svg" viewBox="0 0 168.1 84.07"><title>eye</title><circle cx="84.05" cy="42.03" r="20.7"/><path d="M167.05 39.41C165.54 37.81 129.48-.01 84-.01S2.55 37.81 1 39.41a3.83 3.83 0 0 0 0 5.24c1.52 1.6 37.58 39.43 83 39.43s81.51-37.82 83-39.43a3.81 3.81 0 0 0 .05-5.24zM84 73.99a32 32 0 1 1 32-32 32 32 0 0 1-32 32zM58.68 11.82a39.12 39.12 0 0 0 0 60.42C34.76 64.55 16 48.36 9.26 41.99 16 35.7 34.77 19.51 58.68 11.82zm50.74 60.41a39.09 39.09 0 0 0 0-60.4c23.92 7.69 42.69 23.86 49.41 30.2-6.72 6.33-25.49 22.5-49.4 30.2z"/></svg>