<svg id="Слой_3" data-name="Слой 3" xmlns="http://www.w3.org/2000/svg" viewBox="0 0 99.81 99.81"><defs><style>.cls-1,.cls-2{fill:none;stroke:#000;stroke-linecap:round;stroke-width:2px}.cls-1{stroke-linejoin:round}.cls-2{stroke-miterlimit:10}</style></defs><title>facebook</title><rect class="cls-1" x="1" y="1" width="97.81" height="97.81" rx="20" ry="20"/><path class="cls-2" d="M49.51 43.15V29.93s0-11.47 12.43-11.47h13.85a5.32 5.32 0 0 1 5.32 5.32V34.1a1.81 1.81 0 0 1-1.81 1.81H67.2M67 60.6v33a5.32 5.32 0 0 1-5.32 5.32h-6.8a5.32 5.32 0 0 1-5.32-5.32v-33" transform="translate(-.09 -.09)"/><path class="cls-2" d="M66.86 35.82v7.24"/><path class="cls-2" d="M49.51 60.6h-3.24a5.32 5.32 0 0 1-5.32-5.32v-6.8a5.32 5.32 0 0 1 5.32-5.32h3.24m17.74-.01h8.54a5.32 5.32 0 0 1 5.32 5.32v6.8a5.32 5.32 0 0 1-5.32 5.32H67" transform="translate(-.09 -.09)"/></svg>