<svg id="Слой_2" data-name="Слой 2" xmlns="http://www.w3.org/2000/svg" viewBox="0 0 51.02 100.17"><defs><style>.cls-1{fill:none;stroke:#000;stroke-linecap:round;stroke-linejoin:round;stroke-width:2px}</style></defs><title>fb-news</title><path class="cls-1" d="M56.21 31.2h10.42a6.5 6.5 0 0 1 6.5 6.5V46a6.5 6.5 0 0 1-6.5 6.5H55.85v40.23a6.5 6.5 0 0 1-6.5 6.5h-8.3a6.5 6.5 0 0 1-6.5-6.5V52.49h-4a6.5 6.5 0 0 1-6.5-6.5v-8.3a6.5 6.5 0 0 1 6.5-6.5h4V15.06s0-14 15.16-14h16.92a6.5 6.5 0 0 1 6.5 6.5v12.59a2.21 2.21 0 0 1-2.21 2.21H55.85v8.84" transform="translate(-23.11 -.06)"/></svg>