<svg id="Слой_2" data-name="Слой 2" xmlns="http://www.w3.org/2000/svg" viewBox="0 0 87 102"><defs><style>.cls-1,.cls-2{fill:none;stroke:#000;stroke-width:2px}.cls-1{stroke-miterlimit:10}.cls-2{stroke-linecap:round;stroke-linejoin:round}</style></defs><title>file</title><path class="cls-1" d="M90 100H9a2 2 0 0 1-2-2V2a2 2 0 0 1 2-2h45.88a2 2 0 0 1 2 2L57 33a2 2 0 0 0 2 2l31 .18a2 2 0 0 1 2 2V98a2 2 0 0 1-2 2z" transform="translate(-6 1)"/><path class="cls-2" d="M92 28H65.81a2 2 0 0 1-2-2V0z" transform="translate(-6 1)"/></svg>