<svg id="Слой_2" data-name="Слой 2" xmlns="http://www.w3.org/2000/svg" viewBox="0 0 79.47 100"><defs><style>.cls-1{fill:none;stroke:#000;stroke-linejoin:round;stroke-width:2px}</style></defs><title>finished</title><path class="cls-1" d="M45.6 8.16h32.87V99H1V8.16h32.82"/><path class="cls-1" d="M24.98 10.94h29.51v6.33H24.98z"/><path d="M15.16 42.71h23.43v2.03H15.16zm51-6.9L53.87 50.89l-.68-1.6-.63-.01 12.03-14.75 1.57 1.28z"/><path d="M46.95 42.41l6.92 8.48.88-1.42.43-.18-6.66-8.16-1.57 1.28zm19.21 20.25L53.87 77.74l-.68-1.6h-.63l12.03-14.76 1.57 1.28z"/><path d="M46.95 69.26l6.92 8.48.88-1.42.43-.18-6.66-8.16-1.57 1.28zm-31.79.3h23.43v2.03H15.16z"/><path class="cls-1" d="M39.66 1h.16a5.94 5.94 0 0 1 5.94 5.94v3.88h-12V6.94A5.94 5.94 0 0 1 39.66 1z"/></svg>