<svg xmlns="http://www.w3.org/2000/svg" viewBox="0 0 100 100"><defs><style>.cls-1{fill:none;stroke:#000;stroke-linecap:round;stroke-linejoin:round;stroke-width:2px}</style></defs><title>github</title><g id="Слой_3" data-name="Слой 3"><path class="cls-1" d="M38.88 74.64C27.17 70.79 19 61.78 19 51.41a20.61 20.61 0 0 1 4-12m57.72.03a20.6 20.6 0 0 1 3.94 12c0 10.61-8.58 20-20.72 23.7M40 27.54a43.44 43.44 0 0 1 11.83-1.29 43.59 43.59 0 0 1 11.85 1.29M22.96 39.42l.04-21.6 17 9.72"/><path class="cls-1" d="M80.72 39.44l-.04-21.62-17 9.72M64 75.11V99H38.88v-8.06s-17-1.37-22.79-12.76a5.78 5.78 0 0 1-.43-4.18c.37-1.25 1.18-2.4 3-1.93a4.15 4.15 0 0 1 1.85 1.14A26 26 0 0 0 38.9 80.7v-6"/><path d="M80 2a18 18 0 0 1 18 18v60a18 18 0 0 1-18 18H20A18 18 0 0 1 2 80V20A18 18 0 0 1 20 2h60m0-2H20A20 20 0 0 0 0 20v60a20 20 0 0 0 20 20h60a20 20 0 0 0 20-20V20A20 20 0 0 0 80 0z"/></g></svg>