<svg id="Слой_3" data-name="Слой 3" xmlns="http://www.w3.org/2000/svg" viewBox="0 0 56.59 73.17"><defs><style>.cls-1{fill:none;stroke:#000;stroke-linecap:round;stroke-linejoin:round;stroke-width:2px}</style></defs><title>hand</title><path class="cls-1" d="M25.94 46.58V28.42A5.13 5.13 0 0 1 31 23.31a5.13 5.13 0 0 1 5.11 5.11v18.16m.05-7V21.42a5.13 5.13 0 0 1 5.11-5.11 5.13 5.13 0 0 1 5.11 5.11v23.16m.01-9.42V17a5.13 5.13 0 0 1 5.11-5.1 5.13 5.13 0 0 1 5.11 5.1v18.16m0 9.5V22.51a5.13 5.13 0 0 1 5.11-5.11 5.13 5.13 0 0 1 5.11 5.11v30.58" transform="translate(-24.94 -10.9)"/><path class="cls-1" d="M76.56 58.27c-4.4 7.47-10.65 24.79-29 24.79a21.7 21.7 0 0 1-21.61-21.63v-15m40.99 6.71l4.58-5.72a5.13 5.13 0 0 1 7.19-.8 5.31 5.31 0 0 1 .8 7.19c-2.17 3.28-2.94 4.46-2.94 4.46" transform="translate(-24.94 -10.9)"/></svg>