<svg id="Слой_3" data-name="Слой 3" xmlns="http://www.w3.org/2000/svg" viewBox="0 0 99.09 92.85"><defs><style>.cls-1,.cls-2,.cls-3{fill:none;stroke:#000;stroke-width:3px}.cls-1,.cls-3{stroke-miterlimit:10}.cls-2,.cls-3{stroke-linecap:round}.cls-2{stroke-linejoin:round}</style></defs><title>infobisness</title><path class="cls-1" d="M54.33 21.15c0 10.91-7.5 21.75-16.75 21.75S20.83 32.05 20.83 21.15 28.33 3.4 37.58 3.4s16.75 6.84 16.75 17.75zM43.87 48.64c0 3.94-2.71 5.86-6.06 5.86a6.78 6.78 0 0 1-3.54-.91 5.45 5.45 0 0 1-2.51-5M1.85 73.5a24.74 24.74 0 0 1 24.74-24.74V37" transform="translate(-.35 -1.9)"/><path class="cls-1" d="M74 73.5a24.74 24.74 0 0 0-24.79-24.74V37" transform="translate(-.35 -1.9)"/><path class="cls-2" d="M33.92 51.7l-1.65 34.4 5.19 5.25M41 51.7l1.65 34.4-5.19 5.25"/><path class="cls-1" d="M97.84 24.78a18.94 18.94 0 0 1-29 14c-1.4 1.35-4.18 2.42-8.56 2.31a.2.2 0 0 1-.09-.37 10.88 10.88 0 0 0 4.47-5.57 18.94 18.94 0 1 1 33.18-10.37z" transform="translate(-.35 -1.9)"/><path class="cls-3" d="M71.93 20.94h-.25m7.02 0h-.25m7.03 0h-.25"/></svg>