<svg id="Слой_2" data-name="Слой 2" xmlns="http://www.w3.org/2000/svg" viewBox="0 0 96.22 97.41"><defs><style>.cls-1,.cls-2{fill:none;stroke:#000;stroke-width:2px}.cls-1{stroke-linecap:round;stroke-miterlimit:10}.cls-2{stroke-linejoin:round}.cls-3{font-size:37.91px;font-family:Roboto-Light,Roboto Light}</style></defs><title>language</title><path class="cls-1" d="M15.23 73A39.57 39.57 0 0 1 2.89 44.66C2.89 21.42 24 2.58 50 2.58s47.11 18.84 47.11 42.08S76 86.73 50 86.73a52.1 52.1 0 0 1-16-2.49" transform="translate(-1.89 -1.58)"/><path class="cls-2" d="M32.09 82.65L3.69 96.41l9.73-25.18"/><text class="cls-3" transform="translate(18.6 51.42)">A</text><rect x="49.73" y="43.07" width="31" height="2" rx="1" ry="1"/><rect x="59.86" y="41.44" width="10.3" height="2" rx="1" ry="1" transform="rotate(-45 62.158 43.933)"/><rect x="49.64" y="56.9" width="36.06" height="2" rx="1" ry="1" transform="rotate(-45 64.82 59.39)"/><rect x="52.62" y="59.06" width="25.79" height="2" rx="1" ry="1" transform="rotate(-135 64.24 59.66)"/></svg>