<svg id="Слой_2" data-name="Слой 2" xmlns="http://www.w3.org/2000/svg" viewBox="0 0 99.33 99.21"><defs><style>.cls-1,.cls-2{fill:none;stroke:#000;stroke-width:2px}.cls-1{stroke-miterlimit:10}.cls-2{stroke-linecap:round;stroke-linejoin:round}</style></defs><title>like</title><rect class="cls-1" x="1" y="32.85" width="26.74" height="65.37" rx="6.04" ry="6.04"/><path class="cls-2" d="M49.52 33.86h42.61a6.13 6.13 0 0 1 6.16 7.61L83.46 94.72a6.32 6.32 0 0 1-6.16 4.51h-43a6.22 6.22 0 0 1-6.37-6.06V39.92s0-7.89 3.21-13.26 12.93-22 16-23.84c2.5-1.69 5.64-.22 5.64-.22s3.87 1.81 2.36 7.62-5.62 23.64-5.62 23.64z" transform="translate(-.17 -1.02)"/><circle class="cls-1" cx="18.21" cy="80.54" r="3.6"/></svg>