<svg id="Слой_3" data-name="Слой 3" xmlns="http://www.w3.org/2000/svg" viewBox="0 0 71.31 99.31"><defs><style>.cls-1,.cls-2{fill:none;stroke:#000;stroke-width:2px}.cls-2{stroke-linecap:round;stroke-linejoin:round}</style></defs><title>lock</title><circle class="cls-1" cx="35.66" cy="63.66" r="34.66"/><circle class="cls-1" cx="35.66" cy="63.66" r="25.23"/><path class="cls-2" d="M45.22 65.53a7.87 7.87 0 1 1 9.75 0m.03.28v5.78a4.87 4.87 0 0 1-4.87 4.87 4.87 4.87 0 0 1-4.87-4.87v-5.78m.79-53.67a5.85 5.85 0 0 1-.83-3V2.66m9.78 0V9.1a5.86 5.86 0 0 1-.81 2.9" transform="translate(-14.44 -.69)"/><path class="cls-2" d="M37 31.69V21c0-5 5.85-9 13.06-9 7.21 0 13.06 4 13.06 9v10.69" transform="translate(-14.44 -.69)"/><path class="cls-2" d="M27.34 37.62V18.13C27.34 9 37.53 1.69 50.09 1.69c12.57 0 22.75 7.31 22.75 16.44v19.5" transform="translate(-14.44 -.69)"/></svg>