<svg data-name="Layer 1" xmlns="http://www.w3.org/2000/svg" viewBox="0 0 512 467.19"><title>login</title><path d="M356.45 221.33l-54.78-38.62A15 15 0 0 0 278 194.97v23.62H15a15 15 0 1 0 0 30h263v23.62a15 15 0 0 0 23.64 12.26l54.78-38.62a15 15 0 0 0 .03-24.52z"/><path d="M278.41 0A233.57 233.57 0 0 0 76.07 116.78a15.008 15.008 0 1 0 26 15A203.57 203.57 0 0 1 278.41 30C390.67 30 482 121.33 482 233.59s-91.33 203.6-203.59 203.6A203.56 203.56 0 0 1 102 335.38a15.008 15.008 0 1 0-26 15 233.57 233.57 0 0 0 202.41 116.8C407.51 467.19 512 362.71 512 233.59S407.52 0 278.41 0z"/></svg>