<svg id="Слой_2" data-name="Слой 2" xmlns="http://www.w3.org/2000/svg" viewBox="0 0 1275.29 899.8"><defs><style>.cls-1{fill:#7f1ed3}</style></defs><title>logo</title><path class="cls-1" d="M1275.29 657.33L1182.62 756l-2-128-146.67-84-167.33-162.67-158 162.67H566.67l-158-162.67L241.34 544 94.67 628l-2 128L0 657.33 62.67 466V0l340 114 234.98-35.84L872.62 114l340-114v466l62.67 191.33zM638.67 78l-1.02.16"/><path class="cls-1" d="M496.67 544l-88-92.67L311.34 544 322 575.33 223.17 674l45.5 188 121.99 37.8L359.92 699l99.11-112.33L496.67 544zM637.65 78.16l-1.03-.16m142 466l88-92.67L963.96 544l-10.67 31.33 98.83 98.67-45.5 188-121.99 37.8L915.37 699l-99.11-112.33L778.62 544zM637.67 680.78l77.59-59.65-11.4-29.63H571.48l-11.4 29.63 65.52 50.37 12.07 9.28z"/></svg>