<svg id="Capa_1" data-name="Capa 1" xmlns="http://www.w3.org/2000/svg" viewBox="0 0 512 402.28"><defs><style>.cls-1{fill:#fff}</style></defs><title>mail</title><path class="cls-1" d="M49.14 178.86q9.72 6.86 58.57 40.71t74.86 52.14q2.86 2 12.14 8.72t15.43 10.86q6.14 4.14 14.86 9.28a86.2 86.2 0 0 0 16.43 7.71 45.27 45.27 0 0 0 14.29 2.57h.58a45.31 45.31 0 0 0 14.29-2.57 86.29 86.29 0 0 0 16.41-7.71q8.71-5.15 14.86-9.28t15.43-10.86q9.28-6.72 12.14-8.72 26.28-18.28 133.71-92.86A135.73 135.73 0 0 0 498 143.71q14-20.56 14-43.14a43.79 43.79 0 0 0-13.57-32.29q-13.57-13.43-32.14-13.43H45.71q-22 0-33.86 14.85T0 106.86q0 18 15.71 39t33.43 33z" transform="translate(0 -54.86)"/><path class="cls-1" d="M483.43 209.43Q389.72 272.85 341.14 308q-16.29 12-26.43 18.71t-27 13.71q-16.85 7-31.42 7h-.58q-14.57 0-31.43-7t-27-13.71Q187.15 320 170.86 308q-38.57-28.28-142-98.57A151.34 151.34 0 0 1 0 184.57v226.85a44 44 0 0 0 13.43 32.29 44 44 0 0 0 32.29 13.43h420.57A45.85 45.85 0 0 0 512 411.42V184.57a157.55 157.55 0 0 1-28.57 24.86z" transform="translate(0 -54.86)"/></svg>