<svg data-name="Capa 1" xmlns="http://www.w3.org/2000/svg" viewBox="0 0 48.43 29"><title>mastercard</title><path d="M47.21 22.13a.47.47 0 0 0-.23-.06.47.47 0 0 0-.23.06.43.43 0 0 0-.18.17.45.45 0 0 0-.06.23.47.47 0 0 0 .06.23.46.46 0 0 0 .17.17.48.48 0 0 0 .23.06.47.47 0 0 0 .23-.06.45.45 0 0 0 .17-.17.46.46 0 0 0 .06-.23.47.47 0 0 0-.06-.23.43.43 0 0 0-.16-.17zm-.11.67v-.08a.42.42 0 0 0-.09-.12h-.06v.22h-.08v-.54h.3a.11.11 0 0 1 .06 0 .13.13 0 0 1 0 .07.14.14 0 0 1 0 .1.16.16 0 0 1-.1 0l.08.1.06.1h-.1zm0-.31a.14.14 0 0 1-.1 0h-.1v-.15h.1a.084.084 0 0 1 .05.16zm-.46-5.09a.35.35 0 0 0-.15.15.4.4 0 0 0-.05.19.39.39 0 0 0 .2.34.4.4 0 0 0 .19.05.39.39 0 0 0 .17-.05.38.38 0 0 0 .15-.15.39.39 0 0 0 .05-.19.4.4 0 0 0-.05-.19.38.38 0 0 0-.15-.15.38.38 0 0 0-.19-.05.4.4 0 0 0-.22.05zm.35.16a.12.12 0 0 1 0 .07.14.14 0 0 1 0 .1.16.16 0 0 1-.1 0l.07.1.06.1h-.1v-.08a.4.4 0 0 0-.08-.12h-.07v.21h-.08v-.5h.3zm-.19 0h.08a.08.08 0 0 1 0 .06.16.16 0 0 1-.1 0h-.1v-.15h.09zM36 15.49a1 1 0 0 1 .34 0c0 .26-.16 1.48-1.09 1.48a.56.56 0 0 1-.6-.58c.03-.39.26-.9 1.35-.9zm-25 0a.94.94 0 0 1 .34 0c0 .26-.16 1.48-1.09 1.48a.56.56 0 0 1-.6-.58c.01-.39.24-.9 1.35-.9zM33.94 0a14.44 14.44 0 0 0-9.72 3.75A14.44 14.44 0 0 0 14.5 0h-.1a14.5 14.5 0 1 0 9.81 25.28 14.34 14.34 0 0 1-1.48-1.58h3a14.49 14.49 0 0 1-1.47 1.55A14.49 14.49 0 0 0 48.43 14.5 14.49 14.49 0 0 0 33.94 0zM22.9 5.28h2.76a15.11 15.11 0 0 1 1.13 1.55h-4.93c.32-.55.66-1.09 1.04-1.55zm-1.9 3h6.61a15.49 15.49 0 0 1 .63 1.55h-8c.06-.11.34-.71.76-1.55zM5.92 18.19l.88-5.54-2 5.54H3.75l-.14-5.54-.94 5.54H1.18l1.23-7.35h2.26l.08 4.51 1.52-4.51h2.44L7.5 18.19zm5.27 0l.05-.59a2 2 0 0 1-1.59.68 1.46 1.46 0 0 1-1.49-1.66c0-1.72 1.4-2.29 2.74-2.29h.66a1 1 0 0 0 .05-.39c0-.47-.42-.53-1-.53a4.89 4.89 0 0 0-1.68.27l.22-1.33a5.34 5.34 0 0 1 1.85-.29 1.82 1.82 0 0 1 2.12 1.86l-.61 4.25h-1.33zm5.74-1.91c0 2.05-2 2-2.33 2a5 5 0 0 1-1.73-.19l.21-1.35a5 5 0 0 0 1.37.24c.42 0 1 0 1-.54 0-.74-1.93-.57-1.93-2.33 0-1.56 1.16-2 2.3-2a7.2 7.2 0 0 1 1.42.12L17 13.56s-.84-.07-1.05-.07c-.55 0-.85.12-.85.5-.01.78 1.83.4 1.83 2.29zm2.39.54h.4l-.19 1.31a4 4 0 0 1-1.16.2 1.15 1.15 0 0 1-1.23-1.31c0-.61.88-5.66.91-5.69h1.54l-.16.9h.77l-.2 1.44h-.82l-.43 2.68c-.03.21.02.49.56.49zm3.39-4.8a2.07 2.07 0 0 1 2.2 2.26 11 11 0 0 1-.2 1.41h-3.14s-.29 1.24 1.37 1.24a4.81 4.81 0 0 0 1.64-.38l-.27 1.49a3.91 3.91 0 0 1-1.63.25A2.42 2.42 0 0 1 20 15.61c0-1.89 1.15-3.57 2.71-3.57zm4.09 10.12h-5.15a14.33 14.33 0 0 1-.86-1.55h6.84a14.69 14.69 0 0 1-.84 1.58zm-.35-4h-1.59l1-6h1.44l-.14.87s.51-.94 1.2-.94a1.65 1.65 0 0 1 .3 0 5.94 5.94 0 0 0-.57 1.79c-1.09-.29-1.19 1.78-1.64 4.34zm6-.09a7.12 7.12 0 0 1-1.35.21c-1.84 0-2.78-1.27-2.78-3.2 0-2.9 1.73-4.45 3.51-4.45a5.53 5.53 0 0 1 1.74.38l-.25 1.64a2.75 2.75 0 0 0-1.38-.35c-1 0-2 1-2 2.82a1.53 1.53 0 0 0 1.53 1.73 3.7 3.7 0 0 0 1.28-.38zm3.72.07l.05-.59a2 2 0 0 1-1.58.71 1.46 1.46 0 0 1-1.49-1.66c0-1.72 1.4-2.29 2.74-2.29h.66a1 1 0 0 0 .05-.39c0-.47-.42-.53-1-.53a4.88 4.88 0 0 0-1.68.27l.22-1.33a5.34 5.34 0 0 1 1.86-.24 1.82 1.82 0 0 1 2.12 1.86l-.61 4.25zm3.21 0h-1.56l1-6h1.44l-.14.87s.51-.94 1.2-.94a1.63 1.63 0 0 1 .3 0 5.94 5.94 0 0 0-.62 1.9c-1.06-.38-1.14 1.69-1.59 4.25zm7.78-.69a.47.47 0 0 1-.17.64.47.47 0 0 1-.46 0 .47.47 0 0 1-.24-.41.48.48 0 0 1 .06-.23.44.44 0 0 1 .17-.17.48.48 0 0 1 .23-.06.47.47 0 0 1 .23.06.43.43 0 0 1 .21.25zm-2.25-4.6l.33-2.07h1.55l-1.15 7.42h-1.5l.07-.55a1.93 1.93 0 0 1-1.44.65c-1.28 0-1.91-1.24-1.91-2.51 0-2 1.18-3.67 2.59-3.67a2 2 0 0 1 1.49.81zm-21.49 1.65h-1.71c0-.1.16-1.06 1-1.06s.71.99.71 1.06zm20.29-.89c.56 0 .84.38.84 1.28s-.4 1.9-1.24 1.9c-.56 0-.82-.47-.82-1.2.01-1.19.51-1.98 1.22-1.98z" data-name="Layer 1 copy"/></svg>