<svg data-name="Capa 1" xmlns="http://www.w3.org/2000/svg" viewBox="0 0 50.41 13.65"><title>paypal</title><path d="M9 2.22a2 2 0 0 0-.75-.81A3.51 3.51 0 0 0 7.06.97 9.75 9.75 0 0 0 5.44.84H2.6a.72.72 0 0 0-.66.52L0 9.78a.41.41 0 0 0 .41.52H1.8a.7.7 0 0 0 .66-.52l.47-2a.7.7 0 0 1 .66-.52H4a6.5 6.5 0 0 0 3.91-1 3.21 3.21 0 0 0 1.4-2.72A2.55 2.55 0 0 0 9 2.22zM6 4.96a2.89 2.89 0 0 1-1.74.46H4a.41.41 0 0 1-.42-.52L4 3.12a.69.69 0 0 1 .65-.5h.45a2.2 2.2 0 0 1 1.19.27.91.91 0 0 1 .4.82 1.49 1.49 0 0 1-.62 1.26zm18.87-1.1l-5.39 9.26a1.15 1.15 0 0 1-.86.52h-1.43c-.3 0-.39-.24-.21-.52L18.2 11s.1-.12 0-.81c-.2-1.25-1.11-6.57-1.11-6.57a.41.41 0 0 1 .41-.52h1.23a.76.76 0 0 1 .75.54l.61 3.69h.23c.19-.34 2.16-3.71 2.16-3.71a1.19 1.19 0 0 1 .86-.52H25c.47-.02-.05.77-.05.77zm9-1.62a2.12 2.12 0 0 0-.76-.81A3.37 3.37 0 0 0 32 1a9.44 9.44 0 0 0-1.61-.13h-2.86a.71.71 0 0 0-.66.52L24.94 9.8a.41.41 0 0 0 .41.52h1.38a.71.71 0 0 0 .66-.52l.47-2a.71.71 0 0 1 .66-.52h.39a6.54 6.54 0 0 0 3.92-1 3.25 3.25 0 0 0 1.4-2.73 2.68 2.68 0 0 0-.23-1.3zm-3 2.75a2.92 2.92 0 0 1-1.73.45h-.34a.41.41 0 0 1-.42-.52l.42-1.78a.7.7 0 0 1 .66-.52H30a2.22 2.22 0 0 1 1.19.27.92.92 0 0 1 .4.82A1.51 1.51 0 0 1 31 5zM15.65 3.42a5.21 5.21 0 0 0-2.45-.44 10.85 10.85 0 0 0-1.66.13c-.41.06-.45.08-.7.13a.81.81 0 0 0-.6.64l-.17.69c-.1.44.16.42.27.39a7.14 7.14 0 0 1 .82-.24 5.89 5.89 0 0 1 1.29-.17 3.39 3.39 0 0 1 1.25.18.63.63 0 0 1 .41.62v.19l-.2.12c-.78 0-1.34.12-2 .22a6.28 6.28 0 0 0-1.74.48 2.71 2.71 0 0 0-1.18.93 2.54 2.54 0 0 0-.39 1.44 1.7 1.7 0 0 0 .56 1.3 2.1 2.1 0 0 0 1.45.49 4 4 0 0 0 .86-.08l.66-.23.56-.31.52-.34-.05.22a.41.41 0 0 0 .37.51h1.3a.71.71 0 0 0 .59-.51l1-4.33.05-.35v-.33a1.45 1.45 0 0 0-.82-1.35zm-2.21 4.87l-.21.28-.54.28a1.92 1.92 0 0 1-.72.16 1.65 1.65 0 0 1-.78-.15l-.27-.51a1 1 0 0 1 .2-.67l.58-.4a5 5 0 0 1 .9-.2l1-.11.1.17c0 .09-.17.82-.26 1.16zM47.72.37h.46v.19h-.46v.89l.07.07h.35v.2h-.27l-.27-.1-.11-.35V.62h-.15V.43h.15V.05h.23v.38zm-7.13 3a5.22 5.22 0 0 0-2.45-.44 10.45 10.45 0 0 0-1.66.13c-.41.06-.45.07-.71.13a.8.8 0 0 0-.6.64l-.17.79c-.09.44.15.42.27.39a8.13 8.13 0 0 1 .81-.24 6.14 6.14 0 0 1 1.29-.17 3.37 3.37 0 0 1 1.25.18.63.63 0 0 1 .41.62v.19l-.2.13c-.79 0-1.35.12-2 .22a6.28 6.28 0 0 0-1.74.48 2.7 2.7 0 0 0-1.18.93 2.51 2.51 0 0 0-.39 1.43 1.68 1.68 0 0 0 .48 1.25 2.1 2.1 0 0 0 1.44.5 3.83 3.83 0 0 0 .86-.08l.7-.23.57-.31.51-.35v.22a.4.4 0 0 0 .37.51h1.3a.7.7 0 0 0 .58-.52l1-4.33.05-.35v-.33a1.45 1.45 0 0 0-.79-1.33zm-2.21 4.87l-.22.28-.53.28a1.94 1.94 0 0 1-.72.16 1.6 1.6 0 0 1-.78-.15l-.27-.51a1.07 1.07 0 0 1 .2-.67 1.41 1.41 0 0 1 .59-.4 5.1 5.1 0 0 1 .9-.2l1-.11.1.17c-.01.14-.18.88-.27 1.21zm7.36-6.83L43.9 9.74l-.07.1a.7.7 0 0 1-.59.42H42a.39.39 0 0 1-.35-.49l.06-.24 1.72-7.81.06-.27.07-.11a.7.7 0 0 1 .59-.42h1.23a.4.4 0 0 1 .36.55zm4.56-1l.1.37v.87h-.22V.59l-.12.03h-.34l-.19.12v1h-.22V.68L49.2.62h-.34l-.19.12v1h-.22V.38h.22v.15l.21-.14h.22l.23.06.14.16.25-.17h.24z" data-name="Layer 1 copy"/></svg>