<svg data-name="Capa 1" xmlns="http://www.w3.org/2000/svg" viewBox="0 0 426.92 443.62"><title>percent</title><path d="M201.6 100.81A100.8 100.8 0 1 0 100.79 201.6 100.93 100.93 0 0 0 201.6 100.81zm-151.53 0a50.73 50.73 0 1 1 50.72 50.71 50.78 50.78 0 0 1-50.72-50.71zM326.12 242a100.8 100.8 0 1 0 100.8 100.8A100.91 100.91 0 0 0 326.12 242zm0 151.52a50.72 50.72 0 1 1 50.73-50.72 50.79 50.79 0 0 1-50.73 50.74zm3.11-380.59a27.18 27.18 0 0 0-36.91 10.52L86.55 392.92a27.14 27.14 0 1 0 47.42 26.41L339.73 49.85a27.15 27.15 0 0 0-10.5-36.92z"/></svg>