<svg id="Capa_1" data-name="Capa 1" xmlns="http://www.w3.org/2000/svg" viewBox="0 0 341.33 512"><defs><style>.cls-1{fill:#006df0}</style></defs><title>pin</title><path class="cls-1" d="M376.67 50Q326.67 0 256 0T135.33 50q-50 50-50 120.67 0 36.34 11 59.67l121.67 258a38.4 38.4 0 0 0 15.5 17.32 43.12 43.12 0 0 0 45 0 40.43 40.43 0 0 0 15.83-17.32l121.33-258q11-23.33 11-59.67Q426.67 100 376.67 50zm-60.34 181q-25 25-60.33 25t-60.34-25q-25-25-25-60.34t25-60.33q25-25 60.34-25t60.33 25q25 25 25 60.33t-25 60.34z" transform="translate(-85.33)"/></svg>