<svg id="Слой_2" data-name="Слой 2" xmlns="http://www.w3.org/2000/svg" viewBox="0 0 79.18 101.08"><defs><style>.cls-1{fill:none;stroke:#000;stroke-linecap:round;stroke-miterlimit:10;stroke-width:3px}</style></defs><title>pointer</title><path class="cls-1" d="M23.26 25.39A13.79 13.79 0 1 1 41 25.22M23.81 66.68V16.82a8.35 8.35 0 0 1 8.35-8.35 8.35 8.35 0 0 1 8.35 8.35v35.36m0 .52V39.23a7.83 7.83 0 0 1 7.83-7.83 7.83 7.83 0 0 1 7.83 7.83V52.7m.01 0v-9.59A7.83 7.83 0 0 1 64 35.28a7.83 7.83 0 0 1 7.83 7.83v9.59" transform="translate(-9.85 .54)"/><path class="cls-1" d="M23.42 56s-7.89 7.47-9 9-6.26 6.69 0 14.12 14.33 16 15.41 17A10.91 10.91 0 0 0 37.15 99H65.9s10.1.39 14.37-5.4c4-5.38 7.25-9.58 7.25-17.12V47a7.83 7.83 0 0 0-7.83-7.83A7.83 7.83 0 0 0 71.85 47v5.7" transform="translate(-9.85 .54)"/></svg>