<svg id="Слой_2" data-name="Слой 2" xmlns="http://www.w3.org/2000/svg" viewBox="0 0 100 98.66"><defs><style>.cls-1,.cls-2{fill:none;stroke:#000;stroke-width:2px}.cls-1{stroke-linecap:round;stroke-linejoin:round}.cls-2{stroke-miterlimit:10}</style></defs><title>present</title><path class="cls-1" d="M39 46.2H1V25.04h98V46.2H61.08"/><path class="cls-1" transform="rotate(-90 49.735 61.615)" d="M13.69 51.29h72.62v21.17H13.69z"/><path class="cls-1" d="M94.75 46.2v51.46H5.25V46.2"/><path class="cls-2" d="M50 24.81s-18.33-.19-20.75-.5S15.63 22.37 14.5 14c-1.06-7.94 3.89-10.86 3.89-10.86S26-2.07 33.33 6.23c3.1 3.52 4.1 9.4 11.6 15.83A19.7 19.7 0 0 0 50 24.81zm0 0s18.33-.19 20.75-.5S84.37 22.37 85.5 14c1.06-7.92-3.89-10.84-3.89-10.84S74-2.07 66.67 6.23c-3.1 3.52-4.1 9.4-11.6 15.83A19.7 19.7 0 0 1 50 24.81z" transform="translate(0 -.52)"/></svg>