<svg id="Слой_3" data-name="Слой 3" xmlns="http://www.w3.org/2000/svg" viewBox="0 0 100.21 100.21"><defs><style>.cls-1{fill:none;stroke:#000;stroke-miterlimit:10;stroke-width:2px}</style></defs><title>radio</title><circle class="cls-1" cx="50.1" cy="50.1" r="7.25"/><path class="cls-1" d="M50 93.67a43.68 43.68 0 0 1-21.72-5.78L43.72 61a12.7 12.7 0 0 0 12.64 0L72 87.75a43.65 43.65 0 0 1-22 5.92zM37.33 50.12h-31V50a43.82 43.82 0 0 1 21.8-37.8L43.67 39a12.73 12.73 0 0 0-6.34 11zM62.67 50a12.73 12.73 0 0 0-6.36-11l15.48-26.84a43.82 43.82 0 0 1 21.88 37.75z" transform="translate(.1 .1)"/><circle class="cls-1" cx="50.1" cy="50.1" r="49.1" id="Слой_3_копия_" data-name="Слой 3 (копия)"/></svg>