<svg id="Layer_1" data-name="Layer 1" xmlns="http://www.w3.org/2000/svg" viewBox="0 0 490 490"><defs><style>.cls-1{fill:#fff}</style></defs><title>search</title><path class="cls-1" d="M495 466.2L377.2 348.4A205.77 205.77 0 0 0 424 217.5C424 103.5 331.5 11 217.5 11S11 103.5 11 217.5 103.4 424 217.5 424a205.41 205.41 0 0 0 130.8-46.7L466.1 495a20.4 20.4 0 0 0 28.9-28.8zm-277.5-83.3C126.2 382.9 52 308.7 52 217.5S126.2 52 217.5 52 383 126.3 383 217.5s-74.3 165.4-165.5 165.4z" transform="translate(-11 -11)"/></svg>