<svg data-name="Layer 1" xmlns="http://www.w3.org/2000/svg" viewBox="0 0 274.11 347.5"><title>security</title><g data-name="svg 49"><g data-name="svg 30"><g data-name="svg 31"><path data-name="svg 33" d="M260.45 34l-1.44-5.56-5.62-.74c-10.77-1.39-21.32-17.53-24.14-23.08l-2.39-4.63H47.39l-2.35 4.64c-2.82 5.54-13.3 21.66-24.14 23.07l-5.68.74L13.78 34c-64.7 250.11 119.07 312.22 120.95 312.78l2.45.72 2.45-.74c1.87-.59 185.08-64.55 120.83-312.76zM137.13 329.58c-22.15-8.61-161.28-72-108.17-286.38 13.92-4.73 24-18.69 28.58-26.19h159.18c4.59 7.5 14.65 21.47 28.58 26.19 53.12 214.35-86 277.77-108.17 286.38z"/></g></g></g></svg>