<svg data-name="Capa 1" xmlns="http://www.w3.org/2000/svg" viewBox="0 0 93.04 73.91"><title>speaker</title><path d="M46.55 65.96a4.22 4.22 0 0 1-6.92 3.25l-23.1-19.14H4.22A4.22 4.22 0 0 1 0 45.85V29.02a4.23 4.23 0 0 1 4.22-4.23h12.3l23.1-19.14a4.23 4.23 0 0 1 6.92 3.25v57.06zm16.24-6.6h-.3a4.22 4.22 0 0 1-3-1.24l-.56-.57a4.22 4.22 0 0 1-.41-5.5 24.57 24.57 0 0 0-.65-30.11 4.22 4.22 0 0 1 .29-5.65l.56-.57a4.13 4.13 0 0 1 3.2-1.23A4.23 4.23 0 0 1 65 16.05a33.84 33.84 0 0 1 .88 41.62 4.23 4.23 0 0 1-3.1 1.69zm17.46 13.08a4.23 4.23 0 0 1-3.05 1.5H77a4.22 4.22 0 0 1-3-1.24l-.56-.56a4.23 4.23 0 0 1-.21-5.7 45 45 0 0 0-.75-58.83 4.23 4.23 0 0 1 .17-5.78l.55-.56A4.11 4.11 0 0 1 76.31.03a4.23 4.23 0 0 1 3 1.42 54.25 54.25 0 0 1 .89 71z"/></svg>