<svg id="Capa_1" data-name="Capa 1" xmlns="http://www.w3.org/2000/svg" viewBox="0 0 512 510.84"><defs><style>.cls-1{fill:#fff}</style></defs><title>tel</title><path class="cls-1" d="M500.52 404.63l-79.07-79.08c-15.75-15.69-41.83-15.21-58.13 1.09l-39.84 39.83c-2.52-1.39-5.12-2.84-7.86-4.37-25.16-13.94-59.59-33-95.82-69.3s-55.46-70.82-69.44-96c-1.48-2.67-2.89-5.24-4.28-7.68l26.74-26.7L186 149.27c16.32-16.33 16.77-42.4 1.06-58.13L108 12.05C92.24-3.66 66.15-3.18 49.82 13.15L27.54 35.56l.61.6A128.86 128.86 0 0 0 9.78 68.55a134.29 134.29 0 0 0-8.17 32.85C-8.83 188 30.73 267.07 138.07 374.41 286.45 522.78 406 511.58 411.19 511a133.6 133.6 0 0 0 32.94-8.28 128.43 128.43 0 0 0 32.27-18.28l.49.43 22.58-22.11c16.29-16.29 16.76-42.37 1.05-58.13z" transform="translate(0 -.58)"/></svg>