<svg data-name="Capa 1" xmlns="http://www.w3.org/2000/svg" viewBox="0 0 512 468"><title>urgently</title><path d="M256 89a116.13 116.13 0 0 0-116 116v92.63a7.5 7.5 0 0 0 15 0V205a101 101 0 0 1 202 0v28.5a7.5 7.5 0 0 0 15 0V205A116.13 116.13 0 0 0 256 89z"/><path d="M271 151h-30a7.5 7.5 0 0 0-7.5 7.5v110a7.5 7.5 0 0 0 7.5 7.5h30a7.5 7.5 0 0 0 7.5-7.5v-110a7.5 7.5 0 0 0-7.5-7.5zm-7.5 110h-15v-95h15zm-7.5 27a22.5 22.5 0 1 0 22.5 22.5A22.53 22.53 0 0 0 256 288zm0 30a7.5 7.5 0 1 1 7.5-7.5 7.51 7.51 0 0 1-7.5 7.5z"/><path d="M489.5 423h-86v-52.5a7.5 7.5 0 0 0-7.5-7.5h-24v-96.75a7.5 7.5 0 0 0-15 0V363H155v-33a7.5 7.5 0 0 0-15 0v33h-24a7.5 7.5 0 0 0-7.5 7.5V423h-86a22.5 22.5 0 0 0 0 45h467a22.5 22.5 0 0 0 0-45zm0 30h-467a7.5 7.5 0 0 1 0-15h298a7.5 7.5 0 0 0 0-15h-197v-45h265v45h-36.17a7.5 7.5 0 0 0 0 15H489.5a7.5 7.5 0 0 1 0 15zM256 0a7.5 7.5 0 0 0-7.5 7.5v34.86a7.5 7.5 0 1 0 15 0V7.5A7.5 7.5 0 0 0 256 0zm-80.52 61.85L158 31.66a7.51 7.51 0 0 0-13 7.52l17.5 30.19a7.51 7.51 0 0 0 13-7.52zM109 122.48L78.74 105a7.5 7.5 0 0 0-7.48 13l30.29 17.43a7.5 7.5 0 0 0 7.48-13zM82 208H47a7.5 7.5 0 0 0 0 15h35a7.5 7.5 0 1 0 0-15zm383 0h-35a7.5 7.5 0 0 0 0 15h35a7.5 7.5 0 0 0 0-15zm-21.5-100.63a7.5 7.5 0 0 0-10.24-2.76L403 122a7.5 7.5 0 1 0 7.48 13l30.29-17.43a7.5 7.5 0 0 0 2.73-10.2zm-79.24-79.21A7.5 7.5 0 0 0 354 30.89l-17.48 30.2a7.51 7.51 0 1 0 13 7.52L367 38.41a7.5 7.5 0 0 0-2.74-10.25z"/><path d="M180 391.69h-33a7.5 7.5 0 0 0 0 15h33a7.5 7.5 0 0 0 0-15z"/></svg>