<svg id="Capa_1" data-name="Capa 1" xmlns="http://www.w3.org/2000/svg" viewBox="0 0 353.12 471.22"><defs><style>.cls-1{stroke:#000;stroke-miterlimit:10;stroke-width:3px}</style></defs><title>verifed</title><path class="cls-1" d="M408.58 113.52a8 8 0 0 0-6.56-7.36C301.54 85.52 241.06 4.08 240.5 3.28l-.64-.64v-.4A8 8 0 0 0 237.7.8h-.48a7.12 7.12 0 0 0-6.56 0l-.8.56A8 8 0 0 0 228 3h-.4c-.64 1.12-61 82.48-161.6 103.2a8 8 0 0 0-6.4 7.36c-.72 12.32-16 301.36 172.32 354.4a8 8 0 0 0 4.32 0C424.9 414.88 409.3 125.84 408.58 113.52zM226 449.28c-83.44-29-121.12-113.2-137.76-189.92l-.16-.16H226zm0-205.92H85a616 616 0 0 1-9.7-122.72l-.08-.16A304 304 0 0 0 226 29.92zm16 205.92V259.36h137.86C363.14 336.08 325.54 420.24 242 449.28zM383 243.2H242V29.92a304 304 0 0 0 150.64 90.7A615.23 615.23 0 0 1 383 243.2z" transform="translate(-57.55 1.5)"/></svg>