<svg data-name="Capa 1" xmlns="http://www.w3.org/2000/svg" viewBox="0 0 836.55 910.29"><title>verification</title><path d="M836.34 202.06l-1.21-28.51-28.39-2.91c-109-11.2-202.77-51.89-262.21-84C479.43 51.36 439.97 18.31 439.61 18L418.3 0l-21.33 18c-.39.33-39.85 33.38-105 68.6-59.44 32.16-153.17 72.85-262.21 84l-28.39 2.91-1.21 28.51c-.22 5.1-4.78 126.7 42.06 273.94 27.64 86.89 67.55 164.74 118.63 231.4 64.14 83.7 145.95 149.68 243.16 196.1l14.22 6.79 14.22-6.79c97.21-46.42 179-112.4 243.16-196.1 51.08-66.66 91-144.51 118.63-231.4 46.89-147.2 42.31-268.8 42.1-273.9zM418.27 836.93C337.13 795.72 268.54 739 214.08 668.28c-46.39-60.28-82.81-131-108.25-210.2-31.09-96.81-38.06-183.14-39.47-225.54a734 734 0 0 0 131.83-32.6 843.79 843.79 0 0 0 126.94-56.21 822.07 822.07 0 0 0 93.17-58.81 822.25 822.25 0 0 0 93.17 58.81 843.7 843.7 0 0 0 126.91 56.22 733.94 733.94 0 0 0 131.87 32.6c-1.36 42-8.19 127.1-38.84 223.44-25.32 79.59-61.69 150.67-108.12 211.26-54.62 71.24-123.53 128.27-205.02 169.68z"/><path d="M598.15 305.02l-46.05 46.04-171.6 171.6-86.97-86.97-11.82-11.82-23.34 23.33-23.33 23.34L380.5 616l264.32-264.31-46.67-46.67z"/></svg>