<svg data-name="Capa 1" xmlns="http://www.w3.org/2000/svg" viewBox="0 0 512 303.62"><title>vip</title><path d="M304.09 0v15.09h192.82v273.44h-80.62v15.09H512V0H304.09zM175.38 231.96h-15.09v40.54H112.2v16.03H15.09V135.78H0v167.84h127.29v-16.03h33v16.03h231.96v-15.09H175.38v-56.57zM15.09 15.09h97.11v56.57h15.09V31.12h48.09V15.09h104.66V0H160.29v16.03h-33V0H0v111.73h15.09V15.09zm97.11 72.6h15.09v16.03H112.2zm0 32.06h15.09v16.03H112.2zm0 32.06h15.09v16.03H112.2z"/><path d="M112.2 183.87h15.09v16.03H112.2zm0 32.05h15.09v16.03H112.2zm48.09-16.02h15.09v16.03h-15.09zm0-32.06h15.09v16.03h-15.09zm0-32.06h15.09v16.03h-15.09zm0-32.06h15.09v16.03h-15.09zm0-32.05h15.09V87.7h-15.09zm93.13 128.7L215.07 85.31l-14.32 4.77 41.8 125.38h26.9l41.8-125.38-14.32-4.77-38.35 115.06h-5.16zm91.21-112.68h15.09v128.23h-15.09zm127.3 64.12v-48.09c0-10.11-8-15.56-15.56-15.56h-71.66v127.77h15.09v-48.56h56.57c10.1 0 15.56-8.02 15.56-15.56zm-72.13-48.56h56.57s.25.06.45.13v48.43s-.06.25-.13.46h-56.9zm80.14-31.59v-39.6h-87.69v15.09h72.6v24.51h15.09zm-119.75-39.6h16.03v15.09h-16.03zm-328.13 0v239.5h63.18V32.06zm48.09 224.41h-33V47.15h33z"/></svg>