<svg data-name="Capa 1" xmlns="http://www.w3.org/2000/svg" viewBox="0 0 47.83 14.73"><title>visa</title><path d="M44.69.26h-3a1.93 1.93 0 0 0-2 1.18l-5.82 13.08H38s.67-1.76.82-2.14h5c.12.5.47 2.14.47 2.14h3.61zm-4.8 9.19l1.55-4s.32-.83.52-1.36l.26 1.23.9 4.12zm-5.75.39c0 3-2.68 4.88-6.77 4.88a12.31 12.31 0 0 1-4.37-.75l.55-3.19.5.23a8.16 8.16 0 0 0 3.66.75c1.12 0 2.31-.44 2.33-1.39 0-.62-.5-1.07-2-1.77s-3.43-1.83-3.41-3.88c0-2.77 2.73-4.71 6.57-4.71a10 10 0 0 1 3.48.6l-.53 3.09-.35-.17a7.18 7.18 0 0 0-2.91-.55c-1.52 0-2.23.63-2.23 1.23s.82 1.11 2.18 1.77c2.29 1.02 3.32 2.25 3.31 3.87zM0 .45L.05.16h6a1.56 1.56 0 0 1 1.69 1.16l1.31 6.3C7.8 4.29 4.69 1.55 0 .45zM17.58.3l-6.12 14.2H7.34L3.86 2.61a15.26 15.26 0 0 1 5.39 5.91l.41 1.47L13.47.26zm1.57 0H23l-2.39 14.22h-3.89z" data-name="Layer 1 copy"/></svg>