<svg data-name="Слой 3" xmlns="http://www.w3.org/2000/svg" viewBox="0 0 94.52 54.77"><title>vk-news</title><path d="M44.88 0c2.17.34 4.37.19 6.54.65 3.51.74 4.84 2.23 4.82 5.86 0 3.79-.16 7.59-.27 11.38-.05 1.92.07 3.83.2 5.74a1.15 1.15 0 0 0 0 .24c.22.77.43 1.67 1.28 1.89s1.31-.51 1.75-1.06a78.12 78.12 0 0 0 7-10.29 58.3 58.3 0 0 0 4.07-8.66 4.29 4.29 0 0 1 4.5-3.16c5.23 0 10.47-.11 15.7-.12 3.17 0 4.52 1.74 3.81 4.82a17 17 0 0 1-2.47 5.29c-3.37 5.36-7.27 10.25-11.11 15.29-1.89 2.5-1.81 3.75.48 5.88a98.65 98.65 0 0 1 10.27 10.73 20.24 20.24 0 0 1 2.44 3.7c1.48 3.08.24 5.57-3.12 6.28a20.69 20.69 0 0 1-4.06.24c-3.16 0-6.32 0-9.47.06-4.32.14-7.6-1.8-10.31-4.93a61.08 61.08 0 0 0-5.53-6c-2.41-2.13-3.58-1.78-4.54 1.33a18.64 18.64 0 0 0-.7 4.61c-.16 3.24-1.45 4.48-4.65 4.72-6.69.5-13.15-.22-19.18-3.42a40.86 40.86 0 0 1-14.07-12.44A150.87 150.87 0 0 1 1.48 9.52C.98 8.35.4 7.21 0 6V4.8C.77 3 2.31 2.48 4.07 2.47h13.3a4.3 4.3 0 0 1 3.95 2.47 22.56 22.56 0 0 1 1 2.06 74.68 74.68 0 0 0 9.33 16.4 9.85 9.85 0 0 0 1.23 1.47c1.74 1.59 2.49 1.38 3-.93A40.88 40.88 0 0 0 36.14 10a4.25 4.25 0 0 0-3.61-3.91c-2-.44-2.35-1.72-.91-3.24A8 8 0 0 1 36.85.49c2.06-.2 4.12-.33 6.19-.5zM33.21 4.16A6.24 6.24 0 0 1 38.1 9.8a46 46 0 0 1 .15 11.71 11.58 11.58 0 0 1-1.29 5.06 2.52 2.52 0 0 1-3.48 1.14 7.28 7.28 0 0 1-3-2.45 89.08 89.08 0 0 1-7-10.89c-1.34-2.51-2.41-5.13-3.56-7.72-.52-1.18-1.2-2.16-2.71-2.15H4.02c-2 0-2.24.6-1.49 2.38a145.09 145.09 0 0 0 10.65 20.4c3.5 5.64 7 11.26 11.84 15.93a31.82 31.82 0 0 0 26.81 9.21c1.66-.18 2-.56 2.24-2.24a28.38 28.38 0 0 1 .95-6c1.33-4 4.1-4.81 7.34-2.19q.37.3.73.63c2.06 1.9 3.8 4.1 5.66 6.19a10.74 10.74 0 0 0 8.5 4c3.92-.08 7.83-.12 11.75-.16a5.87 5.87 0 0 0 2-.35c1.43-.53 1.81-1.4 1.23-2.83a15.42 15.42 0 0 0-2.26-3.53A102.14 102.14 0 0 0 79.7 35.16c-3-2.86-3.14-5.21-.64-8.53 3.85-5.11 7.85-10.1 11.28-15.51a15.41 15.41 0 0 0 2-4.2c.48-1.78 0-2.42-1.83-2.42-5.24 0-10.48 0-15.72.07a2.44 2.44 0 0 0-2.53 1.77 71.77 71.77 0 0 1-11 19 10.65 10.65 0 0 1-1.28 1.42c-2 1.75-4.13 1.32-5.3-1a9.77 9.77 0 0 1-.72-4.1c-.19-5 .2-10.07.22-15.11 0-2.64-.76-3.53-3.33-4a53.15 53.15 0 0 0-13.75-.14 6.15 6.15 0 0 0-3.89 1.75z"/></svg>