<svg id="Слой_4" data-name="Слой 4" xmlns="http://www.w3.org/2000/svg" viewBox="0 0 99.24 99.24"><defs><style>.cls-1{fill:none;stroke:#000;stroke-miterlimit:10;stroke-width:2px}</style></defs><title>vk</title><path d="M47.71 26.28c1.9.3 3.84.17 5.74.57 3.09.65 4.25 2 4.23 5.15s-.14 6.66-.23 10c0 1.69.06 3.36.18 5a1 1 0 0 0 0 .21c.2.68.37 1.47 1.12 1.66s1.15-.44 1.54-.93a68.6 68.6 0 0 0 6.16-9A51.19 51.19 0 0 0 70 31.33a3.77 3.77 0 0 1 4-2.78c4.6 0 9.19-.1 13.79-.11 2.79 0 4 1.53 3.34 4.23A14.91 14.91 0 0 1 89 37.32c-3 4.67-6.46 9-9.8 13.43-1.66 2.19-1.59 3.29.42 5.17a86.62 86.62 0 0 1 9 9.41 17.77 17.77 0 0 1 2.14 3.25c1.3 2.7.21 4.89-2.74 5.51a18.17 18.17 0 0 1-3.57.21c-2.77 0-5.55 0-8.32.06-3.79.12-6.67-1.58-9.05-4.33a53.64 53.64 0 0 0-4.85-5.25c-2.12-1.87-3.15-1.56-4 1.17a16.37 16.37 0 0 0-.61 4c-.14 2.85-1.27 3.93-4.08 4.14-5.88.44-11.54-.2-16.84-3A35.88 35.88 0 0 1 24.34 60.2 132.47 132.47 0 0 1 9.6 34.64c-.44-1-.95-2-1.3-3.09v-1.06a3.49 3.49 0 0 1 3.58-2h11.68A3.78 3.78 0 0 1 27 30.63a19.8 19.8 0 0 1 .85 1.81 65.57 65.57 0 0 0 8.19 14.4 8.65 8.65 0 0 0 1.08 1.29c1.53 1.4 2.19 1.21 2.59-.82A35.89 35.89 0 0 0 40 35.06a3.73 3.73 0 0 0-3.17-3.44c-1.76-.38-2.06-1.51-.8-2.84a7 7 0 0 1 4.59-2.07c1.81-.17 3.62-.29 5.43-.44zm-10.24 3.65a5.48 5.48 0 0 1 4.3 5 40.38 40.38 0 0 1 .13 10.29 10.17 10.17 0 0 1-1.13 4.44 2.22 2.22 0 0 1-3.06 1 6.39 6.39 0 0 1-2.71-2.2 78.22 78.22 0 0 1-6.1-9.56c-1.17-2.2-2.12-4.5-3.12-6.78-.46-1-1.05-1.9-2.38-1.89H11.82c-1.72 0-2 .52-1.31 2.09a127.4 127.4 0 0 0 9.36 17.87c3.08 4.95 6.15 9.88 10.39 14a27.94 27.94 0 0 0 23.54 8.09c1.46-.16 1.8-.49 2-2a24.92 24.92 0 0 1 .83-5.29c1.17-3.49 3.6-4.22 6.44-1.93q.33.26.64.55c1.81 1.67 3.34 3.6 5 5.43a9.43 9.43 0 0 0 7.46 3.51c3.44-.07 6.88-.1 10.32-.14a5.15 5.15 0 0 0 1.75-.31 1.62 1.62 0 0 0 1.08-2.48 13.54 13.54 0 0 0-2-3.1 89.69 89.69 0 0 0-9-9.43c-2.63-2.51-2.75-4.58-.56-7.49 3.38-4.48 6.9-8.87 9.91-13.62a13.53 13.53 0 0 0 1.76-3.69c.42-1.56 0-2.12-1.61-2.12-4.6 0-9.2 0-13.8.06a2.15 2.15 0 0 0-2.22 1.56 63 63 0 0 1-9.61 16.72A9.35 9.35 0 0 1 61 49.83c-1.73 1.53-3.62 1.16-4.66-.91a8.58 8.58 0 0 1-.64-3.6c-.17-4.42.18-8.84.2-13.26 0-2.32-.67-3.1-2.93-3.47a46.67 46.67 0 0 0-12.07-.13 5.4 5.4 0 0 0-3.43 1.47z" transform="translate(-.09 -.68)"/><rect class="cls-1" x="1" y="1" width="97.24" height="97.24" rx="20" ry="20"/></svg>