<svg data-name="Capa 1" xmlns="http://www.w3.org/2000/svg" viewBox="0 0 49.89 13.14"><title>webmoney</title><g data-name="Capa 1"><path d="M8 5.34c-1.12 0-1.7.82-1.7 2s.52 2 1.78 2a2.62 2.62 0 0 0 1.33-.35v-.57a2.31 2.31 0 0 1-1.19.39c-.77 0-1.14-.4-1.14-1.3h2.46v-.27c0-1.3-.54-1.9-1.54-1.9zm-.91 1.6c.08-.75.43-1.1.89-1.1s.79.31.82 1.1zm4.9-1.6a2.26 2.26 0 0 0-.99.28V3.48l-.78.19V8.9a3.49 3.49 0 0 0 1.46.37c1.09 0 1.76-.68 1.76-2.08.01-1.21-.5-1.85-1.44-1.85zm-.33 3.4a1.73 1.73 0 0 1-.66-.12V6.17a1.57 1.57 0 0 1 .82-.25c.5 0 .85.31.85 1.26-.01 1.21-.43 1.56-.98 1.56zM27.5 6.46v2.71h-.78V6.62c0-.59-.29-.7-.68-.7a2.07 2.07 0 0 0-.91.27v3h-.78v-3.3a3.84 3.84 0 0 1 1.91-.55c.93 0 1.27.35 1.27 1.12zm-9-2.6h.93v5.31h-.81V5.32h-.07L17 9.17h-.48L15 5.41h-.07v3.76h-.67V3.86h.91l1.68 4.19zM22 5.34c-1 0-1.71.65-1.71 2s.68 2 1.71 2 1.71-.68 1.71-2-.71-2-1.71-2zm0 3.4c-.53 0-.92-.41-.92-1.44s.43-1.44.92-1.44.92.43.92 1.44-.43 1.44-.92 1.44zm24 1.45l1.32 1.51a7.16 7.16 0 0 1-.86.57A6.57 6.57 0 1 1 46.15.62l.41.22-.6.54-.96-.9-1.53 1.37-.91-1-2.86 2.57 1.83 2-.72.63 1.81 2-.72.63 2.62 2.94zm3.14-4.08l.7.78-.78.7-.7-.78zm-14.83-.65h.8L33.8 9.21c-.37 1-.83 1.57-1.69 1.57v-.61c.51 0 .82-.4 1-1l-1.44-3.75h.82l1 2.76zm-4.43-.13c-1.12 0-1.7.82-1.7 2s.52 2 1.77 2a2.62 2.62 0 0 0 1.33-.35v-.57a2.3 2.3 0 0 1-1.19.39c-.77 0-1.14-.4-1.14-1.3h2.44v-.27c.05-1.29-.53-1.89-1.46-1.89zM29 6.94c.08-.75.44-1.1.89-1.1s.79.31.82 1.1zm19.1 1.93l1.06 1.17L48 11.09l-1.07-1.17zM45 1.62l1 1.22-1.17 1.06-1.01-1.18zm-2.48.41l1.4 1.59-1.56 1.41L41 3.48zM46 6.25l-1.1-1.17 1.17-1.06 1.06 1.17zm1.45-1.75l.78-.7.7.78-.78.7zM5.23 3.86h.88L4.89 9.17h-.8l-1-3.74H3L2 9.17h-.79L0 3.86h.84l.84 4h.05l1-4h.67l1 4h.05zM47 8.73l-1.1-1.17 1.17-1.06 1.06 1.17zm-.55-6.55l.78-.7.7.78-.78.7zm-2.93 5.53l-1.41-1.56 1.56-1.41L45 6.3zm1.11 2.7l-1.4-1.56 1.56-1.41L46.2 9z" data-name="Layer 1 copy"/></g></svg>