<svg id="Слой_2" data-name="Слой 2" xmlns="http://www.w3.org/2000/svg" viewBox="0 0 99.36 100.38"><defs><style>.cls-1,.cls-2{fill:none;stroke:#000;stroke-width:2px}.cls-1{stroke-miterlimit:10}.cls-2{stroke-linejoin:round}</style></defs><title>work</title><circle class="cls-1" cx="51.58" cy="11" r="10"/><path class="cls-1" d="M15.18 40.42c-5.76 9-4.41 16.94-5.34 23.9-.4 2.9-.28 7.68-2.67 15.07-1.33 4.08-5.84 12.35-5.84 12.35a5.58 5.58 0 0 0 3.5 7c2.9 1 5.23.08 7-3.5a94.51 94.51 0 0 0 5.34-12.34A72.06 72.06 0 0 0 20 71.81c1.16-6 2-10.9 3.17-11.08s6.52 7.22 8.07 10 2.09 4.46 2.64 9.9a95.9 95.9 0 0 1 0 13.13 5.58 5.58 0 0 0 5.56 5.56A5.58 5.58 0 0 0 45 93.75s.37-6.41 0-13.13c-.5-9.06-2.46-13.75-4.06-16.56-2.72-4.8-7.14-11.49-7.14-11.49" transform="translate(-.04 .06)"/><path class="cls-2" d="M22.48 31.9l-8.54 10a5.58 5.58 0 0 1-7.84.6 5.58 5.58 0 0 1-.6-7.84s6.9-8.16 8.54-10c1.47-1.93 19.89-19.51 37.59 7a105.18 105.18 0 0 1 4.35 15l2.26 12.93A5.58 5.58 0 0 1 53.72 66a5.58 5.58 0 0 1-6.44-4.52L45 48.54l-1-5.77a.44.44 0 0 0-.76-.23l-9.43 10-18.63-12.12z" transform="translate(-.04 .06)"/><path transform="rotate(30 62.853 67.599)" d="M56 66.64h14v2H56z"/><path transform="rotate(30 40.802 54.867)" d="M34.5 53.91h12.88v2H34.5z"/><path class="cls-1" d="M51 99.07h47.38A15 15 0 0 0 95.75 90c-3.12-4.78-9.37-14.91-11.62-21.66s-6-12.12-10.5-5.75-3.75 9.5-5.62 11.5-6.86 2.21-9.68 5.23-4.58 8.05-5.08 10.68S51 99.07 51 99.07z" transform="translate(-.04 .06)"/></svg>