<svg data-name="Capa 1" xmlns="http://www.w3.org/2000/svg" viewBox="0 0 49.08 17.12"><title>yandexmoney</title><path d="M5.2 8.8H1.58c0 1-.07 2-.16 3.05a7.55 7.55 0 0 1-.67 2.62.56.56 0 0 1-.69.4h-.07v2.22h1.09v-1.44H5v1.47h1v-2.26h-.8zM4 14.85H1.66c.2-.51.45-1 .6-1.52a11.54 11.54 0 0 0 .31-3.17v-.51H4v5.2zM11.8 2.1h-2v.71a6.4 6.4 0 0 1-.4 2.35c-.08.19-.14.39-.46.35v1.23h.59v-.8h2.21v.8h.56V5.51h-.46zm-.65 3.39H9.81a5.35 5.35 0 0 0 .56-2.91h.82zm-.81 9.53c-1.06.22-1.75-.08-2.05-.84A5.08 5.08 0 0 1 8 12.32h3.46c0-.53-.05-1.06-.15-1.56a3.28 3.28 0 0 0-.83-1.74 1.57 1.57 0 0 0-1.66-.4 2.22 2.22 0 0 0-1.41 1.15 5.21 5.21 0 0 0-.27 4.67A2.13 2.13 0 0 0 8.2 15.6a3.6 3.6 0 0 0 3.31-.35l-.21-.52c-.3.09-.64.21-.96.29zm-1.77-5.2a.82.82 0 0 1 .74-.4.83.83 0 0 1 .71.45 3.27 3.27 0 0 1 .37 1.73H8a3.48 3.48 0 0 1 .57-1.78zm5.86-3.69a3.81 3.81 0 0 0 .84-.2c.3-.1.31-.2.1-.42-.18.05-.36.12-.54.15a.92.92 0 0 1-1.07-.33 2.07 2.07 0 0 1-.2-1.21h1.93a2.53 2.53 0 0 0-.44-1.77 1 1 0 0 0-1.45-.16 1.85 1.85 0 0 0-.44.52 2.67 2.67 0 0 0-.35 1.68 3.72 3.72 0 0 0 .3 1.06 1.24 1.24 0 0 0 1.33.68zm-.56-3.49a.46.46 0 0 1 .77 0 1.65 1.65 0 0 1 .23 1h-1.33a1.74 1.74 0 0 1 .34-1.01zm5.17 3.29a5 5 0 0 1-.59 0c-.07 0-.14-.09-.18-.16l-1-1.43a.62.62 0 0 0-.22-.21 2.25 2.25 0 0 0-.12.46v1.34h-.62V2.1H17v1.68l.19-.18c.35-.42.72-.83 1-1.26a.57.57 0 0 1 .59-.25h.26l-.15.2c-.37.45-.74.9-1.13 1.35a.23.23 0 0 0 0 .33zM7.61 4.26H6.45v1.76h-.64V2.1h.62v1.58h1.18V2.11h.63v3.91h-.62zm9.54 4.67v6.76H16v-3.12h-1.51c-.53 0-.53 0-.53.44v2.68h-1.11v-6.9h1.1v2.83H16V8.79h1c.06.01.12.09.16.14zm15.3-.15h1.06v6.92h-1.25v-4.54l-2.1 4.54h-1.1V8.79h1.12v4.23h.05l.59-1.25c.44-1 .89-1.9 1.32-2.85a.29.29 0 0 1 .32-.14zM1.76 6.02a.39.39 0 0 0 .42-.21c.37-.61.77-1.2 1.16-1.81.18-.28.2-.28.62-.2v2.22h.72V.32c0-.3 0-.3-.37-.3h-1a1.74 1.74 0 0 0-1.2.44 1.9 1.9 0 0 0 .67 3.28L1.22 6.02h.54zm.81-3.1a1.35 1.35 0 0 1-.39-1.43 1.31 1.31 0 0 1 .05-.12c.32-.73.73-.93 1.7-.81v2.61c-.48 0-.99.12-1.36-.25zm17.17 2.52a2.25 2.25 0 0 1-.4-1.64 2.31 2.31 0 0 1 .56-1.39 1.58 1.58 0 0 1 2-.21l-.25.31h-.06c-.78-.21-1.25 0-1.49.62a2.53 2.53 0 0 0-.1 1.43c.19.92.92 1.24 2 .89.1.43 0 .48-.46.6a1.73 1.73 0 0 1-1.8-.61zm29.31 3.88a.77.77 0 0 0-.84-.6h-.42c-.14 0-.34.06-.34.28v3.15a1.47 1.47 0 0 1-1.18 1.26l-6 1.32a3.16 3.16 0 0 1-.69.07.38.38 0 0 1-.28-.15s.06-.17.13-.23a1.08 1.08 0 0 1 .33-.17l1.11-.37 4.46-1.48a1.34 1.34 0 0 0 1-1.24V5.69a.67.67 0 0 0-.49-.66 1.35 1.35 0 0 0-1.09.14l-6.31 3a1.43 1.43 0 0 0-1 1.33v5.17a.82.82 0 0 0 0 .26 1.45 1.45 0 0 0 1.49.92h8.86a1.29 1.29 0 0 0 .85-.26 1 1 0 0 0 .29-.89v-5a1.65 1.65 0 0 0 .13-.39zm-6.15-.54a1.1 1.1 0 0 1 1-.69.57.57 0 0 1 .66.46c.07.46-.5 1-1.06 1s-.76-.36-.59-.78zm-21.6 2.5h-1.37V8.8H19v6.88h2.08a2.34 2.34 0 0 0 2.16-1.31 2.43 2.43 0 0 0 .12-1.49 2 2 0 0 0-2.05-1.6zm.53 2.63c-.18.76-1 1.12-1.9.9V12.3c0-.06.1-.15.17-.16.94-.2 1.57.11 1.73.9a2.07 2.07 0 0 1 .01.86zm2.52-5.11h4.15v.69h-3.11v6.21h-1c-.03-2.3-.03-4.6-.03-6.91z" data-name="Layer 1 copy"/></svg>