<svg id="Слой_1" data-name="Слой 1" xmlns="http://www.w3.org/2000/svg" viewBox="0 0 96.8 73.02"><defs><style>.cls-1{fill:#f74141}.cls-2{fill:#f6494e}.cls-3{fill:#212121}</style></defs><title>logo</title><path class="cls-1" d="M-27.68 234.74a29.19 29.19 0 0 1-4.47-7.3l-3.37-7.28a29.57 29.57 0 0 0-4.68-7.24 18.68 18.68 0 0 0-6.55-4.58v-.53a35.93 35.93 0 0 0 8.37-4.68 18 18 0 0 0 5-6.24 20.12 20.12 0 0 0 1.84-9 21.47 21.47 0 0 0-1-7 16.48 16.48 0 0 0-3-5.29 15.93 15.93 0 0 0-4.71-3.77 26.75 26.75 0 0 0-7.73-2.7 55.38 55.38 0 0 0-10.72-.89h-24.75l-5 .32c-3.4-.15-.8-.65-3.7 0a1.6 1.6 0 0 0-1.35 2 9.4 9.4 0 0 1-9.9 11 9 9 0 0 1-4.84-1.75 4 4 0 0 0-.91-.58 1.53 1.53 0 0 0-1.78.43 36.82 36.82 0 0 0-8.19 14.45 1.6 1.6 0 0 0 1 2.05 9.14 9.14 0 0 1 5.6 8.75 8.81 8.81 0 0 1-5 8.16c-1.91 1-1.8 1.71-1.29 3.23a36.74 36.74 0 0 0 5.15 10.14c.79 1.09 1.66 2.14 2.54 3.17s1.63 1.09 2.73.27a9.26 9.26 0 0 1 11.8.38 9.13 9.13 0 0 1 3.14 8.66 1.62 1.62 0 0 0 1.33 2.08c2.85.69 1.66-.34 6.67 0l2 .24h35.54l-3.92-13.53c-1.93-.5-1.87-.28-2.58-.92a8.08 8.08 0 0 1-2-3.26c-.25-1.07-1.88-3.45-1.88-6.12l-9-8.25 2.78 1.43a11.11 11.11 0 0 1 4.36.64 7.69 7.69 0 0 1 2.76 2.35 32 32 0 0 1 3.21 5.78l4.17 9.15a78.91 78.91 0 0 0 7 12.73h20.59v-3.53a9.17 9.17 0 0 1-5.26-2.97zm-75-12.25a7 7 0 0 1-7-7 7 7 0 0 1 7-7 7 7 0 0 1 7 7 7 7 0 0 1-7.02 7zm0-21.42a7 7 0 0 1-7-7 7 7 0 0 1 6.89-7A7 7 0 0 1-95.7 194a7 7 0 0 1-6.97 7.07z" transform="translate(119.21 -168.22)"/><path class="cls-2" d="M-48.59 195.13a11.74 11.74 0 0 1-2.25 4.87 10.8 10.8 0 0 1-4.41 3.21l-.74.28-.3 1.61-6-.74a20 20 0 0 0 6.32-.87l3.44-18.49c1-.07-8.82-10.74-5.76-10.74 4.5 0 4.61 1.4 6.89 3.83S-48 184.18-48 189a28.27 28.27 0 0 1-.59 6.13z" transform="translate(119.21 -168.22)"/><path class="cls-3" d="M-34.18 234.74a29.08 29.08 0 0 1-4.47-7.3l-3.35-7.28a29.77 29.77 0 0 0-4.68-7.25 18.75 18.75 0 0 0-6.55-4.57v-.54a35.59 35.59 0 0 0 8.37-4.68 18 18 0 0 0 5-6.23 20.14 20.14 0 0 0 1.85-9 21.54 21.54 0 0 0-1-7 16.36 16.36 0 0 0-3-5.3 16.1 16.1 0 0 0-4.71-3.77 27 27 0 0 0-7.73-2.7 55.62 55.62 0 0 0-10.72-.88h-25.4v73h22.3v-3.53a9.91 9.91 0 0 1-4-1.71 4.82 4.82 0 0 1-1.44-2.57 28.46 28.46 0 0 1-.37-5.62v-17.22H-71a11.14 11.14 0 0 1 4.36.64 7.63 7.63 0 0 1 2.75 2.35 31.52 31.52 0 0 1 3.21 5.78l4.17 9.15a79.22 79.22 0 0 0 7 12.73h20.59v-3.53a9.12 9.12 0 0 1-5.26-2.97zm-20.92-39.61a11.76 11.76 0 0 1-2.24 4.87 10.7 10.7 0 0 1-4.41 3.21 18.6 18.6 0 0 1-7.06 1.15h-5.3v-29.77q1.44-.11 6-.11 6.74 0 10.16 3.64t3.47 10.88a28.27 28.27 0 0 1-.61 6.13z" transform="translate(119.21 -168.22)"/></svg>