<svg id="Capa_1" data-name="Capa 1" xmlns="http://www.w3.org/2000/svg" viewBox="0 0 455.73 455.73"><defs><style>.cls-1{fill:#dd4b39}</style></defs><title>g</title><path class="cls-1" d="M0 0v455.73h455.73V0zm265.67 247c-7.79 51.19-46 80.54-95.38 80.54a100.55 100.55 0 1 1 0-201.09c26.86 0 50.4 9.59 67.53 26.23L209 181.57c-9.77-9.85-23.15-15.09-38.67-15.09-32.69 0-59.19 27.87-59.19 60.55s26.5 59.77 59.19 59.77c27.4 0 48.14-13.24 54.13-39.76h-54.17v-40.38h95.13a117.83 117.83 0 0 1 1.73 20.34 132.7 132.7 0 0 1-1.48 20zm120.75-12.52h-35.23v35.22h-25v-35.18h-35.26v-25h35.23v-35.28h25v35.23h35.23z"/></svg>