<svg id="Capa_1" data-name="Capa 1" xmlns="http://www.w3.org/2000/svg" viewBox="0 0 512 512"><defs><style>.cls-1{fill:#ffb64d}.cls-2{fill:#ffc988}.cls-3{fill:#ffeb96}.cls-4{fill:#fff4ca}.cls-5{fill:#fc819c}.cls-6{fill:#d36b16}.cls-7{fill:#63cec1}.cls-8{fill:#5bbaac}.cls-9{fill:#f27293}</style></defs><title>logo</title><path class="cls-1" d="M512 256q0 3.88-.11 7.73a255.08 255.08 0 0 1-69.49 167.74q-5.3 5.63-10.93 10.93a255.14 255.14 0 0 1-167.74 69.49q-3.85.11-7.73.11t-7.73-.11A255.14 255.14 0 0 1 80.53 442.4q-5.62-5.3-10.93-10.93A255.14 255.14 0 0 1 .11 263.73Q0 259.88 0 256t.11-7.73A255.14 255.14 0 0 1 69.6 80.53q5.3-5.63 10.93-10.93A255.14 255.14 0 0 1 248.27.11Q252.12 0 256 0t7.73.11A255.14 255.14 0 0 1 431.47 69.6q5.63 5.3 10.93 10.93a255.09 255.09 0 0 1 69.49 167.74q.11 3.85.11 7.73z"/><circle class="cls-2" cx="256" cy="256" r="235.32"/><path class="cls-1" d="M512 256q0 3.88-.11 7.73h-150.3a7.73 7.73 0 1 1 0-15.45h150.3q.11 3.84.11 7.72z"/><path class="cls-3" d="M438.57 256q0 3.88-.17 7.73a181.89 181.89 0 0 1-48 115.79q-5.24 5.69-10.93 10.93a181.9 181.9 0 0 1-115.79 48q-3.85.17-7.73.17t-7.73-.17a181.89 181.89 0 0 1-115.79-48q-5.69-5.24-10.93-10.93a181.89 181.89 0 0 1-48-115.79q-.17-3.85-.17-7.73t.17-7.73a181.89 181.89 0 0 1 48-115.79q5.24-5.69 10.93-10.93a181.9 181.9 0 0 1 115.79-48q3.85-.17 7.73-.17t7.73.17a181.89 181.89 0 0 1 115.79 48q5.69 5.24 10.93 10.93a181.9 181.9 0 0 1 48 115.79q.17 3.85.17 7.73z"/><circle class="cls-4" cx="256" cy="256" r="158.48"/><path class="cls-3" d="M438.57 256q0 3.88-.17 7.73h-76.81a7.73 7.73 0 1 1 0-15.45h76.81q.17 3.84.17 7.72z"/><path class="cls-1" d="M274.66 263.73L442.4 431.47q-5.3 5.63-10.93 10.93L263.73 274.66v237.23q-3.85.11-7.73.11t-7.73-.11V274.66L80.53 442.4q-5.62-5.3-10.93-10.93l167.74-167.74H.11Q0 259.88 0 256t.11-7.73h237.23L69.6 80.53q5.3-5.63 10.93-10.93l167.74 167.74V.11Q252.12 0 256 0t7.73.11v237.23L431.47 69.6q5.63 5.3 10.93 10.93L274.66 248.27h54.49a7.73 7.73 0 1 1 0 15.45z"/><path class="cls-3" d="M274.66 263.73l115.79 115.79q-5.24 5.69-10.93 10.93L263.73 274.66V438.4q-3.85.17-7.73.17t-7.73-.17V274.66L132.48 390.45q-5.69-5.24-10.93-10.93l115.79-115.79H73.6q-.17-3.85-.17-7.73t.17-7.73h163.74L121.55 132.48q5.24-5.69 10.93-10.93l115.79 115.79V73.6q3.85-.17 7.73-.17t7.73.17v163.74l115.79-115.79q5.69 5.24 10.93 10.93L274.66 248.27h54.49a7.73 7.73 0 1 1 0 15.45h-54.49z"/><circle class="cls-5" cx="386.62" cy="206.26" r="18.97"/><path class="cls-5" d="M273 151.6a32.5 32.5 0 1 1-9.32-22.79A32.42 32.42 0 0 1 273 151.6z"/><circle class="cls-6" cx="139.75" cy="214.12" r="11.52"/><circle class="cls-5" cx="296.92" cy="397.15" r="11.52"/><circle class="cls-5" cx="112.59" cy="290.52" r="11.52"/><path class="cls-7" d="M188.6 360.15a9.56 9.56 0 0 1-1.08.05 10.4 10.4 0 0 1-10.34-9.35l-.47-4.61-2-19.83-1.79-17.51a10.43 10.43 0 0 1 9.31-11.42 9.49 9.49 0 0 1 1.07-.05 10.42 10.42 0 0 1 10.35 9.36l.06.62 2 19.83 2.19 21.5a10.41 10.41 0 0 1-9.3 11.41zm-9.29-169.91h-.21a9.49 9.49 0 0 1-1.07.05 10.41 10.41 0 0 1-10.35-9.29l-.27-2.62-2.49-24.38-1.54-15a10.43 10.43 0 0 1 9.31-11.43 9.48 9.48 0 0 1 1.07-.05 10.42 10.42 0 0 1 10.35 9.36l4.14 40.45.15 1.5a10.43 10.43 0 0 1-9.09 11.41zM351.06 291.5l41.27-8.65a10.42 10.42 0 0 1 12.34 8.06 10.42 10.42 0 0 1-8.06 12.34l-41.27 8.65a10.42 10.42 0 0 1-12.34-8.06 10.42 10.42 0 0 1 8.06-12.34z"/><path class="cls-6" d="M315.75 367.57a7.71 7.71 0 0 1-5.46-2.26l-1.09-1.09a7.73 7.73 0 1 1 10.93-10.93l1.09 1.09a7.73 7.73 0 0 1-5.46 13.19zM334 227.38a7.7 7.7 0 0 1-5.46-2.26l-1.11-1.12a7.73 7.73 0 1 1 10.92-10.93l1.09 1.09a7.73 7.73 0 0 1-5.44 13.22zm-49.8 114.16a7.71 7.71 0 0 1-5.46-2.26l-1.09-1.09a7.73 7.73 0 0 1 10.93-10.93l1.09 1.09a7.73 7.73 0 0 1-5.46 13.19zm-137.9-42.2a7.7 7.7 0 0 1-5.46-2.26l-1.1-1.08a7.73 7.73 0 1 1 10.93-10.93l1.09 1.09a7.73 7.73 0 0 1-5.46 13.19zm161.85-153.22a7.7 7.7 0 0 1-5.47-2.27l-1.09-1.09a7.73 7.73 0 1 1 10.93-10.92l1.09 1.09a7.73 7.73 0 0 1-5.47 13.19zM219.4 382.66a7.7 7.7 0 0 1-5.46-2.27l-1.09-1.09a7.73 7.73 0 0 1 10.93-10.92l1.09 1.09a7.73 7.73 0 0 1-5.47 13.19z"/><path class="cls-8" d="M179.31 190.24l-11.9-11.9-2.49-24.34 23.34 23.34.15 1.5a10.43 10.43 0 0 1-9.1 11.4zm16.39 136.99l-19 19-2.03-19.83 19-19 2.03 19.83z"/><path class="cls-9" d="M263.73 128.81v45.59a32.49 32.49 0 0 1-15.45 8.79V120a32.49 32.49 0 0 1 15.45 8.81z"/></svg>