<svg id="Capa_1" data-name="Capa 1" xmlns="http://www.w3.org/2000/svg" viewBox="0 0 512 489.03"><defs><style>.cls-1{fill:#d80027}</style></defs><title>top</title><path class="cls-1" d="M497.27 186.8l-13-2.78a50.61 50.61 0 0 0-5.44-6.23c-1-.95-2.07-1.8-3.14-2.66-10.7-8.6-25.34-13-43.7-13h-50.45l-29.25-6.24L271.37 22c-4.25-7-9.81-10.54-15.37-10.54S244.87 15 240.62 22l-80.91 133.89-29.25 6.24H30.34a14.08 14.08 0 0 0-13.82 13.82v10.47l-1.79.38C-1.33 190.22-4.79 202.26 7 213.69l56.28 54.57v56a13.82 13.82 0 0 0 13.82 13.82H113L93 481.36c-1.67 12 3.41 19.15 12.12 19.15a24.19 24.19 0 0 0 10.47-2.78L256 429l140.39 68.74a24.22 24.22 0 0 0 10.47 2.78c8.71 0 13.8-7.14 12.12-19.15L399 338.12h2.79a14 14 0 0 0 13.82-13.82v-24l18-17.49a101.2 101.2 0 0 0 11.22-1.25 76.87 76.87 0 0 0 13.54-3.51 55.31 55.31 0 0 0 19.16-11.41 53.83 53.83 0 0 0 13.62-20.38 63 63 0 0 0 3.33-12.85 77.94 77.94 0 0 0 .87-10.47l9.59-9.3c11.85-11.38 8.39-23.42-7.67-26.84zm-18.09 51.93a40.61 40.61 0 0 1-11 17.87 43 43 0 0 1-17.22 9.53 82.8 82.8 0 0 1-24 3.12h-25.1v55.05h-46V175.95H432q24.89 0 37.29 11.84t12.4 33.7a57.47 57.47 0 0 1-2.51 17.24zM77.09 300.91v-88.33H30.34v-36.63h139.34v36.63h-46.75V324.3H77.09zM256 326.83q-25.09 0-41.54-8t-26.66-25.3q-10.22-17.31-10.22-43.31 0-36.33 20.24-56.57t56.36-20.24q37 0 57.07 19.88t20 55.71q0 26-8.75 42.65a62.42 62.42 0 0 1-25.3 25.91q-16.51 9.27-41.2 9.27z" transform="translate(0 -11.48)"/><path class="cls-1" d="M254.08 208.13q-13.86 0-22.26 9.81t-8.4 32.48q0 22.47 8.35 32.28t22.72 9.82q14.77 0 22.87-9.61t8.1-34.51q0-20.94-8.45-30.61t-22.93-9.66zm160.79-2.03h-13.05v33.09H413q13.25 0 18.62-4.6A14.83 14.83 0 0 0 437 222.8a16.48 16.48 0 0 0-4.62-11.8q-4.66-4.89-17.51-4.9z" transform="translate(0 -11.48)"/></svg>