<svg data-name="Layer 1" xmlns="http://www.w3.org/2000/svg" viewBox="0 0 40 35"><title>eat-mobile</title><path d="M37.77 23.37H2.24a2.2 2.2 0 0 0-2.23 2.16v1.75a2.2 2.2 0 0 0 2.23 2.16h.5v.53a5.14 5.14 0 0 0 5.18 5.05h24.14a5.14 5.14 0 0 0 5.21-5v-.58h.5A2.2 2.2 0 0 0 40 27.28v-1.75a2.2 2.2 0 0 0-2.23-2.16zm-2.08 6.6a3.58 3.58 0 0 1-3.63 3.51H7.92a3.58 3.58 0 0 1-3.63-3.51v-.53h31.4v.53zm2.74-2.68a.66.66 0 0 1-.66.64H2.24a.66.66 0 0 1-.66-.64v-1.76a.66.66 0 0 1 .66-.64h35.53a.66.66 0 0 1 .66.64v1.75zM8.49 19.21l2.87 2.03 2.88-2.03 2.88 2.03 2.87-2.03 2.88 2.03 2.88-2.03 2.87 2.03 2.88-2.03 2.88 2.03 3.35-2.35-.93-1.23-2.42 1.7-2.88-2.03-2.88 2.03-2.87-2.03-2.88 2.03-2.88-2.03-2.87 2.03-2.88-2.03-2.88 2.03-2.87-2.03-2.88 2.03-2.41-1.7-.93 1.23 3.34 2.35 2.88-2.03zm28.74-3.43v-1.52C36.92 6.33 29.31.02 20 .02S3.11 6.33 2.76 14.26v1.52h34.47zM20 1.52c8.42 0 15.31 5.66 15.67 12.74H4.33C4.69 7.18 11.58 1.52 20 1.52z" fill="#82b4d3"/><ellipse cx="20" cy="7.63" rx="1.05" ry="1.02" fill="#82b4d3"/><ellipse cx="15.8" cy="5.12" rx="1.05" ry="1.02" fill="#82b4d3"/><ellipse cx="24.2" cy="5.12" rx="1.05" ry="1.02" fill="#82b4d3"/></svg>