<svg data-name="Layer 1" xmlns="http://www.w3.org/2000/svg" viewBox="0 0 39 37"><title>home-mobile</title><path d="M15.4 33.42h8.35V21.18H15.4v12.24zm6.82-1.5h-5.28v-9.24h5.29v9.24z" fill="#82b4d3"/><path d="M37.91 20.17l1.08-1.06-5.17-5.07V.24h-7.21v6.73l-7.11-7L0 19.11l1.08 1.06 4.09-4V35.5H3.15V37h33.32v-1.5h-2.65V16.17zM28.15 1.75h4.14v10.79l-4.14-4.06V1.75zm4.14 33.75H6.71V14.67L19.5 2.14l12.79 12.53V35.5z" fill="#82b4d3"/><path d="M15.53 13.92a4 4 0 1 0 4-4 4 4 0 0 0-4 4zm4-2.54a2.54 2.54 0 1 1-2.59 2.54 2.57 2.57 0 0 1 2.64-2.59zm-10.7 9.8h1.57v2.01H8.83zm3.1 0h1.57v2.01h-1.57zm-3.1 3.07h1.57v2.01H8.83zm3.1 0h1.57v2.01h-1.57zm13.57-3.07h1.57v2.01H25.5zm3.1 0h1.57v2.01H28.6zm-3.1 3.07h1.57v2.01H25.5zm3.1 0h1.57v2.01H28.6z" fill="#82b4d3"/></svg>