<svg data-name="Layer 1" xmlns="http://www.w3.org/2000/svg" viewBox="0 0 186.64 96.43"><title>logo</title><g data-name="Layer 2"><path d="M186.64 0H0l80.49 90.47a16.82 16.82 0 0 0 25.67 0z" fill="#81b3d3"/><path fill="#23a9e1" d="M43.24.72l49.53 58.35 49.32-58L43.24.72z"/><path d="M122 17.33l-15.19.08c6-6.93 8.7-6.19 15.19-.08zm-41.15 5.36h26.68c-2-1.23-6.71-7.06-9.31-4.89-.21.18-7.5-8.85-12.3-4.5-4.18 3.8-6.12-.5-10.86 2.51-5.4 3.57 3.12 5.67 5.78 6.88z" fill="#fff"/><path d="M93.1 0H42.18v22.48L92.76 84l.34-.42 50.75-60.39V0H93.1zM54.9 1.79h5.46V19l-5.46-6.5V1.79zm-.78 9.77l-5-5.9V1.79h5v9.77zm19.3-2.71l-5.74-7.06h5.74v7.06zm-6.64 3.83l-5.6-10.89h5.6v10.89zm-5.63-9.24l5.52 10.74A58.16 58.16 0 0 0 61.15 19V3.44zm6.42-.55l5.61 6.9c-1.12.65-2.16 1.3-3.1 1.93s-1.72 1.2-2.51 1.78V2.89zm6.64-.2L79 6.91a48.56 48.56 0 0 0-4.8 2.3V2.69zm5.57 3.89l-5.41-4.79h6v4.59zM98.9 1.79h5l-5 2.44V1.79zm-5.79 0h4.44l-4.44 2.06V1.79zm-.94 2l-4.24-2h4.24v2zm-5.49.53l-5.1-2.53h5.09v2.49zm-5.57-1.88l4.72 2.31a38.68 38.68 0 0 0-4.72 1.35V2.44zm6.35 0L90.92 4a32 32 0 0 0-3.46.39v-2zm10.42.06v1.94a33.15 33.15 0 0 0-3.36-.39zm6.47-.06v3.7a40 40 0 0 0-4.78-1.37zm.78-.64h5.94l-5.43 4.82-.51-.19V1.79zm13.55 0h5.6l-5.6 10.88V1.79zm-6.64 0h5.74l-5.74 7v-7zm-.78.89v6.52a50.83 50.83 0 0 0-4.81-2.27zm6.64.2v10.5c-.71-.51-1.46-1-2.26-1.56-1-.68-2.16-1.37-3.38-2.06zm6.42.55v15.24a63.2 63.2 0 0 0-5.48-4.6zm.78 16V1.79h5.46V13.2l-5.39 6.31zm6.25-17.65h5v4.67l-5 5.82V1.79zm-83 0v2.94l-2.46-2.94h2.47zM61.25 20l.14.13a56.8 56.8 0 0 1 9.21-7.65C75.79 9 83.84 4.9 92.76 5s17.06 4.19 22.35 7.67a60.16 60.16 0 0 1 9.45 7.62l-3.87 4.54c-6.91.95-11.86 6.08-18.6 5-3.4-.56-3.5-2.51-4.47-4.46-.75-1.49-1.94-1.3-3.49-1.91s-2.29-1.83-5.13-1.15c-2.53.59-2.81 4.52-6 4.29-1.69-.12-1.81-2.5-4.24-5.54-6.3-7.57-12.16-6.52-16.25.48l30.25 35.94zm75.86-14.46V1.79h3.2z" fill="#491213"/><path fill="#23a9e1" d="M88.75 70.92l4.02-6.5 4 6.5-4 6.51-4.02-6.51z"/><path d="M65.46 32.27a2.81 2.81 0 0 1 .81 2.12c-.06.58-.94 1.55-.27 1.85l2.24-2.83c-.6-.15-5.37-5.85-5.44-6.47l-3.16 1.73c.16.66 1.29 0 1.85 0a2.92 2.92 0 0 1 2 1.15c-1.73 1.45-5.93 5-6.37 5.09-.23 0-1.09-.6-1.1-.06a4.88 4.88 0 0 0 1 1.21l2.23 2.65c.62-.28-.11-.73.21-1.24s4.9-4.27 6-5.24zm-5.27-6.98c.44-.1.62.43 1-.06l-2.49-2.92c-.37-.44-.84-.92-.71 0 .09.69-6.11 5.69-6.49 5.84s-.76-.42-1.11.1l2.19 2.61c.25.29.48.61.75.88s.21-.67.22-.58a1.66 1.66 0 0 1 .86-1.23 60.6 60.6 0 0 1 5.78-4.64zm-8.77-.92a3.22 3.22 0 0 1-4.21-2c-.54-1.83.61-3.76 2.07-4.8s3.59-1 4.37.84a3.61 3.61 0 0 1-.09 2.5c-.16.51-.6 1 .06 1.29l2.58-3.29c-1.05-.63-1.52-1.68-2.3-2.6A5.87 5.87 0 0 0 50.42 14c-2.87-.41-5.57 2.56-5.79 5.24a5.76 5.76 0 0 0 1.25 4c.75 1 1.87 1.62 2.43 2.75a22.52 22.52 0 0 0 3.29-1.26 1.55 1.55 0 0 0-.17-.37zm39.3 36.41c-1.15-.77-4-4.69-4.57-5.34l-.33-.44a2.21 2.21 0 0 0-.25.19c-.17.14.13.57-.05.86-.79 1.24-5.76 5-6 5.16-.56.38-1.16-.16-1.49.32a45.43 45.43 0 0 0 3 3.58c.48.08.15-.82.21-1A31.55 31.55 0 0 1 84.79 61c.34-.28.69.43.89.72a1.76 1.76 0 0 1 .3 1.57c-.12.37-.72.92-.25 1.17l2.61-3c.25-.29-.57 0-.47-.09a.91.91 0 0 1-1.06 0 5 5 0 0 1-1-1.17 4.61 4.61 0 0 1 1.53-1.2c.86-.21 1.58 1.52 1.71 2.13a3.45 3.45 0 0 1-.05 1.73c-.12.39-.49.7 0 .93l2.13-2.92a.71.71 0 0 1-.4-.1c-.14-.08.13.08-.01.01zM80.5 56.65a5.48 5.48 0 1 0-7.79-1.07 5.42 5.42 0 0 0 7.79 1.07c1.15-.98-.1.07 0 0zm-.5-4.76a7.45 7.45 0 0 1-3.73 3.67c-1.82.71-3.1-.83-2.36-2.55a7.45 7.45 0 0 1 3.74-3.67c1.85-.74 3.07.85 2.36 2.55-.36.89.09-.17-.01 0zM74.05 42c.47.06.93.55 1.27 0l-2.23-2.64c-.59.27 0 .55-.19 1s-2.56.78-3.18.89a15.82 15.82 0 0 1 1.16-2.84c.54-.44.88.43 1.28-.14l-2.74-3.25c-.31-.37-.56-1-1-.68a8.41 8.41 0 0 1-.09 1.73c-.09.24-.94 3.64-1.93 4.47a21.51 21.51 0 0 1-2.7 2.1c-.54.19-.83-.6-1.22 0l2.49 3a4.3 4.3 0 0 0 .77.89c.52.09.06-.89.11-1.09.15-.43 2.5-2.72 3.5-2.86a19.37 19.37 0 0 1 4.7-.58z" fill="#fff"/><path d="M67.79 22.87c-4-.17-2.35-4 .39-4.81s8.09 1.72 9.84 3.4c-2.78.85-6.39.73-9.45.87-.23-3.12-1-2-.79.54zm9.5 12.55c-8.62-.07-2.79-13.32.14-12.52 3.37 1.07 3 12.62-.14 12.52zm6.11-4.33c-.84 2.5-2.36 3-2.19-.07.19-3.5 2.48-2.66 4.93-4 2-1.12 3.14-5.21 6.64-2.77 1.56 1.09 3.35.18 3.85 1.83 0-.08-4.54 10.31-2 10.31-5 0-2.77-5.92-.87-9.9-1.85.88-4.84 6.69-2.38 7.64-1.28 1.69-5.19 3.94-7.23 2.3-1.55-1.25-.69-3.33-.71-5.34zm4.1 9.61c-3.49 1-8.12-1.21-2.51-2.34 3.48-.7 7.19.78 2.51 2.34zm4.37-.14c-.74-1.66.56-3.64 2.68-2.2 1.85 1.25-.85 3.11-2.68 2.2zm-2.94 4.66c-2.41-.75-10.54-.56-5.22-2.76 1.64-.68 10.15.1 5.22 2.76zm10.43 3.32c-1.44-1.23-2.89-1.29-4.23 0-1.79-3.29-8.32-2.19-11.37-2.65 1.64 4 14.87 4.78 15.6 2.65zM97.46 51c-3.15-.15-6.67-.56-9.65.08 1.86.47 6.4 1.79 2.17 2.92 1.51 2.17 4 2 5.58.13A15.33 15.33 0 0 1 94 53c1.67-.3 3.23-1.27 3.44-2.07zm3.6-3.92c-5.29-3.11-4-5.43.35-7.59 2.25-1.13 7.32-5.21 9.45-3.85l-9.8 11.44z" fill="#dc6243"/><path d="M97.29 39.81c-4.48-4.6 6.69-4.18 8.49-5.8 1.31.44 10.77-8.28 13.07-7.74-1.66 1.94-5.22 8.14-7.78 8.14-2 0-4-.29-5.47 1.11-2.22 2-5.91 3.09-8.31 4.29z" fill="#f49774"/><path d="M98.76 34.18c-2.45 1.32-4.77-3.91-.54-3.4 2.81.34 5.66-.24 8.35.23a8.66 8.66 0 0 1-7.81 3.17z" fill="#f4b1a4"/><path d="M111.39 52.47a5 5 0 0 1 .21 2c-.11.87-1 2.92-2.17 2.34a18.23 18.23 0 0 1-3.19-2.55c.8-.94 1.51-1.75 2.85-1.29.37.12.69 0 .3-.26s-3.11-2-3.26-1.8.53.87.22 1.47a7 7 0 0 1-.93 1.22c-.72-.61-1.92-1.25-1.06-2.26a3.69 3.69 0 0 1 2.1-1.34c.57-.11 1.84.39 2-.22l-3.26-1.56c.18.8-3.35 4.52-4.13 5.46a3.14 3.14 0 0 0-.66.8c0 .43.62.1.66.08.49-.18 6.82 5.11 7 5.47a2 2 0 0 0 0 .73.83.83 0 0 0 .25.18c.39-.47 4.52-6 5.37-6.22-.79-1.21-1.59-2.43-2.37-3.65-.63.26-.06.93.07 1.4zm-6.16 6.7c-2.08-1.34-5.6 1.28-6.12 1.53a1 1 0 0 1-1.25-1.5 2.77 2.77 0 0 1 2.31-1.29 4.66 4.66 0 0 0 1.46 0c.13-.2.23-.22 0-.34l-2.53-1.71c-.18 1.05-1.38 1.73-2.08 2.44a4.7 4.7 0 0 0-1.52 3.16 3 3 0 0 0 1.68 2.66 3.31 3.31 0 0 0 3.32-.51 19.18 19.18 0 0 1 1.92-1.17c1-.47 2.3-.06 2 1.27A3.6 3.6 0 0 1 102 66a3.29 3.29 0 0 1-1.9 0c-.43-.14-1-.73-1.23-.11l3.48 2.54a2.33 2.33 0 0 1 1.09-1.56 11.68 11.68 0 0 0 2-2.13c1.15-1.74 1.56-4.12-.21-5.57zm0 0c.92.6-.59-.49 0 0zm29.23-37.32zm7.46-2.21c-.73.73-8.42-2.34-9-2.76-.29-.12-.3-1.32-.71-.83L131 17.51 129.76 19c-.26.31-.54.46 0 .72.84-.42 5.42 7.35 5 8.46-.72.38-6.92-5.06-7.08-5.42-.05-.15.27-1-.21-.94a4.24 4.24 0 0 0-.89 1.07l-.92 1.11c.33.48.52 0 1 0a13.19 13.19 0 0 1 2.24 1.66c-.72 0-2.68.13-2.93.11-.9.11-.42-.66-1-.93l-2.28 2.76-1.33 1.61c-.05.07 0 0 0 .11.33.27.1.17.57 0s6.56 4.93 6.78 5.19c.38.45-.15 1 .41 1.22l1.8-2.18c.09-.11.14-.1 0-.2-.43-.35-.48.21-1 .15s-4.39-3.37-5.89-4.61l8.2-.3a1.85 1.85 0 0 1 1.07 1.22c-.08.38-.46.56.05.79.48-.58 1-1.15 1.46-1.73l.23-.28a.74.74 0 0 0 .21-.26l.17-.21c.42-.48 1.8-2 1.63-2.15-.46-.4-.68.47-1.3-.05a12.9 12.9 0 0 1-1.44-2.16c-.26-.45.61-.9 1-1.12.78-.48 3.25-1.18 3.48.35a1.26 1.26 0 0 0-.08.7s.2.24.27.16l3.3-4a1.47 1.47 0 0 0-.36-.21zm-7.37 2.16l-.08.05.08-.05a5.71 5.71 0 0 0-1 .76L132 19.87l3.52 1.48a3.73 3.73 0 0 0-.97.45zM124.8 33a5.48 5.48 0 1 0 .59 7.6 5.38 5.38 0 0 0-.59-7.6zm-.28 6.61c-1.23 1.29-3.36.1-4.5-.73s-3.11-2.57-1.86-4.1c1.06-1.29 3.12-.23 4.19.48s3.41 2.6 2.28 4.22c.04-.05.1-.11-.11.15z" fill="#fff"/><path d="M124.8 33c1.17 1-.25-.21 0 0zm-.31 6.65l.08-.11zm-6.28 2.49c.11.09.27.22-.06-.06-2.83-2.13-6.19-1.5-8.4 1.16l-3 3.57c.35.51.76-.12 1.27.18s6.24 5.1 6.34 5.37c.16.46-.25.55.14.88a41.39 41.39 0 0 0 4.97-6.24 4.34 4.34 0 0 0-1.26-4.86zm-1.32 6.75a4.79 4.79 0 0 1-.66.65c-.31.29-6.44-4.68-6.19-4.94a4.35 4.35 0 0 1 3.58-1.3c2.18.56 5.2 3.26 3.27 5.59z" fill="#fff"/></g></svg>