<svg data-name="Layer 1" xmlns="http://www.w3.org/2000/svg" viewBox="0 0 101.67 83.99"><title>logo-tablet</title><g data-name="Layer 2"><path fill="#23a9e1" d="M1.06.7l49.52 58.35L99.91 1.06 1.06.7z"/><path d="M79.84 17.32l-15.19.08c6-6.93 8.7-6.19 15.19-.08zm-41.18 5.35h26.68c-2-1.23-6.71-7.06-9.31-4.89-.21.18-7.5-8.85-12.3-4.5-4.18 3.8-6.12-.5-10.86 2.51-5.4 3.57 3.12 5.67 5.78 6.88z" fill="#fff"/><path d="M50.92 0H0v22.46L50.58 84l.34-.42 50.75-60.39V0H50.92zm0 57.05l-.34.41L3.71 1.78h94.42z" fill="#491213"/><path d="M50.58 57.46l.34-.41L78.5 24.76c-6.91.95-11.86 6.08-18.6 5-3.4-.56-3.5-2.51-4.47-4.46-.75-1.49-1.94-1.3-3.49-1.91s-2.28-1.74-5.16-1.06c-2.53.59-2.81 4.52-6 4.29-1.69-.12-1.81-2.5-4.24-5.54-6.3-7.57-12.16-6.52-16.25.48z" fill="#491213"/><path fill="#23a9e1" d="M46.56 70.9l4.02-6.5 4.01 6.5-4.01 6.51-4.02-6.51z"/><path d="M23.28 32.25a2.81 2.81 0 0 1 .81 2.12c-.06.58-.94 1.55-.27 1.85l2.24-2.83c-.6-.15-5.37-5.85-5.44-6.47l-3.16 1.73c.16.66 1.29 0 1.85 0a2.92 2.92 0 0 1 2 1.15c-1.73 1.45-5.93 5-6.37 5.09-.23 0-1.09-.6-1.1-.06a4.9 4.9 0 0 0 1 1.21L17 38.73c.62-.28-.11-.73.21-1.24s4.9-4.27 6-5.24zM18 25.27c.44-.1.62.43 1-.06l-2.48-2.91c-.37-.44-.84-.92-.71 0 .09.64-6.11 5.7-6.49 5.83s-.76-.42-1.11.1l2.19 2.61c.25.29.48.61.75.88s.21-.67.22-.58a1.66 1.66 0 0 1 .86-1.23A60.5 60.5 0 0 1 18 25.27zm-8.76-.92a3.22 3.22 0 0 1-4.21-2c-.54-1.83.61-3.76 2.07-4.8s3.59-1 4.37.84a3.61 3.61 0 0 1-.09 2.5c-.16.51-.6 1 .06 1.29L14 18.85c-1.06-.63-1.52-1.68-2.3-2.6A5.86 5.86 0 0 0 8.23 14c-2.87-.41-5.57 2.56-5.79 5.24a5.75 5.75 0 0 0 1.25 4c.75 1 1.87 1.62 2.43 2.75a22.52 22.52 0 0 0 3.29-1.26 1.55 1.55 0 0 0-.17-.37zm39.3 36.41c-1.15-.77-4-4.69-4.57-5.34l-.34-.42a2.3 2.3 0 0 0-.25.19c-.17.15.13.57-.05.86-.79 1.24-5.76 5-6 5.16-.56.38-1.16-.16-1.49.32a45 45 0 0 0 3 3.58c.48.08.15-.81.21-1a31.55 31.55 0 0 1 3.55-3.21c.34-.28.69.43.89.72a1.76 1.76 0 0 1 .3 1.57c-.12.37-.72.92-.25 1.17l2.61-3c.25-.29-.57 0-.47-.09a.91.91 0 0 1-1.06 0 5 5 0 0 1-1-1.17 4.63 4.63 0 0 1 1.53-1.1c.86-.21 1.58 1.52 1.71 2.13a3.45 3.45 0 0 1-.08 1.75c-.12.39-.49.7 0 .93l2.13-2.92a.7.7 0 0 1-.4-.1c-.1-.11.16.04.03-.03zm-10.23-4.13a5.48 5.48 0 1 0-7.79-1.07 5.42 5.42 0 0 0 7.79 1.07c1.16-.97-.1.07 0 0zm-.46-4.75a7.45 7.45 0 0 1-3.73 3.67c-1.82.71-3.1-.83-2.36-2.55a7.45 7.45 0 0 1 3.74-3.67c1.85-.74 3.07.85 2.36 2.55-.39.89.06-.17-.01 0zM31.87 42c.47.06.93.55 1.27 0l-2.23-2.64c-.59.27 0 .55-.19 1s-2.56.78-3.18.89a15.9 15.9 0 0 1 1.16-2.84c.54-.44.88.43 1.28-.14l-2.74-3.25c-.31-.37-.56-1-1-.68a8.41 8.41 0 0 1-.09 1.73c-.09.24-.94 3.64-1.93 4.47a21.51 21.51 0 0 1-2.7 2.1c-.54.19-.83-.6-1.22 0l2.49 3a4.3 4.3 0 0 0 .77.89c.52.09.06-.89.11-1.09.15-.43 2.5-2.72 3.5-2.86a19.37 19.37 0 0 1 4.7-.58z" fill="#fff"/><path d="M25.61 22.86c-4-.17-2.35-4 .39-4.81s8.09 1.72 9.84 3.4c-2.78.85-6.39.73-9.45.87-.23-3.12-1-2-.79.54zm1.01 4.85c-2-1.58-1.4-5.27 1.76-4.15 4 2.08-.86 3.24-1.76 4.15zm8.49 7.7c-8.62-.07-2.79-13.32.14-12.52 3.37 1.07 3 12.62-.14 12.52zm6.11-4.33c-.84 2.5-2.36 3-2.19-.07.19-3.5 2.48-2.66 4.93-4 2-1.12 3.14-5.21 6.64-2.77 1.56 1.09 3.35.18 3.85 1.83 0-.08-4.54 10.31-2 10.31-5 0-2.77-5.92-.87-9.9-1.85.88-4.84 6.69-2.38 7.64-1.28 1.69-5.19 3.94-7.23 2.3-1.55-1.25-.69-3.33-.71-5.34zm4.1 9.6c-3.49 1-8.12-1.21-2.51-2.34 3.48-.7 7.19.78 2.51 2.34zm4.37-.14c-.74-1.66.56-3.64 2.68-2.2 1.85 1.25-.85 3.11-2.68 2.2zm-2.94 4.67c-2.41-.75-10.54-.56-5.22-2.76 1.64-.68 10.15.1 5.22 2.76zm3.25-.36c0-1-.51-2.68 1.35-1.95 2.2.89-1.35 2.66-1.35 1.95zm7.18 3.67c-1.44-1.23-2.89-1.29-4.23 0-1.79-3.29-8.32-2.19-11.37-2.65 1.64 4 14.86 4.78 15.59 2.65zm-1.9 2.43c-3.15-.15-6.67-.56-9.65.08 1.86.47 6.4 1.79 2.17 2.92 1.52 2.17 4 2 5.58.13A15.44 15.44 0 0 1 51.83 53c1.67-.3 3.23-1.27 3.44-2.07zm3.59-3.88c-5.29-3.11-4-5.43.35-7.59 2.25-1.13 7.32-5.21 9.45-3.85l-9.8 11.44z" fill="#dc6243"/><path d="M55.11 39.79c-4.48-4.6 6.69-4.18 8.49-5.8 1.31.44 10.77-8.28 13.07-7.74-1.66 1.94-5.22 8.14-7.77 8.14-2 0-4-.29-5.47 1.11-2.22 2-5.91 3.09-8.31 4.29z" fill="#f49774"/><path d="M56.57 34.17c-2.45 1.32-4.77-3.91-.54-3.4 2.81.34 5.66-.24 8.35.23a8.66 8.66 0 0 1-7.81 3.17z" fill="#f4b1a4"/><path d="M69.21 52.45a5 5 0 0 1 .21 2c-.11.87-1 2.92-2.17 2.34a18.23 18.23 0 0 1-3.19-2.55c.8-.94 1.51-1.75 2.85-1.29.37.12.69 0 .3-.26s-3.11-2-3.26-1.8.53.87.22 1.47a7 7 0 0 1-.93 1.22c-.72-.61-1.92-1.25-1.06-2.26a3.69 3.69 0 0 1 2.1-1.32c.57-.11 1.84.39 2-.22L63 48.2c.18.8-3.35 4.52-4.13 5.46a3.14 3.14 0 0 0-.66.8c0 .43.62.1.66.08.49-.18 6.82 5.11 7 5.47a2 2 0 0 0 0 .73.85.85 0 0 0 .25.18c.39-.47 4.52-6 5.37-6.22-.79-1.21-1.59-2.43-2.37-3.65-.62.27-.04.95.09 1.4zM63 59.15c-2.08-1.34-5.6 1.28-6.12 1.53a1 1 0 0 1-1.25-1.5A2.77 2.77 0 0 1 58 57.89a4.69 4.69 0 0 0 1.46 0c.13-.2.23-.22 0-.35l-2.57-1.73c-.18 1.06-1.38 1.73-2.08 2.44a4.7 4.7 0 0 0-1.52 3.16A3 3 0 0 0 55 64.1a3.31 3.31 0 0 0 3.32-.51 19.18 19.18 0 0 1 1.92-1.17c1-.47 2.3-.06 2 1.27A3.6 3.6 0 0 1 59.79 66a3.29 3.29 0 0 1-1.87-.09c-.43-.14-1-.73-1.23-.11l3.48 2.54a2.33 2.33 0 0 1 1.09-1.56 11.68 11.68 0 0 0 2-2.13c1.15-1.65 1.53-4.05-.26-5.5zm0 0c.92.6-.59-.49 0 0zm29.28-37.31zm7.46-2.21c-.73.73-8.42-2.34-9-2.76-.29-.12-.3-1.32-.71-.83l-1.22 1.46-1.23 1.5c-.26.31-.54.46 0 .72.84-.42 5.42 7.35 5 8.46-.72.38-6.92-5.06-7.08-5.42-.05-.15.27-1-.21-.94a4.24 4.24 0 0 0-.89 1.07L83.48 24c.33.48.52 0 1 0a13.15 13.15 0 0 1 2.24 1.66c-.72 0-2.68.13-2.93.11-.9.11-.42-.66-1-.93l-2.28 2.76-1.33 1.61c-.05.07 0 0 0 .11.33.27.1.17.57 0s6.56 4.93 6.78 5.19c.38.45-.15 1 .41 1.22l1.8-2.18c.09-.11.14-.1 0-.2-.43-.35-.48.21-1 .15s-4.39-3.37-5.89-4.61l8.2-.3a1.85 1.85 0 0 1 1.07 1.22c-.08.38-.46.56.05.79.48-.58 1-1.15 1.46-1.73l.23-.28a.74.74 0 0 0 .21-.26l.17-.21c.42-.48 1.8-2 1.63-2.15-.46-.4-.68.47-1.3-.05a12.9 12.9 0 0 1-1.44-2.16c-.26-.45.61-.9 1-1.12.78-.48 3.25-1.18 3.48.35a1.26 1.26 0 0 0-.08.7s.2.24.27.16l3.3-4a1.47 1.47 0 0 0-.36-.22zm-7.37 2.16l-.08.05.08-.05a5.71 5.71 0 0 0-1 .76l-1.56-2.69 3.52 1.48a3.73 3.73 0 0 0-.97.44zM82.62 33a5.48 5.48 0 1 0 .59 7.6 5.38 5.38 0 0 0-.59-7.6zm-.28 6.61c-1.23 1.29-3.36.1-4.51-.73s-3.11-2.57-1.86-4.1c1.06-1.29 3.12-.23 4.19.48s3.41 2.6 2.28 4.22c.05-.07.1-.13-.1.13z" fill="#fff"/><path d="M82.62 33c1.17 1-.25-.21 0 0zm-.31 6.64l.08-.11zM76 42.12c.11.09.27.22-.06-.06-2.83-2.13-6.19-1.5-8.4 1.16l-3 3.57c.35.51.76-.12 1.27.18s6.24 5.1 6.34 5.37c.16.46-.25.55.14.88a41.39 41.39 0 0 0 5-6.22A4.34 4.34 0 0 0 76 42.12zm-1.32 6.75a4.79 4.79 0 0 1-.66.65c-.31.29-6.44-4.68-6.19-4.94a4.35 4.35 0 0 1 3.58-1.3c2.21.56 5.23 3.26 3.3 5.59z" fill="#fff"/></g></svg>