<svg data-name="Layer 1" xmlns="http://www.w3.org/2000/svg" viewBox="0 0 32 38"><title>present-mobile</title><path d="M30.56 11.25h-12.4c6.91-3.45 7.46-5.63 7.21-6.84a4 4 0 0 0-5-2.7c-2.79 1-3.57 5.19-4.32 8.19-1-3-1.89-6.91-4.07-8.87a3.66 3.66 0 0 0-2.88-1c-2 .18-4.9 2.69-3.73 5.49s4.84 4.39 7.29 5.74H1.44A1.44 1.44 0 0 0 0 12.69v5.66a1.44 1.44 0 0 0 1.44 1.43h.14V38H30.5V19.78h.05a1.44 1.44 0 0 0 1.44-1.43v-5.66a1.44 1.44 0 0 0-1.43-1.44zm-9.35-8.28a2.48 2.48 0 0 1 2.63 1.6c.2 1.38-1.7 2.63-2.54 3.21-1.26.87-2.46 1.32-3.65 2 .45-1.81 1.28-6.47 3.56-6.81zm-11.45 5c-1.1-.75-3.26-2.23-3.26-3.9S9.37.78 10.91 2.13c1.93 1.69 2.86 5.55 3.56 8.28a34.73 34.73 0 0 1-4.7-2.45zm3 28.56H3.07V19.78h9.69v16.74zm0-18.25H1.5v-5.51h11.26v5.49zm5.08 18.25h-3.59V12.77h3.59v23.74zm11.18 0h-9.69V19.78h9.69v16.74zm1.48-18.27H19.33v-5.49H30.5v5.49z" fill="#82b4d3"/></svg>