<svg id="Capa_1" data-name="Capa 1" xmlns="http://www.w3.org/2000/svg" viewBox="0 0 412.38 512"><defs><style>.cls-1{fill:#fff}</style></defs><title>bell-pepper</title><path class="cls-1" d="M375.42 74.83a97 97 0 0 0-66.2 12c-.46-.3-.91-.61-1.37-.91a96.22 96.22 0 0 0-27-11.87c5.79-24.75 2.22-48.73-.69-61.59A15.66 15.66 0 0 0 265 0h-29.26a15.63 15.63 0 0 0-13.81 8.56 16.64 16.64 0 0 0 1 17.28c7.15 10.25 15.53 26.27 17 46.25a96.73 96.73 0 0 0-37.4 14.64 96.93 96.93 0 0 0-66-11.9C80.32 84.88 42 142.62 51.17 203.54c22.24 147.81 65.75 260.93 113.54 295.23 10.16 7.29 20.35 11 30.4 11a41.34 41.34 0 0 0 7.27-.65c8.33-1.49 16.06-5.51 23-12C234.88 507 245 512 255.84 512s21.06-5 30.56-15c7 6.54 14.83 10.62 23.23 12.12a41.24 41.24 0 0 0 7.27.65c10 0 20.24-3.67 30.4-11 47.8-34.29 91.3-147.42 113.54-295.23 9.16-60.92-29.16-118.66-85.42-128.71zM264.09 16.59c2.13 9.62 5.84 32.15.39 54.58q-3.94-.35-7.92-.39c-1.76-23.52-11.51-42.24-19.83-54.2zm180.34 184.48C423.16 342.44 381.24 454 337.62 485.29c-8.84 6.34-17.28 8.85-25.09 7.46-5.58-1-10.91-4-15.88-8.94a179.17 179.17 0 0 0 15.39-30 8.29 8.29 0 1 0-15.34-6.31c-12.72 30.92-27.23 47.94-40.87 47.94s-28.14-17-40.86-47.9a8.29 8.29 0 1 0-15.34 6.31A178.51 178.51 0 0 0 215.14 484c-4.91 4.81-10.18 7.75-15.68 8.74-7.8 1.39-16.24-1.12-25.09-7.46C130.76 454 88.84 342.44 67.57 201.07 59.73 148.95 92 99.64 139.5 91.16a80.11 80.11 0 0 1 49 6.87 96.66 96.66 0 0 0-21.38 30.79 8.29 8.29 0 1 0 15.2 6.64A80.21 80.21 0 0 1 328 132.52a8.29 8.29 0 0 0 14.92-7.25 96.88 96.88 0 0 0-19.63-27.13 80.15 80.15 0 0 1 49.23-7c47.48 8.5 79.75 57.81 71.91 109.93z" transform="translate(-49.81)"/><path class="cls-1" d="M174.06 299.64a8.29 8.29 0 0 0 7.43-9.08c-.58-5.75-1.12-11.66-1.61-17.56a8.29 8.29 0 1 0-16.53 1.38c.5 6 1 12 1.63 17.83a8.3 8.3 0 0 0 8.24 7.47q.42 0 .84-.04zm12.82 34.77a8.29 8.29 0 1 0-16.41 2.43 667.42 667.42 0 0 0 14.3 71.65 8.29 8.29 0 1 0 16-4.22 651.12 651.12 0 0 1-13.89-69.86zM344.3 159.24a8.29 8.29 0 0 0-8.29 8.29c0 5.86 0 11.77-.11 17.59a8.29 8.29 0 0 0 8.19 8.4h.11a8.29 8.29 0 0 0 8.29-8.19c.08-5.88.11-11.87.11-17.8a8.29 8.29 0 0 0-8.3-8.29zm-.7 53.09a8.3 8.3 0 0 0-8.61 8c-1.46 37.27-4.47 72.72-9 105.36a8.3 8.3 0 0 0 7.09 9.35 8.45 8.45 0 0 0 1.14.08 8.3 8.3 0 0 0 8.21-7.17c4.56-33.17 7.62-69.16 9.1-107a8.29 8.29 0 0 0-7.93-8.62z" transform="translate(-49.81)"/></svg>