<svg id="Capa_1" data-name="Capa 1" xmlns="http://www.w3.org/2000/svg" viewBox="0 0 238.88 512"><defs><style>.cls-1{fill:#fff}</style></defs><title>butternut-squash</title><path class="cls-1" d="M374.71 404.3l-16.37-98.18a136 136 0 0 1-.25-32l12.63-132.52c5.65-51.4-33.47-97.34-89.11-104.84V17.07A17.09 17.09 0 0 0 264.54 0H258a25.46 25.46 0 0 0-22.9 14.15L223.19 38c-51.76 10.35-87.3 54.42-81.92 103.38l11.53 132.84a135.67 135.67 0 0 1-.23 31.67l-15.31 98.74a90.06 90.06 0 0 0 22.59 71.6A108.35 108.35 0 0 0 241.48 512a8.53 8.53 0 0 0 7.36-4.22 7.84 7.84 0 0 1 6.07-4.32 10.9 10.9 0 0 1 8.83 5.16 8.54 8.54 0 0 0 6.8 3.37 108.35 108.35 0 0 0 81.64-35.76 90.19 90.19 0 0 0 22.53-71.93zM250.39 21.78a8.49 8.49 0 0 1 7.61-4.71h6.52v17.81a144.77 144.77 0 0 0-20.86.32zm89 443.16a90.89 90.89 0 0 1-65 29.9 26.82 26.82 0 0 0-19-8.47h-1.42a23.87 23.87 0 0 0-16.69 8.42 90.84 90.84 0 0 1-64.56-29.89 73.1 73.1 0 0 1-18.57-57.9l15.31-98.75a152.78 152.78 0 0 0 .32-35.72l-11.52-132.82c-4.64-42.25 28.26-80.09 74.9-86.15l6.42-.83a127.46 127.46 0 0 1 32.85 0l6.42.83c46.64 6.06 79.54 43.9 74.89 86.27l-12.63 132.53a153.24 153.24 0 0 0 .35 36.25l16.37 98.18a73.2 73.2 0 0 1-18.46 58.16z" transform="translate(-136.56)"/><path class="cls-1" d="M238.93 87.17a8.52 8.52 0 0 0 1.12-.07l3.93-.51a118.13 118.13 0 0 1 12-1.25 8.53 8.53 0 0 0 0-17.07 119.44 119.44 0 0 0-14.24 1.39l-3.93.51a8.53 8.53 0 0 0 1.09 17zm-61.76 83.98a8.54 8.54 0 0 0 8.51 8h.5a8.53 8.53 0 0 0 8-9l-1.93-33.29-.1-.9a41.72 41.72 0 0 1 17.73-37.62 8.53 8.53 0 0 0-10.24-13.65 58.59 58.59 0 0 0-24.46 53.12zm160.69 201.67a76.77 76.77 0 0 0-21.38-44.47l-25-26.09A40.83 40.83 0 0 0 262 290.13h-12a40.83 40.83 0 0 0-29.48 12.13l-25 26.08a76.83 76.83 0 0 0-21.38 44.48l-3 26.15a77.28 77.28 0 0 0 34.74 72.38 37.85 37.85 0 0 0 39.93 1.54 20.9 20.9 0 0 1 20.38 0 37.85 37.85 0 0 0 39.93-1.55A77.27 77.27 0 0 0 340.87 399zm-90.39 81.37a36.49 36.49 0 0 0-10.22 3.94 20.79 20.79 0 0 1-21.62-.79 60.46 60.46 0 0 1-27.53-56.42l3-26.15a59.87 59.87 0 0 1 16.75-34.62l25-26.08a23.17 23.17 0 0 1 14.64-6.64v146.76zm48.91 3.16a20.79 20.79 0 0 1-21.61.79 36.47 36.47 0 0 0-10.23-3.95V307.43a23.19 23.19 0 0 1 14.64 6.64l25 26.09a59.85 59.85 0 0 1 16.75 34.62l3 26.15a60.47 60.47 0 0 1-27.55 56.42z" transform="translate(-136.56)"/><path class="cls-1" d="M229.72 355.15a6.52 6.52 0 0 0-.77-1.53l-1-1.28a8.81 8.81 0 0 0-12.12 0l-1 1.28a6.58 6.58 0 0 0-.77 1.53 5.14 5.14 0 0 0-.51 1.62 10.14 10.14 0 0 0-.17 1.62 8.45 8.45 0 0 0 8.53 8.53 8.55 8.55 0 0 0 3.24-.68 8.89 8.89 0 0 0 2.82-1.79 9 9 0 0 0 2.47-6.06 10.5 10.5 0 0 0-.17-1.62 5.25 5.25 0 0 0-.55-1.62zm-1.79 31.32a8.93 8.93 0 0 0-7.77-2.3 5.43 5.43 0 0 0-1.54.51 6.52 6.52 0 0 0-1.53.77l-1.28 1a8.77 8.77 0 0 0-1.8 2.81 8.54 8.54 0 0 0-.68 3.25 9 9 0 0 0 2.47 6.06 12.68 12.68 0 0 0 1.28 1 6.58 6.58 0 0 0 1.53.77 5.57 5.57 0 0 0 1.54.51 13.23 13.23 0 0 0 1.71.17 8.45 8.45 0 0 0 7.85-11.78 9.87 9.87 0 0 0-1.78-2.77zm-9.3 32.34a8 8 0 0 0-2.81 1.8 8.53 8.53 0 0 0 6.06 14.59 9 9 0 0 0 6.06-2.47 13.5 13.5 0 0 0 1-1.28 6.5 6.5 0 0 0 .77-1.54 5.57 5.57 0 0 0 .51-1.54 13.17 13.17 0 0 0 .17-1.7 9 9 0 0 0-2.47-6.06 8.54 8.54 0 0 0-9.29-1.8zm71.51-.68a8.53 8.53 0 0 0-8.53 8.53 12.49 12.49 0 0 0 .17 1.7 5.41 5.41 0 0 0 .51 1.54 6.48 6.48 0 0 0 .77 1.54l1 1.28a8.65 8.65 0 0 0 12.12 0l1-1.28a6.5 6.5 0 0 0 .77-1.54 5.57 5.57 0 0 0 .51-1.54 13.17 13.17 0 0 0 .17-1.7 8.54 8.54 0 0 0-8.49-8.53zm6.06-31.66a8.83 8.83 0 0 0-2.82-1.8 8.55 8.55 0 0 0-9.3 1.79 9.84 9.84 0 0 0-1.8 2.81 8.54 8.54 0 0 0-.68 3.25 8.45 8.45 0 0 0 8.53 8.53 7.16 7.16 0 0 0 3.24-.68 8.89 8.89 0 0 0 2.82-1.79 9 9 0 0 0 2.47-6.06 7.16 7.16 0 0 0-.68-3.25 10 10 0 0 0-1.78-2.8zm1.8-31.32a6.52 6.52 0 0 0-.77-1.53l-1-1.28a8.8 8.8 0 0 0-12.12 0 12.73 12.73 0 0 0-1 1.28 6.58 6.58 0 0 0-.77 1.53 5.14 5.14 0 0 0-.51 1.62 10.14 10.14 0 0 0-.17 1.62 9 9 0 0 0 2.47 6.06 8.83 8.83 0 0 0 2.81 1.79 8.45 8.45 0 0 0 11.78-7.85 10.5 10.5 0 0 0-.17-1.62 5.25 5.25 0 0 0-.55-1.62z" transform="translate(-136.56)"/></svg>