<svg id="Capa_1" data-name="Capa 1" xmlns="http://www.w3.org/2000/svg" viewBox="0 0 463.79 512"><defs><style>.cls-1{fill:#fff}</style></defs><title>cherries</title><path class="cls-1" d="M128.67 398.6c-24.26-5.43-44.77-23.8-52.24-46.81a8.59 8.59 0 1 0-16.34 5.3c9.45 29.11 34.29 51.43 64.83 58.27a8.82 8.82 0 0 0 1.88.21 8.59 8.59 0 0 0 1.87-17zm222.09 63.08c-24.26-5.43-44.77-23.8-52.24-46.81a8.59 8.59 0 1 0-16.34 5.3c9.45 29.11 34.29 51.43 64.83 58.27a8.82 8.82 0 0 0 1.88.21 8.59 8.59 0 0 0 1.87-17zM64.72 319.43a8.94 8.94 0 0 0 1.71.17 8.59 8.59 0 0 0 8.41-6.89 83.23 83.23 0 0 1 10.5-27 8.59 8.59 0 0 0-14.67-8.95A100.13 100.13 0 0 0 58 309.31a8.61 8.61 0 0 0 6.72 10.12z" transform="translate(-24.11)"/><path class="cls-1" d="M427.13 277.23C446 214.46 425.33 157.31 382.32 89a82.58 82.58 0 0 0 18.19 2.22 94.26 94.26 0 0 0 20-2.21c23.24-5.07 44.34-18.56 57.86-37l5.12-7.01-6.93-5C443.68 15.85 394 22.37 362.73 52.44c-6.5-14.46-17.51-27.13-32.36-36.67C310.35 2.93 285.89-2.45 263.28 1l-8.49 1.31 1.31 8.49c3.46 22.49 17 42.37 38.19 55.95a99.74 99.74 0 0 0 53.36 15.78c2 0 4-.09 5.92-.22-3.93 75.53-60.43 142.93-116.78 164.52-20.48-26.93-50.43-44-83.85-44h-17.18c-61.56 0-111.65 57.79-111.65 128.83a120.12 120.12 0 0 0 223.38 61.5C248.23 458.8 301.82 512 367.66 512A120.37 120.37 0 0 0 487.9 391.76c0-49.88-24.74-93.13-60.77-114.53zM458.54 49C435.89 72.85 398.69 80.69 372 67.36c22.67-23.82 59.88-31.68 86.54-18.36zM275.22 17.19a81.73 81.73 0 0 1 45.87 13c14 9 23.83 21.25 28.35 35.13-15.63.52-32.06-4.18-45.87-13-14.01-8.98-23.84-21.24-28.35-35.13zm93.88 83c44 70.69 56.85 119.85 42.61 169.5a97.67 97.67 0 0 0-35.46-6.78h-17.18c-40 0-75.1 24.5-94.81 61.12a141.71 141.71 0 0 0-17.84-62.65C303.55 238 358.37 174.8 369.1 100.2zM144.35 434.7A103.18 103.18 0 0 1 41.29 331.64c0-61.57 42.38-111.64 94.47-111.64h17.18c25.77 0 49.14 12.28 66.2 32.13a90.48 90.48 0 0 1-18.35 2 8.59 8.59 0 1 0 0 17.18 111.71 111.71 0 0 0 29.11-4.17 125.13 125.13 0 0 1 17.52 64.54A103.2 103.2 0 0 1 144.35 434.7zm223.31 60.12a103.18 103.18 0 0 1-103.07-103.06c0-61.56 42.39-111.65 94.48-111.65h17.18a81 81 0 0 1 30 5.85 217.26 217.26 0 0 1-11.7 24.33 8.59 8.59 0 0 0 15 8.35 223.2 223.2 0 0 0 11.82-25c29.4 18.95 49.39 55.81 49.39 98.09a103.19 103.19 0 0 1-103.1 103.09z" transform="translate(-24.11)"/><path class="cls-1" d="M213.06 280.1a34.39 34.39 0 0 1-34.35-34.35 8.59 8.59 0 1 0-17.18 0 51.58 51.58 0 0 0 51.53 51.53 8.59 8.59 0 1 0 0-17.18zm206.13 60.13a34.39 34.39 0 0 1-34.35-34.35 8.59 8.59 0 0 0-17.18 0 51.58 51.58 0 0 0 51.53 51.53 8.59 8.59 0 0 0 0-17.18z" transform="translate(-24.11)"/></svg>