<svg id="Capa_1" data-name="Capa 1" xmlns="http://www.w3.org/2000/svg" viewBox="0 0 511.53 512"><defs><style>.cls-1{fill:#b1d235}</style></defs><title>destination</title><path class="cls-1" d="M125.77 153.9A125.68 125.68 0 0 0 .23 279.44c0 43 20.44 89.18 60.76 137.34 6 7.15 12 13.79 17.69 19.83C52.65 443.72 37 456.48 37 471.39 37 497.76 82.74 512 125.76 512s88.74-14.23 88.74-40.61c0-14.89-15.63-27.66-41.64-34.77a408.74 408.74 0 0 0 32.19-38.28 7.51 7.51 0 1 0-12.05-8.91 403.11 403.11 0 0 1-38.78 44.8 7.51 7.51 0 0 0-3.27 3.25c-10.84 10.65-20 18.56-25.14 22.87-5.12-4.28-14.1-12.07-24.8-22.59A7.51 7.51 0 0 0 97.2 434c-34-34.21-82-93.3-82-154.59a110.52 110.52 0 0 1 221 0c0 26.61-9.07 55.35-27 85.42a7.51 7.51 0 0 0 12.91 7.68c19.28-32.42 29.06-63.75 29.06-93.1a125.68 125.68 0 0 0-125.4-125.51zm-4.6 322.1a7.51 7.51 0 0 0 9.19 0 381.61 381.61 0 0 0 30.19-26.85c25.32 5.16 38.94 15.11 38.94 22.26 0 5.35-7.33 11.65-19.12 16.46-14.46 5.89-33.86 9.14-54.61 9.14-45 0-73.73-15.16-73.73-25.6 0-7.17 13.62-17.11 39-22.27A381.55 381.55 0 0 0 121.17 476z" transform="translate(-.23)"/><path class="cls-1" d="M125.77 224.85a54.13 54.13 0 0 0-32.66 10.85 7.51 7.51 0 0 0 9 12 39.46 39.46 0 1 1-14.38 20.8 7.51 7.51 0 1 0-14.43-4.14 54.59 54.59 0 1 0 52.47-39.5zM453 218.12c3.82-4.1 7.76-8.51 11.7-13.23 31.26-37.33 47.11-73.22 47.11-106.67A98.23 98.23 0 0 0 323 60a7.51 7.51 0 0 0 13.83 5.85 83.22 83.22 0 0 1 159.92 32.37c0 62-65.14 121.48-83.21 136.77-4-3.37-10.25-8.87-17.6-16.08a7.5 7.5 0 0 0-3.34-3.32c-25.92-26.1-62.26-71-62.26-117.38a7.51 7.51 0 1 0-15 0c0 33.45 15.85 69.34 47.11 106.67 3.95 4.71 7.88 9.13 11.7 13.22-19.35 5.82-30.53 15.71-30.53 27.63 0 10.05 8.15 18.91 23 24.94 12.67 5.16 29.36 8 47 8s34.31-2.84 47-8c14.8-6 23-14.89 23-24.95-.14-11.87-11.32-21.78-30.62-27.6zm-39.41 45.56c-35.54 0-54.93-11.85-54.93-17.94 0-4 8.82-11.22 27.65-15.23A293.35 293.35 0 0 0 409 250.64a7.51 7.51 0 0 0 9.19 0 293 293 0 0 0 22.68-20.12c8.39 1.79 15.66 4.41 20.74 7.51 4.32 2.63 6.9 5.52 6.9 7.72-.04 6.08-19.43 17.93-54.96 17.93z" transform="translate(-.23)"/><path class="cls-1" d="M413.55 54.53a43.69 43.69 0 1 0 43.69 43.69 43.74 43.74 0 0 0-43.69-43.69zm0 72.36a28.67 28.67 0 1 1 28.67-28.67 28.7 28.7 0 0 1-28.67 28.67zm-97.39 111.35h-3.43a56.65 56.65 0 0 0-7.46.49 7.51 7.51 0 1 0 2 14.89 41.75 41.75 0 0 1 5.48-.36h3.43a7.51 7.51 0 0 0 0-15zM291.34 463.5h-9.92a7.51 7.51 0 0 0 0 15h9.92a7.51 7.51 0 0 0 0-15zm33.73-128.01h-9.92a7.51 7.51 0 0 0 0 15h9.92a7.51 7.51 0 1 0 0-15zm-39.79-81.95a7.51 7.51 0 0 0-10.61-.43 56.44 56.44 0 0 0-7.57 8.55 7.51 7.51 0 1 0 12.2 8.76 41.49 41.49 0 0 1 5.55-6.27 7.51 7.51 0 0 0 .43-10.61zM331 463.31h-9.92a7.51 7.51 0 0 0 0 15H331a7.51 7.51 0 0 0 0-15zm-79.33.36h-9.92a7.51 7.51 0 0 0 0 15h9.92a7.51 7.51 0 0 0 0-15zm39.16-134.49a41.43 41.43 0 0 1-6.59-5.16 7.51 7.51 0 1 0-10.41 10.82 56.43 56.43 0 0 0 9 7 7.51 7.51 0 1 0 8-12.7zm-18.46-26.89a41.49 41.49 0 0 1-.76-7.91V294a7.51 7.51 0 0 0-7.42-7.59h-.09a7.51 7.51 0 0 0-7.51 7.42v.59a56.53 56.53 0 0 0 1 10.79 7.51 7.51 0 0 0 14.74-2.87zm92.36 33.2h-9.92a7.51 7.51 0 0 0 0 15h9.92a7.51 7.51 0 1 0 0-15zm120.54 15.28a71.49 71.49 0 0 0-9.19-6.16 7.51 7.51 0 1 0-7.37 13.08 56.63 56.63 0 0 1 7.26 4.87 7.51 7.51 0 0 0 9.31-11.79zM457.4 468.69a7.51 7.51 0 0 0-8.46-6.41 56.49 56.49 0 0 1-7.49.53H440a7.51 7.51 0 0 0 0 15h1.44a71.69 71.69 0 0 0 9.47-.67 7.51 7.51 0 0 0 6.49-8.45zm33.14-21.11a7.5 7.5 0 0 0-10.61-.26 56.72 56.72 0 0 1-6.78 5.52 7.51 7.51 0 1 0 8.55 12.34 71.82 71.82 0 0 0 8.58-7 7.51 7.51 0 0 0 .26-10.6zm14.61-36.46a7.51 7.51 0 0 0-8.77 6 56.24 56.24 0 0 1-2.28 8.43 7.51 7.51 0 1 0 14.14 5 71.2 71.2 0 0 0 2.89-10.69 7.51 7.51 0 0 0-5.98-8.74zm4.46-24.12a70.9 70.9 0 0 0-3.89-10.38 7.51 7.51 0 1 0-13.61 6.35 55.8 55.8 0 0 1 3.06 8.18 7.51 7.51 0 1 0 14.44-4.15zM404.4 335.49h-9.92a7.51 7.51 0 0 0 0 15h9.92a7.51 7.51 0 0 0 0-15zm-33.73 127.64h-9.92a7.51 7.51 0 0 0 0 15h9.92a7.51 7.51 0 0 0 0-15zm73.72-127.57c-1.06 0-2.14-.07-3.2-.07h-7.05a7.51 7.51 0 1 0 0 15h7.05q1.27 0 2.53.06h.34a7.51 7.51 0 0 0 .33-15zM410.33 463h-9.92a7.51 7.51 0 0 0 0 15h9.92a7.51 7.51 0 0 0 0-15z" transform="translate(-.23)"/></svg>