<svg id="Capa_1" data-name="Capa 1" xmlns="http://www.w3.org/2000/svg" viewBox="0 0 512 392.4"><defs><style>.cls-1{fill:#b1d235}</style></defs><title>fast-delivery</title><path class="cls-1" d="M128.56 223.67l-17.45-17.23-.28-43.19a7.5 7.5 0 0 0-7.5-7.45h-.05a7.5 7.5 0 0 0-7.45 7.55l.3 46.3a7.5 7.5 0 0 0 2.23 5.29l19.64 19.4a7.5 7.5 0 1 0 10.54-10.67zm202.11 57.9v-.19c0-.07-.06-.41-.1-.61l-.05-.21c0-.19-.1-.38-.16-.56l-.08-.22c-.07-.17-.13-.35-.21-.52l-.11-.23q-.12-.24-.26-.47l-.14-.23c-.1-.15-.2-.29-.3-.43l-.16-.21c-.12-.15-.25-.3-.39-.44l-.14-.15a7.28 7.28 0 0 0-.59-.54l-45.74-37.26a7.5 7.5 0 1 0-9.48 11.63l29.39 24H205a7.5 7.5 0 0 0 0 15h97.15l-29.39 24a7.5 7.5 0 1 0 9.48 11.63L328 288.2a7.66 7.66 0 0 0 .59-.54l.14-.15c.13-.14.26-.29.39-.44l.16-.21c.11-.14.21-.28.3-.43l.14-.23q.13-.23.26-.47l.11-.23c.08-.17.15-.34.21-.52l.08-.22c.06-.18.11-.37.16-.56l.05-.21c0-.2.08-.4.1-.61s0-.12 0-.19a7.5 7.5 0 0 0 0-.81 7.74 7.74 0 0 0-.02-.81z" transform="translate(0 -59.8)"/><path class="cls-1" d="M176.56 136a105.17 105.17 0 0 0-11.06-9.52l10.69-13a7.5 7.5 0 1 0-11.57-9.54l-11.84 14.36a102.75 102.75 0 0 0-41.64-12.08v-6.76h15.09a13.92 13.92 0 0 0 13.91-13.91V73.7a13.92 13.92 0 0 0-13.9-13.91h-45.8a13.92 13.92 0 0 0-13.9 13.91v11.86a13.92 13.92 0 0 0 13.9 13.91h15.7v6.77a102.79 102.79 0 0 0-42.06 12.29L42 103.94a7.5 7.5 0 1 0-11.57 9.54l10.91 13.23A105.18 105.18 0 0 0 30 136.67a103.63 103.63 0 0 0 73.62 176.56h.51A103.63 103.63 0 0 0 176.56 136zm-95-51.5v-9.7h43.59v9.67zM166.61 272a88.05 88.05 0 0 1-62.55 26.26h-.44a88.63 88.63 0 0 1-.41-177.26h.44a88.63 88.63 0 0 1 63 151z" transform="translate(0 -59.8)"/><path class="cls-1" d="M103.64 130h-.39a79.56 79.56 0 0 0 .37 159.12h.38a79.56 79.56 0 0 0-.36-159.12zm45.87 125a64.14 64.14 0 0 1-45.56 19.13h-.32a64.56 64.56 0 0 1-.3-129.12h.31a64.56 64.56 0 0 1 45.87 110zm-8.94 124.63a22.58 22.58 0 0 0-18.44 1.14 25.84 25.84 0 0 0-12.38 14c-4.89 12.92 1 27.16 13.07 31.74a22.19 22.19 0 0 0 7.88 1.45 23.23 23.23 0 0 0 10.55-2.59 25.84 25.84 0 0 0 12.38-14c4.9-12.91-.96-27.15-13.06-31.74zm-1 26.43a10.87 10.87 0 0 1-5.16 5.92 7.76 7.76 0 0 1-6.32.48c-4.36-1.65-6.32-7.22-4.35-12.4a10.87 10.87 0 0 1 5.16-5.92 8.32 8.32 0 0 1 3.77-.94 7.16 7.16 0 0 1 2.55.46c4.4 1.65 6.35 7.22 4.39 12.4zm289.95-26.43c-12.1-4.58-25.92 2.2-30.82 15.11s1 27.16 13.07 31.74a22.19 22.19 0 0 0 7.88 1.45 23.23 23.23 0 0 0 10.55-2.59 25.84 25.84 0 0 0 12.38-14c4.9-12.88-.97-27.12-13.06-31.71zm-1 26.43a10.87 10.87 0 0 1-5.12 5.94 7.76 7.76 0 0 1-6.32.48c-4.36-1.65-6.32-7.22-4.35-12.4 1.59-4.19 5.26-6.87 8.91-6.87a7.2 7.2 0 0 1 2.57.47c4.36 1.63 6.31 7.2 4.34 12.38z" transform="translate(0 -59.8)"/><path class="cls-1" d="M507.21 273.7c-11-12.44-22.33-25.41-34.67-39.65a19.84 19.84 0 0 0-15-6.69l-63-.09c1.92-11.86 3.77-23.66 5.47-35.23a16.15 16.15 0 0 0-16.24-18.71c-52.49 0-80.51 0-125-.06h-28.32a7.5 7.5 0 0 0 0 15h28.32c44.48 0 72.49 0 125 .06a1.54 1.54 0 0 1 1.17.4 1.51 1.51 0 0 1 .23 1.16c-3.64 24.75-8 50.71-12.21 76-6.18 36.45-12.5 73.83-17.27 110.28l-.06.44h-71.14l-36-.07h-1.53l-37.22-.08-38-.08a43.58 43.58 0 0 0-15.25-16l-.6-.37-1-.58-.89-.48-.9-.46-1.16-.55-.72-.33c-.65-.28-1.3-.55-2-.8s-1.36-.49-2-.71l-1.13-.34-.89-.26c-.52-.14-1-.26-1.57-.38l-.42-.1c-.63-.14-1.26-.26-1.9-.37h-.06a43.46 43.46 0 0 0-20.54 1.5h-.06c-.54.17-1.08.36-1.61.55l-.62.23-1.25.49-.53.21-.51.23-.75.33q-.75.34-1.49.71l-.35.17h-.09q-.92.47-1.82 1l-.74.44-1 .6-1 .64-.59.39a50.93 50.93 0 0 0-13.93 14.09H68.71l6.43-39.68a7.5 7.5 0 0 0-14.81-2.4c-4.49 27.76-7.83 48.37-7.83 48.37v.11L51 392.74a19.31 19.31 0 0 0 19.1 22.13h16.15a49.48 49.48 0 0 0 2.63 9.13 43.77 43.77 0 0 0 25.25 25.37 42.42 42.42 0 0 0 15.07 2.76c19.09 0 37.63-12.68 45.29-32.9.54-1.43 1-2.87 1.43-4.32l163.17.21h36.15a49.43 49.43 0 0 0 2.56 8.84 43.77 43.77 0 0 0 25.26 25.37 42.72 42.72 0 0 0 15.17 2.79 45.27 45.27 0 0 0 20.56-5.05 51.48 51.48 0 0 0 24.63-27.88c.5-1.31.93-2.63 1.32-4h9.35a22.41 22.41 0 0 0 21.8-18.51c5.54-36 11.34-74 15.91-107.47a19.6 19.6 0 0 0-4.59-15.51zM87.42 391.33l-.24.9c-.08.3-.24.89-.34 1.33s-.17.76-.25 1.13-.15.71-.22 1.07-.17.95-.25 1.42c0 .24-.08.49-.12.73-.09.58-.16 1.17-.23 1.75v.22H70.08a4.32 4.32 0 0 1-4.27-4.95l.56-3.79h21.05zm75.07 15v.12a38.93 38.93 0 0 1-2 7.56c-6.75 17.82-25.15 27.44-41 21.43a29 29 0 0 1-16.62-16.85 34.86 34.86 0 0 1-2.37-11.17v-.28a37.31 37.31 0 0 1 .21-5.65c.06-.56.14-1.12.23-1.68l.06-.34c.08-.46.17-.91.26-1.37 0-.17.07-.35.11-.53.09-.4.19-.8.29-1.2.05-.2.1-.41.16-.61.11-.4.23-.8.35-1.19.06-.19.11-.39.18-.58.19-.58.39-1.16.61-1.74.28-.75.6-1.48.93-2.21l.21-.46c.35-.74.71-1.47 1.1-2.18l.09-.16c6.95-12.57 20.17-19.53 32.62-17.89l.74.1.94.17c.61.12 1.21.25 1.81.42l.43.13c.72.21 1.43.43 2.13.7q.69.26 1.36.56l.83.39.48.23c.38.19.75.39 1.12.6l.14.07a29.41 29.41 0 0 1 12.33 14.13 35.55 35.55 0 0 1 2.28 19.43zm190.18-6.1H339.1L178 400a50.63 50.63 0 0 0-.82-8.67l32.55.07 67.35.14h76.63q-.55 4.35-1.03 8.64zm98.71 6.4v.09a39 39 0 0 1-2 7.29A36.5 36.5 0 0 1 432 433.78a28.37 28.37 0 0 1-40.23-15.24 34.83 34.83 0 0 1-2.36-11v-.16a37.17 37.17 0 0 1 .17-5.67v-.28q.08-.73.2-1.46l.09-.57c.07-.39.14-.79.22-1.18 0-.23.1-.47.15-.7s.17-.72.26-1.08.12-.49.19-.73.22-.76.34-1.14c.07-.21.13-.43.2-.64.19-.59.39-1.17.62-1.76a36.51 36.51 0 0 1 17.41-19.82c.52-.27 1-.51 1.57-.75l.51-.22 1.08-.44.61-.22 1-.35.63-.19 1-.28.61-.16 1.09-.23.54-.11q.72-.13 1.45-.22h.18c.55-.07 1.1-.12 1.64-.15h2.05c.74 0 1.49 0 2.23.1h.06c.75.07 1.49.17 2.23.3l.4.07q1.07.2 2.13.49l.39.11c.73.21 1.45.44 2.17.71.44.17.87.34 1.29.53l.77.36.43.2c11.86 5.82 18.52 19.97 16.07 34.68zM497 287.31c-4.56 33.3-10.34 71.23-15.88 107.21a7.51 7.51 0 0 1-7 5.8h-7.18a50 50 0 0 0-3.46-18.24 44 44 0 0 0-21.7-23.82l-.87-.41-.82-.37c-.61-.27-1.23-.52-1.87-.76a43.32 43.32 0 0 0-31.37.31q-2.2.86-4.36 2a51.48 51.48 0 0 0-24.63 27.88c-.37 1-.69 1.94-1 2.92-.09.28-.17.57-.26.85q-.35 1.19-.65 2.38c-.05.21-.11.42-.16.63-.23 1-.43 2-.61 3 0 .21-.07.42-.1.63q-.22 1.36-.38 2.73v.25h-6.87c.58-5.09 1.2-10.22 1.54-13.08.12-1 .24-2 .37-3 4.65-36.36 11.08-74.69 17.3-111.78l.63-3.73.21-1.25q2.15-12.66 4.24-25.1l65.41.09a4.82 4.82 0 0 1 3.73 1.51c12.37 14.27 23.74 27.28 34.76 39.75a4.55 4.55 0 0 1 .98 3.6z" transform="translate(0 -59.8)"/><path class="cls-1" d="M483.35 287.5c-9-10.3-18-20.57-26.58-30.52a12.61 12.61 0 0 0-9.56-4.29H411.5a14.6 14.6 0 0 0-14.14 12l-1.08 6.61c-2.43 14.94-4.95 30.4-7.35 45.62a12.4 12.4 0 0 0 2.76 10 12.66 12.66 0 0 0 9.67 4.35h67.63a14.49 14.49 0 0 0 14.16-12.11c1.26-8.66 1.88-13 3.12-21.65a12.46 12.46 0 0 0-2.92-10.01zm-14.95 28.76h-64.2c2.25-14.22 4.6-28.62 6.87-42.58l1-6h34.15c8.13 9.4 16.55 19.07 25.07 28.78-1.13 7.7-1.75 11.99-2.89 19.8z" transform="translate(0 -59.8)"/></svg>