<svg id="Capa_1" data-name="Capa 1" xmlns="http://www.w3.org/2000/svg" viewBox="0 0 512 342.65"><defs><style>.cls-1{fill:#fff}</style></defs><title>fish</title><path class="cls-1" d="M511.3 363.36c-.1-.21-10.38-21.06-11.09-37.81-.76-17.91-2.27-36.34-11.38-47.7-5.6-7-13.08-12.13-18.18-15.14 6.66-3.93 16.9-10.91 22.74-19.54 8.79-13 8.8-33 8.06-52.39-.7-18.29 8.66-42 8.75-42.22a6.65 6.65 0 0 0-5.21-9c-1.35-.2-33.18-4.48-53.73 25.91-13.28 19.65-19.14 44.31-21.53 58.16a301.483 301.483 0 0 0-22.94-16.77 313.28 313.28 0 0 0-71.11-34.88c.45-4.9.87-13.29-.52-20.75a120.88 120.88 0 0 0-6.28-21.2 6.65 6.65 0 0 0-6-4.11 426.46 426.46 0 0 1-54.41-5.58c-24.88-4.35-40.86-32-41-32.22a6.65 6.65 0 0 0-8.72-2.7c-.74.36-18.26 9.19-28.34 33.22-7.38 17.59-8 31.93-7.8 38.27-61.76 9.09-104.74 37.06-131.41 61.2-35.12 31.79-50 63.31-50.6 64.63a6.65 6.65 0 0 0 1.4 7.47c.79.78 19.7 19.41 54.42 39.13a348.39 348.39 0 0 0 147.26 44.43 108.54 108.54 0 0 0 22.86 25.9c27.2 21.76 56.74 27.32 58 27.55a6.64 6.64 0 0 0 7.71-5.27c.23-1.17 5.5-29.06-4.28-53.52l-.12-.29c62.41-13.27 112.06-44.13 143-68 3.12 12.38 10.35 35.25 24.35 52.72 21.28 26.57 50.44 20.21 51.67 19.93a6.65 6.65 0 0 0 4.46-9.44zm-49-190.49c10.14-15 23.72-19.11 32.37-20.1-3 9.53-7 24.93-6.49 38.53.66 17.19.76 34.78-5.78 44.42-5.39 8-16.69 14.64-21.56 17.28a238.32 238.32 0 0 0-19.14-19.24c.88-7.49 5.41-38.46 20.57-60.9zm-259.61-49.15a58.08 58.08 0 0 1 17.11-23.13c7 9.85 23.15 28.72 46.4 32.79a435 435 0 0 0 51.85 5.6 102.87 102.87 0 0 1 4 14.62 61.41 61.41 0 0 1 .57 14.16 342.58 342.58 0 0 0-97.91-13.93c-10 0-19.62.49-28.84 1.39a82.33 82.33 0 0 1 6.82-31.5zM105 337.81C56.52 318.53 25 293 14.89 284c5.14-9.36 19.45-32.76 45.25-56.12a229.8 229.8 0 0 1 40.92-29.54c5 7.69 21.29 35.36 21.29 65.83 0 36.41-16.83 72.39-17 72.75a6.66 6.66 0 0 0-.35.89zm175 74.61c-9.69-2.8-28.15-9.47-45.23-23.13-17.7-14.16-27.9-35.82-32.13-46.55 8.67-2 19.57-3.67 24.79-2.14 25.57 7.52 42.66 19.16 48.1 32.77 5.67 14.06 5.33 30.1 4.47 39.05zm.8-56.42c-12.52-15.36-33.91-24.21-50.23-29-12.82-3.77-37 3.19-39.68 4a6.65 6.65 0 0 0-4.48 8.26 136.45 136.45 0 0 0 8.44 20.46 329.48 329.48 0 0 1-77.44-17.23c1.52-3.24 18.2-39.77 18.2-78.26 0-33.1-16.45-62.14-22.78-72.08 29.06-14.31 66.08-25 111.88-25 80.74 0 139.3 27.42 174.21 50.43 28.57 18.83 46.43 37.86 53.58 46.21-16.38 15.99-81.27 74.33-171.66 92.21zm184.71-11.43c-15.18-18.95-21.67-46.31-23.2-53.65 9.05-7.55 15.71-13.84 19.7-17.78 3.93 2.16 11.35 6.75 16.41 13.06 6.6 8.22 7.83 24.93 8.47 39.94.52 12.2 5.06 25.62 8.52 34.21-7.88-.45-19.95-3.42-29.86-15.79z" transform="translate(0 -84.68)"/><path class="cls-1" d="M89.1 232.29a21.28 21.28 0 1 0 21.28 21.28 21.3 21.3 0 0 0-21.28-21.28zm0 29.26a8 8 0 1 1 8-8 8 8 0 0 1-8 8z" transform="translate(0 -84.68)"/></svg>