<svg id="Layer_1" data-name="Layer 1" xmlns="http://www.w3.org/2000/svg" viewBox="0 0 496.36 512"><defs><style>.cls-1{fill:#fff}</style></defs><title>goal</title><path class="cls-1" d="M479.55 496.36L335.44 243.57l-54.81 98.24-78.85-161.67V92.81h38.6l.07 38.08a23.3 23.3 0 0 0 0 2.44 23.73 23.73 0 0 0 23.88 22h111.76l-18.61-46.93 18.61-46.92h-73.17v15.69h50.14l-12.41 31.28 12.41 31.28h-88.72a8.18 8.18 0 0 1-8.26-7.31v-1a7.8 7.8 0 0 1 2.13-4.85 7.55 7.55 0 0 1 5.54-2.42h7.17a23.73 23.73 0 0 0 23.88-22 23.2 23.2 0 0 0 0-2.65l-.22-68.66A30.76 30.76 0 0 0 263.85 0h-77.72v180.14L31.88 496.36H7.82V512h496.36v-15.64zm-200.38-395a8.2 8.2 0 0 1-8.25 7.14h-7.17a23.05 23.05 0 0 0-7.7 1.34v-17h15.49a7.55 7.55 0 0 1 5.54 2.42 7.81 7.81 0 0 1 2.12 4.66zm-77.4-85.67h62.08a15.11 15.11 0 0 1 15.09 15.11l.16 47.7a23 23 0 0 0-7.59-1.29h-69.73V15.64zm133.81 259.5l55.36 97.12h-57.38a4.19 4.19 0 0 1 0-8.34h3.88a19.29 19.29 0 1 0 0-38.58h-29.86zM194 199.49l65 133.15h-88.31a3.65 3.65 0 1 1 0-7.3h3.88a19.29 19.29 0 1 0 0-38.58h-23.19zM49.14 496.36l94.61-194h30.81a3.65 3.65 0 1 1 0 7.3h-3.88a19.29 19.29 0 1 0 0 38.58h95.85l72.23 148.07H49.14zm306.89 0l-67.11-137.57 9.94-17.79h38.58a3.65 3.65 0 1 1 0 7.3h-3.88a19.82 19.82 0 0 0 0 39.63h66.31l61.81 108.45H356z" transform="translate(-7.82)"/></svg>