<svg id="Capa_1" data-name="Capa 1" xmlns="http://www.w3.org/2000/svg" viewBox="0 0 512 450"><defs><style>.cls-1{fill:#dedede}</style></defs><title>heart</title><path class="cls-1" d="M376 31c-42.36 0-79.17 20.34-106.44 58.83A197.34 197.34 0 0 0 256 112a197.13 197.13 0 0 0-13.56-22.19C215.17 51.34 178.36 31 136 31 57.44 31 0 97 0 177.51 0 267.44 72.43 329 182.07 422.27c20.43 17.37 41.55 35.33 64 55a15 15 0 0 0 19.76 0c22.49-19.68 43.62-37.65 64-55C439.57 329 512 267.44 512 177.51 512 96.94 454.54 31 376 31zm-65.51 368.42C293 414.3 275 429.61 256 446.1c-19-16.49-37-31.8-54.49-46.68C98.23 311.59 30 253.57 30 177.51 30 111.09 75.57 61 136 61c32.42 0 59.83 15.31 81.48 45.49A174.32 174.32 0 0 1 241.54 155 15 15 0 0 0 256 166a15 15 0 0 0 14.45-11 174.32 174.32 0 0 1 24.07-48.51C316.17 76.31 343.58 61 376 61c60.43 0 106 50.09 106 116.51 0 76.06-68.23 134.08-171.51 221.91z" transform="translate(0 -31)"/></svg>