<svg id="Capa_1" data-name="Capa 1" xmlns="http://www.w3.org/2000/svg" viewBox="0 0 488.1 512"><defs><style>.cls-1{fill:#fff}</style></defs><title>hen</title><path class="cls-1" d="M106.36 134.24A24.27 24.27 0 1 0 82.09 110a24.3 24.3 0 0 0 24.27 24.24zm7.93-24.24a7.93 7.93 0 1 1-7.93-7.93 7.94 7.94 0 0 1 7.93 7.93z" transform="translate(-11.95)"/><path class="cls-1" d="M491.88 227.78a8.17 8.17 0 0 0 0-16.34h-2.56V187.1h2.56a8.17 8.17 0 0 0 0-16.34h-2.56v-4.12c0-22.41-17.26-40-39.29-40a8.17 8.17 0 0 0-7.19 4.3l-50.38 93.56H205.91V110.29A78 78 0 0 0 80.65 48.11L69.71 36.52a93.77 93.77 0 0 1 122 5l.32.33.06.05A8.18 8.18 0 1 0 203.35 30a110.11 110.11 0 0 0-151 0 8.17 8.17 0 0 0-.4 11.5l.08.09 16.72 17.72a77.75 77.75 0 0 0-18.58 42.81H20.12a8.17 8.17 0 1 0 0 16.34h37.8a8.17 8.17 0 0 0 8.17-8.17A61.56 61.56 0 0 1 85 65.83c.21-.16.41-.34.61-.52a8.12 8.12 0 0 0 .6-.63 61.71 61.71 0 0 1 103.32 45.61v114.23H176a8.17 8.17 0 0 0 0 16.34h221.34a8.17 8.17 0 0 0 7.19-4.3l50.13-93.09C465.24 145.62 473 155 473 166.63v4.12h-2.56a8.17 8.17 0 0 0 0 16.34H473v24.34h-2.56a8.17 8.17 0 0 0 0 16.34H473v24.34h-2.56a8.17 8.17 0 0 0 0 16.34H473v12.73c0 118.26-96.21 214.47-214.47 214.47S44 399.45 44 281.19a206.8 206.8 0 0 1 4-40.32h95.27a8.17 8.17 0 1 0 0-16.34H51.95a222.56 222.56 0 0 1 11.21-30.73H79.7a8.17 8.17 0 0 0 0-16.34H66.09v-42.6a8.17 8.17 0 0 0-8.17-8.17H37.47a8.17 8.17 0 1 0 0 16.34h12.28v40.76c-14.64 31.34-22.05 64.1-22.05 97.4C27.69 408.46 131.23 512 258.5 512s230.82-103.54 230.82-230.81v-12.73h2.56a8.17 8.17 0 0 0 0-16.34h-2.56v-24.34h2.56z" transform="translate(-11.95)"/><path class="cls-1" d="M108.44 281.19a8.17 8.17 0 1 0-16.34 0c0 91.76 74.65 166.41 166.41 166.41a34.52 34.52 0 0 0 22.28-60.92 34.48 34.48 0 0 0 0-52.75A34.52 34.52 0 0 0 258.51 273h-26.76a8.17 8.17 0 0 0 0 16.34h26.76a18.2 18.2 0 1 1 0 36.41h-26.76a8.17 8.17 0 1 0 0 16.34h26.76a18.2 18.2 0 1 1 0 36.41h-26.76a8.17 8.17 0 1 0 0 16.34h26.76a18.2 18.2 0 1 1 0 36.41c-82.75.01-150.07-67.32-150.07-150.06zM390 371.46a8.17 8.17 0 0 0 0 16.34 27.49 27.49 0 0 0 0-55 8.17 8.17 0 0 0 0 16.34 11.15 11.15 0 0 1 0 22.3zm-53.67-52.75a8.17 8.17 0 0 0 0 16.34 27.49 27.49 0 1 0 0-55 8.17 8.17 0 0 0 0 16.34 11.15 11.15 0 0 1 0 22.3z" transform="translate(-11.95)"/></svg>