<svg id="Capa_1" data-name="Capa 1" xmlns="http://www.w3.org/2000/svg" viewBox="0 0 512 460.24"><defs><style>.cls-1{fill:#00b956}</style></defs><title>icon</title><path class="cls-1" d="M247.32 443.6a42.52 42.52 0 1 1-42.52-42.52 42.52 42.52 0 0 1 42.52 42.52zM377 401.08a42.52 42.52 0 1 0 42.52 42.52A42.52 42.52 0 0 0 377 401.08zm132-199.61L456.64 357s-4.33 23.08-26.4 23.08H166c-26.33 0-27.44-28.93-27.44-28.93S110.49 142.88 109.1 130.3s-17.48-21.91-17.48-21.91L22.42 76c-37.9-19.82-20.68-57.54 0-48.87C110.21 68.57 151 89 153.62 105.27s7.27 55.7 7.27 55.7v.25l.92-.25h323.6c39.07.03 23.59 40.56 23.59 40.5zm-75.68 86.59H176.6l5.28 41.86h238.94zm24.94-84.41H166l5.63 44.73H445z" transform="translate(0 -25.88)"/></svg>