<svg id="Capa_1" data-name="Capa 1" xmlns="http://www.w3.org/2000/svg" viewBox="0 0 512 494.29"><defs><style>.cls-1{fill:#fff}</style></defs><title>leaf</title><path class="cls-1" d="M415.19 365.79c-1.48 4 4.34 7.18 7.1 4.14q33.41-35.14 50.85 7.2 33.64 20.29 11.21 53.45c-10.37 19.09-32 31.5-51.86 37.17a139.62 139.62 0 0 1-33.66 4.93 5.76 5.76 0 0 0-5.76-5.23c-1.74 0-3.39-.18-5-.34a6 6 0 0 0-3.84-.48c-64.39-9.74-61.16-110.6-82-158a259.76 259.76 0 0 0-63.71-88.18C167 155.6 63 122.42 36.73 21.13c.1-.49.18-1 .28-1.46a3.88 3.88 0 0 0-1.76-4.21c-.29-1.3-.72-2.48-1-3.81-.88-4.44-7.5-3.2-7.64 1-.17 4.75-.12 9.45-.1 14.16C-11.46 151-18.36 306.61 71.79 410.28c72.9 83.84 196.27 114.37 300 77.33 61.72 6.93 139.81-13.37 140.25-87.93.26-51.75-74.78-93.68-96.85-33.89zM75.12 390.1C2 296.75 9.53 176.27 28.6 65.21a417.36 417.36 0 0 0 17.85 83.65c-6.44-3.39-12.64-7.16-18.94-10.94-2.22-1.33-4.5 1.71-2.73 3.53 7.1 7.4 15.78 12.87 24.92 17.41a509.37 509.37 0 0 0 20.74 50.94 176.31 176.31 0 0 1-33.1-17.19c-3.84-2.56-7.16 3.46-3.56 6.1a169.23 169.23 0 0 0 42.48 23 618.92 618.92 0 0 0 34.39 60.19 94.12 94.12 0 0 1-16.71-6.2c-7.85-3.84-14.75-9.17-22.82-12.58-1.51-.64-2.73 1.4-2 2.63 9.43 16.34 31.07 24.62 49.44 28.08 2.66 3.91 5.33 7.82 8.07 11.68 11.83 16.72 24.39 33.37 37.69 49.48-18-5.55-35.41-12.27-53.23-19.14-3-1.15-4.55 3.37-2.09 5 20.09 13 43.73 21.78 66.9 27.81a493.3 493.3 0 0 0 46 46.6 203.07 203.07 0 0 1-51.31-7.59c-4.6-1.29-6.2 5.35-1.93 7a159.67 159.67 0 0 0 65.19 10.64 324.81 324.81 0 0 0 51.35 34.39 268.27 268.27 0 0 1-43.9-1.48c-3.54-.4-3.85 4.9-.81 5.93 21 7.12 44 8.65 66 5.72a256.19 256.19 0 0 0 29.7 10.66C240.64 500 137.41 469.65 75.12 390.1zm253.75 72.4c-5.21-1.62-10.3-3.45-15.33-5.38-20.25-14.37-27.8-37.23-32.39-60.59-.88-4.52-6.84-2.8-7.34 1-2.28 17.34 3.27 33.49 12.73 47.37a298.49 298.49 0 0 1-42-27 5 5 0 0 0-.82-1.64c-17.21-18.89-24.1-42-24-67.23 0-4.51-7.47-5.84-8.15-1.11a87.77 87.77 0 0 0 6.87 48.24c-11.26-10.27-22-21.21-32.34-32.53a4.4 4.4 0 0 0-.25-1.16c-14.17-25-16.1-50.4-13.52-78.46.37-4-5.59-4.42-6.74-.91-6.15 18.76-5.15 38.67.32 57.38q-19.32-23.14-36.92-47.84a3.85 3.85 0 0 0 .8-4.07c-9.13-24.18-7.33-46.61-2-71.37.73-3.44-4.07-5.84-5.89-2.49-9.45 17.41-10.89 37.66-7.24 56.9C103.77 255 93.63 238 84.45 220.42a3.68 3.68 0 0 0 .46-3.28c-6-15.13-5.23-29.44-1.58-45 .94-4-4.92-6.92-6.92-2.92a54.09 54.09 0 0 0-5.49 23.19c-3.67-8.19-7.16-16.46-10.36-24.86-.73-1.9-1.31-3.84-2-5.76a3.68 3.68 0 0 0 2.36-5.5c-6.42-11.88-1.32-21.57 5.46-31.62 1.94-2.87-1.73-5.56-4.34-4.34-6.66 3.12-10.3 9.49-11.64 16.56a395.69 395.69 0 0 1-13.18-61.15c-.5-3.88-3-18.63-5-30.66.11-.56.2-1.14.31-1.7C52.22 141.29 194 183.71 252 250.81c46.36 53.65 45.4 112.82 70.18 174.38 7.79 19.33 19.4 34.75 35.06 44.22a243.66 243.66 0 0 1-28.36-6.91z" transform="translate(0 -8.86)"/></svg>