<svg id="Capa_1" data-name="Capa 1" xmlns="http://www.w3.org/2000/svg" viewBox="0 0 511.86 512"><defs><style>.cls-1{fill:#fff}</style></defs><title>mushroom</title><path class="cls-1" d="M503.1 256.56a176.31 176.31 0 0 0-177.53-121 87.44 87.44 0 0 0-1.14-54.26c-.07-.15-.2-.24-.28-.39s-.22-.5-.34-.75a180.51 180.51 0 0 0-58.68-56.14 176.22 176.22 0 0 0-185 299.83c.23.15.49.21.74.34s.24.22.4.29a69.89 69.89 0 0 0 27.16 4.61c21.26 0 53.85-7 93.66-37.72l31.31 34.8-78.14 70.25a59.77 59.77 0 0 0-2.26 86.67l11.5 11.41a59.12 59.12 0 0 0 42.16 17.5h1.66a59.12 59.12 0 0 0 42.79-19.78L310 426.8c39.8 30.74 72.38 37.71 93.64 37.71a69.91 69.91 0 0 0 27.16-4.61c.15-.07.25-.21.39-.28s.52-.19.77-.35a176.31 176.31 0 0 0 71.14-202.71zM310.19 92.49a66.8 66.8 0 0 1 1.78 18l-37.21-10.17a53.29 53.29 0 0 1 35.43-7.83zm-59 41.65a52.92 52.92 0 0 1 9-20.08l49.72 13.59a116.87 116.87 0 0 1-4.22 15c0 .1-.07.2-.1.3-.62 1.75-1.43 3.6-2.17 5.42zM296 164.07a207 207 0 0 1-17.49 26.57l-15.06-13.55a38.64 38.64 0 0 1-12.14-19.29 54.87 54.87 0 0 1-1-6.21zM92.4 310.28a53.32 53.32 0 0 1 7.86-35.41l10.15 37.24a66.06 66.06 0 0 1-18.01-1.83zm35.14-.23L114 260.25a52.92 52.92 0 0 1 20.09-9l14.26 52.24a123 123 0 0 1-20.81 6.51zM164 296.13l-12.49-45.76a55.1 55.1 0 0 1 6.21 1A38.61 38.61 0 0 1 177 263.55l13.55 15.06A208.37 208.37 0 0 1 164 296.13zm45.76-21.69s0-.1-.08-.15-.14-.1-.2-.17l-19.78-22a55.07 55.07 0 0 0-28.08-17.34 71.88 71.88 0 0 0-16.38-1.9 70 70 0 0 0-46.11 17.39c-.13.1-.24.22-.36.33-1.1 1-2.22 1.92-3.27 3a70.35 70.35 0 0 0-20.55 45.37q-5.86-4.85-11.27-10.26a159.14 159.14 0 0 1 192.72-250A164.45 164.45 0 0 1 298.85 75a70.34 70.34 0 0 0-45.36 20.54c-.93.93-1.71 2-2.58 2.93a8.15 8.15 0 0 0-.85 1 70.13 70.13 0 0 0-15.35 62.23 49.25 49.25 0 0 0 4.14 10.85 8 8 0 0 0 .62 1.19 59 59 0 0 0 12.58 16l22 19.79c.07.06.09.14.16.2s.11.05.16.09l71 63.87a42.66 42.66 0 0 1 1.64 61.9l-11.45 11.45a42.67 42.67 0 0 1-61.9-1.63l-21.83-24.26zM348 431.51A208.26 208.26 0 0 1 321.5 414l13.56-15.07c.67-.74 1.41-1.48 2.13-2.2a37.24 37.24 0 0 1 17.1-10 54.5 54.5 0 0 1 6.24-1.05zm36.45 13.92a123 123 0 0 1-20.77-6.53L378 386.66a53.06 53.06 0 0 1 20.08 9zm35.16.22a66.18 66.18 0 0 1-18 1.83l10.13-37.19a53.35 53.35 0 0 1 7.91 35.36zm28.75-21.59q-5.41 5.4-11.32 10.28A70.45 70.45 0 0 0 416.51 389c-.87-.87-1.84-1.6-2.75-2.42a8.19 8.19 0 0 0-1.25-1.1 70.23 70.23 0 0 0-62.16-15.3 54.38 54.38 0 0 0-25.17 14.45c-1 1-1.93 1.93-2.78 2.88l-19.73 21.92c-.09.1-.22.14-.31.25s-.07.15-.12.22l-63.84 70.9a42.17 42.17 0 0 1-30.55 14.12 41.51 41.51 0 0 1-31.33-12.51L165 471a42.69 42.69 0 0 1 1.64-61.87l78.13-70.24 16.16 18a59.18 59.18 0 0 0 42.84 19.76h1.63a59.15 59.15 0 0 0 42.19-17.5l11.45-11.45a59.73 59.73 0 0 0-2.3-86.65l-65.42-58.87a199.89 199.89 0 0 0 28.61-49A159.28 159.28 0 0 1 448.4 424.06z" transform="translate(-.07)"/></svg>