<svg id="Layer_1" data-name="Layer 1" xmlns="http://www.w3.org/2000/svg" viewBox="0 0 404.32 512"><defs><style>.cls-1{fill:#fff}</style></defs><title>onion</title><path class="cls-1" d="M458.16 273.78A188.68 188.68 0 0 0 418.62 158a201.13 201.13 0 0 0-100.2-69.6 7.49 7.49 0 0 1-2.61-1.34A40.2 40.2 0 0 1 302 58.49a41 41 0 0 1 11.55-30.67l10.17-10.54A10.2 10.2 0 0 0 313.19.52l-34.63 11.55a64.56 64.56 0 0 0-42.09 44.43l-.26 1a43.36 43.36 0 0 1-2.9 7.84c-4.6 9.51-13.57 16.43-24.59 19a204.12 204.12 0 0 0-110.66 67.8 191 191 0 0 0-44.22 121.64c0 95.7 72 175.51 166.45 191.81l-15.84 15.84a10.2 10.2 0 0 0 14.42 14.42l25.46-25.46v22.15a10.2 10.2 0 0 0 20.4 0v-22.15L303.36 509a10.2 10.2 0 0 0 14.42-14.42L289.19 466c95.73-15.31 168.97-95.67 168.97-192.22zM256 448.24c-100.23 0-181.76-78.24-181.76-174.46 0-81 57.19-150.7 139.07-169.62 17.07-3.94 31.06-14.87 38.37-30a63.77 63.77 0 0 0 4.26-11.53l.23-.86A44.21 44.21 0 0 1 285 31.42l2.2-.73a61.4 61.4 0 0 0-5.55 28.76 60.68 60.68 0 0 0 20.87 43.11 27.56 27.56 0 0 0 9.8 5.32c75 23.45 125.43 90.12 125.43 165.91.01 96.21-81.52 174.45-181.75 174.45z" transform="translate(-53.84)"/><path class="cls-1" d="M341.47 143.59a10.2 10.2 0 1 0-16.57 11.9c22.18 30.89 34.91 74.65 34.91 120.08 0 42.33-10.72 82.48-30.18 113.08a10.2 10.2 0 1 0 17.21 10.95c21.52-33.83 33.36-77.87 33.36-124 .01-50.36-13.75-97.23-38.73-132.01zm-48.47-5.3a10.2 10.2 0 1 0-19.78 5c8.58 34.14 13.5 82.46 13.5 132.58 0 46.69-4.14 91-11.67 124.84a10.2 10.2 0 1 0 19.95 4.4c7.84-35.23 12.16-81.14 12.16-129.27-.03-52.48-5.05-101.33-14.16-137.55zm-67.48-7.41a10.2 10.2 0 0 0-12.38 7.41C204 174.51 199 223.36 199 275.84c0 48.14 4.32 94 12.16 129.27a10.2 10.2 0 1 0 19.91-4.43c-7.53-33.82-11.67-78.15-11.67-124.84 0-50.12 4.92-98.44 13.5-132.58a10.2 10.2 0 0 0-7.38-12.38zm-46.6 10.38a10.2 10.2 0 0 0-14.23 2.33c-25 34.78-38.74 81.65-38.74 132 0 46.15 11.85 90.2 33.36 124a10.2 10.2 0 1 0 17.21-10.95c-19.46-30.6-30.18-70.76-30.18-113.08 0-45.43 12.72-89.19 34.91-120.08a10.2 10.2 0 0 0-2.33-14.22z" transform="translate(-53.84)"/></svg>