<svg id="Capa_1" data-name="Capa 1" xmlns="http://www.w3.org/2000/svg" viewBox="0 0 512 460.8"><defs><style>.cls-1{fill:#b1d235}</style></defs><title>online-shop</title><path class="cls-1" d="M486.4 25.6H25.6A25.6 25.6 0 0 0 0 51.2v324.27a25.6 25.6 0 0 0 25.6 25.6h196.27v34.13H153.6a25.6 25.6 0 0 0-25.6 25.6v17.07a8.53 8.53 0 0 0 8.53 8.53h238.94a8.53 8.53 0 0 0 8.53-8.53V460.8a25.6 25.6 0 0 0-25.6-25.6h-59.73v-34.13H486.4a25.6 25.6 0 0 0 25.6-25.6V51.2a25.6 25.6 0 0 0-25.6-25.6zm-128 426.67a8.53 8.53 0 0 1 8.53 8.53v8.53H145.07v-8.53a8.53 8.53 0 0 1 8.53-8.53zM238.93 435.2v-34.13h42.67v34.13zm256-59.73a8.53 8.53 0 0 1-8.53 8.53H25.6a8.53 8.53 0 0 1-8.53-8.53v-25.6h477.86zm0-42.67H17.07V94.57h477.86zm0-255.29H17.07V51.2a8.53 8.53 0 0 1 8.53-8.53h460.8a8.53 8.53 0 0 1 8.53 8.53z" transform="translate(0 -25.6)"/><path class="cls-1" d="M42.67 128H61.6l23.9 112.64a8.53 8.53 0 0 0 8.37 6.83h102.4a8.53 8.53 0 0 0 8.36-6.83l17.07-85.33a8.53 8.53 0 0 0-8.36-10.24H83.46l-6.92-27.67a8.53 8.53 0 0 0-8.28-6.47H42.67a8.53 8.53 0 0 0 0 17.07zm160.26 34.13l-13.65 68.27h-88.42L87.2 162.13zm-92 93.87a25.6 25.6 0 1 0 25.6 25.6 25.6 25.6 0 0 0-25.6-25.6zm0 34.13a8.53 8.53 0 1 1 8.53-8.53 8.53 8.53 0 0 1-8.53 8.53zm76.8-34.13a25.6 25.6 0 1 0 25.6 25.6 25.6 25.6 0 0 0-25.6-25.6zm0 34.13a8.53 8.53 0 1 1 8.53-8.53 8.53 8.53 0 0 1-8.53 8.53zm76.8-136.53h153.6a8.53 8.53 0 1 0 0-17.07h-153.6a8.53 8.53 0 0 0 0 17.07zm187.74 0h17.07a8.53 8.53 0 1 0 0-17.07h-17.07a8.53 8.53 0 1 0 0 17.07zm-187.74 34.13h153.6a8.53 8.53 0 1 0 0-17.07h-153.6a8.53 8.53 0 0 0 0 17.07zm187.74 0h17.07a8.53 8.53 0 1 0 0-17.07h-17.07a8.53 8.53 0 1 0 0 17.07zm-187.74 34.14h153.6a8.53 8.53 0 1 0 0-17.07h-153.6a8.53 8.53 0 0 0 0 17.07zm187.74 0h17.07a8.53 8.53 0 1 0 0-17.07h-17.07a8.53 8.53 0 1 0 0 17.07zM264.53 256h153.6a8.53 8.53 0 0 0 0-17.07h-153.6a8.53 8.53 0 0 0 0 17.07zm187.74 0h17.07a8.53 8.53 0 1 0 0-17.07h-17.07a8.53 8.53 0 1 0 0 17.07z" transform="translate(0 -25.6)"/></svg>