<svg id="Capa_1" data-name="Capa 1" xmlns="http://www.w3.org/2000/svg" viewBox="0 0 511.96 512"><defs><style>.cls-1{fill:#00a651}</style></defs><title>phone-call</title><path class="cls-1" d="M450.29 390.55c87.16-94.46 81.25-241.69-13.21-328.86a230.74 230.74 0 0 0-315.49.16L95 35.25a9.31 9.31 0 0 0-13.16 0c-109.06 109.06-109.06 285.89 0 395s285.89 109.06 395 0a9.31 9.31 0 0 0 0-13.16zM154.37 58.79c95.84-69.13 229.57-47.48 298.7 48.36A214 214 0 0 1 437 377.22L410.66 351a176.71 176.71 0 0 0-249.59-249.62L134.71 75a218.38 218.38 0 0 1 19.66-16.21zm57.06 92.89l-37.14-37.12A157.05 157.05 0 0 1 270 74.92v18.17h18.62V74.95a157.32 157.32 0 0 1 95.65 39.66l-18.45 18.45L379 146.22l18.45-18.45a157.32 157.32 0 0 1 39.66 95.65h-18.18V242h18.15a156.27 156.27 0 0 1-39.56 95.73l-37.15-37.15c-.07-.07-.16-.08-.23-.15s-.09-.16-.16-.22a8.74 8.74 0 0 0-1.39-.81 8.88 8.88 0 0 0-1.56-.93 8.46 8.46 0 0 0-1.86-.36 10 10 0 0 0-1.64-.22 8.9 8.9 0 0 0-1.86.36 8.3 8.3 0 0 0-1.64.42 9.41 9.41 0 0 0-1.57 1 8.88 8.88 0 0 0-1.28.86c-.07.07-.08.16-.16.23s-.16.09-.22.17l-70 78.81-33.44-14a189 189 0 0 1-99.61-96.49l-11.5-25.3 79.22-79.22a9.31 9.31 0 0 0-.04-13.06zM388 118q3.05 2.9 6 6zM88.52 55.12l103.14 103.14-33.38 33.38-98.92-98.92a262.6 262.6 0 0 1 29.16-37.6zM46.61 350a260.6 260.6 0 0 1 3-240.57l94.28 96.59-29.39 29.39a9.31 9.31 0 0 0-1.86 10.44l14.21 31.25a207.35 207.35 0 0 0 109.3 105.99l39.56 16.49a9.31 9.31 0 0 0 10.55-2.41l21-23.66 89.74 92C268.39 530.35 111.51 478.68 46.61 350zm367.24 106l-94.16-96.45 34.44-38.79L456.91 423.5a261.26 261.26 0 0 1-43.06 32.5z" transform="translate(-.02)"/><path class="cls-1" d="M279.3 242h83.78v-18.58h-74.47v-93.09H270v102.4a9.31 9.31 0 0 0 9.3 9.27z" transform="translate(-.02)"/></svg>