<svg id="Capa_1" data-name="Capa 1" xmlns="http://www.w3.org/2000/svg" viewBox="0 0 512 512"><defs><style>.cls-1{fill:#b1d235}</style></defs><title>pizza-2</title><path class="cls-1" d="M181.23 202.12A53.24 53.24 0 1 0 128 148.88a53.3 53.3 0 0 0 53.23 53.24zm0-91.48A38.24 38.24 0 1 1 143 148.88a38.28 38.28 0 0 1 38.23-38.24z"/><circle class="cls-1" cx="184.25" cy="129.01" r="7.46"/><path class="cls-1" d="M160.67 264.29a53.24 53.24 0 1 0 53.24 53.24 53.3 53.3 0 0 0-53.24-53.24zm0 91.48a38.24 38.24 0 1 1 38.24-38.24 38.28 38.28 0 0 1-38.24 38.24zm28.51 27.13c-6 16.37-1.14 33.87 2.26 42.85a14 14 0 0 0 19.9 7.24c8.38-4.69 23.31-15 29.27-31.37s1.14-33.87-2.26-42.84a14 14 0 0 0-19.9-7.24c-8.37 4.68-23.31 14.99-29.27 31.36zm14.1 5.13c4.08-11.21 14.78-18.92 21.46-22.82 2.62 7.28 5.86 20.06 1.78 31.28s-14.78 18.92-21.46 22.82c-2.62-7.31-5.86-20.07-1.78-31.31zm-71.73-199.48c-18.1-6.59-37.51-1.24-47.47 2.53a14.79 14.79 0 0 0-7.66 21c5.2 9.29 16.64 25.87 34.74 32.46a54.27 54.27 0 0 0 18.62 3.11 83.79 83.79 0 0 0 28.85-5.65 14.79 14.79 0 0 0 7.66-21c-5.21-9.29-16.64-25.86-34.74-32.45zm-15.26 41.93c-13.41-4.88-22.41-17.95-26.65-25.48 8.08-3 23.37-7.25 36.78-2.37s22.41 17.95 26.65 25.46c-8.07 3.05-23.37 7.27-36.78 2.39z"/><path class="cls-1" d="M437 75a256.06 256.06 0 0 0-326-30 7.5 7.5 0 0 0 8.5 12.36 241 241 0 0 1 306.91 369.05A241 241 0 1 1 94.35 77.25a7.5 7.5 0 0 0-10.06-11.12A256 256 0 1 0 437 75z"/><circle class="cls-1" cx="201.62" cy="155.57" r="7.46"/><circle class="cls-1" cx="150.93" cy="329.65" r="7.46"/><path class="cls-1" d="M387.11 320.61a49.14 49.14 0 0 0 16.89 2.82 75.51 75.51 0 0 0 26-5.08 14 14 0 0 0 7.24-19.9c-4.69-8.37-15-23.31-31.37-29.27S372 268 363 271.44a14 14 0 0 0-7.24 19.9c4.67 8.37 14.98 23.31 31.35 29.27zm13.59-37.34c11.21 4.08 18.92 14.78 22.82 21.46-7.28 2.62-20.07 5.86-31.28 1.78s-18.92-14.78-22.81-21.51c7.28-2.57 20.06-5.81 31.27-1.73z"/><circle class="cls-1" cx="176.79" cy="298.55" r="7.46"/><circle class="cls-1" cx="147.41" cy="300.12" r="7.46"/><circle class="cls-1" cx="379.04" cy="441.29" r="7.46"/><circle class="cls-1" cx="201.62" cy="470.7" r="7.46"/><circle class="cls-1" cx="57.73" cy="356.1" r="7.46"/><circle class="cls-1" cx="404.9" cy="428.43" r="7.46"/><circle class="cls-1" cx="50.27" cy="173.1" r="7.46"/><circle class="cls-1" cx="32.41" cy="209.1" r="7.46"/><circle class="cls-1" cx="470.92" cy="201.64" r="7.46"/><circle class="cls-1" cx="61.36" cy="138.29" r="7.46"/><path class="cls-1" d="M325.84 85.13A14.33 14.33 0 0 0 306.18 76c-9.16 4.12-25.67 13.5-33.36 30s-4.27 35.17-1.54 44.84a14.32 14.32 0 0 0 19.66 9.16c9.16-4.12 25.67-13.5 33.36-30s4.26-35.2 1.54-44.87zm-15.13 38.5c-5.46 11.71-17.83 18.91-25.2 22.33-2.12-7.84-4.55-21.95.91-33.66s17.82-18.91 25.19-22.3c2.12 7.82 4.55 21.92-.91 33.63z"/><circle class="cls-1" cx="323.4" cy="363.27" r="7.46"/><circle class="cls-1" cx="332.41" cy="45.82" r="7.46"/><path class="cls-1" d="M46.4 256c0 115.57 94 209.6 209.6 209.6s209.6-94 209.6-209.6a210 210 0 0 0-7.67-56.37 7.5 7.5 0 0 0-14.45 4 194.6 194.6 0 0 1 7 44.85H263.5v-187a195 195 0 0 1 170 114.63 7.5 7.5 0 1 0 13.7-6.11A210 210 0 0 0 256 46.4C140.43 46.4 46.4 140.43 46.4 256zm202.1-7.5h-29.13a7.5 7.5 0 1 0 0 15h29.13v186.94C147.15 446.58 65.42 364.85 61.56 263.5h123.23a7.5 7.5 0 0 0 0-15H61.56C65.42 147.15 147.15 65.42 248.5 61.56zm15 15h186.94c-3.86 101.35-85.59 183.08-186.94 186.94z"/><path class="cls-1" d="M334.27 302.86a53.24 53.24 0 1 0 53.24 53.24 53.3 53.3 0 0 0-53.24-53.24zm0 91.48a38.24 38.24 0 1 1 38.24-38.24 38.28 38.28 0 0 1-38.24 38.24z"/><circle class="cls-1" cx="380.01" cy="61.36" r="7.46"/><path class="cls-1" d="M355.49 233.8a53.24 53.24 0 1 0-53.24-53.24 53.3 53.3 0 0 0 53.24 53.24zm0-91.48a38.24 38.24 0 1 1-38.24 38.24 38.28 38.28 0 0 1 38.24-38.24z"/><circle class="cls-1" cx="355.49" cy="201.64" r="7.46"/><circle class="cls-1" cx="371.58" cy="169.68" r="7.46"/></svg>