<svg id="Capa_1" data-name="Capa 1" xmlns="http://www.w3.org/2000/svg" viewBox="0 0 512.01 421.45"><defs><style>.cls-1{fill:#fff}</style></defs><title>potatoes</title><path class="cls-1" d="M508.61 177.69c-21.28-81.28-75.66-67.06-165.79-43.47-13.57 3.55-32.19 5.76-51.92 8.09-16.44 2-33.86 4.06-50.77 7.15-6.05-6.19-12.32-12.89-18.89-19.94-24.54-26.39-52.35-56.31-81.59-71.42C94.59 34.8 58 43.13 24.37 84.33-17.52 135.71-4.29 219.86 55.31 286c-.8 3.65-1.53 7.4-2.12 11.35-5.55 37.6 9.36 75.7 42 107.3 31.81 30.79 76.88 51.81 126.9 59.19a262.72 262.72 0 0 0 38.36 2.85c36.38 0 71-7.8 100.23-22.87 40.37-20.82 65.65-53 71.2-90.59a140.58 140.58 0 0 0 1.61-24.66c59.51-39.17 88.99-97.86 75.12-150.88zM61.75 265.06c-47.18-57.7-57.18-126.88-22.9-168.94C56.57 74.38 73.71 63.87 93.3 63.87c11.54 0 23.93 3.65 37.78 10.81 26.36 13.63 53 42.28 76.49 67.56 3.48 3.74 6.91 7.43 10.26 11-14 3.46-25.63 7.57-35.38 12.44-25.64 12.78-41.42 29.35-48 50.51-.53 0-1 .16-1.52.21a115.25 115.25 0 0 0-23 4.56l-.64.21c-14.85 4.8-26.71 12.74-35.74 24-.17.21-.33.43-.49.63a77 77 0 0 0-5.43 7.93c-.26.44-.55.85-.8 1.29a90.4 90.4 0 0 0-4.54 8.98c-.15.35-.37.67-.54 1.06zm351.67 85.49c-4.65 31.45-26.42 58.73-61.28 76.71-35.9 18.51-81.13 24.94-127.3 18.14s-87.61-26-116.64-54.13C80 364 67 331.6 71.68 300.12a142.22 142.22 0 0 1 2.89-14.57A101.09 101.09 0 0 1 78 274.67c.15-.39.29-.78.44-1.17a73 73 0 0 1 4.43-9.24l.53-.9a57.14 57.14 0 0 1 5.66-8l.21-.21a51.16 51.16 0 0 1 7.12-6.82 54.75 54.75 0 0 1 8.09-5.16l1-.52a65.22 65.22 0 0 1 9-3.67l1.48-.46a87.11 87.11 0 0 1 10.3-2.45c.47-.08 1-.14 1.43-.21 3.85-.62 7.86-1.09 12.17-1.35 2-.12 4.19 0 6.32 0 2.42 0 4.88 0 7.38.18s5.2.35 8 .63c1.16.11 2.3.21 3.45.35 1 .11 1.88.19 2.84.32 2.52.34 5.09.78 7.66 1.22 1.48.25 2.93.46 4.42.74 2.34.44 4.71 1 7.08 1.46 1.67.35 3.32.67 5 1 3.57.81 7.15 1.68 10.73 2.59.38.09.77.18 1.16.28 12.31 3.15 24.61 6.76 36.34 10.18 19.66 5.74 38.24 11.16 53.39 13.4 48.75 7.19 79.81 12.81 98.29 22.88l.36.2c14.27 7.89 20.9 18.51 22.28 34.71l.38 4.46a126.57 126.57 0 0 1-1.52 21.43zm17-42.39c-.06-.18-.13-.33-.19-.49a57.38 57.38 0 0 0-2.08-5.58c-.35-.82-.7-1.64-1.08-2.44a53.32 53.32 0 0 0-2.84-5.25c-.29-.47-.63-.91-.93-1.36a56.8 56.8 0 0 0-14.47-14.71l-.94-.68c-1-.69-1.86-1.46-2.92-2.11s-2.34-1.24-3.49-1.88h-.07a118.47 118.47 0 0 0-21.68-9c-1.24-.4-2.45-.82-3.73-1.2s-2.68-.75-4-1.11q-4.51-1.25-9.3-2.39l-1-.24c-18.8-4.38-40.72-7.66-65.27-11.28-3.47-.51-7.2-1.22-11.14-2.09h-.16c-11.78-2.6-25.41-6.59-39.65-10.76-27.11-7.93-57-16.63-84.5-19.07-1.23-.13-2.48-.27-3.68-.37 6.1-13.35 17.84-24.09 36.18-33.24 26.53-13.23 65.38-17.84 99.66-21.9 20.38-2.41 39.63-4.7 54.45-8.57 98.17-25.69 127.16-30.38 143 30.14 11.21 42.85-12.2 91.08-60.13 125.57z" transform="translate(.01 -45.29)"/><path class="cls-1" d="M130.32 303.84a9.34 9.34 0 1 0-18.12 4.53l9.34 37.35a9.34 9.34 0 0 0 9 7.07 9.11 9.11 0 0 0 2.28-.28 9.35 9.35 0 0 0 6.8-11.33zm205.41-121.37A9.34 9.34 0 0 0 317.6 187l9.34 37.35a9.34 9.34 0 0 0 9 7.07 9.11 9.11 0 0 0 2.28-.28 9.35 9.35 0 0 0 6.8-11.33zM284.13 389l-32 21.42a9.34 9.34 0 1 0 10.38 15.52l32-21.42A9.34 9.34 0 0 0 284.13 389zM93.26 138.05a9.29 9.29 0 0 0 5.18-1.58l32-21.42A9.34 9.34 0 0 0 120 99.54L88.06 121a9.34 9.34 0 0 0 5.2 17.1zm189.29 193.2a9.34 9.34 0 0 0 2.45-18.34l-37.12-10.2a9.34 9.34 0 0 0-4.94 18l37.12 10.2a9.08 9.08 0 0 0 2.49.34zM88.45 205.27a9.33 9.33 0 0 0 5-17.23l-32.56-20.53a9.33 9.33 0 0 0-10 15.79l32.56 20.54a9.26 9.26 0 0 0 5 1.43zm363.15 9.89L423.1 241a9.34 9.34 0 1 0 12.54 13.84l28.5-25.84a9.34 9.34 0 0 0-12.54-13.84z" transform="translate(.01 -45.29)"/></svg>