<svg id="Layer_1" data-name="Layer 1" xmlns="http://www.w3.org/2000/svg" viewBox="0 0 310.3 512"><defs><style>.cls-1{fill:#333}</style></defs><title>ruble</title><path id="_Compound_Path_" data-name="&lt;Compound Path&gt;" class="cls-1" d="M279.27 263.76c72.72 0 131.88-59.16 131.88-131.88S352 0 279.27 0h-108.6a23.27 23.27 0 0 0-23.27 23.29v287h-23.28a23.27 23.27 0 0 0 0 46.55h23.27v131.89a23.27 23.27 0 0 0 46.55 0V356.85h85.33a23.27 23.27 0 0 0 0-46.55h-85.33v-46.54zm0-217.2h.73a85.33 85.33 0 0 1-.75 170.66h-85.31V46.56z" transform="translate(-100.85)"/></svg>