<svg data-name="Capa 1" xmlns="http://www.w3.org/2000/svg" viewBox="0 0 401.97 402"><title>tel</title><path d="M401.12 311.48q-1.71-5.14-21.7-15.13-5.43-3.15-15.43-8.57t-18.13-10q-8.15-4.57-15.28-8.85-1.14-.86-7.14-5a80.24 80.24 0 0 0-10.14-6.14 18.69 18.69 0 0 0-8.14-2q-5.71 0-14.27 8.14a139 139 0 0 0-15.7 17.71 172.13 172.13 0 0 1-15.13 17.7q-8 8.14-13.13 8.14a19.42 19.42 0 0 1-6.43-1.42c-2.57-1-4.52-1.77-5.86-2.42s-3.61-2-6.85-4-5-3.09-5.43-3.29q-39.11-21.7-67.09-49.68t-49.68-67.1q-.29-.57-3.28-5.42t-4-6.85a61.87 61.87 0 0 1-2.43-5.85A19.32 19.32 0 0 1 94.5 155q0-5.14 8.14-13.13a172 172 0 0 1 17.7-15.13 139 139 0 0 0 17.7-15.7q8.14-8.57 8.14-14.27a18.64 18.64 0 0 0-2-8.14 79.36 79.36 0 0 0-6.19-10.12q-4.14-6-5-7.14-4.28-7.13-8.85-15.27T114.2 38q-5.42-10-8.56-15.42-10-20-15.13-21.69a16 16 0 0 0-6-.86Q76.8 0 64.38 2.86a113.06 113.06 0 0 0-19.56 6q-14.28 6-30.26 34.83Q-.01 70.51-.01 96.78a110.26 110.26 0 0 0 1 15 123.18 123.18 0 0 0 3.57 16.42q2.57 9.13 4.14 13.56t5.85 15.85q4.28 11.42 5.14 14a258.61 258.61 0 0 0 23.69 50q22.54 36.54 61.52 75.52t75.52 61.53a259 259 0 0 0 50 23.7q2.57.85 14 5.14t15.85 5.85q4.42 1.57 13.56 4.14A124.27 124.27 0 0 0 290.2 401a111.69 111.69 0 0 0 15 1q26.26 0 53.11-14.56 28.83-16 34.82-30.27a112.44 112.44 0 0 0 6-19.55q2.86-12.42 2.86-20.13a15.92 15.92 0 0 0-.87-6.01z"/></svg>