<svg id="Capa_1" data-name="Capa 1" xmlns="http://www.w3.org/2000/svg" viewBox="0 0 512 413.04"><defs><style>.cls-1{fill:#b1d235}</style></defs><title>the-tube-entrance</title><path class="cls-1" d="M57.71 278.11a7.75 7.75 0 0 1-7.71-7.75v-38.28H7.75a7.75 7.75 0 1 1 0-15.5h50a7.75 7.75 0 0 1 7.75 7.75v46a7.75 7.75 0 0 1-7.79 7.78z" transform="translate(0 -49.48)"/><path class="cls-1" d="M504.25 462.52H257.54a7.75 7.75 0 0 1-7.75-7.75v-38.28h-42.21a7.75 7.75 0 0 1-7.75-7.75V370.2h-42.16a6.59 6.59 0 0 1-1.83-.21 7.76 7.76 0 0 1-5.82-6.28v-39.49h-42.35a7.75 7.75 0 0 1-7.75-7.75v-38.4h-42.2a7.75 7.75 0 0 1 0-15.5l50-.05a7.75 7.75 0 0 1 7.75 7.75v38.41h42.21a7.75 7.75 0 0 1 7.75 7.75v38.27h42.2a7.75 7.75 0 0 1 7.75 7.75V401h42.21a7.75 7.75 0 0 1 7.75 7.75V447h34.81V195H7.75a7.75 7.75 0 0 1 0-15.5h354.16v-16.32h-17.6a26.73 26.73 0 0 1-26.7-26.7v-60.3a26.73 26.73 0 0 1 26.7-26.7H467.8a26.73 26.73 0 0 1 26.7 26.7v60.29a26.73 26.73 0 0 1-26.7 26.7h-17.6v16.36h54.05a7.75 7.75 0 0 1 7.75 7.75v267.49a7.75 7.75 0 0 1-7.75 7.75zM473.67 447h22.83V195H315.61v252h22.82V262.66a7.75 7.75 0 0 1 7.75-7.75h119.74a7.75 7.75 0 0 1 7.75 7.75V447zm-59.86 0h44.36V270.41h-44.36zm-59.86 0h44.35V270.41h-44.36V447zm23.47-267.47h57.28v-16.35h-57.28zm65-31.87h25.38a11.21 11.21 0 0 0 11.2-11.2V76.18A11.21 11.21 0 0 0 467.8 65H344.31a11.21 11.21 0 0 0-11.2 11.2v60.29a11.21 11.21 0 0 0 11.2 11.2zm-36.73-13.36a7.71 7.71 0 0 1-2.75-.51l-.43-.18a7.74 7.74 0 0 1-2.2-1.5 7.69 7.69 0 0 1-1.6-2.25l-.1-.22-10.11-23.27-9.5 23.11a7.75 7.75 0 0 1-14.36-5.85l16.39-40.19a7.75 7.75 0 0 1 7.09-4.82h.09a7.75 7.75 0 0 1 7.11 4.67l10.11 23.3 9.44-23.13a7.75 7.75 0 0 1 14.29-.16l17.45 40.19a7.75 7.75 0 1 1-14.22 6.17l-10.11-23.3-9.43 23.12-.07.17a7.73 7.73 0 0 1-1.54 2.3 7.78 7.78 0 0 1-5.5 2.35z" transform="translate(0 -49.48)"/></svg>