<svg id="Capa_1" data-name="Capa 1" xmlns="http://www.w3.org/2000/svg" viewBox="0 0 512 510.89"><defs><style>.cls-1{fill:#b1d235}</style></defs><title>wallet</title><path class="cls-1" d="M503.92 84.87L488.56 7.43a8.53 8.53 0 0 0-10-6.71L55.73 84.78H42.67a8.53 8.53 0 0 0-8.53 8.53v43.52A42.56 42.56 0 0 0 0 178.65v290.13a42.72 42.72 0 0 0 42.67 42.67h460.8a8.53 8.53 0 0 0 8.53-8.53V93.31a8.53 8.53 0 0 0-8.08-8.44zm-30.46-65.74l13 65.66H143.25zm-449 141.41a26.1 26.1 0 0 1 9.63-6.06v48.17c-.19-.06-.38-.1-.56-.17a25.09 25.09 0 0 1-3.2-1.54 15.39 15.39 0 0 1-1.55-.85 26.34 26.34 0 0 1-4.27-3.35 25.67 25.67 0 0 1-.04-36.2zM494.93 392H375.47v-68.29h119.46zm0-85.33h-128a8.53 8.53 0 0 0-8.53 8.53v85.33a8.53 8.53 0 0 0 8.53 8.53h128v85.33H42.67a25.6 25.6 0 0 1-25.6-25.6v-256c.38.29.81.49 1.2.76.75.53 1.53 1 2.3 1.46a42.91 42.91 0 0 0 4.43 2.36c.85.38 1.71.76 2.56 1.08a41.11 41.11 0 0 0 5 1.52c.79.2 1.56.44 2.36.59a42.65 42.65 0 0 0 7.69.75h452.32zm-281-102.4a59.73 59.73 0 0 1 118.25 0zm281 0H349.36a76.8 76.8 0 0 0-152.59 0H51.2V101.85h443.73z" transform="translate(0 -.55)"/><path class="cls-1" d="M469.33 118.91h-51.2V136h42.67v42.67h17.07v-51.2a8.53 8.53 0 0 0-8.54-8.56zm-392.53 0a8.53 8.53 0 0 0-8.53 8.53v51.2h17.06V136H128v-17.09z" transform="translate(0 -.55)"/><path class="cls-1" d="M392.53 348.76h17.07v17.07h-17.07z"/></svg>