<svg xmlns="http://www.w3.org/2000/svg" viewBox="0 0 480 480"><path d="M440 112H40c-17.673 0-32 14.327-32 32v224c0 17.673 14.327 32 32 32h400c17.673 0 32-14.327 32-32V144c0-17.673-14.327-32-32-32zm-304 88a8 8 0 0 1-8 8H48a8 8 0 0 1-8-8v-48a8 8 0 0 1 8-8h80a8 8 0 0 1 8 8v48zm48-24c-8.837 0-16-7.163-16-16s7.163-16 16-16 16 7.163 16 16-7.163 16-16 16zm128 192c-61.856 0-112-50.144-112-112s50.144-112 112-112 112 50.144 112 112-50.144 112-112 112z" fill="#ff7956"/><path d="M312 144c-61.856 0-112 50.144-112 112s50.144 112 112 112 112-50.144 112-112-50.144-112-112-112zm0 192c-44.183 0-80-35.817-80-80s35.817-80 80-80 80 35.817 80 80-35.817 80-80 80z" fill="#787680"/><path d="M48 144h80a8 8 0 0 1 8 8v48a8 8 0 0 1-8 8H48a8 8 0 0 1-8-8v-48a8 8 0 0 1 8-8z" fill="#ffb655"/><circle cx="312" cy="256" r="80" fill="#ffeb99"/><path d="M72 80h64v32H72V80z" fill="#787680"/><circle cx="184" cy="160" r="16" fill="#ffde55"/><g fill="#2d2d30"><path d="M440 104H144V80a8 8 0 0 0-8-8H72a8 8 0 0 0-8 8v24H40c-22.08.026-39.974 17.92-40 40v224c.026 22.08 17.92 39.974 40 40h400c22.08-.026 39.974-17.92 40-40V144c-.026-22.08-17.92-39.974-40-40zM80 88h48v16H80V88zm384 280c0 13.255-10.745 24-24 24H40c-13.255 0-24-10.745-24-24V144c0-13.255 10.745-24 24-24h400c13.255 0 24 10.745 24 24v224z"/><path d="M312 136c-66.274 0-120 53.726-120 120s53.726 120 120 120 120-53.726 120-120c-.075-66.243-53.757-119.925-120-120zm0 224c-57.438 0-104-46.562-104-104s46.562-104 104-104 104 46.562 104 104c-.066 57.41-46.59 103.934-104 104zM128 136H48c-8.837 0-16 7.163-16 16v48c0 8.837 7.163 16 16 16h80c8.837 0 16-7.163 16-16v-48c0-8.837-7.163-16-16-16zm-80 64v-48h80v48H48zm80 32h16v144h-16V232z"/><path d="M312 168c-48.601 0-88 39.399-88 88s39.399 88 88 88 88-39.399 88-88c-.057-48.577-39.423-87.943-88-88zm0 160c-39.764 0-72-32.236-72-72s32.236-72 72-72 72 32.236 72 72c-.044 39.746-32.254 71.956-72 72zM208 160c0-13.255-10.745-24-24-24s-24 10.745-24 24 10.745 24 24 24 24-10.745 24-24zm-24 8a8 8 0 1 1 0-16 8 8 0 0 1 0 16z"/></g></svg>