<svg id="Capa_1" data-name="Capa 1" xmlns="http://www.w3.org/2000/svg" viewBox="0 0 512 504.17"><defs><style>.cls-1{fill:#e5e5e5}.cls-2{fill:#f57b78}.cls-3{fill:#d32144}.cls-4{fill:#ff5750}.cls-5{fill:#ffa4a1}</style></defs><title>chop</title><path class="cls-1" d="M166 24.85a19.92 19.92 0 0 1-1 6.35l-26.77 85.71H94.22l30.6-98.23A21.09 21.09 0 0 1 166 24.85zm117.81.09a22.16 22.16 0 0 1-1 6.26l-26.77 85.71h-44.12l30.69-98.23a21.09 21.09 0 0 1 41.2 6.26zm125.61-.09a19.92 19.92 0 0 1-1 6.35l-26.77 85.71h-44.03l30.6-98.23a21.09 21.09 0 0 1 41.2 6.17z" transform="translate(0 -3.91)"/><path class="cls-2" d="M263.56 116.91h57.63L255.13 301a200 200 0 0 0-4.69 120l.09.35a104 104 0 0 0 38.08 56L304 489a95.43 95.43 0 0 0 57.37 19.12h-118A95.44 95.44 0 0 1 186 489l-15.37-11.6a104 104 0 0 1-38.07-56l-.09-.35a200 200 0 0 1 4.69-120l66.07-184.12z" transform="translate(0 -3.91)"/><path class="cls-3" d="M392.21 262.77a18.71 18.71 0 0 1 1.65 7.74 20.46 20.46 0 0 1-5.86 14.26 20.12 20.12 0 0 1-14.34 6h-44.82a20.08 20.08 0 0 1-13.3-5l-3.74-3.22a20.31 20.31 0 0 1-5.65-22l36.51-101.71a10.76 10.76 0 0 1 20.6 1.13l13.91 58.5a256.44 256.44 0 0 0 15.04 44.3zm84.67 135.7v10.61a64.42 64.42 0 0 1-21.21 47.72l-1 .87a60.37 60.37 0 0 1-40.6 15.65h-53.2a61 61 0 0 1-36.51-12.17L309 449.58a68.4 68.4 0 0 1-25.12-36.51 166.55 166.55 0 0 1-6.17-42.6 45.05 45.05 0 0 1 25.47-40.33l.35-.17a42.15 42.15 0 0 1 19-4.43h55a143.57 143.57 0 0 1 42.86 6.52l8.61 2.7a61.76 61.76 0 0 1 27.21 17.47l5 5.48a61 61 0 0 1 15.67 40.76z" transform="translate(0 -3.91)"/><path class="cls-4" d="M512 398.47v10.69a99 99 0 0 1-32.6 73.46l-1 .78a95.27 95.27 0 0 1-64.07 24.69h-53A95.44 95.44 0 0 1 304 489l-15.41-11.6a104 104 0 0 1-38.07-56l-.09-.35a200 200 0 0 1 4.69-120l66.07-184.12h68l22.25 93.54a217 217 0 0 0 50.07 95.27l25.9 28.69A96 96 0 0 1 512 398.47zm-35.12 10.61v-10.61a61.06 61.06 0 0 0-15.73-40.77l-5-5.48A61.76 61.76 0 0 0 429 334.75l-8.61-2.7a143.6 143.6 0 0 0-42.86-6.52h-55a42.16 42.16 0 0 0-19 4.43l-.35.17a45.05 45.05 0 0 0-25.47 40.33 166.56 166.56 0 0 0 6.17 42.6A68.4 68.4 0 0 0 309 449.58l15.39 11.56a61 61 0 0 0 36.51 12.17h53.2a60.37 60.37 0 0 0 40.6-15.65l1-.87a64.43 64.43 0 0 0 21.18-47.72zm-83-138.56a18.68 18.68 0 0 0-1.65-7.74 256.6 256.6 0 0 1-15-44.33l-13.91-58.5a10.76 10.76 0 0 0-20.6-1.13l-36.57 101.69a20.31 20.31 0 0 0 5.65 22l3.74 3.22a20.09 20.09 0 0 0 13.3 5h44.77a20.12 20.12 0 0 0 14.34-6 20.45 20.45 0 0 0 5.91-14.22z" transform="translate(0 -3.91)"/><path class="cls-5" d="M106.4 484.36a113.56 113.56 0 0 1-41.17-60.66 203.71 203.71 0 0 1-7.25-45l17.39-.87a185.29 185.29 0 0 0 6.55 40.86 96.31 96.31 0 0 0 34.9 51.73L132.29 482a87.21 87.21 0 0 0 52.16 17.39v8.69h58.95A95.44 95.44 0 0 1 186 489l-15.37-11.6a104 104 0 0 1-38.07-56l-.09-.35a200 200 0 0 1 4.69-120l66.07-184.12H77.79L11.73 301A200 200 0 0 0 7 421.07l.09.35a104 104 0 0 0 38.08 56L60.58 489A95.43 95.43 0 0 0 118 508.08h24.91a103.35 103.35 0 0 1-21-12.17z" transform="translate(0 -3.91)"/><path class="cls-3" d="M184.45 508.08v-8.69A87.2 87.2 0 0 1 132.29 482l-15.47-11.56a96.32 96.32 0 0 1-34.92-51.71 185.31 185.31 0 0 1-6.55-40.86l-17.35.87a203.72 203.72 0 0 0 7.25 45 113.56 113.56 0 0 0 41.17 60.66l15.47 11.54a103.29 103.29 0 0 0 21 12.17z" transform="translate(0 -3.91)"/><path class="cls-3" transform="rotate(-70.31 90.922 255.847)" d="M47.81 249.11h91.77v17.38H47.81z"/><path class="cls-3" d="M127.17 186.29l-16.35-5.95 8.77-24.3 16.37 5.88-8.79 24.37z"/><path class="cls-3" d="M226.29 484.36a111.36 111.36 0 0 1-23.85-24.22l14.1-10.14a94 94 0 0 0 20.13 20.45zM185 423.49a208 208 0 0 1 4.87-125.39l16.32 5.9a190.51 190.51 0 0 0-4.49 114.84l-8.3 2.61z" transform="translate(0 -3.91)"/></svg>