<svg id="Capa_1" data-name="Capa 1" xmlns="http://www.w3.org/2000/svg" viewBox="0 0 512 501.94"><defs><style>.cls-1{fill:#ffbf41}.cls-2{fill:#87d0f0}.cls-3{fill:#1e5d89}.cls-4{fill:#e3482c}.cls-5{fill:#d1e3ef}</style></defs><title>credit-card</title><path class="cls-1" d="M122 402.71L5.06 278.9a18.55 18.55 0 0 1 .23-25.7L242.75 10.6a18.55 18.55 0 0 1 26.25-.29l.29.29 137.18 140.22a18.54 18.54 0 0 1-.16 26.1l-89 89" transform="translate(0 -5.02)"/><path class="cls-2" d="M141.16 265.92h352.3A18.54 18.54 0 0 1 512 284.46v204A18.54 18.54 0 0 1 493.46 507h-352.3a18.54 18.54 0 0 1-18.54-18.54v-204a18.54 18.54 0 0 1 18.54-18.54z" transform="translate(0 -5.02)"/><path class="cls-3" d="M159.7 390.69h64.9v18.54h-64.9zm83.44 0h64.9v18.54h-64.9zm83.44 0h64.9v18.54h-64.9zm83.44 0h64.9v18.54h-64.9z"/><path class="cls-1" d="M410.25 312.51a32.45 32.45 0 1 1 0 45.89" transform="translate(0 -5.02)"/><path class="cls-3" d="M122.61 455.59h389.38v18.54H122.61z"/><path class="cls-4" d="M55.86 327.65L318.42 55.82l-32.1-32.8L19.84 289.5l36.02 38.15z"/><path class="cls-5" d="M159.7 288.71h18.54v18.54H159.7zm0 27.81h18.83v18.54H159.7zm27.81-27.81h18.54v46.35h-18.54zm27.81 0h18.54v18.54h-18.54zm0 27.81h18.54v18.54h-18.54z"/><path class="cls-3" transform="rotate(-45 301.97 198.52)" d="M281.81 191.75h52.45v18.54h-52.45z"/><path class="cls-3" transform="rotate(-45 339.039 161.436)" d="M332 154.67h26.22v18.54H332z"/><circle class="cls-4" cx="386.84" cy="330.43" r="32.45"/></svg>