<svg id="Layer_1" data-name="Layer 1" xmlns="http://www.w3.org/2000/svg" viewBox="0 0 423.54 355.05"><defs><style>.cls-1{fill:#ccc}.cls-2{fill:#fc7a51}.cls-3{fill:#4d4d4d;opacity:.2;isolation:isolate}.cls-4{fill:#e6e6e6}.cls-5{fill:#666}.cls-6{fill:#f9de58}.cls-7{fill:#b3b3b3}.cls-8{fill:#fff}</style></defs><title>delivery-truck2</title><path class="cls-1" d="M11.27 75.06h250.25v208.02H11.27z"/><path class="cls-1" d="M0 75.06h272.8v49.01H0z"/><path class="cls-2" d="M200.46 45.25a37.53 37.53 0 0 0-64.06 26.53 37.53 37.53 0 1 0-37.53 37.53h13.94v208H160v-208h13.94a37.52 37.52 0 0 0 26.53-64.06zM98.87 88.89A17.11 17.11 0 1 1 116 71.78v17.11zm75.06 0h-17.11V71.78a17.11 17.11 0 1 1 17.11 17.11z" transform="translate(0 -34.25)"/><path class="cls-3" d="M11.27 124.07h101.54v17.47H11.27zm148.72 0h101.53v17.47H159.99z"/><path class="cls-4" d="M193.44 187.12h28.3v45h-28.3z"/><path class="cls-4" d="M179.41 194.29h56.36l-28.18-28.17-28.18 28.17zm-128.35-7.17h28.3v45h-28.3z"/><path class="cls-4" d="M37.03 194.29h56.36l-28.18-28.17-28.18 28.17z"/><path class="cls-4" d="M79.12 333.11a22.62 22.62 0 1 1-22.62 22.62 22.65 22.65 0 0 1 22.62-22.62z" transform="translate(0 -34.25)"/><path class="cls-5" d="M112.68 355.73c0 .73 0 1.46-.07 2.18a33.56 33.56 0 0 1-67 0c0-.72-.07-1.45-.07-2.18a33.56 33.56 0 0 1 67.12 0zm-19.79 0a13.77 13.77 0 1 0-13.76 13.77 13.79 13.79 0 0 0 13.76-13.77z" transform="translate(0 -34.25)"/><path class="cls-4" d="M356.47 333.11a22.62 22.62 0 1 1-22.62 22.62 22.65 22.65 0 0 1 22.62-22.62z" transform="translate(0 -34.25)"/><path class="cls-6" d="M415.12 243.23V341h-20.78c-.4-1.06-.86-2.09-1.36-3.11a40.64 40.64 0 0 0-74.39 3.11 40.77 40.77 0 0 0-2.74 14.71c0 .73 0 1.47.06 2.19h-31.84V157.32a7.64 7.64 0 0 1 7.64-7.64H378a20.14 20.14 0 0 1 20.14 20.13v48.28a17 17 0 0 0 10.55 15.73 10.2 10.2 0 0 1 6.43 9.41z" transform="translate(0 -34.25)"/><path class="cls-7" d="M423.54 341v16.9H397c0-.72.06-1.45.06-2.18a40.2 40.2 0 0 0-2.71-14.72z" transform="translate(0 -34.25)"/><path class="cls-5" d="M323 357.91c0-.72-.07-1.45-.07-2.18a33.56 33.56 0 1 1 67.12 0c0 .73 0 1.46-.07 2.17a33.56 33.56 0 0 1-67 0zm47.25-2.18a13.77 13.77 0 1 0-13.77 13.77 13.79 13.79 0 0 0 13.76-13.77z" transform="translate(0 -34.25)"/><path class="cls-3" d="M297.61 149.68V341h-13.54V157.32a7.64 7.64 0 0 1 7.64-7.64h5.9z" transform="translate(0 -34.25)"/><path class="cls-8" d="M406 320.47a17.72 17.72 0 1 1 0-35.47zm-47.28-150.69h-45.78a5.49 5.49 0 0 0-5.49 5.49v46.6a5.49 5.49 0 0 0 5.49 5.49h45.79zm21.53 0h-9.14v57.59h9.14a5.49 5.49 0 0 0 5.49-5.49v-46.6a5.49 5.49 0 0 0-5.49-5.5z" transform="translate(0 -34.25)"/><path class="cls-7" d="M318.6 341h-34.53v-24.54H2.12v41.45h36.44c0-.72-.06-1.45-.06-2.18A40.22 40.22 0 0 1 40.89 342h76.47a40.44 40.44 0 0 1 2.39 13.72c0 .73 0 1.46-.06 2.18h196.23c0-.72-.07-1.45-.07-2.18A40.6 40.6 0 0 1 318.6 341z" transform="translate(0 -34.25)"/></svg>