<svg id="Capa_1" data-name="Capa 1" xmlns="http://www.w3.org/2000/svg" viewBox="0 0 512 457.12"><defs><style>.cls-1{fill:#48c1e1}.cls-2{fill:#046699}.cls-3,.cls-5{opacity:.1}.cls-4{fill:#a2dff9}.cls-5{isolation:isolate}.cls-6{fill:#ef5050}.cls-7{fill:#c0272d}.cls-8{fill:#89c947}.cls-9{fill:#d5e962}.cls-10{fill:#ffc502}.cls-11{fill:#368c0e}.cls-12{fill:#f7931e}.cls-13{fill:#e6e9ed}</style></defs><title>diet</title><path class="cls-1" d="M60.8 46.08h51.77v34.55H60.8z"/><path class="cls-2" d="M123.26 69.72a5.17 5.17 0 0 1-5.15 5.15H55.27a5.17 5.17 0 0 1-5.15-5.15V32.59a5.17 5.17 0 0 1 5.15-5.15h62.83a5.17 5.17 0 0 1 5.15 5.15v37.13z" transform="translate(0 -27.44)"/><path d="M71.61 69.72V32.59a5.17 5.17 0 0 1 5.15-5.15H55.27a5.17 5.17 0 0 0-5.15 5.15v37.13a5.17 5.17 0 0 0 5.15 5.15h21.49a5.17 5.17 0 0 1-5.15-5.15z" transform="translate(0 -27.44)" class="cls-3"/><path class="cls-4" d="M44.75 353.58a1 1 0 0 0 .49-1.42 4.51 4.51 0 0 1-.64-2.16c0-5.51 12.23-11.41 30.44-11.41a69.38 69.38 0 0 1 16.51 1.88 1 1 0 0 0 1.21-1.21 184.64 184.64 0 0 1-5.42-39v-.47q-.09-2.85-.09-5.72a4.18 4.18 0 0 1 4.17-4.18h9a1 1 0 0 0 1-1.11 31 31 0 0 1-.22-3.48 32 32 0 0 1 22.42-30.62 1 1 0 0 0 .6-1.39 30.17 30.17 0 0 1 14.61-40.53 1 1 0 0 0 .52-1.24 30.17 30.17 0 0 1 9-33.25v-43.04a28.8 28.8 0 0 0-28.68-28.75h-66A28.8 28.8 0 0 0 25 135.23v230.28a74.73 74.73 0 0 1 19.75-11.93z" transform="translate(0 -27.44)"/><path class="cls-2" d="M123.63 254.59a1 1 0 0 0 .6-1.39 30.17 30.17 0 0 1 14.61-40.53 1 1 0 0 0 .52-1.24 30.17 30.17 0 0 1 9-33.25v-19.34H25v106.4h83.12a32 32 0 0 1 15.51-10.65z" transform="translate(0 -27.44)"/><path class="cls-5" d="M56 341.11V135.23a28.8 28.8 0 0 1 28.68-28.75h-31A28.8 28.8 0 0 0 25 135.23v230.28a74.75 74.75 0 0 1 19.72-11.93 1 1 0 0 0 .49-1.42 4.51 4.51 0 0 1-.61-2.16c0-3.29 4.23-6.65 11.4-8.89z" transform="translate(0 -27.44)"/><path class="cls-6" d="M242.54 188.25a30.52 30.52 0 0 1 .44 5.14 1 1 0 0 0 .91 1 30.2 30.2 0 0 1 26.64 22.69 1 1 0 0 0 .69.71 1 1 0 0 0 .28 0 1 1 0 0 0 .68-.27 31.66 31.66 0 0 1 18.82-8.41 1 1 0 0 0 .9-1A54.91 54.91 0 0 1 307.92 171l.63-.6a68.89 68.89 0 0 0-19.34-38.12 5.39 5.39 0 0 0-7.63 0l-43.9 44a30.22 30.22 0 0 1 4.86 11.97z" transform="translate(0 -27.44)"/><path class="cls-7" d="M270.53 217.08a1 1 0 0 0 .69.71 1 1 0 0 0 .28 0 1 1 0 0 0 .68-.27 32 32 0 0 1 8.48-5.7 7.47 7.47 0 0 0-1.87-3.14l-7.28-7.3a7.5 7.5 0 0 0-10.61 0l-.06.07a30.13 30.13 0 0 1 9.69 15.63zm15.6-22.2h-10.3a7.5 7.5 0 0 1 0-15h10.3a7.5 7.5 0 0 1 0 15zm-11.75-20.72a7.5 7.5 0 0 1-5.31-12.8l7.28-7.3a7.5 7.5 0 0 1 10.65 10.6l-7.28 7.3a7.48 7.48 0 0 1-5.34 2.2z" transform="translate(0 -27.44)"/><path class="cls-8" d="M368.4 158.86a1.78 1.78 0 0 0-1-1 55.94 55.94 0 0 0-76.57 51.26c1-.1 2.09-.16 3.15-.16a32.1 32.1 0 0 1 31.43 25.93 56 56 0 0 0 43-76z" transform="translate(0 -27.44)"/><path class="cls-9" d="M341.46 184.87a7.5 7.5 0 0 0-10.61 0l-25.94 26a32.13 32.13 0 0 1 12.69 8.51l23.87-23.92a7.5 7.5 0 0 0-.01-10.59z" transform="translate(0 -27.44)"/><path class="cls-10" d="M379.17 244.75a27.39 27.39 0 0 1 .4 4.63 1 1 0 0 0 .91 1 27 27 0 0 1 11.5 3.74 1 1 0 0 0 1.26-.2c.85-1 1.58-1.77 2.3-2.49a50.09 50.09 0 0 1 21.29-12.72 33 33 0 1 0-64-16.48 27.12 27.12 0 0 1 26.34 22.52zm-226.36 44.34a51.54 51.54 0 0 1-6.28-19.14 30.13 30.13 0 0 1-22.26-16.6 32.91 32.91 0 0 0-23.82 35.74h52.35z" transform="translate(0 -27.44)"/><path class="cls-8" d="M404.89 272.82a27 27 0 0 1-2.22 16.27h42.44a51.52 51.52 0 0 0 5.93-48.89 1.64 1.64 0 0 0-.92-.92 51.24 51.24 0 0 0-55.29 11.43 49.216 49.216 0 0 0-3 3.31 27.18 27.18 0 0 1 13.06 18.8z" transform="translate(0 -27.44)"/><path class="cls-9" d="M402.68 289.09H412l14.79-14.83a7.5 7.5 0 0 0-10.62-10.59l-11 11a26.94 26.94 0 0 1-2.49 14.42z" transform="translate(0 -27.44)"/><path class="cls-11" d="M271.68 217.66A31.21 31.21 0 0 0 244 193.39a31.27 31.27 0 0 0-57.35-17.16 31.27 31.27 0 0 0-48.21 35.53 31.22 31.22 0 0 0 8.05 59.24 50.4 50.4 0 0 1 3.08-25.84.64.64 0 0 1 .14-.22.65.65 0 0 1 .22-.14 50.23 50.23 0 0 1 54.21 11.2c.69.69 1.35 1.4 2 2.13a68.91 68.91 0 0 1-.81-10.51 4.41 4.41 0 0 1 4.39-4.41h52.36c0-.7-.08-1.4-.08-2.1a33 33 0 0 1 9.68-23.45z" transform="translate(0 -27.44)"/><path class="cls-8" d="M162.15 220.59H162a7.5 7.5 0 0 1-7.37-7.63 23.85 23.85 0 0 1 23.82-23.41h.38A23.87 23.87 0 0 1 196 197.3a7.5 7.5 0 0 1-11 10.11 8.7 8.7 0 0 0-6.35-2.86 8.82 8.82 0 0 0-9 8.66 7.5 7.5 0 0 1-7.5 7.38zm41.41 12.9a7.51 7.51 0 0 1-7-10.11 21.84 21.84 0 0 1 40.58-1 7.5 7.5 0 1 1-13.8 5.87 6.75 6.75 0 0 0-3.91-3.73 6.87 6.87 0 0 0-8.8 4 7.5 7.5 0 0 1-7.07 4.97z" transform="translate(0 -27.44)"/><path class="cls-11" d="M326 243.09h-.27v.21h10a5.4 5.4 0 0 1 5.4 5.41 68.87 68.87 0 0 1-13.06 40.38h75.7a28.15 28.15 0 0 0-23.19-39.71 28.24 28.24 0 0 0-51.8-15.5 28.32 28.32 0 0 0-4.29-2.63 32.05 32.05 0 0 1 1.54 9.82c-.03.66-.03 1.33-.03 2.02z" transform="translate(0 -27.44)"/><path class="cls-12" d="M326.94 243.17c0-.7.08-1.4.08-2.1a33 33 0 1 0-66.06 0c0 .71 0 1.41.08 2.1z" transform="translate(0 -27.44)"/><path class="cls-8" d="M204.85 255.26a51.24 51.24 0 0 0-55.29-11.43 1.68 1.68 0 0 0-.55.37 1.64 1.64 0 0 0-.36.55 51.53 51.53 0 0 0 3 44.34h68.08a69 69 0 0 1-13.21-32q-.8-.95-1.67-1.83z" transform="translate(0 -27.44)"/><path class="cls-9" d="M183.2 289.09h21.19l-20.83-20.88a7.5 7.5 0 0 0-10.62 10.59z" transform="translate(0 -27.44)"/><path class="cls-6" d="M328.57 289.09a68.93 68.93 0 0 0 13.87-41.51 5.4 5.4 0 0 0-5.4-5.41H209.71a5.4 5.4 0 0 0-5.39 5.41 68.92 68.92 0 0 0 13.87 41.51z" transform="translate(0 -27.44)"/><path class="cls-7" d="M281.15 289.09v-5.19a7.5 7.5 0 1 0-15 0v5.19zm14.39 0h11.66a7.5 7.5 0 0 0-.5-10l-7.28-7.3a7.5 7.5 0 0 0-10.62 10.59zm-44.96 0l6.73-6.75a7.5 7.5 0 0 0-10.62-10.6l-7.28 7.3a7.5 7.5 0 0 0-.5 10zM239 268.86h-10.3a7.5 7.5 0 0 1 0-15H239a7.5 7.5 0 0 1 0 15zm79 0h-10.3a7.5 7.5 0 0 1 0-15H318a7.5 7.5 0 0 1 0 15z" transform="translate(0 -27.44)"/><path class="cls-13" d="M93 340.8a1 1 0 0 0 .27 0 1 1 0 0 0 1-1v-12.65a6.5 6.5 0 0 1 13 0v12.69a1 1 0 0 0 1 1 1 1 0 0 0 .27 0 67.4 67.4 0 0 1 17.95-2.27c18.21 0 30.43 5.9 30.43 11.41a4.51 4.51 0 0 1-.65 2.21 1 1 0 0 0 .49 1.42c23.31 9.61 39.83 30 43.11 53.19a1 1 0 0 0 1.35.8l157.88-60a26.75 26.75 0 0 1 35.82 20l1.38 7.42a1 1 0 0 0 1.49.68l53.08-31.33a186 186 0 0 0 6.85-50.37 5.18 5.18 0 0 0-5.17-5.18H91.39a5.18 5.18 0 0 0-5.17 5.18 186.44 186.44 0 0 0 5.85 46.58z" transform="translate(0 -27.44)"/><path class="cls-5" d="M93 340.8a1 1 0 0 0 .27 0 1 1 0 0 0 1-1v-12.65a6.5 6.5 0 0 1 13 0v12.69a1 1 0 0 0 1 1 1 1 0 0 0 .27 0 65.09 65.09 0 0 1 15.17-2.21 186.75 186.75 0 0 1-5.34-44.6 5.18 5.18 0 0 1 5.17-5.18H91.39a5.18 5.18 0 0 0-5.17 5.15 186.44 186.44 0 0 0 5.85 46.58z" transform="translate(0 -27.44)"/><path class="cls-8" d="M100.75 344.37a34.78 34.78 0 0 1 7.5-3v-14.22a7.5 7.5 0 0 0-15 0v14.25a34.67 34.67 0 0 1 7.5 2.97z" transform="translate(0 -27.44)"/><path class="cls-6" d="M177.37 483.55h-27.1A26.7 26.7 0 0 1 124 461.77l-.27-1.44a26.6 26.6 0 0 1 16.76-29.7l60.51-23c-3.12-24.92-20.68-45.8-44.8-55.37-2.34 3.93-10.4 7.36-20.89 8.59a1 1 0 0 0-.51 1.77c5.44 4.35 8.85 8.94 9.14 12.27a3.79 3.79 0 0 1-.91 3c-1.27 1.44-3.78 2.2-7.25 2.2-6.75 0-15.88-2.82-24.42-7.55a61.6 61.6 0 0 1-10-6.77 1 1 0 0 0-1.29 0 61.46 61.46 0 0 1-9.95 6.77c-8.54 4.73-17.67 7.55-24.43 7.55-3.47 0-6-.76-7.25-2.2a3.79 3.79 0 0 1-.91-3c.29-3.33 3.7-7.92 9.14-12.27a1 1 0 0 0-.51-1.77c-10.49-1.23-18.55-4.66-20.89-8.59C18.66 362.85 0 387.22 0 415.6c0 38.09 33.58 69 75 69h104c1.12-.04.25-.44-1.63-1.05z" transform="translate(0 -27.44)"/><path class="cls-5" d="M32.45 415.6c0-22.62 11.85-42.7 30.15-55.27-8.71-1.52-15.23-4.59-17.29-8.06C18.66 362.85 0 387.22 0 415.6c0 38.09 33.58 69 75 69h32.45c-41.45-.04-75-30.91-75-69z" transform="translate(0 -27.44)"/><path class="cls-11" d="M157.9 350c0-6.86-14.07-12.41-31.43-12.41-10.63 0-20 2.09-25.72 5.28-5.68-3.19-15.08-5.28-25.72-5.28-17.36 0-31.44 5.56-31.44 12.41 0 5.63 9.49 10.38 22.48 11.9-8 6.36-11.59 13-8.35 16.71 4.29 4.85 19 2.55 32.91-5.14a62.67 62.67 0 0 0 10.11-6.88 62.9 62.9 0 0 0 10.11 6.88c13.88 7.68 28.62 10 32.91 5.14 3.24-3.66-.4-10.35-8.35-16.71 13.01-1.57 22.49-6.32 22.49-11.9z" transform="translate(0 -27.44)"/><path class="cls-8" d="M511.88 394.36l-2-10.86a6.93 6.93 0 0 0-8.08-5.54l-77.73 14.28 49.63-33.18a6.87 6.87 0 0 0 2.18-9.12l-5.62-9.94a6.95 6.95 0 0 0-9.58-2.55l-64.56 38.11 12.21 65.94 74.05 13.31a6.93 6.93 0 0 0 8.09-5.78l1.67-11.23a6.82 6.82 0 0 0 0-2.27 6.92 6.92 0 0 0-5.27-5.48l-58.25-13.36 77.73-14.28a6.91 6.91 0 0 0 5.53-8.05z" transform="translate(0 -27.44)"/><path class="cls-12" d="M123 462a27.7 27.7 0 0 0 27.28 22.61l234-.09a27.66 27.66 0 0 0 27.26-32.63l-15.63-84.39a27.75 27.75 0 0 0-37.16-20.8l-218.6 83a27.61 27.61 0 0 0-17.39 30.82z" transform="translate(0 -27.44)"/><path d="M123 462a27.48 27.48 0 0 0 1.75 5.75 28.88 28.88 0 0 1 14.94-12.85L368 368.12a28.94 28.94 0 0 1 28.9 4.88l-1-5.52a27.75 27.75 0 0 0-37.16-20.8l-218.6 83a27.61 27.61 0 0 0-17.39 30.82z" transform="translate(0 -27.44)" class="cls-3"/><path class="cls-10" d="M370.84 449.39a7.5 7.5 0 1 0-14.73 2.82l6.17 32.27h15.27zm-40.66 8.89a7.5 7.5 0 1 0-14.74 2.78l4.42 23.43h15.26zm-39.74-56.49a7.5 7.5 0 0 0 14.56-3.66l-7.14-28.35-14.12 5.36zm-39.03 49.96a7.5 7.5 0 0 0-14.76 2.66l5.43 30.12h15.24zm-75.66-14.02a7.5 7.5 0 0 0 14.68-3.08l-4.68-22.28-14.19 5.39z" transform="translate(0 -27.44)"/></svg>