<svg id="Layer_1" data-name="Layer 1" xmlns="http://www.w3.org/2000/svg" viewBox="0 0 371.12 512"><defs><style>.cls-1{fill:#8a6746}.cls-2{fill:#ff3d63}.cls-3{fill:#ff0335}.cls-4{fill:#00ad94}.cls-5{fill:#008878}</style></defs><title>grapes</title><path class="cls-1" d="M417.66 13.44c-40.73 6.23-71.37 20.19-94.43 37.56-27.34-5.95-68.65.38-77.51 1.87l5.35 31.89a302.14 302.14 0 0 1 41.38-3.84A180.29 180.29 0 0 0 267 124.5c-18.87 45.77-17.62 114.6-17.49 116.37l32.25-2.41c0-.36-.84-62.87 15.14-101.63 21.08-51.13 63.36-81.89 125.68-91.42z" transform="translate(-70.44)"/><path class="cls-2" d="M177.63 239.66a44 44 0 1 1-44-44 44 44 0 0 1 44 44z" transform="translate(-70.44)"/><path class="cls-3" d="M177.63 239.66a44 44 0 0 1-44 44v-88a44 44 0 0 1 44 44z" transform="translate(-70.44)"/><path class="cls-2" d="M221.62 315.83a44 44 0 1 1-44-44 44 44 0 0 1 44 44z" transform="translate(-70.44)"/><path class="cls-3" d="M221.62 315.83a44 44 0 0 1-44 44v-88a44 44 0 0 1 44 44z" transform="translate(-70.44)"/><path class="cls-2" d="M309.6 315.83a44 44 0 1 1-44-44 44 44 0 0 1 44 44z" transform="translate(-70.44)"/><path class="cls-3" d="M309.6 315.83a44 44 0 0 1-44 44v-88a44 44 0 0 1 44 44z" transform="translate(-70.44)"/><path class="cls-2" d="M397.58 315.83a44 44 0 1 1-44-44 44 44 0 0 1 44 44z" transform="translate(-70.44)"/><path class="cls-3" d="M397.58 315.83a44 44 0 0 1-44 44v-88a44 44 0 0 1 44 44z" transform="translate(-70.44)"/><path class="cls-2" d="M265.61 392a44 44 0 1 1-44-44 44 44 0 0 1 44 44z" transform="translate(-70.44)"/><path class="cls-3" d="M265.61 392a44 44 0 0 1-44 44v-88a44 44 0 0 1 44 44z" transform="translate(-70.44)"/><path class="cls-2" d="M353.58 392a44 44 0 1 1-44-44 44 44 0 0 1 44 44z" transform="translate(-70.44)"/><path class="cls-3" d="M353.58 392a44 44 0 0 1-44 44v-88a44 44 0 0 1 44 44z" transform="translate(-70.44)"/><path class="cls-2" d="M309.6 468a44 44 0 1 1-44-44 44 44 0 0 1 44 44z" transform="translate(-70.44)"/><path class="cls-3" d="M309.6 468a44 44 0 0 1-44 44v-88a44 44 0 0 1 44 44z" transform="translate(-70.44)"/><path class="cls-2" d="M265.61 239.66a44 44 0 1 1-44-44 44 44 0 0 1 44 44z" transform="translate(-70.44)"/><path class="cls-3" d="M265.61 239.66a44 44 0 0 1-44 44v-88a44 44 0 0 1 44 44z" transform="translate(-70.44)"/><path class="cls-2" d="M353.58 239.66a44 44 0 1 1-44-44 44 44 0 0 1 44 44z" transform="translate(-70.44)"/><path class="cls-3" d="M353.58 239.66a44 44 0 0 1-44 44v-88a44 44 0 0 1 44 44z" transform="translate(-70.44)"/><path class="cls-2" d="M441.56 239.66a44 44 0 1 1-44-44 44 44 0 0 1 44 44z" transform="translate(-70.44)"/><path class="cls-3" d="M441.56 239.66a44 44 0 0 1-44 44v-88a44 44 0 0 1 44 44z" transform="translate(-70.44)"/><path class="cls-4" d="M258.09 106.75c-5.24 20.78-20.36 49.29-62.72 67.08l-21.16 8.89-1.51-27.79c-21.08 2-55.48-1.68-93.39-33.17l-8.84-7.33 4.07-10.78c17.41-46.09 45.52-66.26 64.82-75l-12.45-24.9L149.71 1c45.62-5.47 72.86 11.86 87.67 27.34 15.86 16.66 20.89 34.34 21.4 36.3a90.13 90.13 0 0 1-.69 42.11z" transform="translate(-70.44)"/><path class="cls-5" d="M258.09 106.75c-5.24 20.78-20.36 49.29-62.72 67.08l-21.16 8.89-1.51-27.79c-21.08 2-55.48-1.68-93.39-33.17l-8.84-7.33 188.31-49.8a90.09 90.09 0 0 1-.69 42.12z" transform="translate(-70.44)"/></svg>