<svg id="Layer_1" data-name="Layer 1" xmlns="http://www.w3.org/2000/svg" viewBox="0 0 512 508.43"><defs><style>.cls-1{fill:#ffcd71}.cls-2,.cls-3{fill:#ff883e}.cls-2{opacity:.48}.cls-2,.cls-4{isolation:isolate}.cls-4,.cls-6{fill:#cd2a00}.cls-4,.cls-5{opacity:.22}.cls-7{fill:#ff6243}</style></defs><title>logo</title><path class="cls-1" d="M95.62 335.67h-57c121.5-121.5 318.5-121.5 440 0h-383z" transform="translate(0 -1.79)"/><path class="cls-2" d="M95.62 335.67h-57c121.5-121.5 318.5-121.5 440 0h-383z" transform="translate(0 -1.79)"/><path class="cls-3" d="M40.63 420.88l-7.87-21.64 451.5-9.57-35.68 91.44a37.46 37.46 0 0 1-36.52 29.1H99.94a37.46 37.46 0 0 1-36.52-29.1z" transform="translate(0 -1.79)"/><path class="cls-4" d="M479.35 399.24H32.86l7.87 21.64 6 15.76h374.8l-4.6 12.27A37.46 37.46 0 0 1 380.38 478H68.25a37.61 37.61 0 0 1-5.65-.43l1.34 3.55a37.46 37.46 0 0 0 36.52 29.1h312.12a37.46 37.46 0 0 0 36.52-29.1l30.67-81.87z" transform="translate(0 -1.79)"/><path class="cls-1" d="M483.2 335.71a28.88 28.88 0 0 1 28.8 28.8v6a28.88 28.88 0 0 1-28.8 28.8H28.8A28.88 28.88 0 0 1 0 370.47v-6a28.88 28.88 0 0 1 28.8-28.8z" transform="translate(0 -1.79)"/><path class="cls-2" d="M491.34 336.89a28.55 28.55 0 0 1 1.18 8.14v6a28.88 28.88 0 0 1-28.8 28.8H9.32a28.58 28.58 0 0 1-8.14-1.18 28.91 28.91 0 0 0 27.62 20.62h454.4a28.88 28.88 0 0 0 28.8-28.8v-6a28.91 28.91 0 0 0-20.66-27.58z" transform="translate(0 -1.79)"/><g class="cls-5"><path class="cls-6" d="M259.93 309.76a7.79 7.79 0 0 1-7.79-7.79v-24.71a7.79 7.79 0 1 1 15.58 0V302a7.79 7.79 0 0 1-7.79 7.76z" transform="translate(0 -1.79)"/></g><g class="cls-5"><path class="cls-6" d="M198.54 309.08a7.8 7.8 0 0 1-7-11.13l11.06-23.34a7.79 7.79 0 0 1 14.08 6.67l-11.06 23.34a7.79 7.79 0 0 1-7.08 4.46z" transform="translate(0 -1.79)"/></g><g class="cls-5"><path class="cls-6" d="M319.18 309.08a7.79 7.79 0 0 1-7-4.46l-11.06-23.34a7.79 7.79 0 0 1 14.08-6.67l11.06 23.34a7.8 7.8 0 0 1-7 11.13z" transform="translate(0 -1.79)"/></g><path class="cls-7" d="M268.3 115C323 52.27 245.69 1.79 245.69 1.79s142 57.12 64.15 131.58c-36.55 35-55.73 40.29-52.05 89.25 0 0-23.48-23.86-15-61.1-.01 0 1.59-19.07 25.51-46.52z" transform="translate(0 -1.79)"/></svg>