<svg id="Layer_1" data-name="Layer 1" xmlns="http://www.w3.org/2000/svg" viewBox="0 0 511.98 458.67"><defs><style>.cls-1{fill:#ffce54}.cls-2{fill:#f6bb42}.cls-3{fill:#fc6e51}.cls-4{fill:#e9573f}.cls-5{fill:#e6e9ed}.cls-6{fill:#e8a734}</style></defs><title>pie2</title><path class="cls-1" d="M426.64 458.67H85.33l-63.36-128h468.87l-64.2 128z"/><path class="cls-2" d="M74.77 437.32l10.56 21.35h341.31l10.72-21.35H74.77z"/><path class="cls-3" d="M512 336c0-11.73-9.11-24.37-20.25-28.08l-23.5-7.83c-11.14-3.72-25.19-15-31.22-25 0 0-53-88.38-181-88.38S75 275 75 275c-6 10.06-20.08 21.33-31.22 25l-23.51 7.83C9.11 311.61 0 324.25 0 336v42.65c0 11.74 9.11 18.35 20.24 14.58l23.51-7.84c11.13-3.7 29.35-3.7 40.48 0l23.52 7.84c11.13 3.72 29.35 3.72 40.48 0l23.51-7.84c11.13-3.7 29.35-3.7 40.48 0l23.52 7.84c11.13 3.72 29.35 3.72 40.48 0l23.53-7.84c11.13-3.7 29.34-3.7 40.47 0l23.53 7.84c11.13 3.72 29.34 3.72 40.47 0l23.53-7.84c11.13-3.7 29.34-3.7 40.47 0l23.53 7.84C502.87 397 512 390.39 512 378.64V336z" transform="translate(0 -26.66)"/><path class="cls-4" d="M256 240a10.66 10.66 0 0 0-10.66 10.66V305a10.66 10.66 0 1 0 21.33 0v-54.35A10.66 10.66 0 0 0 256 240zm-47.93 1.47a10.66 10.66 0 0 0-14.6 3.78l-32 54.33a10.67 10.67 0 1 0 18.38 10.84l32-54.36a10.66 10.66 0 0 0-3.78-14.59zm142.45 58.11l-32-54.33a10.67 10.67 0 0 0-18.39 10.82l32 54.36a10.67 10.67 0 1 0 18.39-10.84z" transform="translate(0 -26.66)"/><path class="cls-5" d="M349.63 137.3a24.27 24.27 0 0 1-3.45-7c-1.3-4.55-.5-7.86 2.7-11.06 8.66-8.69 11.52-20 8.08-31.8a43.08 43.08 0 0 0-7.41-14.25 10.66 10.66 0 1 0-16.43 13.61 22.81 22.81 0 0 1 3.36 6.66c1.27 4.36.45 7.57-2.7 10.76-8.66 8.68-11.53 20-8.09 32a44.44 44.44 0 0 0 7.31 14.47 10.66 10.66 0 1 0 16.59-13.38zM274.48 52a65 65 0 0 0-10-21.13 10.65 10.65 0 1 0-17 12.9 45.13 45.13 0 0 1 6.36 13.7c2.68 10.08.77 18.62-5.86 26.11-11.39 12.88-15 28.69-10.49 45.72a65.11 65.11 0 0 0 10 21.13 10.66 10.66 0 0 0 17-12.86 44.94 44.94 0 0 1-6.49-14.3c-2.45-9.84-.49-18.19 6-25.54C275.37 84.84 279 69 274.48 52zm-88.2 35.47a43.24 43.24 0 0 0-7.38-14.26 10.66 10.66 0 0 0-16.45 13.59 22.43 22.43 0 0 1 3.36 6.66c1.28 4.36.47 7.57-2.7 10.76-8.64 8.68-11.51 20-8.09 32a44.49 44.49 0 0 0 7.34 14.47A10.66 10.66 0 1 0 179 137.3a23.82 23.82 0 0 1-3.44-7c-1.3-4.55-.5-7.86 2.7-11.06 8.62-8.66 11.48-19.96 8.02-31.77z" transform="translate(0 -26.66)"/><path class="cls-6" d="M120.86 477.76a10.72 10.72 0 0 0-3.12 7.56h21.33a10.67 10.67 0 0 0-18.21-7.56zm64 0a10.68 10.68 0 0 0-3.12 7.56h21.33a10.67 10.67 0 0 0-18.21-7.56zm64.01 0a10.65 10.65 0 0 0-3.12 7.56h21.33a10.66 10.66 0 0 0-18.2-7.56zm63.99 0a10.62 10.62 0 0 0-3.12 7.56h21.33a10.66 10.66 0 0 0-18.2-7.56zm79.14 0a10.67 10.67 0 0 0-18.22 7.56h21.33a10.73 10.73 0 0 0-3.11-7.56z" transform="translate(0 -26.66)"/></svg>