<svg id="Capa_1" data-name="Capa 1" xmlns="http://www.w3.org/2000/svg" viewBox="0 0 469.8 426.67"><defs><style>.cls-1{fill:#4caf50}.cls-2{fill:#388e3c}</style></defs><title>plant</title><path class="cls-1" d="M188.86 67.35c-41-41-121.36-45.78-178.2-45.78A10.67 10.67 0 0 0 0 32.24c0 56.85 4.76 137.17 45.78 178.21A99.33 99.33 0 0 0 116 235.52a106.37 106.37 0 0 0 72.88-25.07c30.55-30.59 36.12-106.92-.02-143.1zm270.28-3.59c-56.85 0-137.17 4.76-178.22 45.78-36.27 36.27-30.57 112.49 0 143.08a106.39 106.39 0 0 0 72.9 25.07A99.35 99.35 0 0 0 424 252.63c41-41 45.78-121.37 45.78-178.22a10.67 10.67 0 0 0-10.64-10.65z" transform="translate(0 -21.57)"/><path class="cls-2" d="M224 448.23a10.67 10.67 0 0 1-10.67-10.67c0-226.24-83-283-114.2-304.36a83.4 83.4 0 0 1-10.67-8.08A10.67 10.67 0 0 1 103.55 110a65.69 65.69 0 0 0 7.64 5.57c27.73 19 93.06 63.66 115.65 210.26a255.62 255.62 0 0 1 140.33-174.45 11.54 11.54 0 0 1 14.93 4.71 9.9 9.9 0 0 1-3.72 13.49l-.54.29-1.73.81c-116.95 55-141.5 175.47-141.5 266.88A10.67 10.67 0 0 1 224 448.23z" transform="translate(0 -21.57)"/></svg>