<svg id="Capa_1" data-name="Capa 1" xmlns="http://www.w3.org/2000/svg" viewBox="0 0 512 431.68"><defs><style>.cls-1{fill:#ff0c38}.cls-2{fill:#d80027}.cls-3{fill:#a5001e}.cls-4{fill:#f490c0}.cls-5{fill:#f072ae}.cls-6{fill:#f7afd1}.cls-7{fill:#ff728b}</style></defs><title>present</title><path class="cls-1" d="M375.71 194.54s54.55 81.11 130.38 126.55a12.24 12.24 0 0 1-2.56 22.12L470 354.14l10 33.46c3.35 11.2-9.36 20.26-18.88 13.47C424.78 375.17 364 318.85 345.41 223zm-239.42 0S81.73 275.65 5.91 321.09a12.24 12.24 0 0 0 2.56 22.12L42 354.14l-10 33.47c-3.35 11.2 9.36 20.26 18.88 13.47C87.22 375.17 148 318.86 166.59 223z" transform="translate(0 -40.16)"/><path class="cls-2" d="M50.47 401.36l.42-.28C87.22 375.17 148 318.86 166.59 223l-30.3-28.47S115.15 226 80.91 260.64c-3.5 31.85-11.79 86.96-30.44 140.72zm411.07 0l-.42-.28C424.78 375.17 364 318.86 345.41 223l30.3-28.47s21.14 31.42 55.37 66.1c3.51 31.86 11.8 86.97 30.46 140.73zM250.7 169.06c20.31 21.22 94.66-17 115.88-37.31A53.18 53.18 0 1 0 293 54.92c-21.19 20.31-62.61 92.93-42.3 114.14zm26.88-25.68c1.6-6.28 4.8-15.4 10.86-27.35 8.93-17.61 19.86-33.32 26-38.79 12.49-11.2 27.25-3.74 31.49.69a22.3 22.3 0 0 1-.69 31.49c-11.48 10.96-46.07 29.49-67.66 33.96z" transform="translate(0 -40.16)"/><path class="cls-3" d="M296.32 137.46a116.71 116.71 0 0 1-18.74 5.92c1.6-6.28 4.8-15.4 10.86-27.35.44-.87-2.31-12.06-4.53-17-3-6.61-6.31-13.27-9.89-19.75-19.44 30-38.39 74.06-23.32 89.81 8.27 8.64 25.51 7.42 44.47 1.57q4.36-14.39 1.15-33.2z" transform="translate(0 -40.16)"/><path class="cls-1" d="M219 54.92a53.18 53.18 0 0 0-73.55 76.83c21.22 20.31 95.57 58.53 115.87 37.31S240.19 75.23 219 54.92zm-52.18 54.5a22.3 22.3 0 0 1-.69-31.49c4.24-4.43 19-11.89 31.49-.69 6.1 5.47 17 21.18 26 38.79 6.06 11.94 9.26 21.07 10.86 27.35-21.65-4.47-56.24-23-67.68-33.95z" transform="translate(0 -40.16)"/><path class="cls-4" d="M379.2 471.84H132.8a32.28 32.28 0 0 1-32.28-32.28V140.33h311v299.22a32.28 32.28 0 0 1-32.32 32.29z" transform="translate(0 -40.16)"/><path class="cls-5" d="M100.52 182.85h310.97v55.42H100.52z"/><path class="cls-6" d="M425.28 223H86.72A23.68 23.68 0 0 1 63 199.34V164a23.68 23.68 0 0 1 23.68-23.68h338.6A23.68 23.68 0 0 1 449 164v35.33A23.68 23.68 0 0 1 425.28 223z" transform="translate(0 -40.16)"/><path class="cls-1" d="M210.52 100.17h90.96v331.51h-90.96z"/><path class="cls-2" d="M210.52 182.85h90.96v55.42h-90.96z"/><path class="cls-7" d="M210.52 100.17h90.96v82.69h-90.96z"/></svg>