<svg id="Capa_1" data-name="Capa 1" xmlns="http://www.w3.org/2000/svg" viewBox="0 0 501.93 512"><defs><style>.cls-1{fill:#f18290}.cls-2{opacity:.15}.cls-2,.cls-8{isolation:isolate}.cls-3{fill:#f8d9b9}.cls-4{fill:#5d6671}.cls-5{fill:#fff}.cls-6{fill:#d6d8db}.cls-7{fill:#f8d662}.cls-8{opacity:.1}.cls-9{fill:#7cd9d2}.cls-10{fill:#c3e9f1}</style></defs><title>recipe-book</title><path class="cls-1" d="M479.07 512H120.25a27.89 27.89 0 0 1-27.89-27.89V27.89A27.89 27.89 0 0 1 120.25 0h358.82A27.89 27.89 0 0 1 507 27.89v456.22A27.89 27.89 0 0 1 479.07 512z" transform="translate(-5.04)"/><path class="cls-2" d="M479.07 512H120.25a27.89 27.89 0 0 1-27.89-27.89V27.89A27.89 27.89 0 0 1 120.25 0h358.82A27.89 27.89 0 0 1 507 27.89v456.22A27.89 27.89 0 0 1 479.07 512z" transform="translate(-5.04)"/><path class="cls-3" d="M454.17 471.21H116.93V40.79h337.24a11.3 11.3 0 0 1 11.3 11.3v407.82a11.3 11.3 0 0 1-11.3 11.3z" transform="translate(-5.04)"/><path class="cls-1" d="M391.75 512H32.93A27.89 27.89 0 0 1 5 484.11V27.89A27.89 27.89 0 0 1 32.93 0h358.82a27.89 27.89 0 0 1 27.89 27.89v456.22A27.89 27.89 0 0 1 391.75 512z" transform="translate(-5.04)"/><path class="cls-4" d="M63 0H32.93A27.89 27.89 0 0 0 5 27.89v456.22A27.89 27.89 0 0 0 32.93 512H63z" transform="translate(-5.04)"/><path class="cls-5" d="M305.73 149a48.1 48.1 0 0 0-14.24 1 10.82 10.82 0 0 1-11.13-4.19 48 48 0 0 0-78.07 0 10.82 10.82 0 0 1-11.13 4.19 48 48 0 1 0-17.4 94.32 8.2 8.2 0 0 1 7 8.1v67.26a7.76 7.76 0 0 0 7.76 7.76h105.57a7.76 7.76 0 0 0 7.76-7.76v-67.25a8.2 8.2 0 0 1 7-8.1 48 48 0 0 0-3.15-95.3z" transform="translate(-5.04)"/><path class="cls-6" d="M175.75 286.96h121.07v15H175.75z"/><path class="cls-7" d="M351.44 79.22L326 67.41a12.19 12.19 0 0 0-10.26 0l-25.47 11.81A9.07 9.07 0 0 1 277.39 71V0h86.93v71a9.07 9.07 0 0 1-12.88 8.22z" transform="translate(-5.04)"/><path class="cls-8" d="M426.38 40.79h15v430.43h-15z"/><ellipse class="cls-5" cx="157.44" cy="414.28" rx="29.09" ry="23.17"/><ellipse class="cls-5" cx="315.12" cy="414.28" rx="29.09" ry="23.17"/><path class="cls-4" d="M193.28 396.57a7.5 7.5 0 0 1-7.5-7.5 6.35 6.35 0 0 0-12.69 0 7.5 7.5 0 0 1-15 0 21.35 21.35 0 0 1 42.69 0 7.5 7.5 0 0 1-7.5 7.5zm123.77 0a7.5 7.5 0 0 1-7.5-7.5 6.35 6.35 0 0 0-12.69 0 7.5 7.5 0 0 1-15 0 21.35 21.35 0 0 1 42.69 0 7.5 7.5 0 0 1-7.5 7.5zm-75.73 22.88a27 27 0 0 1-20.32-9.27 7.5 7.5 0 1 1 11.31-9.86 12 12 0 0 0 18.07 0 7.5 7.5 0 1 1 11.31 9.86 27 27 0 0 1-20.37 9.27z" transform="translate(-5.04)"/><path class="cls-8" d="M32.93 0A27.89 27.89 0 0 0 5 27.89v456.22A27.89 27.89 0 0 0 32.93 512H211.3c-118.39-66.34-85-428.8-80.78-512z" transform="translate(-5.04)"/><path class="cls-9" d="M455.17 164h-35.53V87.42h35.53a20.6 20.6 0 0 1 20.6 20.6v35.4a20.6 20.6 0 0 1-20.6 20.58z" transform="translate(-5.04)"/><path class="cls-2" d="M438.4 87.42h-18.76V164H452c-16.3-23.39-13.31-57.65-13.6-76.58z" transform="translate(-5.04)"/><path id="SVGCleanerId_0" data-name="SVGCleanerId 0" class="cls-10" d="M455.17 273.58h-35.53V197h35.53a20.6 20.6 0 0 1 20.6 20.6V253a20.6 20.6 0 0 1-20.6 20.58z" transform="translate(-5.04)"/><path id="SVGCleanerId_0-2" data-name="SVGCleanerId 0" class="cls-10" d="M455.17 273.58h-35.53V197h35.53a20.6 20.6 0 0 1 20.6 20.6V253a20.6 20.6 0 0 1-20.6 20.58z" transform="translate(-5.04)"/><path class="cls-2" d="M438.4 197h-18.76v76.6H452c-16.3-23.43-13.31-57.69-13.6-76.6z" transform="translate(-5.04)"/></svg>