<svg id="Capa_1" data-name="Capa 1" xmlns="http://www.w3.org/2000/svg" viewBox="0 0 512 512"><defs><style>.cls-1{fill:#b3b3b3}</style></defs><title>appointment</title><path class="cls-1" d="M462 44h-47.67V30a30 30 0 0 0-60 0v14h-168V30a30 30 0 0 0-60 0v14.37a10 10 0 0 0-2.67-.37H83.82a50.06 50.06 0 0 0-50 50v170.33a10 10 0 0 0 20 0V147h360.51a10 10 0 0 0 0-20H53.82V94a30 30 0 0 1 30-30h39.84a10 10 0 0 0 2.67-.37V76.5a30 30 0 0 0 60 0V64h168v12.5a30 30 0 0 0 60 0V64H462a30 30 0 0 1 30 30v380a18 18 0 1 1-36 0v-25.87a10 10 0 0 0-10-10H329.67a10 10 0 0 0 0 20H436V474a37.77 37.77 0 0 0 4.55 18H38a18 18 0 0 1-18-18v-15.87h223.82a10 10 0 0 0 0-20h-99.91a82 82 0 1 0-106.86 0H10a10 10 0 0 0-10 10V474a38 38 0 0 0 38 38h436a38 38 0 0 0 38-38V94a50.06 50.06 0 0 0-50-50zM166.33 76.5a10 10 0 0 1-20 0V30a10 10 0 0 1 20 0zm228 0a10 10 0 0 1-20 0V30a10 10 0 0 1 20 0zM28.48 376a62 62 0 1 1 62 62 62.07 62.07 0 0 1-62-62z"/><path class="cls-1" d="M468.31 129.93a10 10 0 1 0 2.93 7.07 10.07 10.07 0 0 0-2.93-7.07zM298.65 441a10 10 0 1 0 2.93 7.07 10.06 10.06 0 0 0-2.93-7.07zm-72.41-137a38 38 0 1 0 38 38 38 38 0 0 0-38-38zm0 56a18 18 0 1 1 18-18 18 18 0 0 1-18 18zm93.34-56a38 38 0 1 0 38 38 38 38 0 0 0-38-38zm0 56a18 18 0 1 1 18-18 18 18 0 0 1-18 18zm93.33-56a38 38 0 1 0 38 38 38 38 0 0 0-38-38zm0 56a18 18 0 1 1 18-18 18 18 0 0 1-18 18zm-280-160a38 38 0 1 0 38 38 38 38 0 0 0-38-38zm0 56a18 18 0 1 1 18-18 18 18 0 0 1-18 18zm186.67-56a38 38 0 1 0 38 38 38 38 0 0 0-38-38zm0 56a18 18 0 1 1 18-18 18 18 0 0 1-18 18zm93.33-56a38 38 0 1 0 38 38 38 38 0 0 0-38-38zm0 56a18 18 0 1 1 18-18 18 18 0 0 1-18 18zm-186.67-56a38 38 0 1 0 38 38 38 38 0 0 0-38-38zm0 56a18 18 0 1 1 18-18 18 18 0 0 1-18 18zM126.1 351.63a10 10 0 0 0-14.14 0L79.39 384.2l-11.12-11.13a10 10 0 1 0-14.14 14.14l18.2 18.2a10 10 0 0 0 14.14 0l39.64-39.64a10 10 0 0 0-.01-14.14z"/></svg>