<svg id="Capa_1" data-name="Capa 1" xmlns="http://www.w3.org/2000/svg" viewBox="0 0 512 511.96"><defs><style>.cls-1{fill:#b3b3b3}</style></defs><title>call</title><path class="cls-1" d="M498.57 395l-103.64-69.13a30.25 30.25 0 0 0-40.5 6.58l-30.19 38.81a12.9 12.9 0 0 1-16.54 3.48l-5.7-3.16c-19-10.38-42.72-23.29-90.44-71s-60.66-71.44-71-90.44l-3.15-5.74a12.92 12.92 0 0 1 3.41-16.6l38.79-30.18a30.26 30.26 0 0 0 6.59-40.5L117 13.45a30.09 30.09 0 0 0-40.55-9.13l-43.33 26A61.13 61.13 0 0 0 5.24 66.53c-15.6 56.86-3.87 155 140.69 299.55 115 115 200.59 145.9 259.43 145.9a151.16 151.16 0 0 0 40.1-5.24 61.07 61.07 0 0 0 36.18-27.87l26.06-43.31a30.09 30.09 0 0 0-9.13-40.56zM493 426.8l-26 43.33a44.1 44.1 0 0 1-26 20.17c-52.49 14.41-144.19 2.47-283-136.3S7.29 123.54 21.7 71a44.16 44.16 0 0 1 20.19-26l43.34-26a13.05 13.05 0 0 1 17.6 4l37.54 56.36 31.51 47.26a13.13 13.13 0 0 1-2.88 17.53l-38.8 30.18a29.86 29.86 0 0 0-7.91 38.33l3.08 5.6c10.9 20 24.46 44.88 74 94.37s74.37 63 94.36 73.95l5.61 3.09a29.86 29.86 0 0 0 38.33-7.91l30.18-38.8a13.14 13.14 0 0 1 17.58-2.85L489 409.2a13 13 0 0 1 4 17.6zM290.12 85.38a145.21 145.21 0 0 1 145 145 8.53 8.53 0 1 0 17.06 0A162.29 162.29 0 0 0 290.12 68.31a8.53 8.53 0 0 0 0 17.06z" transform="translate(0 -.02)"/><path class="cls-1" d="M290.12 136.57A94 94 0 0 1 384 230.42a8.53 8.53 0 1 0 17.06 0 111 111 0 0 0-110.94-110.91 8.53 8.53 0 0 0 0 17.06z" transform="translate(0 -.02)"/><path class="cls-1" d="M290.12 187.76a42.71 42.71 0 0 1 42.66 42.66 8.53 8.53 0 1 0 17.06 0 59.79 59.79 0 0 0-59.72-59.72 8.53 8.53 0 1 0 0 17.06z" transform="translate(0 -.02)"/></svg>