<svg id="Capa_1" data-name="Capa 1" xmlns="http://www.w3.org/2000/svg" viewBox="0 0 491.28 512"><defs><style>.cls-1{fill:#fff}</style></defs><title>discount</title><path class="cls-1" d="M478 262.63a15 15 0 0 1 0-13.26l19.1-39.06a44.45 44.45 0 0 0-19.18-59l-38.46-20.41a15 15 0 0 1-7.8-10.73l-7.51-42.83a44.45 44.45 0 0 0-50.21-36.48L330.9 47a15 15 0 0 1-12.61-4.1L287 12.62a44.44 44.44 0 0 0-62.06 0l-31.22 30.24A15 15 0 0 1 181.11 47l-43.05-6.09a44.44 44.44 0 0 0-50.21 36.44l-7.51 42.83a15 15 0 0 1-7.79 10.73l-38.42 20.37a44.45 44.45 0 0 0-19.18 59L34 249.37a15 15 0 0 1 0 13.26L14.95 301.7a44.45 44.45 0 0 0 19.18 59l38.41 20.4a15 15 0 0 1 7.8 10.73l7.51 42.83a44.42 44.42 0 0 0 43.81 36.93 45.67 45.67 0 0 0 6.39-.45l43.06-6.14a15 15 0 0 1 12.61 4.1L225 499.38a44.45 44.45 0 0 0 62.06 0l31.25-30.23A15 15 0 0 1 330.9 465l43.05 6.09a44.44 44.44 0 0 0 50.21-36.48l7.51-42.83a15 15 0 0 1 7.79-10.73l38.41-20.38a44.45 44.45 0 0 0 19.18-59zm-13.92 72L425.62 355a44.35 44.35 0 0 0-23 31.71l-7.51 42.83a15 15 0 0 1-17 12.34L335 435.81a44.33 44.33 0 0 0-37.28 12.11l-31.22 30.23a15 15 0 0 1-21 0l-31.25-30.23a44.3 44.3 0 0 0-30.93-12.56 45.33 45.33 0 0 0-6.35.45l-43.05 6.09a15 15 0 0 1-17-12.34l-7.51-42.83a44.34 44.34 0 0 0-23-31.71L48 334.63a15 15 0 0 1-6.49-20l19.1-39.06a44.35 44.35 0 0 0 0-39.2l-19.1-39.06a15 15 0 0 1 6.49-20L86.38 157a44.35 44.35 0 0 0 23-31.71l7.51-42.83a15 15 0 0 1 17-12.34L177 76.19a44.35 44.35 0 0 0 37.28-12.11l31.22-30.23a15 15 0 0 1 21 0l31.25 30.23A44.34 44.34 0 0 0 335 76.19l43.05-6.09a15 15 0 0 1 17 12.34l7.51 42.83a44.34 44.34 0 0 0 23 31.71L464 177.37a15 15 0 0 1 6.49 20l-19.1 39.06a44.35 44.35 0 0 0 0 39.2l19.1 39.06a15 15 0 0 1-6.49 19.94z" transform="translate(-10.36)"/><path class="cls-1" d="M363.88 148.12a14.77 14.77 0 0 0-20.88 0L148.12 343A14.76 14.76 0 1 0 169 363.88L363.88 169a14.76 14.76 0 0 0 0-20.88zm-166.94-25a54.14 54.14 0 1 0 54.14 54.14 54.2 54.2 0 0 0-54.14-54.14zm0 78.75a24.61 24.61 0 1 1 24.61-24.61 24.64 24.64 0 0 1-24.61 24.6zm118.12 78.74a54.14 54.14 0 1 0 54.14 54.14 54.2 54.2 0 0 0-54.14-54.14zm0 78.75a24.61 24.61 0 1 1 24.61-24.61 24.64 24.64 0 0 1-24.61 24.6z" transform="translate(-10.36)"/></svg>