<svg id="Layer_1" data-name="Layer 1" xmlns="http://www.w3.org/2000/svg" viewBox="0 0 512 501.53"><defs><style>.cls-1{fill:#fff}</style></defs><title>forest</title><path class="cls-1" d="M512 298.34c0-54.09-37.45-98.1-83.49-98.1s-83.49 44-83.49 98.1c0 49.93 31.92 91.27 73 97.33v45.24H266.45v-35.7h71.4a10.54 10.54 0 0 0 9.88-13.84l-24.88-72.49c4.54 0 9 0 12.11-3.91 2.71-3.38 2.55-7.22 1.3-11.11-1.54-4.84-4.92-14.44-4.92-14.44l-21.26-62.34c3.09 0 6.36.34 9.23-1.06a10.56 10.56 0 0 0 5.22-13L266 12.76a10.45 10.45 0 0 0-20.06 0L187.27 213.7a10.53 10.53 0 0 0 5.91 12.51c2.75 1.17 8.73.87 8.73.87l-25.86 75.83s-1.66 5-1.06 7.74c1.56 7.2 8 8.24 14.15 8.24l-24.88 72.49a10.54 10.54 0 0 0 9.88 13.84h71.4v35.7H94v-45.25c41.12-6.06 73-47.4 73-97.33 0-54.09-37.45-98.1-83.49-98.1S.11 244.25.11 298.34c0 49.93 31.92 91.27 73 97.33v45.24h-8.85a10.45 10.45 0 0 0 0 20.9h381.88a10.45 10.45 0 0 0 0-20.9H439v-45.24c41.08-6.06 73-47.4 73-97.33zm-437.5 7.07a10.45 10.45 0 0 0-14.78 14.78l13.43 13.42v40.83C43.59 368.29 21 336.51 21 298.34c0-42.57 28.08-77.2 62.59-77.2s62.59 34.63 62.59 77.2c0 38.17-22.59 69.95-52.14 76.1v-40.83L116.68 311a10.45 10.45 0 1 0-14.78-14.8l-18.31 18.31zm114.29 78.91l24.88-72.49a10.57 10.57 0 0 0-5.1-12.68c-2.74-1.41-5.77-1.16-8.75-1.16l26.6-78a10.53 10.53 0 0 0-5.87-13c-2.89-1.21-6.23-.84-9.3-.84L256 53l44.76 153.23c-3.07 0-6.41-.37-9.3.84a10.52 10.52 0 0 0-5.87 13l26.6 78c-3 0-6-.25-8.75 1.16a10.57 10.57 0 0 0-5.1 12.68l24.88 72.49H188.78zm239.73-69.81l-9.1-9.1a10.45 10.45 0 0 0-14.78 14.78l13.42 13.42v40.83c-29.55-6.15-52.14-37.93-52.14-76.1 0-42.57 28.08-77.2 62.59-77.2s62.59 34.63 62.59 77.2c0 38.17-22.59 69.95-52.14 76.1v-40.83L461.6 311a10.45 10.45 0 0 0-14.78-14.78zM28.74 440.92H10.45a10.45 10.45 0 0 0 0 20.9h18.29a10.45 10.45 0 0 0 0-20.9zm471.79 0h-18.31a10.45 10.45 0 0 0 0 20.9h18.31a10.45 10.45 0 0 0 0-20.9z" transform="translate(0 -5.24)"/><path class="cls-1" d="M57.78 332.77c-7.54-9.13-11.7-21.36-11.7-34.43a59.44 59.44 0 0 1 1-10.91 10.45 10.45 0 1 0-20.54-3.84 80.41 80.41 0 0 0-1.36 14.75c0 17.92 5.85 34.87 16.48 47.74a10.45 10.45 0 0 0 16.11-13.31zM74.4 239.9a10.45 10.45 0 0 0-14.08-4.5 58.63 58.63 0 0 0-14.92 11.07 10.45 10.45 0 1 0 14.9 14.66 37.77 37.77 0 0 1 9.59-7.13 10.45 10.45 0 0 0 4.51-14.1zm-2.56 245.97h-34.7a10.45 10.45 0 0 0 0 20.9h34.7a10.45 10.45 0 0 0 0-20.9zm397.68 0H415.4a10.45 10.45 0 1 0 0 20.9h54.13a10.45 10.45 0 0 0 0-20.9zm-89.65 0H107.36a10.45 10.45 0 0 0 0 20.9h272.51a10.45 10.45 0 0 0 0-20.9zm22.83-153.1c-7.54-9.13-11.7-21.36-11.7-34.43a59.44 59.44 0 0 1 1-10.91 10.45 10.45 0 1 0-20.54-3.84 80.41 80.41 0 0 0-1.36 14.75c0 17.92 5.86 34.87 16.48 47.74a10.45 10.45 0 0 0 16.11-13.31zm16.62-92.87a10.45 10.45 0 0 0-14.08-4.5 58.61 58.61 0 0 0-14.92 11.07 10.45 10.45 0 1 0 14.9 14.66 37.77 37.77 0 0 1 9.59-7.15 10.45 10.45 0 0 0 4.51-14.08z" transform="translate(0 -5.24)"/></svg>