<svg id="Layer_1" data-name="Layer 1" xmlns="http://www.w3.org/2000/svg" viewBox="0 0 512 480.31"><defs><style>.cls-1{fill:#ffbfab}.cls-2{fill:#ffd400}.cls-3{fill:#4a696f}.cls-4{fill:#fdbf00}.cls-5{fill:#ffa78f}</style></defs><title>hand</title><g id="surface1"><path class="cls-1" d="M500 400.55L377.45 487.3a54.94 54.94 0 0 1-16.21 6.91 52.41 52.41 0 0 1-15.31 2.1h-135.7a77.7 77.7 0 0 1-33.62-7.81L60 430.57V256.16h87.8a75.74 75.74 0 0 1 41.73 12.61l66.64 44.43 4.5 3h70.54a30 30 0 0 1 0 60H193.13a14.86 14.86 0 0 0-15 15c0 8.41 6.3 14.71 14.71 15h172a16 16 0 0 0 7.21-1.8l92-51.94c15.61-11.41 33-6 42 6a30.11 30.11 0 0 1-6.05 42.09z" transform="translate(0 -16)"/><path class="cls-2" d="M256.17 16a75 75 0 1 0 75 75.05 75.08 75.08 0 0 0-75-75.05zm105.06 150.1a60 60 0 1 0 60 60 60.22 60.22 0 0 0-60-60z" transform="translate(0 -16)"/><path class="cls-3" d="M45 466.29H15a15 15 0 0 1-15-15V241.14a15 15 0 0 1 15-15h30a45.08 45.08 0 0 1 45 45v150.1a45.08 45.08 0 0 1-45 45.05z" transform="translate(0 -16)"/><path class="cls-4" d="M361.23 286.18V166.1a60 60 0 0 1 0 120.08zM256.17 166.1V16a75 75 0 0 1 0 150.1z" transform="translate(0 -16)"/><path class="cls-5" d="M331.21 376.23h-75v-63l4.5 3h70.54a30 30 0 0 1 0 60zM500 400.55L377.45 487.3a54.94 54.94 0 0 1-16.21 6.91 52.41 52.41 0 0 1-15.31 2.1h-89.76v-90.06h108.67a16 16 0 0 0 7.21-1.8l92-51.93c15.61-11.41 33-6 42 6a30.11 30.11 0 0 1-6.05 42.03z" transform="translate(0 -16)"/></g></svg>