<svg id="Capa_1" data-name="Capa 1" xmlns="http://www.w3.org/2000/svg" viewBox="0 0 512 512"><defs><style>.cls-1{fill:#fff}</style></defs><title>heater</title><path class="cls-1" d="M341.33 373.33a32 32 0 0 1-32 32h-256a32 32 0 0 1-32-32v-320a32 32 0 0 1 32-32h256a32 32 0 0 1 32 32h21.33A53.4 53.4 0 0 0 309.33 0h-256A53.4 53.4 0 0 0 0 53.33v320a53.4 53.4 0 0 0 53.33 53.33h256a53.4 53.4 0 0 0 53.33-53.33V352h-21.33z"/><path class="cls-1" d="M181.33 256A106.67 106.67 0 0 0 74.67 362.67a10.67 10.67 0 0 0 10.67 10.67h192A10.67 10.67 0 0 0 288 362.67 106.67 106.67 0 0 0 181.33 256zm-84.66 96A85.33 85.33 0 0 1 266 352z"/><path class="cls-1" transform="rotate(-45 202.694 341.331)" d="M172.52 330.67h60.34V352h-60.34z"/><path class="cls-1" d="M128 53.33h21.33V96H128zm42.67 0H192V96h-21.33zm42.66 0h21.33V96h-21.33zM224 416v21.33A10.67 10.67 0 0 1 213.33 448h-74.66A10.67 10.67 0 0 1 128 437.33V416h-21.33v21.33a32 32 0 0 0 32 32h74.67a32 32 0 0 0 32-32V416zm286.21-187.25C486.15 192.67 448 127.63 448 106.67a10.67 10.67 0 0 0-19.2-6.4 226.5 226.5 0 0 0-27.42 49.36 160 160 0 0 1-17.45-74.13 10.67 10.67 0 0 0-18.13-8.36c-50 49.94-66.35 161.32-67 166a10.38 10.38 0 0 0-.11 1.51 106.67 106.67 0 1 0 213.34 0 10.73 10.73 0 0 0-1.82-5.9zM404.16 322A85.34 85.34 0 0 1 320 235.44c1.28-8.24 13.63-84 44.4-132.28a189.72 189.72 0 0 0 30.26 77.43v.74h.5a198.31 198.31 0 0 0 24.05 28.88l15.08-15.08a174.77 174.77 0 0 1-17.66-20.6 130.94 130.94 0 0 1 16.43-41.47 663.67 663.67 0 0 0 57.6 104.74 85.34 85.34 0 0 1-86.5 84.2z"/><path class="cls-1" d="M394.67 362.67v96a32 32 0 0 1-32 32H213.33a32 32 0 0 1-32-32H160A53.4 53.4 0 0 0 213.33 512h149.34A53.4 53.4 0 0 0 416 458.67v-96zm-53.34-128h21.33V256h-21.33zm42.67 0h21.33V256H384zm0 42.66h21.33v21.33H384z"/></svg>