<svg id="Layer_1" data-name="Layer 1" xmlns="http://www.w3.org/2000/svg" viewBox="0 0 503.47 504.32"><defs><style>.cls-1{fill:#f2edda}.cls-2{fill:#50dd8e}.cls-3{fill:#ffd0a1}.cls-4{fill:#80d6fa}.cls-5{fill:#ff7474}.cls-6{fill:#51565f}</style></defs><title>house2</title><path class="cls-1" d="M55.89 465.07a23.82 23.82 0 0 0-17.07-15.36v-198L218 72.53l34.16-34.13 34.13 34.13 179.2 179.2v197.12c-7.68 2.56-14.51 8.53-17.07 16.21a34.13 34.13 0 1 0-68.27 0 17.07 17.07 0 0 0 0 34.13H329v-34.12H175.36v34.13h-51.2a17.07 17.07 0 1 0 0-34.13 34.13 34.13 0 0 0-68.27 0z" transform="translate(-.43)"/><path class="cls-1" d="M328.53 465.07v34.13h-153.6v-34.13h153.6z"/><path class="cls-2" d="M444.16 499.2H474a25.6 25.6 0 1 0 0-51.2c-3.41 0-6 0-8.53 1.71-7.68 2.56-14.51 8.53-17.07 15.36a34.13 34.13 0 0 0-68.27 0 17.07 17.07 0 0 0 0 34.13h64zm-320-34.13a17.07 17.07 0 1 1 0 34.13H30.29a25.6 25.6 0 0 1 0-51.2c3.41 0 6 0 8.53 1.71 7.68 2.56 14.51 8.53 17.07 15.36a34.13 34.13 0 0 1 68.27 0z" transform="translate(-.43)"/><path class="cls-3" d="M294.4 379.73v85.34h-85.33V294.4h85.33v85.33z"/><path class="cls-4" d="M90 397.65h68.27V294.4H90zm256 0h68.27V294.4H346zM252.16 140.8a25.6 25.6 0 1 1-25.6 25.6 25.14 25.14 0 0 1 25.6-25.6z" transform="translate(-.43)"/><path class="cls-5" d="M218 72.53L38.83 251.73 4.69 285.87V72.53h102.4V38.4H90V4.27h68.27V38.4h-17.04v34.13zm281.6 0v213.34l-34.13-34.13L286.29 72.53z" transform="translate(-.43)"/><path class="cls-6" d="M474 503.47a4.27 4.27 0 1 1 0-8.53 21.33 21.33 0 1 0 0-42.67 18.8 18.8 0 0 0-6.83.85h-.85a18.87 18.87 0 0 0-13.65 12.8c-.85 1.71-2.56 3.41-5.12 2.56-1.71 0-3.41-2.56-3.41-4.27a29.87 29.87 0 0 0-59.73 0 4 4 0 0 1-4.27 4.27 12.8 12.8 0 0 0 0 25.6h34.13a4.27 4.27 0 0 1 0 8.53H209.49a4.27 4.27 0 1 1 0-8.53h153.6a21 21 0 0 1-4.27-12.8c0-10.24 7.68-18.77 17.07-21.33 1.71-19.63 17.92-34.13 38.4-34.13A38.72 38.72 0 0 1 451 452.27c2.56-3.41 6.83-5.12 10.24-6.83V302.93a4.27 4.27 0 1 1 8.53 0v140.8H474a29.87 29.87 0 0 1 0 59.73zm-298.67 0a4 4 0 0 1-4.27-4.27v-34.13a4 4 0 0 1 4.27-4.27h29.87V294.4a4 4 0 0 1 4.27-4.27h85.33a4 4 0 0 1 4.27 4.27v166.4H329a4.27 4.27 0 0 1 0 8.53H179.63v29.87a4 4 0 0 1-4.27 4.27zm38.4-42.67h76.8V384h-12.8a4.27 4.27 0 1 1 0-8.53h12.8v-76.8h-76.8zm-89.6 42.67a4.27 4.27 0 1 1 0-8.53 12.8 12.8 0 1 0 0-25.6 4 4 0 0 1-4.27-4.27 29.87 29.87 0 1 0-59.73 0c0 1.71-1.71 3.41-3.41 4.27-1.71 0-4.27-.85-5.12-2.56-2.56-6-7.68-11.09-13.65-12.8h-.85a18.8 18.8 0 0 0-6.83-.85 21.33 21.33 0 0 0 0 42.67 4.27 4.27 0 1 1 0 8.53 29.87 29.87 0 0 1 0-59.73h4.27V302.93a4 4 0 0 1 4.27-4.27 4 4 0 0 1 4.27 4.27v143.36a30.69 30.69 0 0 1 10.24 6.83A38.72 38.72 0 0 1 90 426.67c19.63 0 35.84 15.36 38.4 34.13 10.24 1.71 17.07 10.24 17.07 21.33a21.13 21.13 0 0 1-21.31 21.34zm307.2-102.4H329a4.27 4.27 0 1 1 0-8.53h12.8V294.4a4 4 0 0 1 4.27-4.27h68.27a4 4 0 0 1 4.27 4.27v98.13h12.8a4.27 4.27 0 1 1 0 8.53zm-81.07-8.53H410v-42.67h-59.71zm0-51.2H410v-42.67h-59.71zm-174.9 59.73H73a4.27 4.27 0 0 1 0-8.53h12.8V294.4a4 4 0 0 1 4.2-4.27h68.27a4 4 0 0 1 4.27 4.27v98.13h12.8a4.27 4.27 0 1 1 0 8.53zm-81.07-8.53H154v-42.67H94.29zm0-51.2H154v-42.67H94.29zm-89.6-51.2H3a4.69 4.69 0 0 1-2.56-4.27V72.53c0-.85.85-2.56.85-3.41s1.71-.85 3.41-.85h98.13v-25.6H90a4 4 0 0 1-4.27-4.27V4.27A4 4 0 0 1 90 0h68.27a4 4 0 0 1 4.27 4.27V38.4a4 4 0 0 1-4.27 4.27h-12.8v25.6h21.33a4.27 4.27 0 1 1 0 8.53h-25.6a4 4 0 0 1-4.2-4.27V38.4a4 4 0 0 1 4.27-4.27H154V8.53H94.29v25.6h12.8a4 4 0 0 1 4.27 4.27v34.13a4 4 0 0 1-4.27 4.27H9v198.83L248.75 35.84c.85-.85 2.56-.85 3.41-.85 1.71 0 2.56 0 3.41.85l239.79 239.79V76.8H337.49a4.27 4.27 0 1 1 0-8.53h162.14a4 4 0 0 1 4.27 4.27v213.33a4.69 4.69 0 0 1-2.56 4.27 3.75 3.75 0 0 1-4.27-.85L253 45.23 9 289.28c-1.75 0-3.45.85-4.31.85zm247.47-93.87A29.87 29.87 0 1 1 282 166.4a30.24 30.24 0 0 1-29.84 29.87zm0-51.2a21.33 21.33 0 1 0 21.33 21.33 21.13 21.13 0 0 0-21.33-21.33z" transform="translate(-.43)"/></svg>