<svg id="Capa_1" data-name="Capa 1" xmlns="http://www.w3.org/2000/svg" viewBox="0 0 480.28 512"><defs><style>.cls-1{fill:#fff200}</style></defs><title>house</title><path class="cls-1" d="M475.64 471h-1.12c-3.8-16.36-15.33-28.78-30.35-33.36V247.37l11 11.08a23 23 0 0 0 16.36 6.85h.08A23.16 23.16 0 0 0 488 225.83l-51.83-52.26a7.5 7.5 0 1 0-10.65 10.56l51.83 52.26a8.16 8.16 0 0 1-5.79 13.9 8.1 8.1 0 0 1-5.76-2.41L267.75 48.2a16.4 16.4 0 0 0-9.39-4.71 16.76 16.76 0 0 0-2.36-.19q-.83 0-1.65.08a16.41 16.41 0 0 0-10.1 4.81L46.19 247.88a8.1 8.1 0 0 1-5.76 2.41 8.16 8.16 0 0 1-5.79-13.9l218.3-220.11a4.31 4.31 0 0 1 6.13 0L392.73 151a7.5 7.5 0 1 0 10.65-10.56L269.71 5.71a19.31 19.31 0 0 0-27.43 0L148.74 100v-9.3h1.79a10 10 0 0 0 10-10V60.48a10 10 0 0 0-10-10H75.11a10 10 0 0 0-10 10v20.28a10 10 0 0 0 10 10h1.79v81.71L24 225.83a23.16 23.16 0 0 0 16.39 39.47h.08a23 23 0 0 0 16.36-6.85l11-11.08v92.93a7.5 7.5 0 0 0 15 0V232.25L254.9 58.77a1.55 1.55 0 0 1 2.2 0l172.07 173.48V434.3l-.35-.37c-.3-.33-.61-.64-.92-1s-.7-.71-1.05-1.06l-1-.91c-.36-.33-.73-.67-1.1-1l-1-.86q-.57-.47-1.15-.92l-1.06-.81-1.19-.86-1.1-.75L418 425l-1.14-.69-1.27-.73-1.17-.63-1.32-.66-1.19-.57-1.36-.59-1.21-.5c-.46-.18-.93-.35-1.4-.52l-1.23-.43c-.48-.16-1-.3-1.45-.45l-1.23-.36c-.5-.14-1-.26-1.51-.38l-1.22-.29c-.52-.11-1-.21-1.57-.31l-1.19-.22c-.55-.09-1.11-.16-1.67-.23l-1.13-.15c-.62-.07-1.25-.11-1.88-.16l-1-.08q-1.42-.08-2.85-.08a52.66 52.66 0 0 0-48.69 32.47c-.71.28-1.41.59-2.09.9l-.58.29c-.48.23-.95.47-1.41.72l-.67.37q-.64.36-1.26.75l-.63.4c-.44.29-.86.58-1.28.89l-.48.34c-.57.43-1.12.86-1.66 1.32l-.16.15q-.71.61-1.38 1.26l-.47.47c-.33.34-.66.68-1 1l-.49.56q-.45.53-.88 1.08l-.43.56c-.32.42-.62.85-.91 1.29l-.29.42q-.57.88-1.09 1.8l-.18.35c-.27.5-.54 1-.78 1.53-.1.21-.2.43-.29.64q-.3.66-.57 1.33c-.1.24-.19.48-.28.72q-.26.68-.48 1.38c-.08.23-.16.46-.23.7l-.1.32h-11.7V326.35a18.82 18.82 0 0 0-18.8-18.8h-69.51a18.82 18.82 0 0 0-18.8 18.8V471h-11.81l-.1-.3c-.08-.25-.16-.49-.24-.74-.15-.45-.3-.89-.47-1.33-.1-.26-.2-.51-.3-.76-.17-.43-.36-.85-.54-1.27-.1-.23-.21-.47-.32-.7-.23-.48-.48-1-.73-1.42-.08-.15-.15-.3-.24-.45q-.51-.9-1.07-1.77l-.34-.5c-.28-.41-.56-.81-.85-1.21l-.47-.61c-.27-.35-.55-.69-.84-1l-.52-.6c-.3-.34-.62-.66-.93-1l-.51-.52q-.62-.61-1.29-1.18l-.25-.23c-.53-.45-1.07-.88-1.64-1.3l-.54-.38c-.4-.29-.8-.57-1.22-.84l-.68-.43q-.59-.37-1.21-.72l-.71-.4c-.44-.24-.89-.46-1.35-.69l-.64-.31c-.68-.31-1.36-.62-2.07-.9A52.65 52.65 0 0 0 121.89 417c-1 0-1.9 0-2.85.08l-1 .08c-.62 0-1.25.09-1.87.16l-1.14.15c-.55.07-1.11.14-1.66.23l-1.2.23c-.52.1-1 .19-1.56.3l-1.23.3c-.5.12-1 .24-1.49.38l-1.24.37c-.48.14-1 .29-1.43.45l-1.24.44c-.46.17-.93.33-1.38.51l-1.23.51-1.34.58-1.21.58-1.29.65-1.19.64-1.25.71L94 425l-1.21.78-1.12.77-1.17.84-1.08.82-1.13.91-1 .88c-.37.32-.73.65-1.09 1l-1 .92c-.35.34-.7.69-1 1s-.62.64-.93 1l-.35.36V386.9a7.5 7.5 0 0 0-15 0v50.71c-15 4.55-26.56 17-30.35 33.39h-1.21a20.5 20.5 0 0 0 0 41h439.28a20.5 20.5 0 0 0 0-41zM133.73 115.15l-41.82 42.17V90.73h41.83zM80.14 65.51h65.36v10.22H80.14zM337.66 471c.28-.46.58-.9.89-1.32l.29-.36c.23-.3.48-.59.73-.88l.38-.4c.26-.27.52-.53.8-.78l.38-.35q.56-.49 1.17-.94l.1-.08c.45-.32.92-.62 1.4-.91l.45-.25c.35-.2.71-.39 1.09-.58l.55-.26c.38-.17.77-.34 1.16-.5l.52-.21c.58-.21 1.16-.42 1.78-.6a7.5 7.5 0 0 0 5-4.82 37.72 37.72 0 0 1 66.52-9.92 7.5 7.5 0 0 0 7 3.1c.61-.07 1.23-.12 1.84-.16h3.77c.63 0 1.27.12 1.9.21A29 29 0 0 1 459 471H337.64zM221.24 322.55h69.52a3.8 3.8 0 0 1 3.8 3.8V471h-77.11V326.35a3.8 3.8 0 0 1 3.79-3.8zM76.62 451c.65-.09 1.29-.16 1.94-.21h3.74c.61 0 1.23.08 1.84.16a7.51 7.51 0 0 0 7-3.1 37.73 37.73 0 0 1 66.52 9.92 7.5 7.5 0 0 0 5 4.82c.61.18 1.2.39 1.78.6l.51.2c.4.16.79.32 1.17.5l.54.26c.38.18.74.38 1.1.58l.44.25c.49.29 1 .59 1.4.91l.09.07c.41.3.8.62 1.18.94l.38.35c.27.25.54.51.8.78l.38.4c.25.28.5.58.73.88l.29.37c.32.43.61.86.89 1.32H53a29 29 0 0 1 23.62-20zm399 46H36.36a5.5 5.5 0 1 1 0-11h439.28a5.5 5.5 0 1 1 0 11z" transform="translate(-15.86)"/><path class="cls-1" d="M386.87 324.69h-44.66a11 11 0 0 0-11 11v55.83a11 11 0 0 0 11 11h44.67a11 11 0 0 0 11-11v-55.84a11 11 0 0 0-11.01-10.99zm-4 62.81h-36.65v-47.81h36.64zm-213.08-62.81h-44.66a11 11 0 0 0-11 11v55.83a11 11 0 0 0 11 11h44.67a11 11 0 0 0 11-11v-55.84a11 11 0 0 0-11.01-10.99zm-4 62.81h-36.66v-47.81h36.65zm172.77-206.87l-76-76.58a9.29 9.29 0 0 0-13.19 0l-76 76.58a9.29 9.29 0 0 0 6.6 15.83H332a9.29 9.29 0 0 0 6.6-15.83zm-90.06.83h-54.76l15-15.14h39.76zm0-30.14h-24.86l24.86-25.06zm15-25.06l24.86 25.06H263.5zm0 55.21v-15.14h39.74l15 15.14zm12.31 206.29a7.25 7.25 0 0 0-7.25 7.25v15a7.25 7.25 0 1 0 14.5 0V395a7.25 7.25 0 0 0-7.25-7.24z" transform="translate(-15.86)"/></svg>