<svg id="Layer_1" data-name="Layer 1" xmlns="http://www.w3.org/2000/svg" viewBox="0 0 512 512"><defs><style>.cls-1{fill:#ff7816}.cls-2{fill:#ff4b00}.cls-3{fill:#fdbf00}.cls-4{fill:#ff9f00}.cls-5{fill:#ececf1}.cls-6{fill:#e2e2e7}.cls-7{fill:#00ee8a}.cls-8{fill:#00cc76}.cls-9{fill:#c5ffcd}.cls-10{fill:#babac0}.cls-11{fill:#a6ffb5}</style></defs><title>invoice2</title><g id="surface1"><path class="cls-1" d="M482 61v45a15 15 0 0 1-30 0V61a15 15 0 0 1 30 0z"/><path class="cls-2" d="M467 121V46a14.85 14.85 0 0 1 15 15v45a14.85 14.85 0 0 1-15 15z"/><path class="cls-3" d="M512 106v75l-45 30-45-30v-75a14.85 14.85 0 0 1 15-15h60a14.85 14.85 0 0 1 15 15z"/><path class="cls-4" d="M512 106v75l-45 30V91h30a14.85 14.85 0 0 1 15 15z"/><path class="cls-1" d="M482 466v31a15 15 0 0 1-30 0v-31a15 15 0 0 1 30 0z"/><path class="cls-2" d="M482 466v31a14.85 14.85 0 0 1-15 15v-61a14.85 14.85 0 0 1 15 15z"/><path class="cls-3" d="M467 331l-45 30v45a16.36 16.36 0 0 0 1.5 6.6l30 60c2.7 5.1 7.8 9.4 13.5 9.4s10.8-4.3 13.5-9.4l30-60a16.36 16.36 0 0 0 1.5-6.6v-45z"/><path class="cls-4" d="M467 331l45 30v45a16.36 16.36 0 0 1-1.5 6.6l-30 60c-2.7 5.1-7.8 9.4-13.5 9.4z"/><path class="cls-5" d="M392 120v377a14.85 14.85 0 0 1-15 15H15a14.85 14.85 0 0 1-15-15V15A14.85 14.85 0 0 1 15 0h257z"/><path class="cls-6" d="M392 120v377a14.85 14.85 0 0 1-15 15H196V0h76z"/><path class="cls-7" d="M317 181H75a14.85 14.85 0 0 0-15 15v240a14.85 14.85 0 0 0 15 15h242a14.85 14.85 0 0 0 15-15V196a14.85 14.85 0 0 0-15-15z"/><path class="cls-8" d="M332 196v240a14.85 14.85 0 0 1-15 15H196V181h121a14.85 14.85 0 0 1 15 15z"/><path class="cls-9" d="M90 211h61v30H90zm91 0h121v30H181zm-91 60h61v30H90zm91 0h121v30H181zm-91 60h61v30H90zm91 0h121v30H181zm-91 60h61v30H90zm91 0h121v30H181z"/><path class="cls-10" d="M387.61 64.39l-60-60A15 15 0 0 0 317 0h-45v105a15 15 0 0 0 15 15h105V75a15 15 0 0 0-4.39-10.61z"/><path class="cls-11" d="M196 211h106v30H196zm0 60h106v30H196zm0 60h106v30H196zm0 60h106v30H196z"/><path class="cls-1" d="M422 181h90v180h-90z"/><path class="cls-2" d="M467 181h45v180h-45z"/></g></svg>