<svg id="Layer_1" data-name="Layer 1" xmlns="http://www.w3.org/2000/svg" viewBox="0 0 512 512"><defs><style>.cls-1{fill:#fff}</style></defs><title>invoice</title><path class="cls-1" d="M298.67 187.73a93.66 93.66 0 0 0-54.15 17.07h-99.45c-5.12 0-8.53 3.41-8.53 8.53s3.41 8.53 8.53 8.53h81A93.35 93.35 0 0 0 208.3 256h-63.23c-5.12 0-8.53 3.41-8.53 8.53s3.41 8.53 8.53 8.53h60.12a96.15 96.15 0 0 0-.38 8.53 94.72 94.72 0 0 0 3.5 25.6h-63.24c-5.12 0-8.53 3.41-8.53 8.53s3.41 8.53 8.53 8.53H215a93.91 93.91 0 1 0 83.71-136.53zm0 170.67a76.48 76.48 0 0 1-76.8-76.8 78.27 78.27 0 0 1 1.32-14.28 9.57 9.57 0 0 0 .32-1.7 76.33 76.33 0 0 1 28.11-44.87 8.75 8.75 0 0 0 1.87-1.4 76.85 76.85 0 1 1 45.17 139z"/><path class="cls-1" d="M345.6 239.79c-4.27-2.56-9.39-1.71-11.95 2.56l-45.23 68.27L262 284.16a8.45 8.45 0 0 0-12 11.95l34.13 34.13a7.75 7.75 0 0 0 6 2.56c3.41 0 6-1.71 6.83-4.27l51.2-76.8c2.56-4.26 1.71-9.38-2.56-11.94z"/><path class="cls-1" d="M460.8 0H128a42.25 42.25 0 0 0-42.67 42.67v349.86H25.6A25.14 25.14 0 0 0 0 418.13v42.67A51.35 51.35 0 0 0 51.2 512h324.27a50.74 50.74 0 0 0 34.13-13.65 48.7 48.7 0 0 0 17.07-37.55V119.47h59.73a25.14 25.14 0 0 0 25.6-25.6V51.2A51.35 51.35 0 0 0 460.8 0zM51.2 494.93a34.23 34.23 0 0 1-34.13-34.13v-42.67a8.55 8.55 0 0 1 8.53-8.53h298.67v51.2a49.93 49.93 0 0 0 12.8 34.13H51.2zM409.6 51.2v409.6c0 10.24-4.27 18.77-11.09 25.6a39.44 39.44 0 0 1-21.85 8.6 10.72 10.72 0 0 0-1.19-.07 33.83 33.83 0 0 1-16-4 36.4 36.4 0 0 1-18.1-31.81v-58c0-5.12-3.41-8.53-8.53-8.53H102.4V42.67a25.14 25.14 0 0 1 25.6-25.6h294.4a60.4 60.4 0 0 0-4.54 6.36 50.8 50.8 0 0 0-8.2 25.35q-.06 1.22-.06 2.42zm85.33 42.67a8.55 8.55 0 0 1-8.53 8.53h-59.73V51.2a34.13 34.13 0 1 1 68.27 0z"/><path class="cls-1" d="M204.8 68.27h102.4c5.12 0 8.53-3.41 8.53-8.53s-3.41-8.53-8.53-8.53H204.8c-5.12 0-8.53 3.41-8.53 8.53s3.41 8.53 8.53 8.53zm-59.73 51.2h221.86c5.12 0 8.53-3.41 8.53-8.53s-3.41-8.53-8.53-8.53H145.07c-5.12 0-8.53 3.41-8.53 8.53s3.41 8.53 8.53 8.53zm0 51.2h221.86c5.12 0 8.53-3.41 8.53-8.53s-3.41-8.53-8.53-8.53H145.07c-5.12 0-8.53 3.41-8.53 8.53s3.41 8.53 8.53 8.53z"/></svg>