<svg id="Capa_1" data-name="Capa 1" xmlns="http://www.w3.org/2000/svg" viewBox="0 0 512 512"><defs><style>.cls-1{fill:#b3b3b3}</style></defs><title>man</title><path class="cls-1" d="M256 512C114.84 512 0 397.16 0 256S114.84 0 256 0s256 114.84 256 256-114.84 256-256 256zm0-496.48C123.39 15.52 15.52 123.39 15.52 256S123.39 496.48 256 496.48 496.48 388.61 496.48 256 388.61 15.52 256 15.52z"/><path class="cls-1" d="M256 512a254.15 254.15 0 0 1-148.15-47.48 7.75 7.75 0 0 1 1.8-13.59c64.33-23.82 74.71-43.15 74.71-80.2 0-9.79-2.2-13-6.18-18.84-5.26-7.66-12.46-18.17-17.52-45.6-.74-3.94-1.38-4.25-4.9-6-9.4-4.53-18-11-20.31-40.77 0-14.4 5-22.36 9.08-26.5-.9-5.12-2.37-13.95-3.75-23.57-7-43.09-7.34-95.85 53.26-120.38 52.81-21.41 95-9.71 108.2 4.24 9.37.29 33.54 2.75 50.36 22.31 25.88 30.1 17.64 98.72 14.82 117.33 4.13 4 9.14 11.9 9.14 26-2.27 30.32-10.91 36.85-20.32 41.36-3.54 1.71-4.17 2-4.9 6-5.06 27.43-12.24 37.93-17.5 45.6-4 5.82-6.18 9-6.18 18.84 0 37.05 10.38 56.38 74.71 80.2a7.75 7.75 0 0 1 1.8 13.59A254.15 254.15 0 0 1 256 512zm-127-52a239.36 239.36 0 0 0 254 0c-53.9-22.12-70.83-44.44-70.83-89.29 0-14.6 4.31-20.91 8.89-27.6 4.72-6.89 10.58-15.45 15.07-39.66 2.16-11.7 8.94-15 13.42-17.11 4.83-2.31 9.79-4.7 11.54-28 0-11.85-5.34-15.08-5.55-15.2a8.27 8.27 0 0 1-4.1-8.33c3.85-20.62 10.18-84.93-10.57-109.09-14.17-16.48-36.49-16.93-40.74-16.76a12.91 12.91 0 0 1-2.08-.25c-2-.51-5.43-2.27-6.47-4.06-4.22-7.23-41-21.77-91.69-1.24-50.13 20.29-50.24 63.8-43.74 103.67 2.14 14.85 4.48 27.68 4.5 27.74a7.76 7.76 0 0 1-4.39 8.44S151 246.57 151 259c1.74 22.67 6.72 25.07 11.53 27.38 4.48 2.16 11.28 5.41 13.44 17.11 4.47 24.2 10.33 32.77 15 39.66 4.59 6.69 8.91 13 8.91 27.6 0 44.87-16.88 67.18-70.88 89.25z"/></svg>