<svg id="Capa_1" data-name="Capa 1" xmlns="http://www.w3.org/2000/svg" viewBox="0 0 512 493.04"><defs><style>.cls-1{fill:#fff}</style></defs><title>map</title><path class="cls-1" d="M507.41 10.84a9.47 9.47 0 0 0-9.32-.26l-156.76 83-156.75-83c-.12-.07-.27-.09-.39-.14a9.52 9.52 0 0 0-1.39-.52c-.27-.08-.52-.16-.79-.22a9.86 9.86 0 0 0-1.59-.16h-.72a9.18 9.18 0 0 0-1.52.24 8.33 8.33 0 0 0-.84.18h-.19L6.49 66.85a9.47 9.47 0 0 0-6.49 9v407.7A9.48 9.48 0 0 0 9.48 493a9.32 9.32 0 0 0 3-.49l167.31-55.77 157.93 65c.13.06.28 0 .42.09a8.61 8.61 0 0 0 5.72.26c.27-.08.51-.2.78-.29a9.7 9.7 0 0 0 1.14-.44L507 416.09a9.49 9.49 0 0 0 5-8.38V19a9.49 9.49 0 0 0-4.59-8.16zM19 82.69l151.7-50.56V288c-4.08.74-8.1 1.57-12 2.6a9.48 9.48 0 0 0 2.43 18.65 9.88 9.88 0 0 0 2.44-.31c2.28-.61 4.76-.91 7.12-1.4v112.3L19 470.4zm170.63 222.23c3-.24 6-.63 9.11-.69a9.48 9.48 0 0 0-.2-19h-.21c-2.94.07-5.83.23-8.7.43v-251L331.85 110v201a141.77 141.77 0 0 1-20.85-2.53 9.48 9.48 0 1 0-3.6 18.61 161.1 161.1 0 0 0 24.48 2.74v149.06l-142.25-58.57zM493 402l-142.19 75.28V328.8a9.31 9.31 0 0 0 0-17.08V110L493 34.71z" transform="translate(0 -9.48)"/><path class="cls-1" d="M104.3 85.33a47.41 47.41 0 0 0-9.48 93.86v19.92a9.48 9.48 0 0 0 19 0v-19.92a47.41 47.41 0 0 0-9.48-93.86zm0 75.85a28.44 28.44 0 1 1 28.44-28.44 28.48 28.48 0 0 1-28.44 28.45zm323.03 101.2a9.5 9.5 0 0 0 12.29-5.38 212.35 212.35 0 0 0 10.65-38.15 9.48 9.48 0 1 0-18.64-3.48 193.09 193.09 0 0 1-9.63 34.72 9.49 9.49 0 0 0 5.33 12.29zm-305.92 44.27a131.5 131.5 0 0 0-30.67 26.74 9.48 9.48 0 0 0 14.5 12.22 112.2 112.2 0 0 1 26.24-22.89 9.48 9.48 0 0 0-10.07-16.07zM81.8 362.91a9.49 9.49 0 0 0-12.58 4.64c-9.73 21.11-12.14 38.14-12.22 38.86a9.46 9.46 0 0 0 8.1 10.67 8.77 8.77 0 0 0 1.31.09 9.5 9.5 0 0 0 9.36-8.17 134 134 0 0 1 10.66-33.5 9.5 9.5 0 0 0-4.63-12.59zm301.47-43.11a9.46 9.46 0 0 0 4.3-1 98.79 98.79 0 0 0 32.09-26.42 9.48 9.48 0 1 0-14.79-11.87 79.78 79.78 0 0 1-25.93 21.4 9.48 9.48 0 0 0 4.33 17.92zM276.57 298c-4.18-1.75-6.63-3-6.79-3.05a9.44 9.44 0 0 0-1.94-.74c-10.27-2.64-20.39-4.72-30.08-6.2a9.48 9.48 0 1 0-2.86 18.74c8.78 1.35 17.95 3.22 27.28 5.59 1.27.61 3.7 1.75 7.09 3.17a9.49 9.49 0 0 0 7.3-17.51zM444.9 189h.62a9.48 9.48 0 0 0 9.45-8.88c.59-9.11.88-18.75.88-28.63 0-3.29 0-6.63-.09-10a9.75 9.75 0 0 0-9.65-9.31 9.49 9.49 0 0 0-9.31 9.65c.06 3.29.09 6.52.09 9.69 0 9.48-.28 18.71-.84 27.43A9.49 9.49 0 0 0 444.9 189zM78.63 272.18a9.48 9.48 0 0 0 13.41 0l12.26-12.26 12.26 12.26a9.48 9.48 0 1 0 13.44-13.4l-12.3-12.26 12.3-12.26a9.48 9.48 0 0 0-13.41-13.41l-12.29 12.26L92 220.85a9.48 9.48 0 0 0-13.41 13.41l12.26 12.26-12.22 12.26a9.47 9.47 0 0 0 0 13.4z" transform="translate(0 -9.48)"/></svg>