<svg id="Capa_1" data-name="Capa 1" xmlns="http://www.w3.org/2000/svg" viewBox="0 0 512 511.99"><defs><style>.cls-1{fill:#fff}</style></defs><title>park</title><path class="cls-1" d="M503.46 401.06a8.53 8.53 0 1 0 0-17.07h-8.53a8.53 8.53 0 1 0-17.07 0H341.33a8.53 8.53 0 1 0-17.07 0h-8.53a8.53 8.53 0 1 0 0 17.07h8.53v25.6h-8.53a8.53 8.53 0 1 0 0 17.07h8.53v8.53h-8.53a8.53 8.53 0 1 0 0 17.07h8.53v25.6H179.2v-70.6a84.37 84.37 0 0 0 41.35 10.87 87.92 87.92 0 0 0 86.64-88.94 88.86 88.86 0 0 0-48.59-79.91 77.89 77.89 0 0 0 15.11-46.45A77 77 0 0 0 212 143.78a66 66 0 0 0-58.4-93.24h-.75A59.71 59.71 0 0 0 34.64 52a42.67 42.67 0 0 0 8 84.57h49.77a65.94 65.94 0 0 0 2.73 7.21 77.08 77.08 0 0 0-61.66 76.12 77.9 77.9 0 0 0 15.11 46.45A88.86 88.86 0 0 0 0 346.26a87.92 87.92 0 0 0 86.65 88.94A84.36 84.36 0 0 0 128 424.33v70.6H8.54a8.53 8.53 0 0 0 0 17.07h494.92a8.53 8.53 0 1 0 0-17.07h-8.53v-25.6h8.53a8.53 8.53 0 1 0 0-17.07h-8.53v-8.53h8.53a8.53 8.53 0 1 0 0-17.07h-8.53v-25.6h8.53zM89.28 116.52c0 1 .11 2 .16 2.95H42.67a25.6 25.6 0 1 1 0-51.2 8.53 8.53 0 0 0 8.53-8.53 42.58 42.58 0 0 1 84.67-6.58 65.83 65.83 0 0 0-46.59 63.36zm72.86 378.41h-17.07v-83.14a88 88 0 0 0 8.53-9.16 87.92 87.92 0 0 0 8.53 9.16v83.14zm1-108.43l56.2-56.2a8.53 8.53 0 0 0-12.07-12.07l-45.13 45.17v-86.8l40.17-40.17a8.53 8.53 0 0 0-12.07-12.07l-28.1 28.1v-39.13a8.53 8.53 0 0 0-17.07 0v39.13L117 224.37a8.53 8.53 0 0 0-12.07 12.07l40.17 40.17v86.8l-45.2-45.18a8.53 8.53 0 0 0-12.06 12.07L144 386.5a68.32 68.32 0 0 1-57.38 31.64 72.21 72.21 0 0 1-21.2-140.32 8.53 8.53 0 0 0 3.31-14.18 60.8 60.8 0 0 1-18.18-43.74 59.43 59.43 0 0 1 57.74-60.42 8.81 8.81 0 0 0 8.55-4.63 8.51 8.51 0 0 0-.74-8.9 49.46 49.46 0 0 1-9.77-29.42 48.16 48.16 0 0 1 47.27-48.92 48.16 48.16 0 0 1 47.26 48.91 49.46 49.46 0 0 1-9.77 29.42 8.48 8.48 0 0 0-.6 8.89 8.72 8.72 0 0 0 7.75 4.67 59.5 59.5 0 0 1 58.42 60.39 60.81 60.81 0 0 1-18.21 43.72 8.53 8.53 0 0 0 3.31 14.18 72.21 72.21 0 0 1-21.2 140.32 68.32 68.32 0 0 1-57.39-31.61zm314.72 108.43H341.33v-25.6h136.53zm0-42.67H341.33v-8.53h136.53zm0-25.6H341.33v-25.6h136.53zM366.93 213.33h102.4a42.67 42.67 0 0 0 8-84.57 59.74 59.74 0 0 0-118.46 0 42.67 42.67 0 0 0 8 84.57zm0-68.27a8.53 8.53 0 0 0 8.53-8.53 42.67 42.67 0 1 1 85.33 0 8.53 8.53 0 0 0 8.53 8.53 25.6 25.6 0 1 1 0 51.2H366.94a25.6 25.6 0 0 1 0-51.2z"/></svg>