<svg id="Capa_1" data-name="Capa 1" xmlns="http://www.w3.org/2000/svg" viewBox="0 0 512 502.22"><defs><style>.cls-1{fill:#fff}</style></defs><title>placeholder</title><path class="cls-1" d="M259 222.52a58.59 58.59 0 1 0-58.59-58.59A58.67 58.67 0 0 0 259 222.52zm0-100.44a41.85 41.85 0 1 1-41.85 41.85A41.9 41.9 0 0 1 259 122.07z" transform="translate(0 -4.9)"/><path class="cls-1" d="M420.33 314.59h-59.94l25.5-36.83C434.06 213.55 427.09 108 371 51.91a160.51 160.51 0 0 0-227 0C87.87 108 80.9 213.56 128.88 277.51l25.68 37.09H91.67L0 507.11h512zm-277.87-46.87c-43.52-58-37.28-153.35 13.36-204a143.78 143.78 0 0 1 203.33 0C409.8 114.37 416 209.7 372.32 268L257.48 433.81l-82.56-119.22zm-40.21 63.61h63.9l91.33 131.89 91.32-131.89h60.94l75.74 159h-459z" transform="translate(0 -4.9)"/></svg>