<svg id="Capa_1" data-name="Capa 1" xmlns="http://www.w3.org/2000/svg" viewBox="0 0 512 512"><defs><style>.cls-1{fill:#fff}</style></defs><title>planning</title><path class="cls-1" d="M384 34.13h-76.8V8.53A8.53 8.53 0 0 0 298.67 0H93.87a8.53 8.53 0 0 0-8.53 8.53v25.6H8.53A8.53 8.53 0 0 0 0 42.67v460.8A8.53 8.53 0 0 0 8.53 512H384a8.53 8.53 0 0 0 8.53-8.53V42.67a8.53 8.53 0 0 0-8.53-8.54zM102.4 17.07h187.73v17.06H102.4zm0 34.13h187.73v34.13h-69.72a25.6 25.6 0 0 0-48.28 0H102.4zm273.07 443.73H17.07V51.2h68.26v42.67a8.53 8.53 0 0 0 8.53 8.53h85.34a8.53 8.53 0 0 0 8.53-8.53 8.53 8.53 0 0 1 17.07 0 8.53 8.53 0 0 0 8.53 8.53h85.33a8.53 8.53 0 0 0 8.53-8.53V51.2h68.27z"/><path class="cls-1" d="M85.33 119.47a34.13 34.13 0 1 0 34.13 34.13 34.13 34.13 0 0 0-34.13-34.13zm0 51.2a17.07 17.07 0 1 1 17.07-17.07 17.07 17.07 0 0 1-17.07 17.07zm0 34.13a34.13 34.13 0 1 0 34.13 34.13 34.13 34.13 0 0 0-34.13-34.13zm0 51.2a17.07 17.07 0 1 1 17.07-17.07A17.07 17.07 0 0 1 85.33 256zM332.8 128H213.33a8.53 8.53 0 1 0 0 17.07H332.8a8.53 8.53 0 0 0 0-17.07zm-153.6 0h-34.13a8.53 8.53 0 0 0 0 17.07h34.13a8.53 8.53 0 1 0 0-17.07zm153.6 34.13h-68.27a8.53 8.53 0 0 0 0 17.07h68.27a8.53 8.53 0 0 0 0-17.07zm-102.4 0h-85.33a8.53 8.53 0 0 0 0 17.07h85.33a8.53 8.53 0 1 0 0-17.07zm102.4 51.2h-34.13a8.53 8.53 0 0 0 0 17.07h34.13a8.53 8.53 0 0 0 0-17.07zm-68.27 0H145.07a8.53 8.53 0 0 0 0 17.07h119.46a8.53 8.53 0 1 0 0-17.07zm68.27 34.14h-93.87a8.53 8.53 0 1 0 0 17.07h93.87a8.53 8.53 0 0 0 0-17.07zm-128 0h-59.73a8.53 8.53 0 0 0 0 17.07h59.73a8.53 8.53 0 1 0 0-17.07zM477.87 35v-.85a34.13 34.13 0 1 0-68.27 0v409.6c0 .11.06.2.06.31a8.49 8.49 0 0 0 .53 2.63c.08.19.12.38.2.56s.06.21.11.32l24.7 49.4v6.52a8.53 8.53 0 0 0 17.07 0v-6.52L477 447.55c.05-.1.06-.21.11-.32s.12-.38.2-.56a8.49 8.49 0 0 0 .53-2.63c0-.11.06-.2.06-.31v-391a25.6 25.6 0 0 1 17 24v76.8a8.53 8.53 0 0 0 17.07 0V76.8a42.74 42.74 0 0 0-34.1-41.8zm-34.14 440.85l-11.79-23.59h23.59zm17.07-40.65h-34.13V196.27h34.13zm0-256h-34.13v-128h34.13zM426.67 34.13a17.07 17.07 0 0 1 34.13 0zM256 332.8v-17.07h-25.6a8.53 8.53 0 0 0-6 2.5l-6.55 6.55a93.87 93.87 0 1 0-13.69 132q1.21-1 2.38-2a93.72 93.72 0 0 0 11.16-11.69l6.65 6.65a8.53 8.53 0 0 0 6.08 2.48H256V435.2h-22.07l-6.51-6.51a93.11 93.11 0 0 0 .11-89.49l6.4-6.4H256zm-41.19 83.28l-12.51-12.51-12.07 12.07L205.65 431c-1.45 1.86-3 3.68-4.58 5.41l-43.94-43.92h64.26a76.54 76.54 0 0 1-6.58 23.59zm-78.28-40.61a8.53 8.53 0 0 0-6 14.57L188 447.57a76.8 76.8 0 1 1 17.62-110.66l-15.42 15.46 12.07 12.07L214.74 352a76 76 0 0 1 6.65 23.5h-84.86zm170.67-85.34a34.13 34.13 0 1 0 34.13 34.13 34.13 34.13 0 0 0-34.13-34.13zm0 51.2a17.07 17.07 0 1 1 17.07-17.07 17.07 17.07 0 0 1-17.07 17.07zm0 68.27a34.13 34.13 0 1 0 34.13 34.13 34.13 34.13 0 0 0-34.13-34.13zm0 51.2a17.07 17.07 0 1 1 17.07-17.07 17.07 17.07 0 0 1-17.07 17.07z"/></svg>