<svg id="Capa_1" data-name="Capa 1" xmlns="http://www.w3.org/2000/svg" viewBox="0 0 512 440.73"><defs><style>.cls-1{fill:#fff}</style></defs><title>sea-and-sun</title><path class="cls-1" d="M506.06 351c-19.9-3.45-34.91 8.92-53.7-9.52-4.91-4.82-12-2.1-14.25 3.76-16.11 42.07-49.68 21.76-65.05-7.75-3-5.71-11.41-5.21-14.51 0q-15.94 39-61.39 9.6c-4.81-4.21-12.71-2.79-14.52 3.83-13.19 48.32-59.29 35-73.49-4.66a4.53 4.53 0 0 0-3.85-3.14c-3.23-4-10.55-5.26-13.07.42-18.17 40.83-51.89 34.58-72.87.05-3.79-6.23-11.61-4.07-14.09 1.84-17.65 42-69.08 41-68.16-9.45.1-5.59-8.27-6.69-9.69-1.31-16.57 62.93 60.44 73.85 87.12 27.65 27.55 31.33 68.87 37.76 88.57-4.41 16.81 46.24 71.73 55.34 92.14 9.33 25.92 17.32 50.61 14.6 70.09-10 23.76 33.92 66.09 46.41 84.88 4.56 17.25 11.67 28.69 3.51 53.64 5.51 9.3.74 11.43-14.74 2.2-16.31zm-31.18 67.78c-7.81 12.83-10.51 24.32-27.23 30.59-20.59 7.72-41.08-10.7-51.22-25.81-3.5-5.21-12-6.22-15.26 0-14.33 27.25-46.06 20.6-59.61-5.7-3.33-6.47-14.59-5.32-16 2.09-7.56 40.77-41.74 45.05-64.62 15.53 2.5-8-10.53-13.37-14.08-5.58-19.21 42.13-56.71 37.42-78.47-.17-3.78-6.52-12.24-4.24-14.68 1.92C116 476.27 88.47 455 73 424.32c-3-6-11.6-3.91-13.41 1.75-8.45 26.39-22.37 31.31-45.82 38.14-4.42 1.29-3.73 9 1.12 8.3 26.87-3.58 41.54-8.36 52.52-28.37 22.56 35.23 54.06 42.43 75.19 5.36 27.4 34.3 71.42 38.21 93.24-2.6 24.23 33 64.86 31.33 81.13-4.58 21 24.76 51.54 28.24 72.68.53 31.46 31.63 95.79 38.71 98.08-20.58.27-7.07-9.39-9.17-12.85-3.49zM144.5 101.79c-5.27 1.53-7.34 5.49-7.18 9.48C100 116.79 75.84 153.61 73 190.64c-3.94 50.67 39.1 80.44 85.76 76.66 47.71-3.86 78.75-46.53 77.35-92.38s-44.83-86.77-91.61-73.13zm7.77 142.34c-34.25 2.81-56.4-20.32-55.75-53.49.69-34.77 27.33-57.7 58.21-66.86a6.84 6.84 0 0 0 1.43-.71c30.1 4.7 52.87 16.15 56.07 51.84 3.32 37.03-23.87 66.25-59.96 69.22zm-51.2-143.87a184.47 184.47 0 0 0-18.21-16.78c-6.32-5.26-13-15.42-21.93-14.59-4.72.44-7.91 3.43-8.24 8.24-.63 9.13 8.38 13.61 14.92 18.27 7.48 5.32 15.26 10.08 22.2 16.12 7.71 6.71 18.26-3.65 11.26-11.26zm-51.64 27.49c3 .36.35-.07-.44-.32-1.21-.38-2.41-.84-3.59-1.3-1.35-.51-2.68-1.07-4-1.62l-.27-.12a10.62 10.62 0 0 0-6.24-5.27c-5-1.57-12.61-5.33-18-3.63-3.06 1-6.26 3.49-6.86 6.86-.57 3.19-.32 7.33 2.52 9.55a21.14 21.14 0 0 0 5.37 2.85c-1.57 0-.3.07 1.11.4 1 .35 2 .7 3 1q3.73 1.26 7.45 2.55a8.34 8.34 0 0 0 4.3.29c5.09 1.35 10.66 2.89 15.65 2.58 9.07-.57 8.68-12.77 0-13.82zM33.88 205.4a78.8 78.8 0 0 1-12.59 8.1 53.8 53.8 0 0 1-7 3.43c-1.44.54-3.73.09-.56.67-1.57-.29-3.06-.32-4.62-.48-13.17-1.42-12 22.36 2.55 18.82 5.35-1.3 10.81-6.41 15.36-9.68A91.58 91.58 0 0 0 42 213.47c4.92-5.54-2.51-12.77-8.12-8.07zm33.57 47.13c-4.46 6.85-8.53 13.95-12.78 20.93-4.6 7.56-12.39 13.2-13.42 22.25-.65 5.78 5.67 8.64 10.35 7.88 9.55-1.59 14.21-13.7 17.7-21.59 3.6-8.13 5.82-16.65 8.7-25 2.23-6.47-7.12-9.74-10.55-4.47zm90.27 24.62c-.94-4.83-8.42-4.6-9.51 0-2.88 12.1-6.24 24.1-9.07 36.21a8.69 8.69 0 0 0 2.22 8.41c-.38-.51-.34-.41.13.3 2.76 4.52 8.57 4 11.44 0-2.62 3.65 1.85-1.77 2-2a12 12 0 0 0 1.26-5.71c.23-4.18.73-8.36 1.13-12.53.79-8.19 1.98-16.59.4-24.68zM257 284.3c-6.83-9.8-17.69-16.1-23.9-26.22-4.25-6.94-14-.89-10.71 6.26 2.85 6.2 7.2 11.35 11.69 16.42a94.12 94.12 0 0 1 6.23 7.42c2.57 3.59 3.63 7.62 8.65 8.32 2.89.4 6.18-.17 7.64-3.11l.4-.82c1.24-2.52 1.72-5.8 0-8.27zm39.77-73.16q-17.25.91-34.51 1.76c-10.35.52-10.35 15.54 0 16.06q17.26.86 34.51 1.76c12.63.67 12.63-20.24 0-19.58zm0-112.93c-10.44-.22-18.87 12.32-25.12 19.6-6.72 7.82-12.63 16.3-19.48 24-5.23 5.9 2.83 14.06 8.67 8.67 6.91-6.39 13.18-13.42 19.81-20.09a112.67 112.67 0 0 1 11.87-10.76c5.23-3.93 9.33-5.2 11.66-11.72 1.72-4.81-2.72-9.6-7.41-9.7zm-50.14-51.15c-6.18 4-10.3 10.4-14.54 16.28-4.95 6.86-9.65 13.75-15.38 20-6.48 7.08 3.6 17.28 10.56 10.56a174.53 174.53 0 0 0 14.87-16.76c5-6.29 11.52-12 15.66-18.91s-4.2-15.64-11.17-11.17zm-77.18-9.43a7.21 7.21 0 0 0-10 0C153.58 42.86 156.3 52 156.8 59c.57 8 1.17 16 1.9 23.93a5.78 5.78 0 0 0 11.55 0c.73-8 1.33-15.95 1.9-23.93.49-7 3.21-16.14-2.7-21.37z" transform="translate(0 -35.64)"/></svg>