<svg id="Capa_1" data-name="Capa 1" xmlns="http://www.w3.org/2000/svg" viewBox="0 0 512 510.36"><defs><style>.cls-1{fill:#fff}</style></defs><title>sketch</title><path class="cls-1" d="M453 361.32a7.51 7.51 0 0 0-8.19 1.63l-82.13 82.13A7.52 7.52 0 0 0 368 457.9h82.13a7.51 7.51 0 0 0 7.52-7.52v-82.12a7.52 7.52 0 0 0-4.65-6.94zm-66.86 81.55l56.47-56.47v56.47z" transform="translate(0 -.82)"/><path class="cls-1" d="M507.36 240.87a7.51 7.51 0 0 0-8.19 1.63L476.66 265V112a7.51 7.51 0 0 0-7.52-7.51h-57.73l21-21 20.2-20.2a22.92 22.92 0 0 0 0-32.41L429.22 7.53a22.92 22.92 0 0 0-32.41 0l-20.2 20.21-24.42 24.41-52.3 52.3H66.62V30.11a7.51 7.51 0 0 0-7.51-7.51A59.17 59.17 0 0 0 0 81.7v319.19a7.53 7.53 0 0 0 .18 1.61 56.92 56.92 0 0 0 56.75 52.6h229.64l-43.25 43.25a7.52 7.52 0 0 0 5.31 12.83h255.85a7.51 7.51 0 0 0 7.52-7.52V247.81a7.52 7.52 0 0 0-4.64-6.94zM407.44 18.16a7.89 7.89 0 0 1 11.15 0l23.36 23.35a7.89 7.89 0 0 1 0 11.15l-14.89 14.9-34.51-34.51zm-25.52 25.52l34.51 34.5L402.64 92l-34.5-34.5zM497 332.25h-13.89a7.52 7.52 0 0 0 0 15H497v22.65h-13.89a7.52 7.52 0 0 0 0 15H497v22.7h-13.89a7.52 7.52 0 0 0 0 15H497v22.65h-13.89a7.52 7.52 0 0 0 0 15H497v35.84H266.77l75.91-75.91a7.52 7.52 0 0 0-10.63-10.63l-30.46 30.46H56.93a41.66 41.66 0 0 1-41.86-40.54q.06-2.14.33-4.24.13-1 .3-2V393q.16-.88.35-1.75l.11-.48q.17-.74.37-1.47c.07-.26.15-.52.22-.79s.22-.76.34-1.14.25-.75.38-1.12.18-.52.28-.78c.18-.49.38-1 .58-1.46l.17-.42c.26-.6.52-1.19.81-1.78v-.08a44.24 44.24 0 0 1 30.75-24h.11c.62-.13 1.25-.24 1.88-.34l.32-.05c.57-.09 1.15-.15 1.72-.22l.49-.06c.56-.06 1.12-.09 1.68-.13h.53q1.1-.06 2.22-.06a7.51 7.51 0 0 0 7.52-7.52v-54.54a7.51 7.51 0 1 0-15 0v47.45a58.7 58.7 0 0 0-33.76 16.33c-1 1-1.9 1.95-2.81 3V81.7a44.15 44.15 0 0 1 36.63-43.43v226.48a7.51 7.51 0 1 0 15 0V119.49h218.27L243.32 161a7.51 7.51 0 1 0 10.63 10.63l54.37-54.37 49.19-49.16L392 102.6l-4 4-151.58 151.59-34.5-34.5 29.87-29.87a7.51 7.51 0 0 0-10.63-10.63L186 218.37a7.55 7.55 0 0 0-.53.59l-.16.21c-.11.14-.21.28-.31.43l-.16.26c-.08.14-.16.28-.24.43l-.13.29c-.07.15-.13.3-.19.45l-.07.16-14.64 41.48-10 28.28a7.6 7.6 0 0 0-.3 1.14h-25a7.52 7.52 0 0 0 0 15h208.14a7.52 7.52 0 1 0 0-15H193.09l45.83-16.18h.11l.53-.22.21-.1c.18-.09.36-.19.53-.3l.17-.1c.18-.12.36-.24.53-.38l.13-.1a7.54 7.54 0 0 0 .61-.54l154.64-154.68h65.26V280l-107.5 107.5a7.51 7.51 0 0 0 0 10.63 7.68 7.68 0 0 0 .57.52 7.51 7.51 0 0 0 10.06-.52L497 266zM222.68 265.7l-21.53 7.6-14.34-14.3 7.6-21.53z" transform="translate(0 -.82)"/></svg>