<svg id="Layer_1" data-name="Layer 1" xmlns="http://www.w3.org/2000/svg" viewBox="0 0 512 512"><defs><style>.cls-1{fill:#fff}</style></defs><title>transportation</title><path class="cls-1" d="M223 437.68h-8.26v-16.52a8.2 8.2 0 0 0-.71-3.35l-33-74.32a8.25 8.25 0 0 0-7.55-4.91H24.77a8.25 8.25 0 0 0-8.26 8.26v90.84H8.26A8.25 8.25 0 0 0 0 445.94v33a8.25 8.25 0 0 0 8.26 8.26h25.95a32.87 32.87 0 0 0 63.72 0h35.37a32.87 32.87 0 0 0 63.72 0H223a8.25 8.25 0 0 0 8.26-8.26v-33a8.25 8.25 0 0 0-8.26-8.26zm-156.94 57.8A16.52 16.52 0 1 1 82.58 479a16.53 16.53 0 0 1-16.52 16.48zm99.1 0A16.52 16.52 0 1 1 181.68 479a16.53 16.53 0 0 1-16.52 16.48zm49.55-24.77H197a32.87 32.87 0 0 0-63.72 0H97.92a32.87 32.87 0 0 0-63.72 0H16.52v-16.52h8.26a8.25 8.25 0 0 0 8.22-8.25V355.1h135l30.13 67.81v23a8.25 8.25 0 0 0 8.26 8.26h8.26z"/><path class="cls-1" d="M164.58 376.81a8.28 8.28 0 0 0-7.67-5.19h-33a8.25 8.25 0 0 0-8.26 8.26v41.29a8.25 8.25 0 0 0 8.26 8.26h49.55a8.26 8.26 0 0 0 7.67-11.32zm-32.45 36.1v-24.78h19.19l9.91 24.77zm-41.29-41.3h-33a8.25 8.25 0 0 0-8.26 8.26v41.29a8.25 8.25 0 0 0 8.26 8.26h33a8.25 8.25 0 0 0 8.26-8.26v-41.29a8.25 8.25 0 0 0-8.26-8.26zm-8.26 41.29H66.06v-24.77h16.52zm57.81-99.09h247.74a41.29 41.29 0 0 1 0 82.58H247.74v16.51h140.39a57.81 57.81 0 0 0 0-115.61H140.39a123.87 123.87 0 1 1 0-247.74h239.48V33H140.39C63 33 0 96 0 173.42s63 140.39 140.39 140.39z"/><path class="cls-1" d="M388.13 231.23H264.26v-18c14.21-4.6 24.74-20.63 24.74-39.81 0-22.77-14.81-41.29-33-41.29s-33 18.52-33 41.29c0 19.19 10.56 35.21 24.77 39.83v18h-66.09v-18c14.21-4.62 24.77-20.65 24.77-39.83 0-22.77-14.81-41.29-33-41.29s-33 18.52-33 41.29c0 19.19 10.56 35.21 24.77 39.83v18h-24.83a57.81 57.81 0 1 1 0-115.61h239.48V99.1H140.39a74.32 74.32 0 1 0 0 148.65h247.74a107.35 107.35 0 0 1 0 214.71H247.74V479h140.39a123.87 123.87 0 0 0 0-247.74zm-148.65-57.81c0-13.43 7.56-24.77 16.52-24.77s16.52 11.35 16.52 24.77S265 198.19 256 198.19s-16.52-11.34-16.52-24.77zm-82.58 0c0-13.43 7.56-24.77 16.52-24.77s16.52 11.35 16.52 24.77-7.56 24.77-16.52 24.77-16.52-11.34-16.52-24.77zM355.1 66.06h24.77v16.52H355.1zm-66.1 0h33v16.52h-33zm-66 0h33v16.52h-33zm-66.1 0h33v16.52h-33zM95 94.73a89.89 89.89 0 0 1 30.27-10.89l-2.77-16.29a106.18 106.18 0 0 0-35.8 12.89zm-41.82 16.06a106.65 106.65 0 0 0-16.77 35.79l16 4.13a90 90 0 0 1 14.18-30.27zM33.4 182.35a106.73 106.73 0 0 0 9.37 35.8l15-6.89A90.08 90.08 0 0 1 49.86 181z"/><path class="cls-1" d="M80.31 241.55l-10.94 12.39a106.72 106.72 0 0 0 35.24 20.73l5.5-15.56a90.36 90.36 0 0 1-29.8-17.56zm60.08 22.71h33v16.52h-33zm66.06 0h33v16.52h-33zm66.07 0h33v16.52h-33zm66.06 0h33v16.52h-33zm104.07 18.17a89.77 89.77 0 0 0-36.36-16.35L403 282.27a73.46 73.46 0 0 1 29.72 13.37zm28.75 36.33l-15.13 6.6a73.9 73.9 0 0 1 6.18 29.73H479a90.15 90.15 0 0 0-7.6-36.33zm-38.68 95.8l9.92 13.21a91.17 91.17 0 0 0 28.75-36.33l-15.12-6.61a74.65 74.65 0 0 1-23.55 29.73zm-61.11 14.86v16.52h16.52a91.73 91.73 0 0 0 18.15-1.82l-3.28-16.2a74.89 74.89 0 0 1-14.88 1.5zm-66.06 0h33v16.52h-33zm-57.81 0h24.77v16.52h-24.77zM445.94 115v83.24h16.52V115a57.81 57.81 0 1 0-16.52 0zm8.26-98.44a41.29 41.29 0 1 1-41.3 41.25 41.34 41.34 0 0 1 41.29-41.29z"/><path class="cls-1" d="M479 57.81h-16.55a8.26 8.26 0 0 1-8.26 8.26v16.51A24.81 24.81 0 0 0 479 57.81z"/></svg>