<svg id="Layer_1" data-name="Layer 1" xmlns="http://www.w3.org/2000/svg" viewBox="0 0 512 511.96"><defs><style>.cls-1{fill:#fff}</style></defs><title>wallet</title><path class="cls-1" d="M59.73 477.85H76.8a8.53 8.53 0 1 0 0-17.07H59.73a8.53 8.53 0 1 0 0 17.07zm102.4 0h17.07a8.53 8.53 0 1 0 0-17.07h-17.07a8.53 8.53 0 1 0 0 17.07zm0-307.2h17.07a8.53 8.53 0 1 0 0-17.07h-17.07a8.53 8.53 0 1 0 0 17.07zm51.2 307.2h17.07a8.53 8.53 0 1 0 0-17.07h-17.07a8.53 8.53 0 1 0 0 17.07zm-102.4-307.2H128a8.53 8.53 0 1 0 0-17.07h-17.07a8.53 8.53 0 0 0 0 17.07zm-51.2 0H76.8a8.53 8.53 0 0 0 0-17.07H59.73a8.53 8.53 0 0 0 0 17.07z" transform="translate(0 -.02)"/><path class="cls-1" d="M486.4 375.45a8.54 8.54 0 0 0-8.53 8.53v85.33a25.63 25.63 0 0 1-25.6 25.6H42.67a25.63 25.63 0 0 1-25.6-25.6V128c0-15.52 14.43-26.52 28-30.22L301.86 20.7c5.16-2.08 22-6.62 31.27-.34 5.44 3.68 8.2 11.18 8.2 22.29a8.53 8.53 0 1 0 17.07 0c0-17.13-5.29-29.39-15.72-36.43-18.36-12.4-44.3-2.52-46.46-1.61L40.43 81.35C20.3 86.82 0 103.36 0 128v341.31A42.72 42.72 0 0 0 42.67 512h409.6a42.72 42.72 0 0 0 42.67-42.67V384a8.54 8.54 0 0 0-8.54-8.55z" transform="translate(0 -.02)"/><path class="cls-1" d="M213.33 170.65h17.07a8.53 8.53 0 1 0 0-17.07h-17.07a8.53 8.53 0 1 0 0 17.07zm-102.4 307.2H128a8.53 8.53 0 1 0 0-17.07h-17.07a8.53 8.53 0 1 0 0 17.07z" transform="translate(0 -.02)"/><path class="cls-1" d="M494.93 273V162.11a42.72 42.72 0 0 0-42.67-42.67H133.07l269.76-51.37c.08 0 9.78-1.91 16.39 3.49 4.94 4 7.44 11.54 7.44 22.29a8.53 8.53 0 1 0 17.07 0c0-16.24-4.68-28.24-13.89-35.66-13-10.49-29.89-7-30.37-6.85L41.07 119.6a8.53 8.53 0 0 0 1.6 16.91h409.6a25.63 25.63 0 0 1 25.6 25.6V273H307.2a17.08 17.08 0 0 0-17.07 17.07v51.2a17.08 17.08 0 0 0 17.07 17.07h187.73A17.08 17.08 0 0 0 512 341.31v-51.2A17.08 17.08 0 0 0 494.93 273zM307.2 341.31v-51.2h187.73v51.2z" transform="translate(0 -.02)"/><path class="cls-1" d="M384 170.65a8.53 8.53 0 0 0 0-17.07h-17.07a8.53 8.53 0 0 0 0 17.07zm-51.2 0a8.53 8.53 0 0 0 0-17.07h-17.07a8.53 8.53 0 0 0 0 17.07zm102.4 0a8.53 8.53 0 0 0 0-17.07h-17.07a8.53 8.53 0 0 0 0 17.07zM333.06 307.18H333a8.58 8.58 0 1 0 .08 0zm-.26 170.67a8.53 8.53 0 0 0 0-17.07h-17.07a8.53 8.53 0 0 0 0 17.07zm102.4 0a8.53 8.53 0 0 0 0-17.07h-17.07a8.53 8.53 0 0 0 0 17.07zm-170.67-307.2h17.07a8.53 8.53 0 0 0 0-17.07h-17.07a8.53 8.53 0 0 0 0 17.07zm0 307.2h17.07a8.53 8.53 0 1 0 0-17.07h-17.07a8.53 8.53 0 0 0 0 17.07zm119.47 0a8.53 8.53 0 0 0 0-17.07h-17.07a8.53 8.53 0 0 0 0 17.07z" transform="translate(0 -.02)"/></svg>