<svg id="Слой_3" data-name="Слой 3" xmlns="http://www.w3.org/2000/svg" viewBox="0 0 99.41 77"><defs><style>.cls-1{fill:#863032}.cls-2{isolation:isolate}</style></defs><title>faq-icon</title><path class="cls-1" d="M94.4 0H5a5 5 0 0 0-5 5v67a5 5 0 0 0 5 5h89.5a5.54 5.54 0 0 0 3.6-1.5 4.65 4.65 0 0 0 1.3-3.5V5a5 5 0 0 0-5-5zM2 72V5a3 3 0 0 1 3-3v.1h43.8V75H5a3 3 0 0 1-3-3zm95.4.1a3.18 3.18 0 0 1-.8 2 2.72 2.72 0 0 1-2.1.9H50.8V2.1h43.6a3 3 0 0 1 3 3z"/><path class="cls-1" d="M58.1 16.7h31.2v2H58.1zm0 10.3h31.2v2H58.1zm0 10.3h31.2v2H58.1zm0 10.3h31.2v2H58.1zm0 10.3h31.2v2H58.1z"/><g class="cls-2"><path class="cls-1" d="M23.2 49a15.13 15.13 0 0 1 1.1-6.1 17.42 17.42 0 0 1 4.1-5.2 37.06 37.06 0 0 0 4.2-4.5 10.31 10.31 0 0 0 1.7-3.5 18.39 18.39 0 0 0 .5-4.4 10.94 10.94 0 0 0-2.6-7.6 9.33 9.33 0 0 0-7-2.8 9.86 9.86 0 0 0-7.5 2.9 10.37 10.37 0 0 0-2.7 7.4h-1.8a11.52 11.52 0 0 1 3.5-8.7 12 12 0 0 1 8.6-3.3 10.7 10.7 0 0 1 8.3 3.3c2.1 2.2 3.1 5.2 3.1 8.9a15.1 15.1 0 0 1-1.5 6.8 25.06 25.06 0 0 1-5.8 6.9C26.5 41.4 25 44.7 25 49zm-.8 11.6a2.11 2.11 0 0 1 .5-1.3 1.66 1.66 0 0 1 1.3-.5 2.11 2.11 0 0 1 1.3.5 1.66 1.66 0 0 1 .5 1.3 2.11 2.11 0 0 1-.5 1.3 1.66 1.66 0 0 1-1.3.5 2.11 2.11 0 0 1-1.3-.5 1.73 1.73 0 0 1-.5-1.3z"/></g></svg>