<svg id="Слой_3" data-name="Слой 3" xmlns="http://www.w3.org/2000/svg" viewBox="0 0 99.8 99.8"><defs><style>.cls-1,.cls-2{fill:none;stroke:#000;stroke-linecap:round;stroke-width:2px}.cls-1{stroke-linejoin:round}.cls-2{stroke-miterlimit:10}</style></defs><title>fb</title><path class="cls-1" d="M93.8 98.8H6a5 5 0 0 1-5-5V6a5 5 0 0 1 5-5h87.8a5 5 0 0 1 5 5v87.8a5 5 0 0 1-5 5z"/><path class="cls-2" d="M49.4 43.1V29.8s0-11.5 12.4-11.5h13.9a5.34 5.34 0 0 1 5.3 5.3V34a1.79 1.79 0 0 1-1.8 1.8H67.1m-.2 24.7v38.3H49.4V60.5m17.5-24.7v7.3M49.4 60.5h-3.2a5.34 5.34 0 0 1-5.3-5.3v-6.8a5.34 5.34 0 0 1 5.3-5.3h3.2m17.8 0h8.5a5.34 5.34 0 0 1 5.3 5.3v6.8a5.34 5.34 0 0 1-5.3 5.3h-8.8"/></svg>