<svg id="Слой_2" data-name="Слой 2" xmlns="http://www.w3.org/2000/svg" viewBox="0 0 102 102"><defs><style>.cls-1{fill:none;stroke:#000;stroke-linecap:round;stroke-linejoin:round;stroke-width:2px}</style></defs><title>question-icon</title><circle class="cls-1" cx="51" cy="51" r="50"/><path d="M49.1 63.4a16.46 16.46 0 0 1 1.3-6.8 18.41 18.41 0 0 1 4.6-5.8 46.16 46.16 0 0 0 4.7-5 14 14 0 0 0 1.9-3.9 17.75 17.75 0 0 0 .6-4.9 12.16 12.16 0 0 0-2.9-8.5c-1.9-2.1-4.5-3.1-7.9-3.1a11.07 11.07 0 0 0-8.4 3.2 11.58 11.58 0 0 0-3.1 8.2h-2a13.18 13.18 0 0 1 3.9-9.7 13.35 13.35 0 0 1 9.7-3.7c3.9 0 7 1.2 9.3 3.7a14.07 14.07 0 0 1 3.5 9.9 17 17 0 0 1-1.7 7.6c-1.1 2.2-3.3 4.8-6.5 7.7-3.3 2.6-4.9 6.2-4.9 11.1zm-.9 13a2 2 0 0 1 .6-1.5 2 2 0 0 1 1.4-.6 2.05 2.05 0 0 1 2.1 2.1 1.68 1.68 0 0 1-.6 1.4 2 2 0 0 1-1.5.6 2.05 2.05 0 0 1-2-2z"/></svg>