<svg id="Слой_3" data-name="Слой 3" xmlns="http://www.w3.org/2000/svg" viewBox="0 0 58.9 58.91"><defs><style>.cls-1{fill:none;stroke:#0b0b0b;stroke-linecap:round;stroke-linejoin:round;stroke-width:2px}</style></defs><title>settings-icon</title><path class="cls-1" d="M45.8 21.2a145.83 145.83 0 0 1-20.3 19.9C16 48.8 1 57.9 1 57.9s9.1-15.1 17-24.8A143 143 0 0 1 37.7 13C41 10.3 55.3-1 57.6 1.3s-9.3 17-11.8 19.9z" transform="translate(0 .01)"/><path class="cls-1" d="M46.7 6s-2.2-8.4-10.9-1.1S25 20.3 25 20.3l-.8 2.4-5.3-.3" transform="translate(0 .01)"/><path class="cls-1" d="M48.6 4.91l5.3 5.4m-39.3 38.8l-4.8-4.9m-3.9 6l2.8 2.8"/></svg>