<svg id="Слой_3" data-name="Слой 3" xmlns="http://www.w3.org/2000/svg" viewBox="0 0 87.96 87.96"><defs><style>.cls-1{fill:none;stroke:#000;stroke-linecap:round;stroke-linejoin:round;stroke-width:2px}</style></defs><title>tel</title><path class="cls-1" d="M8.93 26.73c.22-1.19.39-2.39.66-3.57a10.7 10.7 0 0 1 2.58-5c.66.65 1.32 1.27 2 1.9l13.46 13.5c1.5 1.5 3 3 4.51 4.5a.9.9 0 0 1 .21 1 9.89 9.89 0 0 0 .09 6.2 10 10 0 0 0 2.43 3.77c4 4.18 8 8.39 12.12 12.51a65.84 65.84 0 0 0 5.67 5.06 9.17 9.17 0 0 0 8.57 1.5 1.2 1.2 0 0 1 1.37.37c2.85 2.9 5.74 5.76 8.61 8.63l8.67 8.67c.81.8 1.63 1.59 2.49 2.42a9.37 9.37 0 0 1-4.37 2.5c-1.36.37-2.77.58-4.15.86h-4a5.36 5.36 0 0 0-.6-.12 40.9 40.9 0 0 1-12.11-3.06 69.15 69.15 0 0 1-15-9.12A106.38 106.38 0 0 1 32 70.38a112.34 112.34 0 0 1-10.21-11.45 82 82 0 0 1-7.91-12A42.85 42.85 0 0 1 9.59 34.7c-.26-1.46-.44-2.93-.66-4.39zM26.64 5.59c1.63.71 2.65 2.14 3.85 3.33 4.23 4.18 8.38 8.43 12.63 12.59a3.31 3.31 0 0 1 0 5.18c-2 1.87-3.9 3.86-5.83 5.81-.45.45-.84 1-1.21 1.38L16.24 14.07a3.71 3.71 0 0 1 .29-.35c2.36-2.36 4.7-4.74 7.09-7.07a9.76 9.76 0 0 1 1.65-1.07zm68.24 69.48c-.46 1.45-1.67 2.31-2.67 3.33-1.84 1.87-3.71 3.73-5.57 5.59a3.56 3.56 0 0 1-.31.26L66.58 64.52l3.82-3.78c1.15-1.14 2.31-2.28 3.44-3.44a3.18 3.18 0 0 1 5 0q7.44 7.45 14.87 14.91A10.47 10.47 0 0 1 94.88 74z" transform="translate(-7.93 -4.59)"/></svg>