<svg id="Слой_2" data-name="Слой 2" xmlns="http://www.w3.org/2000/svg" viewBox="0 0 99.8 99.8"><defs><style>.cls-1{fill:none;stroke:#000;stroke-linecap:round;stroke-linejoin:round;stroke-width:2px}</style></defs><title>tw</title><path class="cls-1" d="M93.8 98.8H6a5 5 0 0 1-5-5V6a5 5 0 0 1 5-5h87.8a5 5 0 0 1 5 5v87.8a5 5 0 0 1-5 5z"/><path class="cls-1" d="M15.9 71.4a28.73 28.73 0 0 0 16.3-3 28.74 28.74 0 0 0 4.3-2.8 13.86 13.86 0 0 1-10.4-5 14.19 14.19 0 0 1-2.7-4.8 11 11 0 0 0 3.1.2 11.15 11.15 0 0 0 3.1-.5 14.2 14.2 0 0 1-11.1-14 12.66 12.66 0 0 0 6.3 1.7c-.3-.2-.5-.4-.7-.5s-.4-.3-.6-.5l-.6-.6-.6-.6-.6-.6a4.23 4.23 0 0 1-.5-.7c-.2-.2-.3-.5-.5-.7s-.3-.5-.4-.7a5.94 5.94 0 0 1-.4-.8c-.1-.3-.2-.5-.3-.8s-.2-.5-.3-.8a2.35 2.35 0 0 1-.2-.8c-.1-.3-.1-.5-.2-.8a2.49 2.49 0 0 1-.1-.8c0-.3-.1-.5-.1-.8v-1.8a2.2 2.2 0 0 1 .1-.8c0-.3.1-.6.1-.8a2.35 2.35 0 0 1 .2-.8c.1-.3.1-.6.2-.8s.2-.5.3-.8.2-.5.3-.8a4.88 4.88 0 0 1 .3-.7c.1-.3.3-.5.4-.8A40.57 40.57 0 0 0 33.5 35a40 40 0 0 0 16 4.2c0-.2-.1-.4-.1-.6a13.89 13.89 0 0 1 10.5-16.2 14.12 14.12 0 0 1 13.2 3.8.62.62 0 0 0 .7.2 26.44 26.44 0 0 0 8.2-3.2c.1 0 .1-.1.2-.1a13 13 0 0 1-2.3 4.3 14.61 14.61 0 0 1-3.7 3.3 17.73 17.73 0 0 0 4-.8 24.64 24.64 0 0 0 3.8-1.4 22 22 0 0 1-3.1 3.9A21.63 21.63 0 0 1 77 36v1a37 37 0 0 1-.2 4.7 40.65 40.65 0 0 1-3.7 13.2 40.34 40.34 0 0 1-8.5 12A37.12 37.12 0 0 1 46 76.8a36.82 36.82 0 0 1-5.8.8 34.9 34.9 0 0 1-5.6 0 39.38 39.38 0 0 1-16.7-4.9c-.6-.4-1.3-.7-1.9-1.1 0-.1 0-.1-.1-.2z"/></svg>