<svg id="Capa_1" data-name="Capa 1" xmlns="http://www.w3.org/2000/svg" viewBox="0 0 512 400.59"><defs><style>.cls-1{fill:#d6d7de}</style></defs><title>address-order</title><path class="cls-1" d="M432 282.37l78.84 162c3.21 6.59-.16 12-7.49 12H8.7c-7.33 0-10.7-5.39-7.49-12l78.79-162a9.13 9.13 0 0 1 7.49-4.68h67.6a9.46 9.46 0 0 1 6.26 2.88c4.59 5.3 9.26 10.48 13.92 15.6 4.47 4.83 8.91 9.83 13.33 14.83h-80.23a9.13 9.13 0 0 0-7.49 4.68L48.66 423h414.68l-52.22-107.31a9.13 9.13 0 0 0-7.49-4.68h-80.4c4.41-5 8.86-10 13.28-14.84 4.67-5.14 9.37-10.31 14-15.61a9.45 9.45 0 0 1 6.25-2.87h67.74a9.13 9.13 0 0 1 7.5 4.68zm-60-110.68c0 88.49-73.67 105.09-108.32 190.13a8.28 8.28 0 0 1-15.36 0c-31.25-76.68-94.23-97.7-106.28-166-11.96-67.28 34.6-133.15 102.58-139.58A116 116 0 0 1 371.9 171.69zm-54.74 0a61.25 61.25 0 1 0-61.25 61.25 61.25 61.25 0 0 0 61.16-61.25z" transform="translate(0 -55.71)"/></svg>