<svg id="Capa_1" data-name="Capa 1" xmlns="http://www.w3.org/2000/svg" viewBox="0 0 435.51 512"><defs><style>.cls-1{fill:#d6d7de}</style></defs><title>avatar</title><path class="cls-1" d="M254.14 275.88h3.39c31.07-.53 56.19-11.45 74.75-32.34 40.82-46 34-124.9 33.29-132.43-2.65-56.51-29.37-83.55-51.42-96.17C297.72 5.51 278.53.42 257.11 0h-1.8c-11.77 0-34.88 1.91-57 14.53s-49.41 39.65-52.06 96.59c-.74 7.53-7.53 86.41 33.29 132.43 18.46 20.88 43.54 31.8 74.6 32.33zm-79.62-162.11c0-.32.11-.64.11-.85 3.5-76 57.47-84.18 80.58-84.18h1.27c28.63.64 77.29 12.3 80.58 84.18a2.07 2.07 0 0 0 .11.85c.11.74 7.53 72.84-26.19 110.8-13.36 15.06-31.17 22.48-54.6 22.69h-1.06c-23.33-.21-41.24-7.63-54.5-22.69-33.62-37.75-26.41-110.17-26.3-110.8z" transform="translate(-38.25)"/><path class="cls-1" d="M473.72 406.72v-.32c0-.85-.11-1.7-.11-2.65-.64-21-2-70.08-48-85.78-.32-.11-.74-.21-1.06-.32-47.82-12.19-87.58-39.76-88-40.08A14.31 14.31 0 0 0 320.09 301c1.8 1.27 44 30.64 96.8 44.21 24.7 8.8 27.46 35.2 28.2 59.37a21.29 21.29 0 0 0 .11 2.65c.11 9.54-.53 24.28-2.23 32.76-17.18 9.75-84.5 43.47-186.92 43.47-102 0-169.75-33.82-187-43.58-1.7-8.48-2.44-23.22-2.23-32.76 0-.85.11-1.7.11-2.65.74-24.17 3.5-50.57 28.2-59.37 52.8-13.57 95-43 96.8-44.21a14.31 14.31 0 1 0-16.43-23.43c-.42.32-40 27.88-88 40.08-.42.11-.74.21-1.06.32-46 15.8-47.39 64.89-48 85.78a21.29 21.29 0 0 1-.11 2.65v.32c-.11 5.51-.21 33.82 5.41 48a13.6 13.6 0 0 0 5.51 6.68c3.18 2.12 79.41 50.68 207 50.68s203.78-48.67 207-50.68a14.19 14.19 0 0 0 5.51-6.68c5.18-14.07 5.07-42.38 4.96-47.89z" transform="translate(-38.25)"/></svg>