<svg id="Capa_1" data-name="Capa 1" xmlns="http://www.w3.org/2000/svg" viewBox="0 0 419.99 512"><defs><style>.cls-1{fill:#5c4f1f}</style></defs><title>bell-pepper</title><path class="cls-1" d="M336 326a10 10 0 1 0 10 10 10 10 0 0 0-10-10z" transform="translate(-46.01)"/><path class="cls-1" d="M408.58 137.3c-16.19-28.46-42-46.5-69.52-48.48h-.12c-15.79-1.11-30.33 3-44.46 10.07l-1.61.84A70 70 0 0 1 356 60a30 30 0 0 0 0-60c-62.66 0-115.82 45-127.55 105C212 95 194.06 87.3 173 88.83c-27.55 2-53.34 20-69.53 48.49-19.51 10.13-35.76 28.45-46 52-11.18 25.74-14.25 55-8.88 84.6 12.21 67.44 45.56 222.71 112.7 235.76 25.81 5 45.54 2.56 65.12-13.89A56 56 0 0 0 256 504c13.38 0 25.48-4.62 36.1-13.74 18 16.27 39.22 26.47 62.26 19.51 64.45-19.49 97.09-167.49 109.1-233.77a157.5 157.5 0 0 0 2.54-28.69v-.26c.35-48.05-22.57-91.66-57.42-109.75zm-71-28.53h.11c14.36 1.06 28.25 8.2 39.71 20-1.2-.06-2.41-.1-3.63-.1-22.48 0-41.27 10.19-58.48 21.55a113 113 0 0 0-29.31-11V130c0-1 0-1.95.07-2.92 15.84-10.47 32.59-19.68 51.57-18.31zM246 130c0-60.84 49.67-110 110-110a10 10 0 0 1 0 20 90 90 0 0 0-90 90v6.25a137.33 137.33 0 0 0-20 0zm-71.6-21.22c18.83-1.36 35.3 7.53 51.65 18.36v12.08a113 113 0 0 0-29.31 11c-18.24-12-38.14-22.67-62.1-21.46C146.1 117 160 109.81 174.42 108.77zM165.1 490c-37-7.19-73.23-89.32-96.85-219.7-4.59-25.34-1.91-51.29 7.55-73.07 10.88-25 31.81-46.57 58.62-48.51 16.22-1.16 30.69 5.26 44.83 14-13.7 12.79-25.68 33-23.67 64C160.52 303.05 167 357.59 176 398.39c8.81 40 20.07 67.24 35 84.22-11.15 8.5-23.59 11.77-45.9 7.39zm278.57-217c-22.74 125.14-58.27 206.46-95.08 217.59-13.1 4-27.58-1.18-43.14-15.28 14.49-20.55 25.78-52.74 34.38-98a10 10 0 1 0-19.65-3.74c-9 47.55-20.7 79-35.65 96C276.09 479.3 266.77 484 256 484a36.3 36.3 0 0 1-24-8.71c-37.51-31-49.6-143.68-56.47-249.8-2.55-39.42 24.1-62.06 62.08-68.16a116.29 116.29 0 0 1 36.82 0c37.95 6.09 64.63 28.58 62.07 68.15-1.71 26.36-3.54 49.19-5.59 69.8a10 10 0 1 0 19.9 2c2.08-20.84 3.92-43.89 5.65-70.49 2-31-10-51.21-23.66-64 15.81-9.71 31.67-16.39 50-13.35 16.07 2.81 31.15 13.29 42.79 29.82 13 18.54 20.3 42.65 20.44 67.91-.19 16.35-2.69 22.15-2.36 25.83z" transform="translate(-46.01)"/></svg>