<svg id="Capa_1" data-name="Capa 1" xmlns="http://www.w3.org/2000/svg" viewBox="0 0 512 304"><defs><style>.cls-1{fill:#5c4f1f}</style></defs><title>big-piranha</title><path class="cls-1" d="M503.5 276.35a22.17 22.17 0 0 0-5.43-3.1l3.59-3.59a8 8 0 0 0 1.93-8.19c-4.83-14.5-22.32-39.7-49.29-60.77A190.52 190.52 0 0 0 336 160a295.34 295.34 0 0 0-48.84 4.45 8.06 8.06 0 0 0-.74-1.22A420.08 420.08 0 0 0 255 125.72C236.66 106.58 229 104 224 104c-2.56 0-10.35 0-40.07 29.65-8.74 8.72-29.32 30.12-31.73 40.55-2.2 9.54 4.26 22.11 7.59 27.74-5.95 2.25-11.66 4.43-17.06 6.5-20.92 8-40.68 15.56-46.73 15.56-.22 0-2.28-.17-6.56-5.91-3.84-5.15-7.95-12.75-12.3-20.8C63.15 171.43 44 136 8 136a8 8 0 0 0-8 8c0 30.82 5.24 50.82 9.87 68.47C13.16 225 16 235.84 16 248v8c0 12.16-2.84 23-6.13 35.53C5.24 309.18 0 329.18 0 360a8 8 0 0 0 8 8c36 0 55.15-35.43 69.14-61.29 4.35-8 8.46-15.65 12.3-20.8 4.28-5.74 6.34-5.91 6.56-5.91v.21c.8 29.45 31.46 68.19 50.6 85.69 11.19 10.23 15.79 20.85 13.66 31.56a8.64 8.64 0 0 0 1.54 7.6A8.06 8.06 0 0 0 168 408c18.61 0 47.82-25.31 54.66-35.56a8 8 0 0 0 1-2C248.69 383.19 275.84 392 304 392c61 0 114.86-23.28 141.56-37.15 18.11-9.41 34.65-20.16 46.57-30.28C505.5 313.22 512 303.87 512 296c0-10.76-4.62-16.63-8.5-19.65zm-328.8-80.72c-3.84-5.89-7.61-14.77-6.92-17.79.88-3 9.55-14.84 26.09-31.51 15.26-15.39 26.42-24.13 30.4-26.12 6.64 2.8 26.59 22.89 45.53 47.55-33.34 7.1-66.23 18-94.74 28.48-.06-.24-.23-.41-.36-.61zm34.64 167.93c-4.72 7.09-21 20.23-32.67 25.81-1.09-15.28-10.58-27.32-19.28-35.28-17.73-16.21-36.85-42.3-43.21-62.59 5.91 4.61 12.38 10 18.25 14.83 21 17.38 47.45 39.3 77.37 56.61a7.58 7.58 0 0 0-.46.62zM142.65 294C118.18 273.74 106 264 96 264c-14 0-22.33 15.49-32.93 35.1-12 22.13-25.35 46.89-46.9 52 .9-23.87 5.27-40.56 9.18-55.47C28.77 282.55 32 270.22 32 256v-8c0-14.22-3.23-26.55-6.65-39.59-3.91-14.91-8.29-31.6-9.18-55.47 21.55 5.08 34.94 29.84 46.9 52C73.67 224.51 82 240 96 240c8.61 0 23.9-5.7 52.45-16.62C197.75 204.51 272.24 176 336 176a174 174 0 0 1 92.76 26.35 80 80 0 0 0-15.22 149.83C386 363.75 346.71 376 304 376c-62.35 0-121.93-49.34-161.35-82zm337.85 19.44c-11.27 9.34-26.83 19.27-43.81 28l-2.29 1.16c-.2-.06-.4-.12-.6-.17a64.25 64.25 0 0 1-35.59-22.21A63.27 63.27 0 0 1 384 280a64.07 64.07 0 0 1 63.8-64c20.75 17 33.62 35.18 38.79 46.09l-12.25 12.25a8 8 0 0 0 7.6 13.42c1.53-.38 8.42-1.37 11.71 1.2 1.55 1.21 2.33 3.55 2.35 7-.22 1.48-3.4 7.46-15.51 17.49z" transform="translate(0 -104)"/><path class="cls-1" d="M448 248a16 16 0 1 0 16 16 16 16 0 0 0-16-16zm-75.58 88.85l-28.79 14.39-21.48-8.59c20.07-8.11 45-6.68 45.34-6.66a8 8 0 0 0 1-16c-1.82-.12-44.78-2.64-69.6 17.81a8 8 0 0 0 2.11 13.6l40 16a8 8 0 0 0 6.55-.27l32-16a8 8 0 1 0-7.16-14.31z" transform="translate(0 -104)"/></svg>