<svg id="Capa_1" data-name="Capa 1" xmlns="http://www.w3.org/2000/svg" viewBox="0 0 506.21 511.99"><defs><style>.cls-1{fill:#5c4f1f}</style></defs><title>cheese</title><path class="cls-1" d="M264.65 295.13a64.58 64.58 0 0 0-3.24-7.07c-.78-1.48-1.69-2.88-2.59-4.32-.64-1-1.28-2-2-3-1-1.48-2.11-2.9-3.26-4.31-.66-.8-1.37-1.57-2.05-2.34a70 70 0 0 0-6.93-6.73c-.89-.75-1.74-1.56-2.66-2.26-1.17-.89-2.37-1.66-3.58-2.47q-2.13-1.43-4.36-2.68c-1-.56-2-1.12-3.06-1.62a56.59 56.59 0 0 0-8.09-3.3 51.1 51.1 0 0 0-6.71-1.55l-1.38-.2a43.56 43.56 0 0 0-13.2.14l-.3.06a35.88 35.88 0 0 0-15.1 6.31c-.44.32-.74.77-1.17 1.11a33.27 33.27 0 0 0-3.31 3.15 31.56 31.56 0 0 0-2.19 2.34 35.45 35.45 0 0 0-3.68 5.79v.11a41.44 41.44 0 0 0-4.28 18.71c0 25.8 20.08 52.23 45.7 60.17a48.43 48.43 0 0 0 14.31 2.23 37.36 37.36 0 0 0 22.38-7c9.46-7 14.67-18.08 14.67-31.26a56 56 0 0 0-3.93-20zm-69-18.11a14.69 14.69 0 0 1 5.11-3.45 17.8 17.8 0 0 1 3.06-1.08 20.41 20.41 0 0 1 2.46-.34 22.71 22.71 0 0 1 3.81-.18c.35 0 .72 0 1.08.1a30.4 30.4 0 0 1 6.08 1.19 39.3 39.3 0 0 1 5.79 2.39l1.16.59a47.82 47.82 0 0 1 10.66 7.85c.16.16.33.32.5.49a52.18 52.18 0 0 1 8 10.33c.32.56.65 1.12 1 1.69.2.37.34.76.54 1.14-4.76 5.31-12.77 6.88-22 4.06-11.38-3.53-21.82-12.85-27.66-24.37.1-.16.24-.28.37-.43zm46.94 54c-4.92 3.63-11.91 4.29-19.69 1.9-12.19-3.78-22.92-14.28-28.4-26.14A63.15 63.15 0 0 0 217.21 320a48.2 48.2 0 0 0 14.18 2.22A38.6 38.6 0 0 0 249.2 318c-.58 5.63-2.82 10.25-6.64 13.06zm153.36-7.86c-10.37-3.21-20.64-1.82-28.22 3.77-7.27 5.36-11.43 14.17-11.43 24.19 0 19.25 14.94 38.94 34 44.84a36.85 36.85 0 0 0 10.88 1.7 28.93 28.93 0 0 0 17.34-5.46C425.79 386.84 430 378 430 368c-.05-19.24-15-38.95-34.05-44.84zm11.23 53.67c-2.69 2-6.7 2.31-11.24.9-11.15-3.45-20.55-15.63-20.55-26.6 0-2.79.63-6.58 3.67-8.83a10 10 0 0 1 6-1.77 17.82 17.82 0 0 1 5.27.87c11.15 3.45 20.55 15.63 20.55 26.61-.03 2.79-.66 6.58-3.7 8.81zm-278.66-72.77c-10.36-3.21-20.64-1.82-28.22 3.77C93 313.19 88.86 322 88.86 332c0 19.25 14.94 38.94 34 44.84a36.85 36.85 0 0 0 10.88 1.7 28.93 28.93 0 0 0 17.34-5.46c7.27-5.36 11.43-14.16 11.43-24.18.01-19.24-14.93-38.95-33.99-44.84zm11.23 53.67c-2.69 2-6.7 2.3-11.24.9C117.36 355.17 108 343 108 332c0-2.79.63-6.58 3.67-8.83a10 10 0 0 1 6-1.77 17.82 17.82 0 0 1 5.27.87c11.15 3.45 20.55 15.63 20.55 26.61-.07 2.82-.7 6.61-3.74 8.84zm189.34 31.67c-7.74-2.38-15.51-1.34-21.32 3-5.59 4.13-8.79 10.83-8.79 18.41 0 13.9 10.74 28.1 24.46 32.35a27.25 27.25 0 0 0 8.06 1.26 22.14 22.14 0 0 0 13.26-4.2c5.59-4.13 8.8-10.84 8.8-18.42-.02-13.95-10.77-28.16-24.47-32.4zm4.33 35.38c-.84.62-2.49.65-4.33.09-5.77-1.79-11-8.51-11-14.11 0-.69.11-2.36 1-3a3.16 3.16 0 0 1 1.89-.49 8.51 8.51 0 0 1 2.44.4c5.77 1.79 11 8.5 11 14.1.02.66-.09 2.32-1 3.01zm-16.8-95.22a27.27 27.27 0 0 0 8.07 1.26 22.16 22.16 0 0 0 13.26-4.2c5.59-4.13 8.79-10.83 8.79-18.41 0-13.9-10.74-28.1-24.46-32.35-7.76-2.4-15.52-1.33-21.31 3-5.59 4.13-8.8 10.84-8.8 18.42-.01 13.82 10.74 28.04 24.45 32.28zm-4.33-35.38a3.2 3.2 0 0 1 1.89-.49 8.51 8.51 0 0 1 2.44.4c5.77 1.79 11 8.51 11 14.11 0 .69-.11 2.36-1 3s-2.49.64-4.33.09c-5.77-1.79-11-8.5-11-14.1-.02-.66.08-2.33 1.01-3.01zM108 207.9c0-14.87-11.51-30.09-26.21-34.65-8.24-2.57-16.48-1.41-22.59 3.1-5.89 4.35-9.28 11.44-9.28 19.47 0 14.88 11.52 30.1 26.22 34.64a28.94 28.94 0 0 0 8.58 1.34 23.4 23.4 0 0 0 14-4.43c5.86-4.37 9.28-11.44 9.28-19.47zM87.34 212c-1.17.87-3.3 1-5.6.24-6.8-2.11-12.77-9.76-12.77-16.4 0-1.12.2-3.13 1.51-4.11a4.49 4.49 0 0 1 2.66-.72 10.16 10.16 0 0 1 2.94.49c6.8 2.11 12.76 9.77 12.76 16.41.01 1.09-.18 3.09-1.5 4.09z" transform="translate(-2.9)"/><path class="cls-1" d="M471.17 337.82a14.43 14.43 0 0 1 .67-1.83 15.9 15.9 0 0 1 .65-1.76s.06-.07.08-.11a12.69 12.69 0 0 1 1.91-2.66 11.58 11.58 0 0 1 3.42-2.5c.26-.13.54-.23.81-.34a14.74 14.74 0 0 1 4-1c.2 0 .38-.08.59-.1a19.24 19.24 0 0 1 3.83.11h.45c.11 0 .24.07.35.09a24.22 24.22 0 0 1 3.66.9c.76.25 1.6.61 2.44 1 .51.21 1 .38 1.53.6a8.76 8.76 0 0 0 1.68.52c.2 0 .39.14.59.18a9.62 9.62 0 0 0 2.17.08 2.33 2.33 0 0 0 .26 0 9.13 9.13 0 0 0 2.2-.43h.12a9 9 0 0 0 1.34-.64 8.32 8.32 0 0 0 .83-.4 9.84 9.84 0 0 0 4.38-8v-21.39a67.68 67.68 0 0 0-25.84-53l-165.95-157a9.53 9.53 0 0 0-12.63-.44c-3 2.46-7.41 3-12.48 1.39-11.86-3.68-21.88-16.66-21.88-28.35a14 14 0 0 1 1.38-6.38 9.57 9.57 0 0 0-2-11.24l-28.44-26.87a9.94 9.94 0 0 0-.77-.65C218.29.66 191-4.64 170.67 4.28L29.41 72.43C13.34 79.37 3 95.64 2.91 114v150.52a9.55 9.55 0 0 0 11.27 9.4 20.69 20.69 0 0 1 10 .74C38.55 279.1 50.66 294.8 50.66 309c0 5.46-1.88 9.87-5.3 12.39-3.82 2.82-9.31 3.31-15.5 1.39a35 35 0 0 1-11.41-6.35 9.55 9.55 0 0 0-15.55 7.41v20.66a44.46 44.46 0 0 0 33.47 43.24L453.6 510.63a44.68 44.68 0 0 0 55.52-43.34v-79.65a9.58 9.58 0 0 0-8-9.44c-.2 0-.4-.11-.6-.15-8.46-1.59-16.83-7.55-22.54-15.34a39 39 0 0 1-6-12.14A32.84 32.84 0 0 1 471 347a27.76 27.76 0 0 1-.36-4.93 22.07 22.07 0 0 1 .27-2.32 17 17 0 0 1 .26-1.93zM37.34 89.79l141.3-68.17c13.67-6 33.21-1.7 49.89 10.86l23.59 22.31a34.82 34.82 0 0 0-.9 8c0 20 15.52 40.45 35.34 46.59 8 2.49 16 2.28 22.77-.46l152 143.81L297 203.79c-4.19-16.27-17.47-31.11-33.82-36.16-10.71-3.31-21.33-1.89-29.2 3.89a27.88 27.88 0 0 0-8.83 10.89l-192.4-57.28c-5.91-1.13-9.35-5.21-10.2-12.13a8.49 8.49 0 0 0-.39-1.24c.77-9.76 6.4-18.17 15.18-21.97zm242.1 124.43c0 3-.7 7.16-4 9.62-2.94 2.18-7.26 2.53-12.19 1a25.9 25.9 0 0 1-4.35-1.8c-8.45-4.37-15.29-13.23-17.08-22.1a22 22 0 0 1-.45-4.36c0-.21.16-1.25.18-1.45s-.07-.44-.06-.66a10.5 10.5 0 0 1 3.91-7.59 10.84 10.84 0 0 1 6.54-1.94 19.19 19.19 0 0 1 5.66.93c11.1 3.44 20.46 15 21.64 26a2.16 2.16 0 0 1 0 .25zM490 467.3a25.61 25.61 0 0 1-31.4 24.92L41.37 369.32A25.55 25.55 0 0 1 22 344.49v-4.25c.74.27 1.47.53 2.21.74 11.94 3.71 23.76 2.14 32.47-4.27 8.42-6.21 13.07-16.07 13.07-27.76 0-22.54-17.53-45.63-39.89-52.55a42.12 42.12 0 0 0-7.86-1.65v-113a29.7 29.7 0 0 0 6.22 1.88l194.32 57.89c.06.46.21.91.29 1.37.16 1 .4 2 .63 3 .32 1.38.68 2.72 1.13 4.08.33 1 .72 2 1.13 3 .53 1.29 1.1 2.56 1.74 3.81.5 1 1 2 1.59 2.91.72 1.21 1.48 2.37 2.29 3.52.64.92 1.28 1.82 2 2.71.89 1.12 1.84 2.16 2.82 3.2.75.81 1.49 1.63 2.29 2.39 1.07 1 2.22 1.94 3.37 2.87.81.66 1.6 1.35 2.45 2a47.29 47.29 0 0 0 4.15 2.55c.76.44 1.49.95 2.28 1.35a44.72 44.72 0 0 0 6.91 2.83 38.49 38.49 0 0 0 7.14 1.43c.64.08 1.26.11 1.89.15s1.49.17 2.23.17a34.11 34.11 0 0 0 3.85-.28c.24 0 .49 0 .73-.06a30.74 30.74 0 0 0 6.29-1.61c.47-.17.93-.36 1.38-.56a24.71 24.71 0 0 0 10.16-7.39c.35-.4.68-.82 1-1.24a27.92 27.92 0 0 0 3-4.82c.08-.15.17-.28.25-.43a30.32 30.32 0 0 0 1.75-4.67l172.5 51.35a25.7 25.7 0 0 1 20.22 25v8.55a39.23 39.23 0 0 0-8.57-.2 34.84 34.84 0 0 0-6.8 1.32c-.75.22-1.47.53-2.2.81a31.08 31.08 0 0 0-4.36 2c-.68.38-1.34.77-2 1.2a31.35 31.35 0 0 0-4.1 3.29c-.32.31-.72.51-1 .83-.11.11-.16.25-.27.36s-.37.31-.54.5a32.52 32.52 0 0 0-2.34 3.37 31.83 31.83 0 0 0-1.9 2.74c-.1.17-.23.3-.32.46a34.4 34.4 0 0 0-1.79 4.71c-.28.81-.69 1.56-.91 2.4a38 38 0 0 0-1 6.61c-.06.64-.23 1.23-.26 1.88v.31a46.35 46.35 0 0 0 .53 7.61c.06.39 0 .75.07 1.15a51.35 51.35 0 0 0 2.05 8c.07.19.08.38.14.56a36.67 36.67 0 0 0 1.45 3.41c.49 1.15 1 2.29 1.52 3.41.2.43.36.87.59 1.3.54 1 1.19 2 1.81 2.94s1.09 1.77 1.67 2.63a20.19 20.19 0 0 0 1.17 1.8 57.8 57.8 0 0 0 4.75 5.65c.2.24.62.74.85 1 .66.68 1.38 1.25 2.05 1.89l1 .89a60.83 60.83 0 0 0 4.94 4l.91.67a56 56 0 0 0 5.49 3.39c.29.15.55.33.84.48A52.32 52.32 0 0 0 490 395v72.3z" transform="translate(-2.9)"/></svg>