<svg data-name="Capa 1" xmlns="http://www.w3.org/2000/svg" viewBox="0 0 496 496"><title>clock</title><path d="M248 0C111 0 0 111 0 248s111 248 248 248 248-111 248-248C495.84 111.1 384.9.16 248 0zm0 480C119.87 480 16 376.13 16 248S119.87 16 248 16s232 103.87 232 232-103.93 231.86-232 232z"/><path d="M248 64a8 8 0 0 0 8-8V32a8 8 0 0 0-16 0v24a8 8 0 0 0 8 8zm0 368a8 8 0 0 0-8 8v24a8 8 0 0 0 16 0v-24a8 8 0 0 0-8-8zm216-192h-24a8 8 0 0 0 0 16h24a8 8 0 0 0 0-16zm-408 0H32a8 8 0 0 0 0 16h24a8 8 0 0 0 0-16zm298.38-109.66l-88 88a7.76 7.76 0 0 0-1.65 2.49 31.26 31.26 0 0 0-33.39 0 7.76 7.76 0 0 0-1.65-2.49l-64-64a8 8 0 0 0-11.31 11.31l64 64a7.76 7.76 0 0 0 2.49 1.65 32 32 0 1 0 54.37 0 7.76 7.76 0 0 0 2.49-1.65l88-88a8 8 0 0 0-11.31-11.31zM248 264a16 16 0 1 1 16-16 16 16 0 0 1-16 16z"/></svg>