<svg id="Capa_1" data-name="Capa 1" xmlns="http://www.w3.org/2000/svg" viewBox="0 0 512 506.87"><defs><style>.cls-1{fill:#5c4f1f}</style></defs><title>cow-head</title><path class="cls-1" d="M167.12 216.13H167a16 16 0 0 0 .14 31.91h.15a16 16 0 0 0-.14-31.91zm174.93-1.59a16 16 0 0 0 .14 31.91h.15a16 16 0 0 0-.29-31.91z" transform="translate(0 -2.57)"/><path class="cls-1" d="M480.83 179.71c-12.91-6.87-31-13.78-40.82-13.78h-.19c-8.06.07-14.81 5.08-21.34 9.93-8.64 6.41-14.48 10.33-21.27 7.84 1.35-14.8 2.2-26.4 2.55-33.41 20.85-6 84.42-25.57 102.64-46.91 10.36-12.14 12.35-32.3 5.92-59.94a225.78 225.78 0 0 0-11.86-36.11 8 8 0 0 0-15.23 2c-1.86 12.46-8.3 47.67-15.55 60.77-.19.28-5.18 6.9-46.27 13.61-21.94 3.58-42.93 5.34-43.14 5.36a8 8 0 0 0-2.12.48 80.51 80.51 0 0 0-20.4-13.06C328.44 65.35 286.64 61.36 256 61.36s-72.48 4-97.79 15.18a80.47 80.47 0 0 0-20.38 13 8 8 0 0 0-2.07-.46c-.21 0-21.2-1.77-43.14-5.35-41.13-6.68-46.12-13.3-46.28-13.52C39.06 57 32.63 21.84 30.76 9.38a8 8 0 0 0-15.23-2A225.79 225.79 0 0 0 3.69 43.43c-6.43 27.63-4.44 47.8 5.91 59.94 18.55 21.74 83.3 41.77 102.59 47.36.38 7.33 1.27 19.39 2.68 34.7-7 3.18-13.06-.66-22.12-7.13-6.62-4.72-13.5-9.59-21.52-9.54-9.75.09-27.88 7.37-40.75 14.52C10.16 194.59-.1 206 0 217.21c.14 15.64 29.84 35.23 56.4 43a95.54 95.54 0 0 0 26.83 4.13c15.3 0 28.57-4.56 38.85-13.35 9.33 73.73 25.19 166.34 47.86 214.2a7.91 7.91 0 0 0 .44.77 39.82 39.82 0 0 0 40 43.29l93.54.15h.08a39.81 39.81 0 0 0 38.94-46.2c22.4-48.89 38-141.35 47.21-214.43 10.17 8.53 23.16 12.94 38.05 12.94a94.44 94.44 0 0 0 28.14-4.63c26.42-8.28 55.75-28.4 55.61-44-.13-11.23-10.59-22.45-31.12-33.37zm-58-80.29c43.86-7.25 53.41-15.27 56.84-21.46 4.73-8.54 8.75-23 11.74-36.26.48 1.82.95 3.68 1.39 5.57 5 21.67 4.1 37.91-2.56 45.71-13 15.27-63.38 32.59-90.84 40.74a70.2 70.2 0 0 0-12.16-29.58c8.55-.89 21.76-2.45 35.57-4.72zM21.77 93c-6.66-7.8-7.57-24-2.56-45.71.44-1.89.9-3.75 1.39-5.57 3 13.25 7 27.72 11.74 36.26 3.42 6.19 13 14.21 56.84 21.46 13.74 2.27 27 3.82 35.52 4.72a70 70 0 0 0-12.22 30C85.62 126.05 35 108.44 21.77 93zm97.3 137.46c-6.8 10.37-20.7 21.7-48.31 16.78a110.45 110.45 0 0 1-38-15.07C21.31 224.9 16.6 218.84 16 216.88c.21-3.1 6.2-10.68 22.25-19.6 14.57-8.1 28.6-12.47 33.12-12.51 2.86 0 7.74 3.48 12.05 6.56 8.42 6 19.53 13.93 33 10.48.88 8.71 1.9 18.11 3.05 28-.11.19-.26.42-.4.63zM322.51 484.1a23.68 23.68 0 0 1-18.66 9.34l-93.58-.15a23.84 23.84 0 0 1-23.39-29.4L193.1 438a33.49 33.49 0 0 1 5.54-12 22.13 22.13 0 0 0 2.84 7.39c2.25 3.59 5.56 6.59 8.75 9.49 2.29 2.08 6.56 6 6.75 7.45 0 0-.43 1.61-4.59 4.51a8 8 0 1 0 9.15 13.16c7.28-5.08 11-10.5 11.41-16.58.58-9-6.37-15.28-12-20.35-2.39-2.17-4.87-4.42-6-6.15a8.15 8.15 0 0 1-.12-7.05c1.62-3.24 5.85-4.35 9.29-4.71l63.23.39c3.5.25 8 1.25 9.71 4.56a8.15 8.15 0 0 1 0 7.05 39 39 0 0 1-5.58 6.15c-5.32 5.18-11.94 11.63-11.13 20.54.56 6.1 4.45 11.49 11.9 16.48a8 8 0 0 0 8.9-13.29c-4.39-2.94-4.87-4.63-4.87-4.63.08-1.52 4.32-5.66 6.36-7.65 3-2.88 6-5.85 8.12-9.36a22.34 22.34 0 0 0 2.78-7.92 32.13 32.13 0 0 1 6.46 12.39l6.69 25.75a23.68 23.68 0 0 1-4.18 20.48zm13.71-47.34l-.76-2.91a48.89 48.89 0 0 0-46.73-36.28h-.36l-64.09-.4h-1.17c-21.62.2-40.36 15.46-45.57 37.12l-1.1 4.56c-15.44-43.14-26.76-106.94-33.93-156.26-9.3-64-14.4-123.68-14.53-137.68v-.75c-1-20.56 14.64-43.24 36.7-53 19-8.39 54.83-13.81 91.33-13.81s72.34 5.42 91.33 13.81c21.39 9.46 36.76 31.07 36.74 51.11a8 8 0 0 0-.1 3.35c-.28 15.23-5.37 74-14.52 137-7.1 48.5-18.21 111.05-33.24 154.14zm143.2-208.16a110.45 110.45 0 0 1-37.7 15.76c-27.52 5.42-41.62-5.65-48.61-15.9-.15-.22-.31-.43-.47-.62 1.14-9.91 2.14-19.29 3-28C409 202.8 419.8 194.79 428 188.7c4.27-3.17 9.11-6.75 12-6.78 4.59 0 18.63 4.11 33.28 11.91 16.2 8.62 22.33 16.1 22.6 19.19-.52 1.98-5.12 8.12-16.46 15.58z" transform="translate(0 -2.57)"/><path class="cls-1" d="M331.09 116.67a8 8 0 0 0-11.79-10.81c-6.19 6.75-39.07 24-63 28.75l5-20.83a8 8 0 0 0-12.48-8.34c-12.25 8.92-61.94 30.91-98.53 31.24a8 8 0 0 0 .07 16h.07c30.51-.28 68.3-13.85 91-24.85l-3.3 14.17a8 8 0 0 0 7.78 9.87h.09c28.08-.3 74.9-24.08 85.09-35.2zm2.36 34.33a8 8 0 0 0 4.61-1.46c7.12-5 16.34-16.29 17.37-17.56A8 8 0 0 0 343 121.93c-2.41 3-9.66 11.38-14.17 14.56a8 8 0 0 0 4.62 14.51z" transform="translate(0 -2.57)"/></svg>