<svg id="Layer_1" data-name="Layer 1" xmlns="http://www.w3.org/2000/svg" viewBox="0 0 437.78 512"><defs><style>.cls-1{fill:#d80027}</style></defs><title>delete</title><path class="cls-1" d="M351 232.74v-94.19h21.65V41.13H266.18V0H143.61v41.13H37.11v97.42h21.65V468.7H233.6A139.71 139.71 0 0 0 334.79 512c77.25 0 140.1-62.85 140.1-140.1 0-71.76-54.24-131.08-123.89-139.16zm-32.47 0a139.09 139.09 0 0 0-54.12 18V138.55h54.12zM176.08 32.47h57.62v8.66h-57.62zM69.59 73.61H340.2v32.47H69.59zm21.65 64.95h54.12v297.67H91.23zm86.6 297.67V138.55H232v138.3a139.85 139.85 0 0 0-21.6 159.37zm157 43.3A107.63 107.63 0 1 1 442.41 371.9a107.75 107.75 0 0 1-107.62 107.63z" transform="translate(-37.11)"/><path class="cls-1" d="M333.36 313.26l-35.69 35.68L262 313.26l-22.97 22.96 35.68 35.68-35.68 35.68L262 430.54l35.67-35.68 35.69 35.68 22.96-22.96-35.68-35.68 35.68-35.68-22.96-22.96z"/></svg>