<svg id="Capa_1" data-name="Capa 1" xmlns="http://www.w3.org/2000/svg" viewBox="0 0 512 285.73"><defs><style>.cls-1{fill:#1e90ff}</style></defs><title>delivery</title><path class="cls-1" d="M503.47 156.4h-73.3v-25.6a17.66 17.66 0 0 0-17.66-17.66H157.87a17.66 17.66 0 0 0-17.67 17.66V184H71.42a8.53 8.53 0 0 0-7.42 4.32l-34.65 60.5H8.53A8.53 8.53 0 0 0 0 257.35v95.57a8.53 8.53 0 0 0 8.53 8.53h24.92a46 46 0 0 0 90.37 0h24.92a8.54 8.54 0 0 0 3.67-.94 17.06 17.06 0 0 0 5.38.94H269.4a46 46 0 0 0 90.37 0h52.73a17.66 17.66 0 0 0 17.66-17.66v-77.91h55.13a8.53 8.53 0 1 0 0-17.07h-55.12v-29.18h9.64a8.53 8.53 0 1 0 0-17.07h-9.64v-29.1h73.3a8.53 8.53 0 1 0 0-17.07zm-427.1 45.06h63.83v47.36H49.07zm2.3 180.39a29 29 0 1 1 29-29 29 29 0 0 1-28.99 29zm45.14-37.55a46 46 0 0 0-90.37 0H17.07v-78.42H140.2v78.42zm190.89 37.55a29 29 0 1 1 29-29 29 29 0 0 1-28.99 29zm98.47-225.11h-40.78a8.53 8.53 0 1 0 0 17.07H413v28.84H308.65a8.53 8.53 0 0 0 0 17.07h104.19v29.18h-58.71a8.53 8.53 0 0 0 0 17.07h58.54v78.42h-52.82a46 46 0 0 0-90.37 0l-112.13-.51.6-213.33 255.23.6z" transform="translate(0 -113.14)"/></svg>