<svg id="Capa_1" data-name="Capa 1" xmlns="http://www.w3.org/2000/svg" viewBox="0 0 512 438.33"><defs><style>.cls-1{fill:#5c4f1f}</style></defs><title>leaf</title><path class="cls-1" d="M510.05 292c0-.31 0-.61-.09-.92L484.3 112.5a10 10 0 0 0-13.63-7.86l-118.1 47.48a10 10 0 1 0 7.43 18.56l106.28-42.73L490 292.73a10 10 0 0 0 .14 1.4 133.42 133.42 0 0 1-198.55 137.44c-.21-.12-.43-.23-.65-.33a181.18 181.18 0 0 0 18.7-16.35l117.08-31.37a10 10 0 0 0-5.18-19.32l-90.09 24.14A181.12 181.12 0 0 0 354.39 340l80.37-21.54a10 10 0 0 0-5.18-19.32L370.45 315l22.24-38.52 47-12.59a10 10 0 0 0-5.18-19.32L406.83 252l21.28-36.86a10 10 0 0 0-17.32-10L389.51 242l-7.42-27.68a10 10 0 1 0-19.32 5.18l12.59 47-13 22.54a180.61 180.61 0 0 0-116.13-170.47l-.19-.08-45.25-18.37a10 10 0 0 0-7.52 18.53l44.84 18.2.62.26a160.79 160.79 0 0 1 31.33 284.42l-16.78-29.07 36.39-135.8a10 10 0 1 0-19.32-5.18L239.13 368l-37-64.13 25.24-94.21a10 10 0 1 0-19.37-5.21l-20 74.89-29.19-50.55L174 172.05a10 10 0 1 0-19.32-5.18l-10 37.42L117 156.4a10 10 0 0 0-17.32 10l27.65 47.89-37.41-10a10 10 0 0 0-5.18 19.32l56.73 15.2 29.19 50.55-74.91-20.08a10 10 0 0 0-5.18 19.32l94.21 25.24 37 64.13-116.45-31.2a10 10 0 0 0-5.18 19.32l135.79 36.39 16.78 29.07c-75.56 37.65-168.57 10.53-211.23-63.36a160.74 160.74 0 0 1-19.23-107.05 9.71 9.71 0 0 0 .14-1.48L51 60.91l66.2 26.89a10 10 0 0 0 7.52-18.53l-78.09-31.7A10 10 0 0 0 33 45.41L2.41 258.09a9.9 9.9 0 0 0-.09 1 180.79 180.79 0 0 0 21.85 119.1c33.41 57.88 94.29 90.25 156.88 90.24a180.36 180.36 0 0 0 81.69-19.56L275 470.16a10 10 0 1 0 17.32-10l-4.56-7.89a152.88 152.88 0 0 0 70.59 17.34 154.65 154.65 0 0 0 39.84-5.25A153.13 153.13 0 0 0 510.05 292z" transform="translate(0 -36.83)"/><path class="cls-1" d="M165.26 86.56a10 10 0 1 0 2.93 7.07 10.07 10.07 0 0 0-2.93-7.07zm278.62 87.81l-.06-.08A10 10 0 0 0 427.64 186l.06.08a10 10 0 1 0 16.18-11.75z" transform="translate(0 -36.83)"/></svg>