<svg id="Capa_1" data-name="Capa 1" xmlns="http://www.w3.org/2000/svg" viewBox="0 0 512 463.86"><defs><style>.cls-1{fill:#5c4f1f}</style></defs><title>lemon</title><path class="cls-1" d="M331 87.9a10 10 0 1 0 10 10 10 10 0 0 0-10-10zm-40-20.01a10 10 0 1 0 10 10 10 10 0 0 0-10-10zm0 40.01a10 10 0 1 0 10 10 10 10 0 0 0-10-10zm-40-40.01a10 10 0 1 0 10 10 10 10 0 0 0-10-10zM110.39 147.9a10 10 0 1 0 10 10 10 10 0 0 0-10-10z" transform="translate(0 -24.07)"/><path class="cls-1" d="M502 287.91h-80.26c28.11-62.17 30.73-126.8 6.93-177A50 50 0 0 0 358 40.22c-37.11-17.55-83-20.94-130.14-9.46-50.3 12.24-100.05 41-140.09 81.08s-68.85 89.7-81.08 139.8c-11.52 47.19-8.06 93.11 9.65 130.25a50 50 0 0 0 71.06 70.28c42 19.92 90.71 20.06 135.63 8A189.35 189.35 0 0 0 322 487.93c104.78 0 190-85.24 190-190a10 10 0 0 0-10-10.02zm-50.38 19.9a129.09 129.09 0 0 1-30.94 74.65l-74.55-74.65zm-45.08 88.79A128.81 128.81 0 0 1 332 427.55V322.06zM89.82 431A10 10 0 0 0 77 433.84a30 30 0 1 1-45.25-39.16c1.2-1.21 2.27-2.52 2.69-2.83a10 10 0 0 0 2.85-12.78C-.95 308.1 26.21 201.67 101.91 126S284.39 23 355.56 61.4a10 10 0 0 0 12.76-2.82 30.6 30.6 0 0 1 2.88-3.33 30 30 0 0 1 42.43 42.43 30.72 30.72 0 0 1-3.33 2.88 10 10 0 0 0-2.82 12.76c25.75 47.73 22.74 112.61-7.85 174.59H142a10 10 0 0 0-10 10 189.23 189.23 0 0 0 69.28 146.73c-41.28 7.87-80.2 3.21-111.46-13.64zM312 322.06v105.48a128.8 128.8 0 0 1-74.55-30.94zm-88.69 60.4a128.82 128.82 0 0 1-30.94-74.55h105.47zM322 467.93a169.38 169.38 0 0 1-92-27 169.43 169.43 0 0 1-77.75-133h20a150.18 150.18 0 0 0 149.75 140c80.36 0 144.61-63 149.68-140.11h20c-5.17 89.1-79.31 160.11-169.68 160.11z" transform="translate(0 -24.07)"/><path class="cls-1" d="M93.07 182.39a10 10 0 0 0-13.85 2.87c-33.89 51.6-46.8 108.1-35.43 155a10 10 0 1 0 19.44-4.71c-9.92-40.94 2.31-93 32.71-139.33a10 10 0 0 0-2.87-13.83z" transform="translate(0 -24.07)"/></svg>