<svg id="Capa_1" data-name="Capa 1" xmlns="http://www.w3.org/2000/svg" viewBox="0 0 498.91 512"><defs><style>.cls-1{fill:#1e90ff}</style></defs><title>map-location</title><path class="cls-1" d="M483.45 327.19l21.41-168.81-153.58-58.28-48.63 23.22a110.55 110.55 0 0 1-6.75 21.61l36.82-17.58L317.51 291l.85 8.77-112.18 16.87L197 334.8l123-18.54 14.18 145.11 16.51-1.63-14.3-145.95 1.44-.23 128.6 16.29.31-2.51 19.43 163.2-133.92-30.9L178 492.84l-1.45-.28 15.63-148.86-.1-.91-.64-5.58L170 294.83l3 26.82-3.83.58L44.93 303l.74-6.12-19-150.08 86.92 36.7-7.26-14.3a113.59 113.59 0 0 1-6.49-9.48L6.55 120.31 29 296.92l-.42 3.51h-.31l-2.55 16.38.92.12-19.2 160.79L178 509.7l173.95-33.13L505.45 512zm-145.8-30.36l-2.86.42-.63-6.23 16-172 1.89-.9 134.73 51.12-18.3 144.14zM160.17 489.5L25.74 464.29 43 319.46 169.14 339l5.73-.86.64 5.63zm33.44-148l-2.15-4.24-.17-1.56 5.71-.86zM119.2 155l73.25 144.56 72.46-143A94.87 94.87 0 1 0 119.48 155zm73.68-118.42a58.34 58.34 0 1 1-58.33 58.33 58.41 58.41 0 0 1 58.33-58.33z" transform="translate(-6.55)"/></svg>