<svg id="Capa_1" data-name="Capa 1" xmlns="http://www.w3.org/2000/svg" viewBox="0 0 512 450.53"><defs><style>.cls-1{fill:#5c4f1f}</style></defs><title>mountain</title><path class="cls-1" d="M135.64 111.07l-19.57-14.83a7.5 7.5 0 0 0-9.83.68l-9.52 9.52-9.52-9.52a7.5 7.5 0 0 0-9.83-.68L57.8 111.07a7.51 7.51 0 0 0 4.53 13.48c3.25 0 3.34-.62 18.88-12.4l10.2 10.2a7.5 7.5 0 0 0 10.61 0l10.2-10.2c15.55 11.78 15.63 12.4 18.88 12.4a7.51 7.51 0 0 0 4.54-13.48zm106.18-63.99l-19.57-14.83a7.5 7.5 0 0 0-9.83.67l-9.52 9.52-9.52-9.52a7.5 7.5 0 0 0-9.83-.67L164 47.08A7.5 7.5 0 1 0 173 59l14.36-10.88 10.2 10.2a7.5 7.5 0 0 0 10.61 0l10.2-10.2C234 59.94 234 60.56 237.28 60.56a7.51 7.51 0 0 0 4.54-13.48zM507.9 459.14l-69.64-133.78a7.5 7.5 0 1 0-13.3 6.93l59.3 113.91a449.59 449.59 0 0 0-55-22.38l-70.44-135.39a7.5 7.5 0 1 0-13.3 6.93l63.62 122.21c-82.89-23.78-173.93-26.79-255.55-11.88l3.86-7.42c1.76 0 6 .49 9-3.47 3.27-4.24 1.41-8.48-.13-13.62l82.76-159h33.38a42.58 42.58 0 0 0 42 35.86h61.84l22.48 43.19a7.5 7.5 0 1 0 13.3-6.93L403.21 258h65.85a42.92 42.92 0 0 0 20.64-80.55 45.87 45.87 0 0 0 2.84-15.83c0-43.85-55.89-62.4-82.23-27.94a54.74 54.74 0 0 0-67.31 8.7l-17.64-33.88q-.31-.6-.66-1.16a19.16 19.16 0 0 0-32.67 0q-.35.57-.66 1.16L159.45 361.92a184.11 184.11 0 0 0-8.45-17.79c7.66 0 12.36.92 15.58-4.09a8.86 8.86 0 0 0 .6-8.51A457.46 457.46 0 0 0 144 287.36c6 0 11 .85 14.09-4.32a8.82 8.82 0 0 0 .23-8.75c-5.31-10-24.94-45-54.5-75.71a8.92 8.92 0 0 0-12.83 0c-29.56 30.69-49.19 65.71-54.5 75.71a8.9 8.9 0 0 0 7.86 13.07h6.46a457.6 457.6 0 0 0-23.19 44.16 8.9 8.9 0 0 0 8.09 12.61h8.08a195.77 195.77 0 0 0-17.05 43 8.89 8.89 0 0 0 8.6 11.17H75v28.23a429.48 429.48 0 0 0-68.53 31c-11.35 6.44-6.75 23.79 6.29 23.79H238.5a7.5 7.5 0 1 0 0-15H119.75v-37.85c120.9-31.3 264.31-19.33 370.76 37.79h-217a7.5 7.5 0 0 0 0 15h225.71c11.78.01 17.05-14.48 8.68-22.12zm-30.35-297.48a30.86 30.86 0 0 1-2 11 43.38 43.38 0 0 0-12.37-.08 35.82 35.82 0 0 0-30-11.27A54.32 54.32 0 0 0 422 143.17c17.51-23.54 55.55-11.25 55.55 18.49zm-138.79 26.92c6.93-4.06.54-9.93 7.29-24.59a39.56 39.56 0 0 1 70.32-3.14c5.62 9.72 2.87 12.93 7.9 15.77s6.78-1.37 15.16-.33a20.81 20.81 0 0 1 14.55 8.8 7.48 7.48 0 0 0 6.08 3.21c2.3 0 4.23-1.26 9.8-1.09a27.92 27.92 0 0 1-.81 55.84H324.48a27.52 27.52 0 0 1 0-55 31.21 31.21 0 0 1 9 1.45 7.55 7.55 0 0 0 5.28-.92zm-34.08-73.15a4.56 4.56 0 0 1 .43-.68 4.18 4.18 0 0 1 6.51 0 4.5 4.5 0 0 1 .43.68l21.15 40.62a55.44 55.44 0 0 0-5.28 17.1 42.41 42.41 0 0 0-33.16 12c-6.92 6.77-9.84 13.55-12 22.06h-25.84zM75 466.27H21.56A417.22 417.22 0 0 1 75 442.41zm15 0v-68h14.77v68zm44.71-56.78q-7.51 1.65-14.94 3.51v-14.74h20.78zm-91.29-26.23C48 368.51 54.63 354.12 62 342.88a8.9 8.9 0 0 0-7.46-13.75h-9.25c5.45-11.27 14.64-29.2 24-42.83a8.87 8.87 0 0 0 .54-9.18c-3-5.72-8.53-4.76-15.17-4.76 7.85-13.55 22.64-36.86 42.67-58.71 20 21.84 34.82 45.15 42.68 58.71-6.6 0-12.15-1-15.17 4.76a8.86 8.86 0 0 0 .55 9.18c9.38 13.63 18.56 31.56 24 42.83h-9.21a8.9 8.9 0 0 0-7.46 13.75c7.81 12 14.12 26.42 18.53 40.38z" transform="translate(0 -30.73)"/></svg>