<svg id="Capa_1" data-name="Capa 1" xmlns="http://www.w3.org/2000/svg" viewBox="0 0 497.73 512"><defs><style>.cls-1{fill:#d6d7de}</style></defs><title>phone-call</title><path class="cls-1" d="M437.79 67.07A227.5 227.5 0 0 0 275.85 0a18.15 18.15 0 1 0 0 36.29A192.71 192.71 0 0 1 468.57 229a18.15 18.15 0 0 0 36.29 0 227.5 227.5 0 0 0-67.07-161.93z" transform="translate(-7.13)"/><path class="cls-1" d="M363.15 229a18.15 18.15 0 0 0 36.29 0 123.74 123.74 0 0 0-123.58-123.57 18.15 18.15 0 0 0 0 36.29A87.4 87.4 0 0 1 363.15 229zM323 321.53c-27.66-1.43-41.75 19.14-48.51 29a18.15 18.15 0 0 0 30 20.49c8-11.67 11.6-13.51 16.51-13.28 15.7 1.85 77.56 47.17 83.75 61.34 1.55 4.17 1.5 8.26-.17 13.24-6.49 19.27-17.24 32.82-31.09 39.17-13.16 6-29.29 5.48-46.64-1.58-64.85-26.38-121.44-63.23-168.28-109.5l-.06-.06c-46.18-46.79-83-103.32-109.32-168-7.06-17.36-7.61-33.5-1.58-46.65 6.35-13.85 19.89-24.6 39.15-31.08 5-1.67 9.08-1.73 13.21-.19 14.22 6.22 59.55 68.07 61.38 83.59.26 5.09-1.59 8.71-13.25 16.67a18.14 18.14 0 1 0 20.47 30c9.89-6.75 30.45-20.8 29-48.56-1.57-29-58-105.76-84.91-115.67-12-4.47-24.59-4.54-37.48-.22-29 9.77-50 27.18-60.58 50.36-10.31 22.49-10 48.57 1 75.46 28.21 69.22 67.69 129.79 117.32 180l.37.36C183.48 436 244 475.37 313.11 503.55c13.89 5.63 27.48 8.45 40.52 8.45a83.17 83.17 0 0 0 34.93-7.5c23.18-10.62 40.59-31.57 50.37-60.59 4.32-12.87 4.25-25.47-.19-37.39C428.8 379.5 352 323.11 323 321.53z" transform="translate(-7.13)"/></svg>