<svg id="Capa_1" data-name="Capa 1" xmlns="http://www.w3.org/2000/svg" viewBox="0 0 458.32 512"><defs><style>.cls-1{fill:#1e90ff}</style></defs><title>pizza-with-separate-slice</title><path class="cls-1" d="M98.14 100.79l131.65 130.66a6.65 6.65 0 0 0 11.34-4.72V6.65A6.65 6.65 0 0 0 234.47 0a225.34 225.34 0 0 0-161 66.76 6.65 6.65 0 0 0 0 9.39zM111 94.84c33.15-30.2 73.3-46.67 116.82-47.84v49.61a41.72 41.72 0 0 0 0 83v31.15zm116.79 71.31a28.37 28.37 0 0 1 0-56.09zm0-152.74v20.25c-46.51 1.26-90.91 19.49-126.22 51.78L87.68 71.51a211.91 211.91 0 0 1 140.14-58.1z" transform="translate(-26.84)"/><path class="cls-1" d="M418.09 120.85v-.05h-.05A227.66 227.66 0 0 0 256 53.68a6.65 6.65 0 0 0-6.65 6.65v206.45l-146-146a6.75 6.75 0 0 0-4.74-1.95 6.65 6.65 0 0 0-4.72 2l-.49.5a229.14 229.14 0 0 0 .51 323.49 229.14 229.14 0 0 0 323.83.17l.21-.2.2-.21a229.13 229.13 0 0 0-.16-323.82zm34.69 155.33a195.42 195.42 0 0 0-52.93-127.78l13.4-13.4a214.15 214.15 0 0 1 58.49 141.19h-19zm-354 154.5a214.15 214.15 0 0 1-58.52-141.19h19a195.4 195.4 0 0 0 52.93 127.79zm141.19-154.5H72.53a182.16 182.16 0 0 1 49-118.38zm22.72-96.57a28.34 28.34 0 0 1 0 54.69zm0 68.36a41.69 41.69 0 0 0 0-82v-66.6A182.16 182.16 0 0 1 381 148.4L262.65 266.78V248zM72.53 289.49h167.41l-35.34 35.34a48.06 48.06 0 0 0-67.51 67.51l-15.53 15.53a182.16 182.16 0 0 1-49.03-118.38zm137.06 73A34.76 34.76 0 0 1 156.28 392l47.95-48a34.57 34.57 0 0 1 5.36 18.54zm-69.58 0a34.76 34.76 0 0 1 55.1-28.22l-48.53 48.53a34.58 34.58 0 0 1-6.58-20.26zm6.7 39a48.06 48.06 0 0 0 67.1-67.1l35.55-35.55V466.3a182.2 182.2 0 0 1-118.38-49zM262.65 298.9L381 417.28a182.19 182.19 0 0 1-118.38 49V298.9zm9.41-9.41H330a48.1 48.1 0 0 0 95.09 0h14.36a182.2 182.2 0 0 1-49 118.37zm139.5 0a34.79 34.79 0 0 1-68 0zm-68.27-13.31a34.78 34.78 0 0 1 68.52 0zm82 0a48.08 48.08 0 0 0-95.42 0h-57.81l118.38-118.37a182.21 182.21 0 0 1 49 118.38zm-21.42-150.6L390.45 139a195.38 195.38 0 0 0-127.8-52.95v-19a214.2 214.2 0 0 1 141.19 58.54zM98.74 135l13.41 13.41a195.38 195.38 0 0 0-52.94 127.77h-19A214.25 214.25 0 0 1 98.74 135zm9.42 305.11l13.4-13.4a195.42 195.42 0 0 0 127.79 52.92v19a214.17 214.17 0 0 1-141.19-58.54zm154.5 58.5v-19a195.42 195.42 0 0 0 127.79-52.92l13.41 13.41a214.22 214.22 0 0 1-141.21 58.49zm150.61-67.9l-13.41-13.41a195.42 195.42 0 0 0 52.92-127.79h19a214.16 214.16 0 0 1-58.52 141.18z" transform="translate(-26.84)"/><path class="cls-1" d="M134.63 265.26a29 29 0 1 0-29-29 29 29 0 0 0 29 29zm0-44.63A15.66 15.66 0 1 1 119 236.29a15.68 15.68 0 0 1 15.63-15.66zM305.5 365.45a29 29 0 1 0 29 29 29 29 0 0 0-29-29zm0 44.63a15.66 15.66 0 1 1 15.66-15.66 15.68 15.68 0 0 1-15.66 15.66zm24.23-286.92a29 29 0 1 0 29 29 29 29 0 0 0-29-29zm0 44.63a15.66 15.66 0 1 1 15.66-15.66 15.68 15.68 0 0 1-15.66 15.66z" transform="translate(-26.84)"/></svg>