<svg id="Capa_1" data-name="Capa 1" xmlns="http://www.w3.org/2000/svg" viewBox="0 0 512 392.75"><defs><style>.cls-1{fill:#4d431a}</style></defs><title>potato</title><path class="cls-1" d="M510 184.63A143.84 143.84 0 0 0 348.59 60.89l-3.82.5c-61 8-186.61 24.56-200.56 98.64a143.86 143.86 0 0 0-120 72.21C-12.28 296-.84 342.26 15.19 369.8c15 25.8 40.86 47.2 74.74 61.9 31.18 13.53 67.1 20.67 103.95 20.67h1.06c76.43-.28 139.42-30.79 168.49-81.61a75.68 75.68 0 0 0 9.44-26.45c46.25-.79 84.85-16.15 109.14-43.59 25.04-28.27 34.47-67.33 27.99-116.09zm-43 102.85c-20.46 23.1-53.74 36-94.11 36.83.12-12-2.59-23-18.32-42.68-16-19.94-37.59-41.6-69.8-63.43a10 10 0 1 0-11.22 16.55c69.15 46.88 93.54 89.3 72.49 126.08-25.49 44.54-82 71.29-151.21 71.54h-1c-71.29 0-136.09-29.13-161.42-72.64-19.19-33-16-73.61 9.14-117.55a124 124 0 0 1 169-45.91 10 10 0 0 0 9.94-17.35 143 143 0 0 0-56-18.17c6-23.27 29.46-42.18 69.82-56.25 38.78-13.52 83.46-19.4 113-23.29l3.83-.5a123.85 123.85 0 0 1 139 106.54c5.73 42.75-2.07 76.48-23.14 100.23z" transform="translate(0 -59.62)"/><path class="cls-1" d="M247.11 194.31l-5.2 8.54 5.2-8.54a10 10 0 0 0-10.36 17.1l.41.24a10 10 0 0 0 10-17.32z" transform="translate(0 -59.62)"/><rect class="cls-1" x="247.11" y="134.68"/><path class="cls-1" d="M470.39 189.87a102.91 102.91 0 0 0-16.06-43.29 103.85 103.85 0 0 0-100.5-46 10 10 0 0 0 2.62 19.82 84.37 84.37 0 0 1 81.16 37.18 83.09 83.09 0 0 1 13 35 10 10 0 0 0 19.82-2.62zm-54.54 34.93a10 10 0 0 0-11.23-8.59l-.47.06a10 10 0 1 0 2.63 19.82l.47-.06a10 10 0 0 0 8.6-11.23zm-93.91-50.62a10 10 0 0 0-11.23-8.59l-.47.06a10 10 0 1 0 2.63 19.82l.47-.06a10 10 0 0 0 8.6-11.23zm-121.26 39.44A103.78 103.78 0 0 0 59 252.12a10 10 0 1 0 17.35 9.94 83.05 83.05 0 0 1 25.24-27.43 84.37 84.37 0 0 1 89.2-3.65 10 10 0 0 0 9.94-17.35zm-90.43 88.04l-.41-.24a10 10 0 0 0-9.95 17.34l.41.24a10 10 0 0 0 9.95-17.34zm59.95 67.83l-.41-.24a10 10 0 1 0-9.95 17.34l.41.24a10 10 0 0 0 9.95-17.34zm46.13-79.08l-.41-.24a10 10 0 1 0-9.92 17.35l.41.24a10 10 0 0 0 9.95-17.34zm63.11 63.78L279 354a10 10 0 0 0-9.95 17.34l.41.24a10 10 0 0 0 9.95-17.34z" transform="translate(0 -59.62)"/></svg>