<svg id="Layer_1" data-name="Layer 1" xmlns="http://www.w3.org/2000/svg" viewBox="0 0 512 494.65"><defs><style>.cls-1{fill:#4d431a}</style></defs><title>rooster</title><path class="cls-1" d="M508.69 225.27a171.35 171.35 0 0 0-25.61-61.72 30.42 30.42 0 0 0 9.15-4 24.56 24.56 0 0 0-.9-41.54l-21.22-12.75 24.26-12a8.84 8.84 0 0 0 .77-15.43C470.82 62.61 444 62.86 433 63.76c-.7-.73-1.42-1.45-2.16-2.14a35.68 35.68 0 0 0-61.73-35.77 35.64 35.64 0 0 0-47.78 33.53 36.38 36.38 0 0 0 .34 5 35.68 35.68 0 0 0 16.65 67.23c1 0 2-.05 3-.14 5.62 17.6 12.56 48.81 1.18 72.37-6.33 13.16-17.41 22.16-33.84 27.54a8.84 8.84 0 1 0 5.52 16.8c20.94-6.88 35.82-19.18 44.26-36.66 6.67-13.79 15.14-44.26-3-93.32l-.42-1.12c-6-15.93-1.59-33.69 11-44.19a39.9 39.9 0 0 1 56.53 5.72 38.9 38.9 0 0 1 7.3 14.27 39.67 39.67 0 0 1 1 16.24 39.15 39.15 0 0 1-4.19 12.88 8.84 8.84 0 0 0 2.7 11.39 153.91 153.91 0 0 1 19.88 16.73c2.21 2.18 4.44 4.54 6.62 7a153.27 153.27 0 0 1 35.48 71.58 155.1 155.1 0 0 1 3 27.2 8.84 8.84 0 0 0 8.84 8.67h.18a8.84 8.84 0 0 0 8.67-9 172.14 172.14 0 0 0-3.34-30.3zM416.11 51.56a57.3 57.3 0 0 0-61.42 7.76c-15.8 13.21-22.8 34.15-18.88 54.39a18 18 0 0 1-1.53-35.29 8.84 8.84 0 0 0 6.16-12.06 18 18 0 0 1 27.64-21.13 8.84 8.84 0 0 0 14.08-5 18 18 0 1 1 34 11.3zm54 33.94l-21.6 10.64a58.8 58.8 0 0 0-1.57-7.91 57 57 0 0 0-2.46-7.09 90.45 90.45 0 0 1 25.6 4.36zm5.43 61.34a12.67 12.67 0 0 1-7.12-2.2 150.91 150.91 0 0 0-6.68-7 171.09 171.09 0 0 0-16.28-14.29 56.63 56.63 0 0 0 2.06-7l3.76-1.85 31 18.61a6.87 6.87 0 0 1 .26 11.61 12.67 12.67 0 0 1-7.03 2.12z" transform="translate(0 -8.67)"/><path class="cls-1" d="M502.93 271.59a8.84 8.84 0 0 0-9.94 7.59A153.44 153.44 0 0 1 370.2 409.43a151.07 151.07 0 0 1-63.9-1.18C248.46 394.72 203.1 348.69 190.73 291a154.33 154.33 0 0 1-3.39-35.58 191.92 191.92 0 0 0 48.41 5.83 241.58 241.58 0 0 0 50.87-5.56 8.84 8.84 0 1 0-3.72-17.29c-31.48 6.78-57.07 5.6-73 3.42a152 152 0 0 1-19.11-3.82A97.88 97.88 0 0 0 30.52 136.17a97.92 97.92 0 0 0-24 106.2 8.84 8.84 0 0 0 16.32.43 80.31 80.31 0 0 1 40.35-40.44 8.84 8.84 0 1 0-7.27-16.12 98 98 0 0 0-37.75 30 80.68 80.68 0 0 1-.48-11.18A80.19 80.19 0 0 1 178 209.3a80.87 80.87 0 0 1-1.06 11.1 97.6 97.6 0 0 0-78.32-42.71 99 99 0 0 0-15.12.76A8.84 8.84 0 0 0 85.79 196a81 81 0 0 1 12.4-.62 80 80 0 0 1 50.66 19.74 97.87 97.87 0 1 0-31.28 190.63h2.45a8.84 8.84 0 0 0 5.9-15.23 80 80 0 0 1-19.33-86.89 79.93 79.93 0 0 1 63.14-50.39 172 172 0 0 0 3.71 41.49c13.08 61 59.22 110.32 118.9 128.12-2.1 8.91-1 20.46 8.33 34.23a84.32 84.32 0 0 0 8.51 10.49c-.64.54-1.3 1.1-1.95 1.7-8.45 7.7-12.91 16.43-12.91 25.26a8.84 8.84 0 1 0 17.69 0c0-3.77 2.49-7.49 5.53-10.62 6.51 14 21.71 19.47 32.79 19.47a8.84 8.84 0 0 0 0-17.69c-1.87 0-18.28-.48-18.28-17.1 0-7.61 7.35-17.47 20.69-27.78a165 165 0 0 1 22.19-14.26 171.1 171.1 0 0 0 135.59-145 8.85 8.85 0 0 0-7.59-9.96zM90.09 297.21a97.58 97.58 0 0 0 9.21 88.73 80.73 80.73 0 0 1-10.65-3.3 80.19 80.19 0 1 1 57.89-149.56 81 81 0 0 1 10.1 4.73 97.58 97.58 0 0 0-66.55 59.4zm228.84 154.64c-5.58-6.7-11.14-16-9.3-24.84a168.57 168.57 0 0 0 28.37 2.92q-13.23 11.07-19.07 21.92z" transform="translate(0 -8.67)"/><path class="cls-1" d="M462.28 285.74c-4.63-24.73-22.69-46.8-47.15-57.59a8.84 8.84 0 1 0-7.13 16.18c19.19 8.47 33.33 25.58 36.9 44.66 2.24 12 1.28 29.84-16 47.13-15.45 15.45-49.65 22.6-76.7 22.83-33.36.28-65.36-8.42-92-24.78 25.6-5.65 68.16-17.55 88-37.43a8.84 8.84 0 1 0-12.51-12.51c-10 10-30.05 19.44-58 27.32a389.36 389.36 0 0 1-40.85 9.11 8.84 8.84 0 0 0-4.23 15.6c32.08 26.07 73.9 40.38 118 40.38h1.75c37.41-.32 72.36-11.32 89.06-28 17.71-17.75 25.13-40.08 20.86-62.9z" transform="translate(0 -8.67)"/><circle class="cls-1" cx="408.12" cy="87.83" r="8.84"/></svg>