<svg id="Capa_1" data-name="Capa 1" xmlns="http://www.w3.org/2000/svg" viewBox="0 0 443.73 512"><defs><style>.cls-1{fill:#919191}</style></defs><title>scale</title><path class="cls-1" d="M469.31 502.72l-19.37-222.55C441.11 178.82 357.74 102.39 256 102.4c-101.73 0-185.1 76.42-193.91 177.77L42.7 502.72a8.53 8.53 0 0 0 8.5 9.28h409.6a8.53 8.53 0 0 0 8.51-9.28zm-408.8-7.79l18.56-213.27c8-92.48 84.11-162.2 176.93-162.19 92.82 0 168.88 69.73 176.91 162.19l18.56 213.27h-391zM469.33 0H42.67a8.54 8.54 0 0 0-8.53 8.53 59.8 59.8 0 0 0 59.73 59.74h324.26a59.8 59.8 0 0 0 59.74-59.74A8.53 8.53 0 0 0 469.33 0zm-51.2 51.2H93.87a42.73 42.73 0 0 1-41.81-34.13h407.88a42.73 42.73 0 0 1-41.81 34.13z" transform="translate(-34.13)"/><path class="cls-1" d="M196.27 59.73h17.07v51.2h-17.07zm34.13 0h17.07v51.2H230.4z"/><path class="cls-1" d="M256 153.6c-84.69 0-153.6 68.91-153.6 153.6S171.31 460.8 256 460.8s153.6-68.91 153.6-153.6S340.69 153.6 256 153.6zm0 290.13c-75.28 0-136.53-61.25-136.53-136.53S180.72 170.67 256 170.67s136.53 61.25 136.53 136.53S331.28 443.73 256 443.73z" transform="translate(-34.13)"/><path class="cls-1" d="M213.33 162.13h17.07v34.13h-17.07zm0 256h17.07v34.13h-17.07zM76.8 298.67h34.13v17.07H76.8zm256 0h34.13v17.07H332.8z"/><path class="cls-1" transform="rotate(-45 148.43 257.888)" d="M156.96 199.61h17.07v34.13h-17.07z"/><path class="cls-1" transform="rotate(-45 329.432 438.885)" d="M337.97 380.61h17.07v34.13h-17.07z"/><path class="cls-1" transform="rotate(-45 148.46 438.906)" d="M148.46 389.17h34.13v17.07h-34.13z"/><path class="cls-1" transform="rotate(-45 329.452 257.916)" d="M329.45 208.18h34.13v17.07h-34.13z"/><circle class="cls-1" cx="221.87" cy="307.2" r="17.07"/><path class="cls-1" d="M213.33 213.33h17.07v85.33h-17.07z"/></svg>