<svg id="Capa_1" data-name="Capa 1" xmlns="http://www.w3.org/2000/svg" viewBox="0 0 511.99 512"><defs><style>.cls-1{fill:gray}</style></defs><title>search</title><path class="cls-1" d="M507.15 484.14L375 354.07c34.62-37.61 55.89-87.35 55.89-142.08C430.83 94.9 334.39 0 215.42 0S0 94.9 0 212s96.44 212 215.42 212A216.64 216.64 0 0 0 351 376.63l132.7 130.59a16.75 16.75 0 0 0 23.43 0 16.14 16.14 0 0 0 .02-23.08zm-291.73-92.78C114.75 391.36 33.15 311 33.15 212s81.6-179.38 182.27-179.38S397.68 112.92 397.68 212s-81.6 179.36-182.26 179.36z" transform="translate(-.01)" id="_4" data-name="4"/></svg>