<svg data-name="Layer 1" xmlns="http://www.w3.org/2000/svg" viewBox="0 0 512 323.87"><title>shipped</title><path d="M476.16 137.3l-13.26-53a8 8 0 0 0 6.35-7.84v-8.55a33.71 33.71 0 0 0-33.67-33.67h-60.4V16.57A16.59 16.59 0 0 0 358.61 0H50.77A16.59 16.59 0 0 0 34.2 16.57v145.37a8 8 0 0 0 16 0V16.57a.53.53 0 0 1 .53-.53h307.88a.53.53 0 0 1 .53.53v145.37a8 8 0 1 0 16 0v-9.09h94.61a26.23 26.23 0 0 1 24.91 18.17h-24.88a8 8 0 0 0-8 8v17.1a25.15 25.15 0 0 0 25.12 25.12h9.1v35.3h-21a50.76 50.76 0 0 0-96 0h-3.86v-60.4a8 8 0 1 0-16 0v60.39H192.82a50.76 50.76 0 0 0-96 0H50.77a.53.53 0 0 1-.53-.53v-17.64H85a8 8 0 0 0 0-16H8a8 8 0 1 0 0 16h26.21V256a16.59 16.59 0 0 0 16.57 16.57h43.3v.53a50.77 50.77 0 0 0 101.54 0v-.53h180.64v.53a50.77 50.77 0 0 0 101.54 0v-.53H504a8 8 0 0 0 8-8v-85.53a42.29 42.29 0 0 0-35.84-41.74zm-101-87.06h60.39a17.66 17.66 0 0 1 17.64 17.64v.53h-78zm0 86.58V84.45h71.23l13.09 52.38h-84.3zm-230.35 171a34.74 34.74 0 1 1 34.74-34.74 34.78 34.78 0 0 1-34.71 34.76zm282.19 0a34.74 34.74 0 1 1 34.74-34.74A34.78 34.78 0 0 1 427 307.84zm69-102.59h-9.09a9.1 9.1 0 0 1-9.09-9.09v-9.09H496v18.17z"/><path d="M144.84 256.54a16.57 16.57 0 1 0 16.57 16.57 16.59 16.59 0 0 0-16.57-16.57zm282.16 0a16.57 16.57 0 1 0 16.57 16.57A16.59 16.59 0 0 0 427 256.54zm-94-34.21H213.24a8 8 0 1 0 0 16H333a8 8 0 0 0 0-16zm-205.27-34.2H25.12a8 8 0 1 0 0 16h102.61a8 8 0 0 0 0-16zM278.77 79.31a8 8 0 0 0-11.34 0l-71.29 71.29-37.09-37.09a8.019 8.019 0 0 0-11.34 11.34l42.76 42.76a8 8 0 0 0 11.34 0l77-77a8 8 0 0 0-.04-11.3z"/></svg>