<svg id="Capa_1" data-name="Capa 1" xmlns="http://www.w3.org/2000/svg" viewBox="0 0 512 503.62"><defs><style>.cls-1{fill:#fff}</style></defs><title>shopping-basket</title><path class="cls-1" d="M512 212.22a46 46 0 0 0-45.94-45.94h-72.92l-75.91-144c-8.33-15.8-26.63-22.54-40.86-15s-19 26.41-10.67 42.21l61.58 116.81H184.71l61.58-116.83c8.34-15.8 3.55-34.71-10.67-42.21s-32.53-.77-40.86 15l-75.9 144H46a45.84 45.84 0 0 0-19.52 87.36L55 478.95a29.58 29.58 0 0 0 29.53 28.86h343A29.59 29.59 0 0 0 457 478.95l28.55-225.3A45.9 45.9 0 0 0 512 212.22zM437.41 477l-.08 1.24a9.84 9.84 0 0 1-9.85 9.85h-343a9.85 9.85 0 0 1-9.85-9.85L46.85 258.16h418.3zm39-240.67l-2.69.82a34.68 34.68 0 0 1-3.73.91 25.18 25.18 0 0 1-3.89.39H46a26.7 26.7 0 0 1-3.9-.39 32.88 32.88 0 0 1-3.72-.91l-2.69-.82A26.24 26.24 0 0 1 46 186h63.13c-4.72 14.42.45 30 13 36.58 14.23 7.5 32.53.77 40.86-15L174.31 186h163.33L349 207.52c8.33 15.8 26.63 22.54 40.86 15 12.55-6.63 17.73-22.15 13-36.58H466a26.25 26.25 0 0 1 10.34 50.38zM113.85 447.71V295.1a9.85 9.85 0 1 1 19.69 0v152.61a9.85 9.85 0 1 1-19.69 0zm264.61 0V295.1a9.85 9.85 0 0 1 19.69 0v152.61a9.85 9.85 0 0 1-19.69 0zm-88.21 0V295.1a9.85 9.85 0 1 1 19.69 0v152.61a9.85 9.85 0 1 1-19.69 0zm-88.19 0V295.1a9.85 9.85 0 1 1 19.69 0v152.61a9.85 9.85 0 1 1-19.69 0z" transform="translate(0 -4.19)"/></svg>