<svg id="Слой_4" data-name="Слой 4" xmlns="http://www.w3.org/2000/svg" viewBox="0 0 310.45 449.75"><defs><style>.cls-1{fill:#8a68eb}.cls-2{fill:none;stroke:#3f3f3f;stroke-linecap:round;stroke-miterlimit:10;stroke-width:8px}</style></defs><title>from-freelance</title><path class="cls-1" d="M1432.74 419.67c-14.18 5.09-21.84 5.33-21.84 5.33s-7.06-.24-21.23-5.33c-26-9.34-70.34-8-100-.67 0 15 1 14 1 14s5.59-.67 7.66 7.33 7.42 24 9.34 27.67 10 18 26.66 19.67 23.67.66 32.67-1 18.33-5.6 25.67-20.67c8-17.83 8.73-29.67 19.23-29.5 10.5-.17 9.84 11.67 17.84 29.5 7.33 15.07 16.66 19 25.66 20.67s16 2.66 32.67 1 24.75-16 26.67-19.67 7.26-19.66 9.33-27.67 7.67-7.33 7.67-7.33 1 1 1-14c-29.67-7.33-74-8.67-100 .67zm-85.91 60.66c-40-.91-37.11-37-36.41-45.31s5-14.91 40.11-13.36 39.09 5.41 41.09 11.54c1.88 5.8-1.12 48.13-44.79 47.13zm128.74 0c-43.67 1-46.67-41.33-44.78-47.13 2-6.13 5.93-10 41.09-11.54s39.39 5 40.1 13.36 3.56 44.4-36.41 45.31z" transform="translate(-1246.33 -211.25)"/><path class="cls-2" d="M1411.67 524l-19.33-6s-19.69 13.85-34.27 23c-18.06 11.33-28.73 29.67-28.73 29.67l-42-77.67 5.33 81s-.81 27 24.43 41 94.57 42 94.57 42" transform="translate(-1246.33 -211.25)"/><path class="cls-2" d="M1411 535s-41-1-56.33 43.67c19.87 14.84 32.33 21.67 32.33 21.67s19 8.33 20-17.67l4 .17m1.15-58.84l19.33-6s19.69 13.85 34.27 23c18.06 11.33 28.73 29.67 28.73 29.67l42-77.67-5.33 81s.81 27-24.43 41-94.57 42-94.57 42" transform="translate(-1246.33 -211.25)"/><path class="cls-2" d="M1411.82 535s41-1 56.33 43.67c-19.87 14.84-32.33 21.67-32.33 21.67s-19 8.33-20-17.67l-4 .17M1544.23 430s-6.9-30-26.73-49.52c9.5-22.5 22.61-42-5.19-93 12.36-1.83 31.07 4.34 38.69 37 4.67 20-1.33 40.67-1.33 40.67l2.5 47.91zM1508 284.33s2.67-75.33-113.67-68.67c3.67 2.5 12.67 12.86 2.5 18.17-16-6.33-101.5-4-143.17 74.5 0 0 10.83-1.83 13.33 4.42-4.25 9-21.5 59.5-4.5 87.5 4.25-2.75 7-4.5 8-2.25s.5 15.25.5 20.25 4 19.75 4 19.75 11.25-38 23-41.25c0 0-11.25-84.25 23.75-93.5 16.75-4 23.75 1.5 23.75 1.5s51.5 26 97 9.5c21-8.25 33.5-26.5 41-35.75s24.51 5.83 24.51 5.83z" transform="translate(-1246.33 -211.25)"/></svg>