<svg id="Слой_3" data-name="Слой 3" xmlns="http://www.w3.org/2000/svg" viewBox="0 0 99.67 99.66"><defs><style>.cls-1{fill:none;stroke:#8a68eb;stroke-linecap:round;stroke-linejoin:round;stroke-width:3px}.cls-2{font-size:62.8px;fill:#8a68eb;font-family:Roboto-Regular,Roboto}</style></defs><title>percent</title><path class="cls-1" d="M85.29 23.81l.04 5.53 4.77 2.81 8.07 4.73-4.62 8.14-2.73 4.82 2.73 4.81 4.61 8.13-8.06 4.75-4.78 2.79-.03 5.54-.08 9.35-9.35.08-5.54.03-2.79 4.78-4.75 8.06-8.13-4.61-4.81-2.73-4.82 2.73-8.13 4.61-4.74-8.06-2.8-4.78-5.54-.03-9.35-.08-.08-9.35-.03-5.54-4.78-2.79-8.07-4.75 4.62-8.13 2.73-4.81-2.73-4.82-4.62-8.14 8.07-4.73 4.77-2.81.04-5.53.07-9.36 9.36-.07 5.53-.04 2.81-4.77 4.73-8.07 8.14 4.62 4.82 2.73 4.81-2.73 8.14-4.62 4.74 8.07 2.8 4.77 5.53.04 9.36.07.07 9.36z"/><text class="cls-2" transform="translate(26.87 71.09)">%</text></svg>