<svg id="Слой_3" data-name="Слой 3" xmlns="http://www.w3.org/2000/svg" viewBox="0 0 99.5 98.81"><defs><style>.cls-1{fill:none;stroke:#000;stroke-miterlimit:10;stroke-width:2px}</style></defs><title>booking-list</title><path class="cls-1" d="M83.5 13h15v84.81H1V13h15m27.79 0h29.63m-47.34 0h18.63"/><path d="M1.44 32.19h96.75v2H1.44z"/><rect class="cls-1" x="16" y="1" width="10.08" height="24" rx="3.72" ry="3.72"/><rect class="cls-1" x="73.42" y="1" width="10.08" height="24" rx="3.72" ry="3.72"/><path transform="rotate(-45 23.932 48.747)" d="M17.65 47.6h13.57v2H17.65z"/><path d="M39.2 47.22h46.55v2H39.2zm0 21h46.55v2H39.2z"/><path transform="rotate(-135 18.323 50.755)" d="M14.94 49.86h7.16v2h-7.16z"/><path class="cls-1" d="M14.13 44.06h13.25v13.25H14.13z"/><path transform="rotate(-45 23.936 67.926)" d="M17.65 66.78h13.57v2H17.65z"/><path transform="rotate(-135 18.324 69.933)" d="M14.94 69.04h7.16v2h-7.16z"/><path class="cls-1" d="M14.13 63.24h13.25v13.25H14.13z"/></svg>