<svg id="Layer_1" data-name="Layer 1" xmlns="http://www.w3.org/2000/svg" viewBox="0 0 91.56 71.72"><defs><style>.cls-1{fill:#a8adb1}</style></defs><title>event-cart-dice</title><g id="Слой_3" data-name="Слой 3"><path class="cls-1" d="M49.7 22.3l-28-5.8a1 1 0 0 1-.8-1.2 1 1 0 0 1 1.2-.8l28 5.8a1 1 0 0 1 .8 1.2 1 1 0 0 1-1.2.8zm-20.9 21l-28-5.8a1 1 0 0 1-.8-1.2 1 1 0 0 1 1.2-.8l28 5.8a1 1 0 0 1 .8 1.2 1.06 1.06 0 0 1-1.2.8z" transform="translate(.02)"/><path class="cls-1" d="M22.5 16.4L1.9 36.9a1 1 0 0 1-1.4 0 1 1 0 0 1 0-1.4L21 15a1 1 0 0 1 1.4 0 1.07 1.07 0 0 1 .1 1.4zm27.8 6.1L29.8 43a1 1 0 0 1-1.4 0 1 1 0 0 1 0-1.4L48.9 21a1 1 0 0 1 1.4 0 1.09 1.09 0 0 1 0 1.5zm10 28.4L40.1 71.1a1 1 0 0 1-1.4 0 1 1 0 0 1 0-1.4L59 49.4a1 1 0 0 1 1.4 0 1.21 1.21 0 0 1-.1 1.5z" transform="translate(.02)"/><path class="cls-1" d="M10.9 63.8l28.3 5.9a1 1 0 0 1 .8 1.2 1 1 0 0 1-1.2.8l-28.3-5.9a1 1 0 0 1-.8-1.2 1.06 1.06 0 0 1 1.2-.8z" transform="translate(.02)"/><path class="cls-1" d="M30.4 42.7l8.9 26.5a1 1 0 0 1-.6 1.3 1 1 0 0 1-1.3-.6l-8.9-26.5a1 1 0 0 1 .6-1.3 1 1 0 0 1 1.3.6zm20.7-21.6l9.5 28.3a1 1 0 0 1-.6 1.3 1 1 0 0 1-1.3-.6l-9.5-28.3a1 1 0 0 1 .6-1.3 1 1 0 0 1 1.3.6zM2 36.3l9.5 28.1a1 1 0 0 1-.6 1.3 1 1 0 0 1-1.3-.6L.1 36.9a1 1 0 0 1 .6-1.3 1.21 1.21 0 0 1 1.3.7zm45.7 9.6a4.68 4.68 0 0 1-.8 3.2c-1.4 1.6-4 1.4-4.3-2.1-.2-3.2 2.1-4.4 3.6-3.6a3.81 3.81 0 0 1 1.5 2.5zM37.6 23.1a4.18 4.18 0 0 1 3.3-.4c2 .6 2.9 3.2-.3 4.7-2.9 1.4-4.8-.3-4.7-1.9a3.51 3.51 0 0 1 1.7-2.4zm-27.1 8.2a4.18 4.18 0 0 1 3.3-.4c2 .6 2.9 3.2-.3 4.7-2.9 1.4-4.8-.3-4.7-1.9a3.33 3.33 0 0 1 1.7-2.4zM9.2 47A4.77 4.77 0 0 1 8 43.9c.2-2.1 2.4-3.5 4.7-.8 2.1 2.5.9 4.8-.8 5A3.28 3.28 0 0 1 9.2 47zm9.4 9.4a4.47 4.47 0 0 1-1.2-3.1c.2-2.1 2.4-3.5 4.7-.8 2.1 2.5.9 4.8-.8 5a3.62 3.62 0 0 1-2.7-1.1zm9.3 9.3a4.47 4.47 0 0 1-1.2-3.1c.2-2.1 2.4-3.5 4.7-.8 2.1 2.5.9 4.8-.8 5a3.48 3.48 0 0 1-2.7-1.1zm61.8-37.9L77.1 4a1 1 0 0 1 .4-1.3 1 1 0 0 1 1.3.4l12.6 23.8a1 1 0 0 1-.4 1.3.9.9 0 0 1-1.3-.4zm-27.8-2.6L49.3 1.4a1 1 0 0 1 .4-1.3 1 1 0 0 1 1.3.4l12.6 23.8a1 1 0 0 1-.4 1.3 1 1 0 0 1-1.3-.4z" transform="translate(.02)"/><path class="cls-1" d="M77.6 4.4L50.4 1.9a1 1 0 0 1-.9-1 1 1 0 0 1 1-.9l27.2 2.5a1 1 0 0 1 .9 1 .86.86 0 0 1-1 .9zm12.3 23.9l-27.2-2.5a1 1 0 0 1-.9-1 1 1 0 0 1 1-.9L90 26.4a1 1 0 0 1 .9 1c0 .6-.4.9-1 .9zM75.5 50.8L59 49.2a6.46 6.46 0 0 1-.4 1.9l16.8 1.6a1 1 0 0 0 .1-1.9z" transform="translate(.02)"/><path class="cls-1" d="M63 24.8a1 1 0 0 0-1.3.3L55 36a5.24 5.24 0 0 1 1 1.8v.2l7.3-11.9a1 1 0 0 0-.3-1.3zM91.4 28L76.6 52a1 1 0 0 1-1.3.3.87.87 0 0 1-.3-1.3l14.8-24a1 1 0 0 1 1.3-.3 1 1 0 0 1 .3 1.3zM50.5.2a1 1 0 0 0-1.3.3L38 18.5a6.69 6.69 0 0 1 1.9.5L50.8 1.5a.89.89 0 0 0-.3-1.3zm20.8 40.3a4.32 4.32 0 0 1-2.8 1.3c-2 0-3.5-2.1-1.1-4.4 2.2-2.1 4.4-1.1 4.8.4a3 3 0 0 1-.9 2.7zm10.6-21a3.94 3.94 0 0 1 2.3 2.1c.7 1.8-.6 4-3.6 2.7-2.8-1.2-2.7-3.7-1.4-4.6a3.16 3.16 0 0 1 2.7-.2zM59.5 4.7a3.94 3.94 0 0 1 2.3 2.1c.7 1.8-.6 4-3.6 2.7-2.8-1.2-2.7-3.7-1.4-4.6a3.16 3.16 0 0 1 2.7-.2zm-12.1 8.6a4.1 4.1 0 0 1 1.5-2.7c1.6-1.1 4-.3 3.4 2.9-.6 3-2.9 3.5-4.1 2.4a3.4 3.4 0 0 1-.8-2.6z" transform="translate(.02)"/></g></svg>