<svg data-name="Слой 3" xmlns="http://www.w3.org/2000/svg" viewBox="0 0 99.4 77"><title>faq-icon</title><path d="M94.5 76H5a4 4 0 0 1-4-4V5a4 4 0 0 1 4-4h89.4a4 4 0 0 1 4 4v67a3.87 3.87 0 0 1-3.9 4zM49.8 1v75m8.3-58.3h31.2M58.1 28h31.2M58.1 38.3h31.2M58.1 48.6h31.2M58.1 58.9h31.2" fill="none" stroke="#000" stroke-miterlimit="10" stroke-width="2"/><path d="M23.2 49a15.13 15.13 0 0 1 1.1-6.1 17.42 17.42 0 0 1 4.1-5.2 37.06 37.06 0 0 0 4.2-4.5 10.31 10.31 0 0 0 1.7-3.5 18.39 18.39 0 0 0 .5-4.4 10.94 10.94 0 0 0-2.6-7.6 9.33 9.33 0 0 0-7-2.8 9.86 9.86 0 0 0-7.5 2.9 10.37 10.37 0 0 0-2.7 7.4h-1.8a11.52 11.52 0 0 1 3.5-8.7 12 12 0 0 1 8.6-3.3 10.7 10.7 0 0 1 8.3 3.3c2.1 2.2 3.1 5.2 3.1 8.9a15.1 15.1 0 0 1-1.5 6.8 25.06 25.06 0 0 1-5.8 6.9C26.5 41.4 25 44.7 25 49zm-.8 11.6a2.11 2.11 0 0 1 .5-1.3 1.66 1.66 0 0 1 1.3-.5 2.11 2.11 0 0 1 1.3.5 1.66 1.66 0 0 1 .5 1.3 2.11 2.11 0 0 1-.5 1.3 1.66 1.66 0 0 1-1.3.5 2.11 2.11 0 0 1-1.3-.5 1.73 1.73 0 0 1-.5-1.3z" style="isolation:isolate"/></svg>