<svg id="Слой_2" data-name="Слой 2" xmlns="http://www.w3.org/2000/svg" viewBox="0 0 93.43 89.15"><defs><style>.cls-1{fill:none;stroke:#000;stroke-miterlimit:10;stroke-width:2px}</style></defs><title>star</title><path class="cls-1" d="M48.5 2.11L61.08 27.6a2 2 0 0 0 1.5 1.09l28.13 4.09a2 2 0 0 1 1.11 3.41L71.47 56a2 2 0 0 0-.57 1.77l4.8 28a2 2 0 0 1-2.9 2.11L47.64 74.69a2 2 0 0 0-1.86 0L20.63 87.91a2 2 0 0 1-2.9-2.11l4.8-28A2 2 0 0 0 22 56L1.61 36.19a2 2 0 0 1 1.11-3.41l28.13-4.09a2 2 0 0 0 1.5-1.09L44.92 2.11a2 2 0 0 1 3.58 0z"/></svg>