<svg id="Layer_1" data-name="Layer 1" xmlns="http://www.w3.org/2000/svg" viewBox="0 0 200 200"><defs><style>.cls-1{fill:none}.cls-2{clip-path:url(#clip-path)}.cls-3{fill:#ffb3ca}</style><clipPath id="clip-path"><path class="cls-1" d="M0 0h200v200H0z"/></clipPath></defs><title>chef</title><g class="cls-2"><path class="cls-3" d="M103.33 133.33h-6.66a3.33 3.33 0 0 0 0 6.67h6.67a3.33 3.33 0 0 0 0-6.67zM90 93.33H76.67a3.33 3.33 0 0 0 0 6.67H80a3.33 3.33 0 0 0 6.67 0H90a3.33 3.33 0 0 0 0-6.67z"/><path class="cls-3" d="M100 122.77c-3.57-1.94-6.64-2.25-9.14-.92-4.08 2.18-4.2 7.54-4.2 8.1 0 .39-.15 1 0 1a3.68 3.68 0 0 1-1.82-.58 3.34 3.34 0 0 0-3 6c4 2 6.64 1.29 8.15.35 3.24-2 3.34-6.2 3.34-6.64a3.86 3.86 0 0 1 .68-2.29s1.07-.34 4.14 1.71a3.33 3.33 0 0 0 3.7 0c3.06-2 4.13-1.72 4.14-1.71a3.83 3.83 0 0 1 .68 2.27c0 .47.09 4.66 3.34 6.67a6.36 6.36 0 0 0 3.39.93 10.69 10.69 0 0 0 4.76-1.28 3.34 3.34 0 0 0-3-6 15.52 15.52 0 0 1-1.61.65 2.89 2.89 0 0 1-.23-1c0-.6-.12-6-4.2-8.14-2.48-1.38-5.55-1.07-9.12.88zM71.65 22.94a3.33 3.33 0 0 0 4.47-1.49 26.68 26.68 0 0 1 47.81.11 3.34 3.34 0 0 0 6-2.95 33.34 33.34 0 0 0-59.75-.14 3.33 3.33 0 0 0 1.47 4.47z"/><path class="cls-3" d="M133.33 13.33a20 20 0 0 1 8.81 37.95c-.23.09-23 8.72-42.14 8.72-18.54 0-28-6-28.17-6.11a3.33 3.33 0 0 0-3.68 5.55c.44.29 11.08 7.23 31.85 7.23 20.38 0 43.55-8.79 44.76-9.27a26.65 26.65 0 0 0-11.43-50.73 3.33 3.33 0 1 0 0 6.67zM56.67 86.67a3.33 3.33 0 0 0 0-6.67c-7.34 0-10 6-10 10v6.67a10 10 0 0 0 7.08 9.57c1.07 6.39 4.38 23.64 10.14 32.28.4.6.82 1.29 1.27 2 4.21 6.8 12 19.46 34.83 19.46s30.62-12.66 34.83-19.46c.45-.73.87-1.42 1.28-2 5.76-8.65 9.07-25.89 10.14-32.28a10 10 0 0 0 7.08-9.57V90c0-4-2.66-10-10-10a3.33 3.33 0 0 0 0 6.67c2.68 0 3.29 1.83 3.33 3.33v6.67a3.34 3.34 0 0 1-3.33 3.33 3.34 3.34 0 0 0-3.3 2.86c0 .23-3.3 22.69-9.47 32-.44.67-.91 1.41-1.4 2.22-4 6.49-10.07 16.3-29.16 16.3S74.85 143.52 70.84 137c-.5-.81-1-1.55-1.4-2.22-6.17-9.25-9.44-31.73-9.47-32a3.33 3.33 0 0 0-3.3-2.86 3.34 3.34 0 0 1-3.33-3.33V90c.03-1.5.66-3.33 3.33-3.33z"/><path class="cls-3" d="M113.33 100a3.33 3.33 0 0 0 6.67 0h3.33a3.33 3.33 0 0 0 0-6.67H110a3.33 3.33 0 0 0 0 6.67zM53.34 56.4v16.93a3.32 3.32 0 0 0 1 2.36c11 11 28.62 11 45.69 11s34.71 0 45.69-11a3.34 3.34 0 0 0 1-2.36v-6.25a3.33 3.33 0 1 0-6.67 0v4.82C130.86 80 115.85 80 100 80s-30.86 0-40-8.1V54.39a3.33 3.33 0 0 0-1.9-3 20 20 0 0 1 8.57-38 3.33 3.33 0 0 0 0-6.67A26.65 26.65 0 0 0 53.34 56.4zm63.42 136.93a3.33 3.33 0 1 0 3.37 3.33 3.32 3.32 0 0 0-3.4-3.33z"/><path class="cls-3" d="M199.83 195.61l-3.72-11.19c-3.54-10.94-8-17.67-52-17.75l-12.63-6.32a3.34 3.34 0 0 0-3.2.12c-.16.1-16.05 9.53-28.29 9.53s-28.13-9.43-28.29-9.53a3.35 3.35 0 0 0-3.2-.12l-12.63 6.32c-44 .08-48.45 6.81-52 17.75l-3.7 11.19a3.34 3.34 0 0 0 6.33 2.11l3.74-11.25c2.37-7.34 4.24-13.13 46.4-13.13a3.35 3.35 0 0 0 1.49-.35l11.74-5.87c4.65 2.57 18.35 9.55 30.11 9.55s25.45-7 30.1-9.55c8.61 4.3 11.71 5.83 13.23 6.12v.1c42.18 0 44.05 5.8 46.43 13.14l3.74 11.25a3.34 3.34 0 0 0 6.33-2.11z"/><path class="cls-3" d="M116.76 180a3.33 3.33 0 1 0 3.37 3.33 3.32 3.32 0 0 0-3.4-3.33zm-33.33 0a3.33 3.33 0 1 0 3.37 3.33 3.32 3.32 0 0 0-3.4-3.33zm0 13.33a3.33 3.33 0 1 0 3.37 3.33 3.32 3.32 0 0 0-3.4-3.33z"/></g></svg>