<svg id="Layer_1" data-name="Layer 1" xmlns="http://www.w3.org/2000/svg" viewBox="0 0 40 40"><defs><style>.cls-1{fill:#3c80ad}.cls-2{fill:#931b1d}.cls-3{fill:#f16622}.cls-4{fill:#f7981d}.cls-5{fill:#cb2026}.cls-6{fill:#fff}</style></defs><title>mastercard</title><path class="cls-1" d="M20 40A20 20 0 1 0 0 20a20 20 0 0 0 20 20z"/><path class="cls-2" d="M13.46 10.29a9.21 9.21 0 1 0 6.24 16 9.25 9.25 0 0 0 .93-1h-1.87a8.92 8.92 0 0 1-.69-.95h3.25a9.19 9.19 0 0 0 .54-1h-4.32a9 9 0 0 1-.38-1h5.09a9.19 9.19 0 0 0 .47-2.92 9.29 9.29 0 0 0-.21-2h-5.63a9.35 9.35 0 0 1 .26-1h5.09a9.21 9.21 0 0 0-.4-1h-4.3a8.9 8.9 0 0 1 .53-1h3.25a9.15 9.15 0 0 0-.71-1h-1.82a8.42 8.42 0 0 1 .92-.93 9.14 9.14 0 0 0-6.19-2.4z"/><path class="cls-3" d="M35 19.51a9.19 9.19 0 1 1-18.38 0A9.19 9.19 0 1 1 35 19.5z"/><path class="cls-4" d="M35 19.61a9.19 9.19 0 1 1-18.38 0A9.19 9.19 0 1 1 35 19.6z"/><path class="cls-5" d="M13.46 10.4a9.21 9.21 0 1 0 6.24 16 9.11 9.11 0 0 0 .93-1h-1.87a8.84 8.84 0 0 1-.69-.95h3.25a9.27 9.27 0 0 0 .54-1h-4.32a9 9 0 0 1-.38-1h5.09a9.28 9.28 0 0 0 .26-4.89h-5.63a9.35 9.35 0 0 1 .26-1h5.09a9.23 9.23 0 0 0-.4-1h-4.3a9 9 0 0 1 .53-1h3.25a9.31 9.31 0 0 0-.71-1h-1.82a8.53 8.53 0 0 1 .92-.93 9.14 9.14 0 0 0-6.19-2.4z"/><path class="cls-6" d="M16.83 22l.12-.83h-.25c-.34 0-.38-.18-.36-.32l.27-1.7h.52l.13-.92h-.49l.1-.57h-1s-.58 3.23-.58 3.61a.73.73 0 0 0 .78.83 2.57 2.57 0 0 0 .76-.1zm.31-1.64a1.54 1.54 0 0 0 1.69 1.72 2.48 2.48 0 0 0 1-.16L20 21a3 3 0 0 1-1 .24c-1.05 0-.87-.79-.87-.79h2a7.11 7.11 0 0 0 .13-.9 1.31 1.31 0 0 0-1.4-1.43c-1-.02-1.72 1.04-1.72 2.24zM18.85 19c.55 0 .45.62.45.67h-1.08c0-.08.1-.67.63-.67zM25 22l.18-1.07a2.34 2.34 0 0 1-.81.24 1 1 0 0 1-1-1.1c0-1.16.6-1.8 1.26-1.8a1.74 1.74 0 0 1 .9.28l.16-1a3.5 3.5 0 0 0-1.1-.24c-1.13 0-2.23 1-2.23 2.83 0 1.22.59 2 1.76 2A4.5 4.5 0 0 0 25 22zm-13.56-3.88a3.38 3.38 0 0 0-1.19.22l-.14.85a3.09 3.09 0 0 1 1.07-.19c.36 0 .63 0 .63.34a.63.63 0 0 1 0 .25h-.42c-.85 0-1.74.36-1.74 1.45a.93.93 0 0 0 .94 1.06 1.27 1.27 0 0 0 1-.45v.38h.86l.38-2.7a1.16 1.16 0 0 0-1.39-1.21zm.21 2.2c0 .17-.1.94-.69.94a.36.36 0 0 1-.38-.37c0-.27.15-.59.86-.59a.64.64 0 0 1 .21.02zm2.05 1.74c.22 0 1.48.06 1.48-1.25S14 19.83 14 19.34c0-.24.19-.32.54-.32h.67l.12-.87a4.58 4.58 0 0 0-.9-.08c-.72 0-1.46.29-1.46 1.28s1.23 1 1.23 1.48c0 .32-.34.34-.61.34a3.18 3.18 0 0 1-.87-.15l-.13.86a3.06 3.06 0 0 0 1.11.18zm19.46-4.72l-.21 1.31a1.29 1.29 0 0 0-.94-.51c-.9 0-1.64 1.08-1.64 2.33 0 .8.4 1.59 1.21 1.59a1.22 1.22 0 0 0 .91-.41V22h1l.75-4.66zm-.46 2.56c0 .52-.26 1.21-.79 1.21-.35 0-.52-.3-.52-.76 0-.76.34-1.26.77-1.26s.54.24.54.81zM6.14 22l.6-3.52.09 3.52h.67l1.26-3.52L8.2 22h1l.8-4.66H8.43l-1 2.86-.05-2.86H6L5.2 22zm15.08 0c.28-1.62.34-2.94 1-2.7a3.8 3.8 0 0 1 .36-1.14h-.19c-.44 0-.76.6-.76.6l.09-.55h-.91L20.22 22zm6.09-3.88a3.38 3.38 0 0 0-1.19.22l-.14.85A3.09 3.09 0 0 1 27 19c.36 0 .63 0 .63.34a.62.62 0 0 1 0 .25h-.42c-.85 0-1.73.36-1.73 1.45a.93.93 0 0 0 .94 1.06 1.27 1.27 0 0 0 1-.45v.38h.86l.38-2.7a1.16 1.16 0 0 0-1.35-1.21zm.21 2.2c0 .17-.1.94-.69.94a.36.36 0 0 1-.38-.37c0-.27.15-.59.86-.59a.64.64 0 0 1 .21.02zM29.44 22c.29-1.62.34-2.94 1-2.7a3.78 3.78 0 0 1 .36-1.14h-.19c-.44 0-.76.6-.76.6l.09-.55H29L28.43 22h1z"/></svg>