<svg id="Layer_1" data-name="Layer 1" xmlns="http://www.w3.org/2000/svg" viewBox="0 0 164.4 173.4"><defs><style>.cls-1{fill:none}.cls-2{clip-path:url(#clip-path)}.cls-3{fill:#ffeb00}</style><clipPath id="clip-path" transform="translate(-4.84 -26.6)"><path class="cls-1" d="M1 0h200v200H1z"/></clipPath></defs><title>percentage-discount</title><g class="cls-2"><path class="cls-3" d="M99.8 46a46.35 46.35 0 0 1-12 31.61c-8.71 9.44-21 14.43-35.62 14.43-31.1 0-47.38-23.16-47.38-46a48.33 48.33 0 0 1 4-19.38h26.76C29.69 31.36 27 38.57 27 45.75c0 11.87 8 24.65 25.55 24.65 7.7 0 14.11-2.6 18.51-7.51a25 25 0 0 0 6.12-16.83c0-7.12-2.81-14.57-8.75-19.39h27.3A48 48 0 0 1 99.8 46zM19 183a3 3 0 0 1-2.28-5.06l137-151.27c9.33 0 9.68-.49 12.67 1.12 2.67 1.54 3.33 4.88 2.67 13.54L46 179.16a13.19 13.19 0 0 1-8.62 3.84zm96.68-59.17c8.5-9.27 20.54-14.17 34.79-14.17a51.81 51.81 0 0 1 18.74 3.3v24.95c-4.08-4.63-10.26-7.79-18.74-7.79-7.68 0-14.06 2.6-18.46 7.53a25.19 25.19 0 0 0-6.12 16.9c0 11.91 7.78 24.73 24.86 24.73 7.68 0 14.06-2.6 18.46-7.52V194c-3.55 2.67-4.42 6-18.74 6C120 200 104 177.28 104 154.83a45.58 45.58 0 0 1 11.68-31z" transform="translate(-4.84 -26.6)"/></g></svg>