<svg id="Layer_1" data-name="Layer 1" xmlns="http://www.w3.org/2000/svg" viewBox="0 0 142.23 150"><defs><style>.cls-1{fill:none}.cls-2{clip-path:url(#clip-path)}.cls-3{fill:#ffb3ca}</style><clipPath id="clip-path" transform="translate(-3.88)"><path class="cls-1" d="M0 0h150v150H0z"/></clipPath></defs><title>vegetables-hand-drawn-basket</title><g class="cls-2"><path class="cls-3" d="M143.36 68.26a2.11 2.11 0 0 0-.34-.48 2.29 2.29 0 0 0-1.07-3.27 47.27 47.27 0 0 0-6.42-2.05c6.6-5.1 9.82-16.79 2.16-22.39-1-.71-7-3.1-6.91-4.18.19-2 .24-5-.76-6.86-1.86-3.53-5.14-4-8.69-4-1.93-9.38-9.66-15.77-19.8-10.81-5.37 2.63-9.52-1.44-15 .35-4.26 1.36-5.23 6.6-5.73 10.43v-5.19a2.14 2.14 0 0 0-1.53-2c-7.18-2.64-12.89-2.7-20.05 0a2.08 2.08 0 0 0-1.52 2c.74 6.64 1.37 13.29 2 19.95-5.34-7.41-13.43-13.86-21.62-12.49C39.5 18 37 .66 24.9 0 13-.62 15.43 15.45 18 23.52c-3-.31-6.17.34-9.22.4a1.77 1.77 0 0 0-1.51 2.63C11.51 34.77 18.54 38.34 27 36a19.86 19.86 0 0 0-1.21 10.75c1.21 7.55 6.6 13.62 12.55 18.12a147.4 147.4 0 0 0-22.85 2.5 1 1 0 0 0-1.19-.49C3.16 69.27 2.63 81.17 5.07 90.43a2.38 2.38 0 0 0 2.24 1.7c2.13.22 4.27.4 6.4.56 1.85 2.15 3.49 6.33 4.56 8.35 2.37 4.52 3.72 9.55 5.23 14.4 2.5 8.06 4.75 15.84 8.06 23.62a1.78 1.78 0 0 0 .66.79 1.34 1.34 0 0 0 .61.74c22.19 13 57.57 10.44 81.7 4.64a3.39 3.39 0 0 0 1-.43 3 3 0 0 0 3.84-1.77c6.34-16.07 9.48-32.95 13.8-49.59 10.46-2.91 16.93-10.52 10.19-25.18zM80.8 26.12a1 1 0 0 0 1.74-.2c1.86-6.67 7.78-9.93 14.26-6a1.73 1.73 0 0 0 1.75 0c8-5 18.44-4.74 18.85 7.25a2.17 2.17 0 0 0 2.14 2.14c6.19.06 7.09 4.1 6.52 9.53a2.19 2.19 0 0 0 1.63 2.15c13.45 2.28 10.05 12.17 3.64 19.85a2.09 2.09 0 0 0-.38.7 73.71 73.71 0 0 0-8.69-.94c4.72-3.69 7.82-9.88 5.21-15.77-2.71-6.13-8.6-7-14-4.67-1.3-3.7-3.12-7.13-7.1-8.47-3.57-1.2-6.93 1.82-9.4 4.76-1.6-4.66-4.83-9.76-10.27-7.08a12.89 12.89 0 0 0-6.06 6.53q.13-4.9.16-9.78zm-.37 20.75a.86.86 0 0 0 .62-.78 18.78 18.78 0 0 1 3.86-11.55c5.12-6.38 8.72 1.25 9.6 6.19a1.78 1.78 0 0 0 3 .78A23.74 23.74 0 0 1 103 36c4.62-3.09 6.63 5.76 7.16 7.78a2.16 2.16 0 0 0 3.17 1.22c4.28-2.41 8.87-2.82 10.42 2.65 1.4 4.94-3.19 8.82-6.74 11.15a2.05 2.05 0 0 0-1 1.64c-12.23.18-24.82 2.31-35.83 3.44a1.27 1.27 0 0 0-.24.07q.24-8.54.49-17.09zM64 20.43c18-6.95 12.26 17 11.88 26.34-.45 11.38-.76 22.76-.82 34.15-2.15-.64-2.53-.58-6.52-.83a2 2 0 0 0-1.82.78c-.07-9.42-.53-18.81-1.18-28.22-.3-4.12-6-30.51-1.54-32.22zM28.16 33.78c-7 1.12-12.48-1.26-16.4-6.69 2.78-.39 5.58-.82 8.25.12 1.06.37 2.39-.84 1.94-1.94C20 20.49 15.05 3.89 24.9 3.6c10.1-.31 9.77 17.52 9.92 23.53a1.5 1.5 0 0 0 .38.95 16.48 16.48 0 0 0-4.38 2.64 13.15 13.15 0 0 0-2.66 3.06zm5.2.34c3.39-3.43 8.49-3.43 12.66-1.55 7.09 3.2 10.74 10.21 14.54 16.55.46 5 .93 10.09 1.44 15.13-6.47.22-13.14.28-19.82.49a1.06 1.06 0 0 0-.38-.67c-8.08-6.48-17.93-20.37-8.44-29.95zm81.15 105.38a3.35 3.35 0 0 0-1.62-.17c-26 3.59-51.28 4.51-77.05-.94a1.76 1.76 0 0 0-.07-1.1c-4-9.65-5.35-20.29-9.12-30.1-1.43-3.74-3.07-7.74-5.55-10.9a12.13 12.13 0 0 0-3.83-3.36c33.08 2.13 66-1.23 99.08 1.71a51.86 51.86 0 0 0 14-.53c-6.35 14.76-11.04 30.08-15.84 45.39zm11-49.84c-9.2.35-18.47-1.42-27.61-2.22-15.9-1.39-32.42 1.1-48.32 1.39-9.3.17-18.61 0-27.91-.36-1.95-.08-12.14.65-13-2.23C7 80.27 8.9 75 12.91 70.91a1.3 1.3 0 0 0 .23 0c16.11-1.26 33.6 2.07 49.33-2.06.6 5.63 1.27 11.25 2.06 16.86.18 1.28 2.19.93 2.2-.3v-1.36a2.25 2.25 0 0 0 1.8.88l8.14 1.21A2.29 2.29 0 0 0 79.54 84c.05-6 .18-11.92.34-17.89a1.28 1.28 0 0 0 .3.08c19.61 1.66 39.64 1.61 59.31 2.3a2.3 2.3 0 0 0-.28 1.53c2.32 12.9.11 19.11-13.73 19.64z" transform="translate(-3.88)"/><path class="cls-3" d="M112.7 97.55c-2.39 2.38-4.81 4.89-7.24 7.42-2.67-2.26-5.52-4.33-8.39-6.41-1.54-1.12-3.54 1.47-2 2.64 2.68 2.08 5.31 4.2 7.86 6.43-3.21 3.31-6.51 6.6-10 9.67-.45-.39-.91-.77-1.36-1.17q-4.26-3.78-8.49-7.6c.69-.54 1.38-1.1 2.09-1.62 1.24-.92.12-3-1.24-2.12-1 .62-1.9 1.3-2.84 2a917.05 917.05 0 0 0-8.68-7.71c-1.33-1.16-3.27.74-2 2 2.73 2.5 5.44 5 8.14 7.57-3.71 2.81-7.23 5.85-10.73 8.92q-5.62-4.87-11.42-9.47a95.68 95.68 0 0 1 8.17-5.73.93.93 0 0 0-.94-1.6 44.55 44.55 0 0 0-9.36 5.65q-4.69-3.66-9.45-7.08a1.53 1.53 0 0 0-.81-.59l-1.29-.94c-.9-.63-2 .85-1.18 1.52l.23.19c-2.57 1.44-5 3.1-6.38 5.82-.66 1.33 1.26 2.49 2 1.18 1.48-2.58 4.14-3.83 6.73-5q4 3.28 7.77 6.81c-3.43 2.9-6.61 6.14-9.74 9.37-1.3-1.14-2.61-2.27-3.88-3.43a.63.63 0 0 0-.88.88c1.15 1.26 2.31 2.56 3.47 3.87l-.8.83a1 1 0 0 0 1.37 1.37l.76-.71a135.91 135.91 0 0 0 9.58 9.91c-1.35.89-2.71 1.76-4.14 2.55-.77.43-.24 1.8.61 1.46a49.34 49.34 0 0 0 5.23-2.49 51.62 51.62 0 0 0 5.7 4.06c1.18.75 2.41-.93 1.46-1.9-1.35-1.37-2.77-2.69-4.19-4a92 92 0 0 0 10.33-7.67c2.52 2.42 5.07 4.81 7.68 7.11a45.27 45.27 0 0 1-4.69 1.72.82.82 0 0 0 .44 1.58 41.15 41.15 0 0 0 6.14-1.69 113.81 113.81 0 0 0 10.38 8c1.43 1 3-1.16 1.8-2.34-2.49-2.54-5.07-5.05-7.68-7.55a66.33 66.33 0 0 0 11.9-7.4c2.18 2.1 4.4 4.21 6.7 6.21-.47.62-1 1.22-1.39 1.88-.89 1.39 1.22 2.52 2.16 1.26.38-.51.78-1 1.2-1.48a50.16 50.16 0 0 0 7.19 5 1.45 1.45 0 0 0 1.75-2.27 74.94 74.94 0 0 0-6-5.75 36.46 36.46 0 0 0 6.22-7.09c.8-1.33-1.19-3-2.2-1.7-1.93 2.43-4.14 4.63-6.22 6.92-2.15-1.79-4.33-3.54-6.48-5.31a115.55 115.55 0 0 0 10-9.48c1.92 1.78 3.8 3.61 5.56 5.57a1.54 1.54 0 0 0 2.4-1.85 37.77 37.77 0 0 0-5.46-6.48c2.34-2.62 4.58-5.24 6.6-7.78 1.06-1.35-.77-3.29-2.07-1.96zm-58.11 30.84c-3.54-3.2-7.19-6.31-10.8-9.44 3.27-3.11 6.6-6.13 10.08-9 3.6 3.41 7.14 6.9 10.7 10.36-3.23 2.83-6.5 5.59-9.98 8.08zm24.31-.95q-4.26-4-8.7-7.93c3.48-3 6.92-6.14 10.44-9.05q4.27 4 8.55 8l1.08 1a70.28 70.28 0 0 1-11.37 7.99zM38.57 42.7c-1.92 3.22-4.4 6.78-4.46 10.67 0 1.15 1.68 1.12 1.77 0 .28-3.45 2.94-6.62 4.29-9.73.47-1.07-.97-1.99-1.6-.94zm7.48 5.3c-4.23 2.63-7.94 5.89-7.91 11.25a1.23 1.23 0 0 0 2.46 0c.26-4.09 3.58-6.89 6.67-9.16 1.23-.95.13-2.97-1.22-2.09zm5.82 7.66a41.94 41.94 0 0 1-7.14 4.18c-1.09.57-.13 2.16 1 1.64 2.61-1.25 5.45-2.39 7.43-4.57a.88.88 0 0 0-1.29-1.25z" transform="translate(-3.88)"/></g></svg>