<svg id="Layer_1" data-name="Layer 1" xmlns="http://www.w3.org/2000/svg" viewBox="0 0 40 40"><defs><style>.cls-1{fill:none}.cls-2{clip-path:url(#clip-path)}.cls-3{fill:#f3f2f2}.cls-4{fill:#293688}.cls-5{fill:#f7981d}</style><clipPath id="clip-path"><path class="cls-1" d="M0 0h40v40H0z"/></clipPath></defs><title>visa1</title><g class="cls-2"><path class="cls-3" d="M20 40A20 20 0 1 0 0 20a20 20 0 0 0 20 20z"/><path class="cls-4" d="M14.81 23.84l1.53-9h2.48l-1.53 9zM26.11 15a6.44 6.44 0 0 0-2.22-.38c-2.45 0-4.17 1.23-4.19 3 0 1.3 1.23 2 2.17 2.45s1.29.73 1.28 1.12c0 .61-.77.88-1.48.88a5.23 5.23 0 0 1-2.33-.47l-.34-.12-.35 2a7.88 7.88 0 0 0 2.76.48c2.6 0 4.3-1.21 4.31-3.09 0-1-.65-1.81-2.08-2.46-.87-.42-1.4-.7-1.39-1.12s.45-.78 1.42-.78a4.59 4.59 0 0 1 1.85.35l.22.1zm4.22-.2a1.23 1.23 0 0 0-1.28.77l-3.67 8.27H28l.51-1.38h3.13l.29 1.38h2.33l-2-9h-1.9zm-1.13 5.84l1-2.53.33-.86.17.78.57 2.61h-2.06zM10.29 21l-.22-1.24A7.06 7.06 0 0 0 6.65 16l2.19 7.87h2.62l3.94-9h-2.63z"/><path class="cls-5" d="M4 14.8v.15a8.46 8.46 0 0 1 6.12 4.81l-.9-4.18A1.06 1.06 0 0 0 8 14.8zM20 40a20 20 0 0 0 17.74-10.78H2.25A20 20 0 0 0 20 40z"/><path class="cls-4" d="M20 0A20 20 0 0 0 2.41 10.47h35.18A20 20 0 0 0 20 0z"/></g></svg>