<svg viewBox="0 0 32 32" xmlns="http://www.w3.org/2000/svg"><g clip-path="url(#clip0)" fill="#fff"><path d="M31.467 30.934H29.3c.023-.175.033-.354.033-.533a3.709 3.709 0 0 0-2.133-3.38V9.068c0-.32-.213-.534-.533-.534h-8v-8c0-.32-.214-.533-.534-.533h-14.4c-.32 0-.533.213-.533.533v30.4H.533c-.32 0-.533.214-.533.534 0 .32.213.533.533.533h30.934c.32 0 .533-.213.533-.533 0-.32-.213-.534-.533-.534zm-5.334-4.229a3.602 3.602 0 0 0-1.704.159.517.517 0 0 0-.429-.196c-.32 0-.533.213-.533.533v.163a3.731 3.731 0 0 0-.64.584 3.38 3.38 0 0 0-1.655-1.147.538.538 0 0 0-.372-.133.63.63 0 0 0-.167.021 3.153 3.153 0 0 0-.366-.021c-.335 0-.71.043-1.016.167a3.32 3.32 0 0 0-.112.04c-.369-.3-.8-.516-1.254-.634l-.015-.004a3.333 3.333 0 0 0-.217-.048l-.042-.008a3.178 3.178 0 0 0-.104-.016l-.046-.006a2.99 2.99 0 0 0-.096-.01l-.07-.006-.076-.005a3.088 3.088 0 0 0-.27-.002l-.075.004-.03.002c-.487.032-.964.17-1.377.412V9.601h10.666v17.104zM4.267 1.068H17.6v7.466h-2.667c-.32 0-.533.214-.533.534v16.586a3.864 3.864 0 0 0-1.02-.73l-.036-.018a3.693 3.693 0 0 0-1.228-.351l-.018-.002a3.772 3.772 0 0 0-.365-.019 3.62 3.62 0 0 0-2.133.7v-.166c0-.32-.213-.534-.533-.534-.32 0-.534.214-.534.534v1.066c0 .08.014.154.039.219a3.845 3.845 0 0 0-.519 1.435 3.622 3.622 0 0 0-1.653.621v-.141c0-.32-.213-.534-.533-.534-.32 0-.534.214-.534.534v1.066c0 .063.009.12.024.174a3.72 3.72 0 0 0-.518 1.426h-.572V1.068zM8.29 28.812l.031-.002a2.622 2.622 0 0 1 .211-.01c.32 0 .534-.212.534-.532a2.64 2.64 0 0 1 2.666-2.667c1.334 0 2.454.96 2.614 2.293a.578.578 0 0 0 .261.357l.025.015a.554.554 0 0 0 .14.055.516.516 0 0 0 .533-.213l.054-.054c.427-.533 1.013-.853 1.707-.853.36 0 .72.1 1.043.29a3.24 3.24 0 0 0-1.043 2.377c0 .37.061.726.184 1.066H5.92c.25-1.148 1.2-2.016 2.37-2.122zm10.219 2.122a2.277 2.277 0 0 1-.323-1.12c0-.59.232-1.12.632-1.51.076-.07.158-.135.244-.195a.535.535 0 0 0 .244-.055 2.098 2.098 0 0 1 2.986 1.12c.054.16.214.32.48.32a.373.373 0 0 0 .163-.044c.134-.022.24-.12.317-.276.207-.439.527-.79.917-1.035a.49.49 0 0 0 .213-.122 2.705 2.705 0 0 1 1.217-.283 2.64 2.64 0 0 1 2.667 2.667c0 .16 0 .373-.054.533H18.51z"/><path d="M17.6 13.867c-.32 0-.533.213-.533.533v1.067c0 .32.213.533.533.533.32 0 .534-.213.534-.533V14.4c0-.32-.214-.533-.534-.533zm0 9.6c-.32 0-.533.213-.533.533v1.067c0 .32.213.533.533.533.32 0 .534-.213.534-.533V24c0-.32-.214-.533-.534-.533zm0-6.4c-.32 0-.533.213-.533.533v1.067c0 .32.213.533.533.533.32 0 .534-.213.534-.533V17.6c0-.32-.214-.533-.534-.533zm0 3.2c-.32 0-.533.213-.533.533v1.067c0 .32.213.533.533.533.32 0 .534-.213.534-.533V20.8c0-.32-.214-.533-.534-.533zm0-9.6c-.32 0-.533.213-.533.533v1.067c0 .32.213.533.533.533.32 0 .534-.213.534-.533V11.2c0-.32-.214-.533-.534-.533zM20.8 16c.32 0 .533-.213.533-.533V14.4c0-.32-.213-.533-.533-.533-.32 0-.533.213-.533.533v1.067c0 .32.213.533.533.533zm0-3.2c.32 0 .533-.213.533-.533V11.2c0-.32-.213-.533-.533-.533-.32 0-.533.213-.533.533v1.067c0 .32.213.533.533.533zm0 6.4c.32 0 .533-.213.533-.533V17.6c0-.32-.213-.533-.533-.533-.32 0-.533.213-.533.533v1.067c0 .32.213.533.533.533zm0 3.2c.32 0 .533-.213.533-.533V20.8c0-.32-.213-.533-.533-.533-.32 0-.533.213-.533.533v1.067c0 .32.213.533.533.533zm0 3.2c.32 0 .533-.213.533-.533V24c0-.32-.213-.533-.533-.533-.32 0-.533.213-.533.533v1.067c0 .32.213.533.533.533zm3.2-6.4c.32 0 .533-.213.533-.533V17.6c0-.32-.213-.533-.533-.533-.32 0-.533.213-.533.533v1.067c0 .32.213.533.533.533zm0-3.2c.32 0 .533-.213.533-.533V14.4c0-.32-.213-.533-.533-.533-.32 0-.533.213-.533.533v1.067c0 .32.213.533.533.533zm0 9.6c.32 0 .533-.213.533-.533V24c0-.32-.213-.533-.533-.533-.32 0-.533.213-.533.533v1.067c0 .32.213.533.533.533zm0-3.2c.32 0 .533-.213.533-.533V20.8c0-.32-.213-.533-.533-.533-.32 0-.533.213-.533.533v1.067c0 .32.213.533.533.533zm0-9.6c.32 0 .533-.213.533-.533V11.2c0-.32-.213-.533-.533-.533-.32 0-.533.213-.533.533v1.067c0 .32.213.533.533.533zM5.867 20.267c.32 0 .533-.214.533-.534v-1.066c0-.32-.213-.534-.533-.534-.32 0-.534.214-.534.534v1.066c0 .32.214.534.534.534zm0 3.2c.32 0 .533-.214.533-.534v-1.066c0-.32-.213-.534-.533-.534-.32 0-.534.214-.534.534v1.066c0 .32.214.534.534.534zm0 3.2c.32 0 .533-.214.533-.534v-1.066c0-.32-.213-.534-.533-.534-.32 0-.534.214-.534.534v1.066c0 .32.214.534.534.534zm0-22.4c.32 0 .533-.214.533-.534V2.667c0-.32-.213-.534-.533-.534-.32 0-.534.214-.534.534v1.066c0 .32.214.534.534.534zm0 3.2c.32 0 .533-.214.533-.534V5.867c0-.32-.213-.534-.533-.534-.32 0-.534.214-.534.534v1.066c0 .32.214.534.534.534zm0 3.2c.32 0 .533-.214.533-.534V9.067c0-.32-.213-.534-.533-.534-.32 0-.534.214-.534.534v1.066c0 .32.214.534.534.534zm0 3.2c.32 0 .533-.214.533-.534v-1.066c0-.32-.213-.534-.533-.534-.32 0-.534.214-.534.534v1.066c0 .32.214.534.534.534zm0 3.2c.32 0 .533-.214.533-.534v-1.066c0-.32-.213-.534-.533-.534-.32 0-.534.214-.534.534v1.066c0 .32.214.534.534.534zm3.2-9.6c.32 0 .533-.214.533-.534V5.867c0-.32-.213-.534-.533-.534-.32 0-.534.214-.534.534v1.066c0 .32.214.534.534.534zm0-3.2c.32 0 .533-.214.533-.534V2.667c0-.32-.213-.534-.533-.534-.32 0-.534.214-.534.534v1.066c0 .32.214.534.534.534zm0 9.6c.32 0 .533-.214.533-.534v-1.066c0-.32-.213-.534-.533-.534-.32 0-.534.214-.534.534v1.066c0 .32.214.534.534.534zm0-3.2c.32 0 .533-.214.533-.534V9.067c0-.32-.213-.534-.533-.534-.32 0-.534.214-.534.534v1.066c0 .32.214.534.534.534zm0 6.4c.32 0 .533-.214.533-.534v-1.066c0-.32-.213-.534-.533-.534-.32 0-.534.214-.534.534v1.066c0 .32.214.534.534.534zm0 3.2c.32 0 .533-.214.533-.534v-1.066c0-.32-.213-.534-.533-.534-.32 0-.534.214-.534.534v1.066c0 .32.214.534.534.534zm0 3.2c.32 0 .533-.214.533-.534v-1.066c0-.32-.213-.534-.533-.534-.32 0-.534.214-.534.534v1.066c0 .32.214.534.534.534zm3.2-12.8c.32 0 .533-.214.533-.534V9.067c0-.32-.213-.534-.533-.534-.32 0-.534.214-.534.534v1.066c0 .32.214.534.534.534zm0-3.2c.32 0 .533-.214.533-.534V5.867c0-.32-.213-.534-.533-.534-.32 0-.534.214-.534.534v1.066c0 .32.214.534.534.534zm0-3.2c.32 0 .533-.214.533-.534V2.667c0-.32-.213-.534-.533-.534-.32 0-.534.214-.534.534v1.066c0 .32.214.534.534.534zm0 19.2c.32 0 .533-.214.533-.534v-1.066c0-.32-.213-.534-.533-.534-.32 0-.534.214-.534.534v1.066c0 .32.214.534.534.534zm0-3.2c.32 0 .533-.214.533-.534v-1.066c0-.32-.213-.534-.533-.534-.32 0-.534.214-.534.534v1.066c0 .32.214.534.534.534zm0-3.2c.32 0 .533-.214.533-.534v-1.066c0-.32-.213-.534-.533-.534-.32 0-.534.214-.534.534v1.066c0 .32.214.534.534.534zm0-3.2c.32 0 .533-.214.533-.534v-1.066c0-.32-.213-.534-.533-.534-.32 0-.534.214-.534.534v1.066c0 .32.214.534.534.534zm3.2-6.4c.32 0 .533-.214.533-.534V5.867c0-.32-.213-.534-.533-.534-.32 0-.533.214-.533.534v1.066c0 .32.213.534.533.534zm0-3.2c.32 0 .533-.214.533-.534V2.667c0-.32-.213-.534-.533-.534-.32 0-.533.214-.533.534v1.066c0 .32.213.534.533.534z"/></g></svg>