<svg data-name="Layer 1" xmlns="http://www.w3.org/2000/svg" viewBox="0 0 32 26.12"><title>camera</title><path class="cls-1" d="M29.83 5.25H26.9l-.67-3A2.8 2.8 0 0 0 23.48.04H13.32a2.8 2.8 0 0 0-2.75 2.21l-.67 3h-.7v-1.3a1.33 1.33 0 0 0-1.32-1.33H3.59a1.33 1.33 0 0 0-1.32 1.33v1.3h-.1A2.17 2.17 0 0 0 0 7.42v14.71a2.17 2.17 0 0 0 2.17 2.17h10.08a11.32 11.32 0 0 0 12.3 0h5.28A2.17 2.17 0 0 0 32 22.13V7.42a2.17 2.17 0 0 0-2.17-2.17zm-18-2.77a1.55 1.55 0 0 1 1.53-1.23h10.12A1.55 1.55 0 0 1 25 2.48l.61 2.77h-1.06a11.32 11.32 0 0 0-12.3 0h-1.07zM3.52 3.95a.08.08 0 0 1 .08-.08h4.28a.08.08 0 0 1 .12.08v1.3H3.52zM5 23.06v-6.8a.63.63 0 0 0-1.25 0v6.8H2.17a.92.92 0 0 1-.92-.92V7.42a.92.92 0 0 1 .92-.92h8.48a11.33 11.33 0 0 0 0 16.56zm19.15 0a10.09 10.09 0 1 1 4.32-8.28 10.07 10.07 0 0 1-4.3 8.28zm6.58-.92a.92.92 0 0 1-.92.92h-3.66a11.33 11.33 0 0 0 0-16.56h3.68a.92.92 0 0 1 .92.92z"/><path class="cls-1" d="M18.4 6.57a8.21 8.21 0 1 0 2 16.18.623.623 0 0 0-.3-1.21 7 7 0 1 1 5.3-6.76 6.92 6.92 0 0 1-1.19 3.9.63.63 0 1 0 1 .7 8.21 8.21 0 0 0-6.8-12.8zM4.39 8.66a2.33 2.33 0 1 0 2.33 2.33 2.33 2.33 0 0 0-2.33-2.33zm0 3.4a1.08 1.08 0 1 1 1.08-1.08 1.08 1.08 0 0 1-1.08 1.08z"/><path class="cls-1" d="M23.44 20.8a.66.66 0 0 0 0-.12l-.06-.11-.08-.09-.09-.08-.11-.06h-.12a.62.62 0 0 0-.24 0h-.12l-.11.06-.1.08-.08.09-.06.11a.66.66 0 0 0 0 .12.63.63 0 0 0 0 .12.62.62 0 0 0 0 .12.63.63 0 0 0 0 .12l.06.11.08.09.1.08.11.06h.5l.11-.06.09-.08a.63.63 0 0 0 .17-.56z"/></svg>