<svg data-name="Layer 1" xmlns="http://www.w3.org/2000/svg" viewBox="0 0 60 40"><title>car</title><g class="cls-2"><path class="cls-3" d="M8.61 11.92a1 1 0 0 0 1.31-.52l3-6.95A4.16 4.16 0 0 1 17 2h14a7.42 7.42 0 0 1 6.19 3.6l6 7.94A4.58 4.58 0 0 0 47 16h3c4.29 0 6 2.37 6.66 4H55a1 1 0 0 0 0 2h2.15l.85 5.07a.69.69 0 0 1-.07.62A1.13 1.13 0 0 1 57 28h-3.1a7 7 0 1 0 0 2H57a3 3 0 0 0 2.49-1.09 2.59 2.59 0 0 0 .44-2.25L59 20.8c-.66-3.29-3.36-6.8-9-6.8h-3a2.68 2.68 0 0 1-2.08-1.44.91.91 0 0 0-.1-.16l-6-7.95A9.47 9.47 0 0 0 31 0H17a6.14 6.14 0 0 0-5.92 3.61l-3 7a1 1 0 0 0 .53 1.31zM47 34a5 5 0 1 1 5-5 5 5 0 0 1-5 5zm12 4H43a1 1 0 1 0 0 2h16a1 1 0 0 0 0-2z"/><path class="cls-3" d="M3 30h.52a1 1 0 0 0 0-2H3a1 1 0 0 1-1-1v-5h1a1 1 0 0 0 0-2H2v-3a1 1 0 0 1 1-1h19.18L24 25.2a1 1 0 0 0 1 .8h.2a1 1 0 0 0 .8-1.2L24.22 16H41a1 1 0 0 0 0-2h-3.4l1.28-2.55a1 1 0 0 0-1.79-.89L35.37 14H24V5a1 1 0 1 0-2 0v9H3a3 3 0 0 0-3 3v10a3 3 0 0 0 3 3z"/><path class="cls-3" d="M38 29a1 1 0 0 0-1-1H19.92a7 7 0 1 0 0 2H37a1 1 0 0 0 1-1zm-25 5a5 5 0 1 1 5-5 5 5 0 0 1-5 5zm34-8a3 3 0 1 0 3 3 3 3 0 0 0-3-3zm0 4a1 1 0 1 1 1-1 1 1 0 0 1-1 1zM28 18a1 1 0 0 0 0 2h1a1 1 0 0 0 0-2zm3 20H21a1 1 0 0 0 0 2h10a1 1 0 1 0 0-2z"/><path class="cls-3" d="M13 26a3 3 0 1 0 3 3 3 3 0 0 0-3-3zm0 4a1 1 0 1 1 1-1 1 1 0 0 1-1 1zm2 8H1a1 1 0 0 0 0 2h14a1 1 0 0 0 0-2zm24 0h-2a1 1 0 0 0 0 2h2a1 1 0 1 0 0-2z"/></g></svg>