<svg data-name="Layer 1" xmlns="http://www.w3.org/2000/svg" viewBox="0 0 25 25"><title>clock</title><path class="cls-1" d="M12.5 0A12.5 12.5 0 1 0 25 12.5 12.51 12.51 0 0 0 12.5 0zm0 24.17A11.67 11.67 0 1 1 24.17 12.5 11.68 11.68 0 0 1 12.5 24.17z"/><path class="cls-1" d="M12.92 10.84V6.62a.42.42 0 0 0-.83 0v4.23a1.66 1.66 0 0 0-1.2 1.15h-3a.42.42 0 0 0 0 .83h3a1.66 1.66 0 1 0 2-2zm-.42 2.44a.83.83 0 1 1 .83-.83.83.83 0 0 1-.83.83zm0-9.16a.42.42 0 0 0 .42-.42v-.42a.42.42 0 1 0-.83 0v.42a.42.42 0 0 0 .41.42zm0 16.66a.42.42 0 0 0-.42.42v.42a.42.42 0 1 0 .83 0v-.42a.42.42 0 0 0-.41-.42zM21.67 12h-.42a.42.42 0 1 0 0 .83h.42a.42.42 0 1 0 0-.83zM3.75 12h-.42a.42.42 0 1 0 0 .83h.42a.42.42 0 1 0 0-.83zm14.94-6.33l-.3.33a.42.42 0 1 0 .59.59l.29-.29a.42.42 0 0 0-.59-.59zM6 18.34l-.29.29a.42.42 0 1 0 .59.59l.29-.29a.42.42 0 1 0-.59-.59zm13 0a.42.42 0 0 0-.59.59l.29.29a.42.42 0 0 0 .59-.59zM6.31 5.67a.42.42 0 1 0-.59.59l.28.3A.42.42 0 1 0 6.61 6z"/></svg>