<svg data-name="Layer 1" xmlns="http://www.w3.org/2000/svg" viewBox="0 0 60 52.49"><title>employees</title><g class="cls-2"><path class="cls-3" d="M36.92 38.63h-3.29a.88.88 0 1 0 0 1.76h3.29a.88.88 0 1 0 0-1.76z"/><path class="cls-3" d="M56.28 29.24l-4.79-1.85-2.44-2.44a.88.88 0 0 0-.56-.25v-1.97a9.06 9.06 0 0 0 2.3-4.49 2.52 2.52 0 0 0 .62 0 2.6 2.6 0 0 0 2-2.58v-.72a2.63 2.63 0 0 0-.77-1.87c.78-4.22.14-7.66-1.86-10s-5-3.29-9-3.08a11.77 11.77 0 0 0-6.75 2.49 4.63 4.63 0 0 0-1.81.61 4.68 4.68 0 0 0-2.14 4.35 22 22 0 0 0 .61 5.11 2.61 2.61 0 0 0-1.43 2.36v.63a2.6 2.6 0 0 0 2 2.58 2.51 2.51 0 0 0 .62 0 9.07 9.07 0 0 0 2.3 4.53v1.94a.88.88 0 0 0-.56.25l-2.44 2.44-4.75 1.96a5.82 5.82 0 0 0-1.18.62.88.88 0 1 0 1 1.45 4.06 4.06 0 0 1 .82-.43l4.43-1.74 3.4 5.1a2.51 2.51 0 0 0 1.85 1.11H38a2.51 2.51 0 0 0 1.24-.33l-.73 16.53a.88.88 0 0 0 .84.92.88.88 0 0 0 .88-.84l.68-15.34h1.82l.68 15.34a.88.88 0 0 0 .88.84.88.88 0 0 0 .84-.92l-.73-16.53a2.51 2.51 0 0 0 1.24.33H46a2.51 2.51 0 0 0 1.81-1.11l3.4-5.09 4.44 1.71a4 4 0 0 1 1.58 1.1l-3 3a5.77 5.77 0 0 0-1.7 4.11v12.5a.88.88 0 1 0 1.76 0V39.11a4 4 0 0 1 1.14-2.87l2.67-2.67a4.05 4.05 0 0 1 .14 1.23l-.68 16.77a.88.88 0 0 0 .84.91.88.88 0 0 0 .88-.84L60 34.87a5.81 5.81 0 0 0-3.72-5.63zm-21.64-11.4a1.71 1.71 0 0 0-1.78-1.39h-.2a.85.85 0 0 1-.61-.86v-.65a.83.83 0 0 1 .62-.84.76.76 0 0 1 .75.29 1.23 1.23 0 0 0 1.68.26 6.38 6.38 0 0 0 1.44-1.41.88.88 0 0 0-1.41-1 4.67 4.67 0 0 1-.68.74 2.51 2.51 0 0 0-1-.51 20.21 20.21 0 0 1-.63-5 3.08 3.08 0 0 1 1.28-2.8 2.85 2.85 0 0 1 1.31-.43.89.89 0 0 0 .59-.23 9.9 9.9 0 0 1 5.9-2.23c3.39-.18 6 .67 7.56 2.47s2.1 4.6 1.53 8.09a3.81 3.81 0 0 0-.75.05l-.83-2a.88.88 0 0 0-1-.51c-.08 0-8.2 2.08-11.6-2.16a.88.88 0 1 0-1.37 1.1c3.48 4.33 10.37 3.39 12.67 2.93l.64 1.53a1.44 1.44 0 0 0 1.67.86 1.89 1.89 0 0 1 .66 0 .83.83 0 0 1 .62.82v.64a.85.85 0 0 1-.61.86h-.2a1.71 1.71 0 0 0-1.78 1.39 7.33 7.33 0 0 1-14.43 0zm3.9 15.54a.77.77 0 0 1-1.18-.14l-3.42-5.13 1.38-1.38 5.25 4.6zM41 34.54l.05-1.21.78-.78.78.78.05 1.21zm.83-4.4L37 25.87v-1.68a9.1 9.1 0 0 0 9.75 0v1.68zm4.52 3.1a.77.77 0 0 1-1.18.12l-2-2 5.25-4.6 1.38 1.38z"/><path class="cls-3" d="M27.87 33.82l-4.29-1.87-2.35-2.35a.87.87 0 0 0-.56-.25v-1.38a9.08 9.08 0 0 0 3.94-5.91 2.53 2.53 0 0 0 .69-.07 2.62 2.62 0 0 0 1.94-2.56v-.64a2.62 2.62 0 0 0-1.13-2.16 9.94 9.94 0 0 0 .3-2.43 10.25 10.25 0 0 0-4.94-8.69 5.7 5.7 0 0 0-5.81-5.5 5.7 5.7 0 0 0-5.81 5.5 10.25 10.25 0 0 0-4.94 8.69 9.94 9.94 0 0 0 .3 2.43 2.63 2.63 0 0 0-1.12 2.18v.63A2.62 2.62 0 0 0 6.03 22a2.52 2.52 0 0 0 .69.07 9.08 9.08 0 0 0 3.94 5.91v1.38a.87.87 0 0 0-.56.25l-2.32 2.34-4.29 1.87A5.85 5.85 0 0 0 0 39.4l.52 12.24a.88.88 0 0 0 .88.84.88.88 0 0 0 .84-.92l-.48-12.24a4 4 0 0 1 .56-2.21l2.31 2.77A4.89 4.89 0 0 1 5.76 43v8.61a.88.88 0 0 0 1.76 0V43A6.65 6.65 0 0 0 6 38.75l-2.48-2.94a4 4 0 0 1 .67-.37l3.74-1.63 2.64 4.29a1.7 1.7 0 0 0 1.18.79h.27a1.7 1.7 0 0 0 1.1-.41l1.67-1.43V51.6a.88.88 0 0 0 1.76 0V37.06l1.67 1.43a1.7 1.7 0 0 0 1.1.41h.27a1.7 1.7 0 0 0 1.18-.79l2.64-4.29 3.74 1.63a4 4 0 0 1 .67.37l-2.45 2.94a6.65 6.65 0 0 0-1.54 4.25v8.61a.88.88 0 0 0 1.76 0V43a4.89 4.89 0 0 1 1.13-3.12L29 37.11a4 4 0 0 1 .56 2.21l-.52 12.25a.88.88 0 0 0 .84.92.88.88 0 0 0 .88-.84l.52-12.25a5.85 5.85 0 0 0-3.41-5.58zM15.68 1.76a4 4 0 0 1 3.91 2.81 11.15 11.15 0 0 0-7.83 0 4 4 0 0 1 3.92-2.81zM8.47 21.69a1.71 1.71 0 0 0-1.78-1.39.76.76 0 0 1-.23 0 .86.86 0 0 1-.59-.85v-.63a.83.83 0 0 1 .62-.84.76.76 0 0 1 .75.29 1.23 1.23 0 0 0 1.68.26 6.38 6.38 0 0 0 1.42-1.38.882.882 0 0 0-1.41-1.06 4.66 4.66 0 0 1-.67.72 2.52 2.52 0 0 0-1.31-.57 8.19 8.19 0 0 1-.25-2 8.8 8.8 0 0 1 9-8.58 8.8 8.8 0 0 1 9 8.58 8.18 8.18 0 0 1-.25 2 4 4 0 0 0-.68.11l-.66-.54a1.69 1.69 0 0 0-1.17-.38c-1.29.08-7.91.25-11.3-3.81a.88.88 0 1 0-1.35 1.13 12.56 12.56 0 0 0 7.3 4 21.51 21.51 0 0 0 5.43.41l1 .85a.88.88 0 0 0 1 .08 1.94 1.94 0 0 1 .87-.12.83.83 0 0 1 .62.82v.64a.86.86 0 0 1-.59.85.75.75 0 0 1-.23 0 1.71 1.71 0 0 0-1.78 1.39 7.33 7.33 0 0 1-14.43 0zM12 37.11l-2.61-4.29 1.35-1.35 3.64 3.64zm3.64-3.2l-3.23-3.23v-1.82a9.09 9.09 0 0 0 6.47 0v1.82zm3.64 3.2l-2.35-2 3.64-3.64L22 32.82z"/><path class="cls-3" d="M12.39 42.5H9.92a.88.88 0 1 0 0 1.76h2.47a.88.88 0 0 0 0-1.76z"/></g></svg>