<svg data-name="Layer 1" xmlns="http://www.w3.org/2000/svg" viewBox="0 0 60 60"><title>football-field</title><path class="cls-1" d="M44.52 58.06H31v-3.87H15.48v3.87H1.94V31h13.61a7.73 7.73 0 0 0 12.93 4.71l-1.32-1.42A5.79 5.79 0 0 1 17.51 31h9.59v-2h-9.59a5.79 5.79 0 0 1 9.66-3.29l1.32-1.42A7.73 7.73 0 0 0 15.55 29H1.94V1.94h13.54v3.87H31V1.94h13.52v10.64h1.94V0H0v60h46.45V47.42h-1.93zM17.42 1.94H29v1.93H17.42zM29 58.06H17.42v-1.93H29z"/><path class="cls-1" d="M36.77 9.68V3.87h-1.93v3.87H11.61V3.87H9.68v5.81h5.87a7.74 7.74 0 0 0 15.35 0zm-13.54 4.84a5.81 5.81 0 0 1-5.72-4.84h11.44a5.81 5.81 0 0 1-5.72 4.84zm13.54 41.61v-5.81H30.9a7.74 7.74 0 0 0-15.35 0H9.68v5.81h1.94v-3.87h23.22v3.87zm-19.26-5.81a5.8 5.8 0 0 1 11.44 0zm27.01-35.8A15.48 15.48 0 1 0 60 30a15.5 15.5 0 0 0-15.48-15.48zM56.66 24A13.44 13.44 0 0 1 58 28.55l-1.8-1.79zm-1.56-2.43l-.81 4.88-2.86 1.43-5.95-5.1V20l4.59-2.3a13.63 13.63 0 0 1 5.03 3.87zm-5 7.74l-2.37 5.53h-6.45l-2.37-5.54 5.61-4.8zm-5.58-12.86a13.51 13.51 0 0 1 3 .34l-3 1.48-3-1.48a13.51 13.51 0 0 1 3-.34zM39 17.66L43.55 20v2.83l-5.95 5.1-2.86-1.43-.81-4.88A13.63 13.63 0 0 1 39 17.66zM32.38 24l.46 2.74L31 28.55A13.41 13.41 0 0 1 32.38 24zm3.78 16.62h2.76l.47 1.89a13.57 13.57 0 0 1-3.23-1.86zm2.76-1.94h-4.77A13.49 13.49 0 0 1 31 31.3l3-3 3 1.44 2.64 6.15zm8.55 4.5a13.23 13.23 0 0 1-5.91 0l-.88-3.54.73-2.9h6.23l.73 2.9zm2.16-.68l.47-1.89h2.76a13.57 13.57 0 0 1-3.22 1.93zm5.24-3.83h-4.76l-.71-2.82 2.6-6.11 3-1.47 3 3a13.47 13.47 0 0 1-3.12 7.44z"/></svg>