<svg data-name="Layer 1" xmlns="http://www.w3.org/2000/svg" viewBox="0 0 60 58.7"><title>house-plan-scale</title><g class="cls-2"><path class="cls-3" d="M56.86 58.7a1 1 0 0 1-.7-1.69l.44-.44H11.51l.44.44a1 1 0 0 1-1.4 1.4l-2.1-2.06a1 1 0 0 1-.29-.71 1 1 0 0 1 .43-.82l2-2a1 1 0 1 1 1.4 1.4l-.44.44h45.1l-.44-.44a1 1 0 0 1 1.4-1.4l2.1 2.1a1 1 0 0 1 .29.71 1 1 0 0 1-.43.82l-2 2a1 1 0 0 1-.71.25zM3.11 51.84a1 1 0 0 1-.82-.43l-2-2a1 1 0 0 1 1.4-1.4l.44.44V3.35l-.44.44a1.004 1.004 0 0 1-1.4-1.44L2.39.29A1 1 0 0 1 3.1 0a1 1 0 0 1 .83.43l2 2a1 1 0 1 1-1.4 1.4l-.43-.48v45.1l.44-.44a1 1 0 0 1 1.4 1.4l-2.1 2.1a1 1 0 0 1-.71.29zM59 49.05H11.29a1 1 0 0 1-1-1V.99a1 1 0 0 1 1-1h28.52a1 1 0 0 1 1 1v19.16H59a1 1 0 0 1 1 1v26.91a1 1 0 0 1-1 .99zm-18.26-2H58V22.13H40.75zm-18.92 0h16.96V33.84H21.84zm-9.56 0h7.58V33.84h-7.56zm8.57-15.2h17.95V21.14a1 1 0 0 1 0-.29V10.54h-26.5v21.33zm5.67-23.3h12.3V1.97H26.52zm-14.24 0h12.28V1.97H12.28z"/></g></svg>