<svg data-name="Layer 1" xmlns="http://www.w3.org/2000/svg" viewBox="0 0 28 28"><title>key</title><path class="cls-1" d="M13 13.3a.82.82 0 0 0-1.16 0l-3.48 3.48a.82.82 0 0 0 1.16 1.16L13 14.46a.82.82 0 0 0 0-1.16z"/><path class="cls-1" d="M27.28 14.58l-.68-.68-.24-.21V5a5.07 5.07 0 0 0-5-5 4.94 4.94 0 0 0-4.55 3.08 7.35 7.35 0 0 0-8.1 8.74L.24 20.26a.82.82 0 0 0-.24.58v4.64a.82.82 0 0 0 .82.82h4.65a.82.82 0 0 0 .82-.82V24h1.48a.82.82 0 0 0 .82-.82v-1.52h1.51a.82.82 0 0 0 .58-.24l3.8-3.8a7.52 7.52 0 0 0 1.92.13v7.79A2.46 2.46 0 0 0 18.87 28h6.67A2.46 2.46 0 0 0 28 25.54v-9.22a2.44 2.44 0 0 0-.72-1.74zm-6-12.94A3.41 3.41 0 0 1 24.72 5v8.2h-2a7.38 7.38 0 0 0-4.33-9.72 3.28 3.28 0 0 1 2.94-1.84zm-3.69 7a.82.82 0 1 1-1.16 0 .82.82 0 0 1 1.21.02zm-3.21 7.26a.82.82 0 0 0-.79.21L9.76 20h-2a.82.82 0 0 0-.81.82v1.48H5.47a.81.81 0 0 0-.82.81v1.53h-3v-3.46l8.52-8.52a.82.82 0 0 0 .21-.79 5.71 5.71 0 0 1 6-7.18v2.19A2.46 2.46 0 1 0 18 7V5.08a5.73 5.73 0 0 1-3.61 10.85zm11.92 9.61a.82.82 0 0 1-.82.82h-6.61a.82.82 0 0 1-.82-.82v-8.05a7.29 7.29 0 0 0 3.08-1.83 7.4 7.4 0 0 0 .7-.8h3a.81.81 0 0 1 .58.24l.68.68a.81.81 0 0 1 .24.58z"/><path class="cls-1" d="M23.9 23.08h-3.39a.82.82 0 0 0 0 1.64h3.39a.82.82 0 1 0 0-1.64z"/></svg>