<svg data-name="Layer 1" xmlns="http://www.w3.org/2000/svg" viewBox="0 0 43 42.99"><title>key2</title><g class="cls-2"><path class="cls-3" d="M30.57 14.44a2.69 2.69 0 1 0-2.69-2.69 2.69 2.69 0 0 0 2.69 2.69z"/><path class="cls-3" d="M42.54 13.93a24.51 24.51 0 0 0-5.28-8.31A23.94 23.94 0 0 0 29 .44a6.75 6.75 0 0 0-7.16 1.55l-6.6 6.57a6.72 6.72 0 0 0-1.4 7.43c.35.78.72 1.54 1.12 2.28L.49 32.73A1.68 1.68 0 0 0 0 33.91v7.39a1.68 1.68 0 0 0 1.68 1.69h7.39a1.68 1.68 0 0 0 1.68-1.68v-3h3a1.68 1.68 0 0 0 1.68-1.68v-3h3a1.68 1.68 0 1 0 0-3.36h-4.7a1.68 1.68 0 0 0-1.68 1.68v3h-3a1.68 1.68 0 0 0-1.68 1.68v3h-4v-5l14.9-14.89a1.68 1.68 0 0 0 .25-2.06 27.2 27.2 0 0 1-1.59-3 3.34 3.34 0 0 1 .7-3.71l6.6-6.56a3.39 3.39 0 0 1 3.59-.76 20.56 20.56 0 0 1 7.06 4.34 21.13 21.13 0 0 1 4.53 7.16 3.34 3.34 0 0 1-.75 3.59L32 25.38a3.38 3.38 0 0 1-3.7.72 21.82 21.82 0 0 1-3-1.54 1.68 1.68 0 0 0-1.76 2.86A25.17 25.17 0 0 0 27 29.21a6.73 6.73 0 0 0 7.36-1.44L41 21.12a6.69 6.69 0 0 0 1.54-7.19z"/></g></svg>