<svg data-name="Layer 1" xmlns="http://www.w3.org/2000/svg" viewBox="0 0 60 60"><title>kitchen</title><path class="cls-1" d="M43 36H17a1 1 0 0 0-1 1v22a1 1 0 0 0 1 1h26a1 1 0 0 0 1-1V37a1 1 0 0 0-1-1zm-1 22H18V38h24z"/><path class="cls-1" d="M43 36H17a1 1 0 0 0-1 1v22a1 1 0 0 0 1 1h26a1 1 0 0 0 1-1V37a1 1 0 0 0-1-1zm-1 22H18V38h24z"/><path class="cls-1" d="M17 36H1a1 1 0 0 0-1 1v22a1 1 0 0 0 1 1h16a1 1 0 0 0 1-1V37a1 1 0 0 0-1-1zm-1 22H2V38h14v20zm43-22H43a1 1 0 0 0-1 1v22a1 1 0 0 0 1 1h16a1 1 0 0 0 1-1V37a1 1 0 0 0-1-1zm-1 22H44V38h14v20zM39 44H21a1 1 0 0 0-1 1v10a1 1 0 0 0 1 1h18a1 1 0 0 0 1-1V45a1 1 0 0 0-1-1zm-1 10H22v-8h16v8zm-5-14h-2v2h2zm-4 0h-2v2h2zm-4 0h-2v2h2zm12 0h-2v2h2z"/><path class="cls-1" d="M17 44H1v2h16zm-6-4H7v2h4zm0 8H7v2h4zm48-4H43v2h16z"/><path class="cls-1" d="M52 45h-2v14h2zm1-5h-4v2h4zm-5 10h-2v3h2zm8 0h-2v3h2zM42.71 16.29L39 12.59V1a1 1 0 0 0-1-1H22a1 1 0 0 0-1 1v11.59l-3.71 3.71A1 1 0 0 0 18 18h24a1 1 0 0 0 .71-1.71zM20.41 16l2.29-2.29A1 1 0 0 0 23 13V2h14v11a1 1 0 0 0 .29.71l2.3 2.29H20.41zM54 22a4 4 0 0 0-4 4v1h2v-1a2 2 0 1 1 4 0v11h2V26a4 4 0 0 0-4-4z"/><path class="cls-1" d="M57 32h-3v2h3zm-28-2H19a1 1 0 0 0-1 1v6a1 1 0 0 0 1 1h10a1 1 0 0 0 1-1v-6a1 1 0 0 0-1-1zm-1 6h-8v-4h8z"/><path class="cls-1" d="M19 32h-3v2h3zm13 0h-3v2h3zM17 0H1a1 1 0 0 0-1 1v12a1 1 0 0 0 1 1h16a1 1 0 0 0 1-1V1a1 1 0 0 0-1-1zm-1 12H2V2h14v10z"/><path class="cls-1" d="M14 6h-2v4h2zm45-6H43a1 1 0 0 0-1 1v12a1 1 0 0 0 1 1h16a1 1 0 0 0 1-1V1a1 1 0 0 0-1-1zm-1 12H44V2h14v10z"/><path class="cls-1" d="M48 6h-2v4h2zM18 20H0v2h18z"/><path class="cls-1" d="M4 18H2v9h2z"/><path class="cls-1" d="M3 26a3 3 0 1 0 3 3 3 3 0 0 0-3-3zm0 4a1 1 0 1 1 1-1 1 1 0 0 1-1 1zm5-12H6v9h2z"/><path class="cls-1" d="M7 26a3 3 0 1 0 3 3 3 3 0 0 0-3-3zm0 4a1 1 0 1 1 1-1 1 1 0 0 1-1 1zm5-12h-2v9h2z"/><path class="cls-1" d="M11 26a3 3 0 1 0 3 3 3 3 0 0 0-3-3zm0 4a1 1 0 1 1 1-1 1 1 0 0 1-1 1z"/></svg>