<svg data-name="Layer 1" xmlns="http://www.w3.org/2000/svg" viewBox="0 0 30.18 32"><title>question</title><path class="cls-1" d="M28.71 25a5.64 5.64 0 0 0-4.62-4.41l-5.38-.9v-.78a9.81 9.81 0 1 0-7.23 0v.78l-5.39.9A5.64 5.64 0 0 0 1.47 25L0 32h30.18zm-8.11-4l-1.63 4.88-3.13-2.68 2.52-2.52zm-5.51 1.5l-2.58-2.58v-.66a9.53 9.53 0 0 0 5.16 0v.66zM6.32 9.81a8.77 8.77 0 1 1 8.77 8.77 8.78 8.78 0 0 1-8.77-8.77zm5.5 10.88l2.52 2.52-3.13 2.74-1.63-4.88zM12.64 31h-7.3l.45-4.07-1-.11L4.31 31h-3l1.21-5.74a4.62 4.62 0 0 1 3.78-3.62l2.28-.38 2.17 6.51 1.57-1.37 1.17 1.6zm1.07 0l.92-3.2-1.54-2.11 2-1.75 2 1.75-1.56 2.08.92 3.2zm11.7-4.19l-1 .11.43 4.08h-7.3l-.85-3 1.21-1.61 1.57 1.37 2.17-6.51 2.28.38a4.62 4.62 0 0 1 3.78 3.63L28.91 31h-3z"/><path class="cls-1" d="M14.83 3.1a2.84 2.84 0 0 0-2.84 2.84v.26h1v-.26a1.81 1.81 0 0 1 3.61 0v.33a1.8 1.8 0 0 1-.51 1.27l-1.52 1.54v2.79h1V9.5l1.23-1.23a2.82 2.82 0 0 0 .83-2v-.33a2.84 2.84 0 0 0-2.8-2.84zm.26 10.32A1.55 1.55 0 1 0 16.64 15a1.55 1.55 0 0 0-1.55-1.58zm0 2.06a.52.52 0 1 1 .52-.52.52.52 0 0 1-.52.52z"/></svg>