<svg data-name="Layer 1" xmlns="http://www.w3.org/2000/svg" viewBox="0 0 42.26 60"><title>ribbon</title><g class="cls-2"><path class="cls-3" d="M12.92 14.06a1.17 1.17 0 1 0-1.17-1.17 1.17 1.17 0 0 0 1.17 1.17z"/><path class="cls-3" d="M42.25 21.13a6.17 6.17 0 0 0-2.92-5.24 6.17 6.17 0 0 0-4.66-8.31 6.17 6.17 0 0 0-8.31-4.66 6.16 6.16 0 0 0-10.48 0 6.16 6.16 0 0 0-8.31 4.66 6.17 6.17 0 0 0-4.67 8.31 6.16 6.16 0 0 0 0 10.48 6.17 6.17 0 0 0 4.66 8.31 6.13 6.13 0 0 0 3 4.27v19.88a1.17 1.17 0 0 0 2 .83l8.53-8.55 8.55 8.55a1.17 1.17 0 0 0 2-.83V38.95a6.07 6.07 0 0 0 3-4.26 6.17 6.17 0 0 0 4.68-8.32 6.17 6.17 0 0 0 2.93-5.24zM12.92 39.72a6.28 6.28 0 0 0 .72 0 6.16 6.16 0 0 0 1.62-.22v14.16L12.92 56zm7.37 8.91l-2.69 2.69V41.15a6.14 6.14 0 0 0 7 0v10.16l-2.69-2.69a1.17 1.17 0 0 0-1.61 0zm6.69 5V39.54a6.1 6.1 0 0 0 2.34.17V56zm10.38-28.9a1.17 1.17 0 0 0-.59 1.76 3.82 3.82 0 0 1-3.17 5.94 1.17 1.17 0 0 0-1.17 1.18 3.76 3.76 0 0 1-2.34 3.52 3.82 3.82 0 0 1-3.57-.36 1.17 1.17 0 0 0-.55-.19h-.12a1.17 1.17 0 0 0-1.15.95 3.83 3.83 0 0 1-3.61 2.38 3.77 3.77 0 0 1-3.57-2.51 1.15 1.15 0 0 0-.2-.38l-.07-.09-.07-.07a1.17 1.17 0 0 0-1.38-.05 3.82 3.82 0 0 1-6-3.16 1.17 1.17 0 0 0-1.17-1.17 3.82 3.82 0 0 1-3.17-5.94 1.17 1.17 0 0 0-.59-1.76 3.82 3.82 0 0 1 0-7.21 1.17 1.17 0 0 0 .59-1.76 3.82 3.82 0 0 1 3.17-5.94A1.17 1.17 0 0 0 9.8 8.69a3.81 3.81 0 0 1 5.93-3.17 1.17 1.17 0 0 0 1.76-.59 3.82 3.82 0 0 1 7.21 0 1.17 1.17 0 0 0 1.76.59 3.82 3.82 0 0 1 5.94 3.17 1.17 1.17 0 0 0 1.17 1.17 3.82 3.82 0 0 1 3.17 5.94 1.17 1.17 0 0 0 .59 1.76 3.82 3.82 0 0 1 0 7.21z"/><path class="cls-3" d="M21.09 8.2a12.85 12.85 0 0 0-4.79.92 1.174 1.174 0 0 0 .87 2.18 10.54 10.54 0 1 1-5.87 5.87 1.174 1.174 0 0 0-2.18-.87 12.89 12.89 0 1 0 11.97-8.1z"/><path class="cls-3" d="M26.98 21.09a1.17 1.17 0 0 0 2.34 0 8.21 8.21 0 0 0-8.2-8.2 1.17 1.17 0 1 0 0 2.34 5.87 5.87 0 0 1 5.86 5.86z"/></g></svg>