<svg data-name="Layer 1" xmlns="http://www.w3.org/2000/svg" viewBox="0 0 23.64 26"><title>ruble-currency-sign</title><path class="cls-1" d="M.59 21.86h4.14v3.55a.57.57 0 0 0 .59.59H8.4a.58.58 0 0 0 .42-.17.56.56 0 0 0 .18-.42v-3.55h9.32a.57.57 0 0 0 .59-.59v-2.36a.57.57 0 0 0-.59-.59H8.99v-2.18h6.28a8.32 8.32 0 0 0 6-2.25 7.72 7.72 0 0 0 2.34-5.82 7.73 7.73 0 0 0-2.34-5.82 8.33 8.33 0 0 0-6-2.25H5.32a.57.57 0 0 0-.59.59v11.62H.59a.56.56 0 0 0-.42.18.58.58 0 0 0-.17.42v2.75a.57.57 0 0 0 .59.59h4.14v2.18H.59a.57.57 0 0 0-.59.59v2.36a.57.57 0 0 0 .59.59zm8.4-17.93h5.91a4.39 4.39 0 0 1 3.16 1.14 4 4 0 0 1 1.2 3 3.94 3.94 0 0 1-1.2 3 4.38 4.38 0 0 1-3.16 1.15H8.99z"/></svg>