<svg id="Layer_1" data-name="Layer 1" xmlns="http://www.w3.org/2000/svg" viewBox="0 0 50 50"><defs><style>.cls-1{fill:#eed26a}.cls-2{fill:#d97077}.cls-3{fill:#ca6168}.cls-4{fill:#fff}</style></defs><title>back1</title><path class="cls-1" d="M25 50A25 25 0 1 0 0 25a25 25 0 0 0 25 25z"/><path class="cls-2" d="M25 50A25 25 0 1 0 0 25a25 25 0 0 0 25 25z"/><path class="cls-3" d="M49.11 31.65l-9.22-9.07h-5l-8.93-7-11 7.11-1 6.26 19.8 19.49a25.06 25.06 0 0 0 15.35-16.79z"/><path class="cls-4" d="M10.05 25.12l12.76 12.64 3.3-3.35-7.18-7 21-.16v-4.7l-21 .16L26 15.57l-3.35-3.3z"/></svg>