<svg id="Layer_1" data-name="Layer 1" xmlns="http://www.w3.org/2000/svg" viewBox="0 0 35.72 40"><defs><style>.cls-1{fill:url(#linear-gradient)}</style><linearGradient id="linear-gradient" x1="6.24" y1="7.44" x2="35.19" y2="36.39" gradientTransform="matrix(1 0 0 -1 0 42)" gradientUnits="userSpaceOnUse"><stop offset="0" stop-color="#41dfd0"/><stop offset="1" stop-color="#ee83ef"/></linearGradient></defs><title>battery</title><path class="cls-1" d="M16.43 12.86a.71.71 0 0 0-.71.71v2.14h-2.86A2.86 2.86 0 0 0 10 18.57v18.57A2.86 2.86 0 0 0 12.86 40h12.85a2.86 2.86 0 0 0 2.86-2.86V18.57a2.86 2.86 0 0 0-2.86-2.86h-2.85v-2.14a.71.71 0 0 0-.71-.71H20v-5h5.71A4.29 4.29 0 0 0 30 3.57V.71a.71.71 0 0 0-.72-.71h-6.42a4.29 4.29 0 0 0-4.29 4.29 3.54 3.54 0 0 0-2.14-.73h-5a.71.71 0 0 0-.71.71v2.16A3.58 3.58 0 0 0 14.28 10h4.29v2.86zM20 5.71V4.29a2.86 2.86 0 0 1 2.86-2.86h5.71v2.14a2.86 2.86 0 0 1-2.86 2.86H20zm-2.86 8.57h1.43v1.43h-1.43zm2.86 0h1.43v1.43H20zm0 2.86h5.71a1.43 1.43 0 0 1 1.43 1.43v18.57a1.43 1.43 0 0 1-1.43 1.43H12.86a1.43 1.43 0 0 1-1.43-1.43V18.57a1.43 1.43 0 0 1 1.43-1.43h5.71v1.43h-5a.71.71 0 0 0-.71.71v17.15a.71.71 0 0 0 .71.71H25a.71.71 0 0 0 .71-.71V19.29a.71.71 0 0 0-.71-.71h-5zM18.57 20v2.86h-4.29V20zm-4.29 11.43v-2.86h10v2.86zm10 1.43v2.86h-10v-2.86zM20 20h4.29v2.86H20zM14.28 8.57a2.14 2.14 0 0 1-2.14-2.14V5h4.29a2.14 2.14 0 0 1 2.14 2.14v1.43zm10 15.71v2.86h-10v-2.85zm5-13.57a.71.71 0 0 0 .49.68 4.14 4.14 0 0 1 2.54 2.4l.59 1.47a.71.71 0 0 0 1.33 0l.59-1.48a4.15 4.15 0 0 1 2.54-2.4.71.71 0 0 0 0-1.36 4.71 4.71 0 0 1-2.74-2.38l-.41-.83a.74.74 0 0 0-1.28 0l-.42.84A4.71 4.71 0 0 1 29.78 10a.71.71 0 0 0-.5.71zm4.29-2a6.13 6.13 0 0 0 2 2 5.56 5.56 0 0 0-2 2.36 5.56 5.56 0 0 0-2-2.36 6.13 6.13 0 0 0 2-2.01zm-23.35 4.18a4.71 4.71 0 0 1-2.74-2.38l-.41-.84a.74.74 0 0 0-1.28 0l-.42.84a4.71 4.71 0 0 1-2.74 2.38.71.71 0 0 0 0 1.36 4.14 4.14 0 0 1 2.54 2.4l.59 1.47a.71.71 0 0 0 1.33 0l.59-1.48a4.15 4.15 0 0 1 2.54-2.4.71.71 0 0 0 0-1.36zm-3.8 3a5.56 5.56 0 0 0-2-2.36 6.13 6.13 0 0 0 2-2 6.13 6.13 0 0 0 2 2 5.56 5.56 0 0 0-1.99 2.41z" transform="translate(-2.14)"/></svg>