<svg id="Layer_1" data-name="Layer 1" xmlns="http://www.w3.org/2000/svg" viewBox="0 0 39.97 40"><defs><style>.cls-1{fill:none}.cls-2{clip-path:url(#clip-path)}.cls-3{fill:url(#linear-gradient)}</style><clipPath id="clip-path" transform="translate(-.03)"><path class="cls-1" d="M0 0h40v40H0z"/></clipPath><linearGradient id="linear-gradient" x1="5.23" y1="3.92" x2="35.13" y2="33.82" gradientTransform="matrix(1 0 0 -1 0 42)" gradientUnits="userSpaceOnUse"><stop offset="0" stop-color="#41dfd0"/><stop offset="1" stop-color="#ee83ef"/></linearGradient></defs><title>combustible</title><g class="cls-2"><path class="cls-3" d="M9.36 32A2.66 2.66 0 1 0 12 34.64 2.66 2.66 0 0 0 9.36 32zm0 4a1.33 1.33 0 1 1 1.33-1.33A1.33 1.33 0 0 1 9.36 36zm21.32-4a2.66 2.66 0 1 0 2.66 2.66A2.66 2.66 0 0 0 30.67 32zm0 4A1.33 1.33 0 1 1 32 34.64 1.33 1.33 0 0 1 30.67 36zm8.66-22h-2.76l.64-1a.67.67 0 0 0 .09-.53l-.67-2.66a.67.67 0 0 0-.12-.24.64.64 0 0 0-.21-.16h-.08l-2.73-.73a.66.66 0 0 0-.29 0l-2.53.51V7.33a.67.67 0 0 0-.25-.52L27.1 4.14a.67.67 0 0 0-.83 0L23.93 6l.71-1.77a.57.57 0 0 0 0-.34.64.64 0 0 0 0-.12l-.67-2a.67.67 0 0 0-.38-.41L20.27 0a.68.68 0 0 0-.5 0l-3.33 1.38a.67.67 0 0 0-.31.25l-1 1.55L12.27 2a.67.67 0 0 0-.72.15L8.22 5.52a.66.66 0 0 0-.11.15v.05a.63.63 0 0 0 0 .11.61.61 0 0 0-.11.07.79.79 0 0 0 0 .18l.57 2.72-2.68.53a.67.67 0 0 0-.42.28l-1.33 2a.67.67 0 0 0 0 .67L4.95 14H.7a.67.67 0 0 0-.67.67v2.66A.67.67 0 0 0 .7 18H2v15.31a.67.67 0 0 0 .7.69h1.37a5.33 5.33 0 1 0 10.57 0h2.86l.5 2.13a.67.67 0 0 0 .65.5h2.66a.67.67 0 0 0 .65-.5l.58-2.13h2.86A5.33 5.33 0 1 0 36 34h1.5a.67.67 0 0 0 .67-.67L38 18h1.33a.67.67 0 0 0 .67-.67v-2.68a.67.67 0 0 0-.67-.65zM36 12.53L35 14h-3.53l1.29-1.47 2.8-1.53zm-5.54-1.94l2.86-.59.87.22L32 11.41a.67.67 0 0 0-.18.15l-1.68 1.92-.69-1.48zM24 7.65l2.66-2.13 2.66 2.13v1.17L27 7.42a.67.67 0 0 0-.71 0l-2 1.33a.67.67 0 0 0-.28.39v.08zm4.18 3.86l-1.57 1-1.84-.92.47-1.9 1.43-1 2.37 1.42zm.75 2.49h-4.77l.21-1.07 2 1a.67.67 0 0 0 .67 0l1.38-.93zm-8.44-4.64l1.62 1.3h-1.59l-2.66.67a.67.67 0 0 0-.37.25l-1.35 1.8-.7-1.4 1-2.05zm-3.59-.83l.22-.9 1.35.67zm4.9.18l.87-.58v1.28zm-3.4 3.87l2.36-.58h2.44l-.4 2h-5.45zm3.73-5.69l-1.5 1-3-1.49.82-1.22L20.78 4l2.32.47zm-5-4.35L20 1.38l2.8 1.12.2.62-2.2-.44a.66.66 0 0 0-.43.06l-2.65 1.33a.67.67 0 0 0-.26.23l-.7 1-.64-1.3zm-4.94.91l2.69 1.08.63 1.27-2.71-.46h-2.5zm.45 3.22l3.23.54-.42 1.67-2.15 1.06-3.36-1.12-.44-2.16zm.7 5.83L13 11.25h.12a.67.67 0 0 0 .51 0l.88-.44-.44.88a.67.67 0 0 0 0 .6l.85 1.7H12.6l.64-1a.67.67 0 0 0 .1-.5zm-1.36 0L11 14H7.49l1.29-1.47 2.8-1.53zm-5.55-1.91L9.31 10l.79.27L8 11.41a.67.67 0 0 0-.18.15l-1.64 1.91L5.47 12zm-3.06 22V30h3.41a5.36 5.36 0 0 0-2.36 2.66zm6 6a4 4 0 1 1 4-4 4 4 0 0 1-4.01 4.05zm5.33-6h-.39A5.36 5.36 0 0 0 11.93 30h2.75zm0-4H3.36V26h11.33zm0-4H3.36V22h11.33zm0-4H3.36V18h11.33zm6.13 14.71H19.2l-.33-1.3h2.29zm3.18-14v11.34H16V18h8zm1.33 11.32V30h2.76a5.36 5.36 0 0 0-2.36 2.66zM36.67 22v2.66H25.35V22zm-11.32-1.35V18h11.32v2.66zM36.67 26v2.66H25.35V26zm-6 12.66a4 4 0 1 1 4-4 4 4 0 0 1-4 3.98zm5-6h-.09A5.35 5.35 0 0 0 33.25 30h3.55v2.66zm3-16H1.36v-1.34h37.3zm-20 4h-1.32v-1.34h1.33zm0 2.66h-1.32V22h1.33zm0 2.66h-1.32v-1.33h1.33zm0 2.66h-1.32v-1.33h1.33zm0 2.66h-1.32V30h1.33zm4-10.66h-1.32v-1.32h1.33zm0 2.66h-1.32V22h1.33zm0 2.66h-1.32v-1.31h1.33zm0 2.66h-1.32v-1.31h1.33zm0 2.66h-1.32V30h1.33z" transform="translate(-.03)"/></g></svg>