<svg id="Layer_1" data-name="Layer 1" xmlns="http://www.w3.org/2000/svg" viewBox="0 0 150 150"><defs><style>.cls-1{fill:none;stroke:#e6c7ff;stroke-width:5px}.cls-2{fill:#e6c7ff}</style></defs><title>diet</title><circle class="cls-1" cx="75" cy="75" r="72.5"/><path class="cls-2" d="M68.66 57.84a4.56 4.56 0 0 0-7.92 3 1.46 1.46 0 0 0 1.44 1.49 1.46 1.46 0 0 0 1.46-1.44 1.63 1.63 0 0 1 1.66-1.6 1.61 1.61 0 0 1 1.17.53 1.46 1.46 0 1 0 2.16-2zm7.8 4.78a4.18 4.18 0 0 0-7.77.19 1.46 1.46 0 1 0 2.75 1 1.26 1.26 0 0 1 1.56-.73 1.24 1.24 0 0 1 .72.68 1.46 1.46 0 0 0 2.7-1.15zm9.44-12.98a1.46 1.46 0 0 0-2.07 0L82.45 51a1.46 1.46 0 0 0 2.07 2.07l1.38-1.38a1.46 1.46 0 0 0 0-2.05zm-9.11 18.91h-2a1.46 1.46 0 1 0 0 2.93h2a1.46 1.46 0 0 0 0-2.93zm14.97 0h-2a1.46 1.46 0 0 0 0 2.93h2a1.46 1.46 0 0 0 0-2.93z"/><path class="cls-2" d="M130 95l-.38-2.06a2.78 2.78 0 0 0-2.73-2.27 2.81 2.81 0 0 0-.5 0l-7.76 1.43 3.52-2.35a2.77 2.77 0 0 0 .87-3.67l-1.06-1.88a2.77 2.77 0 0 0-2.78-1.39 37.11 37.11 0 0 0 .59-6.62 2.45 2.45 0 0 0-1.52-2.19 11.23 11.23 0 0 0 .09-8.5 1.75 1.75 0 0 0-.4-.6 1.77 1.77 0 0 0-.6-.39 11.15 11.15 0 0 0-4.14-.8h-.54a7.72 7.72 0 0 0-9.31-7.19 12.06 12.06 0 0 0-.68-6.45 1.8 1.8 0 0 0-1-1 12 12 0 0 0-10.88 1 14.49 14.49 0 0 0-3.45-5.52 2.49 2.49 0 0 0-3.52 0l-7.09 7.11a7.36 7.36 0 0 0-4.91-1.87 7.41 7.41 0 0 0-5.3 2.21 7.36 7.36 0 0 0-5.46-.39V46.1a6.92 6.92 0 0 0-6.78-6.91v-3.1a2.44 2.44 0 0 0 2-2.4v-7a2.44 2.44 0 0 0-2.44-2.44h-11.9a2.44 2.44 0 0 0-2.44 2.44v7a2.44 2.44 0 0 0 2 2.4v3.11a6.92 6.92 0 0 0-6.78 6.91v42.75A14 14 0 0 0 30 99.26c0 8 7 14.54 15.68 14.54h58.63a6.7 6.7 0 0 0 6.63-7.75l11.71 2.11a2.81 2.81 0 0 0 .49 0 2.78 2.78 0 0 0 2.75-2.37l.32-2.13a2.77 2.77 0 0 0-2.13-3.11l-4.08-.93 7.76-1.43A2.77 2.77 0 0 0 130 95zm-16.79-28.4a8.21 8.21 0 0 1 2.58.41 8.3 8.3 0 0 1-.7 6.74h-3.95l1.26-1.26a1.46 1.46 0 0 0-2.07-2.07l-.67.67a6.8 6.8 0 0 0-1.58-2.7 8.19 8.19 0 0 1 5.13-1.79zm-8.26-7.34a4.81 4.81 0 0 1 4.8 4.81v.15a11.13 11.13 0 0 0-4.18 2.48c-.19-.07-.39-.14-.59-.2a6.79 6.79 0 0 0-4-5 4.79 4.79 0 0 1 3.97-2.23zm-7.75-8.15a9.08 9.08 0 0 1 2.92.48 9.18 9.18 0 0 1-.36 6.76A7.78 7.78 0 0 0 97.88 61a6.91 6.91 0 0 0-.78.09 6.84 6.84 0 0 0-3.1 1.37 7.75 7.75 0 0 0-1.11-1.54l3.36-3.37a1.46 1.46 0 0 0-2.07-2.07l-3.67 3.68a7.66 7.66 0 0 0-2.25-.67 9.14 9.14 0 0 1 9-7.39zM86 73.76h-1.29a1.46 1.46 0 0 0-2.73 0h-1.49A1.46 1.46 0 0 0 78.2 72l-1.38 1.38a1.46 1.46 0 0 0-.29.42h-3a11.59 11.59 0 0 1-1.88-5.91h23.26A11.59 11.59 0 0 1 93 73.76h-3.1a1.46 1.46 0 0 0-.29-.42L88.26 72A1.46 1.46 0 0 0 86 73.76zm-3.41-8.84a4.79 4.79 0 0 1 9.26 0zm3-18a11.59 11.59 0 0 1 2.77 5.17 12.06 12.06 0 0 0-1.86 2.67 1.45 1.45 0 0 0-.76-.22h-2a1.46 1.46 0 1 0 0 2.93h1.71a12.13 12.13 0 0 0-.23 1.23 7.66 7.66 0 0 0-1.66.65 7.39 7.39 0 0 0-4.51-3.44 7.41 7.41 0 0 0-.56-1.91zm-26.5 13.2a4.46 4.46 0 0 1 3.45-5.89 4.52 4.52 0 0 1 .77-.07 4.43 4.43 0 0 1 2.67.89 1.46 1.46 0 0 0 2.1-.36 4.44 4.44 0 0 1 3-1.94 4.52 4.52 0 0 1 .77-.07 4.44 4.44 0 0 1 4.39 3.69 4.49 4.49 0 0 1 .06.76 1.46 1.46 0 0 0 1.34 1.46 4.46 4.46 0 0 1 3.68 2.63 7.72 7.72 0 0 0-1.69 3.7h-8.41a2.49 2.49 0 0 0-2.3 1.55 11.18 11.18 0 0 0-10.42-1.13 1.78 1.78 0 0 0-1 1 11.22 11.22 0 0 0-.68 2.6 4.46 4.46 0 0 1 1.49-7 1.46 1.46 0 0 0 .78-1.82zm4.37 13.23l.4.4h-3.52a8.3 8.3 0 0 1-.27-5.87 8.25 8.25 0 0 1 8.43 2 8.3 8.3 0 0 1 .58.65 14.47 14.47 0 0 0 1.12 3.21H68l-2.46-2.47a1.46 1.46 0 0 0-2.07 2.07zm-6.24.4H52a4.82 4.82 0 0 1 2.27-3.34 7.36 7.36 0 0 0 2.67 2.21 11.32 11.32 0 0 0 .28 1.14zM42.43 27.13h10.94v6.06H42.43zm8.91 9v3.07h-6.88v-3.08zM37.68 52h9.51a1.46 1.46 0 1 0 0-2.93h-9.51v-3a4 4 0 0 1 4-4h12.47a4 4 0 0 1 4 4v3h-2.76a1.46 1.46 0 0 0 0 2.93h2.74v1.3A7.38 7.38 0 0 0 56 59.89a7.4 7.4 0 0 0-3.1 7.36c0 .17.07.33.11.5a7.77 7.77 0 0 0-2 1.53H37.68zm0 20.17h11.68a7.69 7.69 0 0 0-.36 1.59h-.25a2.45 2.45 0 0 0-2.45 2.45A37.06 37.06 0 0 0 47 83c-.42 0-.85-.05-1.29-.05a13.35 13.35 0 0 0-4.75.79c-2 .78-2.52 1.89-2.64 2.66l-.62.33zm18.55 18a5.54 5.54 0 0 1 1 1h-.05a9.1 9.1 0 0 1-4-1.27 10.56 10.56 0 0 1-1.68-1.14 1.46 1.46 0 0 0-1.89 0A10.5 10.5 0 0 1 47.94 90a9.1 9.1 0 0 1-4 1.27h-.05a5.54 5.54 0 0 1 1-1 1.46 1.46 0 0 0-.74-2.6 7 7 0 0 1-2.76-.8 8.34 8.34 0 0 1 4.28-.89 9.13 9.13 0 0 1 4.16.81 1.47 1.47 0 0 0 1.43 0 9.14 9.14 0 0 1 4.16-.81 8.34 8.34 0 0 1 4.28.89 7 7 0 0 1-2.76.8 1.47 1.47 0 0 0-.75 2.6zM53.29 108l.05.27a6.67 6.67 0 0 0 1.05 2.55h-8.71c-7 0-12.76-5.21-12.76-11.61a11.51 11.51 0 0 1 6.61-10.17 6.29 6.29 0 0 0 1.68.86 3.47 3.47 0 0 0-.49 1.45 2.39 2.39 0 0 0 .58 1.81 3.33 3.33 0 0 0 2.61 1 12.1 12.1 0 0 0 5.43-1.64q.64-.35 1.21-.75.57.39 1.21.75a12.1 12.1 0 0 0 5.43 1.64 3.32 3.32 0 0 0 2.61-1 2.38 2.38 0 0 0 .58-1.81 3.47 3.47 0 0 0-.47-1.35 6.3 6.3 0 0 0 1.68-.86 11.85 11.85 0 0 1 6.28 7.54l-10.36 3.94a6.7 6.7 0 0 0-4.22 7.38zm53.94 1.45a3.79 3.79 0 0 1-2.92 1.36h-1.54l-1-5.19a1.47 1.47 0 1 0-2.88.53l.86 4.65h-5l-.65-3.51a1.46 1.46 0 1 0-2.88.53l.55 3H80.05l-.88-4.76a1.46 1.46 0 1 0-2.88.53l.78 4.23H60a3.79 3.79 0 0 1-3.73-3.09l-.05-.27a3.77 3.77 0 0 1 2.38-4.21l5.76-2.19.43 2.31a1.47 1.47 0 0 0 1.44 1.2h.27a1.47 1.47 0 0 0 1.17-1.71l-.53-2.84 8.55-3.25a1.46 1.46 0 0 0-1-2.74l-4 1.51a14.84 14.84 0 0 0-7.78-9.14c-.12-.77-.67-1.88-2.64-2.66a13.35 13.35 0 0 0-4.83-.74 14.86 14.86 0 0 0-3.41.38v-.88a1.46 1.46 0 0 0-2.37-1.15 34.23 34.23 0 0 1-.38-4.65H97a1.46 1.46 0 1 0 0-2.93h-.6a14.5 14.5 0 0 0 1.46-6.35 2.49 2.49 0 0 0-2.25-2.48 3.86 3.86 0 0 1 2-1 4 4 0 0 1 .67-.06 3.87 3.87 0 0 1 3.82 3.22 3.93 3.93 0 0 1 .06.66 1.47 1.47 0 0 0 1.34 1.46 3.88 3.88 0 0 1 3.48 3.2 3.82 3.82 0 0 1 0 1.35h-1.57a1.46 1.46 0 1 0 0 2.93h11.39a33.77 33.77 0 0 1-1 7.86l-7.94 4.69A6.72 6.72 0 0 0 99 84.82L82.6 91a1.46 1.46 0 0 0 1 2.74l2.15-.82.67 3.61a1.47 1.47 0 0 0 1.44 1.2h.27A1.46 1.46 0 0 0 89.35 96l-.77-4.13L100 87.56a3.8 3.8 0 0 1 3.21.24 3.76 3.76 0 0 1 1.87 2.6l3 16a3.75 3.75 0 0 1-.85 3.09zM112.46 98a1.47 1.47 0 0 0-.06 2.87l10.91 2.5-.27 1.83-12.64-2.27-2-10.67 11-6.5.92 1.62-9.32 6.23a1.46 1.46 0 0 0 1.08 2.66l14.59-2.68.32 1.75z"/></svg>