<svg id="Layer_1" data-name="Layer 1" xmlns="http://www.w3.org/2000/svg" viewBox="0 0 80 80"><defs><style>.cls-1{fill:none}.cls-2{clip-path:url(#clip-path)}.cls-3{opacity:.12}.cls-4{fill:#f44336}.cls-5{fill:#fafafa}</style><clipPath id="clip-path"><path class="cls-1" d="M0 0h80v80H0z"/></clipPath></defs><title>discount</title><g class="cls-2"><g class="cls-3"><path class="cls-4" d="M76.32 40l3.51-9.15a2.5 2.5 0 0 0-.76-2.85l-7.61-6.17-1.54-9.68a2.5 2.5 0 0 0-2.08-2.07l-9.68-1.54L52 .93a2.5 2.5 0 0 0-2.84-.76L40 3.68 30.85.17A2.49 2.49 0 0 0 28 .93l-6.16 7.61-9.68 1.54a2.5 2.5 0 0 0-2.07 2.07l-1.55 9.69L.93 28a2.5 2.5 0 0 0-.76 2.83L3.68 40 .17 49.16A2.49 2.49 0 0 0 .93 52l7.61 6.16 1.54 9.68a2.5 2.5 0 0 0 2.07 2.08l9.68 1.54L28 79.07a2.49 2.49 0 0 0 2.84.76l9.16-3.5 9.15 3.51a2.5 2.5 0 0 0 2.85-.77l6.16-7.61 9.68-1.54a2.5 2.5 0 0 0 2.08-2.08l1.54-9.68L79.07 52a2.5 2.5 0 0 0 .76-2.83z"/><path class="cls-5" d="M32.5 35a7.5 7.5 0 1 1 7.5-7.5 7.51 7.51 0 0 1-7.5 7.5zm0-10a2.5 2.5 0 1 0 2.5 2.5 2.5 2.5 0 0 0-2.5-2.5zm15 35a7.5 7.5 0 1 1 7.5-7.5 7.51 7.51 0 0 1-7.5 7.5zm0-10a2.5 2.5 0 1 0 2.5 2.5 2.51 2.51 0 0 0-2.5-2.5zm-20 10a2.5 2.5 0 0 1-2-4l25-35a2.5 2.5 0 0 1 4.04 3l-25 35a2.51 2.51 0 0 1-2.04 1z"/></g></g></svg>