<svg id="Layer_1" data-name="Layer 1" xmlns="http://www.w3.org/2000/svg" viewBox="0 0 26.09 32"><defs><style>.cls-1{fill:none}.cls-2{clip-path:url(#clip-path)}.cls-3{fill:#ff6536}.cls-4{fill:#ff421d}.cls-5{fill:#fbbf00}.cls-6{fill:#ffa900}</style><clipPath id="clip-path" transform="translate(-2.95)"><path class="cls-1" d="M0 0h32v32H0z"/></clipPath></defs><title>fire</title><g class="cls-2"><path class="cls-3" d="M3.39 15.61A13.11 13.11 0 0 0 7.3 19S5.38 2.82 17.89 0C14.68 11.76 22 15.07 24.62 8.86c4.43 5.92 1.07 11.08 1.07 11.08 1.81.26 3.31-1.72 3.31-1.72v.74a13 13 0 1 1-25.61-3.35z" transform="translate(-2.95)"/><path class="cls-4" d="M29 18.22s-1.53 2-3.34 1.72c0 0 3.36-5.16-1.07-11.08-2.59 6.21-9.91 2.9-6.7-8.86A14 14 0 0 0 16 .56V32a13 13 0 0 0 13-13v-.78z" transform="translate(-2.95)"/><path class="cls-5" d="M10.28 26.28A5.72 5.72 0 1 0 19.82 22c-2.21 3-5.36-1.55-2.91-4.88 0 .02-6.63.88-6.63 9.16z" transform="translate(-2.95)"/><path class="cls-6" d="M21.72 26.28a5.71 5.71 0 0 0-1.9-4.28c-2.21 3-5.36-1.55-2.91-4.88a5.75 5.75 0 0 0-.91.22V32a5.72 5.72 0 0 0 5.72-5.72z" transform="translate(-2.95)"/></g></svg>