<svg id="Layer_1" data-name="Layer 1" xmlns="http://www.w3.org/2000/svg" viewBox="0 0 150 150"><defs><style>.cls-1{fill:#e6c7ff}</style></defs><title>kremlin</title><path class="cls-1" d="M75.07 79.43a8.68 8.68 0 1 0 8.68 8.68 8.69 8.69 0 0 0-8.68-8.68zm0 13.84a5.16 5.16 0 1 1 5.16-5.16 5.16 5.16 0 0 1-5.16 5.15zm-12.73 18.81a1.76 1.76 0 0 0-1.76 1.76v3.32a1.76 1.76 0 0 0 3.52 0v-3.32a1.76 1.76 0 0 0-1.76-1.76zm6.43 0a1.76 1.76 0 0 0-1.77 1.76v3.32a1.76 1.76 0 0 0 3.52 0v-3.32a1.76 1.76 0 0 0-1.75-1.76zm6.44 0a1.76 1.76 0 0 0-1.76 1.76v3.32a1.76 1.76 0 0 0 3.52 0v-3.32a1.76 1.76 0 0 0-1.76-1.76zm6.43 0a1.76 1.76 0 0 0-1.76 1.76v3.32a1.76 1.76 0 0 0 3.52 0v-3.32a1.76 1.76 0 0 0-1.76-1.76zm6.43 0a1.76 1.76 0 0 0-1.76 1.76v3.32a1.76 1.76 0 0 0 3.52 0v-3.32a1.76 1.76 0 0 0-1.76-1.76zM79.95 9.15A1.76 1.76 0 0 0 77.83 8l-.94.25-.06-1a1.76 1.76 0 0 0-3.52 0l-.06 1-.94-.25a1.76 1.76 0 0 0-1.09 3.34l.91.35-.52.82a1.76 1.76 0 0 0 2.85 2.07l.62-.75.62.75a1.76 1.76 0 0 0 2.85-2.07l-.55-.83.91-.35a1.76 1.76 0 0 0 1.04-2.18z"/><path class="cls-1" d="M77.84 86.34h-1v-1a1.76 1.76 0 0 0-3.52 0v2.8a1.76 1.76 0 0 0 1.76 1.76h2.77a1.76 1.76 0 1 0 0-3.52z"/><path class="cls-1" d="M75 0a75 75 0 1 0 70.94 99.34 1.76 1.76 0 0 0 .14-.41A75 75 0 0 0 75 0zM55.46 143.76a71.8 71.8 0 0 1-43.11-34.38v-.92l1.23.9a1.76 1.76 0 0 0 2.07 0l1.24-.9v6a1.76 1.76 0 0 0 1.76 1.76h7.48a1.76 1.76 0 0 0 1.76-1.76v-6l1.24.9a1.76 1.76 0 0 0 2.07 0l1.24-.9v6a1.76 1.76 0 0 0 1.76 1.76h7.47a1.76 1.76 0 0 0 1.76-1.76v-6l1.24.9a1.76 1.76 0 0 0 2.07 0l1.24-.9v6a1.76 1.76 0 0 0 1.76 1.76h5.72v27.53zm9.44-35.82a1.76 1.76 0 0 0 1.76-1.76v-5.38h6.58v5.39a1.76 1.76 0 1 0 3.52 0v-5.39h6.58v5.39a1.76 1.76 0 1 0 3.52 0v-5.39H91V123H59v-22.2h4.15v5.39a1.76 1.76 0 0 0 1.75 1.76zm17.68-38v5.47h-15v-5.47zm-15-3.52V52.51h1.72v13.91zM71 49l4-21.32L79 49zm6.28 3.52v13.9h-4.5V52.51zm3.52 13.91V52.51h1.73v13.91zm4.78 12.52v18.32H64.52V78.94zm-19.43 67a71 71 0 0 1-7.15-1.28v-8.86h7.21zm14.33.33q-2.73.21-5.52.21t-5.28-.2v-11.2l5.4-3 5.4 3zM76 128.52a1.76 1.76 0 0 0-1.71 0l-6.76 3.77H59v-5.75h32v5.75h-8.26zm15 16.15q-3.43.79-7 1.24v-10.1h7zm46.63-35.29a71.77 71.77 0 0 1-7.81 11.42 1.76 1.76 0 0 0-1.75-1.66h-3.76a1.76 1.76 0 1 0 0 3.52h3.91a71.61 71.61 0 0 1-33.69 21.12V116.2h5.72a1.76 1.76 0 0 0 1.76-1.76v-6l1.24.9a1.76 1.76 0 0 0 2.07 0l1.23-.9v6a1.76 1.76 0 0 0 1.76 1.76h7.47a1.76 1.76 0 0 0 1.76-1.76v-6l1.24.9a1.76 1.76 0 0 0 2.07 0l1.24-.9v6a1.76 1.76 0 0 0 1.76 1.76h7.48a1.76 1.76 0 0 0 1.76-1.76v-6l1.24.9a1.76 1.76 0 0 0 2.07 0l1.24-.9v.91zm5.42-12.56h-32.11a1.76 1.76 0 1 0 0 3.52h30.89q-.63 1.66-1.34 3.27a1.73 1.73 0 0 0-2.12 0l-3 2.18-3-2.18a1.76 1.76 0 0 0-2.8 1.42v7.67h-4V105a1.76 1.76 0 0 0-2.8-1.42l-3 2.18-3-2.18A1.76 1.76 0 0 0 114 105v7.67h-3.95V105a1.76 1.76 0 0 0-2.8-1.42l-.77.56v-9.9h37.33q-.33 1.3-.74 2.58zm1.67-6.11h-22.26a15.46 15.46 0 0 1 12.43-6.33 15.25 15.25 0 0 1 10.32 4q-.21 1.17-.48 2.33zm1.13-6.35a18.68 18.68 0 0 0-9.21-3.42v-3.26a1.76 1.76 0 0 0-3.52 0v3.27a19 19 0 0 0-14.83 9.77h-13.53a1.76 1.76 0 0 0-1.76 1.75v12.34l-1.7-1.24a1.76 1.76 0 0 0-2.8 1.43v7.67h-4V99a1.76 1.76 0 0 0-1.76-1.76h-3.6V77.18a1.76 1.76 0 0 0-1.76-1.76H86.1V50.75A1.76 1.76 0 0 0 84.34 49h-1.66L76.8 17.84a1.76 1.76 0 0 0-3.46 0L67.46 49H65.8a1.76 1.76 0 0 0-1.8 1.75v24.67h-1.24A1.76 1.76 0 0 0 61 77.18v20.1h-3.78A1.76 1.76 0 0 0 55.46 99v13.64h-4V105a1.76 1.76 0 0 0-2.8-1.42l-3 2.18-3-2.18a1.76 1.76 0 0 0-2.8 1.42v7.67H36V105a1.76 1.76 0 0 0-2.8-1.42l-3 2.18-3-2.18a1.76 1.76 0 0 0-2.8 1.42v7.67h-4V105a1.76 1.76 0 0 0-2.8-1.42l-3 2.18-3-2.18a1.76 1.76 0 0 0-1.84-.15 1.73 1.73 0 0 0-.28.18 71.47 71.47 0 1 1 137-28.61 72 72 0 0 1-.62 9.37z"/><path class="cls-1" d="M103.89 122.66h-3.76a1.76 1.76 0 0 0 0 3.52h3.76a1.76 1.76 0 1 0 0-3.52zm-54.02-3.29h-3.76a1.76 1.76 0 1 0 0 3.52h3.76a1.76 1.76 0 1 0 0-3.52zm-12.21 6.34H33.9a1.76 1.76 0 1 0 0 3.52h3.76a1.76 1.76 0 1 0 0-3.52zm4.22 4.23h-3.75a1.76 1.76 0 1 0 0 3.52h3.76a1.76 1.76 0 1 0 0-3.52zm70-2.58h-3.76a1.76 1.76 0 1 0 0 3.52h3.76a1.76 1.76 0 1 0 0-3.52z"/></svg>