<svg id="Layer_1" data-name="Layer 1" xmlns="http://www.w3.org/2000/svg" viewBox="0 0 65 39"><defs><style>.cls-1{fill:none}.cls-2{clip-path:url(#clip-path)}.cls-3{fill:#ffb600}.cls-4{fill:#f7981d}.cls-5{fill:#ff8500}.cls-6{fill:#ff5050}.cls-7{fill:#e52836}.cls-8{fill:#cb2026}.cls-9{fill:#fff}.cls-10{fill:#dce5e5}</style><clipPath id="clip-path" transform="translate(0 -13)"><path class="cls-1" d="M0 0h65v65H0z"/></clipPath></defs><title>mastercard</title><g class="cls-2"><path class="cls-3" d="M65 32.5A19.5 19.5 0 1 1 45.4 13 19.48 19.48 0 0 1 65 32.5z" transform="translate(0 -13)"/><path class="cls-4" d="M45.5 13A19.5 19.5 0 1 1 26 32.5" transform="translate(0 -13)"/><path class="cls-5" d="M45.5 13a19.5 19.5 0 0 1 0 39" transform="translate(0 -13)"/><path class="cls-6" d="M19.29 13a19.5 19.5 0 0 0 .21 39 19.73 19.73 0 0 0 13.1-5.06 18.54 18.54 0 0 0 2-2.06h-4a23.78 23.78 0 0 1-1.44-2H36a13.22 13.22 0 0 0 1.13-2.06H28a12.3 12.3 0 0 1-.83-2.06h10.7a20.49 20.49 0 0 0 1-6.19 26.63 26.63 0 0 0-.41-4.13h-12a15.08 15.08 0 0 1 .54-2.03h10.76a12.3 12.3 0 0 0-.83-2.06h-9.07A20.48 20.48 0 0 1 29 22.29h6.9a9.81 9.81 0 0 0-1.55-2.06h-3.81a17.59 17.59 0 0 1 2-2 19 19 0 0 0-13.1-5.06c-.04-.17-.04-.17-.15-.17z" transform="translate(0 -13)"/><path class="cls-7" d="M0 32.5A19.48 19.48 0 0 0 19.5 52a19.73 19.73 0 0 0 13.1-5.06 18.54 18.54 0 0 0 2-2.06h-4a23.78 23.78 0 0 1-1.44-2H36a13.22 13.22 0 0 0 1.13-2.06H28a12.3 12.3 0 0 1-.83-2.06h10.7a20.49 20.49 0 0 0 1-6.19 26.63 26.63 0 0 0-.41-4.13h-12a15.08 15.08 0 0 1 .54-2.03h10.76a12.29 12.29 0 0 0-.83-2.06h-9.07A20.48 20.48 0 0 1 29 22.29h6.9a9.81 9.81 0 0 0-1.55-2.06h-3.81a17.58 17.58 0 0 1 2-2 19 19 0 0 0-13.1-5.06h-.1" transform="translate(0 -13)"/><path class="cls-8" d="M19.5 52a19.73 19.73 0 0 0 13.1-5.06 18.54 18.54 0 0 0 2-2.06h-4a23.78 23.78 0 0 1-1.44-2H36a13.21 13.21 0 0 0 1.13-2.06H28a12.3 12.3 0 0 1-.83-2.06h10.7a20.49 20.49 0 0 0 1-6.19 26.63 26.63 0 0 0-.41-4.13h-12a15.08 15.08 0 0 1 .54-2.03h10.76a12.3 12.3 0 0 0-.83-2.06h-9.07A20.48 20.48 0 0 1 29 22.29h6.91a9.81 9.81 0 0 0-1.55-2.06h-3.82a17.58 17.58 0 0 1 2-2 19 19 0 0 0-13.1-5.06h-.1" transform="translate(0 -13)"/><path class="cls-9" d="M26.41 37.45l.31-1.75a4.47 4.47 0 0 1-.52.1c-.72 0-.83-.41-.72-.62l.62-3.61h1.14l.31-2h-1l.21-1.24h-2.1s-1.24 6.85-1.24 7.67a1.55 1.55 0 0 0 1.65 1.75 3.17 3.17 0 0 0 1.34-.3zm.72-3.3a3.28 3.28 0 0 0 3.61 3.61 5.36 5.36 0 0 0 2.17-.31l.41-2a6.19 6.19 0 0 1-2.17.52c-2.27 0-1.86-1.65-1.86-1.65h4.23a13.38 13.38 0 0 0 .31-1.86 2.8 2.8 0 0 0-3-3c-2.15-.16-3.7 2.11-3.7 4.69zm3.61-3c1.13 0 .93 1.34.93 1.44H29.4c0-.09.21-1.43 1.35-1.43zm13.11 6.3l.41-2.27a5.07 5.07 0 0 1-1.75.52c-1.44 0-2.06-1.13-2.06-2.37 0-2.48 1.24-3.82 2.68-3.82a3.45 3.45 0 0 1 1.86.62l.3-2.13a7.25 7.25 0 0 0-2.37-.52c-2.37 0-4.75 2.06-4.75 6 0 2.58 1.24 4.33 3.71 4.33a9.26 9.26 0 0 0 1.97-.36zM15.06 29.3a7.31 7.31 0 0 0-2.48.41l-.31 1.75a6.1 6.1 0 0 1 2.27-.41c.72 0 1.34.1 1.34.72 0 .41-.1.52-.1.52h-.93c-1.75 0-3.71.72-3.71 3.1 0 1.86 1.24 2.27 2 2.27a3.1 3.1 0 0 0 2.17-.93l-.1.83H17l.83-5.67a2.45 2.45 0 0 0-2.77-2.59zm.41 4.64c0 .31-.21 2-1.44 2a.81.81 0 0 1-.83-.83c0-.52.31-1.24 1.86-1.24a1.63 1.63 0 0 0 .42.07zm4.34 3.72c.52 0 3.1.1 3.1-2.68 0-2.58-2.48-2.06-2.48-3.1 0-.52.41-.72 1.13-.72.31 0 1.44.1 1.44.1l.31-1.86a7.84 7.84 0 0 0-2-.21c-1.55 0-3.1.62-3.1 2.68 0 2.37 2.58 2.17 2.58 3.1 0 .62-.72.72-1.24.72a6.75 6.75 0 0 1-1.86-.31l-.31 1.86c.16.21.68.42 2.43.42zM61 27.65l-.41 2.79a2.86 2.86 0 0 0-2-1c-1.86 0-3.51 2.27-3.51 5 0 1.65.83 3.4 2.58 3.4a2.75 2.75 0 0 0 2-.83l-.1.72h2.04l1.55-9.9zm-1 5.47c0 1.13-.52 2.58-1.65 2.58-.72 0-1.13-.62-1.13-1.65 0-1.65.72-2.68 1.65-2.68.77-.01 1.13.51 1.13 1.75zM3.82 37.56l1.24-7.43.21 7.43h1.44l2.68-7.43-1.14 7.43h2.17l1.65-9.9h-3.4L6.6 33.74l-.1-6.09h-3l-1.65 9.9zm31.98 0c.62-3.4.72-6.19 2.17-5.67a8.1 8.1 0 0 1 .72-2.37h-.41c-.93 0-1.65 1.24-1.65 1.24l.21-1.13h-2l-1.34 8h2.3zm12.8-8.26a7.31 7.31 0 0 0-2.48.41l-.31 1.75a6.1 6.1 0 0 1 2.27-.41c.72 0 1.34.1 1.34.72 0 .41-.1.52-.1.52h-.93c-1.75 0-3.71.72-3.71 3.1 0 1.86 1.24 2.27 2 2.27a3.1 3.1 0 0 0 2.17-.93l-.1.83h1.86l.83-5.67c.04-2.49-2.12-2.59-2.84-2.59zm.52 4.64c0 .31-.21 2-1.44 2a.81.81 0 0 1-.83-.83c0-.52.31-1.24 1.86-1.24.29.07.29.07.4.07zm4.02 3.62c.62-3.4.72-6.19 2.17-5.67a8.1 8.1 0 0 1 .69-2.38h-.41c-.93 0-1.65 1.24-1.65 1.24l.21-1.13h-2l-1.34 8h2.27z" transform="translate(0 -13)"/><path class="cls-10" d="M23.21 36a1.55 1.55 0 0 0 1.65 1.75 3.93 3.93 0 0 0 1.55-.31l.31-1.75a4.47 4.47 0 0 1-.52.1c-.72 0-.83-.41-.72-.62l.62-3.61h1.14l.31-2h-1l.21-1.24m1.41 5.83c0 2.89.93 3.61 2.58 3.61a5.36 5.36 0 0 0 2.17-.31l.41-2a6.19 6.19 0 0 1-2.17.52c-2.27 0-1.86-1.65-1.86-1.65h4.23a13.38 13.38 0 0 0 .31-1.86 2.8 2.8 0 0 0-3-3c-2.16-.16-2.67 2.11-2.67 4.69zm2.58-3c1.13 0 1.34 1.34 1.34 1.44h-2.68c0-.09.2-1.43 1.34-1.43zm13.1 6.3l.41-2.27a5.07 5.07 0 0 1-1.75.52c-1.44 0-2.06-1.13-2.06-2.37 0-2.48 1.24-3.82 2.68-3.82a3.45 3.45 0 0 1 1.86.62l.3-2.13a7.25 7.25 0 0 0-2.37-.52c-2.37 0-3.71 2.06-3.71 6 0 2.58.21 4.33 2.68 4.33a9.26 9.26 0 0 0 1.96-.36zm-31.57-5.88a6.1 6.1 0 0 1 2.27-.41c.72 0 1.34.1 1.34.72 0 .41-.1.52-.1.52h-.93c-1.75 0-3.71.72-3.71 3.1 0 1.86 1.24 2.27 2 2.27a3.1 3.1 0 0 0 2.17-.93l-.1.83H17l.85-5.67c0-2.37-2.06-2.48-2.89-2.48zm4.23 2.37a3.38 3.38 0 0 1-2.48 2 .81.81 0 0 1-.83-.83c0-.52.31-1.24 1.86-1.24a8.43 8.43 0 0 0 1.45.07zm1.03 3.51a8.73 8.73 0 0 0 2.37.21c.52 0 3.1.1 3.1-2.68 0-2.58-2.48-2.06-2.48-3.1 0-.52.41-.72 1.13-.72.31 0 1.44.1 1.44.1l.31-1.86a7.84 7.84 0 0 0-2-.21c-1.55 0-2.06.62-2.06 2.68 0 2.37 1.55 2.17 1.55 3.1 0 .62-.72.72-1.24.72m40.9-5.25a2.86 2.86 0 0 0-2-1c-1.86 0-2.48 2.27-2.48 5 0 1.65-.21 3.4 1.55 3.4a2.75 2.75 0 0 0 2-.83l-.1.72h2.06l1.55-9.9zm-.1 2.68c0 1.13-.93 2.58-2.06 2.58-.72 0-1.13-.62-1.13-1.65 0-1.65.72-2.68 1.65-2.68a1.58 1.58 0 0 1 1.54 1.75zM3.82 37.56l1.24-7.43.21 7.43h1.44l2.68-7.43-1.14 7.43h2.17l1.65-9.9H9.49L6.6 33.74l-.1-6.09H5.37l-3.51 9.9zm29.82 0h2.16c.62-3.4.72-6.19 2.17-5.67a8.1 8.1 0 0 1 .72-2.37h-.41c-.93 0-1.65 1.24-1.65 1.24l.21-1.13m8.97 1.94a6.1 6.1 0 0 1 2.27-.41c.72 0 1.34.1 1.34.72 0 .41-.1.52-.1.52h-.93c-1.75 0-3.71.72-3.71 3.1 0 1.86 1.24 2.27 2 2.27a3.1 3.1 0 0 0 2.17-.93l-.1.83h1.86l.77-5.67c0-2.37-2.06-2.48-2.89-2.48zM50 33.94a3.38 3.38 0 0 1-2.48 2 .81.81 0 0 1-.83-.83c0-.52.31-1.24 1.86-1.24a9.07 9.07 0 0 0 1.45.07zm1 3.62h2.17c.62-3.4.72-6.19 2.17-5.67a8.1 8.1 0 0 1 .66-2.38h-.41c-.93 0-1.65 1.24-1.65 1.24l.21-1.13" transform="translate(0 -13)"/></g></svg>