<svg id="Layer_1" data-name="Layer 1" xmlns="http://www.w3.org/2000/svg" viewBox="0 0 90 79.22"><defs><style>.cls-1{fill:none}.cls-2{clip-path:url(#clip-path)}.cls-3{fill:#f4900c}.cls-4{fill:#a0041e}.cls-5{fill:#be1931}.cls-6{fill:#ffcc4d}</style><clipPath id="clip-path" transform="translate(0 -5.39)"><path class="cls-1" d="M0 0h90v90H0z"/></clipPath></defs><title>pie (1)</title><g class="cls-2"><path class="cls-3" d="M17.92 7.66a4.05 4.05 0 0 1 4.4-2.22c3.29.44 25.62 4.22 36.24 9.15s22.6 10.76 30.1 19.57c2 2.34 1.18 4.05 1.18 4.05l-2.75 19.71a6.86 6.86 0 0 1-4.6 5L4.08 84.52s-4 .91-4-3.2V60.75a37.91 37.91 0 0 1 1.38-5.37c.98-2.9 16.46-47.72 16.46-47.72z" transform="translate(0 -5.39)"/><path class="cls-4" d="M78.55 53.81C66.76 42.52 38.78 29.38 18 27.4a1.3 1.3 0 0 0-1.34.87S.06 77.59.06 78.4a1.31 1.31 0 0 0 .5 1 1.32 1.32 0 0 0 .8.27 1.44 1.44 0 0 0 .32 0l78-21.51a1 1 0 0 0 .83-.91c.1-.89-.26-1.82-1.96-3.44z" transform="translate(0 -5.39)"/><path class="cls-4" d="M80.44 57.34L.08 78.93V60.09s14.13-31.73 17-51c44.37 6.41 65.59 29.46 65.59 29.46z" transform="translate(0 -5.39)"/><path class="cls-5" d="M19.13 67a6.82 6.82 0 1 1-6.82-6.82A6.81 6.81 0 0 1 19.13 67zm13.25-10.58a6.82 6.82 0 1 1-6.82-6.82 6.81 6.81 0 0 1 6.82 6.82zm15.9 2.65a6.82 6.82 0 1 1-6.82-6.82 6.81 6.81 0 0 1 6.82 6.82zm13.25-10.6a6.82 6.82 0 1 1-6.82-6.82 6.81 6.81 0 0 1 6.82 6.82zm15.9 2.65a6.82 6.82 0 1 1-6.82-6.82 6.81 6.81 0 0 1 6.82 6.82z" transform="translate(0 -5.39)"/><path class="cls-3" d="M82.49 35.13C70.7 23.84 38.78 10.83 18 8.85a1.3 1.3 0 0 0-1.34.87S3.49 46.36.29 56.42a9.69 9.69 0 0 0-.23 3.44 1.31 1.31 0 0 0 .5 1 1.31 1.31 0 0 0 .79.27 1.56 1.56 0 0 0 .31 0l81.62-20.55a1.29 1.29 0 0 0 1-1 5.22 5.22 0 0 0-1.79-4.45z" transform="translate(0 -5.39)"/><path class="cls-3" d="M82.49 35.13C70.7 23.84 38.78 10.83 18 8.85a1.3 1.3 0 0 0-1.34.87S.06 56.39.06 57.21a1.31 1.31 0 0 0 .5 1 1.31 1.31 0 0 0 .79.27 1.56 1.56 0 0 0 .31 0L81.68 38a1.3 1.3 0 0 0 1-1c.11-1 1.51-.25-.19-1.87z" transform="translate(0 -5.39)"/><path class="cls-6" d="M45.85 26.37L50.73 33l-11.39 1.1-4.79-6.4zM23 53l-4.86-6.51L30 45.09l3.81 5.15 14.8-3.79-2.44-3.27 11.13-1.33 1.51 2L73.58 40l-.08-.1.86-.1 9.57-2.5a5.7 5.7 0 0 0-1.44-2.2 48.83 48.83 0 0 0-6-4.72l-9.46.94-5.14-6.88 3.79-.44a165.34 165.34 0 0 0-30.25-11.73l3.81 5.15-11.52 1.14-4.42-5.91 9.35-1.1A98.67 98.67 0 0 0 18 8.85a1.3 1.3 0 0 0-1.34.87s-3.66 9.5-7.3 20.51l9.15-.63L23 35.72l-12 1.2-2.7-3.55C6.39 39.08 4.15 44.93 2.6 49.6l5.63 7.18z" transform="translate(0 -5.39)"/><path class="cls-3" d="M26.22 45.7c2.14-.58 6.41-3.28 10.63-3.86s9.36 1.64 10.89 1.45l6.13-.72c1.37-.16 7.5-3.55 11.06-4s8.33 2 10 1.55c0 0 1.91.54 0 .78s-6.89-1.71-9.66-1.25c-4 .66-6.82 2.95-11.45 3.69-2.79.45-4.75.81-6.42.95-3.08.25-6.89-2.06-10.78-1.4s-6 3.29-10.45 3.72c-2.57.2-1.59-.47.05-.91zm-11.45 7.85c3.16-.74 6.81-2 8.24-.56l-7.13 2.73-7.65 1.06s.25-1.78 6.54-3.23zm26.12-6.77c3.95-.94 6.53-1.13 7.68-.34l-7.21 2.72-7.59 1.08s.65-1.91 7.12-3.46z" transform="translate(0 -5.39)"/><path class="cls-3" d="M65.56 40.65a24.23 24.23 0 0 1 7.51-.94s7.57-2 10.58-2.31c0 0-6.9 2.36-9 2.91S59 44.6 58.82 43.9s2.33-2.03 6.74-3.25z" transform="translate(0 -5.39)"/><path class="cls-6" d="M2.6 49.6s-.2-3.17 2-8.9 3.18-8 3.69-7.33S6.82 41.32 6 43.08s-2 5.41-2.6 6.13-.8.39-.8.39zm6.76-19.37a28.51 28.51 0 0 1 1.16-6.86c1-2.81 2.78-4.45 3-5.12s.19-4 .85-5.54 2-4.53 3.65-3.87-3.7 11.43-4.34 13.58-4.32 7.81-4.32 7.81z" transform="translate(0 -5.39)"/><path class="cls-3" d="M15.62 29.8c2.14-.58 6.41-3.28 10.63-3.86s9.36 1.64 10.89 1.45l6.13-.72c1.37-.16 7.5-3.55 11.06-4s8.33 2 10 1.55c0 0 1.9.54 0 .78s-6.89-1.71-9.66-1.25c-4 .66-6.82 2.95-11.44 3.69-2.79.45-4.75.81-6.42.95-3.08.25-6.89-2.06-10.78-1.4s-6 3.29-10.45 3.72c-2.58.2-1.58-.47.04-.91zm5.26 16.36c-2 .24-4.79-2.05-9.81-1.16a16.91 16.91 0 0 0-8.47 4.6l.32 1.52s-1.27-.89.5-1.44 3.58-3.27 7.93-3.73 5.71 1 8.61 1.11.92-.9.92-.9zm50.76-6.43l4.18.24 1.12-.87-.74 2.36-3.48 1.07zM16.32 11.86c3.89-1.08 6.43.85 9.25.52s2.86.44.69.89-7.58-1.44-9.82-.71a4.06 4.06 0 0 0-2.61 3l.37-2.32s-.44-.67 2.12-1.38zm5.22 24.01c5.46-.87 5.84-2.24 9.93-3.06 3.73-.74 6 1 8.14 1 3.4 0 2.36-2.08 1.22-1.59-2.4 1-7.25-1.89-12 0-2.43 1-3.55 2.29-7.28 2.76s-1.97 1.2-.01.89zM49 33.14c2.28-.23 5.8-2.34 9.28-2.9s6.59 1.33 8.77 1.11S69.7 30 68 30.13s-6-1.7-10.27-.87-5.88 2.57-8.7 3-1.71 1.05-.03.88zM6.08 37c1.89-.5 3.87.62 5.93-.15s2.2-1.69.3-1.19-4.11-.36-5.81.32zM20 17.82c3.59-.16 5.58.95 8.13.69s1.48-.9-.38-.8-4.56-1.14-8.43-.39-3.68 1.52-6.67 2.17l-.68 1a15.67 15.67 0 0 0 2.87-1A14.06 14.06 0 0 1 20 17.82zm18.68-.34c2.35-.14 4.33-1.87 6.84-2l-1.46-.5a17 17 0 0 1-5.38 1.73c-2.41.12-2.49.91 0 .77z" transform="translate(0 -5.39)"/></g></svg>