<svg id="Layer_1" data-name="Layer 1" xmlns="http://www.w3.org/2000/svg" viewBox="0 0 40 40"><defs><style>.cls-1{fill:none}.cls-2{clip-path:url(#clip-path)}.cls-3{fill:url(#linear-gradient)}</style><clipPath id="clip-path"><path class="cls-1" d="M0 0h40v40H0z"/></clipPath><linearGradient id="linear-gradient" y1="22" x2="40" y2="22" gradientTransform="matrix(1 0 0 -1 0 42)" gradientUnits="userSpaceOnUse"><stop offset="0" stop-color="#41dfd0"/><stop offset="1" stop-color="#ee83ef"/></linearGradient></defs><title>solar-energy</title><g class="cls-2"><path class="cls-3" d="M29.57 24.68L32.68 26l.51-1.23-3.11-1.29a10.49 10.49 0 0 0 0-6.91l3.11-1.29-.51-1.28-3.11 1.29a10.71 10.71 0 0 0-4.88-4.88L26 7.32l-1.23-.51-1.32 3.11a10.49 10.49 0 0 0-6.91 0l-1.28-3.11-1.26.51 1.29 3.11a10.71 10.71 0 0 0-4.88 4.88L7.32 14l-.51 1.23 3.11 1.29a10.49 10.49 0 0 0 0 6.91l-3.11 1.31.51 1.26 3.11-1.29a10.71 10.71 0 0 0 4.88 4.88L14 32.68l1.23.51 1.29-3.11a10.49 10.49 0 0 0 6.91 0l1.29 3.11 1.28-.51-1.29-3.11a10.71 10.71 0 0 0 4.86-4.89zM20 29.33A9.33 9.33 0 1 1 29.33 20 9.33 9.33 0 0 1 20 29.33zm3.33-10H21.4l.6-6.61a.67.67 0 0 0-1.2-.45l-5.33 7.33a.67.67 0 0 0 .53 1.07h1.94l-.6 6.61a.67.67 0 0 0 1.2.45l5.33-7.33a.67.67 0 0 0-.53-1.06zM18.88 25l.45-4.93a.67.67 0 0 0-.67-.73h-1.35L20.45 15 20 19.94a.67.67 0 0 0 .67.73H22zm1.79-17h-1.34V0h1.33zM11 12L5.39 6.33l.94-.94L12 11zm-3 8.67H0v-1.34h8zM11 28l1 1-5.67 5.61-.94-.94zm8.29 4h1.33v8h-1.29zM29 28l5.66 5.66-.94.94L28 29zm11-8.68v1.33h-8v-1.32zM29 12l-1-1 5.66-5.66.94.94z"/></g></svg>