<svg id="Layer_1" data-name="Layer 1" xmlns="http://www.w3.org/2000/svg" viewBox="0 0 150 150"><defs><style>.cls-1{fill:#e6c7ff}</style></defs><title>stopwatch</title><path class="cls-1" d="M150 75a75 75 0 1 0-126.93 54l-.08.06 2.23 2a75 75 0 0 0 17.2 11.47l.78.36c.78.36 1.55.72 2.34 1.06l1.48.6c.57.23 1.14.46 1.72.68s1.19.43 1.79.63l1.48.5c.64.21 1.3.4 1.95.59l1.4.4c.67.18 1.34.35 2 .51l1.42.33c.67.15 1.34.29 2 .42l1.52.27c.65.11 1.3.22 1.95.31l1.72.22c.6.07 1.19.15 1.79.21s1.42.11 2.14.16l1.43.1c1.21.06 2.42.09 3.64.09s2.42 0 3.63-.09c.49 0 1-.07 1.45-.1.7 0 1.41-.09 2.11-.16s1.22-.14 1.82-.21l1.67-.21c.67-.1 1.34-.21 2-.32l1.43-.26q1.06-.2 2.11-.43l1.29-.3c.72-.17 1.43-.35 2.14-.54l1.23-.35c.71-.21 1.42-.42 2.12-.64l1.24-.42c.68-.23 1.36-.46 2-.72l1.4-.55c.6-.24 1.2-.47 1.79-.73s1.32-.59 2-.89c.38-.18.77-.34 1.15-.53a75 75 0 0 0 17-11.33l2.23-2-.08-.06A74.79 74.79 0 0 0 150 75zM5 75a70 70 0 1 1 117.78 51.1 79.41 79.41 0 0 0-95.69-.1A69.8 69.8 0 0 1 5 75zm113.21 55c-1.14.9-2.3 1.76-3.49 2.58l-.94.65c-1.33.89-2.69 1.72-4.07 2.51l-.91.52c-1.49.83-3 1.59-4.56 2.3l-.8.37c-1.63.72-3.28 1.4-5 2l-.37.12a69.85 69.85 0 0 1-10.83 2.84l-.65.12c-1.75.29-3.52.52-5.3.68l-.85.07c-1.81.14-3.64.24-5.47.24s-3.67-.09-5.49-.24l-.85-.07q-2.67-.24-5.29-.68l-.72-.13c-1.82-.32-3.62-.71-5.41-1.17-1.81-.48-3.59-1-5.36-1.65l-.44-.15a58.8 58.8 0 0 1-4.88-2l-.91-.41q-2.27-1.05-4.47-2.26l-1-.6a72.41 72.41 0 0 1-4.12-2.55c-.33-.22-.64-.45-1-.68-1.16-.8-2.29-1.65-3.4-2.53l-.74-.58a74.7 74.7 0 0 1 88.08.11z"/><path class="cls-1" d="M75 20a2.5 2.5 0 0 0 2.5-2.5v-5a2.5 2.5 0 0 0-5 0v5A2.5 2.5 0 0 0 75 20zm56.25 55a2.5 2.5 0 0 0 2.5 2.5h5a2.5 2.5 0 0 0 0-5h-5a2.5 2.5 0 0 0-2.5 2.5zm-112.5 0a2.5 2.5 0 0 0-2.5-2.5h-5a2.5 2.5 0 0 0 0 5h5a2.5 2.5 0 0 0 2.5-2.5zm84.38-47.46a2.48 2.48 0 0 0 1.25.34 2.5 2.5 0 0 0 2.17-1.25l2.5-4.33a2.5 2.5 0 0 0-4.33-2.5l-2.5 4.33a2.5 2.5 0 0 0 .91 3.41zM131.46 106l-4.33-2.5a2.5 2.5 0 1 0-2.5 4.33l4.33 2.5a2.5 2.5 0 0 0 2.5-4.33zM18.54 46.54L22.87 49a2.5 2.5 0 1 0 2.5-4.33L21 42.21a2.5 2.5 0 1 0-2.5 4.33zm24.91-20A2.5 2.5 0 0 0 47.78 24l-2.5-4.33a2.5 2.5 0 1 0-4.33 2.5zm81.8 21.67a2.48 2.48 0 0 0 1.25-.34l4.33-2.5a2.5 2.5 0 0 0-2.5-4.33l-4.33 2.5a2.5 2.5 0 0 0 1.25 4.67zm-99.6 55a2.5 2.5 0 0 0-3.41-.92l-4.33 2.5a2.5 2.5 0 1 0 2.5 4.33l4.33-2.5a2.5 2.5 0 0 0 .91-3.41zM75 82.2a9.93 9.93 0 0 0 8.86-14.54l21.19-21.19a2.5 2.5 0 0 0-3.54-3.53l-21 21a10.29 10.29 0 0 0-12.62 1.23A10 10 0 0 0 75 82.2zm-3.54-13.54a5 5 0 1 1 7.07 7.07 5.12 5.12 0 0 1-7.07 0 5 5 0 0 1 0-7.07z"/></svg>