<svg id="Layer_1" data-name="Layer 1" xmlns="http://www.w3.org/2000/svg" viewBox="0 0 41.25 64"><defs><style>.cls-1{fill:#292929}.cls-2{fill:#ff5b5b}.cls-3{fill:#ff3939}.cls-4{fill:#ffd400}.cls-5{fill:#444}.cls-6{fill:#c00}.cls-7{fill:#ff001e}.cls-8{fill:#fdbf00}.cls-9{fill:#6e6e6e}.cls-10{fill:#5a5a5a}</style></defs><title>vip-pass</title><path class="cls-1" d="M37.43 10.34l-3.36-1.68L37.82 0l3.35 1.68z" transform="translate(-11.38)"/><path class="cls-2" d="M52.63 22.63c-.15.3-3.3 1.91-3.3 2.1.26.07 3.3 1.65 3.3 1.65V64H11.38V26.38l2-1.58-2-2.17v-15h41.25z" transform="translate(-11.38)"/><path class="cls-3" d="M52.63 22.63c-.15.3-3.3 1.91-3.3 2.1.26.07 3.3 1.65 3.3 1.65V64H32V7.63h20.63z" transform="translate(-11.38)"/><path class="cls-4" d="M45.39 38l-9.26-1.35-4.13-8.4-4.12 8.36L18.61 38l6.71 6.52-1.57 9.19L32 49.33l8.25 4.35-1.57-9.19z" transform="translate(-11.38)"/><path class="cls-5" d="M33.69 16.17L32 17l-1.69.82-7.5-16.16L26.19 0 32 12.8z" transform="translate(-11.38)"/><path class="cls-6" d="M45.13 22.63h7.5v3.75h-7.5zm-11.25 0h7.5v3.75h-7.5z" transform="translate(-11.38)"/><path class="cls-7" d="M22.63 22.63h7.5v3.75h-7.5zm-11.25 0h7.5v3.75h-7.5z" transform="translate(-11.38)"/><path class="cls-8" d="M38.68 44.49l1.57 9.19L32 49.33V28.25l4.13 8.36L45.39 38z" transform="translate(-11.38)"/><path class="cls-1" d="M33.69 16.17L32 17v-4.2z" transform="translate(-11.38)"/><path class="cls-9" d="M26.38 15.13h11.25v3.75H26.38z" transform="translate(-11.38)"/><path class="cls-10" d="M32 15.13h5.63v3.75H32z" transform="translate(-11.38)"/></svg>