<svg id="Layer_1" data-name="Layer 1" xmlns="http://www.w3.org/2000/svg" viewBox="0 0 150 150"><defs><style>.cls-1{fill:none;stroke:#e6c7ff;stroke-width:5px}.cls-2{fill:#e6c7ff}</style></defs><title>wallet</title><circle class="cls-1" cx="75" cy="75" r="72.5"/><path class="cls-2" d="M38.26 44.64A1.5 1.5 0 1 0 37 41.91a12 12 0 0 0-2.87 1.85 1.5 1.5 0 0 0 2 2.27 9 9 0 0 1 2.13-1.39zm5.24-.81h3a1.5 1.5 0 0 0 0-3h-3a1.5 1.5 0 0 0 0 3zm9 0h3a1.5 1.5 0 0 0 0-3h-3a1.5 1.5 0 0 0 0 3zm-6 18h-3a1.5 1.5 0 1 0 0 3h3a1.5 1.5 0 1 0 0-3zm18 0h-3a1.5 1.5 0 1 0 0 3h3a1.5 1.5 0 1 0 0-3zm-9 0h-3a1.5 1.5 0 1 0 0 3h3a1.5 1.5 0 1 0 0-3zM38.26 61a9 9 0 0 1-2.15-1.39 1.5 1.5 0 1 0-2 2.27A12 12 0 0 0 37 63.74 1.5 1.5 0 1 0 38.26 61zm35.24.83h-3a1.5 1.5 0 1 0 0 3h3a1.5 1.5 0 1 0 0-3zm27 0h-3a1.5 1.5 0 1 0 0 3h3a1.5 1.5 0 1 0 0-3zm9 0h-3a1.5 1.5 0 1 0 0 3h3a1.5 1.5 0 1 0 0-3zm-27 0h-3a1.5 1.5 0 1 0 0 3h3a1.5 1.5 0 1 0 0-3zm9 0h-3a1.5 1.5 0 1 0 0 3h3a1.5 1.5 0 1 0 0-3zM38.26 106a9 9 0 0 1-2.15-1.39 1.5 1.5 0 0 0-2 2.27 12 12 0 0 0 2.89 1.86 1.5 1.5 0 0 0 1.26-2.74zm17.24.83h-3a1.5 1.5 0 0 0 0 3h3a1.5 1.5 0 1 0 0-3zm-9 0h-3a1.5 1.5 0 0 0 0 3h3a1.5 1.5 0 1 0 0-3zm36 0h-3a1.5 1.5 0 0 0 0 3h3a1.5 1.5 0 0 0 0-3zm4.5 1.5a1.5 1.5 0 0 0 1.5 1.5h3a1.5 1.5 0 0 0 0-3h-3a1.5 1.5 0 0 0-1.5 1.5zm10.5 1.5h3a1.5 1.5 0 0 0 0-3h-3a1.5 1.5 0 0 0 0 3zm-24-3h-3a1.5 1.5 0 0 0 0 3h3a1.5 1.5 0 0 0 0-3zm33 3h3a1.5 1.5 0 0 0 0-3h-3a1.5 1.5 0 0 0 0 3zm-42-3h-3a1.5 1.5 0 0 0 0 3h3a1.5 1.5 0 0 0 0-3zM96 84.33a6 6 0 1 0 6-6 6 6 0 0 0-6 6zm6-3a3 3 0 1 1-3 3 3 3 0 0 1 3-3z"/><path class="cls-2" d="M94.41 34.83l-8.15-8.15a1.71 1.71 0 0 0-2.41 0l-3.07 3.07-3.07-3.07a1.71 1.71 0 0 0-2.41 0l-8.15 8.15H42a12 12 0 0 0-12 12v58.27a10.74 10.74 0 0 0 10.73 10.73H120v-81zm-9.36-5.12l5.12 5.12 21 21h-8.09l-16.9-16.9a1.62 1.62 0 0 0-2.28 0L67 55.83h-8.06l24-24zm13.79 26.12H71.26L85.05 42zM76.5 29.71l2.16 2.16-24 24h-4.28l21-21zM42 37.83h22.14L61 40.92a1.46 1.46 0 0 0-.95.95l-14 14H42a9 9 0 0 1 0-18zm75 54h-16.5a7.5 7.5 0 0 1 0-15H117zm0-30h-1.5a1.5 1.5 0 1 0 0 3h1.5v9h-16.5a10.5 10.5 0 0 0 0 21H117v12h-1.5a1.5 1.5 0 0 0 0 3h1.5v3H40.73A7.74 7.74 0 0 1 33 105.1v-3.31a1.48 1.48 0 0 0 .36-1.43 9 9 0 0 1-.36-2.53v-41a1.48 1.48 0 0 0 .36-1.43c0-.1 0-.2-.06-.3l.41.42.4.36.51.43.43.32.56.37.46.28.6.32.48.23.65.26.49.18c.24.08.48.14.72.2l.48.12c.27.06.55.1.82.14l.41.06a12 12 0 0 0 1.28.07h75zm-1.59-6l-12-12h.09a1.5 1.5 0 0 0 0-3h-3.07l-3-3H117v18z"/><path class="cls-2" d="M112.5 40.83h-3a1.5 1.5 0 0 0 0 3h3a1.5 1.5 0 0 0 0-3z"/></svg>