<svg id="Layer_1" data-name="Layer 1" xmlns="http://www.w3.org/2000/svg" viewBox="0 0 30.9 40"><defs><style>.cls-1{fill:none}.cls-2{clip-path:url(#clip-path)}.cls-3{fill:url(#linear-gradient)}</style><clipPath id="clip-path" transform="translate(-4.57)"><path class="cls-1" d="M0 0h40v40H0z"/></clipPath><linearGradient id="linear-gradient" x1="4.34" y1="4.64" x2="35.7" y2="36.01" gradientTransform="matrix(1 0 0 -1 0 42)" gradientUnits="userSpaceOnUse"><stop offset="0" stop-color="#41dfd0"/><stop offset="1" stop-color="#ee83ef"/></linearGradient></defs><title>windmill</title><g class="cls-2"><path class="cls-3" d="M7.29 15.87a12.62 12.62 0 0 1 0-1.42.68.68 0 0 1 .7-.64.67.67 0 0 1 .64.7 11.21 11.21 0 0 0 0 1.27.67.67 0 0 1-.63.72.67.67 0 0 1-.71-.63zm12 11.88h1.42a.67.67 0 1 0-.07-1.34 11.69 11.69 0 0 1-1.27 0 .67.67 0 0 0-.07 1.34zM32 16.49a.67.67 0 0 0 .67-.63 12.94 12.94 0 0 0 0-2.13.67.67 0 0 0-1.34.13 11.53 11.53 0 0 1 0 1.9.67.67 0 0 0 .67.73zM18.75 3.66a11.47 11.47 0 0 1 1.9-.05.68.68 0 0 0 .71-.61.67.67 0 0 0-.63-.71 12.73 12.73 0 0 0-2.13.06.67.67 0 1 0 .07 1.34zM12.22 32l2.13-2.67a15.4 15.4 0 0 1-2.21-1.09L11 29.67a.67.67 0 0 1-.49.25.67.67 0 0 1-.47-.2L5.3 25a.67.67 0 0 1 .06-1l9.5-7.6a.66.66 0 0 1 .3-.13A4.7 4.7 0 0 1 17.51 14a2.68 2.68 0 0 1 .19-.39l-1-1-.95 1a.67.67 0 0 1-.89 0L9.92 9.69A11.42 11.42 0 0 0 9 12a.67.67 0 0 1-.65.49h-.18a.67.67 0 0 1-.47-.83 12.73 12.73 0 0 1 1.15-2.83L7.79 8A14.13 14.13 0 0 0 6 13.86a.67.67 0 0 1-.67.62h-.1a.67.67 0 0 1-.62-.72 15.48 15.48 0 0 1 2.12-6.62L5.35 6a.67.67 0 0 1-.06-1L10 .29a.69.69 0 0 1 .51-.2.67.67 0 0 1 .49.25l7.6 9.5a.67.67 0 0 1 0 .89l-1 .95 1 1a2.79 2.79 0 0 1 2.7 0l1-1-1-.95a.67.67 0 0 1 0-.89l3.95-4.93A11.32 11.32 0 0 0 23.19 4a.67.67 0 0 1 .37-1.29 12.71 12.71 0 0 1 2.63 1.09l.6-.76A14.1 14.1 0 0 0 20 1.34.67.67 0 0 1 20 0a15.46 15.46 0 0 1 7.63 2L29 .34a.67.67 0 0 1 1-.06L34.74 5a.67.67 0 0 1-.06 1l-9.5 7.6a.67.67 0 0 1-.89 0l-1-1-1 1a2.62 2.62 0 0 1 .2.39 4.71 4.71 0 0 1 2.36 2.21.65.65 0 0 1 .3.13l4.93 3.95a11.34 11.34 0 0 0 .83-2 .67.67 0 1 1 1.29.39 12.72 12.72 0 0 1-1.05 2.48l1.06.85a14.06 14.06 0 0 0 1.87-7.53.67.67 0 0 1 .65-.7.69.69 0 0 1 .69.65 15.39 15.39 0 0 1-2.14 8.43L34.69 24a.67.67 0 0 1 .06 1L30 29.73a.67.67 0 0 1-.47.2.67.67 0 0 1-.49-.25l-3.6-4.5V29l2.42 3L35 34.66a.67.67 0 0 1-.46 1.26l-1.11-.4v3.8a.67.67 0 0 1-.67.67H7.26a.67.67 0 0 1-.67-.67v-3.8l-1.11.4A.67.67 0 0 1 5 34.67zM12 33.58l-4 1.51v3.56h4zm16.12 5.08h4v-3.57l-4-1.51zm-5.3-28.45l.53.52L30 4.08a.67.67 0 0 1 .95 1l-6.65 6.65.53.53 8.44-6.75-3.7-3.74zm-5.6 0l-6.76-8.45-3.68 3.69 8.44 6.75.52-.53L9.1 5a.67.67 0 1 1 .9-.92l6.65 6.65zm4.14 26.43a1.34 1.34 0 0 0-2.69 0v2h2.69zm9.58-10.71a.67.67 0 0 1-.95 0l-6.65-6.65-.53.52 6.76 8.44 3.69-3.69-8.44-6.75-.53.53L30.94 25a.67.67 0 0 1 0 .93zm-13.63.88a.67.67 0 0 1-.65.49h-.19l-.47-.19v1.41l.21.06H24v-4h-8v1.14c.28.11.57.21.86.29a.67.67 0 0 1 .46.83zm5-10.44l1 1 .4-.4a3.36 3.36 0 0 0-1.12-1.35 2.64 2.64 0 0 1-.3.73zM18.68 15a1.33 1.33 0 0 0 .39.95A1.38 1.38 0 0 0 21 16a1.34 1.34 0 1 0-2.32-1zm0 2.31l-1 1 1 .95a.67.67 0 0 1 0 .89l-2.43 3h7.6l-2.43-3a.67.67 0 0 1 0-.89l1-.95-1-1a2.62 2.62 0 0 1-2.76 0zM16.3 17l.39.39 1-1a2.63 2.63 0 0 1-.3-.74A3.35 3.35 0 0 0 16.3 17zm.92 2.82l-.53-.52L10 25.93a.67.67 0 1 1-.9-.93l6.65-6.65-.52-.53-8.45 6.74 3.69 3.69.89-1.11a.61.61 0 0 1 0-.11.67.67 0 0 1 .2-.2zM14.65 28v-1.42c-.27-.13-.54-.26-.8-.4L13 27.24a14 14 0 0 0 1.65.76zM13.3 38.66h4v-2a2.69 2.69 0 0 1 5.37 0v2h4v-5.81l-2.27-2.92h-3.74a.66.66 0 0 1-.64.53 15.49 15.49 0 0 1-4-.53h-.4l-2.32 2.92zm4.7-7.39h-1.34v1.34H18zm2.69 0h-1.34v1.34h1.34zm2.69 0H22v1.34h1.34z" transform="translate(-4.57)"/></g></svg>