<svg id="Layer_1" data-name="Layer 1" xmlns="http://www.w3.org/2000/svg" viewBox="0 0 30 26"><defs><style>.cls-1{fill:#454545}</style></defs><title>basket</title><path class="cls-1" d="M14.49 23.6A2.49 2.49 0 1 1 12 21.2a2.45 2.45 0 0 1 2.49 2.4zm7.6-2.4a2.4 2.4 0 1 0 2.49 2.4 2.45 2.45 0 0 0-2.49-2.4zm7.73-11.28l-3.06 8.78a1.62 1.62 0 0 1-1.55 1.3H9.73c-1.54 0-1.61-1.63-1.61-1.63S6.48 6.61 6.39 5.9s-1-1.24-1-1.24L1.31 2.83C-.91 1.71.1-.42 1.31.07 6.46 2.41 8.85 3.56 9 4.48s.43 3.15.43 3.15h19c2.3 0 1.39 2.29 1.39 2.29zm-4.43 4.89h-15l.31 2.36h14zM26.85 10H9.73l.33 2.53h16z"/></svg>