<svg viewBox="0 0 200 200" fill="none" xmlns="http://www.w3.org/2000/svg"><g clip-path="url(#a)" fill="#FCEF43" fill-opacity=".75"><path d="M69.453 80.829a3.902 3.902 0 0 0 0-5.524 3.902 3.902 0 0 0-5.523 0 3.902 3.902 0 0 0 0 5.524 3.91 3.91 0 0 0 5.523 0zm38.672 5.523c4.569-4.568 4.569-12.002 0-16.57-4.579-4.58-11.995-4.581-16.574 0-4.58 4.579-4.58 11.99 0 16.57 4.569 4.569 12.004 4.57 16.574 0zm-11.05-11.047a3.908 3.908 0 0 1 5.526 0 3.91 3.91 0 0 1 0 5.522 3.912 3.912 0 0 1-5.526 0 3.9 3.9 0 0 1 0-5.522zm-5.524 38.666c-4.58 4.58-4.58 11.995 0 16.575s11.993 4.581 16.574 0c4.57-4.57 4.57-12.005 0-16.575-4.579-4.578-11.995-4.579-16.574 0zm11.05 11.052a3.908 3.908 0 1 1-5.526-5.527 3.908 3.908 0 0 1 5.526 5.527zm-34.216-18.57a3.905 3.905 0 0 0 4.596 3.064l55.241-11.05a3.906 3.906 0 0 0-1.532-7.66l-55.24 11.05a3.904 3.904 0 0 0-3.065 4.596z"/><path d="M118.753 22.1c-1.036 0-2.03.41-2.762 1.142l-41.01 41.011a3.907 3.907 0 0 0 5.523 5.525l38.249-38.249 49.716 49.718-87.695 87.695-49.718-49.716 27.351-27.351a3.905 3.905 0 0 0 0-5.524 3.91 3.91 0 0 0-5.525 0l-30.111 30.113a3.905 3.905 0 0 0 0 5.524l55.241 55.241a3.905 3.905 0 0 0 5.524 0l93.22-93.22a3.906 3.906 0 0 0 0-5.525l-55.241-55.242a3.906 3.906 0 0 0-2.762-1.143z"/><path d="M193.33 1.146L176.563 17.91c-9.782-7.387-23.291-7.508-32.991-.306L129.84 3.475l-.04-.04c-4.556-4.557-11.966-4.605-16.577.006L3.434 113.702c-4.579 4.579-4.58 11.995 0 16.576l15.494 15.492c-3.46 9.904-.964 21.133 6.603 28.697 7.565 7.569 18.794 10.063 28.698 6.606l15.494 15.492c4.58 4.579 11.998 4.578 16.568.006l110.274-109.8c4.58-4.581 4.58-11.992 0-16.572l-.04-.04-14.13-13.73c7.177-9.633 7.149-23.148-.306-32.993L198.853 6.67a3.906 3.906 0 0 0-5.523-5.525zm-19.055 52.76a3.916 3.916 0 0 0-1.145 2.791 3.91 3.91 0 0 0 1.184 2.772l16.742 16.27a3.9 3.9 0 0 1-.01 5.5L80.774 191.04a3.912 3.912 0 0 1-5.527 0l-17.325-17.324a3.902 3.902 0 0 0-4.42-.775c-7.512 3.525-16.533 1.918-22.446-3.999-5.918-5.913-7.524-14.932-4-22.444a3.906 3.906 0 0 0-.773-4.422L8.96 124.753a3.915 3.915 0 0 1 .004-5.533L118.754 8.958a3.903 3.903 0 0 1 5.505-.016l16.269 16.741c1.459 1.502 3.957 1.648 5.565.042 6.687-6.69 17.157-7.404 24.87-2.214l-5.729 5.73c-4.357-2.076-9.737-1.314-13.338 2.287-4.568 4.57-4.568 12.005 0 16.574 4.579 4.579 11.995 4.58 16.576 0 3.683-3.684 4.329-9.087 2.292-13.343l5.728-5.728c5.15 7.624 4.556 18.103-2.217 24.875zm-11.328-16.855a3.908 3.908 0 1 1-5.526 5.527 3.908 3.908 0 0 1 5.526-5.527z"/></g><defs><clipPath id="a"><path fill="#fff" d="M0 0h200v200H0z"/></clipPath></defs></svg>