<svg id="Layer_1" data-name="Layer 1" xmlns="http://www.w3.org/2000/svg" xmlns:xlink="http://www.w3.org/1999/xlink" viewBox="0 0 60 60"><defs><style>.cls-1{fill:url(#linear-gradient)}.cls-2{fill:url(#linear-gradient-2)}.cls-3{fill:url(#linear-gradient-3)}.cls-4{fill:#76e2f8}.cls-5{fill:#d8d8fc}.cls-6{fill:url(#linear-gradient-4)}.cls-7{fill:url(#linear-gradient-5)}.cls-8{fill:url(#linear-gradient-6)}.cls-9{fill:url(#linear-gradient-7)}.cls-10{fill:url(#linear-gradient-8)}.cls-11{fill:url(#linear-gradient-9)}</style><linearGradient id="linear-gradient" x1="8.79" y1="49.96" x2="51.21" y2="7.54" gradientTransform="matrix(1 0 0 -1 0 58.75)" gradientUnits="userSpaceOnUse"><stop offset=".01" stop-color="#2579e5"/><stop offset="1" stop-color="#e63950"/></linearGradient><linearGradient id="linear-gradient-2" x1="14.52" y1="40.12" x2="45.48" y2="9.16" gradientTransform="matrix(1 0 0 -1 0 58.75)" gradientUnits="userSpaceOnUse"><stop offset=".01" stop-color="#ececf1"/><stop offset="1" stop-color="#d3d3d8"/></linearGradient><linearGradient id="linear-gradient-3" x1="19.18" y1="53" x2="40.82" y2="31.35" gradientTransform="matrix(1 0 0 -1 0 58.75)" gradientUnits="userSpaceOnUse"><stop offset=".01" stop-color="#575f64"/><stop offset="1" stop-color="#32393f"/></linearGradient><linearGradient id="linear-gradient-4" x1="16.13" y1="30.29" x2="29.49" y2="16.93" gradientTransform="matrix(1 0 0 -1 0 58.75)" gradientUnits="userSpaceOnUse"><stop offset=".01" stop-color="#ff637b"/><stop offset="1" stop-color="#e63950"/></linearGradient><linearGradient id="linear-gradient-5" x1="19.66" y1="32.02" x2="25.95" y2="25.73" xlink:href="#linear-gradient-3"/><linearGradient id="linear-gradient-6" x1="32.57" y1="23.1" x2="35.65" y2="20.02" gradientTransform="matrix(1 0 0 -1 0 58.75)" gradientUnits="userSpaceOnUse"><stop offset="0" stop-color="#00c0f1"/><stop offset="1" stop-color="#009ae4"/></linearGradient><linearGradient id="linear-gradient-7" x1="36.16" y1="24.64" x2="40.27" y2="20.53" gradientTransform="matrix(1 0 0 -1 0 58.75)" gradientUnits="userSpaceOnUse"><stop offset=".01" stop-color="#5bc980"/><stop offset="1" stop-color="#00ab5e"/></linearGradient><linearGradient id="linear-gradient-8" x1="39.25" y1="27.72" x2="45.41" y2="21.56" xlink:href="#linear-gradient-4"/><linearGradient id="linear-gradient-9" x1="35.14" y1="21.56" x2="41.3" y2="15.39" xlink:href="#linear-gradient-3"/></defs><title>logo-footer</title><path class="cls-1" d="M60 30A30 30 0 1 1 30 0a30 30 0 0 1 30 30z"/><path class="cls-2" d="M47.53 20.68v26.85H12.47V20.68l2.12-2.05h30.89z"/><path class="cls-3" d="M12.47 12.47h35.06v8.22H12.47z"/><path class="cls-4" d="M16.64 15.55h4.11v2.05h-4.11zm6.17 0h4.11v2.05h-4.11zm6.19 0h4.11v2.05H29z"/><path class="cls-5" d="M43.35 16.58a1 1 0 1 1-1-1 1 1 0 0 1 1 1zm-4.11 0a1 1 0 1 1-1-1 1 1 0 0 1 1 1z"/><path class="cls-6" d="M15.62 29v12.3H30V29z"/><path class="cls-7" d="M25.89 27.95v5.14h-2.05v-5.14a1 1 0 0 0-2.05 0v5.14h-2.06v-5.14a3.08 3.08 0 0 1 6.16 0z"/><path class="cls-8" d="M35.14 39.25l-1 1-1-1v-4.11h2.05z"/><path class="cls-9" d="M39.25 39.25l-1 1-1-1v-6.17h2.05z"/><path class="cls-10" d="M43.36 39.25l-1 1-1-1V29h2.05z"/><path class="cls-11" d="M33.08 39.25h10.28v2.05H33.08z"/></svg>