<svg width="100" height="50" viewBox="0 0 100 50" fill="none" xmlns="http://www.w3.org/2000/svg"><path d="M0 0c23.276 8.064 63.362 7.056 86.207 2.016 3.71-.434-.605 9.595 3.448 9.071 3.857-.498 6.035 0 10.345-1.512v34.27c-27.155 7.56-56.035 8.064-84.914 2.016-6.034-2.015-1.145-9.17-5.172-10.583C5.604 33.766 3.448 34.27 0 31.246V0z" fill="#03D318"/><path d="M24.672 38v-4.16L32.096 26c.747-.81 1.29-1.461 1.632-1.952.341-.512.512-1.013.512-1.504 0-.555-.181-1.003-.544-1.344-.341-.341-.821-.512-1.44-.512-1.323 0-2.325.779-3.008 2.336l-4.928-2.752c.725-1.685 1.792-2.965 3.2-3.84 1.408-.875 2.965-1.312 4.672-1.312 2.133 0 3.957.64 5.472 1.92 1.536 1.259 2.304 2.987 2.304 5.184 0 1.301-.31 2.507-.928 3.616-.597 1.088-1.483 2.24-2.656 3.456l-3.04 3.168h7.008V38h-15.68zm33.224-2.688c-1.621 2.112-3.893 3.168-6.816 3.168s-5.205-1.056-6.848-3.168c-1.621-2.133-2.432-4.97-2.432-8.512 0-3.541.81-6.368 2.432-8.48 1.643-2.133 3.925-3.2 6.848-3.2s5.195 1.067 6.816 3.2c1.643 2.112 2.464 4.939 2.464 8.48 0 3.541-.821 6.379-2.464 8.512zM47.528 26.8c0 4.075 1.184 6.112 3.552 6.112 2.368 0 3.552-2.037 3.552-6.112s-1.184-6.112-3.552-6.112c-2.368 0-3.552 2.037-3.552 6.112zm20.011-.192c-1.664 0-3.061-.555-4.192-1.664-1.13-1.13-1.696-2.496-1.696-4.096s.566-2.955 1.696-4.064c1.13-1.11 2.528-1.664 4.192-1.664 1.664 0 3.05.555 4.16 1.664 1.11 1.11 1.664 2.464 1.664 4.064 0 1.621-.565 2.987-1.696 4.096-1.11 1.11-2.485 1.664-4.128 1.664zm-2.56 7.872l14.72-16 2.24 1.28-14.752 15.968-2.208-1.248zm2.528-11.936c.49 0 .886-.16 1.184-.48.32-.341.48-.747.48-1.216 0-.47-.16-.864-.48-1.184-.298-.32-.693-.48-1.184-.48-.47 0-.864.16-1.184.48-.298.32-.448.715-.448 1.184 0 .49.15.896.448 1.216.32.32.715.48 1.184.48zm12.416 15.904c-1.685 0-3.093-.555-4.224-1.664-1.11-1.11-1.664-2.464-1.664-4.064 0-1.621.555-2.987 1.664-4.096 1.13-1.11 2.539-1.664 4.224-1.664 1.664 0 3.05.565 4.16 1.696 1.11 1.11 1.664 2.464 1.664 4.064s-.565 2.955-1.696 4.064c-1.11 1.11-2.485 1.664-4.128 1.664zm-1.216-4.544c.32.32.715.48 1.184.48.47 0 .854-.16 1.152-.48.32-.341.48-.736.48-1.184 0-.49-.16-.896-.48-1.216-.298-.32-.682-.48-1.152-.48-.47 0-.864.16-1.184.48-.298.32-.448.725-.448 1.216 0 .47.15.864.448 1.184z" fill="#fff" filter="url(#a)"/><defs><filter id="a" x="24.32" y="15.12" width="61.427" height="25.36" filterUnits="userSpaceOnUse" color-interpolation-filters="sRGB"><feFlood flood-opacity="0" result="BackgroundImageFix"/><feBlend in="SourceGraphic" in2="BackgroundImageFix" result="shape"/><feColorMatrix in="SourceAlpha" values="0 0 0 0 0 0 0 0 0 0 0 0 0 0 0 0 0 0 127 0" result="hardAlpha"/><feOffset dy="2"/><feGaussianBlur stdDeviation="2"/><feComposite in2="hardAlpha" operator="arithmetic" k2="-1" k3="1"/><feColorMatrix values="0 0 0 0 0 0 0 0 0 0 0 0 0 0 0 0 0 0 0.25 0"/><feBlend in2="shape" result="effect1_innerShadow"/></filter></defs></svg>