<svg id="Layer_1" data-name="Layer 1" xmlns="http://www.w3.org/2000/svg" viewBox="0 0 20 20"><defs><style>.cls-1{fill:#16bd2d}</style></defs><title>clock</title><path class="cls-1" d="M10 0a10 10 0 1 0 10 10A10 10 0 0 0 10 0zm.43 19.12v-1.76a.43.43 0 1 0-.86 0v1.76a9.14 9.14 0 0 1-8.69-8.69h1.76a.43.43 0 1 0 0-.86H.88A9.14 9.14 0 0 1 9.57.88v1.76a.43.43 0 1 0 .86 0V.88a9.14 9.14 0 0 1 8.69 8.69h-1.76a.43.43 0 1 0 0 .86h1.76a9.14 9.14 0 0 1-8.69 8.69z"/><path class="cls-1" d="M14.53 14l-4.1-4.17V5.5a.43.43 0 0 0-.86 0V10a.43.43 0 0 0 .12.3l4.22 4.29a.43.43 0 0 0 .61-.6z"/></svg>