<svg id="Layer_1" data-name="Layer 1" xmlns="http://www.w3.org/2000/svg" viewBox="0 0 36 24.54"><defs><style>.cls-1{fill:#16bd2d}</style></defs><title>delivery-truck</title><path class="cls-1" d="M29.43 23.67a3.32 3.32 0 0 0-2.35 1 3.26 3.26 0 0 0 0 4.66 3.34 3.34 0 0 0 2.35 1 3.3 3.3 0 0 0 0-6.6zm0 5.13a1.83 1.83 0 1 1 0-3.67 1.83 1.83 0 0 1 0 3.67zm.85-16.12a.71.71 0 0 0-.49-.19H26a.74.74 0 0 0-.73.73v6A.74.74 0 0 0 26 20h6a.74.74 0 0 0 .73-.73v-4a.73.73 0 0 0-.24-.54zm1 5.82h-4.5V14h2.74l1.76 1.58zm-19.75 5.17a3.32 3.32 0 0 0-2.35 1 3.26 3.26 0 0 0 0 4.66 3.34 3.34 0 0 0 2.35 1 3.3 3.3 0 0 0 0-6.6zm0 5.13a1.83 1.83 0 1 1 0-3.67 1.83 1.83 0 0 1 0 3.67zm-4.89-4.22H5.17v-1.95a.73.73 0 0 0-1.47 0v2.68a.74.74 0 0 0 .73.73h2.21a.73.73 0 1 0 0-1.47zm3.72-4a.74.74 0 0 0-.73-.73H.73a.73.73 0 0 0 0 1.47h8.89a.73.73 0 0 0 .74-.74zm-8.14-2.65l8.89.05a.74.74 0 0 0 .74-.73.73.73 0 0 0-.73-.74l-8.89-.05a.73.73 0 0 0 0 1.47zm1.5-3.33h8.89a.73.73 0 1 0 0-1.47H3.72a.73.73 0 0 0 0 1.47zm32-1l-5.24-4.33A.72.72 0 0 0 30 9.1h-6.16V6.46a.74.74 0 0 0-.73-.73H4.43a.74.74 0 0 0-.73.73v5.37a.73.73 0 1 0 1.47 0V7.19h17.21v17.39h-6a.73.73 0 1 0 0 1.47h9a.73.73 0 0 0 0-1.47h-1.53v-14h5.91l4.78 4-.05 10h-.76a.73.73 0 0 0 0 1.47h1.49a.73.73 0 0 0 .73-.73L36 14.19a.77.77 0 0 0-.27-.57z" transform="translate(0 -5.73)"/></svg>