<svg id="Layer_1" data-name="Layer 1" xmlns="http://www.w3.org/2000/svg" viewBox="0 0 32 32"><defs><style>.cls-1{fill:none}.cls-2{clip-path:url(#clip-path)}.cls-3{fill:#dc9f90}</style><clipPath id="clip-path"><path class="cls-1" d="M0 0h32v32H0z"/></clipPath></defs><title>factory</title><g class="cls-2"><path class="cls-3" d="M31.53 31.06H30v-6.44A1.47 1.47 0 0 0 29 22h-3l-.47-7.58A.47.47 0 0 0 25 14h-2a.47.47 0 0 0-.47.44L22.07 22h-1.12l-.47-7.58A.47.47 0 0 0 20 14h-2a.47.47 0 0 0-.47.44L17.06 22h-1.12l-.47-7.58A.47.47 0 0 0 15 14h-2a.47.47 0 0 0-.47.44L12.05 22h-1.3l-.29-13a.47.47 0 0 0-.46-.48H7a.47.47 0 0 0-.49.48l-.33 15H2.47a1.47 1.47 0 0 0-1 2.58v4.44h-1a.47.47 0 1 0 0 .94h31.06a.47.47 0 1 0 0-.94zm-25.4-5H4.48a.47.47 0 1 0 0 .94h1.63L6 31.06H2.44V27a.47.47 0 1 0 0-.94.53.53 0 1 1 0-1.07h3.72zM23.45 15h1.12l.43 7h-2zm-5 0h1.12l.43 7h-2zm-5 0h1.12l.43 7h-2zM8 31.06H7l.44-21.61h2.09L9.81 22H9a1.47 1.47 0 0 0-1 2.58zm21-7h-1a.47.47 0 1 0 0 .94h1v6.08H9V25h17a.47.47 0 0 0 0-1H9a.53.53 0 1 1 0-1h20a.53.53 0 0 1 0 1zM26 0a5.94 5.94 0 0 0-3.83 1.4 4.46 4.46 0 0 0-5.81.39 3.47 3.47 0 0 0-4.55 1.8 2.13 2.13 0 0 0-.58-.08A2.22 2.22 0 0 0 9.14 5H9a1.47 1.47 0 0 0-1.49 1.48.47.47 0 1 0 .94 0A.53.53 0 0 1 9 5.95a.52.52 0 0 1 .26.05.47.47 0 0 0 .74-.35 1.28 1.28 0 0 1 1.27-1.21 1.26 1.26 0 0 1 .63.17.47.47 0 0 0 .68-.29 2.53 2.53 0 0 1 3.7-1.56.47.47 0 0 0 .59-.1 3.53 3.53 0 0 1 5.05-.31.47.47 0 0 0 .64 0 5 5 0 1 1-.93 6 .47.47 0 0 0-.61-.2 3.52 3.52 0 0 1-4.15-.9.47.47 0 0 0-.59-.1A2.53 2.53 0 0 1 13 6.52a.47.47 0 0 0-.37-.18.47.47 0 0 0-.37.18 1.27 1.27 0 0 1-1 .5.47.47 0 0 0 0 .94 2.19 2.19 0 0 0 1.35-.47 3.46 3.46 0 0 0 3.78.68 4.47 4.47 0 0 0 3.14 1.29A4.42 4.42 0 0 0 21 9.2 6 6 0 1 0 26 0z"/><path class="cls-3" d="M12 26.05a.47.47 0 0 0-.47.47v1a.47.47 0 1 0 .94 0v-1a.47.47 0 0 0-.47-.47zm2 0a.47.47 0 0 0-.47.47v1a.47.47 0 1 0 .94 0v-1a.47.47 0 0 0-.47-.47zm2 0a.47.47 0 0 0-.47.47v1a.47.47 0 1 0 .94 0v-1a.47.47 0 0 0-.47-.47zm2 0a.47.47 0 0 0-.47.47v1a.47.47 0 1 0 .94 0v-1a.47.47 0 0 0-.47-.47zm2 0a.47.47 0 0 0-.47.47v1a.47.47 0 1 0 .94 0v-1a.47.47 0 0 0-.47-.47zm2 0a.47.47 0 0 0-.47.47v1a.47.47 0 1 0 .94 0v-1a.47.47 0 0 0-.47-.47zm2 0a.47.47 0 0 0-.47.47v1a.47.47 0 1 0 .94 0v-1a.47.47 0 0 0-.47-.47zm2 0a.47.47 0 0 0-.47.47v1a.47.47 0 1 0 .94 0v-1a.47.47 0 0 0-.47-.47z"/></g></svg>