<svg id="Layer_1" data-name="Layer 1" xmlns="http://www.w3.org/2000/svg" viewBox="0 0 27.46 32"><defs><style>.cls-1{fill:#16bd2d}</style></defs><title>nuts1</title><path class="cls-1" d="M14 30.87a.52.52 0 0 1-.52.52H4.79a.52.52 0 0 1-.52-.52V18.32l.79-14.17V.52A.52.52 0 0 1 5.58 0h16a.52.52 0 0 1 .52.52v3.63l.46 7.72a.52.52 0 1 1-1 .06l-.5-7.73V1h-1.27v1a.52.52 0 1 1-1 0V1h-1.24v1a.52.52 0 1 1-1 0V1h-1.23v1a.52.52 0 0 1-1 0V1h-1.23v1a.52.52 0 1 1-1 0V1h-1.24v1a.52.52 0 0 1-1 0V1H8.62v1a.52.52 0 1 1-1 0V1H6.11v2.79h12.44a.52.52 0 0 1 0 1H6.07l-.75 13.58v12h8.19a.52.52 0 0 1 .49.5zm17.38-6.13a.52.52 0 0 1-.74.74l-.58-.58a2.48 2.48 0 0 0-2-.64l.83.83a2.94 2.94 0 0 1 .82 3.15v.07a3.82 3.82 0 0 1-.53 1 7.91 7.91 0 0 1-6.1 2.69 6.37 6.37 0 0 1-3.08-.73.52.52 0 0 1-.21-.21c-1.66-3.05-.29-7.41 2-9.12a3.82 3.82 0 0 1 1-.53h.07a2.94 2.94 0 0 1 3.14.79.52.52 0 0 1-.74.74 1.93 1.93 0 0 0-1.73-.66 6 6 0 0 0 5.28 5.28 1.93 1.93 0 0 0-.66-1.73L27 24.67a.52.52 0 0 1-.6-.86 3.57 3.57 0 0 1 4.45.35zm-3.1 3.9v-.06a7.08 7.08 0 0 1-5.84-5.84h-.07a6.77 6.77 0 0 0-1.78 7.65 6.77 6.77 0 0 0 7.72-1.76zM18.1 30.35a4.74 4.74 0 0 1-2.73-1.83 4.84 4.84 0 0 1-1-3.15 1.26 1.26 0 0 1 2.52.15 2.31 2.31 0 0 0 .5 1.48.52.52 0 0 0 .84-.62 1.28 1.28 0 0 1-.27-.81 2.31 2.31 0 0 0-4.61-.27 5.89 5.89 0 0 0 1.18 3.83 5.79 5.79 0 0 0 3.34 2.23H18a.52.52 0 0 0 .12-1zm3.61-16.72a2.31 2.31 0 1 1 0 4.63 1.2 1.2 0 0 0-.75.31 1.28 1.28 0 0 0-.45.73 2.31 2.31 0 0 1-2.27 1.93 2.34 2.34 0 0 1-.38 0A2.31 2.31 0 0 1 16 18.55a5.89 5.89 0 0 1 2-3.48 5.79 5.79 0 0 1 3.71-1.43zm0 1a4.74 4.74 0 0 0-3.07 1.18A4.84 4.84 0 0 0 17 18.72a1.26 1.26 0 1 0 2.49.42 2.31 2.31 0 0 1 .8-1.35 2.22 2.22 0 0 1 1.43-.57 1.27 1.27 0 0 0 0-2.53zm5.68 1.59a.82.82 0 0 0 .45-.3.75.75 0 0 0 .16-.42 1.85 1.85 0 1 1 3.71-.11 4.44 4.44 0 0 1-1 2.91 4.51 4.51 0 0 1-2.61 1.6 1.87 1.87 0 0 1-.36 0 1.85 1.85 0 0 1-.36-3.67zm.2 1a.8.8 0 1 0 .31 1.58 3.46 3.46 0 0 0 2-1.24 3.39 3.39 0 0 0 .78-2.22.81.81 0 0 0-.81-.78.81.81 0 0 0-.78.83 1.79 1.79 0 0 1-.42 1.16 1.85 1.85 0 0 1-1.08.75zm-1.22-5.84a.52.52 0 0 0 .74 0l.23-.23a.52.52 0 0 0-.74-.74l-.23.23a.52.52 0 0 0 0 .82zm-.76-3.37a.52.52 0 0 0 .39-.07l.23-.23a.52.52 0 1 0-.76-.71l-.23.23a.52.52 0 0 0 .37.89zm4.44-2.73a.52.52 0 0 0 .37-.15l.24-.13a.52.52 0 1 0-.74-.74l-.23.23a.52.52 0 0 0 .37.89zM13 20.65a.52.52 0 0 0-.74.74l.23.23a.52.52 0 0 0 .74-.74zm.88-3.14a.52.52 0 0 0 .37-.89l-.25-.23a.52.52 0 0 0-.74.74l.23.23a.52.52 0 0 0 .39.16zm-4.79-1.23a.52.52 0 0 0 0 .74l.23.23a.52.52 0 0 0 .74-.74l-.23-.23a.52.52 0 0 0-.74 0zm6.5-1.09h.16a.52.52 0 0 0 .16-1 .64.64 0 0 1-.43-.45 1.69 1.69 0 0 0-.67-.93 1.63 1.63 0 0 0-1.08-.32.64.64 0 0 1-.11-1.28 2.91 2.91 0 0 1 1.94.56 3 3 0 0 1 1.17 1.68.52.52 0 1 0 1-.25 4 4 0 0 0-1.58-2.29 4 4 0 0 0-2.64-.75 1.69 1.69 0 1 0 .3 3.37.61.61 0 0 1 .38.13.65.65 0 0 1 .26.34 1.68 1.68 0 0 0 1.14 1.19z" transform="translate(-4.27)"/></svg>