<svg id="Layer_1" data-name="Layer 1" xmlns="http://www.w3.org/2000/svg" viewBox="0 0 26 26"><defs><style>.cls-1{fill:none}.cls-2{clip-path:url(#clip-path)}.cls-3{fill:#f44545}</style><clipPath id="clip-path"><path class="cls-1" d="M0 0h26v26H0z"/></clipPath></defs><title>phone-call</title><g class="cls-2"><path class="cls-3" d="M26 21.4a2 2 0 0 0-1-1.48l-6.41-3.69a2 2 0 0 0-2.42.32l-1.26 1.26a.93.93 0 0 1-1.24.07 36.52 36.52 0 0 1-2.91-2.62 36.53 36.53 0 0 1-2.62-2.91.93.93 0 0 1 .07-1.24l1.24-1.27a2 2 0 0 0 .32-2.42L6.08 1A2 2 0 0 0 2.92.59L1 2.49C-.32 3.82-.34 6.25 1 9.34a30.23 30.23 0 0 0 6.52 9.19A30.22 30.22 0 0 0 16.66 25a10.72 10.72 0 0 0 4 1 3.84 3.84 0 0 0 2.82-1l1.9-1.9a2 2 0 0 0 .62-1.7zM18.16 17l6.41 3.69a1.17 1.17 0 0 1 .36 1.7l-8.52-4.87.35-.35a1.17 1.17 0 0 1 1.4-.17zM4.49.85a1.16 1.16 0 0 1 .86.57L9 7.84a1.17 1.17 0 0 1-.19 1.41l-.32.32-4.84-8.5a1.15 1.15 0 0 1 .68-.23zm18.42 23.54c-1.06 1.06-3.21 1-5.92-.12a29.37 29.37 0 0 1-8.92-6.34A29.37 29.37 0 0 1 1.73 9C.6 6.3.55 4.14 1.61 3.09L3 1.67l4.9 8.51-.33.33a1.77 1.77 0 0 0-.13 2.36 37.37 37.37 0 0 0 2.68 3 37.38 37.38 0 0 0 3 2.68 1.77 1.77 0 0 0 2.36-.13l.3-.3L24.32 23z"/></g></svg>