<svg viewBox="0 0 25 25" fill="none" xmlns="http://www.w3.org/2000/svg"><g clip-path="url(#a)" fill="#fff"><path d="M5.984 13.594c-.614 0-1.113.499-1.113 1.112a1.114 1.114 0 0 0 2.225 0c0-.613-.499-1.112-1.112-1.112zm0 1.491a.38.38 0 1 1 0-.758.38.38 0 0 1 0 .758zM16.05 20.67a.367.367 0 0 0-.348-.254h-2.18l-.673-2.073a.37.37 0 0 0-.35-.253.37.37 0 0 0-.348.253l-.674 2.073h-2.18a.367.367 0 0 0-.215.664l1.763 1.281-.673 2.073a.37.37 0 0 0 .121.401.37.37 0 0 0 .443.01l1.764-1.282 1.763 1.281c.138.1.332.09.46-.022a.37.37 0 0 0 .104-.388l-.673-2.073 1.763-1.281a.367.367 0 0 0 .134-.41zm-2.543 1.254a.367.367 0 0 0-.133.41l.407 1.253-1.066-.774a.37.37 0 0 0-.431 0l-1.065.774.407-1.253a.367.367 0 0 0-.134-.41l-1.065-.774h1.317c.159 0 .3-.102.349-.254l.407-1.252.407 1.252c.049.152.19.254.348.254h1.317l-1.065.774zm11.475-1.254a.367.367 0 0 0-.349-.254h-2.18l-.673-2.073a.37.37 0 0 0-.349-.253.37.37 0 0 0-.349.253l-.673 2.073h-2.18a.367.367 0 0 0-.215.664l1.763 1.281-.674 2.073a.37.37 0 0 0 .122.401.37.37 0 0 0 .443.01l1.763-1.282 1.764 1.281c.137.1.331.09.459-.022a.37.37 0 0 0 .105-.388l-.673-2.073 1.763-1.281a.367.367 0 0 0 .133-.41zm-2.543 1.254a.367.367 0 0 0-.134.41l.407 1.253-1.065-.774a.367.367 0 0 0-.431 0l-1.066.774.407-1.253a.367.367 0 0 0-.133-.41l-1.066-.774h1.317c.16 0 .3-.102.35-.254l.406-1.252.407 1.252c.05.152.19.254.35.254h1.316l-1.065.774zM7.12 20.67a.367.367 0 0 0-.349-.254h-2.18l-.673-2.073a.367.367 0 0 0-.698 0l-.674 2.073H.368a.367.367 0 0 0-.216.664l1.764 1.281-.674 2.073a.367.367 0 0 0 .565.41l1.763-1.281 1.763 1.281c.138.1.332.09.46-.022a.37.37 0 0 0 .105-.388l-.674-2.073 1.764-1.281a.367.367 0 0 0 .133-.41zm-2.544 1.254a.367.367 0 0 0-.133.41l.407 1.253-1.065-.774a.37.37 0 0 0-.432 0l-1.065.774.407-1.253a.367.367 0 0 0-.133-.41l-1.066-.774h1.317c.159 0 .3-.102.349-.254l.407-1.252.407 1.252c.049.151.19.254.349.254h1.317l-1.066.774z"/><path d="M22.03 9.233a1.66 1.66 0 0 0-1.041-2.958h-5.903c.184-.4.396-1.01.517-1.857.28-1.968-.144-3.012-.55-3.542-.344-.449-.805-.72-1.335-.784a.782.782 0 0 0-.867.749c-.068.705-.32 2.641-.68 3.361-.924 1.85-3.129 2.953-3.81 3.258a1.355 1.355 0 0 0-.886-.33H4.492c-.75 0-1.361.611-1.361 1.362v7.458c0 .75.61 1.36 1.361 1.36h2.983c.402 0 .763-.174 1.013-.452.387.245 1.012.517 1.875.517h9.589a1.665 1.665 0 0 0 1.248-2.76 1.665 1.665 0 0 0 .518-2.592 1.665 1.665 0 0 0 .311-2.79zM7.474 16.577H4.492a.628.628 0 0 1-.627-.627V8.492c0-.346.281-.627.627-.627h2.983c.175 0 .334.072.448.188v8.183c0 .044.008.087.023.127a.626.626 0 0 1-.47.214zM19.447 9.6h1.542a.93.93 0 0 1 0 1.858h-1.542a.367.367 0 0 0 0 .734h1.023a.93.93 0 0 1 0 1.858h-1.304a.367.367 0 0 0 0 .733h.786a.93.93 0 0 1 0 1.858h-9.589c-.757 0-1.27-.253-1.55-.444.015-.08.023-.163.023-.247V8.492a1.37 1.37 0 0 0-.063-.412c.86-.394 3.06-1.56 4.055-3.55.497-.994.745-3.527.755-3.634a.373.373 0 0 0 .002-.035A.04.04 0 0 1 13.6.83a.036.036 0 0 1 .03-.01c.23.028.563.138.842.502.32.418.65 1.277.405 2.993-.207 1.454-.7 2.09-.703 2.094a.37.37 0 0 0 .284.6h6.532a.93.93 0 0 1 0 1.857h-1.542a.367.367 0 1 0 0 .734z"/></g><defs><clipPath id="a"><path fill="#fff" d="M0 0h25v25H0z"/></clipPath></defs></svg>