<svg id="Capa_1" data-name="Capa 1" xmlns="http://www.w3.org/2000/svg" viewBox="0 0 486.72 512"><defs><style>.cls-1{fill:#fff}</style></defs><title>basket-icon</title><path class="cls-1" d="M177.5 356.94h284v35.47H149L91.42 131H12.64V95.59h107.24zM209.76 416a48 48 0 1 0 48 48 48 48 0 0 0-48-48zm197.85 0a48 48 0 1 0 48 48 48 48 0 0 0-48-48zm-212.18-85.6l-42.1-218h68.88L374.88 0l68.31 92.77-2.95 19.58h59.12l-49.23 218zm236.62-230.06l-16.34 12h14.55zm-193.2 12h35.87l-2.14-2.93 6.94-5.11 5.94 8h8.79l-9-12.26 7-5.11L305 112.34h10l-16.3-22.11 7-5.11 20.06 27.22h11.47L313.3 79.95l6.94-5.13 27.61 37.52h10l-31.12-42.29 6.95-5.05 34.84 47.37h30.56l30-22.08-56.24-76.5zm159.6-15.15l-38.25-52-7 5.11 38.27 52zm-13.37 9.89l-38.29-52-6.94 5.11 38.32 52z" transform="translate(-12.64)"/></svg>