<svg id="Capa_1" data-name="Capa 1" xmlns="http://www.w3.org/2000/svg" viewBox="0 0 512 512"><defs><style>.cls-1{fill:#fff}</style></defs><title>chat</title><path class="cls-1" d="M170.67 247.47h93.87a8.53 8.53 0 0 0 0-17.07h-93.87a8.53 8.53 0 1 0 0 17.07zm136.53 42.66H128a8.53 8.53 0 1 0 0 17.07h179.2a8.53 8.53 0 1 0 0-17.07zm0 59.74H128a8.53 8.53 0 1 0 0 17.07h179.2a8.53 8.53 0 1 0 0-17.07z"/><path class="cls-1" d="M511.56 406.9l-33.27-99.81a205.36 205.36 0 0 0 26.8-101.49C505.09 92.24 412.84 0 299.48 0a205.78 205.78 0 0 0-186.75 119.8C49.68 155 6.92 222.3 6.92 299.48A205.38 205.38 0 0 0 33.72 401L.44 500.77a8.53 8.53 0 0 0 10.26 10.95L119.83 483a206.09 206.09 0 0 0 92.7 22.08c80.75 0 150.74-46.81 184.35-114.71l104.41 27.48a9 9 0 0 0 2.18.27 8.54 8.54 0 0 0 8.1-11.23zM212.52 488a189.09 189.09 0 0 1-64.44-11.42l28.25-6.29a8.54 8.54 0 0 0-3.7-16.67L119 465.59c-.06 0-.1.06-.16.07h-.15l-97 25.54 29.5-88.51a8.54 8.54 0 0 0-.76-7.06A188.35 188.35 0 0 1 24 299.47c0-73.75 42.59-137.71 104.45-168.68 1.07-.53 2.12-1.08 3.2-1.6 1.72-.82 3.46-1.6 5.21-2.36s3.26-1.41 4.91-2.07c1.43-.58 2.87-1.16 4.32-1.71 2.47-.93 5-1.81 7.48-2.64.73-.24 1.44-.5 2.17-.73q5.29-1.66 10.67-3l.44-.1c3.36-.84 6.76-1.57 10.16-2.23l2.2-.39q4.26-.77 8.57-1.33l2.78-.36c2.76-.32 5.53-.57 8.31-.78.93-.07 1.84-.16 2.77-.21 3.63-.21 7.26-.34 10.9-.34 104 0 188.54 84.61 188.54 188.57q0 4.93-.26 9.82c-.08 1.5-.23 3-.34 4.46-.13 1.74-.23 3.49-.41 5.22s-.44 3.49-.67 5.22c-.19 1.45-.35 2.9-.57 4.34-.27 1.76-.61 3.48-.94 5.22-.26 1.43-.5 2.87-.8 4.29-.34 1.62-.73 3.23-1.12 4.83s-.72 3.09-1.13 4.63-.82 2.91-1.25 4.36c-.49 1.66-1 3.33-1.49 5-.43 1.34-.9 2.67-1.36 4-.6 1.73-1.2 3.46-1.85 5.17-.49 1.3-1 2.58-1.53 3.86q-1 2.5-2.08 5C356.14 441.4 289.69 488 212.52 488zm191.4-113.43c.15-.37.24-.74.38-1.11q3-7.81 5.42-15.91c.26-.87.5-1.74.74-2.62 1.48-5.28 2.78-10.65 3.84-16.09.18-.92.33-1.85.49-2.77 1-5.49 1.8-11 2.35-16.65.07-.67.09-1.36.15-2 .52-5.91.84-11.88.84-17.92 0-113.37-92.24-205.61-205.61-205.61-6.08 0-12.07.32-18 .84l-1.43.11c-5.9.55-11.72 1.39-17.46 2.44l-1.48.26q-8.58 1.63-16.89 4l-1.88.54q-8 2.33-15.8 5.27c-.39.15-.8.25-1.2.4a188.79 188.79 0 0 1 161.1-90.62c104 0 188.54 84.58 188.54 188.54a188.37 188.37 0 0 1-26.37 96.17 8.54 8.54 0 0 0-.76 7.06l29.5 88.5z"/></svg>