<svg id="Capa_1" data-name="Capa 1" xmlns="http://www.w3.org/2000/svg" viewBox="0 0 511.83 512"><defs><style>.cls-1{fill:#fff}</style></defs><title>confetti</title><path class="cls-1" d="M349.11 321.09a8.53 8.53 0 1 0-16 5.78l.12.32c7.78 20.3 8.34 35.83 1.54 42.65-8.26 8.24-28.82 5.66-55-6.88a364.86 364.86 0 0 1-94.42-70.46c-66.82-66.82-94.38-132.39-77.33-149.45a23.3 23.3 0 0 1 19.29-4.5 8.53 8.53 0 0 0 1.65-17 39.28 39.28 0 0 0-33 9.38c-31.25 31.25 16.52 112.75 77.33 173.57a381.49 381.49 0 0 0 99.12 73.78 168 168 0 0 0 20.57 8.23l-60.61 23a241.44 241.44 0 0 1-152.69-188 8.53 8.53 0 1 0-16.86 2.64 258.25 258.25 0 0 0 146.43 194.09L109.5 456a8.38 8.38 0 0 0-1.71-2 118.85 118.85 0 0 1-44-82.6l-4-47.93a8.43 8.43 0 0 0-9-7.84h-.26a8.53 8.53 0 0 0-7.83 9.18v.06l4 47.91a135.88 135.88 0 0 0 45.13 89.86l-71.07 26.92 12.8-52.51A8.53 8.53 0 1 0 17 433L.33 501.25a8.53 8.53 0 0 0 11.31 10l315.62-119.42a8 8 0 0 0 1.42-.89 33.14 33.14 0 0 0 18.11-9c8.44-8.48 15.72-25.94 2.32-60.85z" transform="translate(-.09)"/><path class="cls-1" d="M429.61 299.09a280.9 280.9 0 0 0-144.52-14l-30.48 5.12a8.53 8.53 0 0 0 2.81 16.79l30.47-5.08a263.64 263.64 0 0 1 135.73 13.19 8.78 8.78 0 0 0 3 .5 8.53 8.53 0 0 0 3-16.52zm30.32-132.16a8.53 8.53 0 0 0-11.37-4L269.43 248.2a8.53 8.53 0 0 0-4 11.37 8.53 8.53 0 0 0 11.37 4l179.1-85.27a8.53 8.53 0 0 0 4.03-11.37zM207.25 57.89a8.53 8.53 0 1 0-16.72 3.4c0 .1 0 .2.07.3a238.61 238.61 0 0 1-12.74 144.23l-12.4 29.76a8.53 8.53 0 0 0 4.54 11.13 8.4 8.4 0 0 0 3.28.66 8.53 8.53 0 0 0 7.87-5.25l12.41-29.73a255.56 255.56 0 0 0 13.69-154.5zm262.01 249.19a25.59 25.59 0 1 0 25.59 25.59 25.59 25.59 0 0 0-25.59-25.59zm0 34.12a8.53 8.53 0 1 1 8.53-8.53 8.53 8.53 0 0 1-8.53 8.53zM264.54 68.24a25.59 25.59 0 1 0 25.59 25.59 25.59 25.59 0 0 0-25.59-25.59zm0 34.12a8.53 8.53 0 1 1 8.53-8.53 8.53 8.53 0 0 1-8.53 8.53z" transform="translate(-.09)"/><circle class="cls-1" cx="187.68" cy="17.06" r="17.06"/><path class="cls-1" d="M426.61 42.65a8.53 8.53 0 0 0-8.53 8.53v8.53a8.53 8.53 0 0 0 17.06 0v-8.53a8.53 8.53 0 0 0-8.53-8.53zm0-42.65a8.53 8.53 0 0 0-8.53 8.53v8.53a8.53 8.53 0 0 0 17.06 0V8.53A8.53 8.53 0 0 0 426.61 0zm25.59 25.59h-8.53a8.53 8.53 0 0 0 0 17.06h8.53a8.53 8.53 0 1 0 0-17.06zm-42.65 0H401a8.53 8.53 0 0 0 0 17.06h8.53a8.53 8.53 0 0 0 0-17.06zM366.9 93.65h-42.83a8.53 8.53 0 0 0-8.53 8.53V145a8.53 8.53 0 0 0 8.53 8.53h42.83a8.53 8.53 0 0 0 8.53-8.53v-42.82a8.53 8.53 0 0 0-8.53-8.53zm-8.53 42.83H332.6v-25.77h25.77zm-53.61 28.4a8.53 8.53 0 0 0-11.81-.62L207.66 241a8.53 8.53 0 0 0 11.41 12.68l85.3-76.77a8.53 8.53 0 0 0 .39-12.03zm155.97 31.31a8.53 8.53 0 0 0-8.53 8.53v8.53a8.53 8.53 0 0 0 17.06 0v-8.53a8.53 8.53 0 0 0-8.53-8.53zm36.2-1.47l-6-6a8.53 8.53 0 0 0-12.06 12.06l6 6a8.53 8.53 0 0 0 12.06-12.06zm6.45-32.65h-8.53a8.53 8.53 0 1 0 0 17.06h8.53a8.53 8.53 0 0 0 0-17.06zm-6.66-27.65a8.53 8.53 0 0 0-11.85 0l-6 6a8.53 8.53 0 0 0 6 14.56 8.53 8.53 0 0 0 6-2.5l6-6a8.53 8.53 0 0 0-.15-12.06zm-35.99-15a8.53 8.53 0 0 0-8.53 8.58v8.53a8.53 8.53 0 0 0 17.06 0V128a8.53 8.53 0 0 0-8.53-8.58zm-18.1 21.03l-6-6a8.53 8.53 0 0 0-12.06 12.06l6 6a8.53 8.53 0 0 0 12.06-12.06zM102.05 36.88a8.53 8.53 0 0 0-6.88-5.8l-25-3.64L59 4.76a8.88 8.88 0 0 0-15.3 0L32.45 27.44l-25 3.64a8.53 8.53 0 0 0-4.78 14.55l18.11 17.65-4.26 24.94a8.53 8.53 0 0 0 12.39 9l22.38-11.78 22.39 11.77a8.53 8.53 0 0 0 12.38-9L81.8 63.28l18.11-17.65a8.53 8.53 0 0 0 2.14-8.75zM66.65 54.2a8.53 8.53 0 0 0-2.46 7.54l2.11 12.33-11-5.83a8.53 8.53 0 0 0-7.93 0l-11.13 5.82 2.12-12.33a8.53 8.53 0 0 0-2.41-7.53l-9-8.73 12.38-1.8A8.53 8.53 0 0 0 45.77 39l5.52-11.2L56.82 39a8.53 8.53 0 0 0 6.41 4.67l12.37 1.8zM483.1 427.57l-3.51-5.27a128.72 128.72 0 0 0-85.65-55.39 8.53 8.53 0 0 0-2.81 16.82A111.6 111.6 0 0 1 456.18 420a50.32 50.32 0 0 0-34.12 23.43 34.12 34.12 0 1 0 59.58 33.27 49.47 49.47 0 0 0 5.54-21.9 41.68 41.68 0 0 1 1.87 44.3 8.53 8.53 0 0 0 14.67 8.7l.22-.4a59.55 59.55 0 0 0-20.84-79.83zm-16.33 40.82a17.06 17.06 0 1 1-29.87-16.49l.08-.14a32 32 0 0 1 23.1-15 8.67 8.67 0 0 1 4.27 1c7.18 3.98 7.57 21.4 2.41 30.63z" transform="translate(-.09)"/></svg>