<svg id="Layer_1" data-name="Layer 1" xmlns="http://www.w3.org/2000/svg" viewBox="0 0 444.3 512"><defs><style>.cls-1{fill:#b3404a}.cls-2{fill:#f4b2b0}</style></defs><title>delete</title><path class="cls-1" d="M298.91 60.23a14.69 14.69 0 0 1-14.69-14.69V29.38H172.56v16.16a14.69 14.69 0 0 1-29.38 0V14.69A14.69 14.69 0 0 1 157.87 0h141a14.69 14.69 0 0 1 14.73 14.69v30.85a14.69 14.69 0 0 1-14.69 14.69zM366.49 512a111.66 111.66 0 1 1 111.66-111.66A111.78 111.78 0 0 1 366.49 512zm0-193.93a82.27 82.27 0 1 0 82.27 82.27 82.37 82.37 0 0 0-82.27-82.27z" transform="translate(-33.85)"/><path class="cls-1" d="M297.69 483.34H105A14.69 14.69 0 0 1 90.34 470L61 161.53a14.69 14.69 0 0 1 14.63-16.08H381.2a14.69 14.69 0 0 1 0 29.38H91.74L118.32 454h179.37a14.69 14.69 0 0 1 0 29.38z" transform="translate(-33.85)"/><path class="cls-1" d="M158.38 424.58a14.69 14.69 0 0 1-14.61-13.3l-14.5-152.2a14.69 14.69 0 0 1 29.25-2.79L173 408.49a14.69 14.69 0 0 1-13.23 16c-.45.07-.92.09-1.39.09zM307 338.49c-.48 0-1 0-1.46-.07a14.69 14.69 0 0 1-13.17-16.07l6.53-66.11a14.69 14.69 0 1 1 29.24 2.89l-6.53 66.11A14.69 14.69 0 0 1 307 338.49zm60.56-20.39h-1.17a14.68 14.68 0 0 1-12.93-21.55l3.83-40.22a14.69 14.69 0 0 1 29.25 2.79l-4.36 45.72a14.69 14.69 0 0 1-14.62 13.26zm-38.69 134.56a14.69 14.69 0 0 1-10.39-25.08l75.25-75.25a14.69 14.69 0 0 1 20.78 20.78l-75.25 75.25a14.65 14.65 0 0 1-10.39 4.3z" transform="translate(-33.85)"/><path class="cls-1" d="M404.12 452.66a14.64 14.64 0 0 1-10.39-4.3l-75.25-75.26a14.69 14.69 0 0 1 20.78-20.78l75.25 75.25a14.69 14.69 0 0 1-10.39 25.08z" transform="translate(-33.85)"/><path class="cls-2" d="M14.69 101.37h359.7v79.89H14.69z"/><path class="cls-1" d="M408.24 195.95H48.54a14.69 14.69 0 0 1-14.69-14.69v-79.89a14.69 14.69 0 0 1 14.69-14.69h359.7a14.69 14.69 0 0 1 14.69 14.69v79.89a14.69 14.69 0 0 1-14.69 14.69zm-345-29.38h330.31v-50.51H63.23zm165.15 258.01a14.69 14.69 0 0 1-14.69-14.69V256a14.69 14.69 0 1 1 29.38 0v153.89a14.69 14.69 0 0 1-14.69 14.69z" transform="translate(-33.85)"/></svg>