<svg id="Capa_1" data-name="Capa 1" xmlns="http://www.w3.org/2000/svg" viewBox="0 0 512 349.05"><defs><style>.cls-1{fill:#fff}</style></defs><title>delivery-truck</title><path class="cls-1" d="M418.59 336.69a47.28 47.28 0 0 0-33.36 13.76 46.32 46.32 0 0 0 0 66.31 47.46 47.46 0 0 0 33.36 13.76c25.65 0 46.5-21.06 46.5-46.92s-20.86-46.91-46.5-46.91zm0 73c-14.39 0-26.48-11.89-26.48-26.06s12.09-26.06 26.48-26.06a26.07 26.07 0 0 1 0 52.13zm12.09-229.26a10.12 10.12 0 0 0-7-2.71h-53.47a10.46 10.46 0 0 0-10.43 10.43v85.49A10.46 10.46 0 0 0 370.21 284h84.86a10.46 10.46 0 0 0 10.43-10.43v-57.19a10.43 10.43 0 0 0-3.44-7.71zm14 82.78h-64v-64.76h39l25 22.52zM164 336.69a47.28 47.28 0 0 0-33.36 13.76 46.32 46.32 0 0 0 0 66.31A47.46 47.46 0 0 0 164 430.52c25.65 0 46.5-21.06 46.5-46.92s-20.86-46.91-46.5-46.91zm0 73c-14.39 0-26.48-11.89-26.48-26.06s12.09-26.06 26.48-26.06a26.07 26.07 0 0 1 0 52.13zm-69.54-60.17h-21v-27.73a10.43 10.43 0 1 0-20.85 0v38.16a10.46 10.46 0 0 0 10.43 10.43h31.42a10.43 10.43 0 0 0 0-20.85zm52.86-56.82a10.46 10.46 0 0 0-10.43-10.43H10.43a10.43 10.43 0 0 0 0 20.85h126.46a10.39 10.39 0 0 0 10.42-10.42zM31.59 255.06l126.46.73a10.53 10.53 0 0 0 10.53-10.32 10.33 10.33 0 0 0-10.32-10.53l-126.46-.73h-.1a10.43 10.43 0 0 0-.1 20.85zm21.27-47.33h126.46a10.43 10.43 0 0 0 0-20.85H52.86a10.43 10.43 0 1 0 0 20.85zm455.28-14.07l-74.64-61.83a10.27 10.27 0 0 0-6.67-2.4H339V91.9a10.46 10.46 0 0 0-10.43-10.43H63.07A10.46 10.46 0 0 0 52.65 91.9v76.32a10.43 10.43 0 1 0 20.85 0v-65.89h244.79v247.19H232.8a10.43 10.43 0 0 0 0 20.85h127.3a10.43 10.43 0 0 0 0-20.85h-21V150.28h84l68 56.3-.73 142.73h-10.79a10.43 10.43 0 1 0 0 20.85h21.16a10.37 10.37 0 0 0 10.43-10.32l.83-158.05a11 11 0 0 0-3.86-8.13z" transform="translate(0 -81.48)"/></svg>