<svg id="Capa_1" data-name="Capa 1" xmlns="http://www.w3.org/2000/svg" viewBox="0 0 512 451.93"><defs><style>.cls-1{fill:#fdeaeb}</style></defs><title>right-quote-sign</title><path class="cls-1" d="M485.74 30H326.11a26.27 26.27 0 0 0-26.26 26.26v159.66a26.26 26.26 0 0 0 26.26 26.26h76.4q-1.5 62.7-29.09 100.4-21.74 29.77-65.8 49.26a26.22 26.22 0 0 0-13 35.24L313.51 467a26.25 26.25 0 0 0 34.18 12.81q52.14-22.53 88.06-57.13 43.79-42.3 60-95.52T512 181.79V56.29A26.27 26.27 0 0 0 485.74 30zM55.68 479.69q51.51-22.45 87.64-57 44.19-42.3 60.39-95.15t16.23-145.72V56.29A26.26 26.26 0 0 0 193.68 30H34A26.27 26.27 0 0 0 7.79 56.29v159.63A26.26 26.26 0 0 0 34 242.18h76.4q-1.5 62.7-29.09 100.4-21.74 29.77-65.8 49.26a26.22 26.22 0 0 0-13 35.24l18.85 39.8a26.33 26.33 0 0 0 34.32 12.81z" transform="translate(0 -30.03)"/></svg>