<svg id="Layer_1" data-name="Layer 1" xmlns="http://www.w3.org/2000/svg" viewBox="0 0 512 492.34"><defs><style>.cls-1{fill:#fff}</style></defs><title>spacecraft</title><path class="cls-1" d="M258.39 125.8a41.73 41.73 0 1 0 41.73 41.73 41.77 41.77 0 0 0-41.73-41.73zm0 67.24a25.52 25.52 0 1 1 25.52-25.52A25.55 25.55 0 0 1 258.39 193z" transform="translate(0 -9.83)"/><path class="cls-1" d="M424.24 361.86V242.18a8.11 8.11 0 0 0-2.39-5.75L344 159v-17.06a146 146 0 0 0-82-131.28 8.1 8.1 0 0 0-7.12 0 146.05 146.05 0 0 0-82 131.28V159l-77.89 77.4a8.11 8.11 0 0 0-2.39 5.75v119.71a8.11 8.11 0 0 0 8.11 8.11h72.18v.32a28.65 28.65 0 0 0 28.62 28.62h12a74.39 74.39 0 0 0-7.27 32.22 75.31 75.31 0 0 0 49.41 70.57 8.11 8.11 0 0 0 5.54 0 75.31 75.31 0 0 0 49.42-70.57 74.39 74.39 0 0 0-7.27-32.22h12A28.65 28.65 0 0 0 344 370.28V370h72.17a8.11 8.11 0 0 0 8.07-8.14zm-251.42-22.8v14.69h-64.07v-108.2l64.07-63.67zm28.62 43.63A12.42 12.42 0 0 1 189 370.28v-23.11h61.25v35.52zm56.94 102.67a59.07 59.07 0 0 1-36-54.24 58.25 58.25 0 0 1 9.37-31.81h18.5v15a8.11 8.11 0 1 0 16.21 0v-15H285a58.26 58.26 0 0 1 9.37 31.81 59.07 59.07 0 0 1-35.98 54.24zm69.36-115.08a12.42 12.42 0 0 1-12.41 12.41H266.5v-35.52h61.25zM408 353.75h-64v-64.66a8.11 8.11 0 0 0-16.21 0V331H266.5v-21.57a8.11 8.11 0 0 0-16.21 0V331H189V142a129 129 0 0 1 69.39-115 129 129 0 0 1 69.36 114.91v119.62a8.11 8.11 0 0 0 16.21 0v-79.65L408 245.55v108.2z" transform="translate(0 -9.83)"/><path class="cls-1" d="M443.55 412.12a68.61 68.61 0 0 0-26.4 5.29 35.58 35.58 0 0 0-69.52 10.67 8.11 8.11 0 1 0 16.21 0 19.37 19.37 0 1 1 34.16 12.5 8.11 8.11 0 0 0 12.37 10.47A35.57 35.57 0 0 0 418.1 435a52.23 52.23 0 0 1 77.69 45.62 8.11 8.11 0 1 0 16.21 0 68.53 68.53 0 0 0-68.45-68.5zm-288.32 34.29a40.86 40.86 0 0 0-9.43 1.11 8.08 8.08 0 0 0 .66-6.77 44.86 44.86 0 0 0-78.09-12.24A54.43 54.43 0 0 0 0 481.07a8.11 8.11 0 0 0 16.21 0 38.17 38.17 0 0 1 70.5-20.29 8.11 8.11 0 1 0 13.72-8.63 54.51 54.51 0 0 0-16.58-16.81 28.66 28.66 0 0 1 47.3 10.76 8.08 8.08 0 0 0 5.07 5 41 41 0 0 0-22 36.26 8.11 8.11 0 0 0 16.21 0 24.74 24.74 0 0 1 49.49 0 8.11 8.11 0 0 0 16.21 0 41 41 0 0 0-40.9-40.95z" transform="translate(0 -9.83)"/></svg>