<svg data-name="Layer 1" xmlns="http://www.w3.org/2000/svg" viewBox="0 0 32.67 32.49"><title>about__items--icon6</title><path d="M2.89 32.49H15.4V18.58H2.89v13.91zM31.08 8.87h-7.34a10.87 10.87 0 0 0 1.4-.87 5.06 5.06 0 0 0 2.42-4 3.86 3.86 0 0 0-1.36-2.9 4.58 4.58 0 0 0-3-1.12 6 6 0 0 0-3.32 1.07 10.62 10.62 0 0 0-3.42 4.07l-.12.24a13 13 0 0 0-1-1.79 9.66 9.66 0 0 0-2.5-2.51A6 6 0 0 0 9.46 0a4.65 4.65 0 0 0-3.15 1.3A4.35 4.35 0 0 0 4.9 4.43a4.09 4.09 0 0 0 .65 2.19 6.54 6.54 0 0 0 2.63 2.25H1.59A1.59 1.59 0 0 0 0 10.46v5.9h15.4V8.87h1.87v7.49h15.4v-5.9a1.59 1.59 0 0 0-1.59-1.59M8.71 6.53A3.76 3.76 0 0 1 7.5 5.39a1.78 1.78 0 0 1-.3-1A2.05 2.05 0 0 1 7.89 3a2.37 2.37 0 0 1 1.56-.7 3.68 3.68 0 0 1 2 .68 8.36 8.36 0 0 1 2.64 3.19 10.44 10.44 0 0 1 .79 2.09 14.86 14.86 0 0 1-6.17-1.73M19.25 4.9A7.38 7.38 0 0 1 21.14 3a3.69 3.69 0 0 1 2-.68 2.3 2.3 0 0 1 1.49.55A1.56 1.56 0 0 1 25.26 4a2.82 2.82 0 0 1-1.47 2.13 15.84 15.84 0 0 1-6.13 2.26 10.57 10.57 0 0 1 1.59-3.49m-2 27.59h12.53V18.58H17.27v13.91z" fill="#63d1bb"/></svg>