<svg data-name="Layer 1" xmlns="http://www.w3.org/2000/svg" viewBox="0 0 34.37 34.37"><title>about__items--icon2</title><path d="M.29 14.07a17.25 17.25 0 0 0 0 6.3l4.12-3.21zM24.4 1.59A17.21 17.21 0 0 0 9.15 2l7.51 5.63zm9.5 11.58l-4.81 3.75 4.91 3.7a17.25 17.25 0 0 0-.1-7.45zM9.21 32.41a17.21 17.21 0 0 0 15.73.11l-8.1-6.06zm-1.3-17.98L1.68 9.77a17.15 17.15 0 0 0-.82 2.06l5.31 4zM18.59 25.1l8.34 6.24c.28-.19.55-.39.82-.6s.62-.5.92-.77l-8.33-6.23zm-7.18-13.39L4 6.16a17.1 17.1 0 0 0-1.27 1.72l6.93 5.19zm10.68 10.67l8.09 6.06a17.09 17.09 0 0 0 1.3-1.7L23.84 21zM14.91 9L7.2 3.2l-.57.43q-.63.46-1.14.97l7.68 5.75zm10.68 10.65l7 5.22a17.18 17.18 0 0 0 .86-2l-6.08-4.55zm.86-16.94L.88 22.63a17.11 17.11 0 0 0 .84 2.06L28.24 4a17 17 0 0 0-1.79-1.29zm4.29 3.91q-.45-.62-.94-1.1l-27 21q.39.6.84 1.18l.44.53L31.16 7.18zM32.3 9L5.55 29.84a17.12 17.12 0 0 0 1.71 1.38L33.22 11a17.12 17.12 0 0 0-.92-2z" fill="#6cc7b6"/></svg>