<svg data-name="Layer 1" xmlns="http://www.w3.org/2000/svg" viewBox="0 0 14.96 27.72"><title>fb-hover</title><path d="M11.66 5.19a6.68 6.68 0 0 0 2.68-.3 8.12 8.12 0 0 0 .62-3 1.09 1.09 0 0 1-.21-.4c0-.2-.28-.19-.31-.4-.27-.15-.44-.41-.72-.58L11.56 0A13.56 13.56 0 0 0 9 .11 6.62 6.62 0 0 0 3.72 2.5c0 .08 0 .2-.1.2-.62 1.59-.13 3.62-.21 5.58.1.44.11 1 .2 1.39a18.82 18.82 0 0 1-3.4.5 3.06 3.06 0 0 0-.21 1.7 15 15 0 0 0 .41 1.59 3.53 3.53 0 0 0 .83.5.44.44 0 0 1 .1.1c.51.27 1.45 0 2.27.1-.14 2 .26 3.92 0 5.68a2 2 0 0 1 .21.8A8.25 8.25 0 0 0 4 23.33a2.63 2.63 0 0 0-.41 1.79c.12 0 .11.16.1.3-.07.47.64.17.52.7.16.46-.43.18-.41.5v.9a6 6 0 0 0 2.27.2c.91-.42 2.19-.48 2.79-1.2a1.28 1.28 0 0 0 1.24-.2 2.82 2.82 0 0 0 .21-.7 3.32 3.32 0 0 1-.1-.9v-2.89c-.21-2.29 0-4.94-.31-7.18a9.1 9.1 0 0 0 2.58-.4 4.85 4.85 0 0 0 .52-1.88 1.56 1.56 0 0 0 .21-1 2.4 2.4 0 0 0 .1-1.1c-.14-.6-.17-1.3-.83-1.39-.88-.24-2 .6-3 .3 0-1.13-.29-2.34 0-3.39.76-.18 1.46-.4 2.18-.6zM7.84 10a3.76 3.76 0 0 0 .41.7c.08 0 .2 0 .21.1a10.32 10.32 0 0 0 3.1-.3A7.46 7.46 0 0 1 11 13a10 10 0 0 1-2 .2 7.41 7.41 0 0 0-.62.7 2.26 2.26 0 0 1 0 .8 3.7 3.7 0 0 0-.21.8V17a1.7 1.7 0 0 1-.1.5v3.49a1.75 1.75 0 0 0 .1.5v3a1.46 1.46 0 0 0 .1.9c-.07.36-.41 0-.82.1a7.66 7.66 0 0 1-1.55.4 2.81 2.81 0 0 0 .31-1.1c0-.38-.37-.31-.52-.5.19-.64.56-1.12.72-1.79.2-.51.71-1.3.31-1.79A1 1 0 0 0 6 21c0 .08 0 .2-.1.2s0 .2-.1.2-.15.06 0 0 0-.2.1-.2 0-.2.1-.2v-.3a5.71 5.71 0 0 0 .83-2 4.81 4.81 0 0 0 .41-1 1.29 1.29 0 0 0 .1-1.2 1 1 0 0 0-.93.7c-.32-.19.16-.43.1-.7.14-.23.17-.57.31-.8.2-.41.56-1.3 0-1.6a.66.66 0 0 0-.72.5 1.45 1.45 0 0 0-.52.7c-.37-.07-.14-.73-.21-1.1a8.53 8.53 0 0 0 0-1.2c-.56-.8-2-.11-3.2-.3a2.24 2.24 0 0 1-.1-1.2c1-.09 2.48.2 3.2-.2 0-.08 0-.2.1-.2a1.78 1.78 0 0 0-.51-1.4 17.1 17.1 0 0 0 .1-3 3.28 3.28 0 0 0 .51-.6c.11-1 .67-1.48.72-2.49-.27 0-.61-.05-.62.2-.3-.11-.38.48-.51.2a1.7 1.7 0 0 1 .31-1C6 2.68 6.58 2.28 7.23 1.9c1.74-.24 4.65-.45 6.09.2.04.62-.32.9-.21 1.5h-1.55a30.6 30.6 0 0 0-3 1c-.23.06-.27.33-.51.4a5.91 5.91 0 0 1-.31 1c-.08 1.43.13 2.59.1 4z" fill="#45c2af"/></svg>