<svg data-name="Layer 1" xmlns="http://www.w3.org/2000/svg" viewBox="0 0 28 35.08"><title>html-academy</title><path d="M14.14.5H14L.5 1.91V26.5l13.5 8 13.5-8V1.91zm11.59 25L14 32.5l-11.73-7V15.43l11.68 6.92v1.25l-8-4.74v1.22l8 4.81v1.29l-8-4.76v1.22l8 4.81 8.12-4.83V17.4l3.62-2.15V25.5zm0-11.56l-3.21 1.88-1.48.87L14 12.5v1.22l6 3.57h-.05l-.13.08-.86.5-5-3v1.22l3.94 2.33-.93.62-3-1.74v1.22l2 1.14-2 1.19-11.63-6.87 11.64-7zm0-1.22L13.93 5.8 2.26 12.71V3.5L14 2.27 25.73 3.5v9.24z" fill="#63d2bc" stroke="#63d2bc" stroke-miterlimit="10"/></svg>