<svg data-name="Layer 2" xmlns="http://www.w3.org/2000/svg" viewBox="0 0 24.83 24.33"><title>tel-hover</title><path d="M17.32 24.33h-1.11A17.24 17.24 0 0 1 5.1 18.56 19.39 19.39 0 0 1 0 6.82V5.46a3.37 3.37 0 0 1 1.07-2.09 4.5 4.5 0 0 1 2.52-1.55 3.19 3.19 0 0 1 2.23 1.07 7.54 7.54 0 0 1 .78 2.37A8.82 8.82 0 0 1 7.08 8c-.18 1.2-1.76 1.7-2.23 2.57a16.65 16.65 0 0 0 7.47 8.35c.85-.46 1.59-1.86 2.77-1.89a5.12 5.12 0 0 1 1.41.34c.48.14.89.33 1.31.48A5.73 5.73 0 0 1 20.18 19a3.51 3.51 0 0 1 .58 2.23c-.19 1.28-2.22 2.65-3.44 3.1zm-4.79-22.8A10.77 10.77 0 0 1 23.3 12.3h1.53A12.3 12.3 0 0 0 12.53 0v1.53z" fill="#62d2bb"/><path d="M12.53 9.33v1.55a1.42 1.42 0 0 1 1.42 1.42h1.55a3 3 0 0 0-2.97-2.97zm0-3.08a6.05 6.05 0 0 1 6.06 6.05h1.59a7.64 7.64 0 0 0-7.64-7.64v1.59z" fill="#62d2bb"/></svg>