<svg data-name="Layer 1" xmlns="http://www.w3.org/2000/svg" viewBox="0 0 23.49 20.17"><title>tw</title><path d="M23.45 4.08A2.16 2.16 0 0 0 22 3.71h-1.07a8.34 8.34 0 0 1 .52-1 5.42 5.42 0 0 0 .22-1.26c.13-.17.18-.42.3-.59A.6.6 0 0 0 22 .23C22 0 21.75 0 21.45 0a.51.51 0 0 0-.22.15c-.45.43-.78 1-1.26 1.41h-.07c-.09 0 0 0-.08.07l-.37.22a3 3 0 0 1-.89.52A6.08 6.08 0 0 0 16.71 2a6.44 6.44 0 0 0-3 .74 7.32 7.32 0 0 0-2.15 1.63 8.05 8.05 0 0 0-.37.74s0 .09-.07.07a1.22 1.22 0 0 1-.07.52c0 .13.2.43 0 .52a7.15 7.15 0 0 1-2.15-1 10.15 10.15 0 0 1-2.12-1.06A6 6 0 0 1 5 2.82a3.58 3.58 0 0 1-.67-.89C4 1.77 4.16 1 3.59 1c-.32 0-.34.2-.44.37a1.63 1.63 0 0 0-.37.52S2.77 2 2.71 2a17.77 17.77 0 0 0-.52 3.26 3.07 3.07 0 0 0 .59 1 1.11 1.11 0 0 0-.89.52 3.72 3.72 0 0 0 .74 2.3 2.94 2.94 0 0 0 .59 1 1 1 0 0 0 .3.45 2.21 2.21 0 0 0 .15.22c0 .11.29.18.07.22a2.75 2.75 0 0 0-1.26.37 1.92 1.92 0 0 0 0 1.11 4.45 4.45 0 0 1 .3.52 18.31 18.31 0 0 0 1.63 1.11 15.23 15.23 0 0 0 1.85.37 1.44 1.44 0 0 1-.59.74 19.23 19.23 0 0 1-2.74.74c-.56 0-1 .23-1.56.22-.37.14-.85.09-1.11.23a.8.8 0 0 0-.22.22.72.72 0 0 0 .44.89.45.45 0 0 0 .37.37.8.8 0 0 0 .44.37 10.58 10.58 0 0 0 1.93 1.11c.83.18 1.65.38 2.52.52s1.9.12 2.82.22h1a9.91 9.91 0 0 0 1.85.07.81.81 0 0 1 .52-.07 9.28 9.28 0 0 0 1.63-.74c.57-.24 1-.64 1.56-.89a10 10 0 0 0 2.52-2.37 1.66 1.66 0 0 0 .36-.73 3.34 3.34 0 0 0 .59-.67 9.92 9.92 0 0 0 1-1.41c.32-.5.58-1.05.89-1.56 0-.41.31-.48.3-.89.19-.23.18-.66.37-.89a1.38 1.38 0 0 1 .07-.59 12.15 12.15 0 0 0-.22-3.4 5.74 5.74 0 0 0 1.63-.59 1 1 0 0 0 .82-1.27zM20 8.16a4.73 4.73 0 0 1-1 2 8.65 8.65 0 0 1-.07.89 4.31 4.31 0 0 0-.37 1c-.2.27-.33.61-.52.89-.37.55-.78 1.05-1.19 1.56s-.91 1-1.33 1.48-.94.88-1.41 1.33a5 5 0 0 0-1.26.67 5 5 0 0 0-.67.3c-.18.15-.5.14-.67.3a24 24 0 0 1-3.51.18 26.33 26.33 0 0 1-3-.37 11.79 11.79 0 0 1-2.3-1 1.58 1.58 0 0 1 1-.22A3 3 0 0 1 4 17a3.47 3.47 0 0 0 .52-.07 9.52 9.52 0 0 0 1.7-.59 8.84 8.84 0 0 0 .67-.59.74.74 0 0 1 .22-.44 2 2 0 0 0 .15-.82 1.2 1.2 0 0 0 .3-.67.6.6 0 0 0-.3-.37 1.48 1.48 0 0 0-.44-.22 1.37 1.37 0 0 1-.59-.08c-.15 0-.49.09-.52-.07a3.61 3.61 0 0 1-1.85-.74 4.48 4.48 0 0 0 1.33-.74c.52-.08 1.06-.13 1.11-.67 0-.72-.77-.66-1.33-.82a12.12 12.12 0 0 1-1.75-2.54A3 3 0 0 0 4 7.12a.6.6 0 0 0 .63-.52.94.94 0 0 0-.63-.81A3.5 3.5 0 0 1 3.37 5a18.47 18.47 0 0 1 .07-2.37c.06 0 .07 0 .07.07.23.44.56.77.82 1.19A8.87 8.87 0 0 0 5.89 5c.45.41 1.11.62 1.56 1a16.41 16.41 0 0 1 1.7 1 4.29 4.29 0 0 0 2 .59l.59-.3c.26-.46-.06-1.08.15-1.63a4.35 4.35 0 0 1 1.26-1.48 7.81 7.81 0 0 0 .85-.54 4.82 4.82 0 0 0 1-.37 6.26 6.26 0 0 0 1-.15h1.26a7 7 0 0 0 .74.15 1.83 1.83 0 0 0 .67.37 4.47 4.47 0 0 1 1.41 3A10.23 10.23 0 0 0 20 8.16zm.3-5.63a1.1 1.1 0 0 1-.59.82 2 2 0 0 0-.15-.22c0-.21.21-.19.3-.3a1.92 1.92 0 0 1 .44-.3c.03-.09.15-.05.04 0zm-5.48 3a1.36 1.36 0 0 0 .52.37.71.71 0 0 0 .59.37 2 2 0 0 0 .37-.22.94.94 0 0 0 .3-.3 2.36 2.36 0 0 0-.37-1.33.93.93 0 0 0-1.37 1.15z" fill="#231f20"/></svg>