<svg id="Capa_1" data-name="Capa 1" xmlns="http://www.w3.org/2000/svg" viewBox="0 0 455.73 455.73"><defs><style>.cls-1{fill:#50abf1}.cls-2{fill:#fff}</style></defs><title>tw</title><path class="cls-1" d="M0 0h455.73v455.73H0z"/><path class="cls-2" d="M60.38 337.82a195.17 195.17 0 0 0 104.88 30.37c108.35 0 196.18-87.84 196.18-196.18q0-4.06-.16-8.07c3.92-3.08 28.16-22.51 34.1-35 0 0-19.68 8.18-38.95 10.11h-.12l.1-.07c1.77-1.19 26.59-18.08 30-38.21a239 239 0 0 1-33.42 13.93c-3.23 1.07-6.61 2.13-10.09 3.1a68.84 68.84 0 0 0-117.31 62.61c-5.31-.22-86.24-4.76-141.29-71.42 0 0-32.9 44.92 19.61 91.11 0 0-16-.64-29.73-8.86 0 0-5.06 54.42 54.41 68.33 0 0-11.7 4.43-30.37 1.27 0 0 10.44 44 63.27 48.08 0 0-41.78 37.74-101.08 28.89z"/></svg>