<svg xmlns="http://www.w3.org/2000/svg" xmlns:xlink="http://www.w3.org/1999/xlink" height="1379" viewBox="0 0 155 1379" width="155"><svg height="40.38" viewBox="0 0 147 41" width="146.3" x="4" y="4"><title>logo-header-tablet</title><path d="M71.87 18.66a1.29 1.29 0 0 1 1.26-1.29h7.18c5.09 0 8.44 2.7 8.44 7.15v.06c0 4.86-4.06 7.37-8.85 7.37h-5.48v6.83a1.27 1.27 0 1 1-2.54 0V18.66zm8.11 11c3.73 0 6.18-2 6.18-5v-.04c0-3.22-2.41-4.89-6.05-4.89h-5.7v9.92H80zM93.6 18.5a1.27 1.27 0 1 1 2.54 0v20.28a1.27 1.27 0 1 1-2.54 0V18.5zm9.14.03a1.28 1.28 0 0 1 1.26-1.25h.35a1.56 1.56 0 0 1 1.29.74l13.68 17.45v-17a1.24 1.24 0 1 1 2.48 0v20.35a1.14 1.14 0 0 1-1.15 1.18h-.13a1.73 1.73 0 0 1-1.32-.77l-14-17.87v17.46a1.24 1.24 0 1 1-2.48 0V18.53zm25.43-.03a1.27 1.27 0 1 1 2.54 0v12.33l12.85-13.17a1.45 1.45 0 0 1 1-.45 1.27 1.27 0 0 1 1.22 1.26 1.25 1.25 0 0 1-.42.9l-8 7.92 8.56 10.56a1.41 1.41 0 0 1 .35.94 1.31 1.31 0 0 1-1.27 1.28 1.22 1.22 0 0 1-1-.58L135.58 29l-4.86 4.86v4.89a1.27 1.27 0 1 1-2.54 0V18.5zM60.46 28L55.29 6.65C54.93 4.3 52.69 0 46.69 0a1.5 1.5 0 1 0 0 3c4.86 0 5.58 3.73 5.64 4.14l4.77 19.7H55a12 12 0 0 0-23.85 0h-1.8a12 12 0 0 0-23.85 0H3.42l4.77-19.7C8.25 6.73 9 3 13.83 3a1.5 1.5 0 1 0 0-3c-6 0-8.24 4.3-8.6 6.65L.05 28a1.42 1.42 0 0 0 1.43 1.83h4a12 12 0 0 0 23.85 0h1.81a12 12 0 0 0 23.85 0h4A1.42 1.42 0 0 0 60.46 28zm-34.15 1.84a8.38 8.38 0 1 1 .14-1.5 9 9 0 0 1-.14 1.5zm25.68 0a8.41 8.41 0 1 1 .13-1.5 9 9 0 0 1-.12 1.5z" fill="#fff"/></svg><svg height="40.37" viewBox="0 0 147 41" width="146.3" x="4" y="49"><title>logo-header</title><path d="M71.87 18.66a1.29 1.29 0 0 1 1.26-1.29h7.18c5.09 0 8.44 2.7 8.44 7.15v.06c0 4.86-4.06 7.37-8.85 7.37h-5.48v6.83a1.27 1.27 0 1 1-2.54 0V18.66zm8.11 11c3.73 0 6.18-2 6.18-5v-.04c0-3.22-2.41-4.89-6.05-4.89h-5.7v9.92H80zM93.6 18.5a1.27 1.27 0 1 1 2.54 0v20.28a1.27 1.27 0 1 1-2.54 0V18.5zm9.14.03a1.28 1.28 0 0 1 1.26-1.25h.35a1.56 1.56 0 0 1 1.29.74l13.68 17.45v-17a1.24 1.24 0 1 1 2.48 0v20.35a1.14 1.14 0 0 1-1.15 1.18h-.13a1.73 1.73 0 0 1-1.32-.77l-14-17.87v17.46a1.24 1.24 0 1 1-2.48 0V18.53zm25.43-.03a1.27 1.27 0 1 1 2.54 0v12.33l12.85-13.17a1.45 1.45 0 0 1 1-.45 1.27 1.27 0 0 1 1.22 1.26 1.25 1.25 0 0 1-.42.9l-8 7.92 8.56 10.56a1.41 1.41 0 0 1 .35.94 1.31 1.31 0 0 1-1.27 1.28 1.22 1.22 0 0 1-1-.58L135.58 29l-4.86 4.86v4.89a1.27 1.27 0 1 1-2.54 0V18.5z" fill="#fff"/><path d="M98.5 9.87a3.62 3.62 0 0 1-3.62-3.62 3.62 3.62 0 0 1-3.62 3.62 3.62 3.62 0 0 1 3.62 3.62 3.62 3.62 0 0 1 3.62-3.62z" fill="#d22856"/><path d="M43.09 19.31h.73a2.49 2.49 0 0 0-2.14-1.22 2 2 0 0 1-1.88-1.35 12 12 0 0 0-2.09.82.7.7 0 0 0 .19 0 1.95 1.95 0 0 1 2 2.28 9 9 0 0 1 3.19-.53z" fill="#fff"/><path d="M60.46 28L55.29 6.65C54.93 4.3 52.69 0 46.69 0a1.5 1.5 0 1 0 0 3c4.86 0 5.58 3.73 5.64 4.14l4.77 19.7H55a12 12 0 0 0-5.31-8.52 2.5 2.5 0 0 0-1.53 2.3 2 2 0 0 1 0 .26A9 9 0 1 1 35 24.36a2 2 0 0 1-1.85-2 .74.74 0 0 0-.15-.47 12 12 0 0 0-1.79 5h-1.86a12 12 0 0 0-23.85 0H3.42L8.19 7.14C8.25 6.73 9 3 13.83 3a1.5 1.5 0 1 0 0-3c-6 0-8.24 4.3-8.6 6.65L.05 28a1.42 1.42 0 0 0 1.43 1.83h4a11.93 11.93 0 0 0 .39 1.83.73.73 0 0 0 .13-.34 2 2 0 0 1 2-2 2 2 0 0 1 .48.06 8.33 8.33 0 0 1-.07-1 9 9 0 1 1 9 9 9 9 0 0 1-5.41-1.8 2 2 0 0 1-1.3.49.75.75 0 0 0-.75.75 2 2 0 0 1-.18.81 12 12 0 0 0 19.54-7.79h1.81a12 12 0 0 0 23.85 0h4A1.42 1.42 0 0 0 60.46 28z" fill="#fff"/><path d="M50.69 16.12a4.5 4.5 0 0 1-4.5-4.5 4.5 4.5 0 0 1-4.5 4.5 4.5 4.5 0 0 1 4.5 4.5 4.5 4.5 0 0 1 4.5-4.5zM37.9 19.63a2.75 2.75 0 0 1-2.75-2.75 2.75 2.75 0 0 1-2.75 2.75 2.75 2.75 0 0 1 2.75 2.75 2.75 2.75 0 0 1 2.75-2.75zM10.73 34.07A2.75 2.75 0 0 1 8 31.32a2.75 2.75 0 0 1-2.75 2.75A2.75 2.75 0 0 1 8 36.82a2.75 2.75 0 0 1 2.73-2.75z" fill="#d22856"/></svg><svg height="40.37" viewBox="0 0 147 41" width="146.3" x="4" y="94"><title>logo-footer-hover</title><path d="M71.87 18.66a1.29 1.29 0 0 1 1.26-1.29h7.18c5.09 0 8.44 2.7 8.44 7.15v.06c0 4.86-4.06 7.37-8.85 7.37h-5.48v6.82a1.275 1.275 0 1 1-2.55 0V18.66zm8.11 11c3.73 0 6.18-2 6.18-5v-.04c0-3.22-2.41-4.89-6.05-4.89h-5.7v9.92H80zM93.6 18.5a1.27 1.27 0 1 1 2.54 0v20.28a1.27 1.27 0 1 1-2.54 0V18.5zm9.14.03a1.28 1.28 0 0 1 1.26-1.25h.35a1.56 1.56 0 0 1 1.29.74l13.68 17.45v-17a1.24 1.24 0 1 1 2.48 0v20.35a1.14 1.14 0 0 1-1.15 1.18h-.13a1.73 1.73 0 0 1-1.32-.77l-14-17.87v17.46a1.24 1.24 0 1 1-2.48 0V18.53zm25.43-.03a1.27 1.27 0 1 1 2.54 0v12.33l12.85-13.17a1.45 1.45 0 0 1 1-.45 1.27 1.27 0 0 1 1.22 1.26 1.25 1.25 0 0 1-.42.9l-8 7.92 8.56 10.56a1.41 1.41 0 0 1 .35.94 1.31 1.31 0 0 1-1.27 1.28 1.22 1.22 0 0 1-1-.58L135.59 29l-4.86 4.86v4.9a1.27 1.27 0 1 1-2.54 0V18.5zM98.5 9.87a3.62 3.62 0 0 1-3.62-3.62 3.62 3.62 0 0 1-3.62 3.62 3.62 3.62 0 0 1 3.62 3.62 3.62 3.62 0 0 1 3.62-3.62zm-55.41 9.44h.73a2.49 2.49 0 0 0-2.14-1.22 2 2 0 0 1-1.88-1.35 12 12 0 0 0-2.09.82.7.7 0 0 0 .19 0 1.95 1.95 0 0 1 2 2.28 9 9 0 0 1 3.19-.53z" fill="#d22856"/><path d="M60.46 28L55.29 6.65C54.93 4.3 52.69 0 46.69 0a1.5 1.5 0 1 0 0 3c4.86 0 5.58 3.73 5.64 4.14l4.77 19.7H55a12 12 0 0 0-5.31-8.52 2.5 2.5 0 0 0-1.53 2.3 2 2 0 0 1 0 .26A9 9 0 1 1 35 24.36a2 2 0 0 1-1.85-2 .74.74 0 0 0-.15-.47 12 12 0 0 0-1.79 5h-1.86a12 12 0 0 0-23.85 0H3.42L8.19 7.14C8.25 6.73 9 3 13.83 3a1.5 1.5 0 1 0 0-3c-6 0-8.24 4.3-8.6 6.65L.05 28a1.42 1.42 0 0 0 1.43 1.83h4a11.93 11.93 0 0 0 .39 1.83.73.73 0 0 0 .13-.34 2 2 0 0 1 2-2 2 2 0 0 1 .48.06 8.33 8.33 0 0 1-.07-1 9 9 0 1 1 9 9 9 9 0 0 1-5.41-1.8 2 2 0 0 1-1.3.49.75.75 0 0 0-.75.75 2 2 0 0 1-.18.81 12 12 0 0 0 19.54-7.79h1.81a12 12 0 0 0 23.85 0h4A1.42 1.42 0 0 0 60.46 28z" fill="#d22856"/><path d="M50.69 16.12a4.5 4.5 0 0 1-4.5-4.5 4.5 4.5 0 0 1-4.5 4.5 4.5 4.5 0 0 1 4.5 4.5 4.5 4.5 0 0 1 4.5-4.5zM37.9 19.63a2.75 2.75 0 0 1-2.75-2.75 2.75 2.75 0 0 1-2.75 2.75 2.75 2.75 0 0 1 2.75 2.75 2.75 2.75 0 0 1 2.75-2.75zM10.73 34.07A2.75 2.75 0 0 1 8 31.32a2.75 2.75 0 0 1-2.75 2.75A2.75 2.75 0 0 1 8 36.82a2.75 2.75 0 0 1 2.73-2.75z" fill="#d22856"/></svg><svg height="40.37" viewBox="0 0 147 41" width="146.3" x="4" y="139"><title>logo-footer</title><path d="M71.87 18.66a1.29 1.29 0 0 1 1.26-1.29h7.18c5.09 0 8.44 2.7 8.44 7.15v.06c0 4.86-4.06 7.37-8.85 7.37h-5.48v6.82a1.275 1.275 0 1 1-2.55 0V18.66zm8.11 11c3.73 0 6.18-2 6.18-5v-.04c0-3.22-2.41-4.89-6.05-4.89h-5.7v9.92H80zM93.6 18.5a1.27 1.27 0 1 1 2.54 0v20.28a1.27 1.27 0 1 1-2.54 0V18.5zm9.14.03a1.28 1.28 0 0 1 1.26-1.25h.35a1.56 1.56 0 0 1 1.29.74l13.68 17.45v-17a1.24 1.24 0 1 1 2.48 0v20.35a1.14 1.14 0 0 1-1.15 1.18h-.13a1.73 1.73 0 0 1-1.32-.77l-14-17.87v17.46a1.24 1.24 0 1 1-2.48 0V18.53zm25.43-.03a1.27 1.27 0 1 1 2.54 0v12.33l12.85-13.17a1.45 1.45 0 0 1 1-.45 1.27 1.27 0 0 1 1.22 1.26 1.25 1.25 0 0 1-.42.9l-8 7.92 8.56 10.56a1.41 1.41 0 0 1 .35.94 1.31 1.31 0 0 1-1.27 1.28 1.22 1.22 0 0 1-1-.58L135.59 29l-4.86 4.86v4.9a1.27 1.27 0 1 1-2.54 0V18.5z" fill="#283645"/><path d="M98.5 9.87a3.62 3.62 0 0 1-3.62-3.62 3.62 3.62 0 0 1-3.62 3.62 3.62 3.62 0 0 1 3.62 3.62 3.62 3.62 0 0 1 3.62-3.62zm-55.41 9.44h.73a2.49 2.49 0 0 0-2.14-1.22 2 2 0 0 1-1.88-1.35 12 12 0 0 0-2.09.82.7.7 0 0 0 .19 0 1.95 1.95 0 0 1 2 2.28 9 9 0 0 1 3.19-.53z" fill="#d22856"/><path d="M60.46 28L55.29 6.65C54.93 4.3 52.69 0 46.69 0a1.5 1.5 0 1 0 0 3c4.86 0 5.58 3.73 5.64 4.14l4.77 19.7H55a12 12 0 0 0-5.31-8.52 2.5 2.5 0 0 0-1.53 2.3 2 2 0 0 1 0 .26A9 9 0 1 1 35 24.36a2 2 0 0 1-1.85-2 .74.74 0 0 0-.15-.47 12 12 0 0 0-1.79 5h-1.86a12 12 0 0 0-23.85 0H3.42L8.19 7.14C8.25 6.73 9 3 13.83 3a1.5 1.5 0 1 0 0-3c-6 0-8.24 4.3-8.6 6.65L.05 28a1.42 1.42 0 0 0 1.43 1.83h4a11.93 11.93 0 0 0 .39 1.83.73.73 0 0 0 .13-.34 2 2 0 0 1 2-2 2 2 0 0 1 .48.06 8.33 8.33 0 0 1-.07-1 9 9 0 1 1 9 9 9 9 0 0 1-5.41-1.8 2 2 0 0 1-1.3.49.75.75 0 0 0-.75.75 2 2 0 0 1-.18.81 12 12 0 0 0 19.54-7.79h1.81a12 12 0 0 0 23.85 0h4A1.42 1.42 0 0 0 60.46 28z" fill="#d22856"/><path d="M50.69 16.12a4.5 4.5 0 0 1-4.5-4.5 4.5 4.5 0 0 1-4.5 4.5 4.5 4.5 0 0 1 4.5 4.5 4.5 4.5 0 0 1 4.5-4.5zM37.9 19.63a2.75 2.75 0 0 1-2.75-2.75 2.75 2.75 0 0 1-2.75 2.75 2.75 2.75 0 0 1 2.75 2.75 2.75 2.75 0 0 1 2.75-2.75zM10.73 34.07A2.75 2.75 0 0 1 8 31.32a2.75 2.75 0 0 1-2.75 2.75A2.75 2.75 0 0 1 8 36.82a2.75 2.75 0 0 1 2.73-2.75z" fill="#283645"/></svg><svg height="40.5" viewBox="0 0 147 41" width="146.28" x="4" y="184"><title>logo-hover</title><path d="M71.88 18.66a1.29 1.29 0 0 1 1.26-1.29h7.18c5.09 0 8.44 2.7 8.44 7.15v.06c0 4.86-4.06 7.37-8.85 7.37h-5.48v6.82a1.28 1.28 0 1 1-2.55 0V18.66zm8.11 11c3.73 0 6.18-2 6.18-5 0-3.22-2.41-4.89-6.05-4.89h-5.7v9.92h5.59zM93.61 18.5a1.27 1.27 0 1 1 2.54 0v20.28a1.27 1.27 0 1 1-2.54 0V18.5zm9.14.03a1.28 1.28 0 0 1 1.26-1.25h.35a1.56 1.56 0 0 1 1.29.74l13.68 17.45v-17a1.24 1.24 0 0 1 2.48 0v20.35a1.14 1.14 0 0 1-1.1 1.18h-.18a1.73 1.73 0 0 1-1.32-.77l-14-17.87v17.46a1.24 1.24 0 0 1-2.48 0V18.53zm25.43-.03a1.27 1.27 0 1 1 2.54 0v12.33l12.85-13.17a1.45 1.45 0 0 1 1-.45 1.27 1.27 0 0 1 1.22 1.26 1.25 1.25 0 0 1-.42.9l-8 7.92 8.56 10.56a1.41 1.41 0 0 1 .35.94 1.31 1.31 0 0 1-1.27 1.28 1.22 1.22 0 0 1-1-.58L135.6 29l-4.86 4.86v4.9a1.27 1.27 0 0 1-2.54 0V18.5zM98.51 9.87a3.62 3.62 0 0 1-3.62-3.62 3.62 3.62 0 0 1-3.62 3.62 3.62 3.62 0 0 1 3.62 3.62 3.62 3.62 0 0 1 3.62-3.62zM43.1 19.31h.73a2.49 2.49 0 0 0-2.14-1.22 2 2 0 0 1-1.88-1.35 12 12 0 0 0-2.09.82h.19a1.95 1.95 0 0 1 2 2.28 9 9 0 0 1 3.19-.53z" fill="#d22856"/><path d="M60.47 28L55.3 6.65C54.94 4.3 52.7 0 46.7 0a1.5 1.5 0 0 0 0 3c4.86 0 5.58 3.73 5.64 4.14l4.77 19.7h-2.1a12 12 0 0 0-5.31-8.52 2.5 2.5 0 0 0-1.53 2.3 2 2 0 0 1 0 .26 9 9 0 1 1-13.16 3.48 2 2 0 0 1-1.85-2 .74.74 0 0 0-.15-.47 12 12 0 0 0-1.79 5h-1.86a12 12 0 0 0-23.85 0H3.43L8.2 7.14C8.26 6.73 9.01 3 13.84 3a1.5 1.5 0 0 0 0-3c-6 0-8.24 4.3-8.6 6.65L.06 28a1.42 1.42 0 0 0 1.43 1.83h4a11.93 11.93 0 0 0 .39 1.83.73.73 0 0 0 .13-.34 2 2 0 0 1 2.48-1.94 8.33 8.33 0 0 1-.07-1 9 9 0 1 1 9 9 9 9 0 0 1-5.41-1.8 2 2 0 0 1-1.3.49.75.75 0 0 0-.75.75 2 2 0 0 1-.18.81 12 12 0 0 0 19.54-7.79h1.81a12 12 0 0 0 23.85 0h4A1.42 1.42 0 0 0 60.47 28z" fill="#d22856"/><path d="M50.7 16.12a4.5 4.5 0 0 1-4.5-4.5 4.5 4.5 0 0 1-4.5 4.5 4.5 4.5 0 0 1 4.5 4.5 4.5 4.5 0 0 1 4.5-4.5zm-12.79 3.51a2.75 2.75 0 0 1-2.75-2.75 2.75 2.75 0 0 1-2.75 2.75 2.75 2.75 0 0 1 2.75 2.75 2.75 2.75 0 0 1 2.75-2.75zM10.74 34.07a2.75 2.75 0 0 1-2.73-2.75 2.75 2.75 0 0 1-2.75 2.75 2.75 2.75 0 0 1 2.75 2.75 2.75 2.75 0 0 1 2.73-2.75z" fill="#d22856"/></svg><svg height="22.86" viewBox="0 0 75 23" width="74.4" x="4" y="229"><title>logo-header-mobile</title><path d="M0 1.45A1.29 1.29 0 0 1 1.26.16h7.18c5.09 0 8.44 2.7 8.44 7.15v.06c0 4.86-4.06 7.37-8.85 7.37H2.55v6.83a1.27 1.27 0 1 1-2.54 0V1.45zm8.11 11c3.73 0 6.18-2 6.18-5 0-3.22-2.41-4.89-6.05-4.89h-5.7v9.92h5.59zM21.73 1.29a1.27 1.27 0 1 1 2.54 0v20.28a1.27 1.27 0 1 1-2.54 0V1.29zm9.14.03A1.28 1.28 0 0 1 32.13.07h.35a1.56 1.56 0 0 1 1.29.74l13.68 17.45v-17a1.24 1.24 0 0 1 2.48 0v20.35a1.14 1.14 0 0 1-1.1 1.18h-.18a1.73 1.73 0 0 1-1.32-.77l-14-17.87v17.46a1.24 1.24 0 0 1-2.48 0V1.32zm25.43-.03a1.27 1.27 0 1 1 2.54 0v12.33L71.69.45a1.45 1.45 0 0 1 1-.45 1.27 1.27 0 0 1 1.22 1.26 1.25 1.25 0 0 1-.42.9l-8 7.92 8.56 10.56a1.41 1.41 0 0 1 .35.94 1.31 1.31 0 0 1-1.27 1.28 1.22 1.22 0 0 1-1-.58l-8.42-10.49-4.86 4.86v4.89a1.27 1.27 0 1 1-2.54 0V1.29z" fill="#fff"/></svg><svg height="56.75" viewBox="0 0 47 57" width="46.21" x="4" y="256"><title>apple</title><path d="M38.59 30.15a12.54 12.54 0 0 0 7.62 11.48 31 31 0 0 1-3.93 8.07c-2.37 3.46-4.82 6.9-8.69 7s-5-2.25-9.37-2.25-5.7 2.18-9.3 2.32S8.36 53 6 49.56c-4.87-7-8.6-19.91-3.6-28.59a13.9 13.9 0 0 1 11.74-7.11c3.67-.07 7.13 2.47 9.37 2.47s6.44-3 10.87-2.6a13.26 13.26 0 0 1 10.38 5.63c-.27.17-6.2 3.62-6.13 10.8m-7.18-21.1A12.5 12.5 0 0 0 34.4 0 12.72 12.72 0 0 0 26 4.3c-1.84 2.12-3.44 5.52-3 8.78 3.18.25 6.44-1.62 8.42-4" fill="#fff"/></svg><svg height="24.01" viewBox="0 0 50 25" width="49.95" x="4" y="317"><title>nav-button</title><g data-name="editor list view hambuger menu glyph" fill="#fff"><path d="M1.14 0A1.06 1.06 0 0 0 0 1v2a1.07 1.07 0 0 0 1.14 1h47.67a1.06 1.06 0 0 0 1.14-1V1a1.07 1.07 0 0 0-1.14-1H1.14zm0 10A1.06 1.06 0 0 0 0 11v2a1.07 1.07 0 0 0 1.14 1h47.67a1.06 1.06 0 0 0 1.14-1v-2a1.07 1.07 0 0 0-1.14-1H1.14zm0 10A1.06 1.06 0 0 0 0 21v2a1.07 1.07 0 0 0 1.14 1h47.67a1.06 1.06 0 0 0 1.14-1v-2a1.07 1.07 0 0 0-1.14-1H1.14z"/><path data-name="path-1" d="M1.14 0A1.06 1.06 0 0 0 0 1v2a1.07 1.07 0 0 0 1.14 1h47.67a1.06 1.06 0 0 0 1.14-1V1a1.07 1.07 0 0 0-1.14-1H1.14zm0 10A1.06 1.06 0 0 0 0 11v2a1.07 1.07 0 0 0 1.14 1h47.67a1.06 1.06 0 0 0 1.14-1v-2a1.07 1.07 0 0 0-1.14-1H1.14zm0 10A1.06 1.06 0 0 0 0 21v2a1.07 1.07 0 0 0 1.14 1h47.67a1.06 1.06 0 0 0 1.14-1v-2a1.07 1.07 0 0 0-1.14-1H1.14z"/></g></svg><svg height="24.01" viewBox="0 0 50 25" width="49.95" x="4" y="346"><title>burger-hover</title><g data-name="editor list view hambuger menu glyph" fill="#d32356"><path d="M1.14 0A1.06 1.06 0 0 0 0 1v2a1.07 1.07 0 0 0 1.14 1h47.67a1.06 1.06 0 0 0 1.14-1V1a1.07 1.07 0 0 0-1.14-1H1.14zm0 10A1.06 1.06 0 0 0 0 11v2a1.07 1.07 0 0 0 1.14 1h47.67a1.06 1.06 0 0 0 1.14-1v-2a1.07 1.07 0 0 0-1.14-1H1.14zm0 10A1.06 1.06 0 0 0 0 21v2a1.07 1.07 0 0 0 1.14 1h47.67a1.06 1.06 0 0 0 1.14-1v-2a1.07 1.07 0 0 0-1.14-1H1.14z"/><path data-name="path-1" d="M1.14 0A1.06 1.06 0 0 0 0 1v2a1.07 1.07 0 0 0 1.14 1h47.67a1.06 1.06 0 0 0 1.14-1V1a1.07 1.07 0 0 0-1.14-1H1.14zm0 10A1.06 1.06 0 0 0 0 11v2a1.07 1.07 0 0 0 1.14 1h47.67a1.06 1.06 0 0 0 1.14-1v-2a1.07 1.07 0 0 0-1.14-1H1.14zm0 10A1.06 1.06 0 0 0 0 21v2a1.07 1.07 0 0 0 1.14 1h47.67a1.06 1.06 0 0 0 1.14-1v-2a1.07 1.07 0 0 0-1.14-1H1.14z"/></g></svg><svg height="48" viewBox="0 0 48 48" width="48" x="4" y="375"><title>photo-filter-icon2-tablet</title><path d="M0 0h48v48H0V0z" fill="none"/><path d="M30.08 17.57L18.16 6l-1.89 1.83 3.17 3.08-6.86 6.66a1.9 1.9 0 0 0 0 2.74l7.33 7.12a2 2 0 0 0 2.83 0l7.33-7.12a1.9 1.9 0 0 0 .01-2.74zm-15.14 1.37l6.39-6.2 6.39 6.2H14.94zm18.39 1.94s-2.67 2.8-2.67 4.53a2.67 2.67 0 0 0 5.33 0c.01-1.73-2.66-4.53-2.66-4.53zM12 29.5h24v3H12z"/></svg><svg height="48" viewBox="0 0 48 48" width="48" x="4" y="427"><title>photo-filter-icon2-active</title><path d="M0 0h48v48H0V0z" fill="none"/><path d="M33.12 17.88L15.24 0l-2.83 2.83 4.76 4.76L6.88 17.88a3 3 0 0 0 0 4.24l11 11a3 3 0 0 0 4.24 0l11-11a3 3 0 0 0 0-4.24zM10.41 20L20 10.42 29.59 20H10.41zM38 23s-4 4.33-4 7a4 4 0 0 0 8 0c0-2.67-4-7-4-7zM0 40h48v3H0z" fill="#d32356"/></svg><svg height="48" viewBox="0 0 48 48" width="48" x="4" y="479"><title>photo-filter-icon2-active-tablet</title><path d="M0 0h48v48H0V0z" fill="none"/><path d="M30.08 17.57L18.16 6l-1.89 1.83 3.17 3.08-6.86 6.66a1.9 1.9 0 0 0 0 2.74l7.33 7.12a2 2 0 0 0 2.83 0l7.33-7.12a1.9 1.9 0 0 0 .01-2.74zm-15.14 1.37l6.39-6.2 6.39 6.2H14.94zm18.39 1.94s-2.67 2.8-2.67 4.53a2.67 2.67 0 0 0 5.33 0c.01-1.73-2.66-4.53-2.66-4.53zM12 29.5h24v3H12z" fill="#d32356"/></svg><svg height="48" viewBox="0 0 48 48" width="48" x="4" y="531"><title>photo-filter-icon1</title><path d="M0 0h48v48H0V0z" fill="none"/><path d="M34 30h4V14a4 4 0 0 0-4-4H18v4h16v16zm-20 4V2h-4v8H2v4h8v20a4 4 0 0 0 4 4h20v8h4v-8h8v-4H14z"/></svg><svg height="48" viewBox="0 0 48 48" width="48" x="4" y="583"><title>photo-filter-icon1-tablet</title><path d="M0 0h48v48H0V0z" fill="none"/><path d="M29 27h2v-8a2 2 0 0 0-2-2h-8v2h8v8zm-10 2V13h-2v4h-4v2h4v10a2 2 0 0 0 2 2h10v4h2v-4h4v-2H19z"/></svg><svg height="48" viewBox="0 0 48 48" width="48" x="4" y="635"><title>photo-filter-icon1-active</title><path d="M0 0h48v48H0V0z" fill="none"/><path d="M34 30h4V14a4 4 0 0 0-4-4H18v4h16v16zm-20 4V2h-4v8H2v4h8v20a4 4 0 0 0 4 4h20v8h4v-8h8v-4H14z" fill="#d32356"/></svg><svg height="48" viewBox="0 0 48 48" width="48" x="4" y="687"><title>photo-filter-icon2</title><path d="M0 0h48v48H0V0z" fill="none"/><path d="M33.12 17.88L15.24 0l-2.83 2.83 4.76 4.76L6.88 17.88a3 3 0 0 0 0 4.24l11 11a3 3 0 0 0 4.24 0l11-11a3 3 0 0 0 0-4.24zM10.41 20L20 10.42 29.59 20H10.41zM38 23s-4 4.33-4 7a4 4 0 0 0 8 0c0-2.67-4-7-4-7zM0 40h48v3H0z"/></svg><svg height="48" viewBox="0 0 48 48" width="48" x="4" y="739"><title>photo-filter-icon1-active-tablet</title><path d="M0 0h48v48H0V0z" fill="none"/><path d="M29 27h2v-8a2 2 0 0 0-2-2h-8v2h8v8zm-10 2V13h-2v4h-4v2h4v10a2 2 0 0 0 2 2h10v4h2v-4h4v-2H19z" fill="#d32356"/></svg><svg height="47.04" viewBox="0 0 43 48" width="42.08" x="4" y="791"><title>android</title><path d="M34.14 14H7.94v19.1a3.6 3.6 0 0 0 3.32 3.63v7.43a2.885 2.885 0 0 0 5.77 0v-7.42h8.06v7.42a2.89 2.89 0 0 0 5.77 0v-7.44a3.6 3.6 0 0 0 3.32-3.63V14.34a3.52 3.52 0 0 1-.04-.34zM2.89 15.68a2.89 2.89 0 0 1 2.89 2.88v12.38a2.89 2.89 0 0 1-2.89 2.89A2.89 2.89 0 0 1 0 30.94V18.56a2.88 2.88 0 0 1 2.89-2.88zm36.31 0a2.88 2.88 0 0 1 2.89 2.88v12.38a2.88 2.88 0 0 1-2.89 2.89 2.88 2.88 0 0 1-2.88-2.89V18.56a2.88 2.88 0 0 1 2.88-2.88zM8 12h26a10.47 10.47 0 0 0-3.19-7.27L33.26.5a.31.31 0 0 0-.06-.5.3.3 0 0 0-.41.11l-2.37 4.15A16.11 16.11 0 0 0 21 .86a16.39 16.39 0 0 0-9.37 3.4L9.3.15a.305.305 0 0 0-.53.3l2.44 4.23A10.48 10.48 0 0 0 8 12zm17.32-5.2a1.5 1.5 0 0 1 3 0 1.5 1.5 0 0 1-3 0zm-11.14 0a1.5 1.5 0 0 1 3 0 1.5 1.5 0 0 1-3 0z" fill="#a4c639"/></svg><svg height="41.99" viewBox="0 0 44 42" width="43.92" x="4" y="843"><title>microsoft</title><path d="M20.87 20H0V0h20.87v20z" fill="#f05423"/><path d="M43.92 20H23V0h20.92v20z" fill="#84c441"/><path d="M20.87 42H0V22h20.87v20z" fill="#2dabe2"/><path d="M43.92 42H23V22h20.92v20z" fill="#f9bc15"/></svg><svg height="41.37" viewBox="0 0 22 42" width="21.53" x="4" y="889"><title>reviews-control</title><path d="M2 20.69L21.28 1.43A.84.84 0 0 0 20.09.25L.25 20.09a.84.84 0 0 0 0 1.19l19.84 19.85a.841.841 0 0 0 1.19-1.19z" fill="#c1c5ca"/></svg><svg height="35.08" viewBox="0 0 28 36" width="28" x="4" y="935"><title>html-academy</title><path d="M14.14.5H14L.5 1.91V26.5l13.5 8 13.5-8V1.91zm11.59 25L14 32.5l-11.73-7V15.43l11.68 6.92v1.25l-8-4.74v1.22l8 4.81v1.29l-8-4.76v1.22l8 4.81 8.12-4.83V17.4l3.62-2.15V25.5zm0-11.56l-3.21 1.88-1.48.87L14 12.5v1.22l6 3.57h-.05l-.13.08-.86.5-5-3v1.22l3.94 2.33-.93.62-3-1.74v1.22l2 1.14-2 1.19-11.63-6.87 11.64-7zm0-1.22L13.93 5.8 2.26 12.71V3.5L14 2.27 25.73 3.5v9.24z" fill="#d32356" stroke="#d32356" stroke-miterlimit="10"/></svg><svg height="35.08" viewBox="0 0 28 36" width="28" x="4" y="975"><title>html-academy-hover</title><path d="M14.14.5H14L.5 1.91V26.5l13.5 8 13.5-8V1.91zm11.59 25L14 32.5l-11.73-7V15.43L14 22.35v1.25l-8-4.74v1.22l8 4.81v1.29l-8-4.76v1.22l8 4.81 8.12-4.83V17.4l3.62-2.15V25.5zm0-11.56l-3.21 1.88-1.52.87-7-4.19v1.22l6 3.57-.13.08-.86.5-5-3v1.22l3.94 2.33L17 19l-3-1.7v1.22l2 1.14-2 1.19L2.34 14 14 7zm0-1.22L13.93 5.8 2.26 12.71V3.5L14 2.27 25.73 3.5v9.22z" fill="#243344" stroke="#243344" stroke-miterlimit="10"/></svg><svg height="31.92" viewBox="0 0 32 32" width="31.92" x="4" y="1015"><title>photo-filter-icon3-active</title><path d="M15.96 3.96a12 12 0 0 1 11.96 12 12 12 0 0 1-12 12 12 12 0 0 1-12-12 12 12 0 0 1 12-12m0-4a16 16 0 0 0-16 16 16 16 0 0 0 16 16 16 16 0 0 0 16-16 16 16 0 0 0-16-16z" fill="#d32356"/><path d="M15.96 24.29a8.52 8.52 0 0 0 8.52-8.52 8.52 8.52 0 0 0-8.52-8.52" fill="#d32356"/></svg><svg height="31.92" viewBox="0 0 32 32" width="31.92" x="4" y="1051"><title>photo-filter-icon3</title><path d="M15.96 3.96a12 12 0 0 1 11.96 12 12 12 0 0 1-12 12 12 12 0 0 1-12-12 12 12 0 0 1 12-12m0-4a16 16 0 0 0-16 16 16 16 0 0 0 16 16 16 16 0 0 0 16-16 16 16 0 0 0-16-16z"/><path d="M15.96 24.29a8.52 8.52 0 0 0 8.52-8.52 8.52 8.52 0 0 0-8.52-8.52"/></svg><svg height="21.69" viewBox="0 0 31 22" width="30.37" x="4" y="1087"><title>confirm</title><path d="M29.94.44a1.5 1.5 0 0 0-2.12 0L10.19 18.07l-7.63-7.63a1.5 1.5 0 0 0-2.12 2.12l8.69 8.69a1.5 1.5 0 0 0 2.12 0L29.94 2.56a1.5 1.5 0 0 0 0-2.12z" fill="#3bc743"/></svg><svg height="26.75" viewBox="0 0 27 27" width="26.75" x="4" y="1113"><title>none</title><path d="M15.5 13.38L26.31 2.56A1.5 1.5 0 1 0 24.19.44L13.38 11.25 2.56.44A1.5 1.5 0 0 0 .44 2.56l10.81 10.82L.44 24.19a1.5 1.5 0 0 0 2.12 2.12L13.38 15.5l10.81 10.81a1.5 1.5 0 1 0 2.12-2.12z" fill="#f35b21"/></svg><svg height="23.87" viewBox="0 0 24 24" width="23.87" x="4" y="1144"><title>main-nav__close</title><path d="M15.09 11.93l8.56-8.56a.75.75 0 0 0 0-1.06L21.55.22a.75.75 0 0 0-1.06 0l-8.56 8.56L3.37.22a.77.77 0 0 0-1.06 0L.22 2.31a.75.75 0 0 0 0 1.06l8.56 8.56-8.56 8.56a.75.75 0 0 0 0 1.06l2.09 2.09a.75.75 0 0 0 1.06 0l8.56-8.56 8.56 8.56a.75.75 0 0 0 1.06 0l2.09-2.09a.75.75 0 0 0 0-1.06z" fill="#fff"/></svg><svg height="23.87" viewBox="0 0 24 24" width="23.87" x="4" y="1172"><title>main-nav__close-hover</title><path d="M15.09 11.93l8.56-8.56a.75.75 0 0 0 0-1.06L21.55.22a.75.75 0 0 0-1.06 0l-8.56 8.56L3.37.22a.77.77 0 0 0-1.06 0L.22 2.31a.75.75 0 0 0 0 1.06l8.56 8.56-8.56 8.56a.75.75 0 0 0 0 1.06l2.09 2.09a.75.75 0 0 0 1.06 0l8.56-8.56 8.56 8.56a.75.75 0 0 0 1.06 0l2.09-2.09a.75.75 0 0 0 0-1.06z" fill="#d22856"/></svg><svg height="16.09" viewBox="0 0 22 17" width="21.7" x="4" y="1200"><title>confirm-checkbox</title><path d="M21.36.3a1 1 0 0 0-1.41 0L6.61 13.68l-4.9-4.9a1 1 0 0 0-1.41 0 1 1 0 0 0 0 1.41l5.61 5.61a1 1 0 0 0 .71.29 1 1 0 0 0 .74-.29l14-14.09a1 1 0 0 0 0-1.41z" fill="#d32356"/></svg><svg height="19.7" viewBox="0 0 20 20" width="19.7" x="4" y="1221"><title>tel</title><path d="M9.85 0c-3.51 0-7 .63-8.3 1.88A6.89 6.89 0 0 0 0 5.91v.17a.82.82 0 0 0 .82.82L4 6.64h.09a.82.82 0 0 0 .8-.82V4.19a.9.9 0 0 1 .91-.9h8a.9.9 0 0 1 .91.9V5.8a.82.82 0 0 0 .8.82h.09l3.28.28a.82.82 0 0 0 .82-.82 1.63 1.63 0 0 0 0-.17 6.9 6.9 0 0 0-1.53-4C16.87.63 13.36 0 9.85 0zm0 10.67a1.64 1.64 0 1 0 1.64 1.64 1.64 1.64 0 0 0-1.64-1.64zM8.62 7V6a1 1 0 1 0-2 0v1L1 12.89a2.06 2.06 0 0 0-.62 1.47V16a1.64 1.64 0 0 0 1.64 1.64h.44v1a1.025 1.025 0 1 0 2.05 0v-1h10.67v1a1.025 1.025 0 0 0 2.05 0v-1h.41A1.64 1.64 0 0 0 19.28 16v-1.64a2.05 2.05 0 0 0-.62-1.47L13.13 7V6a1.025 1.025 0 1 0-2.05 0v1H8.62zm1.23 2a3.28 3.28 0 1 1-3.28 3.28A3.28 3.28 0 0 1 9.85 9z" fill="#d32356"/></svg><svg height="18.94" viewBox="0 0 9 19" width="8.67" x="4" y="1245"><title>fb</title><path d="M6.27 3.36h2.4V0H5.8C2.66.18 1.54 2.39 1.95 6.12H0v3.51h2v9.31h3.8V9.63h2.85V6.12H5.79c-.02-1.05-.04-2.41.48-2.76z" fill="#d32356"/></svg><svg height="13.97" viewBox="0 0 18 14" width="17.99" x="4" y="1268"><title>mail</title><path d="M14.91 1.81c1.2-1 .9-1.81-.66-1.81H3.73c-1.56 0-1.85.82-.66 1.81l3.75 3.12a3.54 3.54 0 0 0 4.35 0z" fill="#d32356"/><path d="M11.91 7L9.7 8.88a1 1 0 0 1-.26.12h-.1a1.13 1.13 0 0 1-.34.14 1.2 1.2 0 0 1-.33-.06L8.55 9a1.05 1.05 0 0 1-.23-.14L6.08 7l-3.9-3.2C1 2.8 0 3.26 0 4.82v6.32A2.84 2.84 0 0 0 2.83 14h12.32A2.84 2.84 0 0 0 18 11.13V4.82c0-1.56-1-2-2.18-1z" fill="#d32356"/></svg><svg height="14.66" viewBox="0 0 18 15" width="17.5" x="4" y="1286"><title>tw</title><path d="M11.28.15A3.28 3.28 0 0 1 15 1.3c.66-.22 1.34-.47 2-.69a2.25 2.25 0 0 1-.88 1.73 1.64 1.64 0 0 0 1.34-.48 2.9 2.9 0 0 1-1.61 2c-.24 6.59-3.27 11-10.38 10.82H5c-.42 0-4.29-.45-5-1.84a6.57 6.57 0 0 0 4.84-1.15c-1-.29-2.76-.46-3.07-2.88A2.14 2.14 0 0 0 3 8.9C1.76 8.07.38 7.37.46 5.22a2 2 0 0 0 1.38.46C1.12 5.44-.19 2.4.92.84c1.87 1.81 3.85 3.52 7.37 3.69C8.51 2.29 9.46.79 11.28.15z" fill="#d32356"/></svg><svg height="16" viewBox="0 0 16 16" width="16" x="4" y="1305"><title>photo-filter-icon3-active-tablet</title><path d="M8.02 2.04a6 6 0 1 1-6 6 6 6 0 0 1 6-6m0-2a8 8 0 1 0 8 8 8 8 0 0 0-8-8zm1.06 11.77a4 4 0 0 0 0-8" fill="#d32356"/></svg><svg height="16" viewBox="0 0 16 16" width="16" x="4" y="1325"><title>photo-filter-icon3-tablet</title><path d="M8.02 2.04a6 6 0 1 1-6 6 6 6 0 0 1 6-6m0-2a8 8 0 1 0 8 8 8 8 0 0 0-8-8zm1.06 11.77a4 4 0 0 0 0-8"/></svg><svg height="13.96" viewBox="0 0 15 14" width="14.64" x="4" y="1345"><title>yt</title><path d="M1.78 13.78A1.14 1.14 0 0 1 0 12.67V1.29A1.14 1.14 0 0 1 1.78.18l12.13 5.93c1 .48 1 1.26 0 1.74z" fill="#d32356"/></svg><svg height="11.99" viewBox="0 0 13 12" width="12.54" x="4" y="1363"><title>like</title><path d="M6.24 12a.74.74 0 0 1-.55-.25C1.89 7.42 1 6.44.83 6.17A3.86 3.86 0 0 1 0 3.8 3.82 3.82 0 0 1 6.28.9 3.85 3.85 0 0 1 8.75 0a3.8 3.8 0 0 1 3.8 3.8 3.49 3.49 0 0 1-.9 2.38l-4.86 5.56a.73.73 0 0 1-.55.25zM2 5.28c.2.26 2.46 2.84 4.23 4.86l4.33-4.94a2 2 0 0 0 .52-1.4 2.33 2.33 0 0 0-2.33-2.33 2.44 2.44 0 0 0-1.9.94.76.76 0 0 1-.58.28.73.73 0 0 1-.58-.29 2.35 2.35 0 0 0-4.22 1.4A2.36 2.36 0 0 0 2 5.27z" fill="#d84e73"/></svg></svg>