<svg width="1390" height="525" viewBox="0 0 1390 525" xmlns="http://www.w3.org/2000/svg"><title>onyx</title><path d="M672.198 6.928h130.84l77.545 134.312L958.128 6.928h159.614l64.271 83.082 64.273-83.082h143.258l-135.9 175.676 135.9 175.675h-143.26l-64.27-83.082-64.272 83.082H974.484l135.9-175.675-70.343-90.93-42.868 74.249-91.796 158.995-19.261 33.361h-130.84l59.887-103.728L704.908 63.583v294.696H591.596c0 .72-114.022-140.39-139.386-171.717V358.28H338.9v-81.803c-31.891 52.982-89.952 88.427-156.296 88.427-100.682 0-182.3-81.618-182.3-182.3C.304 81.924 81.922.305 182.604.305c66.344 0 124.405 35.445 156.295 88.427V6.928h113.31c46.764 57 92.991 114.415 139.387 171.717V6.928h80.602zM254.85 182.604c0-90.813-144.492-90.813-144.492 0 0 90.812 144.492 90.812 144.492 0zM121.639 477.208a37.329 37.329 0 0 1-6.67 6.87c-3.806 3.009-8.067 5.19-12.701 6.61-4.843 1.486-9.851 2.134-14.911 2.11-5.286-.026-10.522-.994-15.263-3.397-4.275-2.166-7.785-5.222-10.333-9.286-2.579-4.113-3.772-8.706-3.772-13.554 0-4.746 1.295-9.114 4.227-12.865 2.998-3.838 7.153-6.351 11.676-8.012 5.518-2.028 11.587-2.716 17.437-2.716h30.1v-8.787c0-4.41-.791-8.81-2.892-12.725-1.899-3.539-4.715-6.115-8.3-7.908-4.355-2.177-9.463-2.859-14.282-2.858-5.23 0-10.304 1-15.103 3.087-4.966 2.159-9.572 5.05-13.781 8.448l-1.307 1.056-3.932-5.242 1.225-.982a71.859 71.859 0 0 1 10.084-6.79 51.021 51.021 0 0 1 10.863-4.491 43.43 43.43 0 0 1 11.955-1.632c5.929.013 11.99.978 17.312 3.703 4.677 2.396 8.393 5.853 10.924 10.466 2.673 4.871 3.746 10.338 3.779 15.858l.34 58.627h-6.541l-.134-15.59zm252.719-6.651a39.8 39.8 0 0 1-5.595 7.164c-3.772 3.83-8.176 6.747-13.15 8.788-5.255 2.155-10.804 3.15-16.475 3.15-5.697 0-11.277-1.005-16.541-3.21-4.962-2.078-9.402-5.039-13.148-8.902-3.785-3.902-6.63-8.478-8.631-13.528-2.148-5.42-3.116-11.133-3.116-16.952 0-5.883.964-11.653 3.113-17.14 1.992-5.08 4.836-9.685 8.632-13.614 3.75-3.88 8.175-6.86 13.147-8.957 5.26-2.217 10.849-3.212 16.544-3.212 5.67 0 11.228.983 16.478 3.151 4.985 2.06 9.374 4.997 13.15 8.844a39.612 39.612 0 0 1 5.592 7.212v-19.207h6.545v77.286c0 6.07-.875 12.123-2.992 17.828-1.911 5.153-4.72 9.796-8.565 13.73-3.796 3.884-8.315 6.764-13.379 8.722-5.52 2.135-11.445 3.082-17.355 2.973-6.64-.122-13.128-1.455-19.227-4.099-6.117-2.65-11.518-6.565-16.245-11.239l-1.159-1.146 4.61-4.61 1.146 1.146c4.095 4.093 8.758 7.516 14.09 9.818 5.358 2.311 11.017 3.474 16.846 3.584 6.612.126 13.119-1.202 18.92-4.447 5.339-2.986 9.426-7.218 12.302-12.62 3.23-6.066 4.463-12.813 4.463-19.64v-10.873zm182.686-20.548c.166 4.709.967 9.383 2.669 13.794 1.722 4.464 4.205 8.485 7.529 11.93 3.263 3.383 7.088 5.957 11.43 7.751 4.632 1.914 9.55 2.766 14.552 2.768 5.664.001 11.23-.943 16.482-3.1 4.83-1.983 9.058-4.864 12.544-8.752l1.142-1.275 4.624 4.625-1.055 1.144c-4.149 4.499-9.159 7.893-14.802 10.253-6.032 2.524-12.41 3.652-18.936 3.65-5.86-.001-11.585-1.035-17.004-3.289-5.15-2.142-9.718-5.231-13.593-9.236-3.93-4.062-6.878-8.825-8.936-14.083-2.226-5.685-3.224-11.707-3.224-17.8 0-6.08.999-12.051 3.224-17.72 2.06-5.246 5.016-9.975 8.936-14.026 3.874-4.004 8.45-7.054 13.59-9.206 5.418-2.27 11.143-3.293 17.007-3.293 5.822 0 11.525.99 16.887 3.3 4.999 2.152 9.378 5.221 13.055 9.23 3.747 4.088 6.504 8.828 8.396 14.034 2.06 5.671 2.907 11.656 2.932 17.673l.008 1.628h-77.457zM812.586 422.6c2.68-4.596 6.242-8.52 10.824-11.623 7.022-4.755 15.14-6.746 23.553-6.833 6.544-.067 13.06 1.14 18.87 4.238 5.272 2.81 9.337 6.898 12.124 12.184 3.066 5.81 4.18 12.384 4.18 18.9v53.332h-6.546v-53.331c0-5.388-.878-10.846-3.419-15.651-2.237-4.229-5.457-7.462-9.68-9.709-4.76-2.532-10.14-3.478-15.494-3.417-6.197.07-12.234 1.369-17.679 4.395-4.961 2.757-8.8 6.617-11.603 11.553-3.193 5.62-5.13 11.606-5.13 18.116v48.044h-6.546v-88.654h6.546V422.6zm282.036-18.456c5.722.001 11.31 1.018 16.627 3.145 5.066 2.026 9.627 4.936 13.57 8.704l1.155 1.103-4.33 4.663-1.187-1.085a38.485 38.485 0 0 0-11.628-7.32c-4.53-1.83-9.33-2.663-14.207-2.664-5.058 0-10.031.855-14.723 2.772-4.385 1.789-8.283 4.347-11.598 7.728-3.353 3.42-5.884 7.419-7.634 11.876-1.924 4.9-2.75 10.07-2.75 15.323 0 5.266.826 10.49 2.75 15.406 1.75 4.471 4.28 8.494 7.636 11.932 3.315 3.395 7.202 5.96 11.596 7.754 4.692 1.916 9.666 2.77 14.723 2.77 5.355.002 10.595-.952 15.518-3.087 4.659-2.02 8.664-4.93 12.01-8.75l1.184-1.352 4.368 4.706-.971 1.1c-3.926 4.446-8.658 7.868-14.079 10.266-5.703 2.524-11.806 3.664-18.03 3.664-5.898-.001-11.677-1.035-17.139-3.288-5.175-2.136-9.77-5.227-13.676-9.234-3.954-4.057-6.93-8.819-9.018-14.08-2.254-5.681-3.255-11.708-3.255-17.807 0-6.086 1.002-12.062 3.256-17.727 2.088-5.25 5.073-9.976 9.017-14.023 3.905-4.006 8.507-7.058 13.673-9.203 5.462-2.269 11.24-3.293 17.142-3.292zm225.907 87.377l-36.028-87.377h7.31l32.106 78.905 31.625-78.905h7.476l-40.894 100.036c-2.296 5.62-5.546 11.16-10.15 15.199-3.901 3.422-8.43 5.453-13.648 5.469-2.972.008-5.927-.352-8.789-1.164-2.622-.742-5.106-1.861-7.342-3.424l-1.176-.82 3-5.665 1.493 1.002c1.763 1.183 3.693 2.044 5.733 2.623 2.196.621 4.46.91 6.74.902 4-.013 7.427-1.51 10.418-4.14 3.714-3.264 6.276-7.791 8.07-12.345l4.056-10.296zM121.59 464.104l-.146-14.59H91.33c-4.962 0-10.204.502-14.922 2.115-3.39 1.16-6.635 2.959-8.89 5.806-2.1 2.65-2.993 5.755-2.982 9.12.012 3.64.836 7.141 2.781 10.241 1.927 3.069 4.621 5.311 7.872 6.894 3.83 1.864 8.121 2.54 12.35 2.562 4.936.025 9.875-.623 14.547-2.25 4.34-1.513 8.137-3.917 11.396-7.162 3.595-3.582 6.19-8.066 8.11-12.736zm217.548 19.174c4.862 0 9.638-.83 14.132-2.71 4.195-1.756 7.94-4.274 11.111-7.537 3.211-3.307 5.642-7.155 7.337-11.443 1.833-4.641 2.64-9.541 2.64-14.521 0-5.021-.807-9.951-2.642-14.636-1.695-4.326-4.123-8.2-7.342-11.556-3.166-3.298-6.894-5.837-11.108-7.614-4.49-1.893-9.266-2.736-14.128-2.736-4.848 0-9.624.842-14.1 2.736-4.21 1.781-7.894 4.309-11.05 7.612-3.205 3.35-5.61 7.234-7.29 11.554-1.82 4.686-2.615 9.623-2.615 14.64 0 4.975.794 9.883 2.614 14.525 1.679 4.281 4.082 8.132 7.283 11.441 3.16 3.267 6.86 5.775 11.055 7.535 4.48 1.88 9.255 2.71 14.103 2.71zm218.193-39.814h70.468c-.444-4.246-1.403-8.425-3.057-12.374-1.7-4.058-4.035-7.72-7.122-10.862-3.03-3.082-6.594-5.42-10.603-7.04-4.394-1.774-9.071-2.498-13.794-2.498-4.751 0-9.43.759-13.86 2.503-4.146 1.633-7.877 3.987-11.093 7.07-3.256 3.121-5.796 6.763-7.657 10.87-1.774 3.916-2.819 8.075-3.282 12.33z" fill="#0829CC" fill-rule="evenodd" opacity=".02"/></svg>