<svg data-name="Layer 1" xmlns="http://www.w3.org/2000/svg" viewBox="0 0 169.67 64.74"><title>logo-case-img</title><path d="M98.03.81l9.47 16.4 9.48-16.4h19.49L144.32 11 152.17.85h17.5l-16.6 21.46 16.6 21.46h-17.5l-7.85-10.15-7.85 10.15h-17.49l16.6-21.46-8.6-11.15-5.24 9.07-11.21 19.42-2.35 4.08h-16l7.31-12.67L86.05 7.73v36H72.2c0 .08-13.92-17.15-17-21v21H41.34v-10a22.26 22.26 0 1 1 0-22.93V.8h13.84c5.71 7 11.36 14 17 21V.8h25.85zM13.42 22.27c0 11.09 17.65 11.09 17.65 0s-17.65-11.1-17.65 0zm1.33 36.65a4.7 4.7 0 0 1-2.36 1.65 6.21 6.21 0 0 1-1.82.26 4 4 0 0 1-1.87-.42 3.05 3.05 0 0 1-1.72-2.79 2.47 2.47 0 0 1 .52-1.57 3.14 3.14 0 0 1 1.42-1 6.45 6.45 0 0 1 2.13-.33h3.68v-1.05a3.36 3.36 0 0 0-.35-1.56 2.31 2.31 0 0 0-1-1 3.85 3.85 0 0 0-1.74-.35 4.54 4.54 0 0 0-1.85.38 7.1 7.1 0 0 0-1.68 1l-.16.13-.5-.57.15-.12a9.14 9.14 0 0 1 1.23-.83 6.43 6.43 0 0 1 1.33-.55 5.1 5.1 0 0 1 1.46-.2 4.66 4.66 0 0 1 2.11.45 3.18 3.18 0 0 1 1.34 1.28 4.2 4.2 0 0 1 .46 1.94v7.16h-.8zm30.87-.81a4.81 4.81 0 0 1-4.3 2.34A5.2 5.2 0 0 1 37.7 59a5 5 0 0 1-1.06-1.66 5.73 5.73 0 0 1 0-4.16 5 5 0 0 1 2.66-2.76 5.27 5.27 0 0 1 5.68 1.05 4.49 4.49 0 0 1 .68.88V50h.8v9.44a6.24 6.24 0 0 1-.36 2.18 4.55 4.55 0 0 1-2.68 2.74 5.94 5.94 0 0 1-4.47-.14 6.5 6.5 0 0 1-2-1.37l-.14-.14.57-.56.14.14a5.34 5.34 0 0 0 3.77 1.63 4.46 4.46 0 0 0 2.32-.54 3.71 3.71 0 0 0 1.5-1.54 5.11 5.11 0 0 0 .54-2.4v-1.33zm22.36-2.51a5.39 5.39 0 0 0 .32 1.69 4.42 4.42 0 0 0 .92 1.45 4 4 0 0 0 1.4.95 5.32 5.32 0 0 0 3.79 0 4 4 0 0 0 1.53-1.07l.14-.15.53.53-.13.14a5.16 5.16 0 0 1-1.81 1.25 5.94 5.94 0 0 1-4.39.05 4.85 4.85 0 0 1-2.75-2.85 6 6 0 0 1 0-4.34A5 5 0 0 1 72.36 50a5.18 5.18 0 0 1 2.06.4 4.62 4.62 0 0 1 1.56 1.13 5.08 5.08 0 0 1 1 1.71 6.4 6.4 0 0 1 .36 2.16v.2h-9.36zm31.21-3.35a4.36 4.36 0 0 1 1.32-1.42 5.15 5.15 0 0 1 2.88-.83 4.74 4.74 0 0 1 2.31.52 3.49 3.49 0 0 1 1.44 1.48 5 5 0 0 1 .51 2.3v6.52h-.8v-6.51a4.1 4.1 0 0 0-.42-1.91 2.8 2.8 0 0 0-1.18-1.18 4.5 4.5 0 0 0-4.05.12 3.5 3.5 0 0 0-1.42 1.41 4.42 4.42 0 0 0-.63 2.25v5.87h-.8V50h.8v2.25zM133.6 50a5.42 5.42 0 0 1 3.69 1.45l.14.13-.53.57-.14-.15a4.79 4.79 0 0 0-3.16-1.22 4.64 4.64 0 0 0-1.8.34 4.2 4.2 0 0 0-2.35 2.39 5.2 5.2 0 0 0-.33 1.87 4.47 4.47 0 0 0 1.27 3.34 4.08 4.08 0 0 0 1.41.95 4.64 4.64 0 0 0 1.8.34 4.74 4.74 0 0 0 1.9-.38 3.87 3.87 0 0 0 1.48-1.05l.15-.16.51.58-.12.14a4.86 4.86 0 0 1-1.72 1.25 5.55 5.55 0 0 1-4.29.05 4.89 4.89 0 0 1-2.77-2.85 5.77 5.77 0 0 1-.4-2.18 5.71 5.71 0 0 1 .4-2.16A5.07 5.07 0 0 1 133.6 50zm27.6 10.67L156.8 50h.89l3.92 9.64 3.86-9.64h.92l-5 12.22a5 5 0 0 1-1.24 1.86 2.52 2.52 0 0 1-1.67.66 3.88 3.88 0 0 1-1.07-.14 3.08 3.08 0 0 1-.9-.42l-.14-.1.37-.69.18.12a2.23 2.23 0 0 0 .7.32 2.54 2.54 0 0 0 .82.11 1.86 1.86 0 0 0 1.27-.5 3.82 3.82 0 0 0 1-1.51zM14.75 57.32v-1.78h-3.7a5.65 5.65 0 0 0-1.82.26 2.33 2.33 0 0 0-1.09.71 1.76 1.76 0 0 0-.36 1.11 2.26 2.26 0 0 0 1.3 2.1 3.55 3.55 0 0 0 1.51.31 5.39 5.39 0 0 0 1.78-.28 3.56 3.56 0 0 0 1.39-.87 4.82 4.82 0 0 0 .99-1.56zm26.57 2.35a4.19 4.19 0 0 0 4-2.65 4.71 4.71 0 0 0 .32-1.78 4.92 4.92 0 0 0-.32-1.78 4.23 4.23 0 0 0-2.25-2.35 4.67 4.67 0 0 0-3.45 0 4 4 0 0 0-1.35.93 4.27 4.27 0 0 0-.89 1.41 5 5 0 0 0 0 3.57 4.08 4.08 0 0 0 2.24 2.32 4.61 4.61 0 0 0 1.7.33zm35.26-4.87a4.5 4.5 0 0 0-1.24-2.8 3.93 3.93 0 0 0-3-1.16 4.53 4.53 0 0 0-1.7.31 4.09 4.09 0 0 0-2.29 2.19 5.2 5.2 0 0 0-.4 1.5h8.63z"/></svg>