<svg xmlns="http://www.w3.org/2000/svg" xmlns:xlink="http://www.w3.org/1999/xlink" width="170" height="65" viewBox="0 0 170 65"><defs><path id="a" d="M168.05 60.81l9.47 16.4 9.48-16.4h19.49l7.85 10.15 7.85-10.15h17.5l-16.6 21.46 16.6 21.46h-17.5l-7.85-10.15-7.85 10.15h-17.5l16.6-21.46L197 71.16l-5.24 9.07-11.21 19.42-2.35 4.08h-15.98l7.31-12.67-13.46-23.33v36h-13.85c0 .08-13.92-17.15-17.02-20.98v20.98h-13.84v-10a22.26 22.26 0 1 1 0-22.93v-9.99h13.84c5.71 6.96 11.36 13.97 17.02 20.97V60.81zM83.44 82.27c0 11.09 17.65 11.09 17.65 0 0-11.1-17.65-11.1-17.65 0z"/><path id="b" d="M84.77 118.92a4.7 4.7 0 0 1-2.36 1.65c-.59.18-1.2.26-1.82.26-.65 0-1.29-.12-1.87-.42a3.05 3.05 0 0 1-1.72-2.79c0-.58.16-1.11.52-1.57.36-.47.87-.77 1.42-.98a6.45 6.45 0 0 1 2.13-.33h3.68v-1.07c0-.54-.1-1.08-.35-1.56a2.31 2.31 0 0 0-1.02-.96 3.85 3.85 0 0 0-1.74-.35c-.64 0-1.26.12-1.85.38a7.1 7.1 0 0 0-1.68 1.03l-.16.13-.48-.64.15-.12c.39-.31.8-.59 1.23-.83.42-.23.87-.42 1.33-.55.47-.14.96-.2 1.46-.2.72 0 1.46.12 2.11.45.57.3 1.03.72 1.34 1.28.32.6.45 1.26.46 1.94l.04 7.16h-.8zm30.87-.81a4.81 4.81 0 0 1-4.3 2.34 5.2 5.2 0 0 1-3.62-1.48 5 5 0 0 1-1.06-1.66 5.73 5.73 0 0 1 0-4.16 4.98 4.98 0 0 1 2.66-2.76 5.19 5.19 0 0 1 2.02-.39 5.14 5.14 0 0 1 3.62 1.47c.26.26.49.56.68.88V110h.8v9.44c0 .74-.1 1.48-.36 2.18a4.55 4.55 0 0 1-2.68 2.74 5.94 5.94 0 0 1-4.47-.14 6.5 6.5 0 0 1-1.99-1.37l-.14-.14.57-.56.14.14a5.34 5.34 0 0 0 3.77 1.63c.81.02 1.61-.14 2.32-.54a3.71 3.71 0 0 0 1.5-1.54c.39-.74.54-1.57.54-2.4zm22.32-2.51c.02.58.12 1.15.32 1.69.21.54.52 1.03.92 1.45.4.42.87.73 1.4.95a5.32 5.32 0 0 0 3.79-.04 4 4 0 0 0 1.53-1.07l.14-.15.57.56-.13.14c-.51.55-1.12.96-1.81 1.25a5.94 5.94 0 0 1-4.39.05 4.85 4.85 0 0 1-2.75-2.85 6.01 6.01 0 0 1 0-4.34 5.04 5.04 0 0 1 4.83-3.24c.71 0 1.41.12 2.06.4.61.27 1.15.64 1.59 1.13.46.5.8 1.08 1.03 1.71.25.7.36 1.43.36 2.16v.2zm31.21-3.35c.33-.56.76-1.04 1.32-1.42a5.15 5.15 0 0 1 2.88-.83c.8-.01 1.6.14 2.31.52.64.34 1.14.84 1.48 1.49.37.71.51 1.51.51 2.3v6.52h-.8v-6.52a4.1 4.1 0 0 0-.42-1.91 2.8 2.8 0 0 0-1.18-1.18 4.5 4.5 0 0 0-4.05.12 3.5 3.5 0 0 0-1.42 1.41 4.42 4.42 0 0 0-.63 2.21v5.87h-.8V110h.8zm34.45-2.25a5.42 5.42 0 0 1 3.69 1.45l.14.13-.53.57-.14-.13a4.79 4.79 0 0 0-3.16-1.22c-.62 0-1.22.1-1.8.34a4.2 4.2 0 0 0-2.35 2.39 5.2 5.2 0 0 0-.33 1.87 4.47 4.47 0 0 0 1.27 3.34c.4.42.88.73 1.41.95.58.24 1.18.34 1.8.34.66 0 1.3-.12 1.9-.38.57-.24 1.06-.6 1.46-1.07l.15-.16.53.57-.12.14c-.48.54-1.05.96-1.72 1.25a5.55 5.55 0 0 1-4.29.05 4.89 4.89 0 0 1-2.77-2.85 5.77 5.77 0 0 1-.4-2.18c0-.74.12-1.47.4-2.16a5.07 5.07 0 0 1 4.86-3.24zm27.6 10.67l-4.4-10.67h.89l3.92 9.64 3.86-9.64h.92l-5 12.22a4.99 4.99 0 0 1-1.24 1.86c-.48.41-1.03.66-1.67.66-.36 0-.72-.04-1.07-.14a3.08 3.08 0 0 1-.9-.42l-.14-.1.37-.69.18.12c.21.15.45.25.7.32.27.08.54.12.82.11.49 0 .91-.18 1.27-.5.46-.4.77-.95.99-1.51zm-146.45-3.35l-.02-1.78h-3.68c-.6 0-1.24.06-1.82.26-.41.14-.81.36-1.09.71-.25.32-.36.7-.36 1.11a2.26 2.26 0 0 0 1.3 2.1c.47.22.99.31 1.51.31.6 0 1.21-.08 1.78-.28.53-.18.99-.47 1.39-.87.44-.44.75-.99.99-1.56zm26.57 2.35a4.08 4.08 0 0 0 3.08-1.26c.4-.4.69-.87.9-1.39.23-.57.32-1.17.32-1.78 0-.61-.1-1.21-.32-1.78a4.23 4.23 0 0 0-2.25-2.35 4.44 4.44 0 0 0-1.73-.33c-.59 0-1.17.1-1.72.33-.52.22-.97.53-1.35.93-.39.41-.69.89-.89 1.41a5.01 5.01 0 0 0 0 3.57 4.08 4.08 0 0 0 2.24 2.32c.55.22 1.13.33 1.72.33zm35.26-4.87a4.5 4.5 0 0 0-1.24-2.84 3.93 3.93 0 0 0-2.98-1.16c-.58 0-1.15.09-1.7.31a4.09 4.09 0 0 0-2.29 2.19 5.2 5.2 0 0 0-.4 1.5z"/></defs><g transform="translate(-70 -60)"><use fill="#fff" xlink:href="#a"/></g><g transform="translate(-70 -60)"><use fill="#fff" xlink:href="#b"/></g></svg>