<svg xmlns="http://www.w3.org/2000/svg" xmlns:xlink="http://www.w3.org/1999/xlink" width="100" height="38" viewBox="0 0 100 38"><defs><path id="a" d="M87.68 30.48l5.57 9.65 5.57-9.65h11.47l4.62 5.97 4.62-5.97h10.29l-9.77 12.62 9.77 12.62h-10.29l-4.62-5.97-4.62 5.97H100l9.76-12.62-5.05-6.54-3.08 5.34-6.6 11.42-1.38 2.4h-9.4l4.3-7.45-7.92-13.72v21.17h-8.14c0 .05-8.2-10.09-10.02-12.34v12.34h-8.14v-5.88A13.08 13.08 0 0 1 30 43.1a13.1 13.1 0 0 1 24.33-6.75v-5.87h8.14c3.36 4.09 6.68 8.22 10.02 12.33V30.48zM37.91 43.1c0 6.52 10.38 6.52 10.38 0 0-6.53-10.38-6.53-10.38 0z"/><path id="b" d="M38.57 64.25a2.66 2.66 0 0 1-1.39.97c-.35.11-.71.15-1.07.15-.38 0-.76-.07-1.1-.24-.3-.16-.56-.38-.74-.67-.18-.3-.27-.63-.27-.98 0-.34.09-.65.3-.92.22-.28.52-.46.84-.58.4-.14.84-.19 1.26-.19h2.16v-.63c0-.32-.06-.63-.21-.92a1.3 1.3 0 0 0-.6-.56 2.72 2.72 0 0 0-2.11.01 4.8 4.8 0 0 0-.99.61l-.09.08-.28-.38.08-.07c.23-.18.47-.35.73-.49a3.29 3.29 0 0 1 2.88-.17c.34.17.61.42.79.75.19.35.27.74.27 1.14l.02 4.21h-.47zm18.16-.48a2.92 2.92 0 0 1-2.53 1.37 2.86 2.86 0 0 1-2.75-1.84 3.27 3.27 0 0 1 .62-3.43A2.9 2.9 0 0 1 54.2 59a2.96 2.96 0 0 1 2.53 1.38V59h.47v5.55c0 .44-.06.87-.21 1.28a2.76 2.76 0 0 1-1.58 1.62 3.67 3.67 0 0 1-3.8-.89l-.08-.08.33-.33.08.08a3.26 3.26 0 0 0 2.23.96c.47.01.94-.09 1.36-.32.38-.21.67-.52.88-.91.23-.43.32-.92.32-1.41zm13.13-1.47c.01.33.07.67.19.99.12.32.3.61.54.85.23.25.51.43.82.56.33.14.69.2 1.05.2.4 0 .8-.07 1.18-.22.35-.15.65-.35.9-.63l.08-.09.34.33-.08.08a3.12 3.12 0 0 1-2.42 1 2.99 2.99 0 0 1-2.84-1.91 3.5 3.5 0 0 1-.23-1.28c0-.44.07-.87.23-1.27a2.9 2.9 0 0 1 1.62-1.67c.38-.17.8-.24 1.22-.24a2.94 2.94 0 0 1 2.15.9c.27.29.47.63.6 1.01.15.41.21.84.21 1.27v.12zm18.36-1.97c.19-.33.45-.62.78-.84.5-.34 1.08-.48 1.69-.49.47 0 .94.08 1.35.3.38.21.68.5.88.88.22.42.3.89.3 1.36v3.83h-.47v-3.83c0-.39-.07-.78-.25-1.13a1.6 1.6 0 0 0-.7-.69 2.69 2.69 0 0 0-2.38.07c-.36.19-.63.47-.83.83-.23.4-.37.83-.37 1.3v3.45h-.47V59h.47zM108.48 59a3.09 3.09 0 0 1 2.17.85l.09.08-.31.34-.09-.08a2.72 2.72 0 0 0-1.86-.72 2.69 2.69 0 0 0-1.89.75 2.69 2.69 0 0 0-.74 1.96c0 .38.06.75.19 1.11a2.54 2.54 0 0 0 2.44 1.61 2.55 2.55 0 0 0 1.98-.85l.09-.1.31.34-.07.08a2.97 2.97 0 0 1-2.31 1 3.07 3.07 0 0 1-2.21-.9c-.28-.29-.5-.63-.65-1.01a3.5 3.5 0 0 1-.23-1.28c0-.44.07-.87.23-1.27.15-.38.37-.72.65-1.01a3.07 3.07 0 0 1 2.21-.9zm16.24 6.28L122.13 59h.52l2.31 5.67 2.27-5.67h.54l-2.94 7.19a3 3 0 0 1-.73 1.09c-.28.25-.61.39-.98.39-.21 0-.43-.02-.63-.08a1.52 1.52 0 0 1-.53-.25l-.08-.06.21-.4.11.07a1.53 1.53 0 0 0 .9.25c.28 0 .53-.11.74-.29.27-.24.45-.56.58-.89zm-86.15-1.97l-.01-1.05H36.4c-.36 0-.74.04-1.08.15-.24.09-.47.21-.64.42-.15.19-.21.41-.21.65 0 .27.06.52.2.74.14.22.33.38.57.5.27.13.58.18.88.18.36 0 .71-.05 1.05-.16.31-.11.58-.28.82-.52.26-.25.44-.58.58-.91zm15.63 1.38c.35 0 .69-.06 1.02-.2.3-.12.57-.31.79-.54.24-.24.41-.51.53-.82a2.91 2.91 0 0 0-.53-2.93 2.27 2.27 0 0 0-.79-.54c-.33-.14-.67-.2-1.02-.2a2.5 2.5 0 0 0-1.81.74c-.23.24-.4.52-.52.83a2.91 2.91 0 0 0 .52 2.92 2.57 2.57 0 0 0 1.81.74zm20.74-2.86c-.03-.31-.1-.61-.22-.89a2.3 2.3 0 0 0-1.27-1.29 2.85 2.85 0 0 0-1.99 0c-.3.12-.56.29-.8.51a2.56 2.56 0 0 0-.78 1.67z"/></defs><g transform="translate(-30 -30)"><use fill="#fff" xlink:href="#a"/></g><g transform="translate(-30 -30)"><use fill="#fff" xlink:href="#b"/></g></svg>