<svg id="Layer_1" data-name="Layer 1" xmlns="http://www.w3.org/2000/svg" viewBox="0 0 50 43.95"><defs><style>.cls-1{fill:#d3d3d8}.cls-2{fill:#e7e7e7}.cls-3{fill:#00abe9}.cls-4{fill:#5a5a5a}</style></defs><title>battery</title><path class="cls-1" d="M10.25 11.82H4.39a1.46 1.46 0 0 1-1.46-1.46V7.42a4.39 4.39 0 0 1 8.79 0v2.93a1.46 1.46 0 0 1-1.47 1.47zM5.86 8.89h2.93V7.42a1.46 1.46 0 1 0-2.93 0zm39.75 2.93h-5.86a1.46 1.46 0 0 1-1.46-1.46V7.42a4.39 4.39 0 0 1 8.79 0v2.93a1.46 1.46 0 0 1-1.47 1.47zm-4.4-2.93h2.93V7.42a1.46 1.46 0 1 0-2.93 0zm-7.32 2.93H16.11a1.46 1.46 0 0 1-1.46-1.46V7.42A4.4 4.4 0 0 1 19 3h12a4.4 4.4 0 0 1 4.39 4.39v2.93a1.46 1.46 0 0 1-1.5 1.5zM17.58 8.89h14.84V7.42A1.47 1.47 0 0 0 31 6H19a1.47 1.47 0 0 0-1.46 1.46z" transform="translate(0 -3.03)"/><path class="cls-2" d="M16.11 26.46h-1.46V25a1.46 1.46 0 0 0-2.93 0v1.46h-1.47a1.46 1.46 0 0 0 0 2.93h1.46v1.46a1.46 1.46 0 0 0 2.93 0v-1.46h1.46a1.46 1.46 0 0 0 0-2.93zm23.64 2.93h-5.86a1.46 1.46 0 0 1 0-2.93h5.86a1.46 1.46 0 0 1 0 2.93z" transform="translate(0 -3.03)"/><path class="cls-3" d="M45.61 14.75H4.39a1.46 1.46 0 0 0-1.46 1.46v23.44a1.46 1.46 0 0 0 1.46 1.46h41.22a1.46 1.46 0 0 0 1.46-1.46V16.21a1.46 1.46 0 0 0-1.46-1.46zM5.86 17.68h17.68v20.5H5.86zm38.28 20.5H26.46v-20.5h17.68z" transform="translate(0 -3.03)"/><path class="cls-4" d="M48.54 17.68H1.46A1.46 1.46 0 0 1 0 16.21v-5.86a1.46 1.46 0 0 1 1.46-1.46h47.08A1.46 1.46 0 0 1 50 10.35v5.86a1.46 1.46 0 0 1-1.46 1.47zM2.93 14.75h44.14v-2.93H2.93zM48.54 47H1.46A1.46 1.46 0 0 1 0 45.51v-5.86a1.46 1.46 0 0 1 1.46-1.46h47.08A1.46 1.46 0 0 1 50 39.65v5.86A1.46 1.46 0 0 1 48.54 47zM2.93 44h44.14v-2.89H2.93z" transform="translate(0 -3.03)"/></svg>