<svg id="Layer_1" data-name="Layer 1" xmlns="http://www.w3.org/2000/svg" viewBox="0 0 30 28.12"><defs><style>.cls-1{fill:none}.cls-2{clip-path:url(#clip-path)}.cls-3{fill:#5a5a5a}.cls-4{fill:#444}.cls-5{fill:#ff9f00}.cls-6{fill:#f40000}</style><clipPath id="clip-path" transform="translate(0 -1)"><path class="cls-1" d="M0 0h30v30H0z"/></clipPath></defs><title>car-oil</title><g class="cls-2"><path class="cls-3" d="M4.17 10.25a.88.88 0 0 1-.66-.3L.66 6.74a2.63 2.63 0 0 1-.31-3.07l.78-1.36a2.64 2.64 0 0 1 4.26-.43l2.07 2.34a.88.88 0 0 1 .1 1L4.93 9.81a.88.88 0 0 1-.67.44zm-.75-7.5h-.09a.87.87 0 0 0-.67.43l-.78 1.37a.88.88 0 0 0 .1 1l2 2.3 1.71-3-1.61-1.8a.87.87 0 0 0-.66-.3zm13.19 2.64l-6.08-3.52a.88.88 0 1 0-.88 1.53l2.28 1.32L10.61 7a.88.88 0 1 0 1.52.88l1.32-2.28 2.28 1.32a.88.88 0 0 0 .88-1.52z" transform="translate(0 -1)"/><path class="cls-4" d="M16.76 21.58a.88.88 0 0 1-.44-.12L2 13.17a.88.88 0 1 1 .88-1.52l14.32 8.29a.88.88 0 0 1-.44 1.64z" transform="translate(0 -1)"/><path class="cls-5" d="M26.48 29.12a3.52 3.52 0 0 1-3.1-5.18l2.3-4.87a.88.88 0 0 1 1.59 0l2.3 4.87a3.52 3.52 0 0 1-3.1 5.18zm0-7.61L25 24.72a1.73 1.73 0 0 0-.21.84 1.76 1.76 0 1 0 3.52 0 1.73 1.73 0 0 0-.21-.84z" transform="translate(0 -1)"/><path class="cls-6" d="M12.93 23.15a2.64 2.64 0 0 1-1.32-.35l-9.87-5.7a2.64 2.64 0 0 1-1-3.6L6 4.36A.88.88 0 0 1 7.25 4l8.5 4.91A2.62 2.62 0 0 1 17 10.55l.95 3.54 8.91 1.27a.88.88 0 0 1 .21 1.64L14 22.91a2.62 2.62 0 0 1-1.07.24zM7.13 6l-4.84 8.37a.88.88 0 0 0 .32 1.2l9.87 5.7a.88.88 0 0 0 .8 0l10.3-4.64-6.49-.92a.88.88 0 0 1-.73-.64L15.28 11a.87.87 0 0 0-.41-.53z" transform="translate(0 -1)"/></g></svg>