<svg id="Layer_1" data-name="Layer 1" xmlns="http://www.w3.org/2000/svg" viewBox="0 0 35 29.55"><defs><style>.cls-1{fill:none}.cls-2{clip-path:url(#clip-path)}.cls-3{fill:#d1d5cd}.cls-4{fill:#c8e5fc}.cls-5{fill:#b8dcf4}.cls-6{fill:#74767f}.cls-7{fill:#636570}.cls-8{fill:#656872}.cls-9{fill:#ff8c01}.cls-10{fill:#fca51a}.cls-11{fill:#f9901c}.cls-12{fill:#ff7b03}.cls-13{fill:#c4c6c2}.cls-14{fill:#c4c6c1}.cls-15{fill:#add6f2}.cls-16{fill:#babfb4}.cls-17{fill:#0b9955}.cls-18{fill:#078e4b}.cls-19{fill:#5fed65}.cls-20{fill:#2bd62b}</style><clipPath id="clip-path" transform="translate(0 -2.73)"><path class="cls-1" d="M0 0h35v35H0z"/></clipPath></defs><title>car-key</title><g class="cls-2"><path class="cls-3" d="M5.49 17.59a.53.53 0 0 1-.49-.25l-1.07-1.79H2.32a.53.53 0 0 1 0-1.06h1.9a.53.53 0 0 1 .45.25l1.27 2a.53.53 0 0 1-.45.81z" transform="translate(0 -2.73)"/><path class="cls-4" d="M23.58 11l-.06-.45a1.65 1.65 0 0 0-1.64-1.45H8a1.65 1.65 0 0 0-1.64 1.46l-.08.44-.79 6v.46h18.88V17z" transform="translate(0 -2.73)"/><path class="cls-5" d="M9.88 11l.06-.45a1.65 1.65 0 0 1 1.64-1.45H8a1.65 1.65 0 0 0-1.64 1.46l-.08.44-.79 6v.46h3.6V17z" transform="translate(0 -2.73)"/><path class="cls-6" d="M23.52 10.56l.06.45H6.28l.06-.45A1.65 1.65 0 0 1 8 9.1h13.9a1.65 1.65 0 0 1 1.62 1.46z" transform="translate(0 -2.73)"/><path class="cls-7" d="M6.3 10.92V11h3.6l.06-.45a1.65 1.65 0 0 1 1.62-1.45H7.82l-.3.06a1.65 1.65 0 0 0-1.07 1l-.05.14a1.65 1.65 0 0 0-.06.3z" transform="translate(0 -2.73)"/><path class="cls-3" d="M21.48 24.39v2.75h-2.37a.73.73 0 0 1-.73-.73v-2zm-10 0v2a.73.73 0 0 1-.73.73h-2.3v-2.73z" transform="translate(0 -2.73)"/><path class="cls-6" d="M25.28 24.74v3a1 1 0 0 1-1 1h-2.76a1 1 0 0 1-1-1v-3h4.72zM9.3 27.13v.59a1 1 0 0 1-1 1H5.53a1 1 0 0 1-1-1v-3H9.3z" transform="translate(0 -2.73)"/><path class="cls-8" d="M22.92 27.73v-3h-2.36v3a1 1 0 0 0 1 1h2.36a1 1 0 0 1-1-1zm-15.98 0v-3H4.58v3a1 1 0 0 0 1 1h2.31a1 1 0 0 1-.95-1z" transform="translate(0 -2.73)"/><path class="cls-9" d="M3.1 14.95v.26a.94.94 0 0 1-.94.94H.94a.94.94 0 0 1-.94-.94v-.52a.94.94 0 0 1 .94-.94h1.22a.94.94 0 0 1 .94.94v.26z" transform="translate(0 -2.73)"/><path class="cls-10" d="M26.62 22.53a26.29 26.29 0 0 0-.43-3.84A2.09 2.09 0 0 0 24.13 17H5.72a2.09 2.09 0 0 0-2.06 1.7 25.91 25.91 0 0 0-.43 3.84v.65a2.1 2.1 0 0 0 2.09 2.11h19.22a2.1 2.1 0 0 0 2.09-2.12c0-.18 0-.43-.01-.65z" transform="translate(0 -2.73)"/><path class="cls-11" d="M7.11 23.19v-.65a25.91 25.91 0 0 1 .43-3.84A2.09 2.09 0 0 1 9.61 17H5.72a2.09 2.09 0 0 0-2.06 1.7 25.91 25.91 0 0 0-.43 3.84v.65a2.1 2.1 0 0 0 2.09 2.11h3.89a2.1 2.1 0 0 1-2.1-2.11z" transform="translate(0 -2.73)"/><path class="cls-9" d="M26.64 23.19a2.1 2.1 0 0 1-2.09 2.12H5.32a2.1 2.1 0 0 1-2.09-2.12v-.65h5.92a1.33 1.33 0 0 0 1.27.94h9a1.33 1.33 0 0 0 1.27-.94h5.91q.03.32.04.65z" transform="translate(0 -2.73)"/><path class="cls-12" d="M7.11 23.19v-.65H3.24v.65a2.13 2.13 0 0 0 0 .28 2.1 2.1 0 0 0 .11.44 2.09 2.09 0 0 0 2 1.39h3.86a2.1 2.1 0 0 1-2.1-2.11z" transform="translate(0 -2.73)"/><path class="cls-4" d="M23.31 18.47A1.34 1.34 0 1 1 22 19.81a1.34 1.34 0 0 1 1.31-1.34z" transform="translate(0 -2.73)"/><path class="cls-3" d="M9.15 22.53a1.32 1.32 0 0 1 0-.6l.21-1.39a1.33 1.33 0 0 1 1.32-1.13h8.59a1.33 1.33 0 0 1 1.32 1.13l.21 1.39a1.33 1.33 0 0 1-1.32 1.53h-9a1.33 1.33 0 0 1-1.33-.93z" transform="translate(0 -2.73)"/><path class="cls-13" d="M11.63 22.72a1.33 1.33 0 0 1-1.32-1.53l.21-1.39a1.33 1.33 0 0 1 .12-.38 1.33 1.33 0 0 0-1.32 1.13l-.21 1.39a1.33 1.33 0 0 0 1.32 1.53h9a1.33 1.33 0 0 0 1.2-.75h-9z" transform="translate(0 -2.73)"/><path class="cls-4" d="M6.55 18.47a1.34 1.34 0 1 1-1.34 1.34 1.34 1.34 0 0 1 1.34-1.34z" transform="translate(0 -2.73)"/><path class="cls-14" d="M12.18 22h-1a.53.53 0 1 1 0-1.06h1a.53.53 0 1 1 0 1.06zm6.69 0h-5a.53.53 0 0 1 0-1.06h5a.53.53 0 0 1 0 1.06z" transform="translate(0 -2.73)"/><path class="cls-15" d="M7.61 13.93a.53.53 0 0 1-.32-1l1.13-.85A.53.53 0 1 1 9 13l-1.13.85a.53.53 0 0 1-.26.08zM7.64 16a.53.53 0 0 1-.31-1l3.38-2.46a.53.53 0 1 1 .62.85L8 15.9a.53.53 0 0 1-.36.1z" transform="translate(0 -2.73)"/><path class="cls-3" d="M31.55 15.13v5.38H26.9V4.63a.24.24 0 0 1 .1-.17l1.77-1.66a.24.24 0 0 1 .34 0l1.55 1.66a.24.24 0 0 1 .07.17V6l.5.27a.4.4 0 0 1 0 .7l-.52.32v1l.5.27a.4.4 0 0 1 0 .7l-.52.32v1l.5.27a.4.4 0 0 1 0 .7l-.52.32v1.86l.79 1.3a.39.39 0 0 1 .09.1z" transform="translate(0 -2.73)"/><path class="cls-13" d="M28.59 4.63a.24.24 0 0 1 .08-.18l1-1-.63-.67a.24.24 0 0 0-.34 0L27 4.46a.24.24 0 0 0-.08.18v15.87h1.69V4.63z" transform="translate(0 -2.73)"/><path class="cls-16" d="M28.59 18.22a.53.53 0 0 1-.53-.53V9.53a.53.53 0 0 1 1.06 0v8.17a.53.53 0 0 1-.53.52z" transform="translate(0 -2.73)"/><path class="cls-17" d="M32.39 20.21v2.7h-6.33v-2.7a.61.61 0 0 1 .61-.61h5.12a.61.61 0 0 1 .6.61z" transform="translate(0 -2.73)"/><path class="cls-18" d="M29.2 19.6h-2.53a.61.61 0 0 0-.61.61v2.7h2.54v-2.7a.61.61 0 0 1 .6-.61z" transform="translate(0 -2.73)"/><path class="cls-19" d="M33.25 22.36a5.77 5.77 0 1 1-8.06 0 .32.32 0 0 1 .22-.09H33a.32.32 0 0 1 .25.09zm-2 6.47a1 1 0 0 0-1-1h-2a1 1 0 0 0-1 1 1 1 0 0 0 1 1h2a1 1 0 0 0 1.02-.99z" transform="translate(0 -2.73)"/><path class="cls-20" d="M26.18 26.5a5.76 5.76 0 0 1 1.75-4.14.32.32 0 0 1 .22-.09h-2.73a.32.32 0 0 0-.22.09 5.77 5.77 0 0 0 5.39 9.75 5.78 5.78 0 0 1-4.41-5.61z" transform="translate(0 -2.73)"/><path class="cls-20" d="M31.55 25.41H26.9a.53.53 0 1 1 0-1.06h4.65a.53.53 0 1 1 0 1.06z" transform="translate(0 -2.73)"/></g></svg>