<svg id="Layer_1" data-name="Layer 1" xmlns="http://www.w3.org/2000/svg" viewBox="0 0 50 50"><defs><style>.cls-1{fill:#ff3636}.cls-2{fill:#5a5a5a}.cls-3{fill:#e10000}</style></defs><title>car-door</title><path class="cls-1" d="M27.93 50H4.39A4.4 4.4 0 0 1 0 45.61V4.39A4.4 4.4 0 0 1 4.39 0h22.33a4.37 4.37 0 0 1 3.11 1.29l18.88 18.89a4.37 4.37 0 0 1 1.29 3.1v13.44a1.46 1.46 0 0 1-1.46 1.46H47a20 20 0 0 0-17.75 11 1.46 1.46 0 0 1-1.32.82zM4.39 2.93a1.47 1.47 0 0 0-1.46 1.46v41.22a1.47 1.47 0 0 0 1.46 1.46H27a22.91 22.91 0 0 1 20-11.82h.08v-12a1.45 1.45 0 0 0-.43-1L27.75 3.36a1.45 1.45 0 0 0-1-.43z"/><path class="cls-2" d="M42.58 26.46H7.32A1.46 1.46 0 0 1 5.86 25V7.32a1.46 1.46 0 0 1 1.46-1.46H25.5a1.46 1.46 0 0 1 1 .43l17.12 17.17a1.47 1.47 0 0 1 .43 1V25a1.46 1.46 0 0 1-1.47 1.46zM8.79 23.54h30.77L24.89 8.79H8.79z"/><path class="cls-3" d="M11.72 41.11a5.87 5.87 0 0 1-5.86-5.86v-1.46a1.46 1.46 0 0 1 1.46-1.46h8.79a1.46 1.46 0 0 1 1.46 1.46v1.46a5.87 5.87 0 0 1-5.85 5.86zm-2.93-5.86a2.93 2.93 0 1 0 5.86 0z"/></svg>