<svg id="Layer_1" data-name="Layer 1" xmlns="http://www.w3.org/2000/svg" viewBox="0 0 42.57 50"><defs><style>.cls-1{fill:none}.cls-2{clip-path:url(#clip-path)}.cls-3{fill:#fdc75b}.cls-4{fill:#ed664c}</style><clipPath id="clip-path" transform="translate(-3.72)"><path class="cls-1" d="M0 0h50v50H0z"/></clipPath></defs><title>car-repair</title><g class="cls-2"><path class="cls-3" d="M45.15 40.51v5.57a2.85 2.85 0 0 1-2.85 2.85h-2.38a2.85 2.85 0 0 1-2.85-2.85v-2.71h5.23a2.87 2.87 0 0 0 2.85-2.86z" transform="translate(-3.72)"/><path class="cls-4" d="M45.15 39.8v.71a2.85 2.85 0 0 1-2.85 2.85H7.71a2.85 2.85 0 0 1-2.85-2.85v-7.1a4.32 4.32 0 0 1 1.51-3.26L8 28.78h34.58L43.81 30a4.29 4.29 0 0 1 1.34 3.11zM41 38.85v-4.66h-6.8v4.66zm-25.13 0v-4.66H9v4.66z" transform="translate(-3.72)"/><path class="cls-3" d="M39.48 20l3.25 8.78H38.5a5.28 5.28 0 0 0-10.55 0H7.85L11.1 20a2.87 2.87 0 0 1 2.67-1.87h23A2.88 2.88 0 0 1 39.48 20zm3.23-14.67L38.46 5a3.39 3.39 0 0 0 0 4.12l4.22-.33a5.66 5.66 0 0 1-5.82 4.47 6.34 6.34 0 0 1-5.62-3.62H19a5.87 5.87 0 0 1-5.85 4.2 5.82 5.82 0 0 1-5.85-4.2l4.24.35a3.39 3.39 0 0 0 0-4.12l-4.22.33a5.57 5.57 0 0 1 5.77-4.52 6.44 6.44 0 0 1 5.64 3.62H31a5.86 5.86 0 0 1 5.84-4.2 5.88 5.88 0 0 1 5.87 4.23zM41 34.19h-6.8v4.66H41z" transform="translate(-3.72)"/><path class="cls-3" d="M38.49 28.76H28a5.27 5.27 0 0 1 10.54 0zm-22.65 5.43H9v4.66h6.8zm-2.9 9.21v2.66a2.85 2.85 0 0 1-2.85 2.85H7.71a2.85 2.85 0 0 1-2.85-2.85V40.5a2.85 2.85 0 0 0 2.85 2.85h5.23z" transform="translate(-3.72)"/><path d="M7.71 50h2.38A3.91 3.91 0 0 0 14 46.06v-1.63h22v1.63A3.91 3.91 0 0 0 39.92 50h2.38a4 4 0 0 0 4-3.94v-13a5.42 5.42 0 0 0-1.7-3.91l-.81-.75-3.29-8.79A4 4 0 0 0 36.8 17h-23a4 4 0 0 0-3.7 2.56L6.86 28.3l-1.22 1a5.4 5.4 0 0 0-1.92 4.1v12.66A4 4 0 0 0 7.71 50zm4.09-3.94a1.72 1.72 0 0 1-1.71 1.76H7.71a1.79 1.79 0 0 1-1.8-1.76V44a4.18 4.18 0 0 0 1.8.4h4.09zm30.5 1.76h-2.38a1.72 1.72 0 0 1-1.71-1.76v-1.63h4.09a4.18 4.18 0 0 0 1.8-.4v2a1.79 1.79 0 0 1-1.8 1.79zM12.13 20.35a1.74 1.74 0 0 1 1.65-1.12h23a1.74 1.74 0 0 1 1.65 1.12l2.72 7.28h-1.66a6.36 6.36 0 0 0-12.53 0H9.42zm25.13 7.28h-8.08a4.18 4.18 0 0 1 8.08 0zM5.91 33.41A3.28 3.28 0 0 1 7.05 31l1.35-1.19h33.7l1 .93a3.27 3.27 0 0 1 1 2.34v7.42a1.78 1.78 0 0 1-1.8 1.75H7.7a1.78 1.78 0 0 1-1.8-1.75v-7.09z" transform="translate(-3.72)"/><path d="M16.93 34.18a1.09 1.09 0 0 0-1.09-1.09H9.07A1.09 1.09 0 0 0 8 34.18v4.69A1.09 1.09 0 0 0 9.07 40h6.77a1.09 1.09 0 0 0 1.09-1.09zm-6.77 1.09h4.58v2.51h-4.58zM42 34.18a1.09 1.09 0 0 0-1.09-1.09h-6.74a1.09 1.09 0 0 0-1.09 1.09v4.69A1.09 1.09 0 0 0 34.17 40h6.77A1.09 1.09 0 0 0 42 38.87zm-6.77 1.09h4.58v2.51h-4.55zM20.66 39h8.7a1.09 1.09 0 0 0 0-2.18h-8.7a1.09 1.09 0 0 0 0 2.18zm0-2.75h8.7a1.09 1.09 0 0 0 0-2.18h-8.7a1.09 1.09 0 0 0 0 2.18zM7.4 8.57A1.09 1.09 0 0 0 6.26 10a6.94 6.94 0 0 0 6.9 5 6.93 6.93 0 0 0 6.61-4.21h10.82a7.23 7.23 0 0 0 6.2 3.63h.07a7.23 7.23 0 0 0 4.3-1.42 6.89 6.89 0 0 0 2.58-4 1.09 1.09 0 0 0-.23-1 1.06 1.06 0 0 0-.92-.38L39 8a2.31 2.31 0 0 1 0-1.87l3.58.29A1.09 1.09 0 0 0 43.75 5a7 7 0 0 0-6.86-5 6.88 6.88 0 0 0-6.61 4.17H19.4A7.53 7.53 0 0 0 13.1.55a7.15 7.15 0 0 0-4.3 1.34 6.82 6.82 0 0 0-2.53 4 1.1 1.1 0 0 0 .24 1 1.12 1.12 0 0 0 .92.38L11 7a2.27 2.27 0 0 1 0 1.87zm5-3.35a1 1 0 0 0-.14-.16 1.09 1.09 0 0 0-.83-.28L9 5a4.51 4.51 0 0 1 4.15-2.2 5.35 5.35 0 0 1 4.66 3 1.07 1.07 0 0 0 1 .6H31a1.08 1.08 0 0 0 1-.75 4.78 4.78 0 0 1 4.79-3.4 5 5 0 0 1 4 1.89l-2.34-.2a1.1 1.1 0 0 0-1 .45 4.49 4.49 0 0 0 0 5.41 1 1 0 0 0 .14.16 1.05 1.05 0 0 0 .83.28L41 10a4.61 4.61 0 0 1-4.16 2.16 5.27 5.27 0 0 1-4.57-3 1.11 1.11 0 0 0-1-.64H19a1.11 1.11 0 0 0-1 .79 4.8 4.8 0 0 1-4.8 3.43 4.91 4.91 0 0 1-4-1.86l2.34.2a1.09 1.09 0 0 0 1-.44 4.5 4.5 0 0 0-.1-5.42z" transform="translate(-3.72)"/></g></svg>