<svg id="Layer_1" data-name="Layer 1" xmlns="http://www.w3.org/2000/svg" viewBox="0 0 50 32.23"><defs><style>.cls-1{fill:#ff9f00}.cls-2{fill:#5a5a5a}.cls-3{fill:#e7e7e7}.cls-4{fill:#ff3636}</style></defs><title>damage</title><path class="cls-1" d="M4.49 29.39h-3a1.46 1.46 0 0 1 0-2.93h3a1.46 1.46 0 0 1 0 2.93zm44.05 0h-2.93a1.46 1.46 0 1 1 0-2.93h2.93a1.46 1.46 0 0 1 0 2.93z" transform="translate(0 -8.89)"/><path class="cls-2" d="M45.61 23.54a1.46 1.46 0 0 1-1-.43l-5.86-5.86a1.46 1.46 0 1 1 2.07-2.07L46.64 21a1.46 1.46 0 0 1-1 2.5z" transform="translate(0 -8.89)"/><path class="cls-3" d="M22.07 23.54a1.46 1.46 0 0 1-1.46-1.46V10.35a1.46 1.46 0 1 1 2.93 0v11.72a1.46 1.46 0 0 1-1.47 1.47z" transform="translate(0 -8.89)"/><path class="cls-4" d="M45.61 35.25h-3.18a1.46 1.46 0 0 1 0-2.93h3.18a1.47 1.47 0 0 0 1.46-1.46V25a1.47 1.47 0 0 0-1.46-1.46H33.89a1.46 1.46 0 0 1-1.42-1.11l-2.37-9.5a1.46 1.46 0 0 0-1.42-1.11H15.57a1.46 1.46 0 0 0-1.42 1.11l-2.38 9.5a1.46 1.46 0 0 1-1.42 1.11H4.49A1.56 1.56 0 0 0 2.93 25v5.86a1.56 1.56 0 0 0 1.56 1.46h3.18a1.46 1.46 0 0 1 0 2.93H4.49A4.52 4.52 0 0 1 1.36 34 4.3 4.3 0 0 1 0 30.86V25a4.3 4.3 0 0 1 1.36-3.13 4.52 4.52 0 0 1 3.13-1.26h4.72l2.1-8.39a4.39 4.39 0 0 1 4.26-3.33h13.1a4.39 4.39 0 0 1 4.26 3.33L35 20.61h10.61A4.4 4.4 0 0 1 50 25v5.86a4.4 4.4 0 0 1-4.39 4.39z" transform="translate(0 -8.89)"/><path class="cls-4" d="M34.14 35.25H16a1.46 1.46 0 0 1 0-2.93h18.14a1.46 1.46 0 0 1 0 2.93zm-.25-11.71a1.46 1.46 0 0 1-1-2.5L44.57 9.32a1.46 1.46 0 1 1 2.07 2.07L34.92 23.11a1.46 1.46 0 0 1-1.03.43z" transform="translate(0 -8.89)"/><path class="cls-2" d="M11.82 41.11a5.86 5.86 0 1 1 5.86-5.86 5.87 5.87 0 0 1-5.86 5.86zm0-8.79a2.93 2.93 0 1 0 2.93 2.93 2.93 2.93 0 0 0-2.93-2.93zm26.46 8.79a5.86 5.86 0 1 1 5.86-5.86 5.87 5.87 0 0 1-5.86 5.86zm0-8.79a2.93 2.93 0 1 0 2.93 2.93 2.93 2.93 0 0 0-2.93-2.93z" transform="translate(0 -8.89)"/><path class="cls-4" d="M33.89 23.54H10.35a1.46 1.46 0 1 1 0-2.93h23.54a1.46 1.46 0 1 1 0 2.93z" transform="translate(0 -8.89)"/><path class="cls-2" d="M25 29.39h-2.93a1.46 1.46 0 0 1 0-2.93H25a1.46 1.46 0 0 1 0 2.93z" transform="translate(0 -8.89)"/></svg>