<svg id="Layer_1" data-name="Layer 1" xmlns="http://www.w3.org/2000/svg" viewBox="0 0 30 30"><defs><style>.cls-1{fill:#e7e7e7}.cls-2{fill:#5a5a5a}.cls-3{fill:#00abe9}.cls-4{fill:#ff3636}</style></defs><title>digital-map</title><path class="cls-1" d="M26.17 21.47l-8.62-8.62a.88.88 0 1 0-1.24 1.24l3.6 3.6L15 22.61 5 12.68a.88.88 0 1 0-1.24 1.25l5.57 5.54L3.78 25A.88.88 0 1 0 5 26.23l5.58-5.52 5.55 5.52A.88.88 0 1 0 17.38 25l-1.14-1.13 4.91-4.91 3.77 3.77a.88.88 0 0 0 1.24-1.24z"/><path class="cls-2" d="M27.36 30H2.64A2.64 2.64 0 0 1 0 27.36V11.54a2.64 2.64 0 0 1 2.64-2.63h8.3a.88.88 0 0 1 0 1.76h-8.3a.88.88 0 0 0-.88.88v15.81a.88.88 0 0 0 .88.88h24.72a.88.88 0 0 0 .88-.88V11.54a.88.88 0 0 0-.88-.88h-8.3a.88.88 0 0 1 0-1.76h8.3A2.64 2.64 0 0 1 30 11.54v15.82A2.64 2.64 0 0 1 27.36 30z"/><path class="cls-3" d="M25.55 26.48H4.39a.88.88 0 0 1-.88-.88V13.3a.88.88 0 0 1 .88-.88H13a.88.88 0 0 1 0 1.76H5.27v10.55h19.4V14.18H17a.88.88 0 0 1 0-1.76h8.52a.88.88 0 0 1 .88.88v12.3a.88.88 0 0 1-.85.88z"/><path class="cls-4" d="M15 17.7a.88.88 0 0 1-.76-.44l-4.56-7.9a6.15 6.15 0 0 1-.81-3.05 6.29 6.29 0 0 1 1.79-4.4 6 6 0 0 1 8.72 0 6.29 6.29 0 0 1 1.79 4.4 6.15 6.15 0 0 1-.81 3.05l-4.58 7.92a.88.88 0 0 1-.78.42zm-3.82-9.25L15 15.06l3.8-6.57a4.39 4.39 0 0 0 .58-2.18A4.51 4.51 0 0 0 15 1.76a4.51 4.51 0 0 0-4.39 4.51 4.39 4.39 0 0 0 .57 2.18z"/><path class="cls-4" d="M15 8.91a2.64 2.64 0 1 1 2.64-2.64A2.64 2.64 0 0 1 15 8.91zm0-3.52a.88.88 0 1 0 .88.88.88.88 0 0 0-.88-.88z"/></svg>