<svg id="Layer_1" data-name="Layer 1" xmlns="http://www.w3.org/2000/svg" viewBox="0 0 30 30"><defs><style>.cls-1{fill:none}.cls-2{clip-path:url(#clip-path)}.cls-3{fill:#ff9f00}.cls-4{fill:#e7e7e7}.cls-5{fill:#ff3636}.cls-6{fill:#5a5a5a}.cls-7{fill:#d3d3d8}</style><clipPath id="clip-path"><path class="cls-1" d="M0 0h30v30H0z"/></clipPath></defs><title>elevator</title><g class="cls-2"><path class="cls-3" d="M2.64 12.36H.88a.88.88 0 1 1 0-1.76h1.76a.88.88 0 1 1 0 1.76zm26.48 0h-1.76a.88.88 0 1 1 0-1.76h1.76a.88.88 0 1 1 0 1.76z"/><path class="cls-4" d="M13.24 8.85a.88.88 0 0 1-.88-.85V.88a.88.88 0 1 1 1.76 0V8a.88.88 0 0 1-.88.85z"/><path class="cls-5" d="M20.42 15.88H9.58a.88.88 0 1 1 0-1.76h10.84a.88.88 0 1 1 0 1.76z"/><path class="cls-5" d="M27.36 7.09H21L19.7 2a2.63 2.63 0 0 0-2.56-2h-7.8a2.63 2.63 0 0 0-2.56 2L5.52 7.09H2.64A2.64 2.64 0 0 0 0 9.73v3.52a2.64 2.64 0 0 0 2.64 2.64h2a.88.88 0 1 0 0-1.76h-2a.88.88 0 0 1-.88-.88V9.73a.88.88 0 0 1 .88-.88h24.72a.88.88 0 0 1 .88.88v3.52a.88.88 0 0 1-.88.88h-2a.88.88 0 1 0 0 1.76h2A2.64 2.64 0 0 0 30 13.24V9.73a2.64 2.64 0 0 0-2.64-2.64zM8.49 2.42a.88.88 0 0 1 .85-.67h7.8a.88.88 0 0 1 .85.66l1.16 4.67H7.33z"/><path class="cls-6" d="M15 12.36h-1.76a.88.88 0 0 1 0-1.76H15a.88.88 0 1 1 0 1.76z"/><path class="cls-7" d="M13.38 24a.88.88 0 0 1-.38-.1L2.29 19.32A.88.88 0 1 1 3 17.71l10.75 4.58a.88.88 0 0 1-.37 1.71zm13.98 6a.88.88 0 0 1-.35-.07l-10.74-4.64a.88.88 0 0 1 .7-1.61l10.75 4.64a.88.88 0 0 1-.36 1.68z"/><path class="cls-7" d="M16.62 24a.88.88 0 0 1-.35-1.69L27 17.71a.88.88 0 1 1 .69 1.62L17 23.9a.88.88 0 0 1-.38.1zM2.64 30a.88.88 0 0 1-.35-1.69L13 23.67a.88.88 0 0 1 .7 1.61L3 29.93a.87.87 0 0 1-.36.07z"/><path class="cls-6" d="M29.12 30H.88a.88.88 0 1 1 0-1.76h28.24a.88.88 0 1 1 0 1.76zM15 26.43a2.64 2.64 0 1 1 2.64-2.64A2.64 2.64 0 0 1 15 26.43zm0-3.52a.88.88 0 1 0 .88.88.88.88 0 0 0-.88-.88zm-7.91-3.52a3.52 3.52 0 1 1 3.52-3.52 3.52 3.52 0 0 1-3.52 3.52zm0-5.27a1.76 1.76 0 1 0 1.76 1.76 1.76 1.76 0 0 0-1.76-1.76zm15.82 5.27a3.52 3.52 0 1 1 3.52-3.52 3.52 3.52 0 0 1-3.52 3.52zm0-5.27a1.76 1.76 0 1 0 1.76 1.76 1.76 1.76 0 0 0-1.76-1.76z"/><path class="cls-6" d="M29.12 19.39H.88a.88.88 0 1 1 0-1.76h28.24a.88.88 0 1 1 0 1.76z"/></g></svg>