<svg id="Layer_1" data-name="Layer 1" xmlns="http://www.w3.org/2000/svg" viewBox="0 0 50 41.02"><defs><style>.cls-1{fill:#babac0}.cls-2{fill:#e7e7e7}.cls-3{fill:#ff3636}.cls-4{fill:#d3d3d8}</style></defs><title>exhaust-pipe</title><path class="cls-1" d="M7.42 42.58h-6A1.46 1.46 0 0 1 0 41.11v-5.86a1.46 1.46 0 0 1 1.46-1.46h6a1.46 1.46 0 0 1 1.46 1.46v5.86a1.46 1.46 0 0 1-1.5 1.47zm-4.49-2.93H6v-2.93H3zm4.49-8.79h-6A1.46 1.46 0 0 1 0 29.39v-5.85a1.46 1.46 0 0 1 1.46-1.46h6a1.46 1.46 0 0 1 1.46 1.46v5.86a1.46 1.46 0 0 1-1.5 1.46zm-4.49-2.93H6V25H3zm45.61 14.65h-6a7.33 7.33 0 0 1-7.32-7.32v-4.4h-4.36a1.46 1.46 0 1 1 0-2.93h5.86a1.46 1.46 0 0 1 1.46 1.46v5.86a4.4 4.4 0 0 0 4.39 4.39h4.49v-2.92h-4.48a1.46 1.46 0 0 1-1.46-1.46v-5.87a4.4 4.4 0 0 0-4.4-4.39h-5.86a1.46 1.46 0 1 1 0-2.93h5.86A7.33 7.33 0 0 1 44 29.39v4.39h4.49A1.46 1.46 0 0 1 50 35.25v5.86a1.47 1.47 0 0 1-1.46 1.46z" transform="translate(0 -4.49)"/><path class="cls-2" d="M25 45.51A1.46 1.46 0 0 1 23.54 44V20.61a1.46 1.46 0 1 1 2.93 0V44A1.46 1.46 0 0 1 25 45.51zm-11.72 0A1.46 1.46 0 0 1 11.82 44V20.61a1.46 1.46 0 1 1 2.93 0V44a1.46 1.46 0 0 1-1.47 1.51z" transform="translate(0 -4.49)"/><path class="cls-3" d="M13.28 16.21H4.49A1.46 1.46 0 0 1 3 14.75a7.33 7.33 0 0 1 7.32-7.32h3a7.33 7.33 0 0 1 5.83-2.93h8.79A1.46 1.46 0 0 1 29.39 6a7.33 7.33 0 0 1-7.32 7.32h-3a7.33 7.33 0 0 1-5.79 2.89zm-7.07-2.93h7.07a4.35 4.35 0 0 0 3.78-2.2 1.46 1.46 0 0 1 1.27-.73h3.74a4.4 4.4 0 0 0 4.14-2.93h-7.07a4.35 4.35 0 0 0-3.78 2.2 1.46 1.46 0 0 1-1.27.73h-3.74a4.4 4.4 0 0 0-4.14 2.93z" transform="translate(0 -4.49)"/><path class="cls-4" d="M27.93 45.51H10.35A4.4 4.4 0 0 1 6 41.11V23.54a4.4 4.4 0 0 1 4.39-4.39h17.54a4.4 4.4 0 0 1 4.39 4.39v17.57a4.4 4.4 0 0 1-4.39 4.4zM10.35 22.07a1.47 1.47 0 0 0-1.46 1.46v17.58a1.47 1.47 0 0 0 1.46 1.46h17.58a1.47 1.47 0 0 0 1.46-1.46V23.54a1.47 1.47 0 0 0-1.46-1.46z" transform="translate(0 -4.49)"/></svg>