<svg id="Layer_1" data-name="Layer 1" xmlns="http://www.w3.org/2000/svg" viewBox="0 0 30 30"><defs><style>.cls-1{fill:#5a5a5a}.cls-2{fill:#d3d3d8}.cls-3{fill:#ff9f00}.cls-4{fill:#ff3636}</style></defs><title>gas-fuel</title><path class="cls-1" d="M13.18 22.85H7.91A.88.88 0 0 1 7 22v-7a.88.88 0 0 1 .88-.88h8.82a.88.88 0 0 1 .88.88v3.52a4.4 4.4 0 0 1-4.4 4.33zm-4.39-1.76h4.39a2.64 2.64 0 0 0 2.64-2.64v-2.63h-7z"/><path class="cls-1" d="M13.18 19.34a2.64 2.64 0 0 1-2.64-2.64v-1.76a.88.88 0 0 1 1.76 0v1.76a.88.88 0 0 0 .88.88.88.88 0 1 1 0 1.76z"/><path class="cls-2" d="M16.18 8.27a.88.88 0 0 1-.62-1.5l3-3a.88.88 0 0 1 .62-.26h5.48V1.76h-6.2a.88.88 0 0 0-.62.26l-3.52 3.51a.88.88 0 1 1-1.24-1.24L16.59.77A2.62 2.62 0 0 1 18.46 0h7.09a.88.88 0 0 1 .88.88v3.51a.88.88 0 0 1-.88.88h-6L16.81 8a.88.88 0 0 1-.63.27z"/><path class="cls-1" d="M6.15 30H2.64a.88.88 0 0 1-.88-.88v-5.39a.88.88 0 0 1 .88-.88h3.51a.88.88 0 0 1 .88.88v5.39a.88.88 0 0 1-.88.88zm-2.63-1.76h1.75v-3.63H3.52z"/><path class="cls-3" d="M25.61 21.09a4.4 4.4 0 0 1-3.9-6.43l3.12-5.4a.88.88 0 0 1 1.52 0l3.12 5.4a4.4 4.4 0 0 1-3.9 6.43zm-2.35-5.6A2.6 2.6 0 0 0 23 16.7a2.64 2.64 0 0 0 5.27 0 2.6 2.6 0 0 0-.29-1.2l-2.35-4.07z"/><path class="cls-1" d="M11.43 8.79H9.67a.88.88 0 1 1 0-1.79h1.76a.88.88 0 0 1 0 1.76zm0 3.51H9.67a.88.88 0 1 1 0-1.76h1.76a.88.88 0 0 1 0 1.76z"/><path class="cls-4" d="M6.15 24.61H2.64A2.64 2.64 0 0 1 0 22v-6A12.47 12.47 0 0 1 12.46 3.52a2.62 2.62 0 0 1 1.86.77l2.49 2.49a2.62 2.62 0 0 1 .77 1.86v6.3a.88.88 0 0 1-.88.88H8.79V22a2.64 2.64 0 0 1-2.64 2.61zm6.3-19.34A10.71 10.71 0 0 0 1.76 16v6a.88.88 0 0 0 .88.88h3.51A.88.88 0 0 0 7 22v-7a.88.88 0 0 1 .88-.88h7.91V8.64a.87.87 0 0 0-.23-.64l-2.48-2.47a.87.87 0 0 0-.62-.26z"/></svg>