<svg id="Layer_1" data-name="Layer 1" xmlns="http://www.w3.org/2000/svg" viewBox="0 0 30 30"><defs><style>.cls-1{fill:#5a5a5a}.cls-2{fill:#ff3636}.cls-3{fill:#0095ff}</style></defs><title>gearshift</title><path class="cls-1" d="M25.61 7a.88.88 0 0 0-.88.88v5.33a.88.88 0 0 1-.88.88h-8V7.91a.88.88 0 1 0-1.76 0v6.21H5.27V7.91a.88.88 0 1 0-1.76 0v14.18a.88.88 0 1 0 1.76 0v-6.21h8.85v6.21a.88.88 0 1 0 1.76 0v-6.21h8a2.64 2.64 0 0 0 2.64-2.64V7.91a.88.88 0 0 0-.91-.91z"/><path class="cls-2" d="M4.39 8.79a4.39 4.39 0 1 1 4.4-4.4 4.4 4.4 0 0 1-4.4 4.4zm0-7A2.64 2.64 0 1 0 7 4.39a2.64 2.64 0 0 0-2.61-2.63z"/><path class="cls-3" d="M15 8.79a4.39 4.39 0 1 1 4.39-4.39A4.4 4.4 0 0 1 15 8.79zm0-7a2.64 2.64 0 1 0 2.64 2.64A2.64 2.64 0 0 0 15 1.76zM4.39 30a4.39 4.39 0 1 1 4.39-4.39A4.4 4.4 0 0 1 4.39 30zm0-7A2.64 2.64 0 1 0 7 25.61 2.64 2.64 0 0 0 4.39 23zM15 30a4.39 4.39 0 1 1 4.39-4.39A4.4 4.4 0 0 1 15 30zm0-7a2.64 2.64 0 1 0 2.64 2.64A2.64 2.64 0 0 0 15 23zM25.61 8.79A4.39 4.39 0 1 1 30 4.39a4.4 4.4 0 0 1-4.39 4.4zm0-7a2.64 2.64 0 1 0 2.64 2.64 2.64 2.64 0 0 0-2.64-2.67z"/></svg>