<svg id="Layer_1" data-name="Layer 1" xmlns="http://www.w3.org/2000/svg" viewBox="0 0 30 30"><defs><style>.cls-1{fill:#303c42}.cls-2{fill:#ccc}.cls-3{fill:#010101;opacity:.1;isolation:isolate}.cls-4{fill:#989898}.cls-5{fill:url(#linear-gradient)}</style><linearGradient id="linear-gradient" x1="-.15" y1="26.05" x2="30.48" y2="11.77" gradientTransform="matrix(1 0 0 -1 0 30.75)" gradientUnits="userSpaceOnUse"><stop offset="0" stop-color="#fff" stop-opacity=".2"/><stop offset="1" stop-color="#fff" stop-opacity="0"/></linearGradient></defs><title>gears</title><path class="cls-1" d="M25.63 0h-20A5.63 5.63 0 0 0 0 5.62a6.18 6.18 0 0 0 .11 1.1v.05C1.29 13 10.88 24.86 11.31 25.39a9.36 9.36 0 0 0 17.43-4.72l1.15-15.35A4.35 4.35 0 0 0 25.63 0zm-6.25 22.5a1.88 1.88 0 1 1 1.88-1.87 1.88 1.88 0 0 1-1.88 1.87zm8.43-6a9.36 9.36 0 0 0-17.73 5.21 80.16 80.16 0 0 1-7.3-11.31 5.56 5.56 0 0 0 2.85.8 5.6 5.6 0 0 0 3.49-10h13.45a4.36 4.36 0 0 0 5.9 6.42z"/><path class="cls-2" d="M28.75 4.38a3.1 3.1 0 0 1-.06.54v.12a3.11 3.11 0 1 1 .08-.67z"/><path class="cls-3" d="M27.49 1.88a3.1 3.1 0 0 1 .63 1.87 3.11 3.11 0 0 1-.05.54v.12a3.13 3.13 0 0 1-3 2.46 3.1 3.1 0 0 1-1.87-.63A3.11 3.11 0 0 0 28.67 5v-.12a3.11 3.11 0 0 0 .06-.54 3.11 3.11 0 0 0-1.24-2.46z"/><path class="cls-2" d="M5.63 10a4.38 4.38 0 1 0-4.38-4.38A4.37 4.37 0 0 0 5.63 10zm13.75 2.5a8.13 8.13 0 1 0 8.13 8.13 8.13 8.13 0 0 0-8.13-8.13zm0 10a1.88 1.88 0 1 1 1.88-1.87 1.88 1.88 0 0 1-1.88 1.87z"/><path class="cls-3" d="M24.63 14.44a8.12 8.12 0 0 1-11.44 11.44 8.12 8.12 0 1 0 11.44-11.44z"/><path class="cls-1" d="M19.38 17.5a3.13 3.13 0 1 0 3.13 3.13 3.13 3.13 0 0 0-3.13-3.13zm0 5a1.88 1.88 0 1 1 1.88-1.87 1.88 1.88 0 0 1-1.88 1.87zm0-6.25a.63.63 0 1 0-.62-.62.62.62 0 0 0 .62.62zm0 10a.63.63 0 1 0-.62-.62.62.62 0 0 0 .62.62zm5-5a.63.63 0 1 0-.62-.62.62.62 0 0 0 .62.62zm-10 0a.63.63 0 1 0-.62-.62.63.63 0 0 0 .62.62zM5.62 8.75A3.12 3.12 0 1 0 2.5 5.62a3.12 3.12 0 0 0 3.12 3.13z"/><path class="cls-4" d="M5.63 7.5a1.88 1.88 0 1 0-1.88-1.88A1.88 1.88 0 0 0 5.63 7.5z"/><path class="cls-3" d="M6.6 4a1.86 1.86 0 0 1 .28 1A1.88 1.88 0 0 1 5 6.88a1.86 1.86 0 0 1-1-.28A1.87 1.87 0 1 0 6.6 4z"/><path class="cls-1" d="M5.63 6.25A.63.63 0 1 0 5 5.62a.63.63 0 0 0 .63.63zm20-.62a1.25 1.25 0 1 0-1.25-1.25 1.25 1.25 0 0 0 1.25 1.25z"/><path class="cls-5" d="M25.63 0h-20A5.63 5.63 0 0 0 0 5.62a6.18 6.18 0 0 0 .11 1.1v.05C1.29 13 10.88 24.86 11.31 25.39a9.36 9.36 0 0 0 17.43-4.72l1.15-15.35A4.35 4.35 0 0 0 25.63 0zm-6.25 22.5a1.88 1.88 0 1 1 1.88-1.87 1.88 1.88 0 0 1-1.88 1.87zm8.43-6a9.36 9.36 0 0 0-17.73 5.21 80.16 80.16 0 0 1-7.3-11.31 5.56 5.56 0 0 0 2.85.8 5.6 5.6 0 0 0 3.49-10h13.45a4.36 4.36 0 0 0 5.9 6.42z"/></svg>