<svg id="Layer_1" data-name="Layer 1" xmlns="http://www.w3.org/2000/svg" viewBox="0 0 47.56 50"><defs><style>.cls-1{fill:none}.cls-2{clip-path:url(#clip-path)}.cls-3{fill:#ddd}.cls-4{fill:#444}.cls-5{fill:#6e6e6e}.cls-6{fill:#ff3636}</style><clipPath id="clip-path" transform="translate(-1.17)"><path class="cls-1" d="M0 0h50v50H0z"/></clipPath></defs><title>key</title><g class="cls-2"><path class="cls-3" d="M10.92 50H2.64a1.46 1.46 0 0 1-1.46-1.46v-8.3a1.46 1.46 0 0 1 1.46-1.46h2.73V36a1.46 1.46 0 0 1 1.46-1.46h2.64v-2.61a1.47 1.47 0 0 1 1.46-1.46h2.64v-2.65a1.47 1.47 0 0 1 .43-1l2.72-2.71a1.46 1.46 0 0 1 2.07 2.08l-2.29 2.24v3.51A1.46 1.46 0 0 1 15 33.4h-2.6V36a1.46 1.46 0 0 1-1.46 1.46H8.3v2.73a1.46 1.46 0 0 1-1.46 1.51H4.1v5.37h6.21L25 32.36a1.46 1.46 0 0 1 2.07 2.07L12 49.57a1.46 1.46 0 0 1-1.08.43z" transform="translate(-1.17)"/><path class="cls-4" d="M28.12 35.72A4.38 4.38 0 0 1 25 34.43l-8.29-8.29a4.4 4.4 0 0 1 0-6.21l2.07-2.07a1.46 1.46 0 0 1 2.07 0L33.3 30.29a1.46 1.46 0 0 1 0 2.07l-2.07 2.07a4.38 4.38 0 0 1-3.11 1.29zm-1-3.36a1.47 1.47 0 0 0 2.07 0l1-1L19.83 21l-1 1a1.47 1.47 0 0 0 0 2.07z" transform="translate(-1.17)"/><path class="cls-5" d="M34.33 33.65a4.38 4.38 0 0 1-3.11-1.28L18.8 19.93a4.39 4.39 0 0 1 0-6.21L31.23 1.29a4.39 4.39 0 0 1 6.21 0l8.29 8.29a10.25 10.25 0 0 1 0 14.5l-8.29 8.29a4.38 4.38 0 0 1-3.11 1.28zm-1-3.36a1.47 1.47 0 0 0 2.07 0L43.66 22a7.32 7.32 0 0 0 0-10.36l-8.29-8.28a1.47 1.47 0 0 0-2.07 0L20.87 15.79a1.47 1.47 0 0 0 0 2.07z" transform="translate(-1.17)"/><path class="cls-6" d="M42.87 16.82a4.36 4.36 0 0 0-1.29-3.11l-2.07-2.07-4.14-4.14a1.46 1.46 0 0 0-2.07 0l-4.14 4.14L25 15.79a1.47 1.47 0 0 0 0 2.07L29.15 22l4.14 4.14a1.46 1.46 0 0 0 2.07 0L39.51 22l2.07-2.07a4.37 4.37 0 0 0 1.29-3.11zm-3.36 1l-1 1-2.11-2 2.07-2.07 1 1a1.47 1.47 0 0 1 0 2.07zm-5.18-7.25l2.07 2.07-2.07 2.07-2.07-2.07zm-4.14 4.14l2.07 2.07-2.07 2.12-2.07-2.07zM34.33 23l-2.07-2 2.07-2.07L36.4 21z" transform="translate(-1.17)"/></g></svg>