<svg id="Layer_1" data-name="Layer 1" xmlns="http://www.w3.org/2000/svg" viewBox="0 0 26.43 30"><defs><style>.cls-1{fill:none}.cls-2{clip-path:url(#clip-path)}.cls-3{fill:#ff9f00}.cls-4{fill:#444}.cls-5{fill:#f40000}</style><clipPath id="clip-path" transform="translate(-1.76)"><path class="cls-1" d="M0 0h30v30H0z"/></clipPath></defs><title>oil</title><g class="cls-2"><path class="cls-3" d="M9.67 26.48a4.4 4.4 0 0 1-3.9-6.43l3.12-5.4a.88.88 0 0 1 1.52 0L13.55 20a4.4 4.4 0 0 1-3.9 6.43zm-2.35-5.6A2.6 2.6 0 0 0 7 22.09a2.64 2.64 0 1 0 5.27 0 2.6 2.6 0 0 0-.29-1.2l-2.31-4.07z" transform="translate(-1.76)"/><path class="cls-4" d="M11.43 5.27h-7a.88.88 0 0 1-.88-.88V2.64A2.64 2.64 0 0 1 6.15 0h3.52a2.64 2.64 0 0 1 2.63 2.64v1.75a.88.88 0 0 1-.87.88zM5.27 3.52h5.27v-.88a.88.88 0 0 0-.88-.88H6.15a.88.88 0 0 0-.88.88z" transform="translate(-1.76)"/><path class="cls-5" d="M25.55 30H4.39a2.64 2.64 0 0 1-2.64-2.64V6.15a2.64 2.64 0 0 1 2.64-2.63h10.25L17.38.77A2.62 2.62 0 0 1 19.24 0h6.3a2.64 2.64 0 0 1 2.64 2.64v24.72A2.64 2.64 0 0 1 25.55 30zM4.39 5.27a.88.88 0 0 0-.88.88v21.21a.88.88 0 0 0 .88.88h21.16a.88.88 0 0 0 .88-.88V2.64a.88.88 0 0 0-.88-.88h-6.3a.87.87 0 0 0-.62.26l-3 3a.88.88 0 0 1-.62.26zM18 1.39z" transform="translate(-1.76)"/><path class="cls-5" d="M23.79 8.79h-7.33a.88.88 0 0 1-.62-1.5l3.52-3.52a.88.88 0 0 1 .64-.25h3.82a.88.88 0 0 1 .88.88v3.51a.88.88 0 0 1-.91.88zM18.58 7h4.33V5.27h-2.57z" transform="translate(-1.76)"/><path class="cls-4" d="M23.79 19.45h-5.27a.88.88 0 0 1 0-1.76h5.27a.88.88 0 0 1 0 1.76zm0 3.55h-5.27a.88.88 0 0 1 0-1.76h5.27a.88.88 0 0 1 0 1.76zm0 3.48h-5.27a.88.88 0 1 1 0-1.76h5.27a.88.88 0 0 1 0 1.76z" transform="translate(-1.76)"/></g></svg>