<svg id="Layer_1" data-name="Layer 1" xmlns="http://www.w3.org/2000/svg" viewBox="0 0 30 30"><defs><style>.cls-1{fill:#5a5a5a}.cls-2{fill:#f40000}.cls-3{fill:#ff9f00}.cls-4{fill:#ff3636}.cls-5{fill:#6e6e6e}</style></defs><title>repairing</title><path class="cls-1" d="M8 19.34a2.64 2.64 0 0 1-2.67-2.64v-1.76a.88.88 0 0 1 .88-.88h3.52a.88.88 0 0 1 .88.88v1.76A2.64 2.64 0 0 1 8 19.34zm-.88-3.52v.88a.88.88 0 0 0 1.76 0v-.88zM22 19.34a2.64 2.64 0 0 1-2.64-2.64v-1.76a.88.88 0 0 1 .88-.88h3.52a.88.88 0 0 1 .88.88v1.76A2.64 2.64 0 0 1 22 19.34zm-.88-3.52v.88a.88.88 0 0 0 1.76 0v-.88z"/><path class="cls-2" d="M23.79 8.79H6.21a.88.88 0 0 1-.85-1.09L6.78 2a2.63 2.63 0 0 1 2.56-2h11.32a2.63 2.63 0 0 1 2.56 2l1.42 5.7a.88.88 0 0 1-.85 1.09zM7.34 7h15.32l-1.15-4.58a.88.88 0 0 0-.85-.67H9.34a.88.88 0 0 0-.85.67z"/><path class="cls-1" d="M18.52 12.3h-7a.88.88 0 0 1 0-1.76h7a.88.88 0 1 1 0 1.76z"/><path class="cls-3" d="M22 15.82a.88.88 0 0 1-.88-.88v-1.76a2.64 2.64 0 0 1 2.64-2.64h1.76a.88.88 0 1 1 0 1.76h-1.73a.88.88 0 0 0-.88.88v1.76a.88.88 0 0 1-.91.88zm-14 0a.88.88 0 0 1-.88-.88v-1.76a.88.88 0 0 0-.88-.88H4.45a.88.88 0 1 1 0-1.76h1.76a2.64 2.64 0 0 1 2.64 2.64v1.76a.88.88 0 0 1-.85.88z"/><path class="cls-1" d="M13.24 8.79a.88.88 0 0 1-.49-1.61L18 3.66a.88.88 0 1 1 1 1.46l-5.27 3.52a.87.87 0 0 1-.49.15zm15.88 14.06H.88A.88.88 0 0 1 0 22v-3.54a.88.88 0 0 1 .88-.88h28.24a.88.88 0 0 1 .88.88V22a.88.88 0 0 1-.88.85zM1.76 21.09h26.48v-1.75H1.76z"/><path class="cls-4" d="M23.79 15.82H6.21a2.64 2.64 0 0 1-2.64-2.64V9.67A2.64 2.64 0 0 1 6.21 7h17.58a2.64 2.64 0 0 1 2.64 2.64v3.52a2.64 2.64 0 0 1-2.64 2.66zm-17.58-7a.88.88 0 0 0-.88.88v3.52a.88.88 0 0 0 .88.88h17.58a.88.88 0 0 0 .88-.88V9.67a.88.88 0 0 0-.88-.88z"/><path class="cls-5" d="M29.12 30a.88.88 0 0 1-.88-.88V.88a.88.88 0 1 1 1.76 0v28.24a.88.88 0 0 1-.88.88zM.88 30a.88.88 0 0 1-.88-.88V.88a.88.88 0 1 1 1.76 0v28.24a.88.88 0 0 1-.88.88z"/></svg>