<svg id="Layer_1" data-name="Layer 1" xmlns="http://www.w3.org/2000/svg" viewBox="0 0 60 60"><defs><style>.cls-1{fill:none}.cls-2{clip-path:url(#clip-path)}.cls-3{fill:#5a5a5a}.cls-4{fill:#ff3636}.cls-5{fill:#d3d3d8}</style><clipPath id="clip-path"><path class="cls-1" d="M0 0h60v60H0z"/></clipPath></defs><title>repair</title><g class="cls-2"><path class="cls-3" d="M33 45.69a1.76 1.76 0 0 1-1.35-2.88l9.16-11a1.76 1.76 0 1 1 2.7 2.25l-9.16 11a1.75 1.75 0 0 1-1.35.63z"/><path class="cls-4" d="M49.09 60h-.77a10.9 10.9 0 0 1-7.93-4.3L27.08 39.4a1.76 1.76 0 1 1 2.72-2.23l13.33 16.29v.06a7.39 7.39 0 1 0 10.41-10.33l-18-12.84a1.76 1.76 0 0 1 2-2.86l18 12.85A10.9 10.9 0 0 1 49.09 60z"/><path class="cls-5" d="M8.15 60a8.23 8.23 0 0 1-6.3-3 7.93 7.93 0 0 1-1.78-6.14 8.8 8.8 0 0 1 3-5.61l29-25a1.75 1.75 0 0 0 .6-1.34v-6.84a5.32 5.32 0 0 1 1.57-3.73L40 2.57a8.79 8.79 0 0 1 12.43 0 1.76 1.76 0 0 1 0 2.49l-5 5A1.76 1.76 0 0 0 50 12.52l5-5a1.76 1.76 0 0 1 2.49 0 8.8 8.8 0 0 1 0 12.43l-5.76 5.76A5.32 5.32 0 0 1 48 27.27h-6.92a1.75 1.75 0 0 0-1.34.6L14.42 57.1A8.21 8.21 0 0 1 8.15 60zm26.22-37.06l-29 25a5 5 0 0 0-.87 6.85 4.72 4.72 0 0 0 3.61 1.7 4.7 4.7 0 0 0 3.6-1.67l25.3-29.17a5.26 5.26 0 0 1 4-1.84h6.86a1.78 1.78 0 0 0 1.24-.54l5.76-5.76a5.28 5.28 0 0 0 1-6L52.46 15A5.27 5.27 0 0 1 45 7.55L48.51 4a5.28 5.28 0 0 0-6 1l-5.76 5.76a1.78 1.78 0 0 0-.53 1.24v6.86a5.26 5.26 0 0 1-1.85 4.08zm21.81-4.21z"/><path class="cls-3" d="M9.79 50.13a1.76 1.76 0 1 0 0 2.49 1.76 1.76 0 0 0 0-2.49z"/><path class="cls-5" d="M24.33 31.06a1.75 1.75 0 0 1-1.24-.51l-9.73-9.73-7.07-2.36a1.76 1.76 0 0 1-1-.87L.19 7.52a1.76 1.76 0 0 1 .33-2l5-5a1.76 1.76 0 0 1 2-.33l10.07 5.09a1.76 1.76 0 0 1 .87 1l2.35 7.06 10.1 10.11a1.76 1.76 0 1 1-2.49 2.49L18 15.55a1.75 1.75 0 0 1-.42-.69l-2.23-6.77L7.07 3.9 3.9 7.07l4.19 8.28 6.77 2.26a1.75 1.75 0 0 1 .69.42l10 10a1.76 1.76 0 0 1-1.24 3z"/></g></svg>