<svg id="Layer_1" data-name="Layer 1" xmlns="http://www.w3.org/2000/svg" viewBox="0 0 50 49.99"><defs><style>.cls-1{fill:none}.cls-2{clip-path:url(#clip-path)}.cls-3{fill:#6e6e6e}.cls-4{fill:#ff3636}.cls-5{fill:#d3d3d8}.cls-6{fill:#444}.cls-7{fill:#e7e7e7}.cls-8{fill:#5a5a5a}</style><clipPath id="clip-path"><path class="cls-1" d="M0 0h50v50H0z"/></clipPath></defs><title>spark</title><g class="cls-2"><path class="cls-3" d="M24.89 30.71a1.46 1.46 0 0 1-1-.43l-4.14-4.14a1.46 1.46 0 0 1 0-2.07l6.21-6.21a1.46 1.46 0 0 1 2.07 0L32.14 22a1.46 1.46 0 0 1 0 2.07l-6.21 6.21a1.46 1.46 0 0 1-1.04.43zm-2.07-5.61l2.07 2.07L29 23l-2-2z"/><path class="cls-4" d="M7.68 50a7.3 7.3 0 0 1-5.18-2.15L.43 45.78a1.46 1.46 0 1 1 2.07-2.07l2.07 2.07a4.4 4.4 0 0 0 6.2 0l6.84-7.19a1.46 1.46 0 1 1 2.12 2l-6.86 7.21A7.3 7.3 0 0 1 7.68 50z"/><path class="cls-5" d="M43.54 12.07a1.46 1.46 0 0 1-1-2.5l4.14-4.14a1.46 1.46 0 0 0-2.07-2.07L40.43 7.5a1.46 1.46 0 0 1-2.07-2.07l4.14-4.15a4.39 4.39 0 0 1 6.21 6.22l-4.14 4.14a1.46 1.46 0 0 1-1.03.43z"/><path class="cls-6" d="M14.54 44a4.38 4.38 0 0 1-3.11-1.28l-4.14-4.15a4.4 4.4 0 0 1 0-6.21L17.64 22a1.46 1.46 0 0 1 2.07 0L28 30.28a1.47 1.47 0 0 1 0 2.07L17.64 42.71a4.38 4.38 0 0 1-3.1 1.29zm-1-3.36a1.47 1.47 0 0 0 2.07 0l9.32-9.32-6.21-6.21-9.36 9.32a1.47 1.47 0 0 0 0 2.07z"/><path class="cls-7" d="M33.18 26.57a1.46 1.46 0 0 1-1-.43l-8.29-8.29a1.46 1.46 0 0 1 0-2.07L34.21 5.43a4.4 4.4 0 0 1 6.21 0l4.14 4.14a4.4 4.4 0 0 1 0 6.21L34.21 26.14a1.46 1.46 0 0 1-1.03.43zM27 16.82L33.18 23l9.32-9.32a1.47 1.47 0 0 0 0-2.07L38.36 7.5a1.47 1.47 0 0 0-2.07 0z"/><path class="cls-8" d="M24.89 39a1.46 1.46 0 0 1-1-.43L11.43 26.14a1.46 1.46 0 0 1 2.07-2.07L25.93 36.5a1.46 1.46 0 0 1-1 2.5zm-4.14 4.14a1.46 1.46 0 0 1-1-.43L7.29 30.28a1.46 1.46 0 0 1 2.07-2.07l12.43 12.43a1.46 1.46 0 0 1-1 2.5zM29 34.86a1.46 1.46 0 0 1-1-.43L15.57 22a1.46 1.46 0 0 1 0-2.07l4.14-4.14a4.4 4.4 0 0 1 6.21 0l8.29 8.29a4.4 4.4 0 0 1 0 6.21l-4.14 4.14a1.46 1.46 0 0 1-1.07.43zM18.68 21L29 31.32l3.11-3.11a1.47 1.47 0 0 0 0-2.07l-8.29-8.29a1.47 1.47 0 0 0-2.07 0z"/></g></svg>