<svg id="Layer_1" data-name="Layer 1" xmlns="http://www.w3.org/2000/svg" viewBox="0 0 35 20.89"><defs><style>.cls-1{fill:none}.cls-2{clip-path:url(#clip-path)}.cls-3{fill:#d1d5cd}.cls-4{fill:#c8e5fc}.cls-5{fill:#b8dcf4}.cls-6{fill:#acafb7}.cls-7{fill:#999da3}.cls-8{fill:#74767f}.cls-9{fill:#656872}.cls-10{fill:#de4242}.cls-11{fill:#636570}.cls-12{fill:#fc5151}.cls-13{fill:#ef3a3a}.cls-14{fill:#d12424}.cls-15{fill:#c4c6c2}.cls-16{fill:#c4c6c1}.cls-17{fill:#add6f2}.cls-18{fill:#70727f}.cls-19{fill:#5b5f72}</style><clipPath id="clip-path" transform="translate(0 -7.06)"><path class="cls-1" d="M0 0h35v35H0z"/></clipPath></defs><title>steering</title><g class="cls-2"><path class="cls-3" d="M5.5 16.69a.53.53 0 0 1-.45-.25l-1.11-1.8H2.82a.53.53 0 0 1 0-1.06h1.41a.53.53 0 0 1 .45.25l1.27 2a.53.53 0 0 1-.45.81z" transform="translate(0 -7.06)"/><path class="cls-4" d="M22.25 8.4L8 8.33a1.65 1.65 0 0 0-1.64 1.46l-.06.45-.79 6v.58h12.27v-.52a9.59 9.59 0 0 1 4.47-7.9z" transform="translate(0 -7.06)"/><path class="cls-5" d="M9.66 10.24l.06-.45a1.65 1.65 0 0 1 1.42-1.45L8 8.33a1.65 1.65 0 0 0-1.64 1.46l-.06.45-.79 6v.58h3.35v-.58z" transform="translate(0 -7.06)"/><path class="cls-6" d="M32.35 13a25 25 0 0 0-13.47 0 7.52 7.52 0 0 0-.81 3.41v.6h.79a2 2 0 0 1 1.65 3.18l-.73 1A7.58 7.58 0 0 0 21.85 23l1.61-2.28a2.63 2.63 0 0 1 4.3 0L29.38 23a7.58 7.58 0 0 0 2.06-1.73l-.73-1A2 2 0 0 1 32.35 17h.79v-.6a7.52 7.52 0 0 0-.79-3.4z" transform="translate(0 -7.06)"/><path class="cls-7" d="M31.41 21.28zm-11.49-6.45a24.93 24.93 0 0 1 13-.11 7.49 7.49 0 0 0-.57-1.72 25 25 0 0 0-13.47 0 7.52 7.52 0 0 0-.81 3.41v.6h1.11a7.5 7.5 0 0 1 .74-2.18z" transform="translate(0 -7.06)"/><path class="cls-3" d="M11.5 23.57v2.09a.74.74 0 0 1-.74.74H8.68v-2.83z" transform="translate(0 -7.06)"/><path class="cls-8" d="M9.31 26.39V27a1 1 0 0 1-1 1H5.54a1 1 0 0 1-1-1v-3.7h4.77z" transform="translate(0 -7.06)"/><path class="cls-9" d="M6.92 27v-3.7H4.59V27a1 1 0 0 0 1 1h2.28a1 1 0 0 1-.95-1z" transform="translate(0 -7.06)"/><path class="cls-10" d="M3.1 14.18v.26a.94.94 0 0 1-.94.94H.94a.94.94 0 0 1-.94-.94v-.52A.94.94 0 0 1 .94 13h1.22a.94.94 0 0 1 .94.94z" transform="translate(0 -7.06)"/><path class="cls-8" d="M8 8.33a1.65 1.65 0 0 0-1.64 1.46l-.06.45 13.7.07a9.63 9.63 0 0 1 2.2-1.91z" transform="translate(0 -7.06)"/><path class="cls-11" d="M9.66 10.24l.06-.45a1.65 1.65 0 0 1 1.42-1.45L8 8.33a1.65 1.65 0 0 0-1.64 1.46l-.06.45h3.36z" transform="translate(0 -7.06)"/><path class="cls-12" d="M20.11 22.79a9.56 9.56 0 0 1-2.34-6.28v-.21l-12-.07a2.09 2.09 0 0 0-2.06 1.71 26 26 0 0 0-.43 3.85v.65a2.1 2.1 0 0 0 2.1 2.12h6.12l8.47.07h2.28a9.62 9.62 0 0 1-2.14-1.84z" transform="translate(0 -7.06)"/><path class="cls-13" d="M7.35 22.44v-.65a26 26 0 0 1 .43-3.85 2.09 2.09 0 0 1 1.76-1.68H5.72a2.09 2.09 0 0 0-2.06 1.71 26 26 0 0 0-.43 3.85v.65a2.1 2.1 0 0 0 2.1 2.12h4.12a2.1 2.1 0 0 1-2.1-2.15zm8.27 2.12H11.5l8.47.07h2.28z" transform="translate(0 -7.06)"/><path class="cls-4" d="M6.56 17.71a1.34 1.34 0 1 1-1.34 1.34 1.34 1.34 0 0 1 1.34-1.34z" transform="translate(0 -7.06)"/><path class="cls-10" d="M20.11 22.79l-9.67-.07a1.33 1.33 0 0 1-1.27-.94H3.25v.65a2.1 2.1 0 0 0 2.1 2.12h6.15l8.47.07h2.28a9.62 9.62 0 0 1-2.14-1.83z" transform="translate(0 -7.06)"/><path class="cls-14" d="M7.35 22.44v-.65h-4.1v.65a2.1 2.1 0 0 0 2.1 2.12h4.1a2.1 2.1 0 0 1-2.1-2.12z" transform="translate(0 -7.06)"/><path class="cls-3" d="M18 18.73l-7.37-.07a1.33 1.33 0 0 0-1.29 1.14l-.21 1.39a1.33 1.33 0 0 0 1.32 1.54l9.67.07A9.56 9.56 0 0 1 18 18.73z" transform="translate(0 -7.06)"/><path class="cls-15" d="M11.54 22a1.33 1.33 0 0 1-1.32-1.54l.22-1.46a1.33 1.33 0 0 1 .11-.37 1.33 1.33 0 0 0-1.21 1.17l-.21 1.39a1.33 1.33 0 0 0 1.32 1.54l9.67.07a9.62 9.62 0 0 1-.6-.77z" transform="translate(0 -7.06)"/><path class="cls-16" d="M12.14 21.13h-1a.53.53 0 1 1 0-1.06h1a.53.53 0 0 1 0 1.06zm3.17 0h-1.48a.53.53 0 0 1 0-1.06h1.48a.53.53 0 1 1 0 1.06z" transform="translate(0 -7.06)"/><path class="cls-17" d="M7.62 13a.53.53 0 0 1-.32-1l1.13-.85a.53.53 0 1 1 .64.85l-1.13.85a.53.53 0 0 1-.32.15zm.04 2.1a.53.53 0 0 1-.31-1l3.39-2.47a.53.53 0 0 1 .62.86L8 15a.53.53 0 0 1-.34.1z" transform="translate(0 -7.06)"/><path class="cls-18" d="M22.72 15.35h-.35a.53.53 0 1 1 0-1.06h.35a.53.53 0 0 1 0 1.06z" transform="translate(0 -7.06)"/><path class="cls-18" d="M25.61 7.06a9.39 9.39 0 1 1-9.39 9.39 9.39 9.39 0 0 1 9.39-9.39zm7.53 10v-.6a7.52 7.52 0 0 0-.79-3.46 7.55 7.55 0 0 0-13.47 0 7.52 7.52 0 0 0-.81 3.41v.6a7.55 7.55 0 0 0 15.05 0z" transform="translate(0 -7.06)"/><path class="cls-18" d="M25.62 14.32a1.5 1.5 0 0 1 1.62 1.34A1.5 1.5 0 0 1 25.62 17 1.5 1.5 0 0 1 24 15.67a1.5 1.5 0 0 1 1.62-1.35zm3.24 1.03h-.35a.53.53 0 0 1 0-1.06h.35a.53.53 0 1 1 0 1.06z" transform="translate(0 -7.06)"/><path class="cls-19" d="M28.79 24.72a8.82 8.82 0 0 1-3.55-.72 7.55 7.55 0 0 1-7.15-7v-.6a7.52 7.52 0 0 1 .79-3.4 7.58 7.58 0 0 1 3.79-3.54 8.83 8.83 0 0 1 4.48-2.31 9.39 9.39 0 1 0-1.53 18.64 9.34 9.34 0 0 0 4.63-1.22 8.91 8.91 0 0 1-1.46.15z" transform="translate(0 -7.06)"/></g></svg>