<svg id="Layer_1" data-name="Layer 1" xmlns="http://www.w3.org/2000/svg" viewBox="0 0 50 50"><defs><style>.cls-1{fill:#5a5a5a}.cls-2{fill:#6e6e6e}.cls-3{fill:#ff9f00}</style></defs><title>steering-wheel</title><path class="cls-1" d="M25 50A25 25 0 0 1 7.34 7.34a25 25 0 1 1 35.32 35.32A24.82 24.82 0 0 1 25 50zm0-47.07A22.07 22.07 0 1 0 47.07 25 22.1 22.1 0 0 0 25 2.93z"/><path class="cls-2" d="M41.57 20.61H8.43a1.46 1.46 0 0 1 0-2.93h33.14a1.46 1.46 0 0 1 0 2.93z"/><path class="cls-3" d="M25 30.86a4.39 4.39 0 1 1 4.39-4.39A4.4 4.4 0 0 1 25 30.86zM25 25a1.46 1.46 0 1 0 1.46 1.46A1.47 1.47 0 0 0 25 25z"/><path class="cls-2" d="M33.51 41.84a1.47 1.47 0 0 1-1.42-1.1 7.33 7.33 0 0 0-14.19 0 1.46 1.46 0 0 1-2.83-.74 10.26 10.26 0 0 1 19.86 0 1.47 1.47 0 0 1-1.42 1.83zm5.07-4.23a1.46 1.46 0 0 1-.63-.14 7.33 7.33 0 0 1 5-13.7 1.46 1.46 0 1 1-.73 2.84 4.4 4.4 0 0 0-3 8.22 1.46 1.46 0 0 1-.63 2.79zm-27.16 0a1.46 1.46 0 0 1-.63-2.79 4.4 4.4 0 0 0-3-8.22 1.46 1.46 0 1 1-.73-2.84 7.33 7.33 0 0 1 5 13.7 1.46 1.46 0 0 1-.64.15z"/><path class="cls-1" d="M25 44a19 19 0 1 1 19-19 19.06 19.06 0 0 1-19 19zm0-35.11A16.11 16.11 0 1 0 41.11 25 16.13 16.13 0 0 0 25 8.89z"/></svg>