<svg id="Layer_1" data-name="Layer 1" xmlns="http://www.w3.org/2000/svg" viewBox="0 0 50 50"><defs><style>.cls-1{fill:#d3d3d8}.cls-2{fill:#00abe9}.cls-3{fill:#5a5a5a}.cls-4{fill:#0095ff}.cls-5{fill:#444}</style></defs><title>suspension</title><path class="cls-1" d="M39.75 11.72h-5.86a1.46 1.46 0 0 1-1.46-1.46V4.39a4.39 4.39 0 1 1 8.79 0v5.86a1.46 1.46 0 0 1-1.47 1.47zm-4.4-2.93h2.93v-4.4a1.46 1.46 0 1 0-2.93 0z"/><path class="cls-2" d="M39.75 17.58h-5.86a4.39 4.39 0 0 1 0-8.79h5.86a4.39 4.39 0 0 1 0 8.79zm-5.86-5.86a1.46 1.46 0 0 0 0 2.93h5.86a1.46 1.46 0 0 0 0-2.93z"/><path class="cls-3" d="M19 50H7.32a1.46 1.46 0 0 1-1.46-1.46V1.46A1.46 1.46 0 0 1 7.32 0H19a1.46 1.46 0 0 1 1.46 1.46v47.08A1.46 1.46 0 0 1 19 50zM8.79 47.07h8.79V2.93H8.79z"/><path class="cls-3" d="M19 11.23a1.46 1.46 0 0 1-.81-.25l-5-3.36L8.14 11a1.46 1.46 0 1 1-1.63-2.45l5.86-3.91a1.46 1.46 0 0 1 1.63 0l5.86 3.91a1.46 1.46 0 0 1-.86 2.68zM19 20a1.46 1.46 0 0 1-.81-.25l-5-3.36-5 3.36a1.46 1.46 0 0 1-1.63-2.44l5.86-3.91a1.46 1.46 0 0 1 1.63 0l5.86 3.91A1.46 1.46 0 0 1 19 20zm0 8.81a1.46 1.46 0 0 1-.81-.25l-5-3.36-5 3.36a1.46 1.46 0 0 1-1.63-2.44l5.86-3.91a1.46 1.46 0 0 1 1.63 0l5.86 3.91a1.46 1.46 0 0 1-.91 2.69zm0 8.79a1.46 1.46 0 0 1-.81-.25l-5-3.36-5 3.36a1.46 1.46 0 0 1-1.63-2.44L12.37 31A1.46 1.46 0 0 1 14 31l5.86 3.91A1.46 1.46 0 0 1 19 37.6zm0 8.98a1.46 1.46 0 0 1-.81-.25l-5-3.36-5 3.36a1.46 1.46 0 0 1-1.68-2.43l5.86-3.9A1.46 1.46 0 0 1 14 40l5.86 3.91a1.46 1.46 0 0 1-.86 2.67z"/><path class="cls-4" d="M39.75 23.44h-5.86a4.39 4.39 0 0 1 0-8.79h5.86a4.39 4.39 0 0 1 0 8.79zm-5.86-5.86a1.46 1.46 0 0 0 0 2.93h5.86a1.46 1.46 0 0 0 0-2.93z"/><path class="cls-1" d="M45.61 32.23H24.9a1.46 1.46 0 0 1-1.46-1.46V22a1.46 1.46 0 0 1 1.46-1.46h20.7A4.4 4.4 0 0 1 50 24.9v2.93a4.4 4.4 0 0 1-4.39 4.4zM26.37 29.3h19.24a1.47 1.47 0 0 0 1.46-1.46V24.9a1.47 1.47 0 0 0-1.46-1.46H26.37z"/><path class="cls-5" d="M19 50H7.32A7.33 7.33 0 0 1 0 42.68V7.32A7.33 7.33 0 0 1 7.32 0H19a7.33 7.33 0 0 1 7.32 7.32v35.36A7.33 7.33 0 0 1 19 50zM7.32 2.93a4.4 4.4 0 0 0-4.39 4.39v35.36a4.4 4.4 0 0 0 4.39 4.39H19a4.4 4.4 0 0 0 4.39-4.39V7.32A4.4 4.4 0 0 0 19 2.93z"/></svg>