<svg id="Layer_1" data-name="Layer 1" xmlns="http://www.w3.org/2000/svg" viewBox="0 0 60 60"><defs><style>.cls-1{fill:#6e6e6e}.cls-2{fill:#5a5a5a}.cls-3{fill:#ff3636}.cls-4{fill:#ff9f00}.cls-5{fill:#d3d3d8}</style></defs><title>tachometer</title><path class="cls-1" d="M21.21 37a1.76 1.76 0 1 1-1.76-1.76A1.76 1.76 0 0 1 21.21 37zm21.09 0a1.76 1.76 0 1 1-1.76-1.76A1.76 1.76 0 0 1 42.3 37z"/><path class="cls-2" d="M30 60A30 30 0 0 1 8.81 8.81a30 30 0 1 1 42.38 42.38A29.79 29.79 0 0 1 30 60zm0-56.48A26.48 26.48 0 1 0 56.48 30 26.51 26.51 0 0 0 30 3.52z"/><path class="cls-3" d="M31.76 25v-5.55a1.76 1.76 0 1 0-3.52 0V25a5.27 5.27 0 1 0 3.52 0zM30 31.76A1.76 1.76 0 1 1 31.76 30 1.76 1.76 0 0 1 30 31.76z"/><path class="cls-4" d="M46.29 14l-.14-.16-.15-.14a22.81 22.81 0 0 0-32 0l-.16.14-.14.16a22.82 22.82 0 0 0 1.06 33 1.76 1.76 0 1 0 2.35-2.62 19.38 19.38 0 0 1-6.36-12.64h1.68a1.76 1.76 0 1 0 0-3.52h-1.69a19.25 19.25 0 0 1 4.4-10.61l1.18 1.18a1.76 1.76 0 0 0 2.49-2.49l-1.18-1.18a19.25 19.25 0 0 1 10.61-4.4v1.68a1.76 1.76 0 1 0 3.52 0v-1.66a19.25 19.25 0 0 1 10.61 4.4l-1.18 1.18a1.76 1.76 0 1 0 2.49 2.49l1.18-1.18a19.25 19.25 0 0 1 4.4 10.61h-1.68a1.76 1.76 0 0 0 0 3.52h1.68a19.38 19.38 0 0 1-6.37 12.64 1.76 1.76 0 0 0 2.35 2.6 22.82 22.82 0 0 0 1.06-33z"/><path class="cls-5" d="M37 49.34H23a1.76 1.76 0 0 1-1.76-1.76v-7A1.76 1.76 0 0 1 23 38.79h14a1.76 1.76 0 0 1 1.76 1.76v7A1.76 1.76 0 0 1 37 49.34zm-12.3-3.52h10.57V42.3H24.73z"/></svg>