<svg id="Layer_1" data-name="Layer 1" xmlns="http://www.w3.org/2000/svg" viewBox="0 0 65 30"><defs><style>.cls-1{fill:none}.cls-2{fill:#fff;stroke:#00c654;stroke-width:2px}.cls-3{clip-path:url(#clip-path)}.cls-4{fill:#3c58bf}.cls-5{fill:#293688}.cls-6{fill:#ffbc00}.cls-7{fill:#f7981d}.cls-8{fill:#ed7c00}.cls-9{fill:#051244}</style><clipPath id="clip-path" transform="translate(0 -10)"><path class="cls-1" d="M7 0h50v50H7z"/></clipPath></defs><title>visa</title><rect class="cls-2" x="1" y="1" width="63" height="28" rx="4" ry="4"/><g class="cls-3"><path class="cls-4" d="M25.33 32.18l2.54-14.28h4l-2.49 14.28z" transform="translate(0 -10)"/><path class="cls-5" d="M25.33 32.18l3.26-14.28h3.25l-2.46 14.28z" transform="translate(0 -10)"/><path class="cls-4" d="M43.75 18.06a10.07 10.07 0 0 0-3.65-.63c-4 0-6.83 2-6.83 4.84 0 2.14 2 3.25 3.57 4s2.06 1.19 2.06 1.83c0 1-1.27 1.43-2.38 1.43a8.63 8.63 0 0 1-3.81-.79l-.56-.24-.56 3.25a12.87 12.87 0 0 0 4.52.79c4.21 0 7-2 7-5 0-1.67-1-2.94-3.41-4-1.43-.71-2.3-1.11-2.3-1.83s.71-1.27 2.3-1.27a7.28 7.28 0 0 1 3 .56l.4.16z" transform="translate(0 -10)"/><path class="cls-5" d="M43.75 18.06a10.07 10.07 0 0 0-3.65-.63c-4 0-6.11 2-6.11 4.84a4.15 4.15 0 0 0 2.86 4c1.59.71 2.06 1.19 2.06 1.83 0 1-1.27 1.43-2.38 1.43a8.63 8.63 0 0 1-3.81-.79l-.56-.24-.56 3.25a12.87 12.87 0 0 0 4.52.79c4.21 0 7-2 7-5 0-1.67-1-2.94-3.41-4-1.43-.71-2.3-1.11-2.3-1.83s.71-1.27 2.3-1.27a7.28 7.28 0 0 1 3 .56l.4.16z" transform="translate(0 -10)"/><path class="cls-4" d="M50.57 17.9c-1 0-1.67.08-2.06 1l-6 13.25h4.29l.79-2.38h5.08l.48 2.38H57L53.67 17.9zm-1.83 9.52c.24-.71 1.59-4.21 1.59-4.21s.32-.87.56-1.43l.24 1.35s.79 3.57 1 4.37h-3.38z" transform="translate(0 -10)"/><path class="cls-5" d="M51.52 17.9c-1 0-1.67.08-2.06 1l-6.9 13.25h4.29l.79-2.38h5.08l.48 2.38H57L53.67 17.9zm-2.78 9.52c.32-.79 1.59-4.21 1.59-4.21s.32-.87.56-1.43l.24 1.35s.79 3.57 1 4.37h-3.38z" transform="translate(0 -10)"/><path class="cls-4" d="M18 27.9l-.4-2.06a11.5 11.5 0 0 0-5.56-6.27l3.57 12.7h4.29L26.37 18h-4.29z" transform="translate(0 -10)"/><path class="cls-5" d="M18 27.9l-.4-2.06a11.5 11.5 0 0 0-5.56-6.27l3.57 12.7h4.29L26.37 18h-3.5z" transform="translate(0 -10)"/><path class="cls-6" d="M7 17.9l.71.16c5.08 1.19 8.57 4.21 9.92 7.78l-1.43-6.75c-.24-1-1-1.19-1.83-1.19z" transform="translate(0 -10)"/><path class="cls-7" d="M7 17.9c5.08 1.19 9.29 4.29 10.63 7.86l-1.35-5.64a1.94 1.94 0 0 0-1.9-1.51z" transform="translate(0 -10)"/><path class="cls-8" d="M7 17.9c5.08 1.19 9.29 4.29 10.63 7.86l-1-3.1a2.8 2.8 0 0 0-1.63-2.3z" transform="translate(0 -10)"/><path class="cls-9" d="M22 27.42l-2.7-2.7-1.27 3-.32-2a11.5 11.5 0 0 0-5.56-6.27l3.57 12.7H20zm7.38 4.76L26 28.69l-.63 3.49zm9.13-4.92c.32.32.48.56.4.87 0 1-1.27 1.43-2.38 1.43a8.63 8.63 0 0 1-3.81-.79l-.56-.24-.56 3.25a12.87 12.87 0 0 0 4.52.79c2.54 0 4.6-.71 5.79-2zm4.6 4.92h3.73l.79-2.38h5.08l.48 2.38H57l-1.35-5.79-4.76-4.6.24 1.27s.79 3.57 1 4.37h-3.38c.32-.79 1.59-4.21 1.59-4.21s.32-.87.56-1.43" transform="translate(0 -10)"/></g></svg>