<svg id="Layer_1" data-name="Layer 1" xmlns="http://www.w3.org/2000/svg" viewBox="0 0 50 50"><defs><style>.cls-1{fill:#5a5a5a}.cls-2{fill:#e7e7e7}.cls-3{fill:#ff3636}.cls-4{fill:#ff9f00}</style></defs><title>voltmeter</title><path class="cls-1" d="M42.68 44.14h-6a1.46 1.46 0 1 1 0-2.93h6a1.47 1.47 0 0 0 1.46-1.46V31a1.46 1.46 0 0 1 2.93 0v8.79a4.4 4.4 0 0 1-4.39 4.35z"/><path class="cls-2" d="M45.61 11.72a1.46 1.46 0 0 1-1.46-1.46V4.39a1.46 1.46 0 0 1 2.93 0v5.86a1.46 1.46 0 0 1-1.47 1.47z"/><path class="cls-1" d="M48.54 17.58h-5.86a1.46 1.46 0 0 1-1.46-1.46v-5.87a1.46 1.46 0 0 1 1.46-1.46h5.86A1.46 1.46 0 0 1 50 10.25v5.86a1.46 1.46 0 0 1-1.46 1.47zm-4.39-2.93h2.93v-2.93h-2.94z"/><path class="cls-3" d="M33.79 50H4.39A4.4 4.4 0 0 1 0 45.61V4.39A4.4 4.4 0 0 1 4.39 0h29.4a4.4 4.4 0 0 1 4.39 4.39v41.22A4.4 4.4 0 0 1 33.79 50zM4.39 2.93a1.47 1.47 0 0 0-1.46 1.46v41.22a1.47 1.47 0 0 0 1.46 1.46h29.4a1.47 1.47 0 0 0 1.46-1.46V4.39a1.47 1.47 0 0 0-1.46-1.46z"/><path class="cls-4" d="M45.61 32.42a4.4 4.4 0 0 1-4.4-4.42V10.25a1.46 1.46 0 0 1 1.46-1.46h5.86A1.46 1.46 0 0 1 50 10.25V28a4.4 4.4 0 0 1-4.39 4.42zm-1.46-20.7V28a1.46 1.46 0 1 0 2.93 0V11.72zM19 29.49A1.46 1.46 0 0 1 17.58 28v-2.9a1.46 1.46 0 1 1 2.93 0V28A1.46 1.46 0 0 1 19 29.49zm0 14.65a1.46 1.46 0 0 1-1.46-1.46v-2.93a1.46 1.46 0 1 1 2.93 0v2.93A1.46 1.46 0 0 1 19 44.14zm-5.82-8.79h-2.93a1.46 1.46 0 0 1 0-2.93h2.93a1.46 1.46 0 0 1 0 2.93zm14.65 0H24.9a1.46 1.46 0 0 1 0-2.93h2.93a1.46 1.46 0 1 1 0 2.93zm-15 6.22a1.47 1.47 0 0 1-1-2.5L13.86 37a1.46 1.46 0 0 1 2.07 2.07l-2.07 2.07a1.46 1.46 0 0 1-1.03.43zm10.36-10.36a1.46 1.46 0 0 1-1-2.5l2.07-2.07a1.46 1.46 0 0 1 2.07 2.07l-2.07 2.07a1.46 1.46 0 0 1-1.07.43zm2.07 10.36a1.46 1.46 0 0 1-1-.43l-2.07-2.07A1.46 1.46 0 0 1 24.22 37l2.07 2.07a1.47 1.47 0 0 1-1 2.5zM14.9 31.21a1.46 1.46 0 0 1-1-.43l-2.07-2.07a1.46 1.46 0 1 1 2.07-2.07l2.07 2.07a1.46 1.46 0 0 1-1 2.5z"/><path class="cls-2" d="M24.31 39A7.32 7.32 0 0 0 14 28.62l-.09.09-.09.09a7.32 7.32 0 0 0 10.31 10.35l.09-.09zm-.87-5.08a4.37 4.37 0 0 1-.44 1.86l-5.86-5.86a4.39 4.39 0 0 1 6.29 4zm-8.79 0a4.37 4.37 0 0 1 .43-1.92l5.86 5.86a4.39 4.39 0 0 1-6.29-4z"/><path class="cls-4" d="M13.18 20.51A1.46 1.46 0 0 1 11.72 19v-2.89a1.46 1.46 0 1 1 2.93 0V19a1.46 1.46 0 0 1-1.47 1.51zm5.82 0A1.46 1.46 0 0 1 17.58 19v-5.82a1.46 1.46 0 0 1 2.93 0V19A1.46 1.46 0 0 1 19 20.51zm5.9 0A1.46 1.46 0 0 1 23.44 19v-2.89a1.46 1.46 0 1 1 2.93 0V19a1.46 1.46 0 0 1-1.47 1.51z"/><path class="cls-1" d="M30.76 20.51H7.32A1.46 1.46 0 0 1 5.86 19V7.32a1.46 1.46 0 0 1 1.46-1.46h23.44a1.46 1.46 0 0 1 1.46 1.46V19a1.46 1.46 0 0 1-1.46 1.51zm-22-2.93H29.3V8.79H8.79z"/></svg>