<svg id="Layer_1" data-name="Layer 1" xmlns="http://www.w3.org/2000/svg" viewBox="0 0 50 50"><defs><style>.cls-1{fill:#5a5a5a}.cls-2{fill:#d3d3d8}.cls-3{fill:#ff3636}</style></defs><title>wheels</title><path class="cls-1" d="M25 50A25 25 0 0 1 7.34 7.34a25 25 0 1 1 35.32 35.32A24.82 24.82 0 0 1 25 50zm0-47.07A22.07 22.07 0 1 0 47.07 25 22.1 22.1 0 0 0 25 2.93z"/><path class="cls-2" d="M27.93 21.39a1.47 1.47 0 0 1-1.46-1.46v-9.28a1.46 1.46 0 0 1 2.93 0v6.74L35.23 14a1.46 1.46 0 0 1 1.46 2.54l-8 4.64a1.46 1.46 0 0 1-.76.21zm0 19.43a1.46 1.46 0 0 1-1.46-1.46v-9.29a1.46 1.46 0 0 1 2.2-1.27l8 4.64A1.46 1.46 0 0 1 35.23 36l-5.83-3.37v6.74a1.46 1.46 0 0 1-1.47 1.45zm-5.86 0a1.46 1.46 0 0 1-1.46-1.46v-6.75L14.77 36a1.46 1.46 0 0 1-1.46-2.54l8-4.64a1.46 1.46 0 0 1 2.2 1.27v9.28a1.46 1.46 0 0 1-1.44 1.45zm0-19.43a1.46 1.46 0 0 1-.73-.2l-8-4.64A1.46 1.46 0 0 1 14.77 14l5.83 3.37v-6.72a1.46 1.46 0 0 1 2.93 0v9.28a1.47 1.47 0 0 1-1.46 1.46zm16.82 9.71a1.46 1.46 0 0 1-.73-.2l-8-4.64a1.46 1.46 0 0 1 0-2.54l8-4.64a1.46 1.46 0 0 1 1.46 2.54L33.79 25l5.84 3.37a1.47 1.47 0 0 1-.73 2.73zm-27.78 0a1.46 1.46 0 0 1-.73-2.73L16.21 25l-5.84-3.37a1.46 1.46 0 0 1 1.46-2.54l8 4.64a1.46 1.46 0 0 1 0 2.54l-8 4.64a1.46 1.46 0 0 1-.72.19z"/><path class="cls-3" d="M25 32.32A7.32 7.32 0 1 1 32.32 25 7.33 7.33 0 0 1 25 32.32zm0-11.72a4.39 4.39 0 1 0 4.39 4.4A4.4 4.4 0 0 0 25 20.61z"/><path class="cls-1" d="M26.46 25A1.46 1.46 0 1 1 25 23.54 1.46 1.46 0 0 1 26.46 25z"/><path class="cls-1" d="M25 41.11A16.11 16.11 0 1 1 41.11 25 16.13 16.13 0 0 1 25 41.11zm0-29.3A13.18 13.18 0 1 0 38.18 25 13.2 13.2 0 0 0 25 11.82z"/></svg>