<svg xmlns="http://www.w3.org/2000/svg" viewBox="0 0 512 512"><path d="M72.001 324l62.085 170.734a8 8 0 0 0 7.518 5.266h236.547a8 8 0 0 0 7.623-5.574L440 324H72.001zm114.243 144.18c-8.414 2.699-17.423-1.935-20.122-10.349l-24.434-76.177c-2.699-8.414 1.935-17.423 10.349-20.122s17.423 1.934 20.122 10.349l24.434 76.177c2.699 8.414-1.934 17.424-10.349 20.122zM272.001 452c0 8.836-7.164 16-16 16s-16-7.164-16-16v-80c0-8.836 7.164-16 16-16s16 7.164 16 16v80zm98.312-70.346l-24.434 76.177c-2.699 8.414-11.708 13.048-20.122 10.349s-13.047-11.708-10.349-20.122l24.434-76.177c2.699-8.414 11.708-13.047 20.122-10.349s13.048 11.708 10.349 20.122z" fill="#a38dce"/><path d="M126.844 348h305.52L440 324H72l62.085 170.734a8 8 0 0 0 7.518 5.266h17.669l-47.466-130.532C108.013 359.032 115.74 348 126.844 348z" fill="#8c70c2"/><path d="M464.001 284h-416a8 8 0 0 0-8 8v32a8 8 0 0 0 8 8h416a8 8 0 0 0 8-8v-32a8 8 0 0 0-8-8z" fill="#d1c6e7"/><path d="M503.75 203.325c-5.729-6.344-13.584-10.078-22.121-10.513a32.072 32.072 0 0 0-22.979 8.131c-.474.275-108.225 97.494-108.225 97.494-3.234 2.919-3.496 8.066-.576 11.299l32.169 35.625c2.92 3.234 8.064 3.498 11.299.576l105.64-95.393c7.779-5.723 12.509-14.495 13.001-24.144.436-8.536-2.479-16.731-8.208-23.075z" fill="#fdc572"/><path d="M503.75 203.325c-5.729-6.344-13.584-10.078-22.121-10.513a32.072 32.072 0 0 0-22.979 8.131c-.474.275-108.225 97.494-108.225 97.494-3.234 2.919-3.496 8.066-.576 11.299l32.169 35.625c2.92 3.234 8.064 3.498 11.299.576l105.64-95.393c7.779-5.723 12.509-14.495 13.001-24.144.436-8.536-2.479-16.731-8.208-23.075z" fill="#fdc572"/><path d="M503.75 203.325a32.154 32.154 0 0 0-6.626-5.592c3.543 5.558 5.283 12.058 4.94 18.773-.492 9.649-5.222 18.421-13.001 24.144l-105.64 95.393c-2.381 2.151-5.795 2.57-8.597 1.354l7.191 7.964c2.92 3.234 8.064 3.498 11.299.576l105.64-95.393c7.779-5.723 12.509-14.495 13.001-24.144.437-8.536-2.478-16.731-8.207-23.075z" fill="#fcb74f"/><path d="M387.63 315.679c-3.132 0-6-2.035-7.053-4.977-1.081-3.019-.079-6.462 2.446-8.434 5.228-4.082 12.997.455 12.027 7.009-.537 3.633-3.752 6.402-7.42 6.402z" fill="#eea848"/><path d="M164.204 303.967a7.998 7.998 0 0 0-2.628-5.53s-107.75-97.219-108.225-97.494a32.037 32.037 0 0 0-22.979-8.13c-8.537.435-16.393 4.168-22.121 10.513-5.729 6.344-8.644 14.539-8.208 23.075.492 9.649 5.222 18.421 13.001 24.144l105.64 95.393c3.235 2.921 8.378 2.659 11.299-.576l32.169-35.625a8.005 8.005 0 0 0 2.052-5.77z" fill="#fdc572"/><path d="M128.561 336.06l-105.64-95.393c-7.779-5.723-12.509-14.495-13.001-24.144-.342-6.719 1.399-13.223 4.947-18.783a32.184 32.184 0 0 0-6.616 5.586C2.522 209.67-.393 217.865.043 226.401c.492 9.649 5.222 18.421 13.001 24.144l105.64 95.393c3.235 2.921 8.378 2.659 11.299-.576l7.178-7.949c-2.803 1.217-6.218.798-8.6-1.353z" fill="#fcb74f"/><path d="M124.37 315.679c-3.13 0-6.011-2.025-7.063-4.977-1.014-2.846-.18-6.145 2.09-8.147 2.272-2.003 5.636-2.441 8.34-1.074 2.79 1.411 4.473 4.5 4.072 7.613-.476 3.703-3.688 6.585-7.439 6.585z" fill="#eea848"/><path d="M256.001 12c-70.58 0-128 57.42-128 128s57.42 128 128 128 128-57.42 128-128-57.421-128-128-128z" fill="#ee6482"/><path d="M256.001 36c-57.346 0-104 46.654-104 104s46.654 104 104 104 104-46.654 104-104-46.655-104-104-104z" fill="#f1839b"/><path d="M208.001 195.5c-6.558 0-9.924-8.183-5.303-12.803l96-96a7.5 7.5 0 0 1 10.606 0 7.5 7.5 0 0 1 0 10.606l-96 96a7.48 7.48 0 0 1-5.303 2.197zm88 0c-12.958 0-23.5-10.542-23.5-23.5s10.542-23.5 23.5-23.5 23.5 10.542 23.5 23.5-10.542 23.5-23.5 23.5zm0-32c-4.687 0-8.5 3.813-8.5 8.5s3.813 8.5 8.5 8.5 8.5-3.813 8.5-8.5-3.813-8.5-8.5-8.5zm-80-32c-12.958 0-23.5-10.542-23.5-23.5s10.542-23.5 23.5-23.5 23.5 10.542 23.5 23.5-10.542 23.5-23.5 23.5zm0-32c-4.687 0-8.5 3.813-8.5 8.5s3.813 8.5 8.5 8.5 8.5-3.813 8.5-8.5-3.813-8.5-8.5-8.5z" fill="#fff"/></svg>