<svg xmlns="http://www.w3.org/2000/svg" viewBox="0 0 504 504"><path d="M40 373.2h439.2c8.8 0 16.8-7.2 16.8-16.8V234.8l-72.8-100h-88.8l.8 137.6-294.4-.8c-.8 0-.8 0-.8.8v100.8z" fill="#fff"/><path d="M495.2 235.6c0-1.6-.8-3.2-1.6-4l-70.4-96h-88.8l.8 100.8" fill="#d3d7da"/><path d="M333.6 85.2H64L40 270.8c0 .8 0 .8.8.8h293.6V86c0-.8 0-.8-.8-.8z" fill="#ffbf5d"/><g fill="#f15f50"><circle cx="400" cy="373.2" r="46.4"/><circle cx="148.8" cy="373.2" r="46.4"/></g><g fill="#193651"><path d="M504 232.4l-73.6-101.6-2.4-4h-85.6c0-39.2 2.4-49.6-8.8-49.6H56.8l-5.6 43.2H0v16h49.6l-3.2 27.2H9.6v16H44l-3.2 27.2h-24v16h21.6L32 268.4v112h63.2c4 26.4 26.4 46.4 53.6 46.4s49.6-20 53.6-46.4h143.2c4 26.4 26.4 46.4 53.6 46.4s49.6-20 53.6-46.4h26.4c13.6 0 24.8-11.2 24.8-24.8V232.4zm-449.6-9.6h39.2v-16H56l4-27.2h33.6v-16h-32l3.2-27.2h28v-16H67.2l3.2-27.2h255.2v170.4H48.8l5.6-40.8zm94.4 188.8c-21.6 0-38.4-17.6-38.4-38.4 0-21.6 17.6-38.4 38.4-38.4s38.4 17.6 38.4 38.4c0 21.6-16.8 38.4-38.4 38.4zm251.2 0c-21.6 0-38.4-17.6-38.4-38.4 0-21.6 17.6-38.4 38.4-38.4s38.4 17.6 38.4 38.4c0 21.6-17.6 38.4-38.4 38.4zm88-132h-22.4v16H488v60.8c0 4.8-4 8.8-8.8 8.8h-26.4c-4-26.4-26.4-46.4-53.6-46.4s-49.6 20-53.6 46.4H202.4c-4-26.4-26.4-46.4-53.6-46.4s-49.6 20-53.6 46.4H48v-24.8h18.4v-16H48v-44.8l295.2.8c-.8-120-.8-92.8-.8-137.6h76.8l68 94.4v42.4h.8z"/><path d="M145.6 165.2h16v16h-16zm50.4 0h16v16h-16zm50.4 0h16v16h-16z"/></g></svg>