<svg xmlns="http://www.w3.org/2000/svg" viewBox="0 0 512.008 512.008"><g fill="#79a73a"><path d="M332.802 100.113a8.535 8.535 0 0 1-6.033-2.5l-42.667-42.667a8.523 8.523 0 0 1 0-12.066 8.523 8.523 0 0 1 12.066 0l28.1 28.1V23.313a8.525 8.525 0 0 1 8.533-8.533 8.525 8.525 0 0 1 8.533 8.533V91.58a8.526 8.526 0 0 1-8.532 8.533z"/><path d="M332.802 100.113a8.535 8.535 0 0 1-8.533-8.534V23.313a8.525 8.525 0 0 1 8.533-8.533 8.525 8.525 0 0 1 8.533 8.533V70.98l28.1-28.1c3.337-3.337 8.73-3.337 12.066 0s3.337 8.73 0 12.066l-42.667 42.667a8.535 8.535 0 0 1-6.032 2.5z"/></g><path d="M409.602 245.18h-153.6V125.713c0-18.85 15.283-34.133 34.133-34.133h85.333c18.85 0 34.133 15.283 34.133 34.133V245.18z" fill="#f7ba61"/><path d="M256.002 245.18h153.6v-82.978c-35.695 27.263-94.643 66.901-153.6 82.978z" fill="#fbb540"/><path d="M8.535 321.98c-3.575 0-6.903-2.261-8.09-5.837-1.493-4.471.922-9.31 5.393-10.795l25.6-8.533c4.506-1.493 9.301.922 10.795 5.393s-.922 9.31-5.393 10.795l-25.6 8.533a8.645 8.645 0 0 1-2.705.444z" fill="#79a73a"/><path d="M59.735 339.046a8.509 8.509 0 0 1-6.033-2.5l-51.2-51.2c-3.337-3.337-3.337-8.73 0-12.066s8.73-3.337 12.066 0l51.2 51.2a8.523 8.523 0 0 1 0 12.066 8.507 8.507 0 0 1-6.033 2.5z" fill="#744630"/><g fill="#ea9d2d"><path d="M366.935 211.046a8.509 8.509 0 0 1-6.033-2.5l-34.133-34.133a8.523 8.523 0 0 1 0-12.066l29.867-29.867a8.523 8.523 0 0 1 12.066 0l34.133 34.133a8.523 8.523 0 0 1 0 12.066l-29.867 29.867a8.507 8.507 0 0 1-6.033 2.5zm-22.067-42.666l22.067 22.067 17.801-17.801-22.067-22.067-17.801 17.801z"/><path d="M396.802 181.18a8.509 8.509 0 0 1-6.033-2.5l-34.133-34.133a8.523 8.523 0 0 1 0-12.066l36.932-36.932c3.337-3.337 8.73-3.328 12.066-.009 8.055 8.055 12.501 18.765 12.501 30.174v34.133c0 2.27-.896 4.437-2.5 6.033l-12.8 12.8a8.513 8.513 0 0 1-6.033 2.5zm-22.067-42.667l22.067 22.067 4.267-4.267v-30.601c0-3.883-.862-7.646-2.492-11.042l-23.842 23.843zM332.802 245.18a8.509 8.509 0 0 1-6.033-2.5l-34.133-34.133a8.523 8.523 0 0 1 0-12.066l34.133-34.133a8.523 8.523 0 0 1 12.066 0l34.133 34.133a8.523 8.523 0 0 1 0 12.066l-34.133 34.133a8.513 8.513 0 0 1-6.033 2.5zm-22.067-42.667l22.067 22.067 22.067-22.067-22.067-22.067-22.067 22.067z"/><path d="M332.802 176.913a8.509 8.509 0 0 1-6.033-2.5l-29.867-29.867a8.523 8.523 0 0 1 0-12.066l29.867-29.867a8.523 8.523 0 0 1 12.066 0l29.867 29.867a8.523 8.523 0 0 1 0 12.066l-29.867 29.867a8.509 8.509 0 0 1-6.033 2.5zm-17.8-38.4l17.801 17.801 17.801-17.801-17.801-17.801-17.801 17.801z"/><path d="M332.802 117.18a8.509 8.509 0 0 1-6.033-2.5l-17.067-17.067a8.533 8.533 0 0 1 6.033-14.566h34.133a8.526 8.526 0 0 1 7.885 5.265 8.53 8.53 0 0 1-1.852 9.301l-17.067 17.067a8.509 8.509 0 0 1-6.032 2.5zm-34.133 93.866a8.509 8.509 0 0 1-6.033-2.5l-29.867-29.867a8.523 8.523 0 0 1 0-12.066l34.133-34.133a8.523 8.523 0 0 1 12.066 0l29.867 29.867a8.523 8.523 0 0 1 0 12.066l-34.133 34.133a8.51 8.51 0 0 1-6.033 2.5zm-17.801-38.4l17.801 17.801 22.067-22.067-17.801-17.801-22.067 22.067z"/><path d="M362.669 147.046a8.509 8.509 0 0 1-6.033-2.5l-29.867-29.867a8.523 8.523 0 0 1 0-12.066l17.067-17.067a8.497 8.497 0 0 1 6.033-2.5h25.6c11.409 0 22.118 4.446 30.174 12.501a8.53 8.53 0 0 1-.009 12.066l-36.932 36.932a8.507 8.507 0 0 1-6.033 2.501zm-17.801-38.4l17.801 17.801 23.842-23.842a25.483 25.483 0 0 0-11.042-2.492h-22.067l-8.534 8.533zm64.734 145.067h-68.267a8.497 8.497 0 0 1-6.033-2.5l-8.533-8.533a8.523 8.523 0 0 1 0-12.066l64-64a8.523 8.523 0 0 1 12.066 0l12.8 12.8a8.497 8.497 0 0 1 2.5 6.033v59.733a8.526 8.526 0 0 1-8.533 8.533zm-64.734-17.067h44.134l-22.067-22.067-22.067 22.067zm34.134-34.133l22.067 22.067v-35.601l-4.267-4.267-17.8 17.801z"/><path d="M341.335 253.713h-17.067a8.526 8.526 0 0 1-7.885-5.265 8.53 8.53 0 0 1 1.852-9.301l8.533-8.533a8.523 8.523 0 0 1 12.066 0l8.533 8.533a8.533 8.533 0 0 1 1.852 9.301 8.523 8.523 0 0 1-7.884 5.265zm68.267-59.733a8.535 8.535 0 0 1-6.033-2.5l-12.8-12.8a8.523 8.523 0 0 1 0-12.066l12.8-12.8a8.502 8.502 0 0 1 9.301-1.852 8.525 8.525 0 0 1 5.265 7.885v25.6a8.526 8.526 0 0 1-8.533 8.533zm-106.667-46.934a8.509 8.509 0 0 1-6.033-2.5l-36.932-36.932a8.53 8.53 0 0 1-.009-12.066c8.055-8.064 18.765-12.501 30.174-12.501h25.6c2.27 0 4.437.896 6.033 2.5l17.067 17.067a8.523 8.523 0 0 1 0 12.066l-29.867 29.867a8.51 8.51 0 0 1-6.033 2.499zm-23.842-44.441l23.842 23.842 17.801-17.801-8.533-8.533h-22.067c-3.883 0-7.646.853-11.043 2.492z"/><path d="M324.269 253.713h-68.267a8.525 8.525 0 0 1-8.533-8.533v-59.733c0-2.27.896-4.437 2.5-6.033l12.8-12.8a8.523 8.523 0 0 1 12.066 0l64 64a8.523 8.523 0 0 1 0 12.066l-8.533 8.533a8.535 8.535 0 0 1-6.033 2.5zm-47.667-17.067h44.134l-22.067-22.067-22.067 22.067zm-12.067-47.667v35.601l22.067-22.067-17.801-17.801-4.266 4.267z"/><path d="M268.802 181.18a8.509 8.509 0 0 1-6.033-2.5l-12.8-12.8a8.51 8.51 0 0 1-2.5-6.033v-34.133c0-11.409 4.446-22.118 12.501-30.174 3.337-3.319 8.73-3.328 12.066.009l36.932 36.932a8.523 8.523 0 0 1 0 12.066l-34.133 34.133a8.513 8.513 0 0 1-6.033 2.5zm-4.267-24.867l4.267 4.267 22.067-22.067-23.842-23.842a25.483 25.483 0 0 0-2.492 11.042v30.6z"/><path d="M256.002 193.98a8.535 8.535 0 0 1-8.533-8.534v-25.6a8.526 8.526 0 0 1 5.265-7.885 8.527 8.527 0 0 1 9.301 1.852l12.8 12.8a8.523 8.523 0 0 1 0 12.066l-12.8 12.8a8.536 8.536 0 0 1-6.033 2.501zm0 59.733h153.601c4.224 0 7.561-3.115 8.252-7.134H247.75c.692 4.019 4.028 7.134 8.252 7.134z"/></g><path d="M115.202 211.046c-35.345 0-64-28.655-64-64v-4.267h128v4.267c0 35.345-28.655 64-64 64z" fill="#89b140"/><path d="M72.706 142.78c.009 17.613 10.82 34.108 28.382 40.26 22.238 7.799 46.583-3.908 54.383-26.146 1.638-4.676 2.236-9.429 2.236-14.123H72.706v.009z" fill="#fbb540"/><g fill="#dbdbdb"><path d="M256.011 501.18h-.026c-65.527 0-122.991-43.759-140.416-106.931L76.802 253.713a8.536 8.536 0 0 1 8.533-8.533h341.333a8.536 8.536 0 0 1 8.533 8.533l-38.767 140.535C379.01 457.421 321.547 501.18 256.011 501.18z"/><path d="M324.269 304.913a8.525 8.525 0 0 1-8.533-8.533 8.525 8.525 0 0 1 8.533-8.533h93.867c2.782 0 5.137 1.417 6.69 3.473l10.377-37.606a8.536 8.536 0 0 0-8.533-8.533H85.335a8.536 8.536 0 0 0-8.533 8.533l38.767 140.535c17.425 63.172 74.889 106.931 140.416 106.931h.026c65.527 0 122.991-43.759 140.416-106.931l5.879-21.325c-.427.068-.802.247-1.246.247h-42.667a8.525 8.525 0 0 1-8.533-8.533 8.525 8.525 0 0 1 8.533-8.533h42.667c2.048 0 3.857.819 5.325 2.022l5.385-19.524c-.708.196-1.408.444-2.185.444h-68.267a8.525 8.525 0 0 1-8.533-8.533 8.525 8.525 0 0 1 8.533-8.533h68.267c2.381 0 4.523.981 6.067 2.543l5.581-20.241c-.973.384-2.014.631-3.115.631l-93.849-.001z"/></g><path d="M384.267 424.38H127.738c24.96 46.498 73.779 76.8 128.256 76.8h.026c54.476 0 103.287-30.302 128.247-76.8zm33.868-136.534h-93.867a8.525 8.525 0 0 0-8.533 8.533 8.525 8.525 0 0 0 8.533 8.533h93.867c1.109 0 2.15-.247 3.115-.631l3.575-12.962c-1.552-2.056-3.908-3.473-6.69-3.473zm-8.533 34.134h-68.267a8.525 8.525 0 0 0-8.533 8.533 8.525 8.525 0 0 0 8.533 8.533h68.267c.777 0 1.468-.247 2.185-.444l3.883-14.08a8.476 8.476 0 0 0-6.068-2.542zm-51.2 34.133c-4.719 0-8.533 3.814-8.533 8.533s3.814 8.533 8.533 8.533h42.667c.444 0 .819-.188 1.246-.247l4.079-14.797c-1.468-1.203-3.277-2.022-5.325-2.022h-42.667z" fill="#b9b9b9"/><circle cx="102.402" cy="407.287" r="93.867" fill="#f26f41"/><path d="M102.402 458.513c44.544 0 81.758-31.061 91.375-72.687-7.629-32.299-32.171-59.554-66.415-69.001-49.971-13.79-101.666 15.548-115.447 65.527-.341 1.237-.538 2.483-.828 3.721 9.711 41.498 46.856 72.44 91.315 72.44z" fill="#f27332"/><path d="M68.269 398.754h17.067v17.067H68.269zm0 51.2h17.067v17.067H68.269zm0-102.374h17.067v17.067H68.269zm-25.6 25.6h17.067v17.067H42.669zm0 51.174h17.067v17.067H42.669z" fill="#d85021"/><path d="M416.062 499.959l-245.265 1.22c-9.788.051-17.988-7.398-18.876-17.152-.862-9.549 5.564-18.227 14.95-20.164l240.427-49.809c19.959-4.139 39.074 10.035 40.917 30.336l1.664 18.347c1.818 19.925-13.815 37.12-33.817 37.222z" fill="#f26b32"/><g fill="#79a73a"><path d="M449.393 465.809a8.545 8.545 0 0 1-7.91-5.333 8.53 8.53 0 0 1 2.551-9.839l47.906-38.613c3.695-2.97 9.054-2.381 11.998 1.28 2.961 3.678 2.381 9.045-1.28 11.998l-25.967 20.932 22.929-2.082c4.625-.461 8.841 3.038 9.267 7.723a8.531 8.531 0 0 1-7.731 9.276l-50.987 4.625a8.633 8.633 0 0 1-.776.033z"/><path d="M503.46 495.181a8.578 8.578 0 0 1-4.07-1.033l-54.076-29.363c-4.139-2.253-5.675-7.433-3.422-11.571a8.543 8.543 0 0 1 11.571-3.422l54.076 29.363c4.139 2.253 5.675 7.433 3.422 11.571a8.54 8.54 0 0 1-7.501 4.455z"/></g><path d="M448.224 444.39c-1.843-20.301-20.958-34.475-40.917-30.336l-67.669 14.02c.99 1.391 1.698 2.995 1.698 4.838v17.067a8.525 8.525 0 0 1-8.533 8.533 8.525 8.525 0 0 1-8.533-8.533v-17.067c0-.614.222-1.152.35-1.732l-55.825 11.563c2.509 1.485 4.275 4.105 4.275 7.236v8.533a8.525 8.525 0 0 1-8.533 8.533 8.525 8.525 0 0 1-8.533-8.533v-8.533c0-1.886.734-3.533 1.766-4.949l-90.889 18.825c-9.387 1.946-15.821 10.624-14.95 20.164.887 9.754 9.079 17.203 18.876 17.152l51.063-.247V475.58c0-4.719 3.814-8.533 8.533-8.533s8.533 3.814 8.533 8.533v25.259l56.653-.282c-3.183-1.237-5.453-4.284-5.453-7.91v-25.6a8.525 8.525 0 0 1 8.533-8.533 8.525 8.525 0 0 1 8.533 8.533v25.6c0 3.567-2.193 6.605-5.299 7.885l61.278-.307c-2.807-1.399-4.779-4.224-4.779-7.578v-25.6c0-4.719 3.814-8.533 8.533-8.533s8.533 3.814 8.533 8.533v25.6c0 3.328-1.954 6.127-4.727 7.535l45.321-.222c20.002-.102 35.635-17.297 33.826-37.214l-1.664-18.356z" fill="#f26b32"/><path d="M230.402 467.046a8.525 8.525 0 0 0-8.533 8.533v25.344l17.067-.085V475.58a8.527 8.527 0 0 0-8.534-8.534zm76.8 25.6v-25.6a8.525 8.525 0 0 0-8.533-8.533 8.525 8.525 0 0 0-8.533 8.533v25.6c0 3.627 2.27 6.673 5.453 7.91l6.315-.034c3.105-1.271 5.298-4.309 5.298-7.876zm68.267 0v-25.6c0-4.719-3.814-8.533-8.533-8.533s-8.533 3.814-8.533 8.533v25.6c0 3.354 1.971 6.178 4.787 7.578l7.552-.034c2.773-1.417 4.727-4.216 4.727-7.544zm-51.2-42.666a8.525 8.525 0 0 0 8.533 8.533 8.525 8.525 0 0 0 8.533-8.533v-17.067c0-1.843-.708-3.447-1.698-4.847l-15.027 3.115c-.119.58-.341 1.118-.341 1.732v17.067zm-68.267 8.533a8.525 8.525 0 0 0 8.533 8.533 8.525 8.525 0 0 0 8.533-8.533v-8.533c0-3.132-1.766-5.751-4.275-7.236l-11.025 2.287c-1.033 1.408-1.766 3.063-1.766 4.949v8.533z" fill="#d85021"/><g fill="#79a73a"><path d="M125.877 67.703l-6.724-15.693 21.769-9.327L126.1 26.017l12.757-11.341 22.673 25.515a8.518 8.518 0 0 1 1.954 7.526 8.526 8.526 0 0 1-4.958 5.982l-32.649 14.004z"/><path d="M180.281 19.345l-21.99 38.169-14.78-8.515 21.99-38.17z"/></g><path d="M238.935 290.748c0-10.069-7.637-18.227-17.067-18.227-9.429 0-17.067 8.158-17.067 18.227s-7.637 18.227-17.067 18.227c-9.429 0-17.067-8.158-17.067-18.227V245.18h119.466v63.795c0 7.074-11.46 21.538-25.6 21.538s-25.6-14.464-25.6-21.538v-18.227z" fill="#f9e0a0"/><path d="M191.942 117.197c-6.059 0-12.1-1.886-17.331-5.658l-27.58-19.917c-7.245-5.231-11.187-13.679-10.539-22.588s5.76-16.708 13.687-20.847l4.813-2.517 3.055-4.48c5.043-7.373 13.278-11.46 22.306-11.145 8.926.41 16.862 5.316 21.205 13.124l16.538 29.713c6.835 12.288 4.267 27.401-6.238 36.745l-.009-.009c-5.81 5.044-12.875 7.579-19.907 7.579z" fill="#c7463b"/><path d="M230.402 467.046a8.525 8.525 0 0 1 8.533 8.533h51.2v-8.533a8.525 8.525 0 0 1 8.533-8.533 8.525 8.525 0 0 1 8.533 8.533v8.533h51.2v-8.533c0-4.719 3.814-8.533 8.533-8.533s8.533 3.814 8.533 8.533v8.533h73.028c1.212-4.045 1.801-8.354 1.391-12.834l-1.664-18.355c-1.843-20.301-20.958-34.475-40.917-30.336l-67.669 14.02c.99 1.391 1.698 2.995 1.698 4.838v17.067a8.525 8.525 0 0 1-8.533 8.533 8.525 8.525 0 0 1-8.533-8.533v-17.067c0-.614.222-1.152.35-1.732l-55.825 11.563c2.509 1.485 4.275 4.105 4.275 7.236v8.533a8.525 8.525 0 0 1-8.533 8.533 8.525 8.525 0 0 1-8.533-8.533v-8.533c0-1.886.734-3.533 1.766-4.949l-90.889 18.825c-6.468 1.34-11.46 5.905-13.705 11.725h68.693a8.529 8.529 0 0 1 8.535-8.534z" fill="#f27332"/><path d="M499.39 494.148a8.556 8.556 0 0 0 11.579-3.421c2.253-4.139.717-9.327-3.422-11.571l-6.571-3.567h-35.772l34.186 18.559z" fill="#6f9935"/></svg>