<svg xmlns="http://www.w3.org/2000/svg" viewBox="0 0 496 496"><g fill="#ffa64d"><path d="M271.885 416l-12.856-46.024C245.317 373.8 230.933 376 216.005 376c-88.368 0-160-71.632-160-160s71.632-160 160-160 160 71.632 160 160c0 12.872-1.68 25.32-4.552 37.304L416.005 264l2.24.56c3.728-15.584 5.76-31.832 5.76-48.56 0-114.872-93.128-208-208-208s-208 93.128-208 208 93.128 208 208 208c19.392 0 38.144-2.712 55.96-7.68l-.08-.32zm199.304-104h-14.208c-6.872 0-13.048 4.216-15.6 10.656-14.488 36.544-38.768 68.008-69.8 91.064l-13.704 9.36a208.174 208.174 0 0 1-16.608 9.36l-3.968 2c-5.704 2.872-9.296 8.744-9.296 15.16v21.424c0 12.6 13.144 20.792 24.312 15.16 60.088-30.312 107.064-81.824 132.024-144.768l2.448-6.176c4.408-11.128-3.712-23.24-15.6-23.24z"/><path d="M224.005 120c-13.232 0-24-10.768-24-24s10.768-24 24-24 24 10.768 24 24-10.768 24-24 24zm-80 32c-13.232 0-24-10.768-24-24s10.768-24 24-24 24 10.768 24 24-10.768 24-24 24zm-40 104c-13.232 0-24-10.768-24-24s10.768-24 24-24 24 10.768 24 24-10.768 24-24 24zm96 64c-13.232 0-24-10.768-24-24s10.768-24 24-24 24 10.768 24 24-10.768 24-24 24zm96-104c-13.232 0-24-10.768-24-24s10.768-24 24-24 24 10.768 24 24-10.768 24-24 24z"/></g><g fill="#333"><path d="M491.661 314.872c-4.624-6.808-12.28-10.872-20.472-10.872h-14.208c-2.248 0-4.416.344-6.504.912l.16-.464-173.848-60.472c-9.032-3.152-19.264-.808-26.04 5.968-7.368 7.368-9.424 18.688-5.112 28.176l75.088 165.184.12-.056c-.528 2.048-.84 4.176-.84 6.36v21.424c0 8.76 4.432 16.712 11.856 21.288 3.984 2.448 8.448 3.68 12.928 3.68 3.792 0 7.6-.888 11.128-2.664 61.912-31.232 110.16-84.136 135.856-148.96l2.448-6.176a25.021 25.021 0 0 0-2.56-23.328zm-12.312 17.424l-2.448 6.176c-24.256 61.184-69.776 111.112-128.184 140.576-2.752 1.392-5.84 1.248-8.464-.36-2.704-1.664-4.248-4.456-4.248-7.664V449.6c0-3.424 1.872-6.496 4.888-8.016l3.976-2a217.056 217.056 0 0 0 17.248-9.72l-8.488-13.56a204.22 204.22 0 0 1-15.968 9l-3.968 2c-.736.368-1.416.816-2.104 1.248l-71.384-157.048a9.172 9.172 0 0 1 1.856-10.24c2.464-2.464 6.184-3.32 9.472-2.168l164.144 57.096a26.256 26.256 0 0 0-1.736 3.528c-13.864 34.976-37.08 65.264-67.136 87.592l9.536 12.84c32.448-24.104 57.504-56.8 72.472-94.544 1.344-3.4 4.552-5.6 8.16-5.6h14.208c2.936 0 5.568 1.408 7.24 3.864 1.72 2.512 2.056 5.584.928 8.424z"/><path d="M368.005 320h16v16h-16zm-16 48h16v16h-16z"/><path d="M414.085 271.768l7.608 1.624 2.088-7.48c4.952-17.768 8.224-29.504 8.224-49.912 0-119.104-96.896-216-216-216s-216 96.896-216 216 96.896 216 216 216c18.768 0 38.296-2.792 58.024-8.296l7.712-2.152-54.768-196.024 187.112 46.24zm-179.824-86.104l-14.296 14.752-37.08-132.672C193.565 65.36 204.621 64 216.005 64c38.176 0 73.016 14.256 99.744 37.584l-70.112 72.344 11.496 11.136 70.088-72.328c25.224 27.144 40.784 63.376 40.784 103.264 0 9.184-.856 18.32-2.48 27.288l-132.976-32.856 13.208-13.624-11.496-11.144zm-129.472 133.6C79.565 292.12 64.005 255.888 64.005 216a151.81 151.81 0 0 1 3-29.992l134.672 33.28-96.888 99.976zM167.493 72.08l36.696 131.336-133.216-32.912c14.544-46.248 50.688-82.928 96.52-98.424zM216.005 416c-110.28 0-200-89.72-200-200s89.72-200 200-200 200 89.72 200 200c0 15.512-1.968 24.872-5.64 38.368l-29.264-7.232A168.776 168.776 0 0 0 384.005 216c0-92.64-75.36-168-168-168s-168 75.36-168 168 75.36 168 168 168c12.648 0 25.208-1.488 37.432-4.272l8.544 30.584c-15.664 3.776-31.104 5.688-45.976 5.688zm33.128-51.696c-10.824 2.4-21.928 3.696-33.128 3.696-38.176 0-73.016-14.256-99.744-37.584l95.784-98.84 37.088 132.728z"/><path d="M152.005 224h16v16h-16zm-48 40h16v16h-16zm-8-120h16v16h-16zm72 32h16v16h-16zm48-32h16v16h-16zm48-32h16v16h-16zm80 80h16v16h-16zm-192 128h16v16h-16zm56 16h16v16h-16zm112-192h16v16h-16z"/></g><path d="M320.005 336c-13.232 0-24-10.768-24-24s10.768-24 24-24 24 10.768 24 24-10.768 24-24 24z" fill="#ffa64d"/></svg>