<svg xmlns="http://www.w3.org/2000/svg" viewBox="0 0 512 512"><path fill="#ebba16" d="M105.931 70.621v370.758h300.138V70.621z"/><path d="M377.238 512H134.762c-15.925 0-28.831-12.906-28.831-28.831v-41.79h300.138v41.79c0 15.925-12.906 28.831-28.831 28.831z" fill="#e7eced"/><path d="M282.483 485.517h-52.966a8.826 8.826 0 0 1-8.828-8.828 8.826 8.826 0 0 1 8.828-8.828h52.966a8.826 8.826 0 0 1 8.828 8.828 8.826 8.826 0 0 1-8.828 8.828zm79.448 0h-35.31a8.826 8.826 0 0 1-8.828-8.828 8.826 8.826 0 0 1 8.828-8.828h35.31a8.826 8.826 0 0 1 8.828 8.828 8.826 8.826 0 0 1-8.828 8.828zm-176.552 0h-35.31a8.826 8.826 0 0 1-8.828-8.828 8.826 8.826 0 0 1 8.828-8.828h35.31a8.826 8.826 0 0 1 8.828 8.828 8.826 8.826 0 0 1-8.828 8.828z" fill="#afb6bb"/><path d="M134.762 0h242.485c15.916 0 28.822 12.906 28.822 28.831v41.79H105.931v-41.79C105.931 12.906 118.837 0 134.762 0z" fill="#e7eced"/><path d="M300.138 44.138h-88.276c-4.873 0-8.828-3.946-8.828-8.828s3.955-8.828 8.828-8.828h88.276c4.873 0 8.828 3.946 8.828 8.828s-3.955 8.828-8.828 8.828z" fill="#afb6bb"/><path fill="#23a24d" d="M0 123.586h229.517v158.897H0z"/><path d="M491.476 388.414H303.007c-11.335 0-20.524-9.19-20.524-20.524v-91.366c0-11.335 9.19-20.524 20.524-20.524h188.469C502.81 256 512 265.19 512 276.524v91.366c0 11.334-9.19 20.524-20.524 20.524z" fill="#366db6"/><g fill="#187f38"><circle cx="114.759" cy="203.034" r="35.31"/><path d="M0 176.552v-52.966h52.966c0 29.255-23.711 52.966-52.966 52.966zm229.517 0v-52.966h-52.966c.001 29.255 23.712 52.966 52.966 52.966zm0 52.965v52.966h-52.966c.001-29.255 23.712-52.966 52.966-52.966zM0 229.517v52.966h52.966c0-29.255-23.711-52.966-52.966-52.966z"/></g><path d="M512 282.483H282.483v-32.441c0-11.335 9.19-20.524 20.524-20.524h188.469c11.335 0 20.524 9.19 20.524 20.524v32.441z" fill="#1f436d"/><path d="M353.103 353.103h-35.31a8.826 8.826 0 0 1-8.828-8.828 8.826 8.826 0 0 1 8.828-8.828h35.31a8.826 8.826 0 0 1 8.828 8.828 8.825 8.825 0 0 1-8.828 8.828zm123.587 0h-35.31a8.826 8.826 0 0 1-8.828-8.828 8.826 8.826 0 0 1 8.828-8.828h35.31a8.826 8.826 0 0 1 8.828 8.828 8.826 8.826 0 0 1-8.828 8.828zm-70.621 0h-17.655a8.826 8.826 0 0 1-8.828-8.828 8.826 8.826 0 0 1 8.828-8.828h17.655a8.826 8.826 0 0 1 8.828 8.828 8.825 8.825 0 0 1-8.828 8.828z" fill="#fff"/><g fill="#366db6"><path d="M44.138 414.897a8.826 8.826 0 0 1-8.828-8.828v-79.448c0-4.882 3.955-8.828 8.828-8.828s8.828 3.946 8.828 8.828v79.448a8.826 8.826 0 0 1-8.828 8.828z"/><path d="M17.655 361.931c-2.26 0-4.52-.865-6.241-2.586a8.817 8.817 0 0 1 0-12.482l26.483-26.483a8.817 8.817 0 0 1 12.482 0 8.817 8.817 0 0 1 0 12.482l-26.483 26.483a8.803 8.803 0 0 1-6.241 2.586z"/><path d="M70.621 361.931c-2.26 0-4.52-.865-6.241-2.586l-26.483-26.483a8.817 8.817 0 0 1 0-12.482 8.817 8.817 0 0 1 12.482 0l26.483 26.483a8.817 8.817 0 0 1 0 12.482 8.805 8.805 0 0 1-6.241 2.586z"/></g><g fill="#dd352e"><path d="M467.862 194.207a8.826 8.826 0 0 1-8.828-8.828v-79.448c0-4.882 3.955-8.828 8.828-8.828s8.828 3.946 8.828 8.828v79.448a8.826 8.826 0 0 1-8.828 8.828z"/><path d="M467.862 194.207c-2.26 0-4.52-.865-6.241-2.586a8.817 8.817 0 0 1 0-12.482l26.483-26.483a8.817 8.817 0 0 1 12.482 0 8.817 8.817 0 0 1 0 12.482l-26.483 26.483a8.803 8.803 0 0 1-6.241 2.586z"/><path d="M467.862 194.207c-2.26 0-4.52-.865-6.241-2.586l-26.483-26.483a8.817 8.817 0 0 1 0-12.482 8.817 8.817 0 0 1 12.482 0l26.483 26.483a8.817 8.817 0 0 1 0 12.482 8.803 8.803 0 0 1-6.241 2.586z"/></g></svg>