<svg xmlns="http://www.w3.org/2000/svg" viewBox="0 0 502.596 502.596"><path d="M492.147 349.518V237.714c0-5.224-2.09-10.449-6.269-14.629l-57.469-57.469c-4.18-4.18-8.359-6.269-14.629-6.269h-64.784v190.171h143.151z" fill="#ffd15c"/><path fill="#fff" d="M467.069 258.612v-18.808l-55.379-55.38h-37.617v74.188z"/><path d="M328.098 74.71H30.302c-11.494 0-20.898 9.404-20.898 20.898v253.91h339.592V95.608c0-11.494-9.404-20.898-20.898-20.898z" fill="#f2f2f2"/><g fill="#fff"><circle cx="425.273" cy="372.506" r="15.673"/><circle cx="97.176" cy="372.506" r="15.673"/></g><path fill="#acb3ba" d="M51.2 157.257h257.045v132.702H51.2z"/><path fill="#40596b" d="M39.706 289.959h278.988v10.449H39.706z"/><path d="M24.033 146.808v18.808c0 16.718 13.584 31.347 31.347 31.347s31.347-13.584 31.347-31.347v-18.808H24.033z" fill="#f1543f"/><path d="M86.727 146.808v18.808c0 16.718 13.584 31.347 31.347 31.347s31.347-13.584 31.347-31.347v-18.808H86.727z" fill="#cdd6e0"/><path d="M148.376 146.808v18.808c0 16.718 13.584 31.347 31.347 31.347 16.718 0 31.347-13.584 31.347-31.347v-18.808h-62.694z" fill="#f1543f"/><path d="M210.024 146.808v18.808c0 16.718 13.584 31.347 31.347 31.347 16.718 0 31.347-13.584 31.347-31.347v-18.808h-62.694z" fill="#cdd6e0"/><path d="M272.718 146.808v18.808c0 16.718 13.584 31.347 31.347 31.347 16.718 0 31.347-13.584 31.347-31.347v-18.808h-62.694z" fill="#f1543f"/><path fill="#ff7058" d="M86.727 146.808H24.033l35.526-35.526h48.065z"/><path fill="#e2e2e2" d="M148.376 146.808H86.727l20.897-35.526h48.066z"/><path fill="#ff7058" d="M210.024 146.808h-61.648l7.314-35.526h48.065z"/><path fill="#e2e2e2" d="M272.718 146.808h-62.694l-6.269-35.526h48.065z"/><path fill="#ff7058" d="M334.367 146.808h-61.649l-20.898-35.526h47.021z"/><path d="M495.282 349.518H6.269c-3.135 0-6.269 2.09-6.269 6.269v27.167c0 3.135 2.09 6.269 6.269 6.269h490.057c3.135 0 6.269-2.09 6.269-6.269v-27.167c-1.044-3.134-3.134-6.269-7.313-6.269z" fill="#84dbff"/><circle cx="421.094" cy="372.506" r="55.38" fill="#40596b"/><circle cx="421.094" cy="372.506" r="29.257" fill="#e2e2e2"/><circle cx="99.265" cy="372.506" r="55.38" fill="#40596b"/><circle cx="99.265" cy="372.506" r="29.257" fill="#e2e2e2"/></svg>