<svg data-name="Capa 1" xmlns="http://www.w3.org/2000/svg" viewBox="0 0 372.91 463"><title>bell-pepper</title><path d="M294.44 67.67a87.68 87.68 0 0 0-59.86 10.86c-.41-.27-.82-.56-1.24-.82A87 87 0 0 0 208.95 67c5.24-22.39 2-44.06-.62-55.7A14.17 14.17 0 0 0 194.56 0h-26.43a14.13 14.13 0 0 0-12.49 7.74 15 15 0 0 0 .95 15.62c6.46 9.27 14 23.76 15.39 41.82a87.47 87.47 0 0 0-33.82 13.24 87.66 87.66 0 0 0-59.7-10.76C27.58 76.75-7.05 129 1.22 184.06c20.11 133.66 59.45 236 102.67 267 9.19 6.59 18.41 9.91 27.49 9.91a37.38 37.38 0 0 0 6.57-.58 41.3 41.3 0 0 0 20.84-10.81c8.55 8.94 17.74 13.45 27.5 13.45s19-4.56 27.64-13.6c6.36 5.92 13.41 9.6 21 11a37.29 37.29 0 0 0 6.57.58c9.09 0 18.31-3.32 27.49-9.91 43.22-31 82.56-133.31 102.67-267 8.29-55.1-26.34-107.34-77.22-116.43zM193.76 15c1.93 8.7 5.29 29.07.35 49.36q-3.55-.36-7.16-.36c-1.59-21.27-10.4-38.2-17.93-49zm163.09 166.83c-19.23 127.84-57.14 228.72-96.58 257-8 5.74-15.62 8-22.68 6.75-5-.9-9.86-3.63-14.36-8.08a162 162 0 0 0 13.92-27.16 7.5 7.5 0 1 0-13.87-5.71c-11.5 28-24.63 43.35-37 43.35s-25.45-15.38-36.95-43.32a7.5 7.5 0 1 0-13.87 5.71 161.42 161.42 0 0 0 14 27.3c-4.44 4.35-9.2 7-14.18 7.9-7.06 1.26-14.69-1-22.69-6.75-39.44-28.3-77.35-129.18-96.58-257-7.09-47.13 22.09-91.72 65-99.39a72.44 72.44 0 0 1 44.32 6.21 87.41 87.41 0 0 0-19.34 27.84 7.5 7.5 0 1 0 13.74 6 72.53 72.53 0 0 1 131.71-2.66 7.5 7.5 0 0 0 13.49-6.56 87.61 87.61 0 0 0-17.75-24.53 72.48 72.48 0 0 1 44.52-6.31c43.06 7.69 72.25 52.28 65.15 99.41z"/><path d="M112.35 271a7.5 7.5 0 0 0 6.72-8.21c-.52-5.2-1-10.55-1.46-15.88a7.501 7.501 0 1 0-14.95 1.25c.45 5.41.95 10.84 1.48 16.12a7.5 7.5 0 0 0 7.45 6.76q.36-.04.76-.04zm11.6 31.4a7.501 7.501 0 1 0-14.84 2.2 603.54 603.54 0 0 0 12.93 64.8 7.502 7.502 0 1 0 14.51-3.82 588.8 588.8 0 0 1-12.6-63.18zM266.3 144a7.5 7.5 0 0 0-7.5 7.5c0 5.3 0 10.65-.1 15.9a7.5 7.5 0 0 0 7.4 7.6h.1a7.5 7.5 0 0 0 7.5-7.4c.07-5.32.1-10.74.1-16.1a7.5 7.5 0 0 0-7.5-7.5zm-.63 48a7.51 7.51 0 0 0-7.79 7.2c-1.32 33.7-4 65.76-8.1 95.27a7.5 7.5 0 0 0 6.41 8.45 7.64 7.64 0 0 0 1 .07 7.5 7.5 0 0 0 7.42-6.48c4.12-30 6.89-62.54 8.23-96.73a7.5 7.5 0 0 0-7.17-7.78z"/></svg>