<svg data-name="Capa 1" xmlns="http://www.w3.org/2000/svg" viewBox="0 0 512 486.07"><title>berries</title><path d="M399.45 205.55c-1.37 0-2.77 0-4.17.08a112.76 112.76 0 0 0-48.82-29.54c4.22-44.13-15.3-86.35-34.62-116.31a7.66 7.66 0 0 0-12.84 8.3c17.65 27.36 35.49 65.46 32.42 104.64a112.15 112.15 0 0 0-64.6 9.31v-13.69l36.81-36.81a7.87 7.87 0 0 0 .39-10.88 7.66 7.66 0 0 0-11-.17l-26.21 26.21v-41a7.87 7.87 0 0 0-7.42-8 7.66 7.66 0 0 0-7.89 7.65v41.33l-26.2-26.19a7.65 7.65 0 0 0-10.82 10.82l37 37v22.41a113.44 113.44 0 0 0-33.68 35.72c-1.17-31.7-10.91-58.82-29.22-81l-.57-.67c8.8-58.41 55.44-110.29 71.16-126.35 4.08 4.15 10.24 10.7 17.24 19.11a7.65 7.65 0 0 0 10.64 1.09 7.67 7.67 0 0 0 1.1-10.91 288.1 288.1 0 0 0-23.8-25.67 7.65 7.65 0 0 0-10.35 0c-2.74 2.52-63.26 58.88-79 129.26-23.92-21.43-57.74-36.8-99.07-44.83a323.89 323.89 0 0 0-68.47-6A7.65 7.65 0 0 0 .1 87.74a324.07 324.07 0 0 0 6 68.47c9.7 49.92 30.09 88.89 59 112.69a124.93 124.93 0 0 0 10.79 7.93c-47.81 39.58-74 97.27-75.2 99.85A7.65 7.65 0 0 0 4 386.51c3 1.66 64.07 35 129.41 35a172.43 172.43 0 0 0 28.07-2.24 112.53 112.53 0 0 0 202.84 5.76 112.79 112.79 0 0 0 91.16-9.32 7.66 7.66 0 0 0-7.77-13.19 97.35 97.35 0 0 1-77.28 8.38 112.52 112.52 0 0 0-56.82-138.55 96.84 96.84 0 0 1 79-51.27c2.3-.15 4.59-.23 6.81-.23A97.25 97.25 0 0 1 476 378.03a7.67 7.67 0 0 0 .84 10.42 7.68 7.68 0 0 0 11.21-1 112.55 112.55 0 0 0-88.65-181.9zM74.87 257.11C42 230.03 27.54 185.89 21.23 153.64a327.18 327.18 0 0 1-5.9-58A326.47 326.47 0 0 1 73 101.48c58.61 11.39 88.8 35.47 103.8 53.67 23.43 28.42 30.95 66.57 22.42 113.54l-23.4-23.4v-68a7.655 7.655 0 0 0-15.31 0v52.69l-33.7-33.7V143.9a7.655 7.655 0 1 0-15.31 0v37.06l-29.26-29.23a7.65 7.65 0 1 0-10.82 10.82l29.23 29.23H63.59a7.655 7.655 0 1 0 0 15.31H116l33.7 33.7H97a7.655 7.655 0 1 0 0 15.31h68l23.4 23.4c-46.98 8.53-85.11 1.02-113.53-22.39zm57.08 73.15l-46-23a7.66 7.66 0 1 0-6.84 13.7l32.33 16.15-52.92 17.66a7.654 7.654 0 1 0 4.85 14.52l54.11-18.06-17 34a7.656 7.656 0 1 0 13.7 6.84L138 344.38l19.49-6.51a112.71 112.71 0 0 0-1.43 66.69C99 412.76 37.59 386.03 17.85 376.41c8.53-16.66 33.81-61.48 72.36-91.46q27.56 13.26 62.41 13.29a208 208 0 0 0 30.2-2.33 113.19 113.19 0 0 0-17 23zm229.58 43.24a97.24 97.24 0 1 1-97.24-97.24 97.35 97.35 0 0 1 97.23 97.25zm-62.16-106.93a112.53 112.53 0 0 0-81.24 4.3 97.24 97.24 0 0 1 157.21-62.72 112.07 112.07 0 0 0-75.97 58.42z"/><path d="M293.54 342.45A35.47 35.47 0 1 0 329 377.92a35.51 35.51 0 0 0-35.46-35.47zm0 55.64a20.16 20.16 0 1 1 20.16-20.16 20.18 20.18 0 0 1-20.16 20.16zm103.87-162.4c-22.94 0-40.24 10.44-40.24 24.29s17.3 24.29 40.24 24.29 40.24-10.44 40.24-24.24-17.3-24.34-40.24-24.34zM417 264.93c-5 2.57-12.15 4-19.56 4s-14.54-1.47-19.56-4c-3.94-2-5.37-4.06-5.37-4.95s1.43-2.93 5.37-4.95c5-2.57 12.15-4 19.56-4s14.54 1.47 19.56 4c3.94 2 5.37 4.06 5.37 4.95s-1.46 2.94-5.37 4.95z"/></svg>