<svg id="Capa_1" data-name="Capa 1" xmlns="http://www.w3.org/2000/svg" viewBox="0 0 512 491.36"><defs><style>.cls-1{fill:#c882ff}</style></defs><title>cheese</title><path class="cls-1" d="M448.75 63.35c-40.38-33.88-94.07-52.71-151.17-53h-.07a12.52 12.52 0 0 0-6.46 1.8l-287.42 173-.08.05a7.36 7.36 0 0 0-.89.64l-.12.11a7.56 7.56 0 0 0-.71.72l-.09.09a7.6 7.6 0 0 0-.61.86l-.11.18a7.48 7.48 0 0 0-.47.95v.13a7.32 7.32 0 0 0-.3 1v.13A7.6 7.6 0 0 0 0 191v92.64a12.46 12.46 0 0 0 11.38 12.46 40.91 40.91 0 0 1 0 81.46A12.46 12.46 0 0 0 0 390v99.19a12.51 12.51 0 0 0 12.49 12.49h109.58a7.5 7.5 0 0 0 0-15H15v-94.45a55.91 55.91 0 0 0 0-110.81v-82.35h482v31.3a7.5 7.5 0 0 0 15 0v-38.8c0-48.46-22.46-94-63.25-128.22zM34.48 184.08L298.19 25.32c53.36.44 103.38 18 140.92 49.52 35.2 29.54 55.49 68.09 57.69 109.24zm470.02 85.6a7.5 7.5 0 0 0-7.5 7.5v209.51h-43.18a86.07 86.07 0 0 0-171.46 0H169.54a7.5 7.5 0 0 0 0 15h115.15A12.47 12.47 0 0 0 297.15 490 71.08 71.08 0 0 1 439 490a12.47 12.47 0 0 0 12.47 11.67h48A12.51 12.51 0 0 0 512 489.19v-212a7.49 7.49 0 0 0-7.5-7.51z" transform="translate(0 -10.32)"/><path class="cls-1" d="M430.65 294.31a37.55 37.55 0 1 0 37.55 37.55 37.59 37.59 0 0 0-37.55-37.55zm0 60.11a22.56 22.56 0 1 1 22.56-22.56 22.59 22.59 0 0 1-22.56 22.56zM89.18 402.86a30.26 30.26 0 1 0 30.25 30.26 30.29 30.29 0 0 0-30.25-30.26zm0 45.52a15.26 15.26 0 1 1 15.26-15.26 15.28 15.28 0 0 1-15.26 15.26zm101.67-184.76a30.25 30.25 0 1 0 30.26 30.26 30.29 30.29 0 0 0-30.26-30.26zm0 45.52a15.26 15.26 0 1 1 15.26-15.26 15.28 15.28 0 0 1-15.26 15.26z" transform="translate(0 -10.32)"/><circle class="cls-1" cx="370.78" cy="233.55" r="8.5"/><circle class="cls-1" cx="200.8" cy="429.01" r="8.5"/><circle class="cls-1" cx="461.53" cy="400.77" r="8.5"/><circle class="cls-1" cx="167.58" cy="358.2" r="8.5"/><circle class="cls-1" cx="302.38" cy="260.72" r="8.5"/><circle class="cls-1" cx="280.48" cy="349.71" r="8.5"/><circle class="cls-1" cx="89.09" cy="240.37" r="8.5"/><circle class="cls-1" cx="120.23" cy="358.2" r="8.5"/><circle class="cls-1" cx="412.24" cy="259.03" r="8.5"/></svg>