<svg id="Capa_1" data-name="Capa 1" xmlns="http://www.w3.org/2000/svg" viewBox="0 0 512 512"><defs><style>.cls-1{fill:#b655fe}</style></defs><title>clock</title><path class="cls-1" d="M162.13 264.53h60.95a34.06 34.06 0 1 0 41.45-41.45v-86.55a8.53 8.53 0 1 0-17.07 0v86.55a34.09 34.09 0 0 0-24.39 24.39h-60.94a8.53 8.53 0 1 0 0 17.07zm93.87-25.6A17.07 17.07 0 1 1 238.93 256 17.08 17.08 0 0 1 256 238.93zm0-153.6a8.53 8.53 0 0 0 8.53-8.53v-8.53a8.53 8.53 0 1 0-17.07 0v8.53a8.53 8.53 0 0 0 8.54 8.53zm0 341.34a8.53 8.53 0 0 0-8.53 8.53v8.53a8.53 8.53 0 1 0 17.07 0v-8.53a8.53 8.53 0 0 0-8.54-8.53zm179.2-179.2a8.53 8.53 0 1 0 0 17.07h8.53a8.53 8.53 0 1 0 0-17.07zM68.27 264.53h8.53a8.53 8.53 0 1 0 0-17.07h-8.53a8.53 8.53 0 1 0 0 17.07zm360.9-173.16a8.51 8.51 0 0 0 6-2.5l6-6A8.53 8.53 0 0 0 429.1 70.8l-6 6a8.53 8.53 0 0 0 6 14.57zM78 421.88l-6 6A8.53 8.53 0 1 0 84.08 440l6-6A8.53 8.53 0 1 0 78 421.88zM427.91 440A8.53 8.53 0 1 0 440 427.92l-6-6A8.53 8.53 0 1 0 421.88 434zM75 87.1A8.53 8.53 0 1 0 87.1 75l-6-6A8.53 8.53 0 0 0 69 81.07z"/><path class="cls-1" d="M0 0v512h512V0zm494.93 494.93H17.07V17.07h477.86z"/></svg>