<svg id="Capa_1" data-name="Capa 1" xmlns="http://www.w3.org/2000/svg" viewBox="0 0 512 487.89"><defs><style>.cls-1{fill:#c882ff}</style></defs><title>cow</title><path class="cls-1" d="M510.1 122.42a7.5 7.5 0 0 0-10.73-5.42l-89.94 45q-2-7.46-4.69-14.71c41.39-26.45 48.81-60.31 47.6-84.37a111.33 111.33 0 0 0-13.58-47.22 7.5 7.5 0 0 0-13.94 3.75 80.3 80.3 0 0 1-8 30.21c-9.6 19.81-26 33.51-48.69 40.81a158.76 158.76 0 0 0-224.24 0c-22.71-7.29-39.09-21-48.69-40.81a80.3 80.3 0 0 1-8-30.19 7.5 7.5 0 0 0-13.94-3.77 111.33 111.33 0 0 0-13.61 47.23c-1.21 24.06 6.21 57.92 47.6 84.37q-2.71 7.24-4.69 14.71L12.63 117a7.5 7.5 0 0 0-10.73 5.42c-.45 2.51-10.77 61.85 21.84 93.58 12.88 12.52 30.37 18.81 52.26 18.81a140.32 140.32 0 0 0 24-2.23l19.39 126.06a138.71 138.71 0 0 0 56.33 91.51 47.56 47.56 0 0 0 47.51 49.8h65.69a47.56 47.56 0 0 0 47.52-49.79 138.74 138.74 0 0 0 56.33-91.52l19.39-126.05a140.21 140.21 0 0 0 24 2.23c21.84 0 39.34-6.29 52.22-18.82 32.49-31.73 22.17-91.07 21.72-93.58zM97.92 217.71c-28.53 5.08-49.95.9-63.7-12.44-19.74-19.16-20-53.11-18.73-70l83.82 41.91a158.69 158.69 0 0 0-1.39 40.53zM430.61 55.56a97.37 97.37 0 0 0 4-9.76 91.37 91.37 0 0 1 2.75 17.87c1.42 28.25-11.57 51.65-38.64 69.65a158.83 158.83 0 0 0-19.72-30.8c29.33-11.35 44.2-31.36 51.61-46.96zm-353.3-10a97.81 97.81 0 0 0 4.07 10c7.42 15.6 22.28 35.6 51.59 47a158.81 158.81 0 0 0-19.7 30.8c-42.21-28.18-41.91-64.68-35.95-87.75zM313.7 473.43a32.52 32.52 0 0 1-24.86 11.52h-65.68A32.57 32.57 0 0 1 191 447l1.56-9.33a40.46 40.46 0 0 1 40-33.92h46.76a40.46 40.46 0 0 1 40 33.92L321 447a32.54 32.54 0 0 1-7.3 26.43zm84.41-248.67l-20.24 131.6a123.71 123.71 0 0 1-44 76.86 55.4 55.4 0 0 0-54.45-44.44h-46.8a55.4 55.4 0 0 0-54.45 44.44 123.68 123.68 0 0 1-44-76.86l-20.25-131.6a143.61 143.61 0 0 1 13.19-85.52 314.11 314.11 0 0 0 43.07 1c25.92-1.08 48.35-5 66.9-11.73L232.69 146a7.5 7.5 0 0 0 7.31 9.3 7.61 7.61 0 0 0 1.06-.07c2.37-.34 58.39-8.57 91.6-33.49a7.5 7.5 0 0 0-9-12c-21.76 16.32-56 25-73.57 28.61l5.2-20.79a7.5 7.5 0 0 0-10.66-8.56c-37.25 18.63-90.8 17.05-109.39 15.82a143.78 143.78 0 0 1 262.87 99.9zm79.67-19.49c-13.75 13.35-35.17 17.52-63.7 12.44a158.7 158.7 0 0 0-1.4-40.55l83.82-41.91c1.29 16.91 1.02 50.85-18.73 70.02z" transform="translate(0 -12.06)"/><path class="cls-1" d="M191.88 220.45a7.5 7.5 0 0 0-7.5 7.5v8a16.55 16.55 0 1 1-33.09 0v-8a16.56 16.56 0 0 1 16.55-16.55 7.5 7.5 0 0 0 0-15 31.58 31.58 0 0 0-31.54 31.54v8a31.54 31.54 0 1 0 63.09 0v-8a7.5 7.5 0 0 0-7.51-7.49zm176.33 0a7.5 7.5 0 0 0-7.5 7.5v8a16.55 16.55 0 1 1-33.09 0v-8a16.56 16.56 0 0 1 16.55-16.55 7.5 7.5 0 1 0 0-15 31.58 31.58 0 0 0-31.55 31.54v8a31.54 31.54 0 1 0 63.09 0v-8a7.5 7.5 0 0 0-7.5-7.49zM226.94 422.59a7.5 7.5 0 0 0-10.57.88 32.12 32.12 0 0 0-7.95 20.88 7.5 7.5 0 0 0 15 0 17.11 17.11 0 0 1 4.4-11.19 7.5 7.5 0 0 0-.88-10.57zm68.69.89a7.5 7.5 0 1 0-11.45 9.68 17.11 17.11 0 0 1 4.4 11.19 7.5 7.5 0 1 0 15 0 32.11 32.11 0 0 0-7.95-20.87zm60.86-292.92a7.5 7.5 0 0 0-10.49 1.82 137.59 137.59 0 0 1-15.2 18.13 7.5 7.5 0 1 0 10.61 10.61A152.58 152.58 0 0 0 358.32 141a7.5 7.5 0 0 0-1.83-10.44z" transform="translate(0 -12.06)"/></svg>