<svg id="Capa_1" data-name="Capa 1" xmlns="http://www.w3.org/2000/svg" viewBox="0 0 512 443.73"><defs><style>.cls-1{fill:#b14aff}</style></defs><title>delivery-truck</title><path class="cls-1" d="M145.07 85.33A110.93 110.93 0 1 0 256 196.27 111.06 111.06 0 0 0 145.07 85.33zm0 204.8a93.87 93.87 0 1 1 93.87-93.87 94 94 0 0 1-93.87 93.87z" transform="translate(0 -34.13)"/><path class="cls-1" d="M145.07 34.13a34.13 34.13 0 1 0 34.13 34.14 34.17 34.17 0 0 0-34.13-34.14zm0 51.2a17.07 17.07 0 1 1 17.07-17.07 17.08 17.08 0 0 1-17.07 17.07z" transform="translate(0 -34.13)"/><path class="cls-1" d="M136.53 34.13h17.07v25.6h-17.07z"/><path class="cls-1" transform="rotate(-45 27.067 93.858)" d="M59.73 98.86H76.8v24.13H59.73z"/><path class="cls-1" transform="rotate(-45 18.536 85.332)" d="M35.6 93.86h48.27v17.07H35.6z"/><path class="cls-1" transform="rotate(-45 180.654 93.85)" d="M209.8 102.38h24.13v17.07H209.8z"/><path class="cls-1" transform="rotate(-45 189.2 85.341)" d="M221.87 78.27h17.07v48.27h-17.07z"/><circle class="cls-1" cx="145.07" cy="162.13" r="17.07"/><path class="cls-1" transform="rotate(-58.01 135.604 145.076)" d="M126.15 153.61h80.5v17.07h-80.5z"/><path class="cls-1" d="M136.53 85.33h17.07v17.07h-17.07zm0 136.54h17.07v17.07h-17.07z"/><path class="cls-1" transform="rotate(-30.03 47.305 120.131)" d="M102.41 128.69h17.07v17.05h-17.07z"/><path class="cls-1" transform="rotate(-30.04 115.61 238.27)" d="M170.68 246.82h17.07v17.05h-17.07z"/><path class="cls-1" transform="rotate(-59.97 56.374 145.099)" d="M77.41 153.63h17.07v17.05H77.41z"/><path class="cls-1" transform="rotate(-59.97 174.588 213.309)" d="M195.62 221.84h17.07v17.05h-17.07z"/><path class="cls-1" d="M68.27 153.6h17.07v17.07H68.27zm136.53 0h17.07v17.07H204.8z"/><path class="cls-1" transform="rotate(-30.03 22.385 213.336)" d="M77.47 221.84h17.05v17.07H77.47z"/><path class="cls-1" transform="rotate(-30.03 140.547 145.062)" d="M195.62 153.59h17.05v17.07h-17.05z"/><path class="cls-1" transform="rotate(-59.99 81.34 238.34)" d="M102.38 246.86h17.05v17.07h-17.05z"/><path class="cls-1" d="M110.93 375.47a51.2 51.2 0 1 0 51.2 51.2 51.25 51.25 0 0 0-51.2-51.2zm0 85.33a34.13 34.13 0 1 1 34.13-34.13 34.17 34.17 0 0 1-34.13 34.13z" transform="translate(0 -34.13)"/><path class="cls-1" d="M102.4 384h17.07v17.07H102.4z"/><path class="cls-1" d="M401.07 375.47a51.2 51.2 0 1 0 51.2 51.2 51.25 51.25 0 0 0-51.2-51.2zm0 85.33a34.13 34.13 0 1 1 34.13-34.13 34.17 34.17 0 0 1-34.13 34.13z" transform="translate(0 -34.13)"/><path class="cls-1" d="M392.53 384h17.07v17.07h-17.07zm-238.93 0h204.8v17.07H153.6z"/><path class="cls-1" d="M508.43 325.86L451 284.8l-37.9-113.66a25.56 25.56 0 0 0-24.29-17.54H247.47v17.07H388.8a8.51 8.51 0 0 1 8.1 5.86l38.74 116.31a8.57 8.57 0 0 0 3.14 4.24l56.16 40.11v80.94h-51.2v17.07h59.73a8.52 8.52 0 0 0 8.53-8.53V332.8a8.53 8.53 0 0 0-3.57-6.94zM17.07 418.13V174.08a3.41 3.41 0 0 1 3.41-3.41H51.2V153.6H20.48A20.51 20.51 0 0 0 0 174.08v252.59a8.53 8.53 0 0 0 8.53 8.53h59.74v-17.07z" transform="translate(0 -34.13)"/><path class="cls-1" d="M469.33 349.87h34.13v17.07h-34.13zm-460.8 0h51.2v17.07H8.53z"/><path class="cls-1" d="M366.93 281.6a8.54 8.54 0 0 1-8.53-8.53v-59.74a8.54 8.54 0 0 1 8.53-8.53h42.67v-17.07h-42.67a25.63 25.63 0 0 0-25.6 25.6v59.73a25.63 25.63 0 0 0 25.6 25.6h76.8V281.6z" transform="translate(0 -34.13)"/><path class="cls-1" d="M358.4 281.6h34.13v17.07H358.4zm-187.73 68.27H332.8v17.07H170.67zM8.53 247.47h34.13v17.07H8.53z"/></svg>