<svg id="Capa_1" data-name="Capa 1" xmlns="http://www.w3.org/2000/svg" viewBox="0 0 512 347.59"><defs><style>.cls-1{fill:#c882ff}</style></defs><title>fish</title><path class="cls-1" d="M319.74 83.2a8.23 8.23 0 0 0-8.33.28l-70 44.76a8.18 8.18 0 1 0 8.83 13.76l57.4-36.72V154a8.17 8.17 0 0 0 16.36 0V90.37a8.17 8.17 0 0 0-4.26-7.17zm166.79 195.18l25.09-79.28a8.18 8.18 0 0 0-12.2-9.36L417.68 242a8.18 8.18 0 1 0 8.81 13.78l62.74-40.13-19.06 60.24a8.13 8.13 0 0 0 0 4.93l19.06 60.24-61.62-39.42a8.18 8.18 0 1 0-8.81 13.78L499.42 367a8.18 8.18 0 0 0 12.2-9.36z" transform="translate(0 -82.2)"/><path class="cls-1" d="M440.82 275.31a237.46 237.46 0 0 0-440.22 0 8.14 8.14 0 0 0 0 6.13 237.46 237.46 0 0 0 440.22 0 8.13 8.13 0 0 0 0-6.13zM220.71 413.45A220.16 220.16 0 0 1 17 278.38a221.12 221.12 0 0 1 407.38 0 220.16 220.16 0 0 1-203.67 135.07z" transform="translate(0 -82.2)"/><circle class="cls-1" cx="81.74" cy="155.3" r="16.35"/><path class="cls-1" d="M269.16 264a8.18 8.18 0 0 0-6.19-5.84l-69.48-14.7a8.18 8.18 0 0 0-9.87 8v78.43a8.17 8.17 0 0 0 4.89 7.48 8 8 0 0 0 3.29.69 8.18 8.18 0 0 0 5.52-2.15l69.48-63.74a8.18 8.18 0 0 0 2.36-8.17zM200 311.26V261.5l44 9.33z" transform="translate(0 -82.2)"/></svg>