<svg data-name="Layer 1" xmlns="http://www.w3.org/2000/svg" viewBox="0 0 512 323.83"><title>gift-card</title><path d="M456.89 172.04h-40.08a7.52 7.52 0 0 0 0 15h40.08a7.52 7.52 0 1 0 0-15zm-72.14 0H268a7.52 7.52 0 0 0 0 15h116.75a7.52 7.52 0 1 0 0-15zm72.14 40.08H268a7.52 7.52 0 0 0 0 15h188.89a7.52 7.52 0 1 0 0-15zm0 40.07H332.08a7.52 7.52 0 1 0 0 15h124.81a7.52 7.52 0 0 0 0-15zm-156.89 0h-32a7.52 7.52 0 0 0 0 15h32a7.52 7.52 0 0 0 0-15zM200.38 30.7a23.55 23.55 0 0 0-33.18-.12c-.15.15-.3.31-.44.48-1.68 2-8.08 10.93-20.12 43.74a7.51 7.51 0 0 0 9.64 9.64c32.81-12 41.78-18.44 43.74-20.12.16-.14.32-.29.48-.44a23.61 23.61 0 0 0-.12-33.18zm-10.3 22.33c-1.15.84-6.68 4.5-23.29 11.26 6.81-16.72 10.47-22.21 11.25-23.28a8.52 8.52 0 0 1 12 12zM84.67 74.79c-12-32.82-18.45-41.78-20.12-43.74-.14-.16-.29-.32-.44-.47A23.564 23.564 0 0 0 30.8 63.92c.15.15.31.3.47.44 2 1.68 10.93 8.08 43.75 20.12a7.58 7.58 0 0 0 9.65-9.69zM41.24 53.04a8.52 8.52 0 0 1 12-12c.84 1.15 4.5 6.68 11.26 23.29-16.71-6.85-22.19-10.52-23.26-11.29zM75 146.41c-32.81 12-41.78 18.44-43.74 20.12-.17.14-.33.29-.48.44a23.55 23.55 0 0 0 33.3 33.3c.15-.15.3-.31.44-.48 1.68-2 8.08-10.93 20.12-43.74a7.58 7.58 0 0 0-9.64-9.64zm-21.73 43.43a8.52 8.52 0 0 1-12-12c1.15-.84 6.69-4.5 23.29-11.26-6.85 16.7-10.56 22.19-11.29 23.26zm147.24-22.87c-.15-.15-.31-.3-.47-.44-2-1.68-10.93-8.08-43.75-20.12a7.58 7.58 0 0 0-9.64 9.64c12 32.82 18.45 41.78 20.12 43.74.14.16.29.32.44.48a23.55 23.55 0 0 0 33.3-33.3zm-10.76 22.55a8.54 8.54 0 0 1-11.7.33c-.84-1.15-4.5-6.68-11.26-23.29 16.73 6.81 22.21 10.48 23.28 11.25a8.6 8.6 0 0 1-.32 11.71z"/><path d="M505 92.38h-1V27.25a14.71 14.71 0 0 0-15-15H215.29a47.52 47.52 0 0 0-63.1 0h-12.93v-1c0-4.15-3.42-7-7.57-7H99.62c-4.15 0-7.46 2.86-7.46 7v1h-13A46.1 46.1 0 0 0 47.58 0 47.42 47.42 0 0 0 14 81.06a23.49 23.49 0 0 0 6.07 4.7v6.62h-.56c-4.15 0-7.46 2.86-7.46 7v32.06c0 4.15 3.31 8 7.46 8H20v5.62a23.47 23.47 0 0 0-6 4.78 48.16 48.16 0 0 0 0 67.78c1.9 1 4.06 3.12 6.07 4.63v77.53c0 8.56 6.91 16 15.47 16h56.63c0 4.15 3.31 8 7.46 8h32.06c4.15 0 7.57-3.86 7.57-8H489c8.56 0 15-7.47 15-16v-44.57a7.52 7.52 0 1 0-15 0v44.58c0 .28.28 1 0 1H139.26V200.38c4 7.36 7.4 13.33 10.85 16.77a47.5 47.5 0 1 0 67.28-67.06 53.08 53.08 0 0 0-16.77-10.62H489v87.85a7.52 7.52 0 0 0 15 0v-87.85h1c4.15 0 7-3.87 7-8V99.39a6.69 6.69 0 0 0-7-7.01zM107.2 19.23h17s0 46.82.05 47.05c-3.19 8.65-6.1 16.9-8.54 24.29-2.43-7.37-5.48-15.83-8.49-24.45zm-82.65 5.09a32.56 32.56 0 0 1 46.05 0c9 9 23.86 49.21 33.6 79.65-30.45-9.74-70.66-24.61-79.65-33.6a32.6 32.6 0 0 1 0-46.05zm66.26 91.6c-7.39 2.44-25 8.52-25.25 8.52H27v-17h39.37c8.63 2.97 17.08 6.05 24.44 8.48zm1.36 184.87H35.5c-.28 0-.44-.73-.44-1v-70.41a47.6 47.6 0 0 0 46.22-12.23c3.44-3.44 6.88-9.41 10.89-16.77zm-21.56-94.26a32.562 32.562 0 1 1-46.05-46.05c9-9 49.21-23.86 79.66-33.6-9.75 30.44-24.61 70.65-33.61 79.65zm53.62 102.28h-17v-144.1c3-8.62 6.08-17.08 8.52-24.45 2.43 7.37 5.51 15.83 8.52 24.45zm36.48-284.49a32.562 32.562 0 1 1 46.05 46.05c-9 9-49.21 23.86-79.66 33.6 9.74-30.44 24.61-70.65 33.61-79.65zm46.05 136.15a32.562 32.562 0 1 1-46.05 46.05c-9-9-23.86-49.21-33.6-79.65 30.44 9.74 70.65 24.61 79.65 33.6zm290.21-36H165.76c-.24 0-17.86-6.07-25.26-8.52 7.38-2.44 24.78-8.52 24.92-8.52h86.5a7.51 7.51 0 1 0 0-15h-51.3c7.36-4 13.33-7.68 16.77-11.13a47 47 0 0 0 13.94-33.53 45.81 45.81 0 0 0-4.67-20.47H489v65.13H283.65a7.51 7.51 0 1 0 0 15H497z"/></svg>