<svg id="Capa_1" data-name="Capa 1" xmlns="http://www.w3.org/2000/svg" viewBox="0 0 512 457.92"><defs><style>.cls-1{fill:#c882ff}</style></defs><title>leaves</title><path class="cls-1" d="M509.79 138.24a7.45 7.45 0 0 0-7.19-2l-80.05 19.83c-.25 0-28.09 6.68-37.73 8.11A130.48 130.48 0 0 0 350 174.39l-3.67 1.94a12.17 12.17 0 0 0-.56-2.91l-2.65-8.51a131.12 131.12 0 0 0-17.34-31.26c-5.78-7.85-20.78-32.17-20.91-32.32L262.4 30.45a7.85 7.85 0 0 0-13 0L207 101s-15.3 24.58-20.91 32.43a131.16 131.16 0 0 0-17.44 31.77l-2.65 8.53a14.32 14.32 0 0 1-.46 2.5l-4-2.09a130.43 130.43 0 0 0-34.54-10.2c-9.64-1.48-37.43-8.06-37.63-8.11L9.4 136.2a7.45 7.45 0 0 0-7.19 2 7.55 7.55 0 0 0-2 7.14l19.89 80.1c0 .25 6.68 28 8.11 37.68a182.25 182.25 0 0 0 14.28 42.68 72.09 72.09 0 0 0 14.23 18.46 92.8 92.8 0 0 0 125.84 5.1l65.77 65.77v82.45a7.57 7.57 0 0 0 15.14-.15V395l65.77-65.77a92.8 92.8 0 0 0 125.84-5.1 156.35 156.35 0 0 0 18.51-26.67 109.82 109.82 0 0 0 10.2-34.46c1.43-9.64 8.06-37.43 8.11-37.63l19.89-80a7.55 7.55 0 0 0-2-7.13zM111.17 236.6a7.57 7.57 0 0 0-10.71 10.71l71.38 71.38a77.91 77.91 0 0 1-104.58-5.25 60.1 60.1 0 0 1-11.73-15.3A160.88 160.88 0 0 1 43 260.56c-1.53-10.2-8.11-37.78-8.36-39L18 154l67.86 16.88c1.17.25 28.71 6.83 39 8.36a117.55 117.55 0 0 1 30 8.57l8.46 4.59c0 1.53-.31 3.06-.31 4.54a92.75 92.75 0 0 0 36.3 73.52A77.85 77.85 0 0 1 182.55 308zm137.21 137l-55.07-55.07A93.12 93.12 0 0 0 213 279.17a92.17 92.17 0 0 0 35.39 10.2zM256 165.37a7.65 7.65 0 0 0-7.65 7.65v101.26a77.3 77.3 0 0 1-35-12.39 7.49 7.49 0 0 0-3.11-2.19 77.14 77.14 0 0 1-29.67-81.58l2.35-8a117.27 117.27 0 0 1 15.3-27.64c6.17-8.36 21-32.43 21.67-33.55l36-59.86L292 109c.61 1 15.3 25.09 21.62 33.45a117.28 117.28 0 0 1 15.3 27.28l2.45 7.75a77.09 77.09 0 0 1-29.52 82.24 7.49 7.49 0 0 0-3.11 2.19 77.3 77.3 0 0 1-35 12.39V173a7.65 7.65 0 0 0-7.74-7.63zm7.5 208.23v-84.23a92.17 92.17 0 0 0 35.39-10.2 93.06 93.06 0 0 0 19.68 39.36zM477 221.91c-.25 1.17-6.83 28.66-8.36 39a98.72 98.72 0 0 1-8.77 29.88 133.74 133.74 0 0 1-15.3 22.69 77.91 77.91 0 0 1-104.42 5.1l71.38-71.38a7.57 7.57 0 0 0-10.71-10.71l-71.38 71.38a77.91 77.91 0 0 1-16.72-37.48A92.75 92.75 0 0 0 349 196.83a22.65 22.65 0 0 0-.31-4.54l8-4.38a117.27 117.27 0 0 1 30.59-8.72c10.2-1.58 37.78-8.11 39-8.36l67.6-16.83z" transform="translate(0 -27.04)"/></svg>