<svg id="Layer_1" data-name="Layer 1" xmlns="http://www.w3.org/2000/svg" viewBox="0 0 512 409.62"><defs><style>.cls-1{fill:#c882ff}</style></defs><title>lemon</title><path class="cls-1" d="M358.81 144.94h-.09a8.58 8.58 0 1 0 .09 0zm33.89 136.59a8.54 8.54 0 1 0-17.07 0c0 89.44-80.43 162.2-179.28 162.2-95.69 0-174.1-68.19-179-153.67h17.3c5.15 50.82 54.75 136.59 161.73 136.59 113.22 0 162.2-96.1 162.2-145.13A8.54 8.54 0 0 0 350 273H76.83a8.54 8.54 0 1 0 0 17.07H172l-66.37 53.09a8.54 8.54 0 1 0 10.66 13.33l71.51-57.2V384a8.54 8.54 0 0 0 17.07 0v-84.7l71.5 57.2a8.54 8.54 0 0 0 10.67-13.33l-66.38-53.09H341c-5.17 45-49.62 119.52-144.61 119.52C95 409.59 51.22 324.79 51.22 281.53a8.54 8.54 0 0 0-8.53-8.53H8.54A8.53 8.53 0 0 0 0 281.53c0 98.86 88.08 179.28 196.35 179.28S392.7 380.39 392.7 281.53zm-16.82-153.66a8.54 8.54 0 0 0 0-17.07h-.09a8.54 8.54 0 0 0 .09 17.07zm42.69 42.68A8.54 8.54 0 0 0 410 162h-.09a8.54 8.54 0 1 0 8.63 8.54z" transform="translate(0 -51.19)"/><path class="cls-1" d="M482 160.15c-51-88.33-154.17-130-241.82-98.49a34.52 34.52 0 0 0-54.48 31.45c-43.8 37-67.69 93-65.69 154.55a8.54 8.54 0 1 0 17.07-.55c-1.88-57.92 21.16-110.37 63.21-143.89a8.53 8.53 0 0 0 2.93-8.87 17.48 17.48 0 0 1 29.29-16.91 8.51 8.51 0 0 0 9.15 1.89C322.52 47.6 419.5 86 467.23 168.68s32.52 185.87-35.39 240a8.51 8.51 0 0 0-2.93 8.87 17.48 17.48 0 0 1-29.28 16.92 8.54 8.54 0 0 0-9.15-1.91 162 162 0 0 1-65.74 11 8.7 8.7 0 0 0-8.84 8.22 8.54 8.54 0 0 0 8.22 8.84c2.3.09 4.62.13 6.91.13a179.14 179.14 0 0 0 60.9-10.53 34.53 34.53 0 0 0 54.48-31.46C517.53 358.66 533 248.47 482 160.15z" transform="translate(0 -51.19)"/></svg>