<svg data-name="Capa 1" xmlns="http://www.w3.org/2000/svg" viewBox="0 0 475.12 472.01"><title>like</title><path d="M452.06 153.89c-13.5-.86-27.12 2.46-40.47 3.89-41.39 4.45-83.23 7.66-108.48-30.77-20.58-31.33-28-66.4-29-103.33a15.11 15.11 0 0 0-.74-4.16c.16-5.87-2.72-11.89-9.74-14.35-90.89-31.81-98.19 91.17-80.63 151.27-2.52.19-5 .29-7.55.38a76.25 76.25 0 0 0-.88-7.73l-.27-1.65v-1.24a15.56 15.56 0 0 0-1-4.7 14.53 14.53 0 0 0-6.1-11.19c-38.5-28.48-85.3-32.67-131.1-22.84a14.11 14.11 0 0 0-5 2.08 13.3 13.3 0 0 0-4.91 4c-23.23 29.31-23.8 63.8-5.5 94.75-29 32.13-27.26 74.22 3 105.94-6.68 29.56 2.89 56.13 25.65 76.1-2 14.9-.61 29.77 7.48 43.14 9.27 15.31 26.5 23.29 43.43 26.84a13.82 13.82 0 0 0 4.78 1.72c29.26 4.79 58.59 8.6 88.22 10a14.81 14.81 0 0 0 3.94-.36 16.85 16.85 0 0 0 2.23-.15c38.51-6.41 77-13 115.13-21.43 36-8 71.29-20.56 108.08-24.77 15.47-1.78 50.92.47 51.26-22.27 1.12-74.92 1.19-149.83 1.19-224.75a14.74 14.74 0 0 0-.8-4.72c-4.46-13.64-5.55-18.63-22.22-19.7zm-68.72 248.46c-61.8 19.51-125.34 30.59-189.18 41.23-.3 0-.56-.11-.86-.13a701.67 701.67 0 0 1-78.92-8.74 14.34 14.34 0 0 0-4.09-1.45c-10.56-2-22.24-4.94-28.78-14.25-6.37-9.07-5.14-21-2.87-31.22 1.64-7.4-2.1-13-7.32-15.81a15.46 15.46 0 0 0-1.63-1.54c-19.46-14.72-23.44-35.17-16-57.61 2.53-7.67-1.32-13.41-6.94-16-24.37-23.79-24.68-51.78.89-75.23A12.44 12.44 0 0 0 52 210.99a12.14 12.14 0 0 0-2.17-10.2c-14.38-20.65-20.3-44.9-4.06-66.25 35.49-7.21 70-3.77 100.33 15.77.16 1.22.34 2.43.51 3.66l.27 1.65v.67a242.83 242.83 0 0 1-28.28-3.67c-18-3.44-25.65 24.06-7.59 27.52 38 7.26 75.64 7.24 113.42-1.19 18-4 10.34-31.52-7.59-27.52-1.74.39-3.49.68-5.23 1-11.36-35.3-20.18-131.21 34.25-122.38 3.93 81.79 41 162.54 129.71 158.61-5.47 71.41 1 142.3 9.53 213.29a15.7 15.7 0 0 0-1.76.4zm62.17-10.29q-16.38 1.05-32.76 2.14c-8.14-68.87-14-137.69-8.52-207a367.23 367.23 0 0 1 42.36-3.13c-.02 69.37-.15 138.66-1.09 207.98z"/></svg>