<svg id="Capa_1" data-name="Capa 1" xmlns="http://www.w3.org/2000/svg" viewBox="0 0 503.37 512"><defs><style>.cls-1{fill:#c882ff}</style></defs><title>mushroom</title><path class="cls-1" d="M377.26 122.93c-.45.08-46.46 8.18-161.56-6.83-18.75-2.45-62.68-9.69-65.5-24.1-1.57-8 11.51-17.43 16.21-20.1A4.53 4.53 0 0 0 162 64c-2.44 1.37-23.72 13.89-20.65 29.7 2.93 15.06 26.87 25.31 73.21 31.36 55.85 7.28 95.48 9.22 121.83 9.22 28.62 0 41.56-2.28 42.55-2.47a4.53 4.53 0 1 0-1.65-8.9z" transform="translate(-4.32)"/><path class="cls-1" d="M507.08 109.8c-5.13-56.42-109.71-74.26-128.74-77C371 24.24 342.91-1.44 271 .06c-18.06.38-66 7-116.14 20.49C111.71 32.19 54.16 52.46 25.08 83a28.38 28.38 0 0 0 6.64 44.27C45.55 135 60 144.58 73.89 153.82c19.6 13 36.54 24.23 47.58 27.59a70.29 70.29 0 0 0 17.76 3.06c7 7.25 32.38 35.28 48.39 74-17.25-8.23-47.62-17.25-93.3-12.34-21.78 2.35-40.42 8.06-55.4 17-12.8 7.62-22.7 17.56-28.63 28.73-6.85 12.92-7.87 26.42-2.73 36.14 4.81 9 17.56 14.91 39.89 18 8.72 10.57 51.23 65.45 52.69 132.34a6.79 6.79 0 0 0 3.25 5.65 55.68 55.68 0 0 0 29.43 8.58c20.64 0 35.73-11.74 36.62-12.46a6.8 6.8 0 0 0 2.22-7.44c-.25-.76-24.23-75.34 10-121.38a114.78 114.78 0 0 0 17.07-2.36c-3 22.41-5.7 40.31-7.9 55-6 40.21-8.75 58.56-6.28 85.73a6.79 6.79 0 0 0 2.46 4.64C203.85 508 225.85 512 245.9 512a188.56 188.56 0 0 0 52.8-8.08 6.77 6.77 0 0 0 4.66-7c18.44-3.18 25.07-8.47 26.8-10.2a6.79 6.79 0 0 0 2-4.8 257 257 0 0 1 19.16-96.09c19.45-.65 32.49-5.68 39.77-15.33 6.42-8.51 7.64-19.95 3.63-34-5-17.49-24.34-29.37-57.5-35.31a264.29 264.29 0 0 0-36.71-3.74c14.48-48.29 37.39-90.66 78.19-117.6 14.76-1.9 27-4 35-5.6 9.28-1.89 18.21-6.07 26.39-10.75 22.57 16.28 37.85 14.15 46.83 9.27 15.67-8.54 23.02-31.49 20.16-62.97zM19.55 321.59c-2.23-4.19-2.85-12.83 2.74-23.36 15.56-29.34 56.57-36.75 73.48-38.57 36.19-3.9 61.54 1.72 76.44 7.13 12.16 4.41 19.5 9.39 22.39 11.58a153 153 0 0 1 5.95 55.93c-17.93 6.52-59.95 3.41-83.17 1.69-7.68-.57-13.74-1-17.25-1h-2.5c-8.9 0-27.41.09-44.61-2-27.15-3.23-32.48-9.54-33.47-11.4zm94 152.5a204.58 204.58 0 0 0-11.81-59 112.1 112.1 0 0 0 23 2.52 77.22 77.22 0 0 0 24.77-3.81 214.48 214.48 0 0 0 7.72 58.08c-7.32 4.37-24.59 12-43.64 2.21zM150 404c-19.3 8-42.32 3.45-52.08.85A271 271 0 0 0 66 347.73q8 .5 17.06.69l3.18 8.5a4.53 4.53 0 1 0 8.48-3.17l-1.95-5.21h7.33c1.76 0 4.58.16 8 .39l1.59 17.56a4.53 4.53 0 0 0 4.5 4.12h.41a4.53 4.53 0 0 0 4.1-4.92l-1.46-16.08c10.25.75 20.78 1.45 31 1.84l-3.8 10.25a4.53 4.53 0 1 0 8.49 3.15l4.86-13.11c2.22 0 4.43.07 6.59.07h.56C155.46 368.16 151.23 386.5 150 404zm47.9 81.45c-1.86-24 .82-42 6.44-79.56 2.47-16.55 5.55-37.15 9.06-63.7q.79-6 1.08-12c10.06 3.69 27.84 9 47 9a93 93 0 0 0 15-1.17c-4.33 21.22-7.53 42.22-10.32 61.75-5.08 35.55 12.43 76.62 20.61 93.38-17.77 4.3-61.77 12.17-88.9-7.72zM294.43 383v12.87a4.53 4.53 0 1 0 9.05 0v-12.63c5.39.25 11 .68 16.61 1.13l-2.81 8.6a4.53 4.53 0 1 0 8.61 2.81l3.49-10.69q3.74.28 7.32.48a262.41 262.41 0 0 0-12.7 43.34c-18.74 3.08-36.8-3.7-44.85-7.4a88.74 88.74 0 0 1 .41-19.86q1.27-8.9 2.64-17.82a81 81 0 0 1 12.23-.83zm3.06 101c-5.35-11.48-13.5-31.31-17-52.08a92.83 92.83 0 0 0 33.51 6.86 71.2 71.2 0 0 0 8.23-.47 264.62 264.62 0 0 0-3.67 40.13c-4.17 2.19-12.85 4.35-21.08 5.56zm84.16-143.83c2.78 9.73 2.3 17.16-1.41 22.08-4.94 6.55-16.48 10-33.37 10-7.11 0-15.4-.66-24.18-1.36-13.29-1.06-26.91-2.14-38.27-1.05 3.33-20.05 7.24-39.9 12.29-59 24.53.48 78.29 6.16 84.94 29.38zm-86.81-68.68a426.31 426.31 0 0 0-16.36 56.84c-25.36 5.41-52.93-3.61-63.83-7.85a174.2 174.2 0 0 0-7.37-47.26 6.77 6.77 0 0 0-.44-1.5 225.68 225.68 0 0 0-22.15-49.46 273.94 273.94 0 0 0-28.17-39.06c5.64-.95 11.19-2.3 16.85-3.69l1.15-.28 11 24.66a4.53 4.53 0 1 0 8.27-3.69l-10.31-23.08a138.32 138.32 0 0 1 16.95-2.76l5.17 17a4.53 4.53 0 0 0 8.66-2.63l-4.51-14.86a108.44 108.44 0 0 1 17.76 1.38L228.6 201a4.53 4.53 0 0 0 4.52 4.33h.2a4.53 4.53 0 0 0 4.33-4.72l-1-23.53c1.28.3 2.58.62 3.9 1 4.45 1.18 9.12 2.17 14 3L253 195.84a4.53 4.53 0 0 0 4 5h.48a4.53 4.53 0 0 0 4.5-4.06l1.5-14.33c5.73.75 11.65 1.3 17.68 1.69l-3.24 18.16a4.53 4.53 0 0 0 3.66 5.25 4.58 4.58 0 0 0 .8.07 4.53 4.53 0 0 0 4.45-3.73l3.44-19.29c4.94.19 9.93.28 14.93.28h3.07L303.69 195a4.53 4.53 0 1 0 8.26 3.71l6.3-14c11.77-.33 23.4-1.07 34.41-2C328 204.3 309 233.59 294.83 271.53zm185.58-110.66c-6.77 3.68-16.41 1.83-27.67-5.17l2.3-1.5c4.54-3 10.52-6.86 13.6-8.09a6.79 6.79 0 0 0 7.49 1c3.84-1.89 4.69-6.87 2.33-10.44a9.85 9.85 0 0 0-5.49-4.08c-6.66-2-14.1 2.9-25.36 10.24-3.28 2.14-6.8 4.44-10.49 6.67l-.26.16c-8.18 4.94-17.14 9.54-25.9 11.32-1 .21-104.77 20.49-167 4a130.45 130.45 0 0 0-33.7-4.62c-15.65 0-28.4 3.13-40.19 6-15.29 3.75-28.49 7-44.69 2.06-9.15-2.79-26.1-14-44-25.92-14.13-9.37-28.75-19.06-43-27.09a14.8 14.8 0 0 1-3.48-23.06c14.85-15.55 48.34-38.38 123.48-58.64 49-13.21 95.51-19.66 112.88-20 54.14-1.13 80.68 14.07 91.51 23-17.53 1.25-49.65 9-73.29 46.36a4.53 4.53 0 1 0 7.65 4.85q.74-1.17 1.49-2.29c19.75-29.6 55.74-43.92 90.66-37.07a324 324 0 0 1 44.24 11.77c26.11 9.21 57.72 25.5 60 50.8 2.3 25.01-2.73 44.09-13.11 49.74z" transform="translate(-4.32)"/></svg>