<svg id="Capa_1" data-name="Capa 1" xmlns="http://www.w3.org/2000/svg" viewBox="0 0 512 309.32"><defs><style>.cls-1{fill:#c882ff}</style></defs><title>potato</title><path class="cls-1" d="M141.82 230.33a7.5 7.5 0 0 0-7.5 7.5v7.46a7.5 7.5 0 0 0 15 0v-7.46a7.5 7.5 0 0 0-7.5-7.5zm74.86 0a7.5 7.5 0 0 0-7.5 7.5v7.46a7.5 7.5 0 0 0 15 0v-7.46a7.5 7.5 0 0 0-7.5-7.5zm34.98-72.53a7.5 7.5 0 0 0-7.5 7.5v7.46a7.5 7.5 0 0 0 15 0v-7.46a7.5 7.5 0 0 0-7.5-7.5zM74 230.33a7.5 7.5 0 0 0-7.5 7.5v7.46a7.5 7.5 0 0 0 15 0v-7.46a7.5 7.5 0 0 0-7.5-7.5zm32.83 81.86a7.5 7.5 0 0 0-7.5 7.5v7.46a7.5 7.5 0 1 0 15 0v-7.46a7.5 7.5 0 0 0-7.5-7.5zm69.97 0a7.5 7.5 0 0 0-7.5 7.5v7.46a7.5 7.5 0 0 0 15 0v-7.46a7.5 7.5 0 0 0-7.5-7.5zm0-154.39a7.5 7.5 0 0 0-7.5 7.5v7.46a7.5 7.5 0 0 0 15 0v-7.46a7.5 7.5 0 0 0-7.5-7.5zm252.03 187.73a7.5 7.5 0 0 0-9.87-3.88l-7.15 3.11c-7.43 3.24-5.07 14.38 3 14.38 2 0 2.42-.38 10.14-3.74a7.5 7.5 0 0 0 3.88-9.87zm-69.47.02a7.5 7.5 0 0 0-9.86-3.91l-6.85 3a7.5 7.5 0 1 0 5.95 13.77l6.85-3a7.5 7.5 0 0 0 3.91-9.86z" transform="translate(0 -101.34)"/><path class="cls-1" d="M500 190.8a7.47 7.47 0 0 0-4.13-4.15c-17.31-18.06-76.34 1.57-99.62 10.14-22.45-48.12-71.08-84.5-125.91-93.56a7.5 7.5 0 1 0-2.45 14.8c49.69 8.21 93.76 40.88 114.34 84.15C302.15 234.4 196 301.65 225.65 331.3a171.72 171.72 0 0 0 61.58 57.89 148.67 148.67 0 0 1-43.23 6.46c-107.3 0-229-32-229-139.8 0-72.18 138.19-134.74 219.6-139.52a7.5 7.5 0 1 0-.88-15C149.38 106.3 0 171.17 0 255.85c0 117.31 126.68 154.8 244 154.8a165.58 165.58 0 0 0 62.25-12.3c43.63 17.79 87.53 15.55 123-1.92 31.45-15.49 56.46-43.26 70.41-78.17a7.5 7.5 0 0 0-13.93-5.56C443.52 418.47 315 417.91 249.41 338.46c62.57.21 208.13-72 243.38-120.92a158.85 158.85 0 0 1 2 63 7.5 7.5 0 0 0 14.75 2.46 171.73 171.73 0 0 0-9.54-92.2zm-40.18 39c-21.43 17.86-52.28 37.08-86.87 54.12-84.34 41.54-136.76 44.5-137.22 35.58-.17-3.27 3.95-13.45 25.68-31.56 53.9-44.93 162.77-93.71 210.39-93.71 9.26 0 12.93 2 13.53 3.22 1.04 2.02-1.49 12.34-25.47 32.34z" transform="translate(0 -101.34)"/></svg>