<svg id="Capa_1" data-name="Capa 1" xmlns="http://www.w3.org/2000/svg" viewBox="0 0 452.53 512"><defs><style>.cls-1{fill:#c882ff}</style></defs><title>vegetables</title><path class="cls-1" d="M312.89 93.09c-1.94-3.23-5.82-3.88-9.05-2.59-19.39 11-31.68 18.1-39.43 22.63V84.69c7.11-4.53 27.15-16.16 40.08-23.27 3.23-1.94 3.88-5.82 2.59-9.05-1.94-3.23-5.82-3.88-9.05-2.59-16.16 9.05-26.51 15.52-33.62 19.39V40.73c5.17-3.23 17.45-10.34 28.44-16.81 3.23-1.94 3.88-5.82 2.59-9.05-1.94-3.23-5.82-3.88-9.05-2.59-9.7 5.82-16.81 9.7-22 12.93V6.46a6.46 6.46 0 1 0-12.93 0v18.75c-5.17-3.23-12.28-7.11-22-12.93-3.23-1.94-7.11-.65-9.05 2.59S219.8 22 223 23.92c11 6.46 23.27 13.58 28.44 16.81v29.73c-7.11-3.88-17.45-10.34-33.62-19.39-3.23-1.94-7.11-.65-9.05 2.59s-.65 7.11 2.59 9.05c12.93 7.76 33 19.39 40.08 23.27v28.44c-7.76-4.53-20-11.64-39.43-23.27-3.23-1.94-7.11-.65-9.05 2.59s-.65 7.11 2.59 9.05c14.87 8.4 38.14 22 45.9 27.15v12.28a46.22 46.22 0 0 0-29.74 15.52 37.8 37.8 0 0 0-9.7 30.38l3.23 44.61 19.39 248.89c0 10.34 5.82 30.38 23.27 30.38s22.63-19.39 23.27-29.74l23.92-295.43a37.8 37.8 0 0 0-9.7-30.38c-7.76-8.4-18.1-13.58-29.74-15.52v-12.28c7.11-5.17 30.38-18.1 44.61-26.51 3.28-1.94 3.92-5.82 2.63-9.05zM268.93 479s-.65 17.45-10.34 17.45c-9.05 0-10.34-17.45-10.34-18.1l-3.88-45.9h28.44zm4.53-59.47h-30.39l-3.23-42h36.85zm4.54-54.92h-39.45l-3.23-42h45.9zm3.88-54.95H234l-3.23-42h54.3zm4.53-54.95h-56.27l-1.94-24.57-1.29-17.45h62.71zm-.65-89.86a29.42 29.42 0 0 1 6.46 20.69l-1.29 14.22h-64.67L225 184.89a26 26 0 0 1 6.46-20 36.49 36.49 0 0 1 27.15-11.64c10.32-.04 20.66 3.84 27.13 11.6zM182.95 307.07c0-11.64-5.17-22.63-13.58-28.44a33.76 33.76 0 0 0 2.63-13.58c0-12.93-6.46-25.21-16.81-30.38 0-1.94.65-3.23.65-5.17 0-16.16-9.7-29.09-22-32.32-1.94-16.81-14.22-29.74-28.44-29.74s-26.51 12.93-28.44 29.09C63.35 199.11 53 212.69 53 229.49a31.47 31.47 0 0 0 .65 7.76c-7.76 5.82-12.93 16.81-12.93 27.8a33.76 33.76 0 0 0 2.59 13.58c-8.4 5.82-13.58 16.81-13.58 28.44 0 13.58 7.11 25.21 16.81 31-3.23 5.17-6.46 12.28-6.46 20.69q0 20.36 23.27 38.79c33.65 26.53 36.85 57.56 36.85 65.32v40.73a6.46 6.46 0 0 0 12.93 0v-40.08c0-5.82 2.59-38.79 37.49-65.94q23.27-18.42 23.27-38.79a35.06 35.06 0 0 0-7.11-21.33c9.7-5.18 16.17-16.81 16.17-30.39zm-30.38 33c2.59 2.59 8.4 9.7 8.4 18.1 0 9.05-6.46 18.75-18.1 28.44a115.81 115.81 0 0 0-29.74 33.62v-49.16l23.92-23.92a6.4 6.4 0 0 0-9.05-9.05L113.13 353v-27.8l23.92-23.92a6.4 6.4 0 1 0-9.05-9.08l-14.87 14.87v-29.74l23.92-23.92a6.4 6.4 0 0 0-9.05-9.05l-14.87 14.87v-31.67a6.46 6.46 0 0 0-12.93 0v31L86 244.36a6.4 6.4 0 0 0-9.05 9.05l23.27 23.27v29.74L86 292.2a6.4 6.4 0 1 0-9.05 9.05l23.27 23.27v27.8L86 338.1a6.4 6.4 0 0 0-9.05 9.05l23.27 23.27v49.13c-6.46-11-15.52-22-28.44-33-12.28-9.7-18.1-18.75-18.1-28.44 0-11.64 9.7-19.39 9.7-19.39 1.94-1.94 3.23-4.53 1.94-7.11a6.21 6.21 0 0 0-5.82-4.53c-8.4 0-15.52-9.05-15.52-20.69-1.29-8.4 3.23-16.81 10.34-18.75a5.83 5.83 0 0 0 3.88-3.88 6.28 6.28 0 0 0-.65-5.82 23.31 23.31 0 0 1-3.88-12.93c0-8.4 3.88-16.16 10.34-19.39a5.9 5.9 0 0 0 3.23-7.76 37.84 37.84 0 0 1-1.29-8.4c0-11 7.11-20.69 15.52-20.69h1.29a6.67 6.67 0 0 0 7.11-7.11v-1.26c0-11 7.11-20.69 15.52-20.69s15.52 9.05 15.52 20.69v1.29a5.87 5.87 0 0 0 1.94 4.53 7 7 0 0 0 4.53 1.94c8.4 0 15.52 9.05 15.52 20.69a23.24 23.24 0 0 1-1.29 7.11c-.65 1.94 0 3.23.65 5.17.65 1.29 2.59 2.59 3.88 3.23 7.11 1.94 12.93 10.34 12.93 20a23.31 23.31 0 0 1-3.88 12.93 6.28 6.28 0 0 0-.65 5.82 5.83 5.83 0 0 0 3.88 3.88c6.46 2.59 11.64 10.34 11.64 19.39 0 11-7.11 20.69-15.52 20.69a6.11 6.11 0 0 0-6.46 6.46c-.08 2.63 1.92 5.22 4.49 6.47zm329.69-33.65c0-11.64-5.17-22.63-13.58-28.44a33.76 33.76 0 0 0 2.59-13.58c0-12.93-6.46-24.57-16.16-29.74 0-1.94.65-3.23.65-5.17 0-16.16-9.7-29.09-22-32.32-2.59-16.81-14.22-29.74-29.09-29.74-14.22 0-26.51 12.93-28.44 29.09-13.58 2.59-23.92 16.16-23.92 33a31.47 31.47 0 0 0 .65 7.76c-7.76 5.82-12.93 16.81-12.93 27.8a33.76 33.76 0 0 0 2.59 13.58c-8.4 5.82-13.58 16.81-13.58 28.44 0 13.58 7.11 25.21 16.81 30.38-3.23 5.17-6.46 12.28-6.46 20.69q0 20.36 23.27 38.79c33.62 26.51 36.85 57.54 36.85 65.29v40.73a6.46 6.46 0 1 0 12.93 0v-40.11c0-5.82 2.59-38.79 37.49-65.94q23.27-18.42 23.27-38.79a35.06 35.06 0 0 0-7.11-21.33c9.71-5.17 16.17-16.81 16.17-30.39zm-30.38 34.26c2.59 2.59 8.4 9.05 8.4 18.1s-6.46 18.75-18.1 28.44a115.81 115.81 0 0 0-29.74 33.62v-49.12l23.92-23.92a6.4 6.4 0 0 0-9.05-9.05l-14.87 14.87v-27.8l23.92-23.92a6.4 6.4 0 0 0-9.05-9.05l-14.87 14.87v-30.39l23.92-23.92a6.4 6.4 0 0 0-9.05-9.05l-14.87 14.87v-31.67a6.46 6.46 0 1 0-12.93 0v31l-14.22-14.22a6.4 6.4 0 0 0-9.05 9.05l23.27 23.27v29.74l-14.22-14.2a6.4 6.4 0 0 0-9.05 9.05l23.27 23.27v27.8l-14.22-14.22a6.4 6.4 0 0 0-9.05 9.05l23.27 23.27v49.13c-6.46-11-15.52-22-28.44-33-12.28-9.05-18.75-18.75-18.75-27.8 0-11.64 9.7-19.39 9.7-19.39 1.94-1.94 3.23-4.53 1.94-7.11a6.21 6.21 0 0 0-5.82-4.53c-8.4 0-15.52-9.05-15.52-20.69 0-9.05 4.53-17.45 11.64-20a5.83 5.83 0 0 0 3.88-3.88 6.28 6.28 0 0 0-.65-5.82 23.31 23.31 0 0 1-3.88-12.93c0-8.4 3.88-16.16 10.34-19.39a5.9 5.9 0 0 0 3.23-7.76 37.84 37.84 0 0 1-1.29-8.4c0-11 7.11-20.69 15.52-20.69h1.29a6.67 6.67 0 0 0 7.11-7.11v-1.29c0-11 7.11-20.69 15.52-20.69s15.52 9.05 15.52 20.69v1.29a5.87 5.87 0 0 0 1.94 4.53 7 7 0 0 0 4.53 1.94c8.4 0 15.52 9.05 15.52 20.69a23.24 23.24 0 0 1-1.29 7.11c-.65 1.94 0 3.23.65 5.17.65 1.29 2.59 2.59 3.88 3.23 7.11 1.94 12.93 10.34 12.93 20a23.31 23.31 0 0 1-3.88 12.93 6.28 6.28 0 0 0-.65 5.82 5.83 5.83 0 0 0 3.88 3.88c6.46 3.88 11 11.64 11 20.69 0 11-7.11 20.69-15.52 20.69a6.11 6.11 0 0 0-6.46 6.46c-.03 2.62 1.91 5.2 4.5 6.5z" transform="translate(-29.74)"/></svg>