<svg id="Capa_1" data-name="Capa 1" xmlns="http://www.w3.org/2000/svg" viewBox="0 0 512 512"><defs><style>.cls-1{fill:#b14aff}</style></defs><title>wallet</title><path class="cls-1" d="M460.8 196.95v-60.42a8.53 8.53 0 0 0-8.53-8.53h-77.13c.2-2.82.32-5.66.32-8.53a119.47 119.47 0 1 0-238.93 0c0 2.88.13 5.72.32 8.53H59.73A59.8 59.8 0 0 0 0 187.73v264.54A59.8 59.8 0 0 0 59.73 512h392.54a8.53 8.53 0 0 0 8.53-8.53v-86A59.73 59.73 0 0 0 512 358.4V256a59.73 59.73 0 0 0-51.2-59.05zM256 17.07a102.51 102.51 0 0 1 102.4 102.4 101.8 101.8 0 0 1-34.8 76.8h-42V178a33.86 33.86 0 0 0 13.8-58.52c.59-.51 1.24-.92 1.79-1.48a34 34 0 0 0-15.59-57V42.67h-17.07v17.06h-17.06V42.67H230.4v17.06h-17.07V76.8h8.53v85.33h-8.53v17.07h17.07v17.07h-42A102.11 102.11 0 0 1 154.78 135a100.79 100.79 0 0 1-1.18-15.58A102.51 102.51 0 0 1 256 17.07zm-17.07 145.06V128h34.13a17.07 17.07 0 1 1 0 34.13zm25.6 17.07v17.07h-17.06V179.2zm-25.6-68.27V76.8h34.13a17.07 17.07 0 1 1 0 34.13zm-179.2 34.14h79.66a118.37 118.37 0 0 0 5.12 17.07H51.2v17.06h101.35a120.08 120.08 0 0 0 11.95 17.07H51.2v17.07h375.47v-17.07H347.4a121.14 121.14 0 0 0 11.95-17.07h67.32v-17.07h-59.15a120.27 120.27 0 0 0 5.12-17.07h71.09v85.34l-384 .51v-.51a42.67 42.67 0 0 1 0-85.33zm384 349.87h-384a42.72 42.72 0 0 1-42.67-42.67V229.46a59.54 59.54 0 0 0 42.67 18v.54l384-.51v51.2H324.27a59.73 59.73 0 1 0 0 119.47h119.46zm51.2-136.53a42.72 42.72 0 0 1-42.67 42.67h-128a42.67 42.67 0 0 1 0-85.33h128a59.54 59.54 0 0 0 42.67-18zm-.81-93.91a42.67 42.67 0 0 1-33.32 33.32v-83.63a42.67 42.67 0 0 1 33.32 50.3z"/><path class="cls-1" d="M324.27 332.8a25.6 25.6 0 1 0 25.6 25.6 25.6 25.6 0 0 0-25.6-25.6zm0 34.13a8.53 8.53 0 1 1 8.53-8.53 8.53 8.53 0 0 1-8.53 8.53zm68.26-102.4h25.6v17.07h-25.6zm-42.66 0h25.6v17.07h-25.6zm-42.67 0h25.6v17.07h-25.6zm-42.67 0h25.6v17.07h-25.6zm-42.66 0h25.6v17.07h-25.6zm-42.67 0h25.6v17.07h-25.6zm-42.67 0h25.6v17.07h-25.6zm-42.66 0h25.6v17.07h-25.6zm-42.67 0h25.6v17.07H51.2zM392.53 460.8h25.6v17.07h-25.6zm-42.66 0h25.6v17.07h-25.6zm-42.67 0h25.6v17.07h-25.6zm-42.67 0h25.6v17.07h-25.6zm-42.66 0h25.6v17.07h-25.6zm-42.67 0h25.6v17.07h-25.6zm-42.67 0h25.6v17.07h-25.6zm-42.66 0h25.6v17.07h-25.6zm-42.67 0h25.6v17.07H51.2z"/></svg>